%TF.GenerationSoftware,KiCad,Pcbnew,6.0.10+dfsg-1~bpo11+1*%
%TF.CreationDate,2023-02-14T07:20:41+00:00*%
%TF.ProjectId,ISM02B,49534d30-3242-42e6-9b69-6361645f7063,REV*%
%TF.SameCoordinates,Original*%
%TF.FileFunction,Soldermask,Bot*%
%TF.FilePolarity,Negative*%
%FSLAX46Y46*%
G04 Gerber Fmt 4.6, Leading zero omitted, Abs format (unit mm)*
G04 Created by KiCad (PCBNEW 6.0.10+dfsg-1~bpo11+1) date 2023-02-14 07:20:41*
%MOMM*%
%LPD*%
G01*
G04 APERTURE LIST*
G04 Aperture macros list*
%AMRoundRect*
0 Rectangle with rounded corners*
0 $1 Rounding radius*
0 $2 $3 $4 $5 $6 $7 $8 $9 X,Y pos of 4 corners*
0 Add a 4 corners polygon primitive as box body*
4,1,4,$2,$3,$4,$5,$6,$7,$8,$9,$2,$3,0*
0 Add four circle primitives for the rounded corners*
1,1,$1+$1,$2,$3*
1,1,$1+$1,$4,$5*
1,1,$1+$1,$6,$7*
1,1,$1+$1,$8,$9*
0 Add four rect primitives between the rounded corners*
20,1,$1+$1,$2,$3,$4,$5,0*
20,1,$1+$1,$4,$5,$6,$7,0*
20,1,$1+$1,$6,$7,$8,$9,0*
20,1,$1+$1,$8,$9,$2,$3,0*%
G04 Aperture macros list end*
%ADD10C,6.399998*%
%ADD11RoundRect,0.199999X-0.762000X-0.762000X0.762000X-0.762000X0.762000X0.762000X-0.762000X0.762000X0*%
%ADD12RoundRect,0.199999X0.762000X-0.762000X0.762000X0.762000X-0.762000X0.762000X-0.762000X-0.762000X0*%
%ADD13C,2.899998*%
%ADD14C,3.099998*%
%ADD15RoundRect,0.437499X0.237500X-0.287500X0.237500X0.287500X-0.237500X0.287500X-0.237500X-0.287500X0*%
%ADD16RoundRect,0.437499X0.287500X0.237500X-0.287500X0.237500X-0.287500X-0.237500X0.287500X-0.237500X0*%
%ADD17RoundRect,0.437499X-0.287500X-0.237500X0.287500X-0.237500X0.287500X0.237500X-0.287500X0.237500X0*%
%ADD18RoundRect,0.199999X0.425000X-0.375000X0.425000X0.375000X-0.425000X0.375000X-0.425000X-0.375000X0*%
%ADD19RoundRect,0.262499X0.062500X-0.350000X0.062500X0.350000X-0.062500X0.350000X-0.062500X-0.350000X0*%
%ADD20RoundRect,0.262499X0.350000X-0.062500X0.350000X0.062500X-0.350000X0.062500X-0.350000X-0.062500X0*%
%ADD21RoundRect,0.449999X1.050000X-1.050000X1.050000X1.050000X-1.050000X1.050000X-1.050000X-1.050000X0*%
%ADD22RoundRect,0.418749X-0.218750X-0.256250X0.218750X-0.256250X0.218750X0.256250X-0.218750X0.256250X0*%
%ADD23RoundRect,0.347499X-0.172500X0.147500X-0.172500X-0.147500X0.172500X-0.147500X0.172500X0.147500X0*%
%ADD24RoundRect,0.347499X-0.147500X-0.172500X0.147500X-0.172500X0.147500X0.172500X-0.147500X0.172500X0*%
%ADD25RoundRect,0.199999X0.698500X-0.444500X0.698500X0.444500X-0.698500X0.444500X-0.698500X-0.444500X0*%
%ADD26RoundRect,0.347499X0.172500X-0.147500X0.172500X0.147500X-0.172500X0.147500X-0.172500X-0.147500X0*%
%ADD27RoundRect,0.437499X-0.237500X0.287500X-0.237500X-0.287500X0.237500X-0.287500X0.237500X0.287500X0*%
%ADD28RoundRect,0.199999X-0.650000X-0.850000X0.650000X-0.850000X0.650000X0.850000X-0.650000X0.850000X0*%
%ADD29RoundRect,0.199999X0.530000X0.325000X-0.530000X0.325000X-0.530000X-0.325000X0.530000X-0.325000X0*%
%ADD30RoundRect,0.199999X-0.698500X0.444500X-0.698500X-0.444500X0.698500X-0.444500X0.698500X0.444500X0*%
%ADD31RoundRect,0.199999X0.200000X-0.325000X0.200000X0.325000X-0.200000X0.325000X-0.200000X-0.325000X0*%
%ADD32RoundRect,0.418749X0.218750X0.256250X-0.218750X0.256250X-0.218750X-0.256250X0.218750X-0.256250X0*%
G04 APERTURE END LIST*
D10*
%TO.C,M2*%
X139700000Y-104140000D03*
%TD*%
%TO.C,M3*%
X180340000Y-124460000D03*
%TD*%
D11*
%TO.C,J2*%
X137922000Y-118872000D03*
X140462000Y-118872000D03*
%TD*%
D12*
%TO.C,J5*%
X167102000Y-105410000D03*
X167102000Y-102870000D03*
%TD*%
%TO.C,J4*%
X172202000Y-105410000D03*
X172202000Y-102870000D03*
%TD*%
%TO.C,J3*%
X163596000Y-105410000D03*
X163596000Y-102870000D03*
%TD*%
D13*
%TO.C,J12*%
X179374800Y-114300000D03*
D14*
X181914800Y-111760000D03*
X176834800Y-111760000D03*
X176834800Y-116840000D03*
X181914800Y-116840000D03*
%TD*%
D12*
%TO.C,J10*%
X153396000Y-105410000D03*
X153396000Y-102870000D03*
%TD*%
%TO.C,J7*%
X174752000Y-105410000D03*
X174752000Y-102870000D03*
%TD*%
%TO.C,J9*%
X155946000Y-105410000D03*
X155946000Y-102870000D03*
%TD*%
%TO.C,J8*%
X158496000Y-105410000D03*
X158496000Y-102870000D03*
%TD*%
%TO.C,J11*%
X161046000Y-105410000D03*
X161046000Y-102870000D03*
%TD*%
%TO.C,J6*%
X169652000Y-105410000D03*
X169652000Y-102870000D03*
%TD*%
D10*
%TO.C,M1*%
X180340000Y-104140000D03*
%TD*%
D12*
%TO.C,J1*%
X145288000Y-105410000D03*
X145288000Y-102870000D03*
X147828000Y-105410000D03*
X147828000Y-102870000D03*
X150368000Y-105410000D03*
X150368000Y-102870000D03*
%TD*%
D10*
%TO.C,M4*%
X139700000Y-124460000D03*
%TD*%
D11*
%TO.C,J15*%
X137922000Y-113792000D03*
X140462000Y-113792000D03*
%TD*%
%TO.C,J13*%
X137922000Y-116332000D03*
X140462000Y-116332000D03*
%TD*%
D15*
%TO.C,C19*%
X168949600Y-114805000D03*
X168949600Y-113055000D03*
%TD*%
D16*
%TO.C,C18*%
X161671000Y-112141000D03*
X159921000Y-112141000D03*
%TD*%
D15*
%TO.C,C12*%
X161558000Y-117021000D03*
X161558000Y-115271000D03*
%TD*%
%TO.C,C22*%
X172720000Y-114667000D03*
X172720000Y-112917000D03*
%TD*%
%TO.C,C4*%
X145058000Y-120621000D03*
X145058000Y-118871000D03*
%TD*%
%TO.C,C5*%
X143458000Y-116921000D03*
X143458000Y-115171000D03*
%TD*%
%TO.C,C1*%
X152458000Y-125335000D03*
X152458000Y-123585000D03*
%TD*%
%TO.C,C3*%
X147258000Y-125335000D03*
X147258000Y-123585000D03*
%TD*%
D16*
%TO.C,C10*%
X159385000Y-117046000D03*
X157635000Y-117046000D03*
%TD*%
D15*
%TO.C,C6*%
X145058000Y-116921000D03*
X145058000Y-115171000D03*
%TD*%
D17*
%TO.C,C8*%
X157635000Y-115316000D03*
X159385000Y-115316000D03*
%TD*%
D18*
%TO.C,Y1*%
X150533000Y-126585000D03*
X149183000Y-126585000D03*
X149183000Y-125535000D03*
X150533000Y-125535000D03*
%TD*%
D19*
%TO.C,U1*%
X151108000Y-119583500D03*
X150608000Y-119583500D03*
X150108000Y-119583500D03*
X149608000Y-119583500D03*
X149108000Y-119583500D03*
X148608000Y-119583500D03*
D20*
X147920500Y-118896000D03*
X147920500Y-118396000D03*
X147920500Y-117896000D03*
X147920500Y-117396000D03*
X147920500Y-116896000D03*
X147920500Y-116396000D03*
D19*
X148608000Y-115708500D03*
X149108000Y-115708500D03*
X149608000Y-115708500D03*
X150108000Y-115708500D03*
X150608000Y-115708500D03*
X151108000Y-115708500D03*
D20*
X151795500Y-116396000D03*
X151795500Y-116896000D03*
X151795500Y-117396000D03*
X151795500Y-117896000D03*
X151795500Y-118396000D03*
X151795500Y-118896000D03*
D21*
X149858000Y-117646000D03*
%TD*%
D22*
%TO.C,R1*%
X166446000Y-110236000D03*
X168021000Y-110236000D03*
%TD*%
D23*
%TO.C,L2*%
X155970000Y-115661000D03*
X155970000Y-116631000D03*
%TD*%
D24*
%TO.C,L7*%
X170464600Y-113030000D03*
X171434600Y-113030000D03*
%TD*%
D25*
%TO.C,L1*%
X143158000Y-120332500D03*
X143158000Y-118427500D03*
%TD*%
D26*
%TO.C,L4*%
X156258000Y-120331000D03*
X156258000Y-119361000D03*
%TD*%
%TO.C,L6*%
X166217600Y-119865000D03*
X166217600Y-118895000D03*
%TD*%
D24*
%TO.C,L5*%
X159773000Y-121246000D03*
X160743000Y-121246000D03*
%TD*%
D16*
%TO.C,C13*%
X161133000Y-119546000D03*
X159383000Y-119546000D03*
%TD*%
D27*
%TO.C,C16*%
X168148000Y-119013000D03*
X168148000Y-120763000D03*
%TD*%
D16*
%TO.C,C17*%
X166979600Y-113030000D03*
X165229600Y-113030000D03*
%TD*%
D27*
%TO.C,C14*%
X162758000Y-121285000D03*
X162758000Y-123035000D03*
%TD*%
%TO.C,C11*%
X157758000Y-119571000D03*
X157758000Y-121321000D03*
%TD*%
D16*
%TO.C,C15*%
X164614800Y-119532400D03*
X162864800Y-119532400D03*
%TD*%
%TO.C,C9*%
X156008000Y-121746000D03*
X154258000Y-121746000D03*
%TD*%
%TO.C,C7*%
X156008000Y-123446000D03*
X154258000Y-123446000D03*
%TD*%
D24*
%TO.C,L3*%
X154073000Y-119346000D03*
X155043000Y-119346000D03*
%TD*%
D17*
%TO.C,C2*%
X145263000Y-111252000D03*
X147013000Y-111252000D03*
%TD*%
D28*
%TO.C,D1*%
X147884000Y-108712000D03*
X151384000Y-108712000D03*
%TD*%
D29*
%TO.C,U2*%
X141038000Y-109102000D03*
X141038000Y-110052000D03*
X141038000Y-111002000D03*
X138838000Y-111002000D03*
X138838000Y-109102000D03*
%TD*%
D25*
%TO.C,C24*%
X136652000Y-110744000D03*
X136652000Y-108839000D03*
%TD*%
D30*
%TO.C,C21*%
X143038000Y-109099500D03*
X143038000Y-111004500D03*
%TD*%
D25*
%TO.C,C25*%
X145288000Y-109601000D03*
X145288000Y-107696000D03*
%TD*%
D31*
%TO.C,U3*%
X165750000Y-116836000D03*
X165100000Y-116836000D03*
X164450000Y-116836000D03*
X164450000Y-114936000D03*
X165100000Y-114936000D03*
X165750000Y-114936000D03*
%TD*%
D32*
%TO.C,R2*%
X163957000Y-110236000D03*
X162382000Y-110236000D03*
%TD*%
M02*
