M48
; DRILL file {KiCad 6.0.10+dfsg-1~bpo11+1} date Tue Feb 14 08:26:49 2023
; FORMAT={-:-/ absolute / metric / decimal}
; #@! TF.CreationDate,2023-02-14T08:26:49+00:00
; #@! TF.GenerationSoftware,Kicad,Pcbnew,6.0.10+dfsg-1~bpo11+1
; #@! TF.FileFunction,Plated,1,2,PTH
FMAT,2
METRIC
; #@! TA.AperFunction,Plated,PTH,ComponentDrill
T1C0.200
; #@! TA.AperFunction,Plated,PTH,ViaDrill
T2C0.300
; #@! TA.AperFunction,Plated,PTH,ComponentDrill
T3C0.889
; #@! TA.AperFunction,Plated,PTH,ComponentDrill
T4C1.500
; #@! TA.AperFunction,Plated,PTH,ComponentDrill
T5C1.700
; #@! TA.AperFunction,Plated,PTH,ComponentDrill
T6C3.000
%
G90
G05
T1
X148.808Y-116.596
X148.808Y-117.646
X148.808Y-118.696
X149.858Y-116.596
X149.858Y-117.646
X149.858Y-118.696
X150.908Y-116.596
X150.908Y-117.646
X150.908Y-118.696
T2
X135.89Y-116.84
X135.89Y-118.11
X135.89Y-119.38
X135.89Y-120.65
X136.271Y-107.315
X137.94Y-110.0
X141.859Y-107.569
X142.24Y-128.27
X142.494Y-112.649
X143.383Y-107.442
X143.458Y-114.046
X143.51Y-100.33
X143.51Y-128.27
X143.637Y-121.92
X143.764Y-112.649
X144.78Y-100.33
X145.058Y-114.046
X145.161Y-112.649
X145.161Y-122.301
X145.161Y-123.317
X145.161Y-124.333
X145.161Y-125.349
X145.161Y-126.619
X145.161Y-128.27
X146.05Y-100.33
X146.05Y-121.92
X146.05Y-127.0
X146.058Y-113.746
X146.058Y-118.946
X146.304Y-128.27
X146.858Y-117.146
X146.939Y-112.649
X147.32Y-100.33
X147.32Y-121.92
X147.447Y-128.27
X147.858Y-126.56
X147.902Y-121.146
X148.358Y-123.26
X148.463Y-128.27
X148.59Y-100.33
X148.717Y-122.174
X148.908Y-121.146
X149.258Y-124.56
X149.606Y-107.442
X149.606Y-108.712
X149.606Y-128.27
X149.858Y-123.86
X149.86Y-100.33
X150.558Y-124.56
X150.858Y-121.146
X150.876Y-122.301
X150.876Y-128.27
X151.13Y-100.33
X151.358Y-123.26
X151.858Y-121.146
X152.019Y-122.301
X152.273Y-128.27
X152.4Y-100.33
X153.035Y-115.57
X153.035Y-127.127
X153.158Y-121.746
X153.416Y-123.446
X153.67Y-100.33
X153.797Y-126.111
X153.858Y-124.946
X154.305Y-128.27
X154.94Y-100.33
X154.94Y-118.346
X155.575Y-128.27
X155.858Y-118.346
X156.21Y-100.33
X156.224Y-114.808
X156.845Y-128.27
X156.972Y-113.919
X157.357Y-118.342
X157.48Y-100.33
X157.48Y-122.809
X157.861Y-113.919
X158.115Y-128.27
X158.623Y-122.809
X158.75Y-100.33
X158.75Y-113.919
X159.058Y-118.346
X159.385Y-128.27
X159.766Y-113.919
X159.766Y-122.809
X160.02Y-100.33
X160.655Y-113.919
X160.655Y-128.27
X160.658Y-118.346
X161.036Y-122.809
X161.036Y-124.46
X161.29Y-100.33
X161.544Y-109.49
X161.798Y-113.919
X161.925Y-128.27
X162.258Y-118.346
X162.56Y-100.33
X162.56Y-124.46
X162.814Y-111.633
X162.941Y-115.697
X163.195Y-128.27
X163.703Y-114.935
X163.83Y-100.33
X163.83Y-111.633
X163.83Y-112.649
X163.83Y-113.665
X163.858Y-118.346
X164.211Y-121.666
X164.211Y-122.809
X164.338Y-124.46
X164.465Y-128.27
X164.846Y-111.633
X164.846Y-117.983
X165.1Y-100.33
X165.227Y-121.158
X165.354Y-110.236
X165.735Y-128.27
X165.989Y-111.633
X166.116Y-113.919
X166.37Y-100.33
X166.497Y-121.158
X167.005Y-115.443
X167.005Y-128.27
X167.132Y-116.967
X167.132Y-122.428
X167.64Y-100.33
X167.767Y-114.3
X167.894Y-111.633
X168.148Y-116.967
X168.275Y-128.27
X168.402Y-122.428
X168.91Y-100.33
X168.91Y-111.633
X169.164Y-110.236
X169.164Y-116.967
X169.418Y-117.983
X169.545Y-119.126
X169.545Y-120.904
X169.545Y-122.428
X169.545Y-128.27
X170.053Y-111.633
X170.18Y-100.33
X170.307Y-114.3
X170.561Y-116.967
X170.815Y-128.27
X171.069Y-111.633
X171.323Y-114.3
X171.45Y-100.33
X171.704Y-116.967
X172.085Y-128.27
X172.212Y-111.506
X172.72Y-100.33
X172.847Y-116.967
X173.101Y-111.506
X173.355Y-128.27
X173.99Y-100.33
X173.99Y-111.506
X173.99Y-118.11
X173.99Y-119.38
X174.117Y-114.935
X174.117Y-116.967
X174.498Y-112.268
X174.625Y-120.015
X174.625Y-128.27
X175.006Y-115.062
X175.26Y-100.33
X175.895Y-120.015
X175.895Y-128.27
X176.53Y-100.33
X176.53Y-108.585
X177.165Y-128.27
X177.8Y-100.33
X177.8Y-108.585
X177.8Y-120.015
X179.07Y-110.49
X179.07Y-120.015
X179.705Y-118.745
X180.975Y-108.585
X181.61Y-120.015
X182.245Y-108.585
X183.515Y-120.015
X184.15Y-106.68
X184.15Y-107.95
X184.15Y-109.22
X184.15Y-110.49
X184.15Y-111.76
X184.15Y-113.03
X184.15Y-114.3
X184.15Y-115.57
X184.15Y-116.84
X184.15Y-118.11
X184.15Y-119.38
X184.15Y-120.65
T3
X137.922Y-113.792
X137.922Y-116.332
X137.922Y-118.872
X140.462Y-113.792
X140.462Y-116.332
X140.462Y-118.872
X145.288Y-102.87
X145.288Y-105.41
X147.828Y-102.87
X147.828Y-105.41
X150.368Y-102.87
X150.368Y-105.41
X153.396Y-102.87
X153.396Y-105.41
X155.946Y-102.87
X155.946Y-105.41
X158.496Y-102.87
X158.496Y-105.41
X161.046Y-102.87
X161.046Y-105.41
X163.596Y-102.87
X163.596Y-105.41
X167.102Y-102.87
X167.102Y-105.41
X169.652Y-102.87
X169.652Y-105.41
X172.202Y-102.87
X172.202Y-105.41
X174.752Y-102.87
X174.752Y-105.41
T4
X179.375Y-114.3
T5
X176.835Y-111.76
X176.835Y-116.84
X181.915Y-111.76
X181.915Y-116.84
T6
X139.7Y-104.14
X139.7Y-124.46
X180.34Y-104.14
X180.34Y-124.46
T0
M30
