M48
; DRILL file {KiCad 6.0.10+dfsg-1~bpo11+1} date Fri Feb  3 00:16:52 2023
; FORMAT={-:-/ absolute / metric / decimal}
; #@! TF.CreationDate,2023-02-03T00:16:52+00:00
; #@! TF.GenerationSoftware,Kicad,Pcbnew,6.0.10+dfsg-1~bpo11+1
; #@! TF.FileFunction,Plated,1,2,PTH
FMAT,2
METRIC
; #@! TA.AperFunction,Plated,PTH,ComponentDrill
T1C0.200
; #@! TA.AperFunction,Plated,PTH,ViaDrill
T2C0.300
; #@! TA.AperFunction,Plated,PTH,ComponentDrill
T3C0.889
; #@! TA.AperFunction,Plated,PTH,ComponentDrill
T4C1.500
; #@! TA.AperFunction,Plated,PTH,ComponentDrill
T5C1.700
; #@! TA.AperFunction,Plated,PTH,ComponentDrill
T6C3.000
%
G90
G05
T1
X152.15Y-104.85
X152.15Y-105.9
X152.15Y-106.95
X153.2Y-104.85
X153.2Y-105.9
X153.2Y-106.95
X154.25Y-104.85
X154.25Y-105.9
X154.25Y-106.95
T2
X136.6Y-97.8
X137.5Y-112.5
X137.5Y-115.0
X137.5Y-117.5
X137.5Y-120.0
X138.8Y-97.7
X140.0Y-102.5
X140.0Y-105.0
X140.0Y-107.5
X140.0Y-110.0
X140.0Y-112.5
X140.0Y-115.0
X140.0Y-117.5
X142.4Y-110.2
X142.5Y-102.5
X142.5Y-105.0
X142.5Y-112.5
X142.5Y-115.0
X142.5Y-117.5
X142.5Y-120.0
X145.0Y-80.0
X145.0Y-82.5
X146.4Y-97.6
X146.8Y-102.3
X147.0Y-80.0
X147.5Y-82.5
X147.5Y-100.0
X147.5Y-112.5
X147.5Y-115.0
X147.5Y-117.5
X147.5Y-120.0
X147.5Y-122.5
X147.5Y-125.0
X148.4Y-102.3
X149.0Y-80.0
X149.2Y-113.2
X149.4Y-102.0
X149.4Y-107.2
X150.0Y-82.5
X150.0Y-117.5
X150.0Y-120.0
X150.0Y-122.5
X150.0Y-125.0
X150.2Y-100.6
X150.2Y-105.4
X151.0Y-80.0
X151.2Y-116.2
X151.244Y-109.4
X151.4Y-97.6
X151.7Y-112.9
X152.25Y-109.4
X152.5Y-117.5
X152.5Y-120.0
X152.5Y-122.5
X152.5Y-125.0
X152.6Y-114.2
X153.2Y-100.6
X153.2Y-113.5
X153.9Y-114.2
X154.2Y-109.4
X154.7Y-112.9
X155.0Y-80.0
X155.0Y-82.2
X155.0Y-117.5
X155.0Y-120.0
X155.0Y-122.5
X155.0Y-125.0
X155.2Y-109.4
X156.5Y-110.0
X156.5Y-111.7
X157.2Y-113.2
X157.4Y-82.2
X157.5Y-80.0
X157.5Y-93.9
X157.5Y-97.5
X157.5Y-117.5
X157.5Y-120.0
X157.5Y-122.5
X157.5Y-125.0
X157.8Y-85.9
X157.8Y-106.6
X158.0Y-115.0
X158.6Y-99.2
X159.0Y-86.6
X159.2Y-106.6
X160.0Y-82.2
X160.0Y-80.0
X160.0Y-115.0
X160.0Y-117.5
X160.0Y-120.0
X160.0Y-122.5
X160.0Y-125.0
X160.699Y-106.596
X161.0Y-113.0
X161.8Y-99.0
X162.0Y-102.0
X162.0Y-111.0
X162.0Y-115.0
X162.4Y-82.2
X162.4Y-106.6
X162.5Y-80.0
X162.5Y-97.5
X162.5Y-117.5
X162.5Y-120.0
X162.5Y-122.5
X162.5Y-125.0
X163.0Y-113.0
X163.5Y-93.9
X163.83Y-84.074
X164.0Y-102.0
X164.0Y-106.6
X164.0Y-111.0
X164.0Y-115.0
X165.0Y-100.0
X165.0Y-103.4
X165.0Y-113.0
X165.0Y-117.5
X165.0Y-120.0
X165.0Y-122.5
X165.0Y-125.0
X165.6Y-106.6
X166.0Y-102.0
X166.0Y-111.0
X166.0Y-115.0
X166.6Y-103.4
X167.0Y-100.0
X167.0Y-113.0
X167.2Y-106.6
X167.5Y-80.0
X167.5Y-82.5
X167.5Y-85.0
X167.5Y-97.5
X167.5Y-117.5
X167.5Y-120.0
X167.5Y-122.5
X167.5Y-125.0
X168.0Y-102.0
X168.0Y-111.0
X168.0Y-115.0
X169.0Y-100.0
X169.0Y-113.0
X169.0Y-106.6
X170.0Y-80.0
X170.0Y-82.5
X170.0Y-85.0
X170.0Y-87.5
X170.0Y-90.0
X170.0Y-92.5
X170.0Y-97.5
X170.0Y-102.0
X170.0Y-115.0
X170.0Y-117.5
X170.0Y-120.0
X170.0Y-122.5
X170.0Y-125.0
X170.4Y-103.2
X170.8Y-106.6
X171.0Y-100.0
X171.0Y-108.0
X171.0Y-110.0
X172.0Y-102.0
X172.0Y-109.0
X172.0Y-115.0
X172.5Y-80.0
X172.5Y-82.5
X172.5Y-85.0
X172.5Y-87.5
X172.5Y-90.0
X172.5Y-92.5
X172.5Y-97.5
X172.5Y-117.5
X172.5Y-120.0
X172.5Y-122.5
X172.5Y-125.0
X172.6Y-106.6
X173.0Y-100.0
X173.0Y-108.0
X173.0Y-110.0
X173.0Y-113.0
X174.0Y-102.0
X174.0Y-109.0
X174.0Y-115.0
X174.6Y-104.0
X174.6Y-106.6
X175.0Y-80.0
X175.0Y-82.5
X175.0Y-85.0
X175.0Y-87.5
X175.0Y-90.0
X175.0Y-92.5
X175.0Y-97.5
X175.0Y-100.0
X175.0Y-108.0
X175.0Y-110.0
X175.0Y-113.0
X175.0Y-117.5
X175.0Y-120.0
X175.0Y-122.5
X175.0Y-125.0
X177.5Y-80.0
X177.5Y-82.5
X177.5Y-85.0
X177.5Y-87.5
X177.5Y-90.0
X177.5Y-92.5
X178.0Y-104.0
X178.0Y-106.8
X178.0Y-109.0
X178.0Y-115.0
X178.0Y-118.0
X179.0Y-110.0
X179.0Y-117.0
X179.0Y-120.0
X179.0Y-122.0
X179.0Y-124.0
X179.0Y-126.0
X179.0Y-128.0
X180.0Y-80.0
X180.0Y-82.5
X180.0Y-85.0
X180.0Y-87.5
X180.0Y-90.0
X180.0Y-92.5
X180.0Y-95.0
X180.0Y-97.5
X180.0Y-100.0
X180.0Y-104.0
X180.0Y-106.8
X180.0Y-109.0
X180.0Y-113.0
X180.0Y-115.0
X181.0Y-108.0
X181.0Y-110.0
X181.0Y-113.0
X181.0Y-114.0
X181.0Y-117.0
X181.0Y-119.0
X181.0Y-121.0
X181.0Y-123.0
X181.0Y-125.0
X181.0Y-127.0
X182.0Y-104.0
X182.0Y-106.8
X182.0Y-109.0
X182.0Y-115.0
X183.0Y-80.0
X183.0Y-82.0
X183.0Y-84.0
X183.0Y-86.0
X183.0Y-88.0
X183.0Y-90.0
X183.0Y-92.0
X183.0Y-94.0
X183.0Y-96.0
X183.0Y-98.0
X183.0Y-100.0
X183.0Y-102.0
X183.0Y-108.0
X183.0Y-110.0
X183.0Y-117.0
X183.0Y-120.0
X183.0Y-122.0
X183.0Y-124.0
X183.0Y-126.0
X183.0Y-128.0
X184.0Y-104.0
X184.0Y-106.8
X184.0Y-116.0
X185.0Y-80.0
X185.0Y-81.0
X185.0Y-83.0
X185.0Y-85.0
X185.0Y-87.0
X185.0Y-90.0
X185.0Y-91.6
X185.0Y-93.0
X185.0Y-117.0
X185.0Y-118.4
X185.0Y-120.0
X185.0Y-123.0
X185.0Y-125.0
X185.0Y-127.0
X186.0Y-104.0
X186.0Y-106.8
X187.0Y-80.0
X187.0Y-89.0
X187.0Y-103.0
X187.0Y-121.0
X187.8Y-106.2
X188.8Y-105.0
X189.0Y-89.0
X189.0Y-121.0
X189.2Y-103.4
X191.0Y-117.0
X191.0Y-90.0
X191.0Y-91.6
X191.0Y-93.0
X191.0Y-104.0
X191.0Y-106.0
X191.0Y-118.4
X191.0Y-120.0
X193.0Y-88.0
X193.0Y-90.0
X193.0Y-92.0
X193.0Y-94.0
X193.0Y-96.0
X193.0Y-98.0
X193.0Y-100.0
X193.0Y-102.0
X193.0Y-104.0
X193.0Y-106.0
X193.0Y-108.0
X193.0Y-110.0
X193.0Y-112.0
X193.0Y-114.0
X193.0Y-116.0
X193.0Y-118.0
X193.0Y-120.0
T3
X137.53Y-89.46
X137.53Y-92.0
X137.53Y-94.54
X140.07Y-89.46
X140.07Y-92.0
X140.07Y-94.54
X145.8Y-88.33
X145.8Y-90.87
X148.35Y-88.33
X148.35Y-90.87
X150.9Y-88.33
X150.9Y-90.87
X153.45Y-88.33
X153.45Y-90.87
X156.0Y-88.33
X156.0Y-90.87
X160.0Y-88.33
X160.0Y-90.87
X162.55Y-88.33
X162.55Y-90.87
X165.1Y-88.33
X165.1Y-90.87
X167.65Y-88.33
X167.65Y-90.87
T4
X187.9Y-98.3
X187.9Y-111.3
T5
X185.36Y-95.76
X185.36Y-100.84
X185.36Y-108.76
X185.36Y-113.84
X190.44Y-95.76
X190.44Y-100.84
X190.44Y-108.76
X190.44Y-113.84
T6
X139.7Y-83.82
X139.7Y-124.46
X190.5Y-83.82
X190.5Y-124.46
T0
M30
