G04 #@! TF.GenerationSoftware,KiCad,Pcbnew,(5.99.0-9154-g0d2ee266a1)*
G04 #@! TF.CreationDate,2021-03-25T14:29:23+01:00*
G04 #@! TF.ProjectId,ISM02B,49534d30-3242-42e6-9b69-6361645f7063,REV*
G04 #@! TF.SameCoordinates,Original*
G04 #@! TF.FileFunction,Legend,Top*
G04 #@! TF.FilePolarity,Positive*
%FSLAX46Y46*%
G04 Gerber Fmt 4.6, Leading zero omitted, Abs format (unit mm)*
G04 Created by KiCad (PCBNEW (5.99.0-9154-g0d2ee266a1)) date 2021-03-25 14:29:23*
%MOMM*%
%LPD*%
G01*
G04 APERTURE LIST*
%ADD10C,0.300000*%
%ADD11C,0.150000*%
%ADD12R,1.524000X1.524000*%
G04 APERTURE END LIST*
D10*
X145113714Y-109009571D02*
X145113714Y-107509571D01*
X145828000Y-109009571D02*
X145828000Y-107509571D01*
X146685142Y-109009571D01*
X146685142Y-107509571D01*
X149256571Y-107509571D02*
X148542285Y-107509571D01*
X148470857Y-108223857D01*
X148542285Y-108152428D01*
X148685142Y-108081000D01*
X149042285Y-108081000D01*
X149185142Y-108152428D01*
X149256571Y-108223857D01*
X149328000Y-108366714D01*
X149328000Y-108723857D01*
X149256571Y-108866714D01*
X149185142Y-108938142D01*
X149042285Y-109009571D01*
X148685142Y-109009571D01*
X148542285Y-108938142D01*
X148470857Y-108866714D01*
X149756571Y-107509571D02*
X150256571Y-109009571D01*
X150756571Y-107509571D01*
X166620571Y-124693071D02*
X166620571Y-123193071D01*
X167120571Y-124264500D01*
X167620571Y-123193071D01*
X167620571Y-124693071D01*
X169049142Y-124693071D02*
X168334857Y-124693071D01*
X168334857Y-123193071D01*
X169477714Y-124264500D02*
X170192000Y-124264500D01*
X169334857Y-124693071D02*
X169834857Y-123193071D01*
X170334857Y-124693071D01*
X171334857Y-123907357D02*
X171549142Y-123978785D01*
X171620571Y-124050214D01*
X171692000Y-124193071D01*
X171692000Y-124407357D01*
X171620571Y-124550214D01*
X171549142Y-124621642D01*
X171406285Y-124693071D01*
X170834857Y-124693071D01*
X170834857Y-123193071D01*
X171334857Y-123193071D01*
X171477714Y-123264500D01*
X171549142Y-123335928D01*
X171620571Y-123478785D01*
X171620571Y-123621642D01*
X171549142Y-123764500D01*
X171477714Y-123835928D01*
X171334857Y-123907357D01*
X170834857Y-123907357D01*
X172334857Y-124550214D02*
X172406285Y-124621642D01*
X172334857Y-124693071D01*
X172263428Y-124621642D01*
X172334857Y-124550214D01*
X172334857Y-124693071D01*
X173906285Y-124550214D02*
X173834857Y-124621642D01*
X173620571Y-124693071D01*
X173477714Y-124693071D01*
X173263428Y-124621642D01*
X173120571Y-124478785D01*
X173049142Y-124335928D01*
X172977714Y-124050214D01*
X172977714Y-123835928D01*
X173049142Y-123550214D01*
X173120571Y-123407357D01*
X173263428Y-123264500D01*
X173477714Y-123193071D01*
X173620571Y-123193071D01*
X173834857Y-123264500D01*
X173906285Y-123335928D01*
X174406285Y-123193071D02*
X175406285Y-123193071D01*
X174406285Y-124693071D01*
X175406285Y-124693071D01*
X167192000Y-127108071D02*
X167192000Y-125608071D01*
X167834857Y-127036642D02*
X168049142Y-127108071D01*
X168406285Y-127108071D01*
X168549142Y-127036642D01*
X168620571Y-126965214D01*
X168692000Y-126822357D01*
X168692000Y-126679500D01*
X168620571Y-126536642D01*
X168549142Y-126465214D01*
X168406285Y-126393785D01*
X168120571Y-126322357D01*
X167977714Y-126250928D01*
X167906285Y-126179500D01*
X167834857Y-126036642D01*
X167834857Y-125893785D01*
X167906285Y-125750928D01*
X167977714Y-125679500D01*
X168120571Y-125608071D01*
X168477714Y-125608071D01*
X168692000Y-125679500D01*
X169334857Y-127108071D02*
X169334857Y-125608071D01*
X169834857Y-126679500D01*
X170334857Y-125608071D01*
X170334857Y-127108071D01*
X171334857Y-125608071D02*
X171477714Y-125608071D01*
X171620571Y-125679500D01*
X171692000Y-125750928D01*
X171763428Y-125893785D01*
X171834857Y-126179500D01*
X171834857Y-126536642D01*
X171763428Y-126822357D01*
X171692000Y-126965214D01*
X171620571Y-127036642D01*
X171477714Y-127108071D01*
X171334857Y-127108071D01*
X171192000Y-127036642D01*
X171120571Y-126965214D01*
X171049142Y-126822357D01*
X170977714Y-126536642D01*
X170977714Y-126179500D01*
X171049142Y-125893785D01*
X171120571Y-125750928D01*
X171192000Y-125679500D01*
X171334857Y-125608071D01*
X172406285Y-125750928D02*
X172477714Y-125679500D01*
X172620571Y-125608071D01*
X172977714Y-125608071D01*
X173120571Y-125679500D01*
X173192000Y-125750928D01*
X173263428Y-125893785D01*
X173263428Y-126036642D01*
X173192000Y-126250928D01*
X172334857Y-127108071D01*
X173263428Y-127108071D01*
X174406285Y-126322357D02*
X174620571Y-126393785D01*
X174692000Y-126465214D01*
X174763428Y-126608071D01*
X174763428Y-126822357D01*
X174692000Y-126965214D01*
X174620571Y-127036642D01*
X174477714Y-127108071D01*
X173906285Y-127108071D01*
X173906285Y-125608071D01*
X174406285Y-125608071D01*
X174549142Y-125679500D01*
X174620571Y-125750928D01*
X174692000Y-125893785D01*
X174692000Y-126036642D01*
X174620571Y-126179500D01*
X174549142Y-126250928D01*
X174406285Y-126322357D01*
X173906285Y-126322357D01*
X175660514Y-120693571D02*
X175660514Y-119193571D01*
X176374800Y-120693571D02*
X176374800Y-119193571D01*
X177231942Y-120693571D01*
X177231942Y-119193571D01*
X179017657Y-119122142D02*
X177731942Y-121050714D01*
X179803371Y-119193571D02*
X180089085Y-119193571D01*
X180231942Y-119265000D01*
X180374800Y-119407857D01*
X180446228Y-119693571D01*
X180446228Y-120193571D01*
X180374800Y-120479285D01*
X180231942Y-120622142D01*
X180089085Y-120693571D01*
X179803371Y-120693571D01*
X179660514Y-120622142D01*
X179517657Y-120479285D01*
X179446228Y-120193571D01*
X179446228Y-119693571D01*
X179517657Y-119407857D01*
X179660514Y-119265000D01*
X179803371Y-119193571D01*
X181089085Y-119193571D02*
X181089085Y-120407857D01*
X181160514Y-120550714D01*
X181231942Y-120622142D01*
X181374800Y-120693571D01*
X181660514Y-120693571D01*
X181803371Y-120622142D01*
X181874800Y-120550714D01*
X181946228Y-120407857D01*
X181946228Y-119193571D01*
X182446228Y-119193571D02*
X183303371Y-119193571D01*
X182874800Y-120693571D02*
X182874800Y-119193571D01*
X155928714Y-125305428D02*
X156000142Y-125234000D01*
X156143000Y-125162571D01*
X156500142Y-125162571D01*
X156643000Y-125234000D01*
X156714428Y-125305428D01*
X156785857Y-125448285D01*
X156785857Y-125591142D01*
X156714428Y-125805428D01*
X155857285Y-126662571D01*
X156785857Y-126662571D01*
X157714428Y-125162571D02*
X157857285Y-125162571D01*
X158000142Y-125234000D01*
X158071571Y-125305428D01*
X158143000Y-125448285D01*
X158214428Y-125734000D01*
X158214428Y-126091142D01*
X158143000Y-126376857D01*
X158071571Y-126519714D01*
X158000142Y-126591142D01*
X157857285Y-126662571D01*
X157714428Y-126662571D01*
X157571571Y-126591142D01*
X157500142Y-126519714D01*
X157428714Y-126376857D01*
X157357285Y-126091142D01*
X157357285Y-125734000D01*
X157428714Y-125448285D01*
X157500142Y-125305428D01*
X157571571Y-125234000D01*
X157714428Y-125162571D01*
X158785857Y-125305428D02*
X158857285Y-125234000D01*
X159000142Y-125162571D01*
X159357285Y-125162571D01*
X159500142Y-125234000D01*
X159571571Y-125305428D01*
X159643000Y-125448285D01*
X159643000Y-125591142D01*
X159571571Y-125805428D01*
X158714428Y-126662571D01*
X159643000Y-126662571D01*
X161071571Y-126662571D02*
X160214428Y-126662571D01*
X160643000Y-126662571D02*
X160643000Y-125162571D01*
X160500142Y-125376857D01*
X160357285Y-125519714D01*
X160214428Y-125591142D01*
X156614571Y-111732142D02*
X155114571Y-111732142D01*
X155114571Y-111375000D01*
X155186000Y-111160714D01*
X155328857Y-111017857D01*
X155471714Y-110946428D01*
X155757428Y-110875000D01*
X155971714Y-110875000D01*
X156257428Y-110946428D01*
X156400285Y-111017857D01*
X156543142Y-111160714D01*
X156614571Y-111375000D01*
X156614571Y-111732142D01*
X156614571Y-110232142D02*
X155114571Y-110232142D01*
X155114571Y-109232142D02*
X155114571Y-108946428D01*
X155186000Y-108803571D01*
X155328857Y-108660714D01*
X155614571Y-108589285D01*
X156114571Y-108589285D01*
X156400285Y-108660714D01*
X156543142Y-108803571D01*
X156614571Y-108946428D01*
X156614571Y-109232142D01*
X156543142Y-109375000D01*
X156400285Y-109517857D01*
X156114571Y-109589285D01*
X155614571Y-109589285D01*
X155328857Y-109517857D01*
X155186000Y-109375000D01*
X155114571Y-109232142D01*
X155257428Y-108017857D02*
X155186000Y-107946428D01*
X155114571Y-107803571D01*
X155114571Y-107446428D01*
X155186000Y-107303571D01*
X155257428Y-107232142D01*
X155400285Y-107160714D01*
X155543142Y-107160714D01*
X155757428Y-107232142D01*
X156614571Y-108089285D01*
X156614571Y-107160714D01*
X160908857Y-111803571D02*
X160980285Y-111589285D01*
X161051714Y-111517857D01*
X161194571Y-111446428D01*
X161408857Y-111446428D01*
X161551714Y-111517857D01*
X161623142Y-111589285D01*
X161694571Y-111732142D01*
X161694571Y-112303571D01*
X160194571Y-112303571D01*
X160194571Y-111803571D01*
X160266000Y-111660714D01*
X160337428Y-111589285D01*
X160480285Y-111517857D01*
X160623142Y-111517857D01*
X160766000Y-111589285D01*
X160837428Y-111660714D01*
X160908857Y-111803571D01*
X160908857Y-112303571D01*
X160194571Y-110803571D02*
X161408857Y-110803571D01*
X161551714Y-110732142D01*
X161623142Y-110660714D01*
X161694571Y-110517857D01*
X161694571Y-110232142D01*
X161623142Y-110089285D01*
X161551714Y-110017857D01*
X161408857Y-109946428D01*
X160194571Y-109946428D01*
X161623142Y-109303571D02*
X161694571Y-109089285D01*
X161694571Y-108732142D01*
X161623142Y-108589285D01*
X161551714Y-108517857D01*
X161408857Y-108446428D01*
X161266000Y-108446428D01*
X161123142Y-108517857D01*
X161051714Y-108589285D01*
X160980285Y-108732142D01*
X160908857Y-109017857D01*
X160837428Y-109160714D01*
X160766000Y-109232142D01*
X160623142Y-109303571D01*
X160480285Y-109303571D01*
X160337428Y-109232142D01*
X160266000Y-109160714D01*
X160194571Y-109017857D01*
X160194571Y-108660714D01*
X160266000Y-108446428D01*
X160980285Y-107517857D02*
X161694571Y-107517857D01*
X160194571Y-108017857D02*
X160980285Y-107517857D01*
X160194571Y-107017857D01*
X167780571Y-111946428D02*
X166280571Y-111946428D01*
X167352000Y-111446428D01*
X166280571Y-110946428D01*
X167780571Y-110946428D01*
X167780571Y-110232142D02*
X166280571Y-110232142D01*
X167709142Y-109589285D02*
X167780571Y-109375000D01*
X167780571Y-109017857D01*
X167709142Y-108875000D01*
X167637714Y-108803571D01*
X167494857Y-108732142D01*
X167352000Y-108732142D01*
X167209142Y-108803571D01*
X167137714Y-108875000D01*
X167066285Y-109017857D01*
X166994857Y-109303571D01*
X166923428Y-109446428D01*
X166852000Y-109517857D01*
X166709142Y-109589285D01*
X166566285Y-109589285D01*
X166423428Y-109517857D01*
X166352000Y-109446428D01*
X166280571Y-109303571D01*
X166280571Y-108946428D01*
X166352000Y-108732142D01*
X166280571Y-107803571D02*
X166280571Y-107517857D01*
X166352000Y-107375000D01*
X166494857Y-107232142D01*
X166780571Y-107160714D01*
X167280571Y-107160714D01*
X167566285Y-107232142D01*
X167709142Y-107375000D01*
X167780571Y-107517857D01*
X167780571Y-107803571D01*
X167709142Y-107946428D01*
X167566285Y-108089285D01*
X167280571Y-108160714D01*
X166780571Y-108160714D01*
X166494857Y-108089285D01*
X166352000Y-107946428D01*
X166280571Y-107803571D01*
X154074571Y-111732142D02*
X152574571Y-111732142D01*
X152574571Y-111375000D01*
X152646000Y-111160714D01*
X152788857Y-111017857D01*
X152931714Y-110946428D01*
X153217428Y-110875000D01*
X153431714Y-110875000D01*
X153717428Y-110946428D01*
X153860285Y-111017857D01*
X154003142Y-111160714D01*
X154074571Y-111375000D01*
X154074571Y-111732142D01*
X154074571Y-110232142D02*
X152574571Y-110232142D01*
X152574571Y-109232142D02*
X152574571Y-108946428D01*
X152646000Y-108803571D01*
X152788857Y-108660714D01*
X153074571Y-108589285D01*
X153574571Y-108589285D01*
X153860285Y-108660714D01*
X154003142Y-108803571D01*
X154074571Y-108946428D01*
X154074571Y-109232142D01*
X154003142Y-109375000D01*
X153860285Y-109517857D01*
X153574571Y-109589285D01*
X153074571Y-109589285D01*
X152788857Y-109517857D01*
X152646000Y-109375000D01*
X152574571Y-109232142D01*
X152574571Y-108089285D02*
X152574571Y-107160714D01*
X153146000Y-107660714D01*
X153146000Y-107446428D01*
X153217428Y-107303571D01*
X153288857Y-107232142D01*
X153431714Y-107160714D01*
X153788857Y-107160714D01*
X153931714Y-107232142D01*
X154003142Y-107303571D01*
X154074571Y-107446428D01*
X154074571Y-107875000D01*
X154003142Y-108017857D01*
X153931714Y-108089285D01*
X142688571Y-118189142D02*
X142688571Y-117260571D01*
X143260000Y-117760571D01*
X143260000Y-117546285D01*
X143331428Y-117403428D01*
X143402857Y-117332000D01*
X143545714Y-117260571D01*
X143902857Y-117260571D01*
X144045714Y-117332000D01*
X144117142Y-117403428D01*
X144188571Y-117546285D01*
X144188571Y-117974857D01*
X144117142Y-118117714D01*
X144045714Y-118189142D01*
X142688571Y-116832000D02*
X144188571Y-116332000D01*
X142688571Y-115832000D01*
X142688571Y-115474857D02*
X142688571Y-114546285D01*
X143260000Y-115046285D01*
X143260000Y-114832000D01*
X143331428Y-114689142D01*
X143402857Y-114617714D01*
X143545714Y-114546285D01*
X143902857Y-114546285D01*
X144045714Y-114617714D01*
X144117142Y-114689142D01*
X144188571Y-114832000D01*
X144188571Y-115260571D01*
X144117142Y-115403428D01*
X144045714Y-115474857D01*
X159154571Y-111732142D02*
X157654571Y-111732142D01*
X157654571Y-111375000D01*
X157726000Y-111160714D01*
X157868857Y-111017857D01*
X158011714Y-110946428D01*
X158297428Y-110875000D01*
X158511714Y-110875000D01*
X158797428Y-110946428D01*
X158940285Y-111017857D01*
X159083142Y-111160714D01*
X159154571Y-111375000D01*
X159154571Y-111732142D01*
X159154571Y-110232142D02*
X157654571Y-110232142D01*
X157654571Y-109232142D02*
X157654571Y-108946428D01*
X157726000Y-108803571D01*
X157868857Y-108660714D01*
X158154571Y-108589285D01*
X158654571Y-108589285D01*
X158940285Y-108660714D01*
X159083142Y-108803571D01*
X159154571Y-108946428D01*
X159154571Y-109232142D01*
X159083142Y-109375000D01*
X158940285Y-109517857D01*
X158654571Y-109589285D01*
X158154571Y-109589285D01*
X157868857Y-109517857D01*
X157726000Y-109375000D01*
X157654571Y-109232142D01*
X159154571Y-107160714D02*
X159154571Y-108017857D01*
X159154571Y-107589285D02*
X157654571Y-107589285D01*
X157868857Y-107732142D01*
X158011714Y-107875000D01*
X158083142Y-108017857D01*
X163234571Y-114874999D02*
X163234571Y-113803571D01*
X162591714Y-114446428D02*
X164520285Y-114874999D01*
X163877428Y-113946428D02*
X163877428Y-115017857D01*
X164520285Y-114374999D02*
X162591714Y-113946428D01*
X164234571Y-112446428D02*
X163520285Y-112946428D01*
X164234571Y-113303571D02*
X162734571Y-113303571D01*
X162734571Y-112732142D01*
X162806000Y-112589285D01*
X162877428Y-112517857D01*
X163020285Y-112446428D01*
X163234571Y-112446428D01*
X163377428Y-112517857D01*
X163448857Y-112589285D01*
X163520285Y-112732142D01*
X163520285Y-113303571D01*
X163448857Y-111803571D02*
X163448857Y-111303571D01*
X164234571Y-111089285D02*
X164234571Y-111803571D01*
X162734571Y-111803571D01*
X162734571Y-111089285D01*
X164163142Y-110517857D02*
X164234571Y-110303571D01*
X164234571Y-109946428D01*
X164163142Y-109803571D01*
X164091714Y-109732142D01*
X163948857Y-109660714D01*
X163806000Y-109660714D01*
X163663142Y-109732142D01*
X163591714Y-109803571D01*
X163520285Y-109946428D01*
X163448857Y-110232142D01*
X163377428Y-110374999D01*
X163306000Y-110446428D01*
X163163142Y-110517857D01*
X163020285Y-110517857D01*
X162877428Y-110446428D01*
X162806000Y-110374999D01*
X162734571Y-110232142D01*
X162734571Y-109874999D01*
X162806000Y-109660714D01*
X163448857Y-109017857D02*
X163448857Y-108517857D01*
X164234571Y-108303571D02*
X164234571Y-109017857D01*
X162734571Y-109017857D01*
X162734571Y-108303571D01*
X162734571Y-107874999D02*
X162734571Y-107017857D01*
X164234571Y-107446428D02*
X162734571Y-107446428D01*
X179196228Y-109898571D02*
X178696228Y-109184285D01*
X178339085Y-109898571D02*
X178339085Y-108398571D01*
X178910514Y-108398571D01*
X179053371Y-108470000D01*
X179124800Y-108541428D01*
X179196228Y-108684285D01*
X179196228Y-108898571D01*
X179124800Y-109041428D01*
X179053371Y-109112857D01*
X178910514Y-109184285D01*
X178339085Y-109184285D01*
X180339085Y-109112857D02*
X179839085Y-109112857D01*
X179839085Y-109898571D02*
X179839085Y-108398571D01*
X180553371Y-108398571D01*
X170320571Y-111946428D02*
X168820571Y-111946428D01*
X169892000Y-111446428D01*
X168820571Y-110946428D01*
X170320571Y-110946428D01*
X168820571Y-109946428D02*
X168820571Y-109660714D01*
X168892000Y-109517857D01*
X169034857Y-109375000D01*
X169320571Y-109303571D01*
X169820571Y-109303571D01*
X170106285Y-109375000D01*
X170249142Y-109517857D01*
X170320571Y-109660714D01*
X170320571Y-109946428D01*
X170249142Y-110089285D01*
X170106285Y-110232142D01*
X169820571Y-110303571D01*
X169320571Y-110303571D01*
X169034857Y-110232142D01*
X168892000Y-110089285D01*
X168820571Y-109946428D01*
X170249142Y-108732142D02*
X170320571Y-108517857D01*
X170320571Y-108160714D01*
X170249142Y-108017857D01*
X170177714Y-107946428D01*
X170034857Y-107875000D01*
X169892000Y-107875000D01*
X169749142Y-107946428D01*
X169677714Y-108017857D01*
X169606285Y-108160714D01*
X169534857Y-108446428D01*
X169463428Y-108589285D01*
X169392000Y-108660714D01*
X169249142Y-108732142D01*
X169106285Y-108732142D01*
X168963428Y-108660714D01*
X168892000Y-108589285D01*
X168820571Y-108446428D01*
X168820571Y-108089285D01*
X168892000Y-107875000D01*
X170320571Y-107232142D02*
X168820571Y-107232142D01*
X174400571Y-111017857D02*
X174400571Y-109946428D01*
X173757714Y-110589285D02*
X175686285Y-111017857D01*
X175043428Y-110089285D02*
X175043428Y-111160714D01*
X175686285Y-110517857D02*
X173757714Y-110089285D01*
X175257714Y-108589285D02*
X175329142Y-108660714D01*
X175400571Y-108875000D01*
X175400571Y-109017857D01*
X175329142Y-109232142D01*
X175186285Y-109375000D01*
X175043428Y-109446428D01*
X174757714Y-109517857D01*
X174543428Y-109517857D01*
X174257714Y-109446428D01*
X174114857Y-109375000D01*
X173972000Y-109232142D01*
X173900571Y-109017857D01*
X173900571Y-108875000D01*
X173972000Y-108660714D01*
X174043428Y-108589285D01*
X175329142Y-108017857D02*
X175400571Y-107803571D01*
X175400571Y-107446428D01*
X175329142Y-107303571D01*
X175257714Y-107232142D01*
X175114857Y-107160714D01*
X174972000Y-107160714D01*
X174829142Y-107232142D01*
X174757714Y-107303571D01*
X174686285Y-107446428D01*
X174614857Y-107732142D01*
X174543428Y-107875000D01*
X174472000Y-107946428D01*
X174329142Y-108017857D01*
X174186285Y-108017857D01*
X174043428Y-107946428D01*
X173972000Y-107875000D01*
X173900571Y-107732142D01*
X173900571Y-107375000D01*
X173972000Y-107160714D01*
X172789142Y-111017857D02*
X172860571Y-110803571D01*
X172860571Y-110446428D01*
X172789142Y-110303571D01*
X172717714Y-110232142D01*
X172574857Y-110160714D01*
X172432000Y-110160714D01*
X172289142Y-110232142D01*
X172217714Y-110303571D01*
X172146285Y-110446428D01*
X172074857Y-110732142D01*
X172003428Y-110875000D01*
X171932000Y-110946428D01*
X171789142Y-111017857D01*
X171646285Y-111017857D01*
X171503428Y-110946428D01*
X171432000Y-110875000D01*
X171360571Y-110732142D01*
X171360571Y-110375000D01*
X171432000Y-110160714D01*
X172717714Y-108660714D02*
X172789142Y-108732142D01*
X172860571Y-108946428D01*
X172860571Y-109089285D01*
X172789142Y-109303571D01*
X172646285Y-109446428D01*
X172503428Y-109517857D01*
X172217714Y-109589285D01*
X172003428Y-109589285D01*
X171717714Y-109517857D01*
X171574857Y-109446428D01*
X171432000Y-109303571D01*
X171360571Y-109089285D01*
X171360571Y-108946428D01*
X171432000Y-108732142D01*
X171503428Y-108660714D01*
X172860571Y-108017857D02*
X171360571Y-108017857D01*
X172860571Y-107160714D02*
X172003428Y-107803571D01*
X171360571Y-107160714D02*
X172217714Y-108017857D01*
D11*
G04 #@! TO.C,J2*
X141732000Y-117856000D02*
X141732000Y-120142000D01*
X141732000Y-120142000D02*
X136652000Y-120142000D01*
X136652000Y-120142000D02*
X136652000Y-117856000D01*
G04 #@! TO.C,J5*
X168372000Y-101600000D02*
X168372000Y-106680000D01*
X168372000Y-106680000D02*
X166086000Y-106680000D01*
X166086000Y-101600000D02*
X168372000Y-101600000D01*
G04 #@! TO.C,J4*
X171186000Y-101600000D02*
X173472000Y-101600000D01*
X173472000Y-106680000D02*
X171186000Y-106680000D01*
X173472000Y-101600000D02*
X173472000Y-106680000D01*
G04 #@! TO.C,J3*
X164866000Y-101600000D02*
X164866000Y-106680000D01*
X164866000Y-106680000D02*
X162580000Y-106680000D01*
X162580000Y-101600000D02*
X164866000Y-101600000D01*
G04 #@! TO.C,J12*
X182849400Y-115316000D02*
X182849400Y-113284000D01*
X178358800Y-117800000D02*
X180390800Y-117800000D01*
X180390800Y-110800000D02*
X178358800Y-110800000D01*
X175874800Y-113284000D02*
X175874800Y-115316000D01*
G04 #@! TO.C,J10*
X154666000Y-101600000D02*
X154666000Y-106680000D01*
X154666000Y-106680000D02*
X152380000Y-106680000D01*
X152380000Y-101600000D02*
X154666000Y-101600000D01*
G04 #@! TO.C,J7*
X173736000Y-101600000D02*
X176022000Y-101600000D01*
X176022000Y-101600000D02*
X176022000Y-106680000D01*
X176022000Y-106680000D02*
X173736000Y-106680000D01*
G04 #@! TO.C,J9*
X157216000Y-106680000D02*
X154930000Y-106680000D01*
X154930000Y-101600000D02*
X157216000Y-101600000D01*
X157216000Y-101600000D02*
X157216000Y-106680000D01*
G04 #@! TO.C,J8*
X157480000Y-101600000D02*
X159766000Y-101600000D01*
X159766000Y-101600000D02*
X159766000Y-106680000D01*
X159766000Y-106680000D02*
X157480000Y-106680000D01*
G04 #@! TO.C,J11*
X162316000Y-101600000D02*
X162316000Y-106680000D01*
X160030000Y-101600000D02*
X162316000Y-101600000D01*
X162316000Y-106680000D02*
X160030000Y-106680000D01*
G04 #@! TO.C,J6*
X168636000Y-101600000D02*
X170922000Y-101600000D01*
X170922000Y-106680000D02*
X168636000Y-106680000D01*
X170922000Y-101600000D02*
X170922000Y-106680000D01*
G04 #@! TO.C,J1*
X151638000Y-106680000D02*
X144018000Y-106680000D01*
X144018000Y-106680000D02*
X144018000Y-101600000D01*
X144018000Y-101600000D02*
X151638000Y-101600000D01*
X151638000Y-101600000D02*
X151638000Y-106680000D01*
G04 #@! TO.C,J15*
X141732000Y-112776000D02*
X141732000Y-115062000D01*
X136652000Y-115062000D02*
X136652000Y-112776000D01*
X141732000Y-115062000D02*
X136652000Y-115062000D01*
G04 #@! TO.C,J13*
X141732000Y-117602000D02*
X136652000Y-117602000D01*
X141732000Y-115316000D02*
X141732000Y-117602000D01*
X136652000Y-117602000D02*
X136652000Y-115316000D01*
G04 #@! TD*
D12*
G04 #@! TO.C,J1*
X145288000Y-105410000D03*
X145288000Y-102870000D03*
X147828000Y-105410000D03*
X147828000Y-102870000D03*
X150368000Y-105410000D03*
X150368000Y-102870000D03*
G04 #@! TD*
M02*
