  0
SECTION
  2
HEADER
  9
$ANGBASE
  50
0.0
  9
$ANGDIR
  70
1
  9
$MEASUREMENT
  70
0
  0
ENDSEC
  0
SECTION
  2
TABLES
  0
TABLE
  2
LTYPE
  70
4
  0
LTYPE
  5
40F
  2
CONTINUOUS
  70
0
  3
Solid line
  72
65
  73
0
  40
0.0
  0
LTYPE
  5
410
  2
DASHDOT
 70
0
  3
Dash Dot ____ _ ____ _
 72
65
 73
4
 40
2.0
 49
1.25
 49
-0.25
 49
0.25
 49
-0.25
  0
LTYPE
  5
411
  2
DASHED
 70
0
  3
Dashed __ __ __ __ __
 72
65
 73
2
 40
0.75
 49
0.5
 49
-0.25
  0
LTYPE
  5
43B
  2
DOTTED
 70
0
  3
Dotted .  .  .  .
 72
65
 73
2
 40
0.2
 49
0.0
 49
-0.2
  0
ENDTAB
  0
TABLE
  2
STYLE
  70
4
  0
STYLE
  2
KICAD
  70
0
  40
0
  41
1
  42
1
  50
0
  71
0
  3
isocp.shx
  0
STYLE
  2
KICADB
  70
0
  40
0
  41
1
  42
1
  50
0
  71
0
  3
isocp.shx
  0
STYLE
  2
KICADI
  70
0
  40
0
  41
1
  42
1
  50
15
  71
0
  3
isocp.shx
  0
STYLE
  2
KICADBI
  70
0
  40
0
  41
1
  42
1
  50
15
  71
0
  3
isocp.shx
  0
ENDTAB
  0
TABLE
  2
LAYER
  70
1
  0
LAYER
  2
BLACK
  70
0
  62
7
  6
CONTINUOUS
  0
ENDTAB
  0
ENDSEC
  0
SECTION
  2
ENTITIES
0
LINE
8
BLACK
6
CONTINUOUS
10
7.2905760629921259
20
-3.9071039763779525
11
7.2916404724409452
21
-3.9075448818897636
0
LINE
8
BLACK
6
CONTINUOUS
10
7.2916404724409452
20
-3.9075448818897636
11
7.2924551181102357
21
-3.908359527559055
0
LINE
8
BLACK
6
CONTINUOUS
10
7.2924551181102357
20
-3.908359527559055
11
7.2928960236220473
21
-3.9094239370078738
0
LINE
8
BLACK
6
CONTINUOUS
10
7.2928960236220473
20
-3.9094239370078738
11
7.2929527559055121
21
-3.9099999999999997
0
LINE
8
BLACK
6
CONTINUOUS
10
7.2929527559055121
20
-3.9099999999999997
11
7.2929527559055121
21
-5.0899999999999999
0
LINE
8
BLACK
6
CONTINUOUS
10
7.2929527559055121
20
-5.0899999999999999
11
7.2928960236220473
21
-5.0905760629921257
0
LINE
8
BLACK
6
CONTINUOUS
10
7.2928960236220473
20
-5.0905760629921257
11
7.2924551181102357
21
-5.091640472440945
0
LINE
8
BLACK
6
CONTINUOUS
10
7.2924551181102357
20
-5.091640472440945
11
7.2916404724409452
21
-5.0924551181102364
0
LINE
8
BLACK
6
CONTINUOUS
10
7.2916404724409452
20
-5.0924551181102364
11
7.2905760629921259
21
-5.0928960236220471
0
LINE
8
BLACK
6
CONTINUOUS
10
7.2905760629921259
20
-5.0928960236220471
11
7.29
21
-5.0929527559055119
0
LINE
8
BLACK
6
CONTINUOUS
10
7.29
20
-5.0929527559055119
11
5.3099999999999996
21
-5.0929527559055119
0
LINE
8
BLACK
6
CONTINUOUS
10
5.3099999999999996
20
-5.0929527559055119
11
5.3094239370078737
21
-5.0928960236220471
0
LINE
8
BLACK
6
CONTINUOUS
10
5.3094239370078737
20
-5.0928960236220471
11
5.3083595275590554
21
-5.0924551181102364
0
LINE
8
BLACK
6
CONTINUOUS
10
5.3083595275590554
20
-5.0924551181102364
11
5.3075448818897639
21
-5.091640472440945
0
LINE
8
BLACK
6
CONTINUOUS
10
5.3075448818897639
20
-5.091640472440945
11
5.3071039763779524
21
-5.0905760629921257
0
LINE
8
BLACK
6
CONTINUOUS
10
5.3071039763779524
20
-5.0905760629921257
11
5.3070472440944885
21
-5.0899999999999999
0
LINE
8
BLACK
6
CONTINUOUS
10
5.3070472440944885
20
-5.0899999999999999
11
5.3070472440944885
21
-3.9099999999999997
0
LINE
8
BLACK
6
CONTINUOUS
10
5.3070472440944885
20
-3.9099999999999997
11
5.3071039763779524
21
-3.9094239370078738
0
LINE
8
BLACK
6
CONTINUOUS
10
5.3071039763779524
20
-3.9094239370078738
11
5.3075448818897639
21
-3.908359527559055
0
LINE
8
BLACK
6
CONTINUOUS
10
5.3075448818897639
20
-3.908359527559055
11
5.3083595275590554
21
-3.9075448818897636
0
LINE
8
BLACK
6
CONTINUOUS
10
5.3083595275590554
20
-3.9075448818897636
11
5.3094239370078737
21
-3.9071039763779525
0
LINE
8
BLACK
6
CONTINUOUS
10
5.3094239370078737
20
-3.9071039763779525
11
5.3099999999999996
21
-3.9070472440944881
0
LINE
8
BLACK
6
CONTINUOUS
10
5.3099999999999996
20
-3.9070472440944881
11
7.29
21
-3.9070472440944881
0
LINE
8
BLACK
6
CONTINUOUS
10
7.29
20
-3.9070472440944881
11
7.2905760629921259
21
-3.9071039763779525
0
LINE
8
BLACK
6
CONTINUOUS
10
5.3129527559055116
20
-3.9129527559055117
11
5.3129527559055116
21
-5.0870472440944878
0
LINE
8
BLACK
6
CONTINUOUS
10
5.3129527559055116
20
-5.0870472440944878
11
7.287047244094488
21
-5.0870472440944878
0
LINE
8
BLACK
6
CONTINUOUS
10
7.287047244094488
20
-5.0870472440944878
11
7.287047244094488
21
-3.9129527559055117
0
LINE
8
BLACK
6
CONTINUOUS
10
7.287047244094488
20
-3.9129527559055117
11
5.3129527559055116
21
-3.9129527559055117
0
CIRCLE
8
BLACK
10
5.5
20
-4.0999999999999996
40
0.0068897637795276
0
CIRCLE
8
BLACK
10
7.0999999999999996
20
-4.8999999999999995
40
0.0068897637795276
0
CIRCLE
8
BLACK
10
5.4299999999999997
20
-4.6799999999999997
40
0.0068897637795276
0
CIRCLE
8
BLACK
10
5.5300000000000002
20
-4.6799999999999997
40
0.0068897637795276
0
CIRCLE
8
BLACK
10
6.5788188976377953
20
-4.1499999999999995
40
0.0068897637795276
0
CIRCLE
8
BLACK
10
6.5788188976377953
20
-4.0499999999999998
40
0.0068897637795276
0
CIRCLE
8
BLACK
10
6.7796062992125981
20
-4.1499999999999995
40
0.0068897637795276
0
CIRCLE
8
BLACK
10
6.7796062992125981
20
-4.0499999999999998
40
0.0068897637795276
0
CIRCLE
8
BLACK
10
6.440787401574803
20
-4.1499999999999995
40
0.0068897637795276
0
CIRCLE
8
BLACK
10
6.440787401574803
20
-4.0499999999999998
40
0.0068897637795276
0
CIRCLE
8
BLACK
10
7.0620000000000003
20
-4.5
40
0.0068897637795276
0
CIRCLE
8
BLACK
10
6.9619999999999997
20
-4.5999999999999996
40
0.0068897637795276
0
CIRCLE
8
BLACK
10
7.1619999999999999
20
-4.5999999999999996
40
0.0068897637795276
0
CIRCLE
8
BLACK
10
6.9619999999999997
20
-4.3999999999999995
40
0.0068897637795276
0
CIRCLE
8
BLACK
10
7.1619999999999999
20
-4.3999999999999995
40
0.0068897637795276
0
CIRCLE
8
BLACK
10
6.0392125984251965
20
-4.1499999999999995
40
0.0068897637795276
0
CIRCLE
8
BLACK
10
6.0392125984251965
20
-4.0499999999999998
40
0.0068897637795276
0
CIRCLE
8
BLACK
10
6.8799999999999999
20
-4.1499999999999995
40
0.0068897637795276
0
CIRCLE
8
BLACK
10
6.8799999999999999
20
-4.0499999999999998
40
0.0068897637795276
0
CIRCLE
8
BLACK
10
6.1396062992125984
20
-4.1499999999999995
40
0.0068897637795276
0
CIRCLE
8
BLACK
10
6.1396062992125984
20
-4.0499999999999998
40
0.0068897637795276
0
CIRCLE
8
BLACK
10
6.2400000000000002
20
-4.1499999999999995
40
0.0068897637795276
0
CIRCLE
8
BLACK
10
6.2400000000000002
20
-4.0499999999999998
40
0.0068897637795276
0
CIRCLE
8
BLACK
10
6.3403937007874012
20
-4.1499999999999995
40
0.0068897637795276
0
CIRCLE
8
BLACK
10
6.3403937007874012
20
-4.0499999999999998
40
0.0068897637795276
0
CIRCLE
8
BLACK
10
6.6792125984251971
20
-4.1499999999999995
40
0.0068897637795276
0
CIRCLE
8
BLACK
10
6.6792125984251971
20
-4.0499999999999998
40
0.0068897637795276
0
CIRCLE
8
BLACK
10
7.0999999999999996
20
-4.0999999999999996
40
0.0068897637795276
0
CIRCLE
8
BLACK
10
5.7199999999999998
20
-4.1499999999999995
40
0.0068897637795276
0
CIRCLE
8
BLACK
10
5.7199999999999998
20
-4.0499999999999998
40
0.0068897637795276
0
CIRCLE
8
BLACK
10
5.8200000000000003
20
-4.1499999999999995
40
0.0068897637795276
0
CIRCLE
8
BLACK
10
5.8200000000000003
20
-4.0499999999999998
40
0.0068897637795276
0
CIRCLE
8
BLACK
10
5.9199999999999999
20
-4.1499999999999995
40
0.0068897637795276
0
CIRCLE
8
BLACK
10
5.9199999999999999
20
-4.0499999999999998
40
0.0068897637795276
0
CIRCLE
8
BLACK
10
5.5
20
-4.8999999999999995
40
0.0068897637795276
0
CIRCLE
8
BLACK
10
5.4299999999999997
20
-4.4799999999999995
40
0.0068897637795276
0
CIRCLE
8
BLACK
10
5.5300000000000002
20
-4.4799999999999995
40
0.0068897637795276
0
CIRCLE
8
BLACK
10
5.4299999999999997
20
-4.5800000000000001
40
0.0068897637795276
0
CIRCLE
8
BLACK
10
5.5300000000000002
20
-4.5800000000000001
40
0.0068897637795276
0
CIRCLE
8
BLACK
10
5.8585826771653542
20
-4.6730708661417326
40
0.0039370078740157
0
CIRCLE
8
BLACK
10
5.8999212598425199
20
-4.6730708661417326
40
0.0039370078740157
0
CIRCLE
8
BLACK
10
5.9412598425196848
20
-4.6730708661417326
40
0.0039370078740157
0
CIRCLE
8
BLACK
10
5.8585826771653542
20
-4.6317322834645669
40
0.0039370078740157
0
CIRCLE
8
BLACK
10
5.8999212598425199
20
-4.6317322834645669
40
0.0039370078740157
0
CIRCLE
8
BLACK
10
5.9412598425196848
20
-4.6317322834645669
40
0.0039370078740157
0
CIRCLE
8
BLACK
10
5.8585826771653542
20
-4.5903937007874012
40
0.0039370078740157
0
CIRCLE
8
BLACK
10
5.8999212598425199
20
-4.5903937007874012
40
0.0039370078740157
0
CIRCLE
8
BLACK
10
5.9412598425196848
20
-4.5903937007874012
40
0.0039370078740157
  0
ENDSEC
  0
EOF
