  0
SECTION
  2
HEADER
  9
$ANGBASE
  50
0.0
  9
$ANGDIR
  70
1
  9
$MEASUREMENT
  70
0
  0
ENDSEC
  0
SECTION
  2
TABLES
  0
TABLE
  2
LTYPE
  70
4
  0
LTYPE
  5
40F
  2
CONTINUOUS
  70
0
  3
Solid line
  72
65
  73
0
  40
0.0
  0
LTYPE
  5
410
  2
DASHDOT
 70
0
  3
Dash Dot ____ _ ____ _
 72
65
 73
4
 40
2.0
 49
1.25
 49
-0.25
 49
0.25
 49
-0.25
  0
LTYPE
  5
411
  2
DASHED
 70
0
  3
Dashed __ __ __ __ __
 72
65
 73
2
 40
0.75
 49
0.5
 49
-0.25
  0
LTYPE
  5
43B
  2
DOTTED
 70
0
  3
Dotted .  .  .  .
 72
65
 73
2
 40
0.2
 49
0.0
 49
-0.2
  0
ENDTAB
  0
TABLE
  2
STYLE
  70
4
  0
STYLE
  2
KICAD
  70
0
  40
0
  41
1
  42
1
  50
0
  71
0
  3
isocp.shx
  0
STYLE
  2
KICADB
  70
0
  40
0
  41
1
  42
1
  50
0
  71
0
  3
isocp.shx
  0
STYLE
  2
KICADI
  70
0
  40
0
  41
1
  42
1
  50
15
  71
0
  3
isocp.shx
  0
STYLE
  2
KICADBI
  70
0
  40
0
  41
1
  42
1
  50
15
  71
0
  3
isocp.shx
  0
ENDTAB
  0
TABLE
  2
LAYER
  70
1
  0
LAYER
  2
BLACK
  70
0
  62
7
  6
CONTINUOUS
  0
ENDTAB
  0
ENDSEC
  0
SECTION
  2
ENTITIES
0
LINE
8
BLACK
6
CONTINUOUS
10
7.11492
20
-4.7749
11
7.12877
21
-4.77734
0
LINE
8
BLACK
6
CONTINUOUS
10
7.12877
20
-4.77734
11
7.14226
21
-4.78132
0
LINE
8
BLACK
6
CONTINUOUS
10
7.14226
20
-4.78132
11
7.15523
21
-4.78677
0
LINE
8
BLACK
6
CONTINUOUS
10
7.15523
20
-4.78677
11
7.16751
21
-4.79363
0
LINE
8
BLACK
6
CONTINUOUS
10
7.16751
20
-4.79363
11
7.17894
21
-4.80182
0
LINE
8
BLACK
6
CONTINUOUS
10
7.17894
20
-4.80182
11
7.18939
21
-4.81123
0
LINE
8
BLACK
6
CONTINUOUS
10
7.18939
20
-4.81123
11
7.19873
21
-4.82175
0
LINE
8
BLACK
6
CONTINUOUS
10
7.19873
20
-4.82175
11
7.20684
21
-4.83324
0
LINE
8
BLACK
6
CONTINUOUS
10
7.20684
20
-4.83324
11
7.21362
21
-4.84556
0
LINE
8
BLACK
6
CONTINUOUS
10
7.21362
20
-4.84556
11
7.21898
21
-4.85857
0
LINE
8
BLACK
6
CONTINUOUS
10
7.21898
20
-4.85857
11
7.22285
21
-4.87209
0
LINE
8
BLACK
6
CONTINUOUS
10
7.22285
20
-4.87209
11
7.2252
21
-4.88596
0
LINE
8
BLACK
6
CONTINUOUS
10
7.2252
20
-4.88596
11
7.22598
21
-4.9
0
LINE
8
BLACK
6
CONTINUOUS
10
7.22598
20
-4.9
11
7.22594
21
-4.90352
0
LINE
8
BLACK
6
CONTINUOUS
10
7.22594
20
-4.90352
11
7.22476
21
-4.91753
0
LINE
8
BLACK
6
CONTINUOUS
10
7.22476
20
-4.91753
11
7.22203
21
-4.93133
0
LINE
8
BLACK
6
CONTINUOUS
10
7.22203
20
-4.93133
11
7.21777
21
-4.94474
0
LINE
8
BLACK
6
CONTINUOUS
10
7.21777
20
-4.94474
11
7.21205
21
-4.95759
0
LINE
8
BLACK
6
CONTINUOUS
10
7.21205
20
-4.95759
11
7.20493
21
-4.96972
0
LINE
8
BLACK
6
CONTINUOUS
10
7.20493
20
-4.96972
11
7.19651
21
-4.98098
0
LINE
8
BLACK
6
CONTINUOUS
10
7.19651
20
-4.98098
11
7.18688
21
-4.99123
0
LINE
8
BLACK
6
CONTINUOUS
10
7.18688
20
-4.99123
11
7.17617
21
-5.00035
0
LINE
8
BLACK
6
CONTINUOUS
10
7.17617
20
-5.00035
11
7.16451
21
-5.00822
0
LINE
8
BLACK
6
CONTINUOUS
10
7.16451
20
-5.00822
11
7.15204
21
-5.01473
0
LINE
8
BLACK
6
CONTINUOUS
10
7.15204
20
-5.01473
11
7.13893
21
-5.01982
0
LINE
8
BLACK
6
CONTINUOUS
10
7.13893
20
-5.01982
11
7.12533
21
-5.02341
0
LINE
8
BLACK
6
CONTINUOUS
10
7.12533
20
-5.02341
11
7.11142
21
-5.02547
0
LINE
8
BLACK
6
CONTINUOUS
10
7.11142
20
-5.02547
11
7.09736
21
-5.02596
0
LINE
8
BLACK
6
CONTINUOUS
10
7.09736
20
-5.02596
11
7.08334
21
-5.02488
0
LINE
8
BLACK
6
CONTINUOUS
10
7.08334
20
-5.02488
11
7.06952
21
-5.02224
0
LINE
8
BLACK
6
CONTINUOUS
10
7.06952
20
-5.02224
11
7.05609
21
-5.01808
0
LINE
8
BLACK
6
CONTINUOUS
10
7.05609
20
-5.01808
11
7.0432
21
-5.01245
0
LINE
8
BLACK
6
CONTINUOUS
10
7.0432
20
-5.01245
11
7.03102
21
-5.00542
0
LINE
8
BLACK
6
CONTINUOUS
10
7.03102
20
-5.00542
11
7.01969
21
-4.99707
0
LINE
8
BLACK
6
CONTINUOUS
10
7.01969
20
-4.99707
11
7.00937
21
-4.98752
0
LINE
8
BLACK
6
CONTINUOUS
10
7.00937
20
-4.98752
11
7.00018
21
-4.97687
0
LINE
8
BLACK
6
CONTINUOUS
10
7.00018
20
-4.97687
11
6.99224
21
-4.96526
0
LINE
8
BLACK
6
CONTINUOUS
10
6.99224
20
-4.96526
11
6.98563
21
-4.95284
0
LINE
8
BLACK
6
CONTINUOUS
10
6.98563
20
-4.95284
11
6.98046
21
-4.93977
0
LINE
8
BLACK
6
CONTINUOUS
10
6.98046
20
-4.93977
11
6.97677
21
-4.92619
0
LINE
8
BLACK
6
CONTINUOUS
10
6.97677
20
-4.92619
11
6.97462
21
-4.91229
0
LINE
8
BLACK
6
CONTINUOUS
10
6.97462
20
-4.91229
11
6.97403
21
-4.89824
0
LINE
8
BLACK
6
CONTINUOUS
10
6.97403
20
-4.89824
11
6.97501
21
-4.88421
0
LINE
8
BLACK
6
CONTINUOUS
10
6.97501
20
-4.88421
11
6.97755
21
-4.87038
0
LINE
8
BLACK
6
CONTINUOUS
10
6.97755
20
-4.87038
11
6.98161
21
-4.85691
0
LINE
8
BLACK
6
CONTINUOUS
10
6.98161
20
-4.85691
11
6.98715
21
-4.84398
0
LINE
8
BLACK
6
CONTINUOUS
10
6.98715
20
-4.84398
11
6.9941
21
-4.83175
0
LINE
8
BLACK
6
CONTINUOUS
10
6.9941
20
-4.83175
11
7.00237
21
-4.82037
0
LINE
8
BLACK
6
CONTINUOUS
10
7.00237
20
-4.82037
11
7.01185
21
-4.80999
0
LINE
8
BLACK
6
CONTINUOUS
10
7.01185
20
-4.80999
11
7.02244
21
-4.80072
0
LINE
8
BLACK
6
CONTINUOUS
10
7.02244
20
-4.80072
11
7.03399
21
-4.7927
0
LINE
8
BLACK
6
CONTINUOUS
10
7.03399
20
-4.7927
11
7.04636
21
-4.78601
0
LINE
8
BLACK
6
CONTINUOUS
10
7.04636
20
-4.78601
11
7.0594
21
-4.78074
0
LINE
8
BLACK
6
CONTINUOUS
10
7.0594
20
-4.78074
11
7.07295
21
-4.77695
0
LINE
8
BLACK
6
CONTINUOUS
10
7.07295
20
-4.77695
11
7.08683
21
-4.77471
0
LINE
8
BLACK
6
CONTINUOUS
10
7.08683
20
-4.77471
11
7.10088
21
-4.77402
0
LINE
8
BLACK
6
CONTINUOUS
10
7.10088
20
-4.77402
11
7.11492
21
-4.7749
0
LINE
8
BLACK
6
CONTINUOUS
10
5.51492
20
-4.7749
11
5.52877
21
-4.77734
0
LINE
8
BLACK
6
CONTINUOUS
10
5.52877
20
-4.77734
11
5.54226
21
-4.78132
0
LINE
8
BLACK
6
CONTINUOUS
10
5.54226
20
-4.78132
11
5.55523
21
-4.78677
0
LINE
8
BLACK
6
CONTINUOUS
10
5.55523
20
-4.78677
11
5.56751
21
-4.79363
0
LINE
8
BLACK
6
CONTINUOUS
10
5.56751
20
-4.79363
11
5.57894
21
-4.80182
0
LINE
8
BLACK
6
CONTINUOUS
10
5.57894
20
-4.80182
11
5.58939
21
-4.81123
0
LINE
8
BLACK
6
CONTINUOUS
10
5.58939
20
-4.81123
11
5.59873
21
-4.82175
0
LINE
8
BLACK
6
CONTINUOUS
10
5.59873
20
-4.82175
11
5.60684
21
-4.83324
0
LINE
8
BLACK
6
CONTINUOUS
10
5.60684
20
-4.83324
11
5.61362
21
-4.84556
0
LINE
8
BLACK
6
CONTINUOUS
10
5.61362
20
-4.84556
11
5.61898
21
-4.85857
0
LINE
8
BLACK
6
CONTINUOUS
10
5.61898
20
-4.85857
11
5.62285
21
-4.87209
0
LINE
8
BLACK
6
CONTINUOUS
10
5.62285
20
-4.87209
11
5.6252
21
-4.88596
0
LINE
8
BLACK
6
CONTINUOUS
10
5.6252
20
-4.88596
11
5.62598
21
-4.9
0
LINE
8
BLACK
6
CONTINUOUS
10
5.62598
20
-4.9
11
5.62594
21
-4.90352
0
LINE
8
BLACK
6
CONTINUOUS
10
5.62594
20
-4.90352
11
5.62476
21
-4.91753
0
LINE
8
BLACK
6
CONTINUOUS
10
5.62476
20
-4.91753
11
5.62203
21
-4.93133
0
LINE
8
BLACK
6
CONTINUOUS
10
5.62203
20
-4.93133
11
5.61777
21
-4.94474
0
LINE
8
BLACK
6
CONTINUOUS
10
5.61777
20
-4.94474
11
5.61205
21
-4.95759
0
LINE
8
BLACK
6
CONTINUOUS
10
5.61205
20
-4.95759
11
5.60493
21
-4.96972
0
LINE
8
BLACK
6
CONTINUOUS
10
5.60493
20
-4.96972
11
5.59651
21
-4.98098
0
LINE
8
BLACK
6
CONTINUOUS
10
5.59651
20
-4.98098
11
5.58688
21
-4.99123
0
LINE
8
BLACK
6
CONTINUOUS
10
5.58688
20
-4.99123
11
5.57617
21
-5.00035
0
LINE
8
BLACK
6
CONTINUOUS
10
5.57617
20
-5.00035
11
5.56451
21
-5.00822
0
LINE
8
BLACK
6
CONTINUOUS
10
5.56451
20
-5.00822
11
5.55204
21
-5.01473
0
LINE
8
BLACK
6
CONTINUOUS
10
5.55204
20
-5.01473
11
5.53893
21
-5.01982
0
LINE
8
BLACK
6
CONTINUOUS
10
5.53893
20
-5.01982
11
5.52533
21
-5.02341
0
LINE
8
BLACK
6
CONTINUOUS
10
5.52533
20
-5.02341
11
5.51142
21
-5.02547
0
LINE
8
BLACK
6
CONTINUOUS
10
5.51142
20
-5.02547
11
5.49736
21
-5.02596
0
LINE
8
BLACK
6
CONTINUOUS
10
5.49736
20
-5.02596
11
5.48334
21
-5.02488
0
LINE
8
BLACK
6
CONTINUOUS
10
5.48334
20
-5.02488
11
5.46952
21
-5.02224
0
LINE
8
BLACK
6
CONTINUOUS
10
5.46952
20
-5.02224
11
5.45609
21
-5.01808
0
LINE
8
BLACK
6
CONTINUOUS
10
5.45609
20
-5.01808
11
5.4432
21
-5.01245
0
LINE
8
BLACK
6
CONTINUOUS
10
5.4432
20
-5.01245
11
5.43102
21
-5.00542
0
LINE
8
BLACK
6
CONTINUOUS
10
5.43102
20
-5.00542
11
5.41969
21
-4.99707
0
LINE
8
BLACK
6
CONTINUOUS
10
5.41969
20
-4.99707
11
5.40937
21
-4.98752
0
LINE
8
BLACK
6
CONTINUOUS
10
5.40937
20
-4.98752
11
5.40018
21
-4.97687
0
LINE
8
BLACK
6
CONTINUOUS
10
5.40018
20
-4.97687
11
5.39224
21
-4.96526
0
LINE
8
BLACK
6
CONTINUOUS
10
5.39224
20
-4.96526
11
5.38563
21
-4.95284
0
LINE
8
BLACK
6
CONTINUOUS
10
5.38563
20
-4.95284
11
5.38046
21
-4.93977
0
LINE
8
BLACK
6
CONTINUOUS
10
5.38046
20
-4.93977
11
5.37677
21
-4.92619
0
LINE
8
BLACK
6
CONTINUOUS
10
5.37677
20
-4.92619
11
5.37462
21
-4.91229
0
LINE
8
BLACK
6
CONTINUOUS
10
5.37462
20
-4.91229
11
5.37403
21
-4.89824
0
LINE
8
BLACK
6
CONTINUOUS
10
5.37403
20
-4.89824
11
5.37501
21
-4.88421
0
LINE
8
BLACK
6
CONTINUOUS
10
5.37501
20
-4.88421
11
5.37755
21
-4.87038
0
LINE
8
BLACK
6
CONTINUOUS
10
5.37755
20
-4.87038
11
5.38161
21
-4.85691
0
LINE
8
BLACK
6
CONTINUOUS
10
5.38161
20
-4.85691
11
5.38715
21
-4.84398
0
LINE
8
BLACK
6
CONTINUOUS
10
5.38715
20
-4.84398
11
5.3941
21
-4.83175
0
LINE
8
BLACK
6
CONTINUOUS
10
5.3941
20
-4.83175
11
5.40237
21
-4.82037
0
LINE
8
BLACK
6
CONTINUOUS
10
5.40237
20
-4.82037
11
5.41185
21
-4.80999
0
LINE
8
BLACK
6
CONTINUOUS
10
5.41185
20
-4.80999
11
5.42244
21
-4.80072
0
LINE
8
BLACK
6
CONTINUOUS
10
5.42244
20
-4.80072
11
5.43399
21
-4.7927
0
LINE
8
BLACK
6
CONTINUOUS
10
5.43399
20
-4.7927
11
5.44636
21
-4.78601
0
LINE
8
BLACK
6
CONTINUOUS
10
5.44636
20
-4.78601
11
5.4594
21
-4.78074
0
LINE
8
BLACK
6
CONTINUOUS
10
5.4594
20
-4.78074
11
5.47295
21
-4.77695
0
LINE
8
BLACK
6
CONTINUOUS
10
5.47295
20
-4.77695
11
5.48683
21
-4.77471
0
LINE
8
BLACK
6
CONTINUOUS
10
5.48683
20
-4.77471
11
5.50088
21
-4.77402
0
LINE
8
BLACK
6
CONTINUOUS
10
5.50088
20
-4.77402
11
5.51492
21
-4.7749
0
LINE
8
BLACK
6
CONTINUOUS
10
5.46301
20
-4.64273
11
5.46557
21
-4.64443
0
LINE
8
BLACK
6
CONTINUOUS
10
5.46557
20
-4.64443
11
5.46727
21
-4.64699
0
LINE
8
BLACK
6
CONTINUOUS
10
5.46727
20
-4.64699
11
5.46787
21
-4.65
0
LINE
8
BLACK
6
CONTINUOUS
10
5.46787
20
-4.65
11
5.46787
21
-4.71
0
LINE
8
BLACK
6
CONTINUOUS
10
5.46787
20
-4.71
11
5.46727
21
-4.71301
0
LINE
8
BLACK
6
CONTINUOUS
10
5.46727
20
-4.71301
11
5.46557
21
-4.71557
0
LINE
8
BLACK
6
CONTINUOUS
10
5.46557
20
-4.71557
11
5.46301
21
-4.71727
0
LINE
8
BLACK
6
CONTINUOUS
10
5.46301
20
-4.71727
11
5.46
21
-4.71787
0
LINE
8
BLACK
6
CONTINUOUS
10
5.46
20
-4.71787
11
5.4
21
-4.71787
0
LINE
8
BLACK
6
CONTINUOUS
10
5.4
20
-4.71787
11
5.39699
21
-4.71727
0
LINE
8
BLACK
6
CONTINUOUS
10
5.39699
20
-4.71727
11
5.39443
21
-4.71557
0
LINE
8
BLACK
6
CONTINUOUS
10
5.39443
20
-4.71557
11
5.39273
21
-4.71301
0
LINE
8
BLACK
6
CONTINUOUS
10
5.39273
20
-4.71301
11
5.39213
21
-4.71
0
LINE
8
BLACK
6
CONTINUOUS
10
5.39213
20
-4.71
11
5.39213
21
-4.65
0
LINE
8
BLACK
6
CONTINUOUS
10
5.39213
20
-4.65
11
5.39273
21
-4.64699
0
LINE
8
BLACK
6
CONTINUOUS
10
5.39273
20
-4.64699
11
5.39443
21
-4.64443
0
LINE
8
BLACK
6
CONTINUOUS
10
5.39443
20
-4.64443
11
5.39699
21
-4.64273
0
LINE
8
BLACK
6
CONTINUOUS
10
5.39699
20
-4.64273
11
5.4
21
-4.64213
0
LINE
8
BLACK
6
CONTINUOUS
10
5.4
20
-4.64213
11
5.46
21
-4.64213
0
LINE
8
BLACK
6
CONTINUOUS
10
5.46
20
-4.64213
11
5.46301
21
-4.64273
0
LINE
8
BLACK
6
CONTINUOUS
10
5.56301
20
-4.64273
11
5.56557
21
-4.64443
0
LINE
8
BLACK
6
CONTINUOUS
10
5.56557
20
-4.64443
11
5.56727
21
-4.64699
0
LINE
8
BLACK
6
CONTINUOUS
10
5.56727
20
-4.64699
11
5.56787
21
-4.65
0
LINE
8
BLACK
6
CONTINUOUS
10
5.56787
20
-4.65
11
5.56787
21
-4.71
0
LINE
8
BLACK
6
CONTINUOUS
10
5.56787
20
-4.71
11
5.56727
21
-4.71301
0
LINE
8
BLACK
6
CONTINUOUS
10
5.56727
20
-4.71301
11
5.56557
21
-4.71557
0
LINE
8
BLACK
6
CONTINUOUS
10
5.56557
20
-4.71557
11
5.56301
21
-4.71727
0
LINE
8
BLACK
6
CONTINUOUS
10
5.56301
20
-4.71727
11
5.56
21
-4.71787
0
LINE
8
BLACK
6
CONTINUOUS
10
5.56
20
-4.71787
11
5.5
21
-4.71787
0
LINE
8
BLACK
6
CONTINUOUS
10
5.5
20
-4.71787
11
5.49699
21
-4.71727
0
LINE
8
BLACK
6
CONTINUOUS
10
5.49699
20
-4.71727
11
5.49443
21
-4.71557
0
LINE
8
BLACK
6
CONTINUOUS
10
5.49443
20
-4.71557
11
5.49273
21
-4.71301
0
LINE
8
BLACK
6
CONTINUOUS
10
5.49273
20
-4.71301
11
5.49213
21
-4.71
0
LINE
8
BLACK
6
CONTINUOUS
10
5.49213
20
-4.71
11
5.49213
21
-4.65
0
LINE
8
BLACK
6
CONTINUOUS
10
5.49213
20
-4.65
11
5.49273
21
-4.64699
0
LINE
8
BLACK
6
CONTINUOUS
10
5.49273
20
-4.64699
11
5.49443
21
-4.64443
0
LINE
8
BLACK
6
CONTINUOUS
10
5.49443
20
-4.64443
11
5.49699
21
-4.64273
0
LINE
8
BLACK
6
CONTINUOUS
10
5.49699
20
-4.64273
11
5.5
21
-4.64213
0
LINE
8
BLACK
6
CONTINUOUS
10
5.5
20
-4.64213
11
5.56
21
-4.64213
0
LINE
8
BLACK
6
CONTINUOUS
10
5.56
20
-4.64213
11
5.56301
21
-4.64273
0
LINE
8
BLACK
6
CONTINUOUS
10
7.17155
20
-4.53973
11
7.18086
21
-4.54196
0
LINE
8
BLACK
6
CONTINUOUS
10
7.18086
20
-4.54196
11
7.1897
21
-4.54563
0
LINE
8
BLACK
6
CONTINUOUS
10
7.1897
20
-4.54563
11
7.19787
21
-4.55063
0
LINE
8
BLACK
6
CONTINUOUS
10
7.19787
20
-4.55063
11
7.20515
21
-4.55685
0
LINE
8
BLACK
6
CONTINUOUS
10
7.20515
20
-4.55685
11
7.21137
21
-4.56413
0
LINE
8
BLACK
6
CONTINUOUS
10
7.21137
20
-4.56413
11
7.21637
21
-4.5723
0
LINE
8
BLACK
6
CONTINUOUS
10
7.21637
20
-4.5723
11
7.22004
21
-4.58114
0
LINE
8
BLACK
6
CONTINUOUS
10
7.22004
20
-4.58114
11
7.22227
21
-4.59045
0
LINE
8
BLACK
6
CONTINUOUS
10
7.22227
20
-4.59045
11
7.22302
21
-4.6
0
LINE
8
BLACK
6
CONTINUOUS
10
7.22302
20
-4.6
11
7.22227
21
-4.60955
0
LINE
8
BLACK
6
CONTINUOUS
10
7.22227
20
-4.60955
11
7.22004
21
-4.61886
0
LINE
8
BLACK
6
CONTINUOUS
10
7.22004
20
-4.61886
11
7.21637
21
-4.6277
0
LINE
8
BLACK
6
CONTINUOUS
10
7.21637
20
-4.6277
11
7.21137
21
-4.63587
0
LINE
8
BLACK
6
CONTINUOUS
10
7.21137
20
-4.63587
11
7.20515
21
-4.64315
0
LINE
8
BLACK
6
CONTINUOUS
10
7.20515
20
-4.64315
11
7.19787
21
-4.64937
0
LINE
8
BLACK
6
CONTINUOUS
10
7.19787
20
-4.64937
11
7.1897
21
-4.65437
0
LINE
8
BLACK
6
CONTINUOUS
10
7.1897
20
-4.65437
11
7.18086
21
-4.65804
0
LINE
8
BLACK
6
CONTINUOUS
10
7.18086
20
-4.65804
11
7.17155
21
-4.66027
0
LINE
8
BLACK
6
CONTINUOUS
10
7.17155
20
-4.66027
11
7.162
21
-4.66102
0
LINE
8
BLACK
6
CONTINUOUS
10
7.162
20
-4.66102
11
7.15245
21
-4.66027
0
LINE
8
BLACK
6
CONTINUOUS
10
7.15245
20
-4.66027
11
7.14314
21
-4.65804
0
LINE
8
BLACK
6
CONTINUOUS
10
7.14314
20
-4.65804
11
7.1343
21
-4.65437
0
LINE
8
BLACK
6
CONTINUOUS
10
7.1343
20
-4.65437
11
7.12613
21
-4.64937
0
LINE
8
BLACK
6
CONTINUOUS
10
7.12613
20
-4.64937
11
7.11885
21
-4.64315
0
LINE
8
BLACK
6
CONTINUOUS
10
7.11885
20
-4.64315
11
7.11263
21
-4.63587
0
LINE
8
BLACK
6
CONTINUOUS
10
7.11263
20
-4.63587
11
7.10763
21
-4.6277
0
LINE
8
BLACK
6
CONTINUOUS
10
7.10763
20
-4.6277
11
7.10396
21
-4.61886
0
LINE
8
BLACK
6
CONTINUOUS
10
7.10396
20
-4.61886
11
7.10173
21
-4.60955
0
LINE
8
BLACK
6
CONTINUOUS
10
7.10173
20
-4.60955
11
7.10098
21
-4.6
0
LINE
8
BLACK
6
CONTINUOUS
10
7.10098
20
-4.6
11
7.10173
21
-4.59045
0
LINE
8
BLACK
6
CONTINUOUS
10
7.10173
20
-4.59045
11
7.10396
21
-4.58114
0
LINE
8
BLACK
6
CONTINUOUS
10
7.10396
20
-4.58114
11
7.10763
21
-4.5723
0
LINE
8
BLACK
6
CONTINUOUS
10
7.10763
20
-4.5723
11
7.11263
21
-4.56413
0
LINE
8
BLACK
6
CONTINUOUS
10
7.11263
20
-4.56413
11
7.11885
21
-4.55685
0
LINE
8
BLACK
6
CONTINUOUS
10
7.11885
20
-4.55685
11
7.12613
21
-4.55063
0
LINE
8
BLACK
6
CONTINUOUS
10
7.12613
20
-4.55063
11
7.1343
21
-4.54563
0
LINE
8
BLACK
6
CONTINUOUS
10
7.1343
20
-4.54563
11
7.14314
21
-4.54196
0
LINE
8
BLACK
6
CONTINUOUS
10
7.14314
20
-4.54196
11
7.15245
21
-4.53973
0
LINE
8
BLACK
6
CONTINUOUS
10
7.15245
20
-4.53973
11
7.162
21
-4.53898
0
LINE
8
BLACK
6
CONTINUOUS
10
7.162
20
-4.53898
11
7.17155
21
-4.53973
0
LINE
8
BLACK
6
CONTINUOUS
10
6.97155
20
-4.53973
11
6.98086
21
-4.54196
0
LINE
8
BLACK
6
CONTINUOUS
10
6.98086
20
-4.54196
11
6.9897
21
-4.54563
0
LINE
8
BLACK
6
CONTINUOUS
10
6.9897
20
-4.54563
11
6.99787
21
-4.55063
0
LINE
8
BLACK
6
CONTINUOUS
10
6.99787
20
-4.55063
11
7.00515
21
-4.55685
0
LINE
8
BLACK
6
CONTINUOUS
10
7.00515
20
-4.55685
11
7.01137
21
-4.56413
0
LINE
8
BLACK
6
CONTINUOUS
10
7.01137
20
-4.56413
11
7.01637
21
-4.5723
0
LINE
8
BLACK
6
CONTINUOUS
10
7.01637
20
-4.5723
11
7.02004
21
-4.58114
0
LINE
8
BLACK
6
CONTINUOUS
10
7.02004
20
-4.58114
11
7.02227
21
-4.59045
0
LINE
8
BLACK
6
CONTINUOUS
10
7.02227
20
-4.59045
11
7.02302
21
-4.6
0
LINE
8
BLACK
6
CONTINUOUS
10
7.02302
20
-4.6
11
7.02227
21
-4.60955
0
LINE
8
BLACK
6
CONTINUOUS
10
7.02227
20
-4.60955
11
7.02004
21
-4.61886
0
LINE
8
BLACK
6
CONTINUOUS
10
7.02004
20
-4.61886
11
7.01637
21
-4.6277
0
LINE
8
BLACK
6
CONTINUOUS
10
7.01637
20
-4.6277
11
7.01137
21
-4.63587
0
LINE
8
BLACK
6
CONTINUOUS
10
7.01137
20
-4.63587
11
7.00515
21
-4.64315
0
LINE
8
BLACK
6
CONTINUOUS
10
7.00515
20
-4.64315
11
6.99787
21
-4.64937
0
LINE
8
BLACK
6
CONTINUOUS
10
6.99787
20
-4.64937
11
6.9897
21
-4.65437
0
LINE
8
BLACK
6
CONTINUOUS
10
6.9897
20
-4.65437
11
6.98086
21
-4.65804
0
LINE
8
BLACK
6
CONTINUOUS
10
6.98086
20
-4.65804
11
6.97155
21
-4.66027
0
LINE
8
BLACK
6
CONTINUOUS
10
6.97155
20
-4.66027
11
6.962
21
-4.66102
0
LINE
8
BLACK
6
CONTINUOUS
10
6.962
20
-4.66102
11
6.95245
21
-4.66027
0
LINE
8
BLACK
6
CONTINUOUS
10
6.95245
20
-4.66027
11
6.94314
21
-4.65804
0
LINE
8
BLACK
6
CONTINUOUS
10
6.94314
20
-4.65804
11
6.9343
21
-4.65437
0
LINE
8
BLACK
6
CONTINUOUS
10
6.9343
20
-4.65437
11
6.92613
21
-4.64937
0
LINE
8
BLACK
6
CONTINUOUS
10
6.92613
20
-4.64937
11
6.91885
21
-4.64315
0
LINE
8
BLACK
6
CONTINUOUS
10
6.91885
20
-4.64315
11
6.91263
21
-4.63587
0
LINE
8
BLACK
6
CONTINUOUS
10
6.91263
20
-4.63587
11
6.90763
21
-4.6277
0
LINE
8
BLACK
6
CONTINUOUS
10
6.90763
20
-4.6277
11
6.90396
21
-4.61886
0
LINE
8
BLACK
6
CONTINUOUS
10
6.90396
20
-4.61886
11
6.90173
21
-4.60955
0
LINE
8
BLACK
6
CONTINUOUS
10
6.90173
20
-4.60955
11
6.90098
21
-4.6
0
LINE
8
BLACK
6
CONTINUOUS
10
6.90098
20
-4.6
11
6.90173
21
-4.59045
0
LINE
8
BLACK
6
CONTINUOUS
10
6.90173
20
-4.59045
11
6.90396
21
-4.58114
0
LINE
8
BLACK
6
CONTINUOUS
10
6.90396
20
-4.58114
11
6.90763
21
-4.5723
0
LINE
8
BLACK
6
CONTINUOUS
10
6.90763
20
-4.5723
11
6.91263
21
-4.56413
0
LINE
8
BLACK
6
CONTINUOUS
10
6.91263
20
-4.56413
11
6.91885
21
-4.55685
0
LINE
8
BLACK
6
CONTINUOUS
10
6.91885
20
-4.55685
11
6.92613
21
-4.55063
0
LINE
8
BLACK
6
CONTINUOUS
10
6.92613
20
-4.55063
11
6.9343
21
-4.54563
0
LINE
8
BLACK
6
CONTINUOUS
10
6.9343
20
-4.54563
11
6.94314
21
-4.54196
0
LINE
8
BLACK
6
CONTINUOUS
10
6.94314
20
-4.54196
11
6.95245
21
-4.53973
0
LINE
8
BLACK
6
CONTINUOUS
10
6.95245
20
-4.53973
11
6.962
21
-4.53898
0
LINE
8
BLACK
6
CONTINUOUS
10
6.962
20
-4.53898
11
6.97155
21
-4.53973
0
LINE
8
BLACK
6
CONTINUOUS
10
5.56301
20
-4.54273
11
5.56557
21
-4.54443
0
LINE
8
BLACK
6
CONTINUOUS
10
5.56557
20
-4.54443
11
5.56727
21
-4.54699
0
LINE
8
BLACK
6
CONTINUOUS
10
5.56727
20
-4.54699
11
5.56787
21
-4.55
0
LINE
8
BLACK
6
CONTINUOUS
10
5.56787
20
-4.55
11
5.56787
21
-4.61
0
LINE
8
BLACK
6
CONTINUOUS
10
5.56787
20
-4.61
11
5.56727
21
-4.61301
0
LINE
8
BLACK
6
CONTINUOUS
10
5.56727
20
-4.61301
11
5.56557
21
-4.61557
0
LINE
8
BLACK
6
CONTINUOUS
10
5.56557
20
-4.61557
11
5.56301
21
-4.61727
0
LINE
8
BLACK
6
CONTINUOUS
10
5.56301
20
-4.61727
11
5.56
21
-4.61787
0
LINE
8
BLACK
6
CONTINUOUS
10
5.56
20
-4.61787
11
5.5
21
-4.61787
0
LINE
8
BLACK
6
CONTINUOUS
10
5.5
20
-4.61787
11
5.49699
21
-4.61727
0
LINE
8
BLACK
6
CONTINUOUS
10
5.49699
20
-4.61727
11
5.49443
21
-4.61557
0
LINE
8
BLACK
6
CONTINUOUS
10
5.49443
20
-4.61557
11
5.49273
21
-4.61301
0
LINE
8
BLACK
6
CONTINUOUS
10
5.49273
20
-4.61301
11
5.49213
21
-4.61
0
LINE
8
BLACK
6
CONTINUOUS
10
5.49213
20
-4.61
11
5.49213
21
-4.55
0
LINE
8
BLACK
6
CONTINUOUS
10
5.49213
20
-4.55
11
5.49273
21
-4.54699
0
LINE
8
BLACK
6
CONTINUOUS
10
5.49273
20
-4.54699
11
5.49443
21
-4.54443
0
LINE
8
BLACK
6
CONTINUOUS
10
5.49443
20
-4.54443
11
5.49699
21
-4.54273
0
LINE
8
BLACK
6
CONTINUOUS
10
5.49699
20
-4.54273
11
5.5
21
-4.54213
0
LINE
8
BLACK
6
CONTINUOUS
10
5.5
20
-4.54213
11
5.56
21
-4.54213
0
LINE
8
BLACK
6
CONTINUOUS
10
5.56
20
-4.54213
11
5.56301
21
-4.54273
0
LINE
8
BLACK
6
CONTINUOUS
10
5.46301
20
-4.54273
11
5.46557
21
-4.54443
0
LINE
8
BLACK
6
CONTINUOUS
10
5.46557
20
-4.54443
11
5.46727
21
-4.54699
0
LINE
8
BLACK
6
CONTINUOUS
10
5.46727
20
-4.54699
11
5.46787
21
-4.55
0
LINE
8
BLACK
6
CONTINUOUS
10
5.46787
20
-4.55
11
5.46787
21
-4.61
0
LINE
8
BLACK
6
CONTINUOUS
10
5.46787
20
-4.61
11
5.46727
21
-4.61301
0
LINE
8
BLACK
6
CONTINUOUS
10
5.46727
20
-4.61301
11
5.46557
21
-4.61557
0
LINE
8
BLACK
6
CONTINUOUS
10
5.46557
20
-4.61557
11
5.46301
21
-4.61727
0
LINE
8
BLACK
6
CONTINUOUS
10
5.46301
20
-4.61727
11
5.46
21
-4.61787
0
LINE
8
BLACK
6
CONTINUOUS
10
5.46
20
-4.61787
11
5.4
21
-4.61787
0
LINE
8
BLACK
6
CONTINUOUS
10
5.4
20
-4.61787
11
5.39699
21
-4.61727
0
LINE
8
BLACK
6
CONTINUOUS
10
5.39699
20
-4.61727
11
5.39443
21
-4.61557
0
LINE
8
BLACK
6
CONTINUOUS
10
5.39443
20
-4.61557
11
5.39273
21
-4.61301
0
LINE
8
BLACK
6
CONTINUOUS
10
5.39273
20
-4.61301
11
5.39213
21
-4.61
0
LINE
8
BLACK
6
CONTINUOUS
10
5.39213
20
-4.61
11
5.39213
21
-4.55
0
LINE
8
BLACK
6
CONTINUOUS
10
5.39213
20
-4.55
11
5.39273
21
-4.54699
0
LINE
8
BLACK
6
CONTINUOUS
10
5.39273
20
-4.54699
11
5.39443
21
-4.54443
0
LINE
8
BLACK
6
CONTINUOUS
10
5.39443
20
-4.54443
11
5.39699
21
-4.54273
0
LINE
8
BLACK
6
CONTINUOUS
10
5.39699
20
-4.54273
11
5.4
21
-4.54213
0
LINE
8
BLACK
6
CONTINUOUS
10
5.4
20
-4.54213
11
5.46
21
-4.54213
0
LINE
8
BLACK
6
CONTINUOUS
10
5.46
20
-4.54213
11
5.46301
21
-4.54273
0
LINE
8
BLACK
6
CONTINUOUS
10
7.06737
20
-4.44317
11
7.07658
21
-4.44481
0
LINE
8
BLACK
6
CONTINUOUS
10
7.07658
20
-4.44481
11
7.0854
21
-4.44793
0
LINE
8
BLACK
6
CONTINUOUS
10
7.0854
20
-4.44793
11
7.09359
21
-4.45245
0
LINE
8
BLACK
6
CONTINUOUS
10
7.09359
20
-4.45245
11
7.10093
21
-4.45825
0
LINE
8
BLACK
6
CONTINUOUS
10
7.10093
20
-4.45825
11
7.10723
21
-4.46517
0
LINE
8
BLACK
6
CONTINUOUS
10
7.10723
20
-4.46517
11
7.11231
21
-4.47302
0
LINE
8
BLACK
6
CONTINUOUS
10
7.11231
20
-4.47302
11
7.11604
21
-4.4816
0
LINE
8
BLACK
6
CONTINUOUS
10
7.11604
20
-4.4816
11
7.11832
21
-4.49068
0
LINE
8
BLACK
6
CONTINUOUS
10
7.11832
20
-4.49068
11
7.11909
21
-4.5
0
LINE
8
BLACK
6
CONTINUOUS
10
7.11909
20
-4.5
11
7.11902
21
-4.50279
0
LINE
8
BLACK
6
CONTINUOUS
10
7.11902
20
-4.50279
11
7.1178
21
-4.51206
0
LINE
8
BLACK
6
CONTINUOUS
10
7.1178
20
-4.51206
11
7.11508
21
-4.52101
0
LINE
8
BLACK
6
CONTINUOUS
10
7.11508
20
-4.52101
11
7.11093
21
-4.5294
0
LINE
8
BLACK
6
CONTINUOUS
10
7.11093
20
-4.5294
11
7.10547
21
-4.537
0
LINE
8
BLACK
6
CONTINUOUS
10
7.10547
20
-4.537
11
7.09885
21
-4.5436
0
LINE
8
BLACK
6
CONTINUOUS
10
7.09885
20
-4.5436
11
7.09123
21
-4.54904
0
LINE
8
BLACK
6
CONTINUOUS
10
7.09123
20
-4.54904
11
7.08283
21
-4.55315
0
LINE
8
BLACK
6
CONTINUOUS
10
7.08283
20
-4.55315
11
7.07387
21
-4.55584
0
LINE
8
BLACK
6
CONTINUOUS
10
7.07387
20
-4.55584
11
7.06459
21
-4.55703
0
LINE
8
BLACK
6
CONTINUOUS
10
7.06459
20
-4.55703
11
7.05524
21
-4.55668
0
LINE
8
BLACK
6
CONTINUOUS
10
7.05524
20
-4.55668
11
7.04607
21
-4.55482
0
LINE
8
BLACK
6
CONTINUOUS
10
7.04607
20
-4.55482
11
7.03733
21
-4.55148
0
LINE
8
BLACK
6
CONTINUOUS
10
7.03733
20
-4.55148
11
7.02926
21
-4.54676
0
LINE
8
BLACK
6
CONTINUOUS
10
7.02926
20
-4.54676
11
7.02206
21
-4.54079
0
LINE
8
BLACK
6
CONTINUOUS
10
7.02206
20
-4.54079
11
7.01593
21
-4.53372
0
LINE
8
BLACK
6
CONTINUOUS
10
7.01593
20
-4.53372
11
7.01105
21
-4.52574
0
LINE
8
BLACK
6
CONTINUOUS
10
7.01105
20
-4.52574
11
7.00753
21
-4.51707
0
LINE
8
BLACK
6
CONTINUOUS
10
7.00753
20
-4.51707
11
7.00547
21
-4.50794
0
LINE
8
BLACK
6
CONTINUOUS
10
7.00547
20
-4.50794
11
7.00493
21
-4.49861
0
LINE
8
BLACK
6
CONTINUOUS
10
7.00493
20
-4.49861
11
7.00592
21
-4.4893
0
LINE
8
BLACK
6
CONTINUOUS
10
7.00592
20
-4.4893
11
7.00842
21
-4.48029
0
LINE
8
BLACK
6
CONTINUOUS
10
7.00842
20
-4.48029
11
7.01236
21
-4.4718
0
LINE
8
BLACK
6
CONTINUOUS
10
7.01236
20
-4.4718
11
7.01764
21
-4.46407
0
LINE
8
BLACK
6
CONTINUOUS
10
7.01764
20
-4.46407
11
7.0241
21
-4.45731
0
LINE
8
BLACK
6
CONTINUOUS
10
7.0241
20
-4.45731
11
7.03158
21
-4.45169
0
LINE
8
BLACK
6
CONTINUOUS
10
7.03158
20
-4.45169
11
7.03988
21
-4.44737
0
LINE
8
BLACK
6
CONTINUOUS
10
7.03988
20
-4.44737
11
7.04877
21
-4.44447
0
LINE
8
BLACK
6
CONTINUOUS
10
7.04877
20
-4.44447
11
7.05802
21
-4.44305
0
LINE
8
BLACK
6
CONTINUOUS
10
7.05802
20
-4.44305
11
7.06737
21
-4.44317
0
LINE
8
BLACK
6
CONTINUOUS
10
5.56301
20
-4.44273
11
5.56557
21
-4.44443
0
LINE
8
BLACK
6
CONTINUOUS
10
5.56557
20
-4.44443
11
5.56727
21
-4.44699
0
LINE
8
BLACK
6
CONTINUOUS
10
5.56727
20
-4.44699
11
5.56787
21
-4.45
0
LINE
8
BLACK
6
CONTINUOUS
10
5.56787
20
-4.45
11
5.56787
21
-4.51
0
LINE
8
BLACK
6
CONTINUOUS
10
5.56787
20
-4.51
11
5.56727
21
-4.51301
0
LINE
8
BLACK
6
CONTINUOUS
10
5.56727
20
-4.51301
11
5.56557
21
-4.51557
0
LINE
8
BLACK
6
CONTINUOUS
10
5.56557
20
-4.51557
11
5.56301
21
-4.51727
0
LINE
8
BLACK
6
CONTINUOUS
10
5.56301
20
-4.51727
11
5.56
21
-4.51787
0
LINE
8
BLACK
6
CONTINUOUS
10
5.56
20
-4.51787
11
5.5
21
-4.51787
0
LINE
8
BLACK
6
CONTINUOUS
10
5.5
20
-4.51787
11
5.49699
21
-4.51727
0
LINE
8
BLACK
6
CONTINUOUS
10
5.49699
20
-4.51727
11
5.49443
21
-4.51557
0
LINE
8
BLACK
6
CONTINUOUS
10
5.49443
20
-4.51557
11
5.49273
21
-4.51301
0
LINE
8
BLACK
6
CONTINUOUS
10
5.49273
20
-4.51301
11
5.49213
21
-4.51
0
LINE
8
BLACK
6
CONTINUOUS
10
5.49213
20
-4.51
11
5.49213
21
-4.45
0
LINE
8
BLACK
6
CONTINUOUS
10
5.49213
20
-4.45
11
5.49273
21
-4.44699
0
LINE
8
BLACK
6
CONTINUOUS
10
5.49273
20
-4.44699
11
5.49443
21
-4.44443
0
LINE
8
BLACK
6
CONTINUOUS
10
5.49443
20
-4.44443
11
5.49699
21
-4.44273
0
LINE
8
BLACK
6
CONTINUOUS
10
5.49699
20
-4.44273
11
5.5
21
-4.44213
0
LINE
8
BLACK
6
CONTINUOUS
10
5.5
20
-4.44213
11
5.56
21
-4.44213
0
LINE
8
BLACK
6
CONTINUOUS
10
5.56
20
-4.44213
11
5.56301
21
-4.44273
0
LINE
8
BLACK
6
CONTINUOUS
10
5.46301
20
-4.44273
11
5.46557
21
-4.44443
0
LINE
8
BLACK
6
CONTINUOUS
10
5.46557
20
-4.44443
11
5.46727
21
-4.44699
0
LINE
8
BLACK
6
CONTINUOUS
10
5.46727
20
-4.44699
11
5.46787
21
-4.45
0
LINE
8
BLACK
6
CONTINUOUS
10
5.46787
20
-4.45
11
5.46787
21
-4.51
0
LINE
8
BLACK
6
CONTINUOUS
10
5.46787
20
-4.51
11
5.46727
21
-4.51301
0
LINE
8
BLACK
6
CONTINUOUS
10
5.46727
20
-4.51301
11
5.46557
21
-4.51557
0
LINE
8
BLACK
6
CONTINUOUS
10
5.46557
20
-4.51557
11
5.46301
21
-4.51727
0
LINE
8
BLACK
6
CONTINUOUS
10
5.46301
20
-4.51727
11
5.46
21
-4.51787
0
LINE
8
BLACK
6
CONTINUOUS
10
5.46
20
-4.51787
11
5.4
21
-4.51787
0
LINE
8
BLACK
6
CONTINUOUS
10
5.4
20
-4.51787
11
5.39699
21
-4.51727
0
LINE
8
BLACK
6
CONTINUOUS
10
5.39699
20
-4.51727
11
5.39443
21
-4.51557
0
LINE
8
BLACK
6
CONTINUOUS
10
5.39443
20
-4.51557
11
5.39273
21
-4.51301
0
LINE
8
BLACK
6
CONTINUOUS
10
5.39273
20
-4.51301
11
5.39213
21
-4.51
0
LINE
8
BLACK
6
CONTINUOUS
10
5.39213
20
-4.51
11
5.39213
21
-4.45
0
LINE
8
BLACK
6
CONTINUOUS
10
5.39213
20
-4.45
11
5.39273
21
-4.44699
0
LINE
8
BLACK
6
CONTINUOUS
10
5.39273
20
-4.44699
11
5.39443
21
-4.44443
0
LINE
8
BLACK
6
CONTINUOUS
10
5.39443
20
-4.44443
11
5.39699
21
-4.44273
0
LINE
8
BLACK
6
CONTINUOUS
10
5.39699
20
-4.44273
11
5.4
21
-4.44213
0
LINE
8
BLACK
6
CONTINUOUS
10
5.4
20
-4.44213
11
5.46
21
-4.44213
0
LINE
8
BLACK
6
CONTINUOUS
10
5.46
20
-4.44213
11
5.46301
21
-4.44273
0
LINE
8
BLACK
6
CONTINUOUS
10
7.17155
20
-4.33973
11
7.18086
21
-4.34196
0
LINE
8
BLACK
6
CONTINUOUS
10
7.18086
20
-4.34196
11
7.1897
21
-4.34563
0
LINE
8
BLACK
6
CONTINUOUS
10
7.1897
20
-4.34563
11
7.19787
21
-4.35063
0
LINE
8
BLACK
6
CONTINUOUS
10
7.19787
20
-4.35063
11
7.20515
21
-4.35685
0
LINE
8
BLACK
6
CONTINUOUS
10
7.20515
20
-4.35685
11
7.21137
21
-4.36413
0
LINE
8
BLACK
6
CONTINUOUS
10
7.21137
20
-4.36413
11
7.21637
21
-4.3723
0
LINE
8
BLACK
6
CONTINUOUS
10
7.21637
20
-4.3723
11
7.22004
21
-4.38114
0
LINE
8
BLACK
6
CONTINUOUS
10
7.22004
20
-4.38114
11
7.22227
21
-4.39045
0
LINE
8
BLACK
6
CONTINUOUS
10
7.22227
20
-4.39045
11
7.22302
21
-4.4
0
LINE
8
BLACK
6
CONTINUOUS
10
7.22302
20
-4.4
11
7.22227
21
-4.40955
0
LINE
8
BLACK
6
CONTINUOUS
10
7.22227
20
-4.40955
11
7.22004
21
-4.41886
0
LINE
8
BLACK
6
CONTINUOUS
10
7.22004
20
-4.41886
11
7.21637
21
-4.4277
0
LINE
8
BLACK
6
CONTINUOUS
10
7.21637
20
-4.4277
11
7.21137
21
-4.43587
0
LINE
8
BLACK
6
CONTINUOUS
10
7.21137
20
-4.43587
11
7.20515
21
-4.44315
0
LINE
8
BLACK
6
CONTINUOUS
10
7.20515
20
-4.44315
11
7.19787
21
-4.44937
0
LINE
8
BLACK
6
CONTINUOUS
10
7.19787
20
-4.44937
11
7.1897
21
-4.45437
0
LINE
8
BLACK
6
CONTINUOUS
10
7.1897
20
-4.45437
11
7.18086
21
-4.45804
0
LINE
8
BLACK
6
CONTINUOUS
10
7.18086
20
-4.45804
11
7.17155
21
-4.46027
0
LINE
8
BLACK
6
CONTINUOUS
10
7.17155
20
-4.46027
11
7.162
21
-4.46102
0
LINE
8
BLACK
6
CONTINUOUS
10
7.162
20
-4.46102
11
7.15245
21
-4.46027
0
LINE
8
BLACK
6
CONTINUOUS
10
7.15245
20
-4.46027
11
7.14314
21
-4.45804
0
LINE
8
BLACK
6
CONTINUOUS
10
7.14314
20
-4.45804
11
7.1343
21
-4.45437
0
LINE
8
BLACK
6
CONTINUOUS
10
7.1343
20
-4.45437
11
7.12613
21
-4.44937
0
LINE
8
BLACK
6
CONTINUOUS
10
7.12613
20
-4.44937
11
7.11885
21
-4.44315
0
LINE
8
BLACK
6
CONTINUOUS
10
7.11885
20
-4.44315
11
7.11263
21
-4.43587
0
LINE
8
BLACK
6
CONTINUOUS
10
7.11263
20
-4.43587
11
7.10763
21
-4.4277
0
LINE
8
BLACK
6
CONTINUOUS
10
7.10763
20
-4.4277
11
7.10396
21
-4.41886
0
LINE
8
BLACK
6
CONTINUOUS
10
7.10396
20
-4.41886
11
7.10173
21
-4.40955
0
LINE
8
BLACK
6
CONTINUOUS
10
7.10173
20
-4.40955
11
7.10098
21
-4.4
0
LINE
8
BLACK
6
CONTINUOUS
10
7.10098
20
-4.4
11
7.10173
21
-4.39045
0
LINE
8
BLACK
6
CONTINUOUS
10
7.10173
20
-4.39045
11
7.10396
21
-4.38114
0
LINE
8
BLACK
6
CONTINUOUS
10
7.10396
20
-4.38114
11
7.10763
21
-4.3723
0
LINE
8
BLACK
6
CONTINUOUS
10
7.10763
20
-4.3723
11
7.11263
21
-4.36413
0
LINE
8
BLACK
6
CONTINUOUS
10
7.11263
20
-4.36413
11
7.11885
21
-4.35685
0
LINE
8
BLACK
6
CONTINUOUS
10
7.11885
20
-4.35685
11
7.12613
21
-4.35063
0
LINE
8
BLACK
6
CONTINUOUS
10
7.12613
20
-4.35063
11
7.1343
21
-4.34563
0
LINE
8
BLACK
6
CONTINUOUS
10
7.1343
20
-4.34563
11
7.14314
21
-4.34196
0
LINE
8
BLACK
6
CONTINUOUS
10
7.14314
20
-4.34196
11
7.15245
21
-4.33973
0
LINE
8
BLACK
6
CONTINUOUS
10
7.15245
20
-4.33973
11
7.162
21
-4.33898
0
LINE
8
BLACK
6
CONTINUOUS
10
7.162
20
-4.33898
11
7.17155
21
-4.33973
0
LINE
8
BLACK
6
CONTINUOUS
10
6.97155
20
-4.33973
11
6.98086
21
-4.34196
0
LINE
8
BLACK
6
CONTINUOUS
10
6.98086
20
-4.34196
11
6.9897
21
-4.34563
0
LINE
8
BLACK
6
CONTINUOUS
10
6.9897
20
-4.34563
11
6.99787
21
-4.35063
0
LINE
8
BLACK
6
CONTINUOUS
10
6.99787
20
-4.35063
11
7.00515
21
-4.35685
0
LINE
8
BLACK
6
CONTINUOUS
10
7.00515
20
-4.35685
11
7.01137
21
-4.36413
0
LINE
8
BLACK
6
CONTINUOUS
10
7.01137
20
-4.36413
11
7.01637
21
-4.3723
0
LINE
8
BLACK
6
CONTINUOUS
10
7.01637
20
-4.3723
11
7.02004
21
-4.38114
0
LINE
8
BLACK
6
CONTINUOUS
10
7.02004
20
-4.38114
11
7.02227
21
-4.39045
0
LINE
8
BLACK
6
CONTINUOUS
10
7.02227
20
-4.39045
11
7.02302
21
-4.4
0
LINE
8
BLACK
6
CONTINUOUS
10
7.02302
20
-4.4
11
7.02227
21
-4.40955
0
LINE
8
BLACK
6
CONTINUOUS
10
7.02227
20
-4.40955
11
7.02004
21
-4.41886
0
LINE
8
BLACK
6
CONTINUOUS
10
7.02004
20
-4.41886
11
7.01637
21
-4.4277
0
LINE
8
BLACK
6
CONTINUOUS
10
7.01637
20
-4.4277
11
7.01137
21
-4.43587
0
LINE
8
BLACK
6
CONTINUOUS
10
7.01137
20
-4.43587
11
7.00515
21
-4.44315
0
LINE
8
BLACK
6
CONTINUOUS
10
7.00515
20
-4.44315
11
6.99787
21
-4.44937
0
LINE
8
BLACK
6
CONTINUOUS
10
6.99787
20
-4.44937
11
6.9897
21
-4.45437
0
LINE
8
BLACK
6
CONTINUOUS
10
6.9897
20
-4.45437
11
6.98086
21
-4.45804
0
LINE
8
BLACK
6
CONTINUOUS
10
6.98086
20
-4.45804
11
6.97155
21
-4.46027
0
LINE
8
BLACK
6
CONTINUOUS
10
6.97155
20
-4.46027
11
6.962
21
-4.46102
0
LINE
8
BLACK
6
CONTINUOUS
10
6.962
20
-4.46102
11
6.95245
21
-4.46027
0
LINE
8
BLACK
6
CONTINUOUS
10
6.95245
20
-4.46027
11
6.94314
21
-4.45804
0
LINE
8
BLACK
6
CONTINUOUS
10
6.94314
20
-4.45804
11
6.9343
21
-4.45437
0
LINE
8
BLACK
6
CONTINUOUS
10
6.9343
20
-4.45437
11
6.92613
21
-4.44937
0
LINE
8
BLACK
6
CONTINUOUS
10
6.92613
20
-4.44937
11
6.91885
21
-4.44315
0
LINE
8
BLACK
6
CONTINUOUS
10
6.91885
20
-4.44315
11
6.91263
21
-4.43587
0
LINE
8
BLACK
6
CONTINUOUS
10
6.91263
20
-4.43587
11
6.90763
21
-4.4277
0
LINE
8
BLACK
6
CONTINUOUS
10
6.90763
20
-4.4277
11
6.90396
21
-4.41886
0
LINE
8
BLACK
6
CONTINUOUS
10
6.90396
20
-4.41886
11
6.90173
21
-4.40955
0
LINE
8
BLACK
6
CONTINUOUS
10
6.90173
20
-4.40955
11
6.90098
21
-4.4
0
LINE
8
BLACK
6
CONTINUOUS
10
6.90098
20
-4.4
11
6.90173
21
-4.39045
0
LINE
8
BLACK
6
CONTINUOUS
10
6.90173
20
-4.39045
11
6.90396
21
-4.38114
0
LINE
8
BLACK
6
CONTINUOUS
10
6.90396
20
-4.38114
11
6.90763
21
-4.3723
0
LINE
8
BLACK
6
CONTINUOUS
10
6.90763
20
-4.3723
11
6.91263
21
-4.36413
0
LINE
8
BLACK
6
CONTINUOUS
10
6.91263
20
-4.36413
11
6.91885
21
-4.35685
0
LINE
8
BLACK
6
CONTINUOUS
10
6.91885
20
-4.35685
11
6.92613
21
-4.35063
0
LINE
8
BLACK
6
CONTINUOUS
10
6.92613
20
-4.35063
11
6.9343
21
-4.34563
0
LINE
8
BLACK
6
CONTINUOUS
10
6.9343
20
-4.34563
11
6.94314
21
-4.34196
0
LINE
8
BLACK
6
CONTINUOUS
10
6.94314
20
-4.34196
11
6.95245
21
-4.33973
0
LINE
8
BLACK
6
CONTINUOUS
10
6.95245
20
-4.33973
11
6.962
21
-4.33898
0
LINE
8
BLACK
6
CONTINUOUS
10
6.962
20
-4.33898
11
6.97155
21
-4.33973
0
LINE
8
BLACK
6
CONTINUOUS
10
5.51492
20
-3.9749
11
5.52877
21
-3.97734
0
LINE
8
BLACK
6
CONTINUOUS
10
5.52877
20
-3.97734
11
5.54226
21
-3.98132
0
LINE
8
BLACK
6
CONTINUOUS
10
5.54226
20
-3.98132
11
5.55523
21
-3.98677
0
LINE
8
BLACK
6
CONTINUOUS
10
5.55523
20
-3.98677
11
5.56751
21
-3.99363
0
LINE
8
BLACK
6
CONTINUOUS
10
5.56751
20
-3.99363
11
5.57894
21
-4.00182
0
LINE
8
BLACK
6
CONTINUOUS
10
5.57894
20
-4.00182
11
5.58939
21
-4.01123
0
LINE
8
BLACK
6
CONTINUOUS
10
5.58939
20
-4.01123
11
5.59873
21
-4.02175
0
LINE
8
BLACK
6
CONTINUOUS
10
5.59873
20
-4.02175
11
5.60684
21
-4.03324
0
LINE
8
BLACK
6
CONTINUOUS
10
5.60684
20
-4.03324
11
5.61362
21
-4.04556
0
LINE
8
BLACK
6
CONTINUOUS
10
5.61362
20
-4.04556
11
5.61898
21
-4.05857
0
LINE
8
BLACK
6
CONTINUOUS
10
5.61898
20
-4.05857
11
5.62285
21
-4.07209
0
LINE
8
BLACK
6
CONTINUOUS
10
5.62285
20
-4.07209
11
5.6252
21
-4.08596
0
LINE
8
BLACK
6
CONTINUOUS
10
5.6252
20
-4.08596
11
5.62598
21
-4.1
0
LINE
8
BLACK
6
CONTINUOUS
10
5.62598
20
-4.1
11
5.62594
21
-4.10352
0
LINE
8
BLACK
6
CONTINUOUS
10
5.62594
20
-4.10352
11
5.62476
21
-4.11753
0
LINE
8
BLACK
6
CONTINUOUS
10
5.62476
20
-4.11753
11
5.62203
21
-4.13133
0
LINE
8
BLACK
6
CONTINUOUS
10
5.62203
20
-4.13133
11
5.61777
21
-4.14474
0
LINE
8
BLACK
6
CONTINUOUS
10
5.61777
20
-4.14474
11
5.61205
21
-4.15759
0
LINE
8
BLACK
6
CONTINUOUS
10
5.61205
20
-4.15759
11
5.60493
21
-4.16972
0
LINE
8
BLACK
6
CONTINUOUS
10
5.60493
20
-4.16972
11
5.59651
21
-4.18098
0
LINE
8
BLACK
6
CONTINUOUS
10
5.59651
20
-4.18098
11
5.58688
21
-4.19123
0
LINE
8
BLACK
6
CONTINUOUS
10
5.58688
20
-4.19123
11
5.57617
21
-4.20035
0
LINE
8
BLACK
6
CONTINUOUS
10
5.57617
20
-4.20035
11
5.56451
21
-4.20822
0
LINE
8
BLACK
6
CONTINUOUS
10
5.56451
20
-4.20822
11
5.55204
21
-4.21473
0
LINE
8
BLACK
6
CONTINUOUS
10
5.55204
20
-4.21473
11
5.53893
21
-4.21982
0
LINE
8
BLACK
6
CONTINUOUS
10
5.53893
20
-4.21982
11
5.52533
21
-4.22341
0
LINE
8
BLACK
6
CONTINUOUS
10
5.52533
20
-4.22341
11
5.51142
21
-4.22547
0
LINE
8
BLACK
6
CONTINUOUS
10
5.51142
20
-4.22547
11
5.49736
21
-4.22596
0
LINE
8
BLACK
6
CONTINUOUS
10
5.49736
20
-4.22596
11
5.48334
21
-4.22488
0
LINE
8
BLACK
6
CONTINUOUS
10
5.48334
20
-4.22488
11
5.46952
21
-4.22224
0
LINE
8
BLACK
6
CONTINUOUS
10
5.46952
20
-4.22224
11
5.45609
21
-4.21808
0
LINE
8
BLACK
6
CONTINUOUS
10
5.45609
20
-4.21808
11
5.4432
21
-4.21245
0
LINE
8
BLACK
6
CONTINUOUS
10
5.4432
20
-4.21245
11
5.43102
21
-4.20542
0
LINE
8
BLACK
6
CONTINUOUS
10
5.43102
20
-4.20542
11
5.41969
21
-4.19707
0
LINE
8
BLACK
6
CONTINUOUS
10
5.41969
20
-4.19707
11
5.40937
21
-4.18752
0
LINE
8
BLACK
6
CONTINUOUS
10
5.40937
20
-4.18752
11
5.40018
21
-4.17687
0
LINE
8
BLACK
6
CONTINUOUS
10
5.40018
20
-4.17687
11
5.39224
21
-4.16526
0
LINE
8
BLACK
6
CONTINUOUS
10
5.39224
20
-4.16526
11
5.38563
21
-4.15284
0
LINE
8
BLACK
6
CONTINUOUS
10
5.38563
20
-4.15284
11
5.38046
21
-4.13977
0
LINE
8
BLACK
6
CONTINUOUS
10
5.38046
20
-4.13977
11
5.37677
21
-4.12619
0
LINE
8
BLACK
6
CONTINUOUS
10
5.37677
20
-4.12619
11
5.37462
21
-4.11229
0
LINE
8
BLACK
6
CONTINUOUS
10
5.37462
20
-4.11229
11
5.37403
21
-4.09824
0
LINE
8
BLACK
6
CONTINUOUS
10
5.37403
20
-4.09824
11
5.37501
21
-4.08421
0
LINE
8
BLACK
6
CONTINUOUS
10
5.37501
20
-4.08421
11
5.37755
21
-4.07038
0
LINE
8
BLACK
6
CONTINUOUS
10
5.37755
20
-4.07038
11
5.38161
21
-4.05691
0
LINE
8
BLACK
6
CONTINUOUS
10
5.38161
20
-4.05691
11
5.38715
21
-4.04398
0
LINE
8
BLACK
6
CONTINUOUS
10
5.38715
20
-4.04398
11
5.3941
21
-4.03175
0
LINE
8
BLACK
6
CONTINUOUS
10
5.3941
20
-4.03175
11
5.40237
21
-4.02037
0
LINE
8
BLACK
6
CONTINUOUS
10
5.40237
20
-4.02037
11
5.41185
21
-4.00999
0
LINE
8
BLACK
6
CONTINUOUS
10
5.41185
20
-4.00999
11
5.42244
21
-4.00072
0
LINE
8
BLACK
6
CONTINUOUS
10
5.42244
20
-4.00072
11
5.43399
21
-3.9927
0
LINE
8
BLACK
6
CONTINUOUS
10
5.43399
20
-3.9927
11
5.44636
21
-3.98601
0
LINE
8
BLACK
6
CONTINUOUS
10
5.44636
20
-3.98601
11
5.4594
21
-3.98074
0
LINE
8
BLACK
6
CONTINUOUS
10
5.4594
20
-3.98074
11
5.47295
21
-3.97695
0
LINE
8
BLACK
6
CONTINUOUS
10
5.47295
20
-3.97695
11
5.48683
21
-3.97471
0
LINE
8
BLACK
6
CONTINUOUS
10
5.48683
20
-3.97471
11
5.50088
21
-3.97402
0
LINE
8
BLACK
6
CONTINUOUS
10
5.50088
20
-3.97402
11
5.51492
21
-3.9749
0
LINE
8
BLACK
6
CONTINUOUS
10
7.11492
20
-3.9749
11
7.12877
21
-3.97734
0
LINE
8
BLACK
6
CONTINUOUS
10
7.12877
20
-3.97734
11
7.14226
21
-3.98132
0
LINE
8
BLACK
6
CONTINUOUS
10
7.14226
20
-3.98132
11
7.15523
21
-3.98677
0
LINE
8
BLACK
6
CONTINUOUS
10
7.15523
20
-3.98677
11
7.16751
21
-3.99363
0
LINE
8
BLACK
6
CONTINUOUS
10
7.16751
20
-3.99363
11
7.17894
21
-4.00182
0
LINE
8
BLACK
6
CONTINUOUS
10
7.17894
20
-4.00182
11
7.18939
21
-4.01123
0
LINE
8
BLACK
6
CONTINUOUS
10
7.18939
20
-4.01123
11
7.19873
21
-4.02175
0
LINE
8
BLACK
6
CONTINUOUS
10
7.19873
20
-4.02175
11
7.20684
21
-4.03324
0
LINE
8
BLACK
6
CONTINUOUS
10
7.20684
20
-4.03324
11
7.21362
21
-4.04556
0
LINE
8
BLACK
6
CONTINUOUS
10
7.21362
20
-4.04556
11
7.21898
21
-4.05857
0
LINE
8
BLACK
6
CONTINUOUS
10
7.21898
20
-4.05857
11
7.22285
21
-4.07209
0
LINE
8
BLACK
6
CONTINUOUS
10
7.22285
20
-4.07209
11
7.2252
21
-4.08596
0
LINE
8
BLACK
6
CONTINUOUS
10
7.2252
20
-4.08596
11
7.22598
21
-4.1
0
LINE
8
BLACK
6
CONTINUOUS
10
7.22598
20
-4.1
11
7.22594
21
-4.10352
0
LINE
8
BLACK
6
CONTINUOUS
10
7.22594
20
-4.10352
11
7.22476
21
-4.11753
0
LINE
8
BLACK
6
CONTINUOUS
10
7.22476
20
-4.11753
11
7.22203
21
-4.13133
0
LINE
8
BLACK
6
CONTINUOUS
10
7.22203
20
-4.13133
11
7.21777
21
-4.14474
0
LINE
8
BLACK
6
CONTINUOUS
10
7.21777
20
-4.14474
11
7.21205
21
-4.15759
0
LINE
8
BLACK
6
CONTINUOUS
10
7.21205
20
-4.15759
11
7.20493
21
-4.16972
0
LINE
8
BLACK
6
CONTINUOUS
10
7.20493
20
-4.16972
11
7.19651
21
-4.18098
0
LINE
8
BLACK
6
CONTINUOUS
10
7.19651
20
-4.18098
11
7.18688
21
-4.19123
0
LINE
8
BLACK
6
CONTINUOUS
10
7.18688
20
-4.19123
11
7.17617
21
-4.20035
0
LINE
8
BLACK
6
CONTINUOUS
10
7.17617
20
-4.20035
11
7.16451
21
-4.20822
0
LINE
8
BLACK
6
CONTINUOUS
10
7.16451
20
-4.20822
11
7.15204
21
-4.21473
0
LINE
8
BLACK
6
CONTINUOUS
10
7.15204
20
-4.21473
11
7.13893
21
-4.21982
0
LINE
8
BLACK
6
CONTINUOUS
10
7.13893
20
-4.21982
11
7.12533
21
-4.22341
0
LINE
8
BLACK
6
CONTINUOUS
10
7.12533
20
-4.22341
11
7.11142
21
-4.22547
0
LINE
8
BLACK
6
CONTINUOUS
10
7.11142
20
-4.22547
11
7.09736
21
-4.22596
0
LINE
8
BLACK
6
CONTINUOUS
10
7.09736
20
-4.22596
11
7.08334
21
-4.22488
0
LINE
8
BLACK
6
CONTINUOUS
10
7.08334
20
-4.22488
11
7.06952
21
-4.22224
0
LINE
8
BLACK
6
CONTINUOUS
10
7.06952
20
-4.22224
11
7.05609
21
-4.21808
0
LINE
8
BLACK
6
CONTINUOUS
10
7.05609
20
-4.21808
11
7.0432
21
-4.21245
0
LINE
8
BLACK
6
CONTINUOUS
10
7.0432
20
-4.21245
11
7.03102
21
-4.20542
0
LINE
8
BLACK
6
CONTINUOUS
10
7.03102
20
-4.20542
11
7.01969
21
-4.19707
0
LINE
8
BLACK
6
CONTINUOUS
10
7.01969
20
-4.19707
11
7.00937
21
-4.18752
0
LINE
8
BLACK
6
CONTINUOUS
10
7.00937
20
-4.18752
11
7.00018
21
-4.17687
0
LINE
8
BLACK
6
CONTINUOUS
10
7.00018
20
-4.17687
11
6.99224
21
-4.16526
0
LINE
8
BLACK
6
CONTINUOUS
10
6.99224
20
-4.16526
11
6.98563
21
-4.15284
0
LINE
8
BLACK
6
CONTINUOUS
10
6.98563
20
-4.15284
11
6.98046
21
-4.13977
0
LINE
8
BLACK
6
CONTINUOUS
10
6.98046
20
-4.13977
11
6.97677
21
-4.12619
0
LINE
8
BLACK
6
CONTINUOUS
10
6.97677
20
-4.12619
11
6.97462
21
-4.11229
0
LINE
8
BLACK
6
CONTINUOUS
10
6.97462
20
-4.11229
11
6.97403
21
-4.09824
0
LINE
8
BLACK
6
CONTINUOUS
10
6.97403
20
-4.09824
11
6.97501
21
-4.08421
0
LINE
8
BLACK
6
CONTINUOUS
10
6.97501
20
-4.08421
11
6.97755
21
-4.07038
0
LINE
8
BLACK
6
CONTINUOUS
10
6.97755
20
-4.07038
11
6.98161
21
-4.05691
0
LINE
8
BLACK
6
CONTINUOUS
10
6.98161
20
-4.05691
11
6.98715
21
-4.04398
0
LINE
8
BLACK
6
CONTINUOUS
10
6.98715
20
-4.04398
11
6.9941
21
-4.03175
0
LINE
8
BLACK
6
CONTINUOUS
10
6.9941
20
-4.03175
11
7.00237
21
-4.02037
0
LINE
8
BLACK
6
CONTINUOUS
10
7.00237
20
-4.02037
11
7.01185
21
-4.00999
0
LINE
8
BLACK
6
CONTINUOUS
10
7.01185
20
-4.00999
11
7.02244
21
-4.00072
0
LINE
8
BLACK
6
CONTINUOUS
10
7.02244
20
-4.00072
11
7.03399
21
-3.9927
0
LINE
8
BLACK
6
CONTINUOUS
10
7.03399
20
-3.9927
11
7.04636
21
-3.98601
0
LINE
8
BLACK
6
CONTINUOUS
10
7.04636
20
-3.98601
11
7.0594
21
-3.98074
0
LINE
8
BLACK
6
CONTINUOUS
10
7.0594
20
-3.98074
11
7.07295
21
-3.97695
0
LINE
8
BLACK
6
CONTINUOUS
10
7.07295
20
-3.97695
11
7.08683
21
-3.97471
0
LINE
8
BLACK
6
CONTINUOUS
10
7.08683
20
-3.97471
11
7.10088
21
-3.97402
0
LINE
8
BLACK
6
CONTINUOUS
10
7.10088
20
-3.97402
11
7.11492
21
-3.9749
0
LINE
8
BLACK
6
CONTINUOUS
10
6.37341
20
-4.11273
11
6.37596
21
-4.11443
0
LINE
8
BLACK
6
CONTINUOUS
10
6.37596
20
-4.11443
11
6.37767
21
-4.11699
0
LINE
8
BLACK
6
CONTINUOUS
10
6.37767
20
-4.11699
11
6.37827
21
-4.12
0
LINE
8
BLACK
6
CONTINUOUS
10
6.37827
20
-4.12
11
6.37827
21
-4.18
0
LINE
8
BLACK
6
CONTINUOUS
10
6.37827
20
-4.18
11
6.37767
21
-4.18301
0
LINE
8
BLACK
6
CONTINUOUS
10
6.37767
20
-4.18301
11
6.37596
21
-4.18557
0
LINE
8
BLACK
6
CONTINUOUS
10
6.37596
20
-4.18557
11
6.37341
21
-4.18727
0
LINE
8
BLACK
6
CONTINUOUS
10
6.37341
20
-4.18727
11
6.37039
21
-4.18787
0
LINE
8
BLACK
6
CONTINUOUS
10
6.37039
20
-4.18787
11
6.31039
21
-4.18787
0
LINE
8
BLACK
6
CONTINUOUS
10
6.31039
20
-4.18787
11
6.30738
21
-4.18727
0
LINE
8
BLACK
6
CONTINUOUS
10
6.30738
20
-4.18727
11
6.30483
21
-4.18557
0
LINE
8
BLACK
6
CONTINUOUS
10
6.30483
20
-4.18557
11
6.30312
21
-4.18301
0
LINE
8
BLACK
6
CONTINUOUS
10
6.30312
20
-4.18301
11
6.30252
21
-4.18
0
LINE
8
BLACK
6
CONTINUOUS
10
6.30252
20
-4.18
11
6.30252
21
-4.12
0
LINE
8
BLACK
6
CONTINUOUS
10
6.30252
20
-4.12
11
6.30312
21
-4.11699
0
LINE
8
BLACK
6
CONTINUOUS
10
6.30312
20
-4.11699
11
6.30483
21
-4.11443
0
LINE
8
BLACK
6
CONTINUOUS
10
6.30483
20
-4.11443
11
6.30738
21
-4.11273
0
LINE
8
BLACK
6
CONTINUOUS
10
6.30738
20
-4.11273
11
6.31039
21
-4.11213
0
LINE
8
BLACK
6
CONTINUOUS
10
6.31039
20
-4.11213
11
6.37039
21
-4.11213
0
LINE
8
BLACK
6
CONTINUOUS
10
6.37039
20
-4.11213
11
6.37341
21
-4.11273
0
LINE
8
BLACK
6
CONTINUOUS
10
6.61183
20
-4.11273
11
6.61439
21
-4.11443
0
LINE
8
BLACK
6
CONTINUOUS
10
6.61439
20
-4.11443
11
6.61609
21
-4.11699
0
LINE
8
BLACK
6
CONTINUOUS
10
6.61609
20
-4.11699
11
6.61669
21
-4.12
0
LINE
8
BLACK
6
CONTINUOUS
10
6.61669
20
-4.12
11
6.61669
21
-4.18
0
LINE
8
BLACK
6
CONTINUOUS
10
6.61669
20
-4.18
11
6.61609
21
-4.18301
0
LINE
8
BLACK
6
CONTINUOUS
10
6.61609
20
-4.18301
11
6.61439
21
-4.18557
0
LINE
8
BLACK
6
CONTINUOUS
10
6.61439
20
-4.18557
11
6.61183
21
-4.18727
0
LINE
8
BLACK
6
CONTINUOUS
10
6.61183
20
-4.18727
11
6.60882
21
-4.18787
0
LINE
8
BLACK
6
CONTINUOUS
10
6.60882
20
-4.18787
11
6.54882
21
-4.18787
0
LINE
8
BLACK
6
CONTINUOUS
10
6.54882
20
-4.18787
11
6.54581
21
-4.18727
0
LINE
8
BLACK
6
CONTINUOUS
10
6.54581
20
-4.18727
11
6.54325
21
-4.18557
0
LINE
8
BLACK
6
CONTINUOUS
10
6.54325
20
-4.18557
11
6.54154
21
-4.18301
0
LINE
8
BLACK
6
CONTINUOUS
10
6.54154
20
-4.18301
11
6.54094
21
-4.18
0
LINE
8
BLACK
6
CONTINUOUS
10
6.54094
20
-4.18
11
6.54094
21
-4.12
0
LINE
8
BLACK
6
CONTINUOUS
10
6.54094
20
-4.12
11
6.54154
21
-4.11699
0
LINE
8
BLACK
6
CONTINUOUS
10
6.54154
20
-4.11699
11
6.54325
21
-4.11443
0
LINE
8
BLACK
6
CONTINUOUS
10
6.54325
20
-4.11443
11
6.54581
21
-4.11273
0
LINE
8
BLACK
6
CONTINUOUS
10
6.54581
20
-4.11273
11
6.54882
21
-4.11213
0
LINE
8
BLACK
6
CONTINUOUS
10
6.54882
20
-4.11213
11
6.60882
21
-4.11213
0
LINE
8
BLACK
6
CONTINUOUS
10
6.60882
20
-4.11213
11
6.61183
21
-4.11273
0
LINE
8
BLACK
6
CONTINUOUS
10
5.95301
20
-4.11273
11
5.95557
21
-4.11443
0
LINE
8
BLACK
6
CONTINUOUS
10
5.95557
20
-4.11443
11
5.95727
21
-4.11699
0
LINE
8
BLACK
6
CONTINUOUS
10
5.95727
20
-4.11699
11
5.95787
21
-4.12
0
LINE
8
BLACK
6
CONTINUOUS
10
5.95787
20
-4.12
11
5.95787
21
-4.18
0
LINE
8
BLACK
6
CONTINUOUS
10
5.95787
20
-4.18
11
5.95727
21
-4.18301
0
LINE
8
BLACK
6
CONTINUOUS
10
5.95727
20
-4.18301
11
5.95557
21
-4.18557
0
LINE
8
BLACK
6
CONTINUOUS
10
5.95557
20
-4.18557
11
5.95301
21
-4.18727
0
LINE
8
BLACK
6
CONTINUOUS
10
5.95301
20
-4.18727
11
5.95
21
-4.18787
0
LINE
8
BLACK
6
CONTINUOUS
10
5.95
20
-4.18787
11
5.89
21
-4.18787
0
LINE
8
BLACK
6
CONTINUOUS
10
5.89
20
-4.18787
11
5.88699
21
-4.18727
0
LINE
8
BLACK
6
CONTINUOUS
10
5.88699
20
-4.18727
11
5.88443
21
-4.18557
0
LINE
8
BLACK
6
CONTINUOUS
10
5.88443
20
-4.18557
11
5.88273
21
-4.18301
0
LINE
8
BLACK
6
CONTINUOUS
10
5.88273
20
-4.18301
11
5.88213
21
-4.18
0
LINE
8
BLACK
6
CONTINUOUS
10
5.88213
20
-4.18
11
5.88213
21
-4.12
0
LINE
8
BLACK
6
CONTINUOUS
10
5.88213
20
-4.12
11
5.88273
21
-4.11699
0
LINE
8
BLACK
6
CONTINUOUS
10
5.88273
20
-4.11699
11
5.88443
21
-4.11443
0
LINE
8
BLACK
6
CONTINUOUS
10
5.88443
20
-4.11443
11
5.88699
21
-4.11273
0
LINE
8
BLACK
6
CONTINUOUS
10
5.88699
20
-4.11273
11
5.89
21
-4.11213
0
LINE
8
BLACK
6
CONTINUOUS
10
5.89
20
-4.11213
11
5.95
21
-4.11213
0
LINE
8
BLACK
6
CONTINUOUS
10
5.95
20
-4.11213
11
5.95301
21
-4.11273
0
LINE
8
BLACK
6
CONTINUOUS
10
5.85301
20
-4.11273
11
5.85557
21
-4.11443
0
LINE
8
BLACK
6
CONTINUOUS
10
5.85557
20
-4.11443
11
5.85727
21
-4.11699
0
LINE
8
BLACK
6
CONTINUOUS
10
5.85727
20
-4.11699
11
5.85787
21
-4.12
0
LINE
8
BLACK
6
CONTINUOUS
10
5.85787
20
-4.12
11
5.85787
21
-4.18
0
LINE
8
BLACK
6
CONTINUOUS
10
5.85787
20
-4.18
11
5.85727
21
-4.18301
0
LINE
8
BLACK
6
CONTINUOUS
10
5.85727
20
-4.18301
11
5.85557
21
-4.18557
0
LINE
8
BLACK
6
CONTINUOUS
10
5.85557
20
-4.18557
11
5.85301
21
-4.18727
0
LINE
8
BLACK
6
CONTINUOUS
10
5.85301
20
-4.18727
11
5.85
21
-4.18787
0
LINE
8
BLACK
6
CONTINUOUS
10
5.85
20
-4.18787
11
5.79
21
-4.18787
0
LINE
8
BLACK
6
CONTINUOUS
10
5.79
20
-4.18787
11
5.78699
21
-4.18727
0
LINE
8
BLACK
6
CONTINUOUS
10
5.78699
20
-4.18727
11
5.78443
21
-4.18557
0
LINE
8
BLACK
6
CONTINUOUS
10
5.78443
20
-4.18557
11
5.78273
21
-4.18301
0
LINE
8
BLACK
6
CONTINUOUS
10
5.78273
20
-4.18301
11
5.78213
21
-4.18
0
LINE
8
BLACK
6
CONTINUOUS
10
5.78213
20
-4.18
11
5.78213
21
-4.12
0
LINE
8
BLACK
6
CONTINUOUS
10
5.78213
20
-4.12
11
5.78273
21
-4.11699
0
LINE
8
BLACK
6
CONTINUOUS
10
5.78273
20
-4.11699
11
5.78443
21
-4.11443
0
LINE
8
BLACK
6
CONTINUOUS
10
5.78443
20
-4.11443
11
5.78699
21
-4.11273
0
LINE
8
BLACK
6
CONTINUOUS
10
5.78699
20
-4.11273
11
5.79
21
-4.11213
0
LINE
8
BLACK
6
CONTINUOUS
10
5.79
20
-4.11213
11
5.85
21
-4.11213
0
LINE
8
BLACK
6
CONTINUOUS
10
5.85
20
-4.11213
11
5.85301
21
-4.11273
0
LINE
8
BLACK
6
CONTINUOUS
10
5.75301
20
-4.11273
11
5.75557
21
-4.11443
0
LINE
8
BLACK
6
CONTINUOUS
10
5.75557
20
-4.11443
11
5.75727
21
-4.11699
0
LINE
8
BLACK
6
CONTINUOUS
10
5.75727
20
-4.11699
11
5.75787
21
-4.12
0
LINE
8
BLACK
6
CONTINUOUS
10
5.75787
20
-4.12
11
5.75787
21
-4.18
0
LINE
8
BLACK
6
CONTINUOUS
10
5.75787
20
-4.18
11
5.75727
21
-4.18301
0
LINE
8
BLACK
6
CONTINUOUS
10
5.75727
20
-4.18301
11
5.75557
21
-4.18557
0
LINE
8
BLACK
6
CONTINUOUS
10
5.75557
20
-4.18557
11
5.75301
21
-4.18727
0
LINE
8
BLACK
6
CONTINUOUS
10
5.75301
20
-4.18727
11
5.75
21
-4.18787
0
LINE
8
BLACK
6
CONTINUOUS
10
5.75
20
-4.18787
11
5.69
21
-4.18787
0
LINE
8
BLACK
6
CONTINUOUS
10
5.69
20
-4.18787
11
5.68699
21
-4.18727
0
LINE
8
BLACK
6
CONTINUOUS
10
5.68699
20
-4.18727
11
5.68443
21
-4.18557
0
LINE
8
BLACK
6
CONTINUOUS
10
5.68443
20
-4.18557
11
5.68273
21
-4.18301
0
LINE
8
BLACK
6
CONTINUOUS
10
5.68273
20
-4.18301
11
5.68213
21
-4.18
0
LINE
8
BLACK
6
CONTINUOUS
10
5.68213
20
-4.18
11
5.68213
21
-4.12
0
LINE
8
BLACK
6
CONTINUOUS
10
5.68213
20
-4.12
11
5.68273
21
-4.11699
0
LINE
8
BLACK
6
CONTINUOUS
10
5.68273
20
-4.11699
11
5.68443
21
-4.11443
0
LINE
8
BLACK
6
CONTINUOUS
10
5.68443
20
-4.11443
11
5.68699
21
-4.11273
0
LINE
8
BLACK
6
CONTINUOUS
10
5.68699
20
-4.11273
11
5.69
21
-4.11213
0
LINE
8
BLACK
6
CONTINUOUS
10
5.69
20
-4.11213
11
5.75
21
-4.11213
0
LINE
8
BLACK
6
CONTINUOUS
10
5.75
20
-4.11213
11
5.75301
21
-4.11273
0
LINE
8
BLACK
6
CONTINUOUS
10
6.71223
20
-4.11273
11
6.71478
21
-4.11443
0
LINE
8
BLACK
6
CONTINUOUS
10
6.71478
20
-4.11443
11
6.71649
21
-4.11699
0
LINE
8
BLACK
6
CONTINUOUS
10
6.71649
20
-4.11699
11
6.71709
21
-4.12
0
LINE
8
BLACK
6
CONTINUOUS
10
6.71709
20
-4.12
11
6.71709
21
-4.18
0
LINE
8
BLACK
6
CONTINUOUS
10
6.71709
20
-4.18
11
6.71649
21
-4.18301
0
LINE
8
BLACK
6
CONTINUOUS
10
6.71649
20
-4.18301
11
6.71478
21
-4.18557
0
LINE
8
BLACK
6
CONTINUOUS
10
6.71478
20
-4.18557
11
6.71223
21
-4.18727
0
LINE
8
BLACK
6
CONTINUOUS
10
6.71223
20
-4.18727
11
6.70921
21
-4.18787
0
LINE
8
BLACK
6
CONTINUOUS
10
6.70921
20
-4.18787
11
6.64921
21
-4.18787
0
LINE
8
BLACK
6
CONTINUOUS
10
6.64921
20
-4.18787
11
6.6462
21
-4.18727
0
LINE
8
BLACK
6
CONTINUOUS
10
6.6462
20
-4.18727
11
6.64364
21
-4.18557
0
LINE
8
BLACK
6
CONTINUOUS
10
6.64364
20
-4.18557
11
6.64194
21
-4.18301
0
LINE
8
BLACK
6
CONTINUOUS
10
6.64194
20
-4.18301
11
6.64134
21
-4.18
0
LINE
8
BLACK
6
CONTINUOUS
10
6.64134
20
-4.18
11
6.64134
21
-4.12
0
LINE
8
BLACK
6
CONTINUOUS
10
6.64134
20
-4.12
11
6.64194
21
-4.11699
0
LINE
8
BLACK
6
CONTINUOUS
10
6.64194
20
-4.11699
11
6.64364
21
-4.11443
0
LINE
8
BLACK
6
CONTINUOUS
10
6.64364
20
-4.11443
11
6.6462
21
-4.11273
0
LINE
8
BLACK
6
CONTINUOUS
10
6.6462
20
-4.11273
11
6.64921
21
-4.11213
0
LINE
8
BLACK
6
CONTINUOUS
10
6.64921
20
-4.11213
11
6.70921
21
-4.11213
0
LINE
8
BLACK
6
CONTINUOUS
10
6.70921
20
-4.11213
11
6.71223
21
-4.11273
0
LINE
8
BLACK
6
CONTINUOUS
10
6.4738
20
-4.11273
11
6.47636
21
-4.11443
0
LINE
8
BLACK
6
CONTINUOUS
10
6.47636
20
-4.11443
11
6.47806
21
-4.11699
0
LINE
8
BLACK
6
CONTINUOUS
10
6.47806
20
-4.11699
11
6.47866
21
-4.12
0
LINE
8
BLACK
6
CONTINUOUS
10
6.47866
20
-4.12
11
6.47866
21
-4.18
0
LINE
8
BLACK
6
CONTINUOUS
10
6.47866
20
-4.18
11
6.47806
21
-4.18301
0
LINE
8
BLACK
6
CONTINUOUS
10
6.47806
20
-4.18301
11
6.47636
21
-4.18557
0
LINE
8
BLACK
6
CONTINUOUS
10
6.47636
20
-4.18557
11
6.4738
21
-4.18727
0
LINE
8
BLACK
6
CONTINUOUS
10
6.4738
20
-4.18727
11
6.47079
21
-4.18787
0
LINE
8
BLACK
6
CONTINUOUS
10
6.47079
20
-4.18787
11
6.41079
21
-4.18787
0
LINE
8
BLACK
6
CONTINUOUS
10
6.41079
20
-4.18787
11
6.40777
21
-4.18727
0
LINE
8
BLACK
6
CONTINUOUS
10
6.40777
20
-4.18727
11
6.40522
21
-4.18557
0
LINE
8
BLACK
6
CONTINUOUS
10
6.40522
20
-4.18557
11
6.40351
21
-4.18301
0
LINE
8
BLACK
6
CONTINUOUS
10
6.40351
20
-4.18301
11
6.40291
21
-4.18
0
LINE
8
BLACK
6
CONTINUOUS
10
6.40291
20
-4.18
11
6.40291
21
-4.12
0
LINE
8
BLACK
6
CONTINUOUS
10
6.40291
20
-4.12
11
6.40351
21
-4.11699
0
LINE
8
BLACK
6
CONTINUOUS
10
6.40351
20
-4.11699
11
6.40522
21
-4.11443
0
LINE
8
BLACK
6
CONTINUOUS
10
6.40522
20
-4.11443
11
6.40777
21
-4.11273
0
LINE
8
BLACK
6
CONTINUOUS
10
6.40777
20
-4.11273
11
6.41079
21
-4.11213
0
LINE
8
BLACK
6
CONTINUOUS
10
6.41079
20
-4.11213
11
6.47079
21
-4.11213
0
LINE
8
BLACK
6
CONTINUOUS
10
6.47079
20
-4.11213
11
6.4738
21
-4.11273
0
LINE
8
BLACK
6
CONTINUOUS
10
6.27301
20
-4.11273
11
6.27557
21
-4.11443
0
LINE
8
BLACK
6
CONTINUOUS
10
6.27557
20
-4.11443
11
6.27727
21
-4.11699
0
LINE
8
BLACK
6
CONTINUOUS
10
6.27727
20
-4.11699
11
6.27787
21
-4.12
0
LINE
8
BLACK
6
CONTINUOUS
10
6.27787
20
-4.12
11
6.27787
21
-4.18
0
LINE
8
BLACK
6
CONTINUOUS
10
6.27787
20
-4.18
11
6.27727
21
-4.18301
0
LINE
8
BLACK
6
CONTINUOUS
10
6.27727
20
-4.18301
11
6.27557
21
-4.18557
0
LINE
8
BLACK
6
CONTINUOUS
10
6.27557
20
-4.18557
11
6.27301
21
-4.18727
0
LINE
8
BLACK
6
CONTINUOUS
10
6.27301
20
-4.18727
11
6.27
21
-4.18787
0
LINE
8
BLACK
6
CONTINUOUS
10
6.27
20
-4.18787
11
6.21
21
-4.18787
0
LINE
8
BLACK
6
CONTINUOUS
10
6.21
20
-4.18787
11
6.20699
21
-4.18727
0
LINE
8
BLACK
6
CONTINUOUS
10
6.20699
20
-4.18727
11
6.20443
21
-4.18557
0
LINE
8
BLACK
6
CONTINUOUS
10
6.20443
20
-4.18557
11
6.20273
21
-4.18301
0
LINE
8
BLACK
6
CONTINUOUS
10
6.20273
20
-4.18301
11
6.20213
21
-4.18
0
LINE
8
BLACK
6
CONTINUOUS
10
6.20213
20
-4.18
11
6.20213
21
-4.12
0
LINE
8
BLACK
6
CONTINUOUS
10
6.20213
20
-4.12
11
6.20273
21
-4.11699
0
LINE
8
BLACK
6
CONTINUOUS
10
6.20273
20
-4.11699
11
6.20443
21
-4.11443
0
LINE
8
BLACK
6
CONTINUOUS
10
6.20443
20
-4.11443
11
6.20699
21
-4.11273
0
LINE
8
BLACK
6
CONTINUOUS
10
6.20699
20
-4.11273
11
6.21
21
-4.11213
0
LINE
8
BLACK
6
CONTINUOUS
10
6.21
20
-4.11213
11
6.27
21
-4.11213
0
LINE
8
BLACK
6
CONTINUOUS
10
6.27
20
-4.11213
11
6.27301
21
-4.11273
0
LINE
8
BLACK
6
CONTINUOUS
10
6.81262
20
-4.11273
11
6.81517
21
-4.11443
0
LINE
8
BLACK
6
CONTINUOUS
10
6.81517
20
-4.11443
11
6.81688
21
-4.11699
0
LINE
8
BLACK
6
CONTINUOUS
10
6.81688
20
-4.11699
11
6.81748
21
-4.12
0
LINE
8
BLACK
6
CONTINUOUS
10
6.81748
20
-4.12
11
6.81748
21
-4.18
0
LINE
8
BLACK
6
CONTINUOUS
10
6.81748
20
-4.18
11
6.81688
21
-4.18301
0
LINE
8
BLACK
6
CONTINUOUS
10
6.81688
20
-4.18301
11
6.81517
21
-4.18557
0
LINE
8
BLACK
6
CONTINUOUS
10
6.81517
20
-4.18557
11
6.81262
21
-4.18727
0
LINE
8
BLACK
6
CONTINUOUS
10
6.81262
20
-4.18727
11
6.80961
21
-4.18787
0
LINE
8
BLACK
6
CONTINUOUS
10
6.80961
20
-4.18787
11
6.74961
21
-4.18787
0
LINE
8
BLACK
6
CONTINUOUS
10
6.74961
20
-4.18787
11
6.74659
21
-4.18727
0
LINE
8
BLACK
6
CONTINUOUS
10
6.74659
20
-4.18727
11
6.74404
21
-4.18557
0
LINE
8
BLACK
6
CONTINUOUS
10
6.74404
20
-4.18557
11
6.74233
21
-4.18301
0
LINE
8
BLACK
6
CONTINUOUS
10
6.74233
20
-4.18301
11
6.74173
21
-4.18
0
LINE
8
BLACK
6
CONTINUOUS
10
6.74173
20
-4.18
11
6.74173
21
-4.12
0
LINE
8
BLACK
6
CONTINUOUS
10
6.74173
20
-4.12
11
6.74233
21
-4.11699
0
LINE
8
BLACK
6
CONTINUOUS
10
6.74233
20
-4.11699
11
6.74404
21
-4.11443
0
LINE
8
BLACK
6
CONTINUOUS
10
6.74404
20
-4.11443
11
6.74659
21
-4.11273
0
LINE
8
BLACK
6
CONTINUOUS
10
6.74659
20
-4.11273
11
6.74961
21
-4.11213
0
LINE
8
BLACK
6
CONTINUOUS
10
6.74961
20
-4.11213
11
6.80961
21
-4.11213
0
LINE
8
BLACK
6
CONTINUOUS
10
6.80961
20
-4.11213
11
6.81262
21
-4.11273
0
LINE
8
BLACK
6
CONTINUOUS
10
6.07223
20
-4.11273
11
6.07478
21
-4.11443
0
LINE
8
BLACK
6
CONTINUOUS
10
6.07478
20
-4.11443
11
6.07649
21
-4.11699
0
LINE
8
BLACK
6
CONTINUOUS
10
6.07649
20
-4.11699
11
6.07709
21
-4.12
0
LINE
8
BLACK
6
CONTINUOUS
10
6.07709
20
-4.12
11
6.07709
21
-4.18
0
LINE
8
BLACK
6
CONTINUOUS
10
6.07709
20
-4.18
11
6.07649
21
-4.18301
0
LINE
8
BLACK
6
CONTINUOUS
10
6.07649
20
-4.18301
11
6.07478
21
-4.18557
0
LINE
8
BLACK
6
CONTINUOUS
10
6.07478
20
-4.18557
11
6.07223
21
-4.18727
0
LINE
8
BLACK
6
CONTINUOUS
10
6.07223
20
-4.18727
11
6.06921
21
-4.18787
0
LINE
8
BLACK
6
CONTINUOUS
10
6.06921
20
-4.18787
11
6.00921
21
-4.18787
0
LINE
8
BLACK
6
CONTINUOUS
10
6.00921
20
-4.18787
11
6.0062
21
-4.18727
0
LINE
8
BLACK
6
CONTINUOUS
10
6.0062
20
-4.18727
11
6.00364
21
-4.18557
0
LINE
8
BLACK
6
CONTINUOUS
10
6.00364
20
-4.18557
11
6.00194
21
-4.18301
0
LINE
8
BLACK
6
CONTINUOUS
10
6.00194
20
-4.18301
11
6.00134
21
-4.18
0
LINE
8
BLACK
6
CONTINUOUS
10
6.00134
20
-4.18
11
6.00134
21
-4.12
0
LINE
8
BLACK
6
CONTINUOUS
10
6.00134
20
-4.12
11
6.00194
21
-4.11699
0
LINE
8
BLACK
6
CONTINUOUS
10
6.00194
20
-4.11699
11
6.00364
21
-4.11443
0
LINE
8
BLACK
6
CONTINUOUS
10
6.00364
20
-4.11443
11
6.0062
21
-4.11273
0
LINE
8
BLACK
6
CONTINUOUS
10
6.0062
20
-4.11273
11
6.00921
21
-4.11213
0
LINE
8
BLACK
6
CONTINUOUS
10
6.00921
20
-4.11213
11
6.06921
21
-4.11213
0
LINE
8
BLACK
6
CONTINUOUS
10
6.06921
20
-4.11213
11
6.07223
21
-4.11273
0
LINE
8
BLACK
6
CONTINUOUS
10
6.91301
20
-4.11273
11
6.91557
21
-4.11443
0
LINE
8
BLACK
6
CONTINUOUS
10
6.91557
20
-4.11443
11
6.91727
21
-4.11699
0
LINE
8
BLACK
6
CONTINUOUS
10
6.91727
20
-4.11699
11
6.91787
21
-4.12
0
LINE
8
BLACK
6
CONTINUOUS
10
6.91787
20
-4.12
11
6.91787
21
-4.18
0
LINE
8
BLACK
6
CONTINUOUS
10
6.91787
20
-4.18
11
6.91727
21
-4.18301
0
LINE
8
BLACK
6
CONTINUOUS
10
6.91727
20
-4.18301
11
6.91557
21
-4.18557
0
LINE
8
BLACK
6
CONTINUOUS
10
6.91557
20
-4.18557
11
6.91301
21
-4.18727
0
LINE
8
BLACK
6
CONTINUOUS
10
6.91301
20
-4.18727
11
6.91
21
-4.18787
0
LINE
8
BLACK
6
CONTINUOUS
10
6.91
20
-4.18787
11
6.85
21
-4.18787
0
LINE
8
BLACK
6
CONTINUOUS
10
6.85
20
-4.18787
11
6.84699
21
-4.18727
0
LINE
8
BLACK
6
CONTINUOUS
10
6.84699
20
-4.18727
11
6.84443
21
-4.18557
0
LINE
8
BLACK
6
CONTINUOUS
10
6.84443
20
-4.18557
11
6.84273
21
-4.18301
0
LINE
8
BLACK
6
CONTINUOUS
10
6.84273
20
-4.18301
11
6.84213
21
-4.18
0
LINE
8
BLACK
6
CONTINUOUS
10
6.84213
20
-4.18
11
6.84213
21
-4.12
0
LINE
8
BLACK
6
CONTINUOUS
10
6.84213
20
-4.12
11
6.84273
21
-4.11699
0
LINE
8
BLACK
6
CONTINUOUS
10
6.84273
20
-4.11699
11
6.84443
21
-4.11443
0
LINE
8
BLACK
6
CONTINUOUS
10
6.84443
20
-4.11443
11
6.84699
21
-4.11273
0
LINE
8
BLACK
6
CONTINUOUS
10
6.84699
20
-4.11273
11
6.85
21
-4.11213
0
LINE
8
BLACK
6
CONTINUOUS
10
6.85
20
-4.11213
11
6.91
21
-4.11213
0
LINE
8
BLACK
6
CONTINUOUS
10
6.91
20
-4.11213
11
6.91301
21
-4.11273
0
LINE
8
BLACK
6
CONTINUOUS
10
6.17262
20
-4.11273
11
6.17517
21
-4.11443
0
LINE
8
BLACK
6
CONTINUOUS
10
6.17517
20
-4.11443
11
6.17688
21
-4.11699
0
LINE
8
BLACK
6
CONTINUOUS
10
6.17688
20
-4.11699
11
6.17748
21
-4.12
0
LINE
8
BLACK
6
CONTINUOUS
10
6.17748
20
-4.12
11
6.17748
21
-4.18
0
LINE
8
BLACK
6
CONTINUOUS
10
6.17748
20
-4.18
11
6.17688
21
-4.18301
0
LINE
8
BLACK
6
CONTINUOUS
10
6.17688
20
-4.18301
11
6.17517
21
-4.18557
0
LINE
8
BLACK
6
CONTINUOUS
10
6.17517
20
-4.18557
11
6.17262
21
-4.18727
0
LINE
8
BLACK
6
CONTINUOUS
10
6.17262
20
-4.18727
11
6.16961
21
-4.18787
0
LINE
8
BLACK
6
CONTINUOUS
10
6.16961
20
-4.18787
11
6.10961
21
-4.18787
0
LINE
8
BLACK
6
CONTINUOUS
10
6.10961
20
-4.18787
11
6.10659
21
-4.18727
0
LINE
8
BLACK
6
CONTINUOUS
10
6.10659
20
-4.18727
11
6.10404
21
-4.18557
0
LINE
8
BLACK
6
CONTINUOUS
10
6.10404
20
-4.18557
11
6.10233
21
-4.18301
0
LINE
8
BLACK
6
CONTINUOUS
10
6.10233
20
-4.18301
11
6.10173
21
-4.18
0
LINE
8
BLACK
6
CONTINUOUS
10
6.10173
20
-4.18
11
6.10173
21
-4.12
0
LINE
8
BLACK
6
CONTINUOUS
10
6.10173
20
-4.12
11
6.10233
21
-4.11699
0
LINE
8
BLACK
6
CONTINUOUS
10
6.10233
20
-4.11699
11
6.10404
21
-4.11443
0
LINE
8
BLACK
6
CONTINUOUS
10
6.10404
20
-4.11443
11
6.10659
21
-4.11273
0
LINE
8
BLACK
6
CONTINUOUS
10
6.10659
20
-4.11273
11
6.10961
21
-4.11213
0
LINE
8
BLACK
6
CONTINUOUS
10
6.10961
20
-4.11213
11
6.16961
21
-4.11213
0
LINE
8
BLACK
6
CONTINUOUS
10
6.16961
20
-4.11213
11
6.17262
21
-4.11273
0
LINE
8
BLACK
6
CONTINUOUS
10
6.71223
20
-4.01273
11
6.71478
21
-4.01443
0
LINE
8
BLACK
6
CONTINUOUS
10
6.71478
20
-4.01443
11
6.71649
21
-4.01699
0
LINE
8
BLACK
6
CONTINUOUS
10
6.71649
20
-4.01699
11
6.71709
21
-4.02
0
LINE
8
BLACK
6
CONTINUOUS
10
6.71709
20
-4.02
11
6.71709
21
-4.08
0
LINE
8
BLACK
6
CONTINUOUS
10
6.71709
20
-4.08
11
6.71649
21
-4.08301
0
LINE
8
BLACK
6
CONTINUOUS
10
6.71649
20
-4.08301
11
6.71478
21
-4.08557
0
LINE
8
BLACK
6
CONTINUOUS
10
6.71478
20
-4.08557
11
6.71223
21
-4.08727
0
LINE
8
BLACK
6
CONTINUOUS
10
6.71223
20
-4.08727
11
6.70921
21
-4.08787
0
LINE
8
BLACK
6
CONTINUOUS
10
6.70921
20
-4.08787
11
6.64921
21
-4.08787
0
LINE
8
BLACK
6
CONTINUOUS
10
6.64921
20
-4.08787
11
6.6462
21
-4.08727
0
LINE
8
BLACK
6
CONTINUOUS
10
6.6462
20
-4.08727
11
6.64364
21
-4.08557
0
LINE
8
BLACK
6
CONTINUOUS
10
6.64364
20
-4.08557
11
6.64194
21
-4.08301
0
LINE
8
BLACK
6
CONTINUOUS
10
6.64194
20
-4.08301
11
6.64134
21
-4.08
0
LINE
8
BLACK
6
CONTINUOUS
10
6.64134
20
-4.08
11
6.64134
21
-4.02
0
LINE
8
BLACK
6
CONTINUOUS
10
6.64134
20
-4.02
11
6.64194
21
-4.01699
0
LINE
8
BLACK
6
CONTINUOUS
10
6.64194
20
-4.01699
11
6.64364
21
-4.01443
0
LINE
8
BLACK
6
CONTINUOUS
10
6.64364
20
-4.01443
11
6.6462
21
-4.01273
0
LINE
8
BLACK
6
CONTINUOUS
10
6.6462
20
-4.01273
11
6.64921
21
-4.01213
0
LINE
8
BLACK
6
CONTINUOUS
10
6.64921
20
-4.01213
11
6.70921
21
-4.01213
0
LINE
8
BLACK
6
CONTINUOUS
10
6.70921
20
-4.01213
11
6.71223
21
-4.01273
0
LINE
8
BLACK
6
CONTINUOUS
10
6.91301
20
-4.01273
11
6.91557
21
-4.01443
0
LINE
8
BLACK
6
CONTINUOUS
10
6.91557
20
-4.01443
11
6.91727
21
-4.01699
0
LINE
8
BLACK
6
CONTINUOUS
10
6.91727
20
-4.01699
11
6.91787
21
-4.02
0
LINE
8
BLACK
6
CONTINUOUS
10
6.91787
20
-4.02
11
6.91787
21
-4.08
0
LINE
8
BLACK
6
CONTINUOUS
10
6.91787
20
-4.08
11
6.91727
21
-4.08301
0
LINE
8
BLACK
6
CONTINUOUS
10
6.91727
20
-4.08301
11
6.91557
21
-4.08557
0
LINE
8
BLACK
6
CONTINUOUS
10
6.91557
20
-4.08557
11
6.91301
21
-4.08727
0
LINE
8
BLACK
6
CONTINUOUS
10
6.91301
20
-4.08727
11
6.91
21
-4.08787
0
LINE
8
BLACK
6
CONTINUOUS
10
6.91
20
-4.08787
11
6.85
21
-4.08787
0
LINE
8
BLACK
6
CONTINUOUS
10
6.85
20
-4.08787
11
6.84699
21
-4.08727
0
LINE
8
BLACK
6
CONTINUOUS
10
6.84699
20
-4.08727
11
6.84443
21
-4.08557
0
LINE
8
BLACK
6
CONTINUOUS
10
6.84443
20
-4.08557
11
6.84273
21
-4.08301
0
LINE
8
BLACK
6
CONTINUOUS
10
6.84273
20
-4.08301
11
6.84213
21
-4.08
0
LINE
8
BLACK
6
CONTINUOUS
10
6.84213
20
-4.08
11
6.84213
21
-4.02
0
LINE
8
BLACK
6
CONTINUOUS
10
6.84213
20
-4.02
11
6.84273
21
-4.01699
0
LINE
8
BLACK
6
CONTINUOUS
10
6.84273
20
-4.01699
11
6.84443
21
-4.01443
0
LINE
8
BLACK
6
CONTINUOUS
10
6.84443
20
-4.01443
11
6.84699
21
-4.01273
0
LINE
8
BLACK
6
CONTINUOUS
10
6.84699
20
-4.01273
11
6.85
21
-4.01213
0
LINE
8
BLACK
6
CONTINUOUS
10
6.85
20
-4.01213
11
6.91
21
-4.01213
0
LINE
8
BLACK
6
CONTINUOUS
10
6.91
20
-4.01213
11
6.91301
21
-4.01273
0
LINE
8
BLACK
6
CONTINUOUS
10
5.75301
20
-4.01273
11
5.75557
21
-4.01443
0
LINE
8
BLACK
6
CONTINUOUS
10
5.75557
20
-4.01443
11
5.75727
21
-4.01699
0
LINE
8
BLACK
6
CONTINUOUS
10
5.75727
20
-4.01699
11
5.75787
21
-4.02
0
LINE
8
BLACK
6
CONTINUOUS
10
5.75787
20
-4.02
11
5.75787
21
-4.08
0
LINE
8
BLACK
6
CONTINUOUS
10
5.75787
20
-4.08
11
5.75727
21
-4.08301
0
LINE
8
BLACK
6
CONTINUOUS
10
5.75727
20
-4.08301
11
5.75557
21
-4.08557
0
LINE
8
BLACK
6
CONTINUOUS
10
5.75557
20
-4.08557
11
5.75301
21
-4.08727
0
LINE
8
BLACK
6
CONTINUOUS
10
5.75301
20
-4.08727
11
5.75
21
-4.08787
0
LINE
8
BLACK
6
CONTINUOUS
10
5.75
20
-4.08787
11
5.69
21
-4.08787
0
LINE
8
BLACK
6
CONTINUOUS
10
5.69
20
-4.08787
11
5.68699
21
-4.08727
0
LINE
8
BLACK
6
CONTINUOUS
10
5.68699
20
-4.08727
11
5.68443
21
-4.08557
0
LINE
8
BLACK
6
CONTINUOUS
10
5.68443
20
-4.08557
11
5.68273
21
-4.08301
0
LINE
8
BLACK
6
CONTINUOUS
10
5.68273
20
-4.08301
11
5.68213
21
-4.08
0
LINE
8
BLACK
6
CONTINUOUS
10
5.68213
20
-4.08
11
5.68213
21
-4.02
0
LINE
8
BLACK
6
CONTINUOUS
10
5.68213
20
-4.02
11
5.68273
21
-4.01699
0
LINE
8
BLACK
6
CONTINUOUS
10
5.68273
20
-4.01699
11
5.68443
21
-4.01443
0
LINE
8
BLACK
6
CONTINUOUS
10
5.68443
20
-4.01443
11
5.68699
21
-4.01273
0
LINE
8
BLACK
6
CONTINUOUS
10
5.68699
20
-4.01273
11
5.69
21
-4.01213
0
LINE
8
BLACK
6
CONTINUOUS
10
5.69
20
-4.01213
11
5.75
21
-4.01213
0
LINE
8
BLACK
6
CONTINUOUS
10
5.75
20
-4.01213
11
5.75301
21
-4.01273
0
LINE
8
BLACK
6
CONTINUOUS
10
6.17262
20
-4.01273
11
6.17517
21
-4.01443
0
LINE
8
BLACK
6
CONTINUOUS
10
6.17517
20
-4.01443
11
6.17688
21
-4.01699
0
LINE
8
BLACK
6
CONTINUOUS
10
6.17688
20
-4.01699
11
6.17748
21
-4.02
0
LINE
8
BLACK
6
CONTINUOUS
10
6.17748
20
-4.02
11
6.17748
21
-4.08
0
LINE
8
BLACK
6
CONTINUOUS
10
6.17748
20
-4.08
11
6.17688
21
-4.08301
0
LINE
8
BLACK
6
CONTINUOUS
10
6.17688
20
-4.08301
11
6.17517
21
-4.08557
0
LINE
8
BLACK
6
CONTINUOUS
10
6.17517
20
-4.08557
11
6.17262
21
-4.08727
0
LINE
8
BLACK
6
CONTINUOUS
10
6.17262
20
-4.08727
11
6.16961
21
-4.08787
0
LINE
8
BLACK
6
CONTINUOUS
10
6.16961
20
-4.08787
11
6.10961
21
-4.08787
0
LINE
8
BLACK
6
CONTINUOUS
10
6.10961
20
-4.08787
11
6.10659
21
-4.08727
0
LINE
8
BLACK
6
CONTINUOUS
10
6.10659
20
-4.08727
11
6.10404
21
-4.08557
0
LINE
8
BLACK
6
CONTINUOUS
10
6.10404
20
-4.08557
11
6.10233
21
-4.08301
0
LINE
8
BLACK
6
CONTINUOUS
10
6.10233
20
-4.08301
11
6.10173
21
-4.08
0
LINE
8
BLACK
6
CONTINUOUS
10
6.10173
20
-4.08
11
6.10173
21
-4.02
0
LINE
8
BLACK
6
CONTINUOUS
10
6.10173
20
-4.02
11
6.10233
21
-4.01699
0
LINE
8
BLACK
6
CONTINUOUS
10
6.10233
20
-4.01699
11
6.10404
21
-4.01443
0
LINE
8
BLACK
6
CONTINUOUS
10
6.10404
20
-4.01443
11
6.10659
21
-4.01273
0
LINE
8
BLACK
6
CONTINUOUS
10
6.10659
20
-4.01273
11
6.10961
21
-4.01213
0
LINE
8
BLACK
6
CONTINUOUS
10
6.10961
20
-4.01213
11
6.16961
21
-4.01213
0
LINE
8
BLACK
6
CONTINUOUS
10
6.16961
20
-4.01213
11
6.17262
21
-4.01273
0
LINE
8
BLACK
6
CONTINUOUS
10
5.85301
20
-4.01273
11
5.85557
21
-4.01443
0
LINE
8
BLACK
6
CONTINUOUS
10
5.85557
20
-4.01443
11
5.85727
21
-4.01699
0
LINE
8
BLACK
6
CONTINUOUS
10
5.85727
20
-4.01699
11
5.85787
21
-4.02
0
LINE
8
BLACK
6
CONTINUOUS
10
5.85787
20
-4.02
11
5.85787
21
-4.08
0
LINE
8
BLACK
6
CONTINUOUS
10
5.85787
20
-4.08
11
5.85727
21
-4.08301
0
LINE
8
BLACK
6
CONTINUOUS
10
5.85727
20
-4.08301
11
5.85557
21
-4.08557
0
LINE
8
BLACK
6
CONTINUOUS
10
5.85557
20
-4.08557
11
5.85301
21
-4.08727
0
LINE
8
BLACK
6
CONTINUOUS
10
5.85301
20
-4.08727
11
5.85
21
-4.08787
0
LINE
8
BLACK
6
CONTINUOUS
10
5.85
20
-4.08787
11
5.79
21
-4.08787
0
LINE
8
BLACK
6
CONTINUOUS
10
5.79
20
-4.08787
11
5.78699
21
-4.08727
0
LINE
8
BLACK
6
CONTINUOUS
10
5.78699
20
-4.08727
11
5.78443
21
-4.08557
0
LINE
8
BLACK
6
CONTINUOUS
10
5.78443
20
-4.08557
11
5.78273
21
-4.08301
0
LINE
8
BLACK
6
CONTINUOUS
10
5.78273
20
-4.08301
11
5.78213
21
-4.08
0
LINE
8
BLACK
6
CONTINUOUS
10
5.78213
20
-4.08
11
5.78213
21
-4.02
0
LINE
8
BLACK
6
CONTINUOUS
10
5.78213
20
-4.02
11
5.78273
21
-4.01699
0
LINE
8
BLACK
6
CONTINUOUS
10
5.78273
20
-4.01699
11
5.78443
21
-4.01443
0
LINE
8
BLACK
6
CONTINUOUS
10
5.78443
20
-4.01443
11
5.78699
21
-4.01273
0
LINE
8
BLACK
6
CONTINUOUS
10
5.78699
20
-4.01273
11
5.79
21
-4.01213
0
LINE
8
BLACK
6
CONTINUOUS
10
5.79
20
-4.01213
11
5.85
21
-4.01213
0
LINE
8
BLACK
6
CONTINUOUS
10
5.85
20
-4.01213
11
5.85301
21
-4.01273
0
LINE
8
BLACK
6
CONTINUOUS
10
6.07223
20
-4.01273
11
6.07478
21
-4.01443
0
LINE
8
BLACK
6
CONTINUOUS
10
6.07478
20
-4.01443
11
6.07649
21
-4.01699
0
LINE
8
BLACK
6
CONTINUOUS
10
6.07649
20
-4.01699
11
6.07709
21
-4.02
0
LINE
8
BLACK
6
CONTINUOUS
10
6.07709
20
-4.02
11
6.07709
21
-4.08
0
LINE
8
BLACK
6
CONTINUOUS
10
6.07709
20
-4.08
11
6.07649
21
-4.08301
0
LINE
8
BLACK
6
CONTINUOUS
10
6.07649
20
-4.08301
11
6.07478
21
-4.08557
0
LINE
8
BLACK
6
CONTINUOUS
10
6.07478
20
-4.08557
11
6.07223
21
-4.08727
0
LINE
8
BLACK
6
CONTINUOUS
10
6.07223
20
-4.08727
11
6.06921
21
-4.08787
0
LINE
8
BLACK
6
CONTINUOUS
10
6.06921
20
-4.08787
11
6.00921
21
-4.08787
0
LINE
8
BLACK
6
CONTINUOUS
10
6.00921
20
-4.08787
11
6.0062
21
-4.08727
0
LINE
8
BLACK
6
CONTINUOUS
10
6.0062
20
-4.08727
11
6.00364
21
-4.08557
0
LINE
8
BLACK
6
CONTINUOUS
10
6.00364
20
-4.08557
11
6.00194
21
-4.08301
0
LINE
8
BLACK
6
CONTINUOUS
10
6.00194
20
-4.08301
11
6.00134
21
-4.08
0
LINE
8
BLACK
6
CONTINUOUS
10
6.00134
20
-4.08
11
6.00134
21
-4.02
0
LINE
8
BLACK
6
CONTINUOUS
10
6.00134
20
-4.02
11
6.00194
21
-4.01699
0
LINE
8
BLACK
6
CONTINUOUS
10
6.00194
20
-4.01699
11
6.00364
21
-4.01443
0
LINE
8
BLACK
6
CONTINUOUS
10
6.00364
20
-4.01443
11
6.0062
21
-4.01273
0
LINE
8
BLACK
6
CONTINUOUS
10
6.0062
20
-4.01273
11
6.00921
21
-4.01213
0
LINE
8
BLACK
6
CONTINUOUS
10
6.00921
20
-4.01213
11
6.06921
21
-4.01213
0
LINE
8
BLACK
6
CONTINUOUS
10
6.06921
20
-4.01213
11
6.07223
21
-4.01273
0
LINE
8
BLACK
6
CONTINUOUS
10
5.95301
20
-4.01273
11
5.95557
21
-4.01443
0
LINE
8
BLACK
6
CONTINUOUS
10
5.95557
20
-4.01443
11
5.95727
21
-4.01699
0
LINE
8
BLACK
6
CONTINUOUS
10
5.95727
20
-4.01699
11
5.95787
21
-4.02
0
LINE
8
BLACK
6
CONTINUOUS
10
5.95787
20
-4.02
11
5.95787
21
-4.08
0
LINE
8
BLACK
6
CONTINUOUS
10
5.95787
20
-4.08
11
5.95727
21
-4.08301
0
LINE
8
BLACK
6
CONTINUOUS
10
5.95727
20
-4.08301
11
5.95557
21
-4.08557
0
LINE
8
BLACK
6
CONTINUOUS
10
5.95557
20
-4.08557
11
5.95301
21
-4.08727
0
LINE
8
BLACK
6
CONTINUOUS
10
5.95301
20
-4.08727
11
5.95
21
-4.08787
0
LINE
8
BLACK
6
CONTINUOUS
10
5.95
20
-4.08787
11
5.89
21
-4.08787
0
LINE
8
BLACK
6
CONTINUOUS
10
5.89
20
-4.08787
11
5.88699
21
-4.08727
0
LINE
8
BLACK
6
CONTINUOUS
10
5.88699
20
-4.08727
11
5.88443
21
-4.08557
0
LINE
8
BLACK
6
CONTINUOUS
10
5.88443
20
-4.08557
11
5.88273
21
-4.08301
0
LINE
8
BLACK
6
CONTINUOUS
10
5.88273
20
-4.08301
11
5.88213
21
-4.08
0
LINE
8
BLACK
6
CONTINUOUS
10
5.88213
20
-4.08
11
5.88213
21
-4.02
0
LINE
8
BLACK
6
CONTINUOUS
10
5.88213
20
-4.02
11
5.88273
21
-4.01699
0
LINE
8
BLACK
6
CONTINUOUS
10
5.88273
20
-4.01699
11
5.88443
21
-4.01443
0
LINE
8
BLACK
6
CONTINUOUS
10
5.88443
20
-4.01443
11
5.88699
21
-4.01273
0
LINE
8
BLACK
6
CONTINUOUS
10
5.88699
20
-4.01273
11
5.89
21
-4.01213
0
LINE
8
BLACK
6
CONTINUOUS
10
5.89
20
-4.01213
11
5.95
21
-4.01213
0
LINE
8
BLACK
6
CONTINUOUS
10
5.95
20
-4.01213
11
5.95301
21
-4.01273
0
LINE
8
BLACK
6
CONTINUOUS
10
6.61183
20
-4.01273
11
6.61439
21
-4.01443
0
LINE
8
BLACK
6
CONTINUOUS
10
6.61439
20
-4.01443
11
6.61609
21
-4.01699
0
LINE
8
BLACK
6
CONTINUOUS
10
6.61609
20
-4.01699
11
6.61669
21
-4.02
0
LINE
8
BLACK
6
CONTINUOUS
10
6.61669
20
-4.02
11
6.61669
21
-4.08
0
LINE
8
BLACK
6
CONTINUOUS
10
6.61669
20
-4.08
11
6.61609
21
-4.08301
0
LINE
8
BLACK
6
CONTINUOUS
10
6.61609
20
-4.08301
11
6.61439
21
-4.08557
0
LINE
8
BLACK
6
CONTINUOUS
10
6.61439
20
-4.08557
11
6.61183
21
-4.08727
0
LINE
8
BLACK
6
CONTINUOUS
10
6.61183
20
-4.08727
11
6.60882
21
-4.08787
0
LINE
8
BLACK
6
CONTINUOUS
10
6.60882
20
-4.08787
11
6.54882
21
-4.08787
0
LINE
8
BLACK
6
CONTINUOUS
10
6.54882
20
-4.08787
11
6.54581
21
-4.08727
0
LINE
8
BLACK
6
CONTINUOUS
10
6.54581
20
-4.08727
11
6.54325
21
-4.08557
0
LINE
8
BLACK
6
CONTINUOUS
10
6.54325
20
-4.08557
11
6.54154
21
-4.08301
0
LINE
8
BLACK
6
CONTINUOUS
10
6.54154
20
-4.08301
11
6.54094
21
-4.08
0
LINE
8
BLACK
6
CONTINUOUS
10
6.54094
20
-4.08
11
6.54094
21
-4.02
0
LINE
8
BLACK
6
CONTINUOUS
10
6.54094
20
-4.02
11
6.54154
21
-4.01699
0
LINE
8
BLACK
6
CONTINUOUS
10
6.54154
20
-4.01699
11
6.54325
21
-4.01443
0
LINE
8
BLACK
6
CONTINUOUS
10
6.54325
20
-4.01443
11
6.54581
21
-4.01273
0
LINE
8
BLACK
6
CONTINUOUS
10
6.54581
20
-4.01273
11
6.54882
21
-4.01213
0
LINE
8
BLACK
6
CONTINUOUS
10
6.54882
20
-4.01213
11
6.60882
21
-4.01213
0
LINE
8
BLACK
6
CONTINUOUS
10
6.60882
20
-4.01213
11
6.61183
21
-4.01273
0
LINE
8
BLACK
6
CONTINUOUS
10
6.37341
20
-4.01273
11
6.37596
21
-4.01443
0
LINE
8
BLACK
6
CONTINUOUS
10
6.37596
20
-4.01443
11
6.37767
21
-4.01699
0
LINE
8
BLACK
6
CONTINUOUS
10
6.37767
20
-4.01699
11
6.37827
21
-4.02
0
LINE
8
BLACK
6
CONTINUOUS
10
6.37827
20
-4.02
11
6.37827
21
-4.08
0
LINE
8
BLACK
6
CONTINUOUS
10
6.37827
20
-4.08
11
6.37767
21
-4.08301
0
LINE
8
BLACK
6
CONTINUOUS
10
6.37767
20
-4.08301
11
6.37596
21
-4.08557
0
LINE
8
BLACK
6
CONTINUOUS
10
6.37596
20
-4.08557
11
6.37341
21
-4.08727
0
LINE
8
BLACK
6
CONTINUOUS
10
6.37341
20
-4.08727
11
6.37039
21
-4.08787
0
LINE
8
BLACK
6
CONTINUOUS
10
6.37039
20
-4.08787
11
6.31039
21
-4.08787
0
LINE
8
BLACK
6
CONTINUOUS
10
6.31039
20
-4.08787
11
6.30738
21
-4.08727
0
LINE
8
BLACK
6
CONTINUOUS
10
6.30738
20
-4.08727
11
6.30483
21
-4.08557
0
LINE
8
BLACK
6
CONTINUOUS
10
6.30483
20
-4.08557
11
6.30312
21
-4.08301
0
LINE
8
BLACK
6
CONTINUOUS
10
6.30312
20
-4.08301
11
6.30252
21
-4.08
0
LINE
8
BLACK
6
CONTINUOUS
10
6.30252
20
-4.08
11
6.30252
21
-4.02
0
LINE
8
BLACK
6
CONTINUOUS
10
6.30252
20
-4.02
11
6.30312
21
-4.01699
0
LINE
8
BLACK
6
CONTINUOUS
10
6.30312
20
-4.01699
11
6.30483
21
-4.01443
0
LINE
8
BLACK
6
CONTINUOUS
10
6.30483
20
-4.01443
11
6.30738
21
-4.01273
0
LINE
8
BLACK
6
CONTINUOUS
10
6.30738
20
-4.01273
11
6.31039
21
-4.01213
0
LINE
8
BLACK
6
CONTINUOUS
10
6.31039
20
-4.01213
11
6.37039
21
-4.01213
0
LINE
8
BLACK
6
CONTINUOUS
10
6.37039
20
-4.01213
11
6.37341
21
-4.01273
0
LINE
8
BLACK
6
CONTINUOUS
10
6.27301
20
-4.01273
11
6.27557
21
-4.01443
0
LINE
8
BLACK
6
CONTINUOUS
10
6.27557
20
-4.01443
11
6.27727
21
-4.01699
0
LINE
8
BLACK
6
CONTINUOUS
10
6.27727
20
-4.01699
11
6.27787
21
-4.02
0
LINE
8
BLACK
6
CONTINUOUS
10
6.27787
20
-4.02
11
6.27787
21
-4.08
0
LINE
8
BLACK
6
CONTINUOUS
10
6.27787
20
-4.08
11
6.27727
21
-4.08301
0
LINE
8
BLACK
6
CONTINUOUS
10
6.27727
20
-4.08301
11
6.27557
21
-4.08557
0
LINE
8
BLACK
6
CONTINUOUS
10
6.27557
20
-4.08557
11
6.27301
21
-4.08727
0
LINE
8
BLACK
6
CONTINUOUS
10
6.27301
20
-4.08727
11
6.27
21
-4.08787
0
LINE
8
BLACK
6
CONTINUOUS
10
6.27
20
-4.08787
11
6.21
21
-4.08787
0
LINE
8
BLACK
6
CONTINUOUS
10
6.21
20
-4.08787
11
6.20699
21
-4.08727
0
LINE
8
BLACK
6
CONTINUOUS
10
6.20699
20
-4.08727
11
6.20443
21
-4.08557
0
LINE
8
BLACK
6
CONTINUOUS
10
6.20443
20
-4.08557
11
6.20273
21
-4.08301
0
LINE
8
BLACK
6
CONTINUOUS
10
6.20273
20
-4.08301
11
6.20213
21
-4.08
0
LINE
8
BLACK
6
CONTINUOUS
10
6.20213
20
-4.08
11
6.20213
21
-4.02
0
LINE
8
BLACK
6
CONTINUOUS
10
6.20213
20
-4.02
11
6.20273
21
-4.01699
0
LINE
8
BLACK
6
CONTINUOUS
10
6.20273
20
-4.01699
11
6.20443
21
-4.01443
0
LINE
8
BLACK
6
CONTINUOUS
10
6.20443
20
-4.01443
11
6.20699
21
-4.01273
0
LINE
8
BLACK
6
CONTINUOUS
10
6.20699
20
-4.01273
11
6.21
21
-4.01213
0
LINE
8
BLACK
6
CONTINUOUS
10
6.21
20
-4.01213
11
6.27
21
-4.01213
0
LINE
8
BLACK
6
CONTINUOUS
10
6.27
20
-4.01213
11
6.27301
21
-4.01273
0
LINE
8
BLACK
6
CONTINUOUS
10
6.81262
20
-4.01273
11
6.81517
21
-4.01443
0
LINE
8
BLACK
6
CONTINUOUS
10
6.81517
20
-4.01443
11
6.81688
21
-4.01699
0
LINE
8
BLACK
6
CONTINUOUS
10
6.81688
20
-4.01699
11
6.81748
21
-4.02
0
LINE
8
BLACK
6
CONTINUOUS
10
6.81748
20
-4.02
11
6.81748
21
-4.08
0
LINE
8
BLACK
6
CONTINUOUS
10
6.81748
20
-4.08
11
6.81688
21
-4.08301
0
LINE
8
BLACK
6
CONTINUOUS
10
6.81688
20
-4.08301
11
6.81517
21
-4.08557
0
LINE
8
BLACK
6
CONTINUOUS
10
6.81517
20
-4.08557
11
6.81262
21
-4.08727
0
LINE
8
BLACK
6
CONTINUOUS
10
6.81262
20
-4.08727
11
6.80961
21
-4.08787
0
LINE
8
BLACK
6
CONTINUOUS
10
6.80961
20
-4.08787
11
6.74961
21
-4.08787
0
LINE
8
BLACK
6
CONTINUOUS
10
6.74961
20
-4.08787
11
6.74659
21
-4.08727
0
LINE
8
BLACK
6
CONTINUOUS
10
6.74659
20
-4.08727
11
6.74404
21
-4.08557
0
LINE
8
BLACK
6
CONTINUOUS
10
6.74404
20
-4.08557
11
6.74233
21
-4.08301
0
LINE
8
BLACK
6
CONTINUOUS
10
6.74233
20
-4.08301
11
6.74173
21
-4.08
0
LINE
8
BLACK
6
CONTINUOUS
10
6.74173
20
-4.08
11
6.74173
21
-4.02
0
LINE
8
BLACK
6
CONTINUOUS
10
6.74173
20
-4.02
11
6.74233
21
-4.01699
0
LINE
8
BLACK
6
CONTINUOUS
10
6.74233
20
-4.01699
11
6.74404
21
-4.01443
0
LINE
8
BLACK
6
CONTINUOUS
10
6.74404
20
-4.01443
11
6.74659
21
-4.01273
0
LINE
8
BLACK
6
CONTINUOUS
10
6.74659
20
-4.01273
11
6.74961
21
-4.01213
0
LINE
8
BLACK
6
CONTINUOUS
10
6.74961
20
-4.01213
11
6.80961
21
-4.01213
0
LINE
8
BLACK
6
CONTINUOUS
10
6.80961
20
-4.01213
11
6.81262
21
-4.01273
0
LINE
8
BLACK
6
CONTINUOUS
10
6.4738
20
-4.01273
11
6.47636
21
-4.01443
0
LINE
8
BLACK
6
CONTINUOUS
10
6.47636
20
-4.01443
11
6.47806
21
-4.01699
0
LINE
8
BLACK
6
CONTINUOUS
10
6.47806
20
-4.01699
11
6.47866
21
-4.02
0
LINE
8
BLACK
6
CONTINUOUS
10
6.47866
20
-4.02
11
6.47866
21
-4.08
0
LINE
8
BLACK
6
CONTINUOUS
10
6.47866
20
-4.08
11
6.47806
21
-4.08301
0
LINE
8
BLACK
6
CONTINUOUS
10
6.47806
20
-4.08301
11
6.47636
21
-4.08557
0
LINE
8
BLACK
6
CONTINUOUS
10
6.47636
20
-4.08557
11
6.4738
21
-4.08727
0
LINE
8
BLACK
6
CONTINUOUS
10
6.4738
20
-4.08727
11
6.47079
21
-4.08787
0
LINE
8
BLACK
6
CONTINUOUS
10
6.47079
20
-4.08787
11
6.41079
21
-4.08787
0
LINE
8
BLACK
6
CONTINUOUS
10
6.41079
20
-4.08787
11
6.40777
21
-4.08727
0
LINE
8
BLACK
6
CONTINUOUS
10
6.40777
20
-4.08727
11
6.40522
21
-4.08557
0
LINE
8
BLACK
6
CONTINUOUS
10
6.40522
20
-4.08557
11
6.40351
21
-4.08301
0
LINE
8
BLACK
6
CONTINUOUS
10
6.40351
20
-4.08301
11
6.40291
21
-4.08
0
LINE
8
BLACK
6
CONTINUOUS
10
6.40291
20
-4.08
11
6.40291
21
-4.02
0
LINE
8
BLACK
6
CONTINUOUS
10
6.40291
20
-4.02
11
6.40351
21
-4.01699
0
LINE
8
BLACK
6
CONTINUOUS
10
6.40351
20
-4.01699
11
6.40522
21
-4.01443
0
LINE
8
BLACK
6
CONTINUOUS
10
6.40522
20
-4.01443
11
6.40777
21
-4.01273
0
LINE
8
BLACK
6
CONTINUOUS
10
6.40777
20
-4.01273
11
6.41079
21
-4.01213
0
LINE
8
BLACK
6
CONTINUOUS
10
6.41079
20
-4.01213
11
6.47079
21
-4.01213
0
LINE
8
BLACK
6
CONTINUOUS
10
6.47079
20
-4.01213
11
6.4738
21
-4.01273
  0
ENDSEC
  0
EOF
