  0
SECTION
  2
HEADER
  9
$ANGBASE
  50
0.0
  9
$ANGDIR
  70
1
  9
$MEASUREMENT
  70
0
  0
ENDSEC
  0
SECTION
  2
TABLES
  0
TABLE
  2
LTYPE
  70
4
  0
LTYPE
  5
40F
  2
CONTINUOUS
  70
0
  3
Solid line
  72
65
  73
0
  40
0.0
  0
LTYPE
  5
410
  2
DASHDOT
 70
0
  3
Dash Dot ____ _ ____ _
 72
65
 73
4
 40
2.0
 49
1.25
 49
-0.25
 49
0.25
 49
-0.25
  0
LTYPE
  5
411
  2
DASHED
 70
0
  3
Dashed __ __ __ __ __
 72
65
 73
2
 40
0.75
 49
0.5
 49
-0.25
  0
LTYPE
  5
43B
  2
DOTTED
 70
0
  3
Dotted .  .  .  .
 72
65
 73
2
 40
0.2
 49
0.0
 49
-0.2
  0
ENDTAB
  0
TABLE
  2
STYLE
  70
4
  0
STYLE
  2
KICAD
  70
0
  40
0
  41
1
  42
1
  50
0
  71
0
  3
isocp.shx
  0
STYLE
  2
KICADB
  70
0
  40
0
  41
1
  42
1
  50
0
  71
0
  3
isocp.shx
  0
STYLE
  2
KICADI
  70
0
  40
0
  41
1
  42
1
  50
15
  71
0
  3
isocp.shx
  0
STYLE
  2
KICADBI
  70
0
  40
0
  41
1
  42
1
  50
15
  71
0
  3
isocp.shx
  0
ENDTAB
  0
TABLE
  2
LAYER
  70
1
  0
LAYER
  2
BLACK
  70
0
  62
7
  6
CONTINUOUS
  0
ENDTAB
  0
ENDSEC
  0
SECTION
  2
ENTITIES
0
LINE
8
BLACK
6
CONTINUOUS
10
5.89008
20
-4.99843
11
5.85661
21
-4.99843
0
LINE
8
BLACK
6
CONTINUOUS
10
5.85661
20
-4.99843
11
5.85661
21
-4.9689
0
LINE
8
BLACK
6
CONTINUOUS
10
5.85661
20
-4.9689
11
5.89008
21
-4.9689
0
LINE
8
BLACK
6
CONTINUOUS
10
5.89008
20
-4.9689
11
5.89008
21
-4.99843
0
LINE
8
BLACK
6
CONTINUOUS
10
5.94323
20
-4.99843
11
5.90976
21
-4.99843
0
LINE
8
BLACK
6
CONTINUOUS
10
5.90976
20
-4.99843
11
5.90976
21
-4.9689
0
LINE
8
BLACK
6
CONTINUOUS
10
5.90976
20
-4.9689
11
5.94323
21
-4.9689
0
LINE
8
BLACK
6
CONTINUOUS
10
5.94323
20
-4.9689
11
5.94323
21
-4.99843
0
LINE
8
BLACK
6
CONTINUOUS
10
5.94323
20
-4.95709
11
5.90976
21
-4.95709
0
LINE
8
BLACK
6
CONTINUOUS
10
5.90976
20
-4.95709
11
5.90976
21
-4.92756
0
LINE
8
BLACK
6
CONTINUOUS
10
5.90976
20
-4.92756
11
5.94323
21
-4.92756
0
LINE
8
BLACK
6
CONTINUOUS
10
5.94323
20
-4.92756
11
5.94323
21
-4.95709
0
LINE
8
BLACK
6
CONTINUOUS
10
5.89008
20
-4.95709
11
5.85661
21
-4.95709
0
LINE
8
BLACK
6
CONTINUOUS
10
5.85661
20
-4.95709
11
5.85661
21
-4.92756
0
LINE
8
BLACK
6
CONTINUOUS
10
5.85661
20
-4.92756
11
5.89008
21
-4.92756
0
LINE
8
BLACK
6
CONTINUOUS
10
5.89008
20
-4.92756
11
5.89008
21
-4.95709
0
LINE
8
BLACK
6
CONTINUOUS
10
6.01521
20
-4.91449
11
6.01825
21
-4.91652
0
LINE
8
BLACK
6
CONTINUOUS
10
6.01825
20
-4.91652
11
6.02027
21
-4.91955
0
LINE
8
BLACK
6
CONTINUOUS
10
6.02027
20
-4.91955
11
6.02098
21
-4.92313
0
LINE
8
BLACK
6
CONTINUOUS
10
6.02098
20
-4.92313
11
6.02098
21
-4.94577
0
LINE
8
BLACK
6
CONTINUOUS
10
6.02098
20
-4.94577
11
6.02027
21
-4.94935
0
LINE
8
BLACK
6
CONTINUOUS
10
6.02027
20
-4.94935
11
6.01825
21
-4.95238
0
LINE
8
BLACK
6
CONTINUOUS
10
6.01825
20
-4.95238
11
6.01521
21
-4.95441
0
LINE
8
BLACK
6
CONTINUOUS
10
6.01521
20
-4.95441
11
6.01163
21
-4.95512
0
LINE
8
BLACK
6
CONTINUOUS
10
6.01163
20
-4.95512
11
5.99293
21
-4.95512
0
LINE
8
BLACK
6
CONTINUOUS
10
5.99293
20
-4.95512
11
5.98935
21
-4.95441
0
LINE
8
BLACK
6
CONTINUOUS
10
5.98935
20
-4.95441
11
5.98632
21
-4.95238
0
LINE
8
BLACK
6
CONTINUOUS
10
5.98632
20
-4.95238
11
5.98429
21
-4.94935
0
LINE
8
BLACK
6
CONTINUOUS
10
5.98429
20
-4.94935
11
5.98358
21
-4.94577
0
LINE
8
BLACK
6
CONTINUOUS
10
5.98358
20
-4.94577
11
5.98358
21
-4.92313
0
LINE
8
BLACK
6
CONTINUOUS
10
5.98358
20
-4.92313
11
5.98429
21
-4.91955
0
LINE
8
BLACK
6
CONTINUOUS
10
5.98429
20
-4.91955
11
5.98632
21
-4.91652
0
LINE
8
BLACK
6
CONTINUOUS
10
5.98632
20
-4.91652
11
5.98935
21
-4.91449
0
LINE
8
BLACK
6
CONTINUOUS
10
5.98935
20
-4.91449
11
5.99293
21
-4.91378
0
LINE
8
BLACK
6
CONTINUOUS
10
5.99293
20
-4.91378
11
6.01163
21
-4.91378
0
LINE
8
BLACK
6
CONTINUOUS
10
6.01163
20
-4.91378
11
6.01521
21
-4.91449
0
LINE
8
BLACK
6
CONTINUOUS
10
5.81049
20
-4.91449
11
5.81352
21
-4.91652
0
LINE
8
BLACK
6
CONTINUOUS
10
5.81352
20
-4.91652
11
5.81555
21
-4.91955
0
LINE
8
BLACK
6
CONTINUOUS
10
5.81555
20
-4.91955
11
5.81626
21
-4.92313
0
LINE
8
BLACK
6
CONTINUOUS
10
5.81626
20
-4.92313
11
5.81626
21
-4.94577
0
LINE
8
BLACK
6
CONTINUOUS
10
5.81626
20
-4.94577
11
5.81555
21
-4.94935
0
LINE
8
BLACK
6
CONTINUOUS
10
5.81555
20
-4.94935
11
5.81352
21
-4.95238
0
LINE
8
BLACK
6
CONTINUOUS
10
5.81352
20
-4.95238
11
5.81049
21
-4.95441
0
LINE
8
BLACK
6
CONTINUOUS
10
5.81049
20
-4.95441
11
5.80691
21
-4.95512
0
LINE
8
BLACK
6
CONTINUOUS
10
5.80691
20
-4.95512
11
5.78821
21
-4.95512
0
LINE
8
BLACK
6
CONTINUOUS
10
5.78821
20
-4.95512
11
5.78463
21
-4.95441
0
LINE
8
BLACK
6
CONTINUOUS
10
5.78463
20
-4.95441
11
5.7816
21
-4.95238
0
LINE
8
BLACK
6
CONTINUOUS
10
5.7816
20
-4.95238
11
5.77957
21
-4.94935
0
LINE
8
BLACK
6
CONTINUOUS
10
5.77957
20
-4.94935
11
5.77886
21
-4.94577
0
LINE
8
BLACK
6
CONTINUOUS
10
5.77886
20
-4.94577
11
5.77886
21
-4.92313
0
LINE
8
BLACK
6
CONTINUOUS
10
5.77886
20
-4.92313
11
5.77957
21
-4.91955
0
LINE
8
BLACK
6
CONTINUOUS
10
5.77957
20
-4.91955
11
5.7816
21
-4.91652
0
LINE
8
BLACK
6
CONTINUOUS
10
5.7816
20
-4.91652
11
5.78463
21
-4.91449
0
LINE
8
BLACK
6
CONTINUOUS
10
5.78463
20
-4.91449
11
5.78821
21
-4.91378
0
LINE
8
BLACK
6
CONTINUOUS
10
5.78821
20
-4.91378
11
5.80691
21
-4.91378
0
LINE
8
BLACK
6
CONTINUOUS
10
5.80691
20
-4.91378
11
5.81049
21
-4.91449
0
LINE
8
BLACK
6
CONTINUOUS
10
6.01521
20
-4.84559
11
6.01825
21
-4.84762
0
LINE
8
BLACK
6
CONTINUOUS
10
6.01825
20
-4.84762
11
6.02027
21
-4.85065
0
LINE
8
BLACK
6
CONTINUOUS
10
6.02027
20
-4.85065
11
6.02098
21
-4.85423
0
LINE
8
BLACK
6
CONTINUOUS
10
6.02098
20
-4.85423
11
6.02098
21
-4.87687
0
LINE
8
BLACK
6
CONTINUOUS
10
6.02098
20
-4.87687
11
6.02027
21
-4.88045
0
LINE
8
BLACK
6
CONTINUOUS
10
6.02027
20
-4.88045
11
6.01825
21
-4.88348
0
LINE
8
BLACK
6
CONTINUOUS
10
6.01825
20
-4.88348
11
6.01521
21
-4.88551
0
LINE
8
BLACK
6
CONTINUOUS
10
6.01521
20
-4.88551
11
6.01163
21
-4.88622
0
LINE
8
BLACK
6
CONTINUOUS
10
6.01163
20
-4.88622
11
5.99293
21
-4.88622
0
LINE
8
BLACK
6
CONTINUOUS
10
5.99293
20
-4.88622
11
5.98935
21
-4.88551
0
LINE
8
BLACK
6
CONTINUOUS
10
5.98935
20
-4.88551
11
5.98632
21
-4.88348
0
LINE
8
BLACK
6
CONTINUOUS
10
5.98632
20
-4.88348
11
5.98429
21
-4.88045
0
LINE
8
BLACK
6
CONTINUOUS
10
5.98429
20
-4.88045
11
5.98358
21
-4.87687
0
LINE
8
BLACK
6
CONTINUOUS
10
5.98358
20
-4.87687
11
5.98358
21
-4.85423
0
LINE
8
BLACK
6
CONTINUOUS
10
5.98358
20
-4.85423
11
5.98429
21
-4.85065
0
LINE
8
BLACK
6
CONTINUOUS
10
5.98429
20
-4.85065
11
5.98632
21
-4.84762
0
LINE
8
BLACK
6
CONTINUOUS
10
5.98632
20
-4.84762
11
5.98935
21
-4.84559
0
LINE
8
BLACK
6
CONTINUOUS
10
5.98935
20
-4.84559
11
5.99293
21
-4.84488
0
LINE
8
BLACK
6
CONTINUOUS
10
5.99293
20
-4.84488
11
6.01163
21
-4.84488
0
LINE
8
BLACK
6
CONTINUOUS
10
6.01163
20
-4.84488
11
6.01521
21
-4.84559
0
LINE
8
BLACK
6
CONTINUOUS
10
5.81049
20
-4.84559
11
5.81352
21
-4.84762
0
LINE
8
BLACK
6
CONTINUOUS
10
5.81352
20
-4.84762
11
5.81555
21
-4.85065
0
LINE
8
BLACK
6
CONTINUOUS
10
5.81555
20
-4.85065
11
5.81626
21
-4.85423
0
LINE
8
BLACK
6
CONTINUOUS
10
5.81626
20
-4.85423
11
5.81626
21
-4.87687
0
LINE
8
BLACK
6
CONTINUOUS
10
5.81626
20
-4.87687
11
5.81555
21
-4.88045
0
LINE
8
BLACK
6
CONTINUOUS
10
5.81555
20
-4.88045
11
5.81352
21
-4.88348
0
LINE
8
BLACK
6
CONTINUOUS
10
5.81352
20
-4.88348
11
5.81049
21
-4.88551
0
LINE
8
BLACK
6
CONTINUOUS
10
5.81049
20
-4.88551
11
5.80691
21
-4.88622
0
LINE
8
BLACK
6
CONTINUOUS
10
5.80691
20
-4.88622
11
5.78821
21
-4.88622
0
LINE
8
BLACK
6
CONTINUOUS
10
5.78821
20
-4.88622
11
5.78463
21
-4.88551
0
LINE
8
BLACK
6
CONTINUOUS
10
5.78463
20
-4.88551
11
5.7816
21
-4.88348
0
LINE
8
BLACK
6
CONTINUOUS
10
5.7816
20
-4.88348
11
5.77957
21
-4.88045
0
LINE
8
BLACK
6
CONTINUOUS
10
5.77957
20
-4.88045
11
5.77886
21
-4.87687
0
LINE
8
BLACK
6
CONTINUOUS
10
5.77886
20
-4.87687
11
5.77886
21
-4.85423
0
LINE
8
BLACK
6
CONTINUOUS
10
5.77886
20
-4.85423
11
5.77957
21
-4.85065
0
LINE
8
BLACK
6
CONTINUOUS
10
5.77957
20
-4.85065
11
5.7816
21
-4.84762
0
LINE
8
BLACK
6
CONTINUOUS
10
5.7816
20
-4.84762
11
5.78463
21
-4.84559
0
LINE
8
BLACK
6
CONTINUOUS
10
5.78463
20
-4.84559
11
5.78821
21
-4.84488
0
LINE
8
BLACK
6
CONTINUOUS
10
5.78821
20
-4.84488
11
5.80691
21
-4.84488
0
LINE
8
BLACK
6
CONTINUOUS
10
5.80691
20
-4.84488
11
5.81049
21
-4.84559
0
LINE
8
BLACK
6
CONTINUOUS
10
6.15694
20
-4.84209
11
6.15998
21
-4.84412
0
LINE
8
BLACK
6
CONTINUOUS
10
6.15998
20
-4.84412
11
6.162
21
-4.84715
0
LINE
8
BLACK
6
CONTINUOUS
10
6.162
20
-4.84715
11
6.16272
21
-4.85073
0
LINE
8
BLACK
6
CONTINUOUS
10
6.16272
20
-4.85073
11
6.16272
21
-4.86943
0
LINE
8
BLACK
6
CONTINUOUS
10
6.16272
20
-4.86943
11
6.162
21
-4.87301
0
LINE
8
BLACK
6
CONTINUOUS
10
6.162
20
-4.87301
11
6.15998
21
-4.87604
0
LINE
8
BLACK
6
CONTINUOUS
10
6.15998
20
-4.87604
11
6.15694
21
-4.87807
0
LINE
8
BLACK
6
CONTINUOUS
10
6.15694
20
-4.87807
11
6.15337
21
-4.87878
0
LINE
8
BLACK
6
CONTINUOUS
10
6.15337
20
-4.87878
11
6.13073
21
-4.87878
0
LINE
8
BLACK
6
CONTINUOUS
10
6.13073
20
-4.87878
11
6.12715
21
-4.87807
0
LINE
8
BLACK
6
CONTINUOUS
10
6.12715
20
-4.87807
11
6.12412
21
-4.87604
0
LINE
8
BLACK
6
CONTINUOUS
10
6.12412
20
-4.87604
11
6.12209
21
-4.87301
0
LINE
8
BLACK
6
CONTINUOUS
10
6.12209
20
-4.87301
11
6.12138
21
-4.86943
0
LINE
8
BLACK
6
CONTINUOUS
10
6.12138
20
-4.86943
11
6.12138
21
-4.85073
0
LINE
8
BLACK
6
CONTINUOUS
10
6.12138
20
-4.85073
11
6.12209
21
-4.84715
0
LINE
8
BLACK
6
CONTINUOUS
10
6.12209
20
-4.84715
11
6.12412
21
-4.84412
0
LINE
8
BLACK
6
CONTINUOUS
10
6.12412
20
-4.84412
11
6.12715
21
-4.84209
0
LINE
8
BLACK
6
CONTINUOUS
10
6.12715
20
-4.84209
11
6.13073
21
-4.84138
0
LINE
8
BLACK
6
CONTINUOUS
10
6.13073
20
-4.84138
11
6.15337
21
-4.84138
0
LINE
8
BLACK
6
CONTINUOUS
10
6.15337
20
-4.84138
11
6.15694
21
-4.84209
0
LINE
8
BLACK
6
CONTINUOUS
10
6.08805
20
-4.84209
11
6.09108
21
-4.84412
0
LINE
8
BLACK
6
CONTINUOUS
10
6.09108
20
-4.84412
11
6.09311
21
-4.84715
0
LINE
8
BLACK
6
CONTINUOUS
10
6.09311
20
-4.84715
11
6.09382
21
-4.85073
0
LINE
8
BLACK
6
CONTINUOUS
10
6.09382
20
-4.85073
11
6.09382
21
-4.86943
0
LINE
8
BLACK
6
CONTINUOUS
10
6.09382
20
-4.86943
11
6.09311
21
-4.87301
0
LINE
8
BLACK
6
CONTINUOUS
10
6.09311
20
-4.87301
11
6.09108
21
-4.87604
0
LINE
8
BLACK
6
CONTINUOUS
10
6.09108
20
-4.87604
11
6.08805
21
-4.87807
0
LINE
8
BLACK
6
CONTINUOUS
10
6.08805
20
-4.87807
11
6.08447
21
-4.87878
0
LINE
8
BLACK
6
CONTINUOUS
10
6.08447
20
-4.87878
11
6.06183
21
-4.87878
0
LINE
8
BLACK
6
CONTINUOUS
10
6.06183
20
-4.87878
11
6.05825
21
-4.87807
0
LINE
8
BLACK
6
CONTINUOUS
10
6.05825
20
-4.87807
11
6.05522
21
-4.87604
0
LINE
8
BLACK
6
CONTINUOUS
10
6.05522
20
-4.87604
11
6.05319
21
-4.87301
0
LINE
8
BLACK
6
CONTINUOUS
10
6.05319
20
-4.87301
11
6.05248
21
-4.86943
0
LINE
8
BLACK
6
CONTINUOUS
10
6.05248
20
-4.86943
11
6.05248
21
-4.85073
0
LINE
8
BLACK
6
CONTINUOUS
10
6.05248
20
-4.85073
11
6.05319
21
-4.84715
0
LINE
8
BLACK
6
CONTINUOUS
10
6.05319
20
-4.84715
11
6.05522
21
-4.84412
0
LINE
8
BLACK
6
CONTINUOUS
10
6.05522
20
-4.84412
11
6.05825
21
-4.84209
0
LINE
8
BLACK
6
CONTINUOUS
10
6.05825
20
-4.84209
11
6.06183
21
-4.84138
0
LINE
8
BLACK
6
CONTINUOUS
10
6.06183
20
-4.84138
11
6.08447
21
-4.84138
0
LINE
8
BLACK
6
CONTINUOUS
10
6.08447
20
-4.84138
11
6.08805
21
-4.84209
0
LINE
8
BLACK
6
CONTINUOUS
10
6.42072
20
-4.82394
11
6.42376
21
-4.82597
0
LINE
8
BLACK
6
CONTINUOUS
10
6.42376
20
-4.82597
11
6.42578
21
-4.829
0
LINE
8
BLACK
6
CONTINUOUS
10
6.42578
20
-4.829
11
6.4265
21
-4.83258
0
LINE
8
BLACK
6
CONTINUOUS
10
6.4265
20
-4.83258
11
6.4265
21
-4.85522
0
LINE
8
BLACK
6
CONTINUOUS
10
6.4265
20
-4.85522
11
6.42578
21
-4.85879
0
LINE
8
BLACK
6
CONTINUOUS
10
6.42578
20
-4.85879
11
6.42376
21
-4.86183
0
LINE
8
BLACK
6
CONTINUOUS
10
6.42376
20
-4.86183
11
6.42072
21
-4.86386
0
LINE
8
BLACK
6
CONTINUOUS
10
6.42072
20
-4.86386
11
6.41715
21
-4.86457
0
LINE
8
BLACK
6
CONTINUOUS
10
6.41715
20
-4.86457
11
6.39844
21
-4.86457
0
LINE
8
BLACK
6
CONTINUOUS
10
6.39844
20
-4.86457
11
6.39487
21
-4.86386
0
LINE
8
BLACK
6
CONTINUOUS
10
6.39487
20
-4.86386
11
6.39183
21
-4.86183
0
LINE
8
BLACK
6
CONTINUOUS
10
6.39183
20
-4.86183
11
6.38981
21
-4.85879
0
LINE
8
BLACK
6
CONTINUOUS
10
6.38981
20
-4.85879
11
6.38909
21
-4.85522
0
LINE
8
BLACK
6
CONTINUOUS
10
6.38909
20
-4.85522
11
6.38909
21
-4.83258
0
LINE
8
BLACK
6
CONTINUOUS
10
6.38909
20
-4.83258
11
6.38981
21
-4.829
0
LINE
8
BLACK
6
CONTINUOUS
10
6.38981
20
-4.829
11
6.39183
21
-4.82597
0
LINE
8
BLACK
6
CONTINUOUS
10
6.39183
20
-4.82597
11
6.39487
21
-4.82394
0
LINE
8
BLACK
6
CONTINUOUS
10
6.39487
20
-4.82394
11
6.39844
21
-4.82323
0
LINE
8
BLACK
6
CONTINUOUS
10
6.39844
20
-4.82323
11
6.41715
21
-4.82323
0
LINE
8
BLACK
6
CONTINUOUS
10
6.41715
20
-4.82323
11
6.42072
21
-4.82394
0
LINE
8
BLACK
6
CONTINUOUS
10
6.08805
20
-4.77516
11
6.09108
21
-4.77719
0
LINE
8
BLACK
6
CONTINUOUS
10
6.09108
20
-4.77719
11
6.09311
21
-4.78022
0
LINE
8
BLACK
6
CONTINUOUS
10
6.09311
20
-4.78022
11
6.09382
21
-4.7838
0
LINE
8
BLACK
6
CONTINUOUS
10
6.09382
20
-4.7838
11
6.09382
21
-4.8025
0
LINE
8
BLACK
6
CONTINUOUS
10
6.09382
20
-4.8025
11
6.09311
21
-4.80608
0
LINE
8
BLACK
6
CONTINUOUS
10
6.09311
20
-4.80608
11
6.09108
21
-4.80911
0
LINE
8
BLACK
6
CONTINUOUS
10
6.09108
20
-4.80911
11
6.08805
21
-4.81114
0
LINE
8
BLACK
6
CONTINUOUS
10
6.08805
20
-4.81114
11
6.08447
21
-4.81185
0
LINE
8
BLACK
6
CONTINUOUS
10
6.08447
20
-4.81185
11
6.06183
21
-4.81185
0
LINE
8
BLACK
6
CONTINUOUS
10
6.06183
20
-4.81185
11
6.05825
21
-4.81114
0
LINE
8
BLACK
6
CONTINUOUS
10
6.05825
20
-4.81114
11
6.05522
21
-4.80911
0
LINE
8
BLACK
6
CONTINUOUS
10
6.05522
20
-4.80911
11
6.05319
21
-4.80608
0
LINE
8
BLACK
6
CONTINUOUS
10
6.05319
20
-4.80608
11
6.05248
21
-4.8025
0
LINE
8
BLACK
6
CONTINUOUS
10
6.05248
20
-4.8025
11
6.05248
21
-4.7838
0
LINE
8
BLACK
6
CONTINUOUS
10
6.05248
20
-4.7838
11
6.05319
21
-4.78022
0
LINE
8
BLACK
6
CONTINUOUS
10
6.05319
20
-4.78022
11
6.05522
21
-4.77719
0
LINE
8
BLACK
6
CONTINUOUS
10
6.05522
20
-4.77719
11
6.05825
21
-4.77516
0
LINE
8
BLACK
6
CONTINUOUS
10
6.05825
20
-4.77516
11
6.06183
21
-4.77445
0
LINE
8
BLACK
6
CONTINUOUS
10
6.06183
20
-4.77445
11
6.08447
21
-4.77445
0
LINE
8
BLACK
6
CONTINUOUS
10
6.08447
20
-4.77445
11
6.08805
21
-4.77516
0
LINE
8
BLACK
6
CONTINUOUS
10
6.15694
20
-4.77516
11
6.15998
21
-4.77719
0
LINE
8
BLACK
6
CONTINUOUS
10
6.15998
20
-4.77719
11
6.162
21
-4.78022
0
LINE
8
BLACK
6
CONTINUOUS
10
6.162
20
-4.78022
11
6.16272
21
-4.7838
0
LINE
8
BLACK
6
CONTINUOUS
10
6.16272
20
-4.7838
11
6.16272
21
-4.8025
0
LINE
8
BLACK
6
CONTINUOUS
10
6.16272
20
-4.8025
11
6.162
21
-4.80608
0
LINE
8
BLACK
6
CONTINUOUS
10
6.162
20
-4.80608
11
6.15998
21
-4.80911
0
LINE
8
BLACK
6
CONTINUOUS
10
6.15998
20
-4.80911
11
6.15694
21
-4.81114
0
LINE
8
BLACK
6
CONTINUOUS
10
6.15694
20
-4.81114
11
6.15337
21
-4.81185
0
LINE
8
BLACK
6
CONTINUOUS
10
6.15337
20
-4.81185
11
6.13073
21
-4.81185
0
LINE
8
BLACK
6
CONTINUOUS
10
6.13073
20
-4.81185
11
6.12715
21
-4.81114
0
LINE
8
BLACK
6
CONTINUOUS
10
6.12715
20
-4.81114
11
6.12412
21
-4.80911
0
LINE
8
BLACK
6
CONTINUOUS
10
6.12412
20
-4.80911
11
6.12209
21
-4.80608
0
LINE
8
BLACK
6
CONTINUOUS
10
6.12209
20
-4.80608
11
6.12138
21
-4.8025
0
LINE
8
BLACK
6
CONTINUOUS
10
6.12138
20
-4.8025
11
6.12138
21
-4.7838
0
LINE
8
BLACK
6
CONTINUOUS
10
6.12138
20
-4.7838
11
6.12209
21
-4.78022
0
LINE
8
BLACK
6
CONTINUOUS
10
6.12209
20
-4.78022
11
6.12412
21
-4.77719
0
LINE
8
BLACK
6
CONTINUOUS
10
6.12412
20
-4.77719
11
6.12715
21
-4.77516
0
LINE
8
BLACK
6
CONTINUOUS
10
6.12715
20
-4.77516
11
6.13073
21
-4.77445
0
LINE
8
BLACK
6
CONTINUOUS
10
6.13073
20
-4.77445
11
6.15337
21
-4.77445
0
LINE
8
BLACK
6
CONTINUOUS
10
6.15337
20
-4.77445
11
6.15694
21
-4.77516
0
LINE
8
BLACK
6
CONTINUOUS
10
6.22387
20
-4.75646
11
6.22691
21
-4.75849
0
LINE
8
BLACK
6
CONTINUOUS
10
6.22691
20
-4.75849
11
6.22893
21
-4.76152
0
LINE
8
BLACK
6
CONTINUOUS
10
6.22893
20
-4.76152
11
6.22965
21
-4.7651
0
LINE
8
BLACK
6
CONTINUOUS
10
6.22965
20
-4.7651
11
6.22965
21
-4.78774
0
LINE
8
BLACK
6
CONTINUOUS
10
6.22965
20
-4.78774
11
6.22893
21
-4.79131
0
LINE
8
BLACK
6
CONTINUOUS
10
6.22893
20
-4.79131
11
6.22691
21
-4.79435
0
LINE
8
BLACK
6
CONTINUOUS
10
6.22691
20
-4.79435
11
6.22387
21
-4.79637
0
LINE
8
BLACK
6
CONTINUOUS
10
6.22387
20
-4.79637
11
6.2203
21
-4.79709
0
LINE
8
BLACK
6
CONTINUOUS
10
6.2203
20
-4.79709
11
6.20159
21
-4.79709
0
LINE
8
BLACK
6
CONTINUOUS
10
6.20159
20
-4.79709
11
6.19802
21
-4.79637
0
LINE
8
BLACK
6
CONTINUOUS
10
6.19802
20
-4.79637
11
6.19498
21
-4.79435
0
LINE
8
BLACK
6
CONTINUOUS
10
6.19498
20
-4.79435
11
6.19296
21
-4.79131
0
LINE
8
BLACK
6
CONTINUOUS
10
6.19296
20
-4.79131
11
6.19224
21
-4.78774
0
LINE
8
BLACK
6
CONTINUOUS
10
6.19224
20
-4.78774
11
6.19224
21
-4.7651
0
LINE
8
BLACK
6
CONTINUOUS
10
6.19224
20
-4.7651
11
6.19296
21
-4.76152
0
LINE
8
BLACK
6
CONTINUOUS
10
6.19296
20
-4.76152
11
6.19498
21
-4.75849
0
LINE
8
BLACK
6
CONTINUOUS
10
6.19498
20
-4.75849
11
6.19802
21
-4.75646
0
LINE
8
BLACK
6
CONTINUOUS
10
6.19802
20
-4.75646
11
6.20159
21
-4.75575
0
LINE
8
BLACK
6
CONTINUOUS
10
6.20159
20
-4.75575
11
6.2203
21
-4.75575
0
LINE
8
BLACK
6
CONTINUOUS
10
6.2203
20
-4.75575
11
6.22387
21
-4.75646
0
LINE
8
BLACK
6
CONTINUOUS
10
6.42072
20
-4.75504
11
6.42376
21
-4.75707
0
LINE
8
BLACK
6
CONTINUOUS
10
6.42376
20
-4.75707
11
6.42578
21
-4.7601
0
LINE
8
BLACK
6
CONTINUOUS
10
6.42578
20
-4.7601
11
6.4265
21
-4.76368
0
LINE
8
BLACK
6
CONTINUOUS
10
6.4265
20
-4.76368
11
6.4265
21
-4.78632
0
LINE
8
BLACK
6
CONTINUOUS
10
6.4265
20
-4.78632
11
6.42578
21
-4.7899
0
LINE
8
BLACK
6
CONTINUOUS
10
6.42578
20
-4.7899
11
6.42376
21
-4.79293
0
LINE
8
BLACK
6
CONTINUOUS
10
6.42376
20
-4.79293
11
6.42072
21
-4.79496
0
LINE
8
BLACK
6
CONTINUOUS
10
6.42072
20
-4.79496
11
6.41715
21
-4.79567
0
LINE
8
BLACK
6
CONTINUOUS
10
6.41715
20
-4.79567
11
6.39844
21
-4.79567
0
LINE
8
BLACK
6
CONTINUOUS
10
6.39844
20
-4.79567
11
6.39487
21
-4.79496
0
LINE
8
BLACK
6
CONTINUOUS
10
6.39487
20
-4.79496
11
6.39183
21
-4.79293
0
LINE
8
BLACK
6
CONTINUOUS
10
6.39183
20
-4.79293
11
6.38981
21
-4.7899
0
LINE
8
BLACK
6
CONTINUOUS
10
6.38981
20
-4.7899
11
6.38909
21
-4.78632
0
LINE
8
BLACK
6
CONTINUOUS
10
6.38909
20
-4.78632
11
6.38909
21
-4.76368
0
LINE
8
BLACK
6
CONTINUOUS
10
6.38909
20
-4.76368
11
6.38981
21
-4.7601
0
LINE
8
BLACK
6
CONTINUOUS
10
6.38981
20
-4.7601
11
6.39183
21
-4.75707
0
LINE
8
BLACK
6
CONTINUOUS
10
6.39183
20
-4.75707
11
6.39487
21
-4.75504
0
LINE
8
BLACK
6
CONTINUOUS
10
6.39487
20
-4.75504
11
6.39844
21
-4.75433
0
LINE
8
BLACK
6
CONTINUOUS
10
6.39844
20
-4.75433
11
6.41715
21
-4.75433
0
LINE
8
BLACK
6
CONTINUOUS
10
6.41715
20
-4.75433
11
6.42072
21
-4.75504
0
LINE
8
BLACK
6
CONTINUOUS
10
6.33649
20
-4.76131
11
6.33838
21
-4.76257
0
LINE
8
BLACK
6
CONTINUOUS
10
6.33838
20
-4.76257
11
6.33964
21
-4.76445
0
LINE
8
BLACK
6
CONTINUOUS
10
6.33964
20
-4.76445
11
6.34008
21
-4.76667
0
LINE
8
BLACK
6
CONTINUOUS
10
6.34008
20
-4.76667
11
6.34008
21
-4.78026
0
LINE
8
BLACK
6
CONTINUOUS
10
6.34008
20
-4.78026
11
6.33964
21
-4.78248
0
LINE
8
BLACK
6
CONTINUOUS
10
6.33964
20
-4.78248
11
6.33838
21
-4.78436
0
LINE
8
BLACK
6
CONTINUOUS
10
6.33838
20
-4.78436
11
6.33649
21
-4.78562
0
LINE
8
BLACK
6
CONTINUOUS
10
6.33649
20
-4.78562
11
6.33427
21
-4.78606
0
LINE
8
BLACK
6
CONTINUOUS
10
6.33427
20
-4.78606
11
6.32266
21
-4.78606
0
LINE
8
BLACK
6
CONTINUOUS
10
6.32266
20
-4.78606
11
6.32044
21
-4.78562
0
LINE
8
BLACK
6
CONTINUOUS
10
6.32044
20
-4.78562
11
6.31855
21
-4.78436
0
LINE
8
BLACK
6
CONTINUOUS
10
6.31855
20
-4.78436
11
6.31729
21
-4.78248
0
LINE
8
BLACK
6
CONTINUOUS
10
6.31729
20
-4.78248
11
6.31685
21
-4.78026
0
LINE
8
BLACK
6
CONTINUOUS
10
6.31685
20
-4.78026
11
6.31685
21
-4.76667
0
LINE
8
BLACK
6
CONTINUOUS
10
6.31685
20
-4.76667
11
6.31729
21
-4.76445
0
LINE
8
BLACK
6
CONTINUOUS
10
6.31729
20
-4.76445
11
6.31855
21
-4.76257
0
LINE
8
BLACK
6
CONTINUOUS
10
6.31855
20
-4.76257
11
6.32044
21
-4.76131
0
LINE
8
BLACK
6
CONTINUOUS
10
6.32044
20
-4.76131
11
6.32266
21
-4.76087
0
LINE
8
BLACK
6
CONTINUOUS
10
6.32266
20
-4.76087
11
6.33427
21
-4.76087
0
LINE
8
BLACK
6
CONTINUOUS
10
6.33427
20
-4.76087
11
6.33649
21
-4.76131
0
LINE
8
BLACK
6
CONTINUOUS
10
6.2983
20
-4.76131
11
6.30019
21
-4.76257
0
LINE
8
BLACK
6
CONTINUOUS
10
6.30019
20
-4.76257
11
6.30145
21
-4.76445
0
LINE
8
BLACK
6
CONTINUOUS
10
6.30145
20
-4.76445
11
6.30189
21
-4.76667
0
LINE
8
BLACK
6
CONTINUOUS
10
6.30189
20
-4.76667
11
6.30189
21
-4.78026
0
LINE
8
BLACK
6
CONTINUOUS
10
6.30189
20
-4.78026
11
6.30145
21
-4.78248
0
LINE
8
BLACK
6
CONTINUOUS
10
6.30145
20
-4.78248
11
6.30019
21
-4.78436
0
LINE
8
BLACK
6
CONTINUOUS
10
6.30019
20
-4.78436
11
6.2983
21
-4.78562
0
LINE
8
BLACK
6
CONTINUOUS
10
6.2983
20
-4.78562
11
6.29608
21
-4.78606
0
LINE
8
BLACK
6
CONTINUOUS
10
6.29608
20
-4.78606
11
6.28447
21
-4.78606
0
LINE
8
BLACK
6
CONTINUOUS
10
6.28447
20
-4.78606
11
6.28225
21
-4.78562
0
LINE
8
BLACK
6
CONTINUOUS
10
6.28225
20
-4.78562
11
6.28036
21
-4.78436
0
LINE
8
BLACK
6
CONTINUOUS
10
6.28036
20
-4.78436
11
6.2791
21
-4.78248
0
LINE
8
BLACK
6
CONTINUOUS
10
6.2791
20
-4.78248
11
6.27866
21
-4.78026
0
LINE
8
BLACK
6
CONTINUOUS
10
6.27866
20
-4.78026
11
6.27866
21
-4.76667
0
LINE
8
BLACK
6
CONTINUOUS
10
6.27866
20
-4.76667
11
6.2791
21
-4.76445
0
LINE
8
BLACK
6
CONTINUOUS
10
6.2791
20
-4.76445
11
6.28036
21
-4.76257
0
LINE
8
BLACK
6
CONTINUOUS
10
6.28036
20
-4.76257
11
6.28225
21
-4.76131
0
LINE
8
BLACK
6
CONTINUOUS
10
6.28225
20
-4.76131
11
6.28447
21
-4.76087
0
LINE
8
BLACK
6
CONTINUOUS
10
6.28447
20
-4.76087
11
6.29608
21
-4.76087
0
LINE
8
BLACK
6
CONTINUOUS
10
6.29608
20
-4.76087
11
6.2983
21
-4.76131
0
LINE
8
BLACK
6
CONTINUOUS
10
6.63293
20
-4.73449
11
6.63596
21
-4.73652
0
LINE
8
BLACK
6
CONTINUOUS
10
6.63596
20
-4.73652
11
6.63799
21
-4.73955
0
LINE
8
BLACK
6
CONTINUOUS
10
6.63799
20
-4.73955
11
6.6387
21
-4.74313
0
LINE
8
BLACK
6
CONTINUOUS
10
6.6387
20
-4.74313
11
6.6387
21
-4.76577
0
LINE
8
BLACK
6
CONTINUOUS
10
6.6387
20
-4.76577
11
6.63799
21
-4.76935
0
LINE
8
BLACK
6
CONTINUOUS
10
6.63799
20
-4.76935
11
6.63596
21
-4.77238
0
LINE
8
BLACK
6
CONTINUOUS
10
6.63596
20
-4.77238
11
6.63293
21
-4.77441
0
LINE
8
BLACK
6
CONTINUOUS
10
6.63293
20
-4.77441
11
6.62935
21
-4.77512
0
LINE
8
BLACK
6
CONTINUOUS
10
6.62935
20
-4.77512
11
6.61065
21
-4.77512
0
LINE
8
BLACK
6
CONTINUOUS
10
6.61065
20
-4.77512
11
6.60707
21
-4.77441
0
LINE
8
BLACK
6
CONTINUOUS
10
6.60707
20
-4.77441
11
6.60404
21
-4.77238
0
LINE
8
BLACK
6
CONTINUOUS
10
6.60404
20
-4.77238
11
6.60201
21
-4.76935
0
LINE
8
BLACK
6
CONTINUOUS
10
6.60201
20
-4.76935
11
6.6013
21
-4.76577
0
LINE
8
BLACK
6
CONTINUOUS
10
6.6013
20
-4.76577
11
6.6013
21
-4.74313
0
LINE
8
BLACK
6
CONTINUOUS
10
6.6013
20
-4.74313
11
6.60201
21
-4.73955
0
LINE
8
BLACK
6
CONTINUOUS
10
6.60201
20
-4.73955
11
6.60404
21
-4.73652
0
LINE
8
BLACK
6
CONTINUOUS
10
6.60404
20
-4.73652
11
6.60707
21
-4.73449
0
LINE
8
BLACK
6
CONTINUOUS
10
6.60707
20
-4.73449
11
6.61065
21
-4.73378
0
LINE
8
BLACK
6
CONTINUOUS
10
6.61065
20
-4.73378
11
6.62935
21
-4.73378
0
LINE
8
BLACK
6
CONTINUOUS
10
6.62935
20
-4.73378
11
6.63293
21
-4.73449
0
LINE
8
BLACK
6
CONTINUOUS
10
5.72387
20
-4.7289
11
5.72691
21
-4.73093
0
LINE
8
BLACK
6
CONTINUOUS
10
5.72691
20
-4.73093
11
5.72893
21
-4.73396
0
LINE
8
BLACK
6
CONTINUOUS
10
5.72893
20
-4.73396
11
5.72965
21
-4.73754
0
LINE
8
BLACK
6
CONTINUOUS
10
5.72965
20
-4.73754
11
5.72965
21
-4.76018
0
LINE
8
BLACK
6
CONTINUOUS
10
5.72965
20
-4.76018
11
5.72893
21
-4.76376
0
LINE
8
BLACK
6
CONTINUOUS
10
5.72893
20
-4.76376
11
5.72691
21
-4.76679
0
LINE
8
BLACK
6
CONTINUOUS
10
5.72691
20
-4.76679
11
5.72387
21
-4.76882
0
LINE
8
BLACK
6
CONTINUOUS
10
5.72387
20
-4.76882
11
5.7203
21
-4.76953
0
LINE
8
BLACK
6
CONTINUOUS
10
5.7203
20
-4.76953
11
5.70159
21
-4.76953
0
LINE
8
BLACK
6
CONTINUOUS
10
5.70159
20
-4.76953
11
5.69802
21
-4.76882
0
LINE
8
BLACK
6
CONTINUOUS
10
5.69802
20
-4.76882
11
5.69498
21
-4.76679
0
LINE
8
BLACK
6
CONTINUOUS
10
5.69498
20
-4.76679
11
5.69296
21
-4.76376
0
LINE
8
BLACK
6
CONTINUOUS
10
5.69296
20
-4.76376
11
5.69224
21
-4.76018
0
LINE
8
BLACK
6
CONTINUOUS
10
5.69224
20
-4.76018
11
5.69224
21
-4.73754
0
LINE
8
BLACK
6
CONTINUOUS
10
5.69224
20
-4.73754
11
5.69296
21
-4.73396
0
LINE
8
BLACK
6
CONTINUOUS
10
5.69296
20
-4.73396
11
5.69498
21
-4.73093
0
LINE
8
BLACK
6
CONTINUOUS
10
5.69498
20
-4.73093
11
5.69802
21
-4.7289
0
LINE
8
BLACK
6
CONTINUOUS
10
5.69802
20
-4.7289
11
5.70159
21
-4.72819
0
LINE
8
BLACK
6
CONTINUOUS
10
5.70159
20
-4.72819
11
5.7203
21
-4.72819
0
LINE
8
BLACK
6
CONTINUOUS
10
5.7203
20
-4.72819
11
5.72387
21
-4.7289
0
LINE
8
BLACK
6
CONTINUOUS
10
5.66364
20
-4.755
11
5.60864
21
-4.755
0
LINE
8
BLACK
6
CONTINUOUS
10
5.60864
20
-4.755
11
5.60864
21
-4.72
0
LINE
8
BLACK
6
CONTINUOUS
10
5.60864
20
-4.72
11
5.66364
21
-4.72
0
LINE
8
BLACK
6
CONTINUOUS
10
5.66364
20
-4.72
11
5.66364
21
-4.755
0
LINE
8
BLACK
6
CONTINUOUS
10
6.1609
20
-4.72627
11
6.16279
21
-4.72753
0
LINE
8
BLACK
6
CONTINUOUS
10
6.16279
20
-4.72753
11
6.16405
21
-4.72941
0
LINE
8
BLACK
6
CONTINUOUS
10
6.16405
20
-4.72941
11
6.16449
21
-4.73163
0
LINE
8
BLACK
6
CONTINUOUS
10
6.16449
20
-4.73163
11
6.16449
21
-4.74325
0
LINE
8
BLACK
6
CONTINUOUS
10
6.16449
20
-4.74325
11
6.16405
21
-4.74547
0
LINE
8
BLACK
6
CONTINUOUS
10
6.16405
20
-4.74547
11
6.16279
21
-4.74735
0
LINE
8
BLACK
6
CONTINUOUS
10
6.16279
20
-4.74735
11
6.1609
21
-4.74861
0
LINE
8
BLACK
6
CONTINUOUS
10
6.1609
20
-4.74861
11
6.15868
21
-4.74906
0
LINE
8
BLACK
6
CONTINUOUS
10
6.15868
20
-4.74906
11
6.1451
21
-4.74906
0
LINE
8
BLACK
6
CONTINUOUS
10
6.1451
20
-4.74906
11
6.14288
21
-4.74861
0
LINE
8
BLACK
6
CONTINUOUS
10
6.14288
20
-4.74861
11
6.14099
21
-4.74735
0
LINE
8
BLACK
6
CONTINUOUS
10
6.14099
20
-4.74735
11
6.13973
21
-4.74547
0
LINE
8
BLACK
6
CONTINUOUS
10
6.13973
20
-4.74547
11
6.13929
21
-4.74325
0
LINE
8
BLACK
6
CONTINUOUS
10
6.13929
20
-4.74325
11
6.13929
21
-4.73163
0
LINE
8
BLACK
6
CONTINUOUS
10
6.13929
20
-4.73163
11
6.13973
21
-4.72941
0
LINE
8
BLACK
6
CONTINUOUS
10
6.13973
20
-4.72941
11
6.14099
21
-4.72753
0
LINE
8
BLACK
6
CONTINUOUS
10
6.14099
20
-4.72753
11
6.14288
21
-4.72627
0
LINE
8
BLACK
6
CONTINUOUS
10
6.14288
20
-4.72627
11
6.1451
21
-4.72583
0
LINE
8
BLACK
6
CONTINUOUS
10
6.1451
20
-4.72583
11
6.15868
21
-4.72583
0
LINE
8
BLACK
6
CONTINUOUS
10
6.15868
20
-4.72583
11
6.1609
21
-4.72627
0
LINE
8
BLACK
6
CONTINUOUS
10
6.55301
20
-4.70792
11
6.5549
21
-4.70918
0
LINE
8
BLACK
6
CONTINUOUS
10
6.5549
20
-4.70918
11
6.55616
21
-4.71107
0
LINE
8
BLACK
6
CONTINUOUS
10
6.55616
20
-4.71107
11
6.5566
21
-4.71329
0
LINE
8
BLACK
6
CONTINUOUS
10
6.5566
20
-4.71329
11
6.5566
21
-4.7249
0
LINE
8
BLACK
6
CONTINUOUS
10
6.5566
20
-4.7249
11
6.55616
21
-4.72712
0
LINE
8
BLACK
6
CONTINUOUS
10
6.55616
20
-4.72712
11
6.5549
21
-4.72901
0
LINE
8
BLACK
6
CONTINUOUS
10
6.5549
20
-4.72901
11
6.55301
21
-4.73027
0
LINE
8
BLACK
6
CONTINUOUS
10
6.55301
20
-4.73027
11
6.55079
21
-4.73071
0
LINE
8
BLACK
6
CONTINUOUS
10
6.55079
20
-4.73071
11
6.53721
21
-4.73071
0
LINE
8
BLACK
6
CONTINUOUS
10
6.53721
20
-4.73071
11
6.53499
21
-4.73027
0
LINE
8
BLACK
6
CONTINUOUS
10
6.53499
20
-4.73027
11
6.5331
21
-4.72901
0
LINE
8
BLACK
6
CONTINUOUS
10
6.5331
20
-4.72901
11
6.53184
21
-4.72712
0
LINE
8
BLACK
6
CONTINUOUS
10
6.53184
20
-4.72712
11
6.5314
21
-4.7249
0
LINE
8
BLACK
6
CONTINUOUS
10
6.5314
20
-4.7249
11
6.5314
21
-4.71329
0
LINE
8
BLACK
6
CONTINUOUS
10
6.5314
20
-4.71329
11
6.53184
21
-4.71107
0
LINE
8
BLACK
6
CONTINUOUS
10
6.53184
20
-4.71107
11
6.5331
21
-4.70918
0
LINE
8
BLACK
6
CONTINUOUS
10
6.5331
20
-4.70918
11
6.53499
21
-4.70792
0
LINE
8
BLACK
6
CONTINUOUS
10
6.53499
20
-4.70792
11
6.53721
21
-4.70748
0
LINE
8
BLACK
6
CONTINUOUS
10
6.53721
20
-4.70748
11
6.55079
21
-4.70748
0
LINE
8
BLACK
6
CONTINUOUS
10
6.55079
20
-4.70748
11
6.55301
21
-4.70792
0
LINE
8
BLACK
6
CONTINUOUS
10
6.22387
20
-4.68756
11
6.22691
21
-4.68959
0
LINE
8
BLACK
6
CONTINUOUS
10
6.22691
20
-4.68959
11
6.22893
21
-4.69262
0
LINE
8
BLACK
6
CONTINUOUS
10
6.22893
20
-4.69262
11
6.22965
21
-4.6962
0
LINE
8
BLACK
6
CONTINUOUS
10
6.22965
20
-4.6962
11
6.22965
21
-4.71884
0
LINE
8
BLACK
6
CONTINUOUS
10
6.22965
20
-4.71884
11
6.22893
21
-4.72242
0
LINE
8
BLACK
6
CONTINUOUS
10
6.22893
20
-4.72242
11
6.22691
21
-4.72545
0
LINE
8
BLACK
6
CONTINUOUS
10
6.22691
20
-4.72545
11
6.22387
21
-4.72748
0
LINE
8
BLACK
6
CONTINUOUS
10
6.22387
20
-4.72748
11
6.2203
21
-4.72819
0
LINE
8
BLACK
6
CONTINUOUS
10
6.2203
20
-4.72819
11
6.20159
21
-4.72819
0
LINE
8
BLACK
6
CONTINUOUS
10
6.20159
20
-4.72819
11
6.19802
21
-4.72748
0
LINE
8
BLACK
6
CONTINUOUS
10
6.19802
20
-4.72748
11
6.19498
21
-4.72545
0
LINE
8
BLACK
6
CONTINUOUS
10
6.19498
20
-4.72545
11
6.19296
21
-4.72242
0
LINE
8
BLACK
6
CONTINUOUS
10
6.19296
20
-4.72242
11
6.19224
21
-4.71884
0
LINE
8
BLACK
6
CONTINUOUS
10
6.19224
20
-4.71884
11
6.19224
21
-4.6962
0
LINE
8
BLACK
6
CONTINUOUS
10
6.19224
20
-4.6962
11
6.19296
21
-4.69262
0
LINE
8
BLACK
6
CONTINUOUS
10
6.19296
20
-4.69262
11
6.19498
21
-4.68959
0
LINE
8
BLACK
6
CONTINUOUS
10
6.19498
20
-4.68959
11
6.19802
21
-4.68756
0
LINE
8
BLACK
6
CONTINUOUS
10
6.19802
20
-4.68756
11
6.20159
21
-4.68685
0
LINE
8
BLACK
6
CONTINUOUS
10
6.20159
20
-4.68685
11
6.2203
21
-4.68685
0
LINE
8
BLACK
6
CONTINUOUS
10
6.2203
20
-4.68685
11
6.22387
21
-4.68756
0
LINE
8
BLACK
6
CONTINUOUS
10
6.35872
20
-4.68855
11
6.36175
21
-4.69057
0
LINE
8
BLACK
6
CONTINUOUS
10
6.36175
20
-4.69057
11
6.36378
21
-4.69361
0
LINE
8
BLACK
6
CONTINUOUS
10
6.36378
20
-4.69361
11
6.36449
21
-4.69719
0
LINE
8
BLACK
6
CONTINUOUS
10
6.36449
20
-4.69719
11
6.36449
21
-4.71589
0
LINE
8
BLACK
6
CONTINUOUS
10
6.36449
20
-4.71589
11
6.36378
21
-4.71946
0
LINE
8
BLACK
6
CONTINUOUS
10
6.36378
20
-4.71946
11
6.36175
21
-4.7225
0
LINE
8
BLACK
6
CONTINUOUS
10
6.36175
20
-4.7225
11
6.35872
21
-4.72452
0
LINE
8
BLACK
6
CONTINUOUS
10
6.35872
20
-4.72452
11
6.35514
21
-4.72524
0
LINE
8
BLACK
6
CONTINUOUS
10
6.35514
20
-4.72524
11
6.3325
21
-4.72524
0
LINE
8
BLACK
6
CONTINUOUS
10
6.3325
20
-4.72524
11
6.32892
21
-4.72452
0
LINE
8
BLACK
6
CONTINUOUS
10
6.32892
20
-4.72452
11
6.32589
21
-4.7225
0
LINE
8
BLACK
6
CONTINUOUS
10
6.32589
20
-4.7225
11
6.32386
21
-4.71946
0
LINE
8
BLACK
6
CONTINUOUS
10
6.32386
20
-4.71946
11
6.32315
21
-4.71589
0
LINE
8
BLACK
6
CONTINUOUS
10
6.32315
20
-4.71589
11
6.32315
21
-4.69719
0
LINE
8
BLACK
6
CONTINUOUS
10
6.32315
20
-4.69719
11
6.32386
21
-4.69361
0
LINE
8
BLACK
6
CONTINUOUS
10
6.32386
20
-4.69361
11
6.32589
21
-4.69057
0
LINE
8
BLACK
6
CONTINUOUS
10
6.32589
20
-4.69057
11
6.32892
21
-4.68855
0
LINE
8
BLACK
6
CONTINUOUS
10
6.32892
20
-4.68855
11
6.3325
21
-4.68783
0
LINE
8
BLACK
6
CONTINUOUS
10
6.3325
20
-4.68783
11
6.35514
21
-4.68783
0
LINE
8
BLACK
6
CONTINUOUS
10
6.35514
20
-4.68783
11
6.35872
21
-4.68855
0
LINE
8
BLACK
6
CONTINUOUS
10
6.28982
20
-4.68855
11
6.29285
21
-4.69057
0
LINE
8
BLACK
6
CONTINUOUS
10
6.29285
20
-4.69057
11
6.29488
21
-4.69361
0
LINE
8
BLACK
6
CONTINUOUS
10
6.29488
20
-4.69361
11
6.29559
21
-4.69719
0
LINE
8
BLACK
6
CONTINUOUS
10
6.29559
20
-4.69719
11
6.29559
21
-4.71589
0
LINE
8
BLACK
6
CONTINUOUS
10
6.29559
20
-4.71589
11
6.29488
21
-4.71946
0
LINE
8
BLACK
6
CONTINUOUS
10
6.29488
20
-4.71946
11
6.29285
21
-4.7225
0
LINE
8
BLACK
6
CONTINUOUS
10
6.29285
20
-4.7225
11
6.28982
21
-4.72452
0
LINE
8
BLACK
6
CONTINUOUS
10
6.28982
20
-4.72452
11
6.28624
21
-4.72524
0
LINE
8
BLACK
6
CONTINUOUS
10
6.28624
20
-4.72524
11
6.2636
21
-4.72524
0
LINE
8
BLACK
6
CONTINUOUS
10
6.2636
20
-4.72524
11
6.26002
21
-4.72452
0
LINE
8
BLACK
6
CONTINUOUS
10
6.26002
20
-4.72452
11
6.25699
21
-4.7225
0
LINE
8
BLACK
6
CONTINUOUS
10
6.25699
20
-4.7225
11
6.25496
21
-4.71946
0
LINE
8
BLACK
6
CONTINUOUS
10
6.25496
20
-4.71946
11
6.25425
21
-4.71589
0
LINE
8
BLACK
6
CONTINUOUS
10
6.25425
20
-4.71589
11
6.25425
21
-4.69719
0
LINE
8
BLACK
6
CONTINUOUS
10
6.25425
20
-4.69719
11
6.25496
21
-4.69361
0
LINE
8
BLACK
6
CONTINUOUS
10
6.25496
20
-4.69361
11
6.25699
21
-4.69057
0
LINE
8
BLACK
6
CONTINUOUS
10
6.25699
20
-4.69057
11
6.26002
21
-4.68855
0
LINE
8
BLACK
6
CONTINUOUS
10
6.26002
20
-4.68855
11
6.2636
21
-4.68783
0
LINE
8
BLACK
6
CONTINUOUS
10
6.2636
20
-4.68783
11
6.28624
21
-4.68783
0
LINE
8
BLACK
6
CONTINUOUS
10
6.28624
20
-4.68783
11
6.28982
21
-4.68855
0
LINE
8
BLACK
6
CONTINUOUS
10
6.49579
20
-4.68801
11
6.49883
21
-4.69004
0
LINE
8
BLACK
6
CONTINUOUS
10
6.49883
20
-4.69004
11
6.50086
21
-4.69307
0
LINE
8
BLACK
6
CONTINUOUS
10
6.50086
20
-4.69307
11
6.50157
21
-4.69665
0
LINE
8
BLACK
6
CONTINUOUS
10
6.50157
20
-4.69665
11
6.50157
21
-4.71535
0
LINE
8
BLACK
6
CONTINUOUS
10
6.50157
20
-4.71535
11
6.50086
21
-4.71893
0
LINE
8
BLACK
6
CONTINUOUS
10
6.50086
20
-4.71893
11
6.49883
21
-4.72196
0
LINE
8
BLACK
6
CONTINUOUS
10
6.49883
20
-4.72196
11
6.49579
21
-4.72399
0
LINE
8
BLACK
6
CONTINUOUS
10
6.49579
20
-4.72399
11
6.49222
21
-4.7247
0
LINE
8
BLACK
6
CONTINUOUS
10
6.49222
20
-4.7247
11
6.46958
21
-4.7247
0
LINE
8
BLACK
6
CONTINUOUS
10
6.46958
20
-4.7247
11
6.466
21
-4.72399
0
LINE
8
BLACK
6
CONTINUOUS
10
6.466
20
-4.72399
11
6.46297
21
-4.72196
0
LINE
8
BLACK
6
CONTINUOUS
10
6.46297
20
-4.72196
11
6.46094
21
-4.71893
0
LINE
8
BLACK
6
CONTINUOUS
10
6.46094
20
-4.71893
11
6.46023
21
-4.71535
0
LINE
8
BLACK
6
CONTINUOUS
10
6.46023
20
-4.71535
11
6.46023
21
-4.69665
0
LINE
8
BLACK
6
CONTINUOUS
10
6.46023
20
-4.69665
11
6.46094
21
-4.69307
0
LINE
8
BLACK
6
CONTINUOUS
10
6.46094
20
-4.69307
11
6.46297
21
-4.69004
0
LINE
8
BLACK
6
CONTINUOUS
10
6.46297
20
-4.69004
11
6.466
21
-4.68801
0
LINE
8
BLACK
6
CONTINUOUS
10
6.466
20
-4.68801
11
6.46958
21
-4.6873
0
LINE
8
BLACK
6
CONTINUOUS
10
6.46958
20
-4.6873
11
6.49222
21
-4.6873
0
LINE
8
BLACK
6
CONTINUOUS
10
6.49222
20
-4.6873
11
6.49579
21
-4.68801
0
LINE
8
BLACK
6
CONTINUOUS
10
6.4269
20
-4.68801
11
6.42993
21
-4.69004
0
LINE
8
BLACK
6
CONTINUOUS
10
6.42993
20
-4.69004
11
6.43196
21
-4.69307
0
LINE
8
BLACK
6
CONTINUOUS
10
6.43196
20
-4.69307
11
6.43267
21
-4.69665
0
LINE
8
BLACK
6
CONTINUOUS
10
6.43267
20
-4.69665
11
6.43267
21
-4.71535
0
LINE
8
BLACK
6
CONTINUOUS
10
6.43267
20
-4.71535
11
6.43196
21
-4.71893
0
LINE
8
BLACK
6
CONTINUOUS
10
6.43196
20
-4.71893
11
6.42993
21
-4.72196
0
LINE
8
BLACK
6
CONTINUOUS
10
6.42993
20
-4.72196
11
6.4269
21
-4.72399
0
LINE
8
BLACK
6
CONTINUOUS
10
6.4269
20
-4.72399
11
6.42332
21
-4.7247
0
LINE
8
BLACK
6
CONTINUOUS
10
6.42332
20
-4.7247
11
6.40068
21
-4.7247
0
LINE
8
BLACK
6
CONTINUOUS
10
6.40068
20
-4.7247
11
6.3971
21
-4.72399
0
LINE
8
BLACK
6
CONTINUOUS
10
6.3971
20
-4.72399
11
6.39407
21
-4.72196
0
LINE
8
BLACK
6
CONTINUOUS
10
6.39407
20
-4.72196
11
6.39204
21
-4.71893
0
LINE
8
BLACK
6
CONTINUOUS
10
6.39204
20
-4.71893
11
6.39133
21
-4.71535
0
LINE
8
BLACK
6
CONTINUOUS
10
6.39133
20
-4.71535
11
6.39133
21
-4.69665
0
LINE
8
BLACK
6
CONTINUOUS
10
6.39133
20
-4.69665
11
6.39204
21
-4.69307
0
LINE
8
BLACK
6
CONTINUOUS
10
6.39204
20
-4.69307
11
6.39407
21
-4.69004
0
LINE
8
BLACK
6
CONTINUOUS
10
6.39407
20
-4.69004
11
6.3971
21
-4.68801
0
LINE
8
BLACK
6
CONTINUOUS
10
6.3971
20
-4.68801
11
6.40068
21
-4.6873
0
LINE
8
BLACK
6
CONTINUOUS
10
6.40068
20
-4.6873
11
6.42332
21
-4.6873
0
LINE
8
BLACK
6
CONTINUOUS
10
6.42332
20
-4.6873
11
6.4269
21
-4.68801
0
LINE
8
BLACK
6
CONTINUOUS
10
5.8738
20
-4.69196
11
5.87459
21
-4.69249
0
LINE
8
BLACK
6
CONTINUOUS
10
5.87459
20
-4.69249
11
5.87513
21
-4.69329
0
LINE
8
BLACK
6
CONTINUOUS
10
5.87513
20
-4.69329
11
5.87531
21
-4.69423
0
LINE
8
BLACK
6
CONTINUOUS
10
5.87531
20
-4.69423
11
5.87531
21
-4.72179
0
LINE
8
BLACK
6
CONTINUOUS
10
5.87531
20
-4.72179
11
5.87513
21
-4.72273
0
LINE
8
BLACK
6
CONTINUOUS
10
5.87513
20
-4.72273
11
5.87459
21
-4.72353
0
LINE
8
BLACK
6
CONTINUOUS
10
5.87459
20
-4.72353
11
5.8738
21
-4.72406
0
LINE
8
BLACK
6
CONTINUOUS
10
5.8738
20
-4.72406
11
5.87285
21
-4.72425
0
LINE
8
BLACK
6
CONTINUOUS
10
5.87285
20
-4.72425
11
5.86793
21
-4.72425
0
LINE
8
BLACK
6
CONTINUOUS
10
5.86793
20
-4.72425
11
5.86699
21
-4.72406
0
LINE
8
BLACK
6
CONTINUOUS
10
5.86699
20
-4.72406
11
5.86619
21
-4.72353
0
LINE
8
BLACK
6
CONTINUOUS
10
5.86619
20
-4.72353
11
5.86566
21
-4.72273
0
LINE
8
BLACK
6
CONTINUOUS
10
5.86566
20
-4.72273
11
5.86547
21
-4.72179
0
LINE
8
BLACK
6
CONTINUOUS
10
5.86547
20
-4.72179
11
5.86547
21
-4.69423
0
LINE
8
BLACK
6
CONTINUOUS
10
5.86547
20
-4.69423
11
5.86566
21
-4.69329
0
LINE
8
BLACK
6
CONTINUOUS
10
5.86566
20
-4.69329
11
5.86619
21
-4.69249
0
LINE
8
BLACK
6
CONTINUOUS
10
5.86619
20
-4.69249
11
5.86699
21
-4.69196
0
LINE
8
BLACK
6
CONTINUOUS
10
5.86699
20
-4.69196
11
5.86793
21
-4.69177
0
LINE
8
BLACK
6
CONTINUOUS
10
5.86793
20
-4.69177
11
5.87285
21
-4.69177
0
LINE
8
BLACK
6
CONTINUOUS
10
5.87285
20
-4.69177
11
5.8738
21
-4.69196
0
LINE
8
BLACK
6
CONTINUOUS
10
5.89348
20
-4.69196
11
5.89428
21
-4.69249
0
LINE
8
BLACK
6
CONTINUOUS
10
5.89428
20
-4.69249
11
5.89481
21
-4.69329
0
LINE
8
BLACK
6
CONTINUOUS
10
5.89481
20
-4.69329
11
5.895
21
-4.69423
0
LINE
8
BLACK
6
CONTINUOUS
10
5.895
20
-4.69423
11
5.895
21
-4.72179
0
LINE
8
BLACK
6
CONTINUOUS
10
5.895
20
-4.72179
11
5.89481
21
-4.72273
0
LINE
8
BLACK
6
CONTINUOUS
10
5.89481
20
-4.72273
11
5.89428
21
-4.72353
0
LINE
8
BLACK
6
CONTINUOUS
10
5.89428
20
-4.72353
11
5.89348
21
-4.72406
0
LINE
8
BLACK
6
CONTINUOUS
10
5.89348
20
-4.72406
11
5.89254
21
-4.72425
0
LINE
8
BLACK
6
CONTINUOUS
10
5.89254
20
-4.72425
11
5.88762
21
-4.72425
0
LINE
8
BLACK
6
CONTINUOUS
10
5.88762
20
-4.72425
11
5.88668
21
-4.72406
0
LINE
8
BLACK
6
CONTINUOUS
10
5.88668
20
-4.72406
11
5.88588
21
-4.72353
0
LINE
8
BLACK
6
CONTINUOUS
10
5.88588
20
-4.72353
11
5.88534
21
-4.72273
0
LINE
8
BLACK
6
CONTINUOUS
10
5.88534
20
-4.72273
11
5.88516
21
-4.72179
0
LINE
8
BLACK
6
CONTINUOUS
10
5.88516
20
-4.72179
11
5.88516
21
-4.69423
0
LINE
8
BLACK
6
CONTINUOUS
10
5.88516
20
-4.69423
11
5.88534
21
-4.69329
0
LINE
8
BLACK
6
CONTINUOUS
10
5.88534
20
-4.69329
11
5.88588
21
-4.69249
0
LINE
8
BLACK
6
CONTINUOUS
10
5.88588
20
-4.69249
11
5.88668
21
-4.69196
0
LINE
8
BLACK
6
CONTINUOUS
10
5.88668
20
-4.69196
11
5.88762
21
-4.69177
0
LINE
8
BLACK
6
CONTINUOUS
10
5.88762
20
-4.69177
11
5.89254
21
-4.69177
0
LINE
8
BLACK
6
CONTINUOUS
10
5.89254
20
-4.69177
11
5.89348
21
-4.69196
0
LINE
8
BLACK
6
CONTINUOUS
10
5.91317
20
-4.69196
11
5.91396
21
-4.69249
0
LINE
8
BLACK
6
CONTINUOUS
10
5.91396
20
-4.69249
11
5.9145
21
-4.69329
0
LINE
8
BLACK
6
CONTINUOUS
10
5.9145
20
-4.69329
11
5.91469
21
-4.69423
0
LINE
8
BLACK
6
CONTINUOUS
10
5.91469
20
-4.69423
11
5.91469
21
-4.72179
0
LINE
8
BLACK
6
CONTINUOUS
10
5.91469
20
-4.72179
11
5.9145
21
-4.72273
0
LINE
8
BLACK
6
CONTINUOUS
10
5.9145
20
-4.72273
11
5.91396
21
-4.72353
0
LINE
8
BLACK
6
CONTINUOUS
10
5.91396
20
-4.72353
11
5.91317
21
-4.72406
0
LINE
8
BLACK
6
CONTINUOUS
10
5.91317
20
-4.72406
11
5.91222
21
-4.72425
0
LINE
8
BLACK
6
CONTINUOUS
10
5.91222
20
-4.72425
11
5.9073
21
-4.72425
0
LINE
8
BLACK
6
CONTINUOUS
10
5.9073
20
-4.72425
11
5.90636
21
-4.72406
0
LINE
8
BLACK
6
CONTINUOUS
10
5.90636
20
-4.72406
11
5.90556
21
-4.72353
0
LINE
8
BLACK
6
CONTINUOUS
10
5.90556
20
-4.72353
11
5.90503
21
-4.72273
0
LINE
8
BLACK
6
CONTINUOUS
10
5.90503
20
-4.72273
11
5.90484
21
-4.72179
0
LINE
8
BLACK
6
CONTINUOUS
10
5.90484
20
-4.72179
11
5.90484
21
-4.69423
0
LINE
8
BLACK
6
CONTINUOUS
10
5.90484
20
-4.69423
11
5.90503
21
-4.69329
0
LINE
8
BLACK
6
CONTINUOUS
10
5.90503
20
-4.69329
11
5.90556
21
-4.69249
0
LINE
8
BLACK
6
CONTINUOUS
10
5.90556
20
-4.69249
11
5.90636
21
-4.69196
0
LINE
8
BLACK
6
CONTINUOUS
10
5.90636
20
-4.69196
11
5.9073
21
-4.69177
0
LINE
8
BLACK
6
CONTINUOUS
10
5.9073
20
-4.69177
11
5.91222
21
-4.69177
0
LINE
8
BLACK
6
CONTINUOUS
10
5.91222
20
-4.69177
11
5.91317
21
-4.69196
0
LINE
8
BLACK
6
CONTINUOUS
10
5.93285
20
-4.69196
11
5.93365
21
-4.69249
0
LINE
8
BLACK
6
CONTINUOUS
10
5.93365
20
-4.69249
11
5.93418
21
-4.69329
0
LINE
8
BLACK
6
CONTINUOUS
10
5.93418
20
-4.69329
11
5.93437
21
-4.69423
0
LINE
8
BLACK
6
CONTINUOUS
10
5.93437
20
-4.69423
11
5.93437
21
-4.72179
0
LINE
8
BLACK
6
CONTINUOUS
10
5.93437
20
-4.72179
11
5.93418
21
-4.72273
0
LINE
8
BLACK
6
CONTINUOUS
10
5.93418
20
-4.72273
11
5.93365
21
-4.72353
0
LINE
8
BLACK
6
CONTINUOUS
10
5.93365
20
-4.72353
11
5.93285
21
-4.72406
0
LINE
8
BLACK
6
CONTINUOUS
10
5.93285
20
-4.72406
11
5.93191
21
-4.72425
0
LINE
8
BLACK
6
CONTINUOUS
10
5.93191
20
-4.72425
11
5.92699
21
-4.72425
0
LINE
8
BLACK
6
CONTINUOUS
10
5.92699
20
-4.72425
11
5.92605
21
-4.72406
0
LINE
8
BLACK
6
CONTINUOUS
10
5.92605
20
-4.72406
11
5.92525
21
-4.72353
0
LINE
8
BLACK
6
CONTINUOUS
10
5.92525
20
-4.72353
11
5.92471
21
-4.72273
0
LINE
8
BLACK
6
CONTINUOUS
10
5.92471
20
-4.72273
11
5.92453
21
-4.72179
0
LINE
8
BLACK
6
CONTINUOUS
10
5.92453
20
-4.72179
11
5.92453
21
-4.69423
0
LINE
8
BLACK
6
CONTINUOUS
10
5.92453
20
-4.69423
11
5.92471
21
-4.69329
0
LINE
8
BLACK
6
CONTINUOUS
10
5.92471
20
-4.69329
11
5.92525
21
-4.69249
0
LINE
8
BLACK
6
CONTINUOUS
10
5.92525
20
-4.69249
11
5.92605
21
-4.69196
0
LINE
8
BLACK
6
CONTINUOUS
10
5.92605
20
-4.69196
11
5.92699
21
-4.69177
0
LINE
8
BLACK
6
CONTINUOUS
10
5.92699
20
-4.69177
11
5.93191
21
-4.69177
0
LINE
8
BLACK
6
CONTINUOUS
10
5.93191
20
-4.69177
11
5.93285
21
-4.69196
0
LINE
8
BLACK
6
CONTINUOUS
10
5.95254
20
-4.69196
11
5.95333
21
-4.69249
0
LINE
8
BLACK
6
CONTINUOUS
10
5.95333
20
-4.69249
11
5.95387
21
-4.69329
0
LINE
8
BLACK
6
CONTINUOUS
10
5.95387
20
-4.69329
11
5.95406
21
-4.69423
0
LINE
8
BLACK
6
CONTINUOUS
10
5.95406
20
-4.69423
11
5.95406
21
-4.72179
0
LINE
8
BLACK
6
CONTINUOUS
10
5.95406
20
-4.72179
11
5.95387
21
-4.72273
0
LINE
8
BLACK
6
CONTINUOUS
10
5.95387
20
-4.72273
11
5.95333
21
-4.72353
0
LINE
8
BLACK
6
CONTINUOUS
10
5.95333
20
-4.72353
11
5.95254
21
-4.72406
0
LINE
8
BLACK
6
CONTINUOUS
10
5.95254
20
-4.72406
11
5.95159
21
-4.72425
0
LINE
8
BLACK
6
CONTINUOUS
10
5.95159
20
-4.72425
11
5.94667
21
-4.72425
0
LINE
8
BLACK
6
CONTINUOUS
10
5.94667
20
-4.72425
11
5.94573
21
-4.72406
0
LINE
8
BLACK
6
CONTINUOUS
10
5.94573
20
-4.72406
11
5.94493
21
-4.72353
0
LINE
8
BLACK
6
CONTINUOUS
10
5.94493
20
-4.72353
11
5.9444
21
-4.72273
0
LINE
8
BLACK
6
CONTINUOUS
10
5.9444
20
-4.72273
11
5.94421
21
-4.72179
0
LINE
8
BLACK
6
CONTINUOUS
10
5.94421
20
-4.72179
11
5.94421
21
-4.69423
0
LINE
8
BLACK
6
CONTINUOUS
10
5.94421
20
-4.69423
11
5.9444
21
-4.69329
0
LINE
8
BLACK
6
CONTINUOUS
10
5.9444
20
-4.69329
11
5.94493
21
-4.69249
0
LINE
8
BLACK
6
CONTINUOUS
10
5.94493
20
-4.69249
11
5.94573
21
-4.69196
0
LINE
8
BLACK
6
CONTINUOUS
10
5.94573
20
-4.69196
11
5.94667
21
-4.69177
0
LINE
8
BLACK
6
CONTINUOUS
10
5.94667
20
-4.69177
11
5.95159
21
-4.69177
0
LINE
8
BLACK
6
CONTINUOUS
10
5.95159
20
-4.69177
11
5.95254
21
-4.69196
0
LINE
8
BLACK
6
CONTINUOUS
10
5.85411
20
-4.69196
11
5.85491
21
-4.69249
0
LINE
8
BLACK
6
CONTINUOUS
10
5.85491
20
-4.69249
11
5.85544
21
-4.69329
0
LINE
8
BLACK
6
CONTINUOUS
10
5.85544
20
-4.69329
11
5.85563
21
-4.69423
0
LINE
8
BLACK
6
CONTINUOUS
10
5.85563
20
-4.69423
11
5.85563
21
-4.72179
0
LINE
8
BLACK
6
CONTINUOUS
10
5.85563
20
-4.72179
11
5.85544
21
-4.72273
0
LINE
8
BLACK
6
CONTINUOUS
10
5.85544
20
-4.72273
11
5.85491
21
-4.72353
0
LINE
8
BLACK
6
CONTINUOUS
10
5.85491
20
-4.72353
11
5.85411
21
-4.72406
0
LINE
8
BLACK
6
CONTINUOUS
10
5.85411
20
-4.72406
11
5.85317
21
-4.72425
0
LINE
8
BLACK
6
CONTINUOUS
10
5.85317
20
-4.72425
11
5.84825
21
-4.72425
0
LINE
8
BLACK
6
CONTINUOUS
10
5.84825
20
-4.72425
11
5.84731
21
-4.72406
0
LINE
8
BLACK
6
CONTINUOUS
10
5.84731
20
-4.72406
11
5.84651
21
-4.72353
0
LINE
8
BLACK
6
CONTINUOUS
10
5.84651
20
-4.72353
11
5.84597
21
-4.72273
0
LINE
8
BLACK
6
CONTINUOUS
10
5.84597
20
-4.72273
11
5.84579
21
-4.72179
0
LINE
8
BLACK
6
CONTINUOUS
10
5.84579
20
-4.72179
11
5.84579
21
-4.69423
0
LINE
8
BLACK
6
CONTINUOUS
10
5.84579
20
-4.69423
11
5.84597
21
-4.69329
0
LINE
8
BLACK
6
CONTINUOUS
10
5.84597
20
-4.69329
11
5.84651
21
-4.69249
0
LINE
8
BLACK
6
CONTINUOUS
10
5.84651
20
-4.69249
11
5.84731
21
-4.69196
0
LINE
8
BLACK
6
CONTINUOUS
10
5.84731
20
-4.69196
11
5.84825
21
-4.69177
0
LINE
8
BLACK
6
CONTINUOUS
10
5.84825
20
-4.69177
11
5.85317
21
-4.69177
0
LINE
8
BLACK
6
CONTINUOUS
10
5.85317
20
-4.69177
11
5.85411
21
-4.69196
0
LINE
8
BLACK
6
CONTINUOUS
10
6.0739
20
-4.68651
11
6.07578
21
-4.68776
0
LINE
8
BLACK
6
CONTINUOUS
10
6.07578
20
-4.68776
11
6.07704
21
-4.68965
0
LINE
8
BLACK
6
CONTINUOUS
10
6.07704
20
-4.68965
11
6.07748
21
-4.69187
0
LINE
8
BLACK
6
CONTINUOUS
10
6.07748
20
-4.69187
11
6.07748
21
-4.70545
0
LINE
8
BLACK
6
CONTINUOUS
10
6.07748
20
-4.70545
11
6.07704
21
-4.70768
0
LINE
8
BLACK
6
CONTINUOUS
10
6.07704
20
-4.70768
11
6.07578
21
-4.70956
0
LINE
8
BLACK
6
CONTINUOUS
10
6.07578
20
-4.70956
11
6.0739
21
-4.71082
0
LINE
8
BLACK
6
CONTINUOUS
10
6.0739
20
-4.71082
11
6.07167
21
-4.71126
0
LINE
8
BLACK
6
CONTINUOUS
10
6.07167
20
-4.71126
11
6.06006
21
-4.71126
0
LINE
8
BLACK
6
CONTINUOUS
10
6.06006
20
-4.71126
11
6.05784
21
-4.71082
0
LINE
8
BLACK
6
CONTINUOUS
10
6.05784
20
-4.71082
11
6.05595
21
-4.70956
0
LINE
8
BLACK
6
CONTINUOUS
10
6.05595
20
-4.70956
11
6.05469
21
-4.70768
0
LINE
8
BLACK
6
CONTINUOUS
10
6.05469
20
-4.70768
11
6.05425
21
-4.70545
0
LINE
8
BLACK
6
CONTINUOUS
10
6.05425
20
-4.70545
11
6.05425
21
-4.69187
0
LINE
8
BLACK
6
CONTINUOUS
10
6.05425
20
-4.69187
11
6.05469
21
-4.68965
0
LINE
8
BLACK
6
CONTINUOUS
10
6.05469
20
-4.68965
11
6.05595
21
-4.68776
0
LINE
8
BLACK
6
CONTINUOUS
10
6.05595
20
-4.68776
11
6.05784
21
-4.68651
0
LINE
8
BLACK
6
CONTINUOUS
10
6.05784
20
-4.68651
11
6.06006
21
-4.68606
0
LINE
8
BLACK
6
CONTINUOUS
10
6.06006
20
-4.68606
11
6.07167
21
-4.68606
0
LINE
8
BLACK
6
CONTINUOUS
10
6.07167
20
-4.68606
11
6.0739
21
-4.68651
0
LINE
8
BLACK
6
CONTINUOUS
10
6.11208
20
-4.68651
11
6.11397
21
-4.68776
0
LINE
8
BLACK
6
CONTINUOUS
10
6.11397
20
-4.68776
11
6.11523
21
-4.68965
0
LINE
8
BLACK
6
CONTINUOUS
10
6.11523
20
-4.68965
11
6.11567
21
-4.69187
0
LINE
8
BLACK
6
CONTINUOUS
10
6.11567
20
-4.69187
11
6.11567
21
-4.70545
0
LINE
8
BLACK
6
CONTINUOUS
10
6.11567
20
-4.70545
11
6.11523
21
-4.70768
0
LINE
8
BLACK
6
CONTINUOUS
10
6.11523
20
-4.70768
11
6.11397
21
-4.70956
0
LINE
8
BLACK
6
CONTINUOUS
10
6.11397
20
-4.70956
11
6.11208
21
-4.71082
0
LINE
8
BLACK
6
CONTINUOUS
10
6.11208
20
-4.71082
11
6.10986
21
-4.71126
0
LINE
8
BLACK
6
CONTINUOUS
10
6.10986
20
-4.71126
11
6.09825
21
-4.71126
0
LINE
8
BLACK
6
CONTINUOUS
10
6.09825
20
-4.71126
11
6.09603
21
-4.71082
0
LINE
8
BLACK
6
CONTINUOUS
10
6.09603
20
-4.71082
11
6.09414
21
-4.70956
0
LINE
8
BLACK
6
CONTINUOUS
10
6.09414
20
-4.70956
11
6.09288
21
-4.70768
0
LINE
8
BLACK
6
CONTINUOUS
10
6.09288
20
-4.70768
11
6.09244
21
-4.70545
0
LINE
8
BLACK
6
CONTINUOUS
10
6.09244
20
-4.70545
11
6.09244
21
-4.69187
0
LINE
8
BLACK
6
CONTINUOUS
10
6.09244
20
-4.69187
11
6.09288
21
-4.68965
0
LINE
8
BLACK
6
CONTINUOUS
10
6.09288
20
-4.68965
11
6.09414
21
-4.68776
0
LINE
8
BLACK
6
CONTINUOUS
10
6.09414
20
-4.68776
11
6.09603
21
-4.68651
0
LINE
8
BLACK
6
CONTINUOUS
10
6.09603
20
-4.68651
11
6.09825
21
-4.68606
0
LINE
8
BLACK
6
CONTINUOUS
10
6.09825
20
-4.68606
11
6.10986
21
-4.68606
0
LINE
8
BLACK
6
CONTINUOUS
10
6.10986
20
-4.68606
11
6.11208
21
-4.68651
0
LINE
8
BLACK
6
CONTINUOUS
10
6.1609
20
-4.68808
11
6.16279
21
-4.68934
0
LINE
8
BLACK
6
CONTINUOUS
10
6.16279
20
-4.68934
11
6.16405
21
-4.69122
0
LINE
8
BLACK
6
CONTINUOUS
10
6.16405
20
-4.69122
11
6.16449
21
-4.69344
0
LINE
8
BLACK
6
CONTINUOUS
10
6.16449
20
-4.69344
11
6.16449
21
-4.70506
0
LINE
8
BLACK
6
CONTINUOUS
10
6.16449
20
-4.70506
11
6.16405
21
-4.70728
0
LINE
8
BLACK
6
CONTINUOUS
10
6.16405
20
-4.70728
11
6.16279
21
-4.70917
0
LINE
8
BLACK
6
CONTINUOUS
10
6.16279
20
-4.70917
11
6.1609
21
-4.71042
0
LINE
8
BLACK
6
CONTINUOUS
10
6.1609
20
-4.71042
11
6.15868
21
-4.71087
0
LINE
8
BLACK
6
CONTINUOUS
10
6.15868
20
-4.71087
11
6.1451
21
-4.71087
0
LINE
8
BLACK
6
CONTINUOUS
10
6.1451
20
-4.71087
11
6.14288
21
-4.71042
0
LINE
8
BLACK
6
CONTINUOUS
10
6.14288
20
-4.71042
11
6.14099
21
-4.70917
0
LINE
8
BLACK
6
CONTINUOUS
10
6.14099
20
-4.70917
11
6.13973
21
-4.70728
0
LINE
8
BLACK
6
CONTINUOUS
10
6.13973
20
-4.70728
11
6.13929
21
-4.70506
0
LINE
8
BLACK
6
CONTINUOUS
10
6.13929
20
-4.70506
11
6.13929
21
-4.69344
0
LINE
8
BLACK
6
CONTINUOUS
10
6.13929
20
-4.69344
11
6.13973
21
-4.69122
0
LINE
8
BLACK
6
CONTINUOUS
10
6.13973
20
-4.69122
11
6.14099
21
-4.68934
0
LINE
8
BLACK
6
CONTINUOUS
10
6.14099
20
-4.68934
11
6.14288
21
-4.68808
0
LINE
8
BLACK
6
CONTINUOUS
10
6.14288
20
-4.68808
11
6.1451
21
-4.68764
0
LINE
8
BLACK
6
CONTINUOUS
10
6.1451
20
-4.68764
11
6.15868
21
-4.68764
0
LINE
8
BLACK
6
CONTINUOUS
10
6.15868
20
-4.68764
11
6.1609
21
-4.68808
0
LINE
8
BLACK
6
CONTINUOUS
10
6.63293
20
-4.66559
11
6.63596
21
-4.66762
0
LINE
8
BLACK
6
CONTINUOUS
10
6.63596
20
-4.66762
11
6.63799
21
-4.67065
0
LINE
8
BLACK
6
CONTINUOUS
10
6.63799
20
-4.67065
11
6.6387
21
-4.67423
0
LINE
8
BLACK
6
CONTINUOUS
10
6.6387
20
-4.67423
11
6.6387
21
-4.69687
0
LINE
8
BLACK
6
CONTINUOUS
10
6.6387
20
-4.69687
11
6.63799
21
-4.70045
0
LINE
8
BLACK
6
CONTINUOUS
10
6.63799
20
-4.70045
11
6.63596
21
-4.70348
0
LINE
8
BLACK
6
CONTINUOUS
10
6.63596
20
-4.70348
11
6.63293
21
-4.70551
0
LINE
8
BLACK
6
CONTINUOUS
10
6.63293
20
-4.70551
11
6.62935
21
-4.70622
0
LINE
8
BLACK
6
CONTINUOUS
10
6.62935
20
-4.70622
11
6.61065
21
-4.70622
0
LINE
8
BLACK
6
CONTINUOUS
10
6.61065
20
-4.70622
11
6.60707
21
-4.70551
0
LINE
8
BLACK
6
CONTINUOUS
10
6.60707
20
-4.70551
11
6.60404
21
-4.70348
0
LINE
8
BLACK
6
CONTINUOUS
10
6.60404
20
-4.70348
11
6.60201
21
-4.70045
0
LINE
8
BLACK
6
CONTINUOUS
10
6.60201
20
-4.70045
11
6.6013
21
-4.69687
0
LINE
8
BLACK
6
CONTINUOUS
10
6.6013
20
-4.69687
11
6.6013
21
-4.67423
0
LINE
8
BLACK
6
CONTINUOUS
10
6.6013
20
-4.67423
11
6.60201
21
-4.67065
0
LINE
8
BLACK
6
CONTINUOUS
10
6.60201
20
-4.67065
11
6.60404
21
-4.66762
0
LINE
8
BLACK
6
CONTINUOUS
10
6.60404
20
-4.66762
11
6.60707
21
-4.66559
0
LINE
8
BLACK
6
CONTINUOUS
10
6.60707
20
-4.66559
11
6.61065
21
-4.66488
0
LINE
8
BLACK
6
CONTINUOUS
10
6.61065
20
-4.66488
11
6.62935
21
-4.66488
0
LINE
8
BLACK
6
CONTINUOUS
10
6.62935
20
-4.66488
11
6.63293
21
-4.66559
0
LINE
8
BLACK
6
CONTINUOUS
10
5.72387
20
-4.66
11
5.72691
21
-4.66203
0
LINE
8
BLACK
6
CONTINUOUS
10
5.72691
20
-4.66203
11
5.72893
21
-4.66506
0
LINE
8
BLACK
6
CONTINUOUS
10
5.72893
20
-4.66506
11
5.72965
21
-4.66864
0
LINE
8
BLACK
6
CONTINUOUS
10
5.72965
20
-4.66864
11
5.72965
21
-4.69128
0
LINE
8
BLACK
6
CONTINUOUS
10
5.72965
20
-4.69128
11
5.72893
21
-4.69486
0
LINE
8
BLACK
6
CONTINUOUS
10
5.72893
20
-4.69486
11
5.72691
21
-4.69789
0
LINE
8
BLACK
6
CONTINUOUS
10
5.72691
20
-4.69789
11
5.72387
21
-4.69992
0
LINE
8
BLACK
6
CONTINUOUS
10
5.72387
20
-4.69992
11
5.7203
21
-4.70063
0
LINE
8
BLACK
6
CONTINUOUS
10
5.7203
20
-4.70063
11
5.70159
21
-4.70063
0
LINE
8
BLACK
6
CONTINUOUS
10
5.70159
20
-4.70063
11
5.69802
21
-4.69992
0
LINE
8
BLACK
6
CONTINUOUS
10
5.69802
20
-4.69992
11
5.69498
21
-4.69789
0
LINE
8
BLACK
6
CONTINUOUS
10
5.69498
20
-4.69789
11
5.69296
21
-4.69486
0
LINE
8
BLACK
6
CONTINUOUS
10
5.69296
20
-4.69486
11
5.69224
21
-4.69128
0
LINE
8
BLACK
6
CONTINUOUS
10
5.69224
20
-4.69128
11
5.69224
21
-4.66864
0
LINE
8
BLACK
6
CONTINUOUS
10
5.69224
20
-4.66864
11
5.69296
21
-4.66506
0
LINE
8
BLACK
6
CONTINUOUS
10
5.69296
20
-4.66506
11
5.69498
21
-4.66203
0
LINE
8
BLACK
6
CONTINUOUS
10
5.69498
20
-4.66203
11
5.69802
21
-4.66
0
LINE
8
BLACK
6
CONTINUOUS
10
5.69802
20
-4.66
11
5.70159
21
-4.65929
0
LINE
8
BLACK
6
CONTINUOUS
10
5.70159
20
-4.65929
11
5.7203
21
-4.65929
0
LINE
8
BLACK
6
CONTINUOUS
10
5.7203
20
-4.65929
11
5.72387
21
-4.66
0
LINE
8
BLACK
6
CONTINUOUS
10
6.55301
20
-4.66973
11
6.5549
21
-4.67099
0
LINE
8
BLACK
6
CONTINUOUS
10
6.5549
20
-4.67099
11
6.55616
21
-4.67288
0
LINE
8
BLACK
6
CONTINUOUS
10
6.55616
20
-4.67288
11
6.5566
21
-4.6751
0
LINE
8
BLACK
6
CONTINUOUS
10
6.5566
20
-4.6751
11
6.5566
21
-4.68671
0
LINE
8
BLACK
6
CONTINUOUS
10
6.5566
20
-4.68671
11
6.55616
21
-4.68893
0
LINE
8
BLACK
6
CONTINUOUS
10
6.55616
20
-4.68893
11
6.5549
21
-4.69082
0
LINE
8
BLACK
6
CONTINUOUS
10
6.5549
20
-4.69082
11
6.55301
21
-4.69208
0
LINE
8
BLACK
6
CONTINUOUS
10
6.55301
20
-4.69208
11
6.55079
21
-4.69252
0
LINE
8
BLACK
6
CONTINUOUS
10
6.55079
20
-4.69252
11
6.53721
21
-4.69252
0
LINE
8
BLACK
6
CONTINUOUS
10
6.53721
20
-4.69252
11
6.53499
21
-4.69208
0
LINE
8
BLACK
6
CONTINUOUS
10
6.53499
20
-4.69208
11
6.5331
21
-4.69082
0
LINE
8
BLACK
6
CONTINUOUS
10
6.5331
20
-4.69082
11
6.53184
21
-4.68893
0
LINE
8
BLACK
6
CONTINUOUS
10
6.53184
20
-4.68893
11
6.5314
21
-4.68671
0
LINE
8
BLACK
6
CONTINUOUS
10
6.5314
20
-4.68671
11
6.5314
21
-4.6751
0
LINE
8
BLACK
6
CONTINUOUS
10
6.5314
20
-4.6751
11
6.53184
21
-4.67288
0
LINE
8
BLACK
6
CONTINUOUS
10
6.53184
20
-4.67288
11
6.5331
21
-4.67099
0
LINE
8
BLACK
6
CONTINUOUS
10
6.5331
20
-4.67099
11
6.53499
21
-4.66973
0
LINE
8
BLACK
6
CONTINUOUS
10
6.53499
20
-4.66973
11
6.53721
21
-4.66929
0
LINE
8
BLACK
6
CONTINUOUS
10
6.53721
20
-4.66929
11
6.55079
21
-4.66929
0
LINE
8
BLACK
6
CONTINUOUS
10
6.55079
20
-4.66929
11
6.55301
21
-4.66973
0
LINE
8
BLACK
6
CONTINUOUS
10
5.83836
20
-4.67621
11
5.83916
21
-4.67674
0
LINE
8
BLACK
6
CONTINUOUS
10
5.83916
20
-4.67674
11
5.83969
21
-4.67754
0
LINE
8
BLACK
6
CONTINUOUS
10
5.83969
20
-4.67754
11
5.83988
21
-4.67848
0
LINE
8
BLACK
6
CONTINUOUS
10
5.83988
20
-4.67848
11
5.83988
21
-4.68341
0
LINE
8
BLACK
6
CONTINUOUS
10
5.83988
20
-4.68341
11
5.83969
21
-4.68435
0
LINE
8
BLACK
6
CONTINUOUS
10
5.83969
20
-4.68435
11
5.83916
21
-4.68515
0
LINE
8
BLACK
6
CONTINUOUS
10
5.83916
20
-4.68515
11
5.83836
21
-4.68568
0
LINE
8
BLACK
6
CONTINUOUS
10
5.83836
20
-4.68568
11
5.83742
21
-4.68587
0
LINE
8
BLACK
6
CONTINUOUS
10
5.83742
20
-4.68587
11
5.80986
21
-4.68587
0
LINE
8
BLACK
6
CONTINUOUS
10
5.80986
20
-4.68587
11
5.80892
21
-4.68568
0
LINE
8
BLACK
6
CONTINUOUS
10
5.80892
20
-4.68568
11
5.80812
21
-4.68515
0
LINE
8
BLACK
6
CONTINUOUS
10
5.80812
20
-4.68515
11
5.80759
21
-4.68435
0
LINE
8
BLACK
6
CONTINUOUS
10
5.80759
20
-4.68435
11
5.8074
21
-4.68341
0
LINE
8
BLACK
6
CONTINUOUS
10
5.8074
20
-4.68341
11
5.8074
21
-4.67848
0
LINE
8
BLACK
6
CONTINUOUS
10
5.8074
20
-4.67848
11
5.80759
21
-4.67754
0
LINE
8
BLACK
6
CONTINUOUS
10
5.80759
20
-4.67754
11
5.80812
21
-4.67674
0
LINE
8
BLACK
6
CONTINUOUS
10
5.80812
20
-4.67674
11
5.80892
21
-4.67621
0
LINE
8
BLACK
6
CONTINUOUS
10
5.80892
20
-4.67621
11
5.80986
21
-4.67602
0
LINE
8
BLACK
6
CONTINUOUS
10
5.80986
20
-4.67602
11
5.83742
21
-4.67602
0
LINE
8
BLACK
6
CONTINUOUS
10
5.83742
20
-4.67602
11
5.83836
21
-4.67621
0
LINE
8
BLACK
6
CONTINUOUS
10
5.99092
20
-4.67621
11
5.99172
21
-4.67674
0
LINE
8
BLACK
6
CONTINUOUS
10
5.99172
20
-4.67674
11
5.99225
21
-4.67754
0
LINE
8
BLACK
6
CONTINUOUS
10
5.99225
20
-4.67754
11
5.99244
21
-4.67848
0
LINE
8
BLACK
6
CONTINUOUS
10
5.99244
20
-4.67848
11
5.99244
21
-4.68341
0
LINE
8
BLACK
6
CONTINUOUS
10
5.99244
20
-4.68341
11
5.99225
21
-4.68435
0
LINE
8
BLACK
6
CONTINUOUS
10
5.99225
20
-4.68435
11
5.99172
21
-4.68515
0
LINE
8
BLACK
6
CONTINUOUS
10
5.99172
20
-4.68515
11
5.99092
21
-4.68568
0
LINE
8
BLACK
6
CONTINUOUS
10
5.99092
20
-4.68568
11
5.98998
21
-4.68587
0
LINE
8
BLACK
6
CONTINUOUS
10
5.98998
20
-4.68587
11
5.96242
21
-4.68587
0
LINE
8
BLACK
6
CONTINUOUS
10
5.96242
20
-4.68587
11
5.96148
21
-4.68568
0
LINE
8
BLACK
6
CONTINUOUS
10
5.96148
20
-4.68568
11
5.96068
21
-4.68515
0
LINE
8
BLACK
6
CONTINUOUS
10
5.96068
20
-4.68515
11
5.96015
21
-4.68435
0
LINE
8
BLACK
6
CONTINUOUS
10
5.96015
20
-4.68435
11
5.95996
21
-4.68341
0
LINE
8
BLACK
6
CONTINUOUS
10
5.95996
20
-4.68341
11
5.95996
21
-4.67848
0
LINE
8
BLACK
6
CONTINUOUS
10
5.95996
20
-4.67848
11
5.96015
21
-4.67754
0
LINE
8
BLACK
6
CONTINUOUS
10
5.96015
20
-4.67754
11
5.96068
21
-4.67674
0
LINE
8
BLACK
6
CONTINUOUS
10
5.96068
20
-4.67674
11
5.96148
21
-4.67621
0
LINE
8
BLACK
6
CONTINUOUS
10
5.96148
20
-4.67621
11
5.96242
21
-4.67602
0
LINE
8
BLACK
6
CONTINUOUS
10
5.96242
20
-4.67602
11
5.98998
21
-4.67602
0
LINE
8
BLACK
6
CONTINUOUS
10
5.98998
20
-4.67602
11
5.99092
21
-4.67621
0
LINE
8
BLACK
6
CONTINUOUS
10
5.66364
20
-4.68
11
5.60864
21
-4.68
0
LINE
8
BLACK
6
CONTINUOUS
10
5.60864
20
-4.68
11
5.60864
21
-4.645
0
LINE
8
BLACK
6
CONTINUOUS
10
5.60864
20
-4.645
11
5.66364
21
-4.645
0
LINE
8
BLACK
6
CONTINUOUS
10
5.66364
20
-4.645
11
5.66364
21
-4.68
0
LINE
8
BLACK
6
CONTINUOUS
10
5.8905
20
-4.63583
11
5.89369
21
-4.63796
0
LINE
8
BLACK
6
CONTINUOUS
10
5.89369
20
-4.63796
11
5.89583
21
-4.64115
0
LINE
8
BLACK
6
CONTINUOUS
10
5.89583
20
-4.64115
11
5.89657
21
-4.64492
0
LINE
8
BLACK
6
CONTINUOUS
10
5.89657
20
-4.64492
11
5.89657
21
-4.66972
0
LINE
8
BLACK
6
CONTINUOUS
10
5.89657
20
-4.66972
11
5.89583
21
-4.67349
0
LINE
8
BLACK
6
CONTINUOUS
10
5.89583
20
-4.67349
11
5.89369
21
-4.67668
0
LINE
8
BLACK
6
CONTINUOUS
10
5.89369
20
-4.67668
11
5.8905
21
-4.67882
0
LINE
8
BLACK
6
CONTINUOUS
10
5.8905
20
-4.67882
11
5.88673
21
-4.67957
0
LINE
8
BLACK
6
CONTINUOUS
10
5.88673
20
-4.67957
11
5.86193
21
-4.67957
0
LINE
8
BLACK
6
CONTINUOUS
10
5.86193
20
-4.67957
11
5.85816
21
-4.67882
0
LINE
8
BLACK
6
CONTINUOUS
10
5.85816
20
-4.67882
11
5.85497
21
-4.67668
0
LINE
8
BLACK
6
CONTINUOUS
10
5.85497
20
-4.67668
11
5.85284
21
-4.67349
0
LINE
8
BLACK
6
CONTINUOUS
10
5.85284
20
-4.67349
11
5.85209
21
-4.66972
0
LINE
8
BLACK
6
CONTINUOUS
10
5.85209
20
-4.66972
11
5.85209
21
-4.64492
0
LINE
8
BLACK
6
CONTINUOUS
10
5.85209
20
-4.64492
11
5.85284
21
-4.64115
0
LINE
8
BLACK
6
CONTINUOUS
10
5.85284
20
-4.64115
11
5.85497
21
-4.63796
0
LINE
8
BLACK
6
CONTINUOUS
10
5.85497
20
-4.63796
11
5.85816
21
-4.63583
0
LINE
8
BLACK
6
CONTINUOUS
10
5.85816
20
-4.63583
11
5.86193
21
-4.63508
0
LINE
8
BLACK
6
CONTINUOUS
10
5.86193
20
-4.63508
11
5.88673
21
-4.63508
0
LINE
8
BLACK
6
CONTINUOUS
10
5.88673
20
-4.63508
11
5.8905
21
-4.63583
0
LINE
8
BLACK
6
CONTINUOUS
10
5.94168
20
-4.63583
11
5.94487
21
-4.63796
0
LINE
8
BLACK
6
CONTINUOUS
10
5.94487
20
-4.63796
11
5.94701
21
-4.64115
0
LINE
8
BLACK
6
CONTINUOUS
10
5.94701
20
-4.64115
11
5.94776
21
-4.64492
0
LINE
8
BLACK
6
CONTINUOUS
10
5.94776
20
-4.64492
11
5.94776
21
-4.66972
0
LINE
8
BLACK
6
CONTINUOUS
10
5.94776
20
-4.66972
11
5.94701
21
-4.67349
0
LINE
8
BLACK
6
CONTINUOUS
10
5.94701
20
-4.67349
11
5.94487
21
-4.67668
0
LINE
8
BLACK
6
CONTINUOUS
10
5.94487
20
-4.67668
11
5.94168
21
-4.67882
0
LINE
8
BLACK
6
CONTINUOUS
10
5.94168
20
-4.67882
11
5.93791
21
-4.67957
0
LINE
8
BLACK
6
CONTINUOUS
10
5.93791
20
-4.67957
11
5.91311
21
-4.67957
0
LINE
8
BLACK
6
CONTINUOUS
10
5.91311
20
-4.67957
11
5.90934
21
-4.67882
0
LINE
8
BLACK
6
CONTINUOUS
10
5.90934
20
-4.67882
11
5.90615
21
-4.67668
0
LINE
8
BLACK
6
CONTINUOUS
10
5.90615
20
-4.67668
11
5.90402
21
-4.67349
0
LINE
8
BLACK
6
CONTINUOUS
10
5.90402
20
-4.67349
11
5.90327
21
-4.66972
0
LINE
8
BLACK
6
CONTINUOUS
10
5.90327
20
-4.66972
11
5.90327
21
-4.64492
0
LINE
8
BLACK
6
CONTINUOUS
10
5.90327
20
-4.64492
11
5.90402
21
-4.64115
0
LINE
8
BLACK
6
CONTINUOUS
10
5.90402
20
-4.64115
11
5.90615
21
-4.63796
0
LINE
8
BLACK
6
CONTINUOUS
10
5.90615
20
-4.63796
11
5.90934
21
-4.63583
0
LINE
8
BLACK
6
CONTINUOUS
10
5.90934
20
-4.63583
11
5.91311
21
-4.63508
0
LINE
8
BLACK
6
CONTINUOUS
10
5.91311
20
-4.63508
11
5.93791
21
-4.63508
0
LINE
8
BLACK
6
CONTINUOUS
10
5.93791
20
-4.63508
11
5.94168
21
-4.63583
0
LINE
8
BLACK
6
CONTINUOUS
10
5.83836
20
-4.65653
11
5.83916
21
-4.65706
0
LINE
8
BLACK
6
CONTINUOUS
10
5.83916
20
-4.65706
11
5.83969
21
-4.65786
0
LINE
8
BLACK
6
CONTINUOUS
10
5.83969
20
-4.65786
11
5.83988
21
-4.6588
0
LINE
8
BLACK
6
CONTINUOUS
10
5.83988
20
-4.6588
11
5.83988
21
-4.66372
0
LINE
8
BLACK
6
CONTINUOUS
10
5.83988
20
-4.66372
11
5.83969
21
-4.66466
0
LINE
8
BLACK
6
CONTINUOUS
10
5.83969
20
-4.66466
11
5.83916
21
-4.66546
0
LINE
8
BLACK
6
CONTINUOUS
10
5.83916
20
-4.66546
11
5.83836
21
-4.66599
0
LINE
8
BLACK
6
CONTINUOUS
10
5.83836
20
-4.66599
11
5.83742
21
-4.66618
0
LINE
8
BLACK
6
CONTINUOUS
10
5.83742
20
-4.66618
11
5.80986
21
-4.66618
0
LINE
8
BLACK
6
CONTINUOUS
10
5.80986
20
-4.66618
11
5.80892
21
-4.66599
0
LINE
8
BLACK
6
CONTINUOUS
10
5.80892
20
-4.66599
11
5.80812
21
-4.66546
0
LINE
8
BLACK
6
CONTINUOUS
10
5.80812
20
-4.66546
11
5.80759
21
-4.66466
0
LINE
8
BLACK
6
CONTINUOUS
10
5.80759
20
-4.66466
11
5.8074
21
-4.66372
0
LINE
8
BLACK
6
CONTINUOUS
10
5.8074
20
-4.66372
11
5.8074
21
-4.6588
0
LINE
8
BLACK
6
CONTINUOUS
10
5.8074
20
-4.6588
11
5.80759
21
-4.65786
0
LINE
8
BLACK
6
CONTINUOUS
10
5.80759
20
-4.65786
11
5.80812
21
-4.65706
0
LINE
8
BLACK
6
CONTINUOUS
10
5.80812
20
-4.65706
11
5.80892
21
-4.65653
0
LINE
8
BLACK
6
CONTINUOUS
10
5.80892
20
-4.65653
11
5.80986
21
-4.65634
0
LINE
8
BLACK
6
CONTINUOUS
10
5.80986
20
-4.65634
11
5.83742
21
-4.65634
0
LINE
8
BLACK
6
CONTINUOUS
10
5.83742
20
-4.65634
11
5.83836
21
-4.65653
0
LINE
8
BLACK
6
CONTINUOUS
10
5.99092
20
-4.65653
11
5.99172
21
-4.65706
0
LINE
8
BLACK
6
CONTINUOUS
10
5.99172
20
-4.65706
11
5.99225
21
-4.65786
0
LINE
8
BLACK
6
CONTINUOUS
10
5.99225
20
-4.65786
11
5.99244
21
-4.6588
0
LINE
8
BLACK
6
CONTINUOUS
10
5.99244
20
-4.6588
11
5.99244
21
-4.66372
0
LINE
8
BLACK
6
CONTINUOUS
10
5.99244
20
-4.66372
11
5.99225
21
-4.66466
0
LINE
8
BLACK
6
CONTINUOUS
10
5.99225
20
-4.66466
11
5.99172
21
-4.66546
0
LINE
8
BLACK
6
CONTINUOUS
10
5.99172
20
-4.66546
11
5.99092
21
-4.66599
0
LINE
8
BLACK
6
CONTINUOUS
10
5.99092
20
-4.66599
11
5.98998
21
-4.66618
0
LINE
8
BLACK
6
CONTINUOUS
10
5.98998
20
-4.66618
11
5.96242
21
-4.66618
0
LINE
8
BLACK
6
CONTINUOUS
10
5.96242
20
-4.66618
11
5.96148
21
-4.66599
0
LINE
8
BLACK
6
CONTINUOUS
10
5.96148
20
-4.66599
11
5.96068
21
-4.66546
0
LINE
8
BLACK
6
CONTINUOUS
10
5.96068
20
-4.66546
11
5.96015
21
-4.66466
0
LINE
8
BLACK
6
CONTINUOUS
10
5.96015
20
-4.66466
11
5.95996
21
-4.66372
0
LINE
8
BLACK
6
CONTINUOUS
10
5.95996
20
-4.66372
11
5.95996
21
-4.6588
0
LINE
8
BLACK
6
CONTINUOUS
10
5.95996
20
-4.6588
11
5.96015
21
-4.65786
0
LINE
8
BLACK
6
CONTINUOUS
10
5.96015
20
-4.65786
11
5.96068
21
-4.65706
0
LINE
8
BLACK
6
CONTINUOUS
10
5.96068
20
-4.65706
11
5.96148
21
-4.65653
0
LINE
8
BLACK
6
CONTINUOUS
10
5.96148
20
-4.65653
11
5.96242
21
-4.65634
0
LINE
8
BLACK
6
CONTINUOUS
10
5.96242
20
-4.65634
11
5.98998
21
-4.65634
0
LINE
8
BLACK
6
CONTINUOUS
10
5.98998
20
-4.65634
11
5.99092
21
-4.65653
0
LINE
8
BLACK
6
CONTINUOUS
10
5.99092
20
-4.63684
11
5.99172
21
-4.63737
0
LINE
8
BLACK
6
CONTINUOUS
10
5.99172
20
-4.63737
11
5.99225
21
-4.63817
0
LINE
8
BLACK
6
CONTINUOUS
10
5.99225
20
-4.63817
11
5.99244
21
-4.63911
0
LINE
8
BLACK
6
CONTINUOUS
10
5.99244
20
-4.63911
11
5.99244
21
-4.64404
0
LINE
8
BLACK
6
CONTINUOUS
10
5.99244
20
-4.64404
11
5.99225
21
-4.64498
0
LINE
8
BLACK
6
CONTINUOUS
10
5.99225
20
-4.64498
11
5.99172
21
-4.64578
0
LINE
8
BLACK
6
CONTINUOUS
10
5.99172
20
-4.64578
11
5.99092
21
-4.64631
0
LINE
8
BLACK
6
CONTINUOUS
10
5.99092
20
-4.64631
11
5.98998
21
-4.6465
0
LINE
8
BLACK
6
CONTINUOUS
10
5.98998
20
-4.6465
11
5.96242
21
-4.6465
0
LINE
8
BLACK
6
CONTINUOUS
10
5.96242
20
-4.6465
11
5.96148
21
-4.64631
0
LINE
8
BLACK
6
CONTINUOUS
10
5.96148
20
-4.64631
11
5.96068
21
-4.64578
0
LINE
8
BLACK
6
CONTINUOUS
10
5.96068
20
-4.64578
11
5.96015
21
-4.64498
0
LINE
8
BLACK
6
CONTINUOUS
10
5.96015
20
-4.64498
11
5.95996
21
-4.64404
0
LINE
8
BLACK
6
CONTINUOUS
10
5.95996
20
-4.64404
11
5.95996
21
-4.63911
0
LINE
8
BLACK
6
CONTINUOUS
10
5.95996
20
-4.63911
11
5.96015
21
-4.63817
0
LINE
8
BLACK
6
CONTINUOUS
10
5.96015
20
-4.63817
11
5.96068
21
-4.63737
0
LINE
8
BLACK
6
CONTINUOUS
10
5.96068
20
-4.63737
11
5.96148
21
-4.63684
0
LINE
8
BLACK
6
CONTINUOUS
10
5.96148
20
-4.63684
11
5.96242
21
-4.63665
0
LINE
8
BLACK
6
CONTINUOUS
10
5.96242
20
-4.63665
11
5.98998
21
-4.63665
0
LINE
8
BLACK
6
CONTINUOUS
10
5.98998
20
-4.63665
11
5.99092
21
-4.63684
0
LINE
8
BLACK
6
CONTINUOUS
10
5.83836
20
-4.63684
11
5.83916
21
-4.63737
0
LINE
8
BLACK
6
CONTINUOUS
10
5.83916
20
-4.63737
11
5.83969
21
-4.63817
0
LINE
8
BLACK
6
CONTINUOUS
10
5.83969
20
-4.63817
11
5.83988
21
-4.63911
0
LINE
8
BLACK
6
CONTINUOUS
10
5.83988
20
-4.63911
11
5.83988
21
-4.64404
0
LINE
8
BLACK
6
CONTINUOUS
10
5.83988
20
-4.64404
11
5.83969
21
-4.64498
0
LINE
8
BLACK
6
CONTINUOUS
10
5.83969
20
-4.64498
11
5.83916
21
-4.64578
0
LINE
8
BLACK
6
CONTINUOUS
10
5.83916
20
-4.64578
11
5.83836
21
-4.64631
0
LINE
8
BLACK
6
CONTINUOUS
10
5.83836
20
-4.64631
11
5.83742
21
-4.6465
0
LINE
8
BLACK
6
CONTINUOUS
10
5.83742
20
-4.6465
11
5.80986
21
-4.6465
0
LINE
8
BLACK
6
CONTINUOUS
10
5.80986
20
-4.6465
11
5.80892
21
-4.64631
0
LINE
8
BLACK
6
CONTINUOUS
10
5.80892
20
-4.64631
11
5.80812
21
-4.64578
0
LINE
8
BLACK
6
CONTINUOUS
10
5.80812
20
-4.64578
11
5.80759
21
-4.64498
0
LINE
8
BLACK
6
CONTINUOUS
10
5.80759
20
-4.64498
11
5.8074
21
-4.64404
0
LINE
8
BLACK
6
CONTINUOUS
10
5.8074
20
-4.64404
11
5.8074
21
-4.63911
0
LINE
8
BLACK
6
CONTINUOUS
10
5.8074
20
-4.63911
11
5.80759
21
-4.63817
0
LINE
8
BLACK
6
CONTINUOUS
10
5.80759
20
-4.63817
11
5.80812
21
-4.63737
0
LINE
8
BLACK
6
CONTINUOUS
10
5.80812
20
-4.63737
11
5.80892
21
-4.63684
0
LINE
8
BLACK
6
CONTINUOUS
10
5.80892
20
-4.63684
11
5.80986
21
-4.63665
0
LINE
8
BLACK
6
CONTINUOUS
10
5.80986
20
-4.63665
11
5.83742
21
-4.63665
0
LINE
8
BLACK
6
CONTINUOUS
10
5.83742
20
-4.63665
11
5.83836
21
-4.63684
0
LINE
8
BLACK
6
CONTINUOUS
10
5.8905
20
-4.58465
11
5.89369
21
-4.58678
0
LINE
8
BLACK
6
CONTINUOUS
10
5.89369
20
-4.58678
11
5.89583
21
-4.58997
0
LINE
8
BLACK
6
CONTINUOUS
10
5.89583
20
-4.58997
11
5.89657
21
-4.59374
0
LINE
8
BLACK
6
CONTINUOUS
10
5.89657
20
-4.59374
11
5.89657
21
-4.61854
0
LINE
8
BLACK
6
CONTINUOUS
10
5.89657
20
-4.61854
11
5.89583
21
-4.62231
0
LINE
8
BLACK
6
CONTINUOUS
10
5.89583
20
-4.62231
11
5.89369
21
-4.6255
0
LINE
8
BLACK
6
CONTINUOUS
10
5.89369
20
-4.6255
11
5.8905
21
-4.62764
0
LINE
8
BLACK
6
CONTINUOUS
10
5.8905
20
-4.62764
11
5.88673
21
-4.62839
0
LINE
8
BLACK
6
CONTINUOUS
10
5.88673
20
-4.62839
11
5.86193
21
-4.62839
0
LINE
8
BLACK
6
CONTINUOUS
10
5.86193
20
-4.62839
11
5.85816
21
-4.62764
0
LINE
8
BLACK
6
CONTINUOUS
10
5.85816
20
-4.62764
11
5.85497
21
-4.6255
0
LINE
8
BLACK
6
CONTINUOUS
10
5.85497
20
-4.6255
11
5.85284
21
-4.62231
0
LINE
8
BLACK
6
CONTINUOUS
10
5.85284
20
-4.62231
11
5.85209
21
-4.61854
0
LINE
8
BLACK
6
CONTINUOUS
10
5.85209
20
-4.61854
11
5.85209
21
-4.59374
0
LINE
8
BLACK
6
CONTINUOUS
10
5.85209
20
-4.59374
11
5.85284
21
-4.58997
0
LINE
8
BLACK
6
CONTINUOUS
10
5.85284
20
-4.58997
11
5.85497
21
-4.58678
0
LINE
8
BLACK
6
CONTINUOUS
10
5.85497
20
-4.58678
11
5.85816
21
-4.58465
0
LINE
8
BLACK
6
CONTINUOUS
10
5.85816
20
-4.58465
11
5.86193
21
-4.5839
0
LINE
8
BLACK
6
CONTINUOUS
10
5.86193
20
-4.5839
11
5.88673
21
-4.5839
0
LINE
8
BLACK
6
CONTINUOUS
10
5.88673
20
-4.5839
11
5.8905
21
-4.58465
0
LINE
8
BLACK
6
CONTINUOUS
10
5.94168
20
-4.58465
11
5.94487
21
-4.58678
0
LINE
8
BLACK
6
CONTINUOUS
10
5.94487
20
-4.58678
11
5.94701
21
-4.58997
0
LINE
8
BLACK
6
CONTINUOUS
10
5.94701
20
-4.58997
11
5.94776
21
-4.59374
0
LINE
8
BLACK
6
CONTINUOUS
10
5.94776
20
-4.59374
11
5.94776
21
-4.61854
0
LINE
8
BLACK
6
CONTINUOUS
10
5.94776
20
-4.61854
11
5.94701
21
-4.62231
0
LINE
8
BLACK
6
CONTINUOUS
10
5.94701
20
-4.62231
11
5.94487
21
-4.6255
0
LINE
8
BLACK
6
CONTINUOUS
10
5.94487
20
-4.6255
11
5.94168
21
-4.62764
0
LINE
8
BLACK
6
CONTINUOUS
10
5.94168
20
-4.62764
11
5.93791
21
-4.62839
0
LINE
8
BLACK
6
CONTINUOUS
10
5.93791
20
-4.62839
11
5.91311
21
-4.62839
0
LINE
8
BLACK
6
CONTINUOUS
10
5.91311
20
-4.62839
11
5.90934
21
-4.62764
0
LINE
8
BLACK
6
CONTINUOUS
10
5.90934
20
-4.62764
11
5.90615
21
-4.6255
0
LINE
8
BLACK
6
CONTINUOUS
10
5.90615
20
-4.6255
11
5.90402
21
-4.62231
0
LINE
8
BLACK
6
CONTINUOUS
10
5.90402
20
-4.62231
11
5.90327
21
-4.61854
0
LINE
8
BLACK
6
CONTINUOUS
10
5.90327
20
-4.61854
11
5.90327
21
-4.59374
0
LINE
8
BLACK
6
CONTINUOUS
10
5.90327
20
-4.59374
11
5.90402
21
-4.58997
0
LINE
8
BLACK
6
CONTINUOUS
10
5.90402
20
-4.58997
11
5.90615
21
-4.58678
0
LINE
8
BLACK
6
CONTINUOUS
10
5.90615
20
-4.58678
11
5.90934
21
-4.58465
0
LINE
8
BLACK
6
CONTINUOUS
10
5.90934
20
-4.58465
11
5.91311
21
-4.5839
0
LINE
8
BLACK
6
CONTINUOUS
10
5.91311
20
-4.5839
11
5.93791
21
-4.5839
0
LINE
8
BLACK
6
CONTINUOUS
10
5.93791
20
-4.5839
11
5.94168
21
-4.58465
0
LINE
8
BLACK
6
CONTINUOUS
10
6.37348
20
-4.58717
11
6.37651
21
-4.5892
0
LINE
8
BLACK
6
CONTINUOUS
10
6.37651
20
-4.5892
11
6.37854
21
-4.59223
0
LINE
8
BLACK
6
CONTINUOUS
10
6.37854
20
-4.59223
11
6.37925
21
-4.59581
0
LINE
8
BLACK
6
CONTINUOUS
10
6.37925
20
-4.59581
11
6.37925
21
-4.61844
0
LINE
8
BLACK
6
CONTINUOUS
10
6.37925
20
-4.61844
11
6.37854
21
-4.62202
0
LINE
8
BLACK
6
CONTINUOUS
10
6.37854
20
-4.62202
11
6.37651
21
-4.62506
0
LINE
8
BLACK
6
CONTINUOUS
10
6.37651
20
-4.62506
11
6.37348
21
-4.62708
0
LINE
8
BLACK
6
CONTINUOUS
10
6.37348
20
-4.62708
11
6.3699
21
-4.6278
0
LINE
8
BLACK
6
CONTINUOUS
10
6.3699
20
-4.6278
11
6.3512
21
-4.6278
0
LINE
8
BLACK
6
CONTINUOUS
10
6.3512
20
-4.6278
11
6.34762
21
-4.62708
0
LINE
8
BLACK
6
CONTINUOUS
10
6.34762
20
-4.62708
11
6.34459
21
-4.62506
0
LINE
8
BLACK
6
CONTINUOUS
10
6.34459
20
-4.62506
11
6.34256
21
-4.62202
0
LINE
8
BLACK
6
CONTINUOUS
10
6.34256
20
-4.62202
11
6.34185
21
-4.61844
0
LINE
8
BLACK
6
CONTINUOUS
10
6.34185
20
-4.61844
11
6.34185
21
-4.59581
0
LINE
8
BLACK
6
CONTINUOUS
10
6.34185
20
-4.59581
11
6.34256
21
-4.59223
0
LINE
8
BLACK
6
CONTINUOUS
10
6.34256
20
-4.59223
11
6.34459
21
-4.5892
0
LINE
8
BLACK
6
CONTINUOUS
10
6.34459
20
-4.5892
11
6.34762
21
-4.58717
0
LINE
8
BLACK
6
CONTINUOUS
10
6.34762
20
-4.58717
11
6.3512
21
-4.58646
0
LINE
8
BLACK
6
CONTINUOUS
10
6.3512
20
-4.58646
11
6.3699
21
-4.58646
0
LINE
8
BLACK
6
CONTINUOUS
10
6.3699
20
-4.58646
11
6.37348
21
-4.58717
0
LINE
8
BLACK
6
CONTINUOUS
10
6.2899
20
-4.59012
11
6.29293
21
-4.59215
0
LINE
8
BLACK
6
CONTINUOUS
10
6.29293
20
-4.59215
11
6.29496
21
-4.59518
0
LINE
8
BLACK
6
CONTINUOUS
10
6.29496
20
-4.59518
11
6.29567
21
-4.59876
0
LINE
8
BLACK
6
CONTINUOUS
10
6.29567
20
-4.59876
11
6.29567
21
-4.61746
0
LINE
8
BLACK
6
CONTINUOUS
10
6.29567
20
-4.61746
11
6.29496
21
-4.62104
0
LINE
8
BLACK
6
CONTINUOUS
10
6.29496
20
-4.62104
11
6.29293
21
-4.62407
0
LINE
8
BLACK
6
CONTINUOUS
10
6.29293
20
-4.62407
11
6.2899
21
-4.6261
0
LINE
8
BLACK
6
CONTINUOUS
10
6.2899
20
-4.6261
11
6.28632
21
-4.62681
0
LINE
8
BLACK
6
CONTINUOUS
10
6.28632
20
-4.62681
11
6.26368
21
-4.62681
0
LINE
8
BLACK
6
CONTINUOUS
10
6.26368
20
-4.62681
11
6.2601
21
-4.6261
0
LINE
8
BLACK
6
CONTINUOUS
10
6.2601
20
-4.6261
11
6.25707
21
-4.62407
0
LINE
8
BLACK
6
CONTINUOUS
10
6.25707
20
-4.62407
11
6.25504
21
-4.62104
0
LINE
8
BLACK
6
CONTINUOUS
10
6.25504
20
-4.62104
11
6.25433
21
-4.61746
0
LINE
8
BLACK
6
CONTINUOUS
10
6.25433
20
-4.61746
11
6.25433
21
-4.59876
0
LINE
8
BLACK
6
CONTINUOUS
10
6.25433
20
-4.59876
11
6.25504
21
-4.59518
0
LINE
8
BLACK
6
CONTINUOUS
10
6.25504
20
-4.59518
11
6.25707
21
-4.59215
0
LINE
8
BLACK
6
CONTINUOUS
10
6.25707
20
-4.59215
11
6.2601
21
-4.59012
0
LINE
8
BLACK
6
CONTINUOUS
10
6.2601
20
-4.59012
11
6.26368
21
-4.58941
0
LINE
8
BLACK
6
CONTINUOUS
10
6.26368
20
-4.58941
11
6.28632
21
-4.58941
0
LINE
8
BLACK
6
CONTINUOUS
10
6.28632
20
-4.58941
11
6.2899
21
-4.59012
0
LINE
8
BLACK
6
CONTINUOUS
10
5.99092
20
-4.61716
11
5.99172
21
-4.61769
0
LINE
8
BLACK
6
CONTINUOUS
10
5.99172
20
-4.61769
11
5.99225
21
-4.61849
0
LINE
8
BLACK
6
CONTINUOUS
10
5.99225
20
-4.61849
11
5.99244
21
-4.61943
0
LINE
8
BLACK
6
CONTINUOUS
10
5.99244
20
-4.61943
11
5.99244
21
-4.62435
0
LINE
8
BLACK
6
CONTINUOUS
10
5.99244
20
-4.62435
11
5.99225
21
-4.62529
0
LINE
8
BLACK
6
CONTINUOUS
10
5.99225
20
-4.62529
11
5.99172
21
-4.62609
0
LINE
8
BLACK
6
CONTINUOUS
10
5.99172
20
-4.62609
11
5.99092
21
-4.62662
0
LINE
8
BLACK
6
CONTINUOUS
10
5.99092
20
-4.62662
11
5.98998
21
-4.62681
0
LINE
8
BLACK
6
CONTINUOUS
10
5.98998
20
-4.62681
11
5.96242
21
-4.62681
0
LINE
8
BLACK
6
CONTINUOUS
10
5.96242
20
-4.62681
11
5.96148
21
-4.62662
0
LINE
8
BLACK
6
CONTINUOUS
10
5.96148
20
-4.62662
11
5.96068
21
-4.62609
0
LINE
8
BLACK
6
CONTINUOUS
10
5.96068
20
-4.62609
11
5.96015
21
-4.62529
0
LINE
8
BLACK
6
CONTINUOUS
10
5.96015
20
-4.62529
11
5.95996
21
-4.62435
0
LINE
8
BLACK
6
CONTINUOUS
10
5.95996
20
-4.62435
11
5.95996
21
-4.61943
0
LINE
8
BLACK
6
CONTINUOUS
10
5.95996
20
-4.61943
11
5.96015
21
-4.61849
0
LINE
8
BLACK
6
CONTINUOUS
10
5.96015
20
-4.61849
11
5.96068
21
-4.61769
0
LINE
8
BLACK
6
CONTINUOUS
10
5.96068
20
-4.61769
11
5.96148
21
-4.61716
0
LINE
8
BLACK
6
CONTINUOUS
10
5.96148
20
-4.61716
11
5.96242
21
-4.61697
0
LINE
8
BLACK
6
CONTINUOUS
10
5.96242
20
-4.61697
11
5.98998
21
-4.61697
0
LINE
8
BLACK
6
CONTINUOUS
10
5.98998
20
-4.61697
11
5.99092
21
-4.61716
0
LINE
8
BLACK
6
CONTINUOUS
10
6.221
20
-4.59012
11
6.22403
21
-4.59215
0
LINE
8
BLACK
6
CONTINUOUS
10
6.22403
20
-4.59215
11
6.22606
21
-4.59518
0
LINE
8
BLACK
6
CONTINUOUS
10
6.22606
20
-4.59518
11
6.22677
21
-4.59876
0
LINE
8
BLACK
6
CONTINUOUS
10
6.22677
20
-4.59876
11
6.22677
21
-4.61746
0
LINE
8
BLACK
6
CONTINUOUS
10
6.22677
20
-4.61746
11
6.22606
21
-4.62104
0
LINE
8
BLACK
6
CONTINUOUS
10
6.22606
20
-4.62104
11
6.22403
21
-4.62407
0
LINE
8
BLACK
6
CONTINUOUS
10
6.22403
20
-4.62407
11
6.221
21
-4.6261
0
LINE
8
BLACK
6
CONTINUOUS
10
6.221
20
-4.6261
11
6.21742
21
-4.62681
0
LINE
8
BLACK
6
CONTINUOUS
10
6.21742
20
-4.62681
11
6.19478
21
-4.62681
0
LINE
8
BLACK
6
CONTINUOUS
10
6.19478
20
-4.62681
11
6.19121
21
-4.6261
0
LINE
8
BLACK
6
CONTINUOUS
10
6.19121
20
-4.6261
11
6.18817
21
-4.62407
0
LINE
8
BLACK
6
CONTINUOUS
10
6.18817
20
-4.62407
11
6.18614
21
-4.62104
0
LINE
8
BLACK
6
CONTINUOUS
10
6.18614
20
-4.62104
11
6.18543
21
-4.61746
0
LINE
8
BLACK
6
CONTINUOUS
10
6.18543
20
-4.61746
11
6.18543
21
-4.59876
0
LINE
8
BLACK
6
CONTINUOUS
10
6.18543
20
-4.59876
11
6.18614
21
-4.59518
0
LINE
8
BLACK
6
CONTINUOUS
10
6.18614
20
-4.59518
11
6.18817
21
-4.59215
0
LINE
8
BLACK
6
CONTINUOUS
10
6.18817
20
-4.59215
11
6.19121
21
-4.59012
0
LINE
8
BLACK
6
CONTINUOUS
10
6.19121
20
-4.59012
11
6.19478
21
-4.58941
0
LINE
8
BLACK
6
CONTINUOUS
10
6.19478
20
-4.58941
11
6.21742
21
-4.58941
0
LINE
8
BLACK
6
CONTINUOUS
10
6.21742
20
-4.58941
11
6.221
21
-4.59012
0
LINE
8
BLACK
6
CONTINUOUS
10
5.83836
20
-4.61716
11
5.83916
21
-4.61769
0
LINE
8
BLACK
6
CONTINUOUS
10
5.83916
20
-4.61769
11
5.83969
21
-4.61849
0
LINE
8
BLACK
6
CONTINUOUS
10
5.83969
20
-4.61849
11
5.83988
21
-4.61943
0
LINE
8
BLACK
6
CONTINUOUS
10
5.83988
20
-4.61943
11
5.83988
21
-4.62435
0
LINE
8
BLACK
6
CONTINUOUS
10
5.83988
20
-4.62435
11
5.83969
21
-4.62529
0
LINE
8
BLACK
6
CONTINUOUS
10
5.83969
20
-4.62529
11
5.83916
21
-4.62609
0
LINE
8
BLACK
6
CONTINUOUS
10
5.83916
20
-4.62609
11
5.83836
21
-4.62662
0
LINE
8
BLACK
6
CONTINUOUS
10
5.83836
20
-4.62662
11
5.83742
21
-4.62681
0
LINE
8
BLACK
6
CONTINUOUS
10
5.83742
20
-4.62681
11
5.80986
21
-4.62681
0
LINE
8
BLACK
6
CONTINUOUS
10
5.80986
20
-4.62681
11
5.80892
21
-4.62662
0
LINE
8
BLACK
6
CONTINUOUS
10
5.80892
20
-4.62662
11
5.80812
21
-4.62609
0
LINE
8
BLACK
6
CONTINUOUS
10
5.80812
20
-4.62609
11
5.80759
21
-4.62529
0
LINE
8
BLACK
6
CONTINUOUS
10
5.80759
20
-4.62529
11
5.8074
21
-4.62435
0
LINE
8
BLACK
6
CONTINUOUS
10
5.8074
20
-4.62435
11
5.8074
21
-4.61943
0
LINE
8
BLACK
6
CONTINUOUS
10
5.8074
20
-4.61943
11
5.80759
21
-4.61849
0
LINE
8
BLACK
6
CONTINUOUS
10
5.80759
20
-4.61849
11
5.80812
21
-4.61769
0
LINE
8
BLACK
6
CONTINUOUS
10
5.80812
20
-4.61769
11
5.80892
21
-4.61716
0
LINE
8
BLACK
6
CONTINUOUS
10
5.80892
20
-4.61716
11
5.80986
21
-4.61697
0
LINE
8
BLACK
6
CONTINUOUS
10
5.80986
20
-4.61697
11
5.83742
21
-4.61697
0
LINE
8
BLACK
6
CONTINUOUS
10
5.83742
20
-4.61697
11
5.83836
21
-4.61716
0
LINE
8
BLACK
6
CONTINUOUS
10
5.66088
20
-4.58323
11
5.66391
21
-4.58526
0
LINE
8
BLACK
6
CONTINUOUS
10
5.66391
20
-4.58526
11
5.66594
21
-4.58829
0
LINE
8
BLACK
6
CONTINUOUS
10
5.66594
20
-4.58829
11
5.66665
21
-4.59187
0
LINE
8
BLACK
6
CONTINUOUS
10
5.66665
20
-4.59187
11
5.66665
21
-4.61451
0
LINE
8
BLACK
6
CONTINUOUS
10
5.66665
20
-4.61451
11
5.66594
21
-4.61809
0
LINE
8
BLACK
6
CONTINUOUS
10
5.66594
20
-4.61809
11
5.66391
21
-4.62112
0
LINE
8
BLACK
6
CONTINUOUS
10
5.66391
20
-4.62112
11
5.66088
21
-4.62315
0
LINE
8
BLACK
6
CONTINUOUS
10
5.66088
20
-4.62315
11
5.6573
21
-4.62386
0
LINE
8
BLACK
6
CONTINUOUS
10
5.6573
20
-4.62386
11
5.6386
21
-4.62386
0
LINE
8
BLACK
6
CONTINUOUS
10
5.6386
20
-4.62386
11
5.63502
21
-4.62315
0
LINE
8
BLACK
6
CONTINUOUS
10
5.63502
20
-4.62315
11
5.63199
21
-4.62112
0
LINE
8
BLACK
6
CONTINUOUS
10
5.63199
20
-4.62112
11
5.62996
21
-4.61809
0
LINE
8
BLACK
6
CONTINUOUS
10
5.62996
20
-4.61809
11
5.62925
21
-4.61451
0
LINE
8
BLACK
6
CONTINUOUS
10
5.62925
20
-4.61451
11
5.62925
21
-4.59187
0
LINE
8
BLACK
6
CONTINUOUS
10
5.62925
20
-4.59187
11
5.62996
21
-4.58829
0
LINE
8
BLACK
6
CONTINUOUS
10
5.62996
20
-4.58829
11
5.63199
21
-4.58526
0
LINE
8
BLACK
6
CONTINUOUS
10
5.63199
20
-4.58526
11
5.63502
21
-4.58323
0
LINE
8
BLACK
6
CONTINUOUS
10
5.63502
20
-4.58323
11
5.6386
21
-4.58252
0
LINE
8
BLACK
6
CONTINUOUS
10
5.6386
20
-4.58252
11
5.6573
21
-4.58252
0
LINE
8
BLACK
6
CONTINUOUS
10
5.6573
20
-4.58252
11
5.66088
21
-4.58323
0
LINE
8
BLACK
6
CONTINUOUS
10
5.72387
20
-4.58323
11
5.72691
21
-4.58526
0
LINE
8
BLACK
6
CONTINUOUS
10
5.72691
20
-4.58526
11
5.72893
21
-4.58829
0
LINE
8
BLACK
6
CONTINUOUS
10
5.72893
20
-4.58829
11
5.72965
21
-4.59187
0
LINE
8
BLACK
6
CONTINUOUS
10
5.72965
20
-4.59187
11
5.72965
21
-4.61451
0
LINE
8
BLACK
6
CONTINUOUS
10
5.72965
20
-4.61451
11
5.72893
21
-4.61809
0
LINE
8
BLACK
6
CONTINUOUS
10
5.72893
20
-4.61809
11
5.72691
21
-4.62112
0
LINE
8
BLACK
6
CONTINUOUS
10
5.72691
20
-4.62112
11
5.72387
21
-4.62315
0
LINE
8
BLACK
6
CONTINUOUS
10
5.72387
20
-4.62315
11
5.7203
21
-4.62386
0
LINE
8
BLACK
6
CONTINUOUS
10
5.7203
20
-4.62386
11
5.70159
21
-4.62386
0
LINE
8
BLACK
6
CONTINUOUS
10
5.70159
20
-4.62386
11
5.69802
21
-4.62315
0
LINE
8
BLACK
6
CONTINUOUS
10
5.69802
20
-4.62315
11
5.69498
21
-4.62112
0
LINE
8
BLACK
6
CONTINUOUS
10
5.69498
20
-4.62112
11
5.69296
21
-4.61809
0
LINE
8
BLACK
6
CONTINUOUS
10
5.69296
20
-4.61809
11
5.69224
21
-4.61451
0
LINE
8
BLACK
6
CONTINUOUS
10
5.69224
20
-4.61451
11
5.69224
21
-4.59187
0
LINE
8
BLACK
6
CONTINUOUS
10
5.69224
20
-4.59187
11
5.69296
21
-4.58829
0
LINE
8
BLACK
6
CONTINUOUS
10
5.69296
20
-4.58829
11
5.69498
21
-4.58526
0
LINE
8
BLACK
6
CONTINUOUS
10
5.69498
20
-4.58526
11
5.69802
21
-4.58323
0
LINE
8
BLACK
6
CONTINUOUS
10
5.69802
20
-4.58323
11
5.70159
21
-4.58252
0
LINE
8
BLACK
6
CONTINUOUS
10
5.70159
20
-4.58252
11
5.7203
21
-4.58252
0
LINE
8
BLACK
6
CONTINUOUS
10
5.7203
20
-4.58252
11
5.72387
21
-4.58323
0
LINE
8
BLACK
6
CONTINUOUS
10
6.53346
20
-4.61264
11
6.51772
21
-4.61264
0
LINE
8
BLACK
6
CONTINUOUS
10
6.51772
20
-4.61264
11
6.51772
21
-4.58705
0
LINE
8
BLACK
6
CONTINUOUS
10
6.51772
20
-4.58705
11
6.53346
21
-4.58705
0
LINE
8
BLACK
6
CONTINUOUS
10
6.53346
20
-4.58705
11
6.53346
21
-4.61264
0
LINE
8
BLACK
6
CONTINUOUS
10
6.50787
20
-4.61264
11
6.49213
21
-4.61264
0
LINE
8
BLACK
6
CONTINUOUS
10
6.49213
20
-4.61264
11
6.49213
21
-4.58705
0
LINE
8
BLACK
6
CONTINUOUS
10
6.49213
20
-4.58705
11
6.50787
21
-4.58705
0
LINE
8
BLACK
6
CONTINUOUS
10
6.50787
20
-4.58705
11
6.50787
21
-4.61264
0
LINE
8
BLACK
6
CONTINUOUS
10
6.48228
20
-4.61264
11
6.46654
21
-4.61264
0
LINE
8
BLACK
6
CONTINUOUS
10
6.46654
20
-4.61264
11
6.46654
21
-4.58705
0
LINE
8
BLACK
6
CONTINUOUS
10
6.46654
20
-4.58705
11
6.48228
21
-4.58705
0
LINE
8
BLACK
6
CONTINUOUS
10
6.48228
20
-4.58705
11
6.48228
21
-4.61264
0
LINE
8
BLACK
6
CONTINUOUS
10
5.83836
20
-4.59747
11
5.83916
21
-4.598
0
LINE
8
BLACK
6
CONTINUOUS
10
5.83916
20
-4.598
11
5.83969
21
-4.5988
0
LINE
8
BLACK
6
CONTINUOUS
10
5.83969
20
-4.5988
11
5.83988
21
-4.59974
0
LINE
8
BLACK
6
CONTINUOUS
10
5.83988
20
-4.59974
11
5.83988
21
-4.60467
0
LINE
8
BLACK
6
CONTINUOUS
10
5.83988
20
-4.60467
11
5.83969
21
-4.60561
0
LINE
8
BLACK
6
CONTINUOUS
10
5.83969
20
-4.60561
11
5.83916
21
-4.60641
0
LINE
8
BLACK
6
CONTINUOUS
10
5.83916
20
-4.60641
11
5.83836
21
-4.60694
0
LINE
8
BLACK
6
CONTINUOUS
10
5.83836
20
-4.60694
11
5.83742
21
-4.60713
0
LINE
8
BLACK
6
CONTINUOUS
10
5.83742
20
-4.60713
11
5.80986
21
-4.60713
0
LINE
8
BLACK
6
CONTINUOUS
10
5.80986
20
-4.60713
11
5.80892
21
-4.60694
0
LINE
8
BLACK
6
CONTINUOUS
10
5.80892
20
-4.60694
11
5.80812
21
-4.60641
0
LINE
8
BLACK
6
CONTINUOUS
10
5.80812
20
-4.60641
11
5.80759
21
-4.60561
0
LINE
8
BLACK
6
CONTINUOUS
10
5.80759
20
-4.60561
11
5.8074
21
-4.60467
0
LINE
8
BLACK
6
CONTINUOUS
10
5.8074
20
-4.60467
11
5.8074
21
-4.59974
0
LINE
8
BLACK
6
CONTINUOUS
10
5.8074
20
-4.59974
11
5.80759
21
-4.5988
0
LINE
8
BLACK
6
CONTINUOUS
10
5.80759
20
-4.5988
11
5.80812
21
-4.598
0
LINE
8
BLACK
6
CONTINUOUS
10
5.80812
20
-4.598
11
5.80892
21
-4.59747
0
LINE
8
BLACK
6
CONTINUOUS
10
5.80892
20
-4.59747
11
5.80986
21
-4.59728
0
LINE
8
BLACK
6
CONTINUOUS
10
5.80986
20
-4.59728
11
5.83742
21
-4.59728
0
LINE
8
BLACK
6
CONTINUOUS
10
5.83742
20
-4.59728
11
5.83836
21
-4.59747
0
LINE
8
BLACK
6
CONTINUOUS
10
5.99092
20
-4.59747
11
5.99172
21
-4.598
0
LINE
8
BLACK
6
CONTINUOUS
10
5.99172
20
-4.598
11
5.99225
21
-4.5988
0
LINE
8
BLACK
6
CONTINUOUS
10
5.99225
20
-4.5988
11
5.99244
21
-4.59974
0
LINE
8
BLACK
6
CONTINUOUS
10
5.99244
20
-4.59974
11
5.99244
21
-4.60467
0
LINE
8
BLACK
6
CONTINUOUS
10
5.99244
20
-4.60467
11
5.99225
21
-4.60561
0
LINE
8
BLACK
6
CONTINUOUS
10
5.99225
20
-4.60561
11
5.99172
21
-4.60641
0
LINE
8
BLACK
6
CONTINUOUS
10
5.99172
20
-4.60641
11
5.99092
21
-4.60694
0
LINE
8
BLACK
6
CONTINUOUS
10
5.99092
20
-4.60694
11
5.98998
21
-4.60713
0
LINE
8
BLACK
6
CONTINUOUS
10
5.98998
20
-4.60713
11
5.96242
21
-4.60713
0
LINE
8
BLACK
6
CONTINUOUS
10
5.96242
20
-4.60713
11
5.96148
21
-4.60694
0
LINE
8
BLACK
6
CONTINUOUS
10
5.96148
20
-4.60694
11
5.96068
21
-4.60641
0
LINE
8
BLACK
6
CONTINUOUS
10
5.96068
20
-4.60641
11
5.96015
21
-4.60561
0
LINE
8
BLACK
6
CONTINUOUS
10
5.96015
20
-4.60561
11
5.95996
21
-4.60467
0
LINE
8
BLACK
6
CONTINUOUS
10
5.95996
20
-4.60467
11
5.95996
21
-4.59974
0
LINE
8
BLACK
6
CONTINUOUS
10
5.95996
20
-4.59974
11
5.96015
21
-4.5988
0
LINE
8
BLACK
6
CONTINUOUS
10
5.96015
20
-4.5988
11
5.96068
21
-4.598
0
LINE
8
BLACK
6
CONTINUOUS
10
5.96068
20
-4.598
11
5.96148
21
-4.59747
0
LINE
8
BLACK
6
CONTINUOUS
10
5.96148
20
-4.59747
11
5.96242
21
-4.59728
0
LINE
8
BLACK
6
CONTINUOUS
10
5.96242
20
-4.59728
11
5.98998
21
-4.59728
0
LINE
8
BLACK
6
CONTINUOUS
10
5.98998
20
-4.59728
11
5.99092
21
-4.59747
0
LINE
8
BLACK
6
CONTINUOUS
10
6.14956
20
-4.5806
11
6.15145
21
-4.58186
0
LINE
8
BLACK
6
CONTINUOUS
10
6.15145
20
-4.58186
11
6.15271
21
-4.58374
0
LINE
8
BLACK
6
CONTINUOUS
10
6.15271
20
-4.58374
11
6.15315
21
-4.58596
0
LINE
8
BLACK
6
CONTINUOUS
10
6.15315
20
-4.58596
11
6.15315
21
-4.59758
0
LINE
8
BLACK
6
CONTINUOUS
10
6.15315
20
-4.59758
11
6.15271
21
-4.5998
0
LINE
8
BLACK
6
CONTINUOUS
10
6.15271
20
-4.5998
11
6.15145
21
-4.60168
0
LINE
8
BLACK
6
CONTINUOUS
10
6.15145
20
-4.60168
11
6.14956
21
-4.60294
0
LINE
8
BLACK
6
CONTINUOUS
10
6.14956
20
-4.60294
11
6.14734
21
-4.60339
0
LINE
8
BLACK
6
CONTINUOUS
10
6.14734
20
-4.60339
11
6.13376
21
-4.60339
0
LINE
8
BLACK
6
CONTINUOUS
10
6.13376
20
-4.60339
11
6.13154
21
-4.60294
0
LINE
8
BLACK
6
CONTINUOUS
10
6.13154
20
-4.60294
11
6.12965
21
-4.60168
0
LINE
8
BLACK
6
CONTINUOUS
10
6.12965
20
-4.60168
11
6.12839
21
-4.5998
0
LINE
8
BLACK
6
CONTINUOUS
10
6.12839
20
-4.5998
11
6.12795
21
-4.59758
0
LINE
8
BLACK
6
CONTINUOUS
10
6.12795
20
-4.59758
11
6.12795
21
-4.58596
0
LINE
8
BLACK
6
CONTINUOUS
10
6.12795
20
-4.58596
11
6.12839
21
-4.58374
0
LINE
8
BLACK
6
CONTINUOUS
10
6.12839
20
-4.58374
11
6.12965
21
-4.58186
0
LINE
8
BLACK
6
CONTINUOUS
10
6.12965
20
-4.58186
11
6.13154
21
-4.5806
0
LINE
8
BLACK
6
CONTINUOUS
10
6.13154
20
-4.5806
11
6.13376
21
-4.58016
0
LINE
8
BLACK
6
CONTINUOUS
10
6.13376
20
-4.58016
11
6.14734
21
-4.58016
0
LINE
8
BLACK
6
CONTINUOUS
10
6.14734
20
-4.58016
11
6.14956
21
-4.5806
0
LINE
8
BLACK
6
CONTINUOUS
10
5.99092
20
-4.57779
11
5.99172
21
-4.57832
0
LINE
8
BLACK
6
CONTINUOUS
10
5.99172
20
-4.57832
11
5.99225
21
-4.57912
0
LINE
8
BLACK
6
CONTINUOUS
10
5.99225
20
-4.57912
11
5.99244
21
-4.58006
0
LINE
8
BLACK
6
CONTINUOUS
10
5.99244
20
-4.58006
11
5.99244
21
-4.58498
0
LINE
8
BLACK
6
CONTINUOUS
10
5.99244
20
-4.58498
11
5.99225
21
-4.58592
0
LINE
8
BLACK
6
CONTINUOUS
10
5.99225
20
-4.58592
11
5.99172
21
-4.58672
0
LINE
8
BLACK
6
CONTINUOUS
10
5.99172
20
-4.58672
11
5.99092
21
-4.58725
0
LINE
8
BLACK
6
CONTINUOUS
10
5.99092
20
-4.58725
11
5.98998
21
-4.58744
0
LINE
8
BLACK
6
CONTINUOUS
10
5.98998
20
-4.58744
11
5.96242
21
-4.58744
0
LINE
8
BLACK
6
CONTINUOUS
10
5.96242
20
-4.58744
11
5.96148
21
-4.58725
0
LINE
8
BLACK
6
CONTINUOUS
10
5.96148
20
-4.58725
11
5.96068
21
-4.58672
0
LINE
8
BLACK
6
CONTINUOUS
10
5.96068
20
-4.58672
11
5.96015
21
-4.58592
0
LINE
8
BLACK
6
CONTINUOUS
10
5.96015
20
-4.58592
11
5.95996
21
-4.58498
0
LINE
8
BLACK
6
CONTINUOUS
10
5.95996
20
-4.58498
11
5.95996
21
-4.58006
0
LINE
8
BLACK
6
CONTINUOUS
10
5.95996
20
-4.58006
11
5.96015
21
-4.57912
0
LINE
8
BLACK
6
CONTINUOUS
10
5.96015
20
-4.57912
11
5.96068
21
-4.57832
0
LINE
8
BLACK
6
CONTINUOUS
10
5.96068
20
-4.57832
11
5.96148
21
-4.57779
0
LINE
8
BLACK
6
CONTINUOUS
10
5.96148
20
-4.57779
11
5.96242
21
-4.5776
0
LINE
8
BLACK
6
CONTINUOUS
10
5.96242
20
-4.5776
11
5.98998
21
-4.5776
0
LINE
8
BLACK
6
CONTINUOUS
10
5.98998
20
-4.5776
11
5.99092
21
-4.57779
0
LINE
8
BLACK
6
CONTINUOUS
10
5.83836
20
-4.57779
11
5.83916
21
-4.57832
0
LINE
8
BLACK
6
CONTINUOUS
10
5.83916
20
-4.57832
11
5.83969
21
-4.57912
0
LINE
8
BLACK
6
CONTINUOUS
10
5.83969
20
-4.57912
11
5.83988
21
-4.58006
0
LINE
8
BLACK
6
CONTINUOUS
10
5.83988
20
-4.58006
11
5.83988
21
-4.58498
0
LINE
8
BLACK
6
CONTINUOUS
10
5.83988
20
-4.58498
11
5.83969
21
-4.58592
0
LINE
8
BLACK
6
CONTINUOUS
10
5.83969
20
-4.58592
11
5.83916
21
-4.58672
0
LINE
8
BLACK
6
CONTINUOUS
10
5.83916
20
-4.58672
11
5.83836
21
-4.58725
0
LINE
8
BLACK
6
CONTINUOUS
10
5.83836
20
-4.58725
11
5.83742
21
-4.58744
0
LINE
8
BLACK
6
CONTINUOUS
10
5.83742
20
-4.58744
11
5.80986
21
-4.58744
0
LINE
8
BLACK
6
CONTINUOUS
10
5.80986
20
-4.58744
11
5.80892
21
-4.58725
0
LINE
8
BLACK
6
CONTINUOUS
10
5.80892
20
-4.58725
11
5.80812
21
-4.58672
0
LINE
8
BLACK
6
CONTINUOUS
10
5.80812
20
-4.58672
11
5.80759
21
-4.58592
0
LINE
8
BLACK
6
CONTINUOUS
10
5.80759
20
-4.58592
11
5.8074
21
-4.58498
0
LINE
8
BLACK
6
CONTINUOUS
10
5.8074
20
-4.58498
11
5.8074
21
-4.58006
0
LINE
8
BLACK
6
CONTINUOUS
10
5.8074
20
-4.58006
11
5.80759
21
-4.57912
0
LINE
8
BLACK
6
CONTINUOUS
10
5.80759
20
-4.57912
11
5.80812
21
-4.57832
0
LINE
8
BLACK
6
CONTINUOUS
10
5.80812
20
-4.57832
11
5.80892
21
-4.57779
0
LINE
8
BLACK
6
CONTINUOUS
10
5.80892
20
-4.57779
11
5.80986
21
-4.5776
0
LINE
8
BLACK
6
CONTINUOUS
10
5.80986
20
-4.5776
11
5.83742
21
-4.5776
0
LINE
8
BLACK
6
CONTINUOUS
10
5.83742
20
-4.5776
11
5.83836
21
-4.57779
0
LINE
8
BLACK
6
CONTINUOUS
10
5.85411
20
-4.5394
11
5.85491
21
-4.53993
0
LINE
8
BLACK
6
CONTINUOUS
10
5.85491
20
-4.53993
11
5.85544
21
-4.54073
0
LINE
8
BLACK
6
CONTINUOUS
10
5.85544
20
-4.54073
11
5.85563
21
-4.54167
0
LINE
8
BLACK
6
CONTINUOUS
10
5.85563
20
-4.54167
11
5.85563
21
-4.56923
0
LINE
8
BLACK
6
CONTINUOUS
10
5.85563
20
-4.56923
11
5.85544
21
-4.57017
0
LINE
8
BLACK
6
CONTINUOUS
10
5.85544
20
-4.57017
11
5.85491
21
-4.57097
0
LINE
8
BLACK
6
CONTINUOUS
10
5.85491
20
-4.57097
11
5.85411
21
-4.57151
0
LINE
8
BLACK
6
CONTINUOUS
10
5.85411
20
-4.57151
11
5.85317
21
-4.57169
0
LINE
8
BLACK
6
CONTINUOUS
10
5.85317
20
-4.57169
11
5.84825
21
-4.57169
0
LINE
8
BLACK
6
CONTINUOUS
10
5.84825
20
-4.57169
11
5.84731
21
-4.57151
0
LINE
8
BLACK
6
CONTINUOUS
10
5.84731
20
-4.57151
11
5.84651
21
-4.57097
0
LINE
8
BLACK
6
CONTINUOUS
10
5.84651
20
-4.57097
11
5.84597
21
-4.57017
0
LINE
8
BLACK
6
CONTINUOUS
10
5.84597
20
-4.57017
11
5.84579
21
-4.56923
0
LINE
8
BLACK
6
CONTINUOUS
10
5.84579
20
-4.56923
11
5.84579
21
-4.54167
0
LINE
8
BLACK
6
CONTINUOUS
10
5.84579
20
-4.54167
11
5.84597
21
-4.54073
0
LINE
8
BLACK
6
CONTINUOUS
10
5.84597
20
-4.54073
11
5.84651
21
-4.53993
0
LINE
8
BLACK
6
CONTINUOUS
10
5.84651
20
-4.53993
11
5.84731
21
-4.5394
0
LINE
8
BLACK
6
CONTINUOUS
10
5.84731
20
-4.5394
11
5.84825
21
-4.53921
0
LINE
8
BLACK
6
CONTINUOUS
10
5.84825
20
-4.53921
11
5.85317
21
-4.53921
0
LINE
8
BLACK
6
CONTINUOUS
10
5.85317
20
-4.53921
11
5.85411
21
-4.5394
0
LINE
8
BLACK
6
CONTINUOUS
10
5.8738
20
-4.5394
11
5.87459
21
-4.53993
0
LINE
8
BLACK
6
CONTINUOUS
10
5.87459
20
-4.53993
11
5.87513
21
-4.54073
0
LINE
8
BLACK
6
CONTINUOUS
10
5.87513
20
-4.54073
11
5.87531
21
-4.54167
0
LINE
8
BLACK
6
CONTINUOUS
10
5.87531
20
-4.54167
11
5.87531
21
-4.56923
0
LINE
8
BLACK
6
CONTINUOUS
10
5.87531
20
-4.56923
11
5.87513
21
-4.57017
0
LINE
8
BLACK
6
CONTINUOUS
10
5.87513
20
-4.57017
11
5.87459
21
-4.57097
0
LINE
8
BLACK
6
CONTINUOUS
10
5.87459
20
-4.57097
11
5.8738
21
-4.57151
0
LINE
8
BLACK
6
CONTINUOUS
10
5.8738
20
-4.57151
11
5.87285
21
-4.57169
0
LINE
8
BLACK
6
CONTINUOUS
10
5.87285
20
-4.57169
11
5.86793
21
-4.57169
0
LINE
8
BLACK
6
CONTINUOUS
10
5.86793
20
-4.57169
11
5.86699
21
-4.57151
0
LINE
8
BLACK
6
CONTINUOUS
10
5.86699
20
-4.57151
11
5.86619
21
-4.57097
0
LINE
8
BLACK
6
CONTINUOUS
10
5.86619
20
-4.57097
11
5.86566
21
-4.57017
0
LINE
8
BLACK
6
CONTINUOUS
10
5.86566
20
-4.57017
11
5.86547
21
-4.56923
0
LINE
8
BLACK
6
CONTINUOUS
10
5.86547
20
-4.56923
11
5.86547
21
-4.54167
0
LINE
8
BLACK
6
CONTINUOUS
10
5.86547
20
-4.54167
11
5.86566
21
-4.54073
0
LINE
8
BLACK
6
CONTINUOUS
10
5.86566
20
-4.54073
11
5.86619
21
-4.53993
0
LINE
8
BLACK
6
CONTINUOUS
10
5.86619
20
-4.53993
11
5.86699
21
-4.5394
0
LINE
8
BLACK
6
CONTINUOUS
10
5.86699
20
-4.5394
11
5.86793
21
-4.53921
0
LINE
8
BLACK
6
CONTINUOUS
10
5.86793
20
-4.53921
11
5.87285
21
-4.53921
0
LINE
8
BLACK
6
CONTINUOUS
10
5.87285
20
-4.53921
11
5.8738
21
-4.5394
0
LINE
8
BLACK
6
CONTINUOUS
10
5.89348
20
-4.5394
11
5.89428
21
-4.53993
0
LINE
8
BLACK
6
CONTINUOUS
10
5.89428
20
-4.53993
11
5.89481
21
-4.54073
0
LINE
8
BLACK
6
CONTINUOUS
10
5.89481
20
-4.54073
11
5.895
21
-4.54167
0
LINE
8
BLACK
6
CONTINUOUS
10
5.895
20
-4.54167
11
5.895
21
-4.56923
0
LINE
8
BLACK
6
CONTINUOUS
10
5.895
20
-4.56923
11
5.89481
21
-4.57017
0
LINE
8
BLACK
6
CONTINUOUS
10
5.89481
20
-4.57017
11
5.89428
21
-4.57097
0
LINE
8
BLACK
6
CONTINUOUS
10
5.89428
20
-4.57097
11
5.89348
21
-4.57151
0
LINE
8
BLACK
6
CONTINUOUS
10
5.89348
20
-4.57151
11
5.89254
21
-4.57169
0
LINE
8
BLACK
6
CONTINUOUS
10
5.89254
20
-4.57169
11
5.88762
21
-4.57169
0
LINE
8
BLACK
6
CONTINUOUS
10
5.88762
20
-4.57169
11
5.88668
21
-4.57151
0
LINE
8
BLACK
6
CONTINUOUS
10
5.88668
20
-4.57151
11
5.88588
21
-4.57097
0
LINE
8
BLACK
6
CONTINUOUS
10
5.88588
20
-4.57097
11
5.88534
21
-4.57017
0
LINE
8
BLACK
6
CONTINUOUS
10
5.88534
20
-4.57017
11
5.88516
21
-4.56923
0
LINE
8
BLACK
6
CONTINUOUS
10
5.88516
20
-4.56923
11
5.88516
21
-4.54167
0
LINE
8
BLACK
6
CONTINUOUS
10
5.88516
20
-4.54167
11
5.88534
21
-4.54073
0
LINE
8
BLACK
6
CONTINUOUS
10
5.88534
20
-4.54073
11
5.88588
21
-4.53993
0
LINE
8
BLACK
6
CONTINUOUS
10
5.88588
20
-4.53993
11
5.88668
21
-4.5394
0
LINE
8
BLACK
6
CONTINUOUS
10
5.88668
20
-4.5394
11
5.88762
21
-4.53921
0
LINE
8
BLACK
6
CONTINUOUS
10
5.88762
20
-4.53921
11
5.89254
21
-4.53921
0
LINE
8
BLACK
6
CONTINUOUS
10
5.89254
20
-4.53921
11
5.89348
21
-4.5394
0
LINE
8
BLACK
6
CONTINUOUS
10
5.91317
20
-4.5394
11
5.91396
21
-4.53993
0
LINE
8
BLACK
6
CONTINUOUS
10
5.91396
20
-4.53993
11
5.9145
21
-4.54073
0
LINE
8
BLACK
6
CONTINUOUS
10
5.9145
20
-4.54073
11
5.91469
21
-4.54167
0
LINE
8
BLACK
6
CONTINUOUS
10
5.91469
20
-4.54167
11
5.91469
21
-4.56923
0
LINE
8
BLACK
6
CONTINUOUS
10
5.91469
20
-4.56923
11
5.9145
21
-4.57017
0
LINE
8
BLACK
6
CONTINUOUS
10
5.9145
20
-4.57017
11
5.91396
21
-4.57097
0
LINE
8
BLACK
6
CONTINUOUS
10
5.91396
20
-4.57097
11
5.91317
21
-4.57151
0
LINE
8
BLACK
6
CONTINUOUS
10
5.91317
20
-4.57151
11
5.91222
21
-4.57169
0
LINE
8
BLACK
6
CONTINUOUS
10
5.91222
20
-4.57169
11
5.9073
21
-4.57169
0
LINE
8
BLACK
6
CONTINUOUS
10
5.9073
20
-4.57169
11
5.90636
21
-4.57151
0
LINE
8
BLACK
6
CONTINUOUS
10
5.90636
20
-4.57151
11
5.90556
21
-4.57097
0
LINE
8
BLACK
6
CONTINUOUS
10
5.90556
20
-4.57097
11
5.90503
21
-4.57017
0
LINE
8
BLACK
6
CONTINUOUS
10
5.90503
20
-4.57017
11
5.90484
21
-4.56923
0
LINE
8
BLACK
6
CONTINUOUS
10
5.90484
20
-4.56923
11
5.90484
21
-4.54167
0
LINE
8
BLACK
6
CONTINUOUS
10
5.90484
20
-4.54167
11
5.90503
21
-4.54073
0
LINE
8
BLACK
6
CONTINUOUS
10
5.90503
20
-4.54073
11
5.90556
21
-4.53993
0
LINE
8
BLACK
6
CONTINUOUS
10
5.90556
20
-4.53993
11
5.90636
21
-4.5394
0
LINE
8
BLACK
6
CONTINUOUS
10
5.90636
20
-4.5394
11
5.9073
21
-4.53921
0
LINE
8
BLACK
6
CONTINUOUS
10
5.9073
20
-4.53921
11
5.91222
21
-4.53921
0
LINE
8
BLACK
6
CONTINUOUS
10
5.91222
20
-4.53921
11
5.91317
21
-4.5394
0
LINE
8
BLACK
6
CONTINUOUS
10
5.93285
20
-4.5394
11
5.93365
21
-4.53993
0
LINE
8
BLACK
6
CONTINUOUS
10
5.93365
20
-4.53993
11
5.93418
21
-4.54073
0
LINE
8
BLACK
6
CONTINUOUS
10
5.93418
20
-4.54073
11
5.93437
21
-4.54167
0
LINE
8
BLACK
6
CONTINUOUS
10
5.93437
20
-4.54167
11
5.93437
21
-4.56923
0
LINE
8
BLACK
6
CONTINUOUS
10
5.93437
20
-4.56923
11
5.93418
21
-4.57017
0
LINE
8
BLACK
6
CONTINUOUS
10
5.93418
20
-4.57017
11
5.93365
21
-4.57097
0
LINE
8
BLACK
6
CONTINUOUS
10
5.93365
20
-4.57097
11
5.93285
21
-4.57151
0
LINE
8
BLACK
6
CONTINUOUS
10
5.93285
20
-4.57151
11
5.93191
21
-4.57169
0
LINE
8
BLACK
6
CONTINUOUS
10
5.93191
20
-4.57169
11
5.92699
21
-4.57169
0
LINE
8
BLACK
6
CONTINUOUS
10
5.92699
20
-4.57169
11
5.92605
21
-4.57151
0
LINE
8
BLACK
6
CONTINUOUS
10
5.92605
20
-4.57151
11
5.92525
21
-4.57097
0
LINE
8
BLACK
6
CONTINUOUS
10
5.92525
20
-4.57097
11
5.92471
21
-4.57017
0
LINE
8
BLACK
6
CONTINUOUS
10
5.92471
20
-4.57017
11
5.92453
21
-4.56923
0
LINE
8
BLACK
6
CONTINUOUS
10
5.92453
20
-4.56923
11
5.92453
21
-4.54167
0
LINE
8
BLACK
6
CONTINUOUS
10
5.92453
20
-4.54167
11
5.92471
21
-4.54073
0
LINE
8
BLACK
6
CONTINUOUS
10
5.92471
20
-4.54073
11
5.92525
21
-4.53993
0
LINE
8
BLACK
6
CONTINUOUS
10
5.92525
20
-4.53993
11
5.92605
21
-4.5394
0
LINE
8
BLACK
6
CONTINUOUS
10
5.92605
20
-4.5394
11
5.92699
21
-4.53921
0
LINE
8
BLACK
6
CONTINUOUS
10
5.92699
20
-4.53921
11
5.93191
21
-4.53921
0
LINE
8
BLACK
6
CONTINUOUS
10
5.93191
20
-4.53921
11
5.93285
21
-4.5394
0
LINE
8
BLACK
6
CONTINUOUS
10
5.95254
20
-4.5394
11
5.95333
21
-4.53993
0
LINE
8
BLACK
6
CONTINUOUS
10
5.95333
20
-4.53993
11
5.95387
21
-4.54073
0
LINE
8
BLACK
6
CONTINUOUS
10
5.95387
20
-4.54073
11
5.95406
21
-4.54167
0
LINE
8
BLACK
6
CONTINUOUS
10
5.95406
20
-4.54167
11
5.95406
21
-4.56923
0
LINE
8
BLACK
6
CONTINUOUS
10
5.95406
20
-4.56923
11
5.95387
21
-4.57017
0
LINE
8
BLACK
6
CONTINUOUS
10
5.95387
20
-4.57017
11
5.95333
21
-4.57097
0
LINE
8
BLACK
6
CONTINUOUS
10
5.95333
20
-4.57097
11
5.95254
21
-4.57151
0
LINE
8
BLACK
6
CONTINUOUS
10
5.95254
20
-4.57151
11
5.95159
21
-4.57169
0
LINE
8
BLACK
6
CONTINUOUS
10
5.95159
20
-4.57169
11
5.94667
21
-4.57169
0
LINE
8
BLACK
6
CONTINUOUS
10
5.94667
20
-4.57169
11
5.94573
21
-4.57151
0
LINE
8
BLACK
6
CONTINUOUS
10
5.94573
20
-4.57151
11
5.94493
21
-4.57097
0
LINE
8
BLACK
6
CONTINUOUS
10
5.94493
20
-4.57097
11
5.9444
21
-4.57017
0
LINE
8
BLACK
6
CONTINUOUS
10
5.9444
20
-4.57017
11
5.94421
21
-4.56923
0
LINE
8
BLACK
6
CONTINUOUS
10
5.94421
20
-4.56923
11
5.94421
21
-4.54167
0
LINE
8
BLACK
6
CONTINUOUS
10
5.94421
20
-4.54167
11
5.9444
21
-4.54073
0
LINE
8
BLACK
6
CONTINUOUS
10
5.9444
20
-4.54073
11
5.94493
21
-4.53993
0
LINE
8
BLACK
6
CONTINUOUS
10
5.94493
20
-4.53993
11
5.94573
21
-4.5394
0
LINE
8
BLACK
6
CONTINUOUS
10
5.94573
20
-4.5394
11
5.94667
21
-4.53921
0
LINE
8
BLACK
6
CONTINUOUS
10
5.94667
20
-4.53921
11
5.95159
21
-4.53921
0
LINE
8
BLACK
6
CONTINUOUS
10
5.95159
20
-4.53921
11
5.95254
21
-4.5394
0
LINE
8
BLACK
6
CONTINUOUS
10
6.14956
20
-4.54241
11
6.15145
21
-4.54367
0
LINE
8
BLACK
6
CONTINUOUS
10
6.15145
20
-4.54367
11
6.15271
21
-4.54555
0
LINE
8
BLACK
6
CONTINUOUS
10
6.15271
20
-4.54555
11
6.15315
21
-4.54778
0
LINE
8
BLACK
6
CONTINUOUS
10
6.15315
20
-4.54778
11
6.15315
21
-4.55939
0
LINE
8
BLACK
6
CONTINUOUS
10
6.15315
20
-4.55939
11
6.15271
21
-4.56161
0
LINE
8
BLACK
6
CONTINUOUS
10
6.15271
20
-4.56161
11
6.15145
21
-4.5635
0
LINE
8
BLACK
6
CONTINUOUS
10
6.15145
20
-4.5635
11
6.14956
21
-4.56475
0
LINE
8
BLACK
6
CONTINUOUS
10
6.14956
20
-4.56475
11
6.14734
21
-4.5652
0
LINE
8
BLACK
6
CONTINUOUS
10
6.14734
20
-4.5652
11
6.13376
21
-4.5652
0
LINE
8
BLACK
6
CONTINUOUS
10
6.13376
20
-4.5652
11
6.13154
21
-4.56475
0
LINE
8
BLACK
6
CONTINUOUS
10
6.13154
20
-4.56475
11
6.12965
21
-4.5635
0
LINE
8
BLACK
6
CONTINUOUS
10
6.12965
20
-4.5635
11
6.12839
21
-4.56161
0
LINE
8
BLACK
6
CONTINUOUS
10
6.12839
20
-4.56161
11
6.12795
21
-4.55939
0
LINE
8
BLACK
6
CONTINUOUS
10
6.12795
20
-4.55939
11
6.12795
21
-4.54778
0
LINE
8
BLACK
6
CONTINUOUS
10
6.12795
20
-4.54778
11
6.12839
21
-4.54555
0
LINE
8
BLACK
6
CONTINUOUS
10
6.12839
20
-4.54555
11
6.12965
21
-4.54367
0
LINE
8
BLACK
6
CONTINUOUS
10
6.12965
20
-4.54367
11
6.13154
21
-4.54241
0
LINE
8
BLACK
6
CONTINUOUS
10
6.13154
20
-4.54241
11
6.13376
21
-4.54197
0
LINE
8
BLACK
6
CONTINUOUS
10
6.13376
20
-4.54197
11
6.14734
21
-4.54197
0
LINE
8
BLACK
6
CONTINUOUS
10
6.14734
20
-4.54197
11
6.14956
21
-4.54241
0
LINE
8
BLACK
6
CONTINUOUS
10
6.37348
20
-4.51827
11
6.37651
21
-4.5203
0
LINE
8
BLACK
6
CONTINUOUS
10
6.37651
20
-4.5203
11
6.37854
21
-4.52333
0
LINE
8
BLACK
6
CONTINUOUS
10
6.37854
20
-4.52333
11
6.37925
21
-4.52691
0
LINE
8
BLACK
6
CONTINUOUS
10
6.37925
20
-4.52691
11
6.37925
21
-4.54955
0
LINE
8
BLACK
6
CONTINUOUS
10
6.37925
20
-4.54955
11
6.37854
21
-4.55313
0
LINE
8
BLACK
6
CONTINUOUS
10
6.37854
20
-4.55313
11
6.37651
21
-4.55616
0
LINE
8
BLACK
6
CONTINUOUS
10
6.37651
20
-4.55616
11
6.37348
21
-4.55819
0
LINE
8
BLACK
6
CONTINUOUS
10
6.37348
20
-4.55819
11
6.3699
21
-4.5589
0
LINE
8
BLACK
6
CONTINUOUS
10
6.3699
20
-4.5589
11
6.3512
21
-4.5589
0
LINE
8
BLACK
6
CONTINUOUS
10
6.3512
20
-4.5589
11
6.34762
21
-4.55819
0
LINE
8
BLACK
6
CONTINUOUS
10
6.34762
20
-4.55819
11
6.34459
21
-4.55616
0
LINE
8
BLACK
6
CONTINUOUS
10
6.34459
20
-4.55616
11
6.34256
21
-4.55313
0
LINE
8
BLACK
6
CONTINUOUS
10
6.34256
20
-4.55313
11
6.34185
21
-4.54955
0
LINE
8
BLACK
6
CONTINUOUS
10
6.34185
20
-4.54955
11
6.34185
21
-4.52691
0
LINE
8
BLACK
6
CONTINUOUS
10
6.34185
20
-4.52691
11
6.34256
21
-4.52333
0
LINE
8
BLACK
6
CONTINUOUS
10
6.34256
20
-4.52333
11
6.34459
21
-4.5203
0
LINE
8
BLACK
6
CONTINUOUS
10
6.34459
20
-4.5203
11
6.34762
21
-4.51827
0
LINE
8
BLACK
6
CONTINUOUS
10
6.34762
20
-4.51827
11
6.3512
21
-4.51756
0
LINE
8
BLACK
6
CONTINUOUS
10
6.3512
20
-4.51756
11
6.3699
21
-4.51756
0
LINE
8
BLACK
6
CONTINUOUS
10
6.3699
20
-4.51756
11
6.37348
21
-4.51827
0
LINE
8
BLACK
6
CONTINUOUS
10
6.2899
20
-4.52201
11
6.29293
21
-4.52404
0
LINE
8
BLACK
6
CONTINUOUS
10
6.29293
20
-4.52404
11
6.29496
21
-4.52707
0
LINE
8
BLACK
6
CONTINUOUS
10
6.29496
20
-4.52707
11
6.29567
21
-4.53065
0
LINE
8
BLACK
6
CONTINUOUS
10
6.29567
20
-4.53065
11
6.29567
21
-4.54935
0
LINE
8
BLACK
6
CONTINUOUS
10
6.29567
20
-4.54935
11
6.29496
21
-4.55293
0
LINE
8
BLACK
6
CONTINUOUS
10
6.29496
20
-4.55293
11
6.29293
21
-4.55596
0
LINE
8
BLACK
6
CONTINUOUS
10
6.29293
20
-4.55596
11
6.2899
21
-4.55799
0
LINE
8
BLACK
6
CONTINUOUS
10
6.2899
20
-4.55799
11
6.28632
21
-4.5587
0
LINE
8
BLACK
6
CONTINUOUS
10
6.28632
20
-4.5587
11
6.26368
21
-4.5587
0
LINE
8
BLACK
6
CONTINUOUS
10
6.26368
20
-4.5587
11
6.2601
21
-4.55799
0
LINE
8
BLACK
6
CONTINUOUS
10
6.2601
20
-4.55799
11
6.25707
21
-4.55596
0
LINE
8
BLACK
6
CONTINUOUS
10
6.25707
20
-4.55596
11
6.25504
21
-4.55293
0
LINE
8
BLACK
6
CONTINUOUS
10
6.25504
20
-4.55293
11
6.25433
21
-4.54935
0
LINE
8
BLACK
6
CONTINUOUS
10
6.25433
20
-4.54935
11
6.25433
21
-4.53065
0
LINE
8
BLACK
6
CONTINUOUS
10
6.25433
20
-4.53065
11
6.25504
21
-4.52707
0
LINE
8
BLACK
6
CONTINUOUS
10
6.25504
20
-4.52707
11
6.25707
21
-4.52404
0
LINE
8
BLACK
6
CONTINUOUS
10
6.25707
20
-4.52404
11
6.2601
21
-4.52201
0
LINE
8
BLACK
6
CONTINUOUS
10
6.2601
20
-4.52201
11
6.26368
21
-4.5213
0
LINE
8
BLACK
6
CONTINUOUS
10
6.26368
20
-4.5213
11
6.28632
21
-4.5213
0
LINE
8
BLACK
6
CONTINUOUS
10
6.28632
20
-4.5213
11
6.2899
21
-4.52201
0
LINE
8
BLACK
6
CONTINUOUS
10
6.221
20
-4.52201
11
6.22403
21
-4.52404
0
LINE
8
BLACK
6
CONTINUOUS
10
6.22403
20
-4.52404
11
6.22606
21
-4.52707
0
LINE
8
BLACK
6
CONTINUOUS
10
6.22606
20
-4.52707
11
6.22677
21
-4.53065
0
LINE
8
BLACK
6
CONTINUOUS
10
6.22677
20
-4.53065
11
6.22677
21
-4.54935
0
LINE
8
BLACK
6
CONTINUOUS
10
6.22677
20
-4.54935
11
6.22606
21
-4.55293
0
LINE
8
BLACK
6
CONTINUOUS
10
6.22606
20
-4.55293
11
6.22403
21
-4.55596
0
LINE
8
BLACK
6
CONTINUOUS
10
6.22403
20
-4.55596
11
6.221
21
-4.55799
0
LINE
8
BLACK
6
CONTINUOUS
10
6.221
20
-4.55799
11
6.21742
21
-4.5587
0
LINE
8
BLACK
6
CONTINUOUS
10
6.21742
20
-4.5587
11
6.19478
21
-4.5587
0
LINE
8
BLACK
6
CONTINUOUS
10
6.19478
20
-4.5587
11
6.19121
21
-4.55799
0
LINE
8
BLACK
6
CONTINUOUS
10
6.19121
20
-4.55799
11
6.18817
21
-4.55596
0
LINE
8
BLACK
6
CONTINUOUS
10
6.18817
20
-4.55596
11
6.18614
21
-4.55293
0
LINE
8
BLACK
6
CONTINUOUS
10
6.18614
20
-4.55293
11
6.18543
21
-4.54935
0
LINE
8
BLACK
6
CONTINUOUS
10
6.18543
20
-4.54935
11
6.18543
21
-4.53065
0
LINE
8
BLACK
6
CONTINUOUS
10
6.18543
20
-4.53065
11
6.18614
21
-4.52707
0
LINE
8
BLACK
6
CONTINUOUS
10
6.18614
20
-4.52707
11
6.18817
21
-4.52404
0
LINE
8
BLACK
6
CONTINUOUS
10
6.18817
20
-4.52404
11
6.19121
21
-4.52201
0
LINE
8
BLACK
6
CONTINUOUS
10
6.19121
20
-4.52201
11
6.19478
21
-4.5213
0
LINE
8
BLACK
6
CONTINUOUS
10
6.19478
20
-4.5213
11
6.21742
21
-4.5213
0
LINE
8
BLACK
6
CONTINUOUS
10
6.21742
20
-4.5213
11
6.221
21
-4.52201
0
LINE
8
BLACK
6
CONTINUOUS
10
5.72387
20
-4.51433
11
5.72691
21
-4.51636
0
LINE
8
BLACK
6
CONTINUOUS
10
5.72691
20
-4.51636
11
5.72893
21
-4.51939
0
LINE
8
BLACK
6
CONTINUOUS
10
5.72893
20
-4.51939
11
5.72965
21
-4.52297
0
LINE
8
BLACK
6
CONTINUOUS
10
5.72965
20
-4.52297
11
5.72965
21
-4.54561
0
LINE
8
BLACK
6
CONTINUOUS
10
5.72965
20
-4.54561
11
5.72893
21
-4.54919
0
LINE
8
BLACK
6
CONTINUOUS
10
5.72893
20
-4.54919
11
5.72691
21
-4.55222
0
LINE
8
BLACK
6
CONTINUOUS
10
5.72691
20
-4.55222
11
5.72387
21
-4.55425
0
LINE
8
BLACK
6
CONTINUOUS
10
5.72387
20
-4.55425
11
5.7203
21
-4.55496
0
LINE
8
BLACK
6
CONTINUOUS
10
5.7203
20
-4.55496
11
5.70159
21
-4.55496
0
LINE
8
BLACK
6
CONTINUOUS
10
5.70159
20
-4.55496
11
5.69802
21
-4.55425
0
LINE
8
BLACK
6
CONTINUOUS
10
5.69802
20
-4.55425
11
5.69498
21
-4.55222
0
LINE
8
BLACK
6
CONTINUOUS
10
5.69498
20
-4.55222
11
5.69296
21
-4.54919
0
LINE
8
BLACK
6
CONTINUOUS
10
5.69296
20
-4.54919
11
5.69224
21
-4.54561
0
LINE
8
BLACK
6
CONTINUOUS
10
5.69224
20
-4.54561
11
5.69224
21
-4.52297
0
LINE
8
BLACK
6
CONTINUOUS
10
5.69224
20
-4.52297
11
5.69296
21
-4.51939
0
LINE
8
BLACK
6
CONTINUOUS
10
5.69296
20
-4.51939
11
5.69498
21
-4.51636
0
LINE
8
BLACK
6
CONTINUOUS
10
5.69498
20
-4.51636
11
5.69802
21
-4.51433
0
LINE
8
BLACK
6
CONTINUOUS
10
5.69802
20
-4.51433
11
5.70159
21
-4.51362
0
LINE
8
BLACK
6
CONTINUOUS
10
5.70159
20
-4.51362
11
5.7203
21
-4.51362
0
LINE
8
BLACK
6
CONTINUOUS
10
5.7203
20
-4.51362
11
5.72387
21
-4.51433
0
LINE
8
BLACK
6
CONTINUOUS
10
5.66088
20
-4.51433
11
5.66391
21
-4.51636
0
LINE
8
BLACK
6
CONTINUOUS
10
5.66391
20
-4.51636
11
5.66594
21
-4.51939
0
LINE
8
BLACK
6
CONTINUOUS
10
5.66594
20
-4.51939
11
5.66665
21
-4.52297
0
LINE
8
BLACK
6
CONTINUOUS
10
5.66665
20
-4.52297
11
5.66665
21
-4.54561
0
LINE
8
BLACK
6
CONTINUOUS
10
5.66665
20
-4.54561
11
5.66594
21
-4.54919
0
LINE
8
BLACK
6
CONTINUOUS
10
5.66594
20
-4.54919
11
5.66391
21
-4.55222
0
LINE
8
BLACK
6
CONTINUOUS
10
5.66391
20
-4.55222
11
5.66088
21
-4.55425
0
LINE
8
BLACK
6
CONTINUOUS
10
5.66088
20
-4.55425
11
5.6573
21
-4.55496
0
LINE
8
BLACK
6
CONTINUOUS
10
5.6573
20
-4.55496
11
5.6386
21
-4.55496
0
LINE
8
BLACK
6
CONTINUOUS
10
5.6386
20
-4.55496
11
5.63502
21
-4.55425
0
LINE
8
BLACK
6
CONTINUOUS
10
5.63502
20
-4.55425
11
5.63199
21
-4.55222
0
LINE
8
BLACK
6
CONTINUOUS
10
5.63199
20
-4.55222
11
5.62996
21
-4.54919
0
LINE
8
BLACK
6
CONTINUOUS
10
5.62996
20
-4.54919
11
5.62925
21
-4.54561
0
LINE
8
BLACK
6
CONTINUOUS
10
5.62925
20
-4.54561
11
5.62925
21
-4.52297
0
LINE
8
BLACK
6
CONTINUOUS
10
5.62925
20
-4.52297
11
5.62996
21
-4.51939
0
LINE
8
BLACK
6
CONTINUOUS
10
5.62996
20
-4.51939
11
5.63199
21
-4.51636
0
LINE
8
BLACK
6
CONTINUOUS
10
5.63199
20
-4.51636
11
5.63502
21
-4.51433
0
LINE
8
BLACK
6
CONTINUOUS
10
5.63502
20
-4.51433
11
5.6386
21
-4.51362
0
LINE
8
BLACK
6
CONTINUOUS
10
5.6386
20
-4.51362
11
5.6573
21
-4.51362
0
LINE
8
BLACK
6
CONTINUOUS
10
5.6573
20
-4.51362
11
5.66088
21
-4.51433
0
LINE
8
BLACK
6
CONTINUOUS
10
6.66449
20
-4.49992
11
6.66752
21
-4.50195
0
LINE
8
BLACK
6
CONTINUOUS
10
6.66752
20
-4.50195
11
6.66955
21
-4.50498
0
LINE
8
BLACK
6
CONTINUOUS
10
6.66955
20
-4.50498
11
6.67026
21
-4.50856
0
LINE
8
BLACK
6
CONTINUOUS
10
6.67026
20
-4.50856
11
6.67026
21
-4.5312
0
LINE
8
BLACK
6
CONTINUOUS
10
6.67026
20
-4.5312
11
6.66955
21
-4.53478
0
LINE
8
BLACK
6
CONTINUOUS
10
6.66955
20
-4.53478
11
6.66752
21
-4.53781
0
LINE
8
BLACK
6
CONTINUOUS
10
6.66752
20
-4.53781
11
6.66449
21
-4.53984
0
LINE
8
BLACK
6
CONTINUOUS
10
6.66449
20
-4.53984
11
6.66091
21
-4.54055
0
LINE
8
BLACK
6
CONTINUOUS
10
6.66091
20
-4.54055
11
6.64221
21
-4.54055
0
LINE
8
BLACK
6
CONTINUOUS
10
6.64221
20
-4.54055
11
6.63863
21
-4.53984
0
LINE
8
BLACK
6
CONTINUOUS
10
6.63863
20
-4.53984
11
6.6356
21
-4.53781
0
LINE
8
BLACK
6
CONTINUOUS
10
6.6356
20
-4.53781
11
6.63357
21
-4.53478
0
LINE
8
BLACK
6
CONTINUOUS
10
6.63357
20
-4.53478
11
6.63286
21
-4.5312
0
LINE
8
BLACK
6
CONTINUOUS
10
6.63286
20
-4.5312
11
6.63286
21
-4.50856
0
LINE
8
BLACK
6
CONTINUOUS
10
6.63286
20
-4.50856
11
6.63357
21
-4.50498
0
LINE
8
BLACK
6
CONTINUOUS
10
6.63357
20
-4.50498
11
6.6356
21
-4.50195
0
LINE
8
BLACK
6
CONTINUOUS
10
6.6356
20
-4.50195
11
6.63863
21
-4.49992
0
LINE
8
BLACK
6
CONTINUOUS
10
6.63863
20
-4.49992
11
6.64221
21
-4.49921
0
LINE
8
BLACK
6
CONTINUOUS
10
6.64221
20
-4.49921
11
6.66091
21
-4.49921
0
LINE
8
BLACK
6
CONTINUOUS
10
6.66091
20
-4.49921
11
6.66449
21
-4.49992
0
LINE
8
BLACK
6
CONTINUOUS
10
6.53346
20
-4.53783
11
6.51772
21
-4.53783
0
LINE
8
BLACK
6
CONTINUOUS
10
6.51772
20
-4.53783
11
6.51772
21
-4.51224
0
LINE
8
BLACK
6
CONTINUOUS
10
6.51772
20
-4.51224
11
6.53346
21
-4.51224
0
LINE
8
BLACK
6
CONTINUOUS
10
6.53346
20
-4.51224
11
6.53346
21
-4.53783
0
LINE
8
BLACK
6
CONTINUOUS
10
6.48228
20
-4.53783
11
6.46654
21
-4.53783
0
LINE
8
BLACK
6
CONTINUOUS
10
6.46654
20
-4.53783
11
6.46654
21
-4.51224
0
LINE
8
BLACK
6
CONTINUOUS
10
6.46654
20
-4.51224
11
6.48228
21
-4.51224
0
LINE
8
BLACK
6
CONTINUOUS
10
6.48228
20
-4.51224
11
6.48228
21
-4.53783
0
LINE
8
BLACK
6
CONTINUOUS
10
6.50787
20
-4.53783
11
6.49213
21
-4.53783
0
LINE
8
BLACK
6
CONTINUOUS
10
6.49213
20
-4.53783
11
6.49213
21
-4.51224
0
LINE
8
BLACK
6
CONTINUOUS
10
6.49213
20
-4.51224
11
6.50787
21
-4.51224
0
LINE
8
BLACK
6
CONTINUOUS
10
6.50787
20
-4.51224
11
6.50787
21
-4.53783
0
LINE
8
BLACK
6
CONTINUOUS
10
6.81293
20
-4.49449
11
6.81596
21
-4.49652
0
LINE
8
BLACK
6
CONTINUOUS
10
6.81596
20
-4.49652
11
6.81799
21
-4.49955
0
LINE
8
BLACK
6
CONTINUOUS
10
6.81799
20
-4.49955
11
6.8187
21
-4.50313
0
LINE
8
BLACK
6
CONTINUOUS
10
6.8187
20
-4.50313
11
6.8187
21
-4.52577
0
LINE
8
BLACK
6
CONTINUOUS
10
6.8187
20
-4.52577
11
6.81799
21
-4.52935
0
LINE
8
BLACK
6
CONTINUOUS
10
6.81799
20
-4.52935
11
6.81596
21
-4.53238
0
LINE
8
BLACK
6
CONTINUOUS
10
6.81596
20
-4.53238
11
6.81293
21
-4.53441
0
LINE
8
BLACK
6
CONTINUOUS
10
6.81293
20
-4.53441
11
6.80935
21
-4.53512
0
LINE
8
BLACK
6
CONTINUOUS
10
6.80935
20
-4.53512
11
6.79065
21
-4.53512
0
LINE
8
BLACK
6
CONTINUOUS
10
6.79065
20
-4.53512
11
6.78707
21
-4.53441
0
LINE
8
BLACK
6
CONTINUOUS
10
6.78707
20
-4.53441
11
6.78404
21
-4.53238
0
LINE
8
BLACK
6
CONTINUOUS
10
6.78404
20
-4.53238
11
6.78201
21
-4.52935
0
LINE
8
BLACK
6
CONTINUOUS
10
6.78201
20
-4.52935
11
6.7813
21
-4.52577
0
LINE
8
BLACK
6
CONTINUOUS
10
6.7813
20
-4.52577
11
6.7813
21
-4.50313
0
LINE
8
BLACK
6
CONTINUOUS
10
6.7813
20
-4.50313
11
6.78201
21
-4.49955
0
LINE
8
BLACK
6
CONTINUOUS
10
6.78201
20
-4.49955
11
6.78404
21
-4.49652
0
LINE
8
BLACK
6
CONTINUOUS
10
6.78404
20
-4.49652
11
6.78707
21
-4.49449
0
LINE
8
BLACK
6
CONTINUOUS
10
6.78707
20
-4.49449
11
6.79065
21
-4.49378
0
LINE
8
BLACK
6
CONTINUOUS
10
6.79065
20
-4.49378
11
6.80935
21
-4.49378
0
LINE
8
BLACK
6
CONTINUOUS
10
6.80935
20
-4.49378
11
6.81293
21
-4.49449
0
LINE
8
BLACK
6
CONTINUOUS
10
6.66449
20
-4.43103
11
6.66752
21
-4.43305
0
LINE
8
BLACK
6
CONTINUOUS
10
6.66752
20
-4.43305
11
6.66955
21
-4.43609
0
LINE
8
BLACK
6
CONTINUOUS
10
6.66955
20
-4.43609
11
6.67026
21
-4.43967
0
LINE
8
BLACK
6
CONTINUOUS
10
6.67026
20
-4.43967
11
6.67026
21
-4.4623
0
LINE
8
BLACK
6
CONTINUOUS
10
6.67026
20
-4.4623
11
6.66955
21
-4.46588
0
LINE
8
BLACK
6
CONTINUOUS
10
6.66955
20
-4.46588
11
6.66752
21
-4.46891
0
LINE
8
BLACK
6
CONTINUOUS
10
6.66752
20
-4.46891
11
6.66449
21
-4.47094
0
LINE
8
BLACK
6
CONTINUOUS
10
6.66449
20
-4.47094
11
6.66091
21
-4.47165
0
LINE
8
BLACK
6
CONTINUOUS
10
6.66091
20
-4.47165
11
6.64221
21
-4.47165
0
LINE
8
BLACK
6
CONTINUOUS
10
6.64221
20
-4.47165
11
6.63863
21
-4.47094
0
LINE
8
BLACK
6
CONTINUOUS
10
6.63863
20
-4.47094
11
6.6356
21
-4.46891
0
LINE
8
BLACK
6
CONTINUOUS
10
6.6356
20
-4.46891
11
6.63357
21
-4.46588
0
LINE
8
BLACK
6
CONTINUOUS
10
6.63357
20
-4.46588
11
6.63286
21
-4.4623
0
LINE
8
BLACK
6
CONTINUOUS
10
6.63286
20
-4.4623
11
6.63286
21
-4.43967
0
LINE
8
BLACK
6
CONTINUOUS
10
6.63286
20
-4.43967
11
6.63357
21
-4.43609
0
LINE
8
BLACK
6
CONTINUOUS
10
6.63357
20
-4.43609
11
6.6356
21
-4.43305
0
LINE
8
BLACK
6
CONTINUOUS
10
6.6356
20
-4.43305
11
6.63863
21
-4.43103
0
LINE
8
BLACK
6
CONTINUOUS
10
6.63863
20
-4.43103
11
6.64221
21
-4.43031
0
LINE
8
BLACK
6
CONTINUOUS
10
6.64221
20
-4.43031
11
6.66091
21
-4.43031
0
LINE
8
BLACK
6
CONTINUOUS
10
6.66091
20
-4.43031
11
6.66449
21
-4.43103
0
LINE
8
BLACK
6
CONTINUOUS
10
6.52
20
-4.43201
11
6.52303
21
-4.43404
0
LINE
8
BLACK
6
CONTINUOUS
10
6.52303
20
-4.43404
11
6.52506
21
-4.43707
0
LINE
8
BLACK
6
CONTINUOUS
10
6.52506
20
-4.43707
11
6.52577
21
-4.44065
0
LINE
8
BLACK
6
CONTINUOUS
10
6.52577
20
-4.44065
11
6.52577
21
-4.45935
0
LINE
8
BLACK
6
CONTINUOUS
10
6.52577
20
-4.45935
11
6.52506
21
-4.46293
0
LINE
8
BLACK
6
CONTINUOUS
10
6.52506
20
-4.46293
11
6.52303
21
-4.46596
0
LINE
8
BLACK
6
CONTINUOUS
10
6.52303
20
-4.46596
11
6.52
21
-4.46799
0
LINE
8
BLACK
6
CONTINUOUS
10
6.52
20
-4.46799
11
6.51642
21
-4.4687
0
LINE
8
BLACK
6
CONTINUOUS
10
6.51642
20
-4.4687
11
6.49378
21
-4.4687
0
LINE
8
BLACK
6
CONTINUOUS
10
6.49378
20
-4.4687
11
6.49021
21
-4.46799
0
LINE
8
BLACK
6
CONTINUOUS
10
6.49021
20
-4.46799
11
6.48717
21
-4.46596
0
LINE
8
BLACK
6
CONTINUOUS
10
6.48717
20
-4.46596
11
6.48514
21
-4.46293
0
LINE
8
BLACK
6
CONTINUOUS
10
6.48514
20
-4.46293
11
6.48443
21
-4.45935
0
LINE
8
BLACK
6
CONTINUOUS
10
6.48443
20
-4.45935
11
6.48443
21
-4.44065
0
LINE
8
BLACK
6
CONTINUOUS
10
6.48443
20
-4.44065
11
6.48514
21
-4.43707
0
LINE
8
BLACK
6
CONTINUOUS
10
6.48514
20
-4.43707
11
6.48717
21
-4.43404
0
LINE
8
BLACK
6
CONTINUOUS
10
6.48717
20
-4.43404
11
6.49021
21
-4.43201
0
LINE
8
BLACK
6
CONTINUOUS
10
6.49021
20
-4.43201
11
6.49378
21
-4.4313
0
LINE
8
BLACK
6
CONTINUOUS
10
6.49378
20
-4.4313
11
6.51642
21
-4.4313
0
LINE
8
BLACK
6
CONTINUOUS
10
6.51642
20
-4.4313
11
6.52
21
-4.43201
0
LINE
8
BLACK
6
CONTINUOUS
10
6.5889
20
-4.43201
11
6.59193
21
-4.43404
0
LINE
8
BLACK
6
CONTINUOUS
10
6.59193
20
-4.43404
11
6.59396
21
-4.43707
0
LINE
8
BLACK
6
CONTINUOUS
10
6.59396
20
-4.43707
11
6.59467
21
-4.44065
0
LINE
8
BLACK
6
CONTINUOUS
10
6.59467
20
-4.44065
11
6.59467
21
-4.45935
0
LINE
8
BLACK
6
CONTINUOUS
10
6.59467
20
-4.45935
11
6.59396
21
-4.46293
0
LINE
8
BLACK
6
CONTINUOUS
10
6.59396
20
-4.46293
11
6.59193
21
-4.46596
0
LINE
8
BLACK
6
CONTINUOUS
10
6.59193
20
-4.46596
11
6.5889
21
-4.46799
0
LINE
8
BLACK
6
CONTINUOUS
10
6.5889
20
-4.46799
11
6.58532
21
-4.4687
0
LINE
8
BLACK
6
CONTINUOUS
10
6.58532
20
-4.4687
11
6.56268
21
-4.4687
0
LINE
8
BLACK
6
CONTINUOUS
10
6.56268
20
-4.4687
11
6.5591
21
-4.46799
0
LINE
8
BLACK
6
CONTINUOUS
10
6.5591
20
-4.46799
11
6.55607
21
-4.46596
0
LINE
8
BLACK
6
CONTINUOUS
10
6.55607
20
-4.46596
11
6.55404
21
-4.46293
0
LINE
8
BLACK
6
CONTINUOUS
10
6.55404
20
-4.46293
11
6.55333
21
-4.45935
0
LINE
8
BLACK
6
CONTINUOUS
10
6.55333
20
-4.45935
11
6.55333
21
-4.44065
0
LINE
8
BLACK
6
CONTINUOUS
10
6.55333
20
-4.44065
11
6.55404
21
-4.43707
0
LINE
8
BLACK
6
CONTINUOUS
10
6.55404
20
-4.43707
11
6.55607
21
-4.43404
0
LINE
8
BLACK
6
CONTINUOUS
10
6.55607
20
-4.43404
11
6.5591
21
-4.43201
0
LINE
8
BLACK
6
CONTINUOUS
10
6.5591
20
-4.43201
11
6.56268
21
-4.4313
0
LINE
8
BLACK
6
CONTINUOUS
10
6.56268
20
-4.4313
11
6.58532
21
-4.4313
0
LINE
8
BLACK
6
CONTINUOUS
10
6.58532
20
-4.4313
11
6.5889
21
-4.43201
0
LINE
8
BLACK
6
CONTINUOUS
10
6.81293
20
-4.42559
11
6.81596
21
-4.42762
0
LINE
8
BLACK
6
CONTINUOUS
10
6.81596
20
-4.42762
11
6.81799
21
-4.43065
0
LINE
8
BLACK
6
CONTINUOUS
10
6.81799
20
-4.43065
11
6.8187
21
-4.43423
0
LINE
8
BLACK
6
CONTINUOUS
10
6.8187
20
-4.43423
11
6.8187
21
-4.45687
0
LINE
8
BLACK
6
CONTINUOUS
10
6.8187
20
-4.45687
11
6.81799
21
-4.46045
0
LINE
8
BLACK
6
CONTINUOUS
10
6.81799
20
-4.46045
11
6.81596
21
-4.46348
0
LINE
8
BLACK
6
CONTINUOUS
10
6.81596
20
-4.46348
11
6.81293
21
-4.46551
0
LINE
8
BLACK
6
CONTINUOUS
10
6.81293
20
-4.46551
11
6.80935
21
-4.46622
0
LINE
8
BLACK
6
CONTINUOUS
10
6.80935
20
-4.46622
11
6.79065
21
-4.46622
0
LINE
8
BLACK
6
CONTINUOUS
10
6.79065
20
-4.46622
11
6.78707
21
-4.46551
0
LINE
8
BLACK
6
CONTINUOUS
10
6.78707
20
-4.46551
11
6.78404
21
-4.46348
0
LINE
8
BLACK
6
CONTINUOUS
10
6.78404
20
-4.46348
11
6.78201
21
-4.46045
0
LINE
8
BLACK
6
CONTINUOUS
10
6.78201
20
-4.46045
11
6.7813
21
-4.45687
0
LINE
8
BLACK
6
CONTINUOUS
10
6.7813
20
-4.45687
11
6.7813
21
-4.43423
0
LINE
8
BLACK
6
CONTINUOUS
10
6.7813
20
-4.43423
11
6.78201
21
-4.43065
0
LINE
8
BLACK
6
CONTINUOUS
10
6.78201
20
-4.43065
11
6.78404
21
-4.42762
0
LINE
8
BLACK
6
CONTINUOUS
10
6.78404
20
-4.42762
11
6.78707
21
-4.42559
0
LINE
8
BLACK
6
CONTINUOUS
10
6.78707
20
-4.42559
11
6.79065
21
-4.42488
0
LINE
8
BLACK
6
CONTINUOUS
10
6.79065
20
-4.42488
11
6.80935
21
-4.42488
0
LINE
8
BLACK
6
CONTINUOUS
10
6.80935
20
-4.42488
11
6.81293
21
-4.42559
0
LINE
8
BLACK
6
CONTINUOUS
10
6.75742
20
-4.43784
11
6.75931
21
-4.4391
0
LINE
8
BLACK
6
CONTINUOUS
10
6.75931
20
-4.4391
11
6.76057
21
-4.44099
0
LINE
8
BLACK
6
CONTINUOUS
10
6.76057
20
-4.44099
11
6.76101
21
-4.44321
0
LINE
8
BLACK
6
CONTINUOUS
10
6.76101
20
-4.44321
11
6.76101
21
-4.45679
0
LINE
8
BLACK
6
CONTINUOUS
10
6.76101
20
-4.45679
11
6.76057
21
-4.45901
0
LINE
8
BLACK
6
CONTINUOUS
10
6.76057
20
-4.45901
11
6.75931
21
-4.4609
0
LINE
8
BLACK
6
CONTINUOUS
10
6.75931
20
-4.4609
11
6.75742
21
-4.46216
0
LINE
8
BLACK
6
CONTINUOUS
10
6.75742
20
-4.46216
11
6.7552
21
-4.4626
0
LINE
8
BLACK
6
CONTINUOUS
10
6.7552
20
-4.4626
11
6.74359
21
-4.4626
0
LINE
8
BLACK
6
CONTINUOUS
10
6.74359
20
-4.4626
11
6.74136
21
-4.46216
0
LINE
8
BLACK
6
CONTINUOUS
10
6.74136
20
-4.46216
11
6.73948
21
-4.4609
0
LINE
8
BLACK
6
CONTINUOUS
10
6.73948
20
-4.4609
11
6.73822
21
-4.45901
0
LINE
8
BLACK
6
CONTINUOUS
10
6.73822
20
-4.45901
11
6.73778
21
-4.45679
0
LINE
8
BLACK
6
CONTINUOUS
10
6.73778
20
-4.45679
11
6.73778
21
-4.44321
0
LINE
8
BLACK
6
CONTINUOUS
10
6.73778
20
-4.44321
11
6.73822
21
-4.44099
0
LINE
8
BLACK
6
CONTINUOUS
10
6.73822
20
-4.44099
11
6.73948
21
-4.4391
0
LINE
8
BLACK
6
CONTINUOUS
10
6.73948
20
-4.4391
11
6.74136
21
-4.43784
0
LINE
8
BLACK
6
CONTINUOUS
10
6.74136
20
-4.43784
11
6.74359
21
-4.4374
0
LINE
8
BLACK
6
CONTINUOUS
10
6.74359
20
-4.4374
11
6.7552
21
-4.4374
0
LINE
8
BLACK
6
CONTINUOUS
10
6.7552
20
-4.4374
11
6.75742
21
-4.43784
0
LINE
8
BLACK
6
CONTINUOUS
10
6.71923
20
-4.43784
11
6.72112
21
-4.4391
0
LINE
8
BLACK
6
CONTINUOUS
10
6.72112
20
-4.4391
11
6.72238
21
-4.44099
0
LINE
8
BLACK
6
CONTINUOUS
10
6.72238
20
-4.44099
11
6.72282
21
-4.44321
0
LINE
8
BLACK
6
CONTINUOUS
10
6.72282
20
-4.44321
11
6.72282
21
-4.45679
0
LINE
8
BLACK
6
CONTINUOUS
10
6.72282
20
-4.45679
11
6.72238
21
-4.45901
0
LINE
8
BLACK
6
CONTINUOUS
10
6.72238
20
-4.45901
11
6.72112
21
-4.4609
0
LINE
8
BLACK
6
CONTINUOUS
10
6.72112
20
-4.4609
11
6.71923
21
-4.46216
0
LINE
8
BLACK
6
CONTINUOUS
10
6.71923
20
-4.46216
11
6.71701
21
-4.4626
0
LINE
8
BLACK
6
CONTINUOUS
10
6.71701
20
-4.4626
11
6.7054
21
-4.4626
0
LINE
8
BLACK
6
CONTINUOUS
10
6.7054
20
-4.4626
11
6.70318
21
-4.46216
0
LINE
8
BLACK
6
CONTINUOUS
10
6.70318
20
-4.46216
11
6.70129
21
-4.4609
0
LINE
8
BLACK
6
CONTINUOUS
10
6.70129
20
-4.4609
11
6.70003
21
-4.45901
0
LINE
8
BLACK
6
CONTINUOUS
10
6.70003
20
-4.45901
11
6.69959
21
-4.45679
0
LINE
8
BLACK
6
CONTINUOUS
10
6.69959
20
-4.45679
11
6.69959
21
-4.44321
0
LINE
8
BLACK
6
CONTINUOUS
10
6.69959
20
-4.44321
11
6.70003
21
-4.44099
0
LINE
8
BLACK
6
CONTINUOUS
10
6.70003
20
-4.44099
11
6.70129
21
-4.4391
0
LINE
8
BLACK
6
CONTINUOUS
10
6.70129
20
-4.4391
11
6.70318
21
-4.43784
0
LINE
8
BLACK
6
CONTINUOUS
10
6.70318
20
-4.43784
11
6.7054
21
-4.4374
0
LINE
8
BLACK
6
CONTINUOUS
10
6.7054
20
-4.4374
11
6.71701
21
-4.4374
0
LINE
8
BLACK
6
CONTINUOUS
10
6.71701
20
-4.4374
11
6.71923
21
-4.43784
0
LINE
8
BLACK
6
CONTINUOUS
10
6.311
20
-4.39701
11
6.31403
21
-4.39904
0
LINE
8
BLACK
6
CONTINUOUS
10
6.31403
20
-4.39904
11
6.31606
21
-4.40207
0
LINE
8
BLACK
6
CONTINUOUS
10
6.31606
20
-4.40207
11
6.31677
21
-4.40565
0
LINE
8
BLACK
6
CONTINUOUS
10
6.31677
20
-4.40565
11
6.31677
21
-4.42435
0
LINE
8
BLACK
6
CONTINUOUS
10
6.31677
20
-4.42435
11
6.31606
21
-4.42793
0
LINE
8
BLACK
6
CONTINUOUS
10
6.31606
20
-4.42793
11
6.31403
21
-4.43096
0
LINE
8
BLACK
6
CONTINUOUS
10
6.31403
20
-4.43096
11
6.311
21
-4.43299
0
LINE
8
BLACK
6
CONTINUOUS
10
6.311
20
-4.43299
11
6.30742
21
-4.4337
0
LINE
8
BLACK
6
CONTINUOUS
10
6.30742
20
-4.4337
11
6.28478
21
-4.4337
0
LINE
8
BLACK
6
CONTINUOUS
10
6.28478
20
-4.4337
11
6.28121
21
-4.43299
0
LINE
8
BLACK
6
CONTINUOUS
10
6.28121
20
-4.43299
11
6.27817
21
-4.43096
0
LINE
8
BLACK
6
CONTINUOUS
10
6.27817
20
-4.43096
11
6.27614
21
-4.42793
0
LINE
8
BLACK
6
CONTINUOUS
10
6.27614
20
-4.42793
11
6.27543
21
-4.42435
0
LINE
8
BLACK
6
CONTINUOUS
10
6.27543
20
-4.42435
11
6.27543
21
-4.40565
0
LINE
8
BLACK
6
CONTINUOUS
10
6.27543
20
-4.40565
11
6.27614
21
-4.40207
0
LINE
8
BLACK
6
CONTINUOUS
10
6.27614
20
-4.40207
11
6.27817
21
-4.39904
0
LINE
8
BLACK
6
CONTINUOUS
10
6.27817
20
-4.39904
11
6.28121
21
-4.39701
0
LINE
8
BLACK
6
CONTINUOUS
10
6.28121
20
-4.39701
11
6.28478
21
-4.3963
0
LINE
8
BLACK
6
CONTINUOUS
10
6.28478
20
-4.3963
11
6.30742
21
-4.3963
0
LINE
8
BLACK
6
CONTINUOUS
10
6.30742
20
-4.3963
11
6.311
21
-4.39701
0
LINE
8
BLACK
6
CONTINUOUS
10
6.3799
20
-4.39701
11
6.38293
21
-4.39904
0
LINE
8
BLACK
6
CONTINUOUS
10
6.38293
20
-4.39904
11
6.38496
21
-4.40207
0
LINE
8
BLACK
6
CONTINUOUS
10
6.38496
20
-4.40207
11
6.38567
21
-4.40565
0
LINE
8
BLACK
6
CONTINUOUS
10
6.38567
20
-4.40565
11
6.38567
21
-4.42435
0
LINE
8
BLACK
6
CONTINUOUS
10
6.38567
20
-4.42435
11
6.38496
21
-4.42793
0
LINE
8
BLACK
6
CONTINUOUS
10
6.38496
20
-4.42793
11
6.38293
21
-4.43096
0
LINE
8
BLACK
6
CONTINUOUS
10
6.38293
20
-4.43096
11
6.3799
21
-4.43299
0
LINE
8
BLACK
6
CONTINUOUS
10
6.3799
20
-4.43299
11
6.37632
21
-4.4337
0
LINE
8
BLACK
6
CONTINUOUS
10
6.37632
20
-4.4337
11
6.35368
21
-4.4337
0
LINE
8
BLACK
6
CONTINUOUS
10
6.35368
20
-4.4337
11
6.3501
21
-4.43299
0
LINE
8
BLACK
6
CONTINUOUS
10
6.3501
20
-4.43299
11
6.34707
21
-4.43096
0
LINE
8
BLACK
6
CONTINUOUS
10
6.34707
20
-4.43096
11
6.34504
21
-4.42793
0
LINE
8
BLACK
6
CONTINUOUS
10
6.34504
20
-4.42793
11
6.34433
21
-4.42435
0
LINE
8
BLACK
6
CONTINUOUS
10
6.34433
20
-4.42435
11
6.34433
21
-4.40565
0
LINE
8
BLACK
6
CONTINUOUS
10
6.34433
20
-4.40565
11
6.34504
21
-4.40207
0
LINE
8
BLACK
6
CONTINUOUS
10
6.34504
20
-4.40207
11
6.34707
21
-4.39904
0
LINE
8
BLACK
6
CONTINUOUS
10
6.34707
20
-4.39904
11
6.3501
21
-4.39701
0
LINE
8
BLACK
6
CONTINUOUS
10
6.3501
20
-4.39701
11
6.35368
21
-4.3963
0
LINE
8
BLACK
6
CONTINUOUS
10
6.35368
20
-4.3963
11
6.37632
21
-4.3963
0
LINE
8
BLACK
6
CONTINUOUS
10
6.37632
20
-4.3963
11
6.3799
21
-4.39701
0
LINE
8
BLACK
6
CONTINUOUS
10
5.73391
20
-4.36201
11
5.73695
21
-4.36404
0
LINE
8
BLACK
6
CONTINUOUS
10
5.73695
20
-4.36404
11
5.73897
21
-4.36707
0
LINE
8
BLACK
6
CONTINUOUS
10
5.73897
20
-4.36707
11
5.73969
21
-4.37065
0
LINE
8
BLACK
6
CONTINUOUS
10
5.73969
20
-4.37065
11
5.73969
21
-4.38935
0
LINE
8
BLACK
6
CONTINUOUS
10
5.73969
20
-4.38935
11
5.73897
21
-4.39293
0
LINE
8
BLACK
6
CONTINUOUS
10
5.73897
20
-4.39293
11
5.73695
21
-4.39596
0
LINE
8
BLACK
6
CONTINUOUS
10
5.73695
20
-4.39596
11
5.73391
21
-4.39799
0
LINE
8
BLACK
6
CONTINUOUS
10
5.73391
20
-4.39799
11
5.73033
21
-4.3987
0
LINE
8
BLACK
6
CONTINUOUS
10
5.73033
20
-4.3987
11
5.7077
21
-4.3987
0
LINE
8
BLACK
6
CONTINUOUS
10
5.7077
20
-4.3987
11
5.70412
21
-4.39799
0
LINE
8
BLACK
6
CONTINUOUS
10
5.70412
20
-4.39799
11
5.70109
21
-4.39596
0
LINE
8
BLACK
6
CONTINUOUS
10
5.70109
20
-4.39596
11
5.69906
21
-4.39293
0
LINE
8
BLACK
6
CONTINUOUS
10
5.69906
20
-4.39293
11
5.69835
21
-4.38935
0
LINE
8
BLACK
6
CONTINUOUS
10
5.69835
20
-4.38935
11
5.69835
21
-4.37065
0
LINE
8
BLACK
6
CONTINUOUS
10
5.69835
20
-4.37065
11
5.69906
21
-4.36707
0
LINE
8
BLACK
6
CONTINUOUS
10
5.69906
20
-4.36707
11
5.70109
21
-4.36404
0
LINE
8
BLACK
6
CONTINUOUS
10
5.70109
20
-4.36404
11
5.70412
21
-4.36201
0
LINE
8
BLACK
6
CONTINUOUS
10
5.70412
20
-4.36201
11
5.7077
21
-4.3613
0
LINE
8
BLACK
6
CONTINUOUS
10
5.7077
20
-4.3613
11
5.73033
21
-4.3613
0
LINE
8
BLACK
6
CONTINUOUS
10
5.73033
20
-4.3613
11
5.73391
21
-4.36201
0
LINE
8
BLACK
6
CONTINUOUS
10
5.80281
20
-4.36201
11
5.80584
21
-4.36404
0
LINE
8
BLACK
6
CONTINUOUS
10
5.80584
20
-4.36404
11
5.80787
21
-4.36707
0
LINE
8
BLACK
6
CONTINUOUS
10
5.80787
20
-4.36707
11
5.80858
21
-4.37065
0
LINE
8
BLACK
6
CONTINUOUS
10
5.80858
20
-4.37065
11
5.80858
21
-4.38935
0
LINE
8
BLACK
6
CONTINUOUS
10
5.80858
20
-4.38935
11
5.80787
21
-4.39293
0
LINE
8
BLACK
6
CONTINUOUS
10
5.80787
20
-4.39293
11
5.80584
21
-4.39596
0
LINE
8
BLACK
6
CONTINUOUS
10
5.80584
20
-4.39596
11
5.80281
21
-4.39799
0
LINE
8
BLACK
6
CONTINUOUS
10
5.80281
20
-4.39799
11
5.79923
21
-4.3987
0
LINE
8
BLACK
6
CONTINUOUS
10
5.79923
20
-4.3987
11
5.77659
21
-4.3987
0
LINE
8
BLACK
6
CONTINUOUS
10
5.77659
20
-4.3987
11
5.77302
21
-4.39799
0
LINE
8
BLACK
6
CONTINUOUS
10
5.77302
20
-4.39799
11
5.76998
21
-4.39596
0
LINE
8
BLACK
6
CONTINUOUS
10
5.76998
20
-4.39596
11
5.76796
21
-4.39293
0
LINE
8
BLACK
6
CONTINUOUS
10
5.76796
20
-4.39293
11
5.76724
21
-4.38935
0
LINE
8
BLACK
6
CONTINUOUS
10
5.76724
20
-4.38935
11
5.76724
21
-4.37065
0
LINE
8
BLACK
6
CONTINUOUS
10
5.76724
20
-4.37065
11
5.76796
21
-4.36707
0
LINE
8
BLACK
6
CONTINUOUS
10
5.76796
20
-4.36707
11
5.76998
21
-4.36404
0
LINE
8
BLACK
6
CONTINUOUS
10
5.76998
20
-4.36404
11
5.77302
21
-4.36201
0
LINE
8
BLACK
6
CONTINUOUS
10
5.77302
20
-4.36201
11
5.77659
21
-4.3613
0
LINE
8
BLACK
6
CONTINUOUS
10
5.77659
20
-4.3613
11
5.79923
21
-4.3613
0
LINE
8
BLACK
6
CONTINUOUS
10
5.79923
20
-4.3613
11
5.80281
21
-4.36201
0
LINE
8
BLACK
6
CONTINUOUS
10
5.65892
20
-4.38776
11
5.60392
21
-4.38776
0
LINE
8
BLACK
6
CONTINUOUS
10
5.60392
20
-4.38776
11
5.60392
21
-4.35276
0
LINE
8
BLACK
6
CONTINUOUS
10
5.60392
20
-4.35276
11
5.65892
21
-4.35276
0
LINE
8
BLACK
6
CONTINUOUS
10
5.65892
20
-4.35276
11
5.65892
21
-4.38776
0
LINE
8
BLACK
6
CONTINUOUS
10
5.57354
20
-4.38295
11
5.53181
21
-4.38295
0
LINE
8
BLACK
6
CONTINUOUS
10
5.53181
20
-4.38295
11
5.53181
21
-4.35736
0
LINE
8
BLACK
6
CONTINUOUS
10
5.53181
20
-4.35736
11
5.57354
21
-4.35736
0
LINE
8
BLACK
6
CONTINUOUS
10
5.57354
20
-4.35736
11
5.57354
21
-4.38295
0
LINE
8
BLACK
6
CONTINUOUS
10
5.48693
20
-4.38295
11
5.4452
21
-4.38295
0
LINE
8
BLACK
6
CONTINUOUS
10
5.4452
20
-4.38295
11
5.4452
21
-4.35736
0
LINE
8
BLACK
6
CONTINUOUS
10
5.4452
20
-4.35736
11
5.48693
21
-4.35736
0
LINE
8
BLACK
6
CONTINUOUS
10
5.48693
20
-4.35736
11
5.48693
21
-4.38295
0
LINE
8
BLACK
6
CONTINUOUS
10
5.4075
20
-4.3775
11
5.3525
21
-4.3775
0
LINE
8
BLACK
6
CONTINUOUS
10
5.3525
20
-4.3775
11
5.3525
21
-4.3425
0
LINE
8
BLACK
6
CONTINUOUS
10
5.3525
20
-4.3425
11
5.4075
21
-4.3425
0
LINE
8
BLACK
6
CONTINUOUS
10
5.4075
20
-4.3425
11
5.4075
21
-4.3775
0
LINE
8
BLACK
6
CONTINUOUS
10
6.46691
20
-4.32195
11
6.4697
21
-4.32382
0
LINE
8
BLACK
6
CONTINUOUS
10
6.4697
20
-4.32382
11
6.47157
21
-4.32662
0
LINE
8
BLACK
6
CONTINUOUS
10
6.47157
20
-4.32662
11
6.47222
21
-4.32991
0
LINE
8
BLACK
6
CONTINUOUS
10
6.47222
20
-4.32991
11
6.47222
21
-4.35009
0
LINE
8
BLACK
6
CONTINUOUS
10
6.47222
20
-4.35009
11
6.47157
21
-4.35338
0
LINE
8
BLACK
6
CONTINUOUS
10
6.47157
20
-4.35338
11
6.4697
21
-4.35618
0
LINE
8
BLACK
6
CONTINUOUS
10
6.4697
20
-4.35618
11
6.46691
21
-4.35805
0
LINE
8
BLACK
6
CONTINUOUS
10
6.46691
20
-4.35805
11
6.46361
21
-4.3587
0
LINE
8
BLACK
6
CONTINUOUS
10
6.46361
20
-4.3587
11
6.44639
21
-4.3587
0
LINE
8
BLACK
6
CONTINUOUS
10
6.44639
20
-4.3587
11
6.44309
21
-4.35805
0
LINE
8
BLACK
6
CONTINUOUS
10
6.44309
20
-4.35805
11
6.4403
21
-4.35618
0
LINE
8
BLACK
6
CONTINUOUS
10
6.4403
20
-4.35618
11
6.43843
21
-4.35338
0
LINE
8
BLACK
6
CONTINUOUS
10
6.43843
20
-4.35338
11
6.43778
21
-4.35009
0
LINE
8
BLACK
6
CONTINUOUS
10
6.43778
20
-4.35009
11
6.43778
21
-4.32991
0
LINE
8
BLACK
6
CONTINUOUS
10
6.43778
20
-4.32991
11
6.43843
21
-4.32662
0
LINE
8
BLACK
6
CONTINUOUS
10
6.43843
20
-4.32662
11
6.4403
21
-4.32382
0
LINE
8
BLACK
6
CONTINUOUS
10
6.4403
20
-4.32382
11
6.44309
21
-4.32195
0
LINE
8
BLACK
6
CONTINUOUS
10
6.44309
20
-4.32195
11
6.44639
21
-4.3213
0
LINE
8
BLACK
6
CONTINUOUS
10
6.44639
20
-4.3213
11
6.46361
21
-4.3213
0
LINE
8
BLACK
6
CONTINUOUS
10
6.46361
20
-4.3213
11
6.46691
21
-4.32195
0
LINE
8
BLACK
6
CONTINUOUS
10
6.4049
20
-4.32195
11
6.40769
21
-4.32382
0
LINE
8
BLACK
6
CONTINUOUS
10
6.40769
20
-4.32382
11
6.40956
21
-4.32662
0
LINE
8
BLACK
6
CONTINUOUS
10
6.40956
20
-4.32662
11
6.41022
21
-4.32991
0
LINE
8
BLACK
6
CONTINUOUS
10
6.41022
20
-4.32991
11
6.41022
21
-4.35009
0
LINE
8
BLACK
6
CONTINUOUS
10
6.41022
20
-4.35009
11
6.40956
21
-4.35338
0
LINE
8
BLACK
6
CONTINUOUS
10
6.40956
20
-4.35338
11
6.40769
21
-4.35618
0
LINE
8
BLACK
6
CONTINUOUS
10
6.40769
20
-4.35618
11
6.4049
21
-4.35805
0
LINE
8
BLACK
6
CONTINUOUS
10
6.4049
20
-4.35805
11
6.4016
21
-4.3587
0
LINE
8
BLACK
6
CONTINUOUS
10
6.4016
20
-4.3587
11
6.38438
21
-4.3587
0
LINE
8
BLACK
6
CONTINUOUS
10
6.38438
20
-4.3587
11
6.38108
21
-4.35805
0
LINE
8
BLACK
6
CONTINUOUS
10
6.38108
20
-4.35805
11
6.37829
21
-4.35618
0
LINE
8
BLACK
6
CONTINUOUS
10
6.37829
20
-4.35618
11
6.37642
21
-4.35338
0
LINE
8
BLACK
6
CONTINUOUS
10
6.37642
20
-4.35338
11
6.37577
21
-4.35009
0
LINE
8
BLACK
6
CONTINUOUS
10
6.37577
20
-4.35009
11
6.37577
21
-4.32991
0
LINE
8
BLACK
6
CONTINUOUS
10
6.37577
20
-4.32991
11
6.37642
21
-4.32662
0
LINE
8
BLACK
6
CONTINUOUS
10
6.37642
20
-4.32662
11
6.37829
21
-4.32382
0
LINE
8
BLACK
6
CONTINUOUS
10
6.37829
20
-4.32382
11
6.38108
21
-4.32195
0
LINE
8
BLACK
6
CONTINUOUS
10
6.38108
20
-4.32195
11
6.38438
21
-4.3213
0
LINE
8
BLACK
6
CONTINUOUS
10
6.38438
20
-4.3213
11
6.4016
21
-4.3213
0
LINE
8
BLACK
6
CONTINUOUS
10
6.4016
20
-4.3213
11
6.4049
21
-4.32195
0
LINE
8
BLACK
6
CONTINUOUS
10
6.62691
20
-4.32195
11
6.6297
21
-4.32382
0
LINE
8
BLACK
6
CONTINUOUS
10
6.6297
20
-4.32382
11
6.63157
21
-4.32662
0
LINE
8
BLACK
6
CONTINUOUS
10
6.63157
20
-4.32662
11
6.63222
21
-4.32991
0
LINE
8
BLACK
6
CONTINUOUS
10
6.63222
20
-4.32991
11
6.63222
21
-4.35009
0
LINE
8
BLACK
6
CONTINUOUS
10
6.63222
20
-4.35009
11
6.63157
21
-4.35338
0
LINE
8
BLACK
6
CONTINUOUS
10
6.63157
20
-4.35338
11
6.6297
21
-4.35618
0
LINE
8
BLACK
6
CONTINUOUS
10
6.6297
20
-4.35618
11
6.62691
21
-4.35805
0
LINE
8
BLACK
6
CONTINUOUS
10
6.62691
20
-4.35805
11
6.62361
21
-4.3587
0
LINE
8
BLACK
6
CONTINUOUS
10
6.62361
20
-4.3587
11
6.60639
21
-4.3587
0
LINE
8
BLACK
6
CONTINUOUS
10
6.60639
20
-4.3587
11
6.60309
21
-4.35805
0
LINE
8
BLACK
6
CONTINUOUS
10
6.60309
20
-4.35805
11
6.6003
21
-4.35618
0
LINE
8
BLACK
6
CONTINUOUS
10
6.6003
20
-4.35618
11
6.59843
21
-4.35338
0
LINE
8
BLACK
6
CONTINUOUS
10
6.59843
20
-4.35338
11
6.59778
21
-4.35009
0
LINE
8
BLACK
6
CONTINUOUS
10
6.59778
20
-4.35009
11
6.59778
21
-4.32991
0
LINE
8
BLACK
6
CONTINUOUS
10
6.59778
20
-4.32991
11
6.59843
21
-4.32662
0
LINE
8
BLACK
6
CONTINUOUS
10
6.59843
20
-4.32662
11
6.6003
21
-4.32382
0
LINE
8
BLACK
6
CONTINUOUS
10
6.6003
20
-4.32382
11
6.60309
21
-4.32195
0
LINE
8
BLACK
6
CONTINUOUS
10
6.60309
20
-4.32195
11
6.60639
21
-4.3213
0
LINE
8
BLACK
6
CONTINUOUS
10
6.60639
20
-4.3213
11
6.62361
21
-4.3213
0
LINE
8
BLACK
6
CONTINUOUS
10
6.62361
20
-4.3213
11
6.62691
21
-4.32195
0
LINE
8
BLACK
6
CONTINUOUS
10
6.5649
20
-4.32195
11
6.56769
21
-4.32382
0
LINE
8
BLACK
6
CONTINUOUS
10
6.56769
20
-4.32382
11
6.56956
21
-4.32662
0
LINE
8
BLACK
6
CONTINUOUS
10
6.56956
20
-4.32662
11
6.57022
21
-4.32991
0
LINE
8
BLACK
6
CONTINUOUS
10
6.57022
20
-4.32991
11
6.57022
21
-4.35009
0
LINE
8
BLACK
6
CONTINUOUS
10
6.57022
20
-4.35009
11
6.56956
21
-4.35338
0
LINE
8
BLACK
6
CONTINUOUS
10
6.56956
20
-4.35338
11
6.56769
21
-4.35618
0
LINE
8
BLACK
6
CONTINUOUS
10
6.56769
20
-4.35618
11
6.5649
21
-4.35805
0
LINE
8
BLACK
6
CONTINUOUS
10
6.5649
20
-4.35805
11
6.5616
21
-4.3587
0
LINE
8
BLACK
6
CONTINUOUS
10
6.5616
20
-4.3587
11
6.54438
21
-4.3587
0
LINE
8
BLACK
6
CONTINUOUS
10
6.54438
20
-4.3587
11
6.54108
21
-4.35805
0
LINE
8
BLACK
6
CONTINUOUS
10
6.54108
20
-4.35805
11
6.53829
21
-4.35618
0
LINE
8
BLACK
6
CONTINUOUS
10
6.53829
20
-4.35618
11
6.53642
21
-4.35338
0
LINE
8
BLACK
6
CONTINUOUS
10
6.53642
20
-4.35338
11
6.53577
21
-4.35009
0
LINE
8
BLACK
6
CONTINUOUS
10
6.53577
20
-4.35009
11
6.53577
21
-4.32991
0
LINE
8
BLACK
6
CONTINUOUS
10
6.53577
20
-4.32991
11
6.53642
21
-4.32662
0
LINE
8
BLACK
6
CONTINUOUS
10
6.53642
20
-4.32662
11
6.53829
21
-4.32382
0
LINE
8
BLACK
6
CONTINUOUS
10
6.53829
20
-4.32382
11
6.54108
21
-4.32195
0
LINE
8
BLACK
6
CONTINUOUS
10
6.54108
20
-4.32195
11
6.54438
21
-4.3213
0
LINE
8
BLACK
6
CONTINUOUS
10
6.54438
20
-4.3213
11
6.5616
21
-4.3213
0
LINE
8
BLACK
6
CONTINUOUS
10
6.5616
20
-4.3213
11
6.5649
21
-4.32195
0
LINE
8
BLACK
6
CONTINUOUS
10
5.57354
20
-4.34555
11
5.53181
21
-4.34555
0
LINE
8
BLACK
6
CONTINUOUS
10
5.53181
20
-4.34555
11
5.53181
21
-4.31996
0
LINE
8
BLACK
6
CONTINUOUS
10
5.53181
20
-4.31996
11
5.57354
21
-4.31996
0
LINE
8
BLACK
6
CONTINUOUS
10
5.57354
20
-4.31996
11
5.57354
21
-4.34555
0
LINE
8
BLACK
6
CONTINUOUS
10
5.7475
20
-4.3325
11
5.6925
21
-4.3325
0
LINE
8
BLACK
6
CONTINUOUS
10
5.6925
20
-4.3325
11
5.6925
21
-4.2975
0
LINE
8
BLACK
6
CONTINUOUS
10
5.6925
20
-4.2975
11
5.7475
21
-4.2975
0
LINE
8
BLACK
6
CONTINUOUS
10
5.7475
20
-4.2975
11
5.7475
21
-4.3325
0
LINE
8
BLACK
6
CONTINUOUS
10
5.98559
20
-4.31346
11
5.93441
21
-4.31346
0
LINE
8
BLACK
6
CONTINUOUS
10
5.93441
20
-4.31346
11
5.93441
21
-4.24654
0
LINE
8
BLACK
6
CONTINUOUS
10
5.93441
20
-4.24654
11
5.98559
21
-4.24654
0
LINE
8
BLACK
6
CONTINUOUS
10
5.98559
20
-4.24654
11
5.98559
21
-4.31346
0
LINE
8
BLACK
6
CONTINUOUS
10
5.8478
20
-4.31346
11
5.79661
21
-4.31346
0
LINE
8
BLACK
6
CONTINUOUS
10
5.79661
20
-4.31346
11
5.79661
21
-4.24654
0
LINE
8
BLACK
6
CONTINUOUS
10
5.79661
20
-4.24654
11
5.8478
21
-4.24654
0
LINE
8
BLACK
6
CONTINUOUS
10
5.8478
20
-4.24654
11
5.8478
21
-4.31346
0
LINE
8
BLACK
6
CONTINUOUS
10
5.65892
20
-4.31276
11
5.60392
21
-4.31276
0
LINE
8
BLACK
6
CONTINUOUS
10
5.60392
20
-4.31276
11
5.60392
21
-4.27776
0
LINE
8
BLACK
6
CONTINUOUS
10
5.60392
20
-4.27776
11
5.65892
21
-4.27776
0
LINE
8
BLACK
6
CONTINUOUS
10
5.65892
20
-4.27776
11
5.65892
21
-4.31276
0
LINE
8
BLACK
6
CONTINUOUS
10
5.48693
20
-4.30815
11
5.4452
21
-4.30815
0
LINE
8
BLACK
6
CONTINUOUS
10
5.4452
20
-4.30815
11
5.4452
21
-4.28256
0
LINE
8
BLACK
6
CONTINUOUS
10
5.4452
20
-4.28256
11
5.48693
21
-4.28256
0
LINE
8
BLACK
6
CONTINUOUS
10
5.48693
20
-4.28256
11
5.48693
21
-4.30815
0
LINE
8
BLACK
6
CONTINUOUS
10
5.57354
20
-4.30815
11
5.53181
21
-4.30815
0
LINE
8
BLACK
6
CONTINUOUS
10
5.53181
20
-4.30815
11
5.53181
21
-4.28256
0
LINE
8
BLACK
6
CONTINUOUS
10
5.53181
20
-4.28256
11
5.57354
21
-4.28256
0
LINE
8
BLACK
6
CONTINUOUS
10
5.57354
20
-4.28256
11
5.57354
21
-4.30815
0
LINE
8
BLACK
6
CONTINUOUS
10
5.4075
20
-4.3025
11
5.3525
21
-4.3025
0
LINE
8
BLACK
6
CONTINUOUS
10
5.3525
20
-4.3025
11
5.3525
21
-4.2675
0
LINE
8
BLACK
6
CONTINUOUS
10
5.3525
20
-4.2675
11
5.4075
21
-4.2675
0
LINE
8
BLACK
6
CONTINUOUS
10
5.4075
20
-4.2675
11
5.4075
21
-4.3025
0
LINE
8
BLACK
6
CONTINUOUS
10
5.7475
20
-4.2575
11
5.6925
21
-4.2575
0
LINE
8
BLACK
6
CONTINUOUS
10
5.6925
20
-4.2575
11
5.6925
21
-4.2225
0
LINE
8
BLACK
6
CONTINUOUS
10
5.6925
20
-4.2225
11
5.7475
21
-4.2225
0
LINE
8
BLACK
6
CONTINUOUS
10
5.7475
20
-4.2225
11
5.7475
21
-4.2575
  0
ENDSEC
  0
EOF
