  0
SECTION
  2
HEADER
  9
$ANGBASE
  50
0.0
  9
$ANGDIR
  70
1
  9
$MEASUREMENT
  70
0
  0
ENDSEC
  0
SECTION
  2
TABLES
  0
TABLE
  2
LTYPE
  70
4
  0
LTYPE
  5
40F
  2
CONTINUOUS
  70
0
  3
Solid line
  72
65
  73
0
  40
0.0
  0
LTYPE
  5
410
  2
DASHDOT
 70
0
  3
Dash Dot ____ _ ____ _
 72
65
 73
4
 40
2.0
 49
1.25
 49
-0.25
 49
0.25
 49
-0.25
  0
LTYPE
  5
411
  2
DASHED
 70
0
  3
Dashed __ __ __ __ __
 72
65
 73
2
 40
0.75
 49
0.5
 49
-0.25
  0
LTYPE
  5
43B
  2
DOTTED
 70
0
  3
Dotted .  .  .  .
 72
65
 73
2
 40
0.2
 49
0.0
 49
-0.2
  0
ENDTAB
  0
TABLE
  2
STYLE
  70
4
  0
STYLE
  2
KICAD
  70
0
  40
0
  41
1
  42
1
  50
0
  71
0
  3
isocp.shx
  0
STYLE
  2
KICADB
  70
0
  40
0
  41
1
  42
1
  50
0
  71
0
  3
isocp.shx
  0
STYLE
  2
KICADI
  70
0
  40
0
  41
1
  42
1
  50
15
  71
0
  3
isocp.shx
  0
STYLE
  2
KICADBI
  70
0
  40
0
  41
1
  42
1
  50
15
  71
0
  3
isocp.shx
  0
ENDTAB
  0
TABLE
  2
LAYER
  70
1
  0
LAYER
  2
BLACK
  70
0
  62
7
  6
CONTINUOUS
  0
ENDTAB
  0
ENDSEC
  0
SECTION
  2
ENTITIES
0
LINE
8
BLACK
6
CONTINUOUS
10
5.75622
20
-4.46796
11
5.75936
21
-4.4706
0
LINE
8
BLACK
6
CONTINUOUS
10
5.75936
20
-4.4706
11
5.76141
21
-4.47415
0
LINE
8
BLACK
6
CONTINUOUS
10
5.76141
20
-4.47415
11
5.76213
21
-4.47819
0
LINE
8
BLACK
6
CONTINUOUS
10
5.76213
20
-4.47819
11
5.76141
21
-4.48223
0
LINE
8
BLACK
6
CONTINUOUS
10
5.76141
20
-4.48223
11
5.75936
21
-4.48578
0
LINE
8
BLACK
6
CONTINUOUS
10
5.75936
20
-4.48578
11
5.75622
21
-4.48842
0
LINE
8
BLACK
6
CONTINUOUS
10
5.75622
20
-4.48842
11
5.75524
21
-4.48878
0
LINE
8
BLACK
6
CONTINUOUS
10
5.75524
20
-4.48878
11
5.75524
21
-4.49489
0
LINE
8
BLACK
6
CONTINUOUS
10
5.75524
20
-4.49489
11
5.75524
21
-4.49489
0
LINE
8
BLACK
6
CONTINUOUS
10
5.75524
20
-4.49489
11
5.75524
21
-4.63363
0
LINE
8
BLACK
6
CONTINUOUS
10
5.75524
20
-4.63363
11
5.79316
21
-4.67156
0
LINE
8
BLACK
6
CONTINUOUS
10
5.79316
20
-4.67156
11
5.79369
21
-4.67226
0
LINE
8
BLACK
6
CONTINUOUS
10
5.79369
20
-4.67226
11
5.79383
21
-4.67238
0
LINE
8
BLACK
6
CONTINUOUS
10
5.79383
20
-4.67238
11
5.79386
21
-4.67248
0
LINE
8
BLACK
6
CONTINUOUS
10
5.79386
20
-4.67248
11
5.794
21
-4.67268
0
LINE
8
BLACK
6
CONTINUOUS
10
5.794
20
-4.67268
11
5.79426
21
-4.67387
0
LINE
8
BLACK
6
CONTINUOUS
10
5.79426
20
-4.67387
11
5.79461
21
-4.67504
0
LINE
8
BLACK
6
CONTINUOUS
10
5.79461
20
-4.67504
11
5.79461
21
-4.73428
0
LINE
8
BLACK
6
CONTINUOUS
10
5.79461
20
-4.73428
11
5.81892
21
-4.7586
0
LINE
8
BLACK
6
CONTINUOUS
10
5.81892
20
-4.7586
11
5.82084
21
-4.7579
0
LINE
8
BLACK
6
CONTINUOUS
10
5.82084
20
-4.7579
11
5.82495
21
-4.7579
0
LINE
8
BLACK
6
CONTINUOUS
10
5.82495
20
-4.7579
11
5.8288
21
-4.7593
0
LINE
8
BLACK
6
CONTINUOUS
10
5.8288
20
-4.7593
11
5.83194
21
-4.76194
0
LINE
8
BLACK
6
CONTINUOUS
10
5.83194
20
-4.76194
11
5.83399
21
-4.76549
0
LINE
8
BLACK
6
CONTINUOUS
10
5.83399
20
-4.76549
11
5.83471
21
-4.76953
0
LINE
8
BLACK
6
CONTINUOUS
10
5.83471
20
-4.76953
11
5.83399
21
-4.77357
0
LINE
8
BLACK
6
CONTINUOUS
10
5.83399
20
-4.77357
11
5.83194
21
-4.77712
0
LINE
8
BLACK
6
CONTINUOUS
10
5.83194
20
-4.77712
11
5.8288
21
-4.77976
0
LINE
8
BLACK
6
CONTINUOUS
10
5.8288
20
-4.77976
11
5.82495
21
-4.78116
0
LINE
8
BLACK
6
CONTINUOUS
10
5.82495
20
-4.78116
11
5.82084
21
-4.78116
0
LINE
8
BLACK
6
CONTINUOUS
10
5.82084
20
-4.78116
11
5.81699
21
-4.77976
0
LINE
8
BLACK
6
CONTINUOUS
10
5.81699
20
-4.77976
11
5.81385
21
-4.77712
0
LINE
8
BLACK
6
CONTINUOUS
10
5.81385
20
-4.77712
11
5.8118
21
-4.77357
0
LINE
8
BLACK
6
CONTINUOUS
10
5.8118
20
-4.77357
11
5.81108
21
-4.76953
0
LINE
8
BLACK
6
CONTINUOUS
10
5.81108
20
-4.76953
11
5.8118
21
-4.76549
0
LINE
8
BLACK
6
CONTINUOUS
10
5.8118
20
-4.76549
11
5.81183
21
-4.76542
0
LINE
8
BLACK
6
CONTINUOUS
10
5.81183
20
-4.76542
11
5.78621
21
-4.7398
0
LINE
8
BLACK
6
CONTINUOUS
10
5.78621
20
-4.7398
11
5.78568
21
-4.73909
0
LINE
8
BLACK
6
CONTINUOUS
10
5.78568
20
-4.73909
11
5.78554
21
-4.73898
0
LINE
8
BLACK
6
CONTINUOUS
10
5.78554
20
-4.73898
11
5.78551
21
-4.73888
0
LINE
8
BLACK
6
CONTINUOUS
10
5.78551
20
-4.73888
11
5.78537
21
-4.73868
0
LINE
8
BLACK
6
CONTINUOUS
10
5.78537
20
-4.73868
11
5.78511
21
-4.73749
0
LINE
8
BLACK
6
CONTINUOUS
10
5.78511
20
-4.73749
11
5.78476
21
-4.73632
0
LINE
8
BLACK
6
CONTINUOUS
10
5.78476
20
-4.73632
11
5.78476
21
-4.67708
0
LINE
8
BLACK
6
CONTINUOUS
10
5.78476
20
-4.67708
11
5.74684
21
-4.63915
0
LINE
8
BLACK
6
CONTINUOUS
10
5.74684
20
-4.63915
11
5.74631
21
-4.63845
0
LINE
8
BLACK
6
CONTINUOUS
10
5.74631
20
-4.63845
11
5.74617
21
-4.63833
0
LINE
8
BLACK
6
CONTINUOUS
10
5.74617
20
-4.63833
11
5.74614
21
-4.63823
0
LINE
8
BLACK
6
CONTINUOUS
10
5.74614
20
-4.63823
11
5.746
21
-4.63803
0
LINE
8
BLACK
6
CONTINUOUS
10
5.746
20
-4.63803
11
5.74574
21
-4.63684
0
LINE
8
BLACK
6
CONTINUOUS
10
5.74574
20
-4.63684
11
5.74539
21
-4.63567
0
LINE
8
BLACK
6
CONTINUOUS
10
5.74539
20
-4.63567
11
5.74539
21
-4.49489
0
LINE
8
BLACK
6
CONTINUOUS
10
5.74539
20
-4.49489
11
5.74539
21
-4.48878
0
LINE
8
BLACK
6
CONTINUOUS
10
5.74539
20
-4.48878
11
5.74441
21
-4.48842
0
LINE
8
BLACK
6
CONTINUOUS
10
5.74441
20
-4.48842
11
5.74127
21
-4.48578
0
LINE
8
BLACK
6
CONTINUOUS
10
5.74127
20
-4.48578
11
5.73922
21
-4.48223
0
LINE
8
BLACK
6
CONTINUOUS
10
5.73922
20
-4.48223
11
5.7385
21
-4.47819
0
LINE
8
BLACK
6
CONTINUOUS
10
5.7385
20
-4.47819
11
5.73922
21
-4.47415
0
LINE
8
BLACK
6
CONTINUOUS
10
5.73922
20
-4.47415
11
5.74127
21
-4.4706
0
LINE
8
BLACK
6
CONTINUOUS
10
5.74127
20
-4.4706
11
5.74441
21
-4.46796
0
LINE
8
BLACK
6
CONTINUOUS
10
5.74441
20
-4.46796
11
5.74826
21
-4.46656
0
LINE
8
BLACK
6
CONTINUOUS
10
5.74826
20
-4.46656
11
5.75237
21
-4.46656
0
LINE
8
BLACK
6
CONTINUOUS
10
5.75237
20
-4.46656
11
5.75622
21
-4.46796
0
LINE
8
BLACK
6
CONTINUOUS
10
5.78772
20
-4.60182
11
5.79086
21
-4.60446
0
LINE
8
BLACK
6
CONTINUOUS
10
5.79086
20
-4.60446
11
5.79291
21
-4.60801
0
LINE
8
BLACK
6
CONTINUOUS
10
5.79291
20
-4.60801
11
5.79362
21
-4.61205
0
LINE
8
BLACK
6
CONTINUOUS
10
5.79362
20
-4.61205
11
5.79291
21
-4.61609
0
LINE
8
BLACK
6
CONTINUOUS
10
5.79291
20
-4.61609
11
5.79086
21
-4.61964
0
LINE
8
BLACK
6
CONTINUOUS
10
5.79086
20
-4.61964
11
5.78772
21
-4.62228
0
LINE
8
BLACK
6
CONTINUOUS
10
5.78772
20
-4.62228
11
5.78673
21
-4.62263
0
LINE
8
BLACK
6
CONTINUOUS
10
5.78673
20
-4.62263
11
5.78673
21
-4.62576
0
LINE
8
BLACK
6
CONTINUOUS
10
5.78673
20
-4.62576
11
5.82072
21
-4.65975
0
LINE
8
BLACK
6
CONTINUOUS
10
5.82072
20
-4.65975
11
5.82125
21
-4.66045
0
LINE
8
BLACK
6
CONTINUOUS
10
5.82125
20
-4.66045
11
5.82138
21
-4.66057
0
LINE
8
BLACK
6
CONTINUOUS
10
5.82138
20
-4.66057
11
5.82141
21
-4.66067
0
LINE
8
BLACK
6
CONTINUOUS
10
5.82141
20
-4.66067
11
5.82156
21
-4.66087
0
LINE
8
BLACK
6
CONTINUOUS
10
5.82156
20
-4.66087
11
5.82182
21
-4.66206
0
LINE
8
BLACK
6
CONTINUOUS
10
5.82182
20
-4.66206
11
5.82217
21
-4.66323
0
LINE
8
BLACK
6
CONTINUOUS
10
5.82217
20
-4.66323
11
5.82217
21
-4.70843
0
LINE
8
BLACK
6
CONTINUOUS
10
5.82217
20
-4.70843
11
5.83503
21
-4.7213
0
LINE
8
BLACK
6
CONTINUOUS
10
5.83503
20
-4.7213
11
5.93535
21
-4.7213
0
LINE
8
BLACK
6
CONTINUOUS
10
5.93535
20
-4.7213
11
5.93622
21
-4.72142
0
LINE
8
BLACK
6
CONTINUOUS
10
5.93622
20
-4.72142
11
5.9364
21
-4.72141
0
LINE
8
BLACK
6
CONTINUOUS
10
5.9364
20
-4.72141
11
5.93649
21
-4.72146
0
LINE
8
BLACK
6
CONTINUOUS
10
5.93649
20
-4.72146
11
5.93674
21
-4.7215
0
LINE
8
BLACK
6
CONTINUOUS
10
5.93674
20
-4.7215
11
5.93777
21
-4.72216
0
LINE
8
BLACK
6
CONTINUOUS
10
5.93777
20
-4.72216
11
5.93883
21
-4.72274
0
LINE
8
BLACK
6
CONTINUOUS
10
5.93883
20
-4.72274
11
5.97033
21
-4.75424
0
LINE
8
BLACK
6
CONTINUOUS
10
5.97033
20
-4.75424
11
5.97033
21
-4.75424
0
LINE
8
BLACK
6
CONTINUOUS
10
5.97033
20
-4.75424
11
5.97469
21
-4.7586
0
LINE
8
BLACK
6
CONTINUOUS
10
5.97469
20
-4.7586
11
5.97661
21
-4.7579
0
LINE
8
BLACK
6
CONTINUOUS
10
5.97661
20
-4.7579
11
5.98071
21
-4.7579
0
LINE
8
BLACK
6
CONTINUOUS
10
5.98071
20
-4.7579
11
5.98457
21
-4.7593
0
LINE
8
BLACK
6
CONTINUOUS
10
5.98457
20
-4.7593
11
5.98771
21
-4.76194
0
LINE
8
BLACK
6
CONTINUOUS
10
5.98771
20
-4.76194
11
5.98976
21
-4.76549
0
LINE
8
BLACK
6
CONTINUOUS
10
5.98976
20
-4.76549
11
5.99047
21
-4.76953
0
LINE
8
BLACK
6
CONTINUOUS
10
5.99047
20
-4.76953
11
5.98976
21
-4.77357
0
LINE
8
BLACK
6
CONTINUOUS
10
5.98976
20
-4.77357
11
5.98771
21
-4.77712
0
LINE
8
BLACK
6
CONTINUOUS
10
5.98771
20
-4.77712
11
5.98457
21
-4.77976
0
LINE
8
BLACK
6
CONTINUOUS
10
5.98457
20
-4.77976
11
5.98071
21
-4.78116
0
LINE
8
BLACK
6
CONTINUOUS
10
5.98071
20
-4.78116
11
5.97661
21
-4.78116
0
LINE
8
BLACK
6
CONTINUOUS
10
5.97661
20
-4.78116
11
5.97276
21
-4.77976
0
LINE
8
BLACK
6
CONTINUOUS
10
5.97276
20
-4.77976
11
5.96961
21
-4.77712
0
LINE
8
BLACK
6
CONTINUOUS
10
5.96961
20
-4.77712
11
5.96756
21
-4.77357
0
LINE
8
BLACK
6
CONTINUOUS
10
5.96756
20
-4.77357
11
5.96685
21
-4.76953
0
LINE
8
BLACK
6
CONTINUOUS
10
5.96685
20
-4.76953
11
5.96756
21
-4.76549
0
LINE
8
BLACK
6
CONTINUOUS
10
5.96756
20
-4.76549
11
5.9676
21
-4.76542
0
LINE
8
BLACK
6
CONTINUOUS
10
5.9676
20
-4.76542
11
5.96337
21
-4.7612
0
LINE
8
BLACK
6
CONTINUOUS
10
5.96337
20
-4.7612
11
5.96337
21
-4.7612
0
LINE
8
BLACK
6
CONTINUOUS
10
5.96337
20
-4.7612
11
5.93332
21
-4.73114
0
LINE
8
BLACK
6
CONTINUOUS
10
5.93332
20
-4.73114
11
5.83299
21
-4.73114
0
LINE
8
BLACK
6
CONTINUOUS
10
5.83299
20
-4.73114
11
5.83212
21
-4.73102
0
LINE
8
BLACK
6
CONTINUOUS
10
5.83212
20
-4.73102
11
5.83195
21
-4.73103
0
LINE
8
BLACK
6
CONTINUOUS
10
5.83195
20
-4.73103
11
5.83185
21
-4.73098
0
LINE
8
BLACK
6
CONTINUOUS
10
5.83185
20
-4.73098
11
5.83161
21
-4.73094
0
LINE
8
BLACK
6
CONTINUOUS
10
5.83161
20
-4.73094
11
5.83058
21
-4.73028
0
LINE
8
BLACK
6
CONTINUOUS
10
5.83058
20
-4.73028
11
5.82951
21
-4.7297
0
LINE
8
BLACK
6
CONTINUOUS
10
5.82951
20
-4.7297
11
5.81376
21
-4.71395
0
LINE
8
BLACK
6
CONTINUOUS
10
5.81376
20
-4.71395
11
5.81324
21
-4.71325
0
LINE
8
BLACK
6
CONTINUOUS
10
5.81324
20
-4.71325
11
5.8131
21
-4.71313
0
LINE
8
BLACK
6
CONTINUOUS
10
5.8131
20
-4.71313
11
5.81307
21
-4.71303
0
LINE
8
BLACK
6
CONTINUOUS
10
5.81307
20
-4.71303
11
5.81292
21
-4.71283
0
LINE
8
BLACK
6
CONTINUOUS
10
5.81292
20
-4.71283
11
5.81267
21
-4.71164
0
LINE
8
BLACK
6
CONTINUOUS
10
5.81267
20
-4.71164
11
5.81232
21
-4.71047
0
LINE
8
BLACK
6
CONTINUOUS
10
5.81232
20
-4.71047
11
5.81232
21
-4.66527
0
LINE
8
BLACK
6
CONTINUOUS
10
5.81232
20
-4.66527
11
5.77833
21
-4.63128
0
LINE
8
BLACK
6
CONTINUOUS
10
5.77833
20
-4.63128
11
5.7778
21
-4.63057
0
LINE
8
BLACK
6
CONTINUOUS
10
5.7778
20
-4.63057
11
5.77767
21
-4.63046
0
LINE
8
BLACK
6
CONTINUOUS
10
5.77767
20
-4.63046
11
5.77764
21
-4.63035
0
LINE
8
BLACK
6
CONTINUOUS
10
5.77764
20
-4.63035
11
5.77749
21
-4.63015
0
LINE
8
BLACK
6
CONTINUOUS
10
5.77749
20
-4.63015
11
5.77723
21
-4.62896
0
LINE
8
BLACK
6
CONTINUOUS
10
5.77723
20
-4.62896
11
5.77689
21
-4.6278
0
LINE
8
BLACK
6
CONTINUOUS
10
5.77689
20
-4.6278
11
5.77689
21
-4.62263
0
LINE
8
BLACK
6
CONTINUOUS
10
5.77689
20
-4.62263
11
5.77591
21
-4.62228
0
LINE
8
BLACK
6
CONTINUOUS
10
5.77591
20
-4.62228
11
5.77276
21
-4.61964
0
LINE
8
BLACK
6
CONTINUOUS
10
5.77276
20
-4.61964
11
5.77071
21
-4.61609
0
LINE
8
BLACK
6
CONTINUOUS
10
5.77071
20
-4.61609
11
5.77
21
-4.61205
0
LINE
8
BLACK
6
CONTINUOUS
10
5.77
20
-4.61205
11
5.77071
21
-4.60801
0
LINE
8
BLACK
6
CONTINUOUS
10
5.77071
20
-4.60801
11
5.77276
21
-4.60446
0
LINE
8
BLACK
6
CONTINUOUS
10
5.77276
20
-4.60446
11
5.77591
21
-4.60182
0
LINE
8
BLACK
6
CONTINUOUS
10
5.77591
20
-4.60182
11
5.77976
21
-4.60042
0
LINE
8
BLACK
6
CONTINUOUS
10
5.77976
20
-4.60042
11
5.78386
21
-4.60042
0
LINE
8
BLACK
6
CONTINUOUS
10
5.78386
20
-4.60042
11
5.78772
21
-4.60182
0
LINE
8
BLACK
6
CONTINUOUS
10
7.07055
20
-4.45154
11
7.07883
21
-4.45376
0
LINE
8
BLACK
6
CONTINUOUS
10
7.07883
20
-4.45376
11
7.08661
21
-4.45738
0
LINE
8
BLACK
6
CONTINUOUS
10
7.08661
20
-4.45738
11
7.09363
21
-4.4623
0
LINE
8
BLACK
6
CONTINUOUS
10
7.09363
20
-4.4623
11
7.0997
21
-4.46837
0
LINE
8
BLACK
6
CONTINUOUS
10
7.0997
20
-4.46837
11
7.10462
21
-4.47539
0
LINE
8
BLACK
6
CONTINUOUS
10
7.10462
20
-4.47539
11
7.10824
21
-4.48317
0
LINE
8
BLACK
6
CONTINUOUS
10
7.10824
20
-4.48317
11
7.11046
21
-4.49145
0
LINE
8
BLACK
6
CONTINUOUS
10
7.11046
20
-4.49145
11
7.11121
21
-4.5
0
LINE
8
BLACK
6
CONTINUOUS
10
7.11121
20
-4.5
11
7.11046
21
-4.50855
0
LINE
8
BLACK
6
CONTINUOUS
10
7.11046
20
-4.50855
11
7.10824
21
-4.51683
0
LINE
8
BLACK
6
CONTINUOUS
10
7.10824
20
-4.51683
11
7.10462
21
-4.52461
0
LINE
8
BLACK
6
CONTINUOUS
10
7.10462
20
-4.52461
11
7.0997
21
-4.53163
0
LINE
8
BLACK
6
CONTINUOUS
10
7.0997
20
-4.53163
11
7.09363
21
-4.5377
0
LINE
8
BLACK
6
CONTINUOUS
10
7.09363
20
-4.5377
11
7.08661
21
-4.54262
0
LINE
8
BLACK
6
CONTINUOUS
10
7.08661
20
-4.54262
11
7.07883
21
-4.54624
0
LINE
8
BLACK
6
CONTINUOUS
10
7.07883
20
-4.54624
11
7.07055
21
-4.54846
0
LINE
8
BLACK
6
CONTINUOUS
10
7.07055
20
-4.54846
11
7.062
21
-4.54921
0
LINE
8
BLACK
6
CONTINUOUS
10
7.062
20
-4.54921
11
7.05345
21
-4.54846
0
LINE
8
BLACK
6
CONTINUOUS
10
7.05345
20
-4.54846
11
7.04517
21
-4.54624
0
LINE
8
BLACK
6
CONTINUOUS
10
7.04517
20
-4.54624
11
7.03739
21
-4.54262
0
LINE
8
BLACK
6
CONTINUOUS
10
7.03739
20
-4.54262
11
7.03037
21
-4.5377
0
LINE
8
BLACK
6
CONTINUOUS
10
7.03037
20
-4.5377
11
7.0243
21
-4.53163
0
LINE
8
BLACK
6
CONTINUOUS
10
7.0243
20
-4.53163
11
7.01938
21
-4.52461
0
LINE
8
BLACK
6
CONTINUOUS
10
7.01938
20
-4.52461
11
7.01576
21
-4.51683
0
LINE
8
BLACK
6
CONTINUOUS
10
7.01576
20
-4.51683
11
7.01354
21
-4.50855
0
LINE
8
BLACK
6
CONTINUOUS
10
7.01354
20
-4.50855
11
7.01279
21
-4.5
0
LINE
8
BLACK
6
CONTINUOUS
10
7.01279
20
-4.5
11
7.01354
21
-4.49145
0
LINE
8
BLACK
6
CONTINUOUS
10
7.01354
20
-4.49145
11
7.01576
21
-4.48317
0
LINE
8
BLACK
6
CONTINUOUS
10
7.01576
20
-4.48317
11
7.01938
21
-4.47539
0
LINE
8
BLACK
6
CONTINUOUS
10
7.01938
20
-4.47539
11
7.0243
21
-4.46837
0
LINE
8
BLACK
6
CONTINUOUS
10
7.0243
20
-4.46837
11
7.03037
21
-4.4623
0
LINE
8
BLACK
6
CONTINUOUS
10
7.03037
20
-4.4623
11
7.03739
21
-4.45738
0
LINE
8
BLACK
6
CONTINUOUS
10
7.03739
20
-4.45738
11
7.04517
21
-4.45376
0
LINE
8
BLACK
6
CONTINUOUS
10
7.04517
20
-4.45376
11
7.05345
21
-4.45154
0
LINE
8
BLACK
6
CONTINUOUS
10
7.05345
20
-4.45154
11
7.062
21
-4.45079
0
LINE
8
BLACK
6
CONTINUOUS
10
7.062
20
-4.45079
11
7.07055
21
-4.45154
0
LINE
8
BLACK
6
CONTINUOUS
10
5.46
20
-4.61
11
5.4
21
-4.61
0
LINE
8
BLACK
6
CONTINUOUS
10
5.4
20
-4.61
11
5.4
21
-4.55
0
LINE
8
BLACK
6
CONTINUOUS
10
5.4
20
-4.55
11
5.46
21
-4.55
0
LINE
8
BLACK
6
CONTINUOUS
10
5.46
20
-4.55
11
5.46
21
-4.61
0
LINE
8
BLACK
6
CONTINUOUS
10
5.56
20
-4.61
11
5.5
21
-4.61
0
LINE
8
BLACK
6
CONTINUOUS
10
5.5
20
-4.61
11
5.5
21
-4.55
0
LINE
8
BLACK
6
CONTINUOUS
10
5.5
20
-4.55
11
5.56
21
-4.55
0
LINE
8
BLACK
6
CONTINUOUS
10
5.56
20
-4.55
11
5.56
21
-4.61
0
LINE
8
BLACK
6
CONTINUOUS
10
5.85
20
-4.18
11
5.79
21
-4.18
0
LINE
8
BLACK
6
CONTINUOUS
10
5.79
20
-4.18
11
5.79
21
-4.12
0
LINE
8
BLACK
6
CONTINUOUS
10
5.79
20
-4.12
11
5.85
21
-4.12
0
LINE
8
BLACK
6
CONTINUOUS
10
5.85
20
-4.12
11
5.85
21
-4.18
0
LINE
8
BLACK
6
CONTINUOUS
10
6.06921
20
-4.18
11
6.00921
21
-4.18
0
LINE
8
BLACK
6
CONTINUOUS
10
6.00921
20
-4.18
11
6.00921
21
-4.12
0
LINE
8
BLACK
6
CONTINUOUS
10
6.00921
20
-4.12
11
6.06921
21
-4.12
0
LINE
8
BLACK
6
CONTINUOUS
10
6.06921
20
-4.12
11
6.06921
21
-4.18
0
LINE
8
BLACK
6
CONTINUOUS
10
5.85
20
-4.08
11
5.79
21
-4.08
0
LINE
8
BLACK
6
CONTINUOUS
10
5.79
20
-4.08
11
5.79
21
-4.02
0
LINE
8
BLACK
6
CONTINUOUS
10
5.79
20
-4.02
11
5.85
21
-4.02
0
LINE
8
BLACK
6
CONTINUOUS
10
5.85
20
-4.02
11
5.85
21
-4.08
0
LINE
8
BLACK
6
CONTINUOUS
10
6.06921
20
-4.08
11
6.00921
21
-4.08
0
LINE
8
BLACK
6
CONTINUOUS
10
6.00921
20
-4.08
11
6.00921
21
-4.02
0
LINE
8
BLACK
6
CONTINUOUS
10
6.00921
20
-4.02
11
6.06921
21
-4.02
0
LINE
8
BLACK
6
CONTINUOUS
10
6.06921
20
-4.02
11
6.06921
21
-4.08
0
LINE
8
BLACK
6
CONTINUOUS
10
7.26802
20
-3.93049
11
7.26985
21
-3.9326
0
LINE
8
BLACK
6
CONTINUOUS
10
7.26985
20
-3.9326
11
7.2703
21
-3.93467
0
LINE
8
BLACK
6
CONTINUOUS
10
7.2703
20
-3.93467
11
7.2703
21
-5.06533
0
LINE
8
BLACK
6
CONTINUOUS
10
7.2703
20
-5.06533
11
7.26951
21
-5.06802
0
LINE
8
BLACK
6
CONTINUOUS
10
7.26951
20
-5.06802
11
7.2674
21
-5.06985
0
LINE
8
BLACK
6
CONTINUOUS
10
7.2674
20
-5.06985
11
7.26533
21
-5.0703
0
LINE
8
BLACK
6
CONTINUOUS
10
7.26533
20
-5.0703
11
5.33467
21
-5.0703
0
LINE
8
BLACK
6
CONTINUOUS
10
5.33467
20
-5.0703
11
5.33198
21
-5.06951
0
LINE
8
BLACK
6
CONTINUOUS
10
5.33198
20
-5.06951
11
5.33015
21
-5.0674
0
LINE
8
BLACK
6
CONTINUOUS
10
5.33015
20
-5.0674
11
5.3297
21
-5.06533
0
LINE
8
BLACK
6
CONTINUOUS
10
5.3297
20
-5.06533
11
5.3297
21
-4.71191
0
LINE
8
BLACK
6
CONTINUOUS
10
5.3297
20
-4.71191
11
5.3297
21
-4.61099
0
LINE
8
BLACK
6
CONTINUOUS
10
5.3297
20
-4.61099
11
5.3297
21
-4.51191
0
LINE
8
BLACK
6
CONTINUOUS
10
5.3297
20
-4.51191
11
5.3297
21
-4.395
0
LINE
8
BLACK
6
CONTINUOUS
10
5.3297
20
-4.395
11
5.3297
21
-4.33071
0
LINE
8
BLACK
6
CONTINUOUS
10
5.3297
20
-4.33071
11
5.3297
21
-4.18191
0
LINE
8
BLACK
6
CONTINUOUS
10
5.3297
20
-4.18191
11
5.3297
21
-3.93467
0
LINE
8
BLACK
6
CONTINUOUS
10
5.3297
20
-3.93467
11
5.33049
21
-3.93198
0
LINE
8
BLACK
6
CONTINUOUS
10
5.33049
20
-3.93198
11
5.3326
21
-3.93015
0
LINE
8
BLACK
6
CONTINUOUS
10
5.3326
20
-3.93015
11
5.33467
21
-3.9297
0
LINE
8
BLACK
6
CONTINUOUS
10
5.33467
20
-3.9297
11
7.26533
21
-3.9297
0
LINE
8
BLACK
6
CONTINUOUS
10
7.26533
20
-3.9297
11
7.26802
21
-3.93049
0
LINE
8
BLACK
6
CONTINUOUS
10
5.74462
20
-4.45692
11
5.74204
21
-4.45799
0
LINE
8
BLACK
6
CONTINUOUS
10
5.74204
20
-4.45799
11
5.73931
21
-4.45912
0
LINE
8
BLACK
6
CONTINUOUS
10
5.73931
20
-4.45912
11
5.73931
21
-4.45912
0
LINE
8
BLACK
6
CONTINUOUS
10
5.73931
20
-4.45912
11
5.73931
21
-4.45912
0
LINE
8
BLACK
6
CONTINUOUS
10
5.73931
20
-4.45912
11
5.73475
21
-4.46262
0
LINE
8
BLACK
6
CONTINUOUS
10
5.73475
20
-4.46262
11
5.73125
21
-4.46718
0
LINE
8
BLACK
6
CONTINUOUS
10
5.73125
20
-4.46718
11
5.73125
21
-4.46718
0
LINE
8
BLACK
6
CONTINUOUS
10
5.73125
20
-4.46718
11
5.73051
21
-4.46897
0
LINE
8
BLACK
6
CONTINUOUS
10
5.73051
20
-4.46897
11
5.72905
21
-4.47249
0
LINE
8
BLACK
6
CONTINUOUS
10
5.72905
20
-4.47249
11
5.7283
21
-4.47819
0
LINE
8
BLACK
6
CONTINUOUS
10
5.7283
20
-4.47819
11
5.7283
21
-4.47819
0
LINE
8
BLACK
6
CONTINUOUS
10
5.7283
20
-4.47819
11
5.72905
21
-4.48389
0
LINE
8
BLACK
6
CONTINUOUS
10
5.72905
20
-4.48389
11
5.73125
21
-4.4892
0
LINE
8
BLACK
6
CONTINUOUS
10
5.73125
20
-4.4892
11
5.73125
21
-4.4892
0
LINE
8
BLACK
6
CONTINUOUS
10
5.73125
20
-4.4892
11
5.73435
21
-4.49324
0
LINE
8
BLACK
6
CONTINUOUS
10
5.73435
20
-4.49324
11
5.73536
21
-4.49585
0
LINE
8
BLACK
6
CONTINUOUS
10
5.73536
20
-4.49585
11
5.73537
21
-4.49626
0
LINE
8
BLACK
6
CONTINUOUS
10
5.73537
20
-4.49626
11
5.73537
21
-4.63361
0
LINE
8
BLACK
6
CONTINUOUS
10
5.73537
20
-4.63361
11
5.73527
21
-4.63462
0
LINE
8
BLACK
6
CONTINUOUS
10
5.73527
20
-4.63462
11
5.73518
21
-4.63504
0
LINE
8
BLACK
6
CONTINUOUS
10
5.73518
20
-4.63504
11
5.73527
21
-4.63578
0
LINE
8
BLACK
6
CONTINUOUS
10
5.73527
20
-4.63578
11
5.73535
21
-4.63644
0
LINE
8
BLACK
6
CONTINUOUS
10
5.73535
20
-4.63644
11
5.73537
21
-4.63675
0
LINE
8
BLACK
6
CONTINUOUS
10
5.73537
20
-4.63675
11
5.73537
21
-4.63691
0
LINE
8
BLACK
6
CONTINUOUS
10
5.73537
20
-4.63691
11
5.73547
21
-4.63748
0
LINE
8
BLACK
6
CONTINUOUS
10
5.73547
20
-4.63748
11
5.73552
21
-4.63777
0
LINE
8
BLACK
6
CONTINUOUS
10
5.73552
20
-4.63777
11
5.73553
21
-4.63787
0
LINE
8
BLACK
6
CONTINUOUS
10
5.73553
20
-4.63787
11
5.7358
21
-4.63999
0
LINE
8
BLACK
6
CONTINUOUS
10
5.7358
20
-4.63999
11
5.73589
21
-4.64029
0
LINE
8
BLACK
6
CONTINUOUS
10
5.73589
20
-4.64029
11
5.73599
21
-4.64059
0
LINE
8
BLACK
6
CONTINUOUS
10
5.73599
20
-4.64059
11
5.737
21
-4.64246
0
LINE
8
BLACK
6
CONTINUOUS
10
5.737
20
-4.64246
11
5.73705
21
-4.64255
0
LINE
8
BLACK
6
CONTINUOUS
10
5.73705
20
-4.64255
11
5.73768
21
-4.64385
0
LINE
8
BLACK
6
CONTINUOUS
10
5.73768
20
-4.64385
11
5.73799
21
-4.64447
0
LINE
8
BLACK
6
CONTINUOUS
10
5.73799
20
-4.64447
11
5.73799
21
-4.64447
0
LINE
8
BLACK
6
CONTINUOUS
10
5.73799
20
-4.64447
11
5.73817
21
-4.64473
0
LINE
8
BLACK
6
CONTINUOUS
10
5.73817
20
-4.64473
11
5.73836
21
-4.64497
0
LINE
8
BLACK
6
CONTINUOUS
10
5.73836
20
-4.64497
11
5.73993
21
-4.64642
0
LINE
8
BLACK
6
CONTINUOUS
10
5.73993
20
-4.64642
11
5.74
21
-4.64649
0
LINE
8
BLACK
6
CONTINUOUS
10
5.74
20
-4.64649
11
5.75737
21
-4.66385
0
LINE
8
BLACK
6
CONTINUOUS
10
5.75737
20
-4.66385
11
5.77329
21
-4.67978
0
LINE
8
BLACK
6
CONTINUOUS
10
5.77329
20
-4.67978
11
5.77463
21
-4.68223
0
LINE
8
BLACK
6
CONTINUOUS
10
5.77463
20
-4.68223
11
5.77474
21
-4.68328
0
LINE
8
BLACK
6
CONTINUOUS
10
5.77474
20
-4.68328
11
5.77474
21
-4.73425
0
LINE
8
BLACK
6
CONTINUOUS
10
5.77474
20
-4.73425
11
5.77464
21
-4.73527
0
LINE
8
BLACK
6
CONTINUOUS
10
5.77464
20
-4.73527
11
5.77455
21
-4.73569
0
LINE
8
BLACK
6
CONTINUOUS
10
5.77455
20
-4.73569
11
5.77464
21
-4.73643
0
LINE
8
BLACK
6
CONTINUOUS
10
5.77464
20
-4.73643
11
5.77473
21
-4.73709
0
LINE
8
BLACK
6
CONTINUOUS
10
5.77473
20
-4.73709
11
5.77474
21
-4.7374
0
LINE
8
BLACK
6
CONTINUOUS
10
5.77474
20
-4.7374
11
5.77474
21
-4.73756
0
LINE
8
BLACK
6
CONTINUOUS
10
5.77474
20
-4.73756
11
5.77484
21
-4.73812
0
LINE
8
BLACK
6
CONTINUOUS
10
5.77484
20
-4.73812
11
5.77489
21
-4.73842
0
LINE
8
BLACK
6
CONTINUOUS
10
5.77489
20
-4.73842
11
5.7749
21
-4.73852
0
LINE
8
BLACK
6
CONTINUOUS
10
5.7749
20
-4.73852
11
5.77517
21
-4.74064
0
LINE
8
BLACK
6
CONTINUOUS
10
5.77517
20
-4.74064
11
5.77526
21
-4.74094
0
LINE
8
BLACK
6
CONTINUOUS
10
5.77526
20
-4.74094
11
5.77536
21
-4.74124
0
LINE
8
BLACK
6
CONTINUOUS
10
5.77536
20
-4.74124
11
5.77637
21
-4.74311
0
LINE
8
BLACK
6
CONTINUOUS
10
5.77637
20
-4.74311
11
5.77642
21
-4.7432
0
LINE
8
BLACK
6
CONTINUOUS
10
5.77642
20
-4.7432
11
5.77705
21
-4.74449
0
LINE
8
BLACK
6
CONTINUOUS
10
5.77705
20
-4.74449
11
5.77736
21
-4.74512
0
LINE
8
BLACK
6
CONTINUOUS
10
5.77736
20
-4.74512
11
5.77736
21
-4.74512
0
LINE
8
BLACK
6
CONTINUOUS
10
5.77736
20
-4.74512
11
5.77754
21
-4.74537
0
LINE
8
BLACK
6
CONTINUOUS
10
5.77754
20
-4.74537
11
5.77773
21
-4.74562
0
LINE
8
BLACK
6
CONTINUOUS
10
5.77773
20
-4.74562
11
5.7793
21
-4.74707
0
LINE
8
BLACK
6
CONTINUOUS
10
5.7793
20
-4.74707
11
5.77937
21
-4.74714
0
LINE
8
BLACK
6
CONTINUOUS
10
5.77937
20
-4.74714
11
5.79076
21
-4.75852
0
LINE
8
BLACK
6
CONTINUOUS
10
5.79076
20
-4.75852
11
5.79955
21
-4.76731
0
LINE
8
BLACK
6
CONTINUOUS
10
5.79955
20
-4.76731
11
5.80089
21
-4.76977
0
LINE
8
BLACK
6
CONTINUOUS
10
5.80089
20
-4.76977
11
5.80096
21
-4.77017
0
LINE
8
BLACK
6
CONTINUOUS
10
5.80096
20
-4.77017
11
5.80163
21
-4.77523
0
LINE
8
BLACK
6
CONTINUOUS
10
5.80163
20
-4.77523
11
5.80383
21
-4.78054
0
LINE
8
BLACK
6
CONTINUOUS
10
5.80383
20
-4.78054
11
5.80383
21
-4.78054
0
LINE
8
BLACK
6
CONTINUOUS
10
5.80383
20
-4.78054
11
5.80732
21
-4.7851
0
LINE
8
BLACK
6
CONTINUOUS
10
5.80732
20
-4.7851
11
5.81188
21
-4.7886
0
LINE
8
BLACK
6
CONTINUOUS
10
5.81188
20
-4.7886
11
5.81188
21
-4.7886
0
LINE
8
BLACK
6
CONTINUOUS
10
5.81188
20
-4.7886
11
5.8172
21
-4.7908
0
LINE
8
BLACK
6
CONTINUOUS
10
5.8172
20
-4.7908
11
5.82289
21
-4.79155
0
LINE
8
BLACK
6
CONTINUOUS
10
5.82289
20
-4.79155
11
5.82859
21
-4.7908
0
LINE
8
BLACK
6
CONTINUOUS
10
5.82859
20
-4.7908
11
5.8339
21
-4.7886
0
LINE
8
BLACK
6
CONTINUOUS
10
5.8339
20
-4.7886
11
5.83846
21
-4.7851
0
LINE
8
BLACK
6
CONTINUOUS
10
5.83846
20
-4.7851
11
5.84196
21
-4.78054
0
LINE
8
BLACK
6
CONTINUOUS
10
5.84196
20
-4.78054
11
5.84416
21
-4.77523
0
LINE
8
BLACK
6
CONTINUOUS
10
5.84416
20
-4.77523
11
5.84491
21
-4.76953
0
LINE
8
BLACK
6
CONTINUOUS
10
5.84491
20
-4.76953
11
5.84416
21
-4.76383
0
LINE
8
BLACK
6
CONTINUOUS
10
5.84416
20
-4.76383
11
5.84196
21
-4.75852
0
LINE
8
BLACK
6
CONTINUOUS
10
5.84196
20
-4.75852
11
5.83846
21
-4.75396
0
LINE
8
BLACK
6
CONTINUOUS
10
5.83846
20
-4.75396
11
5.83846
21
-4.75396
0
LINE
8
BLACK
6
CONTINUOUS
10
5.83846
20
-4.75396
11
5.83846
21
-4.75396
0
LINE
8
BLACK
6
CONTINUOUS
10
5.83846
20
-4.75396
11
5.8339
21
-4.75046
0
LINE
8
BLACK
6
CONTINUOUS
10
5.8339
20
-4.75046
11
5.83383
21
-4.75042
0
LINE
8
BLACK
6
CONTINUOUS
10
5.83383
20
-4.75042
11
5.83379
21
-4.75037
0
LINE
8
BLACK
6
CONTINUOUS
10
5.83379
20
-4.75037
11
5.83365
21
-4.75026
0
LINE
8
BLACK
6
CONTINUOUS
10
5.83365
20
-4.75026
11
5.83366
21
-4.75024
0
LINE
8
BLACK
6
CONTINUOUS
10
5.83366
20
-4.75024
11
5.83191
21
-4.7484
0
LINE
8
BLACK
6
CONTINUOUS
10
5.83191
20
-4.7484
11
5.83138
21
-4.74565
0
LINE
8
BLACK
6
CONTINUOUS
10
5.83138
20
-4.74565
11
5.83242
21
-4.74306
0
LINE
8
BLACK
6
CONTINUOUS
10
5.83242
20
-4.74306
11
5.83469
21
-4.74143
0
LINE
8
BLACK
6
CONTINUOUS
10
5.83469
20
-4.74143
11
5.83631
21
-4.74116
0
LINE
8
BLACK
6
CONTINUOUS
10
5.83631
20
-4.74116
11
5.92711
21
-4.74116
0
LINE
8
BLACK
6
CONTINUOUS
10
5.92711
20
-4.74116
11
5.92979
21
-4.74195
0
LINE
8
BLACK
6
CONTINUOUS
10
5.92979
20
-4.74195
11
5.93062
21
-4.74261
0
LINE
8
BLACK
6
CONTINUOUS
10
5.93062
20
-4.74261
11
5.95532
21
-4.76731
0
LINE
8
BLACK
6
CONTINUOUS
10
5.95532
20
-4.76731
11
5.95666
21
-4.76977
0
LINE
8
BLACK
6
CONTINUOUS
10
5.95666
20
-4.76977
11
5.95673
21
-4.77017
0
LINE
8
BLACK
6
CONTINUOUS
10
5.95673
20
-4.77017
11
5.95739
21
-4.77523
0
LINE
8
BLACK
6
CONTINUOUS
10
5.95739
20
-4.77523
11
5.95959
21
-4.78054
0
LINE
8
BLACK
6
CONTINUOUS
10
5.95959
20
-4.78054
11
5.95959
21
-4.78054
0
LINE
8
BLACK
6
CONTINUOUS
10
5.95959
20
-4.78054
11
5.96309
21
-4.7851
0
LINE
8
BLACK
6
CONTINUOUS
10
5.96309
20
-4.7851
11
5.96765
21
-4.7886
0
LINE
8
BLACK
6
CONTINUOUS
10
5.96765
20
-4.7886
11
5.96765
21
-4.7886
0
LINE
8
BLACK
6
CONTINUOUS
10
5.96765
20
-4.7886
11
5.97296
21
-4.7908
0
LINE
8
BLACK
6
CONTINUOUS
10
5.97296
20
-4.7908
11
5.97866
21
-4.79155
0
LINE
8
BLACK
6
CONTINUOUS
10
5.97866
20
-4.79155
11
5.98436
21
-4.7908
0
LINE
8
BLACK
6
CONTINUOUS
10
5.98436
20
-4.7908
11
5.98967
21
-4.7886
0
LINE
8
BLACK
6
CONTINUOUS
10
5.98967
20
-4.7886
11
5.99423
21
-4.7851
0
LINE
8
BLACK
6
CONTINUOUS
10
5.99423
20
-4.7851
11
5.99773
21
-4.78054
0
LINE
8
BLACK
6
CONTINUOUS
10
5.99773
20
-4.78054
11
5.99993
21
-4.77523
0
LINE
8
BLACK
6
CONTINUOUS
10
5.99993
20
-4.77523
11
6.00068
21
-4.76953
0
LINE
8
BLACK
6
CONTINUOUS
10
6.00068
20
-4.76953
11
5.99993
21
-4.76383
0
LINE
8
BLACK
6
CONTINUOUS
10
5.99993
20
-4.76383
11
5.99773
21
-4.75852
0
LINE
8
BLACK
6
CONTINUOUS
10
5.99773
20
-4.75852
11
5.99423
21
-4.75396
0
LINE
8
BLACK
6
CONTINUOUS
10
5.99423
20
-4.75396
11
5.99423
21
-4.75396
0
LINE
8
BLACK
6
CONTINUOUS
10
5.99423
20
-4.75396
11
5.99423
21
-4.75396
0
LINE
8
BLACK
6
CONTINUOUS
10
5.99423
20
-4.75396
11
5.98967
21
-4.75046
0
LINE
8
BLACK
6
CONTINUOUS
10
5.98967
20
-4.75046
11
5.98967
21
-4.75046
0
LINE
8
BLACK
6
CONTINUOUS
10
5.98967
20
-4.75046
11
5.98436
21
-4.74826
0
LINE
8
BLACK
6
CONTINUOUS
10
5.98436
20
-4.74826
11
5.97931
21
-4.74759
0
LINE
8
BLACK
6
CONTINUOUS
10
5.97931
20
-4.74759
11
5.97675
21
-4.74646
0
LINE
8
BLACK
6
CONTINUOUS
10
5.97675
20
-4.74646
11
5.97645
21
-4.74618
0
LINE
8
BLACK
6
CONTINUOUS
10
5.97645
20
-4.74618
11
5.94738
21
-4.71712
0
LINE
8
BLACK
6
CONTINUOUS
10
5.94738
20
-4.71712
11
5.94673
21
-4.71632
0
LINE
8
BLACK
6
CONTINUOUS
10
5.94673
20
-4.71632
11
5.9465
21
-4.71596
0
LINE
8
BLACK
6
CONTINUOUS
10
5.9465
20
-4.71596
11
5.9465
21
-4.71596
0
LINE
8
BLACK
6
CONTINUOUS
10
5.9465
20
-4.71596
11
5.94538
21
-4.71509
0
LINE
8
BLACK
6
CONTINUOUS
10
5.94538
20
-4.71509
11
5.94515
21
-4.71489
0
LINE
8
BLACK
6
CONTINUOUS
10
5.94515
20
-4.71489
11
5.94504
21
-4.71478
0
LINE
8
BLACK
6
CONTINUOUS
10
5.94504
20
-4.71478
11
5.94504
21
-4.71478
0
LINE
8
BLACK
6
CONTINUOUS
10
5.94504
20
-4.71478
11
5.94504
21
-4.71478
0
LINE
8
BLACK
6
CONTINUOUS
10
5.94504
20
-4.71478
11
5.94504
21
-4.71478
0
LINE
8
BLACK
6
CONTINUOUS
10
5.94504
20
-4.71478
11
5.94433
21
-4.71427
0
LINE
8
BLACK
6
CONTINUOUS
10
5.94433
20
-4.71427
11
5.94425
21
-4.71421
0
LINE
8
BLACK
6
CONTINUOUS
10
5.94425
20
-4.71421
11
5.94256
21
-4.7129
0
LINE
8
BLACK
6
CONTINUOUS
10
5.94256
20
-4.7129
11
5.94229
21
-4.71275
0
LINE
8
BLACK
6
CONTINUOUS
10
5.94229
20
-4.71275
11
5.94201
21
-4.71261
0
LINE
8
BLACK
6
CONTINUOUS
10
5.94201
20
-4.71261
11
5.93996
21
-4.712
0
LINE
8
BLACK
6
CONTINUOUS
10
5.93996
20
-4.712
11
5.93987
21
-4.71197
0
LINE
8
BLACK
6
CONTINUOUS
10
5.93987
20
-4.71197
11
5.93785
21
-4.71128
0
LINE
8
BLACK
6
CONTINUOUS
10
5.93785
20
-4.71128
11
5.93754
21
-4.71123
0
LINE
8
BLACK
6
CONTINUOUS
10
5.93754
20
-4.71123
11
5.93723
21
-4.71119
0
LINE
8
BLACK
6
CONTINUOUS
10
5.93723
20
-4.71119
11
5.93547
21
-4.71126
0
LINE
8
BLACK
6
CONTINUOUS
10
5.93547
20
-4.71126
11
5.9351
21
-4.71128
0
LINE
8
BLACK
6
CONTINUOUS
10
5.9351
20
-4.71128
11
5.935
21
-4.71128
0
LINE
8
BLACK
6
CONTINUOUS
10
5.935
20
-4.71128
11
5.84124
21
-4.71128
0
LINE
8
BLACK
6
CONTINUOUS
10
5.84124
20
-4.71128
11
5.83855
21
-4.71049
0
LINE
8
BLACK
6
CONTINUOUS
10
5.83855
20
-4.71049
11
5.83773
21
-4.70983
0
LINE
8
BLACK
6
CONTINUOUS
10
5.83773
20
-4.70983
11
5.83364
21
-4.70574
0
LINE
8
BLACK
6
CONTINUOUS
10
5.83364
20
-4.70574
11
5.8323
21
-4.70328
0
LINE
8
BLACK
6
CONTINUOUS
10
5.8323
20
-4.70328
11
5.83219
21
-4.70223
0
LINE
8
BLACK
6
CONTINUOUS
10
5.83219
20
-4.70223
11
5.83219
21
-4.66529
0
LINE
8
BLACK
6
CONTINUOUS
10
5.83219
20
-4.66529
11
5.83229
21
-4.66427
0
LINE
8
BLACK
6
CONTINUOUS
10
5.83229
20
-4.66427
11
5.83238
21
-4.66385
0
LINE
8
BLACK
6
CONTINUOUS
10
5.83238
20
-4.66385
11
5.8322
21
-4.66245
0
LINE
8
BLACK
6
CONTINUOUS
10
5.8322
20
-4.66245
11
5.83219
21
-4.66215
0
LINE
8
BLACK
6
CONTINUOUS
10
5.83219
20
-4.66215
11
5.83219
21
-4.66199
0
LINE
8
BLACK
6
CONTINUOUS
10
5.83219
20
-4.66199
11
5.83219
21
-4.66199
0
LINE
8
BLACK
6
CONTINUOUS
10
5.83219
20
-4.66199
11
5.83204
21
-4.66112
0
LINE
8
BLACK
6
CONTINUOUS
10
5.83204
20
-4.66112
11
5.83203
21
-4.66102
0
LINE
8
BLACK
6
CONTINUOUS
10
5.83203
20
-4.66102
11
5.83176
21
-4.65891
0
LINE
8
BLACK
6
CONTINUOUS
10
5.83176
20
-4.65891
11
5.83176
21
-4.65891
0
LINE
8
BLACK
6
CONTINUOUS
10
5.83176
20
-4.65891
11
5.83167
21
-4.65861
0
LINE
8
BLACK
6
CONTINUOUS
10
5.83167
20
-4.65861
11
5.83157
21
-4.65831
0
LINE
8
BLACK
6
CONTINUOUS
10
5.83157
20
-4.65831
11
5.83157
21
-4.65831
0
LINE
8
BLACK
6
CONTINUOUS
10
5.83157
20
-4.65831
11
5.83157
21
-4.65831
0
LINE
8
BLACK
6
CONTINUOUS
10
5.83157
20
-4.65831
11
5.83056
21
-4.65643
0
LINE
8
BLACK
6
CONTINUOUS
10
5.83056
20
-4.65643
11
5.83051
21
-4.65634
0
LINE
8
BLACK
6
CONTINUOUS
10
5.83051
20
-4.65634
11
5.82957
21
-4.65443
0
LINE
8
BLACK
6
CONTINUOUS
10
5.82957
20
-4.65443
11
5.82957
21
-4.65443
0
LINE
8
BLACK
6
CONTINUOUS
10
5.82957
20
-4.65443
11
5.82957
21
-4.65443
0
LINE
8
BLACK
6
CONTINUOUS
10
5.82957
20
-4.65443
11
5.82939
21
-4.65417
0
LINE
8
BLACK
6
CONTINUOUS
10
5.82939
20
-4.65417
11
5.8292
21
-4.65392
0
LINE
8
BLACK
6
CONTINUOUS
10
5.8292
20
-4.65392
11
5.82763
21
-4.65248
0
LINE
8
BLACK
6
CONTINUOUS
10
5.82763
20
-4.65248
11
5.82756
21
-4.65241
0
LINE
8
BLACK
6
CONTINUOUS
10
5.82756
20
-4.65241
11
5.80244
21
-4.62729
0
LINE
8
BLACK
6
CONTINUOUS
10
5.80244
20
-4.62729
11
5.8011
21
-4.62484
0
LINE
8
BLACK
6
CONTINUOUS
10
5.8011
20
-4.62484
11
5.8013
21
-4.62205
0
LINE
8
BLACK
6
CONTINUOUS
10
5.8013
20
-4.62205
11
5.80136
21
-4.62189
0
LINE
8
BLACK
6
CONTINUOUS
10
5.80136
20
-4.62189
11
5.80308
21
-4.61775
0
LINE
8
BLACK
6
CONTINUOUS
10
5.80308
20
-4.61775
11
5.80383
21
-4.61205
0
LINE
8
BLACK
6
CONTINUOUS
10
5.80383
20
-4.61205
11
5.80308
21
-4.60635
0
LINE
8
BLACK
6
CONTINUOUS
10
5.80308
20
-4.60635
11
5.80088
21
-4.60104
0
LINE
8
BLACK
6
CONTINUOUS
10
5.80088
20
-4.60104
11
5.80008
21
-4.6
0
LINE
8
BLACK
6
CONTINUOUS
10
5.80008
20
-4.6
11
5.79738
21
-4.59648
0
LINE
8
BLACK
6
CONTINUOUS
10
5.79738
20
-4.59648
11
5.79738
21
-4.59648
0
LINE
8
BLACK
6
CONTINUOUS
10
5.79738
20
-4.59648
11
5.79738
21
-4.59648
0
LINE
8
BLACK
6
CONTINUOUS
10
5.79738
20
-4.59648
11
5.79282
21
-4.59298
0
LINE
8
BLACK
6
CONTINUOUS
10
5.79282
20
-4.59298
11
5.79282
21
-4.59298
0
LINE
8
BLACK
6
CONTINUOUS
10
5.79282
20
-4.59298
11
5.78751
21
-4.59078
0
LINE
8
BLACK
6
CONTINUOUS
10
5.78751
20
-4.59078
11
5.78181
21
-4.59003
0
LINE
8
BLACK
6
CONTINUOUS
10
5.78181
20
-4.59003
11
5.77611
21
-4.59078
0
LINE
8
BLACK
6
CONTINUOUS
10
5.77611
20
-4.59078
11
5.77432
21
-4.59152
0
LINE
8
BLACK
6
CONTINUOUS
10
5.77432
20
-4.59152
11
5.77211
21
-4.59243
0
LINE
8
BLACK
6
CONTINUOUS
10
5.77211
20
-4.59243
11
5.76934
21
-4.59273
0
LINE
8
BLACK
6
CONTINUOUS
10
5.76934
20
-4.59273
11
5.76684
21
-4.59148
0
LINE
8
BLACK
6
CONTINUOUS
10
5.76684
20
-4.59148
11
5.76541
21
-4.58908
0
LINE
8
BLACK
6
CONTINUOUS
10
5.76541
20
-4.58908
11
5.76526
21
-4.58785
0
LINE
8
BLACK
6
CONTINUOUS
10
5.76526
20
-4.58785
11
5.76526
21
-4.49626
0
LINE
8
BLACK
6
CONTINUOUS
10
5.76526
20
-4.49626
11
5.76604
21
-4.49358
0
LINE
8
BLACK
6
CONTINUOUS
10
5.76604
20
-4.49358
11
5.76628
21
-4.49324
0
LINE
8
BLACK
6
CONTINUOUS
10
5.76628
20
-4.49324
11
5.76823
21
-4.49071
0
LINE
8
BLACK
6
CONTINUOUS
10
5.76823
20
-4.49071
11
5.76938
21
-4.4892
0
LINE
8
BLACK
6
CONTINUOUS
10
5.76938
20
-4.4892
11
5.77158
21
-4.48389
0
LINE
8
BLACK
6
CONTINUOUS
10
5.77158
20
-4.48389
11
5.77233
21
-4.47819
0
LINE
8
BLACK
6
CONTINUOUS
10
5.77233
20
-4.47819
11
5.77158
21
-4.47249
0
LINE
8
BLACK
6
CONTINUOUS
10
5.77158
20
-4.47249
11
5.76938
21
-4.46718
0
LINE
8
BLACK
6
CONTINUOUS
10
5.76938
20
-4.46718
11
5.76588
21
-4.46262
0
LINE
8
BLACK
6
CONTINUOUS
10
5.76588
20
-4.46262
11
5.76588
21
-4.46262
0
LINE
8
BLACK
6
CONTINUOUS
10
5.76588
20
-4.46262
11
5.76588
21
-4.46262
0
LINE
8
BLACK
6
CONTINUOUS
10
5.76588
20
-4.46262
11
5.76132
21
-4.45912
0
LINE
8
BLACK
6
CONTINUOUS
10
5.76132
20
-4.45912
11
5.76132
21
-4.45912
0
LINE
8
BLACK
6
CONTINUOUS
10
5.76132
20
-4.45912
11
5.75601
21
-4.45692
0
LINE
8
BLACK
6
CONTINUOUS
10
5.75601
20
-4.45692
11
5.75031
21
-4.45617
0
LINE
8
BLACK
6
CONTINUOUS
10
5.75031
20
-4.45617
11
5.74462
21
-4.45692
0
LINE
8
BLACK
6
CONTINUOUS
10
5.46
20
-4.69
11
5.46
21
-4.71
0
LINE
8
BLACK
6
CONTINUOUS
10
5.46
20
-4.71
11
5.44
21
-4.71
0
LINE
8
BLACK
6
CONTINUOUS
10
5.44
20
-4.71
11
5.44
21
-4.73
0
LINE
8
BLACK
6
CONTINUOUS
10
5.44
20
-4.73
11
5.46191
21
-4.73
0
LINE
8
BLACK
6
CONTINUOUS
10
5.46191
20
-4.73
11
5.46191
21
-4.73
0
LINE
8
BLACK
6
CONTINUOUS
10
5.46191
20
-4.73
11
5.46429
21
-4.72974
0
LINE
8
BLACK
6
CONTINUOUS
10
5.46429
20
-4.72974
11
5.46968
21
-4.72773
0
LINE
8
BLACK
6
CONTINUOUS
10
5.46968
20
-4.72773
11
5.46968
21
-4.72773
0
LINE
8
BLACK
6
CONTINUOUS
10
5.46968
20
-4.72773
11
5.47429
21
-4.72429
0
LINE
8
BLACK
6
CONTINUOUS
10
5.47429
20
-4.72429
11
5.47603
21
-4.72196
0
LINE
8
BLACK
6
CONTINUOUS
10
5.47603
20
-4.72196
11
5.47827
21
-4.72029
0
LINE
8
BLACK
6
CONTINUOUS
10
5.47827
20
-4.72029
11
5.48105
21
-4.72009
0
LINE
8
BLACK
6
CONTINUOUS
10
5.48105
20
-4.72009
11
5.48351
21
-4.72143
0
LINE
8
BLACK
6
CONTINUOUS
10
5.48351
20
-4.72143
11
5.48397
21
-4.72196
0
LINE
8
BLACK
6
CONTINUOUS
10
5.48397
20
-4.72196
11
5.48571
21
-4.72429
0
LINE
8
BLACK
6
CONTINUOUS
10
5.48571
20
-4.72429
11
5.49032
21
-4.72773
0
LINE
8
BLACK
6
CONTINUOUS
10
5.49032
20
-4.72773
11
5.4957
21
-4.72974
0
LINE
8
BLACK
6
CONTINUOUS
10
5.4957
20
-4.72974
11
5.49809
21
-4.73
0
LINE
8
BLACK
6
CONTINUOUS
10
5.49809
20
-4.73
11
5.49809
21
-4.73
0
LINE
8
BLACK
6
CONTINUOUS
10
5.49809
20
-4.73
11
5.52
21
-4.73
0
LINE
8
BLACK
6
CONTINUOUS
10
5.52
20
-4.73
11
5.52
21
-4.71
0
LINE
8
BLACK
6
CONTINUOUS
10
5.52
20
-4.71
11
5.5
21
-4.71
0
LINE
8
BLACK
6
CONTINUOUS
10
5.5
20
-4.71
11
5.5
21
-4.69
0
LINE
8
BLACK
6
CONTINUOUS
10
5.5
20
-4.69
11
5.46
21
-4.69
0
LINE
8
BLACK
6
CONTINUOUS
10
5.56
20
-4.71
11
5.54
21
-4.71
0
LINE
8
BLACK
6
CONTINUOUS
10
5.54
20
-4.71
11
5.54
21
-4.73
0
LINE
8
BLACK
6
CONTINUOUS
10
5.54
20
-4.73
11
5.56191
21
-4.73
0
LINE
8
BLACK
6
CONTINUOUS
10
5.56191
20
-4.73
11
5.56191
21
-4.73
0
LINE
8
BLACK
6
CONTINUOUS
10
5.56191
20
-4.73
11
5.56429
21
-4.72974
0
LINE
8
BLACK
6
CONTINUOUS
10
5.56429
20
-4.72974
11
5.56968
21
-4.72773
0
LINE
8
BLACK
6
CONTINUOUS
10
5.56968
20
-4.72773
11
5.56968
21
-4.72773
0
LINE
8
BLACK
6
CONTINUOUS
10
5.56968
20
-4.72773
11
5.57429
21
-4.72429
0
LINE
8
BLACK
6
CONTINUOUS
10
5.57429
20
-4.72429
11
5.57773
21
-4.71968
0
LINE
8
BLACK
6
CONTINUOUS
10
5.57773
20
-4.71968
11
5.57773
21
-4.71968
0
LINE
8
BLACK
6
CONTINUOUS
10
5.57773
20
-4.71968
11
5.57974
21
-4.71429
0
LINE
8
BLACK
6
CONTINUOUS
10
5.57974
20
-4.71429
11
5.58
21
-4.71191
0
LINE
8
BLACK
6
CONTINUOUS
10
5.58
20
-4.71191
11
5.58
21
-4.71191
0
LINE
8
BLACK
6
CONTINUOUS
10
5.58
20
-4.71191
11
5.58
21
-4.69
0
LINE
8
BLACK
6
CONTINUOUS
10
5.58
20
-4.69
11
5.56
21
-4.69
0
LINE
8
BLACK
6
CONTINUOUS
10
5.56
20
-4.69
11
5.56
21
-4.71
0
LINE
8
BLACK
6
CONTINUOUS
10
6.98857
20
-4.64603
11
6.98018
21
-4.64994
0
LINE
8
BLACK
6
CONTINUOUS
10
6.98018
20
-4.64994
11
6.97123
21
-4.65234
0
LINE
8
BLACK
6
CONTINUOUS
10
6.97123
20
-4.65234
11
6.962
21
-4.65315
0
LINE
8
BLACK
6
CONTINUOUS
10
6.962
20
-4.65315
11
6.95277
21
-4.65234
0
LINE
8
BLACK
6
CONTINUOUS
10
6.95277
20
-4.65234
11
6.94382
21
-4.64994
0
LINE
8
BLACK
6
CONTINUOUS
10
6.94382
20
-4.64994
11
6.93543
21
-4.64603
0
LINE
8
BLACK
6
CONTINUOUS
10
6.93543
20
-4.64603
11
6.9323
21
-4.64384
0
LINE
8
BLACK
6
CONTINUOUS
10
6.9323
20
-4.64384
11
6.91783
21
-4.65831
0
LINE
8
BLACK
6
CONTINUOUS
10
6.91783
20
-4.65831
11
6.91783
21
-4.65831
0
LINE
8
BLACK
6
CONTINUOUS
10
6.91783
20
-4.65831
11
6.92235
21
-4.66169
0
LINE
8
BLACK
6
CONTINUOUS
10
6.92235
20
-4.66169
11
6.93153
21
-4.66671
0
LINE
8
BLACK
6
CONTINUOUS
10
6.93153
20
-4.66671
11
6.94134
21
-4.67037
0
LINE
8
BLACK
6
CONTINUOUS
10
6.94134
20
-4.67037
11
6.95156
21
-4.67259
0
LINE
8
BLACK
6
CONTINUOUS
10
6.95156
20
-4.67259
11
6.962
21
-4.67334
0
LINE
8
BLACK
6
CONTINUOUS
10
6.962
20
-4.67334
11
6.97244
21
-4.67259
0
LINE
8
BLACK
6
CONTINUOUS
10
6.97244
20
-4.67259
11
6.98266
21
-4.67037
0
LINE
8
BLACK
6
CONTINUOUS
10
6.98266
20
-4.67037
11
6.99247
21
-4.66671
0
LINE
8
BLACK
6
CONTINUOUS
10
6.99247
20
-4.66671
11
7.00165
21
-4.66169
0
LINE
8
BLACK
6
CONTINUOUS
10
7.00165
20
-4.66169
11
7.00617
21
-4.65831
0
LINE
8
BLACK
6
CONTINUOUS
10
7.00617
20
-4.65831
11
7.00617
21
-4.65831
0
LINE
8
BLACK
6
CONTINUOUS
10
7.00617
20
-4.65831
11
6.9917
21
-4.64384
0
LINE
8
BLACK
6
CONTINUOUS
10
6.9917
20
-4.64384
11
6.98857
21
-4.64603
0
LINE
8
BLACK
6
CONTINUOUS
10
7.18857
20
-4.64603
11
7.18018
21
-4.64994
0
LINE
8
BLACK
6
CONTINUOUS
10
7.18018
20
-4.64994
11
7.17123
21
-4.65234
0
LINE
8
BLACK
6
CONTINUOUS
10
7.17123
20
-4.65234
11
7.162
21
-4.65315
0
LINE
8
BLACK
6
CONTINUOUS
10
7.162
20
-4.65315
11
7.15277
21
-4.65234
0
LINE
8
BLACK
6
CONTINUOUS
10
7.15277
20
-4.65234
11
7.14382
21
-4.64994
0
LINE
8
BLACK
6
CONTINUOUS
10
7.14382
20
-4.64994
11
7.13543
21
-4.64603
0
LINE
8
BLACK
6
CONTINUOUS
10
7.13543
20
-4.64603
11
7.1323
21
-4.64384
0
LINE
8
BLACK
6
CONTINUOUS
10
7.1323
20
-4.64384
11
7.11783
21
-4.65831
0
LINE
8
BLACK
6
CONTINUOUS
10
7.11783
20
-4.65831
11
7.11783
21
-4.65831
0
LINE
8
BLACK
6
CONTINUOUS
10
7.11783
20
-4.65831
11
7.12235
21
-4.66169
0
LINE
8
BLACK
6
CONTINUOUS
10
7.12235
20
-4.66169
11
7.13153
21
-4.66671
0
LINE
8
BLACK
6
CONTINUOUS
10
7.13153
20
-4.66671
11
7.14134
21
-4.67037
0
LINE
8
BLACK
6
CONTINUOUS
10
7.14134
20
-4.67037
11
7.15156
21
-4.67259
0
LINE
8
BLACK
6
CONTINUOUS
10
7.15156
20
-4.67259
11
7.162
21
-4.67334
0
LINE
8
BLACK
6
CONTINUOUS
10
7.162
20
-4.67334
11
7.17244
21
-4.67259
0
LINE
8
BLACK
6
CONTINUOUS
10
7.17244
20
-4.67259
11
7.18266
21
-4.67037
0
LINE
8
BLACK
6
CONTINUOUS
10
7.18266
20
-4.67037
11
7.19247
21
-4.66671
0
LINE
8
BLACK
6
CONTINUOUS
10
7.19247
20
-4.66671
11
7.20165
21
-4.66169
0
LINE
8
BLACK
6
CONTINUOUS
10
7.20165
20
-4.66169
11
7.20617
21
-4.65831
0
LINE
8
BLACK
6
CONTINUOUS
10
7.20617
20
-4.65831
11
7.20617
21
-4.65831
0
LINE
8
BLACK
6
CONTINUOUS
10
7.20617
20
-4.65831
11
7.1917
21
-4.64384
0
LINE
8
BLACK
6
CONTINUOUS
10
7.1917
20
-4.64384
11
7.18857
21
-4.64603
0
LINE
8
BLACK
6
CONTINUOUS
10
5.54
20
-4.65
11
5.56
21
-4.65
0
LINE
8
BLACK
6
CONTINUOUS
10
5.56
20
-4.65
11
5.56
21
-4.67
0
LINE
8
BLACK
6
CONTINUOUS
10
5.56
20
-4.67
11
5.58
21
-4.67
0
LINE
8
BLACK
6
CONTINUOUS
10
5.58
20
-4.67
11
5.58
21
-4.64809
0
LINE
8
BLACK
6
CONTINUOUS
10
5.58
20
-4.64809
11
5.58
21
-4.64809
0
LINE
8
BLACK
6
CONTINUOUS
10
5.58
20
-4.64809
11
5.57974
21
-4.6457
0
LINE
8
BLACK
6
CONTINUOUS
10
5.57974
20
-4.6457
11
5.57773
21
-4.64032
0
LINE
8
BLACK
6
CONTINUOUS
10
5.57773
20
-4.64032
11
5.57773
21
-4.64032
0
LINE
8
BLACK
6
CONTINUOUS
10
5.57773
20
-4.64032
11
5.57429
21
-4.63571
0
LINE
8
BLACK
6
CONTINUOUS
10
5.57429
20
-4.63571
11
5.56968
21
-4.63227
0
LINE
8
BLACK
6
CONTINUOUS
10
5.56968
20
-4.63227
11
5.56429
21
-4.63026
0
LINE
8
BLACK
6
CONTINUOUS
10
5.56429
20
-4.63026
11
5.56191
21
-4.63
0
LINE
8
BLACK
6
CONTINUOUS
10
5.56191
20
-4.63
11
5.54
21
-4.63
0
LINE
8
BLACK
6
CONTINUOUS
10
5.54
20
-4.63
11
5.54
21
-4.65
0
LINE
8
BLACK
6
CONTINUOUS
10
5.44
20
-4.65
11
5.46
21
-4.65
0
LINE
8
BLACK
6
CONTINUOUS
10
5.46
20
-4.65
11
5.46
21
-4.67
0
LINE
8
BLACK
6
CONTINUOUS
10
5.46
20
-4.67
11
5.5
21
-4.67
0
LINE
8
BLACK
6
CONTINUOUS
10
5.5
20
-4.67
11
5.5
21
-4.65
0
LINE
8
BLACK
6
CONTINUOUS
10
5.5
20
-4.65
11
5.52
21
-4.65
0
LINE
8
BLACK
6
CONTINUOUS
10
5.52
20
-4.65
11
5.52
21
-4.63
0
LINE
8
BLACK
6
CONTINUOUS
10
5.52
20
-4.63
11
5.49809
21
-4.63
0
LINE
8
BLACK
6
CONTINUOUS
10
5.49809
20
-4.63
11
5.4957
21
-4.63026
0
LINE
8
BLACK
6
CONTINUOUS
10
5.4957
20
-4.63026
11
5.49032
21
-4.63227
0
LINE
8
BLACK
6
CONTINUOUS
10
5.49032
20
-4.63227
11
5.49032
21
-4.63227
0
LINE
8
BLACK
6
CONTINUOUS
10
5.49032
20
-4.63227
11
5.48571
21
-4.63571
0
LINE
8
BLACK
6
CONTINUOUS
10
5.48571
20
-4.63571
11
5.48397
21
-4.63804
0
LINE
8
BLACK
6
CONTINUOUS
10
5.48397
20
-4.63804
11
5.48173
21
-4.63971
0
LINE
8
BLACK
6
CONTINUOUS
10
5.48173
20
-4.63971
11
5.47895
21
-4.63991
0
LINE
8
BLACK
6
CONTINUOUS
10
5.47895
20
-4.63991
11
5.47649
21
-4.63857
0
LINE
8
BLACK
6
CONTINUOUS
10
5.47649
20
-4.63857
11
5.47603
21
-4.63804
0
LINE
8
BLACK
6
CONTINUOUS
10
5.47603
20
-4.63804
11
5.47429
21
-4.63571
0
LINE
8
BLACK
6
CONTINUOUS
10
5.47429
20
-4.63571
11
5.46968
21
-4.63227
0
LINE
8
BLACK
6
CONTINUOUS
10
5.46968
20
-4.63227
11
5.46429
21
-4.63026
0
LINE
8
BLACK
6
CONTINUOUS
10
5.46429
20
-4.63026
11
5.46191
21
-4.63
0
LINE
8
BLACK
6
CONTINUOUS
10
5.46191
20
-4.63
11
5.44
21
-4.63
0
LINE
8
BLACK
6
CONTINUOUS
10
5.44
20
-4.63
11
5.44
21
-4.65
0
LINE
8
BLACK
6
CONTINUOUS
10
5.3957
20
-4.63026
11
5.39032
21
-4.63227
0
LINE
8
BLACK
6
CONTINUOUS
10
5.39032
20
-4.63227
11
5.39032
21
-4.63227
0
LINE
8
BLACK
6
CONTINUOUS
10
5.39032
20
-4.63227
11
5.38571
21
-4.63571
0
LINE
8
BLACK
6
CONTINUOUS
10
5.38571
20
-4.63571
11
5.38227
21
-4.64032
0
LINE
8
BLACK
6
CONTINUOUS
10
5.38227
20
-4.64032
11
5.38227
21
-4.64032
0
LINE
8
BLACK
6
CONTINUOUS
10
5.38227
20
-4.64032
11
5.38026
21
-4.6457
0
LINE
8
BLACK
6
CONTINUOUS
10
5.38026
20
-4.6457
11
5.38
21
-4.64809
0
LINE
8
BLACK
6
CONTINUOUS
10
5.38
20
-4.64809
11
5.38
21
-4.67
0
LINE
8
BLACK
6
CONTINUOUS
10
5.38
20
-4.67
11
5.4
21
-4.67
0
LINE
8
BLACK
6
CONTINUOUS
10
5.4
20
-4.67
11
5.4
21
-4.65
0
LINE
8
BLACK
6
CONTINUOUS
10
5.4
20
-4.65
11
5.42
21
-4.65
0
LINE
8
BLACK
6
CONTINUOUS
10
5.42
20
-4.65
11
5.42
21
-4.63
0
LINE
8
BLACK
6
CONTINUOUS
10
5.42
20
-4.63
11
5.39809
21
-4.63
0
LINE
8
BLACK
6
CONTINUOUS
10
5.39809
20
-4.63
11
5.3957
21
-4.63026
0
LINE
8
BLACK
6
CONTINUOUS
10
6.90369
20
-4.55583
11
6.90031
21
-4.56035
0
LINE
8
BLACK
6
CONTINUOUS
10
6.90031
20
-4.56035
11
6.89529
21
-4.56953
0
LINE
8
BLACK
6
CONTINUOUS
10
6.89529
20
-4.56953
11
6.89163
21
-4.57934
0
LINE
8
BLACK
6
CONTINUOUS
10
6.89163
20
-4.57934
11
6.88941
21
-4.58956
0
LINE
8
BLACK
6
CONTINUOUS
10
6.88941
20
-4.58956
11
6.88866
21
-4.6
0
LINE
8
BLACK
6
CONTINUOUS
10
6.88866
20
-4.6
11
6.88941
21
-4.61044
0
LINE
8
BLACK
6
CONTINUOUS
10
6.88941
20
-4.61044
11
6.89163
21
-4.62066
0
LINE
8
BLACK
6
CONTINUOUS
10
6.89163
20
-4.62066
11
6.89529
21
-4.63047
0
LINE
8
BLACK
6
CONTINUOUS
10
6.89529
20
-4.63047
11
6.90031
21
-4.63965
0
LINE
8
BLACK
6
CONTINUOUS
10
6.90031
20
-4.63965
11
6.90369
21
-4.64417
0
LINE
8
BLACK
6
CONTINUOUS
10
6.90369
20
-4.64417
11
6.90369
21
-4.64417
0
LINE
8
BLACK
6
CONTINUOUS
10
6.90369
20
-4.64417
11
6.91816
21
-4.6297
0
LINE
8
BLACK
6
CONTINUOUS
10
6.91816
20
-4.6297
11
6.91597
21
-4.62657
0
LINE
8
BLACK
6
CONTINUOUS
10
6.91597
20
-4.62657
11
6.91206
21
-4.61818
0
LINE
8
BLACK
6
CONTINUOUS
10
6.91206
20
-4.61818
11
6.90966
21
-4.60923
0
LINE
8
BLACK
6
CONTINUOUS
10
6.90966
20
-4.60923
11
6.90885
21
-4.6
0
LINE
8
BLACK
6
CONTINUOUS
10
6.90885
20
-4.6
11
6.90966
21
-4.59077
0
LINE
8
BLACK
6
CONTINUOUS
10
6.90966
20
-4.59077
11
6.91206
21
-4.58182
0
LINE
8
BLACK
6
CONTINUOUS
10
6.91206
20
-4.58182
11
6.91597
21
-4.57343
0
LINE
8
BLACK
6
CONTINUOUS
10
6.91597
20
-4.57343
11
6.91816
21
-4.5703
0
LINE
8
BLACK
6
CONTINUOUS
10
6.91816
20
-4.5703
11
6.90369
21
-4.55583
0
LINE
8
BLACK
6
CONTINUOUS
10
6.90369
20
-4.55583
11
6.90369
21
-4.55583
0
LINE
8
BLACK
6
CONTINUOUS
10
7.10369
20
-4.35583
11
7.10031
21
-4.36035
0
LINE
8
BLACK
6
CONTINUOUS
10
7.10031
20
-4.36035
11
7.09529
21
-4.36953
0
LINE
8
BLACK
6
CONTINUOUS
10
7.09529
20
-4.36953
11
7.09163
21
-4.37934
0
LINE
8
BLACK
6
CONTINUOUS
10
7.09163
20
-4.37934
11
7.08941
21
-4.38956
0
LINE
8
BLACK
6
CONTINUOUS
10
7.08941
20
-4.38956
11
7.08866
21
-4.4
0
LINE
8
BLACK
6
CONTINUOUS
10
7.08866
20
-4.4
11
7.08941
21
-4.41044
0
LINE
8
BLACK
6
CONTINUOUS
10
7.08941
20
-4.41044
11
7.09163
21
-4.42066
0
LINE
8
BLACK
6
CONTINUOUS
10
7.09163
20
-4.42066
11
7.09529
21
-4.43047
0
LINE
8
BLACK
6
CONTINUOUS
10
7.09529
20
-4.43047
11
7.10031
21
-4.43965
0
LINE
8
BLACK
6
CONTINUOUS
10
7.10031
20
-4.43965
11
7.10505
21
-4.44598
0
LINE
8
BLACK
6
CONTINUOUS
10
7.10505
20
-4.44598
11
7.10602
21
-4.4486
0
LINE
8
BLACK
6
CONTINUOUS
10
7.10602
20
-4.4486
11
7.10543
21
-4.45133
0
LINE
8
BLACK
6
CONTINUOUS
10
7.10543
20
-4.45133
11
7.10345
21
-4.45331
0
LINE
8
BLACK
6
CONTINUOUS
10
7.10345
20
-4.45331
11
7.10072
21
-4.4539
0
LINE
8
BLACK
6
CONTINUOUS
10
7.10072
20
-4.4539
11
7.0981
21
-4.45292
0
LINE
8
BLACK
6
CONTINUOUS
10
7.0981
20
-4.45292
11
7.09785
21
-4.45273
0
LINE
8
BLACK
6
CONTINUOUS
10
7.09785
20
-4.45273
11
7.09692
21
-4.45193
0
LINE
8
BLACK
6
CONTINUOUS
10
7.09692
20
-4.45193
11
7.08897
21
-4.44706
0
LINE
8
BLACK
6
CONTINUOUS
10
7.08897
20
-4.44706
11
7.087
21
-4.44624
0
LINE
8
BLACK
6
CONTINUOUS
10
7.087
20
-4.44624
11
7.08036
21
-4.44349
0
LINE
8
BLACK
6
CONTINUOUS
10
7.08036
20
-4.44349
11
7.08036
21
-4.44349
0
LINE
8
BLACK
6
CONTINUOUS
10
7.08036
20
-4.44349
11
7.07129
21
-4.44132
0
LINE
8
BLACK
6
CONTINUOUS
10
7.07129
20
-4.44132
11
7.062
21
-4.44058
0
LINE
8
BLACK
6
CONTINUOUS
10
7.062
20
-4.44058
11
7.05271
21
-4.44132
0
LINE
8
BLACK
6
CONTINUOUS
10
7.05271
20
-4.44132
11
7.04364
21
-4.44349
0
LINE
8
BLACK
6
CONTINUOUS
10
7.04364
20
-4.44349
11
7.03503
21
-4.44706
0
LINE
8
BLACK
6
CONTINUOUS
10
7.03503
20
-4.44706
11
7.02708
21
-4.45193
0
LINE
8
BLACK
6
CONTINUOUS
10
7.02708
20
-4.45193
11
7.02708
21
-4.45193
0
LINE
8
BLACK
6
CONTINUOUS
10
7.02708
20
-4.45193
11
7.02615
21
-4.45273
0
LINE
8
BLACK
6
CONTINUOUS
10
7.02615
20
-4.45273
11
7.0236
21
-4.45387
0
LINE
8
BLACK
6
CONTINUOUS
10
7.0236
20
-4.45387
11
7.02083
21
-4.45345
0
LINE
8
BLACK
6
CONTINUOUS
10
7.02083
20
-4.45345
11
7.01873
21
-4.45161
0
LINE
8
BLACK
6
CONTINUOUS
10
7.01873
20
-4.45161
11
7.01797
21
-4.44892
0
LINE
8
BLACK
6
CONTINUOUS
10
7.01797
20
-4.44892
11
7.01877
21
-4.44624
0
LINE
8
BLACK
6
CONTINUOUS
10
7.01877
20
-4.44624
11
7.01895
21
-4.44598
0
LINE
8
BLACK
6
CONTINUOUS
10
7.01895
20
-4.44598
11
7.02369
21
-4.43965
0
LINE
8
BLACK
6
CONTINUOUS
10
7.02369
20
-4.43965
11
7.02871
21
-4.43047
0
LINE
8
BLACK
6
CONTINUOUS
10
7.02871
20
-4.43047
11
7.03237
21
-4.42066
0
LINE
8
BLACK
6
CONTINUOUS
10
7.03237
20
-4.42066
11
7.03459
21
-4.41044
0
LINE
8
BLACK
6
CONTINUOUS
10
7.03459
20
-4.41044
11
7.03534
21
-4.4
0
LINE
8
BLACK
6
CONTINUOUS
10
7.03534
20
-4.4
11
7.03459
21
-4.38956
0
LINE
8
BLACK
6
CONTINUOUS
10
7.03459
20
-4.38956
11
7.03237
21
-4.37934
0
LINE
8
BLACK
6
CONTINUOUS
10
7.03237
20
-4.37934
11
7.02871
21
-4.36953
0
LINE
8
BLACK
6
CONTINUOUS
10
7.02871
20
-4.36953
11
7.02369
21
-4.36035
0
LINE
8
BLACK
6
CONTINUOUS
10
7.02369
20
-4.36035
11
7.02031
21
-4.35583
0
LINE
8
BLACK
6
CONTINUOUS
10
7.02031
20
-4.35583
11
7.02031
21
-4.35583
0
LINE
8
BLACK
6
CONTINUOUS
10
7.02031
20
-4.35583
11
7.00584
21
-4.3703
0
LINE
8
BLACK
6
CONTINUOUS
10
7.00584
20
-4.3703
11
7.00803
21
-4.37343
0
LINE
8
BLACK
6
CONTINUOUS
10
7.00803
20
-4.37343
11
7.01194
21
-4.38182
0
LINE
8
BLACK
6
CONTINUOUS
10
7.01194
20
-4.38182
11
7.01434
21
-4.39077
0
LINE
8
BLACK
6
CONTINUOUS
10
7.01434
20
-4.39077
11
7.01515
21
-4.4
0
LINE
8
BLACK
6
CONTINUOUS
10
7.01515
20
-4.4
11
7.01434
21
-4.40923
0
LINE
8
BLACK
6
CONTINUOUS
10
7.01434
20
-4.40923
11
7.01194
21
-4.41818
0
LINE
8
BLACK
6
CONTINUOUS
10
7.01194
20
-4.41818
11
7.00803
21
-4.42657
0
LINE
8
BLACK
6
CONTINUOUS
10
7.00803
20
-4.42657
11
7.00271
21
-4.43416
0
LINE
8
BLACK
6
CONTINUOUS
10
7.00271
20
-4.43416
11
6.99616
21
-4.44071
0
LINE
8
BLACK
6
CONTINUOUS
10
6.99616
20
-4.44071
11
6.98857
21
-4.44603
0
LINE
8
BLACK
6
CONTINUOUS
10
6.98857
20
-4.44603
11
6.98018
21
-4.44994
0
LINE
8
BLACK
6
CONTINUOUS
10
6.98018
20
-4.44994
11
6.97123
21
-4.45234
0
LINE
8
BLACK
6
CONTINUOUS
10
6.97123
20
-4.45234
11
6.962
21
-4.45315
0
LINE
8
BLACK
6
CONTINUOUS
10
6.962
20
-4.45315
11
6.95277
21
-4.45234
0
LINE
8
BLACK
6
CONTINUOUS
10
6.95277
20
-4.45234
11
6.94382
21
-4.44994
0
LINE
8
BLACK
6
CONTINUOUS
10
6.94382
20
-4.44994
11
6.93543
21
-4.44603
0
LINE
8
BLACK
6
CONTINUOUS
10
6.93543
20
-4.44603
11
6.9323
21
-4.44384
0
LINE
8
BLACK
6
CONTINUOUS
10
6.9323
20
-4.44384
11
6.91783
21
-4.45831
0
LINE
8
BLACK
6
CONTINUOUS
10
6.91783
20
-4.45831
11
6.91783
21
-4.45831
0
LINE
8
BLACK
6
CONTINUOUS
10
6.91783
20
-4.45831
11
6.92235
21
-4.46169
0
LINE
8
BLACK
6
CONTINUOUS
10
6.92235
20
-4.46169
11
6.93153
21
-4.46671
0
LINE
8
BLACK
6
CONTINUOUS
10
6.93153
20
-4.46671
11
6.94134
21
-4.47037
0
LINE
8
BLACK
6
CONTINUOUS
10
6.94134
20
-4.47037
11
6.95156
21
-4.47259
0
LINE
8
BLACK
6
CONTINUOUS
10
6.95156
20
-4.47259
11
6.962
21
-4.47334
0
LINE
8
BLACK
6
CONTINUOUS
10
6.962
20
-4.47334
11
6.97244
21
-4.47259
0
LINE
8
BLACK
6
CONTINUOUS
10
6.97244
20
-4.47259
11
6.98266
21
-4.47037
0
LINE
8
BLACK
6
CONTINUOUS
10
6.98266
20
-4.47037
11
6.99247
21
-4.46671
0
LINE
8
BLACK
6
CONTINUOUS
10
6.99247
20
-4.46671
11
7.00165
21
-4.46169
0
LINE
8
BLACK
6
CONTINUOUS
10
7.00165
20
-4.46169
11
7.00798
21
-4.45695
0
LINE
8
BLACK
6
CONTINUOUS
10
7.00798
20
-4.45695
11
7.0106
21
-4.45598
0
LINE
8
BLACK
6
CONTINUOUS
10
7.0106
20
-4.45598
11
7.01333
21
-4.45657
0
LINE
8
BLACK
6
CONTINUOUS
10
7.01333
20
-4.45657
11
7.01531
21
-4.45855
0
LINE
8
BLACK
6
CONTINUOUS
10
7.01531
20
-4.45855
11
7.0159
21
-4.46128
0
LINE
8
BLACK
6
CONTINUOUS
10
7.0159
20
-4.46128
11
7.01492
21
-4.4639
0
LINE
8
BLACK
6
CONTINUOUS
10
7.01492
20
-4.4639
11
7.01473
21
-4.46415
0
LINE
8
BLACK
6
CONTINUOUS
10
7.01473
20
-4.46415
11
7.01393
21
-4.46508
0
LINE
8
BLACK
6
CONTINUOUS
10
7.01393
20
-4.46508
11
7.01393
21
-4.46508
0
LINE
8
BLACK
6
CONTINUOUS
10
7.01393
20
-4.46508
11
7.00906
21
-4.47303
0
LINE
8
BLACK
6
CONTINUOUS
10
7.00906
20
-4.47303
11
7.00549
21
-4.48164
0
LINE
8
BLACK
6
CONTINUOUS
10
7.00549
20
-4.48164
11
7.00332
21
-4.49071
0
LINE
8
BLACK
6
CONTINUOUS
10
7.00332
20
-4.49071
11
7.00278
21
-4.4975
0
LINE
8
BLACK
6
CONTINUOUS
10
7.00278
20
-4.4975
11
7.00258
21
-4.5
0
LINE
8
BLACK
6
CONTINUOUS
10
7.00258
20
-4.5
11
7.00332
21
-4.50929
0
LINE
8
BLACK
6
CONTINUOUS
10
7.00332
20
-4.50929
11
7.00549
21
-4.51836
0
LINE
8
BLACK
6
CONTINUOUS
10
7.00549
20
-4.51836
11
7.00906
21
-4.52697
0
LINE
8
BLACK
6
CONTINUOUS
10
7.00906
20
-4.52697
11
7.01393
21
-4.53492
0
LINE
8
BLACK
6
CONTINUOUS
10
7.01393
20
-4.53492
11
7.01473
21
-4.53585
0
LINE
8
BLACK
6
CONTINUOUS
10
7.01473
20
-4.53585
11
7.01587
21
-4.5384
0
LINE
8
BLACK
6
CONTINUOUS
10
7.01587
20
-4.5384
11
7.01545
21
-4.54117
0
LINE
8
BLACK
6
CONTINUOUS
10
7.01545
20
-4.54117
11
7.01361
21
-4.54327
0
LINE
8
BLACK
6
CONTINUOUS
10
7.01361
20
-4.54327
11
7.01092
21
-4.54403
0
LINE
8
BLACK
6
CONTINUOUS
10
7.01092
20
-4.54403
11
7.00824
21
-4.54323
0
LINE
8
BLACK
6
CONTINUOUS
10
7.00824
20
-4.54323
11
7.00798
21
-4.54305
0
LINE
8
BLACK
6
CONTINUOUS
10
7.00798
20
-4.54305
11
7.00165
21
-4.53831
0
LINE
8
BLACK
6
CONTINUOUS
10
7.00165
20
-4.53831
11
6.99247
21
-4.53329
0
LINE
8
BLACK
6
CONTINUOUS
10
6.99247
20
-4.53329
11
6.98266
21
-4.52963
0
LINE
8
BLACK
6
CONTINUOUS
10
6.98266
20
-4.52963
11
6.97244
21
-4.52741
0
LINE
8
BLACK
6
CONTINUOUS
10
6.97244
20
-4.52741
11
6.962
21
-4.52666
0
LINE
8
BLACK
6
CONTINUOUS
10
6.962
20
-4.52666
11
6.95156
21
-4.52741
0
LINE
8
BLACK
6
CONTINUOUS
10
6.95156
20
-4.52741
11
6.94134
21
-4.52963
0
LINE
8
BLACK
6
CONTINUOUS
10
6.94134
20
-4.52963
11
6.93153
21
-4.53329
0
LINE
8
BLACK
6
CONTINUOUS
10
6.93153
20
-4.53329
11
6.92235
21
-4.53831
0
LINE
8
BLACK
6
CONTINUOUS
10
6.92235
20
-4.53831
11
6.91783
21
-4.54169
0
LINE
8
BLACK
6
CONTINUOUS
10
6.91783
20
-4.54169
11
6.91783
21
-4.54169
0
LINE
8
BLACK
6
CONTINUOUS
10
6.91783
20
-4.54169
11
6.9323
21
-4.55616
0
LINE
8
BLACK
6
CONTINUOUS
10
6.9323
20
-4.55616
11
6.93543
21
-4.55397
0
LINE
8
BLACK
6
CONTINUOUS
10
6.93543
20
-4.55397
11
6.94382
21
-4.55006
0
LINE
8
BLACK
6
CONTINUOUS
10
6.94382
20
-4.55006
11
6.95277
21
-4.54766
0
LINE
8
BLACK
6
CONTINUOUS
10
6.95277
20
-4.54766
11
6.962
21
-4.54685
0
LINE
8
BLACK
6
CONTINUOUS
10
6.962
20
-4.54685
11
6.97123
21
-4.54766
0
LINE
8
BLACK
6
CONTINUOUS
10
6.97123
20
-4.54766
11
6.98018
21
-4.55006
0
LINE
8
BLACK
6
CONTINUOUS
10
6.98018
20
-4.55006
11
6.98857
21
-4.55397
0
LINE
8
BLACK
6
CONTINUOUS
10
6.98857
20
-4.55397
11
6.99616
21
-4.55929
0
LINE
8
BLACK
6
CONTINUOUS
10
6.99616
20
-4.55929
11
7.00271
21
-4.56584
0
LINE
8
BLACK
6
CONTINUOUS
10
7.00271
20
-4.56584
11
7.00803
21
-4.57343
0
LINE
8
BLACK
6
CONTINUOUS
10
7.00803
20
-4.57343
11
7.01194
21
-4.58182
0
LINE
8
BLACK
6
CONTINUOUS
10
7.01194
20
-4.58182
11
7.01434
21
-4.59077
0
LINE
8
BLACK
6
CONTINUOUS
10
7.01434
20
-4.59077
11
7.01515
21
-4.6
0
LINE
8
BLACK
6
CONTINUOUS
10
7.01515
20
-4.6
11
7.01434
21
-4.60923
0
LINE
8
BLACK
6
CONTINUOUS
10
7.01434
20
-4.60923
11
7.01194
21
-4.61818
0
LINE
8
BLACK
6
CONTINUOUS
10
7.01194
20
-4.61818
11
7.00803
21
-4.62657
0
LINE
8
BLACK
6
CONTINUOUS
10
7.00803
20
-4.62657
11
7.00584
21
-4.6297
0
LINE
8
BLACK
6
CONTINUOUS
10
7.00584
20
-4.6297
11
7.02031
21
-4.64417
0
LINE
8
BLACK
6
CONTINUOUS
10
7.02031
20
-4.64417
11
7.02031
21
-4.64417
0
LINE
8
BLACK
6
CONTINUOUS
10
7.02031
20
-4.64417
11
7.02369
21
-4.63965
0
LINE
8
BLACK
6
CONTINUOUS
10
7.02369
20
-4.63965
11
7.02871
21
-4.63047
0
LINE
8
BLACK
6
CONTINUOUS
10
7.02871
20
-4.63047
11
7.03237
21
-4.62066
0
LINE
8
BLACK
6
CONTINUOUS
10
7.03237
20
-4.62066
11
7.03459
21
-4.61044
0
LINE
8
BLACK
6
CONTINUOUS
10
7.03459
20
-4.61044
11
7.03534
21
-4.6
0
LINE
8
BLACK
6
CONTINUOUS
10
7.03534
20
-4.6
11
7.03459
21
-4.58956
0
LINE
8
BLACK
6
CONTINUOUS
10
7.03459
20
-4.58956
11
7.03237
21
-4.57934
0
LINE
8
BLACK
6
CONTINUOUS
10
7.03237
20
-4.57934
11
7.02871
21
-4.56953
0
LINE
8
BLACK
6
CONTINUOUS
10
7.02871
20
-4.56953
11
7.02369
21
-4.56035
0
LINE
8
BLACK
6
CONTINUOUS
10
7.02369
20
-4.56035
11
7.01895
21
-4.55402
0
LINE
8
BLACK
6
CONTINUOUS
10
7.01895
20
-4.55402
11
7.01798
21
-4.5514
0
LINE
8
BLACK
6
CONTINUOUS
10
7.01798
20
-4.5514
11
7.01857
21
-4.54867
0
LINE
8
BLACK
6
CONTINUOUS
10
7.01857
20
-4.54867
11
7.02055
21
-4.54669
0
LINE
8
BLACK
6
CONTINUOUS
10
7.02055
20
-4.54669
11
7.02328
21
-4.5461
0
LINE
8
BLACK
6
CONTINUOUS
10
7.02328
20
-4.5461
11
7.0259
21
-4.54708
0
LINE
8
BLACK
6
CONTINUOUS
10
7.0259
20
-4.54708
11
7.02615
21
-4.54727
0
LINE
8
BLACK
6
CONTINUOUS
10
7.02615
20
-4.54727
11
7.02708
21
-4.54807
0
LINE
8
BLACK
6
CONTINUOUS
10
7.02708
20
-4.54807
11
7.03503
21
-4.55294
0
LINE
8
BLACK
6
CONTINUOUS
10
7.03503
20
-4.55294
11
7.04364
21
-4.55651
0
LINE
8
BLACK
6
CONTINUOUS
10
7.04364
20
-4.55651
11
7.05271
21
-4.55868
0
LINE
8
BLACK
6
CONTINUOUS
10
7.05271
20
-4.55868
11
7.062
21
-4.55942
0
LINE
8
BLACK
6
CONTINUOUS
10
7.062
20
-4.55942
11
7.07129
21
-4.55868
0
LINE
8
BLACK
6
CONTINUOUS
10
7.07129
20
-4.55868
11
7.08036
21
-4.55651
0
LINE
8
BLACK
6
CONTINUOUS
10
7.08036
20
-4.55651
11
7.08897
21
-4.55294
0
LINE
8
BLACK
6
CONTINUOUS
10
7.08897
20
-4.55294
11
7.09692
21
-4.54807
0
LINE
8
BLACK
6
CONTINUOUS
10
7.09692
20
-4.54807
11
7.09785
21
-4.54727
0
LINE
8
BLACK
6
CONTINUOUS
10
7.09785
20
-4.54727
11
7.1004
21
-4.54613
0
LINE
8
BLACK
6
CONTINUOUS
10
7.1004
20
-4.54613
11
7.10317
21
-4.54655
0
LINE
8
BLACK
6
CONTINUOUS
10
7.10317
20
-4.54655
11
7.10527
21
-4.54839
0
LINE
8
BLACK
6
CONTINUOUS
10
7.10527
20
-4.54839
11
7.10603
21
-4.55108
0
LINE
8
BLACK
6
CONTINUOUS
10
7.10603
20
-4.55108
11
7.10523
21
-4.55376
0
LINE
8
BLACK
6
CONTINUOUS
10
7.10523
20
-4.55376
11
7.10505
21
-4.55402
0
LINE
8
BLACK
6
CONTINUOUS
10
7.10505
20
-4.55402
11
7.10031
21
-4.56035
0
LINE
8
BLACK
6
CONTINUOUS
10
7.10031
20
-4.56035
11
7.09529
21
-4.56953
0
LINE
8
BLACK
6
CONTINUOUS
10
7.09529
20
-4.56953
11
7.09163
21
-4.57934
0
LINE
8
BLACK
6
CONTINUOUS
10
7.09163
20
-4.57934
11
7.08941
21
-4.58956
0
LINE
8
BLACK
6
CONTINUOUS
10
7.08941
20
-4.58956
11
7.08866
21
-4.6
0
LINE
8
BLACK
6
CONTINUOUS
10
7.08866
20
-4.6
11
7.08941
21
-4.61044
0
LINE
8
BLACK
6
CONTINUOUS
10
7.08941
20
-4.61044
11
7.09163
21
-4.62066
0
LINE
8
BLACK
6
CONTINUOUS
10
7.09163
20
-4.62066
11
7.09529
21
-4.63047
0
LINE
8
BLACK
6
CONTINUOUS
10
7.09529
20
-4.63047
11
7.10031
21
-4.63965
0
LINE
8
BLACK
6
CONTINUOUS
10
7.10031
20
-4.63965
11
7.10369
21
-4.64417
0
LINE
8
BLACK
6
CONTINUOUS
10
7.10369
20
-4.64417
11
7.10369
21
-4.64417
0
LINE
8
BLACK
6
CONTINUOUS
10
7.10369
20
-4.64417
11
7.11816
21
-4.6297
0
LINE
8
BLACK
6
CONTINUOUS
10
7.11816
20
-4.6297
11
7.11597
21
-4.62657
0
LINE
8
BLACK
6
CONTINUOUS
10
7.11597
20
-4.62657
11
7.11206
21
-4.61818
0
LINE
8
BLACK
6
CONTINUOUS
10
7.11206
20
-4.61818
11
7.10966
21
-4.60923
0
LINE
8
BLACK
6
CONTINUOUS
10
7.10966
20
-4.60923
11
7.10885
21
-4.6
0
LINE
8
BLACK
6
CONTINUOUS
10
7.10885
20
-4.6
11
7.10966
21
-4.59077
0
LINE
8
BLACK
6
CONTINUOUS
10
7.10966
20
-4.59077
11
7.11206
21
-4.58182
0
LINE
8
BLACK
6
CONTINUOUS
10
7.11206
20
-4.58182
11
7.11597
21
-4.57343
0
LINE
8
BLACK
6
CONTINUOUS
10
7.11597
20
-4.57343
11
7.12129
21
-4.56584
0
LINE
8
BLACK
6
CONTINUOUS
10
7.12129
20
-4.56584
11
7.12784
21
-4.55929
0
LINE
8
BLACK
6
CONTINUOUS
10
7.12784
20
-4.55929
11
7.13543
21
-4.55397
0
LINE
8
BLACK
6
CONTINUOUS
10
7.13543
20
-4.55397
11
7.14382
21
-4.55006
0
LINE
8
BLACK
6
CONTINUOUS
10
7.14382
20
-4.55006
11
7.15277
21
-4.54766
0
LINE
8
BLACK
6
CONTINUOUS
10
7.15277
20
-4.54766
11
7.162
21
-4.54685
0
LINE
8
BLACK
6
CONTINUOUS
10
7.162
20
-4.54685
11
7.17123
21
-4.54766
0
LINE
8
BLACK
6
CONTINUOUS
10
7.17123
20
-4.54766
11
7.18018
21
-4.55006
0
LINE
8
BLACK
6
CONTINUOUS
10
7.18018
20
-4.55006
11
7.18857
21
-4.55397
0
LINE
8
BLACK
6
CONTINUOUS
10
7.18857
20
-4.55397
11
7.1917
21
-4.55616
0
LINE
8
BLACK
6
CONTINUOUS
10
7.1917
20
-4.55616
11
7.20617
21
-4.54169
0
LINE
8
BLACK
6
CONTINUOUS
10
7.20617
20
-4.54169
11
7.20165
21
-4.53831
0
LINE
8
BLACK
6
CONTINUOUS
10
7.20165
20
-4.53831
11
7.19247
21
-4.53329
0
LINE
8
BLACK
6
CONTINUOUS
10
7.19247
20
-4.53329
11
7.18266
21
-4.52963
0
LINE
8
BLACK
6
CONTINUOUS
10
7.18266
20
-4.52963
11
7.17244
21
-4.52741
0
LINE
8
BLACK
6
CONTINUOUS
10
7.17244
20
-4.52741
11
7.162
21
-4.52666
0
LINE
8
BLACK
6
CONTINUOUS
10
7.162
20
-4.52666
11
7.15156
21
-4.52741
0
LINE
8
BLACK
6
CONTINUOUS
10
7.15156
20
-4.52741
11
7.14134
21
-4.52963
0
LINE
8
BLACK
6
CONTINUOUS
10
7.14134
20
-4.52963
11
7.13153
21
-4.53329
0
LINE
8
BLACK
6
CONTINUOUS
10
7.13153
20
-4.53329
11
7.12235
21
-4.53831
0
LINE
8
BLACK
6
CONTINUOUS
10
7.12235
20
-4.53831
11
7.11602
21
-4.54305
0
LINE
8
BLACK
6
CONTINUOUS
10
7.11602
20
-4.54305
11
7.1134
21
-4.54402
0
LINE
8
BLACK
6
CONTINUOUS
10
7.1134
20
-4.54402
11
7.11067
21
-4.54343
0
LINE
8
BLACK
6
CONTINUOUS
10
7.11067
20
-4.54343
11
7.10869
21
-4.54145
0
LINE
8
BLACK
6
CONTINUOUS
10
7.10869
20
-4.54145
11
7.1081
21
-4.53872
0
LINE
8
BLACK
6
CONTINUOUS
10
7.1081
20
-4.53872
11
7.10908
21
-4.5361
0
LINE
8
BLACK
6
CONTINUOUS
10
7.10908
20
-4.5361
11
7.10927
21
-4.53585
0
LINE
8
BLACK
6
CONTINUOUS
10
7.10927
20
-4.53585
11
7.11007
21
-4.53492
0
LINE
8
BLACK
6
CONTINUOUS
10
7.11007
20
-4.53492
11
7.11494
21
-4.52697
0
LINE
8
BLACK
6
CONTINUOUS
10
7.11494
20
-4.52697
11
7.11851
21
-4.51836
0
LINE
8
BLACK
6
CONTINUOUS
10
7.11851
20
-4.51836
11
7.12068
21
-4.50929
0
LINE
8
BLACK
6
CONTINUOUS
10
7.12068
20
-4.50929
11
7.12142
21
-4.5
0
LINE
8
BLACK
6
CONTINUOUS
10
7.12142
20
-4.5
11
7.12068
21
-4.49071
0
LINE
8
BLACK
6
CONTINUOUS
10
7.12068
20
-4.49071
11
7.11851
21
-4.48164
0
LINE
8
BLACK
6
CONTINUOUS
10
7.11851
20
-4.48164
11
7.11494
21
-4.47303
0
LINE
8
BLACK
6
CONTINUOUS
10
7.11494
20
-4.47303
11
7.11007
21
-4.46508
0
LINE
8
BLACK
6
CONTINUOUS
10
7.11007
20
-4.46508
11
7.10927
21
-4.46415
0
LINE
8
BLACK
6
CONTINUOUS
10
7.10927
20
-4.46415
11
7.10813
21
-4.4616
0
LINE
8
BLACK
6
CONTINUOUS
10
7.10813
20
-4.4616
11
7.10855
21
-4.45883
0
LINE
8
BLACK
6
CONTINUOUS
10
7.10855
20
-4.45883
11
7.11039
21
-4.45673
0
LINE
8
BLACK
6
CONTINUOUS
10
7.11039
20
-4.45673
11
7.11308
21
-4.45597
0
LINE
8
BLACK
6
CONTINUOUS
10
7.11308
20
-4.45597
11
7.11576
21
-4.45677
0
LINE
8
BLACK
6
CONTINUOUS
10
7.11576
20
-4.45677
11
7.11602
21
-4.45695
0
LINE
8
BLACK
6
CONTINUOUS
10
7.11602
20
-4.45695
11
7.12235
21
-4.46169
0
LINE
8
BLACK
6
CONTINUOUS
10
7.12235
20
-4.46169
11
7.13153
21
-4.46671
0
LINE
8
BLACK
6
CONTINUOUS
10
7.13153
20
-4.46671
11
7.14134
21
-4.47037
0
LINE
8
BLACK
6
CONTINUOUS
10
7.14134
20
-4.47037
11
7.15156
21
-4.47259
0
LINE
8
BLACK
6
CONTINUOUS
10
7.15156
20
-4.47259
11
7.162
21
-4.47334
0
LINE
8
BLACK
6
CONTINUOUS
10
7.162
20
-4.47334
11
7.17244
21
-4.47259
0
LINE
8
BLACK
6
CONTINUOUS
10
7.17244
20
-4.47259
11
7.18266
21
-4.47037
0
LINE
8
BLACK
6
CONTINUOUS
10
7.18266
20
-4.47037
11
7.19247
21
-4.46671
0
LINE
8
BLACK
6
CONTINUOUS
10
7.19247
20
-4.46671
11
7.20165
21
-4.46169
0
LINE
8
BLACK
6
CONTINUOUS
10
7.20165
20
-4.46169
11
7.20617
21
-4.45831
0
LINE
8
BLACK
6
CONTINUOUS
10
7.20617
20
-4.45831
11
7.20617
21
-4.45831
0
LINE
8
BLACK
6
CONTINUOUS
10
7.20617
20
-4.45831
11
7.1917
21
-4.44384
0
LINE
8
BLACK
6
CONTINUOUS
10
7.1917
20
-4.44384
11
7.18857
21
-4.44603
0
LINE
8
BLACK
6
CONTINUOUS
10
7.18857
20
-4.44603
11
7.18018
21
-4.44994
0
LINE
8
BLACK
6
CONTINUOUS
10
7.18018
20
-4.44994
11
7.17123
21
-4.45234
0
LINE
8
BLACK
6
CONTINUOUS
10
7.17123
20
-4.45234
11
7.162
21
-4.45315
0
LINE
8
BLACK
6
CONTINUOUS
10
7.162
20
-4.45315
11
7.15277
21
-4.45234
0
LINE
8
BLACK
6
CONTINUOUS
10
7.15277
20
-4.45234
11
7.14382
21
-4.44994
0
LINE
8
BLACK
6
CONTINUOUS
10
7.14382
20
-4.44994
11
7.13543
21
-4.44603
0
LINE
8
BLACK
6
CONTINUOUS
10
7.13543
20
-4.44603
11
7.12784
21
-4.44071
0
LINE
8
BLACK
6
CONTINUOUS
10
7.12784
20
-4.44071
11
7.12129
21
-4.43416
0
LINE
8
BLACK
6
CONTINUOUS
10
7.12129
20
-4.43416
11
7.11597
21
-4.42657
0
LINE
8
BLACK
6
CONTINUOUS
10
7.11597
20
-4.42657
11
7.11206
21
-4.41818
0
LINE
8
BLACK
6
CONTINUOUS
10
7.11206
20
-4.41818
11
7.10966
21
-4.40923
0
LINE
8
BLACK
6
CONTINUOUS
10
7.10966
20
-4.40923
11
7.10885
21
-4.4
0
LINE
8
BLACK
6
CONTINUOUS
10
7.10885
20
-4.4
11
7.10966
21
-4.39077
0
LINE
8
BLACK
6
CONTINUOUS
10
7.10966
20
-4.39077
11
7.11206
21
-4.38182
0
LINE
8
BLACK
6
CONTINUOUS
10
7.11206
20
-4.38182
11
7.11597
21
-4.37343
0
LINE
8
BLACK
6
CONTINUOUS
10
7.11597
20
-4.37343
11
7.11816
21
-4.3703
0
LINE
8
BLACK
6
CONTINUOUS
10
7.11816
20
-4.3703
11
7.10369
21
-4.35583
0
LINE
8
BLACK
6
CONTINUOUS
10
7.10369
20
-4.35583
11
7.10369
21
-4.35583
0
LINE
8
BLACK
6
CONTINUOUS
10
7.20584
20
-4.5703
11
7.20803
21
-4.57343
0
LINE
8
BLACK
6
CONTINUOUS
10
7.20803
20
-4.57343
11
7.21194
21
-4.58182
0
LINE
8
BLACK
6
CONTINUOUS
10
7.21194
20
-4.58182
11
7.21434
21
-4.59077
0
LINE
8
BLACK
6
CONTINUOUS
10
7.21434
20
-4.59077
11
7.21515
21
-4.6
0
LINE
8
BLACK
6
CONTINUOUS
10
7.21515
20
-4.6
11
7.21434
21
-4.60923
0
LINE
8
BLACK
6
CONTINUOUS
10
7.21434
20
-4.60923
11
7.21194
21
-4.61818
0
LINE
8
BLACK
6
CONTINUOUS
10
7.21194
20
-4.61818
11
7.20803
21
-4.62657
0
LINE
8
BLACK
6
CONTINUOUS
10
7.20803
20
-4.62657
11
7.20584
21
-4.6297
0
LINE
8
BLACK
6
CONTINUOUS
10
7.20584
20
-4.6297
11
7.22031
21
-4.64417
0
LINE
8
BLACK
6
CONTINUOUS
10
7.22031
20
-4.64417
11
7.22031
21
-4.64417
0
LINE
8
BLACK
6
CONTINUOUS
10
7.22031
20
-4.64417
11
7.22369
21
-4.63965
0
LINE
8
BLACK
6
CONTINUOUS
10
7.22369
20
-4.63965
11
7.22871
21
-4.63047
0
LINE
8
BLACK
6
CONTINUOUS
10
7.22871
20
-4.63047
11
7.23237
21
-4.62066
0
LINE
8
BLACK
6
CONTINUOUS
10
7.23237
20
-4.62066
11
7.23459
21
-4.61044
0
LINE
8
BLACK
6
CONTINUOUS
10
7.23459
20
-4.61044
11
7.23534
21
-4.6
0
LINE
8
BLACK
6
CONTINUOUS
10
7.23534
20
-4.6
11
7.23459
21
-4.58956
0
LINE
8
BLACK
6
CONTINUOUS
10
7.23459
20
-4.58956
11
7.23237
21
-4.57934
0
LINE
8
BLACK
6
CONTINUOUS
10
7.23237
20
-4.57934
11
7.22871
21
-4.56953
0
LINE
8
BLACK
6
CONTINUOUS
10
7.22871
20
-4.56953
11
7.22369
21
-4.56035
0
LINE
8
BLACK
6
CONTINUOUS
10
7.22369
20
-4.56035
11
7.22031
21
-4.55583
0
LINE
8
BLACK
6
CONTINUOUS
10
7.22031
20
-4.55583
11
7.22031
21
-4.55583
0
LINE
8
BLACK
6
CONTINUOUS
10
7.22031
20
-4.55583
11
7.20584
21
-4.5703
0
LINE
8
BLACK
6
CONTINUOUS
10
5.39901
20
-4.53998
11
5.39609
21
-4.54056
0
LINE
8
BLACK
6
CONTINUOUS
10
5.39609
20
-4.54056
11
5.39278
21
-4.54278
0
LINE
8
BLACK
6
CONTINUOUS
10
5.39278
20
-4.54278
11
5.39056
21
-4.54609
0
LINE
8
BLACK
6
CONTINUOUS
10
5.39056
20
-4.54609
11
5.38998
21
-4.54901
0
LINE
8
BLACK
6
CONTINUOUS
10
5.38998
20
-4.54901
11
5.38998
21
-4.61099
0
LINE
8
BLACK
6
CONTINUOUS
10
5.38998
20
-4.61099
11
5.38998
21
-4.61099
0
LINE
8
BLACK
6
CONTINUOUS
10
5.38998
20
-4.61099
11
5.39056
21
-4.61391
0
LINE
8
BLACK
6
CONTINUOUS
10
5.39056
20
-4.61391
11
5.39278
21
-4.61722
0
LINE
8
BLACK
6
CONTINUOUS
10
5.39278
20
-4.61722
11
5.39609
21
-4.61944
0
LINE
8
BLACK
6
CONTINUOUS
10
5.39609
20
-4.61944
11
5.39609
21
-4.61944
0
LINE
8
BLACK
6
CONTINUOUS
10
5.39609
20
-4.61944
11
5.39901
21
-4.62002
0
LINE
8
BLACK
6
CONTINUOUS
10
5.39901
20
-4.62002
11
5.46099
21
-4.62002
0
LINE
8
BLACK
6
CONTINUOUS
10
5.46099
20
-4.62002
11
5.46099
21
-4.62002
0
LINE
8
BLACK
6
CONTINUOUS
10
5.46099
20
-4.62002
11
5.46099
21
-4.62002
0
LINE
8
BLACK
6
CONTINUOUS
10
5.46099
20
-4.62002
11
5.46293
21
-4.61963
0
LINE
8
BLACK
6
CONTINUOUS
10
5.46293
20
-4.61963
11
5.46391
21
-4.61944
0
LINE
8
BLACK
6
CONTINUOUS
10
5.46391
20
-4.61944
11
5.46722
21
-4.61722
0
LINE
8
BLACK
6
CONTINUOUS
10
5.46722
20
-4.61722
11
5.46944
21
-4.61391
0
LINE
8
BLACK
6
CONTINUOUS
10
5.46944
20
-4.61391
11
5.47002
21
-4.61099
0
LINE
8
BLACK
6
CONTINUOUS
10
5.47002
20
-4.61099
11
5.47002
21
-4.61099
0
LINE
8
BLACK
6
CONTINUOUS
10
5.47002
20
-4.61099
11
5.47002
21
-4.54901
0
LINE
8
BLACK
6
CONTINUOUS
10
5.47002
20
-4.54901
11
5.47002
21
-4.54901
0
LINE
8
BLACK
6
CONTINUOUS
10
5.47002
20
-4.54901
11
5.47002
21
-4.54901
0
LINE
8
BLACK
6
CONTINUOUS
10
5.47002
20
-4.54901
11
5.46944
21
-4.54609
0
LINE
8
BLACK
6
CONTINUOUS
10
5.46944
20
-4.54609
11
5.46871
21
-4.545
0
LINE
8
BLACK
6
CONTINUOUS
10
5.46871
20
-4.545
11
5.46722
21
-4.54278
0
LINE
8
BLACK
6
CONTINUOUS
10
5.46722
20
-4.54278
11
5.46722
21
-4.54278
0
LINE
8
BLACK
6
CONTINUOUS
10
5.46722
20
-4.54278
11
5.46391
21
-4.54056
0
LINE
8
BLACK
6
CONTINUOUS
10
5.46391
20
-4.54056
11
5.46099
21
-4.53998
0
LINE
8
BLACK
6
CONTINUOUS
10
5.46099
20
-4.53998
11
5.39901
21
-4.53998
0
LINE
8
BLACK
6
CONTINUOUS
10
5.39901
20
-4.53998
11
5.39901
21
-4.53998
0
LINE
8
BLACK
6
CONTINUOUS
10
5.48998
20
-4.61099
11
5.49056
21
-4.61391
0
LINE
8
BLACK
6
CONTINUOUS
10
5.49056
20
-4.61391
11
5.49278
21
-4.61722
0
LINE
8
BLACK
6
CONTINUOUS
10
5.49278
20
-4.61722
11
5.49609
21
-4.61944
0
LINE
8
BLACK
6
CONTINUOUS
10
5.49609
20
-4.61944
11
5.49609
21
-4.61944
0
LINE
8
BLACK
6
CONTINUOUS
10
5.49609
20
-4.61944
11
5.49901
21
-4.62002
0
LINE
8
BLACK
6
CONTINUOUS
10
5.49901
20
-4.62002
11
5.56099
21
-4.62002
0
LINE
8
BLACK
6
CONTINUOUS
10
5.56099
20
-4.62002
11
5.56099
21
-4.62002
0
LINE
8
BLACK
6
CONTINUOUS
10
5.56099
20
-4.62002
11
5.56099
21
-4.62002
0
LINE
8
BLACK
6
CONTINUOUS
10
5.56099
20
-4.62002
11
5.56293
21
-4.61963
0
LINE
8
BLACK
6
CONTINUOUS
10
5.56293
20
-4.61963
11
5.56391
21
-4.61944
0
LINE
8
BLACK
6
CONTINUOUS
10
5.56391
20
-4.61944
11
5.56722
21
-4.61722
0
LINE
8
BLACK
6
CONTINUOUS
10
5.56722
20
-4.61722
11
5.56944
21
-4.61391
0
LINE
8
BLACK
6
CONTINUOUS
10
5.56944
20
-4.61391
11
5.57002
21
-4.61099
0
LINE
8
BLACK
6
CONTINUOUS
10
5.57002
20
-4.61099
11
5.57002
21
-4.54901
0
LINE
8
BLACK
6
CONTINUOUS
10
5.57002
20
-4.54901
11
5.57002
21
-4.54901
0
LINE
8
BLACK
6
CONTINUOUS
10
5.57002
20
-4.54901
11
5.57002
21
-4.54901
0
LINE
8
BLACK
6
CONTINUOUS
10
5.57002
20
-4.54901
11
5.56944
21
-4.54609
0
LINE
8
BLACK
6
CONTINUOUS
10
5.56944
20
-4.54609
11
5.56871
21
-4.545
0
LINE
8
BLACK
6
CONTINUOUS
10
5.56871
20
-4.545
11
5.56722
21
-4.54278
0
LINE
8
BLACK
6
CONTINUOUS
10
5.56722
20
-4.54278
11
5.56722
21
-4.54278
0
LINE
8
BLACK
6
CONTINUOUS
10
5.56722
20
-4.54278
11
5.56391
21
-4.54056
0
LINE
8
BLACK
6
CONTINUOUS
10
5.56391
20
-4.54056
11
5.56099
21
-4.53998
0
LINE
8
BLACK
6
CONTINUOUS
10
5.56099
20
-4.53998
11
5.49901
21
-4.53998
0
LINE
8
BLACK
6
CONTINUOUS
10
5.49901
20
-4.53998
11
5.49901
21
-4.53998
0
LINE
8
BLACK
6
CONTINUOUS
10
5.49901
20
-4.53998
11
5.49609
21
-4.54056
0
LINE
8
BLACK
6
CONTINUOUS
10
5.49609
20
-4.54056
11
5.49278
21
-4.54278
0
LINE
8
BLACK
6
CONTINUOUS
10
5.49278
20
-4.54278
11
5.49056
21
-4.54609
0
LINE
8
BLACK
6
CONTINUOUS
10
5.49056
20
-4.54609
11
5.48998
21
-4.54901
0
LINE
8
BLACK
6
CONTINUOUS
10
5.48998
20
-4.54901
11
5.48998
21
-4.61099
0
LINE
8
BLACK
6
CONTINUOUS
10
5.48998
20
-4.61099
11
5.48998
21
-4.61099
0
LINE
8
BLACK
6
CONTINUOUS
10
5.43661
20
-4.32048
11
5.43976
21
-4.32312
0
LINE
8
BLACK
6
CONTINUOUS
10
5.43976
20
-4.32312
11
5.44181
21
-4.32667
0
LINE
8
BLACK
6
CONTINUOUS
10
5.44181
20
-4.32667
11
5.44207
21
-4.32815
0
LINE
8
BLACK
6
CONTINUOUS
10
5.44207
20
-4.32815
11
5.44621
21
-4.33229
0
LINE
8
BLACK
6
CONTINUOUS
10
5.44621
20
-4.33229
11
6.32287
21
-4.33229
0
LINE
8
BLACK
6
CONTINUOUS
10
6.32287
20
-4.33229
11
6.5011
21
-4.33229
0
LINE
8
BLACK
6
CONTINUOUS
10
6.5011
20
-4.33229
11
6.50409
21
-4.32977
0
LINE
8
BLACK
6
CONTINUOUS
10
6.50409
20
-4.32977
11
6.50795
21
-4.32837
0
LINE
8
BLACK
6
CONTINUOUS
10
6.50795
20
-4.32837
11
6.51205
21
-4.32837
0
LINE
8
BLACK
6
CONTINUOUS
10
6.51205
20
-4.32837
11
6.51591
21
-4.32977
0
LINE
8
BLACK
6
CONTINUOUS
10
6.51591
20
-4.32977
11
6.51905
21
-4.33241
0
LINE
8
BLACK
6
CONTINUOUS
10
6.51905
20
-4.33241
11
6.52002
21
-4.33409
0
LINE
8
BLACK
6
CONTINUOUS
10
6.52002
20
-4.33409
11
6.555
21
-4.33409
0
LINE
8
BLACK
6
CONTINUOUS
10
6.555
20
-4.33409
11
6.55575
21
-4.3343
0
LINE
8
BLACK
6
CONTINUOUS
10
6.55575
20
-4.3343
11
6.55653
21
-4.3343
0
LINE
8
BLACK
6
CONTINUOUS
10
6.55653
20
-4.3343
11
6.5572
21
-4.33468
0
LINE
8
BLACK
6
CONTINUOUS
10
6.5572
20
-4.33468
11
6.55795
21
-4.33489
0
LINE
8
BLACK
6
CONTINUOUS
10
6.55795
20
-4.33489
11
6.5585
21
-4.33544
0
LINE
8
BLACK
6
CONTINUOUS
10
6.5585
20
-4.33544
11
6.55918
21
-4.33582
0
LINE
8
BLACK
6
CONTINUOUS
10
6.55918
20
-4.33582
11
6.57918
21
-4.35582
0
LINE
8
BLACK
6
CONTINUOUS
10
6.57918
20
-4.35582
11
6.57956
21
-4.3565
0
LINE
8
BLACK
6
CONTINUOUS
10
6.57956
20
-4.3565
11
6.58011
21
-4.35705
0
LINE
8
BLACK
6
CONTINUOUS
10
6.58011
20
-4.35705
11
6.58032
21
-4.3578
0
LINE
8
BLACK
6
CONTINUOUS
10
6.58032
20
-4.3578
11
6.5807
21
-4.35847
0
LINE
8
BLACK
6
CONTINUOUS
10
6.5807
20
-4.35847
11
6.5807
21
-4.35925
0
LINE
8
BLACK
6
CONTINUOUS
10
6.5807
20
-4.35925
11
6.58091
21
-4.36
0
LINE
8
BLACK
6
CONTINUOUS
10
6.58091
20
-4.36
11
6.58091
21
-4.53477
0
LINE
8
BLACK
6
CONTINUOUS
10
6.58091
20
-4.53477
11
6.58091
21
-4.53477
0
LINE
8
BLACK
6
CONTINUOUS
10
6.58091
20
-4.53477
11
6.58405
21
-4.53741
0
LINE
8
BLACK
6
CONTINUOUS
10
6.58405
20
-4.53741
11
6.5861
21
-4.54096
0
LINE
8
BLACK
6
CONTINUOUS
10
6.5861
20
-4.54096
11
6.58681
21
-4.545
0
LINE
8
BLACK
6
CONTINUOUS
10
6.58681
20
-4.545
11
6.5861
21
-4.54904
0
LINE
8
BLACK
6
CONTINUOUS
10
6.5861
20
-4.54904
11
6.58405
21
-4.55259
0
LINE
8
BLACK
6
CONTINUOUS
10
6.58405
20
-4.55259
11
6.58091
21
-4.55523
0
LINE
8
BLACK
6
CONTINUOUS
10
6.58091
20
-4.55523
11
6.57705
21
-4.55663
0
LINE
8
BLACK
6
CONTINUOUS
10
6.57705
20
-4.55663
11
6.57295
21
-4.55663
0
LINE
8
BLACK
6
CONTINUOUS
10
6.57295
20
-4.55663
11
6.56909
21
-4.55523
0
LINE
8
BLACK
6
CONTINUOUS
10
6.56909
20
-4.55523
11
6.56595
21
-4.55259
0
LINE
8
BLACK
6
CONTINUOUS
10
6.56595
20
-4.55259
11
6.5639
21
-4.54904
0
LINE
8
BLACK
6
CONTINUOUS
10
6.5639
20
-4.54904
11
6.56319
21
-4.545
0
LINE
8
BLACK
6
CONTINUOUS
10
6.56319
20
-4.545
11
6.5639
21
-4.54096
0
LINE
8
BLACK
6
CONTINUOUS
10
6.5639
20
-4.54096
11
6.56595
21
-4.53741
0
LINE
8
BLACK
6
CONTINUOUS
10
6.56595
20
-4.53741
11
6.56909
21
-4.53477
0
LINE
8
BLACK
6
CONTINUOUS
10
6.56909
20
-4.53477
11
6.56909
21
-4.53477
0
LINE
8
BLACK
6
CONTINUOUS
10
6.56909
20
-4.53477
11
6.56909
21
-4.36245
0
LINE
8
BLACK
6
CONTINUOUS
10
6.56909
20
-4.36245
11
6.55255
21
-4.34591
0
LINE
8
BLACK
6
CONTINUOUS
10
6.55255
20
-4.34591
11
6.52002
21
-4.34591
0
LINE
8
BLACK
6
CONTINUOUS
10
6.52002
20
-4.34591
11
6.51905
21
-4.34759
0
LINE
8
BLACK
6
CONTINUOUS
10
6.51905
20
-4.34759
11
6.51591
21
-4.35023
0
LINE
8
BLACK
6
CONTINUOUS
10
6.51591
20
-4.35023
11
6.51205
21
-4.35163
0
LINE
8
BLACK
6
CONTINUOUS
10
6.51205
20
-4.35163
11
6.50958
21
-4.35163
0
LINE
8
BLACK
6
CONTINUOUS
10
6.50958
20
-4.35163
11
6.50787
21
-4.35197
0
LINE
8
BLACK
6
CONTINUOUS
10
6.50787
20
-4.35197
11
6.32287
21
-4.35197
0
LINE
8
BLACK
6
CONTINUOUS
10
6.32287
20
-4.35197
11
6.30571
21
-4.35197
0
LINE
8
BLACK
6
CONTINUOUS
10
6.30571
20
-4.35197
11
5.44213
21
-4.35197
0
LINE
8
BLACK
6
CONTINUOUS
10
5.44213
20
-4.35197
11
5.44213
21
-4.35197
0
LINE
8
BLACK
6
CONTINUOUS
10
5.44213
20
-4.35197
11
5.43836
21
-4.35122
0
LINE
8
BLACK
6
CONTINUOUS
10
5.43836
20
-4.35122
11
5.43688
21
-4.35023
0
LINE
8
BLACK
6
CONTINUOUS
10
5.43688
20
-4.35023
11
5.43517
21
-4.34909
0
LINE
8
BLACK
6
CONTINUOUS
10
5.43517
20
-4.34909
11
5.43517
21
-4.34909
0
LINE
8
BLACK
6
CONTINUOUS
10
5.43517
20
-4.34909
11
5.42829
21
-4.3422
0
LINE
8
BLACK
6
CONTINUOUS
10
5.42829
20
-4.3422
11
5.4248
21
-4.34094
0
LINE
8
BLACK
6
CONTINUOUS
10
5.4248
20
-4.34094
11
5.42166
21
-4.3383
0
LINE
8
BLACK
6
CONTINUOUS
10
5.42166
20
-4.3383
11
5.41961
21
-4.33475
0
LINE
8
BLACK
6
CONTINUOUS
10
5.41961
20
-4.33475
11
5.4189
21
-4.33071
0
LINE
8
BLACK
6
CONTINUOUS
10
5.4189
20
-4.33071
11
5.41961
21
-4.32667
0
LINE
8
BLACK
6
CONTINUOUS
10
5.41961
20
-4.32667
11
5.42166
21
-4.32312
0
LINE
8
BLACK
6
CONTINUOUS
10
5.42166
20
-4.32312
11
5.4248
21
-4.32048
0
LINE
8
BLACK
6
CONTINUOUS
10
5.4248
20
-4.32048
11
5.42866
21
-4.31908
0
LINE
8
BLACK
6
CONTINUOUS
10
5.42866
20
-4.31908
11
5.43276
21
-4.31908
0
LINE
8
BLACK
6
CONTINUOUS
10
5.43276
20
-4.31908
11
5.43661
21
-4.32048
0
LINE
8
BLACK
6
CONTINUOUS
10
6.41591
20
-4.38477
11
6.41905
21
-4.38741
0
LINE
8
BLACK
6
CONTINUOUS
10
6.41905
20
-4.38741
11
6.4211
21
-4.39096
0
LINE
8
BLACK
6
CONTINUOUS
10
6.4211
20
-4.39096
11
6.42181
21
-4.395
0
LINE
8
BLACK
6
CONTINUOUS
10
6.42181
20
-4.395
11
6.4211
21
-4.39904
0
LINE
8
BLACK
6
CONTINUOUS
10
6.4211
20
-4.39904
11
6.41905
21
-4.40259
0
LINE
8
BLACK
6
CONTINUOUS
10
6.41905
20
-4.40259
11
6.41591
21
-4.40523
0
LINE
8
BLACK
6
CONTINUOUS
10
6.41591
20
-4.40523
11
6.41591
21
-4.48755
0
LINE
8
BLACK
6
CONTINUOUS
10
6.41591
20
-4.48755
11
6.44205
21
-4.5137
0
LINE
8
BLACK
6
CONTINUOUS
10
6.44205
20
-4.5137
11
6.44295
21
-4.51337
0
LINE
8
BLACK
6
CONTINUOUS
10
6.44295
20
-4.51337
11
6.44705
21
-4.51337
0
LINE
8
BLACK
6
CONTINUOUS
10
6.44705
20
-4.51337
11
6.45091
21
-4.51477
0
LINE
8
BLACK
6
CONTINUOUS
10
6.45091
20
-4.51477
11
6.45405
21
-4.51741
0
LINE
8
BLACK
6
CONTINUOUS
10
6.45405
20
-4.51741
11
6.4561
21
-4.52096
0
LINE
8
BLACK
6
CONTINUOUS
10
6.4561
20
-4.52096
11
6.45681
21
-4.525
0
LINE
8
BLACK
6
CONTINUOUS
10
6.45681
20
-4.525
11
6.4561
21
-4.52904
0
LINE
8
BLACK
6
CONTINUOUS
10
6.4561
20
-4.52904
11
6.45405
21
-4.53259
0
LINE
8
BLACK
6
CONTINUOUS
10
6.45405
20
-4.53259
11
6.45091
21
-4.53523
0
LINE
8
BLACK
6
CONTINUOUS
10
6.45091
20
-4.53523
11
6.44705
21
-4.53663
0
LINE
8
BLACK
6
CONTINUOUS
10
6.44705
20
-4.53663
11
6.44295
21
-4.53663
0
LINE
8
BLACK
6
CONTINUOUS
10
6.44295
20
-4.53663
11
6.43909
21
-4.53523
0
LINE
8
BLACK
6
CONTINUOUS
10
6.43909
20
-4.53523
11
6.43595
21
-4.53259
0
LINE
8
BLACK
6
CONTINUOUS
10
6.43595
20
-4.53259
11
6.4339
21
-4.52904
0
LINE
8
BLACK
6
CONTINUOUS
10
6.4339
20
-4.52904
11
6.43319
21
-4.525
0
LINE
8
BLACK
6
CONTINUOUS
10
6.43319
20
-4.525
11
6.43371
21
-4.52206
0
LINE
8
BLACK
6
CONTINUOUS
10
6.43371
20
-4.52206
11
6.40582
21
-4.49418
0
LINE
8
BLACK
6
CONTINUOUS
10
6.40582
20
-4.49418
11
6.40544
21
-4.4935
0
LINE
8
BLACK
6
CONTINUOUS
10
6.40544
20
-4.4935
11
6.40489
21
-4.49295
0
LINE
8
BLACK
6
CONTINUOUS
10
6.40489
20
-4.49295
11
6.40468
21
-4.4922
0
LINE
8
BLACK
6
CONTINUOUS
10
6.40468
20
-4.4922
11
6.4043
21
-4.49153
0
LINE
8
BLACK
6
CONTINUOUS
10
6.4043
20
-4.49153
11
6.4043
21
-4.49075
0
LINE
8
BLACK
6
CONTINUOUS
10
6.4043
20
-4.49075
11
6.40409
21
-4.49
0
LINE
8
BLACK
6
CONTINUOUS
10
6.40409
20
-4.49
11
6.40409
21
-4.40523
0
LINE
8
BLACK
6
CONTINUOUS
10
6.40409
20
-4.40523
11
6.40095
21
-4.40259
0
LINE
8
BLACK
6
CONTINUOUS
10
6.40095
20
-4.40259
11
6.3989
21
-4.39904
0
LINE
8
BLACK
6
CONTINUOUS
10
6.3989
20
-4.39904
11
6.39819
21
-4.395
0
LINE
8
BLACK
6
CONTINUOUS
10
6.39819
20
-4.395
11
6.3989
21
-4.39096
0
LINE
8
BLACK
6
CONTINUOUS
10
6.3989
20
-4.39096
11
6.40095
21
-4.38741
0
LINE
8
BLACK
6
CONTINUOUS
10
6.40095
20
-4.38741
11
6.40409
21
-4.38477
0
LINE
8
BLACK
6
CONTINUOUS
10
6.40409
20
-4.38477
11
6.40795
21
-4.38337
0
LINE
8
BLACK
6
CONTINUOUS
10
6.40795
20
-4.38337
11
6.41205
21
-4.38337
0
LINE
8
BLACK
6
CONTINUOUS
10
6.41205
20
-4.38337
11
6.41591
21
-4.38477
0
LINE
8
BLACK
6
CONTINUOUS
10
5.46
20
-4.49
11
5.46
21
-4.51
0
LINE
8
BLACK
6
CONTINUOUS
10
5.46
20
-4.51
11
5.44
21
-4.51
0
LINE
8
BLACK
6
CONTINUOUS
10
5.44
20
-4.51
11
5.44
21
-4.53
0
LINE
8
BLACK
6
CONTINUOUS
10
5.44
20
-4.53
11
5.46191
21
-4.53
0
LINE
8
BLACK
6
CONTINUOUS
10
5.46191
20
-4.53
11
5.46191
21
-4.53
0
LINE
8
BLACK
6
CONTINUOUS
10
5.46191
20
-4.53
11
5.46429
21
-4.52974
0
LINE
8
BLACK
6
CONTINUOUS
10
5.46429
20
-4.52974
11
5.46968
21
-4.52773
0
LINE
8
BLACK
6
CONTINUOUS
10
5.46968
20
-4.52773
11
5.46968
21
-4.52773
0
LINE
8
BLACK
6
CONTINUOUS
10
5.46968
20
-4.52773
11
5.47429
21
-4.52429
0
LINE
8
BLACK
6
CONTINUOUS
10
5.47429
20
-4.52429
11
5.47603
21
-4.52196
0
LINE
8
BLACK
6
CONTINUOUS
10
5.47603
20
-4.52196
11
5.47827
21
-4.52029
0
LINE
8
BLACK
6
CONTINUOUS
10
5.47827
20
-4.52029
11
5.48105
21
-4.52009
0
LINE
8
BLACK
6
CONTINUOUS
10
5.48105
20
-4.52009
11
5.48351
21
-4.52143
0
LINE
8
BLACK
6
CONTINUOUS
10
5.48351
20
-4.52143
11
5.48397
21
-4.52196
0
LINE
8
BLACK
6
CONTINUOUS
10
5.48397
20
-4.52196
11
5.48571
21
-4.52429
0
LINE
8
BLACK
6
CONTINUOUS
10
5.48571
20
-4.52429
11
5.49032
21
-4.52773
0
LINE
8
BLACK
6
CONTINUOUS
10
5.49032
20
-4.52773
11
5.4957
21
-4.52974
0
LINE
8
BLACK
6
CONTINUOUS
10
5.4957
20
-4.52974
11
5.49809
21
-4.53
0
LINE
8
BLACK
6
CONTINUOUS
10
5.49809
20
-4.53
11
5.49809
21
-4.53
0
LINE
8
BLACK
6
CONTINUOUS
10
5.49809
20
-4.53
11
5.52
21
-4.53
0
LINE
8
BLACK
6
CONTINUOUS
10
5.52
20
-4.53
11
5.52
21
-4.51
0
LINE
8
BLACK
6
CONTINUOUS
10
5.52
20
-4.51
11
5.5
21
-4.51
0
LINE
8
BLACK
6
CONTINUOUS
10
5.5
20
-4.51
11
5.5
21
-4.49
0
LINE
8
BLACK
6
CONTINUOUS
10
5.5
20
-4.49
11
5.46
21
-4.49
0
LINE
8
BLACK
6
CONTINUOUS
10
5.56
20
-4.51
11
5.54
21
-4.51
0
LINE
8
BLACK
6
CONTINUOUS
10
5.54
20
-4.51
11
5.54
21
-4.53
0
LINE
8
BLACK
6
CONTINUOUS
10
5.54
20
-4.53
11
5.56191
21
-4.53
0
LINE
8
BLACK
6
CONTINUOUS
10
5.56191
20
-4.53
11
5.56191
21
-4.53
0
LINE
8
BLACK
6
CONTINUOUS
10
5.56191
20
-4.53
11
5.56429
21
-4.52974
0
LINE
8
BLACK
6
CONTINUOUS
10
5.56429
20
-4.52974
11
5.56968
21
-4.52773
0
LINE
8
BLACK
6
CONTINUOUS
10
5.56968
20
-4.52773
11
5.56968
21
-4.52773
0
LINE
8
BLACK
6
CONTINUOUS
10
5.56968
20
-4.52773
11
5.57429
21
-4.52429
0
LINE
8
BLACK
6
CONTINUOUS
10
5.57429
20
-4.52429
11
5.57773
21
-4.51968
0
LINE
8
BLACK
6
CONTINUOUS
10
5.57773
20
-4.51968
11
5.57773
21
-4.51968
0
LINE
8
BLACK
6
CONTINUOUS
10
5.57773
20
-4.51968
11
5.57974
21
-4.51429
0
LINE
8
BLACK
6
CONTINUOUS
10
5.57974
20
-4.51429
11
5.58
21
-4.51191
0
LINE
8
BLACK
6
CONTINUOUS
10
5.58
20
-4.51191
11
5.58
21
-4.51191
0
LINE
8
BLACK
6
CONTINUOUS
10
5.58
20
-4.51191
11
5.58
21
-4.49
0
LINE
8
BLACK
6
CONTINUOUS
10
5.58
20
-4.49
11
5.56
21
-4.49
0
LINE
8
BLACK
6
CONTINUOUS
10
5.56
20
-4.49
11
5.56
21
-4.51
0
LINE
8
BLACK
6
CONTINUOUS
10
5.54
20
-4.45
11
5.56
21
-4.45
0
LINE
8
BLACK
6
CONTINUOUS
10
5.56
20
-4.45
11
5.56
21
-4.47
0
LINE
8
BLACK
6
CONTINUOUS
10
5.56
20
-4.47
11
5.58
21
-4.47
0
LINE
8
BLACK
6
CONTINUOUS
10
5.58
20
-4.47
11
5.58
21
-4.44809
0
LINE
8
BLACK
6
CONTINUOUS
10
5.58
20
-4.44809
11
5.58
21
-4.44809
0
LINE
8
BLACK
6
CONTINUOUS
10
5.58
20
-4.44809
11
5.57974
21
-4.4457
0
LINE
8
BLACK
6
CONTINUOUS
10
5.57974
20
-4.4457
11
5.57773
21
-4.44032
0
LINE
8
BLACK
6
CONTINUOUS
10
5.57773
20
-4.44032
11
5.57773
21
-4.44032
0
LINE
8
BLACK
6
CONTINUOUS
10
5.57773
20
-4.44032
11
5.57429
21
-4.43571
0
LINE
8
BLACK
6
CONTINUOUS
10
5.57429
20
-4.43571
11
5.56968
21
-4.43227
0
LINE
8
BLACK
6
CONTINUOUS
10
5.56968
20
-4.43227
11
5.56429
21
-4.43026
0
LINE
8
BLACK
6
CONTINUOUS
10
5.56429
20
-4.43026
11
5.56191
21
-4.43
0
LINE
8
BLACK
6
CONTINUOUS
10
5.56191
20
-4.43
11
5.54
21
-4.43
0
LINE
8
BLACK
6
CONTINUOUS
10
5.54
20
-4.43
11
5.54
21
-4.45
0
LINE
8
BLACK
6
CONTINUOUS
10
5.44
20
-4.45
11
5.46
21
-4.45
0
LINE
8
BLACK
6
CONTINUOUS
10
5.46
20
-4.45
11
5.46
21
-4.47
0
LINE
8
BLACK
6
CONTINUOUS
10
5.46
20
-4.47
11
5.5
21
-4.47
0
LINE
8
BLACK
6
CONTINUOUS
10
5.5
20
-4.47
11
5.5
21
-4.45
0
LINE
8
BLACK
6
CONTINUOUS
10
5.5
20
-4.45
11
5.52
21
-4.45
0
LINE
8
BLACK
6
CONTINUOUS
10
5.52
20
-4.45
11
5.52
21
-4.43
0
LINE
8
BLACK
6
CONTINUOUS
10
5.52
20
-4.43
11
5.49809
21
-4.43
0
LINE
8
BLACK
6
CONTINUOUS
10
5.49809
20
-4.43
11
5.4957
21
-4.43026
0
LINE
8
BLACK
6
CONTINUOUS
10
5.4957
20
-4.43026
11
5.49032
21
-4.43227
0
LINE
8
BLACK
6
CONTINUOUS
10
5.49032
20
-4.43227
11
5.49032
21
-4.43227
0
LINE
8
BLACK
6
CONTINUOUS
10
5.49032
20
-4.43227
11
5.48571
21
-4.43571
0
LINE
8
BLACK
6
CONTINUOUS
10
5.48571
20
-4.43571
11
5.48397
21
-4.43804
0
LINE
8
BLACK
6
CONTINUOUS
10
5.48397
20
-4.43804
11
5.48173
21
-4.43971
0
LINE
8
BLACK
6
CONTINUOUS
10
5.48173
20
-4.43971
11
5.47895
21
-4.43991
0
LINE
8
BLACK
6
CONTINUOUS
10
5.47895
20
-4.43991
11
5.47649
21
-4.43857
0
LINE
8
BLACK
6
CONTINUOUS
10
5.47649
20
-4.43857
11
5.47603
21
-4.43804
0
LINE
8
BLACK
6
CONTINUOUS
10
5.47603
20
-4.43804
11
5.47429
21
-4.43571
0
LINE
8
BLACK
6
CONTINUOUS
10
5.47429
20
-4.43571
11
5.46968
21
-4.43227
0
LINE
8
BLACK
6
CONTINUOUS
10
5.46968
20
-4.43227
11
5.46429
21
-4.43026
0
LINE
8
BLACK
6
CONTINUOUS
10
5.46429
20
-4.43026
11
5.46191
21
-4.43
0
LINE
8
BLACK
6
CONTINUOUS
10
5.46191
20
-4.43
11
5.44
21
-4.43
0
LINE
8
BLACK
6
CONTINUOUS
10
5.44
20
-4.43
11
5.44
21
-4.45
0
LINE
8
BLACK
6
CONTINUOUS
10
5.3957
20
-4.43026
11
5.39032
21
-4.43227
0
LINE
8
BLACK
6
CONTINUOUS
10
5.39032
20
-4.43227
11
5.39032
21
-4.43227
0
LINE
8
BLACK
6
CONTINUOUS
10
5.39032
20
-4.43227
11
5.38571
21
-4.43571
0
LINE
8
BLACK
6
CONTINUOUS
10
5.38571
20
-4.43571
11
5.38227
21
-4.44032
0
LINE
8
BLACK
6
CONTINUOUS
10
5.38227
20
-4.44032
11
5.38227
21
-4.44032
0
LINE
8
BLACK
6
CONTINUOUS
10
5.38227
20
-4.44032
11
5.38026
21
-4.4457
0
LINE
8
BLACK
6
CONTINUOUS
10
5.38026
20
-4.4457
11
5.38
21
-4.44809
0
LINE
8
BLACK
6
CONTINUOUS
10
5.38
20
-4.44809
11
5.38
21
-4.47
0
LINE
8
BLACK
6
CONTINUOUS
10
5.38
20
-4.47
11
5.4
21
-4.47
0
LINE
8
BLACK
6
CONTINUOUS
10
5.4
20
-4.47
11
5.4
21
-4.45
0
LINE
8
BLACK
6
CONTINUOUS
10
5.4
20
-4.45
11
5.42
21
-4.45
0
LINE
8
BLACK
6
CONTINUOUS
10
5.42
20
-4.45
11
5.42
21
-4.43
0
LINE
8
BLACK
6
CONTINUOUS
10
5.42
20
-4.43
11
5.39809
21
-4.43
0
LINE
8
BLACK
6
CONTINUOUS
10
5.39809
20
-4.43
11
5.3957
21
-4.43026
0
LINE
8
BLACK
6
CONTINUOUS
10
6.90369
20
-4.35583
11
6.90031
21
-4.36035
0
LINE
8
BLACK
6
CONTINUOUS
10
6.90031
20
-4.36035
11
6.89529
21
-4.36953
0
LINE
8
BLACK
6
CONTINUOUS
10
6.89529
20
-4.36953
11
6.89163
21
-4.37934
0
LINE
8
BLACK
6
CONTINUOUS
10
6.89163
20
-4.37934
11
6.88941
21
-4.38956
0
LINE
8
BLACK
6
CONTINUOUS
10
6.88941
20
-4.38956
11
6.88866
21
-4.4
0
LINE
8
BLACK
6
CONTINUOUS
10
6.88866
20
-4.4
11
6.88941
21
-4.41044
0
LINE
8
BLACK
6
CONTINUOUS
10
6.88941
20
-4.41044
11
6.89163
21
-4.42066
0
LINE
8
BLACK
6
CONTINUOUS
10
6.89163
20
-4.42066
11
6.89529
21
-4.43047
0
LINE
8
BLACK
6
CONTINUOUS
10
6.89529
20
-4.43047
11
6.90031
21
-4.43965
0
LINE
8
BLACK
6
CONTINUOUS
10
6.90031
20
-4.43965
11
6.90369
21
-4.44417
0
LINE
8
BLACK
6
CONTINUOUS
10
6.90369
20
-4.44417
11
6.90369
21
-4.44417
0
LINE
8
BLACK
6
CONTINUOUS
10
6.90369
20
-4.44417
11
6.91816
21
-4.4297
0
LINE
8
BLACK
6
CONTINUOUS
10
6.91816
20
-4.4297
11
6.91597
21
-4.42657
0
LINE
8
BLACK
6
CONTINUOUS
10
6.91597
20
-4.42657
11
6.91206
21
-4.41818
0
LINE
8
BLACK
6
CONTINUOUS
10
6.91206
20
-4.41818
11
6.90966
21
-4.40923
0
LINE
8
BLACK
6
CONTINUOUS
10
6.90966
20
-4.40923
11
6.90885
21
-4.4
0
LINE
8
BLACK
6
CONTINUOUS
10
6.90885
20
-4.4
11
6.90966
21
-4.39077
0
LINE
8
BLACK
6
CONTINUOUS
10
6.90966
20
-4.39077
11
6.91206
21
-4.38182
0
LINE
8
BLACK
6
CONTINUOUS
10
6.91206
20
-4.38182
11
6.91597
21
-4.37343
0
LINE
8
BLACK
6
CONTINUOUS
10
6.91597
20
-4.37343
11
6.91816
21
-4.3703
0
LINE
8
BLACK
6
CONTINUOUS
10
6.91816
20
-4.3703
11
6.90369
21
-4.35583
0
LINE
8
BLACK
6
CONTINUOUS
10
6.90369
20
-4.35583
11
6.90369
21
-4.35583
0
LINE
8
BLACK
6
CONTINUOUS
10
7.20584
20
-4.3703
11
7.20803
21
-4.37343
0
LINE
8
BLACK
6
CONTINUOUS
10
7.20803
20
-4.37343
11
7.21194
21
-4.38182
0
LINE
8
BLACK
6
CONTINUOUS
10
7.21194
20
-4.38182
11
7.21434
21
-4.39077
0
LINE
8
BLACK
6
CONTINUOUS
10
7.21434
20
-4.39077
11
7.21515
21
-4.4
0
LINE
8
BLACK
6
CONTINUOUS
10
7.21515
20
-4.4
11
7.21434
21
-4.40923
0
LINE
8
BLACK
6
CONTINUOUS
10
7.21434
20
-4.40923
11
7.21194
21
-4.41818
0
LINE
8
BLACK
6
CONTINUOUS
10
7.21194
20
-4.41818
11
7.20803
21
-4.42657
0
LINE
8
BLACK
6
CONTINUOUS
10
7.20803
20
-4.42657
11
7.20584
21
-4.4297
0
LINE
8
BLACK
6
CONTINUOUS
10
7.20584
20
-4.4297
11
7.22031
21
-4.44417
0
LINE
8
BLACK
6
CONTINUOUS
10
7.22031
20
-4.44417
11
7.22031
21
-4.44417
0
LINE
8
BLACK
6
CONTINUOUS
10
7.22031
20
-4.44417
11
7.22369
21
-4.43965
0
LINE
8
BLACK
6
CONTINUOUS
10
7.22369
20
-4.43965
11
7.22871
21
-4.43047
0
LINE
8
BLACK
6
CONTINUOUS
10
7.22871
20
-4.43047
11
7.23237
21
-4.42066
0
LINE
8
BLACK
6
CONTINUOUS
10
7.23237
20
-4.42066
11
7.23459
21
-4.41044
0
LINE
8
BLACK
6
CONTINUOUS
10
7.23459
20
-4.41044
11
7.23534
21
-4.4
0
LINE
8
BLACK
6
CONTINUOUS
10
7.23534
20
-4.4
11
7.23459
21
-4.38956
0
LINE
8
BLACK
6
CONTINUOUS
10
7.23459
20
-4.38956
11
7.23237
21
-4.37934
0
LINE
8
BLACK
6
CONTINUOUS
10
7.23237
20
-4.37934
11
7.22871
21
-4.36953
0
LINE
8
BLACK
6
CONTINUOUS
10
7.22871
20
-4.36953
11
7.22369
21
-4.36035
0
LINE
8
BLACK
6
CONTINUOUS
10
7.22369
20
-4.36035
11
7.22031
21
-4.35583
0
LINE
8
BLACK
6
CONTINUOUS
10
7.22031
20
-4.35583
11
7.22031
21
-4.35583
0
LINE
8
BLACK
6
CONTINUOUS
10
7.22031
20
-4.35583
11
7.20584
21
-4.3703
0
LINE
8
BLACK
6
CONTINUOUS
10
6.95156
20
-4.32741
11
6.94134
21
-4.32963
0
LINE
8
BLACK
6
CONTINUOUS
10
6.94134
20
-4.32963
11
6.93153
21
-4.33329
0
LINE
8
BLACK
6
CONTINUOUS
10
6.93153
20
-4.33329
11
6.92235
21
-4.33831
0
LINE
8
BLACK
6
CONTINUOUS
10
6.92235
20
-4.33831
11
6.91783
21
-4.34169
0
LINE
8
BLACK
6
CONTINUOUS
10
6.91783
20
-4.34169
11
6.91783
21
-4.34169
0
LINE
8
BLACK
6
CONTINUOUS
10
6.91783
20
-4.34169
11
6.9323
21
-4.35616
0
LINE
8
BLACK
6
CONTINUOUS
10
6.9323
20
-4.35616
11
6.93543
21
-4.35397
0
LINE
8
BLACK
6
CONTINUOUS
10
6.93543
20
-4.35397
11
6.94382
21
-4.35006
0
LINE
8
BLACK
6
CONTINUOUS
10
6.94382
20
-4.35006
11
6.95277
21
-4.34766
0
LINE
8
BLACK
6
CONTINUOUS
10
6.95277
20
-4.34766
11
6.962
21
-4.34685
0
LINE
8
BLACK
6
CONTINUOUS
10
6.962
20
-4.34685
11
6.97123
21
-4.34766
0
LINE
8
BLACK
6
CONTINUOUS
10
6.97123
20
-4.34766
11
6.98018
21
-4.35006
0
LINE
8
BLACK
6
CONTINUOUS
10
6.98018
20
-4.35006
11
6.98857
21
-4.35397
0
LINE
8
BLACK
6
CONTINUOUS
10
6.98857
20
-4.35397
11
6.9917
21
-4.35616
0
LINE
8
BLACK
6
CONTINUOUS
10
6.9917
20
-4.35616
11
7.00617
21
-4.34169
0
LINE
8
BLACK
6
CONTINUOUS
10
7.00617
20
-4.34169
11
7.00165
21
-4.33831
0
LINE
8
BLACK
6
CONTINUOUS
10
7.00165
20
-4.33831
11
6.99247
21
-4.33329
0
LINE
8
BLACK
6
CONTINUOUS
10
6.99247
20
-4.33329
11
6.98266
21
-4.32963
0
LINE
8
BLACK
6
CONTINUOUS
10
6.98266
20
-4.32963
11
6.97244
21
-4.32741
0
LINE
8
BLACK
6
CONTINUOUS
10
6.97244
20
-4.32741
11
6.962
21
-4.32666
0
LINE
8
BLACK
6
CONTINUOUS
10
6.962
20
-4.32666
11
6.95156
21
-4.32741
0
LINE
8
BLACK
6
CONTINUOUS
10
7.15156
20
-4.32741
11
7.14134
21
-4.32963
0
LINE
8
BLACK
6
CONTINUOUS
10
7.14134
20
-4.32963
11
7.13153
21
-4.33329
0
LINE
8
BLACK
6
CONTINUOUS
10
7.13153
20
-4.33329
11
7.12235
21
-4.33831
0
LINE
8
BLACK
6
CONTINUOUS
10
7.12235
20
-4.33831
11
7.11783
21
-4.34169
0
LINE
8
BLACK
6
CONTINUOUS
10
7.11783
20
-4.34169
11
7.11783
21
-4.34169
0
LINE
8
BLACK
6
CONTINUOUS
10
7.11783
20
-4.34169
11
7.1323
21
-4.35616
0
LINE
8
BLACK
6
CONTINUOUS
10
7.1323
20
-4.35616
11
7.13543
21
-4.35397
0
LINE
8
BLACK
6
CONTINUOUS
10
7.13543
20
-4.35397
11
7.14382
21
-4.35006
0
LINE
8
BLACK
6
CONTINUOUS
10
7.14382
20
-4.35006
11
7.15277
21
-4.34766
0
LINE
8
BLACK
6
CONTINUOUS
10
7.15277
20
-4.34766
11
7.162
21
-4.34685
0
LINE
8
BLACK
6
CONTINUOUS
10
7.162
20
-4.34685
11
7.17123
21
-4.34766
0
LINE
8
BLACK
6
CONTINUOUS
10
7.17123
20
-4.34766
11
7.18018
21
-4.35006
0
LINE
8
BLACK
6
CONTINUOUS
10
7.18018
20
-4.35006
11
7.18857
21
-4.35397
0
LINE
8
BLACK
6
CONTINUOUS
10
7.18857
20
-4.35397
11
7.1917
21
-4.35616
0
LINE
8
BLACK
6
CONTINUOUS
10
7.1917
20
-4.35616
11
7.20617
21
-4.34169
0
LINE
8
BLACK
6
CONTINUOUS
10
7.20617
20
-4.34169
11
7.20165
21
-4.33831
0
LINE
8
BLACK
6
CONTINUOUS
10
7.20165
20
-4.33831
11
7.19247
21
-4.33329
0
LINE
8
BLACK
6
CONTINUOUS
10
7.19247
20
-4.33329
11
7.18266
21
-4.32963
0
LINE
8
BLACK
6
CONTINUOUS
10
7.18266
20
-4.32963
11
7.17244
21
-4.32741
0
LINE
8
BLACK
6
CONTINUOUS
10
7.17244
20
-4.32741
11
7.162
21
-4.32666
0
LINE
8
BLACK
6
CONTINUOUS
10
7.162
20
-4.32666
11
7.15156
21
-4.32741
0
LINE
8
BLACK
6
CONTINUOUS
10
6.47079
20
-4.17165
11
6.63323
21
-4.33409
0
LINE
8
BLACK
6
CONTINUOUS
10
6.63323
20
-4.33409
11
6.64998
21
-4.33409
0
LINE
8
BLACK
6
CONTINUOUS
10
6.64998
20
-4.33409
11
6.65095
21
-4.33241
0
LINE
8
BLACK
6
CONTINUOUS
10
6.65095
20
-4.33241
11
6.65409
21
-4.32977
0
LINE
8
BLACK
6
CONTINUOUS
10
6.65409
20
-4.32977
11
6.65795
21
-4.32837
0
LINE
8
BLACK
6
CONTINUOUS
10
6.65795
20
-4.32837
11
6.66205
21
-4.32837
0
LINE
8
BLACK
6
CONTINUOUS
10
6.66205
20
-4.32837
11
6.66591
21
-4.32977
0
LINE
8
BLACK
6
CONTINUOUS
10
6.66591
20
-4.32977
11
6.66905
21
-4.33241
0
LINE
8
BLACK
6
CONTINUOUS
10
6.66905
20
-4.33241
11
6.6711
21
-4.33596
0
LINE
8
BLACK
6
CONTINUOUS
10
6.6711
20
-4.33596
11
6.67181
21
-4.34
0
LINE
8
BLACK
6
CONTINUOUS
10
6.67181
20
-4.34
11
6.6711
21
-4.34404
0
LINE
8
BLACK
6
CONTINUOUS
10
6.6711
20
-4.34404
11
6.66905
21
-4.34759
0
LINE
8
BLACK
6
CONTINUOUS
10
6.66905
20
-4.34759
11
6.66591
21
-4.35023
0
LINE
8
BLACK
6
CONTINUOUS
10
6.66591
20
-4.35023
11
6.66205
21
-4.35163
0
LINE
8
BLACK
6
CONTINUOUS
10
6.66205
20
-4.35163
11
6.65795
21
-4.35163
0
LINE
8
BLACK
6
CONTINUOUS
10
6.65795
20
-4.35163
11
6.65409
21
-4.35023
0
LINE
8
BLACK
6
CONTINUOUS
10
6.65409
20
-4.35023
11
6.65095
21
-4.34759
0
LINE
8
BLACK
6
CONTINUOUS
10
6.65095
20
-4.34759
11
6.64998
21
-4.34591
0
LINE
8
BLACK
6
CONTINUOUS
10
6.64998
20
-4.34591
11
6.63079
21
-4.34591
0
LINE
8
BLACK
6
CONTINUOUS
10
6.63079
20
-4.34591
11
6.63004
21
-4.3457
0
LINE
8
BLACK
6
CONTINUOUS
10
6.63004
20
-4.3457
11
6.62926
21
-4.3457
0
LINE
8
BLACK
6
CONTINUOUS
10
6.62926
20
-4.3457
11
6.62859
21
-4.34532
0
LINE
8
BLACK
6
CONTINUOUS
10
6.62859
20
-4.34532
11
6.62783
21
-4.34511
0
LINE
8
BLACK
6
CONTINUOUS
10
6.62783
20
-4.34511
11
6.62728
21
-4.34456
0
LINE
8
BLACK
6
CONTINUOUS
10
6.62728
20
-4.34456
11
6.62661
21
-4.34418
0
LINE
8
BLACK
6
CONTINUOUS
10
6.62661
20
-4.34418
11
6.46244
21
-4.18
0
LINE
8
BLACK
6
CONTINUOUS
10
6.46244
20
-4.18
11
6.41079
21
-4.18
0
LINE
8
BLACK
6
CONTINUOUS
10
6.41079
20
-4.18
11
6.41079
21
-4.12
0
LINE
8
BLACK
6
CONTINUOUS
10
6.41079
20
-4.12
11
6.47079
21
-4.12
0
LINE
8
BLACK
6
CONTINUOUS
10
6.47079
20
-4.12
11
6.47079
21
-4.17165
0
LINE
8
BLACK
6
CONTINUOUS
10
6.16961
20
-4.16765
11
6.30204
21
-4.30008
0
LINE
8
BLACK
6
CONTINUOUS
10
6.30204
20
-4.30008
11
6.35437
21
-4.30008
0
LINE
8
BLACK
6
CONTINUOUS
10
6.35437
20
-4.30008
11
6.35481
21
-4.30014
0
LINE
8
BLACK
6
CONTINUOUS
10
6.35481
20
-4.30014
11
6.35795
21
-4.299
0
LINE
8
BLACK
6
CONTINUOUS
10
6.35795
20
-4.299
11
6.36205
21
-4.299
0
LINE
8
BLACK
6
CONTINUOUS
10
6.36205
20
-4.299
11
6.36591
21
-4.3004
0
LINE
8
BLACK
6
CONTINUOUS
10
6.36591
20
-4.3004
11
6.36905
21
-4.30304
0
LINE
8
BLACK
6
CONTINUOUS
10
6.36905
20
-4.30304
11
6.3711
21
-4.30659
0
LINE
8
BLACK
6
CONTINUOUS
10
6.3711
20
-4.30659
11
6.37181
21
-4.31063
0
LINE
8
BLACK
6
CONTINUOUS
10
6.37181
20
-4.31063
11
6.3711
21
-4.31467
0
LINE
8
BLACK
6
CONTINUOUS
10
6.3711
20
-4.31467
11
6.36905
21
-4.31823
0
LINE
8
BLACK
6
CONTINUOUS
10
6.36905
20
-4.31823
11
6.36591
21
-4.32086
0
LINE
8
BLACK
6
CONTINUOUS
10
6.36591
20
-4.32086
11
6.36205
21
-4.32226
0
LINE
8
BLACK
6
CONTINUOUS
10
6.36205
20
-4.32226
11
6.35795
21
-4.32226
0
LINE
8
BLACK
6
CONTINUOUS
10
6.35795
20
-4.32226
11
6.35409
21
-4.32086
0
LINE
8
BLACK
6
CONTINUOUS
10
6.35409
20
-4.32086
11
6.35095
21
-4.31823
0
LINE
8
BLACK
6
CONTINUOUS
10
6.35095
20
-4.31823
11
6.3489
21
-4.31467
0
LINE
8
BLACK
6
CONTINUOUS
10
6.3489
20
-4.31467
11
6.34819
21
-4.31063
0
LINE
8
BLACK
6
CONTINUOUS
10
6.34819
20
-4.31063
11
6.34831
21
-4.30992
0
LINE
8
BLACK
6
CONTINUOUS
10
6.34831
20
-4.30992
11
6.3
21
-4.30992
0
LINE
8
BLACK
6
CONTINUOUS
10
6.3
20
-4.30992
11
6.29913
21
-4.3098
0
LINE
8
BLACK
6
CONTINUOUS
10
6.29913
20
-4.3098
11
6.29895
21
-4.30981
0
LINE
8
BLACK
6
CONTINUOUS
10
6.29895
20
-4.30981
11
6.29886
21
-4.30976
0
LINE
8
BLACK
6
CONTINUOUS
10
6.29886
20
-4.30976
11
6.29861
21
-4.30972
0
LINE
8
BLACK
6
CONTINUOUS
10
6.29861
20
-4.30972
11
6.29759
21
-4.30906
0
LINE
8
BLACK
6
CONTINUOUS
10
6.29759
20
-4.30906
11
6.29652
21
-4.30848
0
LINE
8
BLACK
6
CONTINUOUS
10
6.29652
20
-4.30848
11
6.16804
21
-4.18
0
LINE
8
BLACK
6
CONTINUOUS
10
6.16804
20
-4.18
11
6.10961
21
-4.18
0
LINE
8
BLACK
6
CONTINUOUS
10
6.10961
20
-4.18
11
6.10961
21
-4.12
0
LINE
8
BLACK
6
CONTINUOUS
10
6.10961
20
-4.12
11
6.16961
21
-4.12
0
LINE
8
BLACK
6
CONTINUOUS
10
6.16961
20
-4.12
11
6.16961
21
-4.16765
0
LINE
8
BLACK
6
CONTINUOUS
10
5.67
20
-4.16
11
5.67
21
-4.18191
0
LINE
8
BLACK
6
CONTINUOUS
10
5.67
20
-4.18191
11
5.67026
21
-4.18429
0
LINE
8
BLACK
6
CONTINUOUS
10
5.67026
20
-4.18429
11
5.67227
21
-4.18968
0
LINE
8
BLACK
6
CONTINUOUS
10
5.67227
20
-4.18968
11
5.67227
21
-4.18968
0
LINE
8
BLACK
6
CONTINUOUS
10
5.67227
20
-4.18968
11
5.67571
21
-4.19429
0
LINE
8
BLACK
6
CONTINUOUS
10
5.67571
20
-4.19429
11
5.68032
21
-4.19773
0
LINE
8
BLACK
6
CONTINUOUS
10
5.68032
20
-4.19773
11
5.6857
21
-4.19974
0
LINE
8
BLACK
6
CONTINUOUS
10
5.6857
20
-4.19974
11
5.68809
21
-4.2
0
LINE
8
BLACK
6
CONTINUOUS
10
5.68809
20
-4.2
11
5.68809
21
-4.2
0
LINE
8
BLACK
6
CONTINUOUS
10
5.68809
20
-4.2
11
5.71
21
-4.2
0
LINE
8
BLACK
6
CONTINUOUS
10
5.71
20
-4.2
11
5.71
21
-4.18
0
LINE
8
BLACK
6
CONTINUOUS
10
5.71
20
-4.18
11
5.69
21
-4.18
0
LINE
8
BLACK
6
CONTINUOUS
10
5.69
20
-4.18
11
5.69
21
-4.16
0
LINE
8
BLACK
6
CONTINUOUS
10
5.69
20
-4.16
11
5.67
21
-4.16
0
LINE
8
BLACK
6
CONTINUOUS
10
5.77
20
-4.16
11
5.75
21
-4.16
0
LINE
8
BLACK
6
CONTINUOUS
10
5.75
20
-4.16
11
5.75
21
-4.18
0
LINE
8
BLACK
6
CONTINUOUS
10
5.75
20
-4.18
11
5.73
21
-4.18
0
LINE
8
BLACK
6
CONTINUOUS
10
5.73
20
-4.18
11
5.73
21
-4.2
0
LINE
8
BLACK
6
CONTINUOUS
10
5.73
20
-4.2
11
5.75191
21
-4.2
0
LINE
8
BLACK
6
CONTINUOUS
10
5.75191
20
-4.2
11
5.75191
21
-4.2
0
LINE
8
BLACK
6
CONTINUOUS
10
5.75191
20
-4.2
11
5.75429
21
-4.19974
0
LINE
8
BLACK
6
CONTINUOUS
10
5.75429
20
-4.19974
11
5.75968
21
-4.19773
0
LINE
8
BLACK
6
CONTINUOUS
10
5.75968
20
-4.19773
11
5.75968
21
-4.19773
0
LINE
8
BLACK
6
CONTINUOUS
10
5.75968
20
-4.19773
11
5.76429
21
-4.19429
0
LINE
8
BLACK
6
CONTINUOUS
10
5.76429
20
-4.19429
11
5.76773
21
-4.18968
0
LINE
8
BLACK
6
CONTINUOUS
10
5.76773
20
-4.18968
11
5.76773
21
-4.18968
0
LINE
8
BLACK
6
CONTINUOUS
10
5.76773
20
-4.18968
11
5.76974
21
-4.18429
0
LINE
8
BLACK
6
CONTINUOUS
10
5.76974
20
-4.18429
11
5.77
21
-4.18191
0
LINE
8
BLACK
6
CONTINUOUS
10
5.77
20
-4.18191
11
5.77
21
-4.18191
0
LINE
8
BLACK
6
CONTINUOUS
10
5.77
20
-4.18191
11
5.77
21
-4.18099
0
LINE
8
BLACK
6
CONTINUOUS
10
5.77
20
-4.18099
11
5.77
21
-4.16
0
LINE
8
BLACK
6
CONTINUOUS
10
5.97
20
-4.16
11
5.95
21
-4.16
0
LINE
8
BLACK
6
CONTINUOUS
10
5.95
20
-4.16
11
5.95
21
-4.18
0
LINE
8
BLACK
6
CONTINUOUS
10
5.95
20
-4.18
11
5.93
21
-4.18
0
LINE
8
BLACK
6
CONTINUOUS
10
5.93
20
-4.18
11
5.93
21
-4.2
0
LINE
8
BLACK
6
CONTINUOUS
10
5.93
20
-4.2
11
5.95191
21
-4.2
0
LINE
8
BLACK
6
CONTINUOUS
10
5.95191
20
-4.2
11
5.95191
21
-4.2
0
LINE
8
BLACK
6
CONTINUOUS
10
5.95191
20
-4.2
11
5.9543
21
-4.19974
0
LINE
8
BLACK
6
CONTINUOUS
10
5.9543
20
-4.19974
11
5.95968
21
-4.19773
0
LINE
8
BLACK
6
CONTINUOUS
10
5.95968
20
-4.19773
11
5.95968
21
-4.19773
0
LINE
8
BLACK
6
CONTINUOUS
10
5.95968
20
-4.19773
11
5.96429
21
-4.19429
0
LINE
8
BLACK
6
CONTINUOUS
10
5.96429
20
-4.19429
11
5.96773
21
-4.18968
0
LINE
8
BLACK
6
CONTINUOUS
10
5.96773
20
-4.18968
11
5.96773
21
-4.18968
0
LINE
8
BLACK
6
CONTINUOUS
10
5.96773
20
-4.18968
11
5.96974
21
-4.18429
0
LINE
8
BLACK
6
CONTINUOUS
10
5.96974
20
-4.18429
11
5.97
21
-4.18191
0
LINE
8
BLACK
6
CONTINUOUS
10
5.97
20
-4.18191
11
5.97
21
-4.18191
0
LINE
8
BLACK
6
CONTINUOUS
10
5.97
20
-4.18191
11
5.97
21
-4.18099
0
LINE
8
BLACK
6
CONTINUOUS
10
5.97
20
-4.18099
11
5.97
21
-4.16
0
LINE
8
BLACK
6
CONTINUOUS
10
5.77998
20
-4.18099
11
5.78056
21
-4.18391
0
LINE
8
BLACK
6
CONTINUOUS
10
5.78056
20
-4.18391
11
5.78278
21
-4.18722
0
LINE
8
BLACK
6
CONTINUOUS
10
5.78278
20
-4.18722
11
5.78609
21
-4.18944
0
LINE
8
BLACK
6
CONTINUOUS
10
5.78609
20
-4.18944
11
5.78609
21
-4.18944
0
LINE
8
BLACK
6
CONTINUOUS
10
5.78609
20
-4.18944
11
5.78901
21
-4.19002
0
LINE
8
BLACK
6
CONTINUOUS
10
5.78901
20
-4.19002
11
5.85099
21
-4.19002
0
LINE
8
BLACK
6
CONTINUOUS
10
5.85099
20
-4.19002
11
5.85099
21
-4.19002
0
LINE
8
BLACK
6
CONTINUOUS
10
5.85099
20
-4.19002
11
5.85099
21
-4.19002
0
LINE
8
BLACK
6
CONTINUOUS
10
5.85099
20
-4.19002
11
5.85293
21
-4.18963
0
LINE
8
BLACK
6
CONTINUOUS
10
5.85293
20
-4.18963
11
5.85391
21
-4.18944
0
LINE
8
BLACK
6
CONTINUOUS
10
5.85391
20
-4.18944
11
5.85722
21
-4.18722
0
LINE
8
BLACK
6
CONTINUOUS
10
5.85722
20
-4.18722
11
5.85944
21
-4.18391
0
LINE
8
BLACK
6
CONTINUOUS
10
5.85944
20
-4.18391
11
5.85984
21
-4.18191
0
LINE
8
BLACK
6
CONTINUOUS
10
5.85984
20
-4.18191
11
5.86002
21
-4.18099
0
LINE
8
BLACK
6
CONTINUOUS
10
5.86002
20
-4.18099
11
5.86002
21
-4.11901
0
LINE
8
BLACK
6
CONTINUOUS
10
5.86002
20
-4.11901
11
5.86002
21
-4.11901
0
LINE
8
BLACK
6
CONTINUOUS
10
5.86002
20
-4.11901
11
5.86002
21
-4.11901
0
LINE
8
BLACK
6
CONTINUOUS
10
5.86002
20
-4.11901
11
5.85944
21
-4.11609
0
LINE
8
BLACK
6
CONTINUOUS
10
5.85944
20
-4.11609
11
5.85722
21
-4.11278
0
LINE
8
BLACK
6
CONTINUOUS
10
5.85722
20
-4.11278
11
5.85391
21
-4.11056
0
LINE
8
BLACK
6
CONTINUOUS
10
5.85391
20
-4.11056
11
5.85099
21
-4.10998
0
LINE
8
BLACK
6
CONTINUOUS
10
5.85099
20
-4.10998
11
5.78901
21
-4.10998
0
LINE
8
BLACK
6
CONTINUOUS
10
5.78901
20
-4.10998
11
5.78901
21
-4.10998
0
LINE
8
BLACK
6
CONTINUOUS
10
5.78901
20
-4.10998
11
5.78609
21
-4.11056
0
LINE
8
BLACK
6
CONTINUOUS
10
5.78609
20
-4.11056
11
5.78278
21
-4.11278
0
LINE
8
BLACK
6
CONTINUOUS
10
5.78278
20
-4.11278
11
5.78056
21
-4.11609
0
LINE
8
BLACK
6
CONTINUOUS
10
5.78056
20
-4.11609
11
5.77998
21
-4.11901
0
LINE
8
BLACK
6
CONTINUOUS
10
5.77998
20
-4.11901
11
5.77998
21
-4.18099
0
LINE
8
BLACK
6
CONTINUOUS
10
5.77998
20
-4.18099
11
5.77998
21
-4.18099
0
LINE
8
BLACK
6
CONTINUOUS
10
5.99919
20
-4.18099
11
5.99977
21
-4.18391
0
LINE
8
BLACK
6
CONTINUOUS
10
5.99977
20
-4.18391
11
6.00199
21
-4.18722
0
LINE
8
BLACK
6
CONTINUOUS
10
6.00199
20
-4.18722
11
6.0053
21
-4.18944
0
LINE
8
BLACK
6
CONTINUOUS
10
6.0053
20
-4.18944
11
6.0053
21
-4.18944
0
LINE
8
BLACK
6
CONTINUOUS
10
6.0053
20
-4.18944
11
6.00823
21
-4.19002
0
LINE
8
BLACK
6
CONTINUOUS
10
6.00823
20
-4.19002
11
6.0702
21
-4.19002
0
LINE
8
BLACK
6
CONTINUOUS
10
6.0702
20
-4.19002
11
6.0702
21
-4.19002
0
LINE
8
BLACK
6
CONTINUOUS
10
6.0702
20
-4.19002
11
6.0702
21
-4.19002
0
LINE
8
BLACK
6
CONTINUOUS
10
6.0702
20
-4.19002
11
6.07214
21
-4.18963
0
LINE
8
BLACK
6
CONTINUOUS
10
6.07214
20
-4.18963
11
6.07312
21
-4.18944
0
LINE
8
BLACK
6
CONTINUOUS
10
6.07312
20
-4.18944
11
6.07644
21
-4.18722
0
LINE
8
BLACK
6
CONTINUOUS
10
6.07644
20
-4.18722
11
6.07865
21
-4.18391
0
LINE
8
BLACK
6
CONTINUOUS
10
6.07865
20
-4.18391
11
6.07923
21
-4.18099
0
LINE
8
BLACK
6
CONTINUOUS
10
6.07923
20
-4.18099
11
6.07923
21
-4.11901
0
LINE
8
BLACK
6
CONTINUOUS
10
6.07923
20
-4.11901
11
6.07923
21
-4.11901
0
LINE
8
BLACK
6
CONTINUOUS
10
6.07923
20
-4.11901
11
6.07923
21
-4.11901
0
LINE
8
BLACK
6
CONTINUOUS
10
6.07923
20
-4.11901
11
6.07865
21
-4.11609
0
LINE
8
BLACK
6
CONTINUOUS
10
6.07865
20
-4.11609
11
6.07644
21
-4.11278
0
LINE
8
BLACK
6
CONTINUOUS
10
6.07644
20
-4.11278
11
6.07312
21
-4.11056
0
LINE
8
BLACK
6
CONTINUOUS
10
6.07312
20
-4.11056
11
6.0702
21
-4.10998
0
LINE
8
BLACK
6
CONTINUOUS
10
6.0702
20
-4.10998
11
6.00823
21
-4.10998
0
LINE
8
BLACK
6
CONTINUOUS
10
6.00823
20
-4.10998
11
6.00823
21
-4.10998
0
LINE
8
BLACK
6
CONTINUOUS
10
6.00823
20
-4.10998
11
6.0053
21
-4.11056
0
LINE
8
BLACK
6
CONTINUOUS
10
6.0053
20
-4.11056
11
6.00199
21
-4.11278
0
LINE
8
BLACK
6
CONTINUOUS
10
6.00199
20
-4.11278
11
5.99977
21
-4.11609
0
LINE
8
BLACK
6
CONTINUOUS
10
5.99977
20
-4.11609
11
5.99919
21
-4.11901
0
LINE
8
BLACK
6
CONTINUOUS
10
5.99919
20
-4.11901
11
5.99919
21
-4.18099
0
LINE
8
BLACK
6
CONTINUOUS
10
5.99919
20
-4.18099
11
5.99919
21
-4.18099
0
LINE
8
BLACK
6
CONTINUOUS
10
6.27
20
-4.18
11
6.21
21
-4.18
0
LINE
8
BLACK
6
CONTINUOUS
10
6.21
20
-4.18
11
6.21
21
-4.12
0
LINE
8
BLACK
6
CONTINUOUS
10
6.21
20
-4.12
11
6.27
21
-4.12
0
LINE
8
BLACK
6
CONTINUOUS
10
6.27
20
-4.12
11
6.27
21
-4.18
0
LINE
8
BLACK
6
CONTINUOUS
10
6.37039
20
-4.18
11
6.31039
21
-4.18
0
LINE
8
BLACK
6
CONTINUOUS
10
6.31039
20
-4.18
11
6.31039
21
-4.12
0
LINE
8
BLACK
6
CONTINUOUS
10
6.31039
20
-4.12
11
6.37039
21
-4.12
0
LINE
8
BLACK
6
CONTINUOUS
10
6.37039
20
-4.12
11
6.37039
21
-4.18
0
LINE
8
BLACK
6
CONTINUOUS
10
6.60882
20
-4.18
11
6.54882
21
-4.18
0
LINE
8
BLACK
6
CONTINUOUS
10
6.54882
20
-4.18
11
6.54882
21
-4.12
0
LINE
8
BLACK
6
CONTINUOUS
10
6.54882
20
-4.12
11
6.60882
21
-4.12
0
LINE
8
BLACK
6
CONTINUOUS
10
6.60882
20
-4.12
11
6.60882
21
-4.18
0
LINE
8
BLACK
6
CONTINUOUS
10
6.70921
20
-4.18
11
6.64921
21
-4.18
0
LINE
8
BLACK
6
CONTINUOUS
10
6.64921
20
-4.18
11
6.64921
21
-4.12
0
LINE
8
BLACK
6
CONTINUOUS
10
6.64921
20
-4.12
11
6.70921
21
-4.12
0
LINE
8
BLACK
6
CONTINUOUS
10
6.70921
20
-4.12
11
6.70921
21
-4.18
0
LINE
8
BLACK
6
CONTINUOUS
10
6.80961
20
-4.18
11
6.74961
21
-4.18
0
LINE
8
BLACK
6
CONTINUOUS
10
6.74961
20
-4.18
11
6.74961
21
-4.12
0
LINE
8
BLACK
6
CONTINUOUS
10
6.74961
20
-4.12
11
6.80961
21
-4.12
0
LINE
8
BLACK
6
CONTINUOUS
10
6.80961
20
-4.12
11
6.80961
21
-4.18
0
LINE
8
BLACK
6
CONTINUOUS
10
6.91
20
-4.18
11
6.85
21
-4.18
0
LINE
8
BLACK
6
CONTINUOUS
10
6.85
20
-4.18
11
6.85
21
-4.12
0
LINE
8
BLACK
6
CONTINUOUS
10
6.85
20
-4.12
11
6.91
21
-4.12
0
LINE
8
BLACK
6
CONTINUOUS
10
6.91
20
-4.12
11
6.91
21
-4.18
0
LINE
8
BLACK
6
CONTINUOUS
10
5.97
20
-4.06
11
5.95
21
-4.06
0
LINE
8
BLACK
6
CONTINUOUS
10
5.95
20
-4.06
11
5.95
21
-4.08
0
LINE
8
BLACK
6
CONTINUOUS
10
5.95
20
-4.08
11
5.93
21
-4.08
0
LINE
8
BLACK
6
CONTINUOUS
10
5.93
20
-4.08
11
5.93
21
-4.12
0
LINE
8
BLACK
6
CONTINUOUS
10
5.93
20
-4.12
11
5.95
21
-4.12
0
LINE
8
BLACK
6
CONTINUOUS
10
5.95
20
-4.12
11
5.95
21
-4.14
0
LINE
8
BLACK
6
CONTINUOUS
10
5.95
20
-4.14
11
5.97
21
-4.14
0
LINE
8
BLACK
6
CONTINUOUS
10
5.97
20
-4.14
11
5.97
21
-4.11809
0
LINE
8
BLACK
6
CONTINUOUS
10
5.97
20
-4.11809
11
5.97
21
-4.11809
0
LINE
8
BLACK
6
CONTINUOUS
10
5.97
20
-4.11809
11
5.96974
21
-4.1157
0
LINE
8
BLACK
6
CONTINUOUS
10
5.96974
20
-4.1157
11
5.96773
21
-4.11032
0
LINE
8
BLACK
6
CONTINUOUS
10
5.96773
20
-4.11032
11
5.96773
21
-4.11032
0
LINE
8
BLACK
6
CONTINUOUS
10
5.96773
20
-4.11032
11
5.96429
21
-4.10571
0
LINE
8
BLACK
6
CONTINUOUS
10
5.96429
20
-4.10571
11
5.96196
21
-4.10397
0
LINE
8
BLACK
6
CONTINUOUS
10
5.96196
20
-4.10397
11
5.96029
21
-4.10173
0
LINE
8
BLACK
6
CONTINUOUS
10
5.96029
20
-4.10173
11
5.96009
21
-4.09895
0
LINE
8
BLACK
6
CONTINUOUS
10
5.96009
20
-4.09895
11
5.96143
21
-4.09649
0
LINE
8
BLACK
6
CONTINUOUS
10
5.96143
20
-4.09649
11
5.96196
21
-4.09603
0
LINE
8
BLACK
6
CONTINUOUS
10
5.96196
20
-4.09603
11
5.96429
21
-4.09429
0
LINE
8
BLACK
6
CONTINUOUS
10
5.96429
20
-4.09429
11
5.96773
21
-4.08968
0
LINE
8
BLACK
6
CONTINUOUS
10
5.96773
20
-4.08968
11
5.96773
21
-4.08968
0
LINE
8
BLACK
6
CONTINUOUS
10
5.96773
20
-4.08968
11
5.96974
21
-4.0843
0
LINE
8
BLACK
6
CONTINUOUS
10
5.96974
20
-4.0843
11
5.97
21
-4.08191
0
LINE
8
BLACK
6
CONTINUOUS
10
5.97
20
-4.08191
11
5.97
21
-4.08191
0
LINE
8
BLACK
6
CONTINUOUS
10
5.97
20
-4.08191
11
5.97
21
-4.08099
0
LINE
8
BLACK
6
CONTINUOUS
10
5.97
20
-4.08099
11
5.97
21
-4.06
0
LINE
8
BLACK
6
CONTINUOUS
10
5.87
20
-4.06
11
5.87
21
-4.08191
0
LINE
8
BLACK
6
CONTINUOUS
10
5.87
20
-4.08191
11
5.87026
21
-4.0843
0
LINE
8
BLACK
6
CONTINUOUS
10
5.87026
20
-4.0843
11
5.87227
21
-4.08968
0
LINE
8
BLACK
6
CONTINUOUS
10
5.87227
20
-4.08968
11
5.87227
21
-4.08968
0
LINE
8
BLACK
6
CONTINUOUS
10
5.87227
20
-4.08968
11
5.87571
21
-4.09429
0
LINE
8
BLACK
6
CONTINUOUS
10
5.87571
20
-4.09429
11
5.87804
21
-4.09603
0
LINE
8
BLACK
6
CONTINUOUS
10
5.87804
20
-4.09603
11
5.87971
21
-4.09827
0
LINE
8
BLACK
6
CONTINUOUS
10
5.87971
20
-4.09827
11
5.87991
21
-4.10105
0
LINE
8
BLACK
6
CONTINUOUS
10
5.87991
20
-4.10105
11
5.87857
21
-4.10351
0
LINE
8
BLACK
6
CONTINUOUS
10
5.87857
20
-4.10351
11
5.87804
21
-4.10397
0
LINE
8
BLACK
6
CONTINUOUS
10
5.87804
20
-4.10397
11
5.87571
21
-4.10571
0
LINE
8
BLACK
6
CONTINUOUS
10
5.87571
20
-4.10571
11
5.87227
21
-4.11032
0
LINE
8
BLACK
6
CONTINUOUS
10
5.87227
20
-4.11032
11
5.87227
21
-4.11032
0
LINE
8
BLACK
6
CONTINUOUS
10
5.87227
20
-4.11032
11
5.87026
21
-4.1157
0
LINE
8
BLACK
6
CONTINUOUS
10
5.87026
20
-4.1157
11
5.87
21
-4.11809
0
LINE
8
BLACK
6
CONTINUOUS
10
5.87
20
-4.11809
11
5.87
21
-4.14
0
LINE
8
BLACK
6
CONTINUOUS
10
5.87
20
-4.14
11
5.89
21
-4.14
0
LINE
8
BLACK
6
CONTINUOUS
10
5.89
20
-4.14
11
5.89
21
-4.12
0
LINE
8
BLACK
6
CONTINUOUS
10
5.89
20
-4.12
11
5.91
21
-4.12
0
LINE
8
BLACK
6
CONTINUOUS
10
5.91
20
-4.12
11
5.91
21
-4.08
0
LINE
8
BLACK
6
CONTINUOUS
10
5.91
20
-4.08
11
5.89
21
-4.08
0
LINE
8
BLACK
6
CONTINUOUS
10
5.89
20
-4.08
11
5.89
21
-4.06
0
LINE
8
BLACK
6
CONTINUOUS
10
5.89
20
-4.06
11
5.87
21
-4.06
0
LINE
8
BLACK
6
CONTINUOUS
10
5.77
20
-4.06
11
5.75
21
-4.06
0
LINE
8
BLACK
6
CONTINUOUS
10
5.75
20
-4.06
11
5.75
21
-4.08
0
LINE
8
BLACK
6
CONTINUOUS
10
5.75
20
-4.08
11
5.73
21
-4.08
0
LINE
8
BLACK
6
CONTINUOUS
10
5.73
20
-4.08
11
5.73
21
-4.12
0
LINE
8
BLACK
6
CONTINUOUS
10
5.73
20
-4.12
11
5.75
21
-4.12
0
LINE
8
BLACK
6
CONTINUOUS
10
5.75
20
-4.12
11
5.75
21
-4.14
0
LINE
8
BLACK
6
CONTINUOUS
10
5.75
20
-4.14
11
5.77
21
-4.14
0
LINE
8
BLACK
6
CONTINUOUS
10
5.77
20
-4.14
11
5.77
21
-4.11809
0
LINE
8
BLACK
6
CONTINUOUS
10
5.77
20
-4.11809
11
5.77
21
-4.11809
0
LINE
8
BLACK
6
CONTINUOUS
10
5.77
20
-4.11809
11
5.76974
21
-4.1157
0
LINE
8
BLACK
6
CONTINUOUS
10
5.76974
20
-4.1157
11
5.76773
21
-4.11032
0
LINE
8
BLACK
6
CONTINUOUS
10
5.76773
20
-4.11032
11
5.76773
21
-4.11032
0
LINE
8
BLACK
6
CONTINUOUS
10
5.76773
20
-4.11032
11
5.76429
21
-4.10571
0
LINE
8
BLACK
6
CONTINUOUS
10
5.76429
20
-4.10571
11
5.76196
21
-4.10397
0
LINE
8
BLACK
6
CONTINUOUS
10
5.76196
20
-4.10397
11
5.76029
21
-4.10173
0
LINE
8
BLACK
6
CONTINUOUS
10
5.76029
20
-4.10173
11
5.76009
21
-4.09895
0
LINE
8
BLACK
6
CONTINUOUS
10
5.76009
20
-4.09895
11
5.76143
21
-4.09649
0
LINE
8
BLACK
6
CONTINUOUS
10
5.76143
20
-4.09649
11
5.76196
21
-4.09603
0
LINE
8
BLACK
6
CONTINUOUS
10
5.76196
20
-4.09603
11
5.76429
21
-4.09429
0
LINE
8
BLACK
6
CONTINUOUS
10
5.76429
20
-4.09429
11
5.76773
21
-4.08968
0
LINE
8
BLACK
6
CONTINUOUS
10
5.76773
20
-4.08968
11
5.76773
21
-4.08968
0
LINE
8
BLACK
6
CONTINUOUS
10
5.76773
20
-4.08968
11
5.76974
21
-4.0843
0
LINE
8
BLACK
6
CONTINUOUS
10
5.76974
20
-4.0843
11
5.77
21
-4.08191
0
LINE
8
BLACK
6
CONTINUOUS
10
5.77
20
-4.08191
11
5.77
21
-4.08191
0
LINE
8
BLACK
6
CONTINUOUS
10
5.77
20
-4.08191
11
5.77
21
-4.08099
0
LINE
8
BLACK
6
CONTINUOUS
10
5.77
20
-4.08099
11
5.77
21
-4.06
0
LINE
8
BLACK
6
CONTINUOUS
10
5.67
20
-4.06
11
5.67
21
-4.08191
0
LINE
8
BLACK
6
CONTINUOUS
10
5.67
20
-4.08191
11
5.67026
21
-4.0843
0
LINE
8
BLACK
6
CONTINUOUS
10
5.67026
20
-4.0843
11
5.67227
21
-4.08968
0
LINE
8
BLACK
6
CONTINUOUS
10
5.67227
20
-4.08968
11
5.67227
21
-4.08968
0
LINE
8
BLACK
6
CONTINUOUS
10
5.67227
20
-4.08968
11
5.67571
21
-4.09429
0
LINE
8
BLACK
6
CONTINUOUS
10
5.67571
20
-4.09429
11
5.67804
21
-4.09603
0
LINE
8
BLACK
6
CONTINUOUS
10
5.67804
20
-4.09603
11
5.67971
21
-4.09827
0
LINE
8
BLACK
6
CONTINUOUS
10
5.67971
20
-4.09827
11
5.67991
21
-4.10105
0
LINE
8
BLACK
6
CONTINUOUS
10
5.67991
20
-4.10105
11
5.67857
21
-4.10351
0
LINE
8
BLACK
6
CONTINUOUS
10
5.67857
20
-4.10351
11
5.67804
21
-4.10397
0
LINE
8
BLACK
6
CONTINUOUS
10
5.67804
20
-4.10397
11
5.67571
21
-4.10571
0
LINE
8
BLACK
6
CONTINUOUS
10
5.67571
20
-4.10571
11
5.67227
21
-4.11032
0
LINE
8
BLACK
6
CONTINUOUS
10
5.67227
20
-4.11032
11
5.67227
21
-4.11032
0
LINE
8
BLACK
6
CONTINUOUS
10
5.67227
20
-4.11032
11
5.67026
21
-4.1157
0
LINE
8
BLACK
6
CONTINUOUS
10
5.67026
20
-4.1157
11
5.67
21
-4.11809
0
LINE
8
BLACK
6
CONTINUOUS
10
5.67
20
-4.11809
11
5.67
21
-4.14
0
LINE
8
BLACK
6
CONTINUOUS
10
5.67
20
-4.14
11
5.69
21
-4.14
0
LINE
8
BLACK
6
CONTINUOUS
10
5.69
20
-4.14
11
5.69
21
-4.12
0
LINE
8
BLACK
6
CONTINUOUS
10
5.69
20
-4.12
11
5.71
21
-4.12
0
LINE
8
BLACK
6
CONTINUOUS
10
5.71
20
-4.12
11
5.71
21
-4.08
0
LINE
8
BLACK
6
CONTINUOUS
10
5.71
20
-4.08
11
5.69
21
-4.08
0
LINE
8
BLACK
6
CONTINUOUS
10
5.69
20
-4.08
11
5.69
21
-4.06
0
LINE
8
BLACK
6
CONTINUOUS
10
5.69
20
-4.06
11
5.67
21
-4.06
0
LINE
8
BLACK
6
CONTINUOUS
10
5.77998
20
-4.08099
11
5.78056
21
-4.08391
0
LINE
8
BLACK
6
CONTINUOUS
10
5.78056
20
-4.08391
11
5.78278
21
-4.08722
0
LINE
8
BLACK
6
CONTINUOUS
10
5.78278
20
-4.08722
11
5.78609
21
-4.08944
0
LINE
8
BLACK
6
CONTINUOUS
10
5.78609
20
-4.08944
11
5.78609
21
-4.08944
0
LINE
8
BLACK
6
CONTINUOUS
10
5.78609
20
-4.08944
11
5.78901
21
-4.09002
0
LINE
8
BLACK
6
CONTINUOUS
10
5.78901
20
-4.09002
11
5.85099
21
-4.09002
0
LINE
8
BLACK
6
CONTINUOUS
10
5.85099
20
-4.09002
11
5.85099
21
-4.09002
0
LINE
8
BLACK
6
CONTINUOUS
10
5.85099
20
-4.09002
11
5.85099
21
-4.09002
0
LINE
8
BLACK
6
CONTINUOUS
10
5.85099
20
-4.09002
11
5.85293
21
-4.08963
0
LINE
8
BLACK
6
CONTINUOUS
10
5.85293
20
-4.08963
11
5.85391
21
-4.08944
0
LINE
8
BLACK
6
CONTINUOUS
10
5.85391
20
-4.08944
11
5.85722
21
-4.08722
0
LINE
8
BLACK
6
CONTINUOUS
10
5.85722
20
-4.08722
11
5.85944
21
-4.08391
0
LINE
8
BLACK
6
CONTINUOUS
10
5.85944
20
-4.08391
11
5.86002
21
-4.08099
0
LINE
8
BLACK
6
CONTINUOUS
10
5.86002
20
-4.08099
11
5.86002
21
-4.01901
0
LINE
8
BLACK
6
CONTINUOUS
10
5.86002
20
-4.01901
11
5.86002
21
-4.01901
0
LINE
8
BLACK
6
CONTINUOUS
10
5.86002
20
-4.01901
11
5.86002
21
-4.01901
0
LINE
8
BLACK
6
CONTINUOUS
10
5.86002
20
-4.01901
11
5.85944
21
-4.01609
0
LINE
8
BLACK
6
CONTINUOUS
10
5.85944
20
-4.01609
11
5.85722
21
-4.01278
0
LINE
8
BLACK
6
CONTINUOUS
10
5.85722
20
-4.01278
11
5.85391
21
-4.01056
0
LINE
8
BLACK
6
CONTINUOUS
10
5.85391
20
-4.01056
11
5.85099
21
-4.00998
0
LINE
8
BLACK
6
CONTINUOUS
10
5.85099
20
-4.00998
11
5.78901
21
-4.00998
0
LINE
8
BLACK
6
CONTINUOUS
10
5.78901
20
-4.00998
11
5.78901
21
-4.00998
0
LINE
8
BLACK
6
CONTINUOUS
10
5.78901
20
-4.00998
11
5.78609
21
-4.01056
0
LINE
8
BLACK
6
CONTINUOUS
10
5.78609
20
-4.01056
11
5.78278
21
-4.01278
0
LINE
8
BLACK
6
CONTINUOUS
10
5.78278
20
-4.01278
11
5.78056
21
-4.01609
0
LINE
8
BLACK
6
CONTINUOUS
10
5.78056
20
-4.01609
11
5.77998
21
-4.01901
0
LINE
8
BLACK
6
CONTINUOUS
10
5.77998
20
-4.01901
11
5.77998
21
-4.08099
0
LINE
8
BLACK
6
CONTINUOUS
10
5.77998
20
-4.08099
11
5.77998
21
-4.08099
0
LINE
8
BLACK
6
CONTINUOUS
10
5.99919
20
-4.08099
11
5.99977
21
-4.08391
0
LINE
8
BLACK
6
CONTINUOUS
10
5.99977
20
-4.08391
11
6.00199
21
-4.08722
0
LINE
8
BLACK
6
CONTINUOUS
10
6.00199
20
-4.08722
11
6.0053
21
-4.08944
0
LINE
8
BLACK
6
CONTINUOUS
10
6.0053
20
-4.08944
11
6.0053
21
-4.08944
0
LINE
8
BLACK
6
CONTINUOUS
10
6.0053
20
-4.08944
11
6.00823
21
-4.09002
0
LINE
8
BLACK
6
CONTINUOUS
10
6.00823
20
-4.09002
11
6.0702
21
-4.09002
0
LINE
8
BLACK
6
CONTINUOUS
10
6.0702
20
-4.09002
11
6.0702
21
-4.09002
0
LINE
8
BLACK
6
CONTINUOUS
10
6.0702
20
-4.09002
11
6.0702
21
-4.09002
0
LINE
8
BLACK
6
CONTINUOUS
10
6.0702
20
-4.09002
11
6.07214
21
-4.08963
0
LINE
8
BLACK
6
CONTINUOUS
10
6.07214
20
-4.08963
11
6.07312
21
-4.08944
0
LINE
8
BLACK
6
CONTINUOUS
10
6.07312
20
-4.08944
11
6.07644
21
-4.08722
0
LINE
8
BLACK
6
CONTINUOUS
10
6.07644
20
-4.08722
11
6.07865
21
-4.08391
0
LINE
8
BLACK
6
CONTINUOUS
10
6.07865
20
-4.08391
11
6.07923
21
-4.08099
0
LINE
8
BLACK
6
CONTINUOUS
10
6.07923
20
-4.08099
11
6.07923
21
-4.08099
0
LINE
8
BLACK
6
CONTINUOUS
10
6.07923
20
-4.08099
11
6.07923
21
-4.01901
0
LINE
8
BLACK
6
CONTINUOUS
10
6.07923
20
-4.01901
11
6.07923
21
-4.01901
0
LINE
8
BLACK
6
CONTINUOUS
10
6.07923
20
-4.01901
11
6.07923
21
-4.01901
0
LINE
8
BLACK
6
CONTINUOUS
10
6.07923
20
-4.01901
11
6.07865
21
-4.01609
0
LINE
8
BLACK
6
CONTINUOUS
10
6.07865
20
-4.01609
11
6.07644
21
-4.01278
0
LINE
8
BLACK
6
CONTINUOUS
10
6.07644
20
-4.01278
11
6.07312
21
-4.01056
0
LINE
8
BLACK
6
CONTINUOUS
10
6.07312
20
-4.01056
11
6.0702
21
-4.00998
0
LINE
8
BLACK
6
CONTINUOUS
10
6.0702
20
-4.00998
11
6.00823
21
-4.00998
0
LINE
8
BLACK
6
CONTINUOUS
10
6.00823
20
-4.00998
11
6.00823
21
-4.00998
0
LINE
8
BLACK
6
CONTINUOUS
10
6.00823
20
-4.00998
11
6.0053
21
-4.01056
0
LINE
8
BLACK
6
CONTINUOUS
10
6.0053
20
-4.01056
11
6.00199
21
-4.01278
0
LINE
8
BLACK
6
CONTINUOUS
10
6.00199
20
-4.01278
11
5.99977
21
-4.01609
0
LINE
8
BLACK
6
CONTINUOUS
10
5.99977
20
-4.01609
11
5.99919
21
-4.01901
0
LINE
8
BLACK
6
CONTINUOUS
10
5.99919
20
-4.01901
11
5.99919
21
-4.08099
0
LINE
8
BLACK
6
CONTINUOUS
10
5.99919
20
-4.08099
11
5.99919
21
-4.08099
0
LINE
8
BLACK
6
CONTINUOUS
10
6.16961
20
-4.08
11
6.10961
21
-4.08
0
LINE
8
BLACK
6
CONTINUOUS
10
6.10961
20
-4.08
11
6.10961
21
-4.02
0
LINE
8
BLACK
6
CONTINUOUS
10
6.10961
20
-4.02
11
6.16961
21
-4.02
0
LINE
8
BLACK
6
CONTINUOUS
10
6.16961
20
-4.02
11
6.16961
21
-4.08
0
LINE
8
BLACK
6
CONTINUOUS
10
6.27
20
-4.08
11
6.21
21
-4.08
0
LINE
8
BLACK
6
CONTINUOUS
10
6.21
20
-4.08
11
6.21
21
-4.02
0
LINE
8
BLACK
6
CONTINUOUS
10
6.21
20
-4.02
11
6.27
21
-4.02
0
LINE
8
BLACK
6
CONTINUOUS
10
6.27
20
-4.02
11
6.27
21
-4.08
0
LINE
8
BLACK
6
CONTINUOUS
10
6.37039
20
-4.08
11
6.31039
21
-4.08
0
LINE
8
BLACK
6
CONTINUOUS
10
6.31039
20
-4.08
11
6.31039
21
-4.02
0
LINE
8
BLACK
6
CONTINUOUS
10
6.31039
20
-4.02
11
6.37039
21
-4.02
0
LINE
8
BLACK
6
CONTINUOUS
10
6.37039
20
-4.02
11
6.37039
21
-4.08
0
LINE
8
BLACK
6
CONTINUOUS
10
6.47079
20
-4.08
11
6.41079
21
-4.08
0
LINE
8
BLACK
6
CONTINUOUS
10
6.41079
20
-4.08
11
6.41079
21
-4.02
0
LINE
8
BLACK
6
CONTINUOUS
10
6.41079
20
-4.02
11
6.47079
21
-4.02
0
LINE
8
BLACK
6
CONTINUOUS
10
6.47079
20
-4.02
11
6.47079
21
-4.08
0
LINE
8
BLACK
6
CONTINUOUS
10
6.60882
20
-4.08
11
6.54882
21
-4.08
0
LINE
8
BLACK
6
CONTINUOUS
10
6.54882
20
-4.08
11
6.54882
21
-4.02
0
LINE
8
BLACK
6
CONTINUOUS
10
6.54882
20
-4.02
11
6.60882
21
-4.02
0
LINE
8
BLACK
6
CONTINUOUS
10
6.60882
20
-4.02
11
6.60882
21
-4.08
0
LINE
8
BLACK
6
CONTINUOUS
10
6.70921
20
-4.08
11
6.64921
21
-4.08
0
LINE
8
BLACK
6
CONTINUOUS
10
6.64921
20
-4.08
11
6.64921
21
-4.02
0
LINE
8
BLACK
6
CONTINUOUS
10
6.64921
20
-4.02
11
6.70921
21
-4.02
0
LINE
8
BLACK
6
CONTINUOUS
10
6.70921
20
-4.02
11
6.70921
21
-4.08
0
LINE
8
BLACK
6
CONTINUOUS
10
6.80961
20
-4.08
11
6.74961
21
-4.08
0
LINE
8
BLACK
6
CONTINUOUS
10
6.74961
20
-4.08
11
6.74961
21
-4.02
0
LINE
8
BLACK
6
CONTINUOUS
10
6.74961
20
-4.02
11
6.80961
21
-4.02
0
LINE
8
BLACK
6
CONTINUOUS
10
6.80961
20
-4.02
11
6.80961
21
-4.08
0
LINE
8
BLACK
6
CONTINUOUS
10
6.91
20
-4.08
11
6.85
21
-4.08
0
LINE
8
BLACK
6
CONTINUOUS
10
6.85
20
-4.08
11
6.85
21
-4.02
0
LINE
8
BLACK
6
CONTINUOUS
10
6.85
20
-4.02
11
6.91
21
-4.02
0
LINE
8
BLACK
6
CONTINUOUS
10
6.91
20
-4.02
11
6.91
21
-4.08
0
LINE
8
BLACK
6
CONTINUOUS
10
5.93
20
-4.02
11
5.95
21
-4.02
0
LINE
8
BLACK
6
CONTINUOUS
10
5.95
20
-4.02
11
5.95
21
-4.04
0
LINE
8
BLACK
6
CONTINUOUS
10
5.95
20
-4.04
11
5.97
21
-4.04
0
LINE
8
BLACK
6
CONTINUOUS
10
5.97
20
-4.04
11
5.97
21
-4.01809
0
LINE
8
BLACK
6
CONTINUOUS
10
5.97
20
-4.01809
11
5.97
21
-4.01809
0
LINE
8
BLACK
6
CONTINUOUS
10
5.97
20
-4.01809
11
5.96974
21
-4.0157
0
LINE
8
BLACK
6
CONTINUOUS
10
5.96974
20
-4.0157
11
5.96773
21
-4.01032
0
LINE
8
BLACK
6
CONTINUOUS
10
5.96773
20
-4.01032
11
5.96773
21
-4.01032
0
LINE
8
BLACK
6
CONTINUOUS
10
5.96773
20
-4.01032
11
5.96429
21
-4.00571
0
LINE
8
BLACK
6
CONTINUOUS
10
5.96429
20
-4.00571
11
5.95968
21
-4.00227
0
LINE
8
BLACK
6
CONTINUOUS
10
5.95968
20
-4.00227
11
5.9543
21
-4.00026
0
LINE
8
BLACK
6
CONTINUOUS
10
5.9543
20
-4.00026
11
5.95191
21
-4
0
LINE
8
BLACK
6
CONTINUOUS
10
5.95191
20
-4
11
5.93
21
-4
0
LINE
8
BLACK
6
CONTINUOUS
10
5.93
20
-4
11
5.93
21
-4.02
0
LINE
8
BLACK
6
CONTINUOUS
10
5.8857
20
-4.00026
11
5.88032
21
-4.00227
0
LINE
8
BLACK
6
CONTINUOUS
10
5.88032
20
-4.00227
11
5.88032
21
-4.00227
0
LINE
8
BLACK
6
CONTINUOUS
10
5.88032
20
-4.00227
11
5.87571
21
-4.00571
0
LINE
8
BLACK
6
CONTINUOUS
10
5.87571
20
-4.00571
11
5.87227
21
-4.01032
0
LINE
8
BLACK
6
CONTINUOUS
10
5.87227
20
-4.01032
11
5.87227
21
-4.01032
0
LINE
8
BLACK
6
CONTINUOUS
10
5.87227
20
-4.01032
11
5.87026
21
-4.0157
0
LINE
8
BLACK
6
CONTINUOUS
10
5.87026
20
-4.0157
11
5.87
21
-4.01809
0
LINE
8
BLACK
6
CONTINUOUS
10
5.87
20
-4.01809
11
5.87
21
-4.04
0
LINE
8
BLACK
6
CONTINUOUS
10
5.87
20
-4.04
11
5.89
21
-4.04
0
LINE
8
BLACK
6
CONTINUOUS
10
5.89
20
-4.04
11
5.89
21
-4.02
0
LINE
8
BLACK
6
CONTINUOUS
10
5.89
20
-4.02
11
5.91
21
-4.02
0
LINE
8
BLACK
6
CONTINUOUS
10
5.91
20
-4.02
11
5.91
21
-4
0
LINE
8
BLACK
6
CONTINUOUS
10
5.91
20
-4
11
5.88809
21
-4
0
LINE
8
BLACK
6
CONTINUOUS
10
5.88809
20
-4
11
5.8857
21
-4.00026
0
LINE
8
BLACK
6
CONTINUOUS
10
5.73
20
-4.02
11
5.75
21
-4.02
0
LINE
8
BLACK
6
CONTINUOUS
10
5.75
20
-4.02
11
5.75
21
-4.04
0
LINE
8
BLACK
6
CONTINUOUS
10
5.75
20
-4.04
11
5.77
21
-4.04
0
LINE
8
BLACK
6
CONTINUOUS
10
5.77
20
-4.04
11
5.77
21
-4.01809
0
LINE
8
BLACK
6
CONTINUOUS
10
5.77
20
-4.01809
11
5.77
21
-4.01809
0
LINE
8
BLACK
6
CONTINUOUS
10
5.77
20
-4.01809
11
5.76974
21
-4.0157
0
LINE
8
BLACK
6
CONTINUOUS
10
5.76974
20
-4.0157
11
5.76773
21
-4.01032
0
LINE
8
BLACK
6
CONTINUOUS
10
5.76773
20
-4.01032
11
5.76773
21
-4.01032
0
LINE
8
BLACK
6
CONTINUOUS
10
5.76773
20
-4.01032
11
5.76429
21
-4.00571
0
LINE
8
BLACK
6
CONTINUOUS
10
5.76429
20
-4.00571
11
5.75968
21
-4.00227
0
LINE
8
BLACK
6
CONTINUOUS
10
5.75968
20
-4.00227
11
5.75429
21
-4.00026
0
LINE
8
BLACK
6
CONTINUOUS
10
5.75429
20
-4.00026
11
5.75191
21
-4
0
LINE
8
BLACK
6
CONTINUOUS
10
5.75191
20
-4
11
5.73
21
-4
0
LINE
8
BLACK
6
CONTINUOUS
10
5.73
20
-4
11
5.73
21
-4.02
0
LINE
8
BLACK
6
CONTINUOUS
10
5.6857
20
-4.00026
11
5.68032
21
-4.00227
0
LINE
8
BLACK
6
CONTINUOUS
10
5.68032
20
-4.00227
11
5.68032
21
-4.00227
0
LINE
8
BLACK
6
CONTINUOUS
10
5.68032
20
-4.00227
11
5.67571
21
-4.00571
0
LINE
8
BLACK
6
CONTINUOUS
10
5.67571
20
-4.00571
11
5.67227
21
-4.01032
0
LINE
8
BLACK
6
CONTINUOUS
10
5.67227
20
-4.01032
11
5.67227
21
-4.01032
0
LINE
8
BLACK
6
CONTINUOUS
10
5.67227
20
-4.01032
11
5.67026
21
-4.0157
0
LINE
8
BLACK
6
CONTINUOUS
10
5.67026
20
-4.0157
11
5.67
21
-4.01809
0
LINE
8
BLACK
6
CONTINUOUS
10
5.67
20
-4.01809
11
5.67
21
-4.04
0
LINE
8
BLACK
6
CONTINUOUS
10
5.67
20
-4.04
11
5.69
21
-4.04
0
LINE
8
BLACK
6
CONTINUOUS
10
5.69
20
-4.04
11
5.69
21
-4.02
0
LINE
8
BLACK
6
CONTINUOUS
10
5.69
20
-4.02
11
5.71
21
-4.02
0
LINE
8
BLACK
6
CONTINUOUS
10
5.71
20
-4.02
11
5.71
21
-4
0
LINE
8
BLACK
6
CONTINUOUS
10
5.71
20
-4
11
5.68809
21
-4
0
LINE
8
BLACK
6
CONTINUOUS
10
5.68809
20
-4
11
5.6857
21
-4.00026
0
LINE
8
BLACK
6
CONTINUOUS
10
5.38026
20
-4.71429
11
5.38227
21
-4.71968
0
LINE
8
BLACK
6
CONTINUOUS
10
5.38227
20
-4.71968
11
5.38227
21
-4.71968
0
LINE
8
BLACK
6
CONTINUOUS
10
5.38227
20
-4.71968
11
5.38571
21
-4.72429
0
LINE
8
BLACK
6
CONTINUOUS
10
5.38571
20
-4.72429
11
5.39032
21
-4.72773
0
LINE
8
BLACK
6
CONTINUOUS
10
5.39032
20
-4.72773
11
5.3957
21
-4.72974
0
LINE
8
BLACK
6
CONTINUOUS
10
5.3957
20
-4.72974
11
5.39809
21
-4.73
0
LINE
8
BLACK
6
CONTINUOUS
10
5.39809
20
-4.73
11
5.39809
21
-4.73
0
LINE
8
BLACK
6
CONTINUOUS
10
5.39809
20
-4.73
11
5.42
21
-4.73
0
LINE
8
BLACK
6
CONTINUOUS
10
5.42
20
-4.73
11
5.42
21
-4.71
0
LINE
8
BLACK
6
CONTINUOUS
10
5.42
20
-4.71
11
5.4
21
-4.71
0
LINE
8
BLACK
6
CONTINUOUS
10
5.4
20
-4.71
11
5.4
21
-4.69
0
LINE
8
BLACK
6
CONTINUOUS
10
5.4
20
-4.69
11
5.38
21
-4.69
0
LINE
8
BLACK
6
CONTINUOUS
10
5.38
20
-4.69
11
5.38
21
-4.71191
0
LINE
8
BLACK
6
CONTINUOUS
10
5.38
20
-4.71191
11
5.38026
21
-4.71429
0
LINE
8
BLACK
6
CONTINUOUS
10
5.38026
20
-4.51429
11
5.38227
21
-4.51968
0
LINE
8
BLACK
6
CONTINUOUS
10
5.38227
20
-4.51968
11
5.38227
21
-4.51968
0
LINE
8
BLACK
6
CONTINUOUS
10
5.38227
20
-4.51968
11
5.38571
21
-4.52429
0
LINE
8
BLACK
6
CONTINUOUS
10
5.38571
20
-4.52429
11
5.39032
21
-4.52773
0
LINE
8
BLACK
6
CONTINUOUS
10
5.39032
20
-4.52773
11
5.3957
21
-4.52974
0
LINE
8
BLACK
6
CONTINUOUS
10
5.3957
20
-4.52974
11
5.39809
21
-4.53
0
LINE
8
BLACK
6
CONTINUOUS
10
5.39809
20
-4.53
11
5.39809
21
-4.53
0
LINE
8
BLACK
6
CONTINUOUS
10
5.39809
20
-4.53
11
5.42
21
-4.53
0
LINE
8
BLACK
6
CONTINUOUS
10
5.42
20
-4.53
11
5.42
21
-4.51
0
LINE
8
BLACK
6
CONTINUOUS
10
5.42
20
-4.51
11
5.4
21
-4.51
0
LINE
8
BLACK
6
CONTINUOUS
10
5.4
20
-4.51
11
5.4
21
-4.49
0
LINE
8
BLACK
6
CONTINUOUS
10
5.4
20
-4.49
11
5.38
21
-4.49
0
LINE
8
BLACK
6
CONTINUOUS
10
5.38
20
-4.49
11
5.38
21
-4.51191
0
LINE
8
BLACK
6
CONTINUOUS
10
5.38
20
-4.51191
11
5.38026
21
-4.51429
0
LINE
8
BLACK
6
CONTINUOUS
10
6.38873
20
-4.4007
11
6.3892
21
-4.40182
0
LINE
8
BLACK
6
CONTINUOUS
10
6.3892
20
-4.40182
11
6.39093
21
-4.40601
0
LINE
8
BLACK
6
CONTINUOUS
10
6.39093
20
-4.40601
11
6.39305
21
-4.40877
0
LINE
8
BLACK
6
CONTINUOUS
10
6.39305
20
-4.40877
11
6.39406
21
-4.41138
0
LINE
8
BLACK
6
CONTINUOUS
10
6.39406
20
-4.41138
11
6.39407
21
-4.41179
0
LINE
8
BLACK
6
CONTINUOUS
10
6.39407
20
-4.41179
11
6.39407
21
-4.49252
0
LINE
8
BLACK
6
CONTINUOUS
10
6.39407
20
-4.49252
11
6.39435
21
-4.49336
0
LINE
8
BLACK
6
CONTINUOUS
10
6.39435
20
-4.49336
11
6.39453
21
-4.49411
0
LINE
8
BLACK
6
CONTINUOUS
10
6.39453
20
-4.49411
11
6.39467
21
-4.49498
0
LINE
8
BLACK
6
CONTINUOUS
10
6.39467
20
-4.49498
11
6.39467
21
-4.49498
0
LINE
8
BLACK
6
CONTINUOUS
10
6.39467
20
-4.49498
11
6.39506
21
-4.49577
0
LINE
8
BLACK
6
CONTINUOUS
10
6.39506
20
-4.49577
11
6.39536
21
-4.49648
0
LINE
8
BLACK
6
CONTINUOUS
10
6.39536
20
-4.49648
11
6.39563
21
-4.49732
0
LINE
8
BLACK
6
CONTINUOUS
10
6.39563
20
-4.49732
11
6.39563
21
-4.49732
0
LINE
8
BLACK
6
CONTINUOUS
10
6.39563
20
-4.49732
11
6.39615
21
-4.49803
0
LINE
8
BLACK
6
CONTINUOUS
10
6.39615
20
-4.49803
11
6.39656
21
-4.49869
0
LINE
8
BLACK
6
CONTINUOUS
10
6.39656
20
-4.49869
11
6.39696
21
-4.49948
0
LINE
8
BLACK
6
CONTINUOUS
10
6.39696
20
-4.49948
11
6.39696
21
-4.49948
0
LINE
8
BLACK
6
CONTINUOUS
10
6.39696
20
-4.49948
11
6.39779
21
-4.50031
0
LINE
8
BLACK
6
CONTINUOUS
10
6.39779
20
-4.50031
11
6.39779
21
-4.50031
0
LINE
8
BLACK
6
CONTINUOUS
10
6.39779
20
-4.50031
11
6.39785
21
-4.50037
0
LINE
8
BLACK
6
CONTINUOUS
10
6.39785
20
-4.50037
11
6.39785
21
-4.50037
0
LINE
8
BLACK
6
CONTINUOUS
10
6.39785
20
-4.50037
11
6.42187
21
-4.52439
0
LINE
8
BLACK
6
CONTINUOUS
10
6.42187
20
-4.52439
11
6.42321
21
-4.52684
0
LINE
8
BLACK
6
CONTINUOUS
10
6.42321
20
-4.52684
11
6.42328
21
-4.52725
0
LINE
8
BLACK
6
CONTINUOUS
10
6.42328
20
-4.52725
11
6.42373
21
-4.5307
0
LINE
8
BLACK
6
CONTINUOUS
10
6.42373
20
-4.5307
11
6.42593
21
-4.53601
0
LINE
8
BLACK
6
CONTINUOUS
10
6.42593
20
-4.53601
11
6.42593
21
-4.53601
0
LINE
8
BLACK
6
CONTINUOUS
10
6.42593
20
-4.53601
11
6.42943
21
-4.54057
0
LINE
8
BLACK
6
CONTINUOUS
10
6.42943
20
-4.54057
11
6.43399
21
-4.54407
0
LINE
8
BLACK
6
CONTINUOUS
10
6.43399
20
-4.54407
11
6.43399
21
-4.54407
0
LINE
8
BLACK
6
CONTINUOUS
10
6.43399
20
-4.54407
11
6.4393
21
-4.54627
0
LINE
8
BLACK
6
CONTINUOUS
10
6.4393
20
-4.54627
11
6.44215
21
-4.54664
0
LINE
8
BLACK
6
CONTINUOUS
10
6.44215
20
-4.54664
11
6.445
21
-4.54702
0
LINE
8
BLACK
6
CONTINUOUS
10
6.445
20
-4.54702
11
6.445
21
-4.54702
0
LINE
8
BLACK
6
CONTINUOUS
10
6.445
20
-4.54702
11
6.445
21
-4.54702
0
LINE
8
BLACK
6
CONTINUOUS
10
6.445
20
-4.54702
11
6.4507
21
-4.54627
0
LINE
8
BLACK
6
CONTINUOUS
10
6.4507
20
-4.54627
11
6.45601
21
-4.54407
0
LINE
8
BLACK
6
CONTINUOUS
10
6.45601
20
-4.54407
11
6.46057
21
-4.54057
0
LINE
8
BLACK
6
CONTINUOUS
10
6.46057
20
-4.54057
11
6.46407
21
-4.53601
0
LINE
8
BLACK
6
CONTINUOUS
10
6.46407
20
-4.53601
11
6.46627
21
-4.5307
0
LINE
8
BLACK
6
CONTINUOUS
10
6.46627
20
-4.5307
11
6.46702
21
-4.525
0
LINE
8
BLACK
6
CONTINUOUS
10
6.46702
20
-4.525
11
6.46627
21
-4.5193
0
LINE
8
BLACK
6
CONTINUOUS
10
6.46627
20
-4.5193
11
6.46407
21
-4.51399
0
LINE
8
BLACK
6
CONTINUOUS
10
6.46407
20
-4.51399
11
6.46057
21
-4.50943
0
LINE
8
BLACK
6
CONTINUOUS
10
6.46057
20
-4.50943
11
6.46057
21
-4.50943
0
LINE
8
BLACK
6
CONTINUOUS
10
6.46057
20
-4.50943
11
6.46057
21
-4.50943
0
LINE
8
BLACK
6
CONTINUOUS
10
6.46057
20
-4.50943
11
6.45601
21
-4.50593
0
LINE
8
BLACK
6
CONTINUOUS
10
6.45601
20
-4.50593
11
6.45601
21
-4.50593
0
LINE
8
BLACK
6
CONTINUOUS
10
6.45601
20
-4.50593
11
6.4507
21
-4.50373
0
LINE
8
BLACK
6
CONTINUOUS
10
6.4507
20
-4.50373
11
6.44725
21
-4.50328
0
LINE
8
BLACK
6
CONTINUOUS
10
6.44725
20
-4.50328
11
6.44469
21
-4.50215
0
LINE
8
BLACK
6
CONTINUOUS
10
6.44469
20
-4.50215
11
6.44439
21
-4.50187
0
LINE
8
BLACK
6
CONTINUOUS
10
6.44439
20
-4.50187
11
6.42738
21
-4.48486
0
LINE
8
BLACK
6
CONTINUOUS
10
6.42738
20
-4.48486
11
6.42604
21
-4.4824
0
LINE
8
BLACK
6
CONTINUOUS
10
6.42604
20
-4.4824
11
6.42593
21
-4.48135
0
LINE
8
BLACK
6
CONTINUOUS
10
6.42593
20
-4.48135
11
6.42593
21
-4.41179
0
LINE
8
BLACK
6
CONTINUOUS
10
6.42593
20
-4.41179
11
6.42671
21
-4.40911
0
LINE
8
BLACK
6
CONTINUOUS
10
6.42671
20
-4.40911
11
6.42695
21
-4.40877
0
LINE
8
BLACK
6
CONTINUOUS
10
6.42695
20
-4.40877
11
6.42907
21
-4.40601
0
LINE
8
BLACK
6
CONTINUOUS
10
6.42907
20
-4.40601
11
6.43127
21
-4.4007
0
LINE
8
BLACK
6
CONTINUOUS
10
6.43127
20
-4.4007
11
6.43202
21
-4.395
0
LINE
8
BLACK
6
CONTINUOUS
10
6.43202
20
-4.395
11
6.43127
21
-4.3893
0
LINE
8
BLACK
6
CONTINUOUS
10
6.43127
20
-4.3893
11
6.42907
21
-4.38399
0
LINE
8
BLACK
6
CONTINUOUS
10
6.42907
20
-4.38399
11
6.42557
21
-4.37943
0
LINE
8
BLACK
6
CONTINUOUS
10
6.42557
20
-4.37943
11
6.42557
21
-4.37943
0
LINE
8
BLACK
6
CONTINUOUS
10
6.42557
20
-4.37943
11
6.42557
21
-4.37943
0
LINE
8
BLACK
6
CONTINUOUS
10
6.42557
20
-4.37943
11
6.42101
21
-4.37593
0
LINE
8
BLACK
6
CONTINUOUS
10
6.42101
20
-4.37593
11
6.42101
21
-4.37593
0
LINE
8
BLACK
6
CONTINUOUS
10
6.42101
20
-4.37593
11
6.4157
21
-4.37373
0
LINE
8
BLACK
6
CONTINUOUS
10
6.4157
20
-4.37373
11
6.41
21
-4.37298
0
LINE
8
BLACK
6
CONTINUOUS
10
6.41
20
-4.37298
11
6.4043
21
-4.37373
0
LINE
8
BLACK
6
CONTINUOUS
10
6.4043
20
-4.37373
11
6.40165
21
-4.37483
0
LINE
8
BLACK
6
CONTINUOUS
10
6.40165
20
-4.37483
11
6.39899
21
-4.37593
0
LINE
8
BLACK
6
CONTINUOUS
10
6.39899
20
-4.37593
11
6.39899
21
-4.37593
0
LINE
8
BLACK
6
CONTINUOUS
10
6.39899
20
-4.37593
11
6.39899
21
-4.37593
0
LINE
8
BLACK
6
CONTINUOUS
10
6.39899
20
-4.37593
11
6.39443
21
-4.37943
0
LINE
8
BLACK
6
CONTINUOUS
10
6.39443
20
-4.37943
11
6.39093
21
-4.38399
0
LINE
8
BLACK
6
CONTINUOUS
10
6.39093
20
-4.38399
11
6.39093
21
-4.38399
0
LINE
8
BLACK
6
CONTINUOUS
10
6.39093
20
-4.38399
11
6.39083
21
-4.38423
0
LINE
8
BLACK
6
CONTINUOUS
10
6.39083
20
-4.38423
11
6.38873
21
-4.3893
0
LINE
8
BLACK
6
CONTINUOUS
10
6.38873
20
-4.3893
11
6.38798
21
-4.395
0
LINE
8
BLACK
6
CONTINUOUS
10
6.38798
20
-4.395
11
6.38798
21
-4.395
0
LINE
8
BLACK
6
CONTINUOUS
10
6.38798
20
-4.395
11
6.38873
21
-4.4007
0
LINE
8
BLACK
6
CONTINUOUS
10
5.40944
20
-4.33641
11
5.41164
21
-4.34172
0
LINE
8
BLACK
6
CONTINUOUS
10
5.41164
20
-4.34172
11
5.41164
21
-4.34172
0
LINE
8
BLACK
6
CONTINUOUS
10
5.41164
20
-4.34172
11
5.41514
21
-4.34628
0
LINE
8
BLACK
6
CONTINUOUS
10
5.41514
20
-4.34628
11
5.4197
21
-4.34978
0
LINE
8
BLACK
6
CONTINUOUS
10
5.4197
20
-4.34978
11
5.4197
21
-4.34978
0
LINE
8
BLACK
6
CONTINUOUS
10
5.4197
20
-4.34978
11
5.42218
21
-4.35081
0
LINE
8
BLACK
6
CONTINUOUS
10
5.42218
20
-4.35081
11
5.42379
21
-4.35188
0
LINE
8
BLACK
6
CONTINUOUS
10
5.42379
20
-4.35188
11
5.4262
21
-4.35429
0
LINE
8
BLACK
6
CONTINUOUS
10
5.4262
20
-4.35429
11
5.42686
21
-4.35511
0
LINE
8
BLACK
6
CONTINUOUS
10
5.42686
20
-4.35511
11
5.42696
21
-4.35527
0
LINE
8
BLACK
6
CONTINUOUS
10
5.42696
20
-4.35527
11
5.42731
21
-4.35557
0
LINE
8
BLACK
6
CONTINUOUS
10
5.42731
20
-4.35557
11
5.42852
21
-4.35662
0
LINE
8
BLACK
6
CONTINUOUS
10
5.42852
20
-4.35662
11
5.42865
21
-4.35674
0
LINE
8
BLACK
6
CONTINUOUS
10
5.42865
20
-4.35674
11
5.42909
21
-4.35718
0
LINE
8
BLACK
6
CONTINUOUS
10
5.42909
20
-4.35718
11
5.42959
21
-4.35755
0
LINE
8
BLACK
6
CONTINUOUS
10
5.42959
20
-4.35755
11
5.42973
21
-4.35766
0
LINE
8
BLACK
6
CONTINUOUS
10
5.42973
20
-4.35766
11
5.43128
21
-4.35901
0
LINE
8
BLACK
6
CONTINUOUS
10
5.43128
20
-4.35901
11
5.43145
21
-4.35909
0
LINE
8
BLACK
6
CONTINUOUS
10
5.43145
20
-4.35909
11
5.43236
21
-4.35963
0
LINE
8
BLACK
6
CONTINUOUS
10
5.43236
20
-4.35963
11
5.43251
21
-4.35974
0
LINE
8
BLACK
6
CONTINUOUS
10
5.43251
20
-4.35974
11
5.4335
21
-4.36011
0
LINE
8
BLACK
6
CONTINUOUS
10
5.4335
20
-4.36011
11
5.43444
21
-4.36046
0
LINE
8
BLACK
6
CONTINUOUS
10
5.43444
20
-4.36046
11
5.4346
21
-4.36053
0
LINE
8
BLACK
6
CONTINUOUS
10
5.4346
20
-4.36053
11
5.43623
21
-4.36127
0
LINE
8
BLACK
6
CONTINUOUS
10
5.43623
20
-4.36127
11
5.43648
21
-4.36138
0
LINE
8
BLACK
6
CONTINUOUS
10
5.43648
20
-4.36138
11
5.43666
21
-4.36141
0
LINE
8
BLACK
6
CONTINUOUS
10
5.43666
20
-4.36141
11
5.43769
21
-4.36167
0
LINE
8
BLACK
6
CONTINUOUS
10
5.43769
20
-4.36167
11
5.43786
21
-4.36174
0
LINE
8
BLACK
6
CONTINUOUS
10
5.43786
20
-4.36174
11
5.43992
21
-4.36188
0
LINE
8
BLACK
6
CONTINUOUS
10
5.43992
20
-4.36188
11
5.44009
21
-4.3619
0
LINE
8
BLACK
6
CONTINUOUS
10
5.44009
20
-4.3619
11
5.44047
21
-4.36196
0
LINE
8
BLACK
6
CONTINUOUS
10
5.44047
20
-4.36196
11
5.44071
21
-4.36199
0
LINE
8
BLACK
6
CONTINUOUS
10
5.44071
20
-4.36199
11
5.44071
21
-4.36199
0
LINE
8
BLACK
6
CONTINUOUS
10
5.44071
20
-4.36199
11
5.44133
21
-4.36199
0
LINE
8
BLACK
6
CONTINUOUS
10
5.44133
20
-4.36199
11
5.44151
21
-4.362
0
LINE
8
BLACK
6
CONTINUOUS
10
5.44151
20
-4.362
11
5.44223
21
-4.36205
0
LINE
8
BLACK
6
CONTINUOUS
10
5.44223
20
-4.36205
11
5.44356
21
-4.36214
0
LINE
8
BLACK
6
CONTINUOUS
10
5.44356
20
-4.36214
11
5.44374
21
-4.36211
0
LINE
8
BLACK
6
CONTINUOUS
10
5.44374
20
-4.36211
11
5.4448
21
-4.36199
0
LINE
8
BLACK
6
CONTINUOUS
10
5.4448
20
-4.36199
11
6.30429
21
-4.36199
0
LINE
8
BLACK
6
CONTINUOUS
10
6.30429
20
-4.36199
11
6.32145
21
-4.36199
0
LINE
8
BLACK
6
CONTINUOUS
10
6.32145
20
-4.36199
11
6.5052
21
-4.36199
0
LINE
8
BLACK
6
CONTINUOUS
10
6.5052
20
-4.36199
11
6.50626
21
-4.36211
0
LINE
8
BLACK
6
CONTINUOUS
10
6.50626
20
-4.36211
11
6.50644
21
-4.36214
0
LINE
8
BLACK
6
CONTINUOUS
10
6.50644
20
-4.36214
11
6.5078
21
-4.36205
0
LINE
8
BLACK
6
CONTINUOUS
10
6.5078
20
-4.36205
11
6.50849
21
-4.362
0
LINE
8
BLACK
6
CONTINUOUS
10
6.50849
20
-4.362
11
6.50867
21
-4.36199
0
LINE
8
BLACK
6
CONTINUOUS
10
6.50867
20
-4.36199
11
6.50963
21
-4.36199
0
LINE
8
BLACK
6
CONTINUOUS
10
6.50963
20
-4.36199
11
6.50995
21
-4.36201
0
LINE
8
BLACK
6
CONTINUOUS
10
6.50995
20
-4.36201
11
6.51
21
-4.36202
0
LINE
8
BLACK
6
CONTINUOUS
10
6.51
20
-4.36202
11
6.51
21
-4.36202
0
LINE
8
BLACK
6
CONTINUOUS
10
6.51
20
-4.36202
11
6.51
21
-4.36202
0
LINE
8
BLACK
6
CONTINUOUS
10
6.51
20
-4.36202
11
6.5157
21
-4.36127
0
LINE
8
BLACK
6
CONTINUOUS
10
6.5157
20
-4.36127
11
6.52101
21
-4.35907
0
LINE
8
BLACK
6
CONTINUOUS
10
6.52101
20
-4.35907
11
6.52377
21
-4.35695
0
LINE
8
BLACK
6
CONTINUOUS
10
6.52377
20
-4.35695
11
6.52638
21
-4.35594
0
LINE
8
BLACK
6
CONTINUOUS
10
6.52638
20
-4.35594
11
6.52679
21
-4.35593
0
LINE
8
BLACK
6
CONTINUOUS
10
6.52679
20
-4.35593
11
6.54635
21
-4.35593
0
LINE
8
BLACK
6
CONTINUOUS
10
6.54635
20
-4.35593
11
6.54903
21
-4.35671
0
LINE
8
BLACK
6
CONTINUOUS
10
6.54903
20
-4.35671
11
6.54986
21
-4.35738
0
LINE
8
BLACK
6
CONTINUOUS
10
6.54986
20
-4.35738
11
6.55762
21
-4.36514
0
LINE
8
BLACK
6
CONTINUOUS
10
6.55762
20
-4.36514
11
6.55896
21
-4.3676
0
LINE
8
BLACK
6
CONTINUOUS
10
6.55896
20
-4.3676
11
6.55907
21
-4.36865
0
LINE
8
BLACK
6
CONTINUOUS
10
6.55907
20
-4.36865
11
6.55907
21
-4.52821
0
LINE
8
BLACK
6
CONTINUOUS
10
6.55907
20
-4.52821
11
6.55829
21
-4.53089
0
LINE
8
BLACK
6
CONTINUOUS
10
6.55829
20
-4.53089
11
6.55805
21
-4.53123
0
LINE
8
BLACK
6
CONTINUOUS
10
6.55805
20
-4.53123
11
6.55593
21
-4.53399
0
LINE
8
BLACK
6
CONTINUOUS
10
6.55593
20
-4.53399
11
6.55593
21
-4.53399
0
LINE
8
BLACK
6
CONTINUOUS
10
6.55593
20
-4.53399
11
6.55593
21
-4.53399
0
LINE
8
BLACK
6
CONTINUOUS
10
6.55593
20
-4.53399
11
6.55516
21
-4.53585
0
LINE
8
BLACK
6
CONTINUOUS
10
6.55516
20
-4.53585
11
6.55373
21
-4.5393
0
LINE
8
BLACK
6
CONTINUOUS
10
6.55373
20
-4.5393
11
6.55298
21
-4.545
0
LINE
8
BLACK
6
CONTINUOUS
10
6.55298
20
-4.545
11
6.55298
21
-4.545
0
LINE
8
BLACK
6
CONTINUOUS
10
6.55298
20
-4.545
11
6.55373
21
-4.5507
0
LINE
8
BLACK
6
CONTINUOUS
10
6.55373
20
-4.5507
11
6.55593
21
-4.55601
0
LINE
8
BLACK
6
CONTINUOUS
10
6.55593
20
-4.55601
11
6.55593
21
-4.55601
0
LINE
8
BLACK
6
CONTINUOUS
10
6.55593
20
-4.55601
11
6.55943
21
-4.56057
0
LINE
8
BLACK
6
CONTINUOUS
10
6.55943
20
-4.56057
11
6.56399
21
-4.56407
0
LINE
8
BLACK
6
CONTINUOUS
10
6.56399
20
-4.56407
11
6.56399
21
-4.56407
0
LINE
8
BLACK
6
CONTINUOUS
10
6.56399
20
-4.56407
11
6.5693
21
-4.56627
0
LINE
8
BLACK
6
CONTINUOUS
10
6.5693
20
-4.56627
11
6.57133
21
-4.56654
0
LINE
8
BLACK
6
CONTINUOUS
10
6.57133
20
-4.56654
11
6.575
21
-4.56702
0
LINE
8
BLACK
6
CONTINUOUS
10
6.575
20
-4.56702
11
6.575
21
-4.56702
0
LINE
8
BLACK
6
CONTINUOUS
10
6.575
20
-4.56702
11
6.575
21
-4.56702
0
LINE
8
BLACK
6
CONTINUOUS
10
6.575
20
-4.56702
11
6.5807
21
-4.56627
0
LINE
8
BLACK
6
CONTINUOUS
10
6.5807
20
-4.56627
11
6.58601
21
-4.56407
0
LINE
8
BLACK
6
CONTINUOUS
10
6.58601
20
-4.56407
11
6.59057
21
-4.56057
0
LINE
8
BLACK
6
CONTINUOUS
10
6.59057
20
-4.56057
11
6.59407
21
-4.55601
0
LINE
8
BLACK
6
CONTINUOUS
10
6.59407
20
-4.55601
11
6.59627
21
-4.5507
0
LINE
8
BLACK
6
CONTINUOUS
10
6.59627
20
-4.5507
11
6.59702
21
-4.545
0
LINE
8
BLACK
6
CONTINUOUS
10
6.59702
20
-4.545
11
6.5969
21
-4.54407
0
LINE
8
BLACK
6
CONTINUOUS
10
6.5969
20
-4.54407
11
6.59636
21
-4.53998
0
LINE
8
BLACK
6
CONTINUOUS
10
6.59636
20
-4.53998
11
6.59627
21
-4.5393
0
LINE
8
BLACK
6
CONTINUOUS
10
6.59627
20
-4.5393
11
6.59407
21
-4.53399
0
LINE
8
BLACK
6
CONTINUOUS
10
6.59407
20
-4.53399
11
6.59407
21
-4.53399
0
LINE
8
BLACK
6
CONTINUOUS
10
6.59407
20
-4.53399
11
6.59195
21
-4.53123
0
LINE
8
BLACK
6
CONTINUOUS
10
6.59195
20
-4.53123
11
6.59094
21
-4.52862
0
LINE
8
BLACK
6
CONTINUOUS
10
6.59094
20
-4.52862
11
6.59093
21
-4.52821
0
LINE
8
BLACK
6
CONTINUOUS
10
6.59093
20
-4.52821
11
6.59093
21
-4.35865
0
LINE
8
BLACK
6
CONTINUOUS
10
6.59093
20
-4.35865
11
6.59093
21
-4.35865
0
LINE
8
BLACK
6
CONTINUOUS
10
6.59093
20
-4.35865
11
6.59093
21
-4.35748
0
LINE
8
BLACK
6
CONTINUOUS
10
6.59093
20
-4.35748
11
6.59065
21
-4.35664
0
LINE
8
BLACK
6
CONTINUOUS
10
6.59065
20
-4.35664
11
6.59047
21
-4.35589
0
LINE
8
BLACK
6
CONTINUOUS
10
6.59047
20
-4.35589
11
6.59033
21
-4.35502
0
LINE
8
BLACK
6
CONTINUOUS
10
6.59033
20
-4.35502
11
6.58994
21
-4.35423
0
LINE
8
BLACK
6
CONTINUOUS
10
6.58994
20
-4.35423
11
6.58964
21
-4.35352
0
LINE
8
BLACK
6
CONTINUOUS
10
6.58964
20
-4.35352
11
6.58937
21
-4.35268
0
LINE
8
BLACK
6
CONTINUOUS
10
6.58937
20
-4.35268
11
6.58885
21
-4.35197
0
LINE
8
BLACK
6
CONTINUOUS
10
6.58885
20
-4.35197
11
6.58844
21
-4.35131
0
LINE
8
BLACK
6
CONTINUOUS
10
6.58844
20
-4.35131
11
6.58804
21
-4.35052
0
LINE
8
BLACK
6
CONTINUOUS
10
6.58804
20
-4.35052
11
6.587
21
-4.34948
0
LINE
8
BLACK
6
CONTINUOUS
10
6.587
20
-4.34948
11
6.58448
21
-4.34696
0
LINE
8
BLACK
6
CONTINUOUS
10
6.58448
20
-4.34696
11
6.56537
21
-4.32785
0
LINE
8
BLACK
6
CONTINUOUS
10
6.56537
20
-4.32785
11
6.56537
21
-4.32785
0
LINE
8
BLACK
6
CONTINUOUS
10
6.56537
20
-4.32785
11
6.56531
21
-4.32779
0
LINE
8
BLACK
6
CONTINUOUS
10
6.56531
20
-4.32779
11
6.56531
21
-4.32779
0
LINE
8
BLACK
6
CONTINUOUS
10
6.56531
20
-4.32779
11
6.56448
21
-4.32696
0
LINE
8
BLACK
6
CONTINUOUS
10
6.56448
20
-4.32696
11
6.56448
21
-4.32696
0
LINE
8
BLACK
6
CONTINUOUS
10
6.56448
20
-4.32696
11
6.56448
21
-4.32696
0
LINE
8
BLACK
6
CONTINUOUS
10
6.56448
20
-4.32696
11
6.56369
21
-4.32656
0
LINE
8
BLACK
6
CONTINUOUS
10
6.56369
20
-4.32656
11
6.56303
21
-4.32615
0
LINE
8
BLACK
6
CONTINUOUS
10
6.56303
20
-4.32615
11
6.56232
21
-4.32563
0
LINE
8
BLACK
6
CONTINUOUS
10
6.56232
20
-4.32563
11
6.56232
21
-4.32563
0
LINE
8
BLACK
6
CONTINUOUS
10
6.56232
20
-4.32563
11
6.56148
21
-4.32536
0
LINE
8
BLACK
6
CONTINUOUS
10
6.56148
20
-4.32536
11
6.56077
21
-4.32506
0
LINE
8
BLACK
6
CONTINUOUS
10
6.56077
20
-4.32506
11
6.55998
21
-4.32467
0
LINE
8
BLACK
6
CONTINUOUS
10
6.55998
20
-4.32467
11
6.55911
21
-4.32453
0
LINE
8
BLACK
6
CONTINUOUS
10
6.55911
20
-4.32453
11
6.55836
21
-4.32435
0
LINE
8
BLACK
6
CONTINUOUS
10
6.55836
20
-4.32435
11
6.55752
21
-4.32407
0
LINE
8
BLACK
6
CONTINUOUS
10
6.55752
20
-4.32407
11
6.55752
21
-4.32407
0
LINE
8
BLACK
6
CONTINUOUS
10
6.55752
20
-4.32407
11
6.55625
21
-4.32407
0
LINE
8
BLACK
6
CONTINUOUS
10
6.55625
20
-4.32407
11
6.52679
21
-4.32407
0
LINE
8
BLACK
6
CONTINUOUS
10
6.52679
20
-4.32407
11
6.52411
21
-4.32329
0
LINE
8
BLACK
6
CONTINUOUS
10
6.52411
20
-4.32329
11
6.52377
21
-4.32305
0
LINE
8
BLACK
6
CONTINUOUS
10
6.52377
20
-4.32305
11
6.52101
21
-4.32093
0
LINE
8
BLACK
6
CONTINUOUS
10
6.52101
20
-4.32093
11
6.51884
21
-4.32003
0
LINE
8
BLACK
6
CONTINUOUS
10
6.51884
20
-4.32003
11
6.5157
21
-4.31873
0
LINE
8
BLACK
6
CONTINUOUS
10
6.5157
20
-4.31873
11
6.51
21
-4.31798
0
LINE
8
BLACK
6
CONTINUOUS
10
6.51
20
-4.31798
11
6.5043
21
-4.31873
0
LINE
8
BLACK
6
CONTINUOUS
10
6.5043
20
-4.31873
11
6.50196
21
-4.3197
0
LINE
8
BLACK
6
CONTINUOUS
10
6.50196
20
-4.3197
11
6.49899
21
-4.32093
0
LINE
8
BLACK
6
CONTINUOUS
10
6.49899
20
-4.32093
11
6.49899
21
-4.32093
0
LINE
8
BLACK
6
CONTINUOUS
10
6.49899
20
-4.32093
11
6.49899
21
-4.32093
0
LINE
8
BLACK
6
CONTINUOUS
10
6.49899
20
-4.32093
11
6.49899
21
-4.32093
0
LINE
8
BLACK
6
CONTINUOUS
10
6.49899
20
-4.32093
11
6.49858
21
-4.32124
0
LINE
8
BLACK
6
CONTINUOUS
10
6.49858
20
-4.32124
11
6.49598
21
-4.32225
0
LINE
8
BLACK
6
CONTINUOUS
10
6.49598
20
-4.32225
11
6.49556
21
-4.32227
0
LINE
8
BLACK
6
CONTINUOUS
10
6.49556
20
-4.32227
11
6.38614
21
-4.32227
0
LINE
8
BLACK
6
CONTINUOUS
10
6.38614
20
-4.32227
11
6.38346
21
-4.32148
0
LINE
8
BLACK
6
CONTINUOUS
10
6.38346
20
-4.32148
11
6.38163
21
-4.31937
0
LINE
8
BLACK
6
CONTINUOUS
10
6.38163
20
-4.31937
11
6.38124
21
-4.31666
0
LINE
8
BLACK
6
CONTINUOUS
10
6.38124
20
-4.31666
11
6.38123
21
-4.31665
0
LINE
8
BLACK
6
CONTINUOUS
10
6.38123
20
-4.31665
11
6.38123
21
-4.3166
0
LINE
8
BLACK
6
CONTINUOUS
10
6.38123
20
-4.3166
11
6.38123
21
-4.3166
0
LINE
8
BLACK
6
CONTINUOUS
10
6.38123
20
-4.3166
11
6.38123
21
-4.3166
0
LINE
8
BLACK
6
CONTINUOUS
10
6.38123
20
-4.3166
11
6.38127
21
-4.31633
0
LINE
8
BLACK
6
CONTINUOUS
10
6.38127
20
-4.31633
11
6.38127
21
-4.31633
0
LINE
8
BLACK
6
CONTINUOUS
10
6.38127
20
-4.31633
11
6.38202
21
-4.31063
0
LINE
8
BLACK
6
CONTINUOUS
10
6.38202
20
-4.31063
11
6.38127
21
-4.30493
0
LINE
8
BLACK
6
CONTINUOUS
10
6.38127
20
-4.30493
11
6.37907
21
-4.29962
0
LINE
8
BLACK
6
CONTINUOUS
10
6.37907
20
-4.29962
11
6.37557
21
-4.29506
0
LINE
8
BLACK
6
CONTINUOUS
10
6.37557
20
-4.29506
11
6.37557
21
-4.29506
0
LINE
8
BLACK
6
CONTINUOUS
10
6.37557
20
-4.29506
11
6.37557
21
-4.29506
0
LINE
8
BLACK
6
CONTINUOUS
10
6.37557
20
-4.29506
11
6.37101
21
-4.29156
0
LINE
8
BLACK
6
CONTINUOUS
10
6.37101
20
-4.29156
11
6.37101
21
-4.29156
0
LINE
8
BLACK
6
CONTINUOUS
10
6.37101
20
-4.29156
11
6.3657
21
-4.28936
0
LINE
8
BLACK
6
CONTINUOUS
10
6.3657
20
-4.28936
11
6.36
21
-4.28861
0
LINE
8
BLACK
6
CONTINUOUS
10
6.36
20
-4.28861
11
6.3543
21
-4.28936
0
LINE
8
BLACK
6
CONTINUOUS
10
6.3543
20
-4.28936
11
6.35354
21
-4.28968
0
LINE
8
BLACK
6
CONTINUOUS
10
6.35354
20
-4.28968
11
6.35164
21
-4.29006
0
LINE
8
BLACK
6
CONTINUOUS
10
6.35164
20
-4.29006
11
6.30824
21
-4.29006
0
LINE
8
BLACK
6
CONTINUOUS
10
6.30824
20
-4.29006
11
6.30556
21
-4.28927
0
LINE
8
BLACK
6
CONTINUOUS
10
6.30556
20
-4.28927
11
6.30474
21
-4.28861
0
LINE
8
BLACK
6
CONTINUOUS
10
6.30474
20
-4.28861
11
6.21462
21
-4.19849
0
LINE
8
BLACK
6
CONTINUOUS
10
6.21462
20
-4.19849
11
6.21328
21
-4.19603
0
LINE
8
BLACK
6
CONTINUOUS
10
6.21328
20
-4.19603
11
6.21348
21
-4.19325
0
LINE
8
BLACK
6
CONTINUOUS
10
6.21348
20
-4.19325
11
6.21515
21
-4.19101
0
LINE
8
BLACK
6
CONTINUOUS
10
6.21515
20
-4.19101
11
6.21777
21
-4.19003
0
LINE
8
BLACK
6
CONTINUOUS
10
6.21777
20
-4.19003
11
6.21812
21
-4.19002
0
LINE
8
BLACK
6
CONTINUOUS
10
6.21812
20
-4.19002
11
6.27099
21
-4.19002
0
LINE
8
BLACK
6
CONTINUOUS
10
6.27099
20
-4.19002
11
6.27099
21
-4.19002
0
LINE
8
BLACK
6
CONTINUOUS
10
6.27099
20
-4.19002
11
6.27099
21
-4.19002
0
LINE
8
BLACK
6
CONTINUOUS
10
6.27099
20
-4.19002
11
6.27293
21
-4.18963
0
LINE
8
BLACK
6
CONTINUOUS
10
6.27293
20
-4.18963
11
6.27391
21
-4.18944
0
LINE
8
BLACK
6
CONTINUOUS
10
6.27391
20
-4.18944
11
6.27722
21
-4.18722
0
LINE
8
BLACK
6
CONTINUOUS
10
6.27722
20
-4.18722
11
6.27944
21
-4.18391
0
LINE
8
BLACK
6
CONTINUOUS
10
6.27944
20
-4.18391
11
6.28002
21
-4.18099
0
LINE
8
BLACK
6
CONTINUOUS
10
6.28002
20
-4.18099
11
6.28002
21
-4.18099
0
LINE
8
BLACK
6
CONTINUOUS
10
6.28002
20
-4.18099
11
6.28002
21
-4.11901
0
LINE
8
BLACK
6
CONTINUOUS
10
6.28002
20
-4.11901
11
6.28002
21
-4.11901
0
LINE
8
BLACK
6
CONTINUOUS
10
6.28002
20
-4.11901
11
6.28002
21
-4.11901
0
LINE
8
BLACK
6
CONTINUOUS
10
6.28002
20
-4.11901
11
6.27944
21
-4.11609
0
LINE
8
BLACK
6
CONTINUOUS
10
6.27944
20
-4.11609
11
6.27722
21
-4.11278
0
LINE
8
BLACK
6
CONTINUOUS
10
6.27722
20
-4.11278
11
6.27391
21
-4.11056
0
LINE
8
BLACK
6
CONTINUOUS
10
6.27391
20
-4.11056
11
6.27099
21
-4.10998
0
LINE
8
BLACK
6
CONTINUOUS
10
6.27099
20
-4.10998
11
6.20901
21
-4.10998
0
LINE
8
BLACK
6
CONTINUOUS
10
6.20901
20
-4.10998
11
6.20901
21
-4.10998
0
LINE
8
BLACK
6
CONTINUOUS
10
6.20901
20
-4.10998
11
6.20609
21
-4.11056
0
LINE
8
BLACK
6
CONTINUOUS
10
6.20609
20
-4.11056
11
6.20278
21
-4.11278
0
LINE
8
BLACK
6
CONTINUOUS
10
6.20278
20
-4.11278
11
6.20056
21
-4.11609
0
LINE
8
BLACK
6
CONTINUOUS
10
6.20056
20
-4.11609
11
6.19998
21
-4.11901
0
LINE
8
BLACK
6
CONTINUOUS
10
6.19998
20
-4.11901
11
6.19998
21
-4.17187
0
LINE
8
BLACK
6
CONTINUOUS
10
6.19998
20
-4.17187
11
6.19919
21
-4.17456
0
LINE
8
BLACK
6
CONTINUOUS
10
6.19919
20
-4.17456
11
6.19708
21
-4.17639
0
LINE
8
BLACK
6
CONTINUOUS
10
6.19708
20
-4.17639
11
6.19431
21
-4.17678
0
LINE
8
BLACK
6
CONTINUOUS
10
6.19431
20
-4.17678
11
6.19177
21
-4.17562
0
LINE
8
BLACK
6
CONTINUOUS
10
6.19177
20
-4.17562
11
6.19151
21
-4.17538
0
LINE
8
BLACK
6
CONTINUOUS
10
6.19151
20
-4.17538
11
6.18108
21
-4.16495
0
LINE
8
BLACK
6
CONTINUOUS
10
6.18108
20
-4.16495
11
6.17974
21
-4.1625
0
LINE
8
BLACK
6
CONTINUOUS
10
6.17974
20
-4.1625
11
6.17963
21
-4.16144
0
LINE
8
BLACK
6
CONTINUOUS
10
6.17963
20
-4.16144
11
6.17963
21
-4.11901
0
LINE
8
BLACK
6
CONTINUOUS
10
6.17963
20
-4.11901
11
6.17963
21
-4.11901
0
LINE
8
BLACK
6
CONTINUOUS
10
6.17963
20
-4.11901
11
6.17904
21
-4.11609
0
LINE
8
BLACK
6
CONTINUOUS
10
6.17904
20
-4.11609
11
6.17683
21
-4.11278
0
LINE
8
BLACK
6
CONTINUOUS
10
6.17683
20
-4.11278
11
6.17352
21
-4.11056
0
LINE
8
BLACK
6
CONTINUOUS
10
6.17352
20
-4.11056
11
6.17059
21
-4.10998
0
LINE
8
BLACK
6
CONTINUOUS
10
6.17059
20
-4.10998
11
6.10862
21
-4.10998
0
LINE
8
BLACK
6
CONTINUOUS
10
6.10862
20
-4.10998
11
6.10862
21
-4.10998
0
LINE
8
BLACK
6
CONTINUOUS
10
6.10862
20
-4.10998
11
6.1057
21
-4.11056
0
LINE
8
BLACK
6
CONTINUOUS
10
6.1057
20
-4.11056
11
6.10238
21
-4.11278
0
LINE
8
BLACK
6
CONTINUOUS
10
6.10238
20
-4.11278
11
6.10017
21
-4.11609
0
LINE
8
BLACK
6
CONTINUOUS
10
6.10017
20
-4.11609
11
6.09959
21
-4.11901
0
LINE
8
BLACK
6
CONTINUOUS
10
6.09959
20
-4.11901
11
6.09959
21
-4.18099
0
LINE
8
BLACK
6
CONTINUOUS
10
6.09959
20
-4.18099
11
6.09959
21
-4.18099
0
LINE
8
BLACK
6
CONTINUOUS
10
6.09959
20
-4.18099
11
6.10017
21
-4.18391
0
LINE
8
BLACK
6
CONTINUOUS
10
6.10017
20
-4.18391
11
6.10238
21
-4.18722
0
LINE
8
BLACK
6
CONTINUOUS
10
6.10238
20
-4.18722
11
6.1057
21
-4.18944
0
LINE
8
BLACK
6
CONTINUOUS
10
6.1057
20
-4.18944
11
6.1057
21
-4.18944
0
LINE
8
BLACK
6
CONTINUOUS
10
6.1057
20
-4.18944
11
6.10862
21
-4.19002
0
LINE
8
BLACK
6
CONTINUOUS
10
6.10862
20
-4.19002
11
6.16184
21
-4.19002
0
LINE
8
BLACK
6
CONTINUOUS
10
6.16184
20
-4.19002
11
6.16452
21
-4.19081
0
LINE
8
BLACK
6
CONTINUOUS
10
6.16452
20
-4.19081
11
6.16534
21
-4.19147
0
LINE
8
BLACK
6
CONTINUOUS
10
6.16534
20
-4.19147
11
6.28767
21
-4.3138
0
LINE
8
BLACK
6
CONTINUOUS
10
6.28767
20
-4.3138
11
6.28901
21
-4.31625
0
LINE
8
BLACK
6
CONTINUOUS
10
6.28901
20
-4.31625
11
6.28881
21
-4.31904
0
LINE
8
BLACK
6
CONTINUOUS
10
6.28881
20
-4.31904
11
6.28713
21
-4.32128
0
LINE
8
BLACK
6
CONTINUOUS
10
6.28713
20
-4.32128
11
6.28452
21
-4.32225
0
LINE
8
BLACK
6
CONTINUOUS
10
6.28452
20
-4.32225
11
6.28416
21
-4.32227
0
LINE
8
BLACK
6
CONTINUOUS
10
6.28416
20
-4.32227
11
5.45412
21
-4.32227
0
LINE
8
BLACK
6
CONTINUOUS
10
5.45412
20
-4.32227
11
5.45144
21
-4.32148
0
LINE
8
BLACK
6
CONTINUOUS
10
5.45144
20
-4.32148
11
5.44998
21
-4.31995
0
LINE
8
BLACK
6
CONTINUOUS
10
5.44998
20
-4.31995
11
5.44998
21
-4.31996
0
LINE
8
BLACK
6
CONTINUOUS
10
5.44998
20
-4.31996
11
5.44991
21
-4.31988
0
LINE
8
BLACK
6
CONTINUOUS
10
5.44991
20
-4.31988
11
5.44983
21
-4.31979
0
LINE
8
BLACK
6
CONTINUOUS
10
5.44983
20
-4.31979
11
5.44978
21
-4.3197
0
LINE
8
BLACK
6
CONTINUOUS
10
5.44978
20
-4.3197
11
5.44978
21
-4.3197
0
LINE
8
BLACK
6
CONTINUOUS
10
5.44978
20
-4.3197
11
5.44978
21
-4.3197
0
LINE
8
BLACK
6
CONTINUOUS
10
5.44978
20
-4.3197
11
5.44628
21
-4.31514
0
LINE
8
BLACK
6
CONTINUOUS
10
5.44628
20
-4.31514
11
5.44628
21
-4.31514
0
LINE
8
BLACK
6
CONTINUOUS
10
5.44628
20
-4.31514
11
5.44628
21
-4.31514
0
LINE
8
BLACK
6
CONTINUOUS
10
5.44628
20
-4.31514
11
5.44172
21
-4.31164
0
LINE
8
BLACK
6
CONTINUOUS
10
5.44172
20
-4.31164
11
5.44172
21
-4.31164
0
LINE
8
BLACK
6
CONTINUOUS
10
5.44172
20
-4.31164
11
5.43641
21
-4.30944
0
LINE
8
BLACK
6
CONTINUOUS
10
5.43641
20
-4.30944
11
5.43071
21
-4.30869
0
LINE
8
BLACK
6
CONTINUOUS
10
5.43071
20
-4.30869
11
5.42501
21
-4.30944
0
LINE
8
BLACK
6
CONTINUOUS
10
5.42501
20
-4.30944
11
5.42235
21
-4.31054
0
LINE
8
BLACK
6
CONTINUOUS
10
5.42235
20
-4.31054
11
5.4197
21
-4.31164
0
LINE
8
BLACK
6
CONTINUOUS
10
5.4197
20
-4.31164
11
5.4197
21
-4.31164
0
LINE
8
BLACK
6
CONTINUOUS
10
5.4197
20
-4.31164
11
5.4197
21
-4.31164
0
LINE
8
BLACK
6
CONTINUOUS
10
5.4197
20
-4.31164
11
5.41514
21
-4.31514
0
LINE
8
BLACK
6
CONTINUOUS
10
5.41514
20
-4.31514
11
5.41164
21
-4.3197
0
LINE
8
BLACK
6
CONTINUOUS
10
5.41164
20
-4.3197
11
5.41164
21
-4.3197
0
LINE
8
BLACK
6
CONTINUOUS
10
5.41164
20
-4.3197
11
5.4109
21
-4.32148
0
LINE
8
BLACK
6
CONTINUOUS
10
5.4109
20
-4.32148
11
5.40944
21
-4.32501
0
LINE
8
BLACK
6
CONTINUOUS
10
5.40944
20
-4.32501
11
5.40869
21
-4.33071
0
LINE
8
BLACK
6
CONTINUOUS
10
5.40869
20
-4.33071
11
5.40869
21
-4.33071
0
LINE
8
BLACK
6
CONTINUOUS
10
5.40869
20
-4.33071
11
5.40944
21
-4.33641
0
LINE
8
BLACK
6
CONTINUOUS
10
5.87026
20
-4.18429
11
5.87227
21
-4.18968
0
LINE
8
BLACK
6
CONTINUOUS
10
5.87227
20
-4.18968
11
5.87227
21
-4.18968
0
LINE
8
BLACK
6
CONTINUOUS
10
5.87227
20
-4.18968
11
5.87571
21
-4.19429
0
LINE
8
BLACK
6
CONTINUOUS
10
5.87571
20
-4.19429
11
5.88032
21
-4.19773
0
LINE
8
BLACK
6
CONTINUOUS
10
5.88032
20
-4.19773
11
5.8857
21
-4.19974
0
LINE
8
BLACK
6
CONTINUOUS
10
5.8857
20
-4.19974
11
5.88809
21
-4.2
0
LINE
8
BLACK
6
CONTINUOUS
10
5.88809
20
-4.2
11
5.88809
21
-4.2
0
LINE
8
BLACK
6
CONTINUOUS
10
5.88809
20
-4.2
11
5.91
21
-4.2
0
LINE
8
BLACK
6
CONTINUOUS
10
5.91
20
-4.2
11
5.91
21
-4.18
0
LINE
8
BLACK
6
CONTINUOUS
10
5.91
20
-4.18
11
5.89
21
-4.18
0
LINE
8
BLACK
6
CONTINUOUS
10
5.89
20
-4.18
11
5.89
21
-4.16
0
LINE
8
BLACK
6
CONTINUOUS
10
5.89
20
-4.16
11
5.87
21
-4.16
0
LINE
8
BLACK
6
CONTINUOUS
10
5.87
20
-4.16
11
5.87
21
-4.18191
0
LINE
8
BLACK
6
CONTINUOUS
10
5.87
20
-4.18191
11
5.87026
21
-4.18429
0
LINE
8
BLACK
6
CONTINUOUS
10
6.30037
20
-4.18099
11
6.30096
21
-4.18391
0
LINE
8
BLACK
6
CONTINUOUS
10
6.30096
20
-4.18391
11
6.30317
21
-4.18722
0
LINE
8
BLACK
6
CONTINUOUS
10
6.30317
20
-4.18722
11
6.30648
21
-4.18944
0
LINE
8
BLACK
6
CONTINUOUS
10
6.30648
20
-4.18944
11
6.30648
21
-4.18944
0
LINE
8
BLACK
6
CONTINUOUS
10
6.30648
20
-4.18944
11
6.30941
21
-4.19002
0
LINE
8
BLACK
6
CONTINUOUS
10
6.30941
20
-4.19002
11
6.37138
21
-4.19002
0
LINE
8
BLACK
6
CONTINUOUS
10
6.37138
20
-4.19002
11
6.37138
21
-4.19002
0
LINE
8
BLACK
6
CONTINUOUS
10
6.37138
20
-4.19002
11
6.37138
21
-4.19002
0
LINE
8
BLACK
6
CONTINUOUS
10
6.37138
20
-4.19002
11
6.37332
21
-4.18963
0
LINE
8
BLACK
6
CONTINUOUS
10
6.37332
20
-4.18963
11
6.3743
21
-4.18944
0
LINE
8
BLACK
6
CONTINUOUS
10
6.3743
20
-4.18944
11
6.37762
21
-4.18722
0
LINE
8
BLACK
6
CONTINUOUS
10
6.37762
20
-4.18722
11
6.37983
21
-4.18391
0
LINE
8
BLACK
6
CONTINUOUS
10
6.37983
20
-4.18391
11
6.38041
21
-4.18099
0
LINE
8
BLACK
6
CONTINUOUS
10
6.38041
20
-4.18099
11
6.38041
21
-4.18099
0
LINE
8
BLACK
6
CONTINUOUS
10
6.38041
20
-4.18099
11
6.38041
21
-4.11901
0
LINE
8
BLACK
6
CONTINUOUS
10
6.38041
20
-4.11901
11
6.38041
21
-4.11901
0
LINE
8
BLACK
6
CONTINUOUS
10
6.38041
20
-4.11901
11
6.38041
21
-4.11901
0
LINE
8
BLACK
6
CONTINUOUS
10
6.38041
20
-4.11901
11
6.37983
21
-4.11609
0
LINE
8
BLACK
6
CONTINUOUS
10
6.37983
20
-4.11609
11
6.37762
21
-4.11278
0
LINE
8
BLACK
6
CONTINUOUS
10
6.37762
20
-4.11278
11
6.3743
21
-4.11056
0
LINE
8
BLACK
6
CONTINUOUS
10
6.3743
20
-4.11056
11
6.37138
21
-4.10998
0
LINE
8
BLACK
6
CONTINUOUS
10
6.37138
20
-4.10998
11
6.30941
21
-4.10998
0
LINE
8
BLACK
6
CONTINUOUS
10
6.30941
20
-4.10998
11
6.30941
21
-4.10998
0
LINE
8
BLACK
6
CONTINUOUS
10
6.30941
20
-4.10998
11
6.30648
21
-4.11056
0
LINE
8
BLACK
6
CONTINUOUS
10
6.30648
20
-4.11056
11
6.30317
21
-4.11278
0
LINE
8
BLACK
6
CONTINUOUS
10
6.30317
20
-4.11278
11
6.30096
21
-4.11609
0
LINE
8
BLACK
6
CONTINUOUS
10
6.30096
20
-4.11609
11
6.30037
21
-4.11901
0
LINE
8
BLACK
6
CONTINUOUS
10
6.30037
20
-4.11901
11
6.30037
21
-4.18099
0
LINE
8
BLACK
6
CONTINUOUS
10
6.30037
20
-4.18099
11
6.30037
21
-4.18099
0
LINE
8
BLACK
6
CONTINUOUS
10
6.40077
20
-4.18099
11
6.40135
21
-4.18391
0
LINE
8
BLACK
6
CONTINUOUS
10
6.40135
20
-4.18391
11
6.40356
21
-4.18722
0
LINE
8
BLACK
6
CONTINUOUS
10
6.40356
20
-4.18722
11
6.40688
21
-4.18944
0
LINE
8
BLACK
6
CONTINUOUS
10
6.40688
20
-4.18944
11
6.40688
21
-4.18944
0
LINE
8
BLACK
6
CONTINUOUS
10
6.40688
20
-4.18944
11
6.4098
21
-4.19002
0
LINE
8
BLACK
6
CONTINUOUS
10
6.4098
20
-4.19002
11
6.45623
21
-4.19002
0
LINE
8
BLACK
6
CONTINUOUS
10
6.45623
20
-4.19002
11
6.45891
21
-4.19081
0
LINE
8
BLACK
6
CONTINUOUS
10
6.45891
20
-4.19081
11
6.45974
21
-4.19147
0
LINE
8
BLACK
6
CONTINUOUS
10
6.45974
20
-4.19147
11
6.61774
21
-4.34948
0
LINE
8
BLACK
6
CONTINUOUS
10
6.61774
20
-4.34948
11
6.62131
21
-4.35304
0
LINE
8
BLACK
6
CONTINUOUS
10
6.62131
20
-4.35304
11
6.62209
21
-4.35344
0
LINE
8
BLACK
6
CONTINUOUS
10
6.62209
20
-4.35344
11
6.62276
21
-4.35385
0
LINE
8
BLACK
6
CONTINUOUS
10
6.62276
20
-4.35385
11
6.62347
21
-4.35437
0
LINE
8
BLACK
6
CONTINUOUS
10
6.62347
20
-4.35437
11
6.6243
21
-4.35464
0
LINE
8
BLACK
6
CONTINUOUS
10
6.6243
20
-4.35464
11
6.62502
21
-4.35494
0
LINE
8
BLACK
6
CONTINUOUS
10
6.62502
20
-4.35494
11
6.6258
21
-4.35533
0
LINE
8
BLACK
6
CONTINUOUS
10
6.6258
20
-4.35533
11
6.62667
21
-4.35547
0
LINE
8
BLACK
6
CONTINUOUS
10
6.62667
20
-4.35547
11
6.62743
21
-4.35565
0
LINE
8
BLACK
6
CONTINUOUS
10
6.62743
20
-4.35565
11
6.62827
21
-4.35593
0
LINE
8
BLACK
6
CONTINUOUS
10
6.62827
20
-4.35593
11
6.62953
21
-4.35593
0
LINE
8
BLACK
6
CONTINUOUS
10
6.62953
20
-4.35593
11
6.64321
21
-4.35593
0
LINE
8
BLACK
6
CONTINUOUS
10
6.64321
20
-4.35593
11
6.64589
21
-4.35671
0
LINE
8
BLACK
6
CONTINUOUS
10
6.64589
20
-4.35671
11
6.64623
21
-4.35695
0
LINE
8
BLACK
6
CONTINUOUS
10
6.64623
20
-4.35695
11
6.64899
21
-4.35907
0
LINE
8
BLACK
6
CONTINUOUS
10
6.64899
20
-4.35907
11
6.6543
21
-4.36127
0
LINE
8
BLACK
6
CONTINUOUS
10
6.6543
20
-4.36127
11
6.66
21
-4.36202
0
LINE
8
BLACK
6
CONTINUOUS
10
6.66
20
-4.36202
11
6.6657
21
-4.36127
0
LINE
8
BLACK
6
CONTINUOUS
10
6.6657
20
-4.36127
11
6.67101
21
-4.35907
0
LINE
8
BLACK
6
CONTINUOUS
10
6.67101
20
-4.35907
11
6.67557
21
-4.35557
0
LINE
8
BLACK
6
CONTINUOUS
10
6.67557
20
-4.35557
11
6.67907
21
-4.35101
0
LINE
8
BLACK
6
CONTINUOUS
10
6.67907
20
-4.35101
11
6.68127
21
-4.3457
0
LINE
8
BLACK
6
CONTINUOUS
10
6.68127
20
-4.3457
11
6.68202
21
-4.34
0
LINE
8
BLACK
6
CONTINUOUS
10
6.68202
20
-4.34
11
6.6818
21
-4.33831
0
LINE
8
BLACK
6
CONTINUOUS
10
6.6818
20
-4.33831
11
6.68127
21
-4.3343
0
LINE
8
BLACK
6
CONTINUOUS
10
6.68127
20
-4.3343
11
6.68127
21
-4.3343
0
LINE
8
BLACK
6
CONTINUOUS
10
6.68127
20
-4.3343
11
6.67907
21
-4.32899
0
LINE
8
BLACK
6
CONTINUOUS
10
6.67907
20
-4.32899
11
6.67557
21
-4.32443
0
LINE
8
BLACK
6
CONTINUOUS
10
6.67557
20
-4.32443
11
6.67557
21
-4.32443
0
LINE
8
BLACK
6
CONTINUOUS
10
6.67557
20
-4.32443
11
6.67557
21
-4.32443
0
LINE
8
BLACK
6
CONTINUOUS
10
6.67557
20
-4.32443
11
6.67101
21
-4.32093
0
LINE
8
BLACK
6
CONTINUOUS
10
6.67101
20
-4.32093
11
6.67101
21
-4.32093
0
LINE
8
BLACK
6
CONTINUOUS
10
6.67101
20
-4.32093
11
6.6657
21
-4.31873
0
LINE
8
BLACK
6
CONTINUOUS
10
6.6657
20
-4.31873
11
6.66
21
-4.31798
0
LINE
8
BLACK
6
CONTINUOUS
10
6.66
20
-4.31798
11
6.6543
21
-4.31873
0
LINE
8
BLACK
6
CONTINUOUS
10
6.6543
20
-4.31873
11
6.65196
21
-4.3197
0
LINE
8
BLACK
6
CONTINUOUS
10
6.65196
20
-4.3197
11
6.64899
21
-4.32093
0
LINE
8
BLACK
6
CONTINUOUS
10
6.64899
20
-4.32093
11
6.64899
21
-4.32093
0
LINE
8
BLACK
6
CONTINUOUS
10
6.64899
20
-4.32093
11
6.64899
21
-4.32093
0
LINE
8
BLACK
6
CONTINUOUS
10
6.64899
20
-4.32093
11
6.64899
21
-4.32093
0
LINE
8
BLACK
6
CONTINUOUS
10
6.64899
20
-4.32093
11
6.64623
21
-4.32305
0
LINE
8
BLACK
6
CONTINUOUS
10
6.64623
20
-4.32305
11
6.64362
21
-4.32406
0
LINE
8
BLACK
6
CONTINUOUS
10
6.64362
20
-4.32406
11
6.64321
21
-4.32407
0
LINE
8
BLACK
6
CONTINUOUS
10
6.64321
20
-4.32407
11
6.63944
21
-4.32407
0
LINE
8
BLACK
6
CONTINUOUS
10
6.63944
20
-4.32407
11
6.63676
21
-4.32329
0
LINE
8
BLACK
6
CONTINUOUS
10
6.63676
20
-4.32329
11
6.63593
21
-4.32262
0
LINE
8
BLACK
6
CONTINUOUS
10
6.63593
20
-4.32262
11
6.4943
21
-4.18099
0
LINE
8
BLACK
6
CONTINUOUS
10
6.4943
20
-4.18099
11
6.48226
21
-4.16895
0
LINE
8
BLACK
6
CONTINUOUS
10
6.48226
20
-4.16895
11
6.48092
21
-4.1665
0
LINE
8
BLACK
6
CONTINUOUS
10
6.48092
20
-4.1665
11
6.48081
21
-4.16544
0
LINE
8
BLACK
6
CONTINUOUS
10
6.48081
20
-4.16544
11
6.48081
21
-4.11901
0
LINE
8
BLACK
6
CONTINUOUS
10
6.48081
20
-4.11901
11
6.48081
21
-4.11901
0
LINE
8
BLACK
6
CONTINUOUS
10
6.48081
20
-4.11901
11
6.48023
21
-4.11609
0
LINE
8
BLACK
6
CONTINUOUS
10
6.48023
20
-4.11609
11
6.47801
21
-4.11278
0
LINE
8
BLACK
6
CONTINUOUS
10
6.47801
20
-4.11278
11
6.4747
21
-4.11056
0
LINE
8
BLACK
6
CONTINUOUS
10
6.4747
20
-4.11056
11
6.47177
21
-4.10998
0
LINE
8
BLACK
6
CONTINUOUS
10
6.47177
20
-4.10998
11
6.4098
21
-4.10998
0
LINE
8
BLACK
6
CONTINUOUS
10
6.4098
20
-4.10998
11
6.4098
21
-4.10998
0
LINE
8
BLACK
6
CONTINUOUS
10
6.4098
20
-4.10998
11
6.40688
21
-4.11056
0
LINE
8
BLACK
6
CONTINUOUS
10
6.40688
20
-4.11056
11
6.40356
21
-4.11278
0
LINE
8
BLACK
6
CONTINUOUS
10
6.40356
20
-4.11278
11
6.40135
21
-4.11609
0
LINE
8
BLACK
6
CONTINUOUS
10
6.40135
20
-4.11609
11
6.40077
21
-4.11901
0
LINE
8
BLACK
6
CONTINUOUS
10
6.40077
20
-4.11901
11
6.40077
21
-4.18099
0
LINE
8
BLACK
6
CONTINUOUS
10
6.40077
20
-4.18099
11
6.40077
21
-4.18099
0
LINE
8
BLACK
6
CONTINUOUS
10
6.5388
20
-4.18099
11
6.53938
21
-4.18391
0
LINE
8
BLACK
6
CONTINUOUS
10
6.53938
20
-4.18391
11
6.5416
21
-4.18722
0
LINE
8
BLACK
6
CONTINUOUS
10
6.5416
20
-4.18722
11
6.54491
21
-4.18944
0
LINE
8
BLACK
6
CONTINUOUS
10
6.54491
20
-4.18944
11
6.54491
21
-4.18944
0
LINE
8
BLACK
6
CONTINUOUS
10
6.54491
20
-4.18944
11
6.54783
21
-4.19002
0
LINE
8
BLACK
6
CONTINUOUS
10
6.54783
20
-4.19002
11
6.60981
21
-4.19002
0
LINE
8
BLACK
6
CONTINUOUS
10
6.60981
20
-4.19002
11
6.60981
21
-4.19002
0
LINE
8
BLACK
6
CONTINUOUS
10
6.60981
20
-4.19002
11
6.60981
21
-4.19002
0
LINE
8
BLACK
6
CONTINUOUS
10
6.60981
20
-4.19002
11
6.61175
21
-4.18963
0
LINE
8
BLACK
6
CONTINUOUS
10
6.61175
20
-4.18963
11
6.61273
21
-4.18944
0
LINE
8
BLACK
6
CONTINUOUS
10
6.61273
20
-4.18944
11
6.61604
21
-4.18722
0
LINE
8
BLACK
6
CONTINUOUS
10
6.61604
20
-4.18722
11
6.61826
21
-4.18391
0
LINE
8
BLACK
6
CONTINUOUS
10
6.61826
20
-4.18391
11
6.61884
21
-4.18099
0
LINE
8
BLACK
6
CONTINUOUS
10
6.61884
20
-4.18099
11
6.61884
21
-4.18099
0
LINE
8
BLACK
6
CONTINUOUS
10
6.61884
20
-4.18099
11
6.61884
21
-4.11901
0
LINE
8
BLACK
6
CONTINUOUS
10
6.61884
20
-4.11901
11
6.61884
21
-4.11901
0
LINE
8
BLACK
6
CONTINUOUS
10
6.61884
20
-4.11901
11
6.61884
21
-4.11901
0
LINE
8
BLACK
6
CONTINUOUS
10
6.61884
20
-4.11901
11
6.61826
21
-4.11609
0
LINE
8
BLACK
6
CONTINUOUS
10
6.61826
20
-4.11609
11
6.61604
21
-4.11278
0
LINE
8
BLACK
6
CONTINUOUS
10
6.61604
20
-4.11278
11
6.61273
21
-4.11056
0
LINE
8
BLACK
6
CONTINUOUS
10
6.61273
20
-4.11056
11
6.60981
21
-4.10998
0
LINE
8
BLACK
6
CONTINUOUS
10
6.60981
20
-4.10998
11
6.54783
21
-4.10998
0
LINE
8
BLACK
6
CONTINUOUS
10
6.54783
20
-4.10998
11
6.54783
21
-4.10998
0
LINE
8
BLACK
6
CONTINUOUS
10
6.54783
20
-4.10998
11
6.54491
21
-4.11056
0
LINE
8
BLACK
6
CONTINUOUS
10
6.54491
20
-4.11056
11
6.5416
21
-4.11278
0
LINE
8
BLACK
6
CONTINUOUS
10
6.5416
20
-4.11278
11
6.53938
21
-4.11609
0
LINE
8
BLACK
6
CONTINUOUS
10
6.53938
20
-4.11609
11
6.5388
21
-4.11901
0
LINE
8
BLACK
6
CONTINUOUS
10
6.5388
20
-4.11901
11
6.5388
21
-4.18099
0
LINE
8
BLACK
6
CONTINUOUS
10
6.5388
20
-4.18099
11
6.5388
21
-4.18099
0
LINE
8
BLACK
6
CONTINUOUS
10
6.63919
20
-4.18099
11
6.63977
21
-4.18391
0
LINE
8
BLACK
6
CONTINUOUS
10
6.63977
20
-4.18391
11
6.64199
21
-4.18722
0
LINE
8
BLACK
6
CONTINUOUS
10
6.64199
20
-4.18722
11
6.6453
21
-4.18944
0
LINE
8
BLACK
6
CONTINUOUS
10
6.6453
20
-4.18944
11
6.6453
21
-4.18944
0
LINE
8
BLACK
6
CONTINUOUS
10
6.6453
20
-4.18944
11
6.64823
21
-4.19002
0
LINE
8
BLACK
6
CONTINUOUS
10
6.64823
20
-4.19002
11
6.7102
21
-4.19002
0
LINE
8
BLACK
6
CONTINUOUS
10
6.7102
20
-4.19002
11
6.7102
21
-4.19002
0
LINE
8
BLACK
6
CONTINUOUS
10
6.7102
20
-4.19002
11
6.7102
21
-4.19002
0
LINE
8
BLACK
6
CONTINUOUS
10
6.7102
20
-4.19002
11
6.71214
21
-4.18963
0
LINE
8
BLACK
6
CONTINUOUS
10
6.71214
20
-4.18963
11
6.71312
21
-4.18944
0
LINE
8
BLACK
6
CONTINUOUS
10
6.71312
20
-4.18944
11
6.71644
21
-4.18722
0
LINE
8
BLACK
6
CONTINUOUS
10
6.71644
20
-4.18722
11
6.71865
21
-4.18391
0
LINE
8
BLACK
6
CONTINUOUS
10
6.71865
20
-4.18391
11
6.71923
21
-4.18099
0
LINE
8
BLACK
6
CONTINUOUS
10
6.71923
20
-4.18099
11
6.71923
21
-4.18099
0
LINE
8
BLACK
6
CONTINUOUS
10
6.71923
20
-4.18099
11
6.71923
21
-4.11901
0
LINE
8
BLACK
6
CONTINUOUS
10
6.71923
20
-4.11901
11
6.71923
21
-4.11901
0
LINE
8
BLACK
6
CONTINUOUS
10
6.71923
20
-4.11901
11
6.71923
21
-4.11901
0
LINE
8
BLACK
6
CONTINUOUS
10
6.71923
20
-4.11901
11
6.71865
21
-4.11609
0
LINE
8
BLACK
6
CONTINUOUS
10
6.71865
20
-4.11609
11
6.71644
21
-4.11278
0
LINE
8
BLACK
6
CONTINUOUS
10
6.71644
20
-4.11278
11
6.71312
21
-4.11056
0
LINE
8
BLACK
6
CONTINUOUS
10
6.71312
20
-4.11056
11
6.7102
21
-4.10998
0
LINE
8
BLACK
6
CONTINUOUS
10
6.7102
20
-4.10998
11
6.64823
21
-4.10998
0
LINE
8
BLACK
6
CONTINUOUS
10
6.64823
20
-4.10998
11
6.64823
21
-4.10998
0
LINE
8
BLACK
6
CONTINUOUS
10
6.64823
20
-4.10998
11
6.6453
21
-4.11056
0
LINE
8
BLACK
6
CONTINUOUS
10
6.6453
20
-4.11056
11
6.64199
21
-4.11278
0
LINE
8
BLACK
6
CONTINUOUS
10
6.64199
20
-4.11278
11
6.63977
21
-4.11609
0
LINE
8
BLACK
6
CONTINUOUS
10
6.63977
20
-4.11609
11
6.63919
21
-4.11901
0
LINE
8
BLACK
6
CONTINUOUS
10
6.63919
20
-4.11901
11
6.63919
21
-4.18099
0
LINE
8
BLACK
6
CONTINUOUS
10
6.63919
20
-4.18099
11
6.63919
21
-4.18099
0
LINE
8
BLACK
6
CONTINUOUS
10
6.73959
20
-4.18099
11
6.74017
21
-4.18391
0
LINE
8
BLACK
6
CONTINUOUS
10
6.74017
20
-4.18391
11
6.74238
21
-4.18722
0
LINE
8
BLACK
6
CONTINUOUS
10
6.74238
20
-4.18722
11
6.7457
21
-4.18944
0
LINE
8
BLACK
6
CONTINUOUS
10
6.7457
20
-4.18944
11
6.7457
21
-4.18944
0
LINE
8
BLACK
6
CONTINUOUS
10
6.7457
20
-4.18944
11
6.74862
21
-4.19002
0
LINE
8
BLACK
6
CONTINUOUS
10
6.74862
20
-4.19002
11
6.81059
21
-4.19002
0
LINE
8
BLACK
6
CONTINUOUS
10
6.81059
20
-4.19002
11
6.81059
21
-4.19002
0
LINE
8
BLACK
6
CONTINUOUS
10
6.81059
20
-4.19002
11
6.81059
21
-4.19002
0
LINE
8
BLACK
6
CONTINUOUS
10
6.81059
20
-4.19002
11
6.81253
21
-4.18963
0
LINE
8
BLACK
6
CONTINUOUS
10
6.81253
20
-4.18963
11
6.81352
21
-4.18944
0
LINE
8
BLACK
6
CONTINUOUS
10
6.81352
20
-4.18944
11
6.81683
21
-4.18722
0
LINE
8
BLACK
6
CONTINUOUS
10
6.81683
20
-4.18722
11
6.81904
21
-4.18391
0
LINE
8
BLACK
6
CONTINUOUS
10
6.81904
20
-4.18391
11
6.81963
21
-4.18099
0
LINE
8
BLACK
6
CONTINUOUS
10
6.81963
20
-4.18099
11
6.81963
21
-4.18099
0
LINE
8
BLACK
6
CONTINUOUS
10
6.81963
20
-4.18099
11
6.81963
21
-4.11901
0
LINE
8
BLACK
6
CONTINUOUS
10
6.81963
20
-4.11901
11
6.81963
21
-4.11901
0
LINE
8
BLACK
6
CONTINUOUS
10
6.81963
20
-4.11901
11
6.81963
21
-4.11901
0
LINE
8
BLACK
6
CONTINUOUS
10
6.81963
20
-4.11901
11
6.81904
21
-4.11609
0
LINE
8
BLACK
6
CONTINUOUS
10
6.81904
20
-4.11609
11
6.81683
21
-4.11278
0
LINE
8
BLACK
6
CONTINUOUS
10
6.81683
20
-4.11278
11
6.81352
21
-4.11056
0
LINE
8
BLACK
6
CONTINUOUS
10
6.81352
20
-4.11056
11
6.81059
21
-4.10998
0
LINE
8
BLACK
6
CONTINUOUS
10
6.81059
20
-4.10998
11
6.74862
21
-4.10998
0
LINE
8
BLACK
6
CONTINUOUS
10
6.74862
20
-4.10998
11
6.74862
21
-4.10998
0
LINE
8
BLACK
6
CONTINUOUS
10
6.74862
20
-4.10998
11
6.7457
21
-4.11056
0
LINE
8
BLACK
6
CONTINUOUS
10
6.7457
20
-4.11056
11
6.74238
21
-4.11278
0
LINE
8
BLACK
6
CONTINUOUS
10
6.74238
20
-4.11278
11
6.74017
21
-4.11609
0
LINE
8
BLACK
6
CONTINUOUS
10
6.74017
20
-4.11609
11
6.73959
21
-4.11901
0
LINE
8
BLACK
6
CONTINUOUS
10
6.73959
20
-4.11901
11
6.73959
21
-4.18099
0
LINE
8
BLACK
6
CONTINUOUS
10
6.73959
20
-4.18099
11
6.73959
21
-4.18099
0
LINE
8
BLACK
6
CONTINUOUS
10
6.83998
20
-4.18099
11
6.84056
21
-4.18391
0
LINE
8
BLACK
6
CONTINUOUS
10
6.84056
20
-4.18391
11
6.84278
21
-4.18722
0
LINE
8
BLACK
6
CONTINUOUS
10
6.84278
20
-4.18722
11
6.84609
21
-4.18944
0
LINE
8
BLACK
6
CONTINUOUS
10
6.84609
20
-4.18944
11
6.84609
21
-4.18944
0
LINE
8
BLACK
6
CONTINUOUS
10
6.84609
20
-4.18944
11
6.84901
21
-4.19002
0
LINE
8
BLACK
6
CONTINUOUS
10
6.84901
20
-4.19002
11
6.91099
21
-4.19002
0
LINE
8
BLACK
6
CONTINUOUS
10
6.91099
20
-4.19002
11
6.91099
21
-4.19002
0
LINE
8
BLACK
6
CONTINUOUS
10
6.91099
20
-4.19002
11
6.91099
21
-4.19002
0
LINE
8
BLACK
6
CONTINUOUS
10
6.91099
20
-4.19002
11
6.91293
21
-4.18963
0
LINE
8
BLACK
6
CONTINUOUS
10
6.91293
20
-4.18963
11
6.91391
21
-4.18944
0
LINE
8
BLACK
6
CONTINUOUS
10
6.91391
20
-4.18944
11
6.91722
21
-4.18722
0
LINE
8
BLACK
6
CONTINUOUS
10
6.91722
20
-4.18722
11
6.91944
21
-4.18391
0
LINE
8
BLACK
6
CONTINUOUS
10
6.91944
20
-4.18391
11
6.92002
21
-4.18099
0
LINE
8
BLACK
6
CONTINUOUS
10
6.92002
20
-4.18099
11
6.92002
21
-4.11901
0
LINE
8
BLACK
6
CONTINUOUS
10
6.92002
20
-4.11901
11
6.92002
21
-4.11901
0
LINE
8
BLACK
6
CONTINUOUS
10
6.92002
20
-4.11901
11
6.92002
21
-4.11901
0
LINE
8
BLACK
6
CONTINUOUS
10
6.92002
20
-4.11901
11
6.91944
21
-4.11609
0
LINE
8
BLACK
6
CONTINUOUS
10
6.91944
20
-4.11609
11
6.91722
21
-4.11278
0
LINE
8
BLACK
6
CONTINUOUS
10
6.91722
20
-4.11278
11
6.91391
21
-4.11056
0
LINE
8
BLACK
6
CONTINUOUS
10
6.91391
20
-4.11056
11
6.91099
21
-4.10998
0
LINE
8
BLACK
6
CONTINUOUS
10
6.91099
20
-4.10998
11
6.84901
21
-4.10998
0
LINE
8
BLACK
6
CONTINUOUS
10
6.84901
20
-4.10998
11
6.84901
21
-4.10998
0
LINE
8
BLACK
6
CONTINUOUS
10
6.84901
20
-4.10998
11
6.84609
21
-4.11056
0
LINE
8
BLACK
6
CONTINUOUS
10
6.84609
20
-4.11056
11
6.84278
21
-4.11278
0
LINE
8
BLACK
6
CONTINUOUS
10
6.84278
20
-4.11278
11
6.84056
21
-4.11609
0
LINE
8
BLACK
6
CONTINUOUS
10
6.84056
20
-4.11609
11
6.83998
21
-4.11901
0
LINE
8
BLACK
6
CONTINUOUS
10
6.83998
20
-4.11901
11
6.83998
21
-4.18099
0
LINE
8
BLACK
6
CONTINUOUS
10
6.83998
20
-4.18099
11
6.83998
21
-4.18099
0
LINE
8
BLACK
6
CONTINUOUS
10
6.09959
20
-4.08099
11
6.10017
21
-4.08391
0
LINE
8
BLACK
6
CONTINUOUS
10
6.10017
20
-4.08391
11
6.10238
21
-4.08722
0
LINE
8
BLACK
6
CONTINUOUS
10
6.10238
20
-4.08722
11
6.1057
21
-4.08944
0
LINE
8
BLACK
6
CONTINUOUS
10
6.1057
20
-4.08944
11
6.1057
21
-4.08944
0
LINE
8
BLACK
6
CONTINUOUS
10
6.1057
20
-4.08944
11
6.10862
21
-4.09002
0
LINE
8
BLACK
6
CONTINUOUS
10
6.10862
20
-4.09002
11
6.17059
21
-4.09002
0
LINE
8
BLACK
6
CONTINUOUS
10
6.17059
20
-4.09002
11
6.17059
21
-4.09002
0
LINE
8
BLACK
6
CONTINUOUS
10
6.17059
20
-4.09002
11
6.17059
21
-4.09002
0
LINE
8
BLACK
6
CONTINUOUS
10
6.17059
20
-4.09002
11
6.17253
21
-4.08963
0
LINE
8
BLACK
6
CONTINUOUS
10
6.17253
20
-4.08963
11
6.17352
21
-4.08944
0
LINE
8
BLACK
6
CONTINUOUS
10
6.17352
20
-4.08944
11
6.17683
21
-4.08722
0
LINE
8
BLACK
6
CONTINUOUS
10
6.17683
20
-4.08722
11
6.17904
21
-4.08391
0
LINE
8
BLACK
6
CONTINUOUS
10
6.17904
20
-4.08391
11
6.17963
21
-4.08099
0
LINE
8
BLACK
6
CONTINUOUS
10
6.17963
20
-4.08099
11
6.17963
21
-4.08099
0
LINE
8
BLACK
6
CONTINUOUS
10
6.17963
20
-4.08099
11
6.17963
21
-4.01901
0
LINE
8
BLACK
6
CONTINUOUS
10
6.17963
20
-4.01901
11
6.17963
21
-4.01901
0
LINE
8
BLACK
6
CONTINUOUS
10
6.17963
20
-4.01901
11
6.17963
21
-4.01901
0
LINE
8
BLACK
6
CONTINUOUS
10
6.17963
20
-4.01901
11
6.17904
21
-4.01609
0
LINE
8
BLACK
6
CONTINUOUS
10
6.17904
20
-4.01609
11
6.17683
21
-4.01278
0
LINE
8
BLACK
6
CONTINUOUS
10
6.17683
20
-4.01278
11
6.17352
21
-4.01056
0
LINE
8
BLACK
6
CONTINUOUS
10
6.17352
20
-4.01056
11
6.17059
21
-4.00998
0
LINE
8
BLACK
6
CONTINUOUS
10
6.17059
20
-4.00998
11
6.10862
21
-4.00998
0
LINE
8
BLACK
6
CONTINUOUS
10
6.10862
20
-4.00998
11
6.10862
21
-4.00998
0
LINE
8
BLACK
6
CONTINUOUS
10
6.10862
20
-4.00998
11
6.1057
21
-4.01056
0
LINE
8
BLACK
6
CONTINUOUS
10
6.1057
20
-4.01056
11
6.10238
21
-4.01278
0
LINE
8
BLACK
6
CONTINUOUS
10
6.10238
20
-4.01278
11
6.10017
21
-4.01609
0
LINE
8
BLACK
6
CONTINUOUS
10
6.10017
20
-4.01609
11
6.09959
21
-4.01901
0
LINE
8
BLACK
6
CONTINUOUS
10
6.09959
20
-4.01901
11
6.09959
21
-4.08099
0
LINE
8
BLACK
6
CONTINUOUS
10
6.09959
20
-4.08099
11
6.09959
21
-4.08099
0
LINE
8
BLACK
6
CONTINUOUS
10
6.19998
20
-4.08099
11
6.20056
21
-4.08391
0
LINE
8
BLACK
6
CONTINUOUS
10
6.20056
20
-4.08391
11
6.20278
21
-4.08722
0
LINE
8
BLACK
6
CONTINUOUS
10
6.20278
20
-4.08722
11
6.20609
21
-4.08944
0
LINE
8
BLACK
6
CONTINUOUS
10
6.20609
20
-4.08944
11
6.20609
21
-4.08944
0
LINE
8
BLACK
6
CONTINUOUS
10
6.20609
20
-4.08944
11
6.20901
21
-4.09002
0
LINE
8
BLACK
6
CONTINUOUS
10
6.20901
20
-4.09002
11
6.27099
21
-4.09002
0
LINE
8
BLACK
6
CONTINUOUS
10
6.27099
20
-4.09002
11
6.27099
21
-4.09002
0
LINE
8
BLACK
6
CONTINUOUS
10
6.27099
20
-4.09002
11
6.27099
21
-4.09002
0
LINE
8
BLACK
6
CONTINUOUS
10
6.27099
20
-4.09002
11
6.27293
21
-4.08963
0
LINE
8
BLACK
6
CONTINUOUS
10
6.27293
20
-4.08963
11
6.27391
21
-4.08944
0
LINE
8
BLACK
6
CONTINUOUS
10
6.27391
20
-4.08944
11
6.27722
21
-4.08722
0
LINE
8
BLACK
6
CONTINUOUS
10
6.27722
20
-4.08722
11
6.27944
21
-4.08391
0
LINE
8
BLACK
6
CONTINUOUS
10
6.27944
20
-4.08391
11
6.28002
21
-4.08099
0
LINE
8
BLACK
6
CONTINUOUS
10
6.28002
20
-4.08099
11
6.28002
21
-4.08099
0
LINE
8
BLACK
6
CONTINUOUS
10
6.28002
20
-4.08099
11
6.28002
21
-4.01901
0
LINE
8
BLACK
6
CONTINUOUS
10
6.28002
20
-4.01901
11
6.28002
21
-4.01901
0
LINE
8
BLACK
6
CONTINUOUS
10
6.28002
20
-4.01901
11
6.28002
21
-4.01901
0
LINE
8
BLACK
6
CONTINUOUS
10
6.28002
20
-4.01901
11
6.27944
21
-4.01609
0
LINE
8
BLACK
6
CONTINUOUS
10
6.27944
20
-4.01609
11
6.27722
21
-4.01278
0
LINE
8
BLACK
6
CONTINUOUS
10
6.27722
20
-4.01278
11
6.27391
21
-4.01056
0
LINE
8
BLACK
6
CONTINUOUS
10
6.27391
20
-4.01056
11
6.27099
21
-4.00998
0
LINE
8
BLACK
6
CONTINUOUS
10
6.27099
20
-4.00998
11
6.20901
21
-4.00998
0
LINE
8
BLACK
6
CONTINUOUS
10
6.20901
20
-4.00998
11
6.20901
21
-4.00998
0
LINE
8
BLACK
6
CONTINUOUS
10
6.20901
20
-4.00998
11
6.20609
21
-4.01056
0
LINE
8
BLACK
6
CONTINUOUS
10
6.20609
20
-4.01056
11
6.20278
21
-4.01278
0
LINE
8
BLACK
6
CONTINUOUS
10
6.20278
20
-4.01278
11
6.20056
21
-4.01609
0
LINE
8
BLACK
6
CONTINUOUS
10
6.20056
20
-4.01609
11
6.19998
21
-4.01901
0
LINE
8
BLACK
6
CONTINUOUS
10
6.19998
20
-4.01901
11
6.19998
21
-4.08099
0
LINE
8
BLACK
6
CONTINUOUS
10
6.19998
20
-4.08099
11
6.19998
21
-4.08099
0
LINE
8
BLACK
6
CONTINUOUS
10
6.30037
20
-4.08099
11
6.30096
21
-4.08391
0
LINE
8
BLACK
6
CONTINUOUS
10
6.30096
20
-4.08391
11
6.30317
21
-4.08722
0
LINE
8
BLACK
6
CONTINUOUS
10
6.30317
20
-4.08722
11
6.30648
21
-4.08944
0
LINE
8
BLACK
6
CONTINUOUS
10
6.30648
20
-4.08944
11
6.30648
21
-4.08944
0
LINE
8
BLACK
6
CONTINUOUS
10
6.30648
20
-4.08944
11
6.30941
21
-4.09002
0
LINE
8
BLACK
6
CONTINUOUS
10
6.30941
20
-4.09002
11
6.37138
21
-4.09002
0
LINE
8
BLACK
6
CONTINUOUS
10
6.37138
20
-4.09002
11
6.37138
21
-4.09002
0
LINE
8
BLACK
6
CONTINUOUS
10
6.37138
20
-4.09002
11
6.37138
21
-4.09002
0
LINE
8
BLACK
6
CONTINUOUS
10
6.37138
20
-4.09002
11
6.37332
21
-4.08963
0
LINE
8
BLACK
6
CONTINUOUS
10
6.37332
20
-4.08963
11
6.3743
21
-4.08944
0
LINE
8
BLACK
6
CONTINUOUS
10
6.3743
20
-4.08944
11
6.37762
21
-4.08722
0
LINE
8
BLACK
6
CONTINUOUS
10
6.37762
20
-4.08722
11
6.37983
21
-4.08391
0
LINE
8
BLACK
6
CONTINUOUS
10
6.37983
20
-4.08391
11
6.38041
21
-4.08099
0
LINE
8
BLACK
6
CONTINUOUS
10
6.38041
20
-4.08099
11
6.38041
21
-4.08099
0
LINE
8
BLACK
6
CONTINUOUS
10
6.38041
20
-4.08099
11
6.38041
21
-4.01901
0
LINE
8
BLACK
6
CONTINUOUS
10
6.38041
20
-4.01901
11
6.38041
21
-4.01901
0
LINE
8
BLACK
6
CONTINUOUS
10
6.38041
20
-4.01901
11
6.38041
21
-4.01901
0
LINE
8
BLACK
6
CONTINUOUS
10
6.38041
20
-4.01901
11
6.37983
21
-4.01609
0
LINE
8
BLACK
6
CONTINUOUS
10
6.37983
20
-4.01609
11
6.37762
21
-4.01278
0
LINE
8
BLACK
6
CONTINUOUS
10
6.37762
20
-4.01278
11
6.3743
21
-4.01056
0
LINE
8
BLACK
6
CONTINUOUS
10
6.3743
20
-4.01056
11
6.37138
21
-4.00998
0
LINE
8
BLACK
6
CONTINUOUS
10
6.37138
20
-4.00998
11
6.30941
21
-4.00998
0
LINE
8
BLACK
6
CONTINUOUS
10
6.30941
20
-4.00998
11
6.30941
21
-4.00998
0
LINE
8
BLACK
6
CONTINUOUS
10
6.30941
20
-4.00998
11
6.30648
21
-4.01056
0
LINE
8
BLACK
6
CONTINUOUS
10
6.30648
20
-4.01056
11
6.30317
21
-4.01278
0
LINE
8
BLACK
6
CONTINUOUS
10
6.30317
20
-4.01278
11
6.30096
21
-4.01609
0
LINE
8
BLACK
6
CONTINUOUS
10
6.30096
20
-4.01609
11
6.30037
21
-4.01901
0
LINE
8
BLACK
6
CONTINUOUS
10
6.30037
20
-4.01901
11
6.30037
21
-4.08099
0
LINE
8
BLACK
6
CONTINUOUS
10
6.30037
20
-4.08099
11
6.30037
21
-4.08099
0
LINE
8
BLACK
6
CONTINUOUS
10
6.40077
20
-4.08099
11
6.40135
21
-4.08391
0
LINE
8
BLACK
6
CONTINUOUS
10
6.40135
20
-4.08391
11
6.40356
21
-4.08722
0
LINE
8
BLACK
6
CONTINUOUS
10
6.40356
20
-4.08722
11
6.40688
21
-4.08944
0
LINE
8
BLACK
6
CONTINUOUS
10
6.40688
20
-4.08944
11
6.40688
21
-4.08944
0
LINE
8
BLACK
6
CONTINUOUS
10
6.40688
20
-4.08944
11
6.4098
21
-4.09002
0
LINE
8
BLACK
6
CONTINUOUS
10
6.4098
20
-4.09002
11
6.47177
21
-4.09002
0
LINE
8
BLACK
6
CONTINUOUS
10
6.47177
20
-4.09002
11
6.47177
21
-4.09002
0
LINE
8
BLACK
6
CONTINUOUS
10
6.47177
20
-4.09002
11
6.47177
21
-4.09002
0
LINE
8
BLACK
6
CONTINUOUS
10
6.47177
20
-4.09002
11
6.47371
21
-4.08963
0
LINE
8
BLACK
6
CONTINUOUS
10
6.47371
20
-4.08963
11
6.4747
21
-4.08944
0
LINE
8
BLACK
6
CONTINUOUS
10
6.4747
20
-4.08944
11
6.47801
21
-4.08722
0
LINE
8
BLACK
6
CONTINUOUS
10
6.47801
20
-4.08722
11
6.48023
21
-4.08391
0
LINE
8
BLACK
6
CONTINUOUS
10
6.48023
20
-4.08391
11
6.48081
21
-4.08099
0
LINE
8
BLACK
6
CONTINUOUS
10
6.48081
20
-4.08099
11
6.48081
21
-4.08099
0
LINE
8
BLACK
6
CONTINUOUS
10
6.48081
20
-4.08099
11
6.48081
21
-4.01901
0
LINE
8
BLACK
6
CONTINUOUS
10
6.48081
20
-4.01901
11
6.48081
21
-4.01901
0
LINE
8
BLACK
6
CONTINUOUS
10
6.48081
20
-4.01901
11
6.48081
21
-4.01901
0
LINE
8
BLACK
6
CONTINUOUS
10
6.48081
20
-4.01901
11
6.48023
21
-4.01609
0
LINE
8
BLACK
6
CONTINUOUS
10
6.48023
20
-4.01609
11
6.47801
21
-4.01278
0
LINE
8
BLACK
6
CONTINUOUS
10
6.47801
20
-4.01278
11
6.4747
21
-4.01056
0
LINE
8
BLACK
6
CONTINUOUS
10
6.4747
20
-4.01056
11
6.47177
21
-4.00998
0
LINE
8
BLACK
6
CONTINUOUS
10
6.47177
20
-4.00998
11
6.4098
21
-4.00998
0
LINE
8
BLACK
6
CONTINUOUS
10
6.4098
20
-4.00998
11
6.4098
21
-4.00998
0
LINE
8
BLACK
6
CONTINUOUS
10
6.4098
20
-4.00998
11
6.40688
21
-4.01056
0
LINE
8
BLACK
6
CONTINUOUS
10
6.40688
20
-4.01056
11
6.40356
21
-4.01278
0
LINE
8
BLACK
6
CONTINUOUS
10
6.40356
20
-4.01278
11
6.40135
21
-4.01609
0
LINE
8
BLACK
6
CONTINUOUS
10
6.40135
20
-4.01609
11
6.40077
21
-4.01901
0
LINE
8
BLACK
6
CONTINUOUS
10
6.40077
20
-4.01901
11
6.40077
21
-4.08099
0
LINE
8
BLACK
6
CONTINUOUS
10
6.40077
20
-4.08099
11
6.40077
21
-4.08099
0
LINE
8
BLACK
6
CONTINUOUS
10
6.5388
20
-4.08099
11
6.53938
21
-4.08391
0
LINE
8
BLACK
6
CONTINUOUS
10
6.53938
20
-4.08391
11
6.5416
21
-4.08722
0
LINE
8
BLACK
6
CONTINUOUS
10
6.5416
20
-4.08722
11
6.54491
21
-4.08944
0
LINE
8
BLACK
6
CONTINUOUS
10
6.54491
20
-4.08944
11
6.54491
21
-4.08944
0
LINE
8
BLACK
6
CONTINUOUS
10
6.54491
20
-4.08944
11
6.54783
21
-4.09002
0
LINE
8
BLACK
6
CONTINUOUS
10
6.54783
20
-4.09002
11
6.60981
21
-4.09002
0
LINE
8
BLACK
6
CONTINUOUS
10
6.60981
20
-4.09002
11
6.60981
21
-4.09002
0
LINE
8
BLACK
6
CONTINUOUS
10
6.60981
20
-4.09002
11
6.60981
21
-4.09002
0
LINE
8
BLACK
6
CONTINUOUS
10
6.60981
20
-4.09002
11
6.61175
21
-4.08963
0
LINE
8
BLACK
6
CONTINUOUS
10
6.61175
20
-4.08963
11
6.61273
21
-4.08944
0
LINE
8
BLACK
6
CONTINUOUS
10
6.61273
20
-4.08944
11
6.61604
21
-4.08722
0
LINE
8
BLACK
6
CONTINUOUS
10
6.61604
20
-4.08722
11
6.61826
21
-4.08391
0
LINE
8
BLACK
6
CONTINUOUS
10
6.61826
20
-4.08391
11
6.61884
21
-4.08099
0
LINE
8
BLACK
6
CONTINUOUS
10
6.61884
20
-4.08099
11
6.61884
21
-4.08099
0
LINE
8
BLACK
6
CONTINUOUS
10
6.61884
20
-4.08099
11
6.61884
21
-4.01901
0
LINE
8
BLACK
6
CONTINUOUS
10
6.61884
20
-4.01901
11
6.61884
21
-4.01901
0
LINE
8
BLACK
6
CONTINUOUS
10
6.61884
20
-4.01901
11
6.61884
21
-4.01901
0
LINE
8
BLACK
6
CONTINUOUS
10
6.61884
20
-4.01901
11
6.61826
21
-4.01609
0
LINE
8
BLACK
6
CONTINUOUS
10
6.61826
20
-4.01609
11
6.61604
21
-4.01278
0
LINE
8
BLACK
6
CONTINUOUS
10
6.61604
20
-4.01278
11
6.61273
21
-4.01056
0
LINE
8
BLACK
6
CONTINUOUS
10
6.61273
20
-4.01056
11
6.60981
21
-4.00998
0
LINE
8
BLACK
6
CONTINUOUS
10
6.60981
20
-4.00998
11
6.54783
21
-4.00998
0
LINE
8
BLACK
6
CONTINUOUS
10
6.54783
20
-4.00998
11
6.54783
21
-4.00998
0
LINE
8
BLACK
6
CONTINUOUS
10
6.54783
20
-4.00998
11
6.54491
21
-4.01056
0
LINE
8
BLACK
6
CONTINUOUS
10
6.54491
20
-4.01056
11
6.5416
21
-4.01278
0
LINE
8
BLACK
6
CONTINUOUS
10
6.5416
20
-4.01278
11
6.53938
21
-4.01609
0
LINE
8
BLACK
6
CONTINUOUS
10
6.53938
20
-4.01609
11
6.5388
21
-4.01901
0
LINE
8
BLACK
6
CONTINUOUS
10
6.5388
20
-4.01901
11
6.5388
21
-4.08099
0
LINE
8
BLACK
6
CONTINUOUS
10
6.5388
20
-4.08099
11
6.5388
21
-4.08099
0
LINE
8
BLACK
6
CONTINUOUS
10
6.63919
20
-4.08099
11
6.63977
21
-4.08391
0
LINE
8
BLACK
6
CONTINUOUS
10
6.63977
20
-4.08391
11
6.64199
21
-4.08722
0
LINE
8
BLACK
6
CONTINUOUS
10
6.64199
20
-4.08722
11
6.6453
21
-4.08944
0
LINE
8
BLACK
6
CONTINUOUS
10
6.6453
20
-4.08944
11
6.6453
21
-4.08944
0
LINE
8
BLACK
6
CONTINUOUS
10
6.6453
20
-4.08944
11
6.64823
21
-4.09002
0
LINE
8
BLACK
6
CONTINUOUS
10
6.64823
20
-4.09002
11
6.7102
21
-4.09002
0
LINE
8
BLACK
6
CONTINUOUS
10
6.7102
20
-4.09002
11
6.7102
21
-4.09002
0
LINE
8
BLACK
6
CONTINUOUS
10
6.7102
20
-4.09002
11
6.7102
21
-4.09002
0
LINE
8
BLACK
6
CONTINUOUS
10
6.7102
20
-4.09002
11
6.71214
21
-4.08963
0
LINE
8
BLACK
6
CONTINUOUS
10
6.71214
20
-4.08963
11
6.71312
21
-4.08944
0
LINE
8
BLACK
6
CONTINUOUS
10
6.71312
20
-4.08944
11
6.71644
21
-4.08722
0
LINE
8
BLACK
6
CONTINUOUS
10
6.71644
20
-4.08722
11
6.71865
21
-4.08391
0
LINE
8
BLACK
6
CONTINUOUS
10
6.71865
20
-4.08391
11
6.71923
21
-4.08099
0
LINE
8
BLACK
6
CONTINUOUS
10
6.71923
20
-4.08099
11
6.71923
21
-4.08099
0
LINE
8
BLACK
6
CONTINUOUS
10
6.71923
20
-4.08099
11
6.71923
21
-4.01901
0
LINE
8
BLACK
6
CONTINUOUS
10
6.71923
20
-4.01901
11
6.71923
21
-4.01901
0
LINE
8
BLACK
6
CONTINUOUS
10
6.71923
20
-4.01901
11
6.71923
21
-4.01901
0
LINE
8
BLACK
6
CONTINUOUS
10
6.71923
20
-4.01901
11
6.71865
21
-4.01609
0
LINE
8
BLACK
6
CONTINUOUS
10
6.71865
20
-4.01609
11
6.71644
21
-4.01278
0
LINE
8
BLACK
6
CONTINUOUS
10
6.71644
20
-4.01278
11
6.71312
21
-4.01056
0
LINE
8
BLACK
6
CONTINUOUS
10
6.71312
20
-4.01056
11
6.7102
21
-4.00998
0
LINE
8
BLACK
6
CONTINUOUS
10
6.7102
20
-4.00998
11
6.64823
21
-4.00998
0
LINE
8
BLACK
6
CONTINUOUS
10
6.64823
20
-4.00998
11
6.64823
21
-4.00998
0
LINE
8
BLACK
6
CONTINUOUS
10
6.64823
20
-4.00998
11
6.6453
21
-4.01056
0
LINE
8
BLACK
6
CONTINUOUS
10
6.6453
20
-4.01056
11
6.64199
21
-4.01278
0
LINE
8
BLACK
6
CONTINUOUS
10
6.64199
20
-4.01278
11
6.63977
21
-4.01609
0
LINE
8
BLACK
6
CONTINUOUS
10
6.63977
20
-4.01609
11
6.63919
21
-4.01901
0
LINE
8
BLACK
6
CONTINUOUS
10
6.63919
20
-4.01901
11
6.63919
21
-4.08099
0
LINE
8
BLACK
6
CONTINUOUS
10
6.63919
20
-4.08099
11
6.63919
21
-4.08099
0
LINE
8
BLACK
6
CONTINUOUS
10
6.73959
20
-4.08099
11
6.74017
21
-4.08391
0
LINE
8
BLACK
6
CONTINUOUS
10
6.74017
20
-4.08391
11
6.74238
21
-4.08722
0
LINE
8
BLACK
6
CONTINUOUS
10
6.74238
20
-4.08722
11
6.7457
21
-4.08944
0
LINE
8
BLACK
6
CONTINUOUS
10
6.7457
20
-4.08944
11
6.7457
21
-4.08944
0
LINE
8
BLACK
6
CONTINUOUS
10
6.7457
20
-4.08944
11
6.74862
21
-4.09002
0
LINE
8
BLACK
6
CONTINUOUS
10
6.74862
20
-4.09002
11
6.81059
21
-4.09002
0
LINE
8
BLACK
6
CONTINUOUS
10
6.81059
20
-4.09002
11
6.81059
21
-4.09002
0
LINE
8
BLACK
6
CONTINUOUS
10
6.81059
20
-4.09002
11
6.81059
21
-4.09002
0
LINE
8
BLACK
6
CONTINUOUS
10
6.81059
20
-4.09002
11
6.81253
21
-4.08963
0
LINE
8
BLACK
6
CONTINUOUS
10
6.81253
20
-4.08963
11
6.81352
21
-4.08944
0
LINE
8
BLACK
6
CONTINUOUS
10
6.81352
20
-4.08944
11
6.81683
21
-4.08722
0
LINE
8
BLACK
6
CONTINUOUS
10
6.81683
20
-4.08722
11
6.81904
21
-4.08391
0
LINE
8
BLACK
6
CONTINUOUS
10
6.81904
20
-4.08391
11
6.81963
21
-4.08099
0
LINE
8
BLACK
6
CONTINUOUS
10
6.81963
20
-4.08099
11
6.81963
21
-4.08099
0
LINE
8
BLACK
6
CONTINUOUS
10
6.81963
20
-4.08099
11
6.81963
21
-4.01901
0
LINE
8
BLACK
6
CONTINUOUS
10
6.81963
20
-4.01901
11
6.81963
21
-4.01901
0
LINE
8
BLACK
6
CONTINUOUS
10
6.81963
20
-4.01901
11
6.81963
21
-4.01901
0
LINE
8
BLACK
6
CONTINUOUS
10
6.81963
20
-4.01901
11
6.81904
21
-4.01609
0
LINE
8
BLACK
6
CONTINUOUS
10
6.81904
20
-4.01609
11
6.81683
21
-4.01278
0
LINE
8
BLACK
6
CONTINUOUS
10
6.81683
20
-4.01278
11
6.81352
21
-4.01056
0
LINE
8
BLACK
6
CONTINUOUS
10
6.81352
20
-4.01056
11
6.81059
21
-4.00998
0
LINE
8
BLACK
6
CONTINUOUS
10
6.81059
20
-4.00998
11
6.74862
21
-4.00998
0
LINE
8
BLACK
6
CONTINUOUS
10
6.74862
20
-4.00998
11
6.74862
21
-4.00998
0
LINE
8
BLACK
6
CONTINUOUS
10
6.74862
20
-4.00998
11
6.7457
21
-4.01056
0
LINE
8
BLACK
6
CONTINUOUS
10
6.7457
20
-4.01056
11
6.74238
21
-4.01278
0
LINE
8
BLACK
6
CONTINUOUS
10
6.74238
20
-4.01278
11
6.74017
21
-4.01609
0
LINE
8
BLACK
6
CONTINUOUS
10
6.74017
20
-4.01609
11
6.73959
21
-4.01901
0
LINE
8
BLACK
6
CONTINUOUS
10
6.73959
20
-4.01901
11
6.73959
21
-4.08099
0
LINE
8
BLACK
6
CONTINUOUS
10
6.73959
20
-4.08099
11
6.73959
21
-4.08099
0
LINE
8
BLACK
6
CONTINUOUS
10
6.83998
20
-4.08099
11
6.84056
21
-4.08391
0
LINE
8
BLACK
6
CONTINUOUS
10
6.84056
20
-4.08391
11
6.84278
21
-4.08722
0
LINE
8
BLACK
6
CONTINUOUS
10
6.84278
20
-4.08722
11
6.84609
21
-4.08944
0
LINE
8
BLACK
6
CONTINUOUS
10
6.84609
20
-4.08944
11
6.84609
21
-4.08944
0
LINE
8
BLACK
6
CONTINUOUS
10
6.84609
20
-4.08944
11
6.84901
21
-4.09002
0
LINE
8
BLACK
6
CONTINUOUS
10
6.84901
20
-4.09002
11
6.91099
21
-4.09002
0
LINE
8
BLACK
6
CONTINUOUS
10
6.91099
20
-4.09002
11
6.91099
21
-4.09002
0
LINE
8
BLACK
6
CONTINUOUS
10
6.91099
20
-4.09002
11
6.91099
21
-4.09002
0
LINE
8
BLACK
6
CONTINUOUS
10
6.91099
20
-4.09002
11
6.91293
21
-4.08963
0
LINE
8
BLACK
6
CONTINUOUS
10
6.91293
20
-4.08963
11
6.91391
21
-4.08944
0
LINE
8
BLACK
6
CONTINUOUS
10
6.91391
20
-4.08944
11
6.91722
21
-4.08722
0
LINE
8
BLACK
6
CONTINUOUS
10
6.91722
20
-4.08722
11
6.91944
21
-4.08391
0
LINE
8
BLACK
6
CONTINUOUS
10
6.91944
20
-4.08391
11
6.92002
21
-4.08099
0
LINE
8
BLACK
6
CONTINUOUS
10
6.92002
20
-4.08099
11
6.92002
21
-4.01901
0
LINE
8
BLACK
6
CONTINUOUS
10
6.92002
20
-4.01901
11
6.92002
21
-4.01901
0
LINE
8
BLACK
6
CONTINUOUS
10
6.92002
20
-4.01901
11
6.92002
21
-4.01901
0
LINE
8
BLACK
6
CONTINUOUS
10
6.92002
20
-4.01901
11
6.91944
21
-4.01609
0
LINE
8
BLACK
6
CONTINUOUS
10
6.91944
20
-4.01609
11
6.91722
21
-4.01278
0
LINE
8
BLACK
6
CONTINUOUS
10
6.91722
20
-4.01278
11
6.91391
21
-4.01056
0
LINE
8
BLACK
6
CONTINUOUS
10
6.91391
20
-4.01056
11
6.91099
21
-4.00998
0
LINE
8
BLACK
6
CONTINUOUS
10
6.91099
20
-4.00998
11
6.84901
21
-4.00998
0
LINE
8
BLACK
6
CONTINUOUS
10
6.84901
20
-4.00998
11
6.84901
21
-4.00998
0
LINE
8
BLACK
6
CONTINUOUS
10
6.84901
20
-4.00998
11
6.84609
21
-4.01056
0
LINE
8
BLACK
6
CONTINUOUS
10
6.84609
20
-4.01056
11
6.84278
21
-4.01278
0
LINE
8
BLACK
6
CONTINUOUS
10
6.84278
20
-4.01278
11
6.84056
21
-4.01609
0
LINE
8
BLACK
6
CONTINUOUS
10
6.84056
20
-4.01609
11
6.83998
21
-4.01901
0
LINE
8
BLACK
6
CONTINUOUS
10
6.83998
20
-4.01901
11
6.83998
21
-4.08099
0
LINE
8
BLACK
6
CONTINUOUS
10
6.83998
20
-4.08099
11
6.83998
21
-4.08099
0
CIRCLE
8
BLACK
10
5.5
20
-4.1
40
0.00688976
0
CIRCLE
8
BLACK
10
7.1
20
-4.9
40
0.00688976
0
CIRCLE
8
BLACK
10
5.43
20
-4.68
40
0.00688976
0
CIRCLE
8
BLACK
10
5.53
20
-4.68
40
0.00688976
0
CIRCLE
8
BLACK
10
6.57882
20
-4.15
40
0.00688976
0
CIRCLE
8
BLACK
10
6.57882
20
-4.05
40
0.00688976
0
CIRCLE
8
BLACK
10
6.77961
20
-4.15
40
0.00688976
0
CIRCLE
8
BLACK
10
6.77961
20
-4.05
40
0.00688976
0
CIRCLE
8
BLACK
10
6.44079
20
-4.15
40
0.00688976
0
CIRCLE
8
BLACK
10
6.44079
20
-4.05
40
0.00688976
0
CIRCLE
8
BLACK
10
7.062
20
-4.5
40
0.00688976
0
CIRCLE
8
BLACK
10
6.962
20
-4.6
40
0.00688976
0
CIRCLE
8
BLACK
10
7.162
20
-4.6
40
0.00688976
0
CIRCLE
8
BLACK
10
6.962
20
-4.4
40
0.00688976
0
CIRCLE
8
BLACK
10
7.162
20
-4.4
40
0.00688976
0
CIRCLE
8
BLACK
10
6.03921
20
-4.15
40
0.00688976
0
CIRCLE
8
BLACK
10
6.03921
20
-4.05
40
0.00688976
0
CIRCLE
8
BLACK
10
6.88
20
-4.15
40
0.00688976
0
CIRCLE
8
BLACK
10
6.88
20
-4.05
40
0.00688976
0
CIRCLE
8
BLACK
10
6.13961
20
-4.15
40
0.00688976
0
CIRCLE
8
BLACK
10
6.13961
20
-4.05
40
0.00688976
0
CIRCLE
8
BLACK
10
6.24
20
-4.15
40
0.00688976
0
CIRCLE
8
BLACK
10
6.24
20
-4.05
40
0.00688976
0
CIRCLE
8
BLACK
10
6.34039
20
-4.15
40
0.00688976
0
CIRCLE
8
BLACK
10
6.34039
20
-4.05
40
0.00688976
0
CIRCLE
8
BLACK
10
6.67921
20
-4.15
40
0.00688976
0
CIRCLE
8
BLACK
10
6.67921
20
-4.05
40
0.00688976
0
CIRCLE
8
BLACK
10
7.1
20
-4.1
40
0.00688976
0
CIRCLE
8
BLACK
10
5.72
20
-4.15
40
0.00688976
0
CIRCLE
8
BLACK
10
5.72
20
-4.05
40
0.00688976
0
CIRCLE
8
BLACK
10
5.82
20
-4.15
40
0.00688976
0
CIRCLE
8
BLACK
10
5.82
20
-4.05
40
0.00688976
0
CIRCLE
8
BLACK
10
5.92
20
-4.15
40
0.00688976
0
CIRCLE
8
BLACK
10
5.92
20
-4.05
40
0.00688976
0
CIRCLE
8
BLACK
10
5.5
20
-4.9
40
0.00688976
0
CIRCLE
8
BLACK
10
5.43
20
-4.48
40
0.00688976
0
CIRCLE
8
BLACK
10
5.53
20
-4.48
40
0.00688976
0
CIRCLE
8
BLACK
10
5.43
20
-4.58
40
0.00688976
0
CIRCLE
8
BLACK
10
5.53
20
-4.58
40
0.00688976
0
CIRCLE
8
BLACK
10
5.85858
20
-4.67307
40
0.00393701
0
CIRCLE
8
BLACK
10
5.89992
20
-4.67307
40
0.00393701
0
CIRCLE
8
BLACK
10
5.94126
20
-4.67307
40
0.00393701
0
CIRCLE
8
BLACK
10
5.85858
20
-4.63173
40
0.00393701
0
CIRCLE
8
BLACK
10
5.89992
20
-4.63173
40
0.00393701
0
CIRCLE
8
BLACK
10
5.94126
20
-4.63173
40
0.00393701
0
CIRCLE
8
BLACK
10
5.85858
20
-4.59039
40
0.00393701
0
CIRCLE
8
BLACK
10
5.89992
20
-4.59039
40
0.00393701
0
CIRCLE
8
BLACK
10
5.94126
20
-4.59039
40
0.00393701
0
CIRCLE
8
BLACK
10
5.71094
20
-4.49
40
0.00590551
0
CIRCLE
8
BLACK
10
5.64795
20
-4.49
40
0.00590551
0
CIRCLE
8
BLACK
10
5.95898
20
-4.85276
40
0.00590551
0
CIRCLE
8
BLACK
10
5.84087
20
-4.85276
40
0.00590551
0
CIRCLE
8
BLACK
10
5.92748
20
-4.90394
40
0.00590551
0
CIRCLE
8
BLACK
10
6.45
20
-4.475
40
0.00590551
0
CIRCLE
8
BLACK
10
7.25
20
-4.7
40
0.00590551
0
CIRCLE
8
BLACK
10
5.845
20
-5.05
40
0.00590551
0
CIRCLE
8
BLACK
10
6.45
20
-3.95
40
0.00590551
0
CIRCLE
8
BLACK
10
6.37
20
-4.485
40
0.00590551
0
CIRCLE
8
BLACK
10
6.735
20
-4.395
40
0.00590551
0
CIRCLE
8
BLACK
10
7.25
20
-4.65
40
0.00590551
0
CIRCLE
8
BLACK
10
6.19514
20
-4.65913
40
0.00590551
0
CIRCLE
8
BLACK
10
6.25
20
-4.485
40
0.00590551
0
CIRCLE
8
BLACK
10
7.25
20
-4.5
40
0.00590551
0
CIRCLE
8
BLACK
10
5.715
20
-4.815
40
0.00590551
0
CIRCLE
8
BLACK
10
6.65
20
-4.395
40
0.00590551
0
CIRCLE
8
BLACK
10
5.6
20
-5.05
40
0.00590551
0
CIRCLE
8
BLACK
10
7.25
20
-4.35
40
0.00590551
0
CIRCLE
8
BLACK
10
6.18
20
-4.485
40
0.00590551
0
CIRCLE
8
BLACK
10
6.61
20
-4.395
40
0.00590551
0
CIRCLE
8
BLACK
10
5.645
20
-4.23
40
0.00590551
0
CIRCLE
8
BLACK
10
5.715
20
-4.855
40
0.00590551
0
CIRCLE
8
BLACK
10
6.0574
20
-4.91913
40
0.00590551
0
CIRCLE
8
BLACK
10
5.76
20
-5.05
40
0.00590551
0
CIRCLE
8
BLACK
10
6.29
20
-4.485
40
0.00590551
0
CIRCLE
8
BLACK
10
6.63
20
-4.82
40
0.00590551
0
CIRCLE
8
BLACK
10
5.66
20
-4.435
40
0.00590551
0
CIRCLE
8
BLACK
10
6.05
20
-3.95
40
0.00590551
0
CIRCLE
8
BLACK
10
6.66
20
-4.605
40
0.00590551
0
CIRCLE
8
BLACK
10
7
20
-4.275
40
0.00590551
0
CIRCLE
8
BLACK
10
6.695
20
-4.395
40
0.00590551
0
CIRCLE
8
BLACK
10
6.775
20
-5.05
40
0.00590551
0
CIRCLE
8
BLACK
10
6.465
20
-4.79
40
0.00590551
0
CIRCLE
8
BLACK
10
6.35
20
-3.95
40
0.00590551
0
CIRCLE
8
BLACK
10
6.78
20
-4.39
40
0.00590551
0
CIRCLE
8
BLACK
10
6.425
20
-5.05
40
0.00590551
0
CIRCLE
8
BLACK
10
6.325
20
-5.05
40
0.00590551
0
CIRCLE
8
BLACK
10
6.605
20
-4.5
40
0.00590551
0
CIRCLE
8
BLACK
10
6.1
20
-3.95
40
0.00590551
0
CIRCLE
8
BLACK
10
6.04
20
-4.86008
40
0.00590551
0
CIRCLE
8
BLACK
10
6.8
20
-3.95
40
0.00590551
0
CIRCLE
8
BLACK
10
6.2
20
-3.95
40
0.00590551
0
CIRCLE
8
BLACK
10
6.4
20
-4.9
40
0.00590551
0
CIRCLE
8
BLACK
10
6.13614
20
-4.65929
40
0.00590551
0
CIRCLE
8
BLACK
10
5.995
20
-5.05
40
0.00590551
0
CIRCLE
8
BLACK
10
6.855
20
-4.525
40
0.00590551
0
CIRCLE
8
BLACK
10
6.55
20
-3.95
40
0.00590551
0
CIRCLE
8
BLACK
10
6.325
20
-4.485
40
0.00590551
0
CIRCLE
8
BLACK
10
5.94
20
-4.815
40
0.00590551
0
CIRCLE
8
BLACK
10
7.15
20
-4.725
40
0.00590551
0
CIRCLE
8
BLACK
10
6.29
20
-4.835
40
0.00590551
0
CIRCLE
8
BLACK
10
5.89992
20
-4.87638
40
0.00590551
0
CIRCLE
8
BLACK
10
5.89
20
-4.23
40
0.00590551
0
CIRCLE
8
BLACK
10
6.055
20
-4.965
40
0.00590551
0
CIRCLE
8
BLACK
10
5.93929
20
-4.76953
40
0.00590551
0
CIRCLE
8
BLACK
10
6.125
20
-5.05
40
0.00590551
0
CIRCLE
8
BLACK
10
5.715
20
-5.05
40
0.00590551
0
CIRCLE
8
BLACK
10
6.725
20
-5.05
40
0.00590551
0
CIRCLE
8
BLACK
10
5.65
20
-3.95
40
0.00590551
0
CIRCLE
8
BLACK
10
5.7
20
-3.95
40
0.00590551
0
CIRCLE
8
BLACK
10
5.35
20
-4.75
40
0.00590551
0
CIRCLE
8
BLACK
10
6.625
20
-5.05
40
0.00590551
0
CIRCLE
8
BLACK
10
6.25
20
-3.95
40
0.00590551
0
CIRCLE
8
BLACK
10
6.805
20
-4.605
40
0.00590551
0
CIRCLE
8
BLACK
10
5.75
20
-3.95
40
0.00590551
0
CIRCLE
8
BLACK
10
6.815
20
-4.39
40
0.00590551
0
CIRCLE
8
BLACK
10
6.675
20
-4.76
40
0.00590551
0
CIRCLE
8
BLACK
10
7
20
-3.95
40
0.00590551
0
CIRCLE
8
BLACK
10
6.9
20
-3.95
40
0.00590551
0
CIRCLE
8
BLACK
10
6.95
20
-4.275
40
0.00590551
0
CIRCLE
8
BLACK
10
5.785
20
-4.435
40
0.00590551
0
CIRCLE
8
BLACK
10
6.225
20
-5.05
40
0.00590551
0
CIRCLE
8
BLACK
10
6.62
20
-4.605
40
0.00590551
0
CIRCLE
8
BLACK
10
6.15
20
-3.95
40
0.00590551
0
CIRCLE
8
BLACK
10
7.175
20
-4.275
40
0.00590551
0
CIRCLE
8
BLACK
10
5.9
20
-3.95
40
0.00590551
0
CIRCLE
8
BLACK
10
6.415
20
-4.555
40
0.00590551
0
CIRCLE
8
BLACK
10
6.6
20
-3.95
40
0.00590551
0
CIRCLE
8
BLACK
10
6.85
20
-3.95
40
0.00590551
0
CIRCLE
8
BLACK
10
7.225
20
-4.725
40
0.00590551
0
CIRCLE
8
BLACK
10
5.86252
20
-4.76953
40
0.00590551
0
CIRCLE
8
BLACK
10
5.85
20
-3.95
40
0.00590551
0
CIRCLE
8
BLACK
10
6.7
20
-3.95
40
0.00590551
0
CIRCLE
8
BLACK
10
6.49
20
-4.395
40
0.00590551
0
CIRCLE
8
BLACK
10
5.35
20
-4.7
40
0.00590551
0
CIRCLE
8
BLACK
10
6.38811
20
-4.65929
40
0.00590551
0
CIRCLE
8
BLACK
10
6.475
20
-5.05
40
0.00590551
0
CIRCLE
8
BLACK
10
5.75
20
-5
40
0.00590551
0
CIRCLE
8
BLACK
10
5.35
20
-4.6
40
0.00590551
0
CIRCLE
8
BLACK
10
7.25
20
-4.6
40
0.00590551
0
CIRCLE
8
BLACK
10
6.1
20
-4.65929
40
0.00590551
0
CIRCLE
8
BLACK
10
6.85
20
-4.39
40
0.00590551
0
CIRCLE
8
BLACK
10
6.87
20
-4.42
40
0.00590551
0
CIRCLE
8
BLACK
10
6.525
20
-5.05
40
0.00590551
0
CIRCLE
8
BLACK
10
6.75
20
-3.95
40
0.00590551
0
CIRCLE
8
BLACK
10
6.49
20
-4.645
40
0.00590551
0
CIRCLE
8
BLACK
10
6.715
20
-4.605
40
0.00590551
0
CIRCLE
8
BLACK
10
6.075
20
-5.05
40
0.00590551
0
CIRCLE
8
BLACK
10
5.985
20
-4.815
40
0.00590551
0
CIRCLE
8
BLACK
10
6.025
20
-4.55
40
0.00590551
0
CIRCLE
8
BLACK
10
6.4511
20
-4.65929
40
0.00590551
0
CIRCLE
8
BLACK
10
6.85
20
-4.65
40
0.00590551
0
CIRCLE
8
BLACK
10
6.375
20
-5.05
40
0.00590551
0
CIRCLE
8
BLACK
10
5.715
20
-4.935
40
0.00590551
0
CIRCLE
8
BLACK
10
6.02984
20
-4.79315
40
0.00590551
0
CIRCLE
8
BLACK
10
6.65
20
-3.95
40
0.00590551
0
CIRCLE
8
BLACK
10
6.975
20
-5.05
40
0.00590551
0
CIRCLE
8
BLACK
10
6.825
20
-5.05
40
0.00590551
0
CIRCLE
8
BLACK
10
5.855
20
-4.81
40
0.00590551
0
CIRCLE
8
BLACK
10
6.32512
20
-4.65929
40
0.00590551
0
CIRCLE
8
BLACK
10
5.715
20
-4.985
40
0.00590551
0
CIRCLE
8
BLACK
10
6.5
20
-3.95
40
0.00590551
0
CIRCLE
8
BLACK
10
5.8
20
-4.8
40
0.00590551
0
CIRCLE
8
BLACK
10
5.75031
20
-4.68291
40
0.00590551
0
CIRCLE
8
BLACK
10
6.925
20
-4.725
40
0.00590551
0
CIRCLE
8
BLACK
10
6.4
20
-3.95
40
0.00590551
0
CIRCLE
8
BLACK
10
7.25
20
-4.45
40
0.00590551
0
CIRCLE
8
BLACK
10
6.34
20
-4.835
40
0.00590551
0
CIRCLE
8
BLACK
10
7.25
20
-4.25
40
0.00590551
0
CIRCLE
8
BLACK
10
6.76
20
-4.605
40
0.00590551
0
CIRCLE
8
BLACK
10
7.075
20
-4.675
40
0.00590551
0
CIRCLE
8
BLACK
10
7.05
20
-4.725
40
0.00590551
0
CIRCLE
8
BLACK
10
6.555
20
-4.77
40
0.00590551
0
CIRCLE
8
BLACK
10
6.3
20
-3.95
40
0.00590551
0
CIRCLE
8
BLACK
10
6.2
20
-4.835
40
0.00590551
0
CIRCLE
8
BLACK
10
5.95
20
-3.95
40
0.00590551
0
CIRCLE
8
BLACK
10
6.465
20
-4.835
40
0.00590551
0
CIRCLE
8
BLACK
10
6.675
20
-4.82
40
0.00590551
0
CIRCLE
8
BLACK
10
6.58
20
-4.605
40
0.00590551
0
CIRCLE
8
BLACK
10
7.25
20
-4.55
40
0.00590551
0
CIRCLE
8
BLACK
10
6.745
20
-4.5
40
0.00590551
0
CIRCLE
8
BLACK
10
5.8763
20
-4.90394
40
0.00590551
0
CIRCLE
8
BLACK
10
6.34
20
-4.9
40
0.00590551
0
CIRCLE
8
BLACK
10
6.67
20
-4.645
40
0.00590551
0
CIRCLE
8
BLACK
10
5.805
20
-5.05
40
0.00590551
0
CIRCLE
8
BLACK
10
6.15055
20
-4.52
40
0.00590551
0
CIRCLE
8
BLACK
10
6.705
20
-4.5
40
0.00590551
0
CIRCLE
8
BLACK
10
7.25
20
-4.75
40
0.00590551
0
CIRCLE
8
BLACK
10
6.925
20
-5.05
40
0.00590551
0
CIRCLE
8
BLACK
10
6.675
20
-5.05
40
0.00590551
0
CIRCLE
8
BLACK
10
6.505
20
-4.77
40
0.00590551
0
CIRCLE
8
BLACK
10
6.875
20
-4.725
40
0.00590551
0
CIRCLE
8
BLACK
10
6.215
20
-4.485
40
0.00590551
0
CIRCLE
8
BLACK
10
5.82118
20
-4.98268
40
0.00590551
0
CIRCLE
8
BLACK
10
6.025
20
-5.005
40
0.00590551
0
CIRCLE
8
BLACK
10
5.365
20
-4.225
40
0.00590551
0
CIRCLE
8
BLACK
10
7.25
20
-4.3
40
0.00590551
0
CIRCLE
8
BLACK
10
6
20
-3.95
40
0.00590551
0
CIRCLE
8
BLACK
10
5.715
20
-4.435
40
0.00590551
0
CIRCLE
8
BLACK
10
6.575
20
-5.05
40
0.00590551
0
CIRCLE
8
BLACK
10
6.26213
20
-4.65929
40
0.00590551
0
CIRCLE
8
BLACK
10
6.855
20
-4.605
40
0.00590551
0
CIRCLE
8
BLACK
10
6.95
20
-3.95
40
0.00590551
0
CIRCLE
8
BLACK
10
6.275
20
-5.05
40
0.00590551
0
CIRCLE
8
BLACK
10
5.89
20
-5.05
40
0.00590551
0
CIRCLE
8
BLACK
10
7.125
20
-4.275
40
0.00590551
0
CIRCLE
8
BLACK
10
6.47
20
-4.9
40
0.00590551
0
CIRCLE
8
BLACK
10
5.65
20
-5.05
40
0.00590551
0
CIRCLE
8
BLACK
10
5.8
20
-3.95
40
0.00590551
0
CIRCLE
8
BLACK
10
6.535
20
-4.395
40
0.00590551
0
CIRCLE
8
BLACK
10
6.89
20
-4.53
40
0.00590551
0
CIRCLE
8
BLACK
10
5.35
20
-4.65
40
0.00590551
0
CIRCLE
8
BLACK
10
7
20
-4.725
40
0.00590551
0
CIRCLE
8
BLACK
10
5.585
20
-4.235
40
0.00590551
0
CIRCLE
8
BLACK
10
6.45
20
-4.395
40
0.00590551
0
CIRCLE
8
BLACK
10
5.655
20
-4.8
40
0.00590551
0
CIRCLE
8
BLACK
10
6.245
20
-4.835
40
0.00590551
0
CIRCLE
8
BLACK
10
6.85
20
-4.7
40
0.00590551
0
CIRCLE
8
BLACK
10
6.54
20
-4.485
40
0.00590551
0
CIRCLE
8
BLACK
10
5.715
20
-4.895
40
0.00590551
0
CIRCLE
8
BLACK
10
6.175
20
-5.05
40
0.00590551
0
CIRCLE
8
BLACK
10
6.58
20
-4.82
40
0.00590551
0
CIRCLE
8
BLACK
10
7.05
20
-4.35
40
0.00590551
0
CIRCLE
8
BLACK
10
5.94
20
-5.05
40
0.00590551
0
CIRCLE
8
BLACK
10
5.75
20
-4.8
40
0.00590551
0
CIRCLE
8
BLACK
10
6.675
20
-4.69
40
0.00590551
0
CIRCLE
8
BLACK
10
6.45
20
-4.435
40
0.00590551
0
CIRCLE
8
BLACK
10
5.89
20
-4.28
40
0.00590551
0
CIRCLE
8
BLACK
10
7.25
20
-4.4
40
0.00590551
0
CIRCLE
8
BLACK
10
6.875
20
-5.05
40
0.00590551
0
CIRCLE
8
BLACK
10
7.25
20
-4.2
40
0.00590551
0
CIRCLE
8
BLACK
10
5.61
20
-4.435
40
0.00590551
0
CIRCLE
8
BLACK
10
6.575
20
-4.545
40
0.00590551
0
CIRCLE
8
BLACK
10
6.51
20
-4.34
40
0.00590551
0
CIRCLE
8
BLACK
10
5.43071
20
-4.33071
40
0.00590551
0
CIRCLE
8
BLACK
10
5.97866
20
-4.76953
40
0.00590551
0
CIRCLE
8
BLACK
10
5.78181
20
-4.61205
40
0.00590551
0
CIRCLE
8
BLACK
10
6.41
20
-4.395
40
0.00590551
0
CIRCLE
8
BLACK
10
6.445
20
-4.525
40
0.00590551
0
CIRCLE
8
BLACK
10
6.66
20
-4.34
40
0.00590551
0
CIRCLE
8
BLACK
10
6.36
20
-4.31063
40
0.00590551
0
CIRCLE
8
BLACK
10
5.75031
20
-4.47819
40
0.00590551
0
CIRCLE
8
BLACK
10
5.82289
20
-4.76953
40
0.00590551
  0
ENDSEC
  0
EOF
