  0
SECTION
  2
HEADER
  9
$ANGBASE
  50
0.0
  9
$ANGDIR
  70
1
  9
$MEASUREMENT
  70
0
  0
ENDSEC
  0
SECTION
  2
TABLES
  0
TABLE
  2
LTYPE
  70
4
  0
LTYPE
  5
40F
  2
CONTINUOUS
  70
0
  3
Solid line
  72
65
  73
0
  40
0.0
  0
LTYPE
  5
410
  2
DASHDOT
 70
0
  3
Dash Dot ____ _ ____ _
 72
65
 73
4
 40
2.0
 49
1.25
 49
-0.25
 49
0.25
 49
-0.25
  0
LTYPE
  5
411
  2
DASHED
 70
0
  3
Dashed __ __ __ __ __
 72
65
 73
2
 40
0.75
 49
0.5
 49
-0.25
  0
LTYPE
  5
43B
  2
DOTTED
 70
0
  3
Dotted .  .  .  .
 72
65
 73
2
 40
0.2
 49
0.0
 49
-0.2
  0
ENDTAB
  0
TABLE
  2
STYLE
  70
4
  0
STYLE
  2
KICAD
  70
0
  40
0
  41
1
  42
1
  50
0
  71
0
  3
isocp.shx
  0
STYLE
  2
KICADB
  70
0
  40
0
  41
1
  42
1
  50
0
  71
0
  3
isocp.shx
  0
STYLE
  2
KICADI
  70
0
  40
0
  41
1
  42
1
  50
15
  71
0
  3
isocp.shx
  0
STYLE
  2
KICADBI
  70
0
  40
0
  41
1
  42
1
  50
15
  71
0
  3
isocp.shx
  0
ENDTAB
  0
TABLE
  2
LAYER
  70
1
  0
LAYER
  2
BLACK
  70
0
  62
7
  6
CONTINUOUS
  0
ENDTAB
  0
ENDSEC
  0
SECTION
  2
ENTITIES
0
LINE
8
BLACK
6
CONTINUOUS
10
7.48031
20
-4.70768
11
7.43898
21
-4.70768
0
LINE
8
BLACK
6
CONTINUOUS
10
7.43898
20
-4.70768
11
7.43898
21
-4.62106
0
LINE
8
BLACK
6
CONTINUOUS
10
7.43898
20
-4.62106
11
7.48031
21
-4.62106
0
LINE
8
BLACK
6
CONTINUOUS
10
7.48031
20
-4.62106
11
7.48031
21
-4.70768
0
LINE
8
BLACK
6
CONTINUOUS
10
7.36417
20
-4.70768
11
7.32283
21
-4.70768
0
LINE
8
BLACK
6
CONTINUOUS
10
7.32283
20
-4.70768
11
7.32283
21
-4.62106
0
LINE
8
BLACK
6
CONTINUOUS
10
7.32283
20
-4.62106
11
7.36417
21
-4.62106
0
LINE
8
BLACK
6
CONTINUOUS
10
7.36417
20
-4.62106
11
7.36417
21
-4.70768
0
LINE
8
BLACK
6
CONTINUOUS
10
7.42126
20
-4.625
11
7.38189
21
-4.625
0
LINE
8
BLACK
6
CONTINUOUS
10
7.38189
20
-4.625
11
7.38189
21
-4.58366
0
LINE
8
BLACK
6
CONTINUOUS
10
7.38189
20
-4.58366
11
7.42126
21
-4.58366
0
LINE
8
BLACK
6
CONTINUOUS
10
7.42126
20
-4.58366
11
7.42126
21
-4.625
0
LINE
8
BLACK
6
CONTINUOUS
10
7.42126
20
-3.68406
11
7.38189
21
-3.68406
0
LINE
8
BLACK
6
CONTINUOUS
10
7.38189
20
-3.68406
11
7.38189
21
-3.64272
0
LINE
8
BLACK
6
CONTINUOUS
10
7.38189
20
-3.64272
11
7.42126
21
-3.64272
0
LINE
8
BLACK
6
CONTINUOUS
10
7.42126
20
-3.64272
11
7.42126
21
-3.68406
0
LINE
8
BLACK
6
CONTINUOUS
10
7.48031
20
-3.64665
11
7.43898
21
-3.64665
0
LINE
8
BLACK
6
CONTINUOUS
10
7.43898
20
-3.64665
11
7.43898
21
-3.56004
0
LINE
8
BLACK
6
CONTINUOUS
10
7.43898
20
-3.56004
11
7.48031
21
-3.56004
0
LINE
8
BLACK
6
CONTINUOUS
10
7.48031
20
-3.56004
11
7.48031
21
-3.64665
0
LINE
8
BLACK
6
CONTINUOUS
10
7.36417
20
-3.64665
11
7.32283
21
-3.64665
0
LINE
8
BLACK
6
CONTINUOUS
10
7.32283
20
-3.64665
11
7.32283
21
-3.56004
0
LINE
8
BLACK
6
CONTINUOUS
10
7.32283
20
-3.56004
11
7.36417
21
-3.56004
0
LINE
8
BLACK
6
CONTINUOUS
10
7.36417
20
-3.56004
11
7.36417
21
-3.64665
0
LINE
8
BLACK
6
CONTINUOUS
10
6.4158
20
-3.27982
11
6.41772
21
-3.2811
0
LINE
8
BLACK
6
CONTINUOUS
10
6.41772
20
-3.2811
11
6.419
21
-3.28302
0
LINE
8
BLACK
6
CONTINUOUS
10
6.419
20
-3.28302
11
6.41945
21
-3.28528
0
LINE
8
BLACK
6
CONTINUOUS
10
6.41945
20
-3.28528
11
6.41945
21
-3.34039
0
LINE
8
BLACK
6
CONTINUOUS
10
6.41945
20
-3.34039
11
6.419
21
-3.34265
0
LINE
8
BLACK
6
CONTINUOUS
10
6.419
20
-3.34265
11
6.41772
21
-3.34457
0
LINE
8
BLACK
6
CONTINUOUS
10
6.41772
20
-3.34457
11
6.4158
21
-3.34585
0
LINE
8
BLACK
6
CONTINUOUS
10
6.4158
20
-3.34585
11
6.41354
21
-3.3463
0
LINE
8
BLACK
6
CONTINUOUS
10
6.41354
20
-3.3463
11
6.40173
21
-3.3463
0
LINE
8
BLACK
6
CONTINUOUS
10
6.40173
20
-3.3463
11
6.39947
21
-3.34585
0
LINE
8
BLACK
6
CONTINUOUS
10
6.39947
20
-3.34585
11
6.39756
21
-3.34457
0
LINE
8
BLACK
6
CONTINUOUS
10
6.39756
20
-3.34457
11
6.39628
21
-3.34265
0
LINE
8
BLACK
6
CONTINUOUS
10
6.39628
20
-3.34265
11
6.39583
21
-3.34039
0
LINE
8
BLACK
6
CONTINUOUS
10
6.39583
20
-3.34039
11
6.39583
21
-3.28528
0
LINE
8
BLACK
6
CONTINUOUS
10
6.39583
20
-3.28528
11
6.39628
21
-3.28302
0
LINE
8
BLACK
6
CONTINUOUS
10
6.39628
20
-3.28302
11
6.39756
21
-3.2811
0
LINE
8
BLACK
6
CONTINUOUS
10
6.39756
20
-3.2811
11
6.39947
21
-3.27982
0
LINE
8
BLACK
6
CONTINUOUS
10
6.39947
20
-3.27982
11
6.40173
21
-3.27937
0
LINE
8
BLACK
6
CONTINUOUS
10
6.40173
20
-3.27937
11
6.41354
21
-3.27937
0
LINE
8
BLACK
6
CONTINUOUS
10
6.41354
20
-3.27937
11
6.4158
21
-3.27982
0
LINE
8
BLACK
6
CONTINUOUS
10
6.36659
20
-3.27982
11
6.36851
21
-3.2811
0
LINE
8
BLACK
6
CONTINUOUS
10
6.36851
20
-3.2811
11
6.36979
21
-3.28302
0
LINE
8
BLACK
6
CONTINUOUS
10
6.36979
20
-3.28302
11
6.37024
21
-3.28528
0
LINE
8
BLACK
6
CONTINUOUS
10
6.37024
20
-3.28528
11
6.37024
21
-3.34039
0
LINE
8
BLACK
6
CONTINUOUS
10
6.37024
20
-3.34039
11
6.36979
21
-3.34265
0
LINE
8
BLACK
6
CONTINUOUS
10
6.36979
20
-3.34265
11
6.36851
21
-3.34457
0
LINE
8
BLACK
6
CONTINUOUS
10
6.36851
20
-3.34457
11
6.36659
21
-3.34585
0
LINE
8
BLACK
6
CONTINUOUS
10
6.36659
20
-3.34585
11
6.36433
21
-3.3463
0
LINE
8
BLACK
6
CONTINUOUS
10
6.36433
20
-3.3463
11
6.35252
21
-3.3463
0
LINE
8
BLACK
6
CONTINUOUS
10
6.35252
20
-3.3463
11
6.35026
21
-3.34585
0
LINE
8
BLACK
6
CONTINUOUS
10
6.35026
20
-3.34585
11
6.34834
21
-3.34457
0
LINE
8
BLACK
6
CONTINUOUS
10
6.34834
20
-3.34457
11
6.34706
21
-3.34265
0
LINE
8
BLACK
6
CONTINUOUS
10
6.34706
20
-3.34265
11
6.34661
21
-3.34039
0
LINE
8
BLACK
6
CONTINUOUS
10
6.34661
20
-3.34039
11
6.34661
21
-3.28528
0
LINE
8
BLACK
6
CONTINUOUS
10
6.34661
20
-3.28528
11
6.34706
21
-3.28302
0
LINE
8
BLACK
6
CONTINUOUS
10
6.34706
20
-3.28302
11
6.34834
21
-3.2811
0
LINE
8
BLACK
6
CONTINUOUS
10
6.34834
20
-3.2811
11
6.35026
21
-3.27982
0
LINE
8
BLACK
6
CONTINUOUS
10
6.35026
20
-3.27982
11
6.35252
21
-3.27937
0
LINE
8
BLACK
6
CONTINUOUS
10
6.35252
20
-3.27937
11
6.36433
21
-3.27937
0
LINE
8
BLACK
6
CONTINUOUS
10
6.36433
20
-3.27937
11
6.36659
21
-3.27982
0
LINE
8
BLACK
6
CONTINUOUS
10
6.31738
20
-3.27982
11
6.31929
21
-3.2811
0
LINE
8
BLACK
6
CONTINUOUS
10
6.31929
20
-3.2811
11
6.32057
21
-3.28302
0
LINE
8
BLACK
6
CONTINUOUS
10
6.32057
20
-3.28302
11
6.32102
21
-3.28528
0
LINE
8
BLACK
6
CONTINUOUS
10
6.32102
20
-3.28528
11
6.32102
21
-3.34039
0
LINE
8
BLACK
6
CONTINUOUS
10
6.32102
20
-3.34039
11
6.32057
21
-3.34265
0
LINE
8
BLACK
6
CONTINUOUS
10
6.32057
20
-3.34265
11
6.31929
21
-3.34457
0
LINE
8
BLACK
6
CONTINUOUS
10
6.31929
20
-3.34457
11
6.31738
21
-3.34585
0
LINE
8
BLACK
6
CONTINUOUS
10
6.31738
20
-3.34585
11
6.31512
21
-3.3463
0
LINE
8
BLACK
6
CONTINUOUS
10
6.31512
20
-3.3463
11
6.30331
21
-3.3463
0
LINE
8
BLACK
6
CONTINUOUS
10
6.30331
20
-3.3463
11
6.30105
21
-3.34585
0
LINE
8
BLACK
6
CONTINUOUS
10
6.30105
20
-3.34585
11
6.29913
21
-3.34457
0
LINE
8
BLACK
6
CONTINUOUS
10
6.29913
20
-3.34457
11
6.29785
21
-3.34265
0
LINE
8
BLACK
6
CONTINUOUS
10
6.29785
20
-3.34265
11
6.2974
21
-3.34039
0
LINE
8
BLACK
6
CONTINUOUS
10
6.2974
20
-3.34039
11
6.2974
21
-3.28528
0
LINE
8
BLACK
6
CONTINUOUS
10
6.2974
20
-3.28528
11
6.29785
21
-3.28302
0
LINE
8
BLACK
6
CONTINUOUS
10
6.29785
20
-3.28302
11
6.29913
21
-3.2811
0
LINE
8
BLACK
6
CONTINUOUS
10
6.29913
20
-3.2811
11
6.30105
21
-3.27982
0
LINE
8
BLACK
6
CONTINUOUS
10
6.30105
20
-3.27982
11
6.30331
21
-3.27937
0
LINE
8
BLACK
6
CONTINUOUS
10
6.30331
20
-3.27937
11
6.31512
21
-3.27937
0
LINE
8
BLACK
6
CONTINUOUS
10
6.31512
20
-3.27937
11
6.31738
21
-3.27982
0
LINE
8
BLACK
6
CONTINUOUS
10
6.26817
20
-3.27982
11
6.27008
21
-3.2811
0
LINE
8
BLACK
6
CONTINUOUS
10
6.27008
20
-3.2811
11
6.27136
21
-3.28302
0
LINE
8
BLACK
6
CONTINUOUS
10
6.27136
20
-3.28302
11
6.27181
21
-3.28528
0
LINE
8
BLACK
6
CONTINUOUS
10
6.27181
20
-3.28528
11
6.27181
21
-3.34039
0
LINE
8
BLACK
6
CONTINUOUS
10
6.27181
20
-3.34039
11
6.27136
21
-3.34265
0
LINE
8
BLACK
6
CONTINUOUS
10
6.27136
20
-3.34265
11
6.27008
21
-3.34457
0
LINE
8
BLACK
6
CONTINUOUS
10
6.27008
20
-3.34457
11
6.26817
21
-3.34585
0
LINE
8
BLACK
6
CONTINUOUS
10
6.26817
20
-3.34585
11
6.26591
21
-3.3463
0
LINE
8
BLACK
6
CONTINUOUS
10
6.26591
20
-3.3463
11
6.25409
21
-3.3463
0
LINE
8
BLACK
6
CONTINUOUS
10
6.25409
20
-3.3463
11
6.25183
21
-3.34585
0
LINE
8
BLACK
6
CONTINUOUS
10
6.25183
20
-3.34585
11
6.24992
21
-3.34457
0
LINE
8
BLACK
6
CONTINUOUS
10
6.24992
20
-3.34457
11
6.24864
21
-3.34265
0
LINE
8
BLACK
6
CONTINUOUS
10
6.24864
20
-3.34265
11
6.24819
21
-3.34039
0
LINE
8
BLACK
6
CONTINUOUS
10
6.24819
20
-3.34039
11
6.24819
21
-3.28528
0
LINE
8
BLACK
6
CONTINUOUS
10
6.24819
20
-3.28528
11
6.24864
21
-3.28302
0
LINE
8
BLACK
6
CONTINUOUS
10
6.24864
20
-3.28302
11
6.24992
21
-3.2811
0
LINE
8
BLACK
6
CONTINUOUS
10
6.24992
20
-3.2811
11
6.25183
21
-3.27982
0
LINE
8
BLACK
6
CONTINUOUS
10
6.25183
20
-3.27982
11
6.25409
21
-3.27937
0
LINE
8
BLACK
6
CONTINUOUS
10
6.25409
20
-3.27937
11
6.26591
21
-3.27937
0
LINE
8
BLACK
6
CONTINUOUS
10
6.26591
20
-3.27937
11
6.26817
21
-3.27982
0
LINE
8
BLACK
6
CONTINUOUS
10
6.21895
20
-3.27982
11
6.22087
21
-3.2811
0
LINE
8
BLACK
6
CONTINUOUS
10
6.22087
20
-3.2811
11
6.22215
21
-3.28302
0
LINE
8
BLACK
6
CONTINUOUS
10
6.22215
20
-3.28302
11
6.2226
21
-3.28528
0
LINE
8
BLACK
6
CONTINUOUS
10
6.2226
20
-3.28528
11
6.2226
21
-3.34039
0
LINE
8
BLACK
6
CONTINUOUS
10
6.2226
20
-3.34039
11
6.22215
21
-3.34265
0
LINE
8
BLACK
6
CONTINUOUS
10
6.22215
20
-3.34265
11
6.22087
21
-3.34457
0
LINE
8
BLACK
6
CONTINUOUS
10
6.22087
20
-3.34457
11
6.21895
21
-3.34585
0
LINE
8
BLACK
6
CONTINUOUS
10
6.21895
20
-3.34585
11
6.21669
21
-3.3463
0
LINE
8
BLACK
6
CONTINUOUS
10
6.21669
20
-3.3463
11
6.20488
21
-3.3463
0
LINE
8
BLACK
6
CONTINUOUS
10
6.20488
20
-3.3463
11
6.20262
21
-3.34585
0
LINE
8
BLACK
6
CONTINUOUS
10
6.20262
20
-3.34585
11
6.20071
21
-3.34457
0
LINE
8
BLACK
6
CONTINUOUS
10
6.20071
20
-3.34457
11
6.19943
21
-3.34265
0
LINE
8
BLACK
6
CONTINUOUS
10
6.19943
20
-3.34265
11
6.19898
21
-3.34039
0
LINE
8
BLACK
6
CONTINUOUS
10
6.19898
20
-3.34039
11
6.19898
21
-3.28528
0
LINE
8
BLACK
6
CONTINUOUS
10
6.19898
20
-3.28528
11
6.19943
21
-3.28302
0
LINE
8
BLACK
6
CONTINUOUS
10
6.19943
20
-3.28302
11
6.20071
21
-3.2811
0
LINE
8
BLACK
6
CONTINUOUS
10
6.20071
20
-3.2811
11
6.20262
21
-3.27982
0
LINE
8
BLACK
6
CONTINUOUS
10
6.20262
20
-3.27982
11
6.20488
21
-3.27937
0
LINE
8
BLACK
6
CONTINUOUS
10
6.20488
20
-3.27937
11
6.21669
21
-3.27937
0
LINE
8
BLACK
6
CONTINUOUS
10
6.21669
20
-3.27937
11
6.21895
21
-3.27982
0
LINE
8
BLACK
6
CONTINUOUS
10
6.16974
20
-3.27982
11
6.17166
21
-3.2811
0
LINE
8
BLACK
6
CONTINUOUS
10
6.17166
20
-3.2811
11
6.17294
21
-3.28302
0
LINE
8
BLACK
6
CONTINUOUS
10
6.17294
20
-3.28302
11
6.17339
21
-3.28528
0
LINE
8
BLACK
6
CONTINUOUS
10
6.17339
20
-3.28528
11
6.17339
21
-3.34039
0
LINE
8
BLACK
6
CONTINUOUS
10
6.17339
20
-3.34039
11
6.17294
21
-3.34265
0
LINE
8
BLACK
6
CONTINUOUS
10
6.17294
20
-3.34265
11
6.17166
21
-3.34457
0
LINE
8
BLACK
6
CONTINUOUS
10
6.17166
20
-3.34457
11
6.16974
21
-3.34585
0
LINE
8
BLACK
6
CONTINUOUS
10
6.16974
20
-3.34585
11
6.16748
21
-3.3463
0
LINE
8
BLACK
6
CONTINUOUS
10
6.16748
20
-3.3463
11
6.15567
21
-3.3463
0
LINE
8
BLACK
6
CONTINUOUS
10
6.15567
20
-3.3463
11
6.15341
21
-3.34585
0
LINE
8
BLACK
6
CONTINUOUS
10
6.15341
20
-3.34585
11
6.15149
21
-3.34457
0
LINE
8
BLACK
6
CONTINUOUS
10
6.15149
20
-3.34457
11
6.15021
21
-3.34265
0
LINE
8
BLACK
6
CONTINUOUS
10
6.15021
20
-3.34265
11
6.14976
21
-3.34039
0
LINE
8
BLACK
6
CONTINUOUS
10
6.14976
20
-3.34039
11
6.14976
21
-3.28528
0
LINE
8
BLACK
6
CONTINUOUS
10
6.14976
20
-3.28528
11
6.15021
21
-3.28302
0
LINE
8
BLACK
6
CONTINUOUS
10
6.15021
20
-3.28302
11
6.15149
21
-3.2811
0
LINE
8
BLACK
6
CONTINUOUS
10
6.15149
20
-3.2811
11
6.15341
21
-3.27982
0
LINE
8
BLACK
6
CONTINUOUS
10
6.15341
20
-3.27982
11
6.15567
21
-3.27937
0
LINE
8
BLACK
6
CONTINUOUS
10
6.15567
20
-3.27937
11
6.16748
21
-3.27937
0
LINE
8
BLACK
6
CONTINUOUS
10
6.16748
20
-3.27937
11
6.16974
21
-3.27982
0
LINE
8
BLACK
6
CONTINUOUS
10
6.12053
20
-3.27982
11
6.12244
21
-3.2811
0
LINE
8
BLACK
6
CONTINUOUS
10
6.12244
20
-3.2811
11
6.12372
21
-3.28302
0
LINE
8
BLACK
6
CONTINUOUS
10
6.12372
20
-3.28302
11
6.12417
21
-3.28528
0
LINE
8
BLACK
6
CONTINUOUS
10
6.12417
20
-3.28528
11
6.12417
21
-3.34039
0
LINE
8
BLACK
6
CONTINUOUS
10
6.12417
20
-3.34039
11
6.12372
21
-3.34265
0
LINE
8
BLACK
6
CONTINUOUS
10
6.12372
20
-3.34265
11
6.12244
21
-3.34457
0
LINE
8
BLACK
6
CONTINUOUS
10
6.12244
20
-3.34457
11
6.12053
21
-3.34585
0
LINE
8
BLACK
6
CONTINUOUS
10
6.12053
20
-3.34585
11
6.11827
21
-3.3463
0
LINE
8
BLACK
6
CONTINUOUS
10
6.11827
20
-3.3463
11
6.10646
21
-3.3463
0
LINE
8
BLACK
6
CONTINUOUS
10
6.10646
20
-3.3463
11
6.1042
21
-3.34585
0
LINE
8
BLACK
6
CONTINUOUS
10
6.1042
20
-3.34585
11
6.10228
21
-3.34457
0
LINE
8
BLACK
6
CONTINUOUS
10
6.10228
20
-3.34457
11
6.101
21
-3.34265
0
LINE
8
BLACK
6
CONTINUOUS
10
6.101
20
-3.34265
11
6.10055
21
-3.34039
0
LINE
8
BLACK
6
CONTINUOUS
10
6.10055
20
-3.34039
11
6.10055
21
-3.28528
0
LINE
8
BLACK
6
CONTINUOUS
10
6.10055
20
-3.28528
11
6.101
21
-3.28302
0
LINE
8
BLACK
6
CONTINUOUS
10
6.101
20
-3.28302
11
6.10228
21
-3.2811
0
LINE
8
BLACK
6
CONTINUOUS
10
6.10228
20
-3.2811
11
6.1042
21
-3.27982
0
LINE
8
BLACK
6
CONTINUOUS
10
6.1042
20
-3.27982
11
6.10646
21
-3.27937
0
LINE
8
BLACK
6
CONTINUOUS
10
6.10646
20
-3.27937
11
6.11827
21
-3.27937
0
LINE
8
BLACK
6
CONTINUOUS
10
6.11827
20
-3.27937
11
6.12053
21
-3.27982
0
LINE
8
BLACK
6
CONTINUOUS
10
6.49408
20
-3.13445
11
6.49727
21
-3.13658
0
LINE
8
BLACK
6
CONTINUOUS
10
6.49727
20
-3.13658
11
6.49941
21
-3.13978
0
LINE
8
BLACK
6
CONTINUOUS
10
6.49941
20
-3.13978
11
6.50016
21
-3.14354
0
LINE
8
BLACK
6
CONTINUOUS
10
6.50016
20
-3.14354
11
6.50016
21
-3.23016
0
LINE
8
BLACK
6
CONTINUOUS
10
6.50016
20
-3.23016
11
6.49941
21
-3.23392
0
LINE
8
BLACK
6
CONTINUOUS
10
6.49941
20
-3.23392
11
6.49727
21
-3.23712
0
LINE
8
BLACK
6
CONTINUOUS
10
6.49727
20
-3.23712
11
6.49408
21
-3.23925
0
LINE
8
BLACK
6
CONTINUOUS
10
6.49408
20
-3.23925
11
6.49031
21
-3.24
0
LINE
8
BLACK
6
CONTINUOUS
10
6.49031
20
-3.24
11
6.47063
21
-3.24
0
LINE
8
BLACK
6
CONTINUOUS
10
6.47063
20
-3.24
11
6.46686
21
-3.23925
0
LINE
8
BLACK
6
CONTINUOUS
10
6.46686
20
-3.23925
11
6.46367
21
-3.23712
0
LINE
8
BLACK
6
CONTINUOUS
10
6.46367
20
-3.23712
11
6.46154
21
-3.23392
0
LINE
8
BLACK
6
CONTINUOUS
10
6.46154
20
-3.23392
11
6.46079
21
-3.23016
0
LINE
8
BLACK
6
CONTINUOUS
10
6.46079
20
-3.23016
11
6.46079
21
-3.14354
0
LINE
8
BLACK
6
CONTINUOUS
10
6.46079
20
-3.14354
11
6.46154
21
-3.13978
0
LINE
8
BLACK
6
CONTINUOUS
10
6.46154
20
-3.13978
11
6.46367
21
-3.13658
0
LINE
8
BLACK
6
CONTINUOUS
10
6.46367
20
-3.13658
11
6.46686
21
-3.13445
0
LINE
8
BLACK
6
CONTINUOUS
10
6.46686
20
-3.13445
11
6.47063
21
-3.1337
0
LINE
8
BLACK
6
CONTINUOUS
10
6.47063
20
-3.1337
11
6.49031
21
-3.1337
0
LINE
8
BLACK
6
CONTINUOUS
10
6.49031
20
-3.1337
11
6.49408
21
-3.13445
0
LINE
8
BLACK
6
CONTINUOUS
10
6.05314
20
-3.13445
11
6.05633
21
-3.13658
0
LINE
8
BLACK
6
CONTINUOUS
10
6.05633
20
-3.13658
11
6.05846
21
-3.13978
0
LINE
8
BLACK
6
CONTINUOUS
10
6.05846
20
-3.13978
11
6.05921
21
-3.14354
0
LINE
8
BLACK
6
CONTINUOUS
10
6.05921
20
-3.14354
11
6.05921
21
-3.23016
0
LINE
8
BLACK
6
CONTINUOUS
10
6.05921
20
-3.23016
11
6.05846
21
-3.23392
0
LINE
8
BLACK
6
CONTINUOUS
10
6.05846
20
-3.23392
11
6.05633
21
-3.23712
0
LINE
8
BLACK
6
CONTINUOUS
10
6.05633
20
-3.23712
11
6.05314
21
-3.23925
0
LINE
8
BLACK
6
CONTINUOUS
10
6.05314
20
-3.23925
11
6.04937
21
-3.24
0
LINE
8
BLACK
6
CONTINUOUS
10
6.04937
20
-3.24
11
6.02969
21
-3.24
0
LINE
8
BLACK
6
CONTINUOUS
10
6.02969
20
-3.24
11
6.02592
21
-3.23925
0
LINE
8
BLACK
6
CONTINUOUS
10
6.02592
20
-3.23925
11
6.02273
21
-3.23712
0
LINE
8
BLACK
6
CONTINUOUS
10
6.02273
20
-3.23712
11
6.02059
21
-3.23392
0
LINE
8
BLACK
6
CONTINUOUS
10
6.02059
20
-3.23392
11
6.01984
21
-3.23016
0
LINE
8
BLACK
6
CONTINUOUS
10
6.01984
20
-3.23016
11
6.01984
21
-3.14354
0
LINE
8
BLACK
6
CONTINUOUS
10
6.01984
20
-3.14354
11
6.02059
21
-3.13978
0
LINE
8
BLACK
6
CONTINUOUS
10
6.02059
20
-3.13978
11
6.02273
21
-3.13658
0
LINE
8
BLACK
6
CONTINUOUS
10
6.02273
20
-3.13658
11
6.02592
21
-3.13445
0
LINE
8
BLACK
6
CONTINUOUS
10
6.02592
20
-3.13445
11
6.02969
21
-3.1337
0
LINE
8
BLACK
6
CONTINUOUS
10
6.02969
20
-3.1337
11
6.04937
21
-3.1337
0
LINE
8
BLACK
6
CONTINUOUS
10
6.04937
20
-3.1337
11
6.05314
21
-3.13445
  0
ENDSEC
  0
EOF
