  0
SECTION
  2
HEADER
  9
$ANGBASE
  50
0.0
  9
$ANGDIR
  70
1
  9
$MEASUREMENT
  70
0
  0
ENDSEC
  0
SECTION
  2
TABLES
  0
TABLE
  2
LTYPE
  70
4
  0
LTYPE
  5
40F
  2
CONTINUOUS
  70
0
  3
Solid line
  72
65
  73
0
  40
0.0
  0
LTYPE
  5
410
  2
DASHDOT
 70
0
  3
Dash Dot ____ _ ____ _
 72
65
 73
4
 40
2.0
 49
1.25
 49
-0.25
 49
0.25
 49
-0.25
  0
LTYPE
  5
411
  2
DASHED
 70
0
  3
Dashed __ __ __ __ __
 72
65
 73
2
 40
0.75
 49
0.5
 49
-0.25
  0
LTYPE
  5
43B
  2
DOTTED
 70
0
  3
Dotted .  .  .  .
 72
65
 73
2
 40
0.2
 49
0.0
 49
-0.2
  0
ENDTAB
  0
TABLE
  2
STYLE
  70
4
  0
STYLE
  2
KICAD
  70
0
  40
0
  41
1
  42
1
  50
0
  71
0
  3
isocp.shx
  0
STYLE
  2
KICADB
  70
0
  40
0
  41
1
  42
1
  50
0
  71
0
  3
isocp.shx
  0
STYLE
  2
KICADI
  70
0
  40
0
  41
1
  42
1
  50
15
  71
0
  3
isocp.shx
  0
STYLE
  2
KICADBI
  70
0
  40
0
  41
1
  42
1
  50
15
  71
0
  3
isocp.shx
  0
ENDTAB
  0
TABLE
  2
LAYER
  70
1
  0
LAYER
  2
BLACK
  70
0
  62
7
  6
CONTINUOUS
  0
ENDTAB
  0
ENDSEC
  0
SECTION
  2
ENTITIES
0
LINE
8
BLACK
6
CONTINUOUS
10
7.47343
20
-4.5937
11
7.47343
21
-4.60059
0
LINE
8
BLACK
6
CONTINUOUS
10
7.47343
20
-4.60059
11
7.5
21
-4.60059
0
LINE
8
BLACK
6
CONTINUOUS
10
7.5
20
-4.60059
11
7.5007
21
-4.60088
0
LINE
8
BLACK
6
CONTINUOUS
10
7.5007
20
-4.60088
11
7.50098
21
-4.60157
0
LINE
8
BLACK
6
CONTINUOUS
10
7.50098
20
-4.60157
11
7.50098
21
-4.72756
0
LINE
8
BLACK
6
CONTINUOUS
10
7.50098
20
-4.72756
11
7.5007
21
-4.72826
0
LINE
8
BLACK
6
CONTINUOUS
10
7.5007
20
-4.72826
11
7.5
21
-4.72854
0
LINE
8
BLACK
6
CONTINUOUS
10
7.5
20
-4.72854
11
7.47343
21
-4.72854
0
LINE
8
BLACK
6
CONTINUOUS
10
7.47343
20
-4.72854
11
7.47343
21
-4.73543
0
LINE
8
BLACK
6
CONTINUOUS
10
7.47343
20
-4.73543
11
7.47314
21
-4.73613
0
LINE
8
BLACK
6
CONTINUOUS
10
7.47314
20
-4.73613
11
7.47244
21
-4.73642
0
LINE
8
BLACK
6
CONTINUOUS
10
7.47244
20
-4.73642
11
7.33071
21
-4.73642
0
LINE
8
BLACK
6
CONTINUOUS
10
7.33071
20
-4.73642
11
7.33001
21
-4.73613
0
LINE
8
BLACK
6
CONTINUOUS
10
7.33001
20
-4.73613
11
7.32972
21
-4.73543
0
LINE
8
BLACK
6
CONTINUOUS
10
7.32972
20
-4.73543
11
7.32972
21
-4.72854
0
LINE
8
BLACK
6
CONTINUOUS
10
7.32972
20
-4.72854
11
7.30315
21
-4.72854
0
LINE
8
BLACK
6
CONTINUOUS
10
7.30315
20
-4.72854
11
7.30245
21
-4.72826
0
LINE
8
BLACK
6
CONTINUOUS
10
7.30245
20
-4.72826
11
7.30217
21
-4.72756
0
LINE
8
BLACK
6
CONTINUOUS
10
7.30217
20
-4.72756
11
7.30217
21
-4.60157
0
LINE
8
BLACK
6
CONTINUOUS
10
7.30217
20
-4.60157
11
7.30245
21
-4.60088
0
LINE
8
BLACK
6
CONTINUOUS
10
7.30245
20
-4.60088
11
7.30315
21
-4.60059
0
LINE
8
BLACK
6
CONTINUOUS
10
7.30315
20
-4.60059
11
7.32972
21
-4.60059
0
LINE
8
BLACK
6
CONTINUOUS
10
7.32972
20
-4.60059
11
7.32972
21
-4.5937
0
LINE
8
BLACK
6
CONTINUOUS
10
7.32972
20
-4.5937
11
7.33001
21
-4.593
0
LINE
8
BLACK
6
CONTINUOUS
10
7.33001
20
-4.593
11
7.33071
21
-4.59272
0
LINE
8
BLACK
6
CONTINUOUS
10
7.33071
20
-4.59272
11
7.36122
21
-4.59272
0
LINE
8
BLACK
6
CONTINUOUS
10
7.36122
20
-4.59272
11
7.36122
21
-4.56614
0
LINE
8
BLACK
6
CONTINUOUS
10
7.36122
20
-4.56614
11
7.36151
21
-4.56545
0
LINE
8
BLACK
6
CONTINUOUS
10
7.36151
20
-4.56545
11
7.3622
21
-4.56516
0
LINE
8
BLACK
6
CONTINUOUS
10
7.3622
20
-4.56516
11
7.44094
21
-4.56516
0
LINE
8
BLACK
6
CONTINUOUS
10
7.44094
20
-4.56516
11
7.44164
21
-4.56545
0
LINE
8
BLACK
6
CONTINUOUS
10
7.44164
20
-4.56545
11
7.44193
21
-4.56614
0
LINE
8
BLACK
6
CONTINUOUS
10
7.44193
20
-4.56614
11
7.44193
21
-4.59272
0
LINE
8
BLACK
6
CONTINUOUS
10
7.44193
20
-4.59272
11
7.47244
21
-4.59272
0
LINE
8
BLACK
6
CONTINUOUS
10
7.47244
20
-4.59272
11
7.47314
21
-4.593
0
LINE
8
BLACK
6
CONTINUOUS
10
7.47314
20
-4.593
11
7.47343
21
-4.5937
0
LINE
8
BLACK
6
CONTINUOUS
10
7.33169
20
-4.60157
11
7.3314
21
-4.60227
0
LINE
8
BLACK
6
CONTINUOUS
10
7.3314
20
-4.60227
11
7.33071
21
-4.60256
0
LINE
8
BLACK
6
CONTINUOUS
10
7.33071
20
-4.60256
11
7.30413
21
-4.60256
0
LINE
8
BLACK
6
CONTINUOUS
10
7.30413
20
-4.60256
11
7.30413
21
-4.72657
0
LINE
8
BLACK
6
CONTINUOUS
10
7.30413
20
-4.72657
11
7.33071
21
-4.72657
0
LINE
8
BLACK
6
CONTINUOUS
10
7.33071
20
-4.72657
11
7.3314
21
-4.72686
0
LINE
8
BLACK
6
CONTINUOUS
10
7.3314
20
-4.72686
11
7.33169
21
-4.72756
0
LINE
8
BLACK
6
CONTINUOUS
10
7.33169
20
-4.72756
11
7.33169
21
-4.73445
0
LINE
8
BLACK
6
CONTINUOUS
10
7.33169
20
-4.73445
11
7.47146
21
-4.73445
0
LINE
8
BLACK
6
CONTINUOUS
10
7.47146
20
-4.73445
11
7.47146
21
-4.72756
0
LINE
8
BLACK
6
CONTINUOUS
10
7.47146
20
-4.72756
11
7.47174
21
-4.72686
0
LINE
8
BLACK
6
CONTINUOUS
10
7.47174
20
-4.72686
11
7.47244
21
-4.72657
0
LINE
8
BLACK
6
CONTINUOUS
10
7.47244
20
-4.72657
11
7.49902
21
-4.72657
0
LINE
8
BLACK
6
CONTINUOUS
10
7.49902
20
-4.72657
11
7.49902
21
-4.60256
0
LINE
8
BLACK
6
CONTINUOUS
10
7.49902
20
-4.60256
11
7.47244
21
-4.60256
0
LINE
8
BLACK
6
CONTINUOUS
10
7.47244
20
-4.60256
11
7.47174
21
-4.60227
0
LINE
8
BLACK
6
CONTINUOUS
10
7.47174
20
-4.60227
11
7.47146
21
-4.60157
0
LINE
8
BLACK
6
CONTINUOUS
10
7.47146
20
-4.60157
11
7.47146
21
-4.59469
0
LINE
8
BLACK
6
CONTINUOUS
10
7.47146
20
-4.59469
11
7.44094
21
-4.59469
0
LINE
8
BLACK
6
CONTINUOUS
10
7.44094
20
-4.59469
11
7.44025
21
-4.5944
0
LINE
8
BLACK
6
CONTINUOUS
10
7.44025
20
-4.5944
11
7.43996
21
-4.5937
0
LINE
8
BLACK
6
CONTINUOUS
10
7.43996
20
-4.5937
11
7.43996
21
-4.56713
0
LINE
8
BLACK
6
CONTINUOUS
10
7.43996
20
-4.56713
11
7.36319
21
-4.56713
0
LINE
8
BLACK
6
CONTINUOUS
10
7.36319
20
-4.56713
11
7.36319
21
-4.5937
0
LINE
8
BLACK
6
CONTINUOUS
10
7.36319
20
-4.5937
11
7.3629
21
-4.5944
0
LINE
8
BLACK
6
CONTINUOUS
10
7.3629
20
-4.5944
11
7.3622
21
-4.59469
0
LINE
8
BLACK
6
CONTINUOUS
10
7.3622
20
-4.59469
11
7.33169
21
-4.59469
0
LINE
8
BLACK
6
CONTINUOUS
10
7.33169
20
-4.59469
11
7.33169
21
-4.60157
0
LINE
8
BLACK
6
CONTINUOUS
10
7.50098
20
-3.54016
11
7.50098
21
-3.66614
0
LINE
8
BLACK
6
CONTINUOUS
10
7.50098
20
-3.66614
11
7.5007
21
-3.66684
0
LINE
8
BLACK
6
CONTINUOUS
10
7.5007
20
-3.66684
11
7.5
21
-3.66713
0
LINE
8
BLACK
6
CONTINUOUS
10
7.5
20
-3.66713
11
7.47343
21
-3.66713
0
LINE
8
BLACK
6
CONTINUOUS
10
7.47343
20
-3.66713
11
7.47343
21
-3.67402
0
LINE
8
BLACK
6
CONTINUOUS
10
7.47343
20
-3.67402
11
7.47314
21
-3.67471
0
LINE
8
BLACK
6
CONTINUOUS
10
7.47314
20
-3.67471
11
7.47244
21
-3.675
0
LINE
8
BLACK
6
CONTINUOUS
10
7.47244
20
-3.675
11
7.44193
21
-3.675
0
LINE
8
BLACK
6
CONTINUOUS
10
7.44193
20
-3.675
11
7.44193
21
-3.70157
0
LINE
8
BLACK
6
CONTINUOUS
10
7.44193
20
-3.70157
11
7.44164
21
-3.70227
0
LINE
8
BLACK
6
CONTINUOUS
10
7.44164
20
-3.70227
11
7.44094
21
-3.70256
0
LINE
8
BLACK
6
CONTINUOUS
10
7.44094
20
-3.70256
11
7.3622
21
-3.70256
0
LINE
8
BLACK
6
CONTINUOUS
10
7.3622
20
-3.70256
11
7.36151
21
-3.70227
0
LINE
8
BLACK
6
CONTINUOUS
10
7.36151
20
-3.70227
11
7.36122
21
-3.70157
0
LINE
8
BLACK
6
CONTINUOUS
10
7.36122
20
-3.70157
11
7.36122
21
-3.675
0
LINE
8
BLACK
6
CONTINUOUS
10
7.36122
20
-3.675
11
7.33071
21
-3.675
0
LINE
8
BLACK
6
CONTINUOUS
10
7.33071
20
-3.675
11
7.33001
21
-3.67471
0
LINE
8
BLACK
6
CONTINUOUS
10
7.33001
20
-3.67471
11
7.32972
21
-3.67402
0
LINE
8
BLACK
6
CONTINUOUS
10
7.32972
20
-3.67402
11
7.32972
21
-3.66713
0
LINE
8
BLACK
6
CONTINUOUS
10
7.32972
20
-3.66713
11
7.30315
21
-3.66713
0
LINE
8
BLACK
6
CONTINUOUS
10
7.30315
20
-3.66713
11
7.30245
21
-3.66684
0
LINE
8
BLACK
6
CONTINUOUS
10
7.30245
20
-3.66684
11
7.30217
21
-3.66614
0
LINE
8
BLACK
6
CONTINUOUS
10
7.30217
20
-3.66614
11
7.30217
21
-3.54016
0
LINE
8
BLACK
6
CONTINUOUS
10
7.30217
20
-3.54016
11
7.30245
21
-3.53946
0
LINE
8
BLACK
6
CONTINUOUS
10
7.30245
20
-3.53946
11
7.30315
21
-3.53917
0
LINE
8
BLACK
6
CONTINUOUS
10
7.30315
20
-3.53917
11
7.32972
21
-3.53917
0
LINE
8
BLACK
6
CONTINUOUS
10
7.32972
20
-3.53917
11
7.32972
21
-3.53228
0
LINE
8
BLACK
6
CONTINUOUS
10
7.32972
20
-3.53228
11
7.33001
21
-3.53159
0
LINE
8
BLACK
6
CONTINUOUS
10
7.33001
20
-3.53159
11
7.33071
21
-3.5313
0
LINE
8
BLACK
6
CONTINUOUS
10
7.33071
20
-3.5313
11
7.47244
21
-3.5313
0
LINE
8
BLACK
6
CONTINUOUS
10
7.47244
20
-3.5313
11
7.47314
21
-3.53159
0
LINE
8
BLACK
6
CONTINUOUS
10
7.47314
20
-3.53159
11
7.47343
21
-3.53228
0
LINE
8
BLACK
6
CONTINUOUS
10
7.47343
20
-3.53228
11
7.47343
21
-3.53917
0
LINE
8
BLACK
6
CONTINUOUS
10
7.47343
20
-3.53917
11
7.5
21
-3.53917
0
LINE
8
BLACK
6
CONTINUOUS
10
7.5
20
-3.53917
11
7.5007
21
-3.53946
0
LINE
8
BLACK
6
CONTINUOUS
10
7.5007
20
-3.53946
11
7.50098
21
-3.54016
0
LINE
8
BLACK
6
CONTINUOUS
10
7.30413
20
-3.66516
11
7.33071
21
-3.66516
0
LINE
8
BLACK
6
CONTINUOUS
10
7.33071
20
-3.66516
11
7.3314
21
-3.66545
0
LINE
8
BLACK
6
CONTINUOUS
10
7.3314
20
-3.66545
11
7.33169
21
-3.66614
0
LINE
8
BLACK
6
CONTINUOUS
10
7.33169
20
-3.66614
11
7.33169
21
-3.67303
0
LINE
8
BLACK
6
CONTINUOUS
10
7.33169
20
-3.67303
11
7.3622
21
-3.67303
0
LINE
8
BLACK
6
CONTINUOUS
10
7.3622
20
-3.67303
11
7.3629
21
-3.67332
0
LINE
8
BLACK
6
CONTINUOUS
10
7.3629
20
-3.67332
11
7.36319
21
-3.67402
0
LINE
8
BLACK
6
CONTINUOUS
10
7.36319
20
-3.67402
11
7.36319
21
-3.70059
0
LINE
8
BLACK
6
CONTINUOUS
10
7.36319
20
-3.70059
11
7.43996
21
-3.70059
0
LINE
8
BLACK
6
CONTINUOUS
10
7.43996
20
-3.70059
11
7.43996
21
-3.67402
0
LINE
8
BLACK
6
CONTINUOUS
10
7.43996
20
-3.67402
11
7.44025
21
-3.67332
0
LINE
8
BLACK
6
CONTINUOUS
10
7.44025
20
-3.67332
11
7.44094
21
-3.67303
0
LINE
8
BLACK
6
CONTINUOUS
10
7.44094
20
-3.67303
11
7.47146
21
-3.67303
0
LINE
8
BLACK
6
CONTINUOUS
10
7.47146
20
-3.67303
11
7.47146
21
-3.66614
0
LINE
8
BLACK
6
CONTINUOUS
10
7.47146
20
-3.66614
11
7.47174
21
-3.66545
0
LINE
8
BLACK
6
CONTINUOUS
10
7.47174
20
-3.66545
11
7.47244
21
-3.66516
0
LINE
8
BLACK
6
CONTINUOUS
10
7.47244
20
-3.66516
11
7.49902
21
-3.66516
0
LINE
8
BLACK
6
CONTINUOUS
10
7.49902
20
-3.66516
11
7.49902
21
-3.54114
0
LINE
8
BLACK
6
CONTINUOUS
10
7.49902
20
-3.54114
11
7.47244
21
-3.54114
0
LINE
8
BLACK
6
CONTINUOUS
10
7.47244
20
-3.54114
11
7.47174
21
-3.54085
0
LINE
8
BLACK
6
CONTINUOUS
10
7.47174
20
-3.54085
11
7.47146
21
-3.54016
0
LINE
8
BLACK
6
CONTINUOUS
10
7.47146
20
-3.54016
11
7.47146
21
-3.53327
0
LINE
8
BLACK
6
CONTINUOUS
10
7.47146
20
-3.53327
11
7.33169
21
-3.53327
0
LINE
8
BLACK
6
CONTINUOUS
10
7.33169
20
-3.53327
11
7.33169
21
-3.54016
0
LINE
8
BLACK
6
CONTINUOUS
10
7.33169
20
-3.54016
11
7.3314
21
-3.54085
0
LINE
8
BLACK
6
CONTINUOUS
10
7.3314
20
-3.54085
11
7.33071
21
-3.54114
0
LINE
8
BLACK
6
CONTINUOUS
10
7.33071
20
-3.54114
11
7.30413
21
-3.54114
0
LINE
8
BLACK
6
CONTINUOUS
10
7.30413
20
-3.54114
11
7.30413
21
-3.66516
0
LINE
8
BLACK
6
CONTINUOUS
10
5.99946
20
-3.36668
11
5.99917
21
-3.36598
0
LINE
8
BLACK
6
CONTINUOUS
10
5.99917
20
-3.36598
11
5.99917
21
-3.11402
0
LINE
8
BLACK
6
CONTINUOUS
10
5.99917
20
-3.11402
11
5.99946
21
-3.11332
0
LINE
8
BLACK
6
CONTINUOUS
10
5.99946
20
-3.11332
11
6.00016
21
-3.11303
0
LINE
8
BLACK
6
CONTINUOUS
10
6.00016
20
-3.11303
11
6.51984
21
-3.11303
0
LINE
8
BLACK
6
CONTINUOUS
10
6.51984
20
-3.11303
11
6.52054
21
-3.11332
0
LINE
8
BLACK
6
CONTINUOUS
10
6.52054
20
-3.11332
11
6.52083
21
-3.11402
0
LINE
8
BLACK
6
CONTINUOUS
10
6.52083
20
-3.11402
11
6.52083
21
-3.36598
0
LINE
8
BLACK
6
CONTINUOUS
10
6.52083
20
-3.36598
11
6.52054
21
-3.36668
0
LINE
8
BLACK
6
CONTINUOUS
10
6.52054
20
-3.36668
11
6.51984
21
-3.36697
0
LINE
8
BLACK
6
CONTINUOUS
10
6.51984
20
-3.36697
11
6.00016
21
-3.36697
0
LINE
8
BLACK
6
CONTINUOUS
10
6.00016
20
-3.36697
11
5.99946
21
-3.36668
0
LINE
8
BLACK
6
CONTINUOUS
10
6.00114
20
-3.115
11
6.00114
21
-3.365
0
LINE
8
BLACK
6
CONTINUOUS
10
6.00114
20
-3.365
11
6.51886
21
-3.365
0
LINE
8
BLACK
6
CONTINUOUS
10
6.51886
20
-3.365
11
6.51886
21
-3.115
0
LINE
8
BLACK
6
CONTINUOUS
10
6.51886
20
-3.115
11
6.00114
21
-3.115
  0
ENDSEC
  0
EOF
