  0
SECTION
  2
HEADER
  9
$ANGBASE
  50
0.0
  9
$ANGDIR
  70
1
  9
$MEASUREMENT
  70
0
  0
ENDSEC
  0
SECTION
  2
TABLES
  0
TABLE
  2
LTYPE
  70
4
  0
LTYPE
  5
40F
  2
CONTINUOUS
  70
0
  3
Solid line
  72
65
  73
0
  40
0.0
  0
LTYPE
  5
410
  2
DASHDOT
 70
0
  3
Dash Dot ____ _ ____ _
 72
65
 73
4
 40
2.0
 49
1.25
 49
-0.25
 49
0.25
 49
-0.25
  0
LTYPE
  5
411
  2
DASHED
 70
0
  3
Dashed __ __ __ __ __
 72
65
 73
2
 40
0.75
 49
0.5
 49
-0.25
  0
LTYPE
  5
43B
  2
DOTTED
 70
0
  3
Dotted .  .  .  .
 72
65
 73
2
 40
0.2
 49
0.0
 49
-0.2
  0
ENDTAB
  0
TABLE
  2
STYLE
  70
4
  0
STYLE
  2
KICAD
  70
0
  40
0
  41
1
  42
1
  50
0
  71
0
  3
isocp.shx
  0
STYLE
  2
KICADB
  70
0
  40
0
  41
1
  42
1
  50
0
  71
0
  3
isocp.shx
  0
STYLE
  2
KICADI
  70
0
  40
0
  41
1
  42
1
  50
15
  71
0
  3
isocp.shx
  0
STYLE
  2
KICADBI
  70
0
  40
0
  41
1
  42
1
  50
15
  71
0
  3
isocp.shx
  0
ENDTAB
  0
TABLE
  2
LAYER
  70
1
  0
LAYER
  2
BLACK
  70
0
  62
7
  6
CONTINUOUS
  0
ENDTAB
  0
ENDSEC
  0
SECTION
  2
ENTITIES
0
LINE
8
BLACK
6
CONTINUOUS
10
5.9703766535433074
20
-4.9018465748031499
11
5.9709093307086611
21
-4.9023792519685037
0
LINE
8
BLACK
6
CONTINUOUS
10
5.9709093307086611
20
-4.9023792519685037
11
5.9709842519685035
21
-4.9027559055118113
0
LINE
8
BLACK
6
CONTINUOUS
10
5.9709842519685035
20
-4.9027559055118113
11
5.9709842519685035
21
-5.0232283464566931
0
LINE
8
BLACK
6
CONTINUOUS
10
5.9709842519685035
20
-5.0232283464566931
11
5.9709093307086611
21
-5.0236049999999999
0
LINE
8
BLACK
6
CONTINUOUS
10
5.9709093307086611
20
-5.0236049999999999
11
5.9703766535433074
21
-5.0241376771653545
0
LINE
8
BLACK
6
CONTINUOUS
10
5.9703766535433074
20
-5.0241376771653545
11
5.9699999999999998
21
-5.0242125984251969
0
LINE
8
BLACK
6
CONTINUOUS
10
5.9699999999999998
20
-5.0242125984251969
11
5.8298425196850392
21
-5.0242125984251969
0
LINE
8
BLACK
6
CONTINUOUS
10
5.8298425196850392
20
-5.0242125984251969
11
5.8294658661417325
21
-5.0241376771653545
0
LINE
8
BLACK
6
CONTINUOUS
10
5.8294658661417325
20
-5.0241376771653545
11
5.8289331889763778
21
-5.0236049999999999
0
LINE
8
BLACK
6
CONTINUOUS
10
5.8289331889763778
20
-5.0236049999999999
11
5.8288582677165355
21
-5.0232283464566931
0
LINE
8
BLACK
6
CONTINUOUS
10
5.8288582677165355
20
-5.0232283464566931
11
5.8288582677165355
21
-4.9027559055118113
0
LINE
8
BLACK
6
CONTINUOUS
10
5.8288582677165355
20
-4.9027559055118113
11
5.8289331889763778
21
-4.9023792519685037
0
LINE
8
BLACK
6
CONTINUOUS
10
5.8289331889763778
20
-4.9023792519685037
11
5.8294658661417325
21
-4.9018465748031499
0
LINE
8
BLACK
6
CONTINUOUS
10
5.8294658661417325
20
-4.9018465748031499
11
5.8298425196850392
21
-4.9017716535433067
0
LINE
8
BLACK
6
CONTINUOUS
10
5.8298425196850392
20
-4.9017716535433067
11
5.9699999999999998
21
-4.9017716535433067
0
LINE
8
BLACK
6
CONTINUOUS
10
5.9699999999999998
20
-4.9017716535433067
11
5.9703766535433074
21
-4.9018465748031499
0
LINE
8
BLACK
6
CONTINUOUS
10
5.8308267716535429
20
-4.903740157480315
11
5.8308267716535429
21
-5.0222440944881885
0
LINE
8
BLACK
6
CONTINUOUS
10
5.8308267716535429
20
-5.0222440944881885
11
5.969015748031496
21
-5.0222440944881885
0
LINE
8
BLACK
6
CONTINUOUS
10
5.969015748031496
20
-5.0222440944881885
11
5.969015748031496
21
-4.903740157480315
0
LINE
8
BLACK
6
CONTINUOUS
10
5.969015748031496
20
-4.903740157480315
11
5.8308267716535429
21
-4.903740157480315
0
LINE
8
BLACK
6
CONTINUOUS
10
5.8266758661417324
20
-4.8341300393700788
11
5.8272085433070862
21
-4.8346627165354326
0
LINE
8
BLACK
6
CONTINUOUS
10
5.8272085433070862
20
-4.8346627165354326
11
5.8272834645669294
21
-4.8350393700787402
0
LINE
8
BLACK
6
CONTINUOUS
10
5.8272834645669294
20
-4.8350393700787402
11
5.8272834645669294
21
-4.9649606299212596
0
LINE
8
BLACK
6
CONTINUOUS
10
5.8272834645669294
20
-4.9649606299212596
11
5.8272085433070862
21
-4.9653372834645664
0
LINE
8
BLACK
6
CONTINUOUS
10
5.8272085433070862
20
-4.9653372834645664
11
5.8266758661417324
21
-4.965869960629921
0
LINE
8
BLACK
6
CONTINUOUS
10
5.8266758661417324
20
-4.965869960629921
11
5.8262992125984248
21
-4.9659448818897634
0
LINE
8
BLACK
6
CONTINUOUS
10
5.8262992125984248
20
-4.9659448818897634
11
5.7688188976377948
21
-4.9659448818897634
0
LINE
8
BLACK
6
CONTINUOUS
10
5.7688188976377948
20
-4.9659448818897634
11
5.768442244094488
21
-4.965869960629921
0
LINE
8
BLACK
6
CONTINUOUS
10
5.768442244094488
20
-4.965869960629921
11
5.7679095669291334
21
-4.9653372834645664
0
LINE
8
BLACK
6
CONTINUOUS
10
5.7679095669291334
20
-4.9653372834645664
11
5.767834645669291
21
-4.9649606299212596
0
LINE
8
BLACK
6
CONTINUOUS
10
5.767834645669291
20
-4.9649606299212596
11
5.767834645669291
21
-4.8350393700787402
0
LINE
8
BLACK
6
CONTINUOUS
10
5.767834645669291
20
-4.8350393700787402
11
5.7679095669291334
21
-4.8346627165354326
0
LINE
8
BLACK
6
CONTINUOUS
10
5.7679095669291334
20
-4.8346627165354326
11
5.768442244094488
21
-4.8341300393700788
0
LINE
8
BLACK
6
CONTINUOUS
10
5.768442244094488
20
-4.8341300393700788
11
5.7688188976377948
21
-4.8340551181102365
0
LINE
8
BLACK
6
CONTINUOUS
10
5.7688188976377948
20
-4.8340551181102365
11
5.8262992125984248
21
-4.8340551181102365
0
LINE
8
BLACK
6
CONTINUOUS
10
5.8262992125984248
20
-4.8340551181102365
11
5.8266758661417324
21
-4.8341300393700788
0
LINE
8
BLACK
6
CONTINUOUS
10
5.7698031496062994
20
-4.8360236220472439
11
5.7698031496062994
21
-4.9639763779527559
0
LINE
8
BLACK
6
CONTINUOUS
10
5.7698031496062994
20
-4.9639763779527559
11
5.825314960629921
21
-4.9639763779527559
0
LINE
8
BLACK
6
CONTINUOUS
10
5.825314960629921
20
-4.9639763779527559
11
5.825314960629921
21
-4.8360236220472439
0
LINE
8
BLACK
6
CONTINUOUS
10
5.825314960629921
20
-4.8360236220472439
11
5.7698031496062994
21
-4.8360236220472439
0
LINE
8
BLACK
6
CONTINUOUS
10
6.0314002755905509
20
-4.8341300393700788
11
6.0319329527559056
21
-4.8346627165354326
0
LINE
8
BLACK
6
CONTINUOUS
10
6.0319329527559056
20
-4.8346627165354326
11
6.0320078740157479
21
-4.8350393700787402
0
LINE
8
BLACK
6
CONTINUOUS
10
6.0320078740157479
20
-4.8350393700787402
11
6.0320078740157479
21
-4.9649606299212596
0
LINE
8
BLACK
6
CONTINUOUS
10
6.0320078740157479
20
-4.9649606299212596
11
6.0319329527559056
21
-4.9653372834645664
0
LINE
8
BLACK
6
CONTINUOUS
10
6.0319329527559056
20
-4.9653372834645664
11
6.0314002755905509
21
-4.965869960629921
0
LINE
8
BLACK
6
CONTINUOUS
10
6.0314002755905509
20
-4.965869960629921
11
6.0310236220472442
21
-4.9659448818897634
0
LINE
8
BLACK
6
CONTINUOUS
10
6.0310236220472442
20
-4.9659448818897634
11
5.9735433070866142
21
-4.9659448818897634
0
LINE
8
BLACK
6
CONTINUOUS
10
5.9735433070866142
20
-4.9659448818897634
11
5.9731666535433066
21
-4.965869960629921
0
LINE
8
BLACK
6
CONTINUOUS
10
5.9731666535433066
20
-4.965869960629921
11
5.9726339763779528
21
-4.9653372834645664
0
LINE
8
BLACK
6
CONTINUOUS
10
5.9726339763779528
20
-4.9653372834645664
11
5.9725590551181105
21
-4.9649606299212596
0
LINE
8
BLACK
6
CONTINUOUS
10
5.9725590551181105
20
-4.9649606299212596
11
5.9725590551181105
21
-4.8350393700787402
0
LINE
8
BLACK
6
CONTINUOUS
10
5.9725590551181105
20
-4.8350393700787402
11
5.9726339763779528
21
-4.8346627165354326
0
LINE
8
BLACK
6
CONTINUOUS
10
5.9726339763779528
20
-4.8346627165354326
11
5.9731666535433066
21
-4.8341300393700788
0
LINE
8
BLACK
6
CONTINUOUS
10
5.9731666535433066
20
-4.8341300393700788
11
5.9735433070866142
21
-4.8340551181102365
0
LINE
8
BLACK
6
CONTINUOUS
10
5.9735433070866142
20
-4.8340551181102365
11
6.0310236220472442
21
-4.8340551181102365
0
LINE
8
BLACK
6
CONTINUOUS
10
6.0310236220472442
20
-4.8340551181102365
11
6.0314002755905509
21
-4.8341300393700788
0
LINE
8
BLACK
6
CONTINUOUS
10
5.9745275590551179
20
-4.8360236220472439
11
5.9745275590551179
21
-4.9639763779527559
0
LINE
8
BLACK
6
CONTINUOUS
10
5.9745275590551179
20
-4.9639763779527559
11
6.0300393700787396
21
-4.9639763779527559
0
LINE
8
BLACK
6
CONTINUOUS
10
6.0300393700787396
20
-4.9639763779527559
11
6.0300393700787396
21
-4.8360236220472439
0
LINE
8
BLACK
6
CONTINUOUS
10
6.0300393700787396
20
-4.8360236220472439
11
5.9745275590551179
21
-4.8360236220472439
0
LINE
8
BLACK
6
CONTINUOUS
10
6.1729357086614174
20
-4.8304292519685035
11
6.1734683858267712
21
-4.8309619291338581
0
LINE
8
BLACK
6
CONTINUOUS
10
6.1734683858267712
20
-4.8309619291338581
11
6.1735433070866144
21
-4.8313385826771649
0
LINE
8
BLACK
6
CONTINUOUS
10
6.1735433070866144
20
-4.8313385826771649
11
6.1735433070866144
21
-4.8888188976377949
0
LINE
8
BLACK
6
CONTINUOUS
10
6.1735433070866144
20
-4.8888188976377949
11
6.1734683858267712
21
-4.8891955511811025
0
LINE
8
BLACK
6
CONTINUOUS
10
6.1734683858267712
20
-4.8891955511811025
11
6.1729357086614174
21
-4.8897282283464563
0
LINE
8
BLACK
6
CONTINUOUS
10
6.1729357086614174
20
-4.8897282283464563
11
6.1725590551181098
21
-4.8898031496062995
0
LINE
8
BLACK
6
CONTINUOUS
10
6.1725590551181098
20
-4.8898031496062995
11
6.0426377952755903
21
-4.8898031496062995
0
LINE
8
BLACK
6
CONTINUOUS
10
6.0426377952755903
20
-4.8898031496062995
11
6.0422611417322836
21
-4.8897282283464563
0
LINE
8
BLACK
6
CONTINUOUS
10
6.0422611417322836
20
-4.8897282283464563
11
6.0417284645669289
21
-4.8891955511811025
0
LINE
8
BLACK
6
CONTINUOUS
10
6.0417284645669289
20
-4.8891955511811025
11
6.0416535433070866
21
-4.8888188976377949
0
LINE
8
BLACK
6
CONTINUOUS
10
6.0416535433070866
20
-4.8888188976377949
11
6.0416535433070866
21
-4.8313385826771649
0
LINE
8
BLACK
6
CONTINUOUS
10
6.0416535433070866
20
-4.8313385826771649
11
6.0417284645669289
21
-4.8309619291338581
0
LINE
8
BLACK
6
CONTINUOUS
10
6.0417284645669289
20
-4.8309619291338581
11
6.0422611417322836
21
-4.8304292519685035
0
LINE
8
BLACK
6
CONTINUOUS
10
6.0422611417322836
20
-4.8304292519685035
11
6.0426377952755903
21
-4.8303543307086612
0
LINE
8
BLACK
6
CONTINUOUS
10
6.0426377952755903
20
-4.8303543307086612
11
6.1725590551181098
21
-4.8303543307086612
0
LINE
8
BLACK
6
CONTINUOUS
10
6.1725590551181098
20
-4.8303543307086612
11
6.1729357086614174
21
-4.8304292519685035
0
LINE
8
BLACK
6
CONTINUOUS
10
6.043622047244094
20
-4.8323228346456695
11
6.043622047244094
21
-4.8878346456692912
0
LINE
8
BLACK
6
CONTINUOUS
10
6.043622047244094
20
-4.8878346456692912
11
6.171574803149606
21
-4.8878346456692912
0
LINE
8
BLACK
6
CONTINUOUS
10
6.171574803149606
20
-4.8878346456692912
11
6.171574803149606
21
-4.8323228346456695
0
LINE
8
BLACK
6
CONTINUOUS
10
6.171574803149606
20
-4.8323228346456695
11
6.043622047244094
21
-4.8323228346456695
0
LINE
8
BLACK
6
CONTINUOUS
10
6.4369120866141731
20
-4.7435788582677167
11
6.4374447637795278
21
-4.7441115354330705
0
LINE
8
BLACK
6
CONTINUOUS
10
6.4374447637795278
20
-4.7441115354330705
11
6.4375196850393701
21
-4.7444881889763781
0
LINE
8
BLACK
6
CONTINUOUS
10
6.4375196850393701
20
-4.7444881889763781
11
6.4375196850393701
21
-4.8744094488188976
0
LINE
8
BLACK
6
CONTINUOUS
10
6.4375196850393701
20
-4.8744094488188976
11
6.4374447637795278
21
-4.8747861023622043
0
LINE
8
BLACK
6
CONTINUOUS
10
6.4374447637795278
20
-4.8747861023622043
11
6.4369120866141731
21
-4.875318779527559
0
LINE
8
BLACK
6
CONTINUOUS
10
6.4369120866141731
20
-4.875318779527559
11
6.4365354330708664
21
-4.8753937007874013
0
LINE
8
BLACK
6
CONTINUOUS
10
6.4365354330708664
20
-4.8753937007874013
11
6.3790551181102364
21
-4.8753937007874013
0
LINE
8
BLACK
6
CONTINUOUS
10
6.3790551181102364
20
-4.8753937007874013
11
6.3786784645669288
21
-4.875318779527559
0
LINE
8
BLACK
6
CONTINUOUS
10
6.3786784645669288
20
-4.875318779527559
11
6.378145787401575
21
-4.8747861023622043
0
LINE
8
BLACK
6
CONTINUOUS
10
6.378145787401575
20
-4.8747861023622043
11
6.3780708661417318
21
-4.8744094488188976
0
LINE
8
BLACK
6
CONTINUOUS
10
6.3780708661417318
20
-4.8744094488188976
11
6.3780708661417318
21
-4.7444881889763781
0
LINE
8
BLACK
6
CONTINUOUS
10
6.3780708661417318
20
-4.7444881889763781
11
6.378145787401575
21
-4.7441115354330705
0
LINE
8
BLACK
6
CONTINUOUS
10
6.378145787401575
20
-4.7441115354330705
11
6.3786784645669288
21
-4.7435788582677167
0
LINE
8
BLACK
6
CONTINUOUS
10
6.3786784645669288
20
-4.7435788582677167
11
6.3790551181102364
21
-4.7435039370078735
0
LINE
8
BLACK
6
CONTINUOUS
10
6.3790551181102364
20
-4.7435039370078735
11
6.4365354330708664
21
-4.7435039370078735
0
LINE
8
BLACK
6
CONTINUOUS
10
6.4365354330708664
20
-4.7435039370078735
11
6.4369120866141731
21
-4.7435788582677167
0
LINE
8
BLACK
6
CONTINUOUS
10
6.3800393700787401
20
-4.7454724409448819
11
6.3800393700787401
21
-4.8734251968503939
0
LINE
8
BLACK
6
CONTINUOUS
10
6.3800393700787401
20
-4.8734251968503939
11
6.4355511811023618
21
-4.8734251968503939
0
LINE
8
BLACK
6
CONTINUOUS
10
6.4355511811023618
20
-4.8734251968503939
11
6.4355511811023618
21
-4.7454724409448819
0
LINE
8
BLACK
6
CONTINUOUS
10
6.4355511811023618
20
-4.7454724409448819
11
6.3800393700787401
21
-4.7454724409448819
0
LINE
8
BLACK
6
CONTINUOUS
10
6.1729357086614174
20
-4.7635001181102359
11
6.1734683858267712
21
-4.7640327952755905
0
LINE
8
BLACK
6
CONTINUOUS
10
6.1734683858267712
20
-4.7640327952755905
11
6.1735433070866144
21
-4.7644094488188973
0
LINE
8
BLACK
6
CONTINUOUS
10
6.1735433070866144
20
-4.7644094488188973
11
6.1735433070866144
21
-4.8218897637795273
0
LINE
8
BLACK
6
CONTINUOUS
10
6.1735433070866144
20
-4.8218897637795273
11
6.1734683858267712
21
-4.8222664173228349
0
LINE
8
BLACK
6
CONTINUOUS
10
6.1734683858267712
20
-4.8222664173228349
11
6.1729357086614174
21
-4.8227990944881887
0
LINE
8
BLACK
6
CONTINUOUS
10
6.1729357086614174
20
-4.8227990944881887
11
6.1725590551181098
21
-4.822874015748031
0
LINE
8
BLACK
6
CONTINUOUS
10
6.1725590551181098
20
-4.822874015748031
11
6.0426377952755903
21
-4.822874015748031
0
LINE
8
BLACK
6
CONTINUOUS
10
6.0426377952755903
20
-4.822874015748031
11
6.0422611417322836
21
-4.8227990944881887
0
LINE
8
BLACK
6
CONTINUOUS
10
6.0422611417322836
20
-4.8227990944881887
11
6.0417284645669289
21
-4.8222664173228349
0
LINE
8
BLACK
6
CONTINUOUS
10
6.0417284645669289
20
-4.8222664173228349
11
6.0416535433070866
21
-4.8218897637795273
0
LINE
8
BLACK
6
CONTINUOUS
10
6.0416535433070866
20
-4.8218897637795273
11
6.0416535433070866
21
-4.7644094488188973
0
LINE
8
BLACK
6
CONTINUOUS
10
6.0416535433070866
20
-4.7644094488188973
11
6.0417284645669289
21
-4.7640327952755905
0
LINE
8
BLACK
6
CONTINUOUS
10
6.0417284645669289
20
-4.7640327952755905
11
6.0422611417322836
21
-4.7635001181102359
0
LINE
8
BLACK
6
CONTINUOUS
10
6.0422611417322836
20
-4.7635001181102359
11
6.0426377952755903
21
-4.7634251968503936
0
LINE
8
BLACK
6
CONTINUOUS
10
6.0426377952755903
20
-4.7634251968503936
11
6.1725590551181098
21
-4.7634251968503936
0
LINE
8
BLACK
6
CONTINUOUS
10
6.1725590551181098
20
-4.7634251968503936
11
6.1729357086614174
21
-4.7635001181102359
0
LINE
8
BLACK
6
CONTINUOUS
10
6.043622047244094
20
-4.7653937007874019
11
6.043622047244094
21
-4.8209055118110236
0
LINE
8
BLACK
6
CONTINUOUS
10
6.043622047244094
20
-4.8209055118110236
11
6.171574803149606
21
-4.8209055118110236
0
LINE
8
BLACK
6
CONTINUOUS
10
6.171574803149606
20
-4.8209055118110236
11
6.171574803149606
21
-4.7653937007874019
0
LINE
8
BLACK
6
CONTINUOUS
10
6.171574803149606
20
-4.7653937007874019
11
6.043622047244094
21
-4.7653937007874019
0
LINE
8
BLACK
6
CONTINUOUS
10
6.2400616929133861
20
-4.6760985433070861
11
6.2405943700787398
21
-4.6766312204724407
0
LINE
8
BLACK
6
CONTINUOUS
10
6.2405943700787398
20
-4.6766312204724407
11
6.2406692913385822
21
-4.6770078740157484
0
LINE
8
BLACK
6
CONTINUOUS
10
6.2406692913385822
20
-4.6770078740157484
11
6.2406692913385822
21
-4.8069291338582678
0
LINE
8
BLACK
6
CONTINUOUS
10
6.2406692913385822
20
-4.8069291338582678
11
6.2405943700787398
21
-4.8073057874015745
0
LINE
8
BLACK
6
CONTINUOUS
10
6.2405943700787398
20
-4.8073057874015745
11
6.2400616929133861
21
-4.8078384645669292
0
LINE
8
BLACK
6
CONTINUOUS
10
6.2400616929133861
20
-4.8078384645669292
11
6.2396850393700785
21
-4.8079133858267715
0
LINE
8
BLACK
6
CONTINUOUS
10
6.2396850393700785
20
-4.8079133858267715
11
6.1822047244094485
21
-4.8079133858267715
0
LINE
8
BLACK
6
CONTINUOUS
10
6.1822047244094485
20
-4.8079133858267715
11
6.1818280708661417
21
-4.8078384645669292
0
LINE
8
BLACK
6
CONTINUOUS
10
6.1818280708661417
20
-4.8078384645669292
11
6.1812953937007871
21
-4.8073057874015745
0
LINE
8
BLACK
6
CONTINUOUS
10
6.1812953937007871
20
-4.8073057874015745
11
6.1812204724409447
21
-4.8069291338582678
0
LINE
8
BLACK
6
CONTINUOUS
10
6.1812204724409447
20
-4.8069291338582678
11
6.1812204724409447
21
-4.6770078740157484
0
LINE
8
BLACK
6
CONTINUOUS
10
6.1812204724409447
20
-4.6770078740157484
11
6.1812953937007871
21
-4.6766312204724407
0
LINE
8
BLACK
6
CONTINUOUS
10
6.1812953937007871
20
-4.6766312204724407
11
6.1818280708661417
21
-4.6760985433070861
0
LINE
8
BLACK
6
CONTINUOUS
10
6.1818280708661417
20
-4.6760985433070861
11
6.1822047244094485
21
-4.6760236220472438
0
LINE
8
BLACK
6
CONTINUOUS
10
6.1822047244094485
20
-4.6760236220472438
11
6.2396850393700785
21
-4.6760236220472438
0
LINE
8
BLACK
6
CONTINUOUS
10
6.2396850393700785
20
-4.6760236220472438
11
6.2400616929133861
21
-4.6760985433070861
0
LINE
8
BLACK
6
CONTINUOUS
10
6.1831889763779522
20
-4.6779921259842521
11
6.1831889763779522
21
-4.8059448818897641
0
LINE
8
BLACK
6
CONTINUOUS
10
6.1831889763779522
20
-4.8059448818897641
11
6.2387007874015747
21
-4.8059448818897641
0
LINE
8
BLACK
6
CONTINUOUS
10
6.2387007874015747
20
-4.8059448818897641
11
6.2387007874015747
21
-4.6779921259842521
0
LINE
8
BLACK
6
CONTINUOUS
10
6.2387007874015747
20
-4.6779921259842521
11
6.1831889763779522
21
-4.6779921259842521
0
LINE
8
BLACK
6
CONTINUOUS
10
6.3463609055118111
20
-4.7540512992125983
11
6.3468935826771649
21
-4.7545839763779529
0
LINE
8
BLACK
6
CONTINUOUS
10
6.3468935826771649
20
-4.7545839763779529
11
6.3469685039370081
21
-4.7549606299212597
0
LINE
8
BLACK
6
CONTINUOUS
10
6.3469685039370081
20
-4.7549606299212597
11
6.3469685039370081
21
-4.7919685039370075
0
LINE
8
BLACK
6
CONTINUOUS
10
6.3469685039370081
20
-4.7919685039370075
11
6.3468935826771649
21
-4.7923451574803151
0
LINE
8
BLACK
6
CONTINUOUS
10
6.3468935826771649
20
-4.7923451574803151
11
6.3463609055118111
21
-4.7928778346456689
0
LINE
8
BLACK
6
CONTINUOUS
10
6.3463609055118111
20
-4.7928778346456689
11
6.3459842519685035
21
-4.7929527559055121
0
LINE
8
BLACK
6
CONTINUOUS
10
6.3459842519685035
20
-4.7929527559055121
11
6.2727559055118105
21
-4.7929527559055121
0
LINE
8
BLACK
6
CONTINUOUS
10
6.2727559055118105
20
-4.7929527559055121
11
6.2723792519685038
21
-4.7928778346456689
0
LINE
8
BLACK
6
CONTINUOUS
10
6.2723792519685038
20
-4.7928778346456689
11
6.2718465748031491
21
-4.7923451574803151
0
LINE
8
BLACK
6
CONTINUOUS
10
6.2718465748031491
20
-4.7923451574803151
11
6.2717716535433068
21
-4.7919685039370075
0
LINE
8
BLACK
6
CONTINUOUS
10
6.2717716535433068
20
-4.7919685039370075
11
6.2717716535433068
21
-4.7549606299212597
0
LINE
8
BLACK
6
CONTINUOUS
10
6.2717716535433068
20
-4.7549606299212597
11
6.2718465748031491
21
-4.7545839763779529
0
LINE
8
BLACK
6
CONTINUOUS
10
6.2718465748031491
20
-4.7545839763779529
11
6.2723792519685038
21
-4.7540512992125983
0
LINE
8
BLACK
6
CONTINUOUS
10
6.2723792519685038
20
-4.7540512992125983
11
6.2727559055118105
21
-4.753976377952756
0
LINE
8
BLACK
6
CONTINUOUS
10
6.2727559055118105
20
-4.753976377952756
11
6.3459842519685035
21
-4.753976377952756
0
LINE
8
BLACK
6
CONTINUOUS
10
6.3459842519685035
20
-4.753976377952756
11
6.3463609055118111
21
-4.7540512992125983
0
LINE
8
BLACK
6
CONTINUOUS
10
6.2737401574803151
20
-4.7559448818897634
11
6.2737401574803151
21
-4.7909842519685037
0
LINE
8
BLACK
6
CONTINUOUS
10
6.2737401574803151
20
-4.7909842519685037
11
6.3449999999999998
21
-4.7909842519685037
0
LINE
8
BLACK
6
CONTINUOUS
10
6.3449999999999998
20
-4.7909842519685037
11
6.3449999999999998
21
-4.7559448818897634
0
LINE
8
BLACK
6
CONTINUOUS
10
6.3449999999999998
20
-4.7559448818897634
11
6.2737401574803151
21
-4.7559448818897634
0
LINE
8
BLACK
6
CONTINUOUS
10
6.6491168110236218
20
-4.6541300393700791
11
6.6496494881889765
21
-4.6546627165354328
0
LINE
8
BLACK
6
CONTINUOUS
10
6.6496494881889765
20
-4.6546627165354328
11
6.6497244094488188
21
-4.6550393700787405
0
LINE
8
BLACK
6
CONTINUOUS
10
6.6497244094488188
20
-4.6550393700787405
11
6.6497244094488188
21
-4.7849606299212599
0
LINE
8
BLACK
6
CONTINUOUS
10
6.6497244094488188
20
-4.7849606299212599
11
6.6496494881889765
21
-4.7853372834645667
0
LINE
8
BLACK
6
CONTINUOUS
10
6.6496494881889765
20
-4.7853372834645667
11
6.6491168110236218
21
-4.7858699606299213
0
LINE
8
BLACK
6
CONTINUOUS
10
6.6491168110236218
20
-4.7858699606299213
11
6.6487401574803151
21
-4.7859448818897636
0
LINE
8
BLACK
6
CONTINUOUS
10
6.6487401574803151
20
-4.7859448818897636
11
6.5912598425196851
21
-4.7859448818897636
0
LINE
8
BLACK
6
CONTINUOUS
10
6.5912598425196851
20
-4.7859448818897636
11
6.5908831889763775
21
-4.7858699606299213
0
LINE
8
BLACK
6
CONTINUOUS
10
6.5908831889763775
20
-4.7858699606299213
11
6.5903505118110237
21
-4.7853372834645667
0
LINE
8
BLACK
6
CONTINUOUS
10
6.5903505118110237
20
-4.7853372834645667
11
6.5902755905511814
21
-4.7849606299212599
0
LINE
8
BLACK
6
CONTINUOUS
10
6.5902755905511814
20
-4.7849606299212599
11
6.5902755905511814
21
-4.6550393700787405
0
LINE
8
BLACK
6
CONTINUOUS
10
6.5902755905511814
20
-4.6550393700787405
11
6.5903505118110237
21
-4.6546627165354328
0
LINE
8
BLACK
6
CONTINUOUS
10
6.5903505118110237
20
-4.6546627165354328
11
6.5908831889763775
21
-4.6541300393700791
0
LINE
8
BLACK
6
CONTINUOUS
10
6.5908831889763775
20
-4.6541300393700791
11
6.5912598425196851
21
-4.6540551181102359
0
LINE
8
BLACK
6
CONTINUOUS
10
6.5912598425196851
20
-4.6540551181102359
11
6.6487401574803151
21
-4.6540551181102359
0
LINE
8
BLACK
6
CONTINUOUS
10
6.6487401574803151
20
-4.6540551181102359
11
6.6491168110236218
21
-4.6541300393700791
0
LINE
8
BLACK
6
CONTINUOUS
10
6.5922440944881888
20
-4.6560236220472442
11
6.5922440944881888
21
-4.7839763779527562
0
LINE
8
BLACK
6
CONTINUOUS
10
6.5922440944881888
20
-4.7839763779527562
11
6.6477559055118105
21
-4.7839763779527562
0
LINE
8
BLACK
6
CONTINUOUS
10
6.6477559055118105
20
-4.7839763779527562
11
6.6477559055118105
21
-4.6560236220472442
0
LINE
8
BLACK
6
CONTINUOUS
10
6.6477559055118105
20
-4.6560236220472442
11
6.5922440944881888
21
-4.6560236220472442
0
LINE
8
BLACK
6
CONTINUOUS
10
5.7400616929133861
20
-4.6485394881889759
11
5.7405943700787398
21
-4.6490721653543305
0
LINE
8
BLACK
6
CONTINUOUS
10
5.7405943700787398
20
-4.6490721653543305
11
5.7406692913385822
21
-4.6494488188976373
0
LINE
8
BLACK
6
CONTINUOUS
10
5.7406692913385822
20
-4.6494488188976373
11
5.7406692913385822
21
-4.7793700787401576
0
LINE
8
BLACK
6
CONTINUOUS
10
5.7406692913385822
20
-4.7793700787401576
11
5.7405943700787398
21
-4.7797467322834644
0
LINE
8
BLACK
6
CONTINUOUS
10
5.7405943700787398
20
-4.7797467322834644
11
5.7400616929133861
21
-4.780279409448819
0
LINE
8
BLACK
6
CONTINUOUS
10
5.7400616929133861
20
-4.780279409448819
11
5.7396850393700785
21
-4.7803543307086613
0
LINE
8
BLACK
6
CONTINUOUS
10
5.7396850393700785
20
-4.7803543307086613
11
5.6822047244094485
21
-4.7803543307086613
0
LINE
8
BLACK
6
CONTINUOUS
10
5.6822047244094485
20
-4.7803543307086613
11
5.6818280708661417
21
-4.780279409448819
0
LINE
8
BLACK
6
CONTINUOUS
10
5.6818280708661417
20
-4.780279409448819
11
5.6812953937007871
21
-4.7797467322834644
0
LINE
8
BLACK
6
CONTINUOUS
10
5.6812953937007871
20
-4.7797467322834644
11
5.6812204724409447
21
-4.7793700787401576
0
LINE
8
BLACK
6
CONTINUOUS
10
5.6812204724409447
20
-4.7793700787401576
11
5.6812204724409447
21
-4.6494488188976373
0
LINE
8
BLACK
6
CONTINUOUS
10
5.6812204724409447
20
-4.6494488188976373
11
5.6812953937007871
21
-4.6490721653543305
0
LINE
8
BLACK
6
CONTINUOUS
10
5.6812953937007871
20
-4.6490721653543305
11
5.6818280708661417
21
-4.6485394881889759
0
LINE
8
BLACK
6
CONTINUOUS
10
5.6818280708661417
20
-4.6485394881889759
11
5.6822047244094485
21
-4.6484645669291336
0
LINE
8
BLACK
6
CONTINUOUS
10
5.6822047244094485
20
-4.6484645669291336
11
5.7396850393700785
21
-4.6484645669291336
0
LINE
8
BLACK
6
CONTINUOUS
10
5.7396850393700785
20
-4.6484645669291336
11
5.7400616929133861
21
-4.6485394881889759
0
LINE
8
BLACK
6
CONTINUOUS
10
5.6831889763779531
20
-4.6504330708661419
11
5.6831889763779531
21
-4.778385826771653
0
LINE
8
BLACK
6
CONTINUOUS
10
5.6831889763779531
20
-4.778385826771653
11
5.7387007874015747
21
-4.778385826771653
0
LINE
8
BLACK
6
CONTINUOUS
10
5.7387007874015747
20
-4.778385826771653
11
5.7387007874015747
21
-4.6504330708661419
0
LINE
8
BLACK
6
CONTINUOUS
10
5.7387007874015747
20
-4.6504330708661419
11
5.6831889763779531
21
-4.6504330708661419
0
LINE
8
BLACK
6
CONTINUOUS
10
6.1707703543307089
20
-4.6808229527559053
11
6.1713030314960626
21
-4.68135562992126
0
LINE
8
BLACK
6
CONTINUOUS
10
6.1713030314960626
20
-4.68135562992126
11
6.1713779527559049
21
-4.6817322834645667
0
LINE
8
BLACK
6
CONTINUOUS
10
6.1713779527559049
20
-4.6817322834645667
11
6.1713779527559049
21
-4.7549606299212597
0
LINE
8
BLACK
6
CONTINUOUS
10
6.1713779527559049
20
-4.7549606299212597
11
6.1713030314960626
21
-4.7553372834645664
0
LINE
8
BLACK
6
CONTINUOUS
10
6.1713030314960626
20
-4.7553372834645664
11
6.1707703543307089
21
-4.7558699606299211
0
LINE
8
BLACK
6
CONTINUOUS
10
6.1707703543307089
20
-4.7558699606299211
11
6.1703937007874012
21
-4.7559448818897634
0
LINE
8
BLACK
6
CONTINUOUS
10
6.1703937007874012
20
-4.7559448818897634
11
6.1333858267716534
21
-4.7559448818897634
0
LINE
8
BLACK
6
CONTINUOUS
10
6.1333858267716534
20
-4.7559448818897634
11
6.1330091732283467
21
-4.7558699606299211
0
LINE
8
BLACK
6
CONTINUOUS
10
6.1330091732283467
20
-4.7558699606299211
11
6.1324764960629921
21
-4.7553372834645664
0
LINE
8
BLACK
6
CONTINUOUS
10
6.1324764960629921
20
-4.7553372834645664
11
6.1324015748031497
21
-4.7549606299212597
0
LINE
8
BLACK
6
CONTINUOUS
10
6.1324015748031497
20
-4.7549606299212597
11
6.1324015748031497
21
-4.6817322834645667
0
LINE
8
BLACK
6
CONTINUOUS
10
6.1324015748031497
20
-4.6817322834645667
11
6.1324764960629921
21
-4.68135562992126
0
LINE
8
BLACK
6
CONTINUOUS
10
6.1324764960629921
20
-4.68135562992126
11
6.1330091732283467
21
-4.6808229527559053
0
LINE
8
BLACK
6
CONTINUOUS
10
6.1330091732283467
20
-4.6808229527559053
11
6.1333858267716534
21
-4.680748031496063
0
LINE
8
BLACK
6
CONTINUOUS
10
6.1333858267716534
20
-4.680748031496063
11
6.1703937007874012
21
-4.680748031496063
0
LINE
8
BLACK
6
CONTINUOUS
10
6.1703937007874012
20
-4.680748031496063
11
6.1707703543307089
21
-4.6808229527559053
0
LINE
8
BLACK
6
CONTINUOUS
10
6.1343700787401572
20
-4.6827165354330704
11
6.1343700787401572
21
-4.753976377952756
0
LINE
8
BLACK
6
CONTINUOUS
10
6.1343700787401572
20
-4.753976377952756
11
6.1694094488188975
21
-4.753976377952756
0
LINE
8
BLACK
6
CONTINUOUS
10
6.1694094488188975
20
-4.753976377952756
11
6.1694094488188975
21
-4.6827165354330704
0
LINE
8
BLACK
6
CONTINUOUS
10
6.1694094488188975
20
-4.6827165354330704
11
6.1343700787401572
21
-4.6827165354330704
0
LINE
8
BLACK
6
CONTINUOUS
10
6.5628805905511811
20
-4.6624764960629923
11
6.5634132677165349
21
-4.6630091732283461
0
LINE
8
BLACK
6
CONTINUOUS
10
6.5634132677165349
20
-4.6630091732283461
11
6.5634881889763781
21
-4.6633858267716537
0
LINE
8
BLACK
6
CONTINUOUS
10
6.5634881889763781
20
-4.6633858267716537
11
6.5634881889763781
21
-4.7366141732283467
0
LINE
8
BLACK
6
CONTINUOUS
10
6.5634881889763781
20
-4.7366141732283467
11
6.5634132677165349
21
-4.7369908267716534
0
LINE
8
BLACK
6
CONTINUOUS
10
6.5634132677165349
20
-4.7369908267716534
11
6.5628805905511811
21
-4.7375235039370081
0
LINE
8
BLACK
6
CONTINUOUS
10
6.5628805905511811
20
-4.7375235039370081
11
6.5625039370078735
21
-4.7375984251968504
0
LINE
8
BLACK
6
CONTINUOUS
10
6.5625039370078735
20
-4.7375984251968504
11
6.5254960629921257
21
-4.7375984251968504
0
LINE
8
BLACK
6
CONTINUOUS
10
6.5254960629921257
20
-4.7375984251968504
11
6.525119409448819
21
-4.7375235039370081
0
LINE
8
BLACK
6
CONTINUOUS
10
6.525119409448819
20
-4.7375235039370081
11
6.5245867322834643
21
-4.7369908267716534
0
LINE
8
BLACK
6
CONTINUOUS
10
6.5245867322834643
20
-4.7369908267716534
11
6.524511811023622
21
-4.7366141732283467
0
LINE
8
BLACK
6
CONTINUOUS
10
6.524511811023622
20
-4.7366141732283467
11
6.524511811023622
21
-4.6633858267716537
0
LINE
8
BLACK
6
CONTINUOUS
10
6.524511811023622
20
-4.6633858267716537
11
6.5245867322834643
21
-4.6630091732283461
0
LINE
8
BLACK
6
CONTINUOUS
10
6.5245867322834643
20
-4.6630091732283461
11
6.525119409448819
21
-4.6624764960629923
0
LINE
8
BLACK
6
CONTINUOUS
10
6.525119409448819
20
-4.6624764960629923
11
6.5254960629921257
21
-4.6624015748031491
0
LINE
8
BLACK
6
CONTINUOUS
10
6.5254960629921257
20
-4.6624015748031491
11
6.5625039370078735
21
-4.6624015748031491
0
LINE
8
BLACK
6
CONTINUOUS
10
6.5625039370078735
20
-4.6624015748031491
11
6.5628805905511811
21
-4.6624764960629923
0
LINE
8
BLACK
6
CONTINUOUS
10
6.5264803149606294
20
-4.6643700787401574
11
6.5264803149606294
21
-4.7356299212598421
0
LINE
8
BLACK
6
CONTINUOUS
10
6.5264803149606294
20
-4.7356299212598421
11
6.5615196850393698
21
-4.7356299212598421
0
LINE
8
BLACK
6
CONTINUOUS
10
6.5615196850393698
20
-4.7356299212598421
11
6.5615196850393698
21
-4.6643700787401574
0
LINE
8
BLACK
6
CONTINUOUS
10
6.5615196850393698
20
-4.6643700787401574
11
6.5264803149606294
21
-4.6643700787401574
0
LINE
8
BLACK
6
CONTINUOUS
10
6.3747073622047239
20
-4.6768859448818896
11
6.3752400393700785
21
-4.6774186220472442
0
LINE
8
BLACK
6
CONTINUOUS
10
6.3752400393700785
20
-4.6774186220472442
11
6.3753149606299209
21
-4.677795275590551
0
LINE
8
BLACK
6
CONTINUOUS
10
6.3753149606299209
20
-4.677795275590551
11
6.3753149606299209
21
-4.735275590551181
0
LINE
8
BLACK
6
CONTINUOUS
10
6.3753149606299209
20
-4.735275590551181
11
6.3752400393700785
21
-4.7356522440944877
0
LINE
8
BLACK
6
CONTINUOUS
10
6.3752400393700785
20
-4.7356522440944877
11
6.3747073622047239
21
-4.7361849212598424
0
LINE
8
BLACK
6
CONTINUOUS
10
6.3747073622047239
20
-4.7361849212598424
11
6.3743307086614172
21
-4.7362598425196847
0
LINE
8
BLACK
6
CONTINUOUS
10
6.3743307086614172
20
-4.7362598425196847
11
6.2444094488188977
21
-4.7362598425196847
0
LINE
8
BLACK
6
CONTINUOUS
10
6.2444094488188977
20
-4.7362598425196847
11
6.2440327952755901
21
-4.7361849212598424
0
LINE
8
BLACK
6
CONTINUOUS
10
6.2440327952755901
20
-4.7361849212598424
11
6.2435001181102363
21
-4.7356522440944877
0
LINE
8
BLACK
6
CONTINUOUS
10
6.2435001181102363
20
-4.7356522440944877
11
6.243425196850394
21
-4.735275590551181
0
LINE
8
BLACK
6
CONTINUOUS
10
6.243425196850394
20
-4.735275590551181
11
6.243425196850394
21
-4.677795275590551
0
LINE
8
BLACK
6
CONTINUOUS
10
6.243425196850394
20
-4.677795275590551
11
6.2435001181102363
21
-4.6774186220472442
0
LINE
8
BLACK
6
CONTINUOUS
10
6.2435001181102363
20
-4.6774186220472442
11
6.2440327952755901
21
-4.6768859448818896
0
LINE
8
BLACK
6
CONTINUOUS
10
6.2440327952755901
20
-4.6768859448818896
11
6.2444094488188977
21
-4.6768110236220473
0
LINE
8
BLACK
6
CONTINUOUS
10
6.2444094488188977
20
-4.6768110236220473
11
6.3743307086614172
21
-4.6768110236220473
0
LINE
8
BLACK
6
CONTINUOUS
10
6.3743307086614172
20
-4.6768110236220473
11
6.3747073622047239
21
-4.6768859448818896
0
LINE
8
BLACK
6
CONTINUOUS
10
6.2453937007874014
20
-4.6787795275590547
11
6.2453937007874014
21
-4.7342913385826773
0
LINE
8
BLACK
6
CONTINUOUS
10
6.2453937007874014
20
-4.7342913385826773
11
6.3733464566929134
21
-4.7342913385826773
0
LINE
8
BLACK
6
CONTINUOUS
10
6.3733464566929134
20
-4.7342913385826773
11
6.3733464566929134
21
-4.6787795275590547
0
LINE
8
BLACK
6
CONTINUOUS
10
6.3733464566929134
20
-4.6787795275590547
11
6.2453937007874014
21
-4.6787795275590547
0
LINE
8
BLACK
6
CONTINUOUS
10
6.5117861023622048
20
-4.6763505118110231
11
6.5123187795275586
21
-4.6768831889763778
0
LINE
8
BLACK
6
CONTINUOUS
10
6.5123187795275586
20
-4.6768831889763778
11
6.5123937007874018
21
-4.6772598425196845
0
LINE
8
BLACK
6
CONTINUOUS
10
6.5123937007874018
20
-4.6772598425196845
11
6.5123937007874018
21
-4.7347401574803145
0
LINE
8
BLACK
6
CONTINUOUS
10
6.5123937007874018
20
-4.7347401574803145
11
6.5123187795275586
21
-4.7351168110236221
0
LINE
8
BLACK
6
CONTINUOUS
10
6.5123187795275586
20
-4.7351168110236221
11
6.5117861023622048
21
-4.7356494881889759
0
LINE
8
BLACK
6
CONTINUOUS
10
6.5117861023622048
20
-4.7356494881889759
11
6.5114094488188972
21
-4.7357244094488191
0
LINE
8
BLACK
6
CONTINUOUS
10
6.5114094488188972
20
-4.7357244094488191
11
6.3814881889763777
21
-4.7357244094488191
0
LINE
8
BLACK
6
CONTINUOUS
10
6.3814881889763777
20
-4.7357244094488191
11
6.381111535433071
21
-4.7356494881889759
0
LINE
8
BLACK
6
CONTINUOUS
10
6.381111535433071
20
-4.7356494881889759
11
6.3805788582677163
21
-4.7351168110236221
0
LINE
8
BLACK
6
CONTINUOUS
10
6.3805788582677163
20
-4.7351168110236221
11
6.380503937007874
21
-4.7347401574803145
0
LINE
8
BLACK
6
CONTINUOUS
10
6.380503937007874
20
-4.7347401574803145
11
6.380503937007874
21
-4.6772598425196845
0
LINE
8
BLACK
6
CONTINUOUS
10
6.380503937007874
20
-4.6772598425196845
11
6.3805788582677163
21
-4.6768831889763778
0
LINE
8
BLACK
6
CONTINUOUS
10
6.3805788582677163
20
-4.6768831889763778
11
6.381111535433071
21
-4.6763505118110231
0
LINE
8
BLACK
6
CONTINUOUS
10
6.381111535433071
20
-4.6763505118110231
11
6.3814881889763777
21
-4.6762755905511808
0
LINE
8
BLACK
6
CONTINUOUS
10
6.3814881889763777
20
-4.6762755905511808
11
6.5114094488188972
21
-4.6762755905511808
0
LINE
8
BLACK
6
CONTINUOUS
10
6.5114094488188972
20
-4.6762755905511808
11
6.5117861023622048
21
-4.6763505118110231
0
LINE
8
BLACK
6
CONTINUOUS
10
6.3824724409448814
20
-4.6782440944881891
11
6.3824724409448814
21
-4.7337559055118108
0
LINE
8
BLACK
6
CONTINUOUS
10
6.3824724409448814
20
-4.7337559055118108
11
6.5104251968503934
21
-4.7337559055118108
0
LINE
8
BLACK
6
CONTINUOUS
10
6.5104251968503934
20
-4.7337559055118108
11
6.5104251968503934
21
-4.6782440944881891
0
LINE
8
BLACK
6
CONTINUOUS
10
6.5104251968503934
20
-4.6782440944881891
11
6.3824724409448814
21
-4.6782440944881891
0
LINE
8
BLACK
6
CONTINUOUS
10
6.0026601181102359
20
-4.5284607480314962
11
6.0031927952755906
21
-4.52899342519685
0
LINE
8
BLACK
6
CONTINUOUS
10
6.0031927952755906
20
-4.52899342519685
11
6.0032677165354329
21
-4.5293700787401576
0
LINE
8
BLACK
6
CONTINUOUS
10
6.0032677165354329
20
-4.5293700787401576
11
6.0032677165354329
21
-4.7340944881889762
0
LINE
8
BLACK
6
CONTINUOUS
10
6.0032677165354329
20
-4.7340944881889762
11
6.0031927952755906
21
-4.7344711417322838
0
LINE
8
BLACK
6
CONTINUOUS
10
6.0031927952755906
20
-4.7344711417322838
11
6.0026601181102359
21
-4.7350038188976376
0
LINE
8
BLACK
6
CONTINUOUS
10
6.0026601181102359
20
-4.7350038188976376
11
6.0022834645669292
21
-4.7350787401574799
0
LINE
8
BLACK
6
CONTINUOUS
10
6.0022834645669292
20
-4.7350787401574799
11
5.7975590551181098
21
-4.7350787401574799
0
LINE
8
BLACK
6
CONTINUOUS
10
5.7975590551181098
20
-4.7350787401574799
11
5.797182401574803
21
-4.7350038188976376
0
LINE
8
BLACK
6
CONTINUOUS
10
5.797182401574803
20
-4.7350038188976376
11
5.7966497244094484
21
-4.7344711417322838
0
LINE
8
BLACK
6
CONTINUOUS
10
5.7966497244094484
20
-4.7344711417322838
11
5.796574803149606
21
-4.7340944881889762
0
LINE
8
BLACK
6
CONTINUOUS
10
5.796574803149606
20
-4.7340944881889762
11
5.796574803149606
21
-4.5293700787401576
0
LINE
8
BLACK
6
CONTINUOUS
10
5.796574803149606
20
-4.5293700787401576
11
5.7966497244094484
21
-4.52899342519685
0
LINE
8
BLACK
6
CONTINUOUS
10
5.7966497244094484
20
-4.52899342519685
11
5.797182401574803
21
-4.5284607480314962
0
LINE
8
BLACK
6
CONTINUOUS
10
5.797182401574803
20
-4.5284607480314962
11
5.7975590551181098
21
-4.528385826771653
0
LINE
8
BLACK
6
CONTINUOUS
10
5.7975590551181098
20
-4.528385826771653
11
6.0022834645669292
21
-4.528385826771653
0
LINE
8
BLACK
6
CONTINUOUS
10
6.0022834645669292
20
-4.528385826771653
11
6.0026601181102359
21
-4.5284607480314962
0
LINE
8
BLACK
6
CONTINUOUS
10
5.7985433070866144
20
-4.5303543307086613
11
5.7985433070866144
21
-4.7331102362204724
0
LINE
8
BLACK
6
CONTINUOUS
10
5.7985433070866144
20
-4.7331102362204724
11
6.0012992125984255
21
-4.7331102362204724
0
LINE
8
BLACK
6
CONTINUOUS
10
6.0012992125984255
20
-4.7331102362204724
11
6.0012992125984255
21
-4.5303543307086613
0
LINE
8
BLACK
6
CONTINUOUS
10
6.0012992125984255
20
-4.5303543307086613
11
5.7985433070866144
21
-4.5303543307086613
0
LINE
8
BLACK
6
CONTINUOUS
10
6.121951456692913
20
-4.6792481496062992
11
6.1224841338582676
21
-4.6797808267716539
0
LINE
8
BLACK
6
CONTINUOUS
10
6.1224841338582676
20
-4.6797808267716539
11
6.1225590551181099
21
-4.6801574803149606
0
LINE
8
BLACK
6
CONTINUOUS
10
6.1225590551181099
20
-4.6801574803149606
11
6.1225590551181099
21
-4.7171653543307084
0
LINE
8
BLACK
6
CONTINUOUS
10
6.1225590551181099
20
-4.7171653543307084
11
6.1224841338582676
21
-4.717542007874016
0
LINE
8
BLACK
6
CONTINUOUS
10
6.1224841338582676
20
-4.717542007874016
11
6.121951456692913
21
-4.7180746850393698
0
LINE
8
BLACK
6
CONTINUOUS
10
6.121951456692913
20
-4.7180746850393698
11
6.1215748031496062
21
-4.7181496062992121
0
LINE
8
BLACK
6
CONTINUOUS
10
6.1215748031496062
20
-4.7181496062992121
11
6.0483464566929133
21
-4.7181496062992121
0
LINE
8
BLACK
6
CONTINUOUS
10
6.0483464566929133
20
-4.7181496062992121
11
6.0479698031496065
21
-4.7180746850393698
0
LINE
8
BLACK
6
CONTINUOUS
10
6.0479698031496065
20
-4.7180746850393698
11
6.0474371259842519
21
-4.717542007874016
0
LINE
8
BLACK
6
CONTINUOUS
10
6.0474371259842519
20
-4.717542007874016
11
6.0473622047244096
21
-4.7171653543307084
0
LINE
8
BLACK
6
CONTINUOUS
10
6.0473622047244096
20
-4.7171653543307084
11
6.0473622047244096
21
-4.6801574803149606
0
LINE
8
BLACK
6
CONTINUOUS
10
6.0473622047244096
20
-4.6801574803149606
11
6.0474371259842519
21
-4.6797808267716539
0
LINE
8
BLACK
6
CONTINUOUS
10
6.0474371259842519
20
-4.6797808267716539
11
6.0479698031496065
21
-4.6792481496062992
0
LINE
8
BLACK
6
CONTINUOUS
10
6.0479698031496065
20
-4.6792481496062992
11
6.0483464566929133
21
-4.6791732283464569
0
LINE
8
BLACK
6
CONTINUOUS
10
6.0483464566929133
20
-4.6791732283464569
11
6.1215748031496062
21
-4.6791732283464569
0
LINE
8
BLACK
6
CONTINUOUS
10
6.1215748031496062
20
-4.6791732283464569
11
6.121951456692913
21
-4.6792481496062992
0
LINE
8
BLACK
6
CONTINUOUS
10
6.049330708661417
20
-4.6811417322834643
11
6.049330708661417
21
-4.7161811023622047
0
LINE
8
BLACK
6
CONTINUOUS
10
6.049330708661417
20
-4.7161811023622047
11
6.1205905511811025
21
-4.7161811023622047
0
LINE
8
BLACK
6
CONTINUOUS
10
6.1205905511811025
20
-4.7161811023622047
11
6.1205905511811025
21
-4.6811417322834643
0
LINE
8
BLACK
6
CONTINUOUS
10
6.1205905511811025
20
-4.6811417322834643
11
6.049330708661417
21
-4.6811417322834643
0
LINE
8
BLACK
6
CONTINUOUS
10
6.3896679921259842
20
-4.5068072047244092
11
6.390200669291338
21
-4.5073398818897639
0
LINE
8
BLACK
6
CONTINUOUS
10
6.390200669291338
20
-4.5073398818897639
11
6.3902755905511812
21
-4.5077165354330706
0
LINE
8
BLACK
6
CONTINUOUS
10
6.3902755905511812
20
-4.5077165354330706
11
6.3902755905511812
21
-4.6376377952755901
0
LINE
8
BLACK
6
CONTINUOUS
10
6.3902755905511812
20
-4.6376377952755901
11
6.390200669291338
21
-4.6380144488188977
0
LINE
8
BLACK
6
CONTINUOUS
10
6.390200669291338
20
-4.6380144488188977
11
6.3896679921259842
21
-4.6385471259842515
0
LINE
8
BLACK
6
CONTINUOUS
10
6.3896679921259842
20
-4.6385471259842515
11
6.3892913385826766
21
-4.6386220472440947
0
LINE
8
BLACK
6
CONTINUOUS
10
6.3892913385826766
20
-4.6386220472440947
11
6.3318110236220475
21
-4.6386220472440947
0
LINE
8
BLACK
6
CONTINUOUS
10
6.3318110236220475
20
-4.6386220472440947
11
6.3314343700787399
21
-4.6385471259842515
0
LINE
8
BLACK
6
CONTINUOUS
10
6.3314343700787399
20
-4.6385471259842515
11
6.3309016929133861
21
-4.6380144488188977
0
LINE
8
BLACK
6
CONTINUOUS
10
6.3309016929133861
20
-4.6380144488188977
11
6.3308267716535429
21
-4.6376377952755901
0
LINE
8
BLACK
6
CONTINUOUS
10
6.3308267716535429
20
-4.6376377952755901
11
6.3308267716535429
21
-4.5077165354330706
0
LINE
8
BLACK
6
CONTINUOUS
10
6.3308267716535429
20
-4.5077165354330706
11
6.3309016929133861
21
-4.5073398818897639
0
LINE
8
BLACK
6
CONTINUOUS
10
6.3309016929133861
20
-4.5073398818897639
11
6.3314343700787399
21
-4.5068072047244092
0
LINE
8
BLACK
6
CONTINUOUS
10
6.3314343700787399
20
-4.5068072047244092
11
6.3318110236220475
21
-4.5067322834645669
0
LINE
8
BLACK
6
CONTINUOUS
10
6.3318110236220475
20
-4.5067322834645669
11
6.3892913385826766
21
-4.5067322834645669
0
LINE
8
BLACK
6
CONTINUOUS
10
6.3892913385826766
20
-4.5067322834645669
11
6.3896679921259842
21
-4.5068072047244092
0
LINE
8
BLACK
6
CONTINUOUS
10
6.3327952755905512
20
-4.5087007874015743
11
6.3327952755905512
21
-4.6366535433070863
0
LINE
8
BLACK
6
CONTINUOUS
10
6.3327952755905512
20
-4.6366535433070863
11
6.3883070866141729
21
-4.6366535433070863
0
LINE
8
BLACK
6
CONTINUOUS
10
6.3883070866141729
20
-4.6366535433070863
11
6.3883070866141729
21
-4.5087007874015743
0
LINE
8
BLACK
6
CONTINUOUS
10
6.3883070866141729
20
-4.5087007874015743
11
6.3327952755905512
21
-4.5087007874015743
0
LINE
8
BLACK
6
CONTINUOUS
10
6.3058884645669293
20
-4.5784607480314961
11
6.3064211417322831
21
-4.5789934251968507
0
LINE
8
BLACK
6
CONTINUOUS
10
6.3064211417322831
20
-4.5789934251968507
11
6.3064960629921263
21
-4.5793700787401574
0
LINE
8
BLACK
6
CONTINUOUS
10
6.3064960629921263
20
-4.5793700787401574
11
6.3064960629921263
21
-4.6368503937007874
0
LINE
8
BLACK
6
CONTINUOUS
10
6.3064960629921263
20
-4.6368503937007874
11
6.3064211417322831
21
-4.6372270472440942
0
LINE
8
BLACK
6
CONTINUOUS
10
6.3064211417322831
20
-4.6372270472440942
11
6.3058884645669293
21
-4.6377597244094488
0
LINE
8
BLACK
6
CONTINUOUS
10
6.3058884645669293
20
-4.6377597244094488
11
6.3055118110236217
21
-4.6378346456692912
0
LINE
8
BLACK
6
CONTINUOUS
10
6.3055118110236217
20
-4.6378346456692912
11
6.1755905511811022
21
-4.6378346456692912
0
LINE
8
BLACK
6
CONTINUOUS
10
6.1755905511811022
20
-4.6378346456692912
11
6.1752138976377955
21
-4.6377597244094488
0
LINE
8
BLACK
6
CONTINUOUS
10
6.1752138976377955
20
-4.6377597244094488
11
6.1746812204724408
21
-4.6372270472440942
0
LINE
8
BLACK
6
CONTINUOUS
10
6.1746812204724408
20
-4.6372270472440942
11
6.1746062992125985
21
-4.6368503937007874
0
LINE
8
BLACK
6
CONTINUOUS
10
6.1746062992125985
20
-4.6368503937007874
11
6.1746062992125985
21
-4.5793700787401574
0
LINE
8
BLACK
6
CONTINUOUS
10
6.1746062992125985
20
-4.5793700787401574
11
6.1746812204724408
21
-4.5789934251968507
0
LINE
8
BLACK
6
CONTINUOUS
10
6.1746812204724408
20
-4.5789934251968507
11
6.1752138976377955
21
-4.5784607480314961
0
LINE
8
BLACK
6
CONTINUOUS
10
6.1752138976377955
20
-4.5784607480314961
11
6.1755905511811022
21
-4.5783858267716537
0
LINE
8
BLACK
6
CONTINUOUS
10
6.1755905511811022
20
-4.5783858267716537
11
6.3055118110236217
21
-4.5783858267716537
0
LINE
8
BLACK
6
CONTINUOUS
10
6.3055118110236217
20
-4.5783858267716537
11
6.3058884645669293
21
-4.5784607480314961
0
LINE
8
BLACK
6
CONTINUOUS
10
6.1765748031496059
20
-4.5803543307086612
11
6.1765748031496059
21
-4.6358661417322837
0
LINE
8
BLACK
6
CONTINUOUS
10
6.1765748031496059
20
-4.6358661417322837
11
6.304527559055118
21
-4.6358661417322837
0
LINE
8
BLACK
6
CONTINUOUS
10
6.304527559055118
20
-4.6358661417322837
11
6.304527559055118
21
-4.5803543307086612
0
LINE
8
BLACK
6
CONTINUOUS
10
6.304527559055118
20
-4.5803543307086612
11
6.1765748031496059
21
-4.5803543307086612
0
LINE
8
BLACK
6
CONTINUOUS
10
5.6770695669291333
20
-4.5028701968503935
11
5.677602244094488
21
-4.5034028740157481
0
LINE
8
BLACK
6
CONTINUOUS
10
5.677602244094488
20
-4.5034028740157481
11
5.6776771653543303
21
-4.5037795275590549
0
LINE
8
BLACK
6
CONTINUOUS
10
5.6776771653543303
20
-4.5037795275590549
11
5.6776771653543303
21
-4.6337007874015743
0
LINE
8
BLACK
6
CONTINUOUS
10
5.6776771653543303
20
-4.6337007874015743
11
5.677602244094488
21
-4.6340774409448819
0
LINE
8
BLACK
6
CONTINUOUS
10
5.677602244094488
20
-4.6340774409448819
11
5.6770695669291333
21
-4.6346101181102357
0
LINE
8
BLACK
6
CONTINUOUS
10
5.6770695669291333
20
-4.6346101181102357
11
5.6766929133858266
21
-4.6346850393700789
0
LINE
8
BLACK
6
CONTINUOUS
10
5.6766929133858266
20
-4.6346850393700789
11
5.6192125984251966
21
-4.6346850393700789
0
LINE
8
BLACK
6
CONTINUOUS
10
5.6192125984251966
20
-4.6346850393700789
11
5.6188359448818899
21
-4.6346101181102357
0
LINE
8
BLACK
6
CONTINUOUS
10
5.6188359448818899
20
-4.6346101181102357
11
5.6183032677165352
21
-4.6340774409448819
0
LINE
8
BLACK
6
CONTINUOUS
10
5.6183032677165352
20
-4.6340774409448819
11
5.6182283464566929
21
-4.6337007874015743
0
LINE
8
BLACK
6
CONTINUOUS
10
5.6182283464566929
20
-4.6337007874015743
11
5.6182283464566929
21
-4.5037795275590549
0
LINE
8
BLACK
6
CONTINUOUS
10
5.6182283464566929
20
-4.5037795275590549
11
5.6183032677165352
21
-4.5034028740157481
0
LINE
8
BLACK
6
CONTINUOUS
10
5.6183032677165352
20
-4.5034028740157481
11
5.6188359448818899
21
-4.5028701968503935
0
LINE
8
BLACK
6
CONTINUOUS
10
5.6188359448818899
20
-4.5028701968503935
11
5.6192125984251966
21
-4.5027952755905511
0
LINE
8
BLACK
6
CONTINUOUS
10
5.6192125984251966
20
-4.5027952755905511
11
5.6766929133858266
21
-4.5027952755905511
0
LINE
8
BLACK
6
CONTINUOUS
10
5.6766929133858266
20
-4.5027952755905511
11
5.6770695669291333
21
-4.5028701968503935
0
LINE
8
BLACK
6
CONTINUOUS
10
5.6201968503937003
20
-4.5047637795275586
11
5.6201968503937003
21
-4.6327165354330706
0
LINE
8
BLACK
6
CONTINUOUS
10
5.6201968503937003
20
-4.6327165354330706
11
5.6757086614173229
21
-4.6327165354330706
0
LINE
8
BLACK
6
CONTINUOUS
10
5.6757086614173229
20
-4.6327165354330706
11
5.6757086614173229
21
-4.5047637795275586
0
LINE
8
BLACK
6
CONTINUOUS
10
5.6757086614173229
20
-4.5047637795275586
11
5.6201968503937003
21
-4.5047637795275586
0
LINE
8
BLACK
6
CONTINUOUS
10
5.7400616929133861
20
-4.5028701968503935
11
5.7405943700787398
21
-4.5034028740157481
0
LINE
8
BLACK
6
CONTINUOUS
10
5.7405943700787398
20
-4.5034028740157481
11
5.7406692913385822
21
-4.5037795275590549
0
LINE
8
BLACK
6
CONTINUOUS
10
5.7406692913385822
20
-4.5037795275590549
11
5.7406692913385822
21
-4.6337007874015743
0
LINE
8
BLACK
6
CONTINUOUS
10
5.7406692913385822
20
-4.6337007874015743
11
5.7405943700787398
21
-4.6340774409448819
0
LINE
8
BLACK
6
CONTINUOUS
10
5.7405943700787398
20
-4.6340774409448819
11
5.7400616929133861
21
-4.6346101181102357
0
LINE
8
BLACK
6
CONTINUOUS
10
5.7400616929133861
20
-4.6346101181102357
11
5.7396850393700785
21
-4.6346850393700789
0
LINE
8
BLACK
6
CONTINUOUS
10
5.7396850393700785
20
-4.6346850393700789
11
5.6822047244094485
21
-4.6346850393700789
0
LINE
8
BLACK
6
CONTINUOUS
10
5.6822047244094485
20
-4.6346850393700789
11
5.6818280708661417
21
-4.6346101181102357
0
LINE
8
BLACK
6
CONTINUOUS
10
5.6818280708661417
20
-4.6346101181102357
11
5.6812953937007871
21
-4.6340774409448819
0
LINE
8
BLACK
6
CONTINUOUS
10
5.6812953937007871
20
-4.6340774409448819
11
5.6812204724409447
21
-4.6337007874015743
0
LINE
8
BLACK
6
CONTINUOUS
10
5.6812204724409447
20
-4.6337007874015743
11
5.6812204724409447
21
-4.5037795275590549
0
LINE
8
BLACK
6
CONTINUOUS
10
5.6812204724409447
20
-4.5037795275590549
11
5.6812953937007871
21
-4.5034028740157481
0
LINE
8
BLACK
6
CONTINUOUS
10
5.6812953937007871
20
-4.5034028740157481
11
5.6818280708661417
21
-4.5028701968503935
0
LINE
8
BLACK
6
CONTINUOUS
10
5.6818280708661417
20
-4.5028701968503935
11
5.6822047244094485
21
-4.5027952755905511
0
LINE
8
BLACK
6
CONTINUOUS
10
5.6822047244094485
20
-4.5027952755905511
11
5.7396850393700785
21
-4.5027952755905511
0
LINE
8
BLACK
6
CONTINUOUS
10
5.7396850393700785
20
-4.5027952755905511
11
5.7400616929133861
21
-4.5028701968503935
0
LINE
8
BLACK
6
CONTINUOUS
10
5.6831889763779531
20
-4.5047637795275586
11
5.6831889763779531
21
-4.6327165354330706
0
LINE
8
BLACK
6
CONTINUOUS
10
5.6831889763779531
20
-4.6327165354330706
11
5.7387007874015747
21
-4.6327165354330706
0
LINE
8
BLACK
6
CONTINUOUS
10
5.7387007874015747
20
-4.6327165354330706
11
5.7387007874015747
21
-4.5047637795275586
0
LINE
8
BLACK
6
CONTINUOUS
10
5.7387007874015747
20
-4.5047637795275586
11
5.6831889763779531
21
-4.5047637795275586
0
LINE
8
BLACK
6
CONTINUOUS
10
6.5554947637795271
20
-4.4985394881889764
11
6.5560274409448818
21
-4.4990721653543302
0
LINE
8
BLACK
6
CONTINUOUS
10
6.5560274409448818
20
-4.4990721653543302
11
6.5561023622047241
21
-4.4994488188976378
0
LINE
8
BLACK
6
CONTINUOUS
10
6.5561023622047241
20
-4.4994488188976378
11
6.5561023622047241
21
-4.6254330708661415
0
LINE
8
BLACK
6
CONTINUOUS
10
6.5561023622047241
20
-4.6254330708661415
11
6.5560274409448818
21
-4.6258097244094492
0
LINE
8
BLACK
6
CONTINUOUS
10
6.5560274409448818
20
-4.6258097244094492
11
6.5554947637795271
21
-4.6263424015748029
0
LINE
8
BLACK
6
CONTINUOUS
10
6.5554947637795271
20
-4.6263424015748029
11
6.5551181102362204
21
-4.6264173228346452
0
LINE
8
BLACK
6
CONTINUOUS
10
6.5551181102362204
20
-4.6264173228346452
11
6.4448818897637796
21
-4.6264173228346452
0
LINE
8
BLACK
6
CONTINUOUS
10
6.4448818897637796
20
-4.6264173228346452
11
6.444505236220472
21
-4.6263424015748029
0
LINE
8
BLACK
6
CONTINUOUS
10
6.444505236220472
20
-4.6263424015748029
11
6.4439725590551182
21
-4.6258097244094492
0
LINE
8
BLACK
6
CONTINUOUS
10
6.4439725590551182
20
-4.6258097244094492
11
6.443897637795275
21
-4.6254330708661415
0
LINE
8
BLACK
6
CONTINUOUS
10
6.443897637795275
20
-4.6254330708661415
11
6.443897637795275
21
-4.4994488188976378
0
LINE
8
BLACK
6
CONTINUOUS
10
6.443897637795275
20
-4.4994488188976378
11
6.4439725590551182
21
-4.4990721653543302
0
LINE
8
BLACK
6
CONTINUOUS
10
6.4439725590551182
20
-4.4990721653543302
11
6.444505236220472
21
-4.4985394881889764
0
LINE
8
BLACK
6
CONTINUOUS
10
6.444505236220472
20
-4.4985394881889764
11
6.4448818897637796
21
-4.4984645669291341
0
LINE
8
BLACK
6
CONTINUOUS
10
6.4448818897637796
20
-4.4984645669291341
11
6.5551181102362204
21
-4.4984645669291341
0
LINE
8
BLACK
6
CONTINUOUS
10
6.5551181102362204
20
-4.4984645669291341
11
6.5554947637795271
21
-4.4985394881889764
0
LINE
8
BLACK
6
CONTINUOUS
10
6.4458661417322833
20
-4.5004330708661415
11
6.4458661417322833
21
-4.6244488188976378
0
LINE
8
BLACK
6
CONTINUOUS
10
6.4458661417322833
20
-4.6244488188976378
11
6.5541338582677167
21
-4.6244488188976378
0
LINE
8
BLACK
6
CONTINUOUS
10
6.5541338582677167
20
-4.6244488188976378
11
6.5541338582677167
21
-4.5004330708661415
0
LINE
8
BLACK
6
CONTINUOUS
10
6.5541338582677167
20
-4.5004330708661415
11
6.4458661417322833
21
-4.5004330708661415
0
LINE
8
BLACK
6
CONTINUOUS
10
6.1594317716535434
20
-4.5351536614173229
11
6.1599644488188972
21
-4.5356863385826767
0
LINE
8
BLACK
6
CONTINUOUS
10
6.1599644488188972
20
-4.5356863385826767
11
6.1600393700787404
21
-4.5360629921259843
0
LINE
8
BLACK
6
CONTINUOUS
10
6.1600393700787404
20
-4.5360629921259843
11
6.1600393700787404
21
-4.6092913385826773
0
LINE
8
BLACK
6
CONTINUOUS
10
6.1600393700787404
20
-4.6092913385826773
11
6.1599644488188972
21
-4.609667992125984
0
LINE
8
BLACK
6
CONTINUOUS
10
6.1599644488188972
20
-4.609667992125984
11
6.1594317716535434
21
-4.6102006692913386
0
LINE
8
BLACK
6
CONTINUOUS
10
6.1594317716535434
20
-4.6102006692913386
11
6.1590551181102358
21
-4.610275590551181
0
LINE
8
BLACK
6
CONTINUOUS
10
6.1590551181102358
20
-4.610275590551181
11
6.122047244094488
21
-4.610275590551181
0
LINE
8
BLACK
6
CONTINUOUS
10
6.122047244094488
20
-4.610275590551181
11
6.1216705905511812
21
-4.6102006692913386
0
LINE
8
BLACK
6
CONTINUOUS
10
6.1216705905511812
20
-4.6102006692913386
11
6.1211379133858266
21
-4.609667992125984
0
LINE
8
BLACK
6
CONTINUOUS
10
6.1211379133858266
20
-4.609667992125984
11
6.1210629921259843
21
-4.6092913385826773
0
LINE
8
BLACK
6
CONTINUOUS
10
6.1210629921259843
20
-4.6092913385826773
11
6.1210629921259843
21
-4.5360629921259843
0
LINE
8
BLACK
6
CONTINUOUS
10
6.1210629921259843
20
-4.5360629921259843
11
6.1211379133858266
21
-4.5356863385826767
0
LINE
8
BLACK
6
CONTINUOUS
10
6.1211379133858266
20
-4.5356863385826767
11
6.1216705905511812
21
-4.5351536614173229
0
LINE
8
BLACK
6
CONTINUOUS
10
6.1216705905511812
20
-4.5351536614173229
11
6.122047244094488
21
-4.5350787401574806
0
LINE
8
BLACK
6
CONTINUOUS
10
6.122047244094488
20
-4.5350787401574806
11
6.1590551181102358
21
-4.5350787401574806
0
LINE
8
BLACK
6
CONTINUOUS
10
6.1590551181102358
20
-4.5350787401574806
11
6.1594317716535434
21
-4.5351536614173229
0
LINE
8
BLACK
6
CONTINUOUS
10
6.1230314960629917
20
-4.537047244094488
11
6.1230314960629917
21
-4.6083070866141735
0
LINE
8
BLACK
6
CONTINUOUS
10
6.1230314960629917
20
-4.6083070866141735
11
6.158070866141732
21
-4.6083070866141735
0
LINE
8
BLACK
6
CONTINUOUS
10
6.158070866141732
20
-4.6083070866141735
11
6.158070866141732
21
-4.537047244094488
0
LINE
8
BLACK
6
CONTINUOUS
10
6.158070866141732
20
-4.537047244094488
11
6.1230314960629917
21
-4.537047244094488
0
LINE
8
BLACK
6
CONTINUOUS
10
6.3058884645669293
20
-4.5103505118110236
11
6.3064211417322831
21
-4.5108831889763774
0
LINE
8
BLACK
6
CONTINUOUS
10
6.3064211417322831
20
-4.5108831889763774
11
6.3064960629921263
21
-4.511259842519685
0
LINE
8
BLACK
6
CONTINUOUS
10
6.3064960629921263
20
-4.511259842519685
11
6.3064960629921263
21
-4.568740157480315
0
LINE
8
BLACK
6
CONTINUOUS
10
6.3064960629921263
20
-4.568740157480315
11
6.3064211417322831
21
-4.5691168110236218
0
LINE
8
BLACK
6
CONTINUOUS
10
6.3064211417322831
20
-4.5691168110236218
11
6.3058884645669293
21
-4.5696494881889764
0
LINE
8
BLACK
6
CONTINUOUS
10
6.3058884645669293
20
-4.5696494881889764
11
6.3055118110236217
21
-4.5697244094488187
0
LINE
8
BLACK
6
CONTINUOUS
10
6.3055118110236217
20
-4.5697244094488187
11
6.1755905511811022
21
-4.5697244094488187
0
LINE
8
BLACK
6
CONTINUOUS
10
6.1755905511811022
20
-4.5697244094488187
11
6.1752138976377955
21
-4.5696494881889764
0
LINE
8
BLACK
6
CONTINUOUS
10
6.1752138976377955
20
-4.5696494881889764
11
6.1746812204724408
21
-4.5691168110236218
0
LINE
8
BLACK
6
CONTINUOUS
10
6.1746812204724408
20
-4.5691168110236218
11
6.1746062992125985
21
-4.568740157480315
0
LINE
8
BLACK
6
CONTINUOUS
10
6.1746062992125985
20
-4.568740157480315
11
6.1746062992125985
21
-4.511259842519685
0
LINE
8
BLACK
6
CONTINUOUS
10
6.1746062992125985
20
-4.511259842519685
11
6.1746812204724408
21
-4.5108831889763774
0
LINE
8
BLACK
6
CONTINUOUS
10
6.1746812204724408
20
-4.5108831889763774
11
6.1752138976377955
21
-4.5103505118110236
0
LINE
8
BLACK
6
CONTINUOUS
10
6.1752138976377955
20
-4.5103505118110236
11
6.1755905511811022
21
-4.5102755905511813
0
LINE
8
BLACK
6
CONTINUOUS
10
6.1755905511811022
20
-4.5102755905511813
11
6.3055118110236217
21
-4.5102755905511813
0
LINE
8
BLACK
6
CONTINUOUS
10
6.3055118110236217
20
-4.5102755905511813
11
6.3058884645669293
21
-4.5103505118110236
0
LINE
8
BLACK
6
CONTINUOUS
10
6.1765748031496059
20
-4.5122440944881888
11
6.1765748031496059
21
-4.5677559055118113
0
LINE
8
BLACK
6
CONTINUOUS
10
6.1765748031496059
20
-4.5677559055118113
11
6.304527559055118
21
-4.5677559055118113
0
LINE
8
BLACK
6
CONTINUOUS
10
6.304527559055118
20
-4.5677559055118113
11
6.304527559055118
21
-4.5122440944881888
0
LINE
8
BLACK
6
CONTINUOUS
10
6.304527559055118
20
-4.5122440944881888
11
6.1765748031496059
21
-4.5122440944881888
0
LINE
8
BLACK
6
CONTINUOUS
10
6.6806758661417325
20
-4.4195631102362203
11
6.6812085433070862
21
-4.4200957874015749
0
LINE
8
BLACK
6
CONTINUOUS
10
6.6812085433070862
20
-4.4200957874015749
11
6.6812834645669286
21
-4.4204724409448817
0
LINE
8
BLACK
6
CONTINUOUS
10
6.6812834645669286
20
-4.4204724409448817
11
6.6812834645669286
21
-4.5503937007874011
0
LINE
8
BLACK
6
CONTINUOUS
10
6.6812834645669286
20
-4.5503937007874011
11
6.6812085433070862
21
-4.5507703543307088
0
LINE
8
BLACK
6
CONTINUOUS
10
6.6812085433070862
20
-4.5507703543307088
11
6.6806758661417325
21
-4.5513030314960625
0
LINE
8
BLACK
6
CONTINUOUS
10
6.6806758661417325
20
-4.5513030314960625
11
6.6802992125984249
21
-4.5513779527559057
0
LINE
8
BLACK
6
CONTINUOUS
10
6.6802992125984249
20
-4.5513779527559057
11
6.6228188976377949
21
-4.5513779527559057
0
LINE
8
BLACK
6
CONTINUOUS
10
6.6228188976377949
20
-4.5513779527559057
11
6.6224422440944881
21
-4.5513030314960625
0
LINE
8
BLACK
6
CONTINUOUS
10
6.6224422440944881
20
-4.5513030314960625
11
6.6219095669291335
21
-4.5507703543307088
0
LINE
8
BLACK
6
CONTINUOUS
10
6.6219095669291335
20
-4.5507703543307088
11
6.6218346456692911
21
-4.5503937007874011
0
LINE
8
BLACK
6
CONTINUOUS
10
6.6218346456692911
20
-4.5503937007874011
11
6.6218346456692911
21
-4.4204724409448817
0
LINE
8
BLACK
6
CONTINUOUS
10
6.6218346456692911
20
-4.4204724409448817
11
6.6219095669291335
21
-4.4200957874015749
0
LINE
8
BLACK
6
CONTINUOUS
10
6.6219095669291335
20
-4.4200957874015749
11
6.6224422440944881
21
-4.4195631102362203
0
LINE
8
BLACK
6
CONTINUOUS
10
6.6224422440944881
20
-4.4195631102362203
11
6.6228188976377949
21
-4.419488188976378
0
LINE
8
BLACK
6
CONTINUOUS
10
6.6228188976377949
20
-4.419488188976378
11
6.6802992125984249
21
-4.419488188976378
0
LINE
8
BLACK
6
CONTINUOUS
10
6.6802992125984249
20
-4.419488188976378
11
6.6806758661417325
21
-4.4195631102362203
0
LINE
8
BLACK
6
CONTINUOUS
10
6.6238031496062995
20
-4.4214566929133854
11
6.6238031496062995
21
-4.5494094488188974
0
LINE
8
BLACK
6
CONTINUOUS
10
6.6238031496062995
20
-4.5494094488188974
11
6.6793149606299211
21
-4.5494094488188974
0
LINE
8
BLACK
6
CONTINUOUS
10
6.6793149606299211
20
-4.5494094488188974
11
6.6793149606299211
21
-4.4214566929133854
0
LINE
8
BLACK
6
CONTINUOUS
10
6.6793149606299211
20
-4.4214566929133854
11
6.6238031496062995
21
-4.4214566929133854
0
LINE
8
BLACK
6
CONTINUOUS
10
6.8291168110236216
20
-4.4141300393700789
11
6.8296494881889762
21
-4.4146627165354326
0
LINE
8
BLACK
6
CONTINUOUS
10
6.8296494881889762
20
-4.4146627165354326
11
6.8297244094488185
21
-4.4150393700787403
0
LINE
8
BLACK
6
CONTINUOUS
10
6.8297244094488185
20
-4.4150393700787403
11
6.8297244094488185
21
-4.5449606299212597
0
LINE
8
BLACK
6
CONTINUOUS
10
6.8297244094488185
20
-4.5449606299212597
11
6.8296494881889762
21
-4.5453372834645664
0
LINE
8
BLACK
6
CONTINUOUS
10
6.8296494881889762
20
-4.5453372834645664
11
6.8291168110236216
21
-4.5458699606299211
0
LINE
8
BLACK
6
CONTINUOUS
10
6.8291168110236216
20
-4.5458699606299211
11
6.8287401574803148
21
-4.5459448818897634
0
LINE
8
BLACK
6
CONTINUOUS
10
6.8287401574803148
20
-4.5459448818897634
11
6.7712598425196848
21
-4.5459448818897634
0
LINE
8
BLACK
6
CONTINUOUS
10
6.7712598425196848
20
-4.5459448818897634
11
6.7708831889763781
21
-4.5458699606299211
0
LINE
8
BLACK
6
CONTINUOUS
10
6.7708831889763781
20
-4.5458699606299211
11
6.7703505118110234
21
-4.5453372834645664
0
LINE
8
BLACK
6
CONTINUOUS
10
6.7703505118110234
20
-4.5453372834645664
11
6.7702755905511811
21
-4.5449606299212597
0
LINE
8
BLACK
6
CONTINUOUS
10
6.7702755905511811
20
-4.5449606299212597
11
6.7702755905511811
21
-4.4150393700787403
0
LINE
8
BLACK
6
CONTINUOUS
10
6.7702755905511811
20
-4.4150393700787403
11
6.7703505118110234
21
-4.4146627165354326
0
LINE
8
BLACK
6
CONTINUOUS
10
6.7703505118110234
20
-4.4146627165354326
11
6.7708831889763781
21
-4.4141300393700789
0
LINE
8
BLACK
6
CONTINUOUS
10
6.7708831889763781
20
-4.4141300393700789
11
6.7712598425196848
21
-4.4140551181102365
0
LINE
8
BLACK
6
CONTINUOUS
10
6.7712598425196848
20
-4.4140551181102365
11
6.8287401574803148
21
-4.4140551181102365
0
LINE
8
BLACK
6
CONTINUOUS
10
6.8287401574803148
20
-4.4140551181102365
11
6.8291168110236216
21
-4.4141300393700789
0
LINE
8
BLACK
6
CONTINUOUS
10
6.7722440944881885
20
-4.416023622047244
11
6.7722440944881885
21
-4.543976377952756
0
LINE
8
BLACK
6
CONTINUOUS
10
6.7722440944881885
20
-4.543976377952756
11
6.8277559055118111
21
-4.543976377952756
0
LINE
8
BLACK
6
CONTINUOUS
10
6.8277559055118111
20
-4.543976377952756
11
6.8277559055118111
21
-4.416023622047244
0
LINE
8
BLACK
6
CONTINUOUS
10
6.8277559055118111
20
-4.416023622047244
11
6.7722440944881885
21
-4.416023622047244
0
LINE
8
BLACK
6
CONTINUOUS
10
6.6048884645669288
20
-4.4203505118110238
11
6.6054211417322835
21
-4.4208831889763776
0
LINE
8
BLACK
6
CONTINUOUS
10
6.6054211417322835
20
-4.4208831889763776
11
6.6054960629921258
21
-4.4212598425196852
0
LINE
8
BLACK
6
CONTINUOUS
10
6.6054960629921258
20
-4.4212598425196852
11
6.6054960629921258
21
-4.4787401574803152
0
LINE
8
BLACK
6
CONTINUOUS
10
6.6054960629921258
20
-4.4787401574803152
11
6.6054211417322835
21
-4.4791168110236219
0
LINE
8
BLACK
6
CONTINUOUS
10
6.6054211417322835
20
-4.4791168110236219
11
6.6048884645669288
21
-4.4796494881889766
0
LINE
8
BLACK
6
CONTINUOUS
10
6.6048884645669288
20
-4.4796494881889766
11
6.6045118110236221
21
-4.4797244094488189
0
LINE
8
BLACK
6
CONTINUOUS
10
6.6045118110236221
20
-4.4797244094488189
11
6.4745905511811026
21
-4.4797244094488189
0
LINE
8
BLACK
6
CONTINUOUS
10
6.4745905511811026
20
-4.4797244094488189
11
6.474213897637795
21
-4.4796494881889766
0
LINE
8
BLACK
6
CONTINUOUS
10
6.474213897637795
20
-4.4796494881889766
11
6.4736812204724412
21
-4.4791168110236219
0
LINE
8
BLACK
6
CONTINUOUS
10
6.4736812204724412
20
-4.4791168110236219
11
6.473606299212598
21
-4.4787401574803152
0
LINE
8
BLACK
6
CONTINUOUS
10
6.473606299212598
20
-4.4787401574803152
11
6.473606299212598
21
-4.4212598425196852
0
LINE
8
BLACK
6
CONTINUOUS
10
6.473606299212598
20
-4.4212598425196852
11
6.4736812204724412
21
-4.4208831889763776
0
LINE
8
BLACK
6
CONTINUOUS
10
6.4736812204724412
20
-4.4208831889763776
11
6.474213897637795
21
-4.4203505118110238
0
LINE
8
BLACK
6
CONTINUOUS
10
6.474213897637795
20
-4.4203505118110238
11
6.4745905511811026
21
-4.4202755905511806
0
LINE
8
BLACK
6
CONTINUOUS
10
6.4745905511811026
20
-4.4202755905511806
11
6.6045118110236221
21
-4.4202755905511806
0
LINE
8
BLACK
6
CONTINUOUS
10
6.6045118110236221
20
-4.4202755905511806
11
6.6048884645669288
21
-4.4203505118110238
0
LINE
8
BLACK
6
CONTINUOUS
10
6.4755748031496063
20
-4.4222440944881889
11
6.4755748031496063
21
-4.4777559055118106
0
LINE
8
BLACK
6
CONTINUOUS
10
6.4755748031496063
20
-4.4777559055118106
11
6.6035275590551183
21
-4.4777559055118106
0
LINE
8
BLACK
6
CONTINUOUS
10
6.6035275590551183
20
-4.4777559055118106
11
6.6035275590551183
21
-4.4222440944881889
0
LINE
8
BLACK
6
CONTINUOUS
10
6.6035275590551183
20
-4.4222440944881889
11
6.4755748031496063
21
-4.4222440944881889
0
LINE
8
BLACK
6
CONTINUOUS
10
6.7672900393700788
20
-4.4305867322834649
11
6.7678227165354325
21
-4.4311194094488187
0
LINE
8
BLACK
6
CONTINUOUS
10
6.7678227165354325
20
-4.4311194094488187
11
6.7678976377952758
21
-4.4314960629921263
0
LINE
8
BLACK
6
CONTINUOUS
10
6.7678976377952758
20
-4.4314960629921263
11
6.7678976377952758
21
-4.4685039370078741
0
LINE
8
BLACK
6
CONTINUOUS
10
6.7678976377952758
20
-4.4685039370078741
11
6.7678227165354325
21
-4.4688805905511808
0
LINE
8
BLACK
6
CONTINUOUS
10
6.7678227165354325
20
-4.4688805905511808
11
6.7672900393700788
21
-4.4694132677165355
0
LINE
8
BLACK
6
CONTINUOUS
10
6.7672900393700788
20
-4.4694132677165355
11
6.7669133858267712
21
-4.4694881889763778
0
LINE
8
BLACK
6
CONTINUOUS
10
6.7669133858267712
20
-4.4694881889763778
11
6.6936850393700782
21
-4.4694881889763778
0
LINE
8
BLACK
6
CONTINUOUS
10
6.6936850393700782
20
-4.4694881889763778
11
6.6933083858267715
21
-4.4694132677165355
0
LINE
8
BLACK
6
CONTINUOUS
10
6.6933083858267715
20
-4.4694132677165355
11
6.6927757086614168
21
-4.4688805905511808
0
LINE
8
BLACK
6
CONTINUOUS
10
6.6927757086614168
20
-4.4688805905511808
11
6.6927007874015745
21
-4.4685039370078741
0
LINE
8
BLACK
6
CONTINUOUS
10
6.6927007874015745
20
-4.4685039370078741
11
6.6927007874015745
21
-4.4314960629921263
0
LINE
8
BLACK
6
CONTINUOUS
10
6.6927007874015745
20
-4.4314960629921263
11
6.6927757086614168
21
-4.4311194094488187
0
LINE
8
BLACK
6
CONTINUOUS
10
6.6927757086614168
20
-4.4311194094488187
11
6.6933083858267715
21
-4.4305867322834649
0
LINE
8
BLACK
6
CONTINUOUS
10
6.6933083858267715
20
-4.4305867322834649
11
6.6936850393700782
21
-4.4305118110236217
0
LINE
8
BLACK
6
CONTINUOUS
10
6.6936850393700782
20
-4.4305118110236217
11
6.7669133858267712
21
-4.4305118110236217
0
LINE
8
BLACK
6
CONTINUOUS
10
6.7669133858267712
20
-4.4305118110236217
11
6.7672900393700788
21
-4.4305867322834649
0
LINE
8
BLACK
6
CONTINUOUS
10
6.6946692913385828
20
-4.43248031496063
11
6.6946692913385828
21
-4.4675196850393704
0
LINE
8
BLACK
6
CONTINUOUS
10
6.6946692913385828
20
-4.4675196850393704
11
6.7659291338582674
21
-4.4675196850393704
0
LINE
8
BLACK
6
CONTINUOUS
10
6.7659291338582674
20
-4.4675196850393704
11
6.7659291338582674
21
-4.43248031496063
0
LINE
8
BLACK
6
CONTINUOUS
10
6.7659291338582674
20
-4.43248031496063
11
6.6946692913385828
21
-4.43248031496063
0
LINE
8
BLACK
6
CONTINUOUS
10
6.3958884645669292
20
-4.3853505118110236
11
6.3964211417322829
21
-4.3858831889763774
0
LINE
8
BLACK
6
CONTINUOUS
10
6.3964211417322829
20
-4.3858831889763774
11
6.3964960629921261
21
-4.386259842519685
0
LINE
8
BLACK
6
CONTINUOUS
10
6.3964960629921261
20
-4.386259842519685
11
6.3964960629921261
21
-4.443740157480315
0
LINE
8
BLACK
6
CONTINUOUS
10
6.3964960629921261
20
-4.443740157480315
11
6.3964211417322829
21
-4.4441168110236218
0
LINE
8
BLACK
6
CONTINUOUS
10
6.3964211417322829
20
-4.4441168110236218
11
6.3958884645669292
21
-4.4446494881889764
0
LINE
8
BLACK
6
CONTINUOUS
10
6.3958884645669292
20
-4.4446494881889764
11
6.3955118110236215
21
-4.4447244094488187
0
LINE
8
BLACK
6
CONTINUOUS
10
6.3955118110236215
20
-4.4447244094488187
11
6.2655905511811021
21
-4.4447244094488187
0
LINE
8
BLACK
6
CONTINUOUS
10
6.2655905511811021
20
-4.4447244094488187
11
6.2652138976377953
21
-4.4446494881889764
0
LINE
8
BLACK
6
CONTINUOUS
10
6.2652138976377953
20
-4.4446494881889764
11
6.2646812204724407
21
-4.4441168110236218
0
LINE
8
BLACK
6
CONTINUOUS
10
6.2646812204724407
20
-4.4441168110236218
11
6.2646062992125984
21
-4.443740157480315
0
LINE
8
BLACK
6
CONTINUOUS
10
6.2646062992125984
20
-4.443740157480315
11
6.2646062992125984
21
-4.386259842519685
0
LINE
8
BLACK
6
CONTINUOUS
10
6.2646062992125984
20
-4.386259842519685
11
6.2646812204724407
21
-4.3858831889763774
0
LINE
8
BLACK
6
CONTINUOUS
10
6.2646812204724407
20
-4.3858831889763774
11
6.2652138976377953
21
-4.3853505118110236
0
LINE
8
BLACK
6
CONTINUOUS
10
6.2652138976377953
20
-4.3853505118110236
11
6.2655905511811021
21
-4.3852755905511813
0
LINE
8
BLACK
6
CONTINUOUS
10
6.2655905511811021
20
-4.3852755905511813
11
6.3955118110236215
21
-4.3852755905511813
0
LINE
8
BLACK
6
CONTINUOUS
10
6.3955118110236215
20
-4.3852755905511813
11
6.3958884645669292
21
-4.3853505118110236
0
LINE
8
BLACK
6
CONTINUOUS
10
6.2665748031496058
20
-4.3872440944881888
11
6.2665748031496058
21
-4.4427559055118113
0
LINE
8
BLACK
6
CONTINUOUS
10
6.2665748031496058
20
-4.4427559055118113
11
6.3945275590551178
21
-4.4427559055118113
0
LINE
8
BLACK
6
CONTINUOUS
10
6.3945275590551178
20
-4.4427559055118113
11
6.3945275590551178
21
-4.3872440944881888
0
LINE
8
BLACK
6
CONTINUOUS
10
6.3945275590551178
20
-4.3872440944881888
11
6.2665748031496058
21
-4.3872440944881888
0
LINE
8
BLACK
6
CONTINUOUS
10
5.8188018503937009
20
-4.3503505118110235
11
5.8193345275590547
21
-4.3508831889763782
0
LINE
8
BLACK
6
CONTINUOUS
10
5.8193345275590547
20
-4.3508831889763782
11
5.8194094488188979
21
-4.3512598425196849
0
LINE
8
BLACK
6
CONTINUOUS
10
5.8194094488188979
20
-4.3512598425196849
11
5.8194094488188979
21
-4.4087401574803149
0
LINE
8
BLACK
6
CONTINUOUS
10
5.8194094488188979
20
-4.4087401574803149
11
5.8193345275590547
21
-4.4091168110236216
0
LINE
8
BLACK
6
CONTINUOUS
10
5.8193345275590547
20
-4.4091168110236216
11
5.8188018503937009
21
-4.4096494881889763
0
LINE
8
BLACK
6
CONTINUOUS
10
5.8188018503937009
20
-4.4096494881889763
11
5.8184251968503933
21
-4.4097244094488186
0
LINE
8
BLACK
6
CONTINUOUS
10
5.8184251968503933
20
-4.4097244094488186
11
5.6885039370078738
21
-4.4097244094488186
0
LINE
8
BLACK
6
CONTINUOUS
10
5.6885039370078738
20
-4.4097244094488186
11
5.6881272834645671
21
-4.4096494881889763
0
LINE
8
BLACK
6
CONTINUOUS
10
5.6881272834645671
20
-4.4096494881889763
11
5.6875946062992124
21
-4.4091168110236216
0
LINE
8
BLACK
6
CONTINUOUS
10
5.6875946062992124
20
-4.4091168110236216
11
5.6875196850393701
21
-4.4087401574803149
0
LINE
8
BLACK
6
CONTINUOUS
10
5.6875196850393701
20
-4.4087401574803149
11
5.6875196850393701
21
-4.3512598425196849
0
LINE
8
BLACK
6
CONTINUOUS
10
5.6875196850393701
20
-4.3512598425196849
11
5.6875946062992124
21
-4.3508831889763782
0
LINE
8
BLACK
6
CONTINUOUS
10
5.6875946062992124
20
-4.3508831889763782
11
5.6881272834645671
21
-4.3503505118110235
0
LINE
8
BLACK
6
CONTINUOUS
10
5.6881272834645671
20
-4.3503505118110235
11
5.6885039370078738
21
-4.3502755905511812
0
LINE
8
BLACK
6
CONTINUOUS
10
5.6885039370078738
20
-4.3502755905511812
11
5.8184251968503933
21
-4.3502755905511812
0
LINE
8
BLACK
6
CONTINUOUS
10
5.8184251968503933
20
-4.3502755905511812
11
5.8188018503937009
21
-4.3503505118110235
0
LINE
8
BLACK
6
CONTINUOUS
10
5.6894881889763775
20
-4.3522440944881886
11
5.6894881889763775
21
-4.4077559055118112
0
LINE
8
BLACK
6
CONTINUOUS
10
5.6894881889763775
20
-4.4077559055118112
11
5.8174409448818896
21
-4.4077559055118112
0
LINE
8
BLACK
6
CONTINUOUS
10
5.8174409448818896
20
-4.4077559055118112
11
5.8174409448818896
21
-4.3522440944881886
0
LINE
8
BLACK
6
CONTINUOUS
10
5.8174409448818896
20
-4.3522440944881886
11
5.6894881889763775
21
-4.3522440944881886
0
LINE
8
BLACK
6
CONTINUOUS
10
5.5845498818897639
20
-4.2609804330708663
11
5.5850825590551176
21
-4.26151311023622
0
LINE
8
BLACK
6
CONTINUOUS
10
5.5850825590551176
20
-4.26151311023622
11
5.5851574803149608
21
-4.2618897637795277
0
LINE
8
BLACK
6
CONTINUOUS
10
5.5851574803149608
20
-4.2618897637795277
11
5.5851574803149608
21
-4.4036220472440943
0
LINE
8
BLACK
6
CONTINUOUS
10
5.5851574803149608
20
-4.4036220472440943
11
5.5850825590551176
21
-4.4039987007874011
0
LINE
8
BLACK
6
CONTINUOUS
10
5.5850825590551176
20
-4.4039987007874011
11
5.5845498818897639
21
-4.4045313779527557
0
LINE
8
BLACK
6
CONTINUOUS
10
5.5845498818897639
20
-4.4045313779527557
11
5.5841732283464562
21
-4.4046062992125981
0
LINE
8
BLACK
6
CONTINUOUS
10
5.5841732283464562
20
-4.4046062992125981
11
5.4345669291338581
21
-4.4046062992125981
0
LINE
8
BLACK
6
CONTINUOUS
10
5.4345669291338581
20
-4.4046062992125981
11
5.4341902755905513
21
-4.4045313779527557
0
LINE
8
BLACK
6
CONTINUOUS
10
5.4341902755905513
20
-4.4045313779527557
11
5.4336575984251967
21
-4.4039987007874011
0
LINE
8
BLACK
6
CONTINUOUS
10
5.4336575984251967
20
-4.4039987007874011
11
5.4335826771653544
21
-4.4036220472440943
0
LINE
8
BLACK
6
CONTINUOUS
10
5.4335826771653544
20
-4.4036220472440943
11
5.4335826771653544
21
-4.2618897637795277
0
LINE
8
BLACK
6
CONTINUOUS
10
5.4335826771653544
20
-4.2618897637795277
11
5.4336575984251967
21
-4.26151311023622
0
LINE
8
BLACK
6
CONTINUOUS
10
5.4336575984251967
20
-4.26151311023622
11
5.4341902755905513
21
-4.2609804330708663
0
LINE
8
BLACK
6
CONTINUOUS
10
5.4341902755905513
20
-4.2609804330708663
11
5.4345669291338581
21
-4.2609055118110239
0
LINE
8
BLACK
6
CONTINUOUS
10
5.4345669291338581
20
-4.2609055118110239
11
5.5841732283464562
21
-4.2609055118110239
0
LINE
8
BLACK
6
CONTINUOUS
10
5.5841732283464562
20
-4.2609055118110239
11
5.5845498818897639
21
-4.2609804330708663
0
LINE
8
BLACK
6
CONTINUOUS
10
5.4355511811023618
20
-4.2628740157480314
11
5.4355511811023618
21
-4.4026377952755906
0
LINE
8
BLACK
6
CONTINUOUS
10
5.4355511811023618
20
-4.4026377952755906
11
5.5831889763779525
21
-4.4026377952755906
0
LINE
8
BLACK
6
CONTINUOUS
10
5.5831889763779525
20
-4.4026377952755906
11
5.5831889763779525
21
-4.2628740157480314
0
LINE
8
BLACK
6
CONTINUOUS
10
5.5831889763779525
20
-4.2628740157480314
11
5.4355511811023618
21
-4.2628740157480314
0
LINE
8
BLACK
6
CONTINUOUS
10
6.4826404330708662
20
-4.3103505118110235
11
6.48317311023622
21
-4.3108831889763781
0
LINE
8
BLACK
6
CONTINUOUS
10
6.48317311023622
20
-4.3108831889763781
11
6.4832480314960632
21
-4.3112598425196849
0
LINE
8
BLACK
6
CONTINUOUS
10
6.4832480314960632
20
-4.3112598425196849
11
6.4832480314960632
21
-4.3687401574803149
0
LINE
8
BLACK
6
CONTINUOUS
10
6.4832480314960632
20
-4.3687401574803149
11
6.48317311023622
21
-4.3691168110236216
0
LINE
8
BLACK
6
CONTINUOUS
10
6.48317311023622
20
-4.3691168110236216
11
6.4826404330708662
21
-4.3696494881889762
0
LINE
8
BLACK
6
CONTINUOUS
10
6.4826404330708662
20
-4.3696494881889762
11
6.4822637795275586
21
-4.3697244094488186
0
LINE
8
BLACK
6
CONTINUOUS
10
6.4822637795275586
20
-4.3697244094488186
11
6.3657283464566925
21
-4.3697244094488186
0
LINE
8
BLACK
6
CONTINUOUS
10
6.3657283464566925
20
-4.3697244094488186
11
6.3653516929133858
21
-4.3696494881889762
0
LINE
8
BLACK
6
CONTINUOUS
10
6.3653516929133858
20
-4.3696494881889762
11
6.3648190157480311
21
-4.3691168110236216
0
LINE
8
BLACK
6
CONTINUOUS
10
6.3648190157480311
20
-4.3691168110236216
11
6.3647440944881888
21
-4.3687401574803149
0
LINE
8
BLACK
6
CONTINUOUS
10
6.3647440944881888
20
-4.3687401574803149
11
6.3647440944881888
21
-4.3112598425196849
0
LINE
8
BLACK
6
CONTINUOUS
10
6.3647440944881888
20
-4.3112598425196849
11
6.3648190157480311
21
-4.3108831889763781
0
LINE
8
BLACK
6
CONTINUOUS
10
6.3648190157480311
20
-4.3108831889763781
11
6.3653516929133858
21
-4.3103505118110235
0
LINE
8
BLACK
6
CONTINUOUS
10
6.3653516929133858
20
-4.3103505118110235
11
6.3657283464566925
21
-4.3102755905511811
0
LINE
8
BLACK
6
CONTINUOUS
10
6.3657283464566925
20
-4.3102755905511811
11
6.4822637795275586
21
-4.3102755905511811
0
LINE
8
BLACK
6
CONTINUOUS
10
6.4822637795275586
20
-4.3102755905511811
11
6.4826404330708662
21
-4.3103505118110235
0
LINE
8
BLACK
6
CONTINUOUS
10
6.3667125984251971
20
-4.3122440944881886
11
6.3667125984251971
21
-4.3677559055118111
0
LINE
8
BLACK
6
CONTINUOUS
10
6.3667125984251971
20
-4.3677559055118111
11
6.4812795275590549
21
-4.3677559055118111
0
LINE
8
BLACK
6
CONTINUOUS
10
6.4812795275590549
20
-4.3677559055118111
11
6.4812795275590549
21
-4.3122440944881886
0
LINE
8
BLACK
6
CONTINUOUS
10
6.4812795275590549
20
-4.3122440944881886
11
6.3667125984251971
21
-4.3122440944881886
0
LINE
8
BLACK
6
CONTINUOUS
10
6.6426404330708664
20
-4.3103505118110235
11
6.6431731102362201
21
-4.3108831889763781
0
LINE
8
BLACK
6
CONTINUOUS
10
6.6431731102362201
20
-4.3108831889763781
11
6.6432480314960625
21
-4.3112598425196849
0
LINE
8
BLACK
6
CONTINUOUS
10
6.6432480314960625
20
-4.3112598425196849
11
6.6432480314960625
21
-4.3687401574803149
0
LINE
8
BLACK
6
CONTINUOUS
10
6.6432480314960625
20
-4.3687401574803149
11
6.6431731102362201
21
-4.3691168110236216
0
LINE
8
BLACK
6
CONTINUOUS
10
6.6431731102362201
20
-4.3691168110236216
11
6.6426404330708664
21
-4.3696494881889762
0
LINE
8
BLACK
6
CONTINUOUS
10
6.6426404330708664
20
-4.3696494881889762
11
6.6422637795275588
21
-4.3697244094488186
0
LINE
8
BLACK
6
CONTINUOUS
10
6.6422637795275588
20
-4.3697244094488186
11
6.5257283464566926
21
-4.3697244094488186
0
LINE
8
BLACK
6
CONTINUOUS
10
6.5257283464566926
20
-4.3697244094488186
11
6.5253516929133859
21
-4.3696494881889762
0
LINE
8
BLACK
6
CONTINUOUS
10
6.5253516929133859
20
-4.3696494881889762
11
6.5248190157480312
21
-4.3691168110236216
0
LINE
8
BLACK
6
CONTINUOUS
10
6.5248190157480312
20
-4.3691168110236216
11
6.5247440944881889
21
-4.3687401574803149
0
LINE
8
BLACK
6
CONTINUOUS
10
6.5247440944881889
20
-4.3687401574803149
11
6.5247440944881889
21
-4.3112598425196849
0
LINE
8
BLACK
6
CONTINUOUS
10
6.5247440944881889
20
-4.3112598425196849
11
6.5248190157480312
21
-4.3108831889763781
0
LINE
8
BLACK
6
CONTINUOUS
10
6.5248190157480312
20
-4.3108831889763781
11
6.5253516929133859
21
-4.3103505118110235
0
LINE
8
BLACK
6
CONTINUOUS
10
6.5253516929133859
20
-4.3103505118110235
11
6.5257283464566926
21
-4.3102755905511811
0
LINE
8
BLACK
6
CONTINUOUS
10
6.5257283464566926
20
-4.3102755905511811
11
6.6422637795275588
21
-4.3102755905511811
0
LINE
8
BLACK
6
CONTINUOUS
10
6.6422637795275588
20
-4.3102755905511811
11
6.6426404330708664
21
-4.3103505118110235
0
LINE
8
BLACK
6
CONTINUOUS
10
6.5267125984251964
20
-4.3122440944881886
11
6.5267125984251964
21
-4.3677559055118111
0
LINE
8
BLACK
6
CONTINUOUS
10
6.5267125984251964
20
-4.3677559055118111
11
6.641279527559055
21
-4.3677559055118111
0
LINE
8
BLACK
6
CONTINUOUS
10
6.641279527559055
20
-4.3677559055118111
11
6.641279527559055
21
-4.3122440944881886
0
LINE
8
BLACK
6
CONTINUOUS
10
6.641279527559055
20
-4.3122440944881886
11
6.5267125984251964
21
-4.3122440944881886
0
LINE
8
BLACK
6
CONTINUOUS
10
5.9958097244094484
20
-4.2357835826771648
11
5.996342401574803
21
-4.2363162598425195
0
LINE
8
BLACK
6
CONTINUOUS
10
5.996342401574803
20
-4.2363162598425195
11
5.9964173228346453
21
-4.2366929133858271
0
LINE
8
BLACK
6
CONTINUOUS
10
5.9964173228346453
20
-4.2366929133858271
11
5.9964173228346453
21
-4.3233070866141734
0
LINE
8
BLACK
6
CONTINUOUS
10
5.9964173228346453
20
-4.3233070866141734
11
5.996342401574803
21
-4.3236837401574801
0
LINE
8
BLACK
6
CONTINUOUS
10
5.996342401574803
20
-4.3236837401574801
11
5.9958097244094484
21
-4.3242164173228348
0
LINE
8
BLACK
6
CONTINUOUS
10
5.9958097244094484
20
-4.3242164173228348
11
5.9954330708661416
21
-4.3242913385826771
0
LINE
8
BLACK
6
CONTINUOUS
10
5.9954330708661416
20
-4.3242913385826771
11
5.7867716535433074
21
-4.3242913385826771
0
LINE
8
BLACK
6
CONTINUOUS
10
5.7867716535433074
20
-4.3242913385826771
11
5.7863949999999997
21
-4.3242164173228348
0
LINE
8
BLACK
6
CONTINUOUS
10
5.7863949999999997
20
-4.3242164173228348
11
5.785862322834646
21
-4.3236837401574801
0
LINE
8
BLACK
6
CONTINUOUS
10
5.785862322834646
20
-4.3236837401574801
11
5.7857874015748028
21
-4.3233070866141734
0
LINE
8
BLACK
6
CONTINUOUS
10
5.7857874015748028
20
-4.3233070866141734
11
5.7857874015748028
21
-4.2366929133858271
0
LINE
8
BLACK
6
CONTINUOUS
10
5.7857874015748028
20
-4.2366929133858271
11
5.785862322834646
21
-4.2363162598425195
0
LINE
8
BLACK
6
CONTINUOUS
10
5.785862322834646
20
-4.2363162598425195
11
5.7863949999999997
21
-4.2357835826771648
0
LINE
8
BLACK
6
CONTINUOUS
10
5.7863949999999997
20
-4.2357835826771648
11
5.7867716535433074
21
-4.2357086614173225
0
LINE
8
BLACK
6
CONTINUOUS
10
5.7867716535433074
20
-4.2357086614173225
11
5.9954330708661416
21
-4.2357086614173225
0
LINE
8
BLACK
6
CONTINUOUS
10
5.9954330708661416
20
-4.2357086614173225
11
5.9958097244094484
21
-4.2357835826771648
0
LINE
8
BLACK
6
CONTINUOUS
10
5.7877559055118111
20
-4.2376771653543308
11
5.7877559055118111
21
-4.3223228346456688
0
LINE
8
BLACK
6
CONTINUOUS
10
5.7877559055118111
20
-4.3223228346456688
11
5.9944488188976379
21
-4.3223228346456688
0
LINE
8
BLACK
6
CONTINUOUS
10
5.9944488188976379
20
-4.3223228346456688
11
5.9944488188976379
21
-4.2376771653543308
0
LINE
8
BLACK
6
CONTINUOUS
10
5.9944488188976379
20
-4.2376771653543308
11
5.7877559055118111
21
-4.2376771653543308
0
CIRCLE
8
BLACK
10
5.5
20
-4.0999999999999996
40
0.0068897637795276
0
CIRCLE
8
BLACK
10
7.0999999999999996
20
-4.8999999999999995
40
0.0068897637795276
0
CIRCLE
8
BLACK
10
5.4299999999999997
20
-4.6799999999999997
40
0.0068897637795276
0
CIRCLE
8
BLACK
10
5.5300000000000002
20
-4.6799999999999997
40
0.0068897637795276
0
CIRCLE
8
BLACK
10
6.5788188976377953
20
-4.1499999999999995
40
0.0068897637795276
0
CIRCLE
8
BLACK
10
6.5788188976377953
20
-4.0499999999999998
40
0.0068897637795276
0
CIRCLE
8
BLACK
10
6.7796062992125981
20
-4.1499999999999995
40
0.0068897637795276
0
CIRCLE
8
BLACK
10
6.7796062992125981
20
-4.0499999999999998
40
0.0068897637795276
0
CIRCLE
8
BLACK
10
6.440787401574803
20
-4.1499999999999995
40
0.0068897637795276
0
CIRCLE
8
BLACK
10
6.440787401574803
20
-4.0499999999999998
40
0.0068897637795276
0
CIRCLE
8
BLACK
10
7.0620000000000003
20
-4.5
40
0.0068897637795276
0
CIRCLE
8
BLACK
10
6.9619999999999997
20
-4.5999999999999996
40
0.0068897637795276
0
CIRCLE
8
BLACK
10
7.1619999999999999
20
-4.5999999999999996
40
0.0068897637795276
0
CIRCLE
8
BLACK
10
6.9619999999999997
20
-4.3999999999999995
40
0.0068897637795276
0
CIRCLE
8
BLACK
10
7.1619999999999999
20
-4.3999999999999995
40
0.0068897637795276
0
CIRCLE
8
BLACK
10
6.0392125984251965
20
-4.1499999999999995
40
0.0068897637795276
0
CIRCLE
8
BLACK
10
6.0392125984251965
20
-4.0499999999999998
40
0.0068897637795276
0
CIRCLE
8
BLACK
10
6.8799999999999999
20
-4.1499999999999995
40
0.0068897637795276
0
CIRCLE
8
BLACK
10
6.8799999999999999
20
-4.0499999999999998
40
0.0068897637795276
0
CIRCLE
8
BLACK
10
6.1396062992125984
20
-4.1499999999999995
40
0.0068897637795276
0
CIRCLE
8
BLACK
10
6.1396062992125984
20
-4.0499999999999998
40
0.0068897637795276
0
CIRCLE
8
BLACK
10
6.2400000000000002
20
-4.1499999999999995
40
0.0068897637795276
0
CIRCLE
8
BLACK
10
6.2400000000000002
20
-4.0499999999999998
40
0.0068897637795276
0
CIRCLE
8
BLACK
10
6.3403937007874012
20
-4.1499999999999995
40
0.0068897637795276
0
CIRCLE
8
BLACK
10
6.3403937007874012
20
-4.0499999999999998
40
0.0068897637795276
0
CIRCLE
8
BLACK
10
6.6792125984251971
20
-4.1499999999999995
40
0.0068897637795276
0
CIRCLE
8
BLACK
10
6.6792125984251971
20
-4.0499999999999998
40
0.0068897637795276
0
CIRCLE
8
BLACK
10
7.0999999999999996
20
-4.0999999999999996
40
0.0068897637795276
0
CIRCLE
8
BLACK
10
5.7199999999999998
20
-4.1499999999999995
40
0.0068897637795276
0
CIRCLE
8
BLACK
10
5.7199999999999998
20
-4.0499999999999998
40
0.0068897637795276
0
CIRCLE
8
BLACK
10
5.8200000000000003
20
-4.1499999999999995
40
0.0068897637795276
0
CIRCLE
8
BLACK
10
5.8200000000000003
20
-4.0499999999999998
40
0.0068897637795276
0
CIRCLE
8
BLACK
10
5.9199999999999999
20
-4.1499999999999995
40
0.0068897637795276
0
CIRCLE
8
BLACK
10
5.9199999999999999
20
-4.0499999999999998
40
0.0068897637795276
0
CIRCLE
8
BLACK
10
5.5
20
-4.8999999999999995
40
0.0068897637795276
0
CIRCLE
8
BLACK
10
5.4299999999999997
20
-4.4799999999999995
40
0.0068897637795276
0
CIRCLE
8
BLACK
10
5.5300000000000002
20
-4.4799999999999995
40
0.0068897637795276
0
CIRCLE
8
BLACK
10
5.4299999999999997
20
-4.5800000000000001
40
0.0068897637795276
0
CIRCLE
8
BLACK
10
5.5300000000000002
20
-4.5800000000000001
40
0.0068897637795276
0
CIRCLE
8
BLACK
10
5.8585826771653542
20
-4.6730708661417326
40
0.0039370078740157
0
CIRCLE
8
BLACK
10
5.8999212598425199
20
-4.6730708661417326
40
0.0039370078740157
0
CIRCLE
8
BLACK
10
5.9412598425196848
20
-4.6730708661417326
40
0.0039370078740157
0
CIRCLE
8
BLACK
10
5.8585826771653542
20
-4.6317322834645669
40
0.0039370078740157
0
CIRCLE
8
BLACK
10
5.8999212598425199
20
-4.6317322834645669
40
0.0039370078740157
0
CIRCLE
8
BLACK
10
5.9412598425196848
20
-4.6317322834645669
40
0.0039370078740157
0
CIRCLE
8
BLACK
10
5.8585826771653542
20
-4.5903937007874012
40
0.0039370078740157
0
CIRCLE
8
BLACK
10
5.8999212598425199
20
-4.5903937007874012
40
0.0039370078740157
0
CIRCLE
8
BLACK
10
5.9412598425196848
20
-4.5903937007874012
40
0.0039370078740157
  0
ENDSEC
  0
EOF
