  0
SECTION
  2
HEADER
  9
$ANGBASE
  50
0.0
  9
$ANGDIR
  70
1
  9
$MEASUREMENT
  70
0
  0
ENDSEC
  0
SECTION
  2
TABLES
  0
TABLE
  2
LTYPE
  70
4
  0
LTYPE
  5
40F
  2
CONTINUOUS
  70
0
  3
Solid line
  72
65
  73
0
  40
0.0
  0
LTYPE
  5
410
  2
DASHDOT
 70
0
  3
Dash Dot ____ _ ____ _
 72
65
 73
4
 40
2.0
 49
1.25
 49
-0.25
 49
0.25
 49
-0.25
  0
LTYPE
  5
411
  2
DASHED
 70
0
  3
Dashed __ __ __ __ __
 72
65
 73
2
 40
0.75
 49
0.5
 49
-0.25
  0
LTYPE
  5
43B
  2
DOTTED
 70
0
  3
Dotted .  .  .  .
 72
65
 73
2
 40
0.2
 49
0.0
 49
-0.2
  0
ENDTAB
  0
TABLE
  2
STYLE
  70
4
  0
STYLE
  2
KICAD
  70
0
  40
0
  41
1
  42
1
  50
0
  71
0
  3
isocp.shx
  0
STYLE
  2
KICADB
  70
0
  40
0
  41
1
  42
1
  50
0
  71
0
  3
isocp.shx
  0
STYLE
  2
KICADI
  70
0
  40
0
  41
1
  42
1
  50
15
  71
0
  3
isocp.shx
  0
STYLE
  2
KICADBI
  70
0
  40
0
  41
1
  42
1
  50
15
  71
0
  3
isocp.shx
  0
ENDTAB
  0
TABLE
  2
LAYER
  70
1
  0
LAYER
  2
BLACK
  70
0
  62
7
  6
CONTINUOUS
  0
ENDTAB
  0
ENDSEC
  0
SECTION
  2
ENTITIES
0
LINE
8
BLACK
6
CONTINUOUS
10
5.96072
20
-4.61605
11
5.96043
21
-4.61535
0
LINE
8
BLACK
6
CONTINUOUS
10
5.96043
20
-4.61535
11
5.96043
21
-4.49488
0
LINE
8
BLACK
6
CONTINUOUS
10
5.96043
20
-4.49488
11
5.96072
21
-4.49419
0
LINE
8
BLACK
6
CONTINUOUS
10
5.96072
20
-4.49419
11
5.96142
21
-4.4939
0
LINE
8
BLACK
6
CONTINUOUS
10
5.96142
20
-4.4939
11
6.10157
21
-4.4939
0
LINE
8
BLACK
6
CONTINUOUS
10
6.10157
20
-4.4939
11
6.10227
21
-4.49419
0
LINE
8
BLACK
6
CONTINUOUS
10
6.10227
20
-4.49419
11
6.10256
21
-4.49488
0
LINE
8
BLACK
6
CONTINUOUS
10
6.10256
20
-4.49488
11
6.10256
21
-4.61535
0
LINE
8
BLACK
6
CONTINUOUS
10
6.10256
20
-4.61535
11
6.10227
21
-4.61605
0
LINE
8
BLACK
6
CONTINUOUS
10
6.10227
20
-4.61605
11
6.10157
21
-4.61634
0
LINE
8
BLACK
6
CONTINUOUS
10
6.10157
20
-4.61634
11
5.96142
21
-4.61634
0
LINE
8
BLACK
6
CONTINUOUS
10
5.96142
20
-4.61634
11
5.96072
21
-4.61605
0
LINE
8
BLACK
6
CONTINUOUS
10
5.9624
20
-4.49587
11
5.9624
21
-4.61437
0
LINE
8
BLACK
6
CONTINUOUS
10
5.9624
20
-4.61437
11
6.10059
21
-4.61437
0
LINE
8
BLACK
6
CONTINUOUS
10
6.10059
20
-4.61437
11
6.10059
21
-4.49587
0
LINE
8
BLACK
6
CONTINUOUS
10
6.10059
20
-4.49587
11
5.9624
21
-4.49587
0
LINE
8
BLACK
6
CONTINUOUS
10
5.8997
20
-4.55778
11
5.89941
21
-4.55709
0
LINE
8
BLACK
6
CONTINUOUS
10
5.89941
20
-4.55709
11
5.89941
21
-4.42717
0
LINE
8
BLACK
6
CONTINUOUS
10
5.89941
20
-4.42717
11
5.8997
21
-4.42647
0
LINE
8
BLACK
6
CONTINUOUS
10
5.8997
20
-4.42647
11
5.90039
21
-4.42618
0
LINE
8
BLACK
6
CONTINUOUS
10
5.90039
20
-4.42618
11
5.95787
21
-4.42618
0
LINE
8
BLACK
6
CONTINUOUS
10
5.95787
20
-4.42618
11
5.95857
21
-4.42647
0
LINE
8
BLACK
6
CONTINUOUS
10
5.95857
20
-4.42647
11
5.95886
21
-4.42717
0
LINE
8
BLACK
6
CONTINUOUS
10
5.95886
20
-4.42717
11
5.95886
21
-4.55709
0
LINE
8
BLACK
6
CONTINUOUS
10
5.95886
20
-4.55709
11
5.95857
21
-4.55778
0
LINE
8
BLACK
6
CONTINUOUS
10
5.95857
20
-4.55778
11
5.95787
21
-4.55807
0
LINE
8
BLACK
6
CONTINUOUS
10
5.95787
20
-4.55807
11
5.90039
21
-4.55807
0
LINE
8
BLACK
6
CONTINUOUS
10
5.90039
20
-4.55807
11
5.8997
21
-4.55778
0
LINE
8
BLACK
6
CONTINUOUS
10
5.90138
20
-4.42815
11
5.90138
21
-4.5561
0
LINE
8
BLACK
6
CONTINUOUS
10
5.90138
20
-4.5561
11
5.95689
21
-4.5561
0
LINE
8
BLACK
6
CONTINUOUS
10
5.95689
20
-4.5561
11
5.95689
21
-4.42815
0
LINE
8
BLACK
6
CONTINUOUS
10
5.95689
20
-4.42815
11
5.90138
21
-4.42815
0
LINE
8
BLACK
6
CONTINUOUS
10
6.10442
20
-4.55778
11
6.10413
21
-4.55709
0
LINE
8
BLACK
6
CONTINUOUS
10
6.10413
20
-4.55709
11
6.10413
21
-4.42717
0
LINE
8
BLACK
6
CONTINUOUS
10
6.10413
20
-4.42717
11
6.10442
21
-4.42647
0
LINE
8
BLACK
6
CONTINUOUS
10
6.10442
20
-4.42647
11
6.10512
21
-4.42618
0
LINE
8
BLACK
6
CONTINUOUS
10
6.10512
20
-4.42618
11
6.1626
21
-4.42618
0
LINE
8
BLACK
6
CONTINUOUS
10
6.1626
20
-4.42618
11
6.16329
21
-4.42647
0
LINE
8
BLACK
6
CONTINUOUS
10
6.16329
20
-4.42647
11
6.16358
21
-4.42717
0
LINE
8
BLACK
6
CONTINUOUS
10
6.16358
20
-4.42717
11
6.16358
21
-4.55709
0
LINE
8
BLACK
6
CONTINUOUS
10
6.16358
20
-4.55709
11
6.16329
21
-4.55778
0
LINE
8
BLACK
6
CONTINUOUS
10
6.16329
20
-4.55778
11
6.1626
21
-4.55807
0
LINE
8
BLACK
6
CONTINUOUS
10
6.1626
20
-4.55807
11
6.10512
21
-4.55807
0
LINE
8
BLACK
6
CONTINUOUS
10
6.10512
20
-4.55807
11
6.10442
21
-4.55778
0
LINE
8
BLACK
6
CONTINUOUS
10
6.1061
20
-4.42815
11
6.1061
21
-4.5561
0
LINE
8
BLACK
6
CONTINUOUS
10
6.1061
20
-4.5561
11
6.16161
21
-4.5561
0
LINE
8
BLACK
6
CONTINUOUS
10
6.16161
20
-4.5561
11
6.16161
21
-4.42815
0
LINE
8
BLACK
6
CONTINUOUS
10
6.16161
20
-4.42815
11
6.1061
21
-4.42815
0
LINE
8
BLACK
6
CONTINUOUS
10
6.7186
20
-4.48298
11
6.71831
21
-4.48228
0
LINE
8
BLACK
6
CONTINUOUS
10
6.71831
20
-4.48228
11
6.71831
21
-4.35236
0
LINE
8
BLACK
6
CONTINUOUS
10
6.71831
20
-4.35236
11
6.7186
21
-4.35167
0
LINE
8
BLACK
6
CONTINUOUS
10
6.7186
20
-4.35167
11
6.71929
21
-4.35138
0
LINE
8
BLACK
6
CONTINUOUS
10
6.71929
20
-4.35138
11
6.77677
21
-4.35138
0
LINE
8
BLACK
6
CONTINUOUS
10
6.77677
20
-4.35138
11
6.77747
21
-4.35167
0
LINE
8
BLACK
6
CONTINUOUS
10
6.77747
20
-4.35167
11
6.77776
21
-4.35236
0
LINE
8
BLACK
6
CONTINUOUS
10
6.77776
20
-4.35236
11
6.77776
21
-4.48228
0
LINE
8
BLACK
6
CONTINUOUS
10
6.77776
20
-4.48228
11
6.77747
21
-4.48298
0
LINE
8
BLACK
6
CONTINUOUS
10
6.77747
20
-4.48298
11
6.77677
21
-4.48327
0
LINE
8
BLACK
6
CONTINUOUS
10
6.77677
20
-4.48327
11
6.71929
21
-4.48327
0
LINE
8
BLACK
6
CONTINUOUS
10
6.71929
20
-4.48327
11
6.7186
21
-4.48298
0
LINE
8
BLACK
6
CONTINUOUS
10
6.72028
20
-4.35335
11
6.72028
21
-4.4813
0
LINE
8
BLACK
6
CONTINUOUS
10
6.72028
20
-4.4813
11
6.77579
21
-4.4813
0
LINE
8
BLACK
6
CONTINUOUS
10
6.77579
20
-4.4813
11
6.77579
21
-4.35335
0
LINE
8
BLACK
6
CONTINUOUS
10
6.77579
20
-4.35335
11
6.72028
21
-4.35335
0
LINE
8
BLACK
6
CONTINUOUS
10
7.1556
20
-4.48298
11
7.15531
21
-4.48228
0
LINE
8
BLACK
6
CONTINUOUS
10
7.15531
20
-4.48228
11
7.15531
21
-4.35236
0
LINE
8
BLACK
6
CONTINUOUS
10
7.15531
20
-4.35236
11
7.1556
21
-4.35167
0
LINE
8
BLACK
6
CONTINUOUS
10
7.1556
20
-4.35167
11
7.1563
21
-4.35138
0
LINE
8
BLACK
6
CONTINUOUS
10
7.1563
20
-4.35138
11
7.21378
21
-4.35138
0
LINE
8
BLACK
6
CONTINUOUS
10
7.21378
20
-4.35138
11
7.21448
21
-4.35167
0
LINE
8
BLACK
6
CONTINUOUS
10
7.21448
20
-4.35167
11
7.21476
21
-4.35236
0
LINE
8
BLACK
6
CONTINUOUS
10
7.21476
20
-4.35236
11
7.21476
21
-4.48228
0
LINE
8
BLACK
6
CONTINUOUS
10
7.21476
20
-4.48228
11
7.21448
21
-4.48298
0
LINE
8
BLACK
6
CONTINUOUS
10
7.21448
20
-4.48298
11
7.21378
21
-4.48327
0
LINE
8
BLACK
6
CONTINUOUS
10
7.21378
20
-4.48327
11
7.1563
21
-4.48327
0
LINE
8
BLACK
6
CONTINUOUS
10
7.1563
20
-4.48327
11
7.1556
21
-4.48298
0
LINE
8
BLACK
6
CONTINUOUS
10
7.15728
20
-4.35335
11
7.15728
21
-4.4813
0
LINE
8
BLACK
6
CONTINUOUS
10
7.15728
20
-4.4813
11
7.2128
21
-4.4813
0
LINE
8
BLACK
6
CONTINUOUS
10
7.2128
20
-4.4813
11
7.2128
21
-4.35335
0
LINE
8
BLACK
6
CONTINUOUS
10
7.2128
20
-4.35335
11
7.15728
21
-4.35335
0
LINE
8
BLACK
6
CONTINUOUS
10
6.99812
20
-4.48298
11
6.99783
21
-4.48228
0
LINE
8
BLACK
6
CONTINUOUS
10
6.99783
20
-4.48228
11
6.99783
21
-4.35236
0
LINE
8
BLACK
6
CONTINUOUS
10
6.99783
20
-4.35236
11
6.99812
21
-4.35167
0
LINE
8
BLACK
6
CONTINUOUS
10
6.99812
20
-4.35167
11
6.99882
21
-4.35138
0
LINE
8
BLACK
6
CONTINUOUS
10
6.99882
20
-4.35138
11
7.0563
21
-4.35138
0
LINE
8
BLACK
6
CONTINUOUS
10
7.0563
20
-4.35138
11
7.057
21
-4.35167
0
LINE
8
BLACK
6
CONTINUOUS
10
7.057
20
-4.35167
11
7.05728
21
-4.35236
0
LINE
8
BLACK
6
CONTINUOUS
10
7.05728
20
-4.35236
11
7.05728
21
-4.48228
0
LINE
8
BLACK
6
CONTINUOUS
10
7.05728
20
-4.48228
11
7.057
21
-4.48298
0
LINE
8
BLACK
6
CONTINUOUS
10
7.057
20
-4.48298
11
7.0563
21
-4.48327
0
LINE
8
BLACK
6
CONTINUOUS
10
7.0563
20
-4.48327
11
6.99882
21
-4.48327
0
LINE
8
BLACK
6
CONTINUOUS
10
6.99882
20
-4.48327
11
6.99812
21
-4.48298
0
LINE
8
BLACK
6
CONTINUOUS
10
6.9998
20
-4.35335
11
6.9998
21
-4.4813
0
LINE
8
BLACK
6
CONTINUOUS
10
6.9998
20
-4.4813
11
7.05531
21
-4.4813
0
LINE
8
BLACK
6
CONTINUOUS
10
7.05531
20
-4.4813
11
7.05531
21
-4.35335
0
LINE
8
BLACK
6
CONTINUOUS
10
7.05531
20
-4.35335
11
6.9998
21
-4.35335
0
LINE
8
BLACK
6
CONTINUOUS
10
6.17352
20
-4.42707
11
6.17323
21
-4.42638
0
LINE
8
BLACK
6
CONTINUOUS
10
6.17323
20
-4.42638
11
6.17323
21
-4.3689
0
LINE
8
BLACK
6
CONTINUOUS
10
6.17323
20
-4.3689
11
6.17352
21
-4.3682
0
LINE
8
BLACK
6
CONTINUOUS
10
6.17352
20
-4.3682
11
6.17421
21
-4.36791
0
LINE
8
BLACK
6
CONTINUOUS
10
6.17421
20
-4.36791
11
6.30413
21
-4.36791
0
LINE
8
BLACK
6
CONTINUOUS
10
6.30413
20
-4.36791
11
6.30483
21
-4.3682
0
LINE
8
BLACK
6
CONTINUOUS
10
6.30483
20
-4.3682
11
6.30512
21
-4.3689
0
LINE
8
BLACK
6
CONTINUOUS
10
6.30512
20
-4.3689
11
6.30512
21
-4.42638
0
LINE
8
BLACK
6
CONTINUOUS
10
6.30512
20
-4.42638
11
6.30483
21
-4.42707
0
LINE
8
BLACK
6
CONTINUOUS
10
6.30483
20
-4.42707
11
6.30413
21
-4.42736
0
LINE
8
BLACK
6
CONTINUOUS
10
6.30413
20
-4.42736
11
6.17421
21
-4.42736
0
LINE
8
BLACK
6
CONTINUOUS
10
6.17421
20
-4.42736
11
6.17352
21
-4.42707
0
LINE
8
BLACK
6
CONTINUOUS
10
6.1752
20
-4.36988
11
6.1752
21
-4.42539
0
LINE
8
BLACK
6
CONTINUOUS
10
6.1752
20
-4.42539
11
6.30315
21
-4.42539
0
LINE
8
BLACK
6
CONTINUOUS
10
6.30315
20
-4.42539
11
6.30315
21
-4.36988
0
LINE
8
BLACK
6
CONTINUOUS
10
6.30315
20
-4.36988
11
6.1752
21
-4.36988
0
LINE
8
BLACK
6
CONTINUOUS
10
6.7808
20
-4.41133
11
6.78051
21
-4.41063
0
LINE
8
BLACK
6
CONTINUOUS
10
6.78051
20
-4.41063
11
6.78051
21
-4.35315
0
LINE
8
BLACK
6
CONTINUOUS
10
6.78051
20
-4.35315
11
6.7808
21
-4.35245
0
LINE
8
BLACK
6
CONTINUOUS
10
6.7808
20
-4.35245
11
6.7815
21
-4.35217
0
LINE
8
BLACK
6
CONTINUOUS
10
6.7815
20
-4.35217
11
6.91142
21
-4.35217
0
LINE
8
BLACK
6
CONTINUOUS
10
6.91142
20
-4.35217
11
6.91211
21
-4.35245
0
LINE
8
BLACK
6
CONTINUOUS
10
6.91211
20
-4.35245
11
6.9124
21
-4.35315
0
LINE
8
BLACK
6
CONTINUOUS
10
6.9124
20
-4.35315
11
6.9124
21
-4.41063
0
LINE
8
BLACK
6
CONTINUOUS
10
6.9124
20
-4.41063
11
6.91211
21
-4.41133
0
LINE
8
BLACK
6
CONTINUOUS
10
6.91211
20
-4.41133
11
6.91142
21
-4.41161
0
LINE
8
BLACK
6
CONTINUOUS
10
6.91142
20
-4.41161
11
6.7815
21
-4.41161
0
LINE
8
BLACK
6
CONTINUOUS
10
6.7815
20
-4.41161
11
6.7808
21
-4.41133
0
LINE
8
BLACK
6
CONTINUOUS
10
6.78248
20
-4.35413
11
6.78248
21
-4.40965
0
LINE
8
BLACK
6
CONTINUOUS
10
6.78248
20
-4.40965
11
6.91043
21
-4.40965
0
LINE
8
BLACK
6
CONTINUOUS
10
6.91043
20
-4.40965
11
6.91043
21
-4.35413
0
LINE
8
BLACK
6
CONTINUOUS
10
6.91043
20
-4.35413
11
6.78248
21
-4.35413
0
LINE
8
BLACK
6
CONTINUOUS
10
6.63592
20
-4.40109
11
6.63563
21
-4.40039
0
LINE
8
BLACK
6
CONTINUOUS
10
6.63563
20
-4.40039
11
6.63563
21
-4.36339
0
LINE
8
BLACK
6
CONTINUOUS
10
6.63563
20
-4.36339
11
6.63592
21
-4.36269
0
LINE
8
BLACK
6
CONTINUOUS
10
6.63592
20
-4.36269
11
6.63661
21
-4.3624
0
LINE
8
BLACK
6
CONTINUOUS
10
6.63661
20
-4.3624
11
6.70984
21
-4.3624
0
LINE
8
BLACK
6
CONTINUOUS
10
6.70984
20
-4.3624
11
6.71054
21
-4.36269
0
LINE
8
BLACK
6
CONTINUOUS
10
6.71054
20
-4.36269
11
6.71083
21
-4.36339
0
LINE
8
BLACK
6
CONTINUOUS
10
6.71083
20
-4.36339
11
6.71083
21
-4.40039
0
LINE
8
BLACK
6
CONTINUOUS
10
6.71083
20
-4.40039
11
6.71054
21
-4.40109
0
LINE
8
BLACK
6
CONTINUOUS
10
6.71054
20
-4.40109
11
6.70984
21
-4.40138
0
LINE
8
BLACK
6
CONTINUOUS
10
6.70984
20
-4.40138
11
6.63661
21
-4.40138
0
LINE
8
BLACK
6
CONTINUOUS
10
6.63661
20
-4.40138
11
6.63592
21
-4.40109
0
LINE
8
BLACK
6
CONTINUOUS
10
6.6376
20
-4.36437
11
6.6376
21
-4.39941
0
LINE
8
BLACK
6
CONTINUOUS
10
6.6376
20
-4.39941
11
6.70886
21
-4.39941
0
LINE
8
BLACK
6
CONTINUOUS
10
6.70886
20
-4.39941
11
6.70886
21
-4.36437
0
LINE
8
BLACK
6
CONTINUOUS
10
6.70886
20
-4.36437
11
6.6376
21
-4.36437
0
LINE
8
BLACK
6
CONTINUOUS
10
7.06899
20
-4.40109
11
7.0687
21
-4.40039
0
LINE
8
BLACK
6
CONTINUOUS
10
7.0687
20
-4.40039
11
7.0687
21
-4.36339
0
LINE
8
BLACK
6
CONTINUOUS
10
7.0687
20
-4.36339
11
7.06899
21
-4.36269
0
LINE
8
BLACK
6
CONTINUOUS
10
7.06899
20
-4.36269
11
7.06969
21
-4.3624
0
LINE
8
BLACK
6
CONTINUOUS
10
7.06969
20
-4.3624
11
7.14291
21
-4.3624
0
LINE
8
BLACK
6
CONTINUOUS
10
7.14291
20
-4.3624
11
7.14361
21
-4.36269
0
LINE
8
BLACK
6
CONTINUOUS
10
7.14361
20
-4.36269
11
7.1439
21
-4.36339
0
LINE
8
BLACK
6
CONTINUOUS
10
7.1439
20
-4.36339
11
7.1439
21
-4.40039
0
LINE
8
BLACK
6
CONTINUOUS
10
7.1439
20
-4.40039
11
7.14361
21
-4.40109
0
LINE
8
BLACK
6
CONTINUOUS
10
7.14361
20
-4.40109
11
7.14291
21
-4.40138
0
LINE
8
BLACK
6
CONTINUOUS
10
7.14291
20
-4.40138
11
7.06969
21
-4.40138
0
LINE
8
BLACK
6
CONTINUOUS
10
7.06969
20
-4.40138
11
7.06899
21
-4.40109
0
LINE
8
BLACK
6
CONTINUOUS
10
7.07067
20
-4.36437
11
7.07067
21
-4.39941
0
LINE
8
BLACK
6
CONTINUOUS
10
7.07067
20
-4.39941
11
7.14193
21
-4.39941
0
LINE
8
BLACK
6
CONTINUOUS
10
7.14193
20
-4.39941
11
7.14193
21
-4.36437
0
LINE
8
BLACK
6
CONTINUOUS
10
7.14193
20
-4.36437
11
7.07067
21
-4.36437
0
LINE
8
BLACK
6
CONTINUOUS
10
6.17352
20
-4.36014
11
6.17323
21
-4.35945
0
LINE
8
BLACK
6
CONTINUOUS
10
6.17323
20
-4.35945
11
6.17323
21
-4.30197
0
LINE
8
BLACK
6
CONTINUOUS
10
6.17323
20
-4.30197
11
6.17352
21
-4.30127
0
LINE
8
BLACK
6
CONTINUOUS
10
6.17352
20
-4.30127
11
6.17421
21
-4.30098
0
LINE
8
BLACK
6
CONTINUOUS
10
6.17421
20
-4.30098
11
6.30413
21
-4.30098
0
LINE
8
BLACK
6
CONTINUOUS
10
6.30413
20
-4.30098
11
6.30483
21
-4.30127
0
LINE
8
BLACK
6
CONTINUOUS
10
6.30483
20
-4.30127
11
6.30512
21
-4.30197
0
LINE
8
BLACK
6
CONTINUOUS
10
6.30512
20
-4.30197
11
6.30512
21
-4.35945
0
LINE
8
BLACK
6
CONTINUOUS
10
6.30512
20
-4.35945
11
6.30483
21
-4.36014
0
LINE
8
BLACK
6
CONTINUOUS
10
6.30483
20
-4.36014
11
6.30413
21
-4.36043
0
LINE
8
BLACK
6
CONTINUOUS
10
6.30413
20
-4.36043
11
6.17421
21
-4.36043
0
LINE
8
BLACK
6
CONTINUOUS
10
6.17421
20
-4.36043
11
6.17352
21
-4.36014
0
LINE
8
BLACK
6
CONTINUOUS
10
6.1752
20
-4.30295
11
6.1752
21
-4.35846
0
LINE
8
BLACK
6
CONTINUOUS
10
6.1752
20
-4.35846
11
6.30315
21
-4.35846
0
LINE
8
BLACK
6
CONTINUOUS
10
6.30315
20
-4.35846
11
6.30315
21
-4.30295
0
LINE
8
BLACK
6
CONTINUOUS
10
6.30315
20
-4.30295
11
6.1752
21
-4.30295
0
LINE
8
BLACK
6
CONTINUOUS
10
6.50993
20
-4.34518
11
6.50965
21
-4.34449
0
LINE
8
BLACK
6
CONTINUOUS
10
6.50965
20
-4.34449
11
6.50965
21
-4.21457
0
LINE
8
BLACK
6
CONTINUOUS
10
6.50965
20
-4.21457
11
6.50993
21
-4.21387
0
LINE
8
BLACK
6
CONTINUOUS
10
6.50993
20
-4.21387
11
6.51063
21
-4.21358
0
LINE
8
BLACK
6
CONTINUOUS
10
6.51063
20
-4.21358
11
6.56811
21
-4.21358
0
LINE
8
BLACK
6
CONTINUOUS
10
6.56811
20
-4.21358
11
6.56881
21
-4.21387
0
LINE
8
BLACK
6
CONTINUOUS
10
6.56881
20
-4.21387
11
6.56909
21
-4.21457
0
LINE
8
BLACK
6
CONTINUOUS
10
6.56909
20
-4.21457
11
6.56909
21
-4.34449
0
LINE
8
BLACK
6
CONTINUOUS
10
6.56909
20
-4.34449
11
6.56881
21
-4.34518
0
LINE
8
BLACK
6
CONTINUOUS
10
6.56881
20
-4.34518
11
6.56811
21
-4.34547
0
LINE
8
BLACK
6
CONTINUOUS
10
6.56811
20
-4.34547
11
6.51063
21
-4.34547
0
LINE
8
BLACK
6
CONTINUOUS
10
6.51063
20
-4.34547
11
6.50993
21
-4.34518
0
LINE
8
BLACK
6
CONTINUOUS
10
6.51161
20
-4.21555
11
6.51161
21
-4.3435
0
LINE
8
BLACK
6
CONTINUOUS
10
6.51161
20
-4.3435
11
6.56713
21
-4.3435
0
LINE
8
BLACK
6
CONTINUOUS
10
6.56713
20
-4.3435
11
6.56713
21
-4.21555
0
LINE
8
BLACK
6
CONTINUOUS
10
6.56713
20
-4.21555
11
6.51161
21
-4.21555
0
LINE
8
BLACK
6
CONTINUOUS
10
6.31308
20
-4.34518
11
6.3128
21
-4.34449
0
LINE
8
BLACK
6
CONTINUOUS
10
6.3128
20
-4.34449
11
6.3128
21
-4.21457
0
LINE
8
BLACK
6
CONTINUOUS
10
6.3128
20
-4.21457
11
6.31308
21
-4.21387
0
LINE
8
BLACK
6
CONTINUOUS
10
6.31308
20
-4.21387
11
6.31378
21
-4.21358
0
LINE
8
BLACK
6
CONTINUOUS
10
6.31378
20
-4.21358
11
6.37126
21
-4.21358
0
LINE
8
BLACK
6
CONTINUOUS
10
6.37126
20
-4.21358
11
6.37196
21
-4.21387
0
LINE
8
BLACK
6
CONTINUOUS
10
6.37196
20
-4.21387
11
6.37224
21
-4.21457
0
LINE
8
BLACK
6
CONTINUOUS
10
6.37224
20
-4.21457
11
6.37224
21
-4.34449
0
LINE
8
BLACK
6
CONTINUOUS
10
6.37224
20
-4.34449
11
6.37196
21
-4.34518
0
LINE
8
BLACK
6
CONTINUOUS
10
6.37196
20
-4.34518
11
6.37126
21
-4.34547
0
LINE
8
BLACK
6
CONTINUOUS
10
6.37126
20
-4.34547
11
6.31378
21
-4.34547
0
LINE
8
BLACK
6
CONTINUOUS
10
6.31378
20
-4.34547
11
6.31308
21
-4.34518
0
LINE
8
BLACK
6
CONTINUOUS
10
6.31476
20
-4.21555
11
6.31476
21
-4.3435
0
LINE
8
BLACK
6
CONTINUOUS
10
6.31476
20
-4.3435
11
6.37028
21
-4.3435
0
LINE
8
BLACK
6
CONTINUOUS
10
6.37028
20
-4.3435
11
6.37028
21
-4.21555
0
LINE
8
BLACK
6
CONTINUOUS
10
6.37028
20
-4.21555
11
6.31476
21
-4.21555
0
LINE
8
BLACK
6
CONTINUOUS
10
6.66271
20
-4.33861
11
6.57084
21
-4.24674
0
LINE
8
BLACK
6
CONTINUOUS
10
6.57084
20
-4.24674
11
6.57055
21
-4.24604
0
LINE
8
BLACK
6
CONTINUOUS
10
6.57055
20
-4.24604
11
6.57084
21
-4.24535
0
LINE
8
BLACK
6
CONTINUOUS
10
6.57084
20
-4.24535
11
6.61149
21
-4.2047
0
LINE
8
BLACK
6
CONTINUOUS
10
6.61149
20
-4.2047
11
6.61218
21
-4.20441
0
LINE
8
BLACK
6
CONTINUOUS
10
6.61218
20
-4.20441
11
6.61288
21
-4.2047
0
LINE
8
BLACK
6
CONTINUOUS
10
6.61288
20
-4.2047
11
6.70475
21
-4.29657
0
LINE
8
BLACK
6
CONTINUOUS
10
6.70475
20
-4.29657
11
6.70475
21
-4.29657
0
LINE
8
BLACK
6
CONTINUOUS
10
6.70475
20
-4.29657
11
6.70504
21
-4.29727
0
LINE
8
BLACK
6
CONTINUOUS
10
6.70504
20
-4.29727
11
6.70475
21
-4.29796
0
LINE
8
BLACK
6
CONTINUOUS
10
6.70475
20
-4.29796
11
6.6641
21
-4.33861
0
LINE
8
BLACK
6
CONTINUOUS
10
6.6641
20
-4.33861
11
6.66341
21
-4.33889
0
LINE
8
BLACK
6
CONTINUOUS
10
6.66341
20
-4.33889
11
6.66271
21
-4.33861
0
LINE
8
BLACK
6
CONTINUOUS
10
6.66271
20
-4.33861
11
6.66271
21
-4.33861
0
LINE
8
BLACK
6
CONTINUOUS
10
6.57293
20
-4.24604
11
6.66341
21
-4.33652
0
LINE
8
BLACK
6
CONTINUOUS
10
6.66341
20
-4.33652
11
6.70266
21
-4.29727
0
LINE
8
BLACK
6
CONTINUOUS
10
6.70266
20
-4.29727
11
6.61218
21
-4.20679
0
LINE
8
BLACK
6
CONTINUOUS
10
6.61218
20
-4.20679
11
6.57293
21
-4.24604
0
LINE
8
BLACK
6
CONTINUOUS
10
6.40363
20
-4.33022
11
6.40335
21
-4.32953
0
LINE
8
BLACK
6
CONTINUOUS
10
6.40335
20
-4.32953
11
6.40335
21
-4.29252
0
LINE
8
BLACK
6
CONTINUOUS
10
6.40335
20
-4.29252
11
6.40363
21
-4.29182
0
LINE
8
BLACK
6
CONTINUOUS
10
6.40363
20
-4.29182
11
6.40433
21
-4.29154
0
LINE
8
BLACK
6
CONTINUOUS
10
6.40433
20
-4.29154
11
6.47756
21
-4.29154
0
LINE
8
BLACK
6
CONTINUOUS
10
6.47756
20
-4.29154
11
6.47826
21
-4.29182
0
LINE
8
BLACK
6
CONTINUOUS
10
6.47826
20
-4.29182
11
6.47854
21
-4.29252
0
LINE
8
BLACK
6
CONTINUOUS
10
6.47854
20
-4.29252
11
6.47854
21
-4.32953
0
LINE
8
BLACK
6
CONTINUOUS
10
6.47854
20
-4.32953
11
6.47826
21
-4.33022
0
LINE
8
BLACK
6
CONTINUOUS
10
6.47826
20
-4.33022
11
6.47756
21
-4.33051
0
LINE
8
BLACK
6
CONTINUOUS
10
6.47756
20
-4.33051
11
6.40433
21
-4.33051
0
LINE
8
BLACK
6
CONTINUOUS
10
6.40433
20
-4.33051
11
6.40363
21
-4.33022
0
LINE
8
BLACK
6
CONTINUOUS
10
6.40531
20
-4.2935
11
6.40531
21
-4.32854
0
LINE
8
BLACK
6
CONTINUOUS
10
6.40531
20
-4.32854
11
6.47657
21
-4.32854
0
LINE
8
BLACK
6
CONTINUOUS
10
6.47657
20
-4.32854
11
6.47657
21
-4.2935
0
LINE
8
BLACK
6
CONTINUOUS
10
6.47657
20
-4.2935
11
6.40531
21
-4.2935
0
LINE
8
BLACK
6
CONTINUOUS
10
5.81308
20
-4.31763
11
5.8128
21
-4.31693
0
LINE
8
BLACK
6
CONTINUOUS
10
5.8128
20
-4.31693
11
5.8128
21
-4.18701
0
LINE
8
BLACK
6
CONTINUOUS
10
5.8128
20
-4.18701
11
5.81308
21
-4.18631
0
LINE
8
BLACK
6
CONTINUOUS
10
5.81308
20
-4.18631
11
5.81378
21
-4.18602
0
LINE
8
BLACK
6
CONTINUOUS
10
5.81378
20
-4.18602
11
5.87126
21
-4.18602
0
LINE
8
BLACK
6
CONTINUOUS
10
5.87126
20
-4.18602
11
5.87196
21
-4.18631
0
LINE
8
BLACK
6
CONTINUOUS
10
5.87196
20
-4.18631
11
5.87224
21
-4.18701
0
LINE
8
BLACK
6
CONTINUOUS
10
5.87224
20
-4.18701
11
5.87224
21
-4.31693
0
LINE
8
BLACK
6
CONTINUOUS
10
5.87224
20
-4.31693
11
5.87196
21
-4.31763
0
LINE
8
BLACK
6
CONTINUOUS
10
5.87196
20
-4.31763
11
5.87126
21
-4.31791
0
LINE
8
BLACK
6
CONTINUOUS
10
5.87126
20
-4.31791
11
5.81378
21
-4.31791
0
LINE
8
BLACK
6
CONTINUOUS
10
5.81378
20
-4.31791
11
5.81308
21
-4.31763
0
LINE
8
BLACK
6
CONTINUOUS
10
5.81476
20
-4.18799
11
5.81476
21
-4.31594
0
LINE
8
BLACK
6
CONTINUOUS
10
5.81476
20
-4.31594
11
5.87028
21
-4.31594
0
LINE
8
BLACK
6
CONTINUOUS
10
5.87028
20
-4.31594
11
5.87028
21
-4.18799
0
LINE
8
BLACK
6
CONTINUOUS
10
5.87028
20
-4.18799
11
5.81476
21
-4.18799
0
LINE
8
BLACK
6
CONTINUOUS
10
6.26426
20
-4.29322
11
6.26398
21
-4.29252
0
LINE
8
BLACK
6
CONTINUOUS
10
6.26398
20
-4.29252
11
6.26398
21
-4.21929
0
LINE
8
BLACK
6
CONTINUOUS
10
6.26398
20
-4.21929
11
6.26426
21
-4.2186
0
LINE
8
BLACK
6
CONTINUOUS
10
6.26426
20
-4.2186
11
6.26496
21
-4.21831
0
LINE
8
BLACK
6
CONTINUOUS
10
6.26496
20
-4.21831
11
6.30197
21
-4.21831
0
LINE
8
BLACK
6
CONTINUOUS
10
6.30197
20
-4.21831
11
6.30266
21
-4.2186
0
LINE
8
BLACK
6
CONTINUOUS
10
6.30266
20
-4.2186
11
6.30295
21
-4.21929
0
LINE
8
BLACK
6
CONTINUOUS
10
6.30295
20
-4.21929
11
6.30295
21
-4.29252
0
LINE
8
BLACK
6
CONTINUOUS
10
6.30295
20
-4.29252
11
6.30266
21
-4.29322
0
LINE
8
BLACK
6
CONTINUOUS
10
6.30266
20
-4.29322
11
6.30197
21
-4.2935
0
LINE
8
BLACK
6
CONTINUOUS
10
6.30197
20
-4.2935
11
6.26496
21
-4.2935
0
LINE
8
BLACK
6
CONTINUOUS
10
6.26496
20
-4.2935
11
6.26426
21
-4.29322
0
LINE
8
BLACK
6
CONTINUOUS
10
6.26594
20
-4.22028
11
6.26594
21
-4.29154
0
LINE
8
BLACK
6
CONTINUOUS
10
6.26594
20
-4.29154
11
6.30098
21
-4.29154
0
LINE
8
BLACK
6
CONTINUOUS
10
6.30098
20
-4.29154
11
6.30098
21
-4.22028
0
LINE
8
BLACK
6
CONTINUOUS
10
6.30098
20
-4.22028
11
6.26594
21
-4.22028
0
LINE
8
BLACK
6
CONTINUOUS
10
6.37529
20
-4.27353
11
6.375
21
-4.27283
0
LINE
8
BLACK
6
CONTINUOUS
10
6.375
20
-4.27283
11
6.375
21
-4.21535
0
LINE
8
BLACK
6
CONTINUOUS
10
6.375
20
-4.21535
11
6.37529
21
-4.21466
0
LINE
8
BLACK
6
CONTINUOUS
10
6.37529
20
-4.21466
11
6.37598
21
-4.21437
0
LINE
8
BLACK
6
CONTINUOUS
10
6.37598
20
-4.21437
11
6.50591
21
-4.21437
0
LINE
8
BLACK
6
CONTINUOUS
10
6.50591
20
-4.21437
11
6.5066
21
-4.21466
0
LINE
8
BLACK
6
CONTINUOUS
10
6.5066
20
-4.21466
11
6.50689
21
-4.21535
0
LINE
8
BLACK
6
CONTINUOUS
10
6.50689
20
-4.21535
11
6.50689
21
-4.27283
0
LINE
8
BLACK
6
CONTINUOUS
10
6.50689
20
-4.27283
11
6.5066
21
-4.27353
0
LINE
8
BLACK
6
CONTINUOUS
10
6.5066
20
-4.27353
11
6.50591
21
-4.27382
0
LINE
8
BLACK
6
CONTINUOUS
10
6.50591
20
-4.27382
11
6.37598
21
-4.27382
0
LINE
8
BLACK
6
CONTINUOUS
10
6.37598
20
-4.27382
11
6.37529
21
-4.27353
0
LINE
8
BLACK
6
CONTINUOUS
10
6.37697
20
-4.21634
11
6.37697
21
-4.27185
0
LINE
8
BLACK
6
CONTINUOUS
10
6.37697
20
-4.27185
11
6.50492
21
-4.27185
0
LINE
8
BLACK
6
CONTINUOUS
10
6.50492
20
-4.27185
11
6.50492
21
-4.21634
0
LINE
8
BLACK
6
CONTINUOUS
10
6.50492
20
-4.21634
11
6.37697
21
-4.21634
0
LINE
8
BLACK
6
CONTINUOUS
10
5.92844
20
-4.27235
11
5.92815
21
-4.27165
0
LINE
8
BLACK
6
CONTINUOUS
10
5.92815
20
-4.27165
11
5.92815
21
-4.06693
0
LINE
8
BLACK
6
CONTINUOUS
10
5.92815
20
-4.06693
11
5.92844
21
-4.06623
0
LINE
8
BLACK
6
CONTINUOUS
10
5.92844
20
-4.06623
11
5.92913
21
-4.06594
0
LINE
8
BLACK
6
CONTINUOUS
10
5.92913
20
-4.06594
11
6.13386
21
-4.06594
0
LINE
8
BLACK
6
CONTINUOUS
10
6.13386
20
-4.06594
11
6.13455
21
-4.06623
0
LINE
8
BLACK
6
CONTINUOUS
10
6.13455
20
-4.06623
11
6.13484
21
-4.06693
0
LINE
8
BLACK
6
CONTINUOUS
10
6.13484
20
-4.06693
11
6.13484
21
-4.27165
0
LINE
8
BLACK
6
CONTINUOUS
10
6.13484
20
-4.27165
11
6.13455
21
-4.27235
0
LINE
8
BLACK
6
CONTINUOUS
10
6.13455
20
-4.27235
11
6.13386
21
-4.27264
0
LINE
8
BLACK
6
CONTINUOUS
10
6.13386
20
-4.27264
11
5.92913
21
-4.27264
0
LINE
8
BLACK
6
CONTINUOUS
10
5.92913
20
-4.27264
11
5.92844
21
-4.27235
0
LINE
8
BLACK
6
CONTINUOUS
10
5.93012
20
-4.06791
11
5.93012
21
-4.27067
0
LINE
8
BLACK
6
CONTINUOUS
10
5.93012
20
-4.27067
11
6.13287
21
-4.27067
0
LINE
8
BLACK
6
CONTINUOUS
10
6.13287
20
-4.27067
11
6.13287
21
-4.06791
0
LINE
8
BLACK
6
CONTINUOUS
10
6.13287
20
-4.06791
11
5.93012
21
-4.06791
0
LINE
8
BLACK
6
CONTINUOUS
10
6.17923
20
-4.25542
11
6.17894
21
-4.25472
0
LINE
8
BLACK
6
CONTINUOUS
10
6.17894
20
-4.25472
11
6.17894
21
-4.21772
0
LINE
8
BLACK
6
CONTINUOUS
10
6.17894
20
-4.21772
11
6.17923
21
-4.21702
0
LINE
8
BLACK
6
CONTINUOUS
10
6.17923
20
-4.21702
11
6.17992
21
-4.21673
0
LINE
8
BLACK
6
CONTINUOUS
10
6.17992
20
-4.21673
11
6.25315
21
-4.21673
0
LINE
8
BLACK
6
CONTINUOUS
10
6.25315
20
-4.21673
11
6.25385
21
-4.21702
0
LINE
8
BLACK
6
CONTINUOUS
10
6.25385
20
-4.21702
11
6.25413
21
-4.21772
0
LINE
8
BLACK
6
CONTINUOUS
10
6.25413
20
-4.21772
11
6.25413
21
-4.25472
0
LINE
8
BLACK
6
CONTINUOUS
10
6.25413
20
-4.25472
11
6.25385
21
-4.25542
0
LINE
8
BLACK
6
CONTINUOUS
10
6.25385
20
-4.25542
11
6.25315
21
-4.25571
0
LINE
8
BLACK
6
CONTINUOUS
10
6.25315
20
-4.25571
11
6.17992
21
-4.25571
0
LINE
8
BLACK
6
CONTINUOUS
10
6.17992
20
-4.25571
11
6.17923
21
-4.25542
0
LINE
8
BLACK
6
CONTINUOUS
10
6.18091
20
-4.2187
11
6.18091
21
-4.25374
0
LINE
8
BLACK
6
CONTINUOUS
10
6.18091
20
-4.25374
11
6.25217
21
-4.25374
0
LINE
8
BLACK
6
CONTINUOUS
10
6.25217
20
-4.25374
11
6.25217
21
-4.2187
0
LINE
8
BLACK
6
CONTINUOUS
10
6.25217
20
-4.2187
11
6.18091
21
-4.2187
0
LINE
8
BLACK
6
CONTINUOUS
10
5.34576
20
-4.24479
11
5.34547
21
-4.24409
0
LINE
8
BLACK
6
CONTINUOUS
10
5.34547
20
-4.24409
11
5.34547
21
-4.09449
0
LINE
8
BLACK
6
CONTINUOUS
10
5.34547
20
-4.09449
11
5.34576
21
-4.09379
0
LINE
8
BLACK
6
CONTINUOUS
10
5.34576
20
-4.09379
11
5.34646
21
-4.0935
0
LINE
8
BLACK
6
CONTINUOUS
10
5.34646
20
-4.0935
11
5.48819
21
-4.0935
0
LINE
8
BLACK
6
CONTINUOUS
10
5.48819
20
-4.0935
11
5.48888
21
-4.09379
0
LINE
8
BLACK
6
CONTINUOUS
10
5.48888
20
-4.09379
11
5.48917
21
-4.09449
0
LINE
8
BLACK
6
CONTINUOUS
10
5.48917
20
-4.09449
11
5.48917
21
-4.24409
0
LINE
8
BLACK
6
CONTINUOUS
10
5.48917
20
-4.24409
11
5.48888
21
-4.24479
0
LINE
8
BLACK
6
CONTINUOUS
10
5.48888
20
-4.24479
11
5.48819
21
-4.24508
0
LINE
8
BLACK
6
CONTINUOUS
10
5.48819
20
-4.24508
11
5.34646
21
-4.24508
0
LINE
8
BLACK
6
CONTINUOUS
10
5.34646
20
-4.24508
11
5.34576
21
-4.24479
0
LINE
8
BLACK
6
CONTINUOUS
10
5.34744
20
-4.09547
11
5.34744
21
-4.24311
0
LINE
8
BLACK
6
CONTINUOUS
10
5.34744
20
-4.24311
11
5.4872
21
-4.24311
0
LINE
8
BLACK
6
CONTINUOUS
10
5.4872
20
-4.24311
11
5.4872
21
-4.09547
0
LINE
8
BLACK
6
CONTINUOUS
10
5.4872
20
-4.09547
11
5.34744
21
-4.09547
0
LINE
8
BLACK
6
CONTINUOUS
10
6.39182
20
-4.17589
11
6.39154
21
-4.1752
0
LINE
8
BLACK
6
CONTINUOUS
10
6.39154
20
-4.1752
11
6.39154
21
-4.04528
0
LINE
8
BLACK
6
CONTINUOUS
10
6.39154
20
-4.04528
11
6.39182
21
-4.04458
0
LINE
8
BLACK
6
CONTINUOUS
10
6.39182
20
-4.04458
11
6.39252
21
-4.04429
0
LINE
8
BLACK
6
CONTINUOUS
10
6.39252
20
-4.04429
11
6.45
21
-4.04429
0
LINE
8
BLACK
6
CONTINUOUS
10
6.45
20
-4.04429
11
6.4507
21
-4.04458
0
LINE
8
BLACK
6
CONTINUOUS
10
6.4507
20
-4.04458
11
6.45098
21
-4.04528
0
LINE
8
BLACK
6
CONTINUOUS
10
6.45098
20
-4.04528
11
6.45098
21
-4.1752
0
LINE
8
BLACK
6
CONTINUOUS
10
6.45098
20
-4.1752
11
6.4507
21
-4.17589
0
LINE
8
BLACK
6
CONTINUOUS
10
6.4507
20
-4.17589
11
6.45
21
-4.17618
0
LINE
8
BLACK
6
CONTINUOUS
10
6.45
20
-4.17618
11
6.39252
21
-4.17618
0
LINE
8
BLACK
6
CONTINUOUS
10
6.39252
20
-4.17618
11
6.39182
21
-4.17589
0
LINE
8
BLACK
6
CONTINUOUS
10
6.3935
20
-4.04626
11
6.3935
21
-4.17421
0
LINE
8
BLACK
6
CONTINUOUS
10
6.3935
20
-4.17421
11
6.44902
21
-4.17421
0
LINE
8
BLACK
6
CONTINUOUS
10
6.44902
20
-4.17421
11
6.44902
21
-4.04626
0
LINE
8
BLACK
6
CONTINUOUS
10
6.44902
20
-4.04626
11
6.3935
21
-4.04626
0
LINE
8
BLACK
6
CONTINUOUS
10
6.75403
20
-4.17589
11
6.75374
21
-4.1752
0
LINE
8
BLACK
6
CONTINUOUS
10
6.75374
20
-4.1752
11
6.75374
21
-4.04528
0
LINE
8
BLACK
6
CONTINUOUS
10
6.75374
20
-4.04528
11
6.75403
21
-4.04458
0
LINE
8
BLACK
6
CONTINUOUS
10
6.75403
20
-4.04458
11
6.75472
21
-4.04429
0
LINE
8
BLACK
6
CONTINUOUS
10
6.75472
20
-4.04429
11
6.8122
21
-4.04429
0
LINE
8
BLACK
6
CONTINUOUS
10
6.8122
20
-4.04429
11
6.8129
21
-4.04458
0
LINE
8
BLACK
6
CONTINUOUS
10
6.8129
20
-4.04458
11
6.81319
21
-4.04528
0
LINE
8
BLACK
6
CONTINUOUS
10
6.81319
20
-4.04528
11
6.81319
21
-4.1752
0
LINE
8
BLACK
6
CONTINUOUS
10
6.81319
20
-4.1752
11
6.8129
21
-4.17589
0
LINE
8
BLACK
6
CONTINUOUS
10
6.8129
20
-4.17589
11
6.8122
21
-4.17618
0
LINE
8
BLACK
6
CONTINUOUS
10
6.8122
20
-4.17618
11
6.75472
21
-4.17618
0
LINE
8
BLACK
6
CONTINUOUS
10
6.75472
20
-4.17618
11
6.75403
21
-4.17589
0
LINE
8
BLACK
6
CONTINUOUS
10
6.75571
20
-4.04626
11
6.75571
21
-4.17421
0
LINE
8
BLACK
6
CONTINUOUS
10
6.75571
20
-4.17421
11
6.81122
21
-4.17421
0
LINE
8
BLACK
6
CONTINUOUS
10
6.81122
20
-4.17421
11
6.81122
21
-4.04626
0
LINE
8
BLACK
6
CONTINUOUS
10
6.81122
20
-4.04626
11
6.75571
21
-4.04626
0
LINE
8
BLACK
6
CONTINUOUS
10
6.59655
20
-4.17589
11
6.59626
21
-4.1752
0
LINE
8
BLACK
6
CONTINUOUS
10
6.59626
20
-4.1752
11
6.59626
21
-4.04528
0
LINE
8
BLACK
6
CONTINUOUS
10
6.59626
20
-4.04528
11
6.59655
21
-4.04458
0
LINE
8
BLACK
6
CONTINUOUS
10
6.59655
20
-4.04458
11
6.59724
21
-4.04429
0
LINE
8
BLACK
6
CONTINUOUS
10
6.59724
20
-4.04429
11
6.65472
21
-4.04429
0
LINE
8
BLACK
6
CONTINUOUS
10
6.65472
20
-4.04429
11
6.65542
21
-4.04458
0
LINE
8
BLACK
6
CONTINUOUS
10
6.65542
20
-4.04458
11
6.65571
21
-4.04528
0
LINE
8
BLACK
6
CONTINUOUS
10
6.65571
20
-4.04528
11
6.65571
21
-4.1752
0
LINE
8
BLACK
6
CONTINUOUS
10
6.65571
20
-4.1752
11
6.65542
21
-4.17589
0
LINE
8
BLACK
6
CONTINUOUS
10
6.65542
20
-4.17589
11
6.65472
21
-4.17618
0
LINE
8
BLACK
6
CONTINUOUS
10
6.65472
20
-4.17618
11
6.59724
21
-4.17618
0
LINE
8
BLACK
6
CONTINUOUS
10
6.59724
20
-4.17618
11
6.59655
21
-4.17589
0
LINE
8
BLACK
6
CONTINUOUS
10
6.59823
20
-4.04626
11
6.59823
21
-4.17421
0
LINE
8
BLACK
6
CONTINUOUS
10
6.59823
20
-4.17421
11
6.65374
21
-4.17421
0
LINE
8
BLACK
6
CONTINUOUS
10
6.65374
20
-4.17421
11
6.65374
21
-4.04626
0
LINE
8
BLACK
6
CONTINUOUS
10
6.65374
20
-4.04626
11
6.59823
21
-4.04626
0
LINE
8
BLACK
6
CONTINUOUS
10
6.45797
20
-4.17511
11
6.45768
21
-4.17441
0
LINE
8
BLACK
6
CONTINUOUS
10
6.45768
20
-4.17441
11
6.45768
21
-4.11693
0
LINE
8
BLACK
6
CONTINUOUS
10
6.45768
20
-4.11693
11
6.45797
21
-4.11623
0
LINE
8
BLACK
6
CONTINUOUS
10
6.45797
20
-4.11623
11
6.45866
21
-4.11594
0
LINE
8
BLACK
6
CONTINUOUS
10
6.45866
20
-4.11594
11
6.58858
21
-4.11594
0
LINE
8
BLACK
6
CONTINUOUS
10
6.58858
20
-4.11594
11
6.58928
21
-4.11623
0
LINE
8
BLACK
6
CONTINUOUS
10
6.58928
20
-4.11623
11
6.58957
21
-4.11693
0
LINE
8
BLACK
6
CONTINUOUS
10
6.58957
20
-4.11693
11
6.58957
21
-4.17441
0
LINE
8
BLACK
6
CONTINUOUS
10
6.58957
20
-4.17441
11
6.58928
21
-4.17511
0
LINE
8
BLACK
6
CONTINUOUS
10
6.58928
20
-4.17511
11
6.58858
21
-4.17539
0
LINE
8
BLACK
6
CONTINUOUS
10
6.58858
20
-4.17539
11
6.45866
21
-4.17539
0
LINE
8
BLACK
6
CONTINUOUS
10
6.45866
20
-4.17539
11
6.45797
21
-4.17511
0
LINE
8
BLACK
6
CONTINUOUS
10
6.45965
20
-4.11791
11
6.45965
21
-4.17343
0
LINE
8
BLACK
6
CONTINUOUS
10
6.45965
20
-4.17343
11
6.5876
21
-4.17343
0
LINE
8
BLACK
6
CONTINUOUS
10
6.5876
20
-4.17343
11
6.5876
21
-4.11791
0
LINE
8
BLACK
6
CONTINUOUS
10
6.5876
20
-4.11791
11
6.45965
21
-4.11791
0
LINE
8
BLACK
6
CONTINUOUS
10
6.25324
20
-4.17511
11
6.25295
21
-4.17441
0
LINE
8
BLACK
6
CONTINUOUS
10
6.25295
20
-4.17441
11
6.25295
21
-4.11693
0
LINE
8
BLACK
6
CONTINUOUS
10
6.25295
20
-4.11693
11
6.25324
21
-4.11623
0
LINE
8
BLACK
6
CONTINUOUS
10
6.25324
20
-4.11623
11
6.25394
21
-4.11594
0
LINE
8
BLACK
6
CONTINUOUS
10
6.25394
20
-4.11594
11
6.38386
21
-4.11594
0
LINE
8
BLACK
6
CONTINUOUS
10
6.38386
20
-4.11594
11
6.38455
21
-4.11623
0
LINE
8
BLACK
6
CONTINUOUS
10
6.38455
20
-4.11623
11
6.38484
21
-4.11693
0
LINE
8
BLACK
6
CONTINUOUS
10
6.38484
20
-4.11693
11
6.38484
21
-4.17441
0
LINE
8
BLACK
6
CONTINUOUS
10
6.38484
20
-4.17441
11
6.38455
21
-4.17511
0
LINE
8
BLACK
6
CONTINUOUS
10
6.38455
20
-4.17511
11
6.38386
21
-4.17539
0
LINE
8
BLACK
6
CONTINUOUS
10
6.38386
20
-4.17539
11
6.25394
21
-4.17539
0
LINE
8
BLACK
6
CONTINUOUS
10
6.25394
20
-4.17539
11
6.25324
21
-4.17511
0
LINE
8
BLACK
6
CONTINUOUS
10
6.25492
20
-4.11791
11
6.25492
21
-4.17343
0
LINE
8
BLACK
6
CONTINUOUS
10
6.25492
20
-4.17343
11
6.38287
21
-4.17343
0
LINE
8
BLACK
6
CONTINUOUS
10
6.38287
20
-4.17343
11
6.38287
21
-4.11791
0
LINE
8
BLACK
6
CONTINUOUS
10
6.38287
20
-4.11791
11
6.25492
21
-4.11791
0
LINE
8
BLACK
6
CONTINUOUS
10
5.81308
20
-4.17196
11
5.8128
21
-4.17126
0
LINE
8
BLACK
6
CONTINUOUS
10
5.8128
20
-4.17126
11
5.8128
21
-4.04134
0
LINE
8
BLACK
6
CONTINUOUS
10
5.8128
20
-4.04134
11
5.81308
21
-4.04064
0
LINE
8
BLACK
6
CONTINUOUS
10
5.81308
20
-4.04064
11
5.81378
21
-4.04035
0
LINE
8
BLACK
6
CONTINUOUS
10
5.81378
20
-4.04035
11
5.87126
21
-4.04035
0
LINE
8
BLACK
6
CONTINUOUS
10
5.87126
20
-4.04035
11
5.87196
21
-4.04064
0
LINE
8
BLACK
6
CONTINUOUS
10
5.87196
20
-4.04064
11
5.87224
21
-4.04134
0
LINE
8
BLACK
6
CONTINUOUS
10
5.87224
20
-4.04134
11
5.87224
21
-4.17126
0
LINE
8
BLACK
6
CONTINUOUS
10
5.87224
20
-4.17126
11
5.87196
21
-4.17196
0
LINE
8
BLACK
6
CONTINUOUS
10
5.87196
20
-4.17196
11
5.87126
21
-4.17224
0
LINE
8
BLACK
6
CONTINUOUS
10
5.87126
20
-4.17224
11
5.81378
21
-4.17224
0
LINE
8
BLACK
6
CONTINUOUS
10
5.81378
20
-4.17224
11
5.81308
21
-4.17196
0
LINE
8
BLACK
6
CONTINUOUS
10
5.81476
20
-4.04232
11
5.81476
21
-4.17028
0
LINE
8
BLACK
6
CONTINUOUS
10
5.81476
20
-4.17028
11
5.87028
21
-4.17028
0
LINE
8
BLACK
6
CONTINUOUS
10
5.87028
20
-4.17028
11
5.87028
21
-4.04232
0
LINE
8
BLACK
6
CONTINUOUS
10
5.87028
20
-4.04232
11
5.81476
21
-4.04232
0
LINE
8
BLACK
6
CONTINUOUS
10
5.75009
20
-4.17196
11
5.7498
21
-4.17126
0
LINE
8
BLACK
6
CONTINUOUS
10
5.7498
20
-4.17126
11
5.7498
21
-4.04134
0
LINE
8
BLACK
6
CONTINUOUS
10
5.7498
20
-4.04134
11
5.75009
21
-4.04064
0
LINE
8
BLACK
6
CONTINUOUS
10
5.75009
20
-4.04064
11
5.75079
21
-4.04035
0
LINE
8
BLACK
6
CONTINUOUS
10
5.75079
20
-4.04035
11
5.80827
21
-4.04035
0
LINE
8
BLACK
6
CONTINUOUS
10
5.80827
20
-4.04035
11
5.80896
21
-4.04064
0
LINE
8
BLACK
6
CONTINUOUS
10
5.80896
20
-4.04064
11
5.80925
21
-4.04134
0
LINE
8
BLACK
6
CONTINUOUS
10
5.80925
20
-4.04134
11
5.80925
21
-4.17126
0
LINE
8
BLACK
6
CONTINUOUS
10
5.80925
20
-4.17126
11
5.80896
21
-4.17196
0
LINE
8
BLACK
6
CONTINUOUS
10
5.80896
20
-4.17196
11
5.80827
21
-4.17224
0
LINE
8
BLACK
6
CONTINUOUS
10
5.80827
20
-4.17224
11
5.75079
21
-4.17224
0
LINE
8
BLACK
6
CONTINUOUS
10
5.75079
20
-4.17224
11
5.75009
21
-4.17196
0
LINE
8
BLACK
6
CONTINUOUS
10
5.75177
20
-4.04232
11
5.75177
21
-4.17028
0
LINE
8
BLACK
6
CONTINUOUS
10
5.75177
20
-4.17028
11
5.80728
21
-4.17028
0
LINE
8
BLACK
6
CONTINUOUS
10
5.80728
20
-4.17028
11
5.80728
21
-4.04232
0
LINE
8
BLACK
6
CONTINUOUS
10
5.80728
20
-4.04232
11
5.75177
21
-4.04232
0
LINE
8
BLACK
6
CONTINUOUS
10
6.66741
20
-4.16487
11
6.66713
21
-4.16417
0
LINE
8
BLACK
6
CONTINUOUS
10
6.66713
20
-4.16417
11
6.66713
21
-4.12717
0
LINE
8
BLACK
6
CONTINUOUS
10
6.66713
20
-4.12717
11
6.66741
21
-4.12647
0
LINE
8
BLACK
6
CONTINUOUS
10
6.66741
20
-4.12647
11
6.66811
21
-4.12618
0
LINE
8
BLACK
6
CONTINUOUS
10
6.66811
20
-4.12618
11
6.74134
21
-4.12618
0
LINE
8
BLACK
6
CONTINUOUS
10
6.74134
20
-4.12618
11
6.74203
21
-4.12647
0
LINE
8
BLACK
6
CONTINUOUS
10
6.74203
20
-4.12647
11
6.74232
21
-4.12717
0
LINE
8
BLACK
6
CONTINUOUS
10
6.74232
20
-4.12717
11
6.74232
21
-4.16417
0
LINE
8
BLACK
6
CONTINUOUS
10
6.74232
20
-4.16417
11
6.74203
21
-4.16487
0
LINE
8
BLACK
6
CONTINUOUS
10
6.74203
20
-4.16487
11
6.74134
21
-4.16516
0
LINE
8
BLACK
6
CONTINUOUS
10
6.74134
20
-4.16516
11
6.66811
21
-4.16516
0
LINE
8
BLACK
6
CONTINUOUS
10
6.66811
20
-4.16516
11
6.66741
21
-4.16487
0
LINE
8
BLACK
6
CONTINUOUS
10
6.66909
20
-4.12815
11
6.66909
21
-4.16319
0
LINE
8
BLACK
6
CONTINUOUS
10
6.66909
20
-4.16319
11
6.74035
21
-4.16319
0
LINE
8
BLACK
6
CONTINUOUS
10
6.74035
20
-4.16319
11
6.74035
21
-4.12815
0
LINE
8
BLACK
6
CONTINUOUS
10
6.74035
20
-4.12815
11
6.66909
21
-4.12815
0
LINE
8
BLACK
6
CONTINUOUS
10
6.20127
20
-4.14755
11
6.20098
21
-4.14685
0
LINE
8
BLACK
6
CONTINUOUS
10
6.20098
20
-4.14685
11
6.20098
21
-4.07362
0
LINE
8
BLACK
6
CONTINUOUS
10
6.20098
20
-4.07362
11
6.20127
21
-4.07293
0
LINE
8
BLACK
6
CONTINUOUS
10
6.20127
20
-4.07293
11
6.20197
21
-4.07264
0
LINE
8
BLACK
6
CONTINUOUS
10
6.20197
20
-4.07264
11
6.23898
21
-4.07264
0
LINE
8
BLACK
6
CONTINUOUS
10
6.23898
20
-4.07264
11
6.23967
21
-4.07293
0
LINE
8
BLACK
6
CONTINUOUS
10
6.23967
20
-4.07293
11
6.23996
21
-4.07362
0
LINE
8
BLACK
6
CONTINUOUS
10
6.23996
20
-4.07362
11
6.23996
21
-4.14685
0
LINE
8
BLACK
6
CONTINUOUS
10
6.23996
20
-4.14685
11
6.23967
21
-4.14755
0
LINE
8
BLACK
6
CONTINUOUS
10
6.23967
20
-4.14755
11
6.23898
21
-4.14783
0
LINE
8
BLACK
6
CONTINUOUS
10
6.23898
20
-4.14783
11
6.20197
21
-4.14783
0
LINE
8
BLACK
6
CONTINUOUS
10
6.20197
20
-4.14783
11
6.20127
21
-4.14755
0
LINE
8
BLACK
6
CONTINUOUS
10
6.20295
20
-4.07461
11
6.20295
21
-4.14587
0
LINE
8
BLACK
6
CONTINUOUS
10
6.20295
20
-4.14587
11
6.23799
21
-4.14587
0
LINE
8
BLACK
6
CONTINUOUS
10
6.23799
20
-4.14587
11
6.23799
21
-4.07461
0
LINE
8
BLACK
6
CONTINUOUS
10
6.23799
20
-4.07461
11
6.20295
21
-4.07461
0
LINE
8
BLACK
6
CONTINUOUS
10
6.25324
20
-4.10424
11
6.25295
21
-4.10354
0
LINE
8
BLACK
6
CONTINUOUS
10
6.25295
20
-4.10354
11
6.25295
21
-4.04606
0
LINE
8
BLACK
6
CONTINUOUS
10
6.25295
20
-4.04606
11
6.25324
21
-4.04537
0
LINE
8
BLACK
6
CONTINUOUS
10
6.25324
20
-4.04537
11
6.25394
21
-4.04508
0
LINE
8
BLACK
6
CONTINUOUS
10
6.25394
20
-4.04508
11
6.38386
21
-4.04508
0
LINE
8
BLACK
6
CONTINUOUS
10
6.38386
20
-4.04508
11
6.38455
21
-4.04537
0
LINE
8
BLACK
6
CONTINUOUS
10
6.38455
20
-4.04537
11
6.38484
21
-4.04606
0
LINE
8
BLACK
6
CONTINUOUS
10
6.38484
20
-4.04606
11
6.38484
21
-4.10354
0
LINE
8
BLACK
6
CONTINUOUS
10
6.38484
20
-4.10354
11
6.38455
21
-4.10424
0
LINE
8
BLACK
6
CONTINUOUS
10
6.38455
20
-4.10424
11
6.38386
21
-4.10453
0
LINE
8
BLACK
6
CONTINUOUS
10
6.38386
20
-4.10453
11
6.25394
21
-4.10453
0
LINE
8
BLACK
6
CONTINUOUS
10
6.25394
20
-4.10453
11
6.25324
21
-4.10424
0
LINE
8
BLACK
6
CONTINUOUS
10
6.25492
20
-4.04705
11
6.25492
21
-4.10256
0
LINE
8
BLACK
6
CONTINUOUS
10
6.25492
20
-4.10256
11
6.38287
21
-4.10256
0
LINE
8
BLACK
6
CONTINUOUS
10
6.38287
20
-4.10256
11
6.38287
21
-4.04705
0
LINE
8
BLACK
6
CONTINUOUS
10
6.38287
20
-4.04705
11
6.25492
21
-4.04705
0
LINE
8
BLACK
6
CONTINUOUS
10
5.51899
20
-3.99479
11
5.5187
21
-3.99409
0
LINE
8
BLACK
6
CONTINUOUS
10
5.5187
20
-3.99409
11
5.5187
21
-3.78543
0
LINE
8
BLACK
6
CONTINUOUS
10
5.5187
20
-3.78543
11
5.51899
21
-3.78474
0
LINE
8
BLACK
6
CONTINUOUS
10
5.51899
20
-3.78474
11
5.51969
21
-3.78445
0
LINE
8
BLACK
6
CONTINUOUS
10
5.51969
20
-3.78445
11
5.6063
21
-3.78445
0
LINE
8
BLACK
6
CONTINUOUS
10
5.6063
20
-3.78445
11
5.607
21
-3.78474
0
LINE
8
BLACK
6
CONTINUOUS
10
5.607
20
-3.78474
11
5.60728
21
-3.78543
0
LINE
8
BLACK
6
CONTINUOUS
10
5.60728
20
-3.78543
11
5.60728
21
-3.99409
0
LINE
8
BLACK
6
CONTINUOUS
10
5.60728
20
-3.99409
11
5.607
21
-3.99479
0
LINE
8
BLACK
6
CONTINUOUS
10
5.607
20
-3.99479
11
5.6063
21
-3.99508
0
LINE
8
BLACK
6
CONTINUOUS
10
5.6063
20
-3.99508
11
5.51969
21
-3.99508
0
LINE
8
BLACK
6
CONTINUOUS
10
5.51969
20
-3.99508
11
5.51899
21
-3.99479
0
LINE
8
BLACK
6
CONTINUOUS
10
5.52067
20
-3.78642
11
5.52067
21
-3.99311
0
LINE
8
BLACK
6
CONTINUOUS
10
5.52067
20
-3.99311
11
5.60531
21
-3.99311
0
LINE
8
BLACK
6
CONTINUOUS
10
5.60531
20
-3.99311
11
5.60531
21
-3.78642
0
LINE
8
BLACK
6
CONTINUOUS
10
5.60531
20
-3.78642
11
5.52067
21
-3.78642
0
LINE
8
BLACK
6
CONTINUOUS
10
5.43513
20
-3.99085
11
5.43484
21
-3.99016
0
LINE
8
BLACK
6
CONTINUOUS
10
5.43484
20
-3.99016
11
5.43484
21
-3.86024
0
LINE
8
BLACK
6
CONTINUOUS
10
5.43484
20
-3.86024
11
5.43513
21
-3.85954
0
LINE
8
BLACK
6
CONTINUOUS
10
5.43513
20
-3.85954
11
5.43583
21
-3.85925
0
LINE
8
BLACK
6
CONTINUOUS
10
5.43583
20
-3.85925
11
5.49331
21
-3.85925
0
LINE
8
BLACK
6
CONTINUOUS
10
5.49331
20
-3.85925
11
5.494
21
-3.85954
0
LINE
8
BLACK
6
CONTINUOUS
10
5.494
20
-3.85954
11
5.49429
21
-3.86024
0
LINE
8
BLACK
6
CONTINUOUS
10
5.49429
20
-3.86024
11
5.49429
21
-3.99016
0
LINE
8
BLACK
6
CONTINUOUS
10
5.49429
20
-3.99016
11
5.494
21
-3.99085
0
LINE
8
BLACK
6
CONTINUOUS
10
5.494
20
-3.99085
11
5.49331
21
-3.99114
0
LINE
8
BLACK
6
CONTINUOUS
10
5.49331
20
-3.99114
11
5.43583
21
-3.99114
0
LINE
8
BLACK
6
CONTINUOUS
10
5.43583
20
-3.99114
11
5.43513
21
-3.99085
0
LINE
8
BLACK
6
CONTINUOUS
10
5.43681
20
-3.86122
11
5.43681
21
-3.98917
0
LINE
8
BLACK
6
CONTINUOUS
10
5.43681
20
-3.98917
11
5.49232
21
-3.98917
0
LINE
8
BLACK
6
CONTINUOUS
10
5.49232
20
-3.98917
11
5.49232
21
-3.86122
0
LINE
8
BLACK
6
CONTINUOUS
10
5.49232
20
-3.86122
11
5.43681
21
-3.86122
  0
ENDSEC
  0
EOF
