  0
SECTION
  2
HEADER
  9
$ANGBASE
  50
0.0
  9
$ANGDIR
  70
1
  9
$MEASUREMENT
  70
0
  0
ENDSEC
  0
SECTION
  2
TABLES
  0
TABLE
  2
LTYPE
  70
4
  0
LTYPE
  5
40F
  2
CONTINUOUS
  70
0
  3
Solid line
  72
65
  73
0
  40
0.0
  0
LTYPE
  5
410
  2
DASHDOT
 70
0
  3
Dash Dot ____ _ ____ _
 72
65
 73
4
 40
2.0
 49
1.25
 49
-0.25
 49
0.25
 49
-0.25
  0
LTYPE
  5
411
  2
DASHED
 70
0
  3
Dashed __ __ __ __ __
 72
65
 73
2
 40
0.75
 49
0.5
 49
-0.25
  0
LTYPE
  5
43B
  2
DOTTED
 70
0
  3
Dotted .  .  .  .
 72
65
 73
2
 40
0.2
 49
0.0
 49
-0.2
  0
ENDTAB
  0
TABLE
  2
STYLE
  70
4
  0
STYLE
  2
KICAD
  70
0
  40
0
  41
1
  42
1
  50
0
  71
0
  3
isocp.shx
  0
STYLE
  2
KICADB
  70
0
  40
0
  41
1
  42
1
  50
0
  71
0
  3
isocp.shx
  0
STYLE
  2
KICADI
  70
0
  40
0
  41
1
  42
1
  50
15
  71
0
  3
isocp.shx
  0
STYLE
  2
KICADBI
  70
0
  40
0
  41
1
  42
1
  50
15
  71
0
  3
isocp.shx
  0
ENDTAB
  0
TABLE
  2
LAYER
  70
1
  0
LAYER
  2
BLACK
  70
0
  62
7
  6
CONTINUOUS
  0
ENDTAB
  0
ENDSEC
  0
SECTION
  2
ENTITIES
0
LINE
8
BLACK
6
CONTINUOUS
10
7.29038
20
-3.90711
11
7.29051
21
-3.90709
0
LINE
8
BLACK
6
CONTINUOUS
10
7.29051
20
-3.90709
11
7.29063
21
-3.90716
0
LINE
8
BLACK
6
CONTINUOUS
10
7.29063
20
-3.90716
11
7.29101
21
-3.90723
0
LINE
8
BLACK
6
CONTINUOUS
10
7.29101
20
-3.90723
11
7.2916
21
-3.90772
0
LINE
8
BLACK
6
CONTINUOUS
10
7.2916
20
-3.90772
11
7.29226
21
-3.9081
0
LINE
8
BLACK
6
CONTINUOUS
10
7.29226
20
-3.9081
11
7.29235
21
-3.90835
0
LINE
8
BLACK
6
CONTINUOUS
10
7.29235
20
-3.90835
11
7.29256
21
-3.90852
0
LINE
8
BLACK
6
CONTINUOUS
10
7.29256
20
-3.90852
11
7.29269
21
-3.90928
0
LINE
8
BLACK
6
CONTINUOUS
10
7.29269
20
-3.90928
11
7.29295
21
-3.91
0
LINE
8
BLACK
6
CONTINUOUS
10
7.29295
20
-3.91
11
7.29295
21
-5.09
0
LINE
8
BLACK
6
CONTINUOUS
10
7.29295
20
-5.09
11
7.29289
21
-5.09038
0
LINE
8
BLACK
6
CONTINUOUS
10
7.29289
20
-5.09038
11
7.29291
21
-5.09051
0
LINE
8
BLACK
6
CONTINUOUS
10
7.29291
20
-5.09051
11
7.29284
21
-5.09063
0
LINE
8
BLACK
6
CONTINUOUS
10
7.29284
20
-5.09063
11
7.29277
21
-5.09101
0
LINE
8
BLACK
6
CONTINUOUS
10
7.29277
20
-5.09101
11
7.29228
21
-5.0916
0
LINE
8
BLACK
6
CONTINUOUS
10
7.29228
20
-5.0916
11
7.2919
21
-5.09226
0
LINE
8
BLACK
6
CONTINUOUS
10
7.2919
20
-5.09226
11
7.29165
21
-5.09235
0
LINE
8
BLACK
6
CONTINUOUS
10
7.29165
20
-5.09235
11
7.29148
21
-5.09256
0
LINE
8
BLACK
6
CONTINUOUS
10
7.29148
20
-5.09256
11
7.29072
21
-5.09269
0
LINE
8
BLACK
6
CONTINUOUS
10
7.29072
20
-5.09269
11
7.29
21
-5.09295
0
LINE
8
BLACK
6
CONTINUOUS
10
7.29
20
-5.09295
11
5.31
21
-5.09295
0
LINE
8
BLACK
6
CONTINUOUS
10
5.31
20
-5.09295
11
5.30962
21
-5.09289
0
LINE
8
BLACK
6
CONTINUOUS
10
5.30962
20
-5.09289
11
5.30949
21
-5.09291
0
LINE
8
BLACK
6
CONTINUOUS
10
5.30949
20
-5.09291
11
5.30937
21
-5.09284
0
LINE
8
BLACK
6
CONTINUOUS
10
5.30937
20
-5.09284
11
5.30899
21
-5.09277
0
LINE
8
BLACK
6
CONTINUOUS
10
5.30899
20
-5.09277
11
5.3084
21
-5.09228
0
LINE
8
BLACK
6
CONTINUOUS
10
5.3084
20
-5.09228
11
5.30774
21
-5.0919
0
LINE
8
BLACK
6
CONTINUOUS
10
5.30774
20
-5.0919
11
5.30765
21
-5.09165
0
LINE
8
BLACK
6
CONTINUOUS
10
5.30765
20
-5.09165
11
5.30744
21
-5.09148
0
LINE
8
BLACK
6
CONTINUOUS
10
5.30744
20
-5.09148
11
5.30731
21
-5.09072
0
LINE
8
BLACK
6
CONTINUOUS
10
5.30731
20
-5.09072
11
5.30705
21
-5.09
0
LINE
8
BLACK
6
CONTINUOUS
10
5.30705
20
-5.09
11
5.30705
21
-3.91
0
LINE
8
BLACK
6
CONTINUOUS
10
5.30705
20
-3.91
11
5.30711
21
-3.90962
0
LINE
8
BLACK
6
CONTINUOUS
10
5.30711
20
-3.90962
11
5.30709
21
-3.90949
0
LINE
8
BLACK
6
CONTINUOUS
10
5.30709
20
-3.90949
11
5.30716
21
-3.90937
0
LINE
8
BLACK
6
CONTINUOUS
10
5.30716
20
-3.90937
11
5.30723
21
-3.90899
0
LINE
8
BLACK
6
CONTINUOUS
10
5.30723
20
-3.90899
11
5.30772
21
-3.9084
0
LINE
8
BLACK
6
CONTINUOUS
10
5.30772
20
-3.9084
11
5.3081
21
-3.90774
0
LINE
8
BLACK
6
CONTINUOUS
10
5.3081
20
-3.90774
11
5.30835
21
-3.90765
0
LINE
8
BLACK
6
CONTINUOUS
10
5.30835
20
-3.90765
11
5.30852
21
-3.90744
0
LINE
8
BLACK
6
CONTINUOUS
10
5.30852
20
-3.90744
11
5.30928
21
-3.90731
0
LINE
8
BLACK
6
CONTINUOUS
10
5.30928
20
-3.90731
11
5.31
21
-3.90705
0
LINE
8
BLACK
6
CONTINUOUS
10
5.31
20
-3.90705
11
7.29
21
-3.90705
0
LINE
8
BLACK
6
CONTINUOUS
10
7.29
20
-3.90705
11
7.29038
21
-3.90711
0
LINE
8
BLACK
6
CONTINUOUS
10
5.31295
20
-3.91295
11
5.31295
21
-5.08705
0
LINE
8
BLACK
6
CONTINUOUS
10
5.31295
20
-5.08705
11
7.28705
21
-5.08705
0
LINE
8
BLACK
6
CONTINUOUS
10
7.28705
20
-5.08705
11
7.28705
21
-3.91295
0
LINE
8
BLACK
6
CONTINUOUS
10
7.28705
20
-3.91295
11
5.31295
21
-3.91295
  0
ENDSEC
  0
EOF
