  0
SECTION
  2
HEADER
  9
$ANGBASE
  50
0.0
  9
$ANGDIR
  70
1
  9
$MEASUREMENT
  70
0
  0
ENDSEC
  0
SECTION
  2
TABLES
  0
TABLE
  2
LTYPE
  70
4
  0
LTYPE
  5
40F
  2
CONTINUOUS
  70
0
  3
Solid line
  72
65
  73
0
  40
0.0
  0
LTYPE
  5
410
  2
DASHDOT
 70
0
  3
Dash Dot ____ _ ____ _
 72
65
 73
4
 40
2.0
 49
1.25
 49
-0.25
 49
0.25
 49
-0.25
  0
LTYPE
  5
411
  2
DASHED
 70
0
  3
Dashed __ __ __ __ __
 72
65
 73
2
 40
0.75
 49
0.5
 49
-0.25
  0
LTYPE
  5
43B
  2
DOTTED
 70
0
  3
Dotted .  .  .  .
 72
65
 73
2
 40
0.2
 49
0.0
 49
-0.2
  0
ENDTAB
  0
TABLE
  2
STYLE
  70
4
  0
STYLE
  2
KICAD
  70
0
  40
0
  41
1
  42
1
  50
0
  71
0
  3
isocp.shx
  0
STYLE
  2
KICADB
  70
0
  40
0
  41
1
  42
1
  50
0
  71
0
  3
isocp.shx
  0
STYLE
  2
KICADI
  70
0
  40
0
  41
1
  42
1
  50
15
  71
0
  3
isocp.shx
  0
STYLE
  2
KICADBI
  70
0
  40
0
  41
1
  42
1
  50
15
  71
0
  3
isocp.shx
  0
ENDTAB
  0
TABLE
  2
LAYER
  70
1
  0
LAYER
  2
BLACK
  70
0
  62
7
  6
CONTINUOUS
  0
ENDTAB
  0
ENDSEC
  0
SECTION
  2
ENTITIES
0
LINE
8
BLACK
6
CONTINUOUS
10
7.51492
20
-4.7749
11
7.52877
21
-4.77734
0
LINE
8
BLACK
6
CONTINUOUS
10
7.52877
20
-4.77734
11
7.54226
21
-4.78132
0
LINE
8
BLACK
6
CONTINUOUS
10
7.54226
20
-4.78132
11
7.55523
21
-4.78677
0
LINE
8
BLACK
6
CONTINUOUS
10
7.55523
20
-4.78677
11
7.56751
21
-4.79363
0
LINE
8
BLACK
6
CONTINUOUS
10
7.56751
20
-4.79363
11
7.57894
21
-4.80182
0
LINE
8
BLACK
6
CONTINUOUS
10
7.57894
20
-4.80182
11
7.58939
21
-4.81123
0
LINE
8
BLACK
6
CONTINUOUS
10
7.58939
20
-4.81123
11
7.59873
21
-4.82175
0
LINE
8
BLACK
6
CONTINUOUS
10
7.59873
20
-4.82175
11
7.60684
21
-4.83324
0
LINE
8
BLACK
6
CONTINUOUS
10
7.60684
20
-4.83324
11
7.61362
21
-4.84556
0
LINE
8
BLACK
6
CONTINUOUS
10
7.61362
20
-4.84556
11
7.61898
21
-4.85857
0
LINE
8
BLACK
6
CONTINUOUS
10
7.61898
20
-4.85857
11
7.62285
21
-4.87209
0
LINE
8
BLACK
6
CONTINUOUS
10
7.62285
20
-4.87209
11
7.6252
21
-4.88596
0
LINE
8
BLACK
6
CONTINUOUS
10
7.6252
20
-4.88596
11
7.62598
21
-4.9
0
LINE
8
BLACK
6
CONTINUOUS
10
7.62598
20
-4.9
11
7.62594
21
-4.90352
0
LINE
8
BLACK
6
CONTINUOUS
10
7.62594
20
-4.90352
11
7.62476
21
-4.91753
0
LINE
8
BLACK
6
CONTINUOUS
10
7.62476
20
-4.91753
11
7.62203
21
-4.93133
0
LINE
8
BLACK
6
CONTINUOUS
10
7.62203
20
-4.93133
11
7.61777
21
-4.94474
0
LINE
8
BLACK
6
CONTINUOUS
10
7.61777
20
-4.94474
11
7.61205
21
-4.95759
0
LINE
8
BLACK
6
CONTINUOUS
10
7.61205
20
-4.95759
11
7.60493
21
-4.96972
0
LINE
8
BLACK
6
CONTINUOUS
10
7.60493
20
-4.96972
11
7.59651
21
-4.98098
0
LINE
8
BLACK
6
CONTINUOUS
10
7.59651
20
-4.98098
11
7.58688
21
-4.99123
0
LINE
8
BLACK
6
CONTINUOUS
10
7.58688
20
-4.99123
11
7.57617
21
-5.00035
0
LINE
8
BLACK
6
CONTINUOUS
10
7.57617
20
-5.00035
11
7.56451
21
-5.00822
0
LINE
8
BLACK
6
CONTINUOUS
10
7.56451
20
-5.00822
11
7.55204
21
-5.01473
0
LINE
8
BLACK
6
CONTINUOUS
10
7.55204
20
-5.01473
11
7.53893
21
-5.01982
0
LINE
8
BLACK
6
CONTINUOUS
10
7.53893
20
-5.01982
11
7.52533
21
-5.02341
0
LINE
8
BLACK
6
CONTINUOUS
10
7.52533
20
-5.02341
11
7.51142
21
-5.02547
0
LINE
8
BLACK
6
CONTINUOUS
10
7.51142
20
-5.02547
11
7.49736
21
-5.02596
0
LINE
8
BLACK
6
CONTINUOUS
10
7.49736
20
-5.02596
11
7.48334
21
-5.02488
0
LINE
8
BLACK
6
CONTINUOUS
10
7.48334
20
-5.02488
11
7.46952
21
-5.02224
0
LINE
8
BLACK
6
CONTINUOUS
10
7.46952
20
-5.02224
11
7.45609
21
-5.01808
0
LINE
8
BLACK
6
CONTINUOUS
10
7.45609
20
-5.01808
11
7.4432
21
-5.01245
0
LINE
8
BLACK
6
CONTINUOUS
10
7.4432
20
-5.01245
11
7.43102
21
-5.00542
0
LINE
8
BLACK
6
CONTINUOUS
10
7.43102
20
-5.00542
11
7.41969
21
-4.99707
0
LINE
8
BLACK
6
CONTINUOUS
10
7.41969
20
-4.99707
11
7.40937
21
-4.98752
0
LINE
8
BLACK
6
CONTINUOUS
10
7.40937
20
-4.98752
11
7.40018
21
-4.97687
0
LINE
8
BLACK
6
CONTINUOUS
10
7.40018
20
-4.97687
11
7.39224
21
-4.96526
0
LINE
8
BLACK
6
CONTINUOUS
10
7.39224
20
-4.96526
11
7.38563
21
-4.95284
0
LINE
8
BLACK
6
CONTINUOUS
10
7.38563
20
-4.95284
11
7.38046
21
-4.93977
0
LINE
8
BLACK
6
CONTINUOUS
10
7.38046
20
-4.93977
11
7.37677
21
-4.92619
0
LINE
8
BLACK
6
CONTINUOUS
10
7.37677
20
-4.92619
11
7.37462
21
-4.91229
0
LINE
8
BLACK
6
CONTINUOUS
10
7.37462
20
-4.91229
11
7.37403
21
-4.89824
0
LINE
8
BLACK
6
CONTINUOUS
10
7.37403
20
-4.89824
11
7.37501
21
-4.88421
0
LINE
8
BLACK
6
CONTINUOUS
10
7.37501
20
-4.88421
11
7.37755
21
-4.87038
0
LINE
8
BLACK
6
CONTINUOUS
10
7.37755
20
-4.87038
11
7.38161
21
-4.85691
0
LINE
8
BLACK
6
CONTINUOUS
10
7.38161
20
-4.85691
11
7.38715
21
-4.84398
0
LINE
8
BLACK
6
CONTINUOUS
10
7.38715
20
-4.84398
11
7.3941
21
-4.83175
0
LINE
8
BLACK
6
CONTINUOUS
10
7.3941
20
-4.83175
11
7.40237
21
-4.82037
0
LINE
8
BLACK
6
CONTINUOUS
10
7.40237
20
-4.82037
11
7.41185
21
-4.80999
0
LINE
8
BLACK
6
CONTINUOUS
10
7.41185
20
-4.80999
11
7.42244
21
-4.80072
0
LINE
8
BLACK
6
CONTINUOUS
10
7.42244
20
-4.80072
11
7.43399
21
-4.7927
0
LINE
8
BLACK
6
CONTINUOUS
10
7.43399
20
-4.7927
11
7.44636
21
-4.78601
0
LINE
8
BLACK
6
CONTINUOUS
10
7.44636
20
-4.78601
11
7.4594
21
-4.78074
0
LINE
8
BLACK
6
CONTINUOUS
10
7.4594
20
-4.78074
11
7.47295
21
-4.77695
0
LINE
8
BLACK
6
CONTINUOUS
10
7.47295
20
-4.77695
11
7.48683
21
-4.77471
0
LINE
8
BLACK
6
CONTINUOUS
10
7.48683
20
-4.77471
11
7.50088
21
-4.77402
0
LINE
8
BLACK
6
CONTINUOUS
10
7.50088
20
-4.77402
11
7.51492
21
-4.7749
0
LINE
8
BLACK
6
CONTINUOUS
10
5.51492
20
-4.7749
11
5.52877
21
-4.77734
0
LINE
8
BLACK
6
CONTINUOUS
10
5.52877
20
-4.77734
11
5.54226
21
-4.78132
0
LINE
8
BLACK
6
CONTINUOUS
10
5.54226
20
-4.78132
11
5.55523
21
-4.78677
0
LINE
8
BLACK
6
CONTINUOUS
10
5.55523
20
-4.78677
11
5.56751
21
-4.79363
0
LINE
8
BLACK
6
CONTINUOUS
10
5.56751
20
-4.79363
11
5.57894
21
-4.80182
0
LINE
8
BLACK
6
CONTINUOUS
10
5.57894
20
-4.80182
11
5.58939
21
-4.81123
0
LINE
8
BLACK
6
CONTINUOUS
10
5.58939
20
-4.81123
11
5.59873
21
-4.82175
0
LINE
8
BLACK
6
CONTINUOUS
10
5.59873
20
-4.82175
11
5.60684
21
-4.83324
0
LINE
8
BLACK
6
CONTINUOUS
10
5.60684
20
-4.83324
11
5.61362
21
-4.84556
0
LINE
8
BLACK
6
CONTINUOUS
10
5.61362
20
-4.84556
11
5.61898
21
-4.85857
0
LINE
8
BLACK
6
CONTINUOUS
10
5.61898
20
-4.85857
11
5.62285
21
-4.87209
0
LINE
8
BLACK
6
CONTINUOUS
10
5.62285
20
-4.87209
11
5.6252
21
-4.88596
0
LINE
8
BLACK
6
CONTINUOUS
10
5.6252
20
-4.88596
11
5.62598
21
-4.9
0
LINE
8
BLACK
6
CONTINUOUS
10
5.62598
20
-4.9
11
5.62594
21
-4.90352
0
LINE
8
BLACK
6
CONTINUOUS
10
5.62594
20
-4.90352
11
5.62476
21
-4.91753
0
LINE
8
BLACK
6
CONTINUOUS
10
5.62476
20
-4.91753
11
5.62203
21
-4.93133
0
LINE
8
BLACK
6
CONTINUOUS
10
5.62203
20
-4.93133
11
5.61777
21
-4.94474
0
LINE
8
BLACK
6
CONTINUOUS
10
5.61777
20
-4.94474
11
5.61205
21
-4.95759
0
LINE
8
BLACK
6
CONTINUOUS
10
5.61205
20
-4.95759
11
5.60493
21
-4.96972
0
LINE
8
BLACK
6
CONTINUOUS
10
5.60493
20
-4.96972
11
5.59651
21
-4.98098
0
LINE
8
BLACK
6
CONTINUOUS
10
5.59651
20
-4.98098
11
5.58688
21
-4.99123
0
LINE
8
BLACK
6
CONTINUOUS
10
5.58688
20
-4.99123
11
5.57617
21
-5.00035
0
LINE
8
BLACK
6
CONTINUOUS
10
5.57617
20
-5.00035
11
5.56451
21
-5.00822
0
LINE
8
BLACK
6
CONTINUOUS
10
5.56451
20
-5.00822
11
5.55204
21
-5.01473
0
LINE
8
BLACK
6
CONTINUOUS
10
5.55204
20
-5.01473
11
5.53893
21
-5.01982
0
LINE
8
BLACK
6
CONTINUOUS
10
5.53893
20
-5.01982
11
5.52533
21
-5.02341
0
LINE
8
BLACK
6
CONTINUOUS
10
5.52533
20
-5.02341
11
5.51142
21
-5.02547
0
LINE
8
BLACK
6
CONTINUOUS
10
5.51142
20
-5.02547
11
5.49736
21
-5.02596
0
LINE
8
BLACK
6
CONTINUOUS
10
5.49736
20
-5.02596
11
5.48334
21
-5.02488
0
LINE
8
BLACK
6
CONTINUOUS
10
5.48334
20
-5.02488
11
5.46952
21
-5.02224
0
LINE
8
BLACK
6
CONTINUOUS
10
5.46952
20
-5.02224
11
5.45609
21
-5.01808
0
LINE
8
BLACK
6
CONTINUOUS
10
5.45609
20
-5.01808
11
5.4432
21
-5.01245
0
LINE
8
BLACK
6
CONTINUOUS
10
5.4432
20
-5.01245
11
5.43102
21
-5.00542
0
LINE
8
BLACK
6
CONTINUOUS
10
5.43102
20
-5.00542
11
5.41969
21
-4.99707
0
LINE
8
BLACK
6
CONTINUOUS
10
5.41969
20
-4.99707
11
5.40937
21
-4.98752
0
LINE
8
BLACK
6
CONTINUOUS
10
5.40937
20
-4.98752
11
5.40018
21
-4.97687
0
LINE
8
BLACK
6
CONTINUOUS
10
5.40018
20
-4.97687
11
5.39224
21
-4.96526
0
LINE
8
BLACK
6
CONTINUOUS
10
5.39224
20
-4.96526
11
5.38563
21
-4.95284
0
LINE
8
BLACK
6
CONTINUOUS
10
5.38563
20
-4.95284
11
5.38046
21
-4.93977
0
LINE
8
BLACK
6
CONTINUOUS
10
5.38046
20
-4.93977
11
5.37677
21
-4.92619
0
LINE
8
BLACK
6
CONTINUOUS
10
5.37677
20
-4.92619
11
5.37462
21
-4.91229
0
LINE
8
BLACK
6
CONTINUOUS
10
5.37462
20
-4.91229
11
5.37403
21
-4.89824
0
LINE
8
BLACK
6
CONTINUOUS
10
5.37403
20
-4.89824
11
5.37501
21
-4.88421
0
LINE
8
BLACK
6
CONTINUOUS
10
5.37501
20
-4.88421
11
5.37755
21
-4.87038
0
LINE
8
BLACK
6
CONTINUOUS
10
5.37755
20
-4.87038
11
5.38161
21
-4.85691
0
LINE
8
BLACK
6
CONTINUOUS
10
5.38161
20
-4.85691
11
5.38715
21
-4.84398
0
LINE
8
BLACK
6
CONTINUOUS
10
5.38715
20
-4.84398
11
5.3941
21
-4.83175
0
LINE
8
BLACK
6
CONTINUOUS
10
5.3941
20
-4.83175
11
5.40237
21
-4.82037
0
LINE
8
BLACK
6
CONTINUOUS
10
5.40237
20
-4.82037
11
5.41185
21
-4.80999
0
LINE
8
BLACK
6
CONTINUOUS
10
5.41185
20
-4.80999
11
5.42244
21
-4.80072
0
LINE
8
BLACK
6
CONTINUOUS
10
5.42244
20
-4.80072
11
5.43399
21
-4.7927
0
LINE
8
BLACK
6
CONTINUOUS
10
5.43399
20
-4.7927
11
5.44636
21
-4.78601
0
LINE
8
BLACK
6
CONTINUOUS
10
5.44636
20
-4.78601
11
5.4594
21
-4.78074
0
LINE
8
BLACK
6
CONTINUOUS
10
5.4594
20
-4.78074
11
5.47295
21
-4.77695
0
LINE
8
BLACK
6
CONTINUOUS
10
5.47295
20
-4.77695
11
5.48683
21
-4.77471
0
LINE
8
BLACK
6
CONTINUOUS
10
5.48683
20
-4.77471
11
5.50088
21
-4.77402
0
LINE
8
BLACK
6
CONTINUOUS
10
5.50088
20
-4.77402
11
5.51492
21
-4.7749
0
LINE
8
BLACK
6
CONTINUOUS
10
7.36719
20
-4.61379
11
7.36974
21
-4.6155
0
LINE
8
BLACK
6
CONTINUOUS
10
7.36974
20
-4.6155
11
7.37145
21
-4.61805
0
LINE
8
BLACK
6
CONTINUOUS
10
7.37145
20
-4.61805
11
7.37205
21
-4.62106
0
LINE
8
BLACK
6
CONTINUOUS
10
7.37205
20
-4.62106
11
7.37205
21
-4.70768
0
LINE
8
BLACK
6
CONTINUOUS
10
7.37205
20
-4.70768
11
7.37145
21
-4.71069
0
LINE
8
BLACK
6
CONTINUOUS
10
7.37145
20
-4.71069
11
7.36974
21
-4.71324
0
LINE
8
BLACK
6
CONTINUOUS
10
7.36974
20
-4.71324
11
7.36719
21
-4.71495
0
LINE
8
BLACK
6
CONTINUOUS
10
7.36719
20
-4.71495
11
7.36417
21
-4.71555
0
LINE
8
BLACK
6
CONTINUOUS
10
7.36417
20
-4.71555
11
7.32283
21
-4.71555
0
LINE
8
BLACK
6
CONTINUOUS
10
7.32283
20
-4.71555
11
7.31982
21
-4.71495
0
LINE
8
BLACK
6
CONTINUOUS
10
7.31982
20
-4.71495
11
7.31727
21
-4.71324
0
LINE
8
BLACK
6
CONTINUOUS
10
7.31727
20
-4.71324
11
7.31556
21
-4.71069
0
LINE
8
BLACK
6
CONTINUOUS
10
7.31556
20
-4.71069
11
7.31496
21
-4.70768
0
LINE
8
BLACK
6
CONTINUOUS
10
7.31496
20
-4.70768
11
7.31496
21
-4.62106
0
LINE
8
BLACK
6
CONTINUOUS
10
7.31496
20
-4.62106
11
7.31556
21
-4.61805
0
LINE
8
BLACK
6
CONTINUOUS
10
7.31556
20
-4.61805
11
7.31727
21
-4.6155
0
LINE
8
BLACK
6
CONTINUOUS
10
7.31727
20
-4.6155
11
7.31982
21
-4.61379
0
LINE
8
BLACK
6
CONTINUOUS
10
7.31982
20
-4.61379
11
7.32283
21
-4.61319
0
LINE
8
BLACK
6
CONTINUOUS
10
7.32283
20
-4.61319
11
7.36417
21
-4.61319
0
LINE
8
BLACK
6
CONTINUOUS
10
7.36417
20
-4.61319
11
7.36719
21
-4.61379
0
LINE
8
BLACK
6
CONTINUOUS
10
7.48333
20
-4.61379
11
7.48588
21
-4.6155
0
LINE
8
BLACK
6
CONTINUOUS
10
7.48588
20
-4.6155
11
7.48759
21
-4.61805
0
LINE
8
BLACK
6
CONTINUOUS
10
7.48759
20
-4.61805
11
7.48819
21
-4.62106
0
LINE
8
BLACK
6
CONTINUOUS
10
7.48819
20
-4.62106
11
7.48819
21
-4.70768
0
LINE
8
BLACK
6
CONTINUOUS
10
7.48819
20
-4.70768
11
7.48759
21
-4.71069
0
LINE
8
BLACK
6
CONTINUOUS
10
7.48759
20
-4.71069
11
7.48588
21
-4.71324
0
LINE
8
BLACK
6
CONTINUOUS
10
7.48588
20
-4.71324
11
7.48333
21
-4.71495
0
LINE
8
BLACK
6
CONTINUOUS
10
7.48333
20
-4.71495
11
7.48031
21
-4.71555
0
LINE
8
BLACK
6
CONTINUOUS
10
7.48031
20
-4.71555
11
7.43898
21
-4.71555
0
LINE
8
BLACK
6
CONTINUOUS
10
7.43898
20
-4.71555
11
7.43596
21
-4.71495
0
LINE
8
BLACK
6
CONTINUOUS
10
7.43596
20
-4.71495
11
7.43341
21
-4.71324
0
LINE
8
BLACK
6
CONTINUOUS
10
7.43341
20
-4.71324
11
7.4317
21
-4.71069
0
LINE
8
BLACK
6
CONTINUOUS
10
7.4317
20
-4.71069
11
7.4311
21
-4.70768
0
LINE
8
BLACK
6
CONTINUOUS
10
7.4311
20
-4.70768
11
7.4311
21
-4.62106
0
LINE
8
BLACK
6
CONTINUOUS
10
7.4311
20
-4.62106
11
7.4317
21
-4.61805
0
LINE
8
BLACK
6
CONTINUOUS
10
7.4317
20
-4.61805
11
7.43341
21
-4.6155
0
LINE
8
BLACK
6
CONTINUOUS
10
7.43341
20
-4.6155
11
7.43596
21
-4.61379
0
LINE
8
BLACK
6
CONTINUOUS
10
7.43596
20
-4.61379
11
7.43898
21
-4.61319
0
LINE
8
BLACK
6
CONTINUOUS
10
7.43898
20
-4.61319
11
7.48031
21
-4.61319
0
LINE
8
BLACK
6
CONTINUOUS
10
7.48031
20
-4.61319
11
7.48333
21
-4.61379
0
LINE
8
BLACK
6
CONTINUOUS
10
7.42427
20
-4.57639
11
7.42683
21
-4.57809
0
LINE
8
BLACK
6
CONTINUOUS
10
7.42683
20
-4.57809
11
7.42853
21
-4.58065
0
LINE
8
BLACK
6
CONTINUOUS
10
7.42853
20
-4.58065
11
7.42913
21
-4.58366
0
LINE
8
BLACK
6
CONTINUOUS
10
7.42913
20
-4.58366
11
7.42913
21
-4.625
0
LINE
8
BLACK
6
CONTINUOUS
10
7.42913
20
-4.625
11
7.42853
21
-4.62801
0
LINE
8
BLACK
6
CONTINUOUS
10
7.42853
20
-4.62801
11
7.42683
21
-4.63057
0
LINE
8
BLACK
6
CONTINUOUS
10
7.42683
20
-4.63057
11
7.42427
21
-4.63227
0
LINE
8
BLACK
6
CONTINUOUS
10
7.42427
20
-4.63227
11
7.42126
21
-4.63287
0
LINE
8
BLACK
6
CONTINUOUS
10
7.42126
20
-4.63287
11
7.38189
21
-4.63287
0
LINE
8
BLACK
6
CONTINUOUS
10
7.38189
20
-4.63287
11
7.37888
21
-4.63227
0
LINE
8
BLACK
6
CONTINUOUS
10
7.37888
20
-4.63227
11
7.37632
21
-4.63057
0
LINE
8
BLACK
6
CONTINUOUS
10
7.37632
20
-4.63057
11
7.37462
21
-4.62801
0
LINE
8
BLACK
6
CONTINUOUS
10
7.37462
20
-4.62801
11
7.37402
21
-4.625
0
LINE
8
BLACK
6
CONTINUOUS
10
7.37402
20
-4.625
11
7.37402
21
-4.58366
0
LINE
8
BLACK
6
CONTINUOUS
10
7.37402
20
-4.58366
11
7.37462
21
-4.58065
0
LINE
8
BLACK
6
CONTINUOUS
10
7.37462
20
-4.58065
11
7.37632
21
-4.57809
0
LINE
8
BLACK
6
CONTINUOUS
10
7.37632
20
-4.57809
11
7.37888
21
-4.57639
0
LINE
8
BLACK
6
CONTINUOUS
10
7.37888
20
-4.57639
11
7.38189
21
-4.57579
0
LINE
8
BLACK
6
CONTINUOUS
10
7.38189
20
-4.57579
11
7.42126
21
-4.57579
0
LINE
8
BLACK
6
CONTINUOUS
10
7.42126
20
-4.57579
11
7.42427
21
-4.57639
0
LINE
8
BLACK
6
CONTINUOUS
10
7.30718
20
-4.42162
11
7.3165
21
-4.42385
0
LINE
8
BLACK
6
CONTINUOUS
10
7.3165
20
-4.42385
11
7.32534
21
-4.42752
0
LINE
8
BLACK
6
CONTINUOUS
10
7.32534
20
-4.42752
11
7.33351
21
-4.43252
0
LINE
8
BLACK
6
CONTINUOUS
10
7.33351
20
-4.43252
11
7.34079
21
-4.43874
0
LINE
8
BLACK
6
CONTINUOUS
10
7.34079
20
-4.43874
11
7.34701
21
-4.44602
0
LINE
8
BLACK
6
CONTINUOUS
10
7.34701
20
-4.44602
11
7.35201
21
-4.45419
0
LINE
8
BLACK
6
CONTINUOUS
10
7.35201
20
-4.45419
11
7.35567
21
-4.46303
0
LINE
8
BLACK
6
CONTINUOUS
10
7.35567
20
-4.46303
11
7.35791
21
-4.47234
0
LINE
8
BLACK
6
CONTINUOUS
10
7.35791
20
-4.47234
11
7.35866
21
-4.48189
0
LINE
8
BLACK
6
CONTINUOUS
10
7.35866
20
-4.48189
11
7.35791
21
-4.49144
0
LINE
8
BLACK
6
CONTINUOUS
10
7.35791
20
-4.49144
11
7.35567
21
-4.50075
0
LINE
8
BLACK
6
CONTINUOUS
10
7.35567
20
-4.50075
11
7.35201
21
-4.50959
0
LINE
8
BLACK
6
CONTINUOUS
10
7.35201
20
-4.50959
11
7.34701
21
-4.51776
0
LINE
8
BLACK
6
CONTINUOUS
10
7.34701
20
-4.51776
11
7.34079
21
-4.52504
0
LINE
8
BLACK
6
CONTINUOUS
10
7.34079
20
-4.52504
11
7.33351
21
-4.53126
0
LINE
8
BLACK
6
CONTINUOUS
10
7.33351
20
-4.53126
11
7.32534
21
-4.53626
0
LINE
8
BLACK
6
CONTINUOUS
10
7.32534
20
-4.53626
11
7.3165
21
-4.53993
0
LINE
8
BLACK
6
CONTINUOUS
10
7.3165
20
-4.53993
11
7.30718
21
-4.54216
0
LINE
8
BLACK
6
CONTINUOUS
10
7.30718
20
-4.54216
11
7.29764
21
-4.54291
0
LINE
8
BLACK
6
CONTINUOUS
10
7.29764
20
-4.54291
11
7.28809
21
-4.54216
0
LINE
8
BLACK
6
CONTINUOUS
10
7.28809
20
-4.54216
11
7.27878
21
-4.53993
0
LINE
8
BLACK
6
CONTINUOUS
10
7.27878
20
-4.53993
11
7.26993
21
-4.53626
0
LINE
8
BLACK
6
CONTINUOUS
10
7.26993
20
-4.53626
11
7.26177
21
-4.53126
0
LINE
8
BLACK
6
CONTINUOUS
10
7.26177
20
-4.53126
11
7.25449
21
-4.52504
0
LINE
8
BLACK
6
CONTINUOUS
10
7.25449
20
-4.52504
11
7.24827
21
-4.51776
0
LINE
8
BLACK
6
CONTINUOUS
10
7.24827
20
-4.51776
11
7.24327
21
-4.50959
0
LINE
8
BLACK
6
CONTINUOUS
10
7.24327
20
-4.50959
11
7.2396
21
-4.50075
0
LINE
8
BLACK
6
CONTINUOUS
10
7.2396
20
-4.50075
11
7.23737
21
-4.49144
0
LINE
8
BLACK
6
CONTINUOUS
10
7.23737
20
-4.49144
11
7.23661
21
-4.48189
0
LINE
8
BLACK
6
CONTINUOUS
10
7.23661
20
-4.48189
11
7.23737
21
-4.47234
0
LINE
8
BLACK
6
CONTINUOUS
10
7.23737
20
-4.47234
11
7.2396
21
-4.46303
0
LINE
8
BLACK
6
CONTINUOUS
10
7.2396
20
-4.46303
11
7.24327
21
-4.45419
0
LINE
8
BLACK
6
CONTINUOUS
10
7.24327
20
-4.45419
11
7.24827
21
-4.44602
0
LINE
8
BLACK
6
CONTINUOUS
10
7.24827
20
-4.44602
11
7.25449
21
-4.43874
0
LINE
8
BLACK
6
CONTINUOUS
10
7.25449
20
-4.43874
11
7.26177
21
-4.43252
0
LINE
8
BLACK
6
CONTINUOUS
10
7.26177
20
-4.43252
11
7.26993
21
-4.42752
0
LINE
8
BLACK
6
CONTINUOUS
10
7.26993
20
-4.42752
11
7.27878
21
-4.42385
0
LINE
8
BLACK
6
CONTINUOUS
10
7.27878
20
-4.42385
11
7.28809
21
-4.42162
0
LINE
8
BLACK
6
CONTINUOUS
10
7.28809
20
-4.42162
11
7.29764
21
-4.42087
0
LINE
8
BLACK
6
CONTINUOUS
10
7.29764
20
-4.42087
11
7.30718
21
-4.42162
0
LINE
8
BLACK
6
CONTINUOUS
10
7.50718
20
-4.42162
11
7.5165
21
-4.42385
0
LINE
8
BLACK
6
CONTINUOUS
10
7.5165
20
-4.42385
11
7.52534
21
-4.42752
0
LINE
8
BLACK
6
CONTINUOUS
10
7.52534
20
-4.42752
11
7.53351
21
-4.43252
0
LINE
8
BLACK
6
CONTINUOUS
10
7.53351
20
-4.43252
11
7.54079
21
-4.43874
0
LINE
8
BLACK
6
CONTINUOUS
10
7.54079
20
-4.43874
11
7.54701
21
-4.44602
0
LINE
8
BLACK
6
CONTINUOUS
10
7.54701
20
-4.44602
11
7.55201
21
-4.45419
0
LINE
8
BLACK
6
CONTINUOUS
10
7.55201
20
-4.45419
11
7.55567
21
-4.46303
0
LINE
8
BLACK
6
CONTINUOUS
10
7.55567
20
-4.46303
11
7.55791
21
-4.47234
0
LINE
8
BLACK
6
CONTINUOUS
10
7.55791
20
-4.47234
11
7.55866
21
-4.48189
0
LINE
8
BLACK
6
CONTINUOUS
10
7.55866
20
-4.48189
11
7.55791
21
-4.49144
0
LINE
8
BLACK
6
CONTINUOUS
10
7.55791
20
-4.49144
11
7.55567
21
-4.50075
0
LINE
8
BLACK
6
CONTINUOUS
10
7.55567
20
-4.50075
11
7.55201
21
-4.50959
0
LINE
8
BLACK
6
CONTINUOUS
10
7.55201
20
-4.50959
11
7.54701
21
-4.51776
0
LINE
8
BLACK
6
CONTINUOUS
10
7.54701
20
-4.51776
11
7.54079
21
-4.52504
0
LINE
8
BLACK
6
CONTINUOUS
10
7.54079
20
-4.52504
11
7.53351
21
-4.53126
0
LINE
8
BLACK
6
CONTINUOUS
10
7.53351
20
-4.53126
11
7.52534
21
-4.53626
0
LINE
8
BLACK
6
CONTINUOUS
10
7.52534
20
-4.53626
11
7.5165
21
-4.53993
0
LINE
8
BLACK
6
CONTINUOUS
10
7.5165
20
-4.53993
11
7.50718
21
-4.54216
0
LINE
8
BLACK
6
CONTINUOUS
10
7.50718
20
-4.54216
11
7.49764
21
-4.54291
0
LINE
8
BLACK
6
CONTINUOUS
10
7.49764
20
-4.54291
11
7.48809
21
-4.54216
0
LINE
8
BLACK
6
CONTINUOUS
10
7.48809
20
-4.54216
11
7.47878
21
-4.53993
0
LINE
8
BLACK
6
CONTINUOUS
10
7.47878
20
-4.53993
11
7.46993
21
-4.53626
0
LINE
8
BLACK
6
CONTINUOUS
10
7.46993
20
-4.53626
11
7.46177
21
-4.53126
0
LINE
8
BLACK
6
CONTINUOUS
10
7.46177
20
-4.53126
11
7.45449
21
-4.52504
0
LINE
8
BLACK
6
CONTINUOUS
10
7.45449
20
-4.52504
11
7.44827
21
-4.51776
0
LINE
8
BLACK
6
CONTINUOUS
10
7.44827
20
-4.51776
11
7.44327
21
-4.50959
0
LINE
8
BLACK
6
CONTINUOUS
10
7.44327
20
-4.50959
11
7.4396
21
-4.50075
0
LINE
8
BLACK
6
CONTINUOUS
10
7.4396
20
-4.50075
11
7.43737
21
-4.49144
0
LINE
8
BLACK
6
CONTINUOUS
10
7.43737
20
-4.49144
11
7.43661
21
-4.48189
0
LINE
8
BLACK
6
CONTINUOUS
10
7.43661
20
-4.48189
11
7.43737
21
-4.47234
0
LINE
8
BLACK
6
CONTINUOUS
10
7.43737
20
-4.47234
11
7.4396
21
-4.46303
0
LINE
8
BLACK
6
CONTINUOUS
10
7.4396
20
-4.46303
11
7.44327
21
-4.45419
0
LINE
8
BLACK
6
CONTINUOUS
10
7.44327
20
-4.45419
11
7.44827
21
-4.44602
0
LINE
8
BLACK
6
CONTINUOUS
10
7.44827
20
-4.44602
11
7.45449
21
-4.43874
0
LINE
8
BLACK
6
CONTINUOUS
10
7.45449
20
-4.43874
11
7.46177
21
-4.43252
0
LINE
8
BLACK
6
CONTINUOUS
10
7.46177
20
-4.43252
11
7.46993
21
-4.42752
0
LINE
8
BLACK
6
CONTINUOUS
10
7.46993
20
-4.42752
11
7.47878
21
-4.42385
0
LINE
8
BLACK
6
CONTINUOUS
10
7.47878
20
-4.42385
11
7.48809
21
-4.42162
0
LINE
8
BLACK
6
CONTINUOUS
10
7.48809
20
-4.42162
11
7.49764
21
-4.42087
0
LINE
8
BLACK
6
CONTINUOUS
10
7.49764
20
-4.42087
11
7.50718
21
-4.42162
0
LINE
8
BLACK
6
CONTINUOUS
10
7.40301
20
-4.32506
11
7.41222
21
-4.3267
0
LINE
8
BLACK
6
CONTINUOUS
10
7.41222
20
-4.3267
11
7.42104
21
-4.32982
0
LINE
8
BLACK
6
CONTINUOUS
10
7.42104
20
-4.32982
11
7.42923
21
-4.33434
0
LINE
8
BLACK
6
CONTINUOUS
10
7.42923
20
-4.33434
11
7.43657
21
-4.34014
0
LINE
8
BLACK
6
CONTINUOUS
10
7.43657
20
-4.34014
11
7.44287
21
-4.34706
0
LINE
8
BLACK
6
CONTINUOUS
10
7.44287
20
-4.34706
11
7.44795
21
-4.35491
0
LINE
8
BLACK
6
CONTINUOUS
10
7.44795
20
-4.35491
11
7.45168
21
-4.36349
0
LINE
8
BLACK
6
CONTINUOUS
10
7.45168
20
-4.36349
11
7.45396
21
-4.37257
0
LINE
8
BLACK
6
CONTINUOUS
10
7.45396
20
-4.37257
11
7.45472
21
-4.38189
0
LINE
8
BLACK
6
CONTINUOUS
10
7.45472
20
-4.38189
11
7.45466
21
-4.38468
0
LINE
8
BLACK
6
CONTINUOUS
10
7.45466
20
-4.38468
11
7.45344
21
-4.39395
0
LINE
8
BLACK
6
CONTINUOUS
10
7.45344
20
-4.39395
11
7.45072
21
-4.4029
0
LINE
8
BLACK
6
CONTINUOUS
10
7.45072
20
-4.4029
11
7.44657
21
-4.41129
0
LINE
8
BLACK
6
CONTINUOUS
10
7.44657
20
-4.41129
11
7.44111
21
-4.41889
0
LINE
8
BLACK
6
CONTINUOUS
10
7.44111
20
-4.41889
11
7.43448
21
-4.42549
0
LINE
8
BLACK
6
CONTINUOUS
10
7.43448
20
-4.42549
11
7.42687
21
-4.43092
0
LINE
8
BLACK
6
CONTINUOUS
10
7.42687
20
-4.43092
11
7.41847
21
-4.43504
0
LINE
8
BLACK
6
CONTINUOUS
10
7.41847
20
-4.43504
11
7.40951
21
-4.43773
0
LINE
8
BLACK
6
CONTINUOUS
10
7.40951
20
-4.43773
11
7.40023
21
-4.43892
0
LINE
8
BLACK
6
CONTINUOUS
10
7.40023
20
-4.43892
11
7.39088
21
-4.43857
0
LINE
8
BLACK
6
CONTINUOUS
10
7.39088
20
-4.43857
11
7.38171
21
-4.43671
0
LINE
8
BLACK
6
CONTINUOUS
10
7.38171
20
-4.43671
11
7.37297
21
-4.43337
0
LINE
8
BLACK
6
CONTINUOUS
10
7.37297
20
-4.43337
11
7.36489
21
-4.42865
0
LINE
8
BLACK
6
CONTINUOUS
10
7.36489
20
-4.42865
11
7.3577
21
-4.42268
0
LINE
8
BLACK
6
CONTINUOUS
10
7.3577
20
-4.42268
11
7.35157
21
-4.41561
0
LINE
8
BLACK
6
CONTINUOUS
10
7.35157
20
-4.41561
11
7.34668
21
-4.40763
0
LINE
8
BLACK
6
CONTINUOUS
10
7.34668
20
-4.40763
11
7.34316
21
-4.39896
0
LINE
8
BLACK
6
CONTINUOUS
10
7.34316
20
-4.39896
11
7.34111
21
-4.38983
0
LINE
8
BLACK
6
CONTINUOUS
10
7.34111
20
-4.38983
11
7.34057
21
-4.38049
0
LINE
8
BLACK
6
CONTINUOUS
10
7.34057
20
-4.38049
11
7.34156
21
-4.37119
0
LINE
8
BLACK
6
CONTINUOUS
10
7.34156
20
-4.37119
11
7.34406
21
-4.36218
0
LINE
8
BLACK
6
CONTINUOUS
10
7.34406
20
-4.36218
11
7.348
21
-4.35369
0
LINE
8
BLACK
6
CONTINUOUS
10
7.348
20
-4.35369
11
7.35327
21
-4.34596
0
LINE
8
BLACK
6
CONTINUOUS
10
7.35327
20
-4.34596
11
7.35974
21
-4.3392
0
LINE
8
BLACK
6
CONTINUOUS
10
7.35974
20
-4.3392
11
7.36722
21
-4.33358
0
LINE
8
BLACK
6
CONTINUOUS
10
7.36722
20
-4.33358
11
7.37552
21
-4.32926
0
LINE
8
BLACK
6
CONTINUOUS
10
7.37552
20
-4.32926
11
7.38441
21
-4.32636
0
LINE
8
BLACK
6
CONTINUOUS
10
7.38441
20
-4.32636
11
7.39366
21
-4.32494
0
LINE
8
BLACK
6
CONTINUOUS
10
7.39366
20
-4.32494
11
7.40301
21
-4.32506
0
LINE
8
BLACK
6
CONTINUOUS
10
7.30718
20
-4.22162
11
7.3165
21
-4.22385
0
LINE
8
BLACK
6
CONTINUOUS
10
7.3165
20
-4.22385
11
7.32534
21
-4.22752
0
LINE
8
BLACK
6
CONTINUOUS
10
7.32534
20
-4.22752
11
7.33351
21
-4.23252
0
LINE
8
BLACK
6
CONTINUOUS
10
7.33351
20
-4.23252
11
7.34079
21
-4.23874
0
LINE
8
BLACK
6
CONTINUOUS
10
7.34079
20
-4.23874
11
7.34701
21
-4.24602
0
LINE
8
BLACK
6
CONTINUOUS
10
7.34701
20
-4.24602
11
7.35201
21
-4.25419
0
LINE
8
BLACK
6
CONTINUOUS
10
7.35201
20
-4.25419
11
7.35567
21
-4.26303
0
LINE
8
BLACK
6
CONTINUOUS
10
7.35567
20
-4.26303
11
7.35791
21
-4.27234
0
LINE
8
BLACK
6
CONTINUOUS
10
7.35791
20
-4.27234
11
7.35866
21
-4.28189
0
LINE
8
BLACK
6
CONTINUOUS
10
7.35866
20
-4.28189
11
7.35791
21
-4.29144
0
LINE
8
BLACK
6
CONTINUOUS
10
7.35791
20
-4.29144
11
7.35567
21
-4.30075
0
LINE
8
BLACK
6
CONTINUOUS
10
7.35567
20
-4.30075
11
7.35201
21
-4.30959
0
LINE
8
BLACK
6
CONTINUOUS
10
7.35201
20
-4.30959
11
7.34701
21
-4.31776
0
LINE
8
BLACK
6
CONTINUOUS
10
7.34701
20
-4.31776
11
7.34079
21
-4.32504
0
LINE
8
BLACK
6
CONTINUOUS
10
7.34079
20
-4.32504
11
7.33351
21
-4.33126
0
LINE
8
BLACK
6
CONTINUOUS
10
7.33351
20
-4.33126
11
7.32534
21
-4.33626
0
LINE
8
BLACK
6
CONTINUOUS
10
7.32534
20
-4.33626
11
7.3165
21
-4.33993
0
LINE
8
BLACK
6
CONTINUOUS
10
7.3165
20
-4.33993
11
7.30718
21
-4.34216
0
LINE
8
BLACK
6
CONTINUOUS
10
7.30718
20
-4.34216
11
7.29764
21
-4.34291
0
LINE
8
BLACK
6
CONTINUOUS
10
7.29764
20
-4.34291
11
7.28809
21
-4.34216
0
LINE
8
BLACK
6
CONTINUOUS
10
7.28809
20
-4.34216
11
7.27878
21
-4.33993
0
LINE
8
BLACK
6
CONTINUOUS
10
7.27878
20
-4.33993
11
7.26993
21
-4.33626
0
LINE
8
BLACK
6
CONTINUOUS
10
7.26993
20
-4.33626
11
7.26177
21
-4.33126
0
LINE
8
BLACK
6
CONTINUOUS
10
7.26177
20
-4.33126
11
7.25449
21
-4.32504
0
LINE
8
BLACK
6
CONTINUOUS
10
7.25449
20
-4.32504
11
7.24827
21
-4.31776
0
LINE
8
BLACK
6
CONTINUOUS
10
7.24827
20
-4.31776
11
7.24327
21
-4.30959
0
LINE
8
BLACK
6
CONTINUOUS
10
7.24327
20
-4.30959
11
7.2396
21
-4.30075
0
LINE
8
BLACK
6
CONTINUOUS
10
7.2396
20
-4.30075
11
7.23737
21
-4.29144
0
LINE
8
BLACK
6
CONTINUOUS
10
7.23737
20
-4.29144
11
7.23661
21
-4.28189
0
LINE
8
BLACK
6
CONTINUOUS
10
7.23661
20
-4.28189
11
7.23737
21
-4.27234
0
LINE
8
BLACK
6
CONTINUOUS
10
7.23737
20
-4.27234
11
7.2396
21
-4.26303
0
LINE
8
BLACK
6
CONTINUOUS
10
7.2396
20
-4.26303
11
7.24327
21
-4.25419
0
LINE
8
BLACK
6
CONTINUOUS
10
7.24327
20
-4.25419
11
7.24827
21
-4.24602
0
LINE
8
BLACK
6
CONTINUOUS
10
7.24827
20
-4.24602
11
7.25449
21
-4.23874
0
LINE
8
BLACK
6
CONTINUOUS
10
7.25449
20
-4.23874
11
7.26177
21
-4.23252
0
LINE
8
BLACK
6
CONTINUOUS
10
7.26177
20
-4.23252
11
7.26993
21
-4.22752
0
LINE
8
BLACK
6
CONTINUOUS
10
7.26993
20
-4.22752
11
7.27878
21
-4.22385
0
LINE
8
BLACK
6
CONTINUOUS
10
7.27878
20
-4.22385
11
7.28809
21
-4.22162
0
LINE
8
BLACK
6
CONTINUOUS
10
7.28809
20
-4.22162
11
7.29764
21
-4.22087
0
LINE
8
BLACK
6
CONTINUOUS
10
7.29764
20
-4.22087
11
7.30718
21
-4.22162
0
LINE
8
BLACK
6
CONTINUOUS
10
7.50718
20
-4.22162
11
7.5165
21
-4.22385
0
LINE
8
BLACK
6
CONTINUOUS
10
7.5165
20
-4.22385
11
7.52534
21
-4.22752
0
LINE
8
BLACK
6
CONTINUOUS
10
7.52534
20
-4.22752
11
7.53351
21
-4.23252
0
LINE
8
BLACK
6
CONTINUOUS
10
7.53351
20
-4.23252
11
7.54079
21
-4.23874
0
LINE
8
BLACK
6
CONTINUOUS
10
7.54079
20
-4.23874
11
7.54701
21
-4.24602
0
LINE
8
BLACK
6
CONTINUOUS
10
7.54701
20
-4.24602
11
7.55201
21
-4.25419
0
LINE
8
BLACK
6
CONTINUOUS
10
7.55201
20
-4.25419
11
7.55567
21
-4.26303
0
LINE
8
BLACK
6
CONTINUOUS
10
7.55567
20
-4.26303
11
7.55791
21
-4.27234
0
LINE
8
BLACK
6
CONTINUOUS
10
7.55791
20
-4.27234
11
7.55866
21
-4.28189
0
LINE
8
BLACK
6
CONTINUOUS
10
7.55866
20
-4.28189
11
7.55791
21
-4.29144
0
LINE
8
BLACK
6
CONTINUOUS
10
7.55791
20
-4.29144
11
7.55567
21
-4.30075
0
LINE
8
BLACK
6
CONTINUOUS
10
7.55567
20
-4.30075
11
7.55201
21
-4.30959
0
LINE
8
BLACK
6
CONTINUOUS
10
7.55201
20
-4.30959
11
7.54701
21
-4.31776
0
LINE
8
BLACK
6
CONTINUOUS
10
7.54701
20
-4.31776
11
7.54079
21
-4.32504
0
LINE
8
BLACK
6
CONTINUOUS
10
7.54079
20
-4.32504
11
7.53351
21
-4.33126
0
LINE
8
BLACK
6
CONTINUOUS
10
7.53351
20
-4.33126
11
7.52534
21
-4.33626
0
LINE
8
BLACK
6
CONTINUOUS
10
7.52534
20
-4.33626
11
7.5165
21
-4.33993
0
LINE
8
BLACK
6
CONTINUOUS
10
7.5165
20
-4.33993
11
7.50718
21
-4.34216
0
LINE
8
BLACK
6
CONTINUOUS
10
7.50718
20
-4.34216
11
7.49764
21
-4.34291
0
LINE
8
BLACK
6
CONTINUOUS
10
7.49764
20
-4.34291
11
7.48809
21
-4.34216
0
LINE
8
BLACK
6
CONTINUOUS
10
7.48809
20
-4.34216
11
7.47878
21
-4.33993
0
LINE
8
BLACK
6
CONTINUOUS
10
7.47878
20
-4.33993
11
7.46993
21
-4.33626
0
LINE
8
BLACK
6
CONTINUOUS
10
7.46993
20
-4.33626
11
7.46177
21
-4.33126
0
LINE
8
BLACK
6
CONTINUOUS
10
7.46177
20
-4.33126
11
7.45449
21
-4.32504
0
LINE
8
BLACK
6
CONTINUOUS
10
7.45449
20
-4.32504
11
7.44827
21
-4.31776
0
LINE
8
BLACK
6
CONTINUOUS
10
7.44827
20
-4.31776
11
7.44327
21
-4.30959
0
LINE
8
BLACK
6
CONTINUOUS
10
7.44327
20
-4.30959
11
7.4396
21
-4.30075
0
LINE
8
BLACK
6
CONTINUOUS
10
7.4396
20
-4.30075
11
7.43737
21
-4.29144
0
LINE
8
BLACK
6
CONTINUOUS
10
7.43737
20
-4.29144
11
7.43661
21
-4.28189
0
LINE
8
BLACK
6
CONTINUOUS
10
7.43661
20
-4.28189
11
7.43737
21
-4.27234
0
LINE
8
BLACK
6
CONTINUOUS
10
7.43737
20
-4.27234
11
7.4396
21
-4.26303
0
LINE
8
BLACK
6
CONTINUOUS
10
7.4396
20
-4.26303
11
7.44327
21
-4.25419
0
LINE
8
BLACK
6
CONTINUOUS
10
7.44327
20
-4.25419
11
7.44827
21
-4.24602
0
LINE
8
BLACK
6
CONTINUOUS
10
7.44827
20
-4.24602
11
7.45449
21
-4.23874
0
LINE
8
BLACK
6
CONTINUOUS
10
7.45449
20
-4.23874
11
7.46177
21
-4.23252
0
LINE
8
BLACK
6
CONTINUOUS
10
7.46177
20
-4.23252
11
7.46993
21
-4.22752
0
LINE
8
BLACK
6
CONTINUOUS
10
7.46993
20
-4.22752
11
7.47878
21
-4.22385
0
LINE
8
BLACK
6
CONTINUOUS
10
7.47878
20
-4.22385
11
7.48809
21
-4.22162
0
LINE
8
BLACK
6
CONTINUOUS
10
7.48809
20
-4.22162
11
7.49764
21
-4.22087
0
LINE
8
BLACK
6
CONTINUOUS
10
7.49764
20
-4.22087
11
7.50718
21
-4.22162
0
LINE
8
BLACK
6
CONTINUOUS
10
7.50718
20
-3.90981
11
7.5165
21
-3.91204
0
LINE
8
BLACK
6
CONTINUOUS
10
7.5165
20
-3.91204
11
7.52534
21
-3.91571
0
LINE
8
BLACK
6
CONTINUOUS
10
7.52534
20
-3.91571
11
7.53351
21
-3.92071
0
LINE
8
BLACK
6
CONTINUOUS
10
7.53351
20
-3.92071
11
7.54079
21
-3.92693
0
LINE
8
BLACK
6
CONTINUOUS
10
7.54079
20
-3.92693
11
7.54701
21
-3.93421
0
LINE
8
BLACK
6
CONTINUOUS
10
7.54701
20
-3.93421
11
7.55201
21
-3.94237
0
LINE
8
BLACK
6
CONTINUOUS
10
7.55201
20
-3.94237
11
7.55567
21
-3.95122
0
LINE
8
BLACK
6
CONTINUOUS
10
7.55567
20
-3.95122
11
7.55791
21
-3.96053
0
LINE
8
BLACK
6
CONTINUOUS
10
7.55791
20
-3.96053
11
7.55866
21
-3.97008
0
LINE
8
BLACK
6
CONTINUOUS
10
7.55866
20
-3.97008
11
7.55791
21
-3.97962
0
LINE
8
BLACK
6
CONTINUOUS
10
7.55791
20
-3.97962
11
7.55567
21
-3.98894
0
LINE
8
BLACK
6
CONTINUOUS
10
7.55567
20
-3.98894
11
7.55201
21
-3.99778
0
LINE
8
BLACK
6
CONTINUOUS
10
7.55201
20
-3.99778
11
7.54701
21
-4.00595
0
LINE
8
BLACK
6
CONTINUOUS
10
7.54701
20
-4.00595
11
7.54079
21
-4.01323
0
LINE
8
BLACK
6
CONTINUOUS
10
7.54079
20
-4.01323
11
7.53351
21
-4.01945
0
LINE
8
BLACK
6
CONTINUOUS
10
7.53351
20
-4.01945
11
7.52534
21
-4.02445
0
LINE
8
BLACK
6
CONTINUOUS
10
7.52534
20
-4.02445
11
7.5165
21
-4.02812
0
LINE
8
BLACK
6
CONTINUOUS
10
7.5165
20
-4.02812
11
7.50718
21
-4.03035
0
LINE
8
BLACK
6
CONTINUOUS
10
7.50718
20
-4.03035
11
7.49764
21
-4.0311
0
LINE
8
BLACK
6
CONTINUOUS
10
7.49764
20
-4.0311
11
7.48809
21
-4.03035
0
LINE
8
BLACK
6
CONTINUOUS
10
7.48809
20
-4.03035
11
7.47878
21
-4.02812
0
LINE
8
BLACK
6
CONTINUOUS
10
7.47878
20
-4.02812
11
7.46993
21
-4.02445
0
LINE
8
BLACK
6
CONTINUOUS
10
7.46993
20
-4.02445
11
7.46177
21
-4.01945
0
LINE
8
BLACK
6
CONTINUOUS
10
7.46177
20
-4.01945
11
7.45449
21
-4.01323
0
LINE
8
BLACK
6
CONTINUOUS
10
7.45449
20
-4.01323
11
7.44827
21
-4.00595
0
LINE
8
BLACK
6
CONTINUOUS
10
7.44827
20
-4.00595
11
7.44327
21
-3.99778
0
LINE
8
BLACK
6
CONTINUOUS
10
7.44327
20
-3.99778
11
7.4396
21
-3.98894
0
LINE
8
BLACK
6
CONTINUOUS
10
7.4396
20
-3.98894
11
7.43737
21
-3.97962
0
LINE
8
BLACK
6
CONTINUOUS
10
7.43737
20
-3.97962
11
7.43661
21
-3.97008
0
LINE
8
BLACK
6
CONTINUOUS
10
7.43661
20
-3.97008
11
7.43737
21
-3.96053
0
LINE
8
BLACK
6
CONTINUOUS
10
7.43737
20
-3.96053
11
7.4396
21
-3.95122
0
LINE
8
BLACK
6
CONTINUOUS
10
7.4396
20
-3.95122
11
7.44327
21
-3.94237
0
LINE
8
BLACK
6
CONTINUOUS
10
7.44327
20
-3.94237
11
7.44827
21
-3.93421
0
LINE
8
BLACK
6
CONTINUOUS
10
7.44827
20
-3.93421
11
7.45449
21
-3.92693
0
LINE
8
BLACK
6
CONTINUOUS
10
7.45449
20
-3.92693
11
7.46177
21
-3.92071
0
LINE
8
BLACK
6
CONTINUOUS
10
7.46177
20
-3.92071
11
7.46993
21
-3.91571
0
LINE
8
BLACK
6
CONTINUOUS
10
7.46993
20
-3.91571
11
7.47878
21
-3.91204
0
LINE
8
BLACK
6
CONTINUOUS
10
7.47878
20
-3.91204
11
7.48809
21
-3.90981
0
LINE
8
BLACK
6
CONTINUOUS
10
7.48809
20
-3.90981
11
7.49764
21
-3.90906
0
LINE
8
BLACK
6
CONTINUOUS
10
7.49764
20
-3.90906
11
7.50718
21
-3.90981
0
LINE
8
BLACK
6
CONTINUOUS
10
7.30718
20
-3.90981
11
7.3165
21
-3.91204
0
LINE
8
BLACK
6
CONTINUOUS
10
7.3165
20
-3.91204
11
7.32534
21
-3.91571
0
LINE
8
BLACK
6
CONTINUOUS
10
7.32534
20
-3.91571
11
7.33351
21
-3.92071
0
LINE
8
BLACK
6
CONTINUOUS
10
7.33351
20
-3.92071
11
7.34079
21
-3.92693
0
LINE
8
BLACK
6
CONTINUOUS
10
7.34079
20
-3.92693
11
7.34701
21
-3.93421
0
LINE
8
BLACK
6
CONTINUOUS
10
7.34701
20
-3.93421
11
7.35201
21
-3.94237
0
LINE
8
BLACK
6
CONTINUOUS
10
7.35201
20
-3.94237
11
7.35567
21
-3.95122
0
LINE
8
BLACK
6
CONTINUOUS
10
7.35567
20
-3.95122
11
7.35791
21
-3.96053
0
LINE
8
BLACK
6
CONTINUOUS
10
7.35791
20
-3.96053
11
7.35866
21
-3.97008
0
LINE
8
BLACK
6
CONTINUOUS
10
7.35866
20
-3.97008
11
7.35791
21
-3.97962
0
LINE
8
BLACK
6
CONTINUOUS
10
7.35791
20
-3.97962
11
7.35567
21
-3.98894
0
LINE
8
BLACK
6
CONTINUOUS
10
7.35567
20
-3.98894
11
7.35201
21
-3.99778
0
LINE
8
BLACK
6
CONTINUOUS
10
7.35201
20
-3.99778
11
7.34701
21
-4.00595
0
LINE
8
BLACK
6
CONTINUOUS
10
7.34701
20
-4.00595
11
7.34079
21
-4.01323
0
LINE
8
BLACK
6
CONTINUOUS
10
7.34079
20
-4.01323
11
7.33351
21
-4.01945
0
LINE
8
BLACK
6
CONTINUOUS
10
7.33351
20
-4.01945
11
7.32534
21
-4.02445
0
LINE
8
BLACK
6
CONTINUOUS
10
7.32534
20
-4.02445
11
7.3165
21
-4.02812
0
LINE
8
BLACK
6
CONTINUOUS
10
7.3165
20
-4.02812
11
7.30718
21
-4.03035
0
LINE
8
BLACK
6
CONTINUOUS
10
7.30718
20
-4.03035
11
7.29764
21
-4.0311
0
LINE
8
BLACK
6
CONTINUOUS
10
7.29764
20
-4.0311
11
7.28809
21
-4.03035
0
LINE
8
BLACK
6
CONTINUOUS
10
7.28809
20
-4.03035
11
7.27878
21
-4.02812
0
LINE
8
BLACK
6
CONTINUOUS
10
7.27878
20
-4.02812
11
7.26993
21
-4.02445
0
LINE
8
BLACK
6
CONTINUOUS
10
7.26993
20
-4.02445
11
7.26177
21
-4.01945
0
LINE
8
BLACK
6
CONTINUOUS
10
7.26177
20
-4.01945
11
7.25449
21
-4.01323
0
LINE
8
BLACK
6
CONTINUOUS
10
7.25449
20
-4.01323
11
7.24827
21
-4.00595
0
LINE
8
BLACK
6
CONTINUOUS
10
7.24827
20
-4.00595
11
7.24327
21
-3.99778
0
LINE
8
BLACK
6
CONTINUOUS
10
7.24327
20
-3.99778
11
7.2396
21
-3.98894
0
LINE
8
BLACK
6
CONTINUOUS
10
7.2396
20
-3.98894
11
7.23737
21
-3.97962
0
LINE
8
BLACK
6
CONTINUOUS
10
7.23737
20
-3.97962
11
7.23661
21
-3.97008
0
LINE
8
BLACK
6
CONTINUOUS
10
7.23661
20
-3.97008
11
7.23737
21
-3.96053
0
LINE
8
BLACK
6
CONTINUOUS
10
7.23737
20
-3.96053
11
7.2396
21
-3.95122
0
LINE
8
BLACK
6
CONTINUOUS
10
7.2396
20
-3.95122
11
7.24327
21
-3.94237
0
LINE
8
BLACK
6
CONTINUOUS
10
7.24327
20
-3.94237
11
7.24827
21
-3.93421
0
LINE
8
BLACK
6
CONTINUOUS
10
7.24827
20
-3.93421
11
7.25449
21
-3.92693
0
LINE
8
BLACK
6
CONTINUOUS
10
7.25449
20
-3.92693
11
7.26177
21
-3.92071
0
LINE
8
BLACK
6
CONTINUOUS
10
7.26177
20
-3.92071
11
7.26993
21
-3.91571
0
LINE
8
BLACK
6
CONTINUOUS
10
7.26993
20
-3.91571
11
7.27878
21
-3.91204
0
LINE
8
BLACK
6
CONTINUOUS
10
7.27878
20
-3.91204
11
7.28809
21
-3.90981
0
LINE
8
BLACK
6
CONTINUOUS
10
7.28809
20
-3.90981
11
7.29764
21
-3.90906
0
LINE
8
BLACK
6
CONTINUOUS
10
7.29764
20
-3.90906
11
7.30718
21
-3.90981
0
LINE
8
BLACK
6
CONTINUOUS
10
7.40301
20
-3.81325
11
7.41222
21
-3.81489
0
LINE
8
BLACK
6
CONTINUOUS
10
7.41222
20
-3.81489
11
7.42104
21
-3.81801
0
LINE
8
BLACK
6
CONTINUOUS
10
7.42104
20
-3.81801
11
7.42923
21
-3.82253
0
LINE
8
BLACK
6
CONTINUOUS
10
7.42923
20
-3.82253
11
7.43657
21
-3.82833
0
LINE
8
BLACK
6
CONTINUOUS
10
7.43657
20
-3.82833
11
7.44287
21
-3.83525
0
LINE
8
BLACK
6
CONTINUOUS
10
7.44287
20
-3.83525
11
7.44795
21
-3.8431
0
LINE
8
BLACK
6
CONTINUOUS
10
7.44795
20
-3.8431
11
7.45168
21
-3.85168
0
LINE
8
BLACK
6
CONTINUOUS
10
7.45168
20
-3.85168
11
7.45396
21
-3.86076
0
LINE
8
BLACK
6
CONTINUOUS
10
7.45396
20
-3.86076
11
7.45472
21
-3.87008
0
LINE
8
BLACK
6
CONTINUOUS
10
7.45472
20
-3.87008
11
7.45466
21
-3.87287
0
LINE
8
BLACK
6
CONTINUOUS
10
7.45466
20
-3.87287
11
7.45344
21
-3.88214
0
LINE
8
BLACK
6
CONTINUOUS
10
7.45344
20
-3.88214
11
7.45072
21
-3.89109
0
LINE
8
BLACK
6
CONTINUOUS
10
7.45072
20
-3.89109
11
7.44657
21
-3.89948
0
LINE
8
BLACK
6
CONTINUOUS
10
7.44657
20
-3.89948
11
7.44111
21
-3.90708
0
LINE
8
BLACK
6
CONTINUOUS
10
7.44111
20
-3.90708
11
7.43448
21
-3.91368
0
LINE
8
BLACK
6
CONTINUOUS
10
7.43448
20
-3.91368
11
7.42687
21
-3.91911
0
LINE
8
BLACK
6
CONTINUOUS
10
7.42687
20
-3.91911
11
7.41847
21
-3.92323
0
LINE
8
BLACK
6
CONTINUOUS
10
7.41847
20
-3.92323
11
7.40951
21
-3.92592
0
LINE
8
BLACK
6
CONTINUOUS
10
7.40951
20
-3.92592
11
7.40023
21
-3.92711
0
LINE
8
BLACK
6
CONTINUOUS
10
7.40023
20
-3.92711
11
7.39088
21
-3.92676
0
LINE
8
BLACK
6
CONTINUOUS
10
7.39088
20
-3.92676
11
7.38171
21
-3.9249
0
LINE
8
BLACK
6
CONTINUOUS
10
7.38171
20
-3.9249
11
7.37297
21
-3.92156
0
LINE
8
BLACK
6
CONTINUOUS
10
7.37297
20
-3.92156
11
7.36489
21
-3.91684
0
LINE
8
BLACK
6
CONTINUOUS
10
7.36489
20
-3.91684
11
7.3577
21
-3.91087
0
LINE
8
BLACK
6
CONTINUOUS
10
7.3577
20
-3.91087
11
7.35157
21
-3.90379
0
LINE
8
BLACK
6
CONTINUOUS
10
7.35157
20
-3.90379
11
7.34668
21
-3.89582
0
LINE
8
BLACK
6
CONTINUOUS
10
7.34668
20
-3.89582
11
7.34316
21
-3.88715
0
LINE
8
BLACK
6
CONTINUOUS
10
7.34316
20
-3.88715
11
7.34111
21
-3.87802
0
LINE
8
BLACK
6
CONTINUOUS
10
7.34111
20
-3.87802
11
7.34057
21
-3.86868
0
LINE
8
BLACK
6
CONTINUOUS
10
7.34057
20
-3.86868
11
7.34156
21
-3.85938
0
LINE
8
BLACK
6
CONTINUOUS
10
7.34156
20
-3.85938
11
7.34406
21
-3.85037
0
LINE
8
BLACK
6
CONTINUOUS
10
7.34406
20
-3.85037
11
7.348
21
-3.84188
0
LINE
8
BLACK
6
CONTINUOUS
10
7.348
20
-3.84188
11
7.35327
21
-3.83415
0
LINE
8
BLACK
6
CONTINUOUS
10
7.35327
20
-3.83415
11
7.35974
21
-3.82739
0
LINE
8
BLACK
6
CONTINUOUS
10
7.35974
20
-3.82739
11
7.36722
21
-3.82177
0
LINE
8
BLACK
6
CONTINUOUS
10
7.36722
20
-3.82177
11
7.37552
21
-3.81745
0
LINE
8
BLACK
6
CONTINUOUS
10
7.37552
20
-3.81745
11
7.38441
21
-3.81455
0
LINE
8
BLACK
6
CONTINUOUS
10
7.38441
20
-3.81455
11
7.39366
21
-3.81313
0
LINE
8
BLACK
6
CONTINUOUS
10
7.39366
20
-3.81313
11
7.40301
21
-3.81325
0
LINE
8
BLACK
6
CONTINUOUS
10
7.50718
20
-3.70981
11
7.5165
21
-3.71204
0
LINE
8
BLACK
6
CONTINUOUS
10
7.5165
20
-3.71204
11
7.52534
21
-3.71571
0
LINE
8
BLACK
6
CONTINUOUS
10
7.52534
20
-3.71571
11
7.53351
21
-3.72071
0
LINE
8
BLACK
6
CONTINUOUS
10
7.53351
20
-3.72071
11
7.54079
21
-3.72693
0
LINE
8
BLACK
6
CONTINUOUS
10
7.54079
20
-3.72693
11
7.54701
21
-3.73421
0
LINE
8
BLACK
6
CONTINUOUS
10
7.54701
20
-3.73421
11
7.55201
21
-3.74237
0
LINE
8
BLACK
6
CONTINUOUS
10
7.55201
20
-3.74237
11
7.55567
21
-3.75122
0
LINE
8
BLACK
6
CONTINUOUS
10
7.55567
20
-3.75122
11
7.55791
21
-3.76053
0
LINE
8
BLACK
6
CONTINUOUS
10
7.55791
20
-3.76053
11
7.55866
21
-3.77008
0
LINE
8
BLACK
6
CONTINUOUS
10
7.55866
20
-3.77008
11
7.55791
21
-3.77962
0
LINE
8
BLACK
6
CONTINUOUS
10
7.55791
20
-3.77962
11
7.55567
21
-3.78894
0
LINE
8
BLACK
6
CONTINUOUS
10
7.55567
20
-3.78894
11
7.55201
21
-3.79778
0
LINE
8
BLACK
6
CONTINUOUS
10
7.55201
20
-3.79778
11
7.54701
21
-3.80595
0
LINE
8
BLACK
6
CONTINUOUS
10
7.54701
20
-3.80595
11
7.54079
21
-3.81323
0
LINE
8
BLACK
6
CONTINUOUS
10
7.54079
20
-3.81323
11
7.53351
21
-3.81945
0
LINE
8
BLACK
6
CONTINUOUS
10
7.53351
20
-3.81945
11
7.52534
21
-3.82445
0
LINE
8
BLACK
6
CONTINUOUS
10
7.52534
20
-3.82445
11
7.5165
21
-3.82812
0
LINE
8
BLACK
6
CONTINUOUS
10
7.5165
20
-3.82812
11
7.50718
21
-3.83035
0
LINE
8
BLACK
6
CONTINUOUS
10
7.50718
20
-3.83035
11
7.49764
21
-3.8311
0
LINE
8
BLACK
6
CONTINUOUS
10
7.49764
20
-3.8311
11
7.48809
21
-3.83035
0
LINE
8
BLACK
6
CONTINUOUS
10
7.48809
20
-3.83035
11
7.47878
21
-3.82812
0
LINE
8
BLACK
6
CONTINUOUS
10
7.47878
20
-3.82812
11
7.46993
21
-3.82445
0
LINE
8
BLACK
6
CONTINUOUS
10
7.46993
20
-3.82445
11
7.46177
21
-3.81945
0
LINE
8
BLACK
6
CONTINUOUS
10
7.46177
20
-3.81945
11
7.45449
21
-3.81323
0
LINE
8
BLACK
6
CONTINUOUS
10
7.45449
20
-3.81323
11
7.44827
21
-3.80595
0
LINE
8
BLACK
6
CONTINUOUS
10
7.44827
20
-3.80595
11
7.44327
21
-3.79778
0
LINE
8
BLACK
6
CONTINUOUS
10
7.44327
20
-3.79778
11
7.4396
21
-3.78894
0
LINE
8
BLACK
6
CONTINUOUS
10
7.4396
20
-3.78894
11
7.43737
21
-3.77962
0
LINE
8
BLACK
6
CONTINUOUS
10
7.43737
20
-3.77962
11
7.43661
21
-3.77008
0
LINE
8
BLACK
6
CONTINUOUS
10
7.43661
20
-3.77008
11
7.43737
21
-3.76053
0
LINE
8
BLACK
6
CONTINUOUS
10
7.43737
20
-3.76053
11
7.4396
21
-3.75122
0
LINE
8
BLACK
6
CONTINUOUS
10
7.4396
20
-3.75122
11
7.44327
21
-3.74237
0
LINE
8
BLACK
6
CONTINUOUS
10
7.44327
20
-3.74237
11
7.44827
21
-3.73421
0
LINE
8
BLACK
6
CONTINUOUS
10
7.44827
20
-3.73421
11
7.45449
21
-3.72693
0
LINE
8
BLACK
6
CONTINUOUS
10
7.45449
20
-3.72693
11
7.46177
21
-3.72071
0
LINE
8
BLACK
6
CONTINUOUS
10
7.46177
20
-3.72071
11
7.46993
21
-3.71571
0
LINE
8
BLACK
6
CONTINUOUS
10
7.46993
20
-3.71571
11
7.47878
21
-3.71204
0
LINE
8
BLACK
6
CONTINUOUS
10
7.47878
20
-3.71204
11
7.48809
21
-3.70981
0
LINE
8
BLACK
6
CONTINUOUS
10
7.48809
20
-3.70981
11
7.49764
21
-3.70906
0
LINE
8
BLACK
6
CONTINUOUS
10
7.49764
20
-3.70906
11
7.50718
21
-3.70981
0
LINE
8
BLACK
6
CONTINUOUS
10
7.30718
20
-3.70981
11
7.3165
21
-3.71204
0
LINE
8
BLACK
6
CONTINUOUS
10
7.3165
20
-3.71204
11
7.32534
21
-3.71571
0
LINE
8
BLACK
6
CONTINUOUS
10
7.32534
20
-3.71571
11
7.33351
21
-3.72071
0
LINE
8
BLACK
6
CONTINUOUS
10
7.33351
20
-3.72071
11
7.34079
21
-3.72693
0
LINE
8
BLACK
6
CONTINUOUS
10
7.34079
20
-3.72693
11
7.34701
21
-3.73421
0
LINE
8
BLACK
6
CONTINUOUS
10
7.34701
20
-3.73421
11
7.35201
21
-3.74237
0
LINE
8
BLACK
6
CONTINUOUS
10
7.35201
20
-3.74237
11
7.35567
21
-3.75122
0
LINE
8
BLACK
6
CONTINUOUS
10
7.35567
20
-3.75122
11
7.35791
21
-3.76053
0
LINE
8
BLACK
6
CONTINUOUS
10
7.35791
20
-3.76053
11
7.35866
21
-3.77008
0
LINE
8
BLACK
6
CONTINUOUS
10
7.35866
20
-3.77008
11
7.35791
21
-3.77962
0
LINE
8
BLACK
6
CONTINUOUS
10
7.35791
20
-3.77962
11
7.35567
21
-3.78894
0
LINE
8
BLACK
6
CONTINUOUS
10
7.35567
20
-3.78894
11
7.35201
21
-3.79778
0
LINE
8
BLACK
6
CONTINUOUS
10
7.35201
20
-3.79778
11
7.34701
21
-3.80595
0
LINE
8
BLACK
6
CONTINUOUS
10
7.34701
20
-3.80595
11
7.34079
21
-3.81323
0
LINE
8
BLACK
6
CONTINUOUS
10
7.34079
20
-3.81323
11
7.33351
21
-3.81945
0
LINE
8
BLACK
6
CONTINUOUS
10
7.33351
20
-3.81945
11
7.32534
21
-3.82445
0
LINE
8
BLACK
6
CONTINUOUS
10
7.32534
20
-3.82445
11
7.3165
21
-3.82812
0
LINE
8
BLACK
6
CONTINUOUS
10
7.3165
20
-3.82812
11
7.30718
21
-3.83035
0
LINE
8
BLACK
6
CONTINUOUS
10
7.30718
20
-3.83035
11
7.29764
21
-3.8311
0
LINE
8
BLACK
6
CONTINUOUS
10
7.29764
20
-3.8311
11
7.28809
21
-3.83035
0
LINE
8
BLACK
6
CONTINUOUS
10
7.28809
20
-3.83035
11
7.27878
21
-3.82812
0
LINE
8
BLACK
6
CONTINUOUS
10
7.27878
20
-3.82812
11
7.26993
21
-3.82445
0
LINE
8
BLACK
6
CONTINUOUS
10
7.26993
20
-3.82445
11
7.26177
21
-3.81945
0
LINE
8
BLACK
6
CONTINUOUS
10
7.26177
20
-3.81945
11
7.25449
21
-3.81323
0
LINE
8
BLACK
6
CONTINUOUS
10
7.25449
20
-3.81323
11
7.24827
21
-3.80595
0
LINE
8
BLACK
6
CONTINUOUS
10
7.24827
20
-3.80595
11
7.24327
21
-3.79778
0
LINE
8
BLACK
6
CONTINUOUS
10
7.24327
20
-3.79778
11
7.2396
21
-3.78894
0
LINE
8
BLACK
6
CONTINUOUS
10
7.2396
20
-3.78894
11
7.23737
21
-3.77962
0
LINE
8
BLACK
6
CONTINUOUS
10
7.23737
20
-3.77962
11
7.23661
21
-3.77008
0
LINE
8
BLACK
6
CONTINUOUS
10
7.23661
20
-3.77008
11
7.23737
21
-3.76053
0
LINE
8
BLACK
6
CONTINUOUS
10
7.23737
20
-3.76053
11
7.2396
21
-3.75122
0
LINE
8
BLACK
6
CONTINUOUS
10
7.2396
20
-3.75122
11
7.24327
21
-3.74237
0
LINE
8
BLACK
6
CONTINUOUS
10
7.24327
20
-3.74237
11
7.24827
21
-3.73421
0
LINE
8
BLACK
6
CONTINUOUS
10
7.24827
20
-3.73421
11
7.25449
21
-3.72693
0
LINE
8
BLACK
6
CONTINUOUS
10
7.25449
20
-3.72693
11
7.26177
21
-3.72071
0
LINE
8
BLACK
6
CONTINUOUS
10
7.26177
20
-3.72071
11
7.26993
21
-3.71571
0
LINE
8
BLACK
6
CONTINUOUS
10
7.26993
20
-3.71571
11
7.27878
21
-3.71204
0
LINE
8
BLACK
6
CONTINUOUS
10
7.27878
20
-3.71204
11
7.28809
21
-3.70981
0
LINE
8
BLACK
6
CONTINUOUS
10
7.28809
20
-3.70981
11
7.29764
21
-3.70906
0
LINE
8
BLACK
6
CONTINUOUS
10
7.29764
20
-3.70906
11
7.30718
21
-3.70981
0
LINE
8
BLACK
6
CONTINUOUS
10
5.44758
20
-3.68477
11
5.45013
21
-3.68648
0
LINE
8
BLACK
6
CONTINUOUS
10
5.45013
20
-3.68648
11
5.45184
21
-3.68903
0
LINE
8
BLACK
6
CONTINUOUS
10
5.45184
20
-3.68903
11
5.45244
21
-3.69205
0
LINE
8
BLACK
6
CONTINUOUS
10
5.45244
20
-3.69205
11
5.45244
21
-3.75205
0
LINE
8
BLACK
6
CONTINUOUS
10
5.45244
20
-3.75205
11
5.45184
21
-3.75506
0
LINE
8
BLACK
6
CONTINUOUS
10
5.45184
20
-3.75506
11
5.45013
21
-3.75761
0
LINE
8
BLACK
6
CONTINUOUS
10
5.45013
20
-3.75761
11
5.44758
21
-3.75932
0
LINE
8
BLACK
6
CONTINUOUS
10
5.44758
20
-3.75932
11
5.44457
21
-3.75992
0
LINE
8
BLACK
6
CONTINUOUS
10
5.44457
20
-3.75992
11
5.38457
21
-3.75992
0
LINE
8
BLACK
6
CONTINUOUS
10
5.38457
20
-3.75992
11
5.38155
21
-3.75932
0
LINE
8
BLACK
6
CONTINUOUS
10
5.38155
20
-3.75932
11
5.379
21
-3.75761
0
LINE
8
BLACK
6
CONTINUOUS
10
5.379
20
-3.75761
11
5.37729
21
-3.75506
0
LINE
8
BLACK
6
CONTINUOUS
10
5.37729
20
-3.75506
11
5.37669
21
-3.75205
0
LINE
8
BLACK
6
CONTINUOUS
10
5.37669
20
-3.75205
11
5.37669
21
-3.69205
0
LINE
8
BLACK
6
CONTINUOUS
10
5.37669
20
-3.69205
11
5.37729
21
-3.68903
0
LINE
8
BLACK
6
CONTINUOUS
10
5.37729
20
-3.68903
11
5.379
21
-3.68648
0
LINE
8
BLACK
6
CONTINUOUS
10
5.379
20
-3.68648
11
5.38155
21
-3.68477
0
LINE
8
BLACK
6
CONTINUOUS
10
5.38155
20
-3.68477
11
5.38457
21
-3.68417
0
LINE
8
BLACK
6
CONTINUOUS
10
5.38457
20
-3.68417
11
5.44457
21
-3.68417
0
LINE
8
BLACK
6
CONTINUOUS
10
5.44457
20
-3.68417
11
5.44758
21
-3.68477
0
LINE
8
BLACK
6
CONTINUOUS
10
5.54758
20
-3.68477
11
5.55013
21
-3.68648
0
LINE
8
BLACK
6
CONTINUOUS
10
5.55013
20
-3.68648
11
5.55184
21
-3.68903
0
LINE
8
BLACK
6
CONTINUOUS
10
5.55184
20
-3.68903
11
5.55244
21
-3.69205
0
LINE
8
BLACK
6
CONTINUOUS
10
5.55244
20
-3.69205
11
5.55244
21
-3.75205
0
LINE
8
BLACK
6
CONTINUOUS
10
5.55244
20
-3.75205
11
5.55184
21
-3.75506
0
LINE
8
BLACK
6
CONTINUOUS
10
5.55184
20
-3.75506
11
5.55013
21
-3.75761
0
LINE
8
BLACK
6
CONTINUOUS
10
5.55013
20
-3.75761
11
5.54758
21
-3.75932
0
LINE
8
BLACK
6
CONTINUOUS
10
5.54758
20
-3.75932
11
5.54457
21
-3.75992
0
LINE
8
BLACK
6
CONTINUOUS
10
5.54457
20
-3.75992
11
5.48457
21
-3.75992
0
LINE
8
BLACK
6
CONTINUOUS
10
5.48457
20
-3.75992
11
5.48155
21
-3.75932
0
LINE
8
BLACK
6
CONTINUOUS
10
5.48155
20
-3.75932
11
5.479
21
-3.75761
0
LINE
8
BLACK
6
CONTINUOUS
10
5.479
20
-3.75761
11
5.47729
21
-3.75506
0
LINE
8
BLACK
6
CONTINUOUS
10
5.47729
20
-3.75506
11
5.47669
21
-3.75205
0
LINE
8
BLACK
6
CONTINUOUS
10
5.47669
20
-3.75205
11
5.47669
21
-3.69205
0
LINE
8
BLACK
6
CONTINUOUS
10
5.47669
20
-3.69205
11
5.47729
21
-3.68903
0
LINE
8
BLACK
6
CONTINUOUS
10
5.47729
20
-3.68903
11
5.479
21
-3.68648
0
LINE
8
BLACK
6
CONTINUOUS
10
5.479
20
-3.68648
11
5.48155
21
-3.68477
0
LINE
8
BLACK
6
CONTINUOUS
10
5.48155
20
-3.68477
11
5.48457
21
-3.68417
0
LINE
8
BLACK
6
CONTINUOUS
10
5.48457
20
-3.68417
11
5.54457
21
-3.68417
0
LINE
8
BLACK
6
CONTINUOUS
10
5.54457
20
-3.68417
11
5.54758
21
-3.68477
0
LINE
8
BLACK
6
CONTINUOUS
10
7.42427
20
-3.63544
11
7.42683
21
-3.63715
0
LINE
8
BLACK
6
CONTINUOUS
10
7.42683
20
-3.63715
11
7.42853
21
-3.6397
0
LINE
8
BLACK
6
CONTINUOUS
10
7.42853
20
-3.6397
11
7.42913
21
-3.64272
0
LINE
8
BLACK
6
CONTINUOUS
10
7.42913
20
-3.64272
11
7.42913
21
-3.68406
0
LINE
8
BLACK
6
CONTINUOUS
10
7.42913
20
-3.68406
11
7.42853
21
-3.68707
0
LINE
8
BLACK
6
CONTINUOUS
10
7.42853
20
-3.68707
11
7.42683
21
-3.68962
0
LINE
8
BLACK
6
CONTINUOUS
10
7.42683
20
-3.68962
11
7.42427
21
-3.69133
0
LINE
8
BLACK
6
CONTINUOUS
10
7.42427
20
-3.69133
11
7.42126
21
-3.69193
0
LINE
8
BLACK
6
CONTINUOUS
10
7.42126
20
-3.69193
11
7.38189
21
-3.69193
0
LINE
8
BLACK
6
CONTINUOUS
10
7.38189
20
-3.69193
11
7.37888
21
-3.69133
0
LINE
8
BLACK
6
CONTINUOUS
10
7.37888
20
-3.69133
11
7.37632
21
-3.68962
0
LINE
8
BLACK
6
CONTINUOUS
10
7.37632
20
-3.68962
11
7.37462
21
-3.68707
0
LINE
8
BLACK
6
CONTINUOUS
10
7.37462
20
-3.68707
11
7.37402
21
-3.68406
0
LINE
8
BLACK
6
CONTINUOUS
10
7.37402
20
-3.68406
11
7.37402
21
-3.64272
0
LINE
8
BLACK
6
CONTINUOUS
10
7.37402
20
-3.64272
11
7.37462
21
-3.6397
0
LINE
8
BLACK
6
CONTINUOUS
10
7.37462
20
-3.6397
11
7.37632
21
-3.63715
0
LINE
8
BLACK
6
CONTINUOUS
10
7.37632
20
-3.63715
11
7.37888
21
-3.63544
0
LINE
8
BLACK
6
CONTINUOUS
10
7.37888
20
-3.63544
11
7.38189
21
-3.63484
0
LINE
8
BLACK
6
CONTINUOUS
10
7.38189
20
-3.63484
11
7.42126
21
-3.63484
0
LINE
8
BLACK
6
CONTINUOUS
10
7.42126
20
-3.63484
11
7.42427
21
-3.63544
0
LINE
8
BLACK
6
CONTINUOUS
10
5.44758
20
-3.58477
11
5.45013
21
-3.58648
0
LINE
8
BLACK
6
CONTINUOUS
10
5.45013
20
-3.58648
11
5.45184
21
-3.58903
0
LINE
8
BLACK
6
CONTINUOUS
10
5.45184
20
-3.58903
11
5.45244
21
-3.59205
0
LINE
8
BLACK
6
CONTINUOUS
10
5.45244
20
-3.59205
11
5.45244
21
-3.65205
0
LINE
8
BLACK
6
CONTINUOUS
10
5.45244
20
-3.65205
11
5.45184
21
-3.65506
0
LINE
8
BLACK
6
CONTINUOUS
10
5.45184
20
-3.65506
11
5.45013
21
-3.65761
0
LINE
8
BLACK
6
CONTINUOUS
10
5.45013
20
-3.65761
11
5.44758
21
-3.65932
0
LINE
8
BLACK
6
CONTINUOUS
10
5.44758
20
-3.65932
11
5.44457
21
-3.65992
0
LINE
8
BLACK
6
CONTINUOUS
10
5.44457
20
-3.65992
11
5.38457
21
-3.65992
0
LINE
8
BLACK
6
CONTINUOUS
10
5.38457
20
-3.65992
11
5.38155
21
-3.65932
0
LINE
8
BLACK
6
CONTINUOUS
10
5.38155
20
-3.65932
11
5.379
21
-3.65761
0
LINE
8
BLACK
6
CONTINUOUS
10
5.379
20
-3.65761
11
5.37729
21
-3.65506
0
LINE
8
BLACK
6
CONTINUOUS
10
5.37729
20
-3.65506
11
5.37669
21
-3.65205
0
LINE
8
BLACK
6
CONTINUOUS
10
5.37669
20
-3.65205
11
5.37669
21
-3.59205
0
LINE
8
BLACK
6
CONTINUOUS
10
5.37669
20
-3.59205
11
5.37729
21
-3.58903
0
LINE
8
BLACK
6
CONTINUOUS
10
5.37729
20
-3.58903
11
5.379
21
-3.58648
0
LINE
8
BLACK
6
CONTINUOUS
10
5.379
20
-3.58648
11
5.38155
21
-3.58477
0
LINE
8
BLACK
6
CONTINUOUS
10
5.38155
20
-3.58477
11
5.38457
21
-3.58417
0
LINE
8
BLACK
6
CONTINUOUS
10
5.38457
20
-3.58417
11
5.44457
21
-3.58417
0
LINE
8
BLACK
6
CONTINUOUS
10
5.44457
20
-3.58417
11
5.44758
21
-3.58477
0
LINE
8
BLACK
6
CONTINUOUS
10
5.54758
20
-3.58477
11
5.55013
21
-3.58648
0
LINE
8
BLACK
6
CONTINUOUS
10
5.55013
20
-3.58648
11
5.55184
21
-3.58903
0
LINE
8
BLACK
6
CONTINUOUS
10
5.55184
20
-3.58903
11
5.55244
21
-3.59205
0
LINE
8
BLACK
6
CONTINUOUS
10
5.55244
20
-3.59205
11
5.55244
21
-3.65205
0
LINE
8
BLACK
6
CONTINUOUS
10
5.55244
20
-3.65205
11
5.55184
21
-3.65506
0
LINE
8
BLACK
6
CONTINUOUS
10
5.55184
20
-3.65506
11
5.55013
21
-3.65761
0
LINE
8
BLACK
6
CONTINUOUS
10
5.55013
20
-3.65761
11
5.54758
21
-3.65932
0
LINE
8
BLACK
6
CONTINUOUS
10
5.54758
20
-3.65932
11
5.54457
21
-3.65992
0
LINE
8
BLACK
6
CONTINUOUS
10
5.54457
20
-3.65992
11
5.48457
21
-3.65992
0
LINE
8
BLACK
6
CONTINUOUS
10
5.48457
20
-3.65992
11
5.48155
21
-3.65932
0
LINE
8
BLACK
6
CONTINUOUS
10
5.48155
20
-3.65932
11
5.479
21
-3.65761
0
LINE
8
BLACK
6
CONTINUOUS
10
5.479
20
-3.65761
11
5.47729
21
-3.65506
0
LINE
8
BLACK
6
CONTINUOUS
10
5.47729
20
-3.65506
11
5.47669
21
-3.65205
0
LINE
8
BLACK
6
CONTINUOUS
10
5.47669
20
-3.65205
11
5.47669
21
-3.59205
0
LINE
8
BLACK
6
CONTINUOUS
10
5.47669
20
-3.59205
11
5.47729
21
-3.58903
0
LINE
8
BLACK
6
CONTINUOUS
10
5.47729
20
-3.58903
11
5.479
21
-3.58648
0
LINE
8
BLACK
6
CONTINUOUS
10
5.479
20
-3.58648
11
5.48155
21
-3.58477
0
LINE
8
BLACK
6
CONTINUOUS
10
5.48155
20
-3.58477
11
5.48457
21
-3.58417
0
LINE
8
BLACK
6
CONTINUOUS
10
5.48457
20
-3.58417
11
5.54457
21
-3.58417
0
LINE
8
BLACK
6
CONTINUOUS
10
5.54457
20
-3.58417
11
5.54758
21
-3.58477
0
LINE
8
BLACK
6
CONTINUOUS
10
7.36719
20
-3.55276
11
7.36974
21
-3.55447
0
LINE
8
BLACK
6
CONTINUOUS
10
7.36974
20
-3.55447
11
7.37145
21
-3.55703
0
LINE
8
BLACK
6
CONTINUOUS
10
7.37145
20
-3.55703
11
7.37205
21
-3.56004
0
LINE
8
BLACK
6
CONTINUOUS
10
7.37205
20
-3.56004
11
7.37205
21
-3.64665
0
LINE
8
BLACK
6
CONTINUOUS
10
7.37205
20
-3.64665
11
7.37145
21
-3.64967
0
LINE
8
BLACK
6
CONTINUOUS
10
7.37145
20
-3.64967
11
7.36974
21
-3.65222
0
LINE
8
BLACK
6
CONTINUOUS
10
7.36974
20
-3.65222
11
7.36719
21
-3.65393
0
LINE
8
BLACK
6
CONTINUOUS
10
7.36719
20
-3.65393
11
7.36417
21
-3.65453
0
LINE
8
BLACK
6
CONTINUOUS
10
7.36417
20
-3.65453
11
7.32283
21
-3.65453
0
LINE
8
BLACK
6
CONTINUOUS
10
7.32283
20
-3.65453
11
7.31982
21
-3.65393
0
LINE
8
BLACK
6
CONTINUOUS
10
7.31982
20
-3.65393
11
7.31727
21
-3.65222
0
LINE
8
BLACK
6
CONTINUOUS
10
7.31727
20
-3.65222
11
7.31556
21
-3.64967
0
LINE
8
BLACK
6
CONTINUOUS
10
7.31556
20
-3.64967
11
7.31496
21
-3.64665
0
LINE
8
BLACK
6
CONTINUOUS
10
7.31496
20
-3.64665
11
7.31496
21
-3.56004
0
LINE
8
BLACK
6
CONTINUOUS
10
7.31496
20
-3.56004
11
7.31556
21
-3.55703
0
LINE
8
BLACK
6
CONTINUOUS
10
7.31556
20
-3.55703
11
7.31727
21
-3.55447
0
LINE
8
BLACK
6
CONTINUOUS
10
7.31727
20
-3.55447
11
7.31982
21
-3.55276
0
LINE
8
BLACK
6
CONTINUOUS
10
7.31982
20
-3.55276
11
7.32283
21
-3.55217
0
LINE
8
BLACK
6
CONTINUOUS
10
7.32283
20
-3.55217
11
7.36417
21
-3.55217
0
LINE
8
BLACK
6
CONTINUOUS
10
7.36417
20
-3.55217
11
7.36719
21
-3.55276
0
LINE
8
BLACK
6
CONTINUOUS
10
7.48333
20
-3.55276
11
7.48588
21
-3.55447
0
LINE
8
BLACK
6
CONTINUOUS
10
7.48588
20
-3.55447
11
7.48759
21
-3.55703
0
LINE
8
BLACK
6
CONTINUOUS
10
7.48759
20
-3.55703
11
7.48819
21
-3.56004
0
LINE
8
BLACK
6
CONTINUOUS
10
7.48819
20
-3.56004
11
7.48819
21
-3.64665
0
LINE
8
BLACK
6
CONTINUOUS
10
7.48819
20
-3.64665
11
7.48759
21
-3.64967
0
LINE
8
BLACK
6
CONTINUOUS
10
7.48759
20
-3.64967
11
7.48588
21
-3.65222
0
LINE
8
BLACK
6
CONTINUOUS
10
7.48588
20
-3.65222
11
7.48333
21
-3.65393
0
LINE
8
BLACK
6
CONTINUOUS
10
7.48333
20
-3.65393
11
7.48031
21
-3.65453
0
LINE
8
BLACK
6
CONTINUOUS
10
7.48031
20
-3.65453
11
7.43898
21
-3.65453
0
LINE
8
BLACK
6
CONTINUOUS
10
7.43898
20
-3.65453
11
7.43596
21
-3.65393
0
LINE
8
BLACK
6
CONTINUOUS
10
7.43596
20
-3.65393
11
7.43341
21
-3.65222
0
LINE
8
BLACK
6
CONTINUOUS
10
7.43341
20
-3.65222
11
7.4317
21
-3.64967
0
LINE
8
BLACK
6
CONTINUOUS
10
7.4317
20
-3.64967
11
7.4311
21
-3.64665
0
LINE
8
BLACK
6
CONTINUOUS
10
7.4311
20
-3.64665
11
7.4311
21
-3.56004
0
LINE
8
BLACK
6
CONTINUOUS
10
7.4311
20
-3.56004
11
7.4317
21
-3.55703
0
LINE
8
BLACK
6
CONTINUOUS
10
7.4317
20
-3.55703
11
7.43341
21
-3.55447
0
LINE
8
BLACK
6
CONTINUOUS
10
7.43341
20
-3.55447
11
7.43596
21
-3.55276
0
LINE
8
BLACK
6
CONTINUOUS
10
7.43596
20
-3.55276
11
7.43898
21
-3.55217
0
LINE
8
BLACK
6
CONTINUOUS
10
7.43898
20
-3.55217
11
7.48031
21
-3.55217
0
LINE
8
BLACK
6
CONTINUOUS
10
7.48031
20
-3.55217
11
7.48333
21
-3.55276
0
LINE
8
BLACK
6
CONTINUOUS
10
5.77317
20
-3.54028
11
5.77573
21
-3.54199
0
LINE
8
BLACK
6
CONTINUOUS
10
5.77573
20
-3.54199
11
5.77743
21
-3.54455
0
LINE
8
BLACK
6
CONTINUOUS
10
5.77743
20
-3.54455
11
5.77803
21
-3.54756
0
LINE
8
BLACK
6
CONTINUOUS
10
5.77803
20
-3.54756
11
5.77803
21
-3.60756
0
LINE
8
BLACK
6
CONTINUOUS
10
5.77803
20
-3.60756
11
5.77743
21
-3.61057
0
LINE
8
BLACK
6
CONTINUOUS
10
5.77743
20
-3.61057
11
5.77573
21
-3.61313
0
LINE
8
BLACK
6
CONTINUOUS
10
5.77573
20
-3.61313
11
5.77317
21
-3.61483
0
LINE
8
BLACK
6
CONTINUOUS
10
5.77317
20
-3.61483
11
5.77016
21
-3.61543
0
LINE
8
BLACK
6
CONTINUOUS
10
5.77016
20
-3.61543
11
5.71016
21
-3.61543
0
LINE
8
BLACK
6
CONTINUOUS
10
5.71016
20
-3.61543
11
5.70714
21
-3.61483
0
LINE
8
BLACK
6
CONTINUOUS
10
5.70714
20
-3.61483
11
5.70459
21
-3.61313
0
LINE
8
BLACK
6
CONTINUOUS
10
5.70459
20
-3.61313
11
5.70288
21
-3.61057
0
LINE
8
BLACK
6
CONTINUOUS
10
5.70288
20
-3.61057
11
5.70228
21
-3.60756
0
LINE
8
BLACK
6
CONTINUOUS
10
5.70228
20
-3.60756
11
5.70228
21
-3.54756
0
LINE
8
BLACK
6
CONTINUOUS
10
5.70228
20
-3.54756
11
5.70288
21
-3.54455
0
LINE
8
BLACK
6
CONTINUOUS
10
5.70288
20
-3.54455
11
5.70459
21
-3.54199
0
LINE
8
BLACK
6
CONTINUOUS
10
5.70459
20
-3.54199
11
5.70714
21
-3.54028
0
LINE
8
BLACK
6
CONTINUOUS
10
5.70714
20
-3.54028
11
5.71016
21
-3.53969
0
LINE
8
BLACK
6
CONTINUOUS
10
5.71016
20
-3.53969
11
5.77016
21
-3.53969
0
LINE
8
BLACK
6
CONTINUOUS
10
5.77016
20
-3.53969
11
5.77317
21
-3.54028
0
LINE
8
BLACK
6
CONTINUOUS
10
6.63341
20
-3.54028
11
6.63596
21
-3.54199
0
LINE
8
BLACK
6
CONTINUOUS
10
6.63596
20
-3.54199
11
6.63767
21
-3.54455
0
LINE
8
BLACK
6
CONTINUOUS
10
6.63767
20
-3.54455
11
6.63827
21
-3.54756
0
LINE
8
BLACK
6
CONTINUOUS
10
6.63827
20
-3.54756
11
6.63827
21
-3.60756
0
LINE
8
BLACK
6
CONTINUOUS
10
6.63827
20
-3.60756
11
6.63767
21
-3.61057
0
LINE
8
BLACK
6
CONTINUOUS
10
6.63767
20
-3.61057
11
6.63596
21
-3.61313
0
LINE
8
BLACK
6
CONTINUOUS
10
6.63596
20
-3.61313
11
6.63341
21
-3.61483
0
LINE
8
BLACK
6
CONTINUOUS
10
6.63341
20
-3.61483
11
6.63039
21
-3.61543
0
LINE
8
BLACK
6
CONTINUOUS
10
6.63039
20
-3.61543
11
6.57039
21
-3.61543
0
LINE
8
BLACK
6
CONTINUOUS
10
6.57039
20
-3.61543
11
6.56738
21
-3.61483
0
LINE
8
BLACK
6
CONTINUOUS
10
6.56738
20
-3.61483
11
6.56483
21
-3.61313
0
LINE
8
BLACK
6
CONTINUOUS
10
6.56483
20
-3.61313
11
6.56312
21
-3.61057
0
LINE
8
BLACK
6
CONTINUOUS
10
6.56312
20
-3.61057
11
6.56252
21
-3.60756
0
LINE
8
BLACK
6
CONTINUOUS
10
6.56252
20
-3.60756
11
6.56252
21
-3.54756
0
LINE
8
BLACK
6
CONTINUOUS
10
6.56252
20
-3.54756
11
6.56312
21
-3.54455
0
LINE
8
BLACK
6
CONTINUOUS
10
6.56312
20
-3.54455
11
6.56483
21
-3.54199
0
LINE
8
BLACK
6
CONTINUOUS
10
6.56483
20
-3.54199
11
6.56738
21
-3.54028
0
LINE
8
BLACK
6
CONTINUOUS
10
6.56738
20
-3.54028
11
6.57039
21
-3.53969
0
LINE
8
BLACK
6
CONTINUOUS
10
6.57039
20
-3.53969
11
6.63039
21
-3.53969
0
LINE
8
BLACK
6
CONTINUOUS
10
6.63039
20
-3.53969
11
6.63341
21
-3.54028
0
LINE
8
BLACK
6
CONTINUOUS
10
5.87356
20
-3.54028
11
5.87612
21
-3.54199
0
LINE
8
BLACK
6
CONTINUOUS
10
5.87612
20
-3.54199
11
5.87783
21
-3.54455
0
LINE
8
BLACK
6
CONTINUOUS
10
5.87783
20
-3.54455
11
5.87843
21
-3.54756
0
LINE
8
BLACK
6
CONTINUOUS
10
5.87843
20
-3.54756
11
5.87843
21
-3.60756
0
LINE
8
BLACK
6
CONTINUOUS
10
5.87843
20
-3.60756
11
5.87783
21
-3.61057
0
LINE
8
BLACK
6
CONTINUOUS
10
5.87783
20
-3.61057
11
5.87612
21
-3.61313
0
LINE
8
BLACK
6
CONTINUOUS
10
5.87612
20
-3.61313
11
5.87356
21
-3.61483
0
LINE
8
BLACK
6
CONTINUOUS
10
5.87356
20
-3.61483
11
5.87055
21
-3.61543
0
LINE
8
BLACK
6
CONTINUOUS
10
5.87055
20
-3.61543
11
5.81055
21
-3.61543
0
LINE
8
BLACK
6
CONTINUOUS
10
5.81055
20
-3.61543
11
5.80754
21
-3.61483
0
LINE
8
BLACK
6
CONTINUOUS
10
5.80754
20
-3.61483
11
5.80498
21
-3.61313
0
LINE
8
BLACK
6
CONTINUOUS
10
5.80498
20
-3.61313
11
5.80328
21
-3.61057
0
LINE
8
BLACK
6
CONTINUOUS
10
5.80328
20
-3.61057
11
5.80268
21
-3.60756
0
LINE
8
BLACK
6
CONTINUOUS
10
5.80268
20
-3.60756
11
5.80268
21
-3.54756
0
LINE
8
BLACK
6
CONTINUOUS
10
5.80268
20
-3.54756
11
5.80328
21
-3.54455
0
LINE
8
BLACK
6
CONTINUOUS
10
5.80328
20
-3.54455
11
5.80498
21
-3.54199
0
LINE
8
BLACK
6
CONTINUOUS
10
5.80498
20
-3.54199
11
5.80754
21
-3.54028
0
LINE
8
BLACK
6
CONTINUOUS
10
5.80754
20
-3.54028
11
5.81055
21
-3.53969
0
LINE
8
BLACK
6
CONTINUOUS
10
5.81055
20
-3.53969
11
5.87055
21
-3.53969
0
LINE
8
BLACK
6
CONTINUOUS
10
5.87055
20
-3.53969
11
5.87356
21
-3.54028
0
LINE
8
BLACK
6
CONTINUOUS
10
5.97396
20
-3.54028
11
5.97651
21
-3.54199
0
LINE
8
BLACK
6
CONTINUOUS
10
5.97651
20
-3.54199
11
5.97822
21
-3.54455
0
LINE
8
BLACK
6
CONTINUOUS
10
5.97822
20
-3.54455
11
5.97882
21
-3.54756
0
LINE
8
BLACK
6
CONTINUOUS
10
5.97882
20
-3.54756
11
5.97882
21
-3.60756
0
LINE
8
BLACK
6
CONTINUOUS
10
5.97882
20
-3.60756
11
5.97822
21
-3.61057
0
LINE
8
BLACK
6
CONTINUOUS
10
5.97822
20
-3.61057
11
5.97651
21
-3.61313
0
LINE
8
BLACK
6
CONTINUOUS
10
5.97651
20
-3.61313
11
5.97396
21
-3.61483
0
LINE
8
BLACK
6
CONTINUOUS
10
5.97396
20
-3.61483
11
5.97094
21
-3.61543
0
LINE
8
BLACK
6
CONTINUOUS
10
5.97094
20
-3.61543
11
5.91094
21
-3.61543
0
LINE
8
BLACK
6
CONTINUOUS
10
5.91094
20
-3.61543
11
5.90793
21
-3.61483
0
LINE
8
BLACK
6
CONTINUOUS
10
5.90793
20
-3.61483
11
5.90538
21
-3.61313
0
LINE
8
BLACK
6
CONTINUOUS
10
5.90538
20
-3.61313
11
5.90367
21
-3.61057
0
LINE
8
BLACK
6
CONTINUOUS
10
5.90367
20
-3.61057
11
5.90307
21
-3.60756
0
LINE
8
BLACK
6
CONTINUOUS
10
5.90307
20
-3.60756
11
5.90307
21
-3.54756
0
LINE
8
BLACK
6
CONTINUOUS
10
5.90307
20
-3.54756
11
5.90367
21
-3.54455
0
LINE
8
BLACK
6
CONTINUOUS
10
5.90367
20
-3.54455
11
5.90538
21
-3.54199
0
LINE
8
BLACK
6
CONTINUOUS
10
5.90538
20
-3.54199
11
5.90793
21
-3.54028
0
LINE
8
BLACK
6
CONTINUOUS
10
5.90793
20
-3.54028
11
5.91094
21
-3.53969
0
LINE
8
BLACK
6
CONTINUOUS
10
5.91094
20
-3.53969
11
5.97094
21
-3.53969
0
LINE
8
BLACK
6
CONTINUOUS
10
5.97094
20
-3.53969
11
5.97396
21
-3.54028
0
LINE
8
BLACK
6
CONTINUOUS
10
6.33223
20
-3.54028
11
6.33478
21
-3.54199
0
LINE
8
BLACK
6
CONTINUOUS
10
6.33478
20
-3.54199
11
6.33649
21
-3.54455
0
LINE
8
BLACK
6
CONTINUOUS
10
6.33649
20
-3.54455
11
6.33709
21
-3.54756
0
LINE
8
BLACK
6
CONTINUOUS
10
6.33709
20
-3.54756
11
6.33709
21
-3.60756
0
LINE
8
BLACK
6
CONTINUOUS
10
6.33709
20
-3.60756
11
6.33649
21
-3.61057
0
LINE
8
BLACK
6
CONTINUOUS
10
6.33649
20
-3.61057
11
6.33478
21
-3.61313
0
LINE
8
BLACK
6
CONTINUOUS
10
6.33478
20
-3.61313
11
6.33223
21
-3.61483
0
LINE
8
BLACK
6
CONTINUOUS
10
6.33223
20
-3.61483
11
6.32921
21
-3.61543
0
LINE
8
BLACK
6
CONTINUOUS
10
6.32921
20
-3.61543
11
6.26921
21
-3.61543
0
LINE
8
BLACK
6
CONTINUOUS
10
6.26921
20
-3.61543
11
6.2662
21
-3.61483
0
LINE
8
BLACK
6
CONTINUOUS
10
6.2662
20
-3.61483
11
6.26364
21
-3.61313
0
LINE
8
BLACK
6
CONTINUOUS
10
6.26364
20
-3.61313
11
6.26194
21
-3.61057
0
LINE
8
BLACK
6
CONTINUOUS
10
6.26194
20
-3.61057
11
6.26134
21
-3.60756
0
LINE
8
BLACK
6
CONTINUOUS
10
6.26134
20
-3.60756
11
6.26134
21
-3.54756
0
LINE
8
BLACK
6
CONTINUOUS
10
6.26134
20
-3.54756
11
6.26194
21
-3.54455
0
LINE
8
BLACK
6
CONTINUOUS
10
6.26194
20
-3.54455
11
6.26364
21
-3.54199
0
LINE
8
BLACK
6
CONTINUOUS
10
6.26364
20
-3.54199
11
6.2662
21
-3.54028
0
LINE
8
BLACK
6
CONTINUOUS
10
6.2662
20
-3.54028
11
6.26921
21
-3.53969
0
LINE
8
BLACK
6
CONTINUOUS
10
6.26921
20
-3.53969
11
6.32921
21
-3.53969
0
LINE
8
BLACK
6
CONTINUOUS
10
6.32921
20
-3.53969
11
6.33223
21
-3.54028
0
LINE
8
BLACK
6
CONTINUOUS
10
6.07435
20
-3.54028
11
6.07691
21
-3.54199
0
LINE
8
BLACK
6
CONTINUOUS
10
6.07691
20
-3.54199
11
6.07861
21
-3.54455
0
LINE
8
BLACK
6
CONTINUOUS
10
6.07861
20
-3.54455
11
6.07921
21
-3.54756
0
LINE
8
BLACK
6
CONTINUOUS
10
6.07921
20
-3.54756
11
6.07921
21
-3.60756
0
LINE
8
BLACK
6
CONTINUOUS
10
6.07921
20
-3.60756
11
6.07861
21
-3.61057
0
LINE
8
BLACK
6
CONTINUOUS
10
6.07861
20
-3.61057
11
6.07691
21
-3.61313
0
LINE
8
BLACK
6
CONTINUOUS
10
6.07691
20
-3.61313
11
6.07435
21
-3.61483
0
LINE
8
BLACK
6
CONTINUOUS
10
6.07435
20
-3.61483
11
6.07134
21
-3.61543
0
LINE
8
BLACK
6
CONTINUOUS
10
6.07134
20
-3.61543
11
6.01134
21
-3.61543
0
LINE
8
BLACK
6
CONTINUOUS
10
6.01134
20
-3.61543
11
6.00833
21
-3.61483
0
LINE
8
BLACK
6
CONTINUOUS
10
6.00833
20
-3.61483
11
6.00577
21
-3.61313
0
LINE
8
BLACK
6
CONTINUOUS
10
6.00577
20
-3.61313
11
6.00406
21
-3.61057
0
LINE
8
BLACK
6
CONTINUOUS
10
6.00406
20
-3.61057
11
6.00346
21
-3.60756
0
LINE
8
BLACK
6
CONTINUOUS
10
6.00346
20
-3.60756
11
6.00346
21
-3.54756
0
LINE
8
BLACK
6
CONTINUOUS
10
6.00346
20
-3.54756
11
6.00406
21
-3.54455
0
LINE
8
BLACK
6
CONTINUOUS
10
6.00406
20
-3.54455
11
6.00577
21
-3.54199
0
LINE
8
BLACK
6
CONTINUOUS
10
6.00577
20
-3.54199
11
6.00833
21
-3.54028
0
LINE
8
BLACK
6
CONTINUOUS
10
6.00833
20
-3.54028
11
6.01134
21
-3.53969
0
LINE
8
BLACK
6
CONTINUOUS
10
6.01134
20
-3.53969
11
6.07134
21
-3.53969
0
LINE
8
BLACK
6
CONTINUOUS
10
6.07134
20
-3.53969
11
6.07435
21
-3.54028
0
LINE
8
BLACK
6
CONTINUOUS
10
6.43262
20
-3.54028
11
6.43517
21
-3.54199
0
LINE
8
BLACK
6
CONTINUOUS
10
6.43517
20
-3.54199
11
6.43688
21
-3.54455
0
LINE
8
BLACK
6
CONTINUOUS
10
6.43688
20
-3.54455
11
6.43748
21
-3.54756
0
LINE
8
BLACK
6
CONTINUOUS
10
6.43748
20
-3.54756
11
6.43748
21
-3.60756
0
LINE
8
BLACK
6
CONTINUOUS
10
6.43748
20
-3.60756
11
6.43688
21
-3.61057
0
LINE
8
BLACK
6
CONTINUOUS
10
6.43688
20
-3.61057
11
6.43517
21
-3.61313
0
LINE
8
BLACK
6
CONTINUOUS
10
6.43517
20
-3.61313
11
6.43262
21
-3.61483
0
LINE
8
BLACK
6
CONTINUOUS
10
6.43262
20
-3.61483
11
6.42961
21
-3.61543
0
LINE
8
BLACK
6
CONTINUOUS
10
6.42961
20
-3.61543
11
6.36961
21
-3.61543
0
LINE
8
BLACK
6
CONTINUOUS
10
6.36961
20
-3.61543
11
6.36659
21
-3.61483
0
LINE
8
BLACK
6
CONTINUOUS
10
6.36659
20
-3.61483
11
6.36404
21
-3.61313
0
LINE
8
BLACK
6
CONTINUOUS
10
6.36404
20
-3.61313
11
6.36233
21
-3.61057
0
LINE
8
BLACK
6
CONTINUOUS
10
6.36233
20
-3.61057
11
6.36173
21
-3.60756
0
LINE
8
BLACK
6
CONTINUOUS
10
6.36173
20
-3.60756
11
6.36173
21
-3.54756
0
LINE
8
BLACK
6
CONTINUOUS
10
6.36173
20
-3.54756
11
6.36233
21
-3.54455
0
LINE
8
BLACK
6
CONTINUOUS
10
6.36233
20
-3.54455
11
6.36404
21
-3.54199
0
LINE
8
BLACK
6
CONTINUOUS
10
6.36404
20
-3.54199
11
6.36659
21
-3.54028
0
LINE
8
BLACK
6
CONTINUOUS
10
6.36659
20
-3.54028
11
6.36961
21
-3.53969
0
LINE
8
BLACK
6
CONTINUOUS
10
6.36961
20
-3.53969
11
6.42961
21
-3.53969
0
LINE
8
BLACK
6
CONTINUOUS
10
6.42961
20
-3.53969
11
6.43262
21
-3.54028
0
LINE
8
BLACK
6
CONTINUOUS
10
6.53301
20
-3.54028
11
6.53557
21
-3.54199
0
LINE
8
BLACK
6
CONTINUOUS
10
6.53557
20
-3.54199
11
6.53727
21
-3.54455
0
LINE
8
BLACK
6
CONTINUOUS
10
6.53727
20
-3.54455
11
6.53787
21
-3.54756
0
LINE
8
BLACK
6
CONTINUOUS
10
6.53787
20
-3.54756
11
6.53787
21
-3.60756
0
LINE
8
BLACK
6
CONTINUOUS
10
6.53787
20
-3.60756
11
6.53727
21
-3.61057
0
LINE
8
BLACK
6
CONTINUOUS
10
6.53727
20
-3.61057
11
6.53557
21
-3.61313
0
LINE
8
BLACK
6
CONTINUOUS
10
6.53557
20
-3.61313
11
6.53301
21
-3.61483
0
LINE
8
BLACK
6
CONTINUOUS
10
6.53301
20
-3.61483
11
6.53
21
-3.61543
0
LINE
8
BLACK
6
CONTINUOUS
10
6.53
20
-3.61543
11
6.47
21
-3.61543
0
LINE
8
BLACK
6
CONTINUOUS
10
6.47
20
-3.61543
11
6.46699
21
-3.61483
0
LINE
8
BLACK
6
CONTINUOUS
10
6.46699
20
-3.61483
11
6.46443
21
-3.61313
0
LINE
8
BLACK
6
CONTINUOUS
10
6.46443
20
-3.61313
11
6.46273
21
-3.61057
0
LINE
8
BLACK
6
CONTINUOUS
10
6.46273
20
-3.61057
11
6.46213
21
-3.60756
0
LINE
8
BLACK
6
CONTINUOUS
10
6.46213
20
-3.60756
11
6.46213
21
-3.54756
0
LINE
8
BLACK
6
CONTINUOUS
10
6.46213
20
-3.54756
11
6.46273
21
-3.54455
0
LINE
8
BLACK
6
CONTINUOUS
10
6.46273
20
-3.54455
11
6.46443
21
-3.54199
0
LINE
8
BLACK
6
CONTINUOUS
10
6.46443
20
-3.54199
11
6.46699
21
-3.54028
0
LINE
8
BLACK
6
CONTINUOUS
10
6.46699
20
-3.54028
11
6.47
21
-3.53969
0
LINE
8
BLACK
6
CONTINUOUS
10
6.47
20
-3.53969
11
6.53
21
-3.53969
0
LINE
8
BLACK
6
CONTINUOUS
10
6.53
20
-3.53969
11
6.53301
21
-3.54028
0
LINE
8
BLACK
6
CONTINUOUS
10
6.17475
20
-3.54028
11
6.1773
21
-3.54199
0
LINE
8
BLACK
6
CONTINUOUS
10
6.1773
20
-3.54199
11
6.17901
21
-3.54455
0
LINE
8
BLACK
6
CONTINUOUS
10
6.17901
20
-3.54455
11
6.17961
21
-3.54756
0
LINE
8
BLACK
6
CONTINUOUS
10
6.17961
20
-3.54756
11
6.17961
21
-3.60756
0
LINE
8
BLACK
6
CONTINUOUS
10
6.17961
20
-3.60756
11
6.17901
21
-3.61057
0
LINE
8
BLACK
6
CONTINUOUS
10
6.17901
20
-3.61057
11
6.1773
21
-3.61313
0
LINE
8
BLACK
6
CONTINUOUS
10
6.1773
20
-3.61313
11
6.17475
21
-3.61483
0
LINE
8
BLACK
6
CONTINUOUS
10
6.17475
20
-3.61483
11
6.17173
21
-3.61543
0
LINE
8
BLACK
6
CONTINUOUS
10
6.17173
20
-3.61543
11
6.11173
21
-3.61543
0
LINE
8
BLACK
6
CONTINUOUS
10
6.11173
20
-3.61543
11
6.10872
21
-3.61483
0
LINE
8
BLACK
6
CONTINUOUS
10
6.10872
20
-3.61483
11
6.10616
21
-3.61313
0
LINE
8
BLACK
6
CONTINUOUS
10
6.10616
20
-3.61313
11
6.10446
21
-3.61057
0
LINE
8
BLACK
6
CONTINUOUS
10
6.10446
20
-3.61057
11
6.10386
21
-3.60756
0
LINE
8
BLACK
6
CONTINUOUS
10
6.10386
20
-3.60756
11
6.10386
21
-3.54756
0
LINE
8
BLACK
6
CONTINUOUS
10
6.10386
20
-3.54756
11
6.10446
21
-3.54455
0
LINE
8
BLACK
6
CONTINUOUS
10
6.10446
20
-3.54455
11
6.10616
21
-3.54199
0
LINE
8
BLACK
6
CONTINUOUS
10
6.10616
20
-3.54199
11
6.10872
21
-3.54028
0
LINE
8
BLACK
6
CONTINUOUS
10
6.10872
20
-3.54028
11
6.11173
21
-3.53969
0
LINE
8
BLACK
6
CONTINUOUS
10
6.11173
20
-3.53969
11
6.17173
21
-3.53969
0
LINE
8
BLACK
6
CONTINUOUS
10
6.17173
20
-3.53969
11
6.17475
21
-3.54028
0
LINE
8
BLACK
6
CONTINUOUS
10
5.54758
20
-3.48477
11
5.55013
21
-3.48648
0
LINE
8
BLACK
6
CONTINUOUS
10
5.55013
20
-3.48648
11
5.55184
21
-3.48903
0
LINE
8
BLACK
6
CONTINUOUS
10
5.55184
20
-3.48903
11
5.55244
21
-3.49205
0
LINE
8
BLACK
6
CONTINUOUS
10
5.55244
20
-3.49205
11
5.55244
21
-3.55205
0
LINE
8
BLACK
6
CONTINUOUS
10
5.55244
20
-3.55205
11
5.55184
21
-3.55506
0
LINE
8
BLACK
6
CONTINUOUS
10
5.55184
20
-3.55506
11
5.55013
21
-3.55761
0
LINE
8
BLACK
6
CONTINUOUS
10
5.55013
20
-3.55761
11
5.54758
21
-3.55932
0
LINE
8
BLACK
6
CONTINUOUS
10
5.54758
20
-3.55932
11
5.54457
21
-3.55992
0
LINE
8
BLACK
6
CONTINUOUS
10
5.54457
20
-3.55992
11
5.48457
21
-3.55992
0
LINE
8
BLACK
6
CONTINUOUS
10
5.48457
20
-3.55992
11
5.48155
21
-3.55932
0
LINE
8
BLACK
6
CONTINUOUS
10
5.48155
20
-3.55932
11
5.479
21
-3.55761
0
LINE
8
BLACK
6
CONTINUOUS
10
5.479
20
-3.55761
11
5.47729
21
-3.55506
0
LINE
8
BLACK
6
CONTINUOUS
10
5.47729
20
-3.55506
11
5.47669
21
-3.55205
0
LINE
8
BLACK
6
CONTINUOUS
10
5.47669
20
-3.55205
11
5.47669
21
-3.49205
0
LINE
8
BLACK
6
CONTINUOUS
10
5.47669
20
-3.49205
11
5.47729
21
-3.48903
0
LINE
8
BLACK
6
CONTINUOUS
10
5.47729
20
-3.48903
11
5.479
21
-3.48648
0
LINE
8
BLACK
6
CONTINUOUS
10
5.479
20
-3.48648
11
5.48155
21
-3.48477
0
LINE
8
BLACK
6
CONTINUOUS
10
5.48155
20
-3.48477
11
5.48457
21
-3.48417
0
LINE
8
BLACK
6
CONTINUOUS
10
5.48457
20
-3.48417
11
5.54457
21
-3.48417
0
LINE
8
BLACK
6
CONTINUOUS
10
5.54457
20
-3.48417
11
5.54758
21
-3.48477
0
LINE
8
BLACK
6
CONTINUOUS
10
5.44758
20
-3.48477
11
5.45013
21
-3.48648
0
LINE
8
BLACK
6
CONTINUOUS
10
5.45013
20
-3.48648
11
5.45184
21
-3.48903
0
LINE
8
BLACK
6
CONTINUOUS
10
5.45184
20
-3.48903
11
5.45244
21
-3.49205
0
LINE
8
BLACK
6
CONTINUOUS
10
5.45244
20
-3.49205
11
5.45244
21
-3.55205
0
LINE
8
BLACK
6
CONTINUOUS
10
5.45244
20
-3.55205
11
5.45184
21
-3.55506
0
LINE
8
BLACK
6
CONTINUOUS
10
5.45184
20
-3.55506
11
5.45013
21
-3.55761
0
LINE
8
BLACK
6
CONTINUOUS
10
5.45013
20
-3.55761
11
5.44758
21
-3.55932
0
LINE
8
BLACK
6
CONTINUOUS
10
5.44758
20
-3.55932
11
5.44457
21
-3.55992
0
LINE
8
BLACK
6
CONTINUOUS
10
5.44457
20
-3.55992
11
5.38457
21
-3.55992
0
LINE
8
BLACK
6
CONTINUOUS
10
5.38457
20
-3.55992
11
5.38155
21
-3.55932
0
LINE
8
BLACK
6
CONTINUOUS
10
5.38155
20
-3.55932
11
5.379
21
-3.55761
0
LINE
8
BLACK
6
CONTINUOUS
10
5.379
20
-3.55761
11
5.37729
21
-3.55506
0
LINE
8
BLACK
6
CONTINUOUS
10
5.37729
20
-3.55506
11
5.37669
21
-3.55205
0
LINE
8
BLACK
6
CONTINUOUS
10
5.37669
20
-3.55205
11
5.37669
21
-3.49205
0
LINE
8
BLACK
6
CONTINUOUS
10
5.37669
20
-3.49205
11
5.37729
21
-3.48903
0
LINE
8
BLACK
6
CONTINUOUS
10
5.37729
20
-3.48903
11
5.379
21
-3.48648
0
LINE
8
BLACK
6
CONTINUOUS
10
5.379
20
-3.48648
11
5.38155
21
-3.48477
0
LINE
8
BLACK
6
CONTINUOUS
10
5.38155
20
-3.48477
11
5.38457
21
-3.48417
0
LINE
8
BLACK
6
CONTINUOUS
10
5.38457
20
-3.48417
11
5.44457
21
-3.48417
0
LINE
8
BLACK
6
CONTINUOUS
10
5.44457
20
-3.48417
11
5.44758
21
-3.48477
0
LINE
8
BLACK
6
CONTINUOUS
10
5.77317
20
-3.44028
11
5.77573
21
-3.44199
0
LINE
8
BLACK
6
CONTINUOUS
10
5.77573
20
-3.44199
11
5.77743
21
-3.44455
0
LINE
8
BLACK
6
CONTINUOUS
10
5.77743
20
-3.44455
11
5.77803
21
-3.44756
0
LINE
8
BLACK
6
CONTINUOUS
10
5.77803
20
-3.44756
11
5.77803
21
-3.50756
0
LINE
8
BLACK
6
CONTINUOUS
10
5.77803
20
-3.50756
11
5.77743
21
-3.51057
0
LINE
8
BLACK
6
CONTINUOUS
10
5.77743
20
-3.51057
11
5.77573
21
-3.51313
0
LINE
8
BLACK
6
CONTINUOUS
10
5.77573
20
-3.51313
11
5.77317
21
-3.51483
0
LINE
8
BLACK
6
CONTINUOUS
10
5.77317
20
-3.51483
11
5.77016
21
-3.51543
0
LINE
8
BLACK
6
CONTINUOUS
10
5.77016
20
-3.51543
11
5.71016
21
-3.51543
0
LINE
8
BLACK
6
CONTINUOUS
10
5.71016
20
-3.51543
11
5.70714
21
-3.51483
0
LINE
8
BLACK
6
CONTINUOUS
10
5.70714
20
-3.51483
11
5.70459
21
-3.51313
0
LINE
8
BLACK
6
CONTINUOUS
10
5.70459
20
-3.51313
11
5.70288
21
-3.51057
0
LINE
8
BLACK
6
CONTINUOUS
10
5.70288
20
-3.51057
11
5.70228
21
-3.50756
0
LINE
8
BLACK
6
CONTINUOUS
10
5.70228
20
-3.50756
11
5.70228
21
-3.44756
0
LINE
8
BLACK
6
CONTINUOUS
10
5.70228
20
-3.44756
11
5.70288
21
-3.44455
0
LINE
8
BLACK
6
CONTINUOUS
10
5.70288
20
-3.44455
11
5.70459
21
-3.44199
0
LINE
8
BLACK
6
CONTINUOUS
10
5.70459
20
-3.44199
11
5.70714
21
-3.44028
0
LINE
8
BLACK
6
CONTINUOUS
10
5.70714
20
-3.44028
11
5.71016
21
-3.43969
0
LINE
8
BLACK
6
CONTINUOUS
10
5.71016
20
-3.43969
11
5.77016
21
-3.43969
0
LINE
8
BLACK
6
CONTINUOUS
10
5.77016
20
-3.43969
11
5.77317
21
-3.44028
0
LINE
8
BLACK
6
CONTINUOUS
10
6.33223
20
-3.44028
11
6.33478
21
-3.44199
0
LINE
8
BLACK
6
CONTINUOUS
10
6.33478
20
-3.44199
11
6.33649
21
-3.44455
0
LINE
8
BLACK
6
CONTINUOUS
10
6.33649
20
-3.44455
11
6.33709
21
-3.44756
0
LINE
8
BLACK
6
CONTINUOUS
10
6.33709
20
-3.44756
11
6.33709
21
-3.50756
0
LINE
8
BLACK
6
CONTINUOUS
10
6.33709
20
-3.50756
11
6.33649
21
-3.51057
0
LINE
8
BLACK
6
CONTINUOUS
10
6.33649
20
-3.51057
11
6.33478
21
-3.51313
0
LINE
8
BLACK
6
CONTINUOUS
10
6.33478
20
-3.51313
11
6.33223
21
-3.51483
0
LINE
8
BLACK
6
CONTINUOUS
10
6.33223
20
-3.51483
11
6.32921
21
-3.51543
0
LINE
8
BLACK
6
CONTINUOUS
10
6.32921
20
-3.51543
11
6.26921
21
-3.51543
0
LINE
8
BLACK
6
CONTINUOUS
10
6.26921
20
-3.51543
11
6.2662
21
-3.51483
0
LINE
8
BLACK
6
CONTINUOUS
10
6.2662
20
-3.51483
11
6.26364
21
-3.51313
0
LINE
8
BLACK
6
CONTINUOUS
10
6.26364
20
-3.51313
11
6.26194
21
-3.51057
0
LINE
8
BLACK
6
CONTINUOUS
10
6.26194
20
-3.51057
11
6.26134
21
-3.50756
0
LINE
8
BLACK
6
CONTINUOUS
10
6.26134
20
-3.50756
11
6.26134
21
-3.44756
0
LINE
8
BLACK
6
CONTINUOUS
10
6.26134
20
-3.44756
11
6.26194
21
-3.44455
0
LINE
8
BLACK
6
CONTINUOUS
10
6.26194
20
-3.44455
11
6.26364
21
-3.44199
0
LINE
8
BLACK
6
CONTINUOUS
10
6.26364
20
-3.44199
11
6.2662
21
-3.44028
0
LINE
8
BLACK
6
CONTINUOUS
10
6.2662
20
-3.44028
11
6.26921
21
-3.43969
0
LINE
8
BLACK
6
CONTINUOUS
10
6.26921
20
-3.43969
11
6.32921
21
-3.43969
0
LINE
8
BLACK
6
CONTINUOUS
10
6.32921
20
-3.43969
11
6.33223
21
-3.44028
0
LINE
8
BLACK
6
CONTINUOUS
10
6.53301
20
-3.44028
11
6.53557
21
-3.44199
0
LINE
8
BLACK
6
CONTINUOUS
10
6.53557
20
-3.44199
11
6.53727
21
-3.44455
0
LINE
8
BLACK
6
CONTINUOUS
10
6.53727
20
-3.44455
11
6.53787
21
-3.44756
0
LINE
8
BLACK
6
CONTINUOUS
10
6.53787
20
-3.44756
11
6.53787
21
-3.50756
0
LINE
8
BLACK
6
CONTINUOUS
10
6.53787
20
-3.50756
11
6.53727
21
-3.51057
0
LINE
8
BLACK
6
CONTINUOUS
10
6.53727
20
-3.51057
11
6.53557
21
-3.51313
0
LINE
8
BLACK
6
CONTINUOUS
10
6.53557
20
-3.51313
11
6.53301
21
-3.51483
0
LINE
8
BLACK
6
CONTINUOUS
10
6.53301
20
-3.51483
11
6.53
21
-3.51543
0
LINE
8
BLACK
6
CONTINUOUS
10
6.53
20
-3.51543
11
6.47
21
-3.51543
0
LINE
8
BLACK
6
CONTINUOUS
10
6.47
20
-3.51543
11
6.46699
21
-3.51483
0
LINE
8
BLACK
6
CONTINUOUS
10
6.46699
20
-3.51483
11
6.46443
21
-3.51313
0
LINE
8
BLACK
6
CONTINUOUS
10
6.46443
20
-3.51313
11
6.46273
21
-3.51057
0
LINE
8
BLACK
6
CONTINUOUS
10
6.46273
20
-3.51057
11
6.46213
21
-3.50756
0
LINE
8
BLACK
6
CONTINUOUS
10
6.46213
20
-3.50756
11
6.46213
21
-3.44756
0
LINE
8
BLACK
6
CONTINUOUS
10
6.46213
20
-3.44756
11
6.46273
21
-3.44455
0
LINE
8
BLACK
6
CONTINUOUS
10
6.46273
20
-3.44455
11
6.46443
21
-3.44199
0
LINE
8
BLACK
6
CONTINUOUS
10
6.46443
20
-3.44199
11
6.46699
21
-3.44028
0
LINE
8
BLACK
6
CONTINUOUS
10
6.46699
20
-3.44028
11
6.47
21
-3.43969
0
LINE
8
BLACK
6
CONTINUOUS
10
6.47
20
-3.43969
11
6.53
21
-3.43969
0
LINE
8
BLACK
6
CONTINUOUS
10
6.53
20
-3.43969
11
6.53301
21
-3.44028
0
LINE
8
BLACK
6
CONTINUOUS
10
6.17475
20
-3.44028
11
6.1773
21
-3.44199
0
LINE
8
BLACK
6
CONTINUOUS
10
6.1773
20
-3.44199
11
6.17901
21
-3.44455
0
LINE
8
BLACK
6
CONTINUOUS
10
6.17901
20
-3.44455
11
6.17961
21
-3.44756
0
LINE
8
BLACK
6
CONTINUOUS
10
6.17961
20
-3.44756
11
6.17961
21
-3.50756
0
LINE
8
BLACK
6
CONTINUOUS
10
6.17961
20
-3.50756
11
6.17901
21
-3.51057
0
LINE
8
BLACK
6
CONTINUOUS
10
6.17901
20
-3.51057
11
6.1773
21
-3.51313
0
LINE
8
BLACK
6
CONTINUOUS
10
6.1773
20
-3.51313
11
6.17475
21
-3.51483
0
LINE
8
BLACK
6
CONTINUOUS
10
6.17475
20
-3.51483
11
6.17173
21
-3.51543
0
LINE
8
BLACK
6
CONTINUOUS
10
6.17173
20
-3.51543
11
6.11173
21
-3.51543
0
LINE
8
BLACK
6
CONTINUOUS
10
6.11173
20
-3.51543
11
6.10872
21
-3.51483
0
LINE
8
BLACK
6
CONTINUOUS
10
6.10872
20
-3.51483
11
6.10616
21
-3.51313
0
LINE
8
BLACK
6
CONTINUOUS
10
6.10616
20
-3.51313
11
6.10446
21
-3.51057
0
LINE
8
BLACK
6
CONTINUOUS
10
6.10446
20
-3.51057
11
6.10386
21
-3.50756
0
LINE
8
BLACK
6
CONTINUOUS
10
6.10386
20
-3.50756
11
6.10386
21
-3.44756
0
LINE
8
BLACK
6
CONTINUOUS
10
6.10386
20
-3.44756
11
6.10446
21
-3.44455
0
LINE
8
BLACK
6
CONTINUOUS
10
6.10446
20
-3.44455
11
6.10616
21
-3.44199
0
LINE
8
BLACK
6
CONTINUOUS
10
6.10616
20
-3.44199
11
6.10872
21
-3.44028
0
LINE
8
BLACK
6
CONTINUOUS
10
6.10872
20
-3.44028
11
6.11173
21
-3.43969
0
LINE
8
BLACK
6
CONTINUOUS
10
6.11173
20
-3.43969
11
6.17173
21
-3.43969
0
LINE
8
BLACK
6
CONTINUOUS
10
6.17173
20
-3.43969
11
6.17475
21
-3.44028
0
LINE
8
BLACK
6
CONTINUOUS
10
6.43262
20
-3.44028
11
6.43517
21
-3.44199
0
LINE
8
BLACK
6
CONTINUOUS
10
6.43517
20
-3.44199
11
6.43688
21
-3.44455
0
LINE
8
BLACK
6
CONTINUOUS
10
6.43688
20
-3.44455
11
6.43748
21
-3.44756
0
LINE
8
BLACK
6
CONTINUOUS
10
6.43748
20
-3.44756
11
6.43748
21
-3.50756
0
LINE
8
BLACK
6
CONTINUOUS
10
6.43748
20
-3.50756
11
6.43688
21
-3.51057
0
LINE
8
BLACK
6
CONTINUOUS
10
6.43688
20
-3.51057
11
6.43517
21
-3.51313
0
LINE
8
BLACK
6
CONTINUOUS
10
6.43517
20
-3.51313
11
6.43262
21
-3.51483
0
LINE
8
BLACK
6
CONTINUOUS
10
6.43262
20
-3.51483
11
6.42961
21
-3.51543
0
LINE
8
BLACK
6
CONTINUOUS
10
6.42961
20
-3.51543
11
6.36961
21
-3.51543
0
LINE
8
BLACK
6
CONTINUOUS
10
6.36961
20
-3.51543
11
6.36659
21
-3.51483
0
LINE
8
BLACK
6
CONTINUOUS
10
6.36659
20
-3.51483
11
6.36404
21
-3.51313
0
LINE
8
BLACK
6
CONTINUOUS
10
6.36404
20
-3.51313
11
6.36233
21
-3.51057
0
LINE
8
BLACK
6
CONTINUOUS
10
6.36233
20
-3.51057
11
6.36173
21
-3.50756
0
LINE
8
BLACK
6
CONTINUOUS
10
6.36173
20
-3.50756
11
6.36173
21
-3.44756
0
LINE
8
BLACK
6
CONTINUOUS
10
6.36173
20
-3.44756
11
6.36233
21
-3.44455
0
LINE
8
BLACK
6
CONTINUOUS
10
6.36233
20
-3.44455
11
6.36404
21
-3.44199
0
LINE
8
BLACK
6
CONTINUOUS
10
6.36404
20
-3.44199
11
6.36659
21
-3.44028
0
LINE
8
BLACK
6
CONTINUOUS
10
6.36659
20
-3.44028
11
6.36961
21
-3.43969
0
LINE
8
BLACK
6
CONTINUOUS
10
6.36961
20
-3.43969
11
6.42961
21
-3.43969
0
LINE
8
BLACK
6
CONTINUOUS
10
6.42961
20
-3.43969
11
6.43262
21
-3.44028
0
LINE
8
BLACK
6
CONTINUOUS
10
6.07435
20
-3.44028
11
6.07691
21
-3.44199
0
LINE
8
BLACK
6
CONTINUOUS
10
6.07691
20
-3.44199
11
6.07861
21
-3.44455
0
LINE
8
BLACK
6
CONTINUOUS
10
6.07861
20
-3.44455
11
6.07921
21
-3.44756
0
LINE
8
BLACK
6
CONTINUOUS
10
6.07921
20
-3.44756
11
6.07921
21
-3.50756
0
LINE
8
BLACK
6
CONTINUOUS
10
6.07921
20
-3.50756
11
6.07861
21
-3.51057
0
LINE
8
BLACK
6
CONTINUOUS
10
6.07861
20
-3.51057
11
6.07691
21
-3.51313
0
LINE
8
BLACK
6
CONTINUOUS
10
6.07691
20
-3.51313
11
6.07435
21
-3.51483
0
LINE
8
BLACK
6
CONTINUOUS
10
6.07435
20
-3.51483
11
6.07134
21
-3.51543
0
LINE
8
BLACK
6
CONTINUOUS
10
6.07134
20
-3.51543
11
6.01134
21
-3.51543
0
LINE
8
BLACK
6
CONTINUOUS
10
6.01134
20
-3.51543
11
6.00833
21
-3.51483
0
LINE
8
BLACK
6
CONTINUOUS
10
6.00833
20
-3.51483
11
6.00577
21
-3.51313
0
LINE
8
BLACK
6
CONTINUOUS
10
6.00577
20
-3.51313
11
6.00406
21
-3.51057
0
LINE
8
BLACK
6
CONTINUOUS
10
6.00406
20
-3.51057
11
6.00346
21
-3.50756
0
LINE
8
BLACK
6
CONTINUOUS
10
6.00346
20
-3.50756
11
6.00346
21
-3.44756
0
LINE
8
BLACK
6
CONTINUOUS
10
6.00346
20
-3.44756
11
6.00406
21
-3.44455
0
LINE
8
BLACK
6
CONTINUOUS
10
6.00406
20
-3.44455
11
6.00577
21
-3.44199
0
LINE
8
BLACK
6
CONTINUOUS
10
6.00577
20
-3.44199
11
6.00833
21
-3.44028
0
LINE
8
BLACK
6
CONTINUOUS
10
6.00833
20
-3.44028
11
6.01134
21
-3.43969
0
LINE
8
BLACK
6
CONTINUOUS
10
6.01134
20
-3.43969
11
6.07134
21
-3.43969
0
LINE
8
BLACK
6
CONTINUOUS
10
6.07134
20
-3.43969
11
6.07435
21
-3.44028
0
LINE
8
BLACK
6
CONTINUOUS
10
5.97396
20
-3.44028
11
5.97651
21
-3.44199
0
LINE
8
BLACK
6
CONTINUOUS
10
5.97651
20
-3.44199
11
5.97822
21
-3.44455
0
LINE
8
BLACK
6
CONTINUOUS
10
5.97822
20
-3.44455
11
5.97882
21
-3.44756
0
LINE
8
BLACK
6
CONTINUOUS
10
5.97882
20
-3.44756
11
5.97882
21
-3.50756
0
LINE
8
BLACK
6
CONTINUOUS
10
5.97882
20
-3.50756
11
5.97822
21
-3.51057
0
LINE
8
BLACK
6
CONTINUOUS
10
5.97822
20
-3.51057
11
5.97651
21
-3.51313
0
LINE
8
BLACK
6
CONTINUOUS
10
5.97651
20
-3.51313
11
5.97396
21
-3.51483
0
LINE
8
BLACK
6
CONTINUOUS
10
5.97396
20
-3.51483
11
5.97094
21
-3.51543
0
LINE
8
BLACK
6
CONTINUOUS
10
5.97094
20
-3.51543
11
5.91094
21
-3.51543
0
LINE
8
BLACK
6
CONTINUOUS
10
5.91094
20
-3.51543
11
5.90793
21
-3.51483
0
LINE
8
BLACK
6
CONTINUOUS
10
5.90793
20
-3.51483
11
5.90538
21
-3.51313
0
LINE
8
BLACK
6
CONTINUOUS
10
5.90538
20
-3.51313
11
5.90367
21
-3.51057
0
LINE
8
BLACK
6
CONTINUOUS
10
5.90367
20
-3.51057
11
5.90307
21
-3.50756
0
LINE
8
BLACK
6
CONTINUOUS
10
5.90307
20
-3.50756
11
5.90307
21
-3.44756
0
LINE
8
BLACK
6
CONTINUOUS
10
5.90307
20
-3.44756
11
5.90367
21
-3.44455
0
LINE
8
BLACK
6
CONTINUOUS
10
5.90367
20
-3.44455
11
5.90538
21
-3.44199
0
LINE
8
BLACK
6
CONTINUOUS
10
5.90538
20
-3.44199
11
5.90793
21
-3.44028
0
LINE
8
BLACK
6
CONTINUOUS
10
5.90793
20
-3.44028
11
5.91094
21
-3.43969
0
LINE
8
BLACK
6
CONTINUOUS
10
5.91094
20
-3.43969
11
5.97094
21
-3.43969
0
LINE
8
BLACK
6
CONTINUOUS
10
5.97094
20
-3.43969
11
5.97396
21
-3.44028
0
LINE
8
BLACK
6
CONTINUOUS
10
5.87356
20
-3.44028
11
5.87612
21
-3.44199
0
LINE
8
BLACK
6
CONTINUOUS
10
5.87612
20
-3.44199
11
5.87783
21
-3.44455
0
LINE
8
BLACK
6
CONTINUOUS
10
5.87783
20
-3.44455
11
5.87843
21
-3.44756
0
LINE
8
BLACK
6
CONTINUOUS
10
5.87843
20
-3.44756
11
5.87843
21
-3.50756
0
LINE
8
BLACK
6
CONTINUOUS
10
5.87843
20
-3.50756
11
5.87783
21
-3.51057
0
LINE
8
BLACK
6
CONTINUOUS
10
5.87783
20
-3.51057
11
5.87612
21
-3.51313
0
LINE
8
BLACK
6
CONTINUOUS
10
5.87612
20
-3.51313
11
5.87356
21
-3.51483
0
LINE
8
BLACK
6
CONTINUOUS
10
5.87356
20
-3.51483
11
5.87055
21
-3.51543
0
LINE
8
BLACK
6
CONTINUOUS
10
5.87055
20
-3.51543
11
5.81055
21
-3.51543
0
LINE
8
BLACK
6
CONTINUOUS
10
5.81055
20
-3.51543
11
5.80754
21
-3.51483
0
LINE
8
BLACK
6
CONTINUOUS
10
5.80754
20
-3.51483
11
5.80498
21
-3.51313
0
LINE
8
BLACK
6
CONTINUOUS
10
5.80498
20
-3.51313
11
5.80328
21
-3.51057
0
LINE
8
BLACK
6
CONTINUOUS
10
5.80328
20
-3.51057
11
5.80268
21
-3.50756
0
LINE
8
BLACK
6
CONTINUOUS
10
5.80268
20
-3.50756
11
5.80268
21
-3.44756
0
LINE
8
BLACK
6
CONTINUOUS
10
5.80268
20
-3.44756
11
5.80328
21
-3.44455
0
LINE
8
BLACK
6
CONTINUOUS
10
5.80328
20
-3.44455
11
5.80498
21
-3.44199
0
LINE
8
BLACK
6
CONTINUOUS
10
5.80498
20
-3.44199
11
5.80754
21
-3.44028
0
LINE
8
BLACK
6
CONTINUOUS
10
5.80754
20
-3.44028
11
5.81055
21
-3.43969
0
LINE
8
BLACK
6
CONTINUOUS
10
5.81055
20
-3.43969
11
5.87055
21
-3.43969
0
LINE
8
BLACK
6
CONTINUOUS
10
5.87055
20
-3.43969
11
5.87356
21
-3.44028
0
LINE
8
BLACK
6
CONTINUOUS
10
6.63341
20
-3.44028
11
6.63596
21
-3.44199
0
LINE
8
BLACK
6
CONTINUOUS
10
6.63596
20
-3.44199
11
6.63767
21
-3.44455
0
LINE
8
BLACK
6
CONTINUOUS
10
6.63767
20
-3.44455
11
6.63827
21
-3.44756
0
LINE
8
BLACK
6
CONTINUOUS
10
6.63827
20
-3.44756
11
6.63827
21
-3.50756
0
LINE
8
BLACK
6
CONTINUOUS
10
6.63827
20
-3.50756
11
6.63767
21
-3.51057
0
LINE
8
BLACK
6
CONTINUOUS
10
6.63767
20
-3.51057
11
6.63596
21
-3.51313
0
LINE
8
BLACK
6
CONTINUOUS
10
6.63596
20
-3.51313
11
6.63341
21
-3.51483
0
LINE
8
BLACK
6
CONTINUOUS
10
6.63341
20
-3.51483
11
6.63039
21
-3.51543
0
LINE
8
BLACK
6
CONTINUOUS
10
6.63039
20
-3.51543
11
6.57039
21
-3.51543
0
LINE
8
BLACK
6
CONTINUOUS
10
6.57039
20
-3.51543
11
6.56738
21
-3.51483
0
LINE
8
BLACK
6
CONTINUOUS
10
6.56738
20
-3.51483
11
6.56483
21
-3.51313
0
LINE
8
BLACK
6
CONTINUOUS
10
6.56483
20
-3.51313
11
6.56312
21
-3.51057
0
LINE
8
BLACK
6
CONTINUOUS
10
6.56312
20
-3.51057
11
6.56252
21
-3.50756
0
LINE
8
BLACK
6
CONTINUOUS
10
6.56252
20
-3.50756
11
6.56252
21
-3.44756
0
LINE
8
BLACK
6
CONTINUOUS
10
6.56252
20
-3.44756
11
6.56312
21
-3.44455
0
LINE
8
BLACK
6
CONTINUOUS
10
6.56312
20
-3.44455
11
6.56483
21
-3.44199
0
LINE
8
BLACK
6
CONTINUOUS
10
6.56483
20
-3.44199
11
6.56738
21
-3.44028
0
LINE
8
BLACK
6
CONTINUOUS
10
6.56738
20
-3.44028
11
6.57039
21
-3.43969
0
LINE
8
BLACK
6
CONTINUOUS
10
6.57039
20
-3.43969
11
6.63039
21
-3.43969
0
LINE
8
BLACK
6
CONTINUOUS
10
6.63039
20
-3.43969
11
6.63341
21
-3.44028
0
LINE
8
BLACK
6
CONTINUOUS
10
5.51492
20
-3.1749
11
5.52877
21
-3.17734
0
LINE
8
BLACK
6
CONTINUOUS
10
5.52877
20
-3.17734
11
5.54226
21
-3.18132
0
LINE
8
BLACK
6
CONTINUOUS
10
5.54226
20
-3.18132
11
5.55523
21
-3.18677
0
LINE
8
BLACK
6
CONTINUOUS
10
5.55523
20
-3.18677
11
5.56751
21
-3.19363
0
LINE
8
BLACK
6
CONTINUOUS
10
5.56751
20
-3.19363
11
5.57894
21
-3.20182
0
LINE
8
BLACK
6
CONTINUOUS
10
5.57894
20
-3.20182
11
5.58939
21
-3.21123
0
LINE
8
BLACK
6
CONTINUOUS
10
5.58939
20
-3.21123
11
5.59873
21
-3.22175
0
LINE
8
BLACK
6
CONTINUOUS
10
5.59873
20
-3.22175
11
5.60684
21
-3.23324
0
LINE
8
BLACK
6
CONTINUOUS
10
5.60684
20
-3.23324
11
5.61362
21
-3.24556
0
LINE
8
BLACK
6
CONTINUOUS
10
5.61362
20
-3.24556
11
5.61898
21
-3.25857
0
LINE
8
BLACK
6
CONTINUOUS
10
5.61898
20
-3.25857
11
5.62285
21
-3.27209
0
LINE
8
BLACK
6
CONTINUOUS
10
5.62285
20
-3.27209
11
5.6252
21
-3.28596
0
LINE
8
BLACK
6
CONTINUOUS
10
5.6252
20
-3.28596
11
5.62598
21
-3.3
0
LINE
8
BLACK
6
CONTINUOUS
10
5.62598
20
-3.3
11
5.62594
21
-3.30352
0
LINE
8
BLACK
6
CONTINUOUS
10
5.62594
20
-3.30352
11
5.62476
21
-3.31753
0
LINE
8
BLACK
6
CONTINUOUS
10
5.62476
20
-3.31753
11
5.62203
21
-3.33133
0
LINE
8
BLACK
6
CONTINUOUS
10
5.62203
20
-3.33133
11
5.61777
21
-3.34474
0
LINE
8
BLACK
6
CONTINUOUS
10
5.61777
20
-3.34474
11
5.61205
21
-3.35759
0
LINE
8
BLACK
6
CONTINUOUS
10
5.61205
20
-3.35759
11
5.60493
21
-3.36972
0
LINE
8
BLACK
6
CONTINUOUS
10
5.60493
20
-3.36972
11
5.59651
21
-3.38098
0
LINE
8
BLACK
6
CONTINUOUS
10
5.59651
20
-3.38098
11
5.58688
21
-3.39123
0
LINE
8
BLACK
6
CONTINUOUS
10
5.58688
20
-3.39123
11
5.57617
21
-3.40035
0
LINE
8
BLACK
6
CONTINUOUS
10
5.57617
20
-3.40035
11
5.56451
21
-3.40822
0
LINE
8
BLACK
6
CONTINUOUS
10
5.56451
20
-3.40822
11
5.55204
21
-3.41473
0
LINE
8
BLACK
6
CONTINUOUS
10
5.55204
20
-3.41473
11
5.53893
21
-3.41982
0
LINE
8
BLACK
6
CONTINUOUS
10
5.53893
20
-3.41982
11
5.52533
21
-3.42341
0
LINE
8
BLACK
6
CONTINUOUS
10
5.52533
20
-3.42341
11
5.51142
21
-3.42547
0
LINE
8
BLACK
6
CONTINUOUS
10
5.51142
20
-3.42547
11
5.49736
21
-3.42596
0
LINE
8
BLACK
6
CONTINUOUS
10
5.49736
20
-3.42596
11
5.48334
21
-3.42488
0
LINE
8
BLACK
6
CONTINUOUS
10
5.48334
20
-3.42488
11
5.46952
21
-3.42224
0
LINE
8
BLACK
6
CONTINUOUS
10
5.46952
20
-3.42224
11
5.45609
21
-3.41808
0
LINE
8
BLACK
6
CONTINUOUS
10
5.45609
20
-3.41808
11
5.4432
21
-3.41245
0
LINE
8
BLACK
6
CONTINUOUS
10
5.4432
20
-3.41245
11
5.43102
21
-3.40542
0
LINE
8
BLACK
6
CONTINUOUS
10
5.43102
20
-3.40542
11
5.41969
21
-3.39707
0
LINE
8
BLACK
6
CONTINUOUS
10
5.41969
20
-3.39707
11
5.40937
21
-3.38752
0
LINE
8
BLACK
6
CONTINUOUS
10
5.40937
20
-3.38752
11
5.40018
21
-3.37687
0
LINE
8
BLACK
6
CONTINUOUS
10
5.40018
20
-3.37687
11
5.39224
21
-3.36526
0
LINE
8
BLACK
6
CONTINUOUS
10
5.39224
20
-3.36526
11
5.38563
21
-3.35284
0
LINE
8
BLACK
6
CONTINUOUS
10
5.38563
20
-3.35284
11
5.38046
21
-3.33977
0
LINE
8
BLACK
6
CONTINUOUS
10
5.38046
20
-3.33977
11
5.37677
21
-3.32619
0
LINE
8
BLACK
6
CONTINUOUS
10
5.37677
20
-3.32619
11
5.37462
21
-3.31229
0
LINE
8
BLACK
6
CONTINUOUS
10
5.37462
20
-3.31229
11
5.37403
21
-3.29824
0
LINE
8
BLACK
6
CONTINUOUS
10
5.37403
20
-3.29824
11
5.37501
21
-3.28421
0
LINE
8
BLACK
6
CONTINUOUS
10
5.37501
20
-3.28421
11
5.37755
21
-3.27038
0
LINE
8
BLACK
6
CONTINUOUS
10
5.37755
20
-3.27038
11
5.38161
21
-3.25691
0
LINE
8
BLACK
6
CONTINUOUS
10
5.38161
20
-3.25691
11
5.38715
21
-3.24398
0
LINE
8
BLACK
6
CONTINUOUS
10
5.38715
20
-3.24398
11
5.3941
21
-3.23175
0
LINE
8
BLACK
6
CONTINUOUS
10
5.3941
20
-3.23175
11
5.40237
21
-3.22037
0
LINE
8
BLACK
6
CONTINUOUS
10
5.40237
20
-3.22037
11
5.41185
21
-3.20999
0
LINE
8
BLACK
6
CONTINUOUS
10
5.41185
20
-3.20999
11
5.42244
21
-3.20072
0
LINE
8
BLACK
6
CONTINUOUS
10
5.42244
20
-3.20072
11
5.43399
21
-3.1927
0
LINE
8
BLACK
6
CONTINUOUS
10
5.43399
20
-3.1927
11
5.44636
21
-3.18601
0
LINE
8
BLACK
6
CONTINUOUS
10
5.44636
20
-3.18601
11
5.4594
21
-3.18074
0
LINE
8
BLACK
6
CONTINUOUS
10
5.4594
20
-3.18074
11
5.47295
21
-3.17695
0
LINE
8
BLACK
6
CONTINUOUS
10
5.47295
20
-3.17695
11
5.48683
21
-3.17471
0
LINE
8
BLACK
6
CONTINUOUS
10
5.48683
20
-3.17471
11
5.50088
21
-3.17402
0
LINE
8
BLACK
6
CONTINUOUS
10
5.50088
20
-3.17402
11
5.51492
21
-3.1749
0
LINE
8
BLACK
6
CONTINUOUS
10
7.51492
20
-3.1749
11
7.52877
21
-3.17734
0
LINE
8
BLACK
6
CONTINUOUS
10
7.52877
20
-3.17734
11
7.54226
21
-3.18132
0
LINE
8
BLACK
6
CONTINUOUS
10
7.54226
20
-3.18132
11
7.55523
21
-3.18677
0
LINE
8
BLACK
6
CONTINUOUS
10
7.55523
20
-3.18677
11
7.56751
21
-3.19363
0
LINE
8
BLACK
6
CONTINUOUS
10
7.56751
20
-3.19363
11
7.57894
21
-3.20182
0
LINE
8
BLACK
6
CONTINUOUS
10
7.57894
20
-3.20182
11
7.58939
21
-3.21123
0
LINE
8
BLACK
6
CONTINUOUS
10
7.58939
20
-3.21123
11
7.59873
21
-3.22175
0
LINE
8
BLACK
6
CONTINUOUS
10
7.59873
20
-3.22175
11
7.60684
21
-3.23324
0
LINE
8
BLACK
6
CONTINUOUS
10
7.60684
20
-3.23324
11
7.61362
21
-3.24556
0
LINE
8
BLACK
6
CONTINUOUS
10
7.61362
20
-3.24556
11
7.61898
21
-3.25857
0
LINE
8
BLACK
6
CONTINUOUS
10
7.61898
20
-3.25857
11
7.62285
21
-3.27209
0
LINE
8
BLACK
6
CONTINUOUS
10
7.62285
20
-3.27209
11
7.6252
21
-3.28596
0
LINE
8
BLACK
6
CONTINUOUS
10
7.6252
20
-3.28596
11
7.62598
21
-3.3
0
LINE
8
BLACK
6
CONTINUOUS
10
7.62598
20
-3.3
11
7.62594
21
-3.30352
0
LINE
8
BLACK
6
CONTINUOUS
10
7.62594
20
-3.30352
11
7.62476
21
-3.31753
0
LINE
8
BLACK
6
CONTINUOUS
10
7.62476
20
-3.31753
11
7.62203
21
-3.33133
0
LINE
8
BLACK
6
CONTINUOUS
10
7.62203
20
-3.33133
11
7.61777
21
-3.34474
0
LINE
8
BLACK
6
CONTINUOUS
10
7.61777
20
-3.34474
11
7.61205
21
-3.35759
0
LINE
8
BLACK
6
CONTINUOUS
10
7.61205
20
-3.35759
11
7.60493
21
-3.36972
0
LINE
8
BLACK
6
CONTINUOUS
10
7.60493
20
-3.36972
11
7.59651
21
-3.38098
0
LINE
8
BLACK
6
CONTINUOUS
10
7.59651
20
-3.38098
11
7.58688
21
-3.39123
0
LINE
8
BLACK
6
CONTINUOUS
10
7.58688
20
-3.39123
11
7.57617
21
-3.40035
0
LINE
8
BLACK
6
CONTINUOUS
10
7.57617
20
-3.40035
11
7.56451
21
-3.40822
0
LINE
8
BLACK
6
CONTINUOUS
10
7.56451
20
-3.40822
11
7.55204
21
-3.41473
0
LINE
8
BLACK
6
CONTINUOUS
10
7.55204
20
-3.41473
11
7.53893
21
-3.41982
0
LINE
8
BLACK
6
CONTINUOUS
10
7.53893
20
-3.41982
11
7.52533
21
-3.42341
0
LINE
8
BLACK
6
CONTINUOUS
10
7.52533
20
-3.42341
11
7.51142
21
-3.42547
0
LINE
8
BLACK
6
CONTINUOUS
10
7.51142
20
-3.42547
11
7.49736
21
-3.42596
0
LINE
8
BLACK
6
CONTINUOUS
10
7.49736
20
-3.42596
11
7.48334
21
-3.42488
0
LINE
8
BLACK
6
CONTINUOUS
10
7.48334
20
-3.42488
11
7.46952
21
-3.42224
0
LINE
8
BLACK
6
CONTINUOUS
10
7.46952
20
-3.42224
11
7.45609
21
-3.41808
0
LINE
8
BLACK
6
CONTINUOUS
10
7.45609
20
-3.41808
11
7.4432
21
-3.41245
0
LINE
8
BLACK
6
CONTINUOUS
10
7.4432
20
-3.41245
11
7.43102
21
-3.40542
0
LINE
8
BLACK
6
CONTINUOUS
10
7.43102
20
-3.40542
11
7.41969
21
-3.39707
0
LINE
8
BLACK
6
CONTINUOUS
10
7.41969
20
-3.39707
11
7.40937
21
-3.38752
0
LINE
8
BLACK
6
CONTINUOUS
10
7.40937
20
-3.38752
11
7.40018
21
-3.37687
0
LINE
8
BLACK
6
CONTINUOUS
10
7.40018
20
-3.37687
11
7.39224
21
-3.36526
0
LINE
8
BLACK
6
CONTINUOUS
10
7.39224
20
-3.36526
11
7.38563
21
-3.35284
0
LINE
8
BLACK
6
CONTINUOUS
10
7.38563
20
-3.35284
11
7.38046
21
-3.33977
0
LINE
8
BLACK
6
CONTINUOUS
10
7.38046
20
-3.33977
11
7.37677
21
-3.32619
0
LINE
8
BLACK
6
CONTINUOUS
10
7.37677
20
-3.32619
11
7.37462
21
-3.31229
0
LINE
8
BLACK
6
CONTINUOUS
10
7.37462
20
-3.31229
11
7.37403
21
-3.29824
0
LINE
8
BLACK
6
CONTINUOUS
10
7.37403
20
-3.29824
11
7.37501
21
-3.28421
0
LINE
8
BLACK
6
CONTINUOUS
10
7.37501
20
-3.28421
11
7.37755
21
-3.27038
0
LINE
8
BLACK
6
CONTINUOUS
10
7.37755
20
-3.27038
11
7.38161
21
-3.25691
0
LINE
8
BLACK
6
CONTINUOUS
10
7.38161
20
-3.25691
11
7.38715
21
-3.24398
0
LINE
8
BLACK
6
CONTINUOUS
10
7.38715
20
-3.24398
11
7.3941
21
-3.23175
0
LINE
8
BLACK
6
CONTINUOUS
10
7.3941
20
-3.23175
11
7.40237
21
-3.22037
0
LINE
8
BLACK
6
CONTINUOUS
10
7.40237
20
-3.22037
11
7.41185
21
-3.20999
0
LINE
8
BLACK
6
CONTINUOUS
10
7.41185
20
-3.20999
11
7.42244
21
-3.20072
0
LINE
8
BLACK
6
CONTINUOUS
10
7.42244
20
-3.20072
11
7.43399
21
-3.1927
0
LINE
8
BLACK
6
CONTINUOUS
10
7.43399
20
-3.1927
11
7.44636
21
-3.18601
0
LINE
8
BLACK
6
CONTINUOUS
10
7.44636
20
-3.18601
11
7.4594
21
-3.18074
0
LINE
8
BLACK
6
CONTINUOUS
10
7.4594
20
-3.18074
11
7.47295
21
-3.17695
0
LINE
8
BLACK
6
CONTINUOUS
10
7.47295
20
-3.17695
11
7.48683
21
-3.17471
0
LINE
8
BLACK
6
CONTINUOUS
10
7.48683
20
-3.17471
11
7.50088
21
-3.17402
0
LINE
8
BLACK
6
CONTINUOUS
10
7.50088
20
-3.17402
11
7.51492
21
-3.1749
0
LINE
8
BLACK
6
CONTINUOUS
10
6.1222
20
-3.27207
11
6.12627
21
-3.27406
0
LINE
8
BLACK
6
CONTINUOUS
10
6.12627
20
-3.27406
11
6.12947
21
-3.27725
0
LINE
8
BLACK
6
CONTINUOUS
10
6.12947
20
-3.27725
11
6.13147
21
-3.28132
0
LINE
8
BLACK
6
CONTINUOUS
10
6.13147
20
-3.28132
11
6.13205
21
-3.28528
0
LINE
8
BLACK
6
CONTINUOUS
10
6.13205
20
-3.28528
11
6.13205
21
-3.34039
0
LINE
8
BLACK
6
CONTINUOUS
10
6.13205
20
-3.34039
11
6.13147
21
-3.34433
0
LINE
8
BLACK
6
CONTINUOUS
10
6.13147
20
-3.34433
11
6.12949
21
-3.3484
0
LINE
8
BLACK
6
CONTINUOUS
10
6.12949
20
-3.3484
11
6.12629
21
-3.3516
0
LINE
8
BLACK
6
CONTINUOUS
10
6.12629
20
-3.3516
11
6.12223
21
-3.35359
0
LINE
8
BLACK
6
CONTINUOUS
10
6.12223
20
-3.35359
11
6.11827
21
-3.35417
0
LINE
8
BLACK
6
CONTINUOUS
10
6.11827
20
-3.35417
11
6.10646
21
-3.35417
0
LINE
8
BLACK
6
CONTINUOUS
10
6.10646
20
-3.35417
11
6.10252
21
-3.3536
0
LINE
8
BLACK
6
CONTINUOUS
10
6.10252
20
-3.3536
11
6.09845
21
-3.35161
0
LINE
8
BLACK
6
CONTINUOUS
10
6.09845
20
-3.35161
11
6.09525
21
-3.34842
0
LINE
8
BLACK
6
CONTINUOUS
10
6.09525
20
-3.34842
11
6.09326
21
-3.34435
0
LINE
8
BLACK
6
CONTINUOUS
10
6.09326
20
-3.34435
11
6.09268
21
-3.34039
0
LINE
8
BLACK
6
CONTINUOUS
10
6.09268
20
-3.34039
11
6.09268
21
-3.28528
0
LINE
8
BLACK
6
CONTINUOUS
10
6.09268
20
-3.28528
11
6.09325
21
-3.28134
0
LINE
8
BLACK
6
CONTINUOUS
10
6.09325
20
-3.28134
11
6.09524
21
-3.27727
0
LINE
8
BLACK
6
CONTINUOUS
10
6.09524
20
-3.27727
11
6.09844
21
-3.27407
0
LINE
8
BLACK
6
CONTINUOUS
10
6.09844
20
-3.27407
11
6.1025
21
-3.27208
0
LINE
8
BLACK
6
CONTINUOUS
10
6.1025
20
-3.27208
11
6.10646
21
-3.2715
0
LINE
8
BLACK
6
CONTINUOUS
10
6.10646
20
-3.2715
11
6.11827
21
-3.2715
0
LINE
8
BLACK
6
CONTINUOUS
10
6.11827
20
-3.2715
11
6.1222
21
-3.27207
0
LINE
8
BLACK
6
CONTINUOUS
10
6.17142
20
-3.27207
11
6.17548
21
-3.27406
0
LINE
8
BLACK
6
CONTINUOUS
10
6.17548
20
-3.27406
11
6.17868
21
-3.27725
0
LINE
8
BLACK
6
CONTINUOUS
10
6.17868
20
-3.27725
11
6.18068
21
-3.28132
0
LINE
8
BLACK
6
CONTINUOUS
10
6.18068
20
-3.28132
11
6.18126
21
-3.28528
0
LINE
8
BLACK
6
CONTINUOUS
10
6.18126
20
-3.28528
11
6.18126
21
-3.34039
0
LINE
8
BLACK
6
CONTINUOUS
10
6.18126
20
-3.34039
11
6.18069
21
-3.34433
0
LINE
8
BLACK
6
CONTINUOUS
10
6.18069
20
-3.34433
11
6.1787
21
-3.3484
0
LINE
8
BLACK
6
CONTINUOUS
10
6.1787
20
-3.3484
11
6.1755
21
-3.3516
0
LINE
8
BLACK
6
CONTINUOUS
10
6.1755
20
-3.3516
11
6.17144
21
-3.35359
0
LINE
8
BLACK
6
CONTINUOUS
10
6.17144
20
-3.35359
11
6.16748
21
-3.35417
0
LINE
8
BLACK
6
CONTINUOUS
10
6.16748
20
-3.35417
11
6.15567
21
-3.35417
0
LINE
8
BLACK
6
CONTINUOUS
10
6.15567
20
-3.35417
11
6.15173
21
-3.3536
0
LINE
8
BLACK
6
CONTINUOUS
10
6.15173
20
-3.3536
11
6.14767
21
-3.35161
0
LINE
8
BLACK
6
CONTINUOUS
10
6.14767
20
-3.35161
11
6.14447
21
-3.34842
0
LINE
8
BLACK
6
CONTINUOUS
10
6.14447
20
-3.34842
11
6.14247
21
-3.34435
0
LINE
8
BLACK
6
CONTINUOUS
10
6.14247
20
-3.34435
11
6.14189
21
-3.34039
0
LINE
8
BLACK
6
CONTINUOUS
10
6.14189
20
-3.34039
11
6.14189
21
-3.28528
0
LINE
8
BLACK
6
CONTINUOUS
10
6.14189
20
-3.28528
11
6.14246
21
-3.28134
0
LINE
8
BLACK
6
CONTINUOUS
10
6.14246
20
-3.28134
11
6.14445
21
-3.27727
0
LINE
8
BLACK
6
CONTINUOUS
10
6.14445
20
-3.27727
11
6.14765
21
-3.27407
0
LINE
8
BLACK
6
CONTINUOUS
10
6.14765
20
-3.27407
11
6.15171
21
-3.27208
0
LINE
8
BLACK
6
CONTINUOUS
10
6.15171
20
-3.27208
11
6.15567
21
-3.2715
0
LINE
8
BLACK
6
CONTINUOUS
10
6.15567
20
-3.2715
11
6.16748
21
-3.2715
0
LINE
8
BLACK
6
CONTINUOUS
10
6.16748
20
-3.2715
11
6.17142
21
-3.27207
0
LINE
8
BLACK
6
CONTINUOUS
10
6.22063
20
-3.27207
11
6.22469
21
-3.27406
0
LINE
8
BLACK
6
CONTINUOUS
10
6.22469
20
-3.27406
11
6.2279
21
-3.27725
0
LINE
8
BLACK
6
CONTINUOUS
10
6.2279
20
-3.27725
11
6.22989
21
-3.28132
0
LINE
8
BLACK
6
CONTINUOUS
10
6.22989
20
-3.28132
11
6.23047
21
-3.28528
0
LINE
8
BLACK
6
CONTINUOUS
10
6.23047
20
-3.28528
11
6.23047
21
-3.34039
0
LINE
8
BLACK
6
CONTINUOUS
10
6.23047
20
-3.34039
11
6.2299
21
-3.34433
0
LINE
8
BLACK
6
CONTINUOUS
10
6.2299
20
-3.34433
11
6.22791
21
-3.3484
0
LINE
8
BLACK
6
CONTINUOUS
10
6.22791
20
-3.3484
11
6.22471
21
-3.3516
0
LINE
8
BLACK
6
CONTINUOUS
10
6.22471
20
-3.3516
11
6.22065
21
-3.35359
0
LINE
8
BLACK
6
CONTINUOUS
10
6.22065
20
-3.35359
11
6.21669
21
-3.35417
0
LINE
8
BLACK
6
CONTINUOUS
10
6.21669
20
-3.35417
11
6.20488
21
-3.35417
0
LINE
8
BLACK
6
CONTINUOUS
10
6.20488
20
-3.35417
11
6.20095
21
-3.3536
0
LINE
8
BLACK
6
CONTINUOUS
10
6.20095
20
-3.3536
11
6.19688
21
-3.35161
0
LINE
8
BLACK
6
CONTINUOUS
10
6.19688
20
-3.35161
11
6.19368
21
-3.34842
0
LINE
8
BLACK
6
CONTINUOUS
10
6.19368
20
-3.34842
11
6.19168
21
-3.34435
0
LINE
8
BLACK
6
CONTINUOUS
10
6.19168
20
-3.34435
11
6.1911
21
-3.34039
0
LINE
8
BLACK
6
CONTINUOUS
10
6.1911
20
-3.34039
11
6.1911
21
-3.28528
0
LINE
8
BLACK
6
CONTINUOUS
10
6.1911
20
-3.28528
11
6.19168
21
-3.28134
0
LINE
8
BLACK
6
CONTINUOUS
10
6.19168
20
-3.28134
11
6.19366
21
-3.27727
0
LINE
8
BLACK
6
CONTINUOUS
10
6.19366
20
-3.27727
11
6.19686
21
-3.27407
0
LINE
8
BLACK
6
CONTINUOUS
10
6.19686
20
-3.27407
11
6.20092
21
-3.27208
0
LINE
8
BLACK
6
CONTINUOUS
10
6.20092
20
-3.27208
11
6.20488
21
-3.2715
0
LINE
8
BLACK
6
CONTINUOUS
10
6.20488
20
-3.2715
11
6.21669
21
-3.2715
0
LINE
8
BLACK
6
CONTINUOUS
10
6.21669
20
-3.2715
11
6.22063
21
-3.27207
0
LINE
8
BLACK
6
CONTINUOUS
10
6.26984
20
-3.27207
11
6.27391
21
-3.27406
0
LINE
8
BLACK
6
CONTINUOUS
10
6.27391
20
-3.27406
11
6.27711
21
-3.27725
0
LINE
8
BLACK
6
CONTINUOUS
10
6.27711
20
-3.27725
11
6.2791
21
-3.28132
0
LINE
8
BLACK
6
CONTINUOUS
10
6.2791
20
-3.28132
11
6.27968
21
-3.28528
0
LINE
8
BLACK
6
CONTINUOUS
10
6.27968
20
-3.28528
11
6.27968
21
-3.34039
0
LINE
8
BLACK
6
CONTINUOUS
10
6.27968
20
-3.34039
11
6.27911
21
-3.34433
0
LINE
8
BLACK
6
CONTINUOUS
10
6.27911
20
-3.34433
11
6.27712
21
-3.3484
0
LINE
8
BLACK
6
CONTINUOUS
10
6.27712
20
-3.3484
11
6.27393
21
-3.3516
0
LINE
8
BLACK
6
CONTINUOUS
10
6.27393
20
-3.3516
11
6.26987
21
-3.35359
0
LINE
8
BLACK
6
CONTINUOUS
10
6.26987
20
-3.35359
11
6.26591
21
-3.35417
0
LINE
8
BLACK
6
CONTINUOUS
10
6.26591
20
-3.35417
11
6.25409
21
-3.35417
0
LINE
8
BLACK
6
CONTINUOUS
10
6.25409
20
-3.35417
11
6.25016
21
-3.3536
0
LINE
8
BLACK
6
CONTINUOUS
10
6.25016
20
-3.3536
11
6.24609
21
-3.35161
0
LINE
8
BLACK
6
CONTINUOUS
10
6.24609
20
-3.35161
11
6.24289
21
-3.34842
0
LINE
8
BLACK
6
CONTINUOUS
10
6.24289
20
-3.34842
11
6.2409
21
-3.34435
0
LINE
8
BLACK
6
CONTINUOUS
10
6.2409
20
-3.34435
11
6.24032
21
-3.34039
0
LINE
8
BLACK
6
CONTINUOUS
10
6.24032
20
-3.34039
11
6.24031
21
-3.28528
0
LINE
8
BLACK
6
CONTINUOUS
10
6.24031
20
-3.28528
11
6.24089
21
-3.28134
0
LINE
8
BLACK
6
CONTINUOUS
10
6.24089
20
-3.28134
11
6.24288
21
-3.27727
0
LINE
8
BLACK
6
CONTINUOUS
10
6.24288
20
-3.27727
11
6.24607
21
-3.27407
0
LINE
8
BLACK
6
CONTINUOUS
10
6.24607
20
-3.27407
11
6.25013
21
-3.27208
0
LINE
8
BLACK
6
CONTINUOUS
10
6.25013
20
-3.27208
11
6.25409
21
-3.2715
0
LINE
8
BLACK
6
CONTINUOUS
10
6.25409
20
-3.2715
11
6.26591
21
-3.2715
0
LINE
8
BLACK
6
CONTINUOUS
10
6.26591
20
-3.2715
11
6.26984
21
-3.27207
0
LINE
8
BLACK
6
CONTINUOUS
10
6.31905
20
-3.27207
11
6.32312
21
-3.27406
0
LINE
8
BLACK
6
CONTINUOUS
10
6.32312
20
-3.27406
11
6.32632
21
-3.27725
0
LINE
8
BLACK
6
CONTINUOUS
10
6.32632
20
-3.27725
11
6.32832
21
-3.28132
0
LINE
8
BLACK
6
CONTINUOUS
10
6.32832
20
-3.28132
11
6.3289
21
-3.28528
0
LINE
8
BLACK
6
CONTINUOUS
10
6.3289
20
-3.28528
11
6.3289
21
-3.34039
0
LINE
8
BLACK
6
CONTINUOUS
10
6.3289
20
-3.34039
11
6.32832
21
-3.34433
0
LINE
8
BLACK
6
CONTINUOUS
10
6.32832
20
-3.34433
11
6.32634
21
-3.3484
0
LINE
8
BLACK
6
CONTINUOUS
10
6.32634
20
-3.3484
11
6.32314
21
-3.3516
0
LINE
8
BLACK
6
CONTINUOUS
10
6.32314
20
-3.3516
11
6.31908
21
-3.35359
0
LINE
8
BLACK
6
CONTINUOUS
10
6.31908
20
-3.35359
11
6.31512
21
-3.35417
0
LINE
8
BLACK
6
CONTINUOUS
10
6.31512
20
-3.35417
11
6.30331
21
-3.35417
0
LINE
8
BLACK
6
CONTINUOUS
10
6.30331
20
-3.35417
11
6.29937
21
-3.3536
0
LINE
8
BLACK
6
CONTINUOUS
10
6.29937
20
-3.3536
11
6.29531
21
-3.35161
0
LINE
8
BLACK
6
CONTINUOUS
10
6.29531
20
-3.35161
11
6.2921
21
-3.34842
0
LINE
8
BLACK
6
CONTINUOUS
10
6.2921
20
-3.34842
11
6.29011
21
-3.34435
0
LINE
8
BLACK
6
CONTINUOUS
10
6.29011
20
-3.34435
11
6.28953
21
-3.34039
0
LINE
8
BLACK
6
CONTINUOUS
10
6.28953
20
-3.34039
11
6.28953
21
-3.28528
0
LINE
8
BLACK
6
CONTINUOUS
10
6.28953
20
-3.28528
11
6.2901
21
-3.28134
0
LINE
8
BLACK
6
CONTINUOUS
10
6.2901
20
-3.28134
11
6.29209
21
-3.27727
0
LINE
8
BLACK
6
CONTINUOUS
10
6.29209
20
-3.27727
11
6.29529
21
-3.27407
0
LINE
8
BLACK
6
CONTINUOUS
10
6.29529
20
-3.27407
11
6.29935
21
-3.27208
0
LINE
8
BLACK
6
CONTINUOUS
10
6.29935
20
-3.27208
11
6.30331
21
-3.2715
0
LINE
8
BLACK
6
CONTINUOUS
10
6.30331
20
-3.2715
11
6.31512
21
-3.2715
0
LINE
8
BLACK
6
CONTINUOUS
10
6.31512
20
-3.2715
11
6.31905
21
-3.27207
0
LINE
8
BLACK
6
CONTINUOUS
10
6.36827
20
-3.27207
11
6.37233
21
-3.27406
0
LINE
8
BLACK
6
CONTINUOUS
10
6.37233
20
-3.27406
11
6.37553
21
-3.27725
0
LINE
8
BLACK
6
CONTINUOUS
10
6.37553
20
-3.27725
11
6.37753
21
-3.28132
0
LINE
8
BLACK
6
CONTINUOUS
10
6.37753
20
-3.28132
11
6.37811
21
-3.28528
0
LINE
8
BLACK
6
CONTINUOUS
10
6.37811
20
-3.28528
11
6.37811
21
-3.34039
0
LINE
8
BLACK
6
CONTINUOUS
10
6.37811
20
-3.34039
11
6.37754
21
-3.34433
0
LINE
8
BLACK
6
CONTINUOUS
10
6.37754
20
-3.34433
11
6.37555
21
-3.3484
0
LINE
8
BLACK
6
CONTINUOUS
10
6.37555
20
-3.3484
11
6.37235
21
-3.3516
0
LINE
8
BLACK
6
CONTINUOUS
10
6.37235
20
-3.3516
11
6.36829
21
-3.35359
0
LINE
8
BLACK
6
CONTINUOUS
10
6.36829
20
-3.35359
11
6.36433
21
-3.35417
0
LINE
8
BLACK
6
CONTINUOUS
10
6.36433
20
-3.35417
11
6.35252
21
-3.35417
0
LINE
8
BLACK
6
CONTINUOUS
10
6.35252
20
-3.35417
11
6.34858
21
-3.3536
0
LINE
8
BLACK
6
CONTINUOUS
10
6.34858
20
-3.3536
11
6.34452
21
-3.35161
0
LINE
8
BLACK
6
CONTINUOUS
10
6.34452
20
-3.35161
11
6.34132
21
-3.34842
0
LINE
8
BLACK
6
CONTINUOUS
10
6.34132
20
-3.34842
11
6.33932
21
-3.34435
0
LINE
8
BLACK
6
CONTINUOUS
10
6.33932
20
-3.34435
11
6.33874
21
-3.34039
0
LINE
8
BLACK
6
CONTINUOUS
10
6.33874
20
-3.34039
11
6.33874
21
-3.28528
0
LINE
8
BLACK
6
CONTINUOUS
10
6.33874
20
-3.28528
11
6.33931
21
-3.28134
0
LINE
8
BLACK
6
CONTINUOUS
10
6.33931
20
-3.28134
11
6.3413
21
-3.27727
0
LINE
8
BLACK
6
CONTINUOUS
10
6.3413
20
-3.27727
11
6.3445
21
-3.27407
0
LINE
8
BLACK
6
CONTINUOUS
10
6.3445
20
-3.27407
11
6.34856
21
-3.27208
0
LINE
8
BLACK
6
CONTINUOUS
10
6.34856
20
-3.27208
11
6.35252
21
-3.2715
0
LINE
8
BLACK
6
CONTINUOUS
10
6.35252
20
-3.2715
11
6.36433
21
-3.2715
0
LINE
8
BLACK
6
CONTINUOUS
10
6.36433
20
-3.2715
11
6.36827
21
-3.27207
0
LINE
8
BLACK
6
CONTINUOUS
10
6.41748
20
-3.27207
11
6.42155
21
-3.27406
0
LINE
8
BLACK
6
CONTINUOUS
10
6.42155
20
-3.27406
11
6.42475
21
-3.27725
0
LINE
8
BLACK
6
CONTINUOUS
10
6.42475
20
-3.27725
11
6.42674
21
-3.28132
0
LINE
8
BLACK
6
CONTINUOUS
10
6.42674
20
-3.28132
11
6.42732
21
-3.28528
0
LINE
8
BLACK
6
CONTINUOUS
10
6.42732
20
-3.28528
11
6.42732
21
-3.34039
0
LINE
8
BLACK
6
CONTINUOUS
10
6.42732
20
-3.34039
11
6.42675
21
-3.34433
0
LINE
8
BLACK
6
CONTINUOUS
10
6.42675
20
-3.34433
11
6.42476
21
-3.3484
0
LINE
8
BLACK
6
CONTINUOUS
10
6.42476
20
-3.3484
11
6.42156
21
-3.3516
0
LINE
8
BLACK
6
CONTINUOUS
10
6.42156
20
-3.3516
11
6.4175
21
-3.35359
0
LINE
8
BLACK
6
CONTINUOUS
10
6.4175
20
-3.35359
11
6.41354
21
-3.35417
0
LINE
8
BLACK
6
CONTINUOUS
10
6.41354
20
-3.35417
11
6.40173
21
-3.35417
0
LINE
8
BLACK
6
CONTINUOUS
10
6.40173
20
-3.35417
11
6.3978
21
-3.3536
0
LINE
8
BLACK
6
CONTINUOUS
10
6.3978
20
-3.3536
11
6.39373
21
-3.35161
0
LINE
8
BLACK
6
CONTINUOUS
10
6.39373
20
-3.35161
11
6.39053
21
-3.34842
0
LINE
8
BLACK
6
CONTINUOUS
10
6.39053
20
-3.34842
11
6.38853
21
-3.34435
0
LINE
8
BLACK
6
CONTINUOUS
10
6.38853
20
-3.34435
11
6.38795
21
-3.34039
0
LINE
8
BLACK
6
CONTINUOUS
10
6.38795
20
-3.34039
11
6.38795
21
-3.28528
0
LINE
8
BLACK
6
CONTINUOUS
10
6.38795
20
-3.28528
11
6.38853
21
-3.28134
0
LINE
8
BLACK
6
CONTINUOUS
10
6.38853
20
-3.28134
11
6.39051
21
-3.27727
0
LINE
8
BLACK
6
CONTINUOUS
10
6.39051
20
-3.27727
11
6.39371
21
-3.27407
0
LINE
8
BLACK
6
CONTINUOUS
10
6.39371
20
-3.27407
11
6.39777
21
-3.27208
0
LINE
8
BLACK
6
CONTINUOUS
10
6.39777
20
-3.27208
11
6.40173
21
-3.2715
0
LINE
8
BLACK
6
CONTINUOUS
10
6.40173
20
-3.2715
11
6.41354
21
-3.2715
0
LINE
8
BLACK
6
CONTINUOUS
10
6.41354
20
-3.2715
11
6.41748
21
-3.27207
0
LINE
8
BLACK
6
CONTINUOUS
10
6.05269
20
-3.12614
11
6.05766
21
-3.12789
0
LINE
8
BLACK
6
CONTINUOUS
10
6.05766
20
-3.12789
11
6.0619
21
-3.13102
0
LINE
8
BLACK
6
CONTINUOUS
10
6.0619
20
-3.13102
11
6.06503
21
-3.13525
0
LINE
8
BLACK
6
CONTINUOUS
10
6.06503
20
-3.13525
11
6.06677
21
-3.14022
0
LINE
8
BLACK
6
CONTINUOUS
10
6.06677
20
-3.14022
11
6.06709
21
-3.14354
0
LINE
8
BLACK
6
CONTINUOUS
10
6.06709
20
-3.14354
11
6.06709
21
-3.23016
0
LINE
8
BLACK
6
CONTINUOUS
10
6.06709
20
-3.23016
11
6.06677
21
-3.23348
0
LINE
8
BLACK
6
CONTINUOUS
10
6.06677
20
-3.23348
11
6.06503
21
-3.23845
0
LINE
8
BLACK
6
CONTINUOUS
10
6.06503
20
-3.23845
11
6.0619
21
-3.24268
0
LINE
8
BLACK
6
CONTINUOUS
10
6.0619
20
-3.24268
11
6.05766
21
-3.24581
0
LINE
8
BLACK
6
CONTINUOUS
10
6.05766
20
-3.24581
11
6.05269
21
-3.24756
0
LINE
8
BLACK
6
CONTINUOUS
10
6.05269
20
-3.24756
11
6.04937
21
-3.24787
0
LINE
8
BLACK
6
CONTINUOUS
10
6.04937
20
-3.24787
11
6.02969
21
-3.24787
0
LINE
8
BLACK
6
CONTINUOUS
10
6.02969
20
-3.24787
11
6.02637
21
-3.24756
0
LINE
8
BLACK
6
CONTINUOUS
10
6.02637
20
-3.24756
11
6.02139
21
-3.24581
0
LINE
8
BLACK
6
CONTINUOUS
10
6.02139
20
-3.24581
11
6.01716
21
-3.24268
0
LINE
8
BLACK
6
CONTINUOUS
10
6.01716
20
-3.24268
11
6.01403
21
-3.23845
0
LINE
8
BLACK
6
CONTINUOUS
10
6.01403
20
-3.23845
11
6.01228
21
-3.23348
0
LINE
8
BLACK
6
CONTINUOUS
10
6.01228
20
-3.23348
11
6.01197
21
-3.23016
0
LINE
8
BLACK
6
CONTINUOUS
10
6.01197
20
-3.23016
11
6.01197
21
-3.14354
0
LINE
8
BLACK
6
CONTINUOUS
10
6.01197
20
-3.14354
11
6.01228
21
-3.14022
0
LINE
8
BLACK
6
CONTINUOUS
10
6.01228
20
-3.14022
11
6.01403
21
-3.13525
0
LINE
8
BLACK
6
CONTINUOUS
10
6.01403
20
-3.13525
11
6.01716
21
-3.13102
0
LINE
8
BLACK
6
CONTINUOUS
10
6.01716
20
-3.13102
11
6.02139
21
-3.12789
0
LINE
8
BLACK
6
CONTINUOUS
10
6.02139
20
-3.12789
11
6.02637
21
-3.12614
0
LINE
8
BLACK
6
CONTINUOUS
10
6.02637
20
-3.12614
11
6.02969
21
-3.12583
0
LINE
8
BLACK
6
CONTINUOUS
10
6.02969
20
-3.12583
11
6.04937
21
-3.12583
0
LINE
8
BLACK
6
CONTINUOUS
10
6.04937
20
-3.12583
11
6.05269
21
-3.12614
0
LINE
8
BLACK
6
CONTINUOUS
10
6.49363
20
-3.12614
11
6.49861
21
-3.12789
0
LINE
8
BLACK
6
CONTINUOUS
10
6.49861
20
-3.12789
11
6.50284
21
-3.13102
0
LINE
8
BLACK
6
CONTINUOUS
10
6.50284
20
-3.13102
11
6.50597
21
-3.13525
0
LINE
8
BLACK
6
CONTINUOUS
10
6.50597
20
-3.13525
11
6.50772
21
-3.14022
0
LINE
8
BLACK
6
CONTINUOUS
10
6.50772
20
-3.14022
11
6.50803
21
-3.14354
0
LINE
8
BLACK
6
CONTINUOUS
10
6.50803
20
-3.14354
11
6.50803
21
-3.23016
0
LINE
8
BLACK
6
CONTINUOUS
10
6.50803
20
-3.23016
11
6.50772
21
-3.23348
0
LINE
8
BLACK
6
CONTINUOUS
10
6.50772
20
-3.23348
11
6.50597
21
-3.23845
0
LINE
8
BLACK
6
CONTINUOUS
10
6.50597
20
-3.23845
11
6.50284
21
-3.24268
0
LINE
8
BLACK
6
CONTINUOUS
10
6.50284
20
-3.24268
11
6.49861
21
-3.24581
0
LINE
8
BLACK
6
CONTINUOUS
10
6.49861
20
-3.24581
11
6.49363
21
-3.24756
0
LINE
8
BLACK
6
CONTINUOUS
10
6.49363
20
-3.24756
11
6.49031
21
-3.24787
0
LINE
8
BLACK
6
CONTINUOUS
10
6.49031
20
-3.24787
11
6.47063
21
-3.24787
0
LINE
8
BLACK
6
CONTINUOUS
10
6.47063
20
-3.24787
11
6.46731
21
-3.24756
0
LINE
8
BLACK
6
CONTINUOUS
10
6.46731
20
-3.24756
11
6.46234
21
-3.24581
0
LINE
8
BLACK
6
CONTINUOUS
10
6.46234
20
-3.24581
11
6.4581
21
-3.24268
0
LINE
8
BLACK
6
CONTINUOUS
10
6.4581
20
-3.24268
11
6.45497
21
-3.23845
0
LINE
8
BLACK
6
CONTINUOUS
10
6.45497
20
-3.23845
11
6.45323
21
-3.23348
0
LINE
8
BLACK
6
CONTINUOUS
10
6.45323
20
-3.23348
11
6.45291
21
-3.23016
0
LINE
8
BLACK
6
CONTINUOUS
10
6.45291
20
-3.23016
11
6.45291
21
-3.14354
0
LINE
8
BLACK
6
CONTINUOUS
10
6.45291
20
-3.14354
11
6.45323
21
-3.14022
0
LINE
8
BLACK
6
CONTINUOUS
10
6.45323
20
-3.14022
11
6.45497
21
-3.13525
0
LINE
8
BLACK
6
CONTINUOUS
10
6.45497
20
-3.13525
11
6.4581
21
-3.13102
0
LINE
8
BLACK
6
CONTINUOUS
10
6.4581
20
-3.13102
11
6.46234
21
-3.12789
0
LINE
8
BLACK
6
CONTINUOUS
10
6.46234
20
-3.12789
11
6.46731
21
-3.12614
0
LINE
8
BLACK
6
CONTINUOUS
10
6.46731
20
-3.12614
11
6.47063
21
-3.12583
0
LINE
8
BLACK
6
CONTINUOUS
10
6.47063
20
-3.12583
11
6.49031
21
-3.12583
0
LINE
8
BLACK
6
CONTINUOUS
10
6.49031
20
-3.12583
11
6.49363
21
-3.12614
  0
ENDSEC
  0
EOF
