  0
SECTION
  2
HEADER
  9
$ANGBASE
  50
0.0
  9
$ANGDIR
  70
1
  9
$MEASUREMENT
  70
0
  0
ENDSEC
  0
SECTION
  2
TABLES
  0
TABLE
  2
LTYPE
  70
4
  0
LTYPE
  5
40F
  2
CONTINUOUS
  70
0
  3
Solid line
  72
65
  73
0
  40
0.0
  0
LTYPE
  5
410
  2
DASHDOT
 70
0
  3
Dash Dot ____ _ ____ _
 72
65
 73
4
 40
2.0
 49
1.25
 49
-0.25
 49
0.25
 49
-0.25
  0
LTYPE
  5
411
  2
DASHED
 70
0
  3
Dashed __ __ __ __ __
 72
65
 73
2
 40
0.75
 49
0.5
 49
-0.25
  0
LTYPE
  5
43B
  2
DOTTED
 70
0
  3
Dotted .  .  .  .
 72
65
 73
2
 40
0.2
 49
0.0
 49
-0.2
  0
ENDTAB
  0
TABLE
  2
STYLE
  70
4
  0
STYLE
  2
KICAD
  70
0
  40
0
  41
1
  42
1
  50
0
  71
0
  3
isocp.shx
  0
STYLE
  2
KICADB
  70
0
  40
0
  41
1
  42
1
  50
0
  71
0
  3
isocp.shx
  0
STYLE
  2
KICADI
  70
0
  40
0
  41
1
  42
1
  50
15
  71
0
  3
isocp.shx
  0
STYLE
  2
KICADBI
  70
0
  40
0
  41
1
  42
1
  50
15
  71
0
  3
isocp.shx
  0
ENDTAB
  0
TABLE
  2
LAYER
  70
1
  0
LAYER
  2
BLACK
  70
0
  62
7
  6
CONTINUOUS
  0
ENDTAB
  0
ENDSEC
  0
SECTION
  2
ENTITIES
0
LINE
8
BLACK
6
CONTINUOUS
10
6.27559
20
-5.02756
11
6.12598
21
-5.02756
0
LINE
8
BLACK
6
CONTINUOUS
10
6.12598
20
-5.02756
11
6.12598
21
-4.98819
0
LINE
8
BLACK
6
CONTINUOUS
10
6.12598
20
-4.98819
11
6.27559
21
-4.98819
0
LINE
8
BLACK
6
CONTINUOUS
10
6.27559
20
-4.98819
11
6.27559
21
-5.02756
0
LINE
8
BLACK
6
CONTINUOUS
10
6.03937
20
-5.02756
11
5.88976
21
-5.02756
0
LINE
8
BLACK
6
CONTINUOUS
10
5.88976
20
-5.02756
11
5.88976
21
-4.98819
0
LINE
8
BLACK
6
CONTINUOUS
10
5.88976
20
-4.98819
11
6.03937
21
-4.98819
0
LINE
8
BLACK
6
CONTINUOUS
10
6.03937
20
-4.98819
11
6.03937
21
-5.02756
0
LINE
8
BLACK
6
CONTINUOUS
10
6.74803
20
-5.02756
11
6.59843
21
-5.02756
0
LINE
8
BLACK
6
CONTINUOUS
10
6.59843
20
-5.02756
11
6.59843
21
-4.98819
0
LINE
8
BLACK
6
CONTINUOUS
10
6.59843
20
-4.98819
11
6.74803
21
-4.98819
0
LINE
8
BLACK
6
CONTINUOUS
10
6.74803
20
-4.98819
11
6.74803
21
-5.02756
0
LINE
8
BLACK
6
CONTINUOUS
10
5.7126
20
-4.89764
11
5.7126
21
-4.98819
0
LINE
8
BLACK
6
CONTINUOUS
10
5.7126
20
-4.98819
11
5.80315
21
-4.98819
0
LINE
8
BLACK
6
CONTINUOUS
10
5.80315
20
-4.98819
11
5.80315
21
-5.02756
0
LINE
8
BLACK
6
CONTINUOUS
10
5.80315
20
-5.02756
11
5.67323
21
-5.02756
0
LINE
8
BLACK
6
CONTINUOUS
10
5.67323
20
-5.02756
11
5.67323
21
-4.89764
0
LINE
8
BLACK
6
CONTINUOUS
10
5.67323
20
-4.89764
11
5.7126
21
-4.89764
0
LINE
8
BLACK
6
CONTINUOUS
10
6.83465
20
-4.98819
11
6.9252
21
-4.98819
0
LINE
8
BLACK
6
CONTINUOUS
10
6.9252
20
-4.98819
11
6.9252
21
-4.89764
0
LINE
8
BLACK
6
CONTINUOUS
10
6.9252
20
-4.89764
11
6.96457
21
-4.89764
0
LINE
8
BLACK
6
CONTINUOUS
10
6.96457
20
-4.89764
11
6.96457
21
-5.02756
0
LINE
8
BLACK
6
CONTINUOUS
10
6.96457
20
-5.02756
11
6.83465
21
-5.02756
0
LINE
8
BLACK
6
CONTINUOUS
10
6.83465
20
-5.02756
11
6.83465
21
-4.98819
0
LINE
8
BLACK
6
CONTINUOUS
10
6.51181
20
-5.02756
11
6.3622
21
-5.02756
0
LINE
8
BLACK
6
CONTINUOUS
10
6.3622
20
-5.02756
11
6.3622
21
-4.98819
0
LINE
8
BLACK
6
CONTINUOUS
10
6.3622
20
-4.98819
11
6.51181
21
-4.98819
0
LINE
8
BLACK
6
CONTINUOUS
10
6.51181
20
-4.98819
11
6.51181
21
-5.02756
0
LINE
8
BLACK
6
CONTINUOUS
10
5.7126
20
-4.81102
11
5.67323
21
-4.81102
0
LINE
8
BLACK
6
CONTINUOUS
10
5.67323
20
-4.81102
11
5.67323
21
-4.66142
0
LINE
8
BLACK
6
CONTINUOUS
10
5.67323
20
-4.66142
11
5.7126
21
-4.66142
0
LINE
8
BLACK
6
CONTINUOUS
10
5.7126
20
-4.66142
11
5.7126
21
-4.81102
0
LINE
8
BLACK
6
CONTINUOUS
10
6.96457
20
-4.81102
11
6.9252
21
-4.81102
0
LINE
8
BLACK
6
CONTINUOUS
10
6.9252
20
-4.81102
11
6.9252
21
-4.66142
0
LINE
8
BLACK
6
CONTINUOUS
10
6.9252
20
-4.66142
11
6.96457
21
-4.66142
0
LINE
8
BLACK
6
CONTINUOUS
10
6.96457
20
-4.66142
11
6.96457
21
-4.81102
0
LINE
8
BLACK
6
CONTINUOUS
10
6.0748
20
-4.59055
11
6.04134
21
-4.59055
0
LINE
8
BLACK
6
CONTINUOUS
10
6.04134
20
-4.59055
11
6.04134
21
-4.56102
0
LINE
8
BLACK
6
CONTINUOUS
10
6.04134
20
-4.56102
11
6.0748
21
-4.56102
0
LINE
8
BLACK
6
CONTINUOUS
10
6.0748
20
-4.56102
11
6.0748
21
-4.59055
0
LINE
8
BLACK
6
CONTINUOUS
10
6.02165
20
-4.59055
11
5.98819
21
-4.59055
0
LINE
8
BLACK
6
CONTINUOUS
10
5.98819
20
-4.59055
11
5.98819
21
-4.56102
0
LINE
8
BLACK
6
CONTINUOUS
10
5.98819
20
-4.56102
11
6.02165
21
-4.56102
0
LINE
8
BLACK
6
CONTINUOUS
10
6.02165
20
-4.56102
11
6.02165
21
-4.59055
0
LINE
8
BLACK
6
CONTINUOUS
10
5.7126
20
-4.5748
11
5.67323
21
-4.5748
0
LINE
8
BLACK
6
CONTINUOUS
10
5.67323
20
-4.5748
11
5.67323
21
-4.4252
0
LINE
8
BLACK
6
CONTINUOUS
10
5.67323
20
-4.4252
11
5.7126
21
-4.4252
0
LINE
8
BLACK
6
CONTINUOUS
10
5.7126
20
-4.4252
11
5.7126
21
-4.5748
0
LINE
8
BLACK
6
CONTINUOUS
10
6.96457
20
-4.5748
11
6.9252
21
-4.5748
0
LINE
8
BLACK
6
CONTINUOUS
10
6.9252
20
-4.5748
11
6.9252
21
-4.4252
0
LINE
8
BLACK
6
CONTINUOUS
10
6.9252
20
-4.4252
11
6.96457
21
-4.4252
0
LINE
8
BLACK
6
CONTINUOUS
10
6.96457
20
-4.4252
11
6.96457
21
-4.5748
0
LINE
8
BLACK
6
CONTINUOUS
10
6.0748
20
-4.54921
11
6.04134
21
-4.54921
0
LINE
8
BLACK
6
CONTINUOUS
10
6.04134
20
-4.54921
11
6.04134
21
-4.51969
0
LINE
8
BLACK
6
CONTINUOUS
10
6.04134
20
-4.51969
11
6.0748
21
-4.51969
0
LINE
8
BLACK
6
CONTINUOUS
10
6.0748
20
-4.51969
11
6.0748
21
-4.54921
0
LINE
8
BLACK
6
CONTINUOUS
10
6.02165
20
-4.54921
11
5.98819
21
-4.54921
0
LINE
8
BLACK
6
CONTINUOUS
10
5.98819
20
-4.54921
11
5.98819
21
-4.51969
0
LINE
8
BLACK
6
CONTINUOUS
10
5.98819
20
-4.51969
11
6.02165
21
-4.51969
0
LINE
8
BLACK
6
CONTINUOUS
10
6.02165
20
-4.51969
11
6.02165
21
-4.54921
0
LINE
8
BLACK
6
CONTINUOUS
10
6.14679
20
-4.50662
11
6.14982
21
-4.50864
0
LINE
8
BLACK
6
CONTINUOUS
10
6.14982
20
-4.50864
11
6.15185
21
-4.51168
0
LINE
8
BLACK
6
CONTINUOUS
10
6.15185
20
-4.51168
11
6.15256
21
-4.51526
0
LINE
8
BLACK
6
CONTINUOUS
10
6.15256
20
-4.51526
11
6.15256
21
-4.53789
0
LINE
8
BLACK
6
CONTINUOUS
10
6.15256
20
-4.53789
11
6.15185
21
-4.54147
0
LINE
8
BLACK
6
CONTINUOUS
10
6.15185
20
-4.54147
11
6.14982
21
-4.54451
0
LINE
8
BLACK
6
CONTINUOUS
10
6.14982
20
-4.54451
11
6.14679
21
-4.54653
0
LINE
8
BLACK
6
CONTINUOUS
10
6.14679
20
-4.54653
11
6.14321
21
-4.54724
0
LINE
8
BLACK
6
CONTINUOUS
10
6.14321
20
-4.54724
11
6.12451
21
-4.54724
0
LINE
8
BLACK
6
CONTINUOUS
10
6.12451
20
-4.54724
11
6.12093
21
-4.54653
0
LINE
8
BLACK
6
CONTINUOUS
10
6.12093
20
-4.54653
11
6.1179
21
-4.54451
0
LINE
8
BLACK
6
CONTINUOUS
10
6.1179
20
-4.54451
11
6.11587
21
-4.54147
0
LINE
8
BLACK
6
CONTINUOUS
10
6.11587
20
-4.54147
11
6.11516
21
-4.53789
0
LINE
8
BLACK
6
CONTINUOUS
10
6.11516
20
-4.53789
11
6.11516
21
-4.51526
0
LINE
8
BLACK
6
CONTINUOUS
10
6.11516
20
-4.51526
11
6.11587
21
-4.51168
0
LINE
8
BLACK
6
CONTINUOUS
10
6.11587
20
-4.51168
11
6.1179
21
-4.50864
0
LINE
8
BLACK
6
CONTINUOUS
10
6.1179
20
-4.50864
11
6.12093
21
-4.50662
0
LINE
8
BLACK
6
CONTINUOUS
10
6.12093
20
-4.50662
11
6.12451
21
-4.50591
0
LINE
8
BLACK
6
CONTINUOUS
10
6.12451
20
-4.50591
11
6.14321
21
-4.50591
0
LINE
8
BLACK
6
CONTINUOUS
10
6.14321
20
-4.50591
11
6.14679
21
-4.50662
0
LINE
8
BLACK
6
CONTINUOUS
10
5.94206
20
-4.50662
11
5.9451
21
-4.50864
0
LINE
8
BLACK
6
CONTINUOUS
10
5.9451
20
-4.50864
11
5.94712
21
-4.51168
0
LINE
8
BLACK
6
CONTINUOUS
10
5.94712
20
-4.51168
11
5.94783
21
-4.51526
0
LINE
8
BLACK
6
CONTINUOUS
10
5.94783
20
-4.51526
11
5.94783
21
-4.53789
0
LINE
8
BLACK
6
CONTINUOUS
10
5.94783
20
-4.53789
11
5.94712
21
-4.54147
0
LINE
8
BLACK
6
CONTINUOUS
10
5.94712
20
-4.54147
11
5.9451
21
-4.54451
0
LINE
8
BLACK
6
CONTINUOUS
10
5.9451
20
-4.54451
11
5.94206
21
-4.54653
0
LINE
8
BLACK
6
CONTINUOUS
10
5.94206
20
-4.54653
11
5.93848
21
-4.54724
0
LINE
8
BLACK
6
CONTINUOUS
10
5.93848
20
-4.54724
11
5.91978
21
-4.54724
0
LINE
8
BLACK
6
CONTINUOUS
10
5.91978
20
-4.54724
11
5.91621
21
-4.54653
0
LINE
8
BLACK
6
CONTINUOUS
10
5.91621
20
-4.54653
11
5.91317
21
-4.54451
0
LINE
8
BLACK
6
CONTINUOUS
10
5.91317
20
-4.54451
11
5.91114
21
-4.54147
0
LINE
8
BLACK
6
CONTINUOUS
10
5.91114
20
-4.54147
11
5.91043
21
-4.53789
0
LINE
8
BLACK
6
CONTINUOUS
10
5.91043
20
-4.53789
11
5.91043
21
-4.51526
0
LINE
8
BLACK
6
CONTINUOUS
10
5.91043
20
-4.51526
11
5.91114
21
-4.51168
0
LINE
8
BLACK
6
CONTINUOUS
10
5.91114
20
-4.51168
11
5.91317
21
-4.50864
0
LINE
8
BLACK
6
CONTINUOUS
10
5.91317
20
-4.50864
11
5.91621
21
-4.50662
0
LINE
8
BLACK
6
CONTINUOUS
10
5.91621
20
-4.50662
11
5.91978
21
-4.50591
0
LINE
8
BLACK
6
CONTINUOUS
10
5.91978
20
-4.50591
11
5.93848
21
-4.50591
0
LINE
8
BLACK
6
CONTINUOUS
10
5.93848
20
-4.50591
11
5.94206
21
-4.50662
0
LINE
8
BLACK
6
CONTINUOUS
10
6.14679
20
-4.43772
11
6.14982
21
-4.43975
0
LINE
8
BLACK
6
CONTINUOUS
10
6.14982
20
-4.43975
11
6.15185
21
-4.44278
0
LINE
8
BLACK
6
CONTINUOUS
10
6.15185
20
-4.44278
11
6.15256
21
-4.44636
0
LINE
8
BLACK
6
CONTINUOUS
10
6.15256
20
-4.44636
11
6.15256
21
-4.469
0
LINE
8
BLACK
6
CONTINUOUS
10
6.15256
20
-4.469
11
6.15185
21
-4.47257
0
LINE
8
BLACK
6
CONTINUOUS
10
6.15185
20
-4.47257
11
6.14982
21
-4.47561
0
LINE
8
BLACK
6
CONTINUOUS
10
6.14982
20
-4.47561
11
6.14679
21
-4.47763
0
LINE
8
BLACK
6
CONTINUOUS
10
6.14679
20
-4.47763
11
6.14321
21
-4.47835
0
LINE
8
BLACK
6
CONTINUOUS
10
6.14321
20
-4.47835
11
6.12451
21
-4.47835
0
LINE
8
BLACK
6
CONTINUOUS
10
6.12451
20
-4.47835
11
6.12093
21
-4.47763
0
LINE
8
BLACK
6
CONTINUOUS
10
6.12093
20
-4.47763
11
6.1179
21
-4.47561
0
LINE
8
BLACK
6
CONTINUOUS
10
6.1179
20
-4.47561
11
6.11587
21
-4.47257
0
LINE
8
BLACK
6
CONTINUOUS
10
6.11587
20
-4.47257
11
6.11516
21
-4.469
0
LINE
8
BLACK
6
CONTINUOUS
10
6.11516
20
-4.469
11
6.11516
21
-4.44636
0
LINE
8
BLACK
6
CONTINUOUS
10
6.11516
20
-4.44636
11
6.11587
21
-4.44278
0
LINE
8
BLACK
6
CONTINUOUS
10
6.11587
20
-4.44278
11
6.1179
21
-4.43975
0
LINE
8
BLACK
6
CONTINUOUS
10
6.1179
20
-4.43975
11
6.12093
21
-4.43772
0
LINE
8
BLACK
6
CONTINUOUS
10
6.12093
20
-4.43772
11
6.12451
21
-4.43701
0
LINE
8
BLACK
6
CONTINUOUS
10
6.12451
20
-4.43701
11
6.14321
21
-4.43701
0
LINE
8
BLACK
6
CONTINUOUS
10
6.14321
20
-4.43701
11
6.14679
21
-4.43772
0
LINE
8
BLACK
6
CONTINUOUS
10
5.94206
20
-4.43772
11
5.9451
21
-4.43975
0
LINE
8
BLACK
6
CONTINUOUS
10
5.9451
20
-4.43975
11
5.94712
21
-4.44278
0
LINE
8
BLACK
6
CONTINUOUS
10
5.94712
20
-4.44278
11
5.94783
21
-4.44636
0
LINE
8
BLACK
6
CONTINUOUS
10
5.94783
20
-4.44636
11
5.94783
21
-4.469
0
LINE
8
BLACK
6
CONTINUOUS
10
5.94783
20
-4.469
11
5.94712
21
-4.47257
0
LINE
8
BLACK
6
CONTINUOUS
10
5.94712
20
-4.47257
11
5.9451
21
-4.47561
0
LINE
8
BLACK
6
CONTINUOUS
10
5.9451
20
-4.47561
11
5.94206
21
-4.47763
0
LINE
8
BLACK
6
CONTINUOUS
10
5.94206
20
-4.47763
11
5.93848
21
-4.47835
0
LINE
8
BLACK
6
CONTINUOUS
10
5.93848
20
-4.47835
11
5.91978
21
-4.47835
0
LINE
8
BLACK
6
CONTINUOUS
10
5.91978
20
-4.47835
11
5.91621
21
-4.47763
0
LINE
8
BLACK
6
CONTINUOUS
10
5.91621
20
-4.47763
11
5.91317
21
-4.47561
0
LINE
8
BLACK
6
CONTINUOUS
10
5.91317
20
-4.47561
11
5.91114
21
-4.47257
0
LINE
8
BLACK
6
CONTINUOUS
10
5.91114
20
-4.47257
11
5.91043
21
-4.469
0
LINE
8
BLACK
6
CONTINUOUS
10
5.91043
20
-4.469
11
5.91043
21
-4.44636
0
LINE
8
BLACK
6
CONTINUOUS
10
5.91043
20
-4.44636
11
5.91114
21
-4.44278
0
LINE
8
BLACK
6
CONTINUOUS
10
5.91114
20
-4.44278
11
5.91317
21
-4.43975
0
LINE
8
BLACK
6
CONTINUOUS
10
5.91317
20
-4.43975
11
5.91621
21
-4.43772
0
LINE
8
BLACK
6
CONTINUOUS
10
5.91621
20
-4.43772
11
5.91978
21
-4.43701
0
LINE
8
BLACK
6
CONTINUOUS
10
5.91978
20
-4.43701
11
5.93848
21
-4.43701
0
LINE
8
BLACK
6
CONTINUOUS
10
5.93848
20
-4.43701
11
5.94206
21
-4.43772
0
LINE
8
BLACK
6
CONTINUOUS
10
7.04049
20
-4.43181
11
7.04352
21
-4.43384
0
LINE
8
BLACK
6
CONTINUOUS
10
7.04352
20
-4.43384
11
7.04555
21
-4.43687
0
LINE
8
BLACK
6
CONTINUOUS
10
7.04555
20
-4.43687
11
7.04626
21
-4.44045
0
LINE
8
BLACK
6
CONTINUOUS
10
7.04626
20
-4.44045
11
7.04626
21
-4.46309
0
LINE
8
BLACK
6
CONTINUOUS
10
7.04626
20
-4.46309
11
7.04555
21
-4.46667
0
LINE
8
BLACK
6
CONTINUOUS
10
7.04555
20
-4.46667
11
7.04352
21
-4.4697
0
LINE
8
BLACK
6
CONTINUOUS
10
7.04352
20
-4.4697
11
7.04049
21
-4.47173
0
LINE
8
BLACK
6
CONTINUOUS
10
7.04049
20
-4.47173
11
7.03691
21
-4.47244
0
LINE
8
BLACK
6
CONTINUOUS
10
7.03691
20
-4.47244
11
7.01821
21
-4.47244
0
LINE
8
BLACK
6
CONTINUOUS
10
7.01821
20
-4.47244
11
7.01463
21
-4.47173
0
LINE
8
BLACK
6
CONTINUOUS
10
7.01463
20
-4.47173
11
7.0116
21
-4.4697
0
LINE
8
BLACK
6
CONTINUOUS
10
7.0116
20
-4.4697
11
7.00957
21
-4.46667
0
LINE
8
BLACK
6
CONTINUOUS
10
7.00957
20
-4.46667
11
7.00886
21
-4.46309
0
LINE
8
BLACK
6
CONTINUOUS
10
7.00886
20
-4.46309
11
7.00886
21
-4.44045
0
LINE
8
BLACK
6
CONTINUOUS
10
7.00886
20
-4.44045
11
7.00957
21
-4.43687
0
LINE
8
BLACK
6
CONTINUOUS
10
7.00957
20
-4.43687
11
7.0116
21
-4.43384
0
LINE
8
BLACK
6
CONTINUOUS
10
7.0116
20
-4.43384
11
7.01463
21
-4.43181
0
LINE
8
BLACK
6
CONTINUOUS
10
7.01463
20
-4.43181
11
7.01821
21
-4.4311
0
LINE
8
BLACK
6
CONTINUOUS
10
7.01821
20
-4.4311
11
7.03691
21
-4.4311
0
LINE
8
BLACK
6
CONTINUOUS
10
7.03691
20
-4.4311
11
7.04049
21
-4.43181
0
LINE
8
BLACK
6
CONTINUOUS
10
7.19797
20
-4.43181
11
7.201
21
-4.43384
0
LINE
8
BLACK
6
CONTINUOUS
10
7.201
20
-4.43384
11
7.20303
21
-4.43687
0
LINE
8
BLACK
6
CONTINUOUS
10
7.20303
20
-4.43687
11
7.20374
21
-4.44045
0
LINE
8
BLACK
6
CONTINUOUS
10
7.20374
20
-4.44045
11
7.20374
21
-4.46309
0
LINE
8
BLACK
6
CONTINUOUS
10
7.20374
20
-4.46309
11
7.20303
21
-4.46667
0
LINE
8
BLACK
6
CONTINUOUS
10
7.20303
20
-4.46667
11
7.201
21
-4.4697
0
LINE
8
BLACK
6
CONTINUOUS
10
7.201
20
-4.4697
11
7.19797
21
-4.47173
0
LINE
8
BLACK
6
CONTINUOUS
10
7.19797
20
-4.47173
11
7.19439
21
-4.47244
0
LINE
8
BLACK
6
CONTINUOUS
10
7.19439
20
-4.47244
11
7.17569
21
-4.47244
0
LINE
8
BLACK
6
CONTINUOUS
10
7.17569
20
-4.47244
11
7.17211
21
-4.47173
0
LINE
8
BLACK
6
CONTINUOUS
10
7.17211
20
-4.47173
11
7.16908
21
-4.4697
0
LINE
8
BLACK
6
CONTINUOUS
10
7.16908
20
-4.4697
11
7.16705
21
-4.46667
0
LINE
8
BLACK
6
CONTINUOUS
10
7.16705
20
-4.46667
11
7.16634
21
-4.46309
0
LINE
8
BLACK
6
CONTINUOUS
10
7.16634
20
-4.46309
11
7.16634
21
-4.44045
0
LINE
8
BLACK
6
CONTINUOUS
10
7.16634
20
-4.44045
11
7.16705
21
-4.43687
0
LINE
8
BLACK
6
CONTINUOUS
10
7.16705
20
-4.43687
11
7.16908
21
-4.43384
0
LINE
8
BLACK
6
CONTINUOUS
10
7.16908
20
-4.43384
11
7.17211
21
-4.43181
0
LINE
8
BLACK
6
CONTINUOUS
10
7.17211
20
-4.43181
11
7.17569
21
-4.4311
0
LINE
8
BLACK
6
CONTINUOUS
10
7.17569
20
-4.4311
11
7.19439
21
-4.4311
0
LINE
8
BLACK
6
CONTINUOUS
10
7.19439
20
-4.4311
11
7.19797
21
-4.43181
0
LINE
8
BLACK
6
CONTINUOUS
10
6.76096
20
-4.43181
11
6.76399
21
-4.43384
0
LINE
8
BLACK
6
CONTINUOUS
10
6.76399
20
-4.43384
11
6.76602
21
-4.43687
0
LINE
8
BLACK
6
CONTINUOUS
10
6.76602
20
-4.43687
11
6.76673
21
-4.44045
0
LINE
8
BLACK
6
CONTINUOUS
10
6.76673
20
-4.44045
11
6.76673
21
-4.46309
0
LINE
8
BLACK
6
CONTINUOUS
10
6.76673
20
-4.46309
11
6.76602
21
-4.46667
0
LINE
8
BLACK
6
CONTINUOUS
10
6.76602
20
-4.46667
11
6.76399
21
-4.4697
0
LINE
8
BLACK
6
CONTINUOUS
10
6.76399
20
-4.4697
11
6.76096
21
-4.47173
0
LINE
8
BLACK
6
CONTINUOUS
10
6.76096
20
-4.47173
11
6.75738
21
-4.47244
0
LINE
8
BLACK
6
CONTINUOUS
10
6.75738
20
-4.47244
11
6.73868
21
-4.47244
0
LINE
8
BLACK
6
CONTINUOUS
10
6.73868
20
-4.47244
11
6.7351
21
-4.47173
0
LINE
8
BLACK
6
CONTINUOUS
10
6.7351
20
-4.47173
11
6.73207
21
-4.4697
0
LINE
8
BLACK
6
CONTINUOUS
10
6.73207
20
-4.4697
11
6.73004
21
-4.46667
0
LINE
8
BLACK
6
CONTINUOUS
10
6.73004
20
-4.46667
11
6.72933
21
-4.46309
0
LINE
8
BLACK
6
CONTINUOUS
10
6.72933
20
-4.46309
11
6.72933
21
-4.44045
0
LINE
8
BLACK
6
CONTINUOUS
10
6.72933
20
-4.44045
11
6.73004
21
-4.43687
0
LINE
8
BLACK
6
CONTINUOUS
10
6.73004
20
-4.43687
11
6.73207
21
-4.43384
0
LINE
8
BLACK
6
CONTINUOUS
10
6.73207
20
-4.43384
11
6.7351
21
-4.43181
0
LINE
8
BLACK
6
CONTINUOUS
10
6.7351
20
-4.43181
11
6.73868
21
-4.4311
0
LINE
8
BLACK
6
CONTINUOUS
10
6.73868
20
-4.4311
11
6.75738
21
-4.4311
0
LINE
8
BLACK
6
CONTINUOUS
10
6.75738
20
-4.4311
11
6.76096
21
-4.43181
0
LINE
8
BLACK
6
CONTINUOUS
10
6.28852
20
-4.37965
11
6.29155
21
-4.38168
0
LINE
8
BLACK
6
CONTINUOUS
10
6.29155
20
-4.38168
11
6.29358
21
-4.38471
0
LINE
8
BLACK
6
CONTINUOUS
10
6.29358
20
-4.38471
11
6.29429
21
-4.38829
0
LINE
8
BLACK
6
CONTINUOUS
10
6.29429
20
-4.38829
11
6.29429
21
-4.40699
0
LINE
8
BLACK
6
CONTINUOUS
10
6.29429
20
-4.40699
11
6.29358
21
-4.41057
0
LINE
8
BLACK
6
CONTINUOUS
10
6.29358
20
-4.41057
11
6.29155
21
-4.4136
0
LINE
8
BLACK
6
CONTINUOUS
10
6.29155
20
-4.4136
11
6.28852
21
-4.41563
0
LINE
8
BLACK
6
CONTINUOUS
10
6.28852
20
-4.41563
11
6.28494
21
-4.41634
0
LINE
8
BLACK
6
CONTINUOUS
10
6.28494
20
-4.41634
11
6.2623
21
-4.41634
0
LINE
8
BLACK
6
CONTINUOUS
10
6.2623
20
-4.41634
11
6.25872
21
-4.41563
0
LINE
8
BLACK
6
CONTINUOUS
10
6.25872
20
-4.41563
11
6.25569
21
-4.4136
0
LINE
8
BLACK
6
CONTINUOUS
10
6.25569
20
-4.4136
11
6.25366
21
-4.41057
0
LINE
8
BLACK
6
CONTINUOUS
10
6.25366
20
-4.41057
11
6.25295
21
-4.40699
0
LINE
8
BLACK
6
CONTINUOUS
10
6.25295
20
-4.40699
11
6.25295
21
-4.38829
0
LINE
8
BLACK
6
CONTINUOUS
10
6.25295
20
-4.38829
11
6.25366
21
-4.38471
0
LINE
8
BLACK
6
CONTINUOUS
10
6.25366
20
-4.38471
11
6.25569
21
-4.38168
0
LINE
8
BLACK
6
CONTINUOUS
10
6.25569
20
-4.38168
11
6.25872
21
-4.37965
0
LINE
8
BLACK
6
CONTINUOUS
10
6.25872
20
-4.37965
11
6.2623
21
-4.37894
0
LINE
8
BLACK
6
CONTINUOUS
10
6.2623
20
-4.37894
11
6.28494
21
-4.37894
0
LINE
8
BLACK
6
CONTINUOUS
10
6.28494
20
-4.37894
11
6.28852
21
-4.37965
0
LINE
8
BLACK
6
CONTINUOUS
10
6.21962
20
-4.37965
11
6.22266
21
-4.38168
0
LINE
8
BLACK
6
CONTINUOUS
10
6.22266
20
-4.38168
11
6.22468
21
-4.38471
0
LINE
8
BLACK
6
CONTINUOUS
10
6.22468
20
-4.38471
11
6.22539
21
-4.38829
0
LINE
8
BLACK
6
CONTINUOUS
10
6.22539
20
-4.38829
11
6.22539
21
-4.40699
0
LINE
8
BLACK
6
CONTINUOUS
10
6.22539
20
-4.40699
11
6.22468
21
-4.41057
0
LINE
8
BLACK
6
CONTINUOUS
10
6.22468
20
-4.41057
11
6.22266
21
-4.4136
0
LINE
8
BLACK
6
CONTINUOUS
10
6.22266
20
-4.4136
11
6.21962
21
-4.41563
0
LINE
8
BLACK
6
CONTINUOUS
10
6.21962
20
-4.41563
11
6.21604
21
-4.41634
0
LINE
8
BLACK
6
CONTINUOUS
10
6.21604
20
-4.41634
11
6.19341
21
-4.41634
0
LINE
8
BLACK
6
CONTINUOUS
10
6.19341
20
-4.41634
11
6.18983
21
-4.41563
0
LINE
8
BLACK
6
CONTINUOUS
10
6.18983
20
-4.41563
11
6.18679
21
-4.4136
0
LINE
8
BLACK
6
CONTINUOUS
10
6.18679
20
-4.4136
11
6.18477
21
-4.41057
0
LINE
8
BLACK
6
CONTINUOUS
10
6.18477
20
-4.41057
11
6.18406
21
-4.40699
0
LINE
8
BLACK
6
CONTINUOUS
10
6.18406
20
-4.40699
11
6.18406
21
-4.38829
0
LINE
8
BLACK
6
CONTINUOUS
10
6.18406
20
-4.38829
11
6.18477
21
-4.38471
0
LINE
8
BLACK
6
CONTINUOUS
10
6.18477
20
-4.38471
11
6.18679
21
-4.38168
0
LINE
8
BLACK
6
CONTINUOUS
10
6.18679
20
-4.38168
11
6.18983
21
-4.37965
0
LINE
8
BLACK
6
CONTINUOUS
10
6.18983
20
-4.37965
11
6.19341
21
-4.37894
0
LINE
8
BLACK
6
CONTINUOUS
10
6.19341
20
-4.37894
11
6.21604
21
-4.37894
0
LINE
8
BLACK
6
CONTINUOUS
10
6.21604
20
-4.37894
11
6.21962
21
-4.37965
0
LINE
8
BLACK
6
CONTINUOUS
10
7.04049
20
-4.36292
11
7.04352
21
-4.36494
0
LINE
8
BLACK
6
CONTINUOUS
10
7.04352
20
-4.36494
11
7.04555
21
-4.36798
0
LINE
8
BLACK
6
CONTINUOUS
10
7.04555
20
-4.36798
11
7.04626
21
-4.37156
0
LINE
8
BLACK
6
CONTINUOUS
10
7.04626
20
-4.37156
11
7.04626
21
-4.39419
0
LINE
8
BLACK
6
CONTINUOUS
10
7.04626
20
-4.39419
11
7.04555
21
-4.39777
0
LINE
8
BLACK
6
CONTINUOUS
10
7.04555
20
-4.39777
11
7.04352
21
-4.4008
0
LINE
8
BLACK
6
CONTINUOUS
10
7.04352
20
-4.4008
11
7.04049
21
-4.40283
0
LINE
8
BLACK
6
CONTINUOUS
10
7.04049
20
-4.40283
11
7.03691
21
-4.40354
0
LINE
8
BLACK
6
CONTINUOUS
10
7.03691
20
-4.40354
11
7.01821
21
-4.40354
0
LINE
8
BLACK
6
CONTINUOUS
10
7.01821
20
-4.40354
11
7.01463
21
-4.40283
0
LINE
8
BLACK
6
CONTINUOUS
10
7.01463
20
-4.40283
11
7.0116
21
-4.4008
0
LINE
8
BLACK
6
CONTINUOUS
10
7.0116
20
-4.4008
11
7.00957
21
-4.39777
0
LINE
8
BLACK
6
CONTINUOUS
10
7.00957
20
-4.39777
11
7.00886
21
-4.39419
0
LINE
8
BLACK
6
CONTINUOUS
10
7.00886
20
-4.39419
11
7.00886
21
-4.37156
0
LINE
8
BLACK
6
CONTINUOUS
10
7.00886
20
-4.37156
11
7.00957
21
-4.36798
0
LINE
8
BLACK
6
CONTINUOUS
10
7.00957
20
-4.36798
11
7.0116
21
-4.36494
0
LINE
8
BLACK
6
CONTINUOUS
10
7.0116
20
-4.36494
11
7.01463
21
-4.36292
0
LINE
8
BLACK
6
CONTINUOUS
10
7.01463
20
-4.36292
11
7.01821
21
-4.3622
0
LINE
8
BLACK
6
CONTINUOUS
10
7.01821
20
-4.3622
11
7.03691
21
-4.3622
0
LINE
8
BLACK
6
CONTINUOUS
10
7.03691
20
-4.3622
11
7.04049
21
-4.36292
0
LINE
8
BLACK
6
CONTINUOUS
10
6.76096
20
-4.36292
11
6.76399
21
-4.36494
0
LINE
8
BLACK
6
CONTINUOUS
10
6.76399
20
-4.36494
11
6.76602
21
-4.36798
0
LINE
8
BLACK
6
CONTINUOUS
10
6.76602
20
-4.36798
11
6.76673
21
-4.37156
0
LINE
8
BLACK
6
CONTINUOUS
10
6.76673
20
-4.37156
11
6.76673
21
-4.39419
0
LINE
8
BLACK
6
CONTINUOUS
10
6.76673
20
-4.39419
11
6.76602
21
-4.39777
0
LINE
8
BLACK
6
CONTINUOUS
10
6.76602
20
-4.39777
11
6.76399
21
-4.4008
0
LINE
8
BLACK
6
CONTINUOUS
10
6.76399
20
-4.4008
11
6.76096
21
-4.40283
0
LINE
8
BLACK
6
CONTINUOUS
10
6.76096
20
-4.40283
11
6.75738
21
-4.40354
0
LINE
8
BLACK
6
CONTINUOUS
10
6.75738
20
-4.40354
11
6.73868
21
-4.40354
0
LINE
8
BLACK
6
CONTINUOUS
10
6.73868
20
-4.40354
11
6.7351
21
-4.40283
0
LINE
8
BLACK
6
CONTINUOUS
10
6.7351
20
-4.40283
11
6.73207
21
-4.4008
0
LINE
8
BLACK
6
CONTINUOUS
10
6.73207
20
-4.4008
11
6.73004
21
-4.39777
0
LINE
8
BLACK
6
CONTINUOUS
10
6.73004
20
-4.39777
11
6.72933
21
-4.39419
0
LINE
8
BLACK
6
CONTINUOUS
10
6.72933
20
-4.39419
11
6.72933
21
-4.37156
0
LINE
8
BLACK
6
CONTINUOUS
10
6.72933
20
-4.37156
11
6.73004
21
-4.36798
0
LINE
8
BLACK
6
CONTINUOUS
10
6.73004
20
-4.36798
11
6.73207
21
-4.36494
0
LINE
8
BLACK
6
CONTINUOUS
10
6.73207
20
-4.36494
11
6.7351
21
-4.36292
0
LINE
8
BLACK
6
CONTINUOUS
10
6.7351
20
-4.36292
11
6.73868
21
-4.3622
0
LINE
8
BLACK
6
CONTINUOUS
10
6.73868
20
-4.3622
11
6.75738
21
-4.3622
0
LINE
8
BLACK
6
CONTINUOUS
10
6.75738
20
-4.3622
11
6.76096
21
-4.36292
0
LINE
8
BLACK
6
CONTINUOUS
10
7.19797
20
-4.36292
11
7.201
21
-4.36494
0
LINE
8
BLACK
6
CONTINUOUS
10
7.201
20
-4.36494
11
7.20303
21
-4.36798
0
LINE
8
BLACK
6
CONTINUOUS
10
7.20303
20
-4.36798
11
7.20374
21
-4.37156
0
LINE
8
BLACK
6
CONTINUOUS
10
7.20374
20
-4.37156
11
7.20374
21
-4.39419
0
LINE
8
BLACK
6
CONTINUOUS
10
7.20374
20
-4.39419
11
7.20303
21
-4.39777
0
LINE
8
BLACK
6
CONTINUOUS
10
7.20303
20
-4.39777
11
7.201
21
-4.4008
0
LINE
8
BLACK
6
CONTINUOUS
10
7.201
20
-4.4008
11
7.19797
21
-4.40283
0
LINE
8
BLACK
6
CONTINUOUS
10
7.19797
20
-4.40283
11
7.19439
21
-4.40354
0
LINE
8
BLACK
6
CONTINUOUS
10
7.19439
20
-4.40354
11
7.17569
21
-4.40354
0
LINE
8
BLACK
6
CONTINUOUS
10
7.17569
20
-4.40354
11
7.17211
21
-4.40283
0
LINE
8
BLACK
6
CONTINUOUS
10
7.17211
20
-4.40283
11
7.16908
21
-4.4008
0
LINE
8
BLACK
6
CONTINUOUS
10
7.16908
20
-4.4008
11
7.16705
21
-4.39777
0
LINE
8
BLACK
6
CONTINUOUS
10
7.16705
20
-4.39777
11
7.16634
21
-4.39419
0
LINE
8
BLACK
6
CONTINUOUS
10
7.16634
20
-4.39419
11
7.16634
21
-4.37156
0
LINE
8
BLACK
6
CONTINUOUS
10
7.16634
20
-4.37156
11
7.16705
21
-4.36798
0
LINE
8
BLACK
6
CONTINUOUS
10
7.16705
20
-4.36798
11
7.16908
21
-4.36494
0
LINE
8
BLACK
6
CONTINUOUS
10
7.16908
20
-4.36494
11
7.17211
21
-4.36292
0
LINE
8
BLACK
6
CONTINUOUS
10
7.17211
20
-4.36292
11
7.17569
21
-4.3622
0
LINE
8
BLACK
6
CONTINUOUS
10
7.17569
20
-4.3622
11
7.19439
21
-4.3622
0
LINE
8
BLACK
6
CONTINUOUS
10
7.19439
20
-4.3622
11
7.19797
21
-4.36292
0
LINE
8
BLACK
6
CONTINUOUS
10
6.82691
20
-4.3639
11
6.82994
21
-4.36593
0
LINE
8
BLACK
6
CONTINUOUS
10
6.82994
20
-4.36593
11
6.83197
21
-4.36896
0
LINE
8
BLACK
6
CONTINUOUS
10
6.83197
20
-4.36896
11
6.83268
21
-4.37254
0
LINE
8
BLACK
6
CONTINUOUS
10
6.83268
20
-4.37254
11
6.83268
21
-4.39124
0
LINE
8
BLACK
6
CONTINUOUS
10
6.83268
20
-4.39124
11
6.83197
21
-4.39482
0
LINE
8
BLACK
6
CONTINUOUS
10
6.83197
20
-4.39482
11
6.82994
21
-4.39785
0
LINE
8
BLACK
6
CONTINUOUS
10
6.82994
20
-4.39785
11
6.82691
21
-4.39988
0
LINE
8
BLACK
6
CONTINUOUS
10
6.82691
20
-4.39988
11
6.82333
21
-4.40059
0
LINE
8
BLACK
6
CONTINUOUS
10
6.82333
20
-4.40059
11
6.80069
21
-4.40059
0
LINE
8
BLACK
6
CONTINUOUS
10
6.80069
20
-4.40059
11
6.79711
21
-4.39988
0
LINE
8
BLACK
6
CONTINUOUS
10
6.79711
20
-4.39988
11
6.79408
21
-4.39785
0
LINE
8
BLACK
6
CONTINUOUS
10
6.79408
20
-4.39785
11
6.79205
21
-4.39482
0
LINE
8
BLACK
6
CONTINUOUS
10
6.79205
20
-4.39482
11
6.79134
21
-4.39124
0
LINE
8
BLACK
6
CONTINUOUS
10
6.79134
20
-4.39124
11
6.79134
21
-4.37254
0
LINE
8
BLACK
6
CONTINUOUS
10
6.79134
20
-4.37254
11
6.79205
21
-4.36896
0
LINE
8
BLACK
6
CONTINUOUS
10
6.79205
20
-4.36896
11
6.79408
21
-4.36593
0
LINE
8
BLACK
6
CONTINUOUS
10
6.79408
20
-4.36593
11
6.79711
21
-4.3639
0
LINE
8
BLACK
6
CONTINUOUS
10
6.79711
20
-4.3639
11
6.80069
21
-4.36319
0
LINE
8
BLACK
6
CONTINUOUS
10
6.80069
20
-4.36319
11
6.82333
21
-4.36319
0
LINE
8
BLACK
6
CONTINUOUS
10
6.82333
20
-4.36319
11
6.82691
21
-4.3639
0
LINE
8
BLACK
6
CONTINUOUS
10
6.8958
20
-4.3639
11
6.89884
21
-4.36593
0
LINE
8
BLACK
6
CONTINUOUS
10
6.89884
20
-4.36593
11
6.90086
21
-4.36896
0
LINE
8
BLACK
6
CONTINUOUS
10
6.90086
20
-4.36896
11
6.90157
21
-4.37254
0
LINE
8
BLACK
6
CONTINUOUS
10
6.90157
20
-4.37254
11
6.90157
21
-4.39124
0
LINE
8
BLACK
6
CONTINUOUS
10
6.90157
20
-4.39124
11
6.90086
21
-4.39482
0
LINE
8
BLACK
6
CONTINUOUS
10
6.90086
20
-4.39482
11
6.89884
21
-4.39785
0
LINE
8
BLACK
6
CONTINUOUS
10
6.89884
20
-4.39785
11
6.8958
21
-4.39988
0
LINE
8
BLACK
6
CONTINUOUS
10
6.8958
20
-4.39988
11
6.89222
21
-4.40059
0
LINE
8
BLACK
6
CONTINUOUS
10
6.89222
20
-4.40059
11
6.86959
21
-4.40059
0
LINE
8
BLACK
6
CONTINUOUS
10
6.86959
20
-4.40059
11
6.86601
21
-4.39988
0
LINE
8
BLACK
6
CONTINUOUS
10
6.86601
20
-4.39988
11
6.86297
21
-4.39785
0
LINE
8
BLACK
6
CONTINUOUS
10
6.86297
20
-4.39785
11
6.86095
21
-4.39482
0
LINE
8
BLACK
6
CONTINUOUS
10
6.86095
20
-4.39482
11
6.86024
21
-4.39124
0
LINE
8
BLACK
6
CONTINUOUS
10
6.86024
20
-4.39124
11
6.86024
21
-4.37254
0
LINE
8
BLACK
6
CONTINUOUS
10
6.86024
20
-4.37254
11
6.86095
21
-4.36896
0
LINE
8
BLACK
6
CONTINUOUS
10
6.86095
20
-4.36896
11
6.86297
21
-4.36593
0
LINE
8
BLACK
6
CONTINUOUS
10
6.86297
20
-4.36593
11
6.86601
21
-4.3639
0
LINE
8
BLACK
6
CONTINUOUS
10
6.86601
20
-4.3639
11
6.86959
21
-4.36319
0
LINE
8
BLACK
6
CONTINUOUS
10
6.86959
20
-4.36319
11
6.89222
21
-4.36319
0
LINE
8
BLACK
6
CONTINUOUS
10
6.89222
20
-4.36319
11
6.8958
21
-4.3639
0
LINE
8
BLACK
6
CONTINUOUS
10
7.13342
20
-4.36973
11
7.13531
21
-4.37099
0
LINE
8
BLACK
6
CONTINUOUS
10
7.13531
20
-4.37099
11
7.13657
21
-4.37288
0
LINE
8
BLACK
6
CONTINUOUS
10
7.13657
20
-4.37288
11
7.13701
21
-4.3751
0
LINE
8
BLACK
6
CONTINUOUS
10
7.13701
20
-4.3751
11
7.13701
21
-4.38868
0
LINE
8
BLACK
6
CONTINUOUS
10
7.13701
20
-4.38868
11
7.13657
21
-4.3909
0
LINE
8
BLACK
6
CONTINUOUS
10
7.13657
20
-4.3909
11
7.13531
21
-4.39279
0
LINE
8
BLACK
6
CONTINUOUS
10
7.13531
20
-4.39279
11
7.13342
21
-4.39405
0
LINE
8
BLACK
6
CONTINUOUS
10
7.13342
20
-4.39405
11
7.1312
21
-4.39449
0
LINE
8
BLACK
6
CONTINUOUS
10
7.1312
20
-4.39449
11
7.11959
21
-4.39449
0
LINE
8
BLACK
6
CONTINUOUS
10
7.11959
20
-4.39449
11
7.11736
21
-4.39405
0
LINE
8
BLACK
6
CONTINUOUS
10
7.11736
20
-4.39405
11
7.11548
21
-4.39279
0
LINE
8
BLACK
6
CONTINUOUS
10
7.11548
20
-4.39279
11
7.11422
21
-4.3909
0
LINE
8
BLACK
6
CONTINUOUS
10
7.11422
20
-4.3909
11
7.11378
21
-4.38868
0
LINE
8
BLACK
6
CONTINUOUS
10
7.11378
20
-4.38868
11
7.11378
21
-4.3751
0
LINE
8
BLACK
6
CONTINUOUS
10
7.11378
20
-4.3751
11
7.11422
21
-4.37288
0
LINE
8
BLACK
6
CONTINUOUS
10
7.11422
20
-4.37288
11
7.11548
21
-4.37099
0
LINE
8
BLACK
6
CONTINUOUS
10
7.11548
20
-4.37099
11
7.11736
21
-4.36973
0
LINE
8
BLACK
6
CONTINUOUS
10
7.11736
20
-4.36973
11
7.11959
21
-4.36929
0
LINE
8
BLACK
6
CONTINUOUS
10
7.11959
20
-4.36929
11
7.1312
21
-4.36929
0
LINE
8
BLACK
6
CONTINUOUS
10
7.1312
20
-4.36929
11
7.13342
21
-4.36973
0
LINE
8
BLACK
6
CONTINUOUS
10
7.09523
20
-4.36973
11
7.09712
21
-4.37099
0
LINE
8
BLACK
6
CONTINUOUS
10
7.09712
20
-4.37099
11
7.09838
21
-4.37288
0
LINE
8
BLACK
6
CONTINUOUS
10
7.09838
20
-4.37288
11
7.09882
21
-4.3751
0
LINE
8
BLACK
6
CONTINUOUS
10
7.09882
20
-4.3751
11
7.09882
21
-4.38868
0
LINE
8
BLACK
6
CONTINUOUS
10
7.09882
20
-4.38868
11
7.09838
21
-4.3909
0
LINE
8
BLACK
6
CONTINUOUS
10
7.09838
20
-4.3909
11
7.09712
21
-4.39279
0
LINE
8
BLACK
6
CONTINUOUS
10
7.09712
20
-4.39279
11
7.09523
21
-4.39405
0
LINE
8
BLACK
6
CONTINUOUS
10
7.09523
20
-4.39405
11
7.09301
21
-4.39449
0
LINE
8
BLACK
6
CONTINUOUS
10
7.09301
20
-4.39449
11
7.0814
21
-4.39449
0
LINE
8
BLACK
6
CONTINUOUS
10
7.0814
20
-4.39449
11
7.07918
21
-4.39405
0
LINE
8
BLACK
6
CONTINUOUS
10
7.07918
20
-4.39405
11
7.07729
21
-4.39279
0
LINE
8
BLACK
6
CONTINUOUS
10
7.07729
20
-4.39279
11
7.07603
21
-4.3909
0
LINE
8
BLACK
6
CONTINUOUS
10
7.07603
20
-4.3909
11
7.07559
21
-4.38868
0
LINE
8
BLACK
6
CONTINUOUS
10
7.07559
20
-4.38868
11
7.07559
21
-4.3751
0
LINE
8
BLACK
6
CONTINUOUS
10
7.07559
20
-4.3751
11
7.07603
21
-4.37288
0
LINE
8
BLACK
6
CONTINUOUS
10
7.07603
20
-4.37288
11
7.07729
21
-4.37099
0
LINE
8
BLACK
6
CONTINUOUS
10
7.07729
20
-4.37099
11
7.07918
21
-4.36973
0
LINE
8
BLACK
6
CONTINUOUS
10
7.07918
20
-4.36973
11
7.0814
21
-4.36929
0
LINE
8
BLACK
6
CONTINUOUS
10
7.0814
20
-4.36929
11
7.09301
21
-4.36929
0
LINE
8
BLACK
6
CONTINUOUS
10
7.09301
20
-4.36929
11
7.09523
21
-4.36973
0
LINE
8
BLACK
6
CONTINUOUS
10
6.66216
20
-4.36973
11
6.66405
21
-4.37099
0
LINE
8
BLACK
6
CONTINUOUS
10
6.66405
20
-4.37099
11
6.66531
21
-4.37288
0
LINE
8
BLACK
6
CONTINUOUS
10
6.66531
20
-4.37288
11
6.66575
21
-4.3751
0
LINE
8
BLACK
6
CONTINUOUS
10
6.66575
20
-4.3751
11
6.66575
21
-4.38868
0
LINE
8
BLACK
6
CONTINUOUS
10
6.66575
20
-4.38868
11
6.66531
21
-4.3909
0
LINE
8
BLACK
6
CONTINUOUS
10
6.66531
20
-4.3909
11
6.66405
21
-4.39279
0
LINE
8
BLACK
6
CONTINUOUS
10
6.66405
20
-4.39279
11
6.66216
21
-4.39405
0
LINE
8
BLACK
6
CONTINUOUS
10
6.66216
20
-4.39405
11
6.65994
21
-4.39449
0
LINE
8
BLACK
6
CONTINUOUS
10
6.65994
20
-4.39449
11
6.64833
21
-4.39449
0
LINE
8
BLACK
6
CONTINUOUS
10
6.64833
20
-4.39449
11
6.6461
21
-4.39405
0
LINE
8
BLACK
6
CONTINUOUS
10
6.6461
20
-4.39405
11
6.64422
21
-4.39279
0
LINE
8
BLACK
6
CONTINUOUS
10
6.64422
20
-4.39279
11
6.64296
21
-4.3909
0
LINE
8
BLACK
6
CONTINUOUS
10
6.64296
20
-4.3909
11
6.64252
21
-4.38868
0
LINE
8
BLACK
6
CONTINUOUS
10
6.64252
20
-4.38868
11
6.64252
21
-4.3751
0
LINE
8
BLACK
6
CONTINUOUS
10
6.64252
20
-4.3751
11
6.64296
21
-4.37288
0
LINE
8
BLACK
6
CONTINUOUS
10
6.64296
20
-4.37288
11
6.64422
21
-4.37099
0
LINE
8
BLACK
6
CONTINUOUS
10
6.64422
20
-4.37099
11
6.6461
21
-4.36973
0
LINE
8
BLACK
6
CONTINUOUS
10
6.6461
20
-4.36973
11
6.64833
21
-4.36929
0
LINE
8
BLACK
6
CONTINUOUS
10
6.64833
20
-4.36929
11
6.65994
21
-4.36929
0
LINE
8
BLACK
6
CONTINUOUS
10
6.65994
20
-4.36929
11
6.66216
21
-4.36973
0
LINE
8
BLACK
6
CONTINUOUS
10
6.70035
20
-4.36973
11
6.70224
21
-4.37099
0
LINE
8
BLACK
6
CONTINUOUS
10
6.70224
20
-4.37099
11
6.70349
21
-4.37288
0
LINE
8
BLACK
6
CONTINUOUS
10
6.70349
20
-4.37288
11
6.70394
21
-4.3751
0
LINE
8
BLACK
6
CONTINUOUS
10
6.70394
20
-4.3751
11
6.70394
21
-4.38868
0
LINE
8
BLACK
6
CONTINUOUS
10
6.70394
20
-4.38868
11
6.70349
21
-4.3909
0
LINE
8
BLACK
6
CONTINUOUS
10
6.70349
20
-4.3909
11
6.70224
21
-4.39279
0
LINE
8
BLACK
6
CONTINUOUS
10
6.70224
20
-4.39279
11
6.70035
21
-4.39405
0
LINE
8
BLACK
6
CONTINUOUS
10
6.70035
20
-4.39405
11
6.69813
21
-4.39449
0
LINE
8
BLACK
6
CONTINUOUS
10
6.69813
20
-4.39449
11
6.68652
21
-4.39449
0
LINE
8
BLACK
6
CONTINUOUS
10
6.68652
20
-4.39449
11
6.68429
21
-4.39405
0
LINE
8
BLACK
6
CONTINUOUS
10
6.68429
20
-4.39405
11
6.68241
21
-4.39279
0
LINE
8
BLACK
6
CONTINUOUS
10
6.68241
20
-4.39279
11
6.68115
21
-4.3909
0
LINE
8
BLACK
6
CONTINUOUS
10
6.68115
20
-4.3909
11
6.68071
21
-4.38868
0
LINE
8
BLACK
6
CONTINUOUS
10
6.68071
20
-4.38868
11
6.68071
21
-4.3751
0
LINE
8
BLACK
6
CONTINUOUS
10
6.68071
20
-4.3751
11
6.68115
21
-4.37288
0
LINE
8
BLACK
6
CONTINUOUS
10
6.68115
20
-4.37288
11
6.68241
21
-4.37099
0
LINE
8
BLACK
6
CONTINUOUS
10
6.68241
20
-4.37099
11
6.68429
21
-4.36973
0
LINE
8
BLACK
6
CONTINUOUS
10
6.68429
20
-4.36973
11
6.68652
21
-4.36929
0
LINE
8
BLACK
6
CONTINUOUS
10
6.68652
20
-4.36929
11
6.69813
21
-4.36929
0
LINE
8
BLACK
6
CONTINUOUS
10
6.69813
20
-4.36929
11
6.70035
21
-4.36973
0
LINE
8
BLACK
6
CONTINUOUS
10
6.21962
20
-4.31272
11
6.22266
21
-4.31475
0
LINE
8
BLACK
6
CONTINUOUS
10
6.22266
20
-4.31475
11
6.22468
21
-4.31778
0
LINE
8
BLACK
6
CONTINUOUS
10
6.22468
20
-4.31778
11
6.22539
21
-4.32136
0
LINE
8
BLACK
6
CONTINUOUS
10
6.22539
20
-4.32136
11
6.22539
21
-4.34006
0
LINE
8
BLACK
6
CONTINUOUS
10
6.22539
20
-4.34006
11
6.22468
21
-4.34364
0
LINE
8
BLACK
6
CONTINUOUS
10
6.22468
20
-4.34364
11
6.22266
21
-4.34667
0
LINE
8
BLACK
6
CONTINUOUS
10
6.22266
20
-4.34667
11
6.21962
21
-4.3487
0
LINE
8
BLACK
6
CONTINUOUS
10
6.21962
20
-4.3487
11
6.21604
21
-4.34941
0
LINE
8
BLACK
6
CONTINUOUS
10
6.21604
20
-4.34941
11
6.19341
21
-4.34941
0
LINE
8
BLACK
6
CONTINUOUS
10
6.19341
20
-4.34941
11
6.18983
21
-4.3487
0
LINE
8
BLACK
6
CONTINUOUS
10
6.18983
20
-4.3487
11
6.18679
21
-4.34667
0
LINE
8
BLACK
6
CONTINUOUS
10
6.18679
20
-4.34667
11
6.18477
21
-4.34364
0
LINE
8
BLACK
6
CONTINUOUS
10
6.18477
20
-4.34364
11
6.18406
21
-4.34006
0
LINE
8
BLACK
6
CONTINUOUS
10
6.18406
20
-4.34006
11
6.18406
21
-4.32136
0
LINE
8
BLACK
6
CONTINUOUS
10
6.18406
20
-4.32136
11
6.18477
21
-4.31778
0
LINE
8
BLACK
6
CONTINUOUS
10
6.18477
20
-4.31778
11
6.18679
21
-4.31475
0
LINE
8
BLACK
6
CONTINUOUS
10
6.18679
20
-4.31475
11
6.18983
21
-4.31272
0
LINE
8
BLACK
6
CONTINUOUS
10
6.18983
20
-4.31272
11
6.19341
21
-4.31201
0
LINE
8
BLACK
6
CONTINUOUS
10
6.19341
20
-4.31201
11
6.21604
21
-4.31201
0
LINE
8
BLACK
6
CONTINUOUS
10
6.21604
20
-4.31201
11
6.21962
21
-4.31272
0
LINE
8
BLACK
6
CONTINUOUS
10
6.28852
20
-4.31272
11
6.29155
21
-4.31475
0
LINE
8
BLACK
6
CONTINUOUS
10
6.29155
20
-4.31475
11
6.29358
21
-4.31778
0
LINE
8
BLACK
6
CONTINUOUS
10
6.29358
20
-4.31778
11
6.29429
21
-4.32136
0
LINE
8
BLACK
6
CONTINUOUS
10
6.29429
20
-4.32136
11
6.29429
21
-4.34006
0
LINE
8
BLACK
6
CONTINUOUS
10
6.29429
20
-4.34006
11
6.29358
21
-4.34364
0
LINE
8
BLACK
6
CONTINUOUS
10
6.29358
20
-4.34364
11
6.29155
21
-4.34667
0
LINE
8
BLACK
6
CONTINUOUS
10
6.29155
20
-4.34667
11
6.28852
21
-4.3487
0
LINE
8
BLACK
6
CONTINUOUS
10
6.28852
20
-4.3487
11
6.28494
21
-4.34941
0
LINE
8
BLACK
6
CONTINUOUS
10
6.28494
20
-4.34941
11
6.2623
21
-4.34941
0
LINE
8
BLACK
6
CONTINUOUS
10
6.2623
20
-4.34941
11
6.25872
21
-4.3487
0
LINE
8
BLACK
6
CONTINUOUS
10
6.25872
20
-4.3487
11
6.25569
21
-4.34667
0
LINE
8
BLACK
6
CONTINUOUS
10
6.25569
20
-4.34667
11
6.25366
21
-4.34364
0
LINE
8
BLACK
6
CONTINUOUS
10
6.25366
20
-4.34364
11
6.25295
21
-4.34006
0
LINE
8
BLACK
6
CONTINUOUS
10
6.25295
20
-4.34006
11
6.25295
21
-4.32136
0
LINE
8
BLACK
6
CONTINUOUS
10
6.25295
20
-4.32136
11
6.25366
21
-4.31778
0
LINE
8
BLACK
6
CONTINUOUS
10
6.25366
20
-4.31778
11
6.25569
21
-4.31475
0
LINE
8
BLACK
6
CONTINUOUS
10
6.25569
20
-4.31475
11
6.25872
21
-4.31272
0
LINE
8
BLACK
6
CONTINUOUS
10
6.25872
20
-4.31272
11
6.2623
21
-4.31201
0
LINE
8
BLACK
6
CONTINUOUS
10
6.2623
20
-4.31201
11
6.28494
21
-4.31201
0
LINE
8
BLACK
6
CONTINUOUS
10
6.28494
20
-4.31201
11
6.28852
21
-4.31272
0
LINE
8
BLACK
6
CONTINUOUS
10
6.96457
20
-4.33858
11
6.9252
21
-4.33858
0
LINE
8
BLACK
6
CONTINUOUS
10
6.9252
20
-4.33858
11
6.9252
21
-4.18898
0
LINE
8
BLACK
6
CONTINUOUS
10
6.9252
20
-4.18898
11
6.96457
21
-4.18898
0
LINE
8
BLACK
6
CONTINUOUS
10
6.96457
20
-4.18898
11
6.96457
21
-4.33858
0
LINE
8
BLACK
6
CONTINUOUS
10
5.7126
20
-4.33858
11
5.67323
21
-4.33858
0
LINE
8
BLACK
6
CONTINUOUS
10
5.67323
20
-4.33858
11
5.67323
21
-4.18898
0
LINE
8
BLACK
6
CONTINUOUS
10
5.67323
20
-4.18898
11
5.7126
21
-4.18898
0
LINE
8
BLACK
6
CONTINUOUS
10
5.7126
20
-4.18898
11
5.7126
21
-4.33858
0
LINE
8
BLACK
6
CONTINUOUS
10
6.5523
20
-4.29402
11
6.55533
21
-4.29605
0
LINE
8
BLACK
6
CONTINUOUS
10
6.55533
20
-4.29605
11
6.55736
21
-4.29908
0
LINE
8
BLACK
6
CONTINUOUS
10
6.55736
20
-4.29908
11
6.55807
21
-4.30266
0
LINE
8
BLACK
6
CONTINUOUS
10
6.55807
20
-4.30266
11
6.55807
21
-4.3253
0
LINE
8
BLACK
6
CONTINUOUS
10
6.55807
20
-4.3253
11
6.55736
21
-4.32887
0
LINE
8
BLACK
6
CONTINUOUS
10
6.55736
20
-4.32887
11
6.55533
21
-4.33191
0
LINE
8
BLACK
6
CONTINUOUS
10
6.55533
20
-4.33191
11
6.5523
21
-4.33393
0
LINE
8
BLACK
6
CONTINUOUS
10
6.5523
20
-4.33393
11
6.54872
21
-4.33465
0
LINE
8
BLACK
6
CONTINUOUS
10
6.54872
20
-4.33465
11
6.53002
21
-4.33465
0
LINE
8
BLACK
6
CONTINUOUS
10
6.53002
20
-4.33465
11
6.52644
21
-4.33393
0
LINE
8
BLACK
6
CONTINUOUS
10
6.52644
20
-4.33393
11
6.52341
21
-4.33191
0
LINE
8
BLACK
6
CONTINUOUS
10
6.52341
20
-4.33191
11
6.52138
21
-4.32887
0
LINE
8
BLACK
6
CONTINUOUS
10
6.52138
20
-4.32887
11
6.52067
21
-4.3253
0
LINE
8
BLACK
6
CONTINUOUS
10
6.52067
20
-4.3253
11
6.52067
21
-4.30266
0
LINE
8
BLACK
6
CONTINUOUS
10
6.52067
20
-4.30266
11
6.52138
21
-4.29908
0
LINE
8
BLACK
6
CONTINUOUS
10
6.52138
20
-4.29908
11
6.52341
21
-4.29605
0
LINE
8
BLACK
6
CONTINUOUS
10
6.52341
20
-4.29605
11
6.52644
21
-4.29402
0
LINE
8
BLACK
6
CONTINUOUS
10
6.52644
20
-4.29402
11
6.53002
21
-4.29331
0
LINE
8
BLACK
6
CONTINUOUS
10
6.53002
20
-4.29331
11
6.54872
21
-4.29331
0
LINE
8
BLACK
6
CONTINUOUS
10
6.54872
20
-4.29331
11
6.5523
21
-4.29402
0
LINE
8
BLACK
6
CONTINUOUS
10
6.35545
20
-4.29402
11
6.35848
21
-4.29605
0
LINE
8
BLACK
6
CONTINUOUS
10
6.35848
20
-4.29605
11
6.36051
21
-4.29908
0
LINE
8
BLACK
6
CONTINUOUS
10
6.36051
20
-4.29908
11
6.36122
21
-4.30266
0
LINE
8
BLACK
6
CONTINUOUS
10
6.36122
20
-4.30266
11
6.36122
21
-4.3253
0
LINE
8
BLACK
6
CONTINUOUS
10
6.36122
20
-4.3253
11
6.36051
21
-4.32887
0
LINE
8
BLACK
6
CONTINUOUS
10
6.36051
20
-4.32887
11
6.35848
21
-4.33191
0
LINE
8
BLACK
6
CONTINUOUS
10
6.35848
20
-4.33191
11
6.35545
21
-4.33393
0
LINE
8
BLACK
6
CONTINUOUS
10
6.35545
20
-4.33393
11
6.35187
21
-4.33465
0
LINE
8
BLACK
6
CONTINUOUS
10
6.35187
20
-4.33465
11
6.33317
21
-4.33465
0
LINE
8
BLACK
6
CONTINUOUS
10
6.33317
20
-4.33465
11
6.32959
21
-4.33393
0
LINE
8
BLACK
6
CONTINUOUS
10
6.32959
20
-4.33393
11
6.32656
21
-4.33191
0
LINE
8
BLACK
6
CONTINUOUS
10
6.32656
20
-4.33191
11
6.32453
21
-4.32887
0
LINE
8
BLACK
6
CONTINUOUS
10
6.32453
20
-4.32887
11
6.32382
21
-4.3253
0
LINE
8
BLACK
6
CONTINUOUS
10
6.32382
20
-4.3253
11
6.32382
21
-4.30266
0
LINE
8
BLACK
6
CONTINUOUS
10
6.32382
20
-4.30266
11
6.32453
21
-4.29908
0
LINE
8
BLACK
6
CONTINUOUS
10
6.32453
20
-4.29908
11
6.32656
21
-4.29605
0
LINE
8
BLACK
6
CONTINUOUS
10
6.32656
20
-4.29605
11
6.32959
21
-4.29402
0
LINE
8
BLACK
6
CONTINUOUS
10
6.32959
20
-4.29402
11
6.33317
21
-4.29331
0
LINE
8
BLACK
6
CONTINUOUS
10
6.33317
20
-4.29331
11
6.35187
21
-4.29331
0
LINE
8
BLACK
6
CONTINUOUS
10
6.35187
20
-4.29331
11
6.35545
21
-4.29402
0
LINE
8
BLACK
6
CONTINUOUS
10
6.46807
20
-4.29887
11
6.46995
21
-4.30013
0
LINE
8
BLACK
6
CONTINUOUS
10
6.46995
20
-4.30013
11
6.47121
21
-4.30201
0
LINE
8
BLACK
6
CONTINUOUS
10
6.47121
20
-4.30201
11
6.47165
21
-4.30423
0
LINE
8
BLACK
6
CONTINUOUS
10
6.47165
20
-4.30423
11
6.47165
21
-4.31781
0
LINE
8
BLACK
6
CONTINUOUS
10
6.47165
20
-4.31781
11
6.47121
21
-4.32004
0
LINE
8
BLACK
6
CONTINUOUS
10
6.47121
20
-4.32004
11
6.46995
21
-4.32192
0
LINE
8
BLACK
6
CONTINUOUS
10
6.46995
20
-4.32192
11
6.46807
21
-4.32318
0
LINE
8
BLACK
6
CONTINUOUS
10
6.46807
20
-4.32318
11
6.46585
21
-4.32362
0
LINE
8
BLACK
6
CONTINUOUS
10
6.46585
20
-4.32362
11
6.45423
21
-4.32362
0
LINE
8
BLACK
6
CONTINUOUS
10
6.45423
20
-4.32362
11
6.45201
21
-4.32318
0
LINE
8
BLACK
6
CONTINUOUS
10
6.45201
20
-4.32318
11
6.45013
21
-4.32192
0
LINE
8
BLACK
6
CONTINUOUS
10
6.45013
20
-4.32192
11
6.44887
21
-4.32004
0
LINE
8
BLACK
6
CONTINUOUS
10
6.44887
20
-4.32004
11
6.44843
21
-4.31781
0
LINE
8
BLACK
6
CONTINUOUS
10
6.44843
20
-4.31781
11
6.44843
21
-4.30423
0
LINE
8
BLACK
6
CONTINUOUS
10
6.44843
20
-4.30423
11
6.44887
21
-4.30201
0
LINE
8
BLACK
6
CONTINUOUS
10
6.44887
20
-4.30201
11
6.45013
21
-4.30013
0
LINE
8
BLACK
6
CONTINUOUS
10
6.45013
20
-4.30013
11
6.45201
21
-4.29887
0
LINE
8
BLACK
6
CONTINUOUS
10
6.45201
20
-4.29887
11
6.45423
21
-4.29843
0
LINE
8
BLACK
6
CONTINUOUS
10
6.45423
20
-4.29843
11
6.46585
21
-4.29843
0
LINE
8
BLACK
6
CONTINUOUS
10
6.46585
20
-4.29843
11
6.46807
21
-4.29887
0
LINE
8
BLACK
6
CONTINUOUS
10
6.42988
20
-4.29887
11
6.43176
21
-4.30013
0
LINE
8
BLACK
6
CONTINUOUS
10
6.43176
20
-4.30013
11
6.43302
21
-4.30201
0
LINE
8
BLACK
6
CONTINUOUS
10
6.43302
20
-4.30201
11
6.43346
21
-4.30423
0
LINE
8
BLACK
6
CONTINUOUS
10
6.43346
20
-4.30423
11
6.43346
21
-4.31781
0
LINE
8
BLACK
6
CONTINUOUS
10
6.43346
20
-4.31781
11
6.43302
21
-4.32004
0
LINE
8
BLACK
6
CONTINUOUS
10
6.43302
20
-4.32004
11
6.43176
21
-4.32192
0
LINE
8
BLACK
6
CONTINUOUS
10
6.43176
20
-4.32192
11
6.42988
21
-4.32318
0
LINE
8
BLACK
6
CONTINUOUS
10
6.42988
20
-4.32318
11
6.42766
21
-4.32362
0
LINE
8
BLACK
6
CONTINUOUS
10
6.42766
20
-4.32362
11
6.41604
21
-4.32362
0
LINE
8
BLACK
6
CONTINUOUS
10
6.41604
20
-4.32362
11
6.41382
21
-4.32318
0
LINE
8
BLACK
6
CONTINUOUS
10
6.41382
20
-4.32318
11
6.41194
21
-4.32192
0
LINE
8
BLACK
6
CONTINUOUS
10
6.41194
20
-4.32192
11
6.41068
21
-4.32004
0
LINE
8
BLACK
6
CONTINUOUS
10
6.41068
20
-4.32004
11
6.41024
21
-4.31781
0
LINE
8
BLACK
6
CONTINUOUS
10
6.41024
20
-4.31781
11
6.41024
21
-4.30423
0
LINE
8
BLACK
6
CONTINUOUS
10
6.41024
20
-4.30423
11
6.41068
21
-4.30201
0
LINE
8
BLACK
6
CONTINUOUS
10
6.41068
20
-4.30201
11
6.41194
21
-4.30013
0
LINE
8
BLACK
6
CONTINUOUS
10
6.41194
20
-4.30013
11
6.41382
21
-4.29887
0
LINE
8
BLACK
6
CONTINUOUS
10
6.41382
20
-4.29887
11
6.41604
21
-4.29843
0
LINE
8
BLACK
6
CONTINUOUS
10
6.41604
20
-4.29843
11
6.42766
21
-4.29843
0
LINE
8
BLACK
6
CONTINUOUS
10
6.42766
20
-4.29843
11
6.42988
21
-4.29887
0
LINE
8
BLACK
6
CONTINUOUS
10
6.66434
20
-4.27276
11
6.66737
21
-4.27479
0
LINE
8
BLACK
6
CONTINUOUS
10
6.66737
20
-4.27479
11
6.68338
21
-4.29079
0
LINE
8
BLACK
6
CONTINUOUS
10
6.68338
20
-4.29079
11
6.68541
21
-4.29383
0
LINE
8
BLACK
6
CONTINUOUS
10
6.68541
20
-4.29383
11
6.68612
21
-4.2974
0
LINE
8
BLACK
6
CONTINUOUS
10
6.68612
20
-4.2974
11
6.68541
21
-4.30098
0
LINE
8
BLACK
6
CONTINUOUS
10
6.68541
20
-4.30098
11
6.68338
21
-4.30402
0
LINE
8
BLACK
6
CONTINUOUS
10
6.68338
20
-4.30402
11
6.67016
21
-4.31724
0
LINE
8
BLACK
6
CONTINUOUS
10
6.67016
20
-4.31724
11
6.66712
21
-4.31927
0
LINE
8
BLACK
6
CONTINUOUS
10
6.66712
20
-4.31927
11
6.66355
21
-4.31998
0
LINE
8
BLACK
6
CONTINUOUS
10
6.66355
20
-4.31998
11
6.65997
21
-4.31927
0
LINE
8
BLACK
6
CONTINUOUS
10
6.65997
20
-4.31927
11
6.65693
21
-4.31724
0
LINE
8
BLACK
6
CONTINUOUS
10
6.65693
20
-4.31724
11
6.64093
21
-4.30123
0
LINE
8
BLACK
6
CONTINUOUS
10
6.64093
20
-4.30123
11
6.6389
21
-4.2982
0
LINE
8
BLACK
6
CONTINUOUS
10
6.6389
20
-4.2982
11
6.63819
21
-4.29462
0
LINE
8
BLACK
6
CONTINUOUS
10
6.63819
20
-4.29462
11
6.6389
21
-4.29104
0
LINE
8
BLACK
6
CONTINUOUS
10
6.6389
20
-4.29104
11
6.64093
21
-4.28801
0
LINE
8
BLACK
6
CONTINUOUS
10
6.64093
20
-4.28801
11
6.65415
21
-4.27479
0
LINE
8
BLACK
6
CONTINUOUS
10
6.65415
20
-4.27479
11
6.65718
21
-4.27276
0
LINE
8
BLACK
6
CONTINUOUS
10
6.65718
20
-4.27276
11
6.66076
21
-4.27205
0
LINE
8
BLACK
6
CONTINUOUS
10
6.66076
20
-4.27205
11
6.66434
21
-4.27276
0
LINE
8
BLACK
6
CONTINUOUS
10
5.40126
20
-4.31884
11
5.36626
21
-4.31884
0
LINE
8
BLACK
6
CONTINUOUS
10
5.36626
20
-4.31884
11
5.36626
21
-4.26384
0
LINE
8
BLACK
6
CONTINUOUS
10
5.36626
20
-4.26384
11
5.40126
21
-4.26384
0
LINE
8
BLACK
6
CONTINUOUS
10
5.40126
20
-4.26384
11
5.40126
21
-4.31884
0
LINE
8
BLACK
6
CONTINUOUS
10
5.47626
20
-4.31884
11
5.44126
21
-4.31884
0
LINE
8
BLACK
6
CONTINUOUS
10
5.44126
20
-4.31884
11
5.44126
21
-4.26384
0
LINE
8
BLACK
6
CONTINUOUS
10
5.44126
20
-4.26384
11
5.47626
21
-4.26384
0
LINE
8
BLACK
6
CONTINUOUS
10
5.47626
20
-4.26384
11
5.47626
21
-4.31884
0
LINE
8
BLACK
6
CONTINUOUS
10
5.85545
20
-4.26646
11
5.85848
21
-4.26849
0
LINE
8
BLACK
6
CONTINUOUS
10
5.85848
20
-4.26849
11
5.86051
21
-4.27152
0
LINE
8
BLACK
6
CONTINUOUS
10
5.86051
20
-4.27152
11
5.86122
21
-4.2751
0
LINE
8
BLACK
6
CONTINUOUS
10
5.86122
20
-4.2751
11
5.86122
21
-4.29774
0
LINE
8
BLACK
6
CONTINUOUS
10
5.86122
20
-4.29774
11
5.86051
21
-4.30131
0
LINE
8
BLACK
6
CONTINUOUS
10
5.86051
20
-4.30131
11
5.85848
21
-4.30435
0
LINE
8
BLACK
6
CONTINUOUS
10
5.85848
20
-4.30435
11
5.85545
21
-4.30637
0
LINE
8
BLACK
6
CONTINUOUS
10
5.85545
20
-4.30637
11
5.85187
21
-4.30709
0
LINE
8
BLACK
6
CONTINUOUS
10
5.85187
20
-4.30709
11
5.83317
21
-4.30709
0
LINE
8
BLACK
6
CONTINUOUS
10
5.83317
20
-4.30709
11
5.82959
21
-4.30637
0
LINE
8
BLACK
6
CONTINUOUS
10
5.82959
20
-4.30637
11
5.82656
21
-4.30435
0
LINE
8
BLACK
6
CONTINUOUS
10
5.82656
20
-4.30435
11
5.82453
21
-4.30131
0
LINE
8
BLACK
6
CONTINUOUS
10
5.82453
20
-4.30131
11
5.82382
21
-4.29774
0
LINE
8
BLACK
6
CONTINUOUS
10
5.82382
20
-4.29774
11
5.82382
21
-4.2751
0
LINE
8
BLACK
6
CONTINUOUS
10
5.82382
20
-4.2751
11
5.82453
21
-4.27152
0
LINE
8
BLACK
6
CONTINUOUS
10
5.82453
20
-4.27152
11
5.82656
21
-4.26849
0
LINE
8
BLACK
6
CONTINUOUS
10
5.82656
20
-4.26849
11
5.82959
21
-4.26646
0
LINE
8
BLACK
6
CONTINUOUS
10
5.82959
20
-4.26646
11
5.83317
21
-4.26575
0
LINE
8
BLACK
6
CONTINUOUS
10
5.83317
20
-4.26575
11
5.85187
21
-4.26575
0
LINE
8
BLACK
6
CONTINUOUS
10
5.85187
20
-4.26575
11
5.85545
21
-4.26646
0
LINE
8
BLACK
6
CONTINUOUS
10
5.79522
20
-4.29516
11
5.74022
21
-4.29516
0
LINE
8
BLACK
6
CONTINUOUS
10
5.74022
20
-4.29516
11
5.74022
21
-4.26016
0
LINE
8
BLACK
6
CONTINUOUS
10
5.74022
20
-4.26016
11
5.79522
21
-4.26016
0
LINE
8
BLACK
6
CONTINUOUS
10
5.79522
20
-4.26016
11
5.79522
21
-4.29516
0
LINE
8
BLACK
6
CONTINUOUS
10
6.29248
20
-4.26383
11
6.29436
21
-4.26509
0
LINE
8
BLACK
6
CONTINUOUS
10
6.29436
20
-4.26509
11
6.29562
21
-4.26697
0
LINE
8
BLACK
6
CONTINUOUS
10
6.29562
20
-4.26697
11
6.29606
21
-4.26919
0
LINE
8
BLACK
6
CONTINUOUS
10
6.29606
20
-4.26919
11
6.29606
21
-4.28081
0
LINE
8
BLACK
6
CONTINUOUS
10
6.29606
20
-4.28081
11
6.29562
21
-4.28303
0
LINE
8
BLACK
6
CONTINUOUS
10
6.29562
20
-4.28303
11
6.29436
21
-4.28491
0
LINE
8
BLACK
6
CONTINUOUS
10
6.29436
20
-4.28491
11
6.29248
21
-4.28617
0
LINE
8
BLACK
6
CONTINUOUS
10
6.29248
20
-4.28617
11
6.29026
21
-4.28661
0
LINE
8
BLACK
6
CONTINUOUS
10
6.29026
20
-4.28661
11
6.27667
21
-4.28661
0
LINE
8
BLACK
6
CONTINUOUS
10
6.27667
20
-4.28661
11
6.27445
21
-4.28617
0
LINE
8
BLACK
6
CONTINUOUS
10
6.27445
20
-4.28617
11
6.27257
21
-4.28491
0
LINE
8
BLACK
6
CONTINUOUS
10
6.27257
20
-4.28491
11
6.27131
21
-4.28303
0
LINE
8
BLACK
6
CONTINUOUS
10
6.27131
20
-4.28303
11
6.27087
21
-4.28081
0
LINE
8
BLACK
6
CONTINUOUS
10
6.27087
20
-4.28081
11
6.27087
21
-4.26919
0
LINE
8
BLACK
6
CONTINUOUS
10
6.27087
20
-4.26919
11
6.27131
21
-4.26697
0
LINE
8
BLACK
6
CONTINUOUS
10
6.27131
20
-4.26697
11
6.27257
21
-4.26509
0
LINE
8
BLACK
6
CONTINUOUS
10
6.27257
20
-4.26509
11
6.27445
21
-4.26383
0
LINE
8
BLACK
6
CONTINUOUS
10
6.27445
20
-4.26383
11
6.27667
21
-4.26339
0
LINE
8
BLACK
6
CONTINUOUS
10
6.27667
20
-4.26339
11
6.29026
21
-4.26339
0
LINE
8
BLACK
6
CONTINUOUS
10
6.29026
20
-4.26339
11
6.29248
21
-4.26383
0
LINE
8
BLACK
6
CONTINUOUS
10
6.61562
20
-4.22404
11
6.61866
21
-4.22607
0
LINE
8
BLACK
6
CONTINUOUS
10
6.61866
20
-4.22607
11
6.63466
21
-4.24207
0
LINE
8
BLACK
6
CONTINUOUS
10
6.63466
20
-4.24207
11
6.63669
21
-4.24511
0
LINE
8
BLACK
6
CONTINUOUS
10
6.63669
20
-4.24511
11
6.6374
21
-4.24869
0
LINE
8
BLACK
6
CONTINUOUS
10
6.6374
20
-4.24869
11
6.63669
21
-4.25226
0
LINE
8
BLACK
6
CONTINUOUS
10
6.63669
20
-4.25226
11
6.63466
21
-4.2553
0
LINE
8
BLACK
6
CONTINUOUS
10
6.63466
20
-4.2553
11
6.62144
21
-4.26852
0
LINE
8
BLACK
6
CONTINUOUS
10
6.62144
20
-4.26852
11
6.61841
21
-4.27055
0
LINE
8
BLACK
6
CONTINUOUS
10
6.61841
20
-4.27055
11
6.61483
21
-4.27126
0
LINE
8
BLACK
6
CONTINUOUS
10
6.61483
20
-4.27126
11
6.61125
21
-4.27055
0
LINE
8
BLACK
6
CONTINUOUS
10
6.61125
20
-4.27055
11
6.60822
21
-4.26852
0
LINE
8
BLACK
6
CONTINUOUS
10
6.60822
20
-4.26852
11
6.59221
21
-4.25251
0
LINE
8
BLACK
6
CONTINUOUS
10
6.59221
20
-4.25251
11
6.59018
21
-4.24948
0
LINE
8
BLACK
6
CONTINUOUS
10
6.59018
20
-4.24948
11
6.58947
21
-4.2459
0
LINE
8
BLACK
6
CONTINUOUS
10
6.58947
20
-4.2459
11
6.59018
21
-4.24232
0
LINE
8
BLACK
6
CONTINUOUS
10
6.59018
20
-4.24232
11
6.59221
21
-4.23929
0
LINE
8
BLACK
6
CONTINUOUS
10
6.59221
20
-4.23929
11
6.60543
21
-4.22607
0
LINE
8
BLACK
6
CONTINUOUS
10
6.60543
20
-4.22607
11
6.60847
21
-4.22404
0
LINE
8
BLACK
6
CONTINUOUS
10
6.60847
20
-4.22404
11
6.61204
21
-4.22333
0
LINE
8
BLACK
6
CONTINUOUS
10
6.61204
20
-4.22333
11
6.61562
21
-4.22404
0
LINE
8
BLACK
6
CONTINUOUS
10
6.5523
20
-4.22512
11
6.55533
21
-4.22715
0
LINE
8
BLACK
6
CONTINUOUS
10
6.55533
20
-4.22715
11
6.55736
21
-4.23018
0
LINE
8
BLACK
6
CONTINUOUS
10
6.55736
20
-4.23018
11
6.55807
21
-4.23376
0
LINE
8
BLACK
6
CONTINUOUS
10
6.55807
20
-4.23376
11
6.55807
21
-4.2564
0
LINE
8
BLACK
6
CONTINUOUS
10
6.55807
20
-4.2564
11
6.55736
21
-4.25998
0
LINE
8
BLACK
6
CONTINUOUS
10
6.55736
20
-4.25998
11
6.55533
21
-4.26301
0
LINE
8
BLACK
6
CONTINUOUS
10
6.55533
20
-4.26301
11
6.5523
21
-4.26504
0
LINE
8
BLACK
6
CONTINUOUS
10
6.5523
20
-4.26504
11
6.54872
21
-4.26575
0
LINE
8
BLACK
6
CONTINUOUS
10
6.54872
20
-4.26575
11
6.53002
21
-4.26575
0
LINE
8
BLACK
6
CONTINUOUS
10
6.53002
20
-4.26575
11
6.52644
21
-4.26504
0
LINE
8
BLACK
6
CONTINUOUS
10
6.52644
20
-4.26504
11
6.52341
21
-4.26301
0
LINE
8
BLACK
6
CONTINUOUS
10
6.52341
20
-4.26301
11
6.52138
21
-4.25998
0
LINE
8
BLACK
6
CONTINUOUS
10
6.52138
20
-4.25998
11
6.52067
21
-4.2564
0
LINE
8
BLACK
6
CONTINUOUS
10
6.52067
20
-4.2564
11
6.52067
21
-4.23376
0
LINE
8
BLACK
6
CONTINUOUS
10
6.52067
20
-4.23376
11
6.52138
21
-4.23018
0
LINE
8
BLACK
6
CONTINUOUS
10
6.52138
20
-4.23018
11
6.52341
21
-4.22715
0
LINE
8
BLACK
6
CONTINUOUS
10
6.52341
20
-4.22715
11
6.52644
21
-4.22512
0
LINE
8
BLACK
6
CONTINUOUS
10
6.52644
20
-4.22512
11
6.53002
21
-4.22441
0
LINE
8
BLACK
6
CONTINUOUS
10
6.53002
20
-4.22441
11
6.54872
21
-4.22441
0
LINE
8
BLACK
6
CONTINUOUS
10
6.54872
20
-4.22441
11
6.5523
21
-4.22512
0
LINE
8
BLACK
6
CONTINUOUS
10
6.35545
20
-4.22512
11
6.35848
21
-4.22715
0
LINE
8
BLACK
6
CONTINUOUS
10
6.35848
20
-4.22715
11
6.36051
21
-4.23018
0
LINE
8
BLACK
6
CONTINUOUS
10
6.36051
20
-4.23018
11
6.36122
21
-4.23376
0
LINE
8
BLACK
6
CONTINUOUS
10
6.36122
20
-4.23376
11
6.36122
21
-4.2564
0
LINE
8
BLACK
6
CONTINUOUS
10
6.36122
20
-4.2564
11
6.36051
21
-4.25998
0
LINE
8
BLACK
6
CONTINUOUS
10
6.36051
20
-4.25998
11
6.35848
21
-4.26301
0
LINE
8
BLACK
6
CONTINUOUS
10
6.35848
20
-4.26301
11
6.35545
21
-4.26504
0
LINE
8
BLACK
6
CONTINUOUS
10
6.35545
20
-4.26504
11
6.35187
21
-4.26575
0
LINE
8
BLACK
6
CONTINUOUS
10
6.35187
20
-4.26575
11
6.33317
21
-4.26575
0
LINE
8
BLACK
6
CONTINUOUS
10
6.33317
20
-4.26575
11
6.32959
21
-4.26504
0
LINE
8
BLACK
6
CONTINUOUS
10
6.32959
20
-4.26504
11
6.32656
21
-4.26301
0
LINE
8
BLACK
6
CONTINUOUS
10
6.32656
20
-4.26301
11
6.32453
21
-4.25998
0
LINE
8
BLACK
6
CONTINUOUS
10
6.32453
20
-4.25998
11
6.32382
21
-4.2564
0
LINE
8
BLACK
6
CONTINUOUS
10
6.32382
20
-4.2564
11
6.32382
21
-4.23376
0
LINE
8
BLACK
6
CONTINUOUS
10
6.32382
20
-4.23376
11
6.32453
21
-4.23018
0
LINE
8
BLACK
6
CONTINUOUS
10
6.32453
20
-4.23018
11
6.32656
21
-4.22715
0
LINE
8
BLACK
6
CONTINUOUS
10
6.32656
20
-4.22715
11
6.32959
21
-4.22512
0
LINE
8
BLACK
6
CONTINUOUS
10
6.32959
20
-4.22512
11
6.33317
21
-4.22441
0
LINE
8
BLACK
6
CONTINUOUS
10
6.33317
20
-4.22441
11
6.35187
21
-4.22441
0
LINE
8
BLACK
6
CONTINUOUS
10
6.35187
20
-4.22441
11
6.35545
21
-4.22512
0
LINE
8
BLACK
6
CONTINUOUS
10
6.49029
20
-4.22611
11
6.49332
21
-4.22813
0
LINE
8
BLACK
6
CONTINUOUS
10
6.49332
20
-4.22813
11
6.49535
21
-4.23117
0
LINE
8
BLACK
6
CONTINUOUS
10
6.49535
20
-4.23117
11
6.49606
21
-4.23474
0
LINE
8
BLACK
6
CONTINUOUS
10
6.49606
20
-4.23474
11
6.49606
21
-4.25344
0
LINE
8
BLACK
6
CONTINUOUS
10
6.49606
20
-4.25344
11
6.49535
21
-4.25702
0
LINE
8
BLACK
6
CONTINUOUS
10
6.49535
20
-4.25702
11
6.49332
21
-4.26006
0
LINE
8
BLACK
6
CONTINUOUS
10
6.49332
20
-4.26006
11
6.49029
21
-4.26208
0
LINE
8
BLACK
6
CONTINUOUS
10
6.49029
20
-4.26208
11
6.48671
21
-4.2628
0
LINE
8
BLACK
6
CONTINUOUS
10
6.48671
20
-4.2628
11
6.46407
21
-4.2628
0
LINE
8
BLACK
6
CONTINUOUS
10
6.46407
20
-4.2628
11
6.4605
21
-4.26208
0
LINE
8
BLACK
6
CONTINUOUS
10
6.4605
20
-4.26208
11
6.45746
21
-4.26006
0
LINE
8
BLACK
6
CONTINUOUS
10
6.45746
20
-4.26006
11
6.45544
21
-4.25702
0
LINE
8
BLACK
6
CONTINUOUS
10
6.45544
20
-4.25702
11
6.45472
21
-4.25344
0
LINE
8
BLACK
6
CONTINUOUS
10
6.45472
20
-4.25344
11
6.45472
21
-4.23474
0
LINE
8
BLACK
6
CONTINUOUS
10
6.45472
20
-4.23474
11
6.45544
21
-4.23117
0
LINE
8
BLACK
6
CONTINUOUS
10
6.45544
20
-4.23117
11
6.45746
21
-4.22813
0
LINE
8
BLACK
6
CONTINUOUS
10
6.45746
20
-4.22813
11
6.4605
21
-4.22611
0
LINE
8
BLACK
6
CONTINUOUS
10
6.4605
20
-4.22611
11
6.46407
21
-4.22539
0
LINE
8
BLACK
6
CONTINUOUS
10
6.46407
20
-4.22539
11
6.48671
21
-4.22539
0
LINE
8
BLACK
6
CONTINUOUS
10
6.48671
20
-4.22539
11
6.49029
21
-4.22611
0
LINE
8
BLACK
6
CONTINUOUS
10
6.42139
20
-4.22611
11
6.42443
21
-4.22813
0
LINE
8
BLACK
6
CONTINUOUS
10
6.42443
20
-4.22813
11
6.42645
21
-4.23117
0
LINE
8
BLACK
6
CONTINUOUS
10
6.42645
20
-4.23117
11
6.42717
21
-4.23474
0
LINE
8
BLACK
6
CONTINUOUS
10
6.42717
20
-4.23474
11
6.42717
21
-4.25344
0
LINE
8
BLACK
6
CONTINUOUS
10
6.42717
20
-4.25344
11
6.42645
21
-4.25702
0
LINE
8
BLACK
6
CONTINUOUS
10
6.42645
20
-4.25702
11
6.42443
21
-4.26006
0
LINE
8
BLACK
6
CONTINUOUS
10
6.42443
20
-4.26006
11
6.42139
21
-4.26208
0
LINE
8
BLACK
6
CONTINUOUS
10
6.42139
20
-4.26208
11
6.41781
21
-4.2628
0
LINE
8
BLACK
6
CONTINUOUS
10
6.41781
20
-4.2628
11
6.39518
21
-4.2628
0
LINE
8
BLACK
6
CONTINUOUS
10
6.39518
20
-4.2628
11
6.3916
21
-4.26208
0
LINE
8
BLACK
6
CONTINUOUS
10
6.3916
20
-4.26208
11
6.38857
21
-4.26006
0
LINE
8
BLACK
6
CONTINUOUS
10
6.38857
20
-4.26006
11
6.38654
21
-4.25702
0
LINE
8
BLACK
6
CONTINUOUS
10
6.38654
20
-4.25702
11
6.38583
21
-4.25344
0
LINE
8
BLACK
6
CONTINUOUS
10
6.38583
20
-4.25344
11
6.38583
21
-4.23474
0
LINE
8
BLACK
6
CONTINUOUS
10
6.38583
20
-4.23474
11
6.38654
21
-4.23117
0
LINE
8
BLACK
6
CONTINUOUS
10
6.38654
20
-4.23117
11
6.38857
21
-4.22813
0
LINE
8
BLACK
6
CONTINUOUS
10
6.38857
20
-4.22813
11
6.3916
21
-4.22611
0
LINE
8
BLACK
6
CONTINUOUS
10
6.3916
20
-4.22611
11
6.39518
21
-4.22539
0
LINE
8
BLACK
6
CONTINUOUS
10
6.39518
20
-4.22539
11
6.41781
21
-4.22539
0
LINE
8
BLACK
6
CONTINUOUS
10
6.41781
20
-4.22539
11
6.42139
21
-4.22611
0
LINE
8
BLACK
6
CONTINUOUS
10
6.04474
20
-4.22952
11
6.04554
21
-4.23005
0
LINE
8
BLACK
6
CONTINUOUS
10
6.04554
20
-4.23005
11
6.04607
21
-4.23085
0
LINE
8
BLACK
6
CONTINUOUS
10
6.04607
20
-4.23085
11
6.04626
21
-4.23179
0
LINE
8
BLACK
6
CONTINUOUS
10
6.04626
20
-4.23179
11
6.04626
21
-4.25935
0
LINE
8
BLACK
6
CONTINUOUS
10
6.04626
20
-4.25935
11
6.04607
21
-4.26029
0
LINE
8
BLACK
6
CONTINUOUS
10
6.04607
20
-4.26029
11
6.04554
21
-4.26109
0
LINE
8
BLACK
6
CONTINUOUS
10
6.04554
20
-4.26109
11
6.04474
21
-4.26162
0
LINE
8
BLACK
6
CONTINUOUS
10
6.04474
20
-4.26162
11
6.0438
21
-4.26181
0
LINE
8
BLACK
6
CONTINUOUS
10
6.0438
20
-4.26181
11
6.03888
21
-4.26181
0
LINE
8
BLACK
6
CONTINUOUS
10
6.03888
20
-4.26181
11
6.03794
21
-4.26162
0
LINE
8
BLACK
6
CONTINUOUS
10
6.03794
20
-4.26162
11
6.03714
21
-4.26109
0
LINE
8
BLACK
6
CONTINUOUS
10
6.03714
20
-4.26109
11
6.0366
21
-4.26029
0
LINE
8
BLACK
6
CONTINUOUS
10
6.0366
20
-4.26029
11
6.03642
21
-4.25935
0
LINE
8
BLACK
6
CONTINUOUS
10
6.03642
20
-4.25935
11
6.03642
21
-4.23179
0
LINE
8
BLACK
6
CONTINUOUS
10
6.03642
20
-4.23179
11
6.0366
21
-4.23085
0
LINE
8
BLACK
6
CONTINUOUS
10
6.0366
20
-4.23085
11
6.03714
21
-4.23005
0
LINE
8
BLACK
6
CONTINUOUS
10
6.03714
20
-4.23005
11
6.03794
21
-4.22952
0
LINE
8
BLACK
6
CONTINUOUS
10
6.03794
20
-4.22952
11
6.03888
21
-4.22933
0
LINE
8
BLACK
6
CONTINUOUS
10
6.03888
20
-4.22933
11
6.0438
21
-4.22933
0
LINE
8
BLACK
6
CONTINUOUS
10
6.0438
20
-4.22933
11
6.04474
21
-4.22952
0
LINE
8
BLACK
6
CONTINUOUS
10
6.08411
20
-4.22952
11
6.08491
21
-4.23005
0
LINE
8
BLACK
6
CONTINUOUS
10
6.08491
20
-4.23005
11
6.08544
21
-4.23085
0
LINE
8
BLACK
6
CONTINUOUS
10
6.08544
20
-4.23085
11
6.08563
21
-4.23179
0
LINE
8
BLACK
6
CONTINUOUS
10
6.08563
20
-4.23179
11
6.08563
21
-4.25935
0
LINE
8
BLACK
6
CONTINUOUS
10
6.08563
20
-4.25935
11
6.08544
21
-4.26029
0
LINE
8
BLACK
6
CONTINUOUS
10
6.08544
20
-4.26029
11
6.08491
21
-4.26109
0
LINE
8
BLACK
6
CONTINUOUS
10
6.08491
20
-4.26109
11
6.08411
21
-4.26162
0
LINE
8
BLACK
6
CONTINUOUS
10
6.08411
20
-4.26162
11
6.08317
21
-4.26181
0
LINE
8
BLACK
6
CONTINUOUS
10
6.08317
20
-4.26181
11
6.07825
21
-4.26181
0
LINE
8
BLACK
6
CONTINUOUS
10
6.07825
20
-4.26181
11
6.07731
21
-4.26162
0
LINE
8
BLACK
6
CONTINUOUS
10
6.07731
20
-4.26162
11
6.07651
21
-4.26109
0
LINE
8
BLACK
6
CONTINUOUS
10
6.07651
20
-4.26109
11
6.07597
21
-4.26029
0
LINE
8
BLACK
6
CONTINUOUS
10
6.07597
20
-4.26029
11
6.07579
21
-4.25935
0
LINE
8
BLACK
6
CONTINUOUS
10
6.07579
20
-4.25935
11
6.07579
21
-4.23179
0
LINE
8
BLACK
6
CONTINUOUS
10
6.07579
20
-4.23179
11
6.07597
21
-4.23085
0
LINE
8
BLACK
6
CONTINUOUS
10
6.07597
20
-4.23085
11
6.07651
21
-4.23005
0
LINE
8
BLACK
6
CONTINUOUS
10
6.07651
20
-4.23005
11
6.07731
21
-4.22952
0
LINE
8
BLACK
6
CONTINUOUS
10
6.07731
20
-4.22952
11
6.07825
21
-4.22933
0
LINE
8
BLACK
6
CONTINUOUS
10
6.07825
20
-4.22933
11
6.08317
21
-4.22933
0
LINE
8
BLACK
6
CONTINUOUS
10
6.08317
20
-4.22933
11
6.08411
21
-4.22952
0
LINE
8
BLACK
6
CONTINUOUS
10
6.06443
20
-4.22952
11
6.06522
21
-4.23005
0
LINE
8
BLACK
6
CONTINUOUS
10
6.06522
20
-4.23005
11
6.06576
21
-4.23085
0
LINE
8
BLACK
6
CONTINUOUS
10
6.06576
20
-4.23085
11
6.06594
21
-4.23179
0
LINE
8
BLACK
6
CONTINUOUS
10
6.06594
20
-4.23179
11
6.06594
21
-4.25935
0
LINE
8
BLACK
6
CONTINUOUS
10
6.06594
20
-4.25935
11
6.06576
21
-4.26029
0
LINE
8
BLACK
6
CONTINUOUS
10
6.06576
20
-4.26029
11
6.06522
21
-4.26109
0
LINE
8
BLACK
6
CONTINUOUS
10
6.06522
20
-4.26109
11
6.06443
21
-4.26162
0
LINE
8
BLACK
6
CONTINUOUS
10
6.06443
20
-4.26162
11
6.06348
21
-4.26181
0
LINE
8
BLACK
6
CONTINUOUS
10
6.06348
20
-4.26181
11
6.05856
21
-4.26181
0
LINE
8
BLACK
6
CONTINUOUS
10
6.05856
20
-4.26181
11
6.05762
21
-4.26162
0
LINE
8
BLACK
6
CONTINUOUS
10
6.05762
20
-4.26162
11
6.05682
21
-4.26109
0
LINE
8
BLACK
6
CONTINUOUS
10
6.05682
20
-4.26109
11
6.05629
21
-4.26029
0
LINE
8
BLACK
6
CONTINUOUS
10
6.05629
20
-4.26029
11
6.0561
21
-4.25935
0
LINE
8
BLACK
6
CONTINUOUS
10
6.0561
20
-4.25935
11
6.0561
21
-4.23179
0
LINE
8
BLACK
6
CONTINUOUS
10
6.0561
20
-4.23179
11
6.05629
21
-4.23085
0
LINE
8
BLACK
6
CONTINUOUS
10
6.05629
20
-4.23085
11
6.05682
21
-4.23005
0
LINE
8
BLACK
6
CONTINUOUS
10
6.05682
20
-4.23005
11
6.05762
21
-4.22952
0
LINE
8
BLACK
6
CONTINUOUS
10
6.05762
20
-4.22952
11
6.05856
21
-4.22933
0
LINE
8
BLACK
6
CONTINUOUS
10
6.05856
20
-4.22933
11
6.06348
21
-4.22933
0
LINE
8
BLACK
6
CONTINUOUS
10
6.06348
20
-4.22933
11
6.06443
21
-4.22952
0
LINE
8
BLACK
6
CONTINUOUS
10
6.02506
20
-4.22952
11
6.02585
21
-4.23005
0
LINE
8
BLACK
6
CONTINUOUS
10
6.02585
20
-4.23005
11
6.02639
21
-4.23085
0
LINE
8
BLACK
6
CONTINUOUS
10
6.02639
20
-4.23085
11
6.02657
21
-4.23179
0
LINE
8
BLACK
6
CONTINUOUS
10
6.02657
20
-4.23179
11
6.02657
21
-4.25935
0
LINE
8
BLACK
6
CONTINUOUS
10
6.02657
20
-4.25935
11
6.02639
21
-4.26029
0
LINE
8
BLACK
6
CONTINUOUS
10
6.02639
20
-4.26029
11
6.02585
21
-4.26109
0
LINE
8
BLACK
6
CONTINUOUS
10
6.02585
20
-4.26109
11
6.02506
21
-4.26162
0
LINE
8
BLACK
6
CONTINUOUS
10
6.02506
20
-4.26162
11
6.02411
21
-4.26181
0
LINE
8
BLACK
6
CONTINUOUS
10
6.02411
20
-4.26181
11
6.01919
21
-4.26181
0
LINE
8
BLACK
6
CONTINUOUS
10
6.01919
20
-4.26181
11
6.01825
21
-4.26162
0
LINE
8
BLACK
6
CONTINUOUS
10
6.01825
20
-4.26162
11
6.01745
21
-4.26109
0
LINE
8
BLACK
6
CONTINUOUS
10
6.01745
20
-4.26109
11
6.01692
21
-4.26029
0
LINE
8
BLACK
6
CONTINUOUS
10
6.01692
20
-4.26029
11
6.01673
21
-4.25935
0
LINE
8
BLACK
6
CONTINUOUS
10
6.01673
20
-4.25935
11
6.01673
21
-4.23179
0
LINE
8
BLACK
6
CONTINUOUS
10
6.01673
20
-4.23179
11
6.01692
21
-4.23085
0
LINE
8
BLACK
6
CONTINUOUS
10
6.01692
20
-4.23085
11
6.01745
21
-4.23005
0
LINE
8
BLACK
6
CONTINUOUS
10
6.01745
20
-4.23005
11
6.01825
21
-4.22952
0
LINE
8
BLACK
6
CONTINUOUS
10
6.01825
20
-4.22952
11
6.01919
21
-4.22933
0
LINE
8
BLACK
6
CONTINUOUS
10
6.01919
20
-4.22933
11
6.02411
21
-4.22933
0
LINE
8
BLACK
6
CONTINUOUS
10
6.02411
20
-4.22933
11
6.02506
21
-4.22952
0
LINE
8
BLACK
6
CONTINUOUS
10
6.00537
20
-4.22952
11
6.00617
21
-4.23005
0
LINE
8
BLACK
6
CONTINUOUS
10
6.00617
20
-4.23005
11
6.0067
21
-4.23085
0
LINE
8
BLACK
6
CONTINUOUS
10
6.0067
20
-4.23085
11
6.00689
21
-4.23179
0
LINE
8
BLACK
6
CONTINUOUS
10
6.00689
20
-4.23179
11
6.00689
21
-4.25935
0
LINE
8
BLACK
6
CONTINUOUS
10
6.00689
20
-4.25935
11
6.0067
21
-4.26029
0
LINE
8
BLACK
6
CONTINUOUS
10
6.0067
20
-4.26029
11
6.00617
21
-4.26109
0
LINE
8
BLACK
6
CONTINUOUS
10
6.00617
20
-4.26109
11
6.00537
21
-4.26162
0
LINE
8
BLACK
6
CONTINUOUS
10
6.00537
20
-4.26162
11
6.00443
21
-4.26181
0
LINE
8
BLACK
6
CONTINUOUS
10
6.00443
20
-4.26181
11
5.99951
21
-4.26181
0
LINE
8
BLACK
6
CONTINUOUS
10
5.99951
20
-4.26181
11
5.99857
21
-4.26162
0
LINE
8
BLACK
6
CONTINUOUS
10
5.99857
20
-4.26162
11
5.99777
21
-4.26109
0
LINE
8
BLACK
6
CONTINUOUS
10
5.99777
20
-4.26109
11
5.99723
21
-4.26029
0
LINE
8
BLACK
6
CONTINUOUS
10
5.99723
20
-4.26029
11
5.99705
21
-4.25935
0
LINE
8
BLACK
6
CONTINUOUS
10
5.99705
20
-4.25935
11
5.99705
21
-4.23179
0
LINE
8
BLACK
6
CONTINUOUS
10
5.99705
20
-4.23179
11
5.99723
21
-4.23085
0
LINE
8
BLACK
6
CONTINUOUS
10
5.99723
20
-4.23085
11
5.99777
21
-4.23005
0
LINE
8
BLACK
6
CONTINUOUS
10
5.99777
20
-4.23005
11
5.99857
21
-4.22952
0
LINE
8
BLACK
6
CONTINUOUS
10
5.99857
20
-4.22952
11
5.99951
21
-4.22933
0
LINE
8
BLACK
6
CONTINUOUS
10
5.99951
20
-4.22933
11
6.00443
21
-4.22933
0
LINE
8
BLACK
6
CONTINUOUS
10
6.00443
20
-4.22933
11
6.00537
21
-4.22952
0
LINE
8
BLACK
6
CONTINUOUS
10
5.98569
20
-4.22952
11
5.98648
21
-4.23005
0
LINE
8
BLACK
6
CONTINUOUS
10
5.98648
20
-4.23005
11
5.98702
21
-4.23085
0
LINE
8
BLACK
6
CONTINUOUS
10
5.98702
20
-4.23085
11
5.9872
21
-4.23179
0
LINE
8
BLACK
6
CONTINUOUS
10
5.9872
20
-4.23179
11
5.9872
21
-4.25935
0
LINE
8
BLACK
6
CONTINUOUS
10
5.9872
20
-4.25935
11
5.98702
21
-4.26029
0
LINE
8
BLACK
6
CONTINUOUS
10
5.98702
20
-4.26029
11
5.98648
21
-4.26109
0
LINE
8
BLACK
6
CONTINUOUS
10
5.98648
20
-4.26109
11
5.98569
21
-4.26162
0
LINE
8
BLACK
6
CONTINUOUS
10
5.98569
20
-4.26162
11
5.98474
21
-4.26181
0
LINE
8
BLACK
6
CONTINUOUS
10
5.98474
20
-4.26181
11
5.97982
21
-4.26181
0
LINE
8
BLACK
6
CONTINUOUS
10
5.97982
20
-4.26181
11
5.97888
21
-4.26162
0
LINE
8
BLACK
6
CONTINUOUS
10
5.97888
20
-4.26162
11
5.97808
21
-4.26109
0
LINE
8
BLACK
6
CONTINUOUS
10
5.97808
20
-4.26109
11
5.97755
21
-4.26029
0
LINE
8
BLACK
6
CONTINUOUS
10
5.97755
20
-4.26029
11
5.97736
21
-4.25935
0
LINE
8
BLACK
6
CONTINUOUS
10
5.97736
20
-4.25935
11
5.97736
21
-4.23179
0
LINE
8
BLACK
6
CONTINUOUS
10
5.97736
20
-4.23179
11
5.97755
21
-4.23085
0
LINE
8
BLACK
6
CONTINUOUS
10
5.97755
20
-4.23085
11
5.97808
21
-4.23005
0
LINE
8
BLACK
6
CONTINUOUS
10
5.97808
20
-4.23005
11
5.97888
21
-4.22952
0
LINE
8
BLACK
6
CONTINUOUS
10
5.97888
20
-4.22952
11
5.97982
21
-4.22933
0
LINE
8
BLACK
6
CONTINUOUS
10
5.97982
20
-4.22933
11
5.98474
21
-4.22933
0
LINE
8
BLACK
6
CONTINUOUS
10
5.98474
20
-4.22933
11
5.98569
21
-4.22952
0
LINE
8
BLACK
6
CONTINUOUS
10
6.20547
20
-4.22406
11
6.20735
21
-4.22532
0
LINE
8
BLACK
6
CONTINUOUS
10
6.20735
20
-4.22532
11
6.20861
21
-4.22721
0
LINE
8
BLACK
6
CONTINUOUS
10
6.20861
20
-4.22721
11
6.20906
21
-4.22943
0
LINE
8
BLACK
6
CONTINUOUS
10
6.20906
20
-4.22943
11
6.20906
21
-4.24301
0
LINE
8
BLACK
6
CONTINUOUS
10
6.20906
20
-4.24301
11
6.20861
21
-4.24523
0
LINE
8
BLACK
6
CONTINUOUS
10
6.20861
20
-4.24523
11
6.20735
21
-4.24712
0
LINE
8
BLACK
6
CONTINUOUS
10
6.20735
20
-4.24712
11
6.20547
21
-4.24838
0
LINE
8
BLACK
6
CONTINUOUS
10
6.20547
20
-4.24838
11
6.20325
21
-4.24882
0
LINE
8
BLACK
6
CONTINUOUS
10
6.20325
20
-4.24882
11
6.19163
21
-4.24882
0
LINE
8
BLACK
6
CONTINUOUS
10
6.19163
20
-4.24882
11
6.18941
21
-4.24838
0
LINE
8
BLACK
6
CONTINUOUS
10
6.18941
20
-4.24838
11
6.18753
21
-4.24712
0
LINE
8
BLACK
6
CONTINUOUS
10
6.18753
20
-4.24712
11
6.18627
21
-4.24523
0
LINE
8
BLACK
6
CONTINUOUS
10
6.18627
20
-4.24523
11
6.18583
21
-4.24301
0
LINE
8
BLACK
6
CONTINUOUS
10
6.18583
20
-4.24301
11
6.18583
21
-4.22943
0
LINE
8
BLACK
6
CONTINUOUS
10
6.18583
20
-4.22943
11
6.18627
21
-4.22721
0
LINE
8
BLACK
6
CONTINUOUS
10
6.18627
20
-4.22721
11
6.18753
21
-4.22532
0
LINE
8
BLACK
6
CONTINUOUS
10
6.18753
20
-4.22532
11
6.18941
21
-4.22406
0
LINE
8
BLACK
6
CONTINUOUS
10
6.18941
20
-4.22406
11
6.19163
21
-4.22362
0
LINE
8
BLACK
6
CONTINUOUS
10
6.19163
20
-4.22362
11
6.20325
21
-4.22362
0
LINE
8
BLACK
6
CONTINUOUS
10
6.20325
20
-4.22362
11
6.20547
21
-4.22406
0
LINE
8
BLACK
6
CONTINUOUS
10
6.24366
20
-4.22406
11
6.24554
21
-4.22532
0
LINE
8
BLACK
6
CONTINUOUS
10
6.24554
20
-4.22532
11
6.2468
21
-4.22721
0
LINE
8
BLACK
6
CONTINUOUS
10
6.2468
20
-4.22721
11
6.24724
21
-4.22943
0
LINE
8
BLACK
6
CONTINUOUS
10
6.24724
20
-4.22943
11
6.24724
21
-4.24301
0
LINE
8
BLACK
6
CONTINUOUS
10
6.24724
20
-4.24301
11
6.2468
21
-4.24523
0
LINE
8
BLACK
6
CONTINUOUS
10
6.2468
20
-4.24523
11
6.24554
21
-4.24712
0
LINE
8
BLACK
6
CONTINUOUS
10
6.24554
20
-4.24712
11
6.24366
21
-4.24838
0
LINE
8
BLACK
6
CONTINUOUS
10
6.24366
20
-4.24838
11
6.24144
21
-4.24882
0
LINE
8
BLACK
6
CONTINUOUS
10
6.24144
20
-4.24882
11
6.22982
21
-4.24882
0
LINE
8
BLACK
6
CONTINUOUS
10
6.22982
20
-4.24882
11
6.2276
21
-4.24838
0
LINE
8
BLACK
6
CONTINUOUS
10
6.2276
20
-4.24838
11
6.22572
21
-4.24712
0
LINE
8
BLACK
6
CONTINUOUS
10
6.22572
20
-4.24712
11
6.22446
21
-4.24523
0
LINE
8
BLACK
6
CONTINUOUS
10
6.22446
20
-4.24523
11
6.22402
21
-4.24301
0
LINE
8
BLACK
6
CONTINUOUS
10
6.22402
20
-4.24301
11
6.22402
21
-4.22943
0
LINE
8
BLACK
6
CONTINUOUS
10
6.22402
20
-4.22943
11
6.22446
21
-4.22721
0
LINE
8
BLACK
6
CONTINUOUS
10
6.22446
20
-4.22721
11
6.22572
21
-4.22532
0
LINE
8
BLACK
6
CONTINUOUS
10
6.22572
20
-4.22532
11
6.2276
21
-4.22406
0
LINE
8
BLACK
6
CONTINUOUS
10
6.2276
20
-4.22406
11
6.22982
21
-4.22362
0
LINE
8
BLACK
6
CONTINUOUS
10
6.22982
20
-4.22362
11
6.24144
21
-4.22362
0
LINE
8
BLACK
6
CONTINUOUS
10
6.24144
20
-4.22362
11
6.24366
21
-4.22406
0
LINE
8
BLACK
6
CONTINUOUS
10
6.29248
20
-4.22564
11
6.29436
21
-4.2269
0
LINE
8
BLACK
6
CONTINUOUS
10
6.29436
20
-4.2269
11
6.29562
21
-4.22878
0
LINE
8
BLACK
6
CONTINUOUS
10
6.29562
20
-4.22878
11
6.29606
21
-4.231
0
LINE
8
BLACK
6
CONTINUOUS
10
6.29606
20
-4.231
11
6.29606
21
-4.24262
0
LINE
8
BLACK
6
CONTINUOUS
10
6.29606
20
-4.24262
11
6.29562
21
-4.24484
0
LINE
8
BLACK
6
CONTINUOUS
10
6.29562
20
-4.24484
11
6.29436
21
-4.24672
0
LINE
8
BLACK
6
CONTINUOUS
10
6.29436
20
-4.24672
11
6.29248
21
-4.24798
0
LINE
8
BLACK
6
CONTINUOUS
10
6.29248
20
-4.24798
11
6.29026
21
-4.24843
0
LINE
8
BLACK
6
CONTINUOUS
10
6.29026
20
-4.24843
11
6.27667
21
-4.24843
0
LINE
8
BLACK
6
CONTINUOUS
10
6.27667
20
-4.24843
11
6.27445
21
-4.24798
0
LINE
8
BLACK
6
CONTINUOUS
10
6.27445
20
-4.24798
11
6.27257
21
-4.24672
0
LINE
8
BLACK
6
CONTINUOUS
10
6.27257
20
-4.24672
11
6.27131
21
-4.24484
0
LINE
8
BLACK
6
CONTINUOUS
10
6.27131
20
-4.24484
11
6.27087
21
-4.24262
0
LINE
8
BLACK
6
CONTINUOUS
10
6.27087
20
-4.24262
11
6.27087
21
-4.231
0
LINE
8
BLACK
6
CONTINUOUS
10
6.27087
20
-4.231
11
6.27131
21
-4.22878
0
LINE
8
BLACK
6
CONTINUOUS
10
6.27131
20
-4.22878
11
6.27257
21
-4.2269
0
LINE
8
BLACK
6
CONTINUOUS
10
6.27257
20
-4.2269
11
6.27445
21
-4.22564
0
LINE
8
BLACK
6
CONTINUOUS
10
6.27445
20
-4.22564
11
6.27667
21
-4.2252
0
LINE
8
BLACK
6
CONTINUOUS
10
6.27667
20
-4.2252
11
6.29026
21
-4.2252
0
LINE
8
BLACK
6
CONTINUOUS
10
6.29026
20
-4.2252
11
6.29248
21
-4.22564
0
LINE
8
BLACK
6
CONTINUOUS
10
5.85545
20
-4.19756
11
5.85848
21
-4.19959
0
LINE
8
BLACK
6
CONTINUOUS
10
5.85848
20
-4.19959
11
5.86051
21
-4.20262
0
LINE
8
BLACK
6
CONTINUOUS
10
5.86051
20
-4.20262
11
5.86122
21
-4.2062
0
LINE
8
BLACK
6
CONTINUOUS
10
5.86122
20
-4.2062
11
5.86122
21
-4.22884
0
LINE
8
BLACK
6
CONTINUOUS
10
5.86122
20
-4.22884
11
5.86051
21
-4.23242
0
LINE
8
BLACK
6
CONTINUOUS
10
5.86051
20
-4.23242
11
5.85848
21
-4.23545
0
LINE
8
BLACK
6
CONTINUOUS
10
5.85848
20
-4.23545
11
5.85545
21
-4.23748
0
LINE
8
BLACK
6
CONTINUOUS
10
5.85545
20
-4.23748
11
5.85187
21
-4.23819
0
LINE
8
BLACK
6
CONTINUOUS
10
5.85187
20
-4.23819
11
5.83317
21
-4.23819
0
LINE
8
BLACK
6
CONTINUOUS
10
5.83317
20
-4.23819
11
5.82959
21
-4.23748
0
LINE
8
BLACK
6
CONTINUOUS
10
5.82959
20
-4.23748
11
5.82656
21
-4.23545
0
LINE
8
BLACK
6
CONTINUOUS
10
5.82656
20
-4.23545
11
5.82453
21
-4.23242
0
LINE
8
BLACK
6
CONTINUOUS
10
5.82453
20
-4.23242
11
5.82382
21
-4.22884
0
LINE
8
BLACK
6
CONTINUOUS
10
5.82382
20
-4.22884
11
5.82382
21
-4.2062
0
LINE
8
BLACK
6
CONTINUOUS
10
5.82382
20
-4.2062
11
5.82453
21
-4.20262
0
LINE
8
BLACK
6
CONTINUOUS
10
5.82453
20
-4.20262
11
5.82656
21
-4.19959
0
LINE
8
BLACK
6
CONTINUOUS
10
5.82656
20
-4.19959
11
5.82959
21
-4.19756
0
LINE
8
BLACK
6
CONTINUOUS
10
5.82959
20
-4.19756
11
5.83317
21
-4.19685
0
LINE
8
BLACK
6
CONTINUOUS
10
5.83317
20
-4.19685
11
5.85187
21
-4.19685
0
LINE
8
BLACK
6
CONTINUOUS
10
5.85187
20
-4.19685
11
5.85545
21
-4.19756
0
LINE
8
BLACK
6
CONTINUOUS
10
5.46752
20
-4.23346
11
5.44193
21
-4.23346
0
LINE
8
BLACK
6
CONTINUOUS
10
5.44193
20
-4.23346
11
5.44193
21
-4.19173
0
LINE
8
BLACK
6
CONTINUOUS
10
5.44193
20
-4.19173
11
5.46752
21
-4.19173
0
LINE
8
BLACK
6
CONTINUOUS
10
5.46752
20
-4.19173
11
5.46752
21
-4.23346
0
LINE
8
BLACK
6
CONTINUOUS
10
5.39272
20
-4.23346
11
5.36713
21
-4.23346
0
LINE
8
BLACK
6
CONTINUOUS
10
5.36713
20
-4.23346
11
5.36713
21
-4.19173
0
LINE
8
BLACK
6
CONTINUOUS
10
5.36713
20
-4.19173
11
5.39272
21
-4.19173
0
LINE
8
BLACK
6
CONTINUOUS
10
5.39272
20
-4.19173
11
5.39272
21
-4.23346
0
LINE
8
BLACK
6
CONTINUOUS
10
6.1225
20
-4.21377
11
6.1233
21
-4.2143
0
LINE
8
BLACK
6
CONTINUOUS
10
6.1233
20
-4.2143
11
6.12383
21
-4.2151
0
LINE
8
BLACK
6
CONTINUOUS
10
6.12383
20
-4.2151
11
6.12402
21
-4.21604
0
LINE
8
BLACK
6
CONTINUOUS
10
6.12402
20
-4.21604
11
6.12402
21
-4.22096
0
LINE
8
BLACK
6
CONTINUOUS
10
6.12402
20
-4.22096
11
6.12383
21
-4.22191
0
LINE
8
BLACK
6
CONTINUOUS
10
6.12383
20
-4.22191
11
6.1233
21
-4.2227
0
LINE
8
BLACK
6
CONTINUOUS
10
6.1233
20
-4.2227
11
6.1225
21
-4.22324
0
LINE
8
BLACK
6
CONTINUOUS
10
6.1225
20
-4.22324
11
6.12156
21
-4.22343
0
LINE
8
BLACK
6
CONTINUOUS
10
6.12156
20
-4.22343
11
6.094
21
-4.22343
0
LINE
8
BLACK
6
CONTINUOUS
10
6.094
20
-4.22343
11
6.09305
21
-4.22324
0
LINE
8
BLACK
6
CONTINUOUS
10
6.09305
20
-4.22324
11
6.09226
21
-4.2227
0
LINE
8
BLACK
6
CONTINUOUS
10
6.09226
20
-4.2227
11
6.09172
21
-4.22191
0
LINE
8
BLACK
6
CONTINUOUS
10
6.09172
20
-4.22191
11
6.09154
21
-4.22096
0
LINE
8
BLACK
6
CONTINUOUS
10
6.09154
20
-4.22096
11
6.09154
21
-4.21604
0
LINE
8
BLACK
6
CONTINUOUS
10
6.09154
20
-4.21604
11
6.09172
21
-4.2151
0
LINE
8
BLACK
6
CONTINUOUS
10
6.09172
20
-4.2151
11
6.09226
21
-4.2143
0
LINE
8
BLACK
6
CONTINUOUS
10
6.09226
20
-4.2143
11
6.09305
21
-4.21377
0
LINE
8
BLACK
6
CONTINUOUS
10
6.09305
20
-4.21377
11
6.094
21
-4.21358
0
LINE
8
BLACK
6
CONTINUOUS
10
6.094
20
-4.21358
11
6.12156
21
-4.21358
0
LINE
8
BLACK
6
CONTINUOUS
10
6.12156
20
-4.21358
11
6.1225
21
-4.21377
0
LINE
8
BLACK
6
CONTINUOUS
10
5.96994
20
-4.21377
11
5.97074
21
-4.2143
0
LINE
8
BLACK
6
CONTINUOUS
10
5.97074
20
-4.2143
11
5.97127
21
-4.2151
0
LINE
8
BLACK
6
CONTINUOUS
10
5.97127
20
-4.2151
11
5.97146
21
-4.21604
0
LINE
8
BLACK
6
CONTINUOUS
10
5.97146
20
-4.21604
11
5.97146
21
-4.22096
0
LINE
8
BLACK
6
CONTINUOUS
10
5.97146
20
-4.22096
11
5.97127
21
-4.22191
0
LINE
8
BLACK
6
CONTINUOUS
10
5.97127
20
-4.22191
11
5.97074
21
-4.2227
0
LINE
8
BLACK
6
CONTINUOUS
10
5.97074
20
-4.2227
11
5.96994
21
-4.22324
0
LINE
8
BLACK
6
CONTINUOUS
10
5.96994
20
-4.22324
11
5.969
21
-4.22343
0
LINE
8
BLACK
6
CONTINUOUS
10
5.969
20
-4.22343
11
5.94144
21
-4.22343
0
LINE
8
BLACK
6
CONTINUOUS
10
5.94144
20
-4.22343
11
5.9405
21
-4.22324
0
LINE
8
BLACK
6
CONTINUOUS
10
5.9405
20
-4.22324
11
5.9397
21
-4.2227
0
LINE
8
BLACK
6
CONTINUOUS
10
5.9397
20
-4.2227
11
5.93916
21
-4.22191
0
LINE
8
BLACK
6
CONTINUOUS
10
5.93916
20
-4.22191
11
5.93898
21
-4.22096
0
LINE
8
BLACK
6
CONTINUOUS
10
5.93898
20
-4.22096
11
5.93898
21
-4.21604
0
LINE
8
BLACK
6
CONTINUOUS
10
5.93898
20
-4.21604
11
5.93916
21
-4.2151
0
LINE
8
BLACK
6
CONTINUOUS
10
5.93916
20
-4.2151
11
5.9397
21
-4.2143
0
LINE
8
BLACK
6
CONTINUOUS
10
5.9397
20
-4.2143
11
5.9405
21
-4.21377
0
LINE
8
BLACK
6
CONTINUOUS
10
5.9405
20
-4.21377
11
5.94144
21
-4.21358
0
LINE
8
BLACK
6
CONTINUOUS
10
5.94144
20
-4.21358
11
5.969
21
-4.21358
0
LINE
8
BLACK
6
CONTINUOUS
10
5.969
20
-4.21358
11
5.96994
21
-4.21377
0
LINE
8
BLACK
6
CONTINUOUS
10
5.79522
20
-4.22016
11
5.74022
21
-4.22016
0
LINE
8
BLACK
6
CONTINUOUS
10
5.74022
20
-4.22016
11
5.74022
21
-4.18516
0
LINE
8
BLACK
6
CONTINUOUS
10
5.74022
20
-4.18516
11
5.79522
21
-4.18516
0
LINE
8
BLACK
6
CONTINUOUS
10
5.79522
20
-4.18516
11
5.79522
21
-4.22016
0
LINE
8
BLACK
6
CONTINUOUS
10
6.02207
20
-4.17339
11
6.02527
21
-4.17552
0
LINE
8
BLACK
6
CONTINUOUS
10
6.02527
20
-4.17552
11
6.0274
21
-4.17871
0
LINE
8
BLACK
6
CONTINUOUS
10
6.0274
20
-4.17871
11
6.02815
21
-4.18248
0
LINE
8
BLACK
6
CONTINUOUS
10
6.02815
20
-4.18248
11
6.02815
21
-4.20728
0
LINE
8
BLACK
6
CONTINUOUS
10
6.02815
20
-4.20728
11
6.0274
21
-4.21105
0
LINE
8
BLACK
6
CONTINUOUS
10
6.0274
20
-4.21105
11
6.02527
21
-4.21424
0
LINE
8
BLACK
6
CONTINUOUS
10
6.02527
20
-4.21424
11
6.02207
21
-4.21638
0
LINE
8
BLACK
6
CONTINUOUS
10
6.02207
20
-4.21638
11
6.01831
21
-4.21713
0
LINE
8
BLACK
6
CONTINUOUS
10
6.01831
20
-4.21713
11
5.9935
21
-4.21713
0
LINE
8
BLACK
6
CONTINUOUS
10
5.9935
20
-4.21713
11
5.98974
21
-4.21638
0
LINE
8
BLACK
6
CONTINUOUS
10
5.98974
20
-4.21638
11
5.98654
21
-4.21424
0
LINE
8
BLACK
6
CONTINUOUS
10
5.98654
20
-4.21424
11
5.98441
21
-4.21105
0
LINE
8
BLACK
6
CONTINUOUS
10
5.98441
20
-4.21105
11
5.98366
21
-4.20728
0
LINE
8
BLACK
6
CONTINUOUS
10
5.98366
20
-4.20728
11
5.98366
21
-4.18248
0
LINE
8
BLACK
6
CONTINUOUS
10
5.98366
20
-4.18248
11
5.98441
21
-4.17871
0
LINE
8
BLACK
6
CONTINUOUS
10
5.98441
20
-4.17871
11
5.98654
21
-4.17552
0
LINE
8
BLACK
6
CONTINUOUS
10
5.98654
20
-4.17552
11
5.98974
21
-4.17339
0
LINE
8
BLACK
6
CONTINUOUS
10
5.98974
20
-4.17339
11
5.9935
21
-4.17264
0
LINE
8
BLACK
6
CONTINUOUS
10
5.9935
20
-4.17264
11
6.01831
21
-4.17264
0
LINE
8
BLACK
6
CONTINUOUS
10
6.01831
20
-4.17264
11
6.02207
21
-4.17339
0
LINE
8
BLACK
6
CONTINUOUS
10
6.07325
20
-4.17339
11
6.07645
21
-4.17552
0
LINE
8
BLACK
6
CONTINUOUS
10
6.07645
20
-4.17552
11
6.07858
21
-4.17871
0
LINE
8
BLACK
6
CONTINUOUS
10
6.07858
20
-4.17871
11
6.07933
21
-4.18248
0
LINE
8
BLACK
6
CONTINUOUS
10
6.07933
20
-4.18248
11
6.07933
21
-4.20728
0
LINE
8
BLACK
6
CONTINUOUS
10
6.07933
20
-4.20728
11
6.07858
21
-4.21105
0
LINE
8
BLACK
6
CONTINUOUS
10
6.07858
20
-4.21105
11
6.07645
21
-4.21424
0
LINE
8
BLACK
6
CONTINUOUS
10
6.07645
20
-4.21424
11
6.07325
21
-4.21638
0
LINE
8
BLACK
6
CONTINUOUS
10
6.07325
20
-4.21638
11
6.06949
21
-4.21713
0
LINE
8
BLACK
6
CONTINUOUS
10
6.06949
20
-4.21713
11
6.04469
21
-4.21713
0
LINE
8
BLACK
6
CONTINUOUS
10
6.04469
20
-4.21713
11
6.04092
21
-4.21638
0
LINE
8
BLACK
6
CONTINUOUS
10
6.04092
20
-4.21638
11
6.03773
21
-4.21424
0
LINE
8
BLACK
6
CONTINUOUS
10
6.03773
20
-4.21424
11
6.03559
21
-4.21105
0
LINE
8
BLACK
6
CONTINUOUS
10
6.03559
20
-4.21105
11
6.03484
21
-4.20728
0
LINE
8
BLACK
6
CONTINUOUS
10
6.03484
20
-4.20728
11
6.03484
21
-4.18248
0
LINE
8
BLACK
6
CONTINUOUS
10
6.03484
20
-4.18248
11
6.03559
21
-4.17871
0
LINE
8
BLACK
6
CONTINUOUS
10
6.03559
20
-4.17871
11
6.03773
21
-4.17552
0
LINE
8
BLACK
6
CONTINUOUS
10
6.03773
20
-4.17552
11
6.04092
21
-4.17339
0
LINE
8
BLACK
6
CONTINUOUS
10
6.04092
20
-4.17339
11
6.04469
21
-4.17264
0
LINE
8
BLACK
6
CONTINUOUS
10
6.04469
20
-4.17264
11
6.06949
21
-4.17264
0
LINE
8
BLACK
6
CONTINUOUS
10
6.06949
20
-4.17264
11
6.07325
21
-4.17339
0
LINE
8
BLACK
6
CONTINUOUS
10
6.1225
20
-4.19408
11
6.1233
21
-4.19462
0
LINE
8
BLACK
6
CONTINUOUS
10
6.1233
20
-4.19462
11
6.12383
21
-4.19542
0
LINE
8
BLACK
6
CONTINUOUS
10
6.12383
20
-4.19542
11
6.12402
21
-4.19636
0
LINE
8
BLACK
6
CONTINUOUS
10
6.12402
20
-4.19636
11
6.12402
21
-4.20128
0
LINE
8
BLACK
6
CONTINUOUS
10
6.12402
20
-4.20128
11
6.12383
21
-4.20222
0
LINE
8
BLACK
6
CONTINUOUS
10
6.12383
20
-4.20222
11
6.1233
21
-4.20302
0
LINE
8
BLACK
6
CONTINUOUS
10
6.1233
20
-4.20302
11
6.1225
21
-4.20355
0
LINE
8
BLACK
6
CONTINUOUS
10
6.1225
20
-4.20355
11
6.12156
21
-4.20374
0
LINE
8
BLACK
6
CONTINUOUS
10
6.12156
20
-4.20374
11
6.094
21
-4.20374
0
LINE
8
BLACK
6
CONTINUOUS
10
6.094
20
-4.20374
11
6.09305
21
-4.20355
0
LINE
8
BLACK
6
CONTINUOUS
10
6.09305
20
-4.20355
11
6.09226
21
-4.20302
0
LINE
8
BLACK
6
CONTINUOUS
10
6.09226
20
-4.20302
11
6.09172
21
-4.20222
0
LINE
8
BLACK
6
CONTINUOUS
10
6.09172
20
-4.20222
11
6.09154
21
-4.20128
0
LINE
8
BLACK
6
CONTINUOUS
10
6.09154
20
-4.20128
11
6.09154
21
-4.19636
0
LINE
8
BLACK
6
CONTINUOUS
10
6.09154
20
-4.19636
11
6.09172
21
-4.19542
0
LINE
8
BLACK
6
CONTINUOUS
10
6.09172
20
-4.19542
11
6.09226
21
-4.19462
0
LINE
8
BLACK
6
CONTINUOUS
10
6.09226
20
-4.19462
11
6.09305
21
-4.19408
0
LINE
8
BLACK
6
CONTINUOUS
10
6.09305
20
-4.19408
11
6.094
21
-4.1939
0
LINE
8
BLACK
6
CONTINUOUS
10
6.094
20
-4.1939
11
6.12156
21
-4.1939
0
LINE
8
BLACK
6
CONTINUOUS
10
6.12156
20
-4.1939
11
6.1225
21
-4.19408
0
LINE
8
BLACK
6
CONTINUOUS
10
5.96994
20
-4.19408
11
5.97074
21
-4.19462
0
LINE
8
BLACK
6
CONTINUOUS
10
5.97074
20
-4.19462
11
5.97127
21
-4.19542
0
LINE
8
BLACK
6
CONTINUOUS
10
5.97127
20
-4.19542
11
5.97146
21
-4.19636
0
LINE
8
BLACK
6
CONTINUOUS
10
5.97146
20
-4.19636
11
5.97146
21
-4.20128
0
LINE
8
BLACK
6
CONTINUOUS
10
5.97146
20
-4.20128
11
5.97127
21
-4.20222
0
LINE
8
BLACK
6
CONTINUOUS
10
5.97127
20
-4.20222
11
5.97074
21
-4.20302
0
LINE
8
BLACK
6
CONTINUOUS
10
5.97074
20
-4.20302
11
5.96994
21
-4.20355
0
LINE
8
BLACK
6
CONTINUOUS
10
5.96994
20
-4.20355
11
5.969
21
-4.20374
0
LINE
8
BLACK
6
CONTINUOUS
10
5.969
20
-4.20374
11
5.94144
21
-4.20374
0
LINE
8
BLACK
6
CONTINUOUS
10
5.94144
20
-4.20374
11
5.9405
21
-4.20355
0
LINE
8
BLACK
6
CONTINUOUS
10
5.9405
20
-4.20355
11
5.9397
21
-4.20302
0
LINE
8
BLACK
6
CONTINUOUS
10
5.9397
20
-4.20302
11
5.93916
21
-4.20222
0
LINE
8
BLACK
6
CONTINUOUS
10
5.93916
20
-4.20222
11
5.93898
21
-4.20128
0
LINE
8
BLACK
6
CONTINUOUS
10
5.93898
20
-4.20128
11
5.93898
21
-4.19636
0
LINE
8
BLACK
6
CONTINUOUS
10
5.93898
20
-4.19636
11
5.93916
21
-4.19542
0
LINE
8
BLACK
6
CONTINUOUS
10
5.93916
20
-4.19542
11
5.9397
21
-4.19462
0
LINE
8
BLACK
6
CONTINUOUS
10
5.9397
20
-4.19462
11
5.9405
21
-4.19408
0
LINE
8
BLACK
6
CONTINUOUS
10
5.9405
20
-4.19408
11
5.94144
21
-4.1939
0
LINE
8
BLACK
6
CONTINUOUS
10
5.94144
20
-4.1939
11
5.969
21
-4.1939
0
LINE
8
BLACK
6
CONTINUOUS
10
5.969
20
-4.1939
11
5.96994
21
-4.19408
0
LINE
8
BLACK
6
CONTINUOUS
10
5.96994
20
-4.1744
11
5.97074
21
-4.17493
0
LINE
8
BLACK
6
CONTINUOUS
10
5.97074
20
-4.17493
11
5.97127
21
-4.17573
0
LINE
8
BLACK
6
CONTINUOUS
10
5.97127
20
-4.17573
11
5.97146
21
-4.17667
0
LINE
8
BLACK
6
CONTINUOUS
10
5.97146
20
-4.17667
11
5.97146
21
-4.18159
0
LINE
8
BLACK
6
CONTINUOUS
10
5.97146
20
-4.18159
11
5.97127
21
-4.18254
0
LINE
8
BLACK
6
CONTINUOUS
10
5.97127
20
-4.18254
11
5.97074
21
-4.18333
0
LINE
8
BLACK
6
CONTINUOUS
10
5.97074
20
-4.18333
11
5.96994
21
-4.18387
0
LINE
8
BLACK
6
CONTINUOUS
10
5.96994
20
-4.18387
11
5.969
21
-4.18406
0
LINE
8
BLACK
6
CONTINUOUS
10
5.969
20
-4.18406
11
5.94144
21
-4.18406
0
LINE
8
BLACK
6
CONTINUOUS
10
5.94144
20
-4.18406
11
5.9405
21
-4.18387
0
LINE
8
BLACK
6
CONTINUOUS
10
5.9405
20
-4.18387
11
5.9397
21
-4.18333
0
LINE
8
BLACK
6
CONTINUOUS
10
5.9397
20
-4.18333
11
5.93916
21
-4.18254
0
LINE
8
BLACK
6
CONTINUOUS
10
5.93916
20
-4.18254
11
5.93898
21
-4.18159
0
LINE
8
BLACK
6
CONTINUOUS
10
5.93898
20
-4.18159
11
5.93898
21
-4.17667
0
LINE
8
BLACK
6
CONTINUOUS
10
5.93898
20
-4.17667
11
5.93916
21
-4.17573
0
LINE
8
BLACK
6
CONTINUOUS
10
5.93916
20
-4.17573
11
5.9397
21
-4.17493
0
LINE
8
BLACK
6
CONTINUOUS
10
5.9397
20
-4.17493
11
5.9405
21
-4.1744
0
LINE
8
BLACK
6
CONTINUOUS
10
5.9405
20
-4.1744
11
5.94144
21
-4.17421
0
LINE
8
BLACK
6
CONTINUOUS
10
5.94144
20
-4.17421
11
5.969
21
-4.17421
0
LINE
8
BLACK
6
CONTINUOUS
10
5.969
20
-4.17421
11
5.96994
21
-4.1744
0
LINE
8
BLACK
6
CONTINUOUS
10
6.1225
20
-4.1744
11
6.1233
21
-4.17493
0
LINE
8
BLACK
6
CONTINUOUS
10
6.1233
20
-4.17493
11
6.12383
21
-4.17573
0
LINE
8
BLACK
6
CONTINUOUS
10
6.12383
20
-4.17573
11
6.12402
21
-4.17667
0
LINE
8
BLACK
6
CONTINUOUS
10
6.12402
20
-4.17667
11
6.12402
21
-4.18159
0
LINE
8
BLACK
6
CONTINUOUS
10
6.12402
20
-4.18159
11
6.12383
21
-4.18254
0
LINE
8
BLACK
6
CONTINUOUS
10
6.12383
20
-4.18254
11
6.1233
21
-4.18333
0
LINE
8
BLACK
6
CONTINUOUS
10
6.1233
20
-4.18333
11
6.1225
21
-4.18387
0
LINE
8
BLACK
6
CONTINUOUS
10
6.1225
20
-4.18387
11
6.12156
21
-4.18406
0
LINE
8
BLACK
6
CONTINUOUS
10
6.12156
20
-4.18406
11
6.094
21
-4.18406
0
LINE
8
BLACK
6
CONTINUOUS
10
6.094
20
-4.18406
11
6.09305
21
-4.18387
0
LINE
8
BLACK
6
CONTINUOUS
10
6.09305
20
-4.18387
11
6.09226
21
-4.18333
0
LINE
8
BLACK
6
CONTINUOUS
10
6.09226
20
-4.18333
11
6.09172
21
-4.18254
0
LINE
8
BLACK
6
CONTINUOUS
10
6.09172
20
-4.18254
11
6.09154
21
-4.18159
0
LINE
8
BLACK
6
CONTINUOUS
10
6.09154
20
-4.18159
11
6.09154
21
-4.17667
0
LINE
8
BLACK
6
CONTINUOUS
10
6.09154
20
-4.17667
11
6.09172
21
-4.17573
0
LINE
8
BLACK
6
CONTINUOUS
10
6.09172
20
-4.17573
11
6.09226
21
-4.17493
0
LINE
8
BLACK
6
CONTINUOUS
10
6.09226
20
-4.17493
11
6.09305
21
-4.1744
0
LINE
8
BLACK
6
CONTINUOUS
10
6.09305
20
-4.1744
11
6.094
21
-4.17421
0
LINE
8
BLACK
6
CONTINUOUS
10
6.094
20
-4.17421
11
6.12156
21
-4.17421
0
LINE
8
BLACK
6
CONTINUOUS
10
6.12156
20
-4.17421
11
6.1225
21
-4.1744
0
LINE
8
BLACK
6
CONTINUOUS
10
6.02207
20
-4.12221
11
6.02527
21
-4.12434
0
LINE
8
BLACK
6
CONTINUOUS
10
6.02527
20
-4.12434
11
6.0274
21
-4.12753
0
LINE
8
BLACK
6
CONTINUOUS
10
6.0274
20
-4.12753
11
6.02815
21
-4.1313
0
LINE
8
BLACK
6
CONTINUOUS
10
6.02815
20
-4.1313
11
6.02815
21
-4.1561
0
LINE
8
BLACK
6
CONTINUOUS
10
6.02815
20
-4.1561
11
6.0274
21
-4.15987
0
LINE
8
BLACK
6
CONTINUOUS
10
6.0274
20
-4.15987
11
6.02527
21
-4.16306
0
LINE
8
BLACK
6
CONTINUOUS
10
6.02527
20
-4.16306
11
6.02207
21
-4.1652
0
LINE
8
BLACK
6
CONTINUOUS
10
6.02207
20
-4.1652
11
6.01831
21
-4.16594
0
LINE
8
BLACK
6
CONTINUOUS
10
6.01831
20
-4.16594
11
5.9935
21
-4.16594
0
LINE
8
BLACK
6
CONTINUOUS
10
5.9935
20
-4.16594
11
5.98974
21
-4.1652
0
LINE
8
BLACK
6
CONTINUOUS
10
5.98974
20
-4.1652
11
5.98654
21
-4.16306
0
LINE
8
BLACK
6
CONTINUOUS
10
5.98654
20
-4.16306
11
5.98441
21
-4.15987
0
LINE
8
BLACK
6
CONTINUOUS
10
5.98441
20
-4.15987
11
5.98366
21
-4.1561
0
LINE
8
BLACK
6
CONTINUOUS
10
5.98366
20
-4.1561
11
5.98366
21
-4.1313
0
LINE
8
BLACK
6
CONTINUOUS
10
5.98366
20
-4.1313
11
5.98441
21
-4.12753
0
LINE
8
BLACK
6
CONTINUOUS
10
5.98441
20
-4.12753
11
5.98654
21
-4.12434
0
LINE
8
BLACK
6
CONTINUOUS
10
5.98654
20
-4.12434
11
5.98974
21
-4.12221
0
LINE
8
BLACK
6
CONTINUOUS
10
5.98974
20
-4.12221
11
5.9935
21
-4.12146
0
LINE
8
BLACK
6
CONTINUOUS
10
5.9935
20
-4.12146
11
6.01831
21
-4.12146
0
LINE
8
BLACK
6
CONTINUOUS
10
6.01831
20
-4.12146
11
6.02207
21
-4.12221
0
LINE
8
BLACK
6
CONTINUOUS
10
6.07325
20
-4.12221
11
6.07645
21
-4.12434
0
LINE
8
BLACK
6
CONTINUOUS
10
6.07645
20
-4.12434
11
6.07858
21
-4.12753
0
LINE
8
BLACK
6
CONTINUOUS
10
6.07858
20
-4.12753
11
6.07933
21
-4.1313
0
LINE
8
BLACK
6
CONTINUOUS
10
6.07933
20
-4.1313
11
6.07933
21
-4.1561
0
LINE
8
BLACK
6
CONTINUOUS
10
6.07933
20
-4.1561
11
6.07858
21
-4.15987
0
LINE
8
BLACK
6
CONTINUOUS
10
6.07858
20
-4.15987
11
6.07645
21
-4.16306
0
LINE
8
BLACK
6
CONTINUOUS
10
6.07645
20
-4.16306
11
6.07325
21
-4.1652
0
LINE
8
BLACK
6
CONTINUOUS
10
6.07325
20
-4.1652
11
6.06949
21
-4.16594
0
LINE
8
BLACK
6
CONTINUOUS
10
6.06949
20
-4.16594
11
6.04469
21
-4.16594
0
LINE
8
BLACK
6
CONTINUOUS
10
6.04469
20
-4.16594
11
6.04092
21
-4.1652
0
LINE
8
BLACK
6
CONTINUOUS
10
6.04092
20
-4.1652
11
6.03773
21
-4.16306
0
LINE
8
BLACK
6
CONTINUOUS
10
6.03773
20
-4.16306
11
6.03559
21
-4.15987
0
LINE
8
BLACK
6
CONTINUOUS
10
6.03559
20
-4.15987
11
6.03484
21
-4.1561
0
LINE
8
BLACK
6
CONTINUOUS
10
6.03484
20
-4.1561
11
6.03484
21
-4.1313
0
LINE
8
BLACK
6
CONTINUOUS
10
6.03484
20
-4.1313
11
6.03559
21
-4.12753
0
LINE
8
BLACK
6
CONTINUOUS
10
6.03559
20
-4.12753
11
6.03773
21
-4.12434
0
LINE
8
BLACK
6
CONTINUOUS
10
6.03773
20
-4.12434
11
6.04092
21
-4.12221
0
LINE
8
BLACK
6
CONTINUOUS
10
6.04092
20
-4.12221
11
6.04469
21
-4.12146
0
LINE
8
BLACK
6
CONTINUOUS
10
6.04469
20
-4.12146
11
6.06949
21
-4.12146
0
LINE
8
BLACK
6
CONTINUOUS
10
6.06949
20
-4.12146
11
6.07325
21
-4.12221
0
LINE
8
BLACK
6
CONTINUOUS
10
6.43419
20
-4.12473
11
6.43722
21
-4.12675
0
LINE
8
BLACK
6
CONTINUOUS
10
6.43722
20
-4.12675
11
6.43925
21
-4.12979
0
LINE
8
BLACK
6
CONTINUOUS
10
6.43925
20
-4.12979
11
6.43996
21
-4.13337
0
LINE
8
BLACK
6
CONTINUOUS
10
6.43996
20
-4.13337
11
6.43996
21
-4.156
0
LINE
8
BLACK
6
CONTINUOUS
10
6.43996
20
-4.156
11
6.43925
21
-4.15958
0
LINE
8
BLACK
6
CONTINUOUS
10
6.43925
20
-4.15958
11
6.43722
21
-4.16262
0
LINE
8
BLACK
6
CONTINUOUS
10
6.43722
20
-4.16262
11
6.43419
21
-4.16464
0
LINE
8
BLACK
6
CONTINUOUS
10
6.43419
20
-4.16464
11
6.43061
21
-4.16535
0
LINE
8
BLACK
6
CONTINUOUS
10
6.43061
20
-4.16535
11
6.41191
21
-4.16535
0
LINE
8
BLACK
6
CONTINUOUS
10
6.41191
20
-4.16535
11
6.40833
21
-4.16464
0
LINE
8
BLACK
6
CONTINUOUS
10
6.40833
20
-4.16464
11
6.4053
21
-4.16262
0
LINE
8
BLACK
6
CONTINUOUS
10
6.4053
20
-4.16262
11
6.40327
21
-4.15958
0
LINE
8
BLACK
6
CONTINUOUS
10
6.40327
20
-4.15958
11
6.40256
21
-4.156
0
LINE
8
BLACK
6
CONTINUOUS
10
6.40256
20
-4.156
11
6.40256
21
-4.13337
0
LINE
8
BLACK
6
CONTINUOUS
10
6.40256
20
-4.13337
11
6.40327
21
-4.12979
0
LINE
8
BLACK
6
CONTINUOUS
10
6.40327
20
-4.12979
11
6.4053
21
-4.12675
0
LINE
8
BLACK
6
CONTINUOUS
10
6.4053
20
-4.12675
11
6.40833
21
-4.12473
0
LINE
8
BLACK
6
CONTINUOUS
10
6.40833
20
-4.12473
11
6.41191
21
-4.12402
0
LINE
8
BLACK
6
CONTINUOUS
10
6.41191
20
-4.12402
11
6.43061
21
-4.12402
0
LINE
8
BLACK
6
CONTINUOUS
10
6.43061
20
-4.12402
11
6.43419
21
-4.12473
0
LINE
8
BLACK
6
CONTINUOUS
10
6.63891
20
-4.12473
11
6.64195
21
-4.12675
0
LINE
8
BLACK
6
CONTINUOUS
10
6.64195
20
-4.12675
11
6.64397
21
-4.12979
0
LINE
8
BLACK
6
CONTINUOUS
10
6.64397
20
-4.12979
11
6.64469
21
-4.13337
0
LINE
8
BLACK
6
CONTINUOUS
10
6.64469
20
-4.13337
11
6.64469
21
-4.156
0
LINE
8
BLACK
6
CONTINUOUS
10
6.64469
20
-4.156
11
6.64397
21
-4.15958
0
LINE
8
BLACK
6
CONTINUOUS
10
6.64397
20
-4.15958
11
6.64195
21
-4.16262
0
LINE
8
BLACK
6
CONTINUOUS
10
6.64195
20
-4.16262
11
6.63891
21
-4.16464
0
LINE
8
BLACK
6
CONTINUOUS
10
6.63891
20
-4.16464
11
6.63533
21
-4.16535
0
LINE
8
BLACK
6
CONTINUOUS
10
6.63533
20
-4.16535
11
6.61663
21
-4.16535
0
LINE
8
BLACK
6
CONTINUOUS
10
6.61663
20
-4.16535
11
6.61306
21
-4.16464
0
LINE
8
BLACK
6
CONTINUOUS
10
6.61306
20
-4.16464
11
6.61002
21
-4.16262
0
LINE
8
BLACK
6
CONTINUOUS
10
6.61002
20
-4.16262
11
6.608
21
-4.15958
0
LINE
8
BLACK
6
CONTINUOUS
10
6.608
20
-4.15958
11
6.60728
21
-4.156
0
LINE
8
BLACK
6
CONTINUOUS
10
6.60728
20
-4.156
11
6.60728
21
-4.13337
0
LINE
8
BLACK
6
CONTINUOUS
10
6.60728
20
-4.13337
11
6.608
21
-4.12979
0
LINE
8
BLACK
6
CONTINUOUS
10
6.608
20
-4.12979
11
6.61002
21
-4.12675
0
LINE
8
BLACK
6
CONTINUOUS
10
6.61002
20
-4.12675
11
6.61306
21
-4.12473
0
LINE
8
BLACK
6
CONTINUOUS
10
6.61306
20
-4.12473
11
6.61663
21
-4.12402
0
LINE
8
BLACK
6
CONTINUOUS
10
6.61663
20
-4.12402
11
6.63533
21
-4.12402
0
LINE
8
BLACK
6
CONTINUOUS
10
6.63533
20
-4.12402
11
6.63891
21
-4.12473
0
LINE
8
BLACK
6
CONTINUOUS
10
6.79639
20
-4.12473
11
6.79943
21
-4.12675
0
LINE
8
BLACK
6
CONTINUOUS
10
6.79943
20
-4.12675
11
6.80145
21
-4.12979
0
LINE
8
BLACK
6
CONTINUOUS
10
6.80145
20
-4.12979
11
6.80217
21
-4.13337
0
LINE
8
BLACK
6
CONTINUOUS
10
6.80217
20
-4.13337
11
6.80217
21
-4.156
0
LINE
8
BLACK
6
CONTINUOUS
10
6.80217
20
-4.156
11
6.80145
21
-4.15958
0
LINE
8
BLACK
6
CONTINUOUS
10
6.80145
20
-4.15958
11
6.79943
21
-4.16262
0
LINE
8
BLACK
6
CONTINUOUS
10
6.79943
20
-4.16262
11
6.79639
21
-4.16464
0
LINE
8
BLACK
6
CONTINUOUS
10
6.79639
20
-4.16464
11
6.79281
21
-4.16535
0
LINE
8
BLACK
6
CONTINUOUS
10
6.79281
20
-4.16535
11
6.77411
21
-4.16535
0
LINE
8
BLACK
6
CONTINUOUS
10
6.77411
20
-4.16535
11
6.77054
21
-4.16464
0
LINE
8
BLACK
6
CONTINUOUS
10
6.77054
20
-4.16464
11
6.7675
21
-4.16262
0
LINE
8
BLACK
6
CONTINUOUS
10
6.7675
20
-4.16262
11
6.76548
21
-4.15958
0
LINE
8
BLACK
6
CONTINUOUS
10
6.76548
20
-4.15958
11
6.76476
21
-4.156
0
LINE
8
BLACK
6
CONTINUOUS
10
6.76476
20
-4.156
11
6.76476
21
-4.13337
0
LINE
8
BLACK
6
CONTINUOUS
10
6.76476
20
-4.13337
11
6.76548
21
-4.12979
0
LINE
8
BLACK
6
CONTINUOUS
10
6.76548
20
-4.12979
11
6.7675
21
-4.12675
0
LINE
8
BLACK
6
CONTINUOUS
10
6.7675
20
-4.12675
11
6.77054
21
-4.12473
0
LINE
8
BLACK
6
CONTINUOUS
10
6.77054
20
-4.12473
11
6.77411
21
-4.12402
0
LINE
8
BLACK
6
CONTINUOUS
10
6.77411
20
-4.12402
11
6.79281
21
-4.12402
0
LINE
8
BLACK
6
CONTINUOUS
10
6.79281
20
-4.12402
11
6.79639
21
-4.12473
0
LINE
8
BLACK
6
CONTINUOUS
10
6.36824
20
-4.12768
11
6.37128
21
-4.12971
0
LINE
8
BLACK
6
CONTINUOUS
10
6.37128
20
-4.12971
11
6.3733
21
-4.13274
0
LINE
8
BLACK
6
CONTINUOUS
10
6.3733
20
-4.13274
11
6.37402
21
-4.13632
0
LINE
8
BLACK
6
CONTINUOUS
10
6.37402
20
-4.13632
11
6.37402
21
-4.15502
0
LINE
8
BLACK
6
CONTINUOUS
10
6.37402
20
-4.15502
11
6.3733
21
-4.1586
0
LINE
8
BLACK
6
CONTINUOUS
10
6.3733
20
-4.1586
11
6.37128
21
-4.16163
0
LINE
8
BLACK
6
CONTINUOUS
10
6.37128
20
-4.16163
11
6.36824
21
-4.16366
0
LINE
8
BLACK
6
CONTINUOUS
10
6.36824
20
-4.16366
11
6.36467
21
-4.16437
0
LINE
8
BLACK
6
CONTINUOUS
10
6.36467
20
-4.16437
11
6.34203
21
-4.16437
0
LINE
8
BLACK
6
CONTINUOUS
10
6.34203
20
-4.16437
11
6.33845
21
-4.16366
0
LINE
8
BLACK
6
CONTINUOUS
10
6.33845
20
-4.16366
11
6.33542
21
-4.16163
0
LINE
8
BLACK
6
CONTINUOUS
10
6.33542
20
-4.16163
11
6.33339
21
-4.1586
0
LINE
8
BLACK
6
CONTINUOUS
10
6.33339
20
-4.1586
11
6.33268
21
-4.15502
0
LINE
8
BLACK
6
CONTINUOUS
10
6.33268
20
-4.15502
11
6.33268
21
-4.13632
0
LINE
8
BLACK
6
CONTINUOUS
10
6.33268
20
-4.13632
11
6.33339
21
-4.13274
0
LINE
8
BLACK
6
CONTINUOUS
10
6.33339
20
-4.13274
11
6.33542
21
-4.12971
0
LINE
8
BLACK
6
CONTINUOUS
10
6.33542
20
-4.12971
11
6.33845
21
-4.12768
0
LINE
8
BLACK
6
CONTINUOUS
10
6.33845
20
-4.12768
11
6.34203
21
-4.12697
0
LINE
8
BLACK
6
CONTINUOUS
10
6.34203
20
-4.12697
11
6.36467
21
-4.12697
0
LINE
8
BLACK
6
CONTINUOUS
10
6.36467
20
-4.12697
11
6.36824
21
-4.12768
0
LINE
8
BLACK
6
CONTINUOUS
10
5.96994
20
-4.15471
11
5.97074
21
-4.15525
0
LINE
8
BLACK
6
CONTINUOUS
10
5.97074
20
-4.15525
11
5.97127
21
-4.15605
0
LINE
8
BLACK
6
CONTINUOUS
10
5.97127
20
-4.15605
11
5.97146
21
-4.15699
0
LINE
8
BLACK
6
CONTINUOUS
10
5.97146
20
-4.15699
11
5.97146
21
-4.16191
0
LINE
8
BLACK
6
CONTINUOUS
10
5.97146
20
-4.16191
11
5.97127
21
-4.16285
0
LINE
8
BLACK
6
CONTINUOUS
10
5.97127
20
-4.16285
11
5.97074
21
-4.16365
0
LINE
8
BLACK
6
CONTINUOUS
10
5.97074
20
-4.16365
11
5.96994
21
-4.16418
0
LINE
8
BLACK
6
CONTINUOUS
10
5.96994
20
-4.16418
11
5.969
21
-4.16437
0
LINE
8
BLACK
6
CONTINUOUS
10
5.969
20
-4.16437
11
5.94144
21
-4.16437
0
LINE
8
BLACK
6
CONTINUOUS
10
5.94144
20
-4.16437
11
5.9405
21
-4.16418
0
LINE
8
BLACK
6
CONTINUOUS
10
5.9405
20
-4.16418
11
5.9397
21
-4.16365
0
LINE
8
BLACK
6
CONTINUOUS
10
5.9397
20
-4.16365
11
5.93916
21
-4.16285
0
LINE
8
BLACK
6
CONTINUOUS
10
5.93916
20
-4.16285
11
5.93898
21
-4.16191
0
LINE
8
BLACK
6
CONTINUOUS
10
5.93898
20
-4.16191
11
5.93898
21
-4.15699
0
LINE
8
BLACK
6
CONTINUOUS
10
5.93898
20
-4.15699
11
5.93916
21
-4.15605
0
LINE
8
BLACK
6
CONTINUOUS
10
5.93916
20
-4.15605
11
5.9397
21
-4.15525
0
LINE
8
BLACK
6
CONTINUOUS
10
5.9397
20
-4.15525
11
5.9405
21
-4.15471
0
LINE
8
BLACK
6
CONTINUOUS
10
5.9405
20
-4.15471
11
5.94144
21
-4.15453
0
LINE
8
BLACK
6
CONTINUOUS
10
5.94144
20
-4.15453
11
5.969
21
-4.15453
0
LINE
8
BLACK
6
CONTINUOUS
10
5.969
20
-4.15453
11
5.96994
21
-4.15471
0
LINE
8
BLACK
6
CONTINUOUS
10
6.29935
20
-4.12768
11
6.30238
21
-4.12971
0
LINE
8
BLACK
6
CONTINUOUS
10
6.30238
20
-4.12971
11
6.30441
21
-4.13274
0
LINE
8
BLACK
6
CONTINUOUS
10
6.30441
20
-4.13274
11
6.30512
21
-4.13632
0
LINE
8
BLACK
6
CONTINUOUS
10
6.30512
20
-4.13632
11
6.30512
21
-4.15502
0
LINE
8
BLACK
6
CONTINUOUS
10
6.30512
20
-4.15502
11
6.30441
21
-4.1586
0
LINE
8
BLACK
6
CONTINUOUS
10
6.30441
20
-4.1586
11
6.30238
21
-4.16163
0
LINE
8
BLACK
6
CONTINUOUS
10
6.30238
20
-4.16163
11
6.29935
21
-4.16366
0
LINE
8
BLACK
6
CONTINUOUS
10
6.29935
20
-4.16366
11
6.29577
21
-4.16437
0
LINE
8
BLACK
6
CONTINUOUS
10
6.29577
20
-4.16437
11
6.27313
21
-4.16437
0
LINE
8
BLACK
6
CONTINUOUS
10
6.27313
20
-4.16437
11
6.26955
21
-4.16366
0
LINE
8
BLACK
6
CONTINUOUS
10
6.26955
20
-4.16366
11
6.26652
21
-4.16163
0
LINE
8
BLACK
6
CONTINUOUS
10
6.26652
20
-4.16163
11
6.26449
21
-4.1586
0
LINE
8
BLACK
6
CONTINUOUS
10
6.26449
20
-4.1586
11
6.26378
21
-4.15502
0
LINE
8
BLACK
6
CONTINUOUS
10
6.26378
20
-4.15502
11
6.26378
21
-4.13632
0
LINE
8
BLACK
6
CONTINUOUS
10
6.26378
20
-4.13632
11
6.26449
21
-4.13274
0
LINE
8
BLACK
6
CONTINUOUS
10
6.26449
20
-4.13274
11
6.26652
21
-4.12971
0
LINE
8
BLACK
6
CONTINUOUS
10
6.26652
20
-4.12971
11
6.26955
21
-4.12768
0
LINE
8
BLACK
6
CONTINUOUS
10
6.26955
20
-4.12768
11
6.27313
21
-4.12697
0
LINE
8
BLACK
6
CONTINUOUS
10
6.27313
20
-4.12697
11
6.29577
21
-4.12697
0
LINE
8
BLACK
6
CONTINUOUS
10
6.29577
20
-4.12697
11
6.29935
21
-4.12768
0
LINE
8
BLACK
6
CONTINUOUS
10
6.1225
20
-4.15471
11
6.1233
21
-4.15525
0
LINE
8
BLACK
6
CONTINUOUS
10
6.1233
20
-4.15525
11
6.12383
21
-4.15605
0
LINE
8
BLACK
6
CONTINUOUS
10
6.12383
20
-4.15605
11
6.12402
21
-4.15699
0
LINE
8
BLACK
6
CONTINUOUS
10
6.12402
20
-4.15699
11
6.12402
21
-4.16191
0
LINE
8
BLACK
6
CONTINUOUS
10
6.12402
20
-4.16191
11
6.12383
21
-4.16285
0
LINE
8
BLACK
6
CONTINUOUS
10
6.12383
20
-4.16285
11
6.1233
21
-4.16365
0
LINE
8
BLACK
6
CONTINUOUS
10
6.1233
20
-4.16365
11
6.1225
21
-4.16418
0
LINE
8
BLACK
6
CONTINUOUS
10
6.1225
20
-4.16418
11
6.12156
21
-4.16437
0
LINE
8
BLACK
6
CONTINUOUS
10
6.12156
20
-4.16437
11
6.094
21
-4.16437
0
LINE
8
BLACK
6
CONTINUOUS
10
6.094
20
-4.16437
11
6.09305
21
-4.16418
0
LINE
8
BLACK
6
CONTINUOUS
10
6.09305
20
-4.16418
11
6.09226
21
-4.16365
0
LINE
8
BLACK
6
CONTINUOUS
10
6.09226
20
-4.16365
11
6.09172
21
-4.16285
0
LINE
8
BLACK
6
CONTINUOUS
10
6.09172
20
-4.16285
11
6.09154
21
-4.16191
0
LINE
8
BLACK
6
CONTINUOUS
10
6.09154
20
-4.16191
11
6.09154
21
-4.15699
0
LINE
8
BLACK
6
CONTINUOUS
10
6.09154
20
-4.15699
11
6.09172
21
-4.15605
0
LINE
8
BLACK
6
CONTINUOUS
10
6.09172
20
-4.15605
11
6.09226
21
-4.15525
0
LINE
8
BLACK
6
CONTINUOUS
10
6.09226
20
-4.15525
11
6.09305
21
-4.15471
0
LINE
8
BLACK
6
CONTINUOUS
10
6.09305
20
-4.15471
11
6.094
21
-4.15453
0
LINE
8
BLACK
6
CONTINUOUS
10
6.094
20
-4.15453
11
6.12156
21
-4.15453
0
LINE
8
BLACK
6
CONTINUOUS
10
6.12156
20
-4.15453
11
6.1225
21
-4.15471
0
LINE
8
BLACK
6
CONTINUOUS
10
6.50407
20
-4.12768
11
6.5071
21
-4.12971
0
LINE
8
BLACK
6
CONTINUOUS
10
6.5071
20
-4.12971
11
6.50913
21
-4.13274
0
LINE
8
BLACK
6
CONTINUOUS
10
6.50913
20
-4.13274
11
6.50984
21
-4.13632
0
LINE
8
BLACK
6
CONTINUOUS
10
6.50984
20
-4.13632
11
6.50984
21
-4.15502
0
LINE
8
BLACK
6
CONTINUOUS
10
6.50984
20
-4.15502
11
6.50913
21
-4.1586
0
LINE
8
BLACK
6
CONTINUOUS
10
6.50913
20
-4.1586
11
6.5071
21
-4.16163
0
LINE
8
BLACK
6
CONTINUOUS
10
6.5071
20
-4.16163
11
6.50407
21
-4.16366
0
LINE
8
BLACK
6
CONTINUOUS
10
6.50407
20
-4.16366
11
6.50049
21
-4.16437
0
LINE
8
BLACK
6
CONTINUOUS
10
6.50049
20
-4.16437
11
6.47785
21
-4.16437
0
LINE
8
BLACK
6
CONTINUOUS
10
6.47785
20
-4.16437
11
6.47428
21
-4.16366
0
LINE
8
BLACK
6
CONTINUOUS
10
6.47428
20
-4.16366
11
6.47124
21
-4.16163
0
LINE
8
BLACK
6
CONTINUOUS
10
6.47124
20
-4.16163
11
6.46922
21
-4.1586
0
LINE
8
BLACK
6
CONTINUOUS
10
6.46922
20
-4.1586
11
6.4685
21
-4.15502
0
LINE
8
BLACK
6
CONTINUOUS
10
6.4685
20
-4.15502
11
6.4685
21
-4.13632
0
LINE
8
BLACK
6
CONTINUOUS
10
6.4685
20
-4.13632
11
6.46922
21
-4.13274
0
LINE
8
BLACK
6
CONTINUOUS
10
6.46922
20
-4.13274
11
6.47124
21
-4.12971
0
LINE
8
BLACK
6
CONTINUOUS
10
6.47124
20
-4.12971
11
6.47428
21
-4.12768
0
LINE
8
BLACK
6
CONTINUOUS
10
6.47428
20
-4.12768
11
6.47785
21
-4.12697
0
LINE
8
BLACK
6
CONTINUOUS
10
6.47785
20
-4.12697
11
6.50049
21
-4.12697
0
LINE
8
BLACK
6
CONTINUOUS
10
6.50049
20
-4.12697
11
6.50407
21
-4.12768
0
LINE
8
BLACK
6
CONTINUOUS
10
6.57297
20
-4.12768
11
6.576
21
-4.12971
0
LINE
8
BLACK
6
CONTINUOUS
10
6.576
20
-4.12971
11
6.57803
21
-4.13274
0
LINE
8
BLACK
6
CONTINUOUS
10
6.57803
20
-4.13274
11
6.57874
21
-4.13632
0
LINE
8
BLACK
6
CONTINUOUS
10
6.57874
20
-4.13632
11
6.57874
21
-4.15502
0
LINE
8
BLACK
6
CONTINUOUS
10
6.57874
20
-4.15502
11
6.57803
21
-4.1586
0
LINE
8
BLACK
6
CONTINUOUS
10
6.57803
20
-4.1586
11
6.576
21
-4.16163
0
LINE
8
BLACK
6
CONTINUOUS
10
6.576
20
-4.16163
11
6.57297
21
-4.16366
0
LINE
8
BLACK
6
CONTINUOUS
10
6.57297
20
-4.16366
11
6.56939
21
-4.16437
0
LINE
8
BLACK
6
CONTINUOUS
10
6.56939
20
-4.16437
11
6.54675
21
-4.16437
0
LINE
8
BLACK
6
CONTINUOUS
10
6.54675
20
-4.16437
11
6.54317
21
-4.16366
0
LINE
8
BLACK
6
CONTINUOUS
10
6.54317
20
-4.16366
11
6.54014
21
-4.16163
0
LINE
8
BLACK
6
CONTINUOUS
10
6.54014
20
-4.16163
11
6.53811
21
-4.1586
0
LINE
8
BLACK
6
CONTINUOUS
10
6.53811
20
-4.1586
11
6.5374
21
-4.15502
0
LINE
8
BLACK
6
CONTINUOUS
10
6.5374
20
-4.15502
11
6.5374
21
-4.13632
0
LINE
8
BLACK
6
CONTINUOUS
10
6.5374
20
-4.13632
11
6.53811
21
-4.13274
0
LINE
8
BLACK
6
CONTINUOUS
10
6.53811
20
-4.13274
11
6.54014
21
-4.12971
0
LINE
8
BLACK
6
CONTINUOUS
10
6.54014
20
-4.12971
11
6.54317
21
-4.12768
0
LINE
8
BLACK
6
CONTINUOUS
10
6.54317
20
-4.12768
11
6.54675
21
-4.12697
0
LINE
8
BLACK
6
CONTINUOUS
10
6.54675
20
-4.12697
11
6.56939
21
-4.12697
0
LINE
8
BLACK
6
CONTINUOUS
10
6.56939
20
-4.12697
11
6.57297
21
-4.12768
0
LINE
8
BLACK
6
CONTINUOUS
10
5.85545
20
-4.12079
11
5.85848
21
-4.12282
0
LINE
8
BLACK
6
CONTINUOUS
10
5.85848
20
-4.12282
11
5.86051
21
-4.12585
0
LINE
8
BLACK
6
CONTINUOUS
10
5.86051
20
-4.12585
11
5.86122
21
-4.12943
0
LINE
8
BLACK
6
CONTINUOUS
10
5.86122
20
-4.12943
11
5.86122
21
-4.15207
0
LINE
8
BLACK
6
CONTINUOUS
10
5.86122
20
-4.15207
11
5.86051
21
-4.15565
0
LINE
8
BLACK
6
CONTINUOUS
10
5.86051
20
-4.15565
11
5.85848
21
-4.15868
0
LINE
8
BLACK
6
CONTINUOUS
10
5.85848
20
-4.15868
11
5.85545
21
-4.16071
0
LINE
8
BLACK
6
CONTINUOUS
10
5.85545
20
-4.16071
11
5.85187
21
-4.16142
0
LINE
8
BLACK
6
CONTINUOUS
10
5.85187
20
-4.16142
11
5.83317
21
-4.16142
0
LINE
8
BLACK
6
CONTINUOUS
10
5.83317
20
-4.16142
11
5.82959
21
-4.16071
0
LINE
8
BLACK
6
CONTINUOUS
10
5.82959
20
-4.16071
11
5.82656
21
-4.15868
0
LINE
8
BLACK
6
CONTINUOUS
10
5.82656
20
-4.15868
11
5.82453
21
-4.15565
0
LINE
8
BLACK
6
CONTINUOUS
10
5.82453
20
-4.15565
11
5.82382
21
-4.15207
0
LINE
8
BLACK
6
CONTINUOUS
10
5.82382
20
-4.15207
11
5.82382
21
-4.12943
0
LINE
8
BLACK
6
CONTINUOUS
10
5.82382
20
-4.12943
11
5.82453
21
-4.12585
0
LINE
8
BLACK
6
CONTINUOUS
10
5.82453
20
-4.12585
11
5.82656
21
-4.12282
0
LINE
8
BLACK
6
CONTINUOUS
10
5.82656
20
-4.12282
11
5.82959
21
-4.12079
0
LINE
8
BLACK
6
CONTINUOUS
10
5.82959
20
-4.12079
11
5.83317
21
-4.12008
0
LINE
8
BLACK
6
CONTINUOUS
10
5.83317
20
-4.12008
11
5.85187
21
-4.12008
0
LINE
8
BLACK
6
CONTINUOUS
10
5.85187
20
-4.12008
11
5.85545
21
-4.12079
0
LINE
8
BLACK
6
CONTINUOUS
10
5.79246
20
-4.12079
11
5.79549
21
-4.12282
0
LINE
8
BLACK
6
CONTINUOUS
10
5.79549
20
-4.12282
11
5.79752
21
-4.12585
0
LINE
8
BLACK
6
CONTINUOUS
10
5.79752
20
-4.12585
11
5.79823
21
-4.12943
0
LINE
8
BLACK
6
CONTINUOUS
10
5.79823
20
-4.12943
11
5.79823
21
-4.15207
0
LINE
8
BLACK
6
CONTINUOUS
10
5.79823
20
-4.15207
11
5.79752
21
-4.15565
0
LINE
8
BLACK
6
CONTINUOUS
10
5.79752
20
-4.15565
11
5.79549
21
-4.15868
0
LINE
8
BLACK
6
CONTINUOUS
10
5.79549
20
-4.15868
11
5.79246
21
-4.16071
0
LINE
8
BLACK
6
CONTINUOUS
10
5.79246
20
-4.16071
11
5.78888
21
-4.16142
0
LINE
8
BLACK
6
CONTINUOUS
10
5.78888
20
-4.16142
11
5.77018
21
-4.16142
0
LINE
8
BLACK
6
CONTINUOUS
10
5.77018
20
-4.16142
11
5.7666
21
-4.16071
0
LINE
8
BLACK
6
CONTINUOUS
10
5.7666
20
-4.16071
11
5.76357
21
-4.15868
0
LINE
8
BLACK
6
CONTINUOUS
10
5.76357
20
-4.15868
11
5.76154
21
-4.15565
0
LINE
8
BLACK
6
CONTINUOUS
10
5.76154
20
-4.15565
11
5.76083
21
-4.15207
0
LINE
8
BLACK
6
CONTINUOUS
10
5.76083
20
-4.15207
11
5.76083
21
-4.12943
0
LINE
8
BLACK
6
CONTINUOUS
10
5.76083
20
-4.12943
11
5.76154
21
-4.12585
0
LINE
8
BLACK
6
CONTINUOUS
10
5.76154
20
-4.12585
11
5.76357
21
-4.12282
0
LINE
8
BLACK
6
CONTINUOUS
10
5.76357
20
-4.12282
11
5.7666
21
-4.12079
0
LINE
8
BLACK
6
CONTINUOUS
10
5.7666
20
-4.12079
11
5.77018
21
-4.12008
0
LINE
8
BLACK
6
CONTINUOUS
10
5.77018
20
-4.12008
11
5.78888
21
-4.12008
0
LINE
8
BLACK
6
CONTINUOUS
10
5.78888
20
-4.12008
11
5.79246
21
-4.12079
0
LINE
8
BLACK
6
CONTINUOUS
10
6.69366
20
-4.13351
11
6.69554
21
-4.13477
0
LINE
8
BLACK
6
CONTINUOUS
10
6.69554
20
-4.13477
11
6.6968
21
-4.13666
0
LINE
8
BLACK
6
CONTINUOUS
10
6.6968
20
-4.13666
11
6.69724
21
-4.13888
0
LINE
8
BLACK
6
CONTINUOUS
10
6.69724
20
-4.13888
11
6.69724
21
-4.15246
0
LINE
8
BLACK
6
CONTINUOUS
10
6.69724
20
-4.15246
11
6.6968
21
-4.15468
0
LINE
8
BLACK
6
CONTINUOUS
10
6.6968
20
-4.15468
11
6.69554
21
-4.15657
0
LINE
8
BLACK
6
CONTINUOUS
10
6.69554
20
-4.15657
11
6.69366
21
-4.15783
0
LINE
8
BLACK
6
CONTINUOUS
10
6.69366
20
-4.15783
11
6.69144
21
-4.15827
0
LINE
8
BLACK
6
CONTINUOUS
10
6.69144
20
-4.15827
11
6.67982
21
-4.15827
0
LINE
8
BLACK
6
CONTINUOUS
10
6.67982
20
-4.15827
11
6.6776
21
-4.15783
0
LINE
8
BLACK
6
CONTINUOUS
10
6.6776
20
-4.15783
11
6.67572
21
-4.15657
0
LINE
8
BLACK
6
CONTINUOUS
10
6.67572
20
-4.15657
11
6.67446
21
-4.15468
0
LINE
8
BLACK
6
CONTINUOUS
10
6.67446
20
-4.15468
11
6.67402
21
-4.15246
0
LINE
8
BLACK
6
CONTINUOUS
10
6.67402
20
-4.15246
11
6.67402
21
-4.13888
0
LINE
8
BLACK
6
CONTINUOUS
10
6.67402
20
-4.13888
11
6.67446
21
-4.13666
0
LINE
8
BLACK
6
CONTINUOUS
10
6.67446
20
-4.13666
11
6.67572
21
-4.13477
0
LINE
8
BLACK
6
CONTINUOUS
10
6.67572
20
-4.13477
11
6.6776
21
-4.13351
0
LINE
8
BLACK
6
CONTINUOUS
10
6.6776
20
-4.13351
11
6.67982
21
-4.13307
0
LINE
8
BLACK
6
CONTINUOUS
10
6.67982
20
-4.13307
11
6.69144
21
-4.13307
0
LINE
8
BLACK
6
CONTINUOUS
10
6.69144
20
-4.13307
11
6.69366
21
-4.13351
0
LINE
8
BLACK
6
CONTINUOUS
10
6.73185
20
-4.13351
11
6.73373
21
-4.13477
0
LINE
8
BLACK
6
CONTINUOUS
10
6.73373
20
-4.13477
11
6.73499
21
-4.13666
0
LINE
8
BLACK
6
CONTINUOUS
10
6.73499
20
-4.13666
11
6.73543
21
-4.13888
0
LINE
8
BLACK
6
CONTINUOUS
10
6.73543
20
-4.13888
11
6.73543
21
-4.15246
0
LINE
8
BLACK
6
CONTINUOUS
10
6.73543
20
-4.15246
11
6.73499
21
-4.15468
0
LINE
8
BLACK
6
CONTINUOUS
10
6.73499
20
-4.15468
11
6.73373
21
-4.15657
0
LINE
8
BLACK
6
CONTINUOUS
10
6.73373
20
-4.15657
11
6.73185
21
-4.15783
0
LINE
8
BLACK
6
CONTINUOUS
10
6.73185
20
-4.15783
11
6.72963
21
-4.15827
0
LINE
8
BLACK
6
CONTINUOUS
10
6.72963
20
-4.15827
11
6.71801
21
-4.15827
0
LINE
8
BLACK
6
CONTINUOUS
10
6.71801
20
-4.15827
11
6.71579
21
-4.15783
0
LINE
8
BLACK
6
CONTINUOUS
10
6.71579
20
-4.15783
11
6.71391
21
-4.15657
0
LINE
8
BLACK
6
CONTINUOUS
10
6.71391
20
-4.15657
11
6.71265
21
-4.15468
0
LINE
8
BLACK
6
CONTINUOUS
10
6.71265
20
-4.15468
11
6.7122
21
-4.15246
0
LINE
8
BLACK
6
CONTINUOUS
10
6.7122
20
-4.15246
11
6.7122
21
-4.13888
0
LINE
8
BLACK
6
CONTINUOUS
10
6.7122
20
-4.13888
11
6.71265
21
-4.13666
0
LINE
8
BLACK
6
CONTINUOUS
10
6.71265
20
-4.13666
11
6.71391
21
-4.13477
0
LINE
8
BLACK
6
CONTINUOUS
10
6.71391
20
-4.13477
11
6.71579
21
-4.13351
0
LINE
8
BLACK
6
CONTINUOUS
10
6.71579
20
-4.13351
11
6.71801
21
-4.13307
0
LINE
8
BLACK
6
CONTINUOUS
10
6.71801
20
-4.13307
11
6.72963
21
-4.13307
0
LINE
8
BLACK
6
CONTINUOUS
10
6.72963
20
-4.13307
11
6.73185
21
-4.13351
0
LINE
8
BLACK
6
CONTINUOUS
10
5.46752
20
-4.14685
11
5.44193
21
-4.14685
0
LINE
8
BLACK
6
CONTINUOUS
10
5.44193
20
-4.14685
11
5.44193
21
-4.10512
0
LINE
8
BLACK
6
CONTINUOUS
10
5.44193
20
-4.10512
11
5.46752
21
-4.10512
0
LINE
8
BLACK
6
CONTINUOUS
10
5.46752
20
-4.10512
11
5.46752
21
-4.14685
0
LINE
8
BLACK
6
CONTINUOUS
10
5.43012
20
-4.14685
11
5.40453
21
-4.14685
0
LINE
8
BLACK
6
CONTINUOUS
10
5.40453
20
-4.14685
11
5.40453
21
-4.10512
0
LINE
8
BLACK
6
CONTINUOUS
10
5.40453
20
-4.10512
11
5.43012
21
-4.10512
0
LINE
8
BLACK
6
CONTINUOUS
10
5.43012
20
-4.10512
11
5.43012
21
-4.14685
0
LINE
8
BLACK
6
CONTINUOUS
10
5.39272
20
-4.14685
11
5.36713
21
-4.14685
0
LINE
8
BLACK
6
CONTINUOUS
10
5.36713
20
-4.14685
11
5.36713
21
-4.10512
0
LINE
8
BLACK
6
CONTINUOUS
10
5.36713
20
-4.10512
11
5.39272
21
-4.10512
0
LINE
8
BLACK
6
CONTINUOUS
10
5.39272
20
-4.10512
11
5.39272
21
-4.14685
0
LINE
8
BLACK
6
CONTINUOUS
10
5.96994
20
-4.13503
11
5.97074
21
-4.13556
0
LINE
8
BLACK
6
CONTINUOUS
10
5.97074
20
-4.13556
11
5.97127
21
-4.13636
0
LINE
8
BLACK
6
CONTINUOUS
10
5.97127
20
-4.13636
11
5.97146
21
-4.1373
0
LINE
8
BLACK
6
CONTINUOUS
10
5.97146
20
-4.1373
11
5.97146
21
-4.14222
0
LINE
8
BLACK
6
CONTINUOUS
10
5.97146
20
-4.14222
11
5.97127
21
-4.14317
0
LINE
8
BLACK
6
CONTINUOUS
10
5.97127
20
-4.14317
11
5.97074
21
-4.14396
0
LINE
8
BLACK
6
CONTINUOUS
10
5.97074
20
-4.14396
11
5.96994
21
-4.1445
0
LINE
8
BLACK
6
CONTINUOUS
10
5.96994
20
-4.1445
11
5.969
21
-4.14469
0
LINE
8
BLACK
6
CONTINUOUS
10
5.969
20
-4.14469
11
5.94144
21
-4.14469
0
LINE
8
BLACK
6
CONTINUOUS
10
5.94144
20
-4.14469
11
5.9405
21
-4.1445
0
LINE
8
BLACK
6
CONTINUOUS
10
5.9405
20
-4.1445
11
5.9397
21
-4.14396
0
LINE
8
BLACK
6
CONTINUOUS
10
5.9397
20
-4.14396
11
5.93916
21
-4.14317
0
LINE
8
BLACK
6
CONTINUOUS
10
5.93916
20
-4.14317
11
5.93898
21
-4.14222
0
LINE
8
BLACK
6
CONTINUOUS
10
5.93898
20
-4.14222
11
5.93898
21
-4.1373
0
LINE
8
BLACK
6
CONTINUOUS
10
5.93898
20
-4.1373
11
5.93916
21
-4.13636
0
LINE
8
BLACK
6
CONTINUOUS
10
5.93916
20
-4.13636
11
5.9397
21
-4.13556
0
LINE
8
BLACK
6
CONTINUOUS
10
5.9397
20
-4.13556
11
5.9405
21
-4.13503
0
LINE
8
BLACK
6
CONTINUOUS
10
5.9405
20
-4.13503
11
5.94144
21
-4.13484
0
LINE
8
BLACK
6
CONTINUOUS
10
5.94144
20
-4.13484
11
5.969
21
-4.13484
0
LINE
8
BLACK
6
CONTINUOUS
10
5.969
20
-4.13484
11
5.96994
21
-4.13503
0
LINE
8
BLACK
6
CONTINUOUS
10
6.1225
20
-4.13503
11
6.1233
21
-4.13556
0
LINE
8
BLACK
6
CONTINUOUS
10
6.1233
20
-4.13556
11
6.12383
21
-4.13636
0
LINE
8
BLACK
6
CONTINUOUS
10
6.12383
20
-4.13636
11
6.12402
21
-4.1373
0
LINE
8
BLACK
6
CONTINUOUS
10
6.12402
20
-4.1373
11
6.12402
21
-4.14222
0
LINE
8
BLACK
6
CONTINUOUS
10
6.12402
20
-4.14222
11
6.12383
21
-4.14317
0
LINE
8
BLACK
6
CONTINUOUS
10
6.12383
20
-4.14317
11
6.1233
21
-4.14396
0
LINE
8
BLACK
6
CONTINUOUS
10
6.1233
20
-4.14396
11
6.1225
21
-4.1445
0
LINE
8
BLACK
6
CONTINUOUS
10
6.1225
20
-4.1445
11
6.12156
21
-4.14469
0
LINE
8
BLACK
6
CONTINUOUS
10
6.12156
20
-4.14469
11
6.094
21
-4.14469
0
LINE
8
BLACK
6
CONTINUOUS
10
6.094
20
-4.14469
11
6.09305
21
-4.1445
0
LINE
8
BLACK
6
CONTINUOUS
10
6.09305
20
-4.1445
11
6.09226
21
-4.14396
0
LINE
8
BLACK
6
CONTINUOUS
10
6.09226
20
-4.14396
11
6.09172
21
-4.14317
0
LINE
8
BLACK
6
CONTINUOUS
10
6.09172
20
-4.14317
11
6.09154
21
-4.14222
0
LINE
8
BLACK
6
CONTINUOUS
10
6.09154
20
-4.14222
11
6.09154
21
-4.1373
0
LINE
8
BLACK
6
CONTINUOUS
10
6.09154
20
-4.1373
11
6.09172
21
-4.13636
0
LINE
8
BLACK
6
CONTINUOUS
10
6.09172
20
-4.13636
11
6.09226
21
-4.13556
0
LINE
8
BLACK
6
CONTINUOUS
10
6.09226
20
-4.13556
11
6.09305
21
-4.13503
0
LINE
8
BLACK
6
CONTINUOUS
10
6.09305
20
-4.13503
11
6.094
21
-4.13484
0
LINE
8
BLACK
6
CONTINUOUS
10
6.094
20
-4.13484
11
6.12156
21
-4.13484
0
LINE
8
BLACK
6
CONTINUOUS
10
6.12156
20
-4.13484
11
6.1225
21
-4.13503
0
LINE
8
BLACK
6
CONTINUOUS
10
6.22949
20
-4.11816
11
6.23137
21
-4.11942
0
LINE
8
BLACK
6
CONTINUOUS
10
6.23137
20
-4.11942
11
6.23263
21
-4.1213
0
LINE
8
BLACK
6
CONTINUOUS
10
6.23263
20
-4.1213
11
6.23307
21
-4.12352
0
LINE
8
BLACK
6
CONTINUOUS
10
6.23307
20
-4.12352
11
6.23307
21
-4.13514
0
LINE
8
BLACK
6
CONTINUOUS
10
6.23307
20
-4.13514
11
6.23263
21
-4.13736
0
LINE
8
BLACK
6
CONTINUOUS
10
6.23263
20
-4.13736
11
6.23137
21
-4.13924
0
LINE
8
BLACK
6
CONTINUOUS
10
6.23137
20
-4.13924
11
6.22949
21
-4.1405
0
LINE
8
BLACK
6
CONTINUOUS
10
6.22949
20
-4.1405
11
6.22726
21
-4.14094
0
LINE
8
BLACK
6
CONTINUOUS
10
6.22726
20
-4.14094
11
6.21368
21
-4.14094
0
LINE
8
BLACK
6
CONTINUOUS
10
6.21368
20
-4.14094
11
6.21146
21
-4.1405
0
LINE
8
BLACK
6
CONTINUOUS
10
6.21146
20
-4.1405
11
6.20957
21
-4.13924
0
LINE
8
BLACK
6
CONTINUOUS
10
6.20957
20
-4.13924
11
6.20832
21
-4.13736
0
LINE
8
BLACK
6
CONTINUOUS
10
6.20832
20
-4.13736
11
6.20787
21
-4.13514
0
LINE
8
BLACK
6
CONTINUOUS
10
6.20787
20
-4.13514
11
6.20787
21
-4.12352
0
LINE
8
BLACK
6
CONTINUOUS
10
6.20787
20
-4.12352
11
6.20832
21
-4.1213
0
LINE
8
BLACK
6
CONTINUOUS
10
6.20832
20
-4.1213
11
6.20957
21
-4.11942
0
LINE
8
BLACK
6
CONTINUOUS
10
6.20957
20
-4.11942
11
6.21146
21
-4.11816
0
LINE
8
BLACK
6
CONTINUOUS
10
6.21146
20
-4.11816
11
6.21368
21
-4.11772
0
LINE
8
BLACK
6
CONTINUOUS
10
6.21368
20
-4.11772
11
6.22726
21
-4.11772
0
LINE
8
BLACK
6
CONTINUOUS
10
6.22726
20
-4.11772
11
6.22949
21
-4.11816
0
LINE
8
BLACK
6
CONTINUOUS
10
5.96994
20
-4.11534
11
5.97074
21
-4.11588
0
LINE
8
BLACK
6
CONTINUOUS
10
5.97074
20
-4.11588
11
5.97127
21
-4.11668
0
LINE
8
BLACK
6
CONTINUOUS
10
5.97127
20
-4.11668
11
5.97146
21
-4.11762
0
LINE
8
BLACK
6
CONTINUOUS
10
5.97146
20
-4.11762
11
5.97146
21
-4.12254
0
LINE
8
BLACK
6
CONTINUOUS
10
5.97146
20
-4.12254
11
5.97127
21
-4.12348
0
LINE
8
BLACK
6
CONTINUOUS
10
5.97127
20
-4.12348
11
5.97074
21
-4.12428
0
LINE
8
BLACK
6
CONTINUOUS
10
5.97074
20
-4.12428
11
5.96994
21
-4.12481
0
LINE
8
BLACK
6
CONTINUOUS
10
5.96994
20
-4.12481
11
5.969
21
-4.125
0
LINE
8
BLACK
6
CONTINUOUS
10
5.969
20
-4.125
11
5.94144
21
-4.125
0
LINE
8
BLACK
6
CONTINUOUS
10
5.94144
20
-4.125
11
5.9405
21
-4.12481
0
LINE
8
BLACK
6
CONTINUOUS
10
5.9405
20
-4.12481
11
5.9397
21
-4.12428
0
LINE
8
BLACK
6
CONTINUOUS
10
5.9397
20
-4.12428
11
5.93916
21
-4.12348
0
LINE
8
BLACK
6
CONTINUOUS
10
5.93916
20
-4.12348
11
5.93898
21
-4.12254
0
LINE
8
BLACK
6
CONTINUOUS
10
5.93898
20
-4.12254
11
5.93898
21
-4.11762
0
LINE
8
BLACK
6
CONTINUOUS
10
5.93898
20
-4.11762
11
5.93916
21
-4.11668
0
LINE
8
BLACK
6
CONTINUOUS
10
5.93916
20
-4.11668
11
5.9397
21
-4.11588
0
LINE
8
BLACK
6
CONTINUOUS
10
5.9397
20
-4.11588
11
5.9405
21
-4.11534
0
LINE
8
BLACK
6
CONTINUOUS
10
5.9405
20
-4.11534
11
5.94144
21
-4.11516
0
LINE
8
BLACK
6
CONTINUOUS
10
5.94144
20
-4.11516
11
5.969
21
-4.11516
0
LINE
8
BLACK
6
CONTINUOUS
10
5.969
20
-4.11516
11
5.96994
21
-4.11534
0
LINE
8
BLACK
6
CONTINUOUS
10
6.1225
20
-4.11534
11
6.1233
21
-4.11588
0
LINE
8
BLACK
6
CONTINUOUS
10
6.1233
20
-4.11588
11
6.12383
21
-4.11668
0
LINE
8
BLACK
6
CONTINUOUS
10
6.12383
20
-4.11668
11
6.12402
21
-4.11762
0
LINE
8
BLACK
6
CONTINUOUS
10
6.12402
20
-4.11762
11
6.12402
21
-4.12254
0
LINE
8
BLACK
6
CONTINUOUS
10
6.12402
20
-4.12254
11
6.12383
21
-4.12348
0
LINE
8
BLACK
6
CONTINUOUS
10
6.12383
20
-4.12348
11
6.1233
21
-4.12428
0
LINE
8
BLACK
6
CONTINUOUS
10
6.1233
20
-4.12428
11
6.1225
21
-4.12481
0
LINE
8
BLACK
6
CONTINUOUS
10
6.1225
20
-4.12481
11
6.12156
21
-4.125
0
LINE
8
BLACK
6
CONTINUOUS
10
6.12156
20
-4.125
11
6.094
21
-4.125
0
LINE
8
BLACK
6
CONTINUOUS
10
6.094
20
-4.125
11
6.09305
21
-4.12481
0
LINE
8
BLACK
6
CONTINUOUS
10
6.09305
20
-4.12481
11
6.09226
21
-4.12428
0
LINE
8
BLACK
6
CONTINUOUS
10
6.09226
20
-4.12428
11
6.09172
21
-4.12348
0
LINE
8
BLACK
6
CONTINUOUS
10
6.09172
20
-4.12348
11
6.09154
21
-4.12254
0
LINE
8
BLACK
6
CONTINUOUS
10
6.09154
20
-4.12254
11
6.09154
21
-4.11762
0
LINE
8
BLACK
6
CONTINUOUS
10
6.09154
20
-4.11762
11
6.09172
21
-4.11668
0
LINE
8
BLACK
6
CONTINUOUS
10
6.09172
20
-4.11668
11
6.09226
21
-4.11588
0
LINE
8
BLACK
6
CONTINUOUS
10
6.09226
20
-4.11588
11
6.09305
21
-4.11534
0
LINE
8
BLACK
6
CONTINUOUS
10
6.09305
20
-4.11534
11
6.094
21
-4.11516
0
LINE
8
BLACK
6
CONTINUOUS
10
6.094
20
-4.11516
11
6.12156
21
-4.11516
0
LINE
8
BLACK
6
CONTINUOUS
10
6.12156
20
-4.11516
11
6.1225
21
-4.11534
0
LINE
8
BLACK
6
CONTINUOUS
10
6.00537
20
-4.07696
11
6.00617
21
-4.07749
0
LINE
8
BLACK
6
CONTINUOUS
10
6.00617
20
-4.07749
11
6.0067
21
-4.07829
0
LINE
8
BLACK
6
CONTINUOUS
10
6.0067
20
-4.07829
11
6.00689
21
-4.07923
0
LINE
8
BLACK
6
CONTINUOUS
10
6.00689
20
-4.07923
11
6.00689
21
-4.10679
0
LINE
8
BLACK
6
CONTINUOUS
10
6.00689
20
-4.10679
11
6.0067
21
-4.10773
0
LINE
8
BLACK
6
CONTINUOUS
10
6.0067
20
-4.10773
11
6.00617
21
-4.10853
0
LINE
8
BLACK
6
CONTINUOUS
10
6.00617
20
-4.10853
11
6.00537
21
-4.10906
0
LINE
8
BLACK
6
CONTINUOUS
10
6.00537
20
-4.10906
11
6.00443
21
-4.10925
0
LINE
8
BLACK
6
CONTINUOUS
10
6.00443
20
-4.10925
11
5.99951
21
-4.10925
0
LINE
8
BLACK
6
CONTINUOUS
10
5.99951
20
-4.10925
11
5.99857
21
-4.10906
0
LINE
8
BLACK
6
CONTINUOUS
10
5.99857
20
-4.10906
11
5.99777
21
-4.10853
0
LINE
8
BLACK
6
CONTINUOUS
10
5.99777
20
-4.10853
11
5.99723
21
-4.10773
0
LINE
8
BLACK
6
CONTINUOUS
10
5.99723
20
-4.10773
11
5.99705
21
-4.10679
0
LINE
8
BLACK
6
CONTINUOUS
10
5.99705
20
-4.10679
11
5.99705
21
-4.07923
0
LINE
8
BLACK
6
CONTINUOUS
10
5.99705
20
-4.07923
11
5.99723
21
-4.07829
0
LINE
8
BLACK
6
CONTINUOUS
10
5.99723
20
-4.07829
11
5.99777
21
-4.07749
0
LINE
8
BLACK
6
CONTINUOUS
10
5.99777
20
-4.07749
11
5.99857
21
-4.07696
0
LINE
8
BLACK
6
CONTINUOUS
10
5.99857
20
-4.07696
11
5.99951
21
-4.07677
0
LINE
8
BLACK
6
CONTINUOUS
10
5.99951
20
-4.07677
11
6.00443
21
-4.07677
0
LINE
8
BLACK
6
CONTINUOUS
10
6.00443
20
-4.07677
11
6.00537
21
-4.07696
0
LINE
8
BLACK
6
CONTINUOUS
10
6.02506
20
-4.07696
11
6.02585
21
-4.07749
0
LINE
8
BLACK
6
CONTINUOUS
10
6.02585
20
-4.07749
11
6.02639
21
-4.07829
0
LINE
8
BLACK
6
CONTINUOUS
10
6.02639
20
-4.07829
11
6.02657
21
-4.07923
0
LINE
8
BLACK
6
CONTINUOUS
10
6.02657
20
-4.07923
11
6.02657
21
-4.10679
0
LINE
8
BLACK
6
CONTINUOUS
10
6.02657
20
-4.10679
11
6.02639
21
-4.10773
0
LINE
8
BLACK
6
CONTINUOUS
10
6.02639
20
-4.10773
11
6.02585
21
-4.10853
0
LINE
8
BLACK
6
CONTINUOUS
10
6.02585
20
-4.10853
11
6.02506
21
-4.10906
0
LINE
8
BLACK
6
CONTINUOUS
10
6.02506
20
-4.10906
11
6.02411
21
-4.10925
0
LINE
8
BLACK
6
CONTINUOUS
10
6.02411
20
-4.10925
11
6.01919
21
-4.10925
0
LINE
8
BLACK
6
CONTINUOUS
10
6.01919
20
-4.10925
11
6.01825
21
-4.10906
0
LINE
8
BLACK
6
CONTINUOUS
10
6.01825
20
-4.10906
11
6.01745
21
-4.10853
0
LINE
8
BLACK
6
CONTINUOUS
10
6.01745
20
-4.10853
11
6.01692
21
-4.10773
0
LINE
8
BLACK
6
CONTINUOUS
10
6.01692
20
-4.10773
11
6.01673
21
-4.10679
0
LINE
8
BLACK
6
CONTINUOUS
10
6.01673
20
-4.10679
11
6.01673
21
-4.07923
0
LINE
8
BLACK
6
CONTINUOUS
10
6.01673
20
-4.07923
11
6.01692
21
-4.07829
0
LINE
8
BLACK
6
CONTINUOUS
10
6.01692
20
-4.07829
11
6.01745
21
-4.07749
0
LINE
8
BLACK
6
CONTINUOUS
10
6.01745
20
-4.07749
11
6.01825
21
-4.07696
0
LINE
8
BLACK
6
CONTINUOUS
10
6.01825
20
-4.07696
11
6.01919
21
-4.07677
0
LINE
8
BLACK
6
CONTINUOUS
10
6.01919
20
-4.07677
11
6.02411
21
-4.07677
0
LINE
8
BLACK
6
CONTINUOUS
10
6.02411
20
-4.07677
11
6.02506
21
-4.07696
0
LINE
8
BLACK
6
CONTINUOUS
10
6.04474
20
-4.07696
11
6.04554
21
-4.07749
0
LINE
8
BLACK
6
CONTINUOUS
10
6.04554
20
-4.07749
11
6.04607
21
-4.07829
0
LINE
8
BLACK
6
CONTINUOUS
10
6.04607
20
-4.07829
11
6.04626
21
-4.07923
0
LINE
8
BLACK
6
CONTINUOUS
10
6.04626
20
-4.07923
11
6.04626
21
-4.10679
0
LINE
8
BLACK
6
CONTINUOUS
10
6.04626
20
-4.10679
11
6.04607
21
-4.10773
0
LINE
8
BLACK
6
CONTINUOUS
10
6.04607
20
-4.10773
11
6.04554
21
-4.10853
0
LINE
8
BLACK
6
CONTINUOUS
10
6.04554
20
-4.10853
11
6.04474
21
-4.10906
0
LINE
8
BLACK
6
CONTINUOUS
10
6.04474
20
-4.10906
11
6.0438
21
-4.10925
0
LINE
8
BLACK
6
CONTINUOUS
10
6.0438
20
-4.10925
11
6.03888
21
-4.10925
0
LINE
8
BLACK
6
CONTINUOUS
10
6.03888
20
-4.10925
11
6.03794
21
-4.10906
0
LINE
8
BLACK
6
CONTINUOUS
10
6.03794
20
-4.10906
11
6.03714
21
-4.10853
0
LINE
8
BLACK
6
CONTINUOUS
10
6.03714
20
-4.10853
11
6.0366
21
-4.10773
0
LINE
8
BLACK
6
CONTINUOUS
10
6.0366
20
-4.10773
11
6.03642
21
-4.10679
0
LINE
8
BLACK
6
CONTINUOUS
10
6.03642
20
-4.10679
11
6.03642
21
-4.07923
0
LINE
8
BLACK
6
CONTINUOUS
10
6.03642
20
-4.07923
11
6.0366
21
-4.07829
0
LINE
8
BLACK
6
CONTINUOUS
10
6.0366
20
-4.07829
11
6.03714
21
-4.07749
0
LINE
8
BLACK
6
CONTINUOUS
10
6.03714
20
-4.07749
11
6.03794
21
-4.07696
0
LINE
8
BLACK
6
CONTINUOUS
10
6.03794
20
-4.07696
11
6.03888
21
-4.07677
0
LINE
8
BLACK
6
CONTINUOUS
10
6.03888
20
-4.07677
11
6.0438
21
-4.07677
0
LINE
8
BLACK
6
CONTINUOUS
10
6.0438
20
-4.07677
11
6.04474
21
-4.07696
0
LINE
8
BLACK
6
CONTINUOUS
10
5.98569
20
-4.07696
11
5.98648
21
-4.07749
0
LINE
8
BLACK
6
CONTINUOUS
10
5.98648
20
-4.07749
11
5.98702
21
-4.07829
0
LINE
8
BLACK
6
CONTINUOUS
10
5.98702
20
-4.07829
11
5.9872
21
-4.07923
0
LINE
8
BLACK
6
CONTINUOUS
10
5.9872
20
-4.07923
11
5.9872
21
-4.10679
0
LINE
8
BLACK
6
CONTINUOUS
10
5.9872
20
-4.10679
11
5.98702
21
-4.10773
0
LINE
8
BLACK
6
CONTINUOUS
10
5.98702
20
-4.10773
11
5.98648
21
-4.10853
0
LINE
8
BLACK
6
CONTINUOUS
10
5.98648
20
-4.10853
11
5.98569
21
-4.10906
0
LINE
8
BLACK
6
CONTINUOUS
10
5.98569
20
-4.10906
11
5.98474
21
-4.10925
0
LINE
8
BLACK
6
CONTINUOUS
10
5.98474
20
-4.10925
11
5.97982
21
-4.10925
0
LINE
8
BLACK
6
CONTINUOUS
10
5.97982
20
-4.10925
11
5.97888
21
-4.10906
0
LINE
8
BLACK
6
CONTINUOUS
10
5.97888
20
-4.10906
11
5.97808
21
-4.10853
0
LINE
8
BLACK
6
CONTINUOUS
10
5.97808
20
-4.10853
11
5.97755
21
-4.10773
0
LINE
8
BLACK
6
CONTINUOUS
10
5.97755
20
-4.10773
11
5.97736
21
-4.10679
0
LINE
8
BLACK
6
CONTINUOUS
10
5.97736
20
-4.10679
11
5.97736
21
-4.07923
0
LINE
8
BLACK
6
CONTINUOUS
10
5.97736
20
-4.07923
11
5.97755
21
-4.07829
0
LINE
8
BLACK
6
CONTINUOUS
10
5.97755
20
-4.07829
11
5.97808
21
-4.07749
0
LINE
8
BLACK
6
CONTINUOUS
10
5.97808
20
-4.07749
11
5.97888
21
-4.07696
0
LINE
8
BLACK
6
CONTINUOUS
10
5.97888
20
-4.07696
11
5.97982
21
-4.07677
0
LINE
8
BLACK
6
CONTINUOUS
10
5.97982
20
-4.07677
11
5.98474
21
-4.07677
0
LINE
8
BLACK
6
CONTINUOUS
10
5.98474
20
-4.07677
11
5.98569
21
-4.07696
0
LINE
8
BLACK
6
CONTINUOUS
10
6.08411
20
-4.07696
11
6.08491
21
-4.07749
0
LINE
8
BLACK
6
CONTINUOUS
10
6.08491
20
-4.07749
11
6.08544
21
-4.07829
0
LINE
8
BLACK
6
CONTINUOUS
10
6.08544
20
-4.07829
11
6.08563
21
-4.07923
0
LINE
8
BLACK
6
CONTINUOUS
10
6.08563
20
-4.07923
11
6.08563
21
-4.10679
0
LINE
8
BLACK
6
CONTINUOUS
10
6.08563
20
-4.10679
11
6.08544
21
-4.10773
0
LINE
8
BLACK
6
CONTINUOUS
10
6.08544
20
-4.10773
11
6.08491
21
-4.10853
0
LINE
8
BLACK
6
CONTINUOUS
10
6.08491
20
-4.10853
11
6.08411
21
-4.10906
0
LINE
8
BLACK
6
CONTINUOUS
10
6.08411
20
-4.10906
11
6.08317
21
-4.10925
0
LINE
8
BLACK
6
CONTINUOUS
10
6.08317
20
-4.10925
11
6.07825
21
-4.10925
0
LINE
8
BLACK
6
CONTINUOUS
10
6.07825
20
-4.10925
11
6.07731
21
-4.10906
0
LINE
8
BLACK
6
CONTINUOUS
10
6.07731
20
-4.10906
11
6.07651
21
-4.10853
0
LINE
8
BLACK
6
CONTINUOUS
10
6.07651
20
-4.10853
11
6.07597
21
-4.10773
0
LINE
8
BLACK
6
CONTINUOUS
10
6.07597
20
-4.10773
11
6.07579
21
-4.10679
0
LINE
8
BLACK
6
CONTINUOUS
10
6.07579
20
-4.10679
11
6.07579
21
-4.07923
0
LINE
8
BLACK
6
CONTINUOUS
10
6.07579
20
-4.07923
11
6.07597
21
-4.07829
0
LINE
8
BLACK
6
CONTINUOUS
10
6.07597
20
-4.07829
11
6.07651
21
-4.07749
0
LINE
8
BLACK
6
CONTINUOUS
10
6.07651
20
-4.07749
11
6.07731
21
-4.07696
0
LINE
8
BLACK
6
CONTINUOUS
10
6.07731
20
-4.07696
11
6.07825
21
-4.07677
0
LINE
8
BLACK
6
CONTINUOUS
10
6.07825
20
-4.07677
11
6.08317
21
-4.07677
0
LINE
8
BLACK
6
CONTINUOUS
10
6.08317
20
-4.07677
11
6.08411
21
-4.07696
0
LINE
8
BLACK
6
CONTINUOUS
10
6.06443
20
-4.07696
11
6.06522
21
-4.07749
0
LINE
8
BLACK
6
CONTINUOUS
10
6.06522
20
-4.07749
11
6.06576
21
-4.07829
0
LINE
8
BLACK
6
CONTINUOUS
10
6.06576
20
-4.07829
11
6.06594
21
-4.07923
0
LINE
8
BLACK
6
CONTINUOUS
10
6.06594
20
-4.07923
11
6.06594
21
-4.10679
0
LINE
8
BLACK
6
CONTINUOUS
10
6.06594
20
-4.10679
11
6.06576
21
-4.10773
0
LINE
8
BLACK
6
CONTINUOUS
10
6.06576
20
-4.10773
11
6.06522
21
-4.10853
0
LINE
8
BLACK
6
CONTINUOUS
10
6.06522
20
-4.10853
11
6.06443
21
-4.10906
0
LINE
8
BLACK
6
CONTINUOUS
10
6.06443
20
-4.10906
11
6.06348
21
-4.10925
0
LINE
8
BLACK
6
CONTINUOUS
10
6.06348
20
-4.10925
11
6.05856
21
-4.10925
0
LINE
8
BLACK
6
CONTINUOUS
10
6.05856
20
-4.10925
11
6.05762
21
-4.10906
0
LINE
8
BLACK
6
CONTINUOUS
10
6.05762
20
-4.10906
11
6.05682
21
-4.10853
0
LINE
8
BLACK
6
CONTINUOUS
10
6.05682
20
-4.10853
11
6.05629
21
-4.10773
0
LINE
8
BLACK
6
CONTINUOUS
10
6.05629
20
-4.10773
11
6.0561
21
-4.10679
0
LINE
8
BLACK
6
CONTINUOUS
10
6.0561
20
-4.10679
11
6.0561
21
-4.07923
0
LINE
8
BLACK
6
CONTINUOUS
10
6.0561
20
-4.07923
11
6.05629
21
-4.07829
0
LINE
8
BLACK
6
CONTINUOUS
10
6.05629
20
-4.07829
11
6.05682
21
-4.07749
0
LINE
8
BLACK
6
CONTINUOUS
10
6.05682
20
-4.07749
11
6.05762
21
-4.07696
0
LINE
8
BLACK
6
CONTINUOUS
10
6.05762
20
-4.07696
11
6.05856
21
-4.07677
0
LINE
8
BLACK
6
CONTINUOUS
10
6.05856
20
-4.07677
11
6.06348
21
-4.07677
0
LINE
8
BLACK
6
CONTINUOUS
10
6.06348
20
-4.07677
11
6.06443
21
-4.07696
0
LINE
8
BLACK
6
CONTINUOUS
10
6.22949
20
-4.07997
11
6.23137
21
-4.08123
0
LINE
8
BLACK
6
CONTINUOUS
10
6.23137
20
-4.08123
11
6.23263
21
-4.08311
0
LINE
8
BLACK
6
CONTINUOUS
10
6.23263
20
-4.08311
11
6.23307
21
-4.08533
0
LINE
8
BLACK
6
CONTINUOUS
10
6.23307
20
-4.08533
11
6.23307
21
-4.09695
0
LINE
8
BLACK
6
CONTINUOUS
10
6.23307
20
-4.09695
11
6.23263
21
-4.09917
0
LINE
8
BLACK
6
CONTINUOUS
10
6.23263
20
-4.09917
11
6.23137
21
-4.10106
0
LINE
8
BLACK
6
CONTINUOUS
10
6.23137
20
-4.10106
11
6.22949
21
-4.10231
0
LINE
8
BLACK
6
CONTINUOUS
10
6.22949
20
-4.10231
11
6.22726
21
-4.10276
0
LINE
8
BLACK
6
CONTINUOUS
10
6.22726
20
-4.10276
11
6.21368
21
-4.10276
0
LINE
8
BLACK
6
CONTINUOUS
10
6.21368
20
-4.10276
11
6.21146
21
-4.10231
0
LINE
8
BLACK
6
CONTINUOUS
10
6.21146
20
-4.10231
11
6.20957
21
-4.10106
0
LINE
8
BLACK
6
CONTINUOUS
10
6.20957
20
-4.10106
11
6.20832
21
-4.09917
0
LINE
8
BLACK
6
CONTINUOUS
10
6.20832
20
-4.09917
11
6.20787
21
-4.09695
0
LINE
8
BLACK
6
CONTINUOUS
10
6.20787
20
-4.09695
11
6.20787
21
-4.08533
0
LINE
8
BLACK
6
CONTINUOUS
10
6.20787
20
-4.08533
11
6.20832
21
-4.08311
0
LINE
8
BLACK
6
CONTINUOUS
10
6.20832
20
-4.08311
11
6.20957
21
-4.08123
0
LINE
8
BLACK
6
CONTINUOUS
10
6.20957
20
-4.08123
11
6.21146
21
-4.07997
0
LINE
8
BLACK
6
CONTINUOUS
10
6.21146
20
-4.07997
11
6.21368
21
-4.07953
0
LINE
8
BLACK
6
CONTINUOUS
10
6.21368
20
-4.07953
11
6.22726
21
-4.07953
0
LINE
8
BLACK
6
CONTINUOUS
10
6.22726
20
-4.07953
11
6.22949
21
-4.07997
0
LINE
8
BLACK
6
CONTINUOUS
10
6.96457
20
-4.10236
11
6.9252
21
-4.10236
0
LINE
8
BLACK
6
CONTINUOUS
10
6.9252
20
-4.10236
11
6.9252
21
-3.95276
0
LINE
8
BLACK
6
CONTINUOUS
10
6.9252
20
-3.95276
11
6.96457
21
-3.95276
0
LINE
8
BLACK
6
CONTINUOUS
10
6.96457
20
-3.95276
11
6.96457
21
-4.10236
0
LINE
8
BLACK
6
CONTINUOUS
10
5.7126
20
-4.10236
11
5.67323
21
-4.10236
0
LINE
8
BLACK
6
CONTINUOUS
10
5.67323
20
-4.10236
11
5.67323
21
-3.95276
0
LINE
8
BLACK
6
CONTINUOUS
10
5.67323
20
-3.95276
11
5.7126
21
-3.95276
0
LINE
8
BLACK
6
CONTINUOUS
10
5.7126
20
-3.95276
11
5.7126
21
-4.10236
0
LINE
8
BLACK
6
CONTINUOUS
10
6.43419
20
-4.05583
11
6.43722
21
-4.05786
0
LINE
8
BLACK
6
CONTINUOUS
10
6.43722
20
-4.05786
11
6.43925
21
-4.06089
0
LINE
8
BLACK
6
CONTINUOUS
10
6.43925
20
-4.06089
11
6.43996
21
-4.06447
0
LINE
8
BLACK
6
CONTINUOUS
10
6.43996
20
-4.06447
11
6.43996
21
-4.08711
0
LINE
8
BLACK
6
CONTINUOUS
10
6.43996
20
-4.08711
11
6.43925
21
-4.09068
0
LINE
8
BLACK
6
CONTINUOUS
10
6.43925
20
-4.09068
11
6.43722
21
-4.09372
0
LINE
8
BLACK
6
CONTINUOUS
10
6.43722
20
-4.09372
11
6.43419
21
-4.09574
0
LINE
8
BLACK
6
CONTINUOUS
10
6.43419
20
-4.09574
11
6.43061
21
-4.09646
0
LINE
8
BLACK
6
CONTINUOUS
10
6.43061
20
-4.09646
11
6.41191
21
-4.09646
0
LINE
8
BLACK
6
CONTINUOUS
10
6.41191
20
-4.09646
11
6.40833
21
-4.09574
0
LINE
8
BLACK
6
CONTINUOUS
10
6.40833
20
-4.09574
11
6.4053
21
-4.09372
0
LINE
8
BLACK
6
CONTINUOUS
10
6.4053
20
-4.09372
11
6.40327
21
-4.09068
0
LINE
8
BLACK
6
CONTINUOUS
10
6.40327
20
-4.09068
11
6.40256
21
-4.08711
0
LINE
8
BLACK
6
CONTINUOUS
10
6.40256
20
-4.08711
11
6.40256
21
-4.06447
0
LINE
8
BLACK
6
CONTINUOUS
10
6.40256
20
-4.06447
11
6.40327
21
-4.06089
0
LINE
8
BLACK
6
CONTINUOUS
10
6.40327
20
-4.06089
11
6.4053
21
-4.05786
0
LINE
8
BLACK
6
CONTINUOUS
10
6.4053
20
-4.05786
11
6.40833
21
-4.05583
0
LINE
8
BLACK
6
CONTINUOUS
10
6.40833
20
-4.05583
11
6.41191
21
-4.05512
0
LINE
8
BLACK
6
CONTINUOUS
10
6.41191
20
-4.05512
11
6.43061
21
-4.05512
0
LINE
8
BLACK
6
CONTINUOUS
10
6.43061
20
-4.05512
11
6.43419
21
-4.05583
0
LINE
8
BLACK
6
CONTINUOUS
10
6.63891
20
-4.05583
11
6.64195
21
-4.05786
0
LINE
8
BLACK
6
CONTINUOUS
10
6.64195
20
-4.05786
11
6.64397
21
-4.06089
0
LINE
8
BLACK
6
CONTINUOUS
10
6.64397
20
-4.06089
11
6.64469
21
-4.06447
0
LINE
8
BLACK
6
CONTINUOUS
10
6.64469
20
-4.06447
11
6.64469
21
-4.08711
0
LINE
8
BLACK
6
CONTINUOUS
10
6.64469
20
-4.08711
11
6.64397
21
-4.09068
0
LINE
8
BLACK
6
CONTINUOUS
10
6.64397
20
-4.09068
11
6.64195
21
-4.09372
0
LINE
8
BLACK
6
CONTINUOUS
10
6.64195
20
-4.09372
11
6.63891
21
-4.09574
0
LINE
8
BLACK
6
CONTINUOUS
10
6.63891
20
-4.09574
11
6.63533
21
-4.09646
0
LINE
8
BLACK
6
CONTINUOUS
10
6.63533
20
-4.09646
11
6.61663
21
-4.09646
0
LINE
8
BLACK
6
CONTINUOUS
10
6.61663
20
-4.09646
11
6.61306
21
-4.09574
0
LINE
8
BLACK
6
CONTINUOUS
10
6.61306
20
-4.09574
11
6.61002
21
-4.09372
0
LINE
8
BLACK
6
CONTINUOUS
10
6.61002
20
-4.09372
11
6.608
21
-4.09068
0
LINE
8
BLACK
6
CONTINUOUS
10
6.608
20
-4.09068
11
6.60728
21
-4.08711
0
LINE
8
BLACK
6
CONTINUOUS
10
6.60728
20
-4.08711
11
6.60728
21
-4.06447
0
LINE
8
BLACK
6
CONTINUOUS
10
6.60728
20
-4.06447
11
6.608
21
-4.06089
0
LINE
8
BLACK
6
CONTINUOUS
10
6.608
20
-4.06089
11
6.61002
21
-4.05786
0
LINE
8
BLACK
6
CONTINUOUS
10
6.61002
20
-4.05786
11
6.61306
21
-4.05583
0
LINE
8
BLACK
6
CONTINUOUS
10
6.61306
20
-4.05583
11
6.61663
21
-4.05512
0
LINE
8
BLACK
6
CONTINUOUS
10
6.61663
20
-4.05512
11
6.63533
21
-4.05512
0
LINE
8
BLACK
6
CONTINUOUS
10
6.63533
20
-4.05512
11
6.63891
21
-4.05583
0
LINE
8
BLACK
6
CONTINUOUS
10
6.79639
20
-4.05583
11
6.79943
21
-4.05786
0
LINE
8
BLACK
6
CONTINUOUS
10
6.79943
20
-4.05786
11
6.80145
21
-4.06089
0
LINE
8
BLACK
6
CONTINUOUS
10
6.80145
20
-4.06089
11
6.80217
21
-4.06447
0
LINE
8
BLACK
6
CONTINUOUS
10
6.80217
20
-4.06447
11
6.80217
21
-4.08711
0
LINE
8
BLACK
6
CONTINUOUS
10
6.80217
20
-4.08711
11
6.80145
21
-4.09068
0
LINE
8
BLACK
6
CONTINUOUS
10
6.80145
20
-4.09068
11
6.79943
21
-4.09372
0
LINE
8
BLACK
6
CONTINUOUS
10
6.79943
20
-4.09372
11
6.79639
21
-4.09574
0
LINE
8
BLACK
6
CONTINUOUS
10
6.79639
20
-4.09574
11
6.79281
21
-4.09646
0
LINE
8
BLACK
6
CONTINUOUS
10
6.79281
20
-4.09646
11
6.77411
21
-4.09646
0
LINE
8
BLACK
6
CONTINUOUS
10
6.77411
20
-4.09646
11
6.77054
21
-4.09574
0
LINE
8
BLACK
6
CONTINUOUS
10
6.77054
20
-4.09574
11
6.7675
21
-4.09372
0
LINE
8
BLACK
6
CONTINUOUS
10
6.7675
20
-4.09372
11
6.76548
21
-4.09068
0
LINE
8
BLACK
6
CONTINUOUS
10
6.76548
20
-4.09068
11
6.76476
21
-4.08711
0
LINE
8
BLACK
6
CONTINUOUS
10
6.76476
20
-4.08711
11
6.76476
21
-4.06447
0
LINE
8
BLACK
6
CONTINUOUS
10
6.76476
20
-4.06447
11
6.76548
21
-4.06089
0
LINE
8
BLACK
6
CONTINUOUS
10
6.76548
20
-4.06089
11
6.7675
21
-4.05786
0
LINE
8
BLACK
6
CONTINUOUS
10
6.7675
20
-4.05786
11
6.77054
21
-4.05583
0
LINE
8
BLACK
6
CONTINUOUS
10
6.77054
20
-4.05583
11
6.77411
21
-4.05512
0
LINE
8
BLACK
6
CONTINUOUS
10
6.77411
20
-4.05512
11
6.79281
21
-4.05512
0
LINE
8
BLACK
6
CONTINUOUS
10
6.79281
20
-4.05512
11
6.79639
21
-4.05583
0
LINE
8
BLACK
6
CONTINUOUS
10
6.29935
20
-4.05681
11
6.30238
21
-4.05884
0
LINE
8
BLACK
6
CONTINUOUS
10
6.30238
20
-4.05884
11
6.30441
21
-4.06187
0
LINE
8
BLACK
6
CONTINUOUS
10
6.30441
20
-4.06187
11
6.30512
21
-4.06545
0
LINE
8
BLACK
6
CONTINUOUS
10
6.30512
20
-4.06545
11
6.30512
21
-4.08415
0
LINE
8
BLACK
6
CONTINUOUS
10
6.30512
20
-4.08415
11
6.30441
21
-4.08773
0
LINE
8
BLACK
6
CONTINUOUS
10
6.30441
20
-4.08773
11
6.30238
21
-4.09077
0
LINE
8
BLACK
6
CONTINUOUS
10
6.30238
20
-4.09077
11
6.29935
21
-4.09279
0
LINE
8
BLACK
6
CONTINUOUS
10
6.29935
20
-4.09279
11
6.29577
21
-4.0935
0
LINE
8
BLACK
6
CONTINUOUS
10
6.29577
20
-4.0935
11
6.27313
21
-4.0935
0
LINE
8
BLACK
6
CONTINUOUS
10
6.27313
20
-4.0935
11
6.26955
21
-4.09279
0
LINE
8
BLACK
6
CONTINUOUS
10
6.26955
20
-4.09279
11
6.26652
21
-4.09077
0
LINE
8
BLACK
6
CONTINUOUS
10
6.26652
20
-4.09077
11
6.26449
21
-4.08773
0
LINE
8
BLACK
6
CONTINUOUS
10
6.26449
20
-4.08773
11
6.26378
21
-4.08415
0
LINE
8
BLACK
6
CONTINUOUS
10
6.26378
20
-4.08415
11
6.26378
21
-4.06545
0
LINE
8
BLACK
6
CONTINUOUS
10
6.26378
20
-4.06545
11
6.26449
21
-4.06187
0
LINE
8
BLACK
6
CONTINUOUS
10
6.26449
20
-4.06187
11
6.26652
21
-4.05884
0
LINE
8
BLACK
6
CONTINUOUS
10
6.26652
20
-4.05884
11
6.26955
21
-4.05681
0
LINE
8
BLACK
6
CONTINUOUS
10
6.26955
20
-4.05681
11
6.27313
21
-4.0561
0
LINE
8
BLACK
6
CONTINUOUS
10
6.27313
20
-4.0561
11
6.29577
21
-4.0561
0
LINE
8
BLACK
6
CONTINUOUS
10
6.29577
20
-4.0561
11
6.29935
21
-4.05681
0
LINE
8
BLACK
6
CONTINUOUS
10
6.36824
20
-4.05681
11
6.37128
21
-4.05884
0
LINE
8
BLACK
6
CONTINUOUS
10
6.37128
20
-4.05884
11
6.3733
21
-4.06187
0
LINE
8
BLACK
6
CONTINUOUS
10
6.3733
20
-4.06187
11
6.37402
21
-4.06545
0
LINE
8
BLACK
6
CONTINUOUS
10
6.37402
20
-4.06545
11
6.37402
21
-4.08415
0
LINE
8
BLACK
6
CONTINUOUS
10
6.37402
20
-4.08415
11
6.3733
21
-4.08773
0
LINE
8
BLACK
6
CONTINUOUS
10
6.3733
20
-4.08773
11
6.37128
21
-4.09077
0
LINE
8
BLACK
6
CONTINUOUS
10
6.37128
20
-4.09077
11
6.36824
21
-4.09279
0
LINE
8
BLACK
6
CONTINUOUS
10
6.36824
20
-4.09279
11
6.36467
21
-4.0935
0
LINE
8
BLACK
6
CONTINUOUS
10
6.36467
20
-4.0935
11
6.34203
21
-4.0935
0
LINE
8
BLACK
6
CONTINUOUS
10
6.34203
20
-4.0935
11
6.33845
21
-4.09279
0
LINE
8
BLACK
6
CONTINUOUS
10
6.33845
20
-4.09279
11
6.33542
21
-4.09077
0
LINE
8
BLACK
6
CONTINUOUS
10
6.33542
20
-4.09077
11
6.33339
21
-4.08773
0
LINE
8
BLACK
6
CONTINUOUS
10
6.33339
20
-4.08773
11
6.33268
21
-4.08415
0
LINE
8
BLACK
6
CONTINUOUS
10
6.33268
20
-4.08415
11
6.33268
21
-4.06545
0
LINE
8
BLACK
6
CONTINUOUS
10
6.33268
20
-4.06545
11
6.33339
21
-4.06187
0
LINE
8
BLACK
6
CONTINUOUS
10
6.33339
20
-4.06187
11
6.33542
21
-4.05884
0
LINE
8
BLACK
6
CONTINUOUS
10
6.33542
20
-4.05884
11
6.33845
21
-4.05681
0
LINE
8
BLACK
6
CONTINUOUS
10
6.33845
20
-4.05681
11
6.34203
21
-4.0561
0
LINE
8
BLACK
6
CONTINUOUS
10
6.34203
20
-4.0561
11
6.36467
21
-4.0561
0
LINE
8
BLACK
6
CONTINUOUS
10
6.36467
20
-4.0561
11
6.36824
21
-4.05681
0
LINE
8
BLACK
6
CONTINUOUS
10
5.85545
20
-4.05189
11
5.85848
21
-4.05392
0
LINE
8
BLACK
6
CONTINUOUS
10
5.85848
20
-4.05392
11
5.86051
21
-4.05695
0
LINE
8
BLACK
6
CONTINUOUS
10
5.86051
20
-4.05695
11
5.86122
21
-4.06053
0
LINE
8
BLACK
6
CONTINUOUS
10
5.86122
20
-4.06053
11
5.86122
21
-4.08317
0
LINE
8
BLACK
6
CONTINUOUS
10
5.86122
20
-4.08317
11
5.86051
21
-4.08675
0
LINE
8
BLACK
6
CONTINUOUS
10
5.86051
20
-4.08675
11
5.85848
21
-4.08978
0
LINE
8
BLACK
6
CONTINUOUS
10
5.85848
20
-4.08978
11
5.85545
21
-4.09181
0
LINE
8
BLACK
6
CONTINUOUS
10
5.85545
20
-4.09181
11
5.85187
21
-4.09252
0
LINE
8
BLACK
6
CONTINUOUS
10
5.85187
20
-4.09252
11
5.83317
21
-4.09252
0
LINE
8
BLACK
6
CONTINUOUS
10
5.83317
20
-4.09252
11
5.82959
21
-4.09181
0
LINE
8
BLACK
6
CONTINUOUS
10
5.82959
20
-4.09181
11
5.82656
21
-4.08978
0
LINE
8
BLACK
6
CONTINUOUS
10
5.82656
20
-4.08978
11
5.82453
21
-4.08675
0
LINE
8
BLACK
6
CONTINUOUS
10
5.82453
20
-4.08675
11
5.82382
21
-4.08317
0
LINE
8
BLACK
6
CONTINUOUS
10
5.82382
20
-4.08317
11
5.82382
21
-4.06053
0
LINE
8
BLACK
6
CONTINUOUS
10
5.82382
20
-4.06053
11
5.82453
21
-4.05695
0
LINE
8
BLACK
6
CONTINUOUS
10
5.82453
20
-4.05695
11
5.82656
21
-4.05392
0
LINE
8
BLACK
6
CONTINUOUS
10
5.82656
20
-4.05392
11
5.82959
21
-4.05189
0
LINE
8
BLACK
6
CONTINUOUS
10
5.82959
20
-4.05189
11
5.83317
21
-4.05118
0
LINE
8
BLACK
6
CONTINUOUS
10
5.83317
20
-4.05118
11
5.85187
21
-4.05118
0
LINE
8
BLACK
6
CONTINUOUS
10
5.85187
20
-4.05118
11
5.85545
21
-4.05189
0
LINE
8
BLACK
6
CONTINUOUS
10
5.79246
20
-4.05189
11
5.79549
21
-4.05392
0
LINE
8
BLACK
6
CONTINUOUS
10
5.79549
20
-4.05392
11
5.79752
21
-4.05695
0
LINE
8
BLACK
6
CONTINUOUS
10
5.79752
20
-4.05695
11
5.79823
21
-4.06053
0
LINE
8
BLACK
6
CONTINUOUS
10
5.79823
20
-4.06053
11
5.79823
21
-4.08317
0
LINE
8
BLACK
6
CONTINUOUS
10
5.79823
20
-4.08317
11
5.79752
21
-4.08675
0
LINE
8
BLACK
6
CONTINUOUS
10
5.79752
20
-4.08675
11
5.79549
21
-4.08978
0
LINE
8
BLACK
6
CONTINUOUS
10
5.79549
20
-4.08978
11
5.79246
21
-4.09181
0
LINE
8
BLACK
6
CONTINUOUS
10
5.79246
20
-4.09181
11
5.78888
21
-4.09252
0
LINE
8
BLACK
6
CONTINUOUS
10
5.78888
20
-4.09252
11
5.77018
21
-4.09252
0
LINE
8
BLACK
6
CONTINUOUS
10
5.77018
20
-4.09252
11
5.7666
21
-4.09181
0
LINE
8
BLACK
6
CONTINUOUS
10
5.7666
20
-4.09181
11
5.76357
21
-4.08978
0
LINE
8
BLACK
6
CONTINUOUS
10
5.76357
20
-4.08978
11
5.76154
21
-4.08675
0
LINE
8
BLACK
6
CONTINUOUS
10
5.76154
20
-4.08675
11
5.76083
21
-4.08317
0
LINE
8
BLACK
6
CONTINUOUS
10
5.76083
20
-4.08317
11
5.76083
21
-4.06053
0
LINE
8
BLACK
6
CONTINUOUS
10
5.76083
20
-4.06053
11
5.76154
21
-4.05695
0
LINE
8
BLACK
6
CONTINUOUS
10
5.76154
20
-4.05695
11
5.76357
21
-4.05392
0
LINE
8
BLACK
6
CONTINUOUS
10
5.76357
20
-4.05392
11
5.7666
21
-4.05189
0
LINE
8
BLACK
6
CONTINUOUS
10
5.7666
20
-4.05189
11
5.77018
21
-4.05118
0
LINE
8
BLACK
6
CONTINUOUS
10
5.77018
20
-4.05118
11
5.78888
21
-4.05118
0
LINE
8
BLACK
6
CONTINUOUS
10
5.78888
20
-4.05118
11
5.79246
21
-4.05189
0
LINE
8
BLACK
6
CONTINUOUS
10
5.47232
20
-4.07474
11
5.43732
21
-4.07474
0
LINE
8
BLACK
6
CONTINUOUS
10
5.43732
20
-4.07474
11
5.43732
21
-4.01974
0
LINE
8
BLACK
6
CONTINUOUS
10
5.43732
20
-4.01974
11
5.47232
21
-4.01974
0
LINE
8
BLACK
6
CONTINUOUS
10
5.47232
20
-4.01974
11
5.47232
21
-4.07474
0
LINE
8
BLACK
6
CONTINUOUS
10
5.39732
20
-4.07474
11
5.36232
21
-4.07474
0
LINE
8
BLACK
6
CONTINUOUS
10
5.36232
20
-4.07474
11
5.36232
21
-4.01974
0
LINE
8
BLACK
6
CONTINUOUS
10
5.36232
20
-4.01974
11
5.39732
21
-4.01974
0
LINE
8
BLACK
6
CONTINUOUS
10
5.39732
20
-4.01974
11
5.39732
21
-4.07474
0
LINE
8
BLACK
6
CONTINUOUS
10
5.59646
20
-3.98425
11
5.52953
21
-3.98425
0
LINE
8
BLACK
6
CONTINUOUS
10
5.52953
20
-3.98425
11
5.52953
21
-3.93307
0
LINE
8
BLACK
6
CONTINUOUS
10
5.52953
20
-3.93307
11
5.59646
21
-3.93307
0
LINE
8
BLACK
6
CONTINUOUS
10
5.59646
20
-3.93307
11
5.59646
21
-3.98425
0
LINE
8
BLACK
6
CONTINUOUS
10
5.4775
20
-3.93969
11
5.48053
21
-3.94172
0
LINE
8
BLACK
6
CONTINUOUS
10
5.48053
20
-3.94172
11
5.48256
21
-3.94475
0
LINE
8
BLACK
6
CONTINUOUS
10
5.48256
20
-3.94475
11
5.48327
21
-3.94833
0
LINE
8
BLACK
6
CONTINUOUS
10
5.48327
20
-3.94833
11
5.48327
21
-3.97096
0
LINE
8
BLACK
6
CONTINUOUS
10
5.48327
20
-3.97096
11
5.48256
21
-3.97454
0
LINE
8
BLACK
6
CONTINUOUS
10
5.48256
20
-3.97454
11
5.48053
21
-3.97758
0
LINE
8
BLACK
6
CONTINUOUS
10
5.48053
20
-3.97758
11
5.4775
21
-3.9796
0
LINE
8
BLACK
6
CONTINUOUS
10
5.4775
20
-3.9796
11
5.47392
21
-3.98031
0
LINE
8
BLACK
6
CONTINUOUS
10
5.47392
20
-3.98031
11
5.45522
21
-3.98031
0
LINE
8
BLACK
6
CONTINUOUS
10
5.45522
20
-3.98031
11
5.45164
21
-3.9796
0
LINE
8
BLACK
6
CONTINUOUS
10
5.45164
20
-3.9796
11
5.4486
21
-3.97758
0
LINE
8
BLACK
6
CONTINUOUS
10
5.4486
20
-3.97758
11
5.44658
21
-3.97454
0
LINE
8
BLACK
6
CONTINUOUS
10
5.44658
20
-3.97454
11
5.44587
21
-3.97096
0
LINE
8
BLACK
6
CONTINUOUS
10
5.44587
20
-3.97096
11
5.44587
21
-3.94833
0
LINE
8
BLACK
6
CONTINUOUS
10
5.44587
20
-3.94833
11
5.44658
21
-3.94475
0
LINE
8
BLACK
6
CONTINUOUS
10
5.44658
20
-3.94475
11
5.4486
21
-3.94172
0
LINE
8
BLACK
6
CONTINUOUS
10
5.4486
20
-3.94172
11
5.45164
21
-3.93969
0
LINE
8
BLACK
6
CONTINUOUS
10
5.45164
20
-3.93969
11
5.45522
21
-3.93898
0
LINE
8
BLACK
6
CONTINUOUS
10
5.45522
20
-3.93898
11
5.47392
21
-3.93898
0
LINE
8
BLACK
6
CONTINUOUS
10
5.47392
20
-3.93898
11
5.4775
21
-3.93969
0
LINE
8
BLACK
6
CONTINUOUS
10
5.40545
20
-3.9802
11
5.35045
21
-3.9802
0
LINE
8
BLACK
6
CONTINUOUS
10
5.35045
20
-3.9802
11
5.35045
21
-3.9452
0
LINE
8
BLACK
6
CONTINUOUS
10
5.35045
20
-3.9452
11
5.40545
21
-3.9452
0
LINE
8
BLACK
6
CONTINUOUS
10
5.40545
20
-3.9452
11
5.40545
21
-3.9802
0
LINE
8
BLACK
6
CONTINUOUS
10
6.09236
20
-3.92136
11
6.05736
21
-3.92136
0
LINE
8
BLACK
6
CONTINUOUS
10
6.05736
20
-3.92136
11
6.05736
21
-3.86636
0
LINE
8
BLACK
6
CONTINUOUS
10
6.05736
20
-3.86636
11
6.09236
21
-3.86636
0
LINE
8
BLACK
6
CONTINUOUS
10
6.09236
20
-3.86636
11
6.09236
21
-3.92136
0
LINE
8
BLACK
6
CONTINUOUS
10
6.16736
20
-3.92136
11
6.13236
21
-3.92136
0
LINE
8
BLACK
6
CONTINUOUS
10
6.13236
20
-3.92136
11
6.13236
21
-3.86636
0
LINE
8
BLACK
6
CONTINUOUS
10
6.13236
20
-3.86636
11
6.16736
21
-3.86636
0
LINE
8
BLACK
6
CONTINUOUS
10
6.16736
20
-3.86636
11
6.16736
21
-3.92136
0
LINE
8
BLACK
6
CONTINUOUS
10
5.4775
20
-3.87079
11
5.48053
21
-3.87282
0
LINE
8
BLACK
6
CONTINUOUS
10
5.48053
20
-3.87282
11
5.48256
21
-3.87585
0
LINE
8
BLACK
6
CONTINUOUS
10
5.48256
20
-3.87585
11
5.48327
21
-3.87943
0
LINE
8
BLACK
6
CONTINUOUS
10
5.48327
20
-3.87943
11
5.48327
21
-3.90207
0
LINE
8
BLACK
6
CONTINUOUS
10
5.48327
20
-3.90207
11
5.48256
21
-3.90565
0
LINE
8
BLACK
6
CONTINUOUS
10
5.48256
20
-3.90565
11
5.48053
21
-3.90868
0
LINE
8
BLACK
6
CONTINUOUS
10
5.48053
20
-3.90868
11
5.4775
21
-3.91071
0
LINE
8
BLACK
6
CONTINUOUS
10
5.4775
20
-3.91071
11
5.47392
21
-3.91142
0
LINE
8
BLACK
6
CONTINUOUS
10
5.47392
20
-3.91142
11
5.45522
21
-3.91142
0
LINE
8
BLACK
6
CONTINUOUS
10
5.45522
20
-3.91142
11
5.45164
21
-3.91071
0
LINE
8
BLACK
6
CONTINUOUS
10
5.45164
20
-3.91071
11
5.4486
21
-3.90868
0
LINE
8
BLACK
6
CONTINUOUS
10
5.4486
20
-3.90868
11
5.44658
21
-3.90565
0
LINE
8
BLACK
6
CONTINUOUS
10
5.44658
20
-3.90565
11
5.44587
21
-3.90207
0
LINE
8
BLACK
6
CONTINUOUS
10
5.44587
20
-3.90207
11
5.44587
21
-3.87943
0
LINE
8
BLACK
6
CONTINUOUS
10
5.44587
20
-3.87943
11
5.44658
21
-3.87585
0
LINE
8
BLACK
6
CONTINUOUS
10
5.44658
20
-3.87585
11
5.4486
21
-3.87282
0
LINE
8
BLACK
6
CONTINUOUS
10
5.4486
20
-3.87282
11
5.45164
21
-3.87079
0
LINE
8
BLACK
6
CONTINUOUS
10
5.45164
20
-3.87079
11
5.45522
21
-3.87008
0
LINE
8
BLACK
6
CONTINUOUS
10
5.45522
20
-3.87008
11
5.47392
21
-3.87008
0
LINE
8
BLACK
6
CONTINUOUS
10
5.47392
20
-3.87008
11
5.4775
21
-3.87079
0
LINE
8
BLACK
6
CONTINUOUS
10
5.40545
20
-3.9052
11
5.35045
21
-3.9052
0
LINE
8
BLACK
6
CONTINUOUS
10
5.35045
20
-3.9052
11
5.35045
21
-3.8702
0
LINE
8
BLACK
6
CONTINUOUS
10
5.35045
20
-3.8702
11
5.40545
21
-3.8702
0
LINE
8
BLACK
6
CONTINUOUS
10
5.40545
20
-3.8702
11
5.40545
21
-3.9052
0
LINE
8
BLACK
6
CONTINUOUS
10
6.83465
20
-3.73622
11
6.96457
21
-3.73622
0
LINE
8
BLACK
6
CONTINUOUS
10
6.96457
20
-3.73622
11
6.96457
21
-3.86614
0
LINE
8
BLACK
6
CONTINUOUS
10
6.96457
20
-3.86614
11
6.9252
21
-3.86614
0
LINE
8
BLACK
6
CONTINUOUS
10
6.9252
20
-3.86614
11
6.9252
21
-3.77559
0
LINE
8
BLACK
6
CONTINUOUS
10
6.9252
20
-3.77559
11
6.83465
21
-3.77559
0
LINE
8
BLACK
6
CONTINUOUS
10
6.83465
20
-3.77559
11
6.83465
21
-3.73622
0
LINE
8
BLACK
6
CONTINUOUS
10
5.59646
20
-3.84646
11
5.52953
21
-3.84646
0
LINE
8
BLACK
6
CONTINUOUS
10
5.52953
20
-3.84646
11
5.52953
21
-3.79528
0
LINE
8
BLACK
6
CONTINUOUS
10
5.52953
20
-3.79528
11
5.59646
21
-3.79528
0
LINE
8
BLACK
6
CONTINUOUS
10
5.59646
20
-3.79528
11
5.59646
21
-3.84646
0
LINE
8
BLACK
6
CONTINUOUS
10
5.67323
20
-3.86614
11
5.67323
21
-3.73622
0
LINE
8
BLACK
6
CONTINUOUS
10
5.67323
20
-3.73622
11
5.80315
21
-3.73622
0
LINE
8
BLACK
6
CONTINUOUS
10
5.80315
20
-3.73622
11
5.80315
21
-3.77559
0
LINE
8
BLACK
6
CONTINUOUS
10
5.80315
20
-3.77559
11
5.7126
21
-3.77559
0
LINE
8
BLACK
6
CONTINUOUS
10
5.7126
20
-3.77559
11
5.7126
21
-3.86614
0
LINE
8
BLACK
6
CONTINUOUS
10
5.7126
20
-3.86614
11
5.67323
21
-3.86614
0
LINE
8
BLACK
6
CONTINUOUS
10
6.03937
20
-3.77559
11
5.88976
21
-3.77559
0
LINE
8
BLACK
6
CONTINUOUS
10
5.88976
20
-3.77559
11
5.88976
21
-3.73622
0
LINE
8
BLACK
6
CONTINUOUS
10
5.88976
20
-3.73622
11
6.03937
21
-3.73622
0
LINE
8
BLACK
6
CONTINUOUS
10
6.03937
20
-3.73622
11
6.03937
21
-3.77559
0
LINE
8
BLACK
6
CONTINUOUS
10
6.74803
20
-3.77559
11
6.59843
21
-3.77559
0
LINE
8
BLACK
6
CONTINUOUS
10
6.59843
20
-3.77559
11
6.59843
21
-3.73622
0
LINE
8
BLACK
6
CONTINUOUS
10
6.59843
20
-3.73622
11
6.74803
21
-3.73622
0
LINE
8
BLACK
6
CONTINUOUS
10
6.74803
20
-3.73622
11
6.74803
21
-3.77559
0
LINE
8
BLACK
6
CONTINUOUS
10
6.51181
20
-3.77559
11
6.3622
21
-3.77559
0
LINE
8
BLACK
6
CONTINUOUS
10
6.3622
20
-3.77559
11
6.3622
21
-3.73622
0
LINE
8
BLACK
6
CONTINUOUS
10
6.3622
20
-3.73622
11
6.51181
21
-3.73622
0
LINE
8
BLACK
6
CONTINUOUS
10
6.51181
20
-3.73622
11
6.51181
21
-3.77559
0
LINE
8
BLACK
6
CONTINUOUS
10
6.27559
20
-3.77559
11
6.12598
21
-3.77559
0
LINE
8
BLACK
6
CONTINUOUS
10
6.12598
20
-3.77559
11
6.12598
21
-3.73622
0
LINE
8
BLACK
6
CONTINUOUS
10
6.12598
20
-3.73622
11
6.27559
21
-3.73622
0
LINE
8
BLACK
6
CONTINUOUS
10
6.27559
20
-3.73622
11
6.27559
21
-3.77559
  0
ENDSEC
  0
EOF
