  0
SECTION
  2
HEADER
  9
$ANGBASE
  50
0.0
  9
$ANGDIR
  70
1
  9
$MEASUREMENT
  70
0
  0
ENDSEC
  0
SECTION
  2
TABLES
  0
TABLE
  2
LTYPE
  70
4
  0
LTYPE
  5
40F
  2
CONTINUOUS
  70
0
  3
Solid line
  72
65
  73
0
  40
0.0
  0
LTYPE
  5
410
  2
DASHDOT
 70
0
  3
Dash Dot ____ _ ____ _
 72
65
 73
4
 40
2.0
 49
1.25
 49
-0.25
 49
0.25
 49
-0.25
  0
LTYPE
  5
411
  2
DASHED
 70
0
  3
Dashed __ __ __ __ __
 72
65
 73
2
 40
0.75
 49
0.5
 49
-0.25
  0
LTYPE
  5
43B
  2
DOTTED
 70
0
  3
Dotted .  .  .  .
 72
65
 73
2
 40
0.2
 49
0.0
 49
-0.2
  0
ENDTAB
  0
TABLE
  2
STYLE
  70
4
  0
STYLE
  2
KICAD
  70
0
  40
0
  41
1
  42
1
  50
0
  71
0
  3
isocp.shx
  0
STYLE
  2
KICADB
  70
0
  40
0
  41
1
  42
1
  50
0
  71
0
  3
isocp.shx
  0
STYLE
  2
KICADI
  70
0
  40
0
  41
1
  42
1
  50
15
  71
0
  3
isocp.shx
  0
STYLE
  2
KICADBI
  70
0
  40
0
  41
1
  42
1
  50
15
  71
0
  3
isocp.shx
  0
ENDTAB
  0
TABLE
  2
LAYER
  70
1
  0
LAYER
  2
BLACK
  70
0
  62
7
  6
CONTINUOUS
  0
ENDTAB
  0
ENDSEC
  0
SECTION
  2
ENTITIES
0
LINE
8
BLACK
6
CONTINUOUS
10
7.28691
20
-4.69253
11
7.28705
21
-4.69264
0
LINE
8
BLACK
6
CONTINUOUS
10
7.28705
20
-4.69264
11
7.28722
21
-4.69266
0
LINE
8
BLACK
6
CONTINUOUS
10
7.28722
20
-4.69266
11
7.29097
21
-4.69454
0
LINE
8
BLACK
6
CONTINUOUS
10
7.29097
20
-4.69454
11
7.29168
21
-4.69506
0
LINE
8
BLACK
6
CONTINUOUS
10
7.29168
20
-4.69506
11
7.29174
21
-4.69509
0
LINE
8
BLACK
6
CONTINUOUS
10
7.29174
20
-4.69509
11
7.29361
21
-4.69697
0
LINE
8
BLACK
6
CONTINUOUS
10
7.29361
20
-4.69697
11
7.29412
21
-4.69769
0
LINE
8
BLACK
6
CONTINUOUS
10
7.29412
20
-4.69769
11
7.29417
21
-4.69773
0
LINE
8
BLACK
6
CONTINUOUS
10
7.29417
20
-4.69773
11
7.29604
21
-4.70148
0
LINE
8
BLACK
6
CONTINUOUS
10
7.29604
20
-4.70148
11
7.29633
21
-4.70247
0
LINE
8
BLACK
6
CONTINUOUS
10
7.29633
20
-4.70247
11
7.29629
21
-4.70264
0
LINE
8
BLACK
6
CONTINUOUS
10
7.29629
20
-4.70264
11
7.29635
21
-4.7028
0
LINE
8
BLACK
6
CONTINUOUS
10
7.29635
20
-4.7028
11
7.29635
21
-4.7103
0
LINE
8
BLACK
6
CONTINUOUS
10
7.29635
20
-4.7103
11
7.29618
21
-4.71131
0
LINE
8
BLACK
6
CONTINUOUS
10
7.29618
20
-4.71131
11
7.29606
21
-4.71145
0
LINE
8
BLACK
6
CONTINUOUS
10
7.29606
20
-4.71145
11
7.29604
21
-4.71162
0
LINE
8
BLACK
6
CONTINUOUS
10
7.29604
20
-4.71162
11
7.29417
21
-4.71537
0
LINE
8
BLACK
6
CONTINUOUS
10
7.29417
20
-4.71537
11
7.29364
21
-4.71608
0
LINE
8
BLACK
6
CONTINUOUS
10
7.29364
20
-4.71608
11
7.29361
21
-4.71614
0
LINE
8
BLACK
6
CONTINUOUS
10
7.29361
20
-4.71614
11
7.29174
21
-4.71801
0
LINE
8
BLACK
6
CONTINUOUS
10
7.29174
20
-4.71801
11
7.29102
21
-4.71852
0
LINE
8
BLACK
6
CONTINUOUS
10
7.29102
20
-4.71852
11
7.29097
21
-4.71857
0
LINE
8
BLACK
6
CONTINUOUS
10
7.29097
20
-4.71857
11
7.28722
21
-4.72044
0
LINE
8
BLACK
6
CONTINUOUS
10
7.28722
20
-4.72044
11
7.28624
21
-4.72073
0
LINE
8
BLACK
6
CONTINUOUS
10
7.28624
20
-4.72073
11
7.28607
21
-4.72069
0
LINE
8
BLACK
6
CONTINUOUS
10
7.28607
20
-4.72069
11
7.2859
21
-4.72075
0
LINE
8
BLACK
6
CONTINUOUS
10
7.2859
20
-4.72075
11
7.25403
21
-4.72075
0
LINE
8
BLACK
6
CONTINUOUS
10
7.25403
20
-4.72075
11
7.25302
21
-4.72058
0
LINE
8
BLACK
6
CONTINUOUS
10
7.25302
20
-4.72058
11
7.25147
21
-4.71928
0
LINE
8
BLACK
6
CONTINUOUS
10
7.25147
20
-4.71928
11
7.25112
21
-4.71729
0
LINE
8
BLACK
6
CONTINUOUS
10
7.25112
20
-4.71729
11
7.25213
21
-4.71554
0
LINE
8
BLACK
6
CONTINUOUS
10
7.25213
20
-4.71554
11
7.25403
21
-4.71485
0
LINE
8
BLACK
6
CONTINUOUS
10
7.25403
20
-4.71485
11
7.2852
21
-4.71485
0
LINE
8
BLACK
6
CONTINUOUS
10
7.2852
20
-4.71485
11
7.2879
21
-4.7135
0
LINE
8
BLACK
6
CONTINUOUS
10
7.2879
20
-4.7135
11
7.2891
21
-4.7123
0
LINE
8
BLACK
6
CONTINUOUS
10
7.2891
20
-4.7123
11
7.29045
21
-4.7096
0
LINE
8
BLACK
6
CONTINUOUS
10
7.29045
20
-4.7096
11
7.29045
21
-4.7035
0
LINE
8
BLACK
6
CONTINUOUS
10
7.29045
20
-4.7035
11
7.2891
21
-4.7008
0
LINE
8
BLACK
6
CONTINUOUS
10
7.2891
20
-4.7008
11
7.2879
21
-4.69961
0
LINE
8
BLACK
6
CONTINUOUS
10
7.2879
20
-4.69961
11
7.2852
21
-4.69826
0
LINE
8
BLACK
6
CONTINUOUS
10
7.2852
20
-4.69826
11
7.25403
21
-4.69826
0
LINE
8
BLACK
6
CONTINUOUS
10
7.25403
20
-4.69826
11
7.25302
21
-4.69808
0
LINE
8
BLACK
6
CONTINUOUS
10
7.25302
20
-4.69808
11
7.25147
21
-4.69678
0
LINE
8
BLACK
6
CONTINUOUS
10
7.25147
20
-4.69678
11
7.25112
21
-4.69479
0
LINE
8
BLACK
6
CONTINUOUS
10
7.25112
20
-4.69479
11
7.25213
21
-4.69304
0
LINE
8
BLACK
6
CONTINUOUS
10
7.25213
20
-4.69304
11
7.25403
21
-4.69235
0
LINE
8
BLACK
6
CONTINUOUS
10
7.25403
20
-4.69235
11
7.2859
21
-4.69235
0
LINE
8
BLACK
6
CONTINUOUS
10
7.2859
20
-4.69235
11
7.28691
21
-4.69253
0
LINE
8
BLACK
6
CONTINUOUS
10
7.45472
20
-4.61319
11
7.45472
21
-4.62697
0
LINE
8
BLACK
6
CONTINUOUS
10
7.45472
20
-4.62697
11
7.46063
21
-4.62697
0
LINE
8
BLACK
6
CONTINUOUS
10
7.46063
20
-4.62697
11
7.46202
21
-4.62755
0
LINE
8
BLACK
6
CONTINUOUS
10
7.46202
20
-4.62755
11
7.4626
21
-4.62894
0
LINE
8
BLACK
6
CONTINUOUS
10
7.4626
20
-4.62894
11
7.4626
21
-4.6998
0
LINE
8
BLACK
6
CONTINUOUS
10
7.4626
20
-4.6998
11
7.46202
21
-4.7012
0
LINE
8
BLACK
6
CONTINUOUS
10
7.46202
20
-4.7012
11
7.46063
21
-4.70177
0
LINE
8
BLACK
6
CONTINUOUS
10
7.46063
20
-4.70177
11
7.45472
21
-4.70177
0
LINE
8
BLACK
6
CONTINUOUS
10
7.45472
20
-4.70177
11
7.45472
21
-4.71555
0
LINE
8
BLACK
6
CONTINUOUS
10
7.45472
20
-4.71555
11
7.45415
21
-4.71694
0
LINE
8
BLACK
6
CONTINUOUS
10
7.45415
20
-4.71694
11
7.45276
21
-4.71752
0
LINE
8
BLACK
6
CONTINUOUS
10
7.45276
20
-4.71752
11
7.35039
21
-4.71752
0
LINE
8
BLACK
6
CONTINUOUS
10
7.35039
20
-4.71752
11
7.349
21
-4.71694
0
LINE
8
BLACK
6
CONTINUOUS
10
7.349
20
-4.71694
11
7.34843
21
-4.71555
0
LINE
8
BLACK
6
CONTINUOUS
10
7.34843
20
-4.71555
11
7.34843
21
-4.70177
0
LINE
8
BLACK
6
CONTINUOUS
10
7.34843
20
-4.70177
11
7.34252
21
-4.70177
0
LINE
8
BLACK
6
CONTINUOUS
10
7.34252
20
-4.70177
11
7.34113
21
-4.7012
0
LINE
8
BLACK
6
CONTINUOUS
10
7.34113
20
-4.7012
11
7.34055
21
-4.6998
0
LINE
8
BLACK
6
CONTINUOUS
10
7.34055
20
-4.6998
11
7.34055
21
-4.62894
0
LINE
8
BLACK
6
CONTINUOUS
10
7.34055
20
-4.62894
11
7.34113
21
-4.62755
0
LINE
8
BLACK
6
CONTINUOUS
10
7.34113
20
-4.62755
11
7.34252
21
-4.62697
0
LINE
8
BLACK
6
CONTINUOUS
10
7.34252
20
-4.62697
11
7.34843
21
-4.62697
0
LINE
8
BLACK
6
CONTINUOUS
10
7.34843
20
-4.62697
11
7.34843
21
-4.61319
0
LINE
8
BLACK
6
CONTINUOUS
10
7.34843
20
-4.61319
11
7.349
21
-4.6118
0
LINE
8
BLACK
6
CONTINUOUS
10
7.349
20
-4.6118
11
7.35039
21
-4.61122
0
LINE
8
BLACK
6
CONTINUOUS
10
7.35039
20
-4.61122
11
7.3878
21
-4.61122
0
LINE
8
BLACK
6
CONTINUOUS
10
7.3878
20
-4.61122
11
7.3878
21
-4.60335
0
LINE
8
BLACK
6
CONTINUOUS
10
7.3878
20
-4.60335
11
7.38837
21
-4.60195
0
LINE
8
BLACK
6
CONTINUOUS
10
7.38837
20
-4.60195
11
7.38976
21
-4.60138
0
LINE
8
BLACK
6
CONTINUOUS
10
7.38976
20
-4.60138
11
7.40748
21
-4.60138
0
LINE
8
BLACK
6
CONTINUOUS
10
7.40748
20
-4.60138
11
7.40887
21
-4.60195
0
LINE
8
BLACK
6
CONTINUOUS
10
7.40887
20
-4.60195
11
7.41478
21
-4.60786
0
LINE
8
BLACK
6
CONTINUOUS
10
7.41478
20
-4.60786
11
7.41535
21
-4.60925
0
LINE
8
BLACK
6
CONTINUOUS
10
7.41535
20
-4.60925
11
7.41535
21
-4.61122
0
LINE
8
BLACK
6
CONTINUOUS
10
7.41535
20
-4.61122
11
7.45276
21
-4.61122
0
LINE
8
BLACK
6
CONTINUOUS
10
7.45276
20
-4.61122
11
7.45415
21
-4.6118
0
LINE
8
BLACK
6
CONTINUOUS
10
7.45415
20
-4.6118
11
7.45472
21
-4.61319
0
LINE
8
BLACK
6
CONTINUOUS
10
7.35236
20
-4.62894
11
7.35179
21
-4.63033
0
LINE
8
BLACK
6
CONTINUOUS
10
7.35179
20
-4.63033
11
7.35039
21
-4.63091
0
LINE
8
BLACK
6
CONTINUOUS
10
7.35039
20
-4.63091
11
7.34449
21
-4.63091
0
LINE
8
BLACK
6
CONTINUOUS
10
7.34449
20
-4.63091
11
7.34449
21
-4.69783
0
LINE
8
BLACK
6
CONTINUOUS
10
7.34449
20
-4.69783
11
7.35039
21
-4.69783
0
LINE
8
BLACK
6
CONTINUOUS
10
7.35039
20
-4.69783
11
7.35179
21
-4.69841
0
LINE
8
BLACK
6
CONTINUOUS
10
7.35179
20
-4.69841
11
7.35236
21
-4.6998
0
LINE
8
BLACK
6
CONTINUOUS
10
7.35236
20
-4.6998
11
7.35236
21
-4.71358
0
LINE
8
BLACK
6
CONTINUOUS
10
7.35236
20
-4.71358
11
7.45079
21
-4.71358
0
LINE
8
BLACK
6
CONTINUOUS
10
7.45079
20
-4.71358
11
7.45079
21
-4.6998
0
LINE
8
BLACK
6
CONTINUOUS
10
7.45079
20
-4.6998
11
7.45136
21
-4.69841
0
LINE
8
BLACK
6
CONTINUOUS
10
7.45136
20
-4.69841
11
7.45276
21
-4.69783
0
LINE
8
BLACK
6
CONTINUOUS
10
7.45276
20
-4.69783
11
7.45866
21
-4.69783
0
LINE
8
BLACK
6
CONTINUOUS
10
7.45866
20
-4.69783
11
7.45866
21
-4.63091
0
LINE
8
BLACK
6
CONTINUOUS
10
7.45866
20
-4.63091
11
7.45276
21
-4.63091
0
LINE
8
BLACK
6
CONTINUOUS
10
7.45276
20
-4.63091
11
7.45136
21
-4.63033
0
LINE
8
BLACK
6
CONTINUOUS
10
7.45136
20
-4.63033
11
7.45079
21
-4.62894
0
LINE
8
BLACK
6
CONTINUOUS
10
7.45079
20
-4.62894
11
7.45079
21
-4.61516
0
LINE
8
BLACK
6
CONTINUOUS
10
7.45079
20
-4.61516
11
7.41339
21
-4.61516
0
LINE
8
BLACK
6
CONTINUOUS
10
7.41339
20
-4.61516
11
7.41199
21
-4.61458
0
LINE
8
BLACK
6
CONTINUOUS
10
7.41199
20
-4.61458
11
7.41142
21
-4.61319
0
LINE
8
BLACK
6
CONTINUOUS
10
7.41142
20
-4.61319
11
7.41142
21
-4.61007
0
LINE
8
BLACK
6
CONTINUOUS
10
7.41142
20
-4.61007
11
7.40666
21
-4.60531
0
LINE
8
BLACK
6
CONTINUOUS
10
7.40666
20
-4.60531
11
7.39173
21
-4.60531
0
LINE
8
BLACK
6
CONTINUOUS
10
7.39173
20
-4.60531
11
7.39173
21
-4.61319
0
LINE
8
BLACK
6
CONTINUOUS
10
7.39173
20
-4.61319
11
7.39116
21
-4.61458
0
LINE
8
BLACK
6
CONTINUOUS
10
7.39116
20
-4.61458
11
7.38976
21
-4.61516
0
LINE
8
BLACK
6
CONTINUOUS
10
7.38976
20
-4.61516
11
7.35236
21
-4.61516
0
LINE
8
BLACK
6
CONTINUOUS
10
7.35236
20
-4.61516
11
7.35236
21
-4.62894
0
LINE
8
BLACK
6
CONTINUOUS
10
7.39132
20
-4.67631
11
7.3908
21
-4.67506
0
LINE
8
BLACK
6
CONTINUOUS
10
7.3908
20
-4.67506
11
7.39132
21
-4.6738
0
LINE
8
BLACK
6
CONTINUOUS
10
7.39132
20
-4.6738
11
7.39258
21
-4.67328
0
LINE
8
BLACK
6
CONTINUOUS
10
7.39258
20
-4.67328
11
7.39755
21
-4.67328
0
LINE
8
BLACK
6
CONTINUOUS
10
7.39755
20
-4.67328
11
7.39755
21
-4.65684
0
LINE
8
BLACK
6
CONTINUOUS
10
7.39755
20
-4.65684
11
7.39608
21
-4.65831
0
LINE
8
BLACK
6
CONTINUOUS
10
7.39608
20
-4.65831
11
7.39581
21
-4.65842
0
LINE
8
BLACK
6
CONTINUOUS
10
7.39581
20
-4.65842
11
7.39562
21
-4.65864
0
LINE
8
BLACK
6
CONTINUOUS
10
7.39562
20
-4.65864
11
7.39337
21
-4.65977
0
LINE
8
BLACK
6
CONTINUOUS
10
7.39337
20
-4.65977
11
7.39202
21
-4.65986
0
LINE
8
BLACK
6
CONTINUOUS
10
7.39202
20
-4.65986
11
7.39099
21
-4.65898
0
LINE
8
BLACK
6
CONTINUOUS
10
7.39099
20
-4.65898
11
7.3909
21
-4.65762
0
LINE
8
BLACK
6
CONTINUOUS
10
7.3909
20
-4.65762
11
7.39178
21
-4.6566
0
LINE
8
BLACK
6
CONTINUOUS
10
7.39178
20
-4.6566
11
7.39378
21
-4.6556
0
LINE
8
BLACK
6
CONTINUOUS
10
7.39378
20
-4.6556
11
7.3957
21
-4.65368
0
LINE
8
BLACK
6
CONTINUOUS
10
7.3957
20
-4.65368
11
7.39785
21
-4.65045
0
LINE
8
BLACK
6
CONTINUOUS
10
7.39785
20
-4.65045
11
7.398
21
-4.65035
0
LINE
8
BLACK
6
CONTINUOUS
10
7.398
20
-4.65035
11
7.39807
21
-4.65018
0
LINE
8
BLACK
6
CONTINUOUS
10
7.39807
20
-4.65018
11
7.39855
21
-4.64998
0
LINE
8
BLACK
6
CONTINUOUS
10
7.39855
20
-4.64998
11
7.39898
21
-4.6497
0
LINE
8
BLACK
6
CONTINUOUS
10
7.39898
20
-4.6497
11
7.39916
21
-4.64973
0
LINE
8
BLACK
6
CONTINUOUS
10
7.39916
20
-4.64973
11
7.39933
21
-4.64966
0
LINE
8
BLACK
6
CONTINUOUS
10
7.39933
20
-4.64966
11
7.3998
21
-4.64986
0
LINE
8
BLACK
6
CONTINUOUS
10
7.3998
20
-4.64986
11
7.40031
21
-4.64996
0
LINE
8
BLACK
6
CONTINUOUS
10
7.40031
20
-4.64996
11
7.40041
21
-4.65011
0
LINE
8
BLACK
6
CONTINUOUS
10
7.40041
20
-4.65011
11
7.40058
21
-4.65018
0
LINE
8
BLACK
6
CONTINUOUS
10
7.40058
20
-4.65018
11
7.40078
21
-4.65066
0
LINE
8
BLACK
6
CONTINUOUS
10
7.40078
20
-4.65066
11
7.40106
21
-4.65109
0
LINE
8
BLACK
6
CONTINUOUS
10
7.40106
20
-4.65109
11
7.40103
21
-4.65127
0
LINE
8
BLACK
6
CONTINUOUS
10
7.40103
20
-4.65127
11
7.4011
21
-4.65143
0
LINE
8
BLACK
6
CONTINUOUS
10
7.4011
20
-4.65143
11
7.4011
21
-4.67328
0
LINE
8
BLACK
6
CONTINUOUS
10
7.4011
20
-4.67328
11
7.40607
21
-4.67328
0
LINE
8
BLACK
6
CONTINUOUS
10
7.40607
20
-4.67328
11
7.40733
21
-4.6738
0
LINE
8
BLACK
6
CONTINUOUS
10
7.40733
20
-4.6738
11
7.40785
21
-4.67506
0
LINE
8
BLACK
6
CONTINUOUS
10
7.40785
20
-4.67506
11
7.40733
21
-4.67631
0
LINE
8
BLACK
6
CONTINUOUS
10
7.40733
20
-4.67631
11
7.40607
21
-4.67683
0
LINE
8
BLACK
6
CONTINUOUS
10
7.40607
20
-4.67683
11
7.39258
21
-4.67683
0
LINE
8
BLACK
6
CONTINUOUS
10
7.39258
20
-4.67683
11
7.39132
21
-4.67631
0
LINE
8
BLACK
6
CONTINUOUS
10
7.3837
20
-4.65018
11
7.38422
21
-4.65143
0
LINE
8
BLACK
6
CONTINUOUS
10
7.38422
20
-4.65143
11
7.38422
21
-4.66831
0
LINE
8
BLACK
6
CONTINUOUS
10
7.38422
20
-4.66831
11
7.38411
21
-4.66858
0
LINE
8
BLACK
6
CONTINUOUS
10
7.38411
20
-4.66858
11
7.38413
21
-4.66887
0
LINE
8
BLACK
6
CONTINUOUS
10
7.38413
20
-4.66887
11
7.38301
21
-4.67224
0
LINE
8
BLACK
6
CONTINUOUS
10
7.38301
20
-4.67224
11
7.38274
21
-4.67255
0
LINE
8
BLACK
6
CONTINUOUS
10
7.38274
20
-4.67255
11
7.38258
21
-4.67293
0
LINE
8
BLACK
6
CONTINUOUS
10
7.38258
20
-4.67293
11
7.38033
21
-4.67518
0
LINE
8
BLACK
6
CONTINUOUS
10
7.38033
20
-4.67518
11
7.37995
21
-4.67534
0
LINE
8
BLACK
6
CONTINUOUS
10
7.37995
20
-4.67534
11
7.37964
21
-4.67561
0
LINE
8
BLACK
6
CONTINUOUS
10
7.37964
20
-4.67561
11
7.37626
21
-4.67674
0
LINE
8
BLACK
6
CONTINUOUS
10
7.37626
20
-4.67674
11
7.37597
21
-4.67672
0
LINE
8
BLACK
6
CONTINUOUS
10
7.37597
20
-4.67672
11
7.3757
21
-4.67683
0
LINE
8
BLACK
6
CONTINUOUS
10
7.3757
20
-4.67683
11
7.37345
21
-4.67683
0
LINE
8
BLACK
6
CONTINUOUS
10
7.37345
20
-4.67683
11
7.3722
21
-4.67631
0
LINE
8
BLACK
6
CONTINUOUS
10
7.3722
20
-4.67631
11
7.37168
21
-4.67506
0
LINE
8
BLACK
6
CONTINUOUS
10
7.37168
20
-4.67506
11
7.3722
21
-4.6738
0
LINE
8
BLACK
6
CONTINUOUS
10
7.3722
20
-4.6738
11
7.37345
21
-4.67328
0
LINE
8
BLACK
6
CONTINUOUS
10
7.37345
20
-4.67328
11
7.37542
21
-4.67328
0
LINE
8
BLACK
6
CONTINUOUS
10
7.37542
20
-4.67328
11
7.37812
21
-4.67238
0
LINE
8
BLACK
6
CONTINUOUS
10
7.37812
20
-4.67238
11
7.37978
21
-4.67072
0
LINE
8
BLACK
6
CONTINUOUS
10
7.37978
20
-4.67072
11
7.38068
21
-4.66802
0
LINE
8
BLACK
6
CONTINUOUS
10
7.38068
20
-4.66802
11
7.38068
21
-4.65143
0
LINE
8
BLACK
6
CONTINUOUS
10
7.38068
20
-4.65143
11
7.3812
21
-4.65018
0
LINE
8
BLACK
6
CONTINUOUS
10
7.3812
20
-4.65018
11
7.38245
21
-4.64966
0
LINE
8
BLACK
6
CONTINUOUS
10
7.38245
20
-4.64966
11
7.3837
21
-4.65018
0
LINE
8
BLACK
6
CONTINUOUS
10
7.42915
20
-4.6499
11
7.42974
21
-4.6501
0
LINE
8
BLACK
6
CONTINUOUS
10
7.42974
20
-4.6501
11
7.42977
21
-4.65016
0
LINE
8
BLACK
6
CONTINUOUS
10
7.42977
20
-4.65016
11
7.42982
21
-4.65018
0
LINE
8
BLACK
6
CONTINUOUS
10
7.42982
20
-4.65018
11
7.43006
21
-4.65076
0
LINE
8
BLACK
6
CONTINUOUS
10
7.43006
20
-4.65076
11
7.43034
21
-4.65132
0
LINE
8
BLACK
6
CONTINUOUS
10
7.43034
20
-4.65132
11
7.43032
21
-4.65138
0
LINE
8
BLACK
6
CONTINUOUS
10
7.43032
20
-4.65138
11
7.43034
21
-4.65143
0
LINE
8
BLACK
6
CONTINUOUS
10
7.43034
20
-4.65143
11
7.4301
21
-4.65201
0
LINE
8
BLACK
6
CONTINUOUS
10
7.4301
20
-4.65201
11
7.4299
21
-4.6526
0
LINE
8
BLACK
6
CONTINUOUS
10
7.4299
20
-4.6526
11
7.42446
21
-4.65882
0
LINE
8
BLACK
6
CONTINUOUS
10
7.42446
20
-4.65882
11
7.42486
21
-4.65885
0
LINE
8
BLACK
6
CONTINUOUS
10
7.42486
20
-4.65885
11
7.42711
21
-4.65997
0
LINE
8
BLACK
6
CONTINUOUS
10
7.42711
20
-4.65997
11
7.42731
21
-4.66019
0
LINE
8
BLACK
6
CONTINUOUS
10
7.42731
20
-4.66019
11
7.42757
21
-4.66031
0
LINE
8
BLACK
6
CONTINUOUS
10
7.42757
20
-4.66031
11
7.4287
21
-4.66143
0
LINE
8
BLACK
6
CONTINUOUS
10
7.4287
20
-4.66143
11
7.42881
21
-4.6617
0
LINE
8
BLACK
6
CONTINUOUS
10
7.42881
20
-4.6617
11
7.42903
21
-4.66189
0
LINE
8
BLACK
6
CONTINUOUS
10
7.42903
20
-4.66189
11
7.43016
21
-4.66414
0
LINE
8
BLACK
6
CONTINUOUS
10
7.43016
20
-4.66414
11
7.43019
21
-4.66455
0
LINE
8
BLACK
6
CONTINUOUS
10
7.43019
20
-4.66455
11
7.43034
21
-4.66493
0
LINE
8
BLACK
6
CONTINUOUS
10
7.43034
20
-4.66493
11
7.43034
21
-4.67056
0
LINE
8
BLACK
6
CONTINUOUS
10
7.43034
20
-4.67056
11
7.43019
21
-4.67094
0
LINE
8
BLACK
6
CONTINUOUS
10
7.43019
20
-4.67094
11
7.43016
21
-4.67135
0
LINE
8
BLACK
6
CONTINUOUS
10
7.43016
20
-4.67135
11
7.42903
21
-4.6736
0
LINE
8
BLACK
6
CONTINUOUS
10
7.42903
20
-4.6736
11
7.42881
21
-4.67379
0
LINE
8
BLACK
6
CONTINUOUS
10
7.42881
20
-4.67379
11
7.4287
21
-4.67406
0
LINE
8
BLACK
6
CONTINUOUS
10
7.4287
20
-4.67406
11
7.42757
21
-4.67518
0
LINE
8
BLACK
6
CONTINUOUS
10
7.42757
20
-4.67518
11
7.42731
21
-4.6753
0
LINE
8
BLACK
6
CONTINUOUS
10
7.42731
20
-4.6753
11
7.42711
21
-4.67552
0
LINE
8
BLACK
6
CONTINUOUS
10
7.42711
20
-4.67552
11
7.42486
21
-4.67664
0
LINE
8
BLACK
6
CONTINUOUS
10
7.42486
20
-4.67664
11
7.42445
21
-4.67667
0
LINE
8
BLACK
6
CONTINUOUS
10
7.42445
20
-4.67667
11
7.42407
21
-4.67683
0
LINE
8
BLACK
6
CONTINUOUS
10
7.42407
20
-4.67683
11
7.41732
21
-4.67683
0
LINE
8
BLACK
6
CONTINUOUS
10
7.41732
20
-4.67683
11
7.41694
21
-4.67667
0
LINE
8
BLACK
6
CONTINUOUS
10
7.41694
20
-4.67667
11
7.41653
21
-4.67664
0
LINE
8
BLACK
6
CONTINUOUS
10
7.41653
20
-4.67664
11
7.41428
21
-4.67552
0
LINE
8
BLACK
6
CONTINUOUS
10
7.41428
20
-4.67552
11
7.41409
21
-4.6753
0
LINE
8
BLACK
6
CONTINUOUS
10
7.41409
20
-4.6753
11
7.41382
21
-4.67518
0
LINE
8
BLACK
6
CONTINUOUS
10
7.41382
20
-4.67518
11
7.4127
21
-4.67406
0
LINE
8
BLACK
6
CONTINUOUS
10
7.4127
20
-4.67406
11
7.41218
21
-4.67281
0
LINE
8
BLACK
6
CONTINUOUS
10
7.41218
20
-4.67281
11
7.4127
21
-4.67155
0
LINE
8
BLACK
6
CONTINUOUS
10
7.4127
20
-4.67155
11
7.41395
21
-4.67103
0
LINE
8
BLACK
6
CONTINUOUS
10
7.41395
20
-4.67103
11
7.4152
21
-4.67155
0
LINE
8
BLACK
6
CONTINUOUS
10
7.4152
20
-4.67155
11
7.41612
21
-4.67248
0
LINE
8
BLACK
6
CONTINUOUS
10
7.41612
20
-4.67248
11
7.41774
21
-4.67328
0
LINE
8
BLACK
6
CONTINUOUS
10
7.41774
20
-4.67328
11
7.42365
21
-4.67328
0
LINE
8
BLACK
6
CONTINUOUS
10
7.42365
20
-4.67328
11
7.42527
21
-4.67248
0
LINE
8
BLACK
6
CONTINUOUS
10
7.42527
20
-4.67248
11
7.42599
21
-4.67176
0
LINE
8
BLACK
6
CONTINUOUS
10
7.42599
20
-4.67176
11
7.4268
21
-4.67014
0
LINE
8
BLACK
6
CONTINUOUS
10
7.4268
20
-4.67014
11
7.4268
21
-4.66535
0
LINE
8
BLACK
6
CONTINUOUS
10
7.4268
20
-4.66535
11
7.42599
21
-4.66373
0
LINE
8
BLACK
6
CONTINUOUS
10
7.42599
20
-4.66373
11
7.42527
21
-4.66301
0
LINE
8
BLACK
6
CONTINUOUS
10
7.42527
20
-4.66301
11
7.42365
21
-4.6622
0
LINE
8
BLACK
6
CONTINUOUS
10
7.42365
20
-4.6622
11
7.4207
21
-4.6622
0
LINE
8
BLACK
6
CONTINUOUS
10
7.4207
20
-4.6622
11
7.42012
21
-4.66197
0
LINE
8
BLACK
6
CONTINUOUS
10
7.42012
20
-4.66197
11
7.41953
21
-4.66177
0
LINE
8
BLACK
6
CONTINUOUS
10
7.41953
20
-4.66177
11
7.4195
21
-4.66171
0
LINE
8
BLACK
6
CONTINUOUS
10
7.4195
20
-4.66171
11
7.41944
21
-4.66169
0
LINE
8
BLACK
6
CONTINUOUS
10
7.41944
20
-4.66169
11
7.41921
21
-4.66111
0
LINE
8
BLACK
6
CONTINUOUS
10
7.41921
20
-4.66111
11
7.41893
21
-4.66055
0
LINE
8
BLACK
6
CONTINUOUS
10
7.41893
20
-4.66055
11
7.41895
21
-4.66049
0
LINE
8
BLACK
6
CONTINUOUS
10
7.41895
20
-4.66049
11
7.41893
21
-4.66043
0
LINE
8
BLACK
6
CONTINUOUS
10
7.41893
20
-4.66043
11
7.41916
21
-4.65986
0
LINE
8
BLACK
6
CONTINUOUS
10
7.41916
20
-4.65986
11
7.41936
21
-4.65927
0
LINE
8
BLACK
6
CONTINUOUS
10
7.41936
20
-4.65927
11
7.42467
21
-4.65321
0
LINE
8
BLACK
6
CONTINUOUS
10
7.42467
20
-4.65321
11
7.41395
21
-4.65321
0
LINE
8
BLACK
6
CONTINUOUS
10
7.41395
20
-4.65321
11
7.4127
21
-4.65269
0
LINE
8
BLACK
6
CONTINUOUS
10
7.4127
20
-4.65269
11
7.41218
21
-4.65143
0
LINE
8
BLACK
6
CONTINUOUS
10
7.41218
20
-4.65143
11
7.4127
21
-4.65018
0
LINE
8
BLACK
6
CONTINUOUS
10
7.4127
20
-4.65018
11
7.41395
21
-4.64966
0
LINE
8
BLACK
6
CONTINUOUS
10
7.41395
20
-4.64966
11
7.42857
21
-4.64966
0
LINE
8
BLACK
6
CONTINUOUS
10
7.42857
20
-4.64966
11
7.42915
21
-4.6499
0
LINE
8
BLACK
6
CONTINUOUS
10
7.29202
20
-4.67185
11
7.29229
21
-4.67183
0
LINE
8
BLACK
6
CONTINUOUS
10
7.29229
20
-4.67183
11
7.29292
21
-4.67227
0
LINE
8
BLACK
6
CONTINUOUS
10
7.29292
20
-4.67227
11
7.29361
21
-4.67259
0
LINE
8
BLACK
6
CONTINUOUS
10
7.29361
20
-4.67259
11
7.29549
21
-4.67447
0
LINE
8
BLACK
6
CONTINUOUS
10
7.29549
20
-4.67447
11
7.29571
21
-4.67479
0
LINE
8
BLACK
6
CONTINUOUS
10
7.29571
20
-4.67479
11
7.29582
21
-4.67486
0
LINE
8
BLACK
6
CONTINUOUS
10
7.29582
20
-4.67486
11
7.29585
21
-4.67499
0
LINE
8
BLACK
6
CONTINUOUS
10
7.29585
20
-4.67499
11
7.29586
21
-4.675
0
LINE
8
BLACK
6
CONTINUOUS
10
7.29586
20
-4.675
11
7.29596
21
-4.67508
0
LINE
8
BLACK
6
CONTINUOUS
10
7.29596
20
-4.67508
11
7.29597
21
-4.67516
0
LINE
8
BLACK
6
CONTINUOUS
10
7.29597
20
-4.67516
11
7.29608
21
-4.67531
0
LINE
8
BLACK
6
CONTINUOUS
10
7.29608
20
-4.67531
11
7.29614
21
-4.67607
0
LINE
8
BLACK
6
CONTINUOUS
10
7.29614
20
-4.67607
11
7.29634
21
-4.67681
0
LINE
8
BLACK
6
CONTINUOUS
10
7.29634
20
-4.67681
11
7.29629
21
-4.67694
0
LINE
8
BLACK
6
CONTINUOUS
10
7.29629
20
-4.67694
11
7.29631
21
-4.67707
0
LINE
8
BLACK
6
CONTINUOUS
10
7.29631
20
-4.67707
11
7.29624
21
-4.67719
0
LINE
8
BLACK
6
CONTINUOUS
10
7.29624
20
-4.67719
11
7.29625
21
-4.67732
0
LINE
8
BLACK
6
CONTINUOUS
10
7.29625
20
-4.67732
11
7.29581
21
-4.67795
0
LINE
8
BLACK
6
CONTINUOUS
10
7.29581
20
-4.67795
11
7.29549
21
-4.67864
0
LINE
8
BLACK
6
CONTINUOUS
10
7.29549
20
-4.67864
11
7.29361
21
-4.68052
0
LINE
8
BLACK
6
CONTINUOUS
10
7.29361
20
-4.68052
11
7.29329
21
-4.68074
0
LINE
8
BLACK
6
CONTINUOUS
10
7.29329
20
-4.68074
11
7.29322
21
-4.68085
0
LINE
8
BLACK
6
CONTINUOUS
10
7.29322
20
-4.68085
11
7.29309
21
-4.68088
0
LINE
8
BLACK
6
CONTINUOUS
10
7.29309
20
-4.68088
11
7.29277
21
-4.68111
0
LINE
8
BLACK
6
CONTINUOUS
10
7.29277
20
-4.68111
11
7.29201
21
-4.68117
0
LINE
8
BLACK
6
CONTINUOUS
10
7.29201
20
-4.68117
11
7.29127
21
-4.68137
0
LINE
8
BLACK
6
CONTINUOUS
10
7.29127
20
-4.68137
11
7.29103
21
-4.68126
0
LINE
8
BLACK
6
CONTINUOUS
10
7.29103
20
-4.68126
11
7.29076
21
-4.68128
0
LINE
8
BLACK
6
CONTINUOUS
10
7.29076
20
-4.68128
11
7.29013
21
-4.68084
0
LINE
8
BLACK
6
CONTINUOUS
10
7.29013
20
-4.68084
11
7.28944
21
-4.68052
0
LINE
8
BLACK
6
CONTINUOUS
10
7.28944
20
-4.68052
11
7.28756
21
-4.67864
0
LINE
8
BLACK
6
CONTINUOUS
10
7.28756
20
-4.67864
11
7.28734
21
-4.67832
0
LINE
8
BLACK
6
CONTINUOUS
10
7.28734
20
-4.67832
11
7.28723
21
-4.67825
0
LINE
8
BLACK
6
CONTINUOUS
10
7.28723
20
-4.67825
11
7.2872
21
-4.67812
0
LINE
8
BLACK
6
CONTINUOUS
10
7.2872
20
-4.67812
11
7.28719
21
-4.67812
0
LINE
8
BLACK
6
CONTINUOUS
10
7.28719
20
-4.67812
11
7.28709
21
-4.67803
0
LINE
8
BLACK
6
CONTINUOUS
10
7.28709
20
-4.67803
11
7.28708
21
-4.67795
0
LINE
8
BLACK
6
CONTINUOUS
10
7.28708
20
-4.67795
11
7.28698
21
-4.6778
0
LINE
8
BLACK
6
CONTINUOUS
10
7.28698
20
-4.6778
11
7.28691
21
-4.67704
0
LINE
8
BLACK
6
CONTINUOUS
10
7.28691
20
-4.67704
11
7.28671
21
-4.6763
0
LINE
8
BLACK
6
CONTINUOUS
10
7.28671
20
-4.6763
11
7.28677
21
-4.67618
0
LINE
8
BLACK
6
CONTINUOUS
10
7.28677
20
-4.67618
11
7.28674
21
-4.67604
0
LINE
8
BLACK
6
CONTINUOUS
10
7.28674
20
-4.67604
11
7.28681
21
-4.67593
0
LINE
8
BLACK
6
CONTINUOUS
10
7.28681
20
-4.67593
11
7.2868
21
-4.67579
0
LINE
8
BLACK
6
CONTINUOUS
10
7.2868
20
-4.67579
11
7.28724
21
-4.67516
0
LINE
8
BLACK
6
CONTINUOUS
10
7.28724
20
-4.67516
11
7.28756
21
-4.67447
0
LINE
8
BLACK
6
CONTINUOUS
10
7.28756
20
-4.67447
11
7.28944
21
-4.67259
0
LINE
8
BLACK
6
CONTINUOUS
10
7.28944
20
-4.67259
11
7.28976
21
-4.67237
0
LINE
8
BLACK
6
CONTINUOUS
10
7.28976
20
-4.67237
11
7.28983
21
-4.67226
0
LINE
8
BLACK
6
CONTINUOUS
10
7.28983
20
-4.67226
11
7.28996
21
-4.67223
0
LINE
8
BLACK
6
CONTINUOUS
10
7.28996
20
-4.67223
11
7.29028
21
-4.67201
0
LINE
8
BLACK
6
CONTINUOUS
10
7.29028
20
-4.67201
11
7.29104
21
-4.67194
0
LINE
8
BLACK
6
CONTINUOUS
10
7.29104
20
-4.67194
11
7.29178
21
-4.67174
0
LINE
8
BLACK
6
CONTINUOUS
10
7.29178
20
-4.67174
11
7.29202
21
-4.67185
0
LINE
8
BLACK
6
CONTINUOUS
10
7.25629
20
-4.63716
11
7.25698
21
-4.63906
0
LINE
8
BLACK
6
CONTINUOUS
10
7.25698
20
-4.63906
11
7.25698
21
-4.65486
0
LINE
8
BLACK
6
CONTINUOUS
10
7.25698
20
-4.65486
11
7.26983
21
-4.65486
0
LINE
8
BLACK
6
CONTINUOUS
10
7.26983
20
-4.65486
11
7.26983
21
-4.64469
0
LINE
8
BLACK
6
CONTINUOUS
10
7.26983
20
-4.64469
11
7.27
21
-4.64368
0
LINE
8
BLACK
6
CONTINUOUS
10
7.27
20
-4.64368
11
7.2713
21
-4.64213
0
LINE
8
BLACK
6
CONTINUOUS
10
7.2713
20
-4.64213
11
7.27329
21
-4.64178
0
LINE
8
BLACK
6
CONTINUOUS
10
7.27329
20
-4.64178
11
7.27504
21
-4.64279
0
LINE
8
BLACK
6
CONTINUOUS
10
7.27504
20
-4.64279
11
7.27573
21
-4.64469
0
LINE
8
BLACK
6
CONTINUOUS
10
7.27573
20
-4.64469
11
7.27573
21
-4.65486
0
LINE
8
BLACK
6
CONTINUOUS
10
7.27573
20
-4.65486
11
7.2934
21
-4.65486
0
LINE
8
BLACK
6
CONTINUOUS
10
7.2934
20
-4.65486
11
7.29441
21
-4.65503
0
LINE
8
BLACK
6
CONTINUOUS
10
7.29441
20
-4.65503
11
7.29596
21
-4.65633
0
LINE
8
BLACK
6
CONTINUOUS
10
7.29596
20
-4.65633
11
7.29631
21
-4.65832
0
LINE
8
BLACK
6
CONTINUOUS
10
7.29631
20
-4.65832
11
7.2953
21
-4.66007
0
LINE
8
BLACK
6
CONTINUOUS
10
7.2953
20
-4.66007
11
7.2934
21
-4.66076
0
LINE
8
BLACK
6
CONTINUOUS
10
7.2934
20
-4.66076
11
7.25403
21
-4.66076
0
LINE
8
BLACK
6
CONTINUOUS
10
7.25403
20
-4.66076
11
7.25365
21
-4.66069
0
LINE
8
BLACK
6
CONTINUOUS
10
7.25365
20
-4.66069
11
7.25352
21
-4.66072
0
LINE
8
BLACK
6
CONTINUOUS
10
7.25352
20
-4.66072
11
7.2534
21
-4.66065
0
LINE
8
BLACK
6
CONTINUOUS
10
7.2534
20
-4.66065
11
7.25302
21
-4.66058
0
LINE
8
BLACK
6
CONTINUOUS
10
7.25302
20
-4.66058
11
7.25243
21
-4.66009
0
LINE
8
BLACK
6
CONTINUOUS
10
7.25243
20
-4.66009
11
7.25177
21
-4.65971
0
LINE
8
BLACK
6
CONTINUOUS
10
7.25177
20
-4.65971
11
7.25168
21
-4.65946
0
LINE
8
BLACK
6
CONTINUOUS
10
7.25168
20
-4.65946
11
7.25147
21
-4.65928
0
LINE
8
BLACK
6
CONTINUOUS
10
7.25147
20
-4.65928
11
7.25134
21
-4.65853
0
LINE
8
BLACK
6
CONTINUOUS
10
7.25134
20
-4.65853
11
7.25108
21
-4.65781
0
LINE
8
BLACK
6
CONTINUOUS
10
7.25108
20
-4.65781
11
7.25108
21
-4.63906
0
LINE
8
BLACK
6
CONTINUOUS
10
7.25108
20
-4.63906
11
7.25126
21
-4.63805
0
LINE
8
BLACK
6
CONTINUOUS
10
7.25126
20
-4.63805
11
7.25255
21
-4.6365
0
LINE
8
BLACK
6
CONTINUOUS
10
7.25255
20
-4.6365
11
7.25454
21
-4.63615
0
LINE
8
BLACK
6
CONTINUOUS
10
7.25454
20
-4.63615
11
7.25629
21
-4.63716
0
LINE
8
BLACK
6
CONTINUOUS
10
7.29566
20
-4.60342
11
7.29635
21
-4.60531
0
LINE
8
BLACK
6
CONTINUOUS
10
7.29635
20
-4.60531
11
7.29635
21
-4.62406
0
LINE
8
BLACK
6
CONTINUOUS
10
7.29635
20
-4.62406
11
7.29629
21
-4.62445
0
LINE
8
BLACK
6
CONTINUOUS
10
7.29629
20
-4.62445
11
7.29631
21
-4.62458
0
LINE
8
BLACK
6
CONTINUOUS
10
7.29631
20
-4.62458
11
7.29624
21
-4.62469
0
LINE
8
BLACK
6
CONTINUOUS
10
7.29624
20
-4.62469
11
7.29618
21
-4.62507
0
LINE
8
BLACK
6
CONTINUOUS
10
7.29618
20
-4.62507
11
7.29568
21
-4.62566
0
LINE
8
BLACK
6
CONTINUOUS
10
7.29568
20
-4.62566
11
7.2953
21
-4.62632
0
LINE
8
BLACK
6
CONTINUOUS
10
7.2953
20
-4.62632
11
7.29505
21
-4.62642
0
LINE
8
BLACK
6
CONTINUOUS
10
7.29505
20
-4.62642
11
7.29488
21
-4.62662
0
LINE
8
BLACK
6
CONTINUOUS
10
7.29488
20
-4.62662
11
7.29412
21
-4.62675
0
LINE
8
BLACK
6
CONTINUOUS
10
7.29412
20
-4.62675
11
7.2934
21
-4.62702
0
LINE
8
BLACK
6
CONTINUOUS
10
7.2934
20
-4.62702
11
7.25403
21
-4.62702
0
LINE
8
BLACK
6
CONTINUOUS
10
7.25403
20
-4.62702
11
7.25302
21
-4.62684
0
LINE
8
BLACK
6
CONTINUOUS
10
7.25302
20
-4.62684
11
7.25147
21
-4.62554
0
LINE
8
BLACK
6
CONTINUOUS
10
7.25147
20
-4.62554
11
7.25112
21
-4.62355
0
LINE
8
BLACK
6
CONTINUOUS
10
7.25112
20
-4.62355
11
7.25213
21
-4.6218
0
LINE
8
BLACK
6
CONTINUOUS
10
7.25213
20
-4.6218
11
7.25403
21
-4.62111
0
LINE
8
BLACK
6
CONTINUOUS
10
7.25403
20
-4.62111
11
7.29045
21
-4.62111
0
LINE
8
BLACK
6
CONTINUOUS
10
7.29045
20
-4.62111
11
7.29045
21
-4.60531
0
LINE
8
BLACK
6
CONTINUOUS
10
7.29045
20
-4.60531
11
7.29063
21
-4.60431
0
LINE
8
BLACK
6
CONTINUOUS
10
7.29063
20
-4.60431
11
7.29192
21
-4.60276
0
LINE
8
BLACK
6
CONTINUOUS
10
7.29192
20
-4.60276
11
7.29391
21
-4.60241
0
LINE
8
BLACK
6
CONTINUOUS
10
7.29391
20
-4.60241
11
7.29566
21
-4.60342
0
LINE
8
BLACK
6
CONTINUOUS
10
7.53582
20
-4.24121
11
7.53595
21
-4.24119
0
LINE
8
BLACK
6
CONTINUOUS
10
7.53595
20
-4.24119
11
7.53606
21
-4.24125
0
LINE
8
BLACK
6
CONTINUOUS
10
7.53606
20
-4.24125
11
7.53644
21
-4.24132
0
LINE
8
BLACK
6
CONTINUOUS
10
7.53644
20
-4.24132
11
7.53703
21
-4.24181
0
LINE
8
BLACK
6
CONTINUOUS
10
7.53703
20
-4.24181
11
7.5377
21
-4.2422
0
LINE
8
BLACK
6
CONTINUOUS
10
7.5377
20
-4.2422
11
7.53779
21
-4.24245
0
LINE
8
BLACK
6
CONTINUOUS
10
7.53779
20
-4.24245
11
7.53799
21
-4.24262
0
LINE
8
BLACK
6
CONTINUOUS
10
7.53799
20
-4.24262
11
7.53812
21
-4.24337
0
LINE
8
BLACK
6
CONTINUOUS
10
7.53812
20
-4.24337
11
7.53839
21
-4.24409
0
LINE
8
BLACK
6
CONTINUOUS
10
7.53839
20
-4.24409
11
7.53839
21
-4.51969
0
LINE
8
BLACK
6
CONTINUOUS
10
7.53839
20
-4.51969
11
7.53832
21
-4.52007
0
LINE
8
BLACK
6
CONTINUOUS
10
7.53832
20
-4.52007
11
7.53834
21
-4.5202
0
LINE
8
BLACK
6
CONTINUOUS
10
7.53834
20
-4.5202
11
7.53828
21
-4.52031
0
LINE
8
BLACK
6
CONTINUOUS
10
7.53828
20
-4.52031
11
7.53821
21
-4.52069
0
LINE
8
BLACK
6
CONTINUOUS
10
7.53821
20
-4.52069
11
7.53771
21
-4.52128
0
LINE
8
BLACK
6
CONTINUOUS
10
7.53771
20
-4.52128
11
7.53733
21
-4.52195
0
LINE
8
BLACK
6
CONTINUOUS
10
7.53733
20
-4.52195
11
7.53708
21
-4.52204
0
LINE
8
BLACK
6
CONTINUOUS
10
7.53708
20
-4.52204
11
7.53691
21
-4.52224
0
LINE
8
BLACK
6
CONTINUOUS
10
7.53691
20
-4.52224
11
7.53615
21
-4.52238
0
LINE
8
BLACK
6
CONTINUOUS
10
7.53615
20
-4.52238
11
7.53543
21
-4.52264
0
LINE
8
BLACK
6
CONTINUOUS
10
7.53543
20
-4.52264
11
7.25984
21
-4.52264
0
LINE
8
BLACK
6
CONTINUOUS
10
7.25984
20
-4.52264
11
7.25946
21
-4.52257
0
LINE
8
BLACK
6
CONTINUOUS
10
7.25946
20
-4.52257
11
7.25933
21
-4.52259
0
LINE
8
BLACK
6
CONTINUOUS
10
7.25933
20
-4.52259
11
7.25922
21
-4.52253
0
LINE
8
BLACK
6
CONTINUOUS
10
7.25922
20
-4.52253
11
7.25883
21
-4.52246
0
LINE
8
BLACK
6
CONTINUOUS
10
7.25883
20
-4.52246
11
7.25824
21
-4.52197
0
LINE
8
BLACK
6
CONTINUOUS
10
7.25824
20
-4.52197
11
7.25758
21
-4.52158
0
LINE
8
BLACK
6
CONTINUOUS
10
7.25758
20
-4.52158
11
7.25749
21
-4.52133
0
LINE
8
BLACK
6
CONTINUOUS
10
7.25749
20
-4.52133
11
7.25729
21
-4.52116
0
LINE
8
BLACK
6
CONTINUOUS
10
7.25729
20
-4.52116
11
7.25715
21
-4.52041
0
LINE
8
BLACK
6
CONTINUOUS
10
7.25715
20
-4.52041
11
7.25689
21
-4.51969
0
LINE
8
BLACK
6
CONTINUOUS
10
7.25689
20
-4.51969
11
7.25689
21
-4.24409
0
LINE
8
BLACK
6
CONTINUOUS
10
7.25689
20
-4.24409
11
7.25696
21
-4.24371
0
LINE
8
BLACK
6
CONTINUOUS
10
7.25696
20
-4.24371
11
7.25693
21
-4.24358
0
LINE
8
BLACK
6
CONTINUOUS
10
7.25693
20
-4.24358
11
7.257
21
-4.24347
0
LINE
8
BLACK
6
CONTINUOUS
10
7.257
20
-4.24347
11
7.25707
21
-4.24308
0
LINE
8
BLACK
6
CONTINUOUS
10
7.25707
20
-4.24308
11
7.25756
21
-4.2425
0
LINE
8
BLACK
6
CONTINUOUS
10
7.25756
20
-4.2425
11
7.25794
21
-4.24183
0
LINE
8
BLACK
6
CONTINUOUS
10
7.25794
20
-4.24183
11
7.25819
21
-4.24174
0
LINE
8
BLACK
6
CONTINUOUS
10
7.25819
20
-4.24174
11
7.25837
21
-4.24154
0
LINE
8
BLACK
6
CONTINUOUS
10
7.25837
20
-4.24154
11
7.25912
21
-4.2414
0
LINE
8
BLACK
6
CONTINUOUS
10
7.25912
20
-4.2414
11
7.25984
21
-4.24114
0
LINE
8
BLACK
6
CONTINUOUS
10
7.25984
20
-4.24114
11
7.53543
21
-4.24114
0
LINE
8
BLACK
6
CONTINUOUS
10
7.53543
20
-4.24114
11
7.53582
21
-4.24121
0
LINE
8
BLACK
6
CONTINUOUS
10
7.2628
20
-4.24705
11
7.2628
21
-4.51673
0
LINE
8
BLACK
6
CONTINUOUS
10
7.2628
20
-4.51673
11
7.53248
21
-4.51673
0
LINE
8
BLACK
6
CONTINUOUS
10
7.53248
20
-4.51673
11
7.53248
21
-4.24705
0
LINE
8
BLACK
6
CONTINUOUS
10
7.53248
20
-4.24705
11
7.2628
21
-4.24705
0
LINE
8
BLACK
6
CONTINUOUS
10
7.31254
20
-4.35909
11
7.31624
21
-4.34817
0
LINE
8
BLACK
6
CONTINUOUS
10
7.31624
20
-4.34817
11
7.32134
21
-4.33784
0
LINE
8
BLACK
6
CONTINUOUS
10
7.32134
20
-4.33784
11
7.32774
21
-4.32826
0
LINE
8
BLACK
6
CONTINUOUS
10
7.32774
20
-4.32826
11
7.33534
21
-4.31959
0
LINE
8
BLACK
6
CONTINUOUS
10
7.33534
20
-4.31959
11
7.344
21
-4.31199
0
LINE
8
BLACK
6
CONTINUOUS
10
7.344
20
-4.31199
11
7.35359
21
-4.30559
0
LINE
8
BLACK
6
CONTINUOUS
10
7.35359
20
-4.30559
11
7.36392
21
-4.30049
0
LINE
8
BLACK
6
CONTINUOUS
10
7.36392
20
-4.30049
11
7.37484
21
-4.29679
0
LINE
8
BLACK
6
CONTINUOUS
10
7.37484
20
-4.29679
11
7.38614
21
-4.29454
0
LINE
8
BLACK
6
CONTINUOUS
10
7.38614
20
-4.29454
11
7.39764
21
-4.29379
0
LINE
8
BLACK
6
CONTINUOUS
10
7.39764
20
-4.29379
11
7.40914
21
-4.29454
0
LINE
8
BLACK
6
CONTINUOUS
10
7.40914
20
-4.29454
11
7.42044
21
-4.29679
0
LINE
8
BLACK
6
CONTINUOUS
10
7.42044
20
-4.29679
11
7.43135
21
-4.30049
0
LINE
8
BLACK
6
CONTINUOUS
10
7.43135
20
-4.30049
11
7.44169
21
-4.30559
0
LINE
8
BLACK
6
CONTINUOUS
10
7.44169
20
-4.30559
11
7.45127
21
-4.31199
0
LINE
8
BLACK
6
CONTINUOUS
10
7.45127
20
-4.31199
11
7.45994
21
-4.31959
0
LINE
8
BLACK
6
CONTINUOUS
10
7.45994
20
-4.31959
11
7.46753
21
-4.32826
0
LINE
8
BLACK
6
CONTINUOUS
10
7.46753
20
-4.32826
11
7.47394
21
-4.33784
0
LINE
8
BLACK
6
CONTINUOUS
10
7.47394
20
-4.33784
11
7.47903
21
-4.34817
0
LINE
8
BLACK
6
CONTINUOUS
10
7.47903
20
-4.34817
11
7.48274
21
-4.35909
0
LINE
8
BLACK
6
CONTINUOUS
10
7.48274
20
-4.35909
11
7.48499
21
-4.37039
0
LINE
8
BLACK
6
CONTINUOUS
10
7.48499
20
-4.37039
11
7.48574
21
-4.38189
0
LINE
8
BLACK
6
CONTINUOUS
10
7.48574
20
-4.38189
11
7.48499
21
-4.39339
0
LINE
8
BLACK
6
CONTINUOUS
10
7.48499
20
-4.39339
11
7.48274
21
-4.40469
0
LINE
8
BLACK
6
CONTINUOUS
10
7.48274
20
-4.40469
11
7.47903
21
-4.41561
0
LINE
8
BLACK
6
CONTINUOUS
10
7.47903
20
-4.41561
11
7.47394
21
-4.42594
0
LINE
8
BLACK
6
CONTINUOUS
10
7.47394
20
-4.42594
11
7.46753
21
-4.43552
0
LINE
8
BLACK
6
CONTINUOUS
10
7.46753
20
-4.43552
11
7.45994
21
-4.44419
0
LINE
8
BLACK
6
CONTINUOUS
10
7.45994
20
-4.44419
11
7.45127
21
-4.45179
0
LINE
8
BLACK
6
CONTINUOUS
10
7.45127
20
-4.45179
11
7.44169
21
-4.45819
0
LINE
8
BLACK
6
CONTINUOUS
10
7.44169
20
-4.45819
11
7.43135
21
-4.46329
0
LINE
8
BLACK
6
CONTINUOUS
10
7.43135
20
-4.46329
11
7.42044
21
-4.46699
0
LINE
8
BLACK
6
CONTINUOUS
10
7.42044
20
-4.46699
11
7.40914
21
-4.46924
0
LINE
8
BLACK
6
CONTINUOUS
10
7.40914
20
-4.46924
11
7.39764
21
-4.46999
0
LINE
8
BLACK
6
CONTINUOUS
10
7.39764
20
-4.46999
11
7.38614
21
-4.46924
0
LINE
8
BLACK
6
CONTINUOUS
10
7.38614
20
-4.46924
11
7.37484
21
-4.46699
0
LINE
8
BLACK
6
CONTINUOUS
10
7.37484
20
-4.46699
11
7.36392
21
-4.46329
0
LINE
8
BLACK
6
CONTINUOUS
10
7.36392
20
-4.46329
11
7.35359
21
-4.45819
0
LINE
8
BLACK
6
CONTINUOUS
10
7.35359
20
-4.45819
11
7.344
21
-4.45179
0
LINE
8
BLACK
6
CONTINUOUS
10
7.344
20
-4.45179
11
7.33534
21
-4.44419
0
LINE
8
BLACK
6
CONTINUOUS
10
7.33534
20
-4.44419
11
7.32774
21
-4.43552
0
LINE
8
BLACK
6
CONTINUOUS
10
7.32774
20
-4.43552
11
7.32134
21
-4.42594
0
LINE
8
BLACK
6
CONTINUOUS
10
7.32134
20
-4.42594
11
7.31624
21
-4.41561
0
LINE
8
BLACK
6
CONTINUOUS
10
7.31624
20
-4.41561
11
7.31254
21
-4.40469
0
LINE
8
BLACK
6
CONTINUOUS
10
7.31254
20
-4.40469
11
7.31029
21
-4.39339
0
LINE
8
BLACK
6
CONTINUOUS
10
7.31029
20
-4.39339
11
7.30954
21
-4.38189
0
LINE
8
BLACK
6
CONTINUOUS
10
7.30954
20
-4.38189
11
7.30959
21
-4.38103
0
LINE
8
BLACK
6
CONTINUOUS
10
7.30959
20
-4.38103
11
7.31029
21
-4.37039
0
LINE
8
BLACK
6
CONTINUOUS
10
7.31029
20
-4.37039
11
7.31254
21
-4.35909
0
LINE
8
BLACK
6
CONTINUOUS
10
7.31806
20
-4.40321
11
7.32169
21
-4.41382
0
LINE
8
BLACK
6
CONTINUOUS
10
7.32169
20
-4.41382
11
7.32672
21
-4.42383
0
LINE
8
BLACK
6
CONTINUOUS
10
7.32672
20
-4.42383
11
7.33307
21
-4.43307
0
LINE
8
BLACK
6
CONTINUOUS
10
7.33307
20
-4.43307
11
7.34061
21
-4.44135
0
LINE
8
BLACK
6
CONTINUOUS
10
7.34061
20
-4.44135
11
7.34921
21
-4.44854
0
LINE
8
BLACK
6
CONTINUOUS
10
7.34921
20
-4.44854
11
7.3587
21
-4.4545
0
LINE
8
BLACK
6
CONTINUOUS
10
7.3587
20
-4.4545
11
7.36892
21
-4.45911
0
LINE
8
BLACK
6
CONTINUOUS
10
7.36892
20
-4.45911
11
7.37967
21
-4.46229
0
LINE
8
BLACK
6
CONTINUOUS
10
7.37967
20
-4.46229
11
7.39074
21
-4.46399
0
LINE
8
BLACK
6
CONTINUOUS
10
7.39074
20
-4.46399
11
7.40195
21
-4.46417
0
LINE
8
BLACK
6
CONTINUOUS
10
7.40195
20
-4.46417
11
7.41308
21
-4.46282
0
LINE
8
BLACK
6
CONTINUOUS
10
7.41308
20
-4.46282
11
7.42392
21
-4.45998
0
LINE
8
BLACK
6
CONTINUOUS
10
7.42392
20
-4.45998
11
7.43427
21
-4.45569
0
LINE
8
BLACK
6
CONTINUOUS
10
7.43427
20
-4.45569
11
7.44395
21
-4.45003
0
LINE
8
BLACK
6
CONTINUOUS
10
7.44395
20
-4.45003
11
7.45277
21
-4.44312
0
LINE
8
BLACK
6
CONTINUOUS
10
7.45277
20
-4.44312
11
7.46057
21
-4.43507
0
LINE
8
BLACK
6
CONTINUOUS
10
7.46057
20
-4.43507
11
7.4672
21
-4.42604
0
LINE
8
BLACK
6
CONTINUOUS
10
7.4672
20
-4.42604
11
7.47255
21
-4.41619
0
LINE
8
BLACK
6
CONTINUOUS
10
7.47255
20
-4.41619
11
7.47651
21
-4.4057
0
LINE
8
BLACK
6
CONTINUOUS
10
7.47651
20
-4.4057
11
7.47901
21
-4.39478
0
LINE
8
BLACK
6
CONTINUOUS
10
7.47901
20
-4.39478
11
7.48001
21
-4.38362
0
LINE
8
BLACK
6
CONTINUOUS
10
7.48001
20
-4.38362
11
7.48003
21
-4.38189
0
LINE
8
BLACK
6
CONTINUOUS
10
7.48003
20
-4.38189
11
7.47926
21
-4.37071
0
LINE
8
BLACK
6
CONTINUOUS
10
7.47926
20
-4.37071
11
7.47699
21
-4.35973
0
LINE
8
BLACK
6
CONTINUOUS
10
7.47699
20
-4.35973
11
7.47325
21
-4.34917
0
LINE
8
BLACK
6
CONTINUOUS
10
7.47325
20
-4.34917
11
7.46811
21
-4.33921
0
LINE
8
BLACK
6
CONTINUOUS
10
7.46811
20
-4.33921
11
7.46167
21
-4.33004
0
LINE
8
BLACK
6
CONTINUOUS
10
7.46167
20
-4.33004
11
7.45404
21
-4.32183
0
LINE
8
BLACK
6
CONTINUOUS
10
7.45404
20
-4.32183
11
7.44536
21
-4.31473
0
LINE
8
BLACK
6
CONTINUOUS
10
7.44536
20
-4.31473
11
7.43581
21
-4.30888
0
LINE
8
BLACK
6
CONTINUOUS
10
7.43581
20
-4.30888
11
7.42555
21
-4.30437
0
LINE
8
BLACK
6
CONTINUOUS
10
7.42555
20
-4.30437
11
7.41477
21
-4.3013
0
LINE
8
BLACK
6
CONTINUOUS
10
7.41477
20
-4.3013
11
7.40367
21
-4.29972
0
LINE
8
BLACK
6
CONTINUOUS
10
7.40367
20
-4.29972
11
7.39246
21
-4.29966
0
LINE
8
BLACK
6
CONTINUOUS
10
7.39246
20
-4.29966
11
7.38135
21
-4.30113
0
LINE
8
BLACK
6
CONTINUOUS
10
7.38135
20
-4.30113
11
7.37054
21
-4.30408
0
LINE
8
BLACK
6
CONTINUOUS
10
7.37054
20
-4.30408
11
7.36023
21
-4.30848
0
LINE
8
BLACK
6
CONTINUOUS
10
7.36023
20
-4.30848
11
7.35062
21
-4.31424
0
LINE
8
BLACK
6
CONTINUOUS
10
7.35062
20
-4.31424
11
7.34187
21
-4.32124
0
LINE
8
BLACK
6
CONTINUOUS
10
7.34187
20
-4.32124
11
7.33416
21
-4.32937
0
LINE
8
BLACK
6
CONTINUOUS
10
7.33416
20
-4.32937
11
7.32762
21
-4.33847
0
LINE
8
BLACK
6
CONTINUOUS
10
7.32762
20
-4.33847
11
7.32237
21
-4.34838
0
LINE
8
BLACK
6
CONTINUOUS
10
7.32237
20
-4.34838
11
7.31852
21
-4.3589
0
LINE
8
BLACK
6
CONTINUOUS
10
7.31852
20
-4.3589
11
7.31613
21
-4.36985
0
LINE
8
BLACK
6
CONTINUOUS
10
7.31613
20
-4.36985
11
7.31525
21
-4.38103
0
LINE
8
BLACK
6
CONTINUOUS
10
7.31525
20
-4.38103
11
7.3159
21
-4.39222
0
LINE
8
BLACK
6
CONTINUOUS
10
7.3159
20
-4.39222
11
7.31806
21
-4.40321
0
LINE
8
BLACK
6
CONTINUOUS
10
7.35942
20
-4.35261
11
7.36011
21
-4.35451
0
LINE
8
BLACK
6
CONTINUOUS
10
7.36011
20
-4.35451
11
7.36011
21
-4.39022
0
LINE
8
BLACK
6
CONTINUOUS
10
7.36011
20
-4.39022
11
7.35996
21
-4.39109
0
LINE
8
BLACK
6
CONTINUOUS
10
7.35996
20
-4.39109
11
7.35996
21
-4.39116
0
LINE
8
BLACK
6
CONTINUOUS
10
7.35996
20
-4.39116
11
7.35758
21
-4.3983
0
LINE
8
BLACK
6
CONTINUOUS
10
7.35758
20
-4.3983
11
7.35709
21
-4.3992
0
LINE
8
BLACK
6
CONTINUOUS
10
7.35709
20
-4.3992
11
7.35694
21
-4.39929
0
LINE
8
BLACK
6
CONTINUOUS
10
7.35694
20
-4.39929
11
7.35687
21
-4.39945
0
LINE
8
BLACK
6
CONTINUOUS
10
7.35687
20
-4.39945
11
7.35211
21
-4.40422
0
LINE
8
BLACK
6
CONTINUOUS
10
7.35211
20
-4.40422
11
7.35127
21
-4.4048
0
LINE
8
BLACK
6
CONTINUOUS
10
7.35127
20
-4.4048
11
7.35109
21
-4.40482
0
LINE
8
BLACK
6
CONTINUOUS
10
7.35109
20
-4.40482
11
7.35095
21
-4.40493
0
LINE
8
BLACK
6
CONTINUOUS
10
7.35095
20
-4.40493
11
7.34381
21
-4.40731
0
LINE
8
BLACK
6
CONTINUOUS
10
7.34381
20
-4.40731
11
7.34294
21
-4.40744
0
LINE
8
BLACK
6
CONTINUOUS
10
7.34294
20
-4.40744
11
7.34288
21
-4.40746
0
LINE
8
BLACK
6
CONTINUOUS
10
7.34288
20
-4.40746
11
7.33811
21
-4.40746
0
LINE
8
BLACK
6
CONTINUOUS
10
7.33811
20
-4.40746
11
7.3371
21
-4.40728
0
LINE
8
BLACK
6
CONTINUOUS
10
7.3371
20
-4.40728
11
7.33556
21
-4.40599
0
LINE
8
BLACK
6
CONTINUOUS
10
7.33556
20
-4.40599
11
7.33521
21
-4.404
0
LINE
8
BLACK
6
CONTINUOUS
10
7.33521
20
-4.404
11
7.33622
21
-4.40225
0
LINE
8
BLACK
6
CONTINUOUS
10
7.33622
20
-4.40225
11
7.33811
21
-4.40156
0
LINE
8
BLACK
6
CONTINUOUS
10
7.33811
20
-4.40156
11
7.3424
21
-4.40156
0
LINE
8
BLACK
6
CONTINUOUS
10
7.3424
20
-4.40156
11
7.34842
21
-4.39955
0
LINE
8
BLACK
6
CONTINUOUS
10
7.34842
20
-4.39955
11
7.3522
21
-4.39577
0
LINE
8
BLACK
6
CONTINUOUS
10
7.3522
20
-4.39577
11
7.35421
21
-4.38974
0
LINE
8
BLACK
6
CONTINUOUS
10
7.35421
20
-4.38974
11
7.35421
21
-4.35451
0
LINE
8
BLACK
6
CONTINUOUS
10
7.35421
20
-4.35451
11
7.35439
21
-4.3535
0
LINE
8
BLACK
6
CONTINUOUS
10
7.35439
20
-4.3535
11
7.35569
21
-4.35195
0
LINE
8
BLACK
6
CONTINUOUS
10
7.35569
20
-4.35195
11
7.35767
21
-4.3516
0
LINE
8
BLACK
6
CONTINUOUS
10
7.35767
20
-4.3516
11
7.35942
21
-4.35261
0
LINE
8
BLACK
6
CONTINUOUS
10
7.44627
20
-4.35173
11
7.4464
21
-4.35185
0
LINE
8
BLACK
6
CONTINUOUS
10
7.4464
20
-4.35185
11
7.44658
21
-4.35187
0
LINE
8
BLACK
6
CONTINUOUS
10
7.44658
20
-4.35187
11
7.45134
21
-4.35425
0
LINE
8
BLACK
6
CONTINUOUS
10
7.45134
20
-4.35425
11
7.45205
21
-4.35477
0
LINE
8
BLACK
6
CONTINUOUS
10
7.45205
20
-4.35477
11
7.45211
21
-4.3548
0
LINE
8
BLACK
6
CONTINUOUS
10
7.45211
20
-4.3548
11
7.45449
21
-4.35718
0
LINE
8
BLACK
6
CONTINUOUS
10
7.45449
20
-4.35718
11
7.45499
21
-4.35791
0
LINE
8
BLACK
6
CONTINUOUS
10
7.45499
20
-4.35791
11
7.45504
21
-4.35795
0
LINE
8
BLACK
6
CONTINUOUS
10
7.45504
20
-4.35795
11
7.45742
21
-4.36271
0
LINE
8
BLACK
6
CONTINUOUS
10
7.45742
20
-4.36271
11
7.45771
21
-4.36369
0
LINE
8
BLACK
6
CONTINUOUS
10
7.45771
20
-4.36369
11
7.45767
21
-4.36387
0
LINE
8
BLACK
6
CONTINUOUS
10
7.45767
20
-4.36387
11
7.45773
21
-4.36403
0
LINE
8
BLACK
6
CONTINUOUS
10
7.45773
20
-4.36403
11
7.45773
21
-4.36879
0
LINE
8
BLACK
6
CONTINUOUS
10
7.45773
20
-4.36879
11
7.45758
21
-4.36966
0
LINE
8
BLACK
6
CONTINUOUS
10
7.45758
20
-4.36966
11
7.45758
21
-4.36973
0
LINE
8
BLACK
6
CONTINUOUS
10
7.45758
20
-4.36973
11
7.4552
21
-4.37687
0
LINE
8
BLACK
6
CONTINUOUS
10
7.4552
20
-4.37687
11
7.45471
21
-4.37777
0
LINE
8
BLACK
6
CONTINUOUS
10
7.45471
20
-4.37777
11
7.45456
21
-4.37787
0
LINE
8
BLACK
6
CONTINUOUS
10
7.45456
20
-4.37787
11
7.45449
21
-4.37803
0
LINE
8
BLACK
6
CONTINUOUS
10
7.45449
20
-4.37803
11
7.43096
21
-4.40156
0
LINE
8
BLACK
6
CONTINUOUS
10
7.43096
20
-4.40156
11
7.45478
21
-4.40156
0
LINE
8
BLACK
6
CONTINUOUS
10
7.45478
20
-4.40156
11
7.45579
21
-4.40173
0
LINE
8
BLACK
6
CONTINUOUS
10
7.45579
20
-4.40173
11
7.45734
21
-4.40303
0
LINE
8
BLACK
6
CONTINUOUS
10
7.45734
20
-4.40303
11
7.45769
21
-4.40502
0
LINE
8
BLACK
6
CONTINUOUS
10
7.45769
20
-4.40502
11
7.45668
21
-4.40677
0
LINE
8
BLACK
6
CONTINUOUS
10
7.45668
20
-4.40677
11
7.45478
21
-4.40746
0
LINE
8
BLACK
6
CONTINUOUS
10
7.45478
20
-4.40746
11
7.42383
21
-4.40746
0
LINE
8
BLACK
6
CONTINUOUS
10
7.42383
20
-4.40746
11
7.42319
21
-4.40735
0
LINE
8
BLACK
6
CONTINUOUS
10
7.42319
20
-4.40735
11
7.42306
21
-4.40736
0
LINE
8
BLACK
6
CONTINUOUS
10
7.42306
20
-4.40736
11
7.423
21
-4.40732
0
LINE
8
BLACK
6
CONTINUOUS
10
7.423
20
-4.40732
11
7.42282
21
-4.40728
0
LINE
8
BLACK
6
CONTINUOUS
10
7.42282
20
-4.40728
11
7.42214
21
-4.40671
0
LINE
8
BLACK
6
CONTINUOUS
10
7.42214
20
-4.40671
11
7.42141
21
-4.4062
0
LINE
8
BLACK
6
CONTINUOUS
10
7.42141
20
-4.4062
11
7.42137
21
-4.40607
0
LINE
8
BLACK
6
CONTINUOUS
10
7.42137
20
-4.40607
11
7.42127
21
-4.40599
0
LINE
8
BLACK
6
CONTINUOUS
10
7.42127
20
-4.40599
11
7.42112
21
-4.40511
0
LINE
8
BLACK
6
CONTINUOUS
10
7.42112
20
-4.40511
11
7.42089
21
-4.40425
0
LINE
8
BLACK
6
CONTINUOUS
10
7.42089
20
-4.40425
11
7.42094
21
-4.40413
0
LINE
8
BLACK
6
CONTINUOUS
10
7.42094
20
-4.40413
11
7.42092
21
-4.404
0
LINE
8
BLACK
6
CONTINUOUS
10
7.42092
20
-4.404
11
7.42136
21
-4.40323
0
LINE
8
BLACK
6
CONTINUOUS
10
7.42136
20
-4.40323
11
7.42174
21
-4.40242
0
LINE
8
BLACK
6
CONTINUOUS
10
7.42174
20
-4.40242
11
7.44982
21
-4.37434
0
LINE
8
BLACK
6
CONTINUOUS
10
7.44982
20
-4.37434
11
7.45183
21
-4.36832
0
LINE
8
BLACK
6
CONTINUOUS
10
7.45183
20
-4.36832
11
7.45183
21
-4.36473
0
LINE
8
BLACK
6
CONTINUOUS
10
7.45183
20
-4.36473
11
7.44997
21
-4.36102
0
LINE
8
BLACK
6
CONTINUOUS
10
7.44997
20
-4.36102
11
7.44827
21
-4.35932
0
LINE
8
BLACK
6
CONTINUOUS
10
7.44827
20
-4.35932
11
7.44456
21
-4.35746
0
LINE
8
BLACK
6
CONTINUOUS
10
7.44456
20
-4.35746
11
7.43405
21
-4.35746
0
LINE
8
BLACK
6
CONTINUOUS
10
7.43405
20
-4.35746
11
7.43034
21
-4.35932
0
LINE
8
BLACK
6
CONTINUOUS
10
7.43034
20
-4.35932
11
7.4283
21
-4.36136
0
LINE
8
BLACK
6
CONTINUOUS
10
7.4283
20
-4.36136
11
7.42746
21
-4.36195
0
LINE
8
BLACK
6
CONTINUOUS
10
7.42746
20
-4.36195
11
7.42544
21
-4.36212
0
LINE
8
BLACK
6
CONTINUOUS
10
7.42544
20
-4.36212
11
7.42379
21
-4.36096
0
LINE
8
BLACK
6
CONTINUOUS
10
7.42379
20
-4.36096
11
7.42327
21
-4.35901
0
LINE
8
BLACK
6
CONTINUOUS
10
7.42327
20
-4.35901
11
7.42412
21
-4.35718
0
LINE
8
BLACK
6
CONTINUOUS
10
7.42412
20
-4.35718
11
7.4265
21
-4.3548
0
LINE
8
BLACK
6
CONTINUOUS
10
7.4265
20
-4.3548
11
7.42723
21
-4.3543
0
LINE
8
BLACK
6
CONTINUOUS
10
7.42723
20
-4.3543
11
7.42727
21
-4.35425
0
LINE
8
BLACK
6
CONTINUOUS
10
7.42727
20
-4.35425
11
7.43203
21
-4.35187
0
LINE
8
BLACK
6
CONTINUOUS
10
7.43203
20
-4.35187
11
7.43301
21
-4.35158
0
LINE
8
BLACK
6
CONTINUOUS
10
7.43301
20
-4.35158
11
7.43319
21
-4.35162
0
LINE
8
BLACK
6
CONTINUOUS
10
7.43319
20
-4.35162
11
7.43335
21
-4.35156
0
LINE
8
BLACK
6
CONTINUOUS
10
7.43335
20
-4.35156
11
7.44526
21
-4.35156
0
LINE
8
BLACK
6
CONTINUOUS
10
7.44526
20
-4.35156
11
7.44627
21
-4.35173
0
LINE
8
BLACK
6
CONTINUOUS
10
7.39322
20
-4.35163
11
7.39339
21
-4.3516
0
LINE
8
BLACK
6
CONTINUOUS
10
7.39339
20
-4.3516
11
7.39413
21
-4.35203
0
LINE
8
BLACK
6
CONTINUOUS
10
7.39413
20
-4.35203
11
7.39492
21
-4.35237
0
LINE
8
BLACK
6
CONTINUOUS
10
7.39492
20
-4.35237
11
7.39499
21
-4.35253
0
LINE
8
BLACK
6
CONTINUOUS
10
7.39499
20
-4.35253
11
7.39514
21
-4.35261
0
LINE
8
BLACK
6
CONTINUOUS
10
7.39514
20
-4.35261
11
7.39543
21
-4.35342
0
LINE
8
BLACK
6
CONTINUOUS
10
7.39543
20
-4.35342
11
7.39581
21
-4.35418
0
LINE
8
BLACK
6
CONTINUOUS
10
7.39581
20
-4.35418
11
7.39577
21
-4.35435
0
LINE
8
BLACK
6
CONTINUOUS
10
7.39577
20
-4.35435
11
7.39583
21
-4.35451
0
LINE
8
BLACK
6
CONTINUOUS
10
7.39583
20
-4.35451
11
7.39583
21
-4.40156
0
LINE
8
BLACK
6
CONTINUOUS
10
7.39583
20
-4.40156
11
7.40716
21
-4.40156
0
LINE
8
BLACK
6
CONTINUOUS
10
7.40716
20
-4.40156
11
7.40817
21
-4.40173
0
LINE
8
BLACK
6
CONTINUOUS
10
7.40817
20
-4.40173
11
7.40972
21
-4.40303
0
LINE
8
BLACK
6
CONTINUOUS
10
7.40972
20
-4.40303
11
7.41007
21
-4.40502
0
LINE
8
BLACK
6
CONTINUOUS
10
7.41007
20
-4.40502
11
7.40906
21
-4.40677
0
LINE
8
BLACK
6
CONTINUOUS
10
7.40906
20
-4.40677
11
7.40716
21
-4.40746
0
LINE
8
BLACK
6
CONTINUOUS
10
7.40716
20
-4.40746
11
7.37859
21
-4.40746
0
LINE
8
BLACK
6
CONTINUOUS
10
7.37859
20
-4.40746
11
7.37758
21
-4.40728
0
LINE
8
BLACK
6
CONTINUOUS
10
7.37758
20
-4.40728
11
7.37603
21
-4.40599
0
LINE
8
BLACK
6
CONTINUOUS
10
7.37603
20
-4.40599
11
7.37568
21
-4.404
0
LINE
8
BLACK
6
CONTINUOUS
10
7.37568
20
-4.404
11
7.37669
21
-4.40225
0
LINE
8
BLACK
6
CONTINUOUS
10
7.37669
20
-4.40225
11
7.37859
21
-4.40156
0
LINE
8
BLACK
6
CONTINUOUS
10
7.37859
20
-4.40156
11
7.38992
21
-4.40156
0
LINE
8
BLACK
6
CONTINUOUS
10
7.38992
20
-4.40156
11
7.38992
21
-4.36402
0
LINE
8
BLACK
6
CONTINUOUS
10
7.38992
20
-4.36402
11
7.38544
21
-4.3685
0
LINE
8
BLACK
6
CONTINUOUS
10
7.38544
20
-4.3685
11
7.38472
21
-4.36901
0
LINE
8
BLACK
6
CONTINUOUS
10
7.38472
20
-4.36901
11
7.38467
21
-4.36905
0
LINE
8
BLACK
6
CONTINUOUS
10
7.38467
20
-4.36905
11
7.37991
21
-4.37144
0
LINE
8
BLACK
6
CONTINUOUS
10
7.37991
20
-4.37144
11
7.37893
21
-4.37173
0
LINE
8
BLACK
6
CONTINUOUS
10
7.37893
20
-4.37173
11
7.37696
21
-4.37126
0
LINE
8
BLACK
6
CONTINUOUS
10
7.37696
20
-4.37126
11
7.37576
21
-4.36964
0
LINE
8
BLACK
6
CONTINUOUS
10
7.37576
20
-4.36964
11
7.37588
21
-4.36762
0
LINE
8
BLACK
6
CONTINUOUS
10
7.37588
20
-4.36762
11
7.37727
21
-4.36615
0
LINE
8
BLACK
6
CONTINUOUS
10
7.37727
20
-4.36615
11
7.3816
21
-4.36399
0
LINE
8
BLACK
6
CONTINUOUS
10
7.3816
20
-4.36399
11
7.38582
21
-4.35977
0
LINE
8
BLACK
6
CONTINUOUS
10
7.38582
20
-4.35977
11
7.39042
21
-4.35287
0
LINE
8
BLACK
6
CONTINUOUS
10
7.39042
20
-4.35287
11
7.39113
21
-4.35213
0
LINE
8
BLACK
6
CONTINUOUS
10
7.39113
20
-4.35213
11
7.39129
21
-4.35208
0
LINE
8
BLACK
6
CONTINUOUS
10
7.39129
20
-4.35208
11
7.3914
21
-4.35195
0
LINE
8
BLACK
6
CONTINUOUS
10
7.3914
20
-4.35195
11
7.39224
21
-4.3518
0
LINE
8
BLACK
6
CONTINUOUS
10
7.39224
20
-4.3518
11
7.39307
21
-4.35156
0
LINE
8
BLACK
6
CONTINUOUS
10
7.39307
20
-4.35156
11
7.39322
21
-4.35163
0
LINE
8
BLACK
6
CONTINUOUS
10
7.53582
20
-3.7294
11
7.53595
21
-3.72938
0
LINE
8
BLACK
6
CONTINUOUS
10
7.53595
20
-3.72938
11
7.53606
21
-3.72944
0
LINE
8
BLACK
6
CONTINUOUS
10
7.53606
20
-3.72944
11
7.53644
21
-3.72951
0
LINE
8
BLACK
6
CONTINUOUS
10
7.53644
20
-3.72951
11
7.53703
21
-3.73
0
LINE
8
BLACK
6
CONTINUOUS
10
7.53703
20
-3.73
11
7.5377
21
-3.73039
0
LINE
8
BLACK
6
CONTINUOUS
10
7.5377
20
-3.73039
11
7.53779
21
-3.73064
0
LINE
8
BLACK
6
CONTINUOUS
10
7.53779
20
-3.73064
11
7.53799
21
-3.73081
0
LINE
8
BLACK
6
CONTINUOUS
10
7.53799
20
-3.73081
11
7.53812
21
-3.73156
0
LINE
8
BLACK
6
CONTINUOUS
10
7.53812
20
-3.73156
11
7.53839
21
-3.73228
0
LINE
8
BLACK
6
CONTINUOUS
10
7.53839
20
-3.73228
11
7.53839
21
-4.00787
0
LINE
8
BLACK
6
CONTINUOUS
10
7.53839
20
-4.00787
11
7.53832
21
-4.00826
0
LINE
8
BLACK
6
CONTINUOUS
10
7.53832
20
-4.00826
11
7.53834
21
-4.00839
0
LINE
8
BLACK
6
CONTINUOUS
10
7.53834
20
-4.00839
11
7.53828
21
-4.0085
0
LINE
8
BLACK
6
CONTINUOUS
10
7.53828
20
-4.0085
11
7.53821
21
-4.00888
0
LINE
8
BLACK
6
CONTINUOUS
10
7.53821
20
-4.00888
11
7.53771
21
-4.00947
0
LINE
8
BLACK
6
CONTINUOUS
10
7.53771
20
-4.00947
11
7.53733
21
-4.01014
0
LINE
8
BLACK
6
CONTINUOUS
10
7.53733
20
-4.01014
11
7.53708
21
-4.01023
0
LINE
8
BLACK
6
CONTINUOUS
10
7.53708
20
-4.01023
11
7.53691
21
-4.01043
0
LINE
8
BLACK
6
CONTINUOUS
10
7.53691
20
-4.01043
11
7.53615
21
-4.01056
0
LINE
8
BLACK
6
CONTINUOUS
10
7.53615
20
-4.01056
11
7.53543
21
-4.01083
0
LINE
8
BLACK
6
CONTINUOUS
10
7.53543
20
-4.01083
11
7.25984
21
-4.01083
0
LINE
8
BLACK
6
CONTINUOUS
10
7.25984
20
-4.01083
11
7.25946
21
-4.01076
0
LINE
8
BLACK
6
CONTINUOUS
10
7.25946
20
-4.01076
11
7.25933
21
-4.01078
0
LINE
8
BLACK
6
CONTINUOUS
10
7.25933
20
-4.01078
11
7.25922
21
-4.01072
0
LINE
8
BLACK
6
CONTINUOUS
10
7.25922
20
-4.01072
11
7.25883
21
-4.01065
0
LINE
8
BLACK
6
CONTINUOUS
10
7.25883
20
-4.01065
11
7.25824
21
-4.01016
0
LINE
8
BLACK
6
CONTINUOUS
10
7.25824
20
-4.01016
11
7.25758
21
-4.00977
0
LINE
8
BLACK
6
CONTINUOUS
10
7.25758
20
-4.00977
11
7.25749
21
-4.00952
0
LINE
8
BLACK
6
CONTINUOUS
10
7.25749
20
-4.00952
11
7.25729
21
-4.00935
0
LINE
8
BLACK
6
CONTINUOUS
10
7.25729
20
-4.00935
11
7.25715
21
-4.00859
0
LINE
8
BLACK
6
CONTINUOUS
10
7.25715
20
-4.00859
11
7.25689
21
-4.00787
0
LINE
8
BLACK
6
CONTINUOUS
10
7.25689
20
-4.00787
11
7.25689
21
-3.73228
0
LINE
8
BLACK
6
CONTINUOUS
10
7.25689
20
-3.73228
11
7.25696
21
-3.7319
0
LINE
8
BLACK
6
CONTINUOUS
10
7.25696
20
-3.7319
11
7.25693
21
-3.73177
0
LINE
8
BLACK
6
CONTINUOUS
10
7.25693
20
-3.73177
11
7.257
21
-3.73166
0
LINE
8
BLACK
6
CONTINUOUS
10
7.257
20
-3.73166
11
7.25707
21
-3.73127
0
LINE
8
BLACK
6
CONTINUOUS
10
7.25707
20
-3.73127
11
7.25756
21
-3.73069
0
LINE
8
BLACK
6
CONTINUOUS
10
7.25756
20
-3.73069
11
7.25794
21
-3.73002
0
LINE
8
BLACK
6
CONTINUOUS
10
7.25794
20
-3.73002
11
7.25819
21
-3.72993
0
LINE
8
BLACK
6
CONTINUOUS
10
7.25819
20
-3.72993
11
7.25837
21
-3.72973
0
LINE
8
BLACK
6
CONTINUOUS
10
7.25837
20
-3.72973
11
7.25912
21
-3.72959
0
LINE
8
BLACK
6
CONTINUOUS
10
7.25912
20
-3.72959
11
7.25984
21
-3.72933
0
LINE
8
BLACK
6
CONTINUOUS
10
7.25984
20
-3.72933
11
7.53543
21
-3.72933
0
LINE
8
BLACK
6
CONTINUOUS
10
7.53543
20
-3.72933
11
7.53582
21
-3.7294
0
LINE
8
BLACK
6
CONTINUOUS
10
7.2628
20
-3.73524
11
7.2628
21
-4.00492
0
LINE
8
BLACK
6
CONTINUOUS
10
7.2628
20
-4.00492
11
7.53248
21
-4.00492
0
LINE
8
BLACK
6
CONTINUOUS
10
7.53248
20
-4.00492
11
7.53248
21
-3.73524
0
LINE
8
BLACK
6
CONTINUOUS
10
7.53248
20
-3.73524
11
7.2628
21
-3.73524
0
LINE
8
BLACK
6
CONTINUOUS
10
7.31254
20
-3.84728
11
7.31624
21
-3.83636
0
LINE
8
BLACK
6
CONTINUOUS
10
7.31624
20
-3.83636
11
7.32134
21
-3.82603
0
LINE
8
BLACK
6
CONTINUOUS
10
7.32134
20
-3.82603
11
7.32774
21
-3.81645
0
LINE
8
BLACK
6
CONTINUOUS
10
7.32774
20
-3.81645
11
7.33534
21
-3.80778
0
LINE
8
BLACK
6
CONTINUOUS
10
7.33534
20
-3.80778
11
7.344
21
-3.80018
0
LINE
8
BLACK
6
CONTINUOUS
10
7.344
20
-3.80018
11
7.35359
21
-3.79378
0
LINE
8
BLACK
6
CONTINUOUS
10
7.35359
20
-3.79378
11
7.36392
21
-3.78868
0
LINE
8
BLACK
6
CONTINUOUS
10
7.36392
20
-3.78868
11
7.37484
21
-3.78498
0
LINE
8
BLACK
6
CONTINUOUS
10
7.37484
20
-3.78498
11
7.38614
21
-3.78273
0
LINE
8
BLACK
6
CONTINUOUS
10
7.38614
20
-3.78273
11
7.39764
21
-3.78198
0
LINE
8
BLACK
6
CONTINUOUS
10
7.39764
20
-3.78198
11
7.40914
21
-3.78273
0
LINE
8
BLACK
6
CONTINUOUS
10
7.40914
20
-3.78273
11
7.42044
21
-3.78498
0
LINE
8
BLACK
6
CONTINUOUS
10
7.42044
20
-3.78498
11
7.43135
21
-3.78868
0
LINE
8
BLACK
6
CONTINUOUS
10
7.43135
20
-3.78868
11
7.44169
21
-3.79378
0
LINE
8
BLACK
6
CONTINUOUS
10
7.44169
20
-3.79378
11
7.45127
21
-3.80018
0
LINE
8
BLACK
6
CONTINUOUS
10
7.45127
20
-3.80018
11
7.45994
21
-3.80778
0
LINE
8
BLACK
6
CONTINUOUS
10
7.45994
20
-3.80778
11
7.46753
21
-3.81645
0
LINE
8
BLACK
6
CONTINUOUS
10
7.46753
20
-3.81645
11
7.47394
21
-3.82603
0
LINE
8
BLACK
6
CONTINUOUS
10
7.47394
20
-3.82603
11
7.47903
21
-3.83636
0
LINE
8
BLACK
6
CONTINUOUS
10
7.47903
20
-3.83636
11
7.48274
21
-3.84728
0
LINE
8
BLACK
6
CONTINUOUS
10
7.48274
20
-3.84728
11
7.48499
21
-3.85858
0
LINE
8
BLACK
6
CONTINUOUS
10
7.48499
20
-3.85858
11
7.48574
21
-3.87008
0
LINE
8
BLACK
6
CONTINUOUS
10
7.48574
20
-3.87008
11
7.48499
21
-3.88158
0
LINE
8
BLACK
6
CONTINUOUS
10
7.48499
20
-3.88158
11
7.48274
21
-3.89288
0
LINE
8
BLACK
6
CONTINUOUS
10
7.48274
20
-3.89288
11
7.47903
21
-3.90379
0
LINE
8
BLACK
6
CONTINUOUS
10
7.47903
20
-3.90379
11
7.47394
21
-3.91413
0
LINE
8
BLACK
6
CONTINUOUS
10
7.47394
20
-3.91413
11
7.46753
21
-3.92371
0
LINE
8
BLACK
6
CONTINUOUS
10
7.46753
20
-3.92371
11
7.45994
21
-3.93238
0
LINE
8
BLACK
6
CONTINUOUS
10
7.45994
20
-3.93238
11
7.45127
21
-3.93998
0
LINE
8
BLACK
6
CONTINUOUS
10
7.45127
20
-3.93998
11
7.44169
21
-3.94638
0
LINE
8
BLACK
6
CONTINUOUS
10
7.44169
20
-3.94638
11
7.43135
21
-3.95147
0
LINE
8
BLACK
6
CONTINUOUS
10
7.43135
20
-3.95147
11
7.42044
21
-3.95518
0
LINE
8
BLACK
6
CONTINUOUS
10
7.42044
20
-3.95518
11
7.40914
21
-3.95743
0
LINE
8
BLACK
6
CONTINUOUS
10
7.40914
20
-3.95743
11
7.39764
21
-3.95818
0
LINE
8
BLACK
6
CONTINUOUS
10
7.39764
20
-3.95818
11
7.38614
21
-3.95743
0
LINE
8
BLACK
6
CONTINUOUS
10
7.38614
20
-3.95743
11
7.37484
21
-3.95518
0
LINE
8
BLACK
6
CONTINUOUS
10
7.37484
20
-3.95518
11
7.36392
21
-3.95147
0
LINE
8
BLACK
6
CONTINUOUS
10
7.36392
20
-3.95147
11
7.35359
21
-3.94638
0
LINE
8
BLACK
6
CONTINUOUS
10
7.35359
20
-3.94638
11
7.344
21
-3.93998
0
LINE
8
BLACK
6
CONTINUOUS
10
7.344
20
-3.93998
11
7.33534
21
-3.93238
0
LINE
8
BLACK
6
CONTINUOUS
10
7.33534
20
-3.93238
11
7.32774
21
-3.92371
0
LINE
8
BLACK
6
CONTINUOUS
10
7.32774
20
-3.92371
11
7.32134
21
-3.91413
0
LINE
8
BLACK
6
CONTINUOUS
10
7.32134
20
-3.91413
11
7.31624
21
-3.90379
0
LINE
8
BLACK
6
CONTINUOUS
10
7.31624
20
-3.90379
11
7.31254
21
-3.89288
0
LINE
8
BLACK
6
CONTINUOUS
10
7.31254
20
-3.89288
11
7.31029
21
-3.88158
0
LINE
8
BLACK
6
CONTINUOUS
10
7.31029
20
-3.88158
11
7.30954
21
-3.87008
0
LINE
8
BLACK
6
CONTINUOUS
10
7.30954
20
-3.87008
11
7.30959
21
-3.86922
0
LINE
8
BLACK
6
CONTINUOUS
10
7.30959
20
-3.86922
11
7.31029
21
-3.85858
0
LINE
8
BLACK
6
CONTINUOUS
10
7.31029
20
-3.85858
11
7.31254
21
-3.84728
0
LINE
8
BLACK
6
CONTINUOUS
10
7.31806
20
-3.8914
11
7.32169
21
-3.90201
0
LINE
8
BLACK
6
CONTINUOUS
10
7.32169
20
-3.90201
11
7.32672
21
-3.91202
0
LINE
8
BLACK
6
CONTINUOUS
10
7.32672
20
-3.91202
11
7.33307
21
-3.92125
0
LINE
8
BLACK
6
CONTINUOUS
10
7.33307
20
-3.92125
11
7.34061
21
-3.92954
0
LINE
8
BLACK
6
CONTINUOUS
10
7.34061
20
-3.92954
11
7.34921
21
-3.93673
0
LINE
8
BLACK
6
CONTINUOUS
10
7.34921
20
-3.93673
11
7.3587
21
-3.94269
0
LINE
8
BLACK
6
CONTINUOUS
10
7.3587
20
-3.94269
11
7.36892
21
-3.9473
0
LINE
8
BLACK
6
CONTINUOUS
10
7.36892
20
-3.9473
11
7.37967
21
-3.95048
0
LINE
8
BLACK
6
CONTINUOUS
10
7.37967
20
-3.95048
11
7.39074
21
-3.95218
0
LINE
8
BLACK
6
CONTINUOUS
10
7.39074
20
-3.95218
11
7.40195
21
-3.95235
0
LINE
8
BLACK
6
CONTINUOUS
10
7.40195
20
-3.95235
11
7.41308
21
-3.95101
0
LINE
8
BLACK
6
CONTINUOUS
10
7.41308
20
-3.95101
11
7.42392
21
-3.94816
0
LINE
8
BLACK
6
CONTINUOUS
10
7.42392
20
-3.94816
11
7.43427
21
-3.94388
0
LINE
8
BLACK
6
CONTINUOUS
10
7.43427
20
-3.94388
11
7.44395
21
-3.93822
0
LINE
8
BLACK
6
CONTINUOUS
10
7.44395
20
-3.93822
11
7.45277
21
-3.93131
0
LINE
8
BLACK
6
CONTINUOUS
10
7.45277
20
-3.93131
11
7.46057
21
-3.92326
0
LINE
8
BLACK
6
CONTINUOUS
10
7.46057
20
-3.92326
11
7.4672
21
-3.91422
0
LINE
8
BLACK
6
CONTINUOUS
10
7.4672
20
-3.91422
11
7.47255
21
-3.90438
0
LINE
8
BLACK
6
CONTINUOUS
10
7.47255
20
-3.90438
11
7.47651
21
-3.89389
0
LINE
8
BLACK
6
CONTINUOUS
10
7.47651
20
-3.89389
11
7.47901
21
-3.88297
0
LINE
8
BLACK
6
CONTINUOUS
10
7.47901
20
-3.88297
11
7.48001
21
-3.8718
0
LINE
8
BLACK
6
CONTINUOUS
10
7.48001
20
-3.8718
11
7.48003
21
-3.87008
0
LINE
8
BLACK
6
CONTINUOUS
10
7.48003
20
-3.87008
11
7.47926
21
-3.8589
0
LINE
8
BLACK
6
CONTINUOUS
10
7.47926
20
-3.8589
11
7.47699
21
-3.84792
0
LINE
8
BLACK
6
CONTINUOUS
10
7.47699
20
-3.84792
11
7.47325
21
-3.83736
0
LINE
8
BLACK
6
CONTINUOUS
10
7.47325
20
-3.83736
11
7.46811
21
-3.8274
0
LINE
8
BLACK
6
CONTINUOUS
10
7.46811
20
-3.8274
11
7.46167
21
-3.81823
0
LINE
8
BLACK
6
CONTINUOUS
10
7.46167
20
-3.81823
11
7.45404
21
-3.81002
0
LINE
8
BLACK
6
CONTINUOUS
10
7.45404
20
-3.81002
11
7.44536
21
-3.80292
0
LINE
8
BLACK
6
CONTINUOUS
10
7.44536
20
-3.80292
11
7.43581
21
-3.79707
0
LINE
8
BLACK
6
CONTINUOUS
10
7.43581
20
-3.79707
11
7.42555
21
-3.79256
0
LINE
8
BLACK
6
CONTINUOUS
10
7.42555
20
-3.79256
11
7.41477
21
-3.78949
0
LINE
8
BLACK
6
CONTINUOUS
10
7.41477
20
-3.78949
11
7.40367
21
-3.78791
0
LINE
8
BLACK
6
CONTINUOUS
10
7.40367
20
-3.78791
11
7.39246
21
-3.78785
0
LINE
8
BLACK
6
CONTINUOUS
10
7.39246
20
-3.78785
11
7.38135
21
-3.78932
0
LINE
8
BLACK
6
CONTINUOUS
10
7.38135
20
-3.78932
11
7.37054
21
-3.79227
0
LINE
8
BLACK
6
CONTINUOUS
10
7.37054
20
-3.79227
11
7.36023
21
-3.79667
0
LINE
8
BLACK
6
CONTINUOUS
10
7.36023
20
-3.79667
11
7.35062
21
-3.80243
0
LINE
8
BLACK
6
CONTINUOUS
10
7.35062
20
-3.80243
11
7.34187
21
-3.80943
0
LINE
8
BLACK
6
CONTINUOUS
10
7.34187
20
-3.80943
11
7.33416
21
-3.81756
0
LINE
8
BLACK
6
CONTINUOUS
10
7.33416
20
-3.81756
11
7.32762
21
-3.82666
0
LINE
8
BLACK
6
CONTINUOUS
10
7.32762
20
-3.82666
11
7.32237
21
-3.83657
0
LINE
8
BLACK
6
CONTINUOUS
10
7.32237
20
-3.83657
11
7.31852
21
-3.84709
0
LINE
8
BLACK
6
CONTINUOUS
10
7.31852
20
-3.84709
11
7.31613
21
-3.85804
0
LINE
8
BLACK
6
CONTINUOUS
10
7.31613
20
-3.85804
11
7.31525
21
-3.86922
0
LINE
8
BLACK
6
CONTINUOUS
10
7.31525
20
-3.86922
11
7.3159
21
-3.8804
0
LINE
8
BLACK
6
CONTINUOUS
10
7.3159
20
-3.8804
11
7.31806
21
-3.8914
0
LINE
8
BLACK
6
CONTINUOUS
10
7.39322
20
-3.83982
11
7.39339
21
-3.83979
0
LINE
8
BLACK
6
CONTINUOUS
10
7.39339
20
-3.83979
11
7.39413
21
-3.84022
0
LINE
8
BLACK
6
CONTINUOUS
10
7.39413
20
-3.84022
11
7.39492
21
-3.84056
0
LINE
8
BLACK
6
CONTINUOUS
10
7.39492
20
-3.84056
11
7.39499
21
-3.84071
0
LINE
8
BLACK
6
CONTINUOUS
10
7.39499
20
-3.84071
11
7.39514
21
-3.8408
0
LINE
8
BLACK
6
CONTINUOUS
10
7.39514
20
-3.8408
11
7.39543
21
-3.84161
0
LINE
8
BLACK
6
CONTINUOUS
10
7.39543
20
-3.84161
11
7.39581
21
-3.84237
0
LINE
8
BLACK
6
CONTINUOUS
10
7.39581
20
-3.84237
11
7.39577
21
-3.84254
0
LINE
8
BLACK
6
CONTINUOUS
10
7.39577
20
-3.84254
11
7.39583
21
-3.8427
0
LINE
8
BLACK
6
CONTINUOUS
10
7.39583
20
-3.8427
11
7.39583
21
-3.88975
0
LINE
8
BLACK
6
CONTINUOUS
10
7.39583
20
-3.88975
11
7.40716
21
-3.88975
0
LINE
8
BLACK
6
CONTINUOUS
10
7.40716
20
-3.88975
11
7.40817
21
-3.88992
0
LINE
8
BLACK
6
CONTINUOUS
10
7.40817
20
-3.88992
11
7.40972
21
-3.89122
0
LINE
8
BLACK
6
CONTINUOUS
10
7.40972
20
-3.89122
11
7.41007
21
-3.89321
0
LINE
8
BLACK
6
CONTINUOUS
10
7.41007
20
-3.89321
11
7.40906
21
-3.89496
0
LINE
8
BLACK
6
CONTINUOUS
10
7.40906
20
-3.89496
11
7.40716
21
-3.89565
0
LINE
8
BLACK
6
CONTINUOUS
10
7.40716
20
-3.89565
11
7.37859
21
-3.89565
0
LINE
8
BLACK
6
CONTINUOUS
10
7.37859
20
-3.89565
11
7.37758
21
-3.89547
0
LINE
8
BLACK
6
CONTINUOUS
10
7.37758
20
-3.89547
11
7.37603
21
-3.89417
0
LINE
8
BLACK
6
CONTINUOUS
10
7.37603
20
-3.89417
11
7.37568
21
-3.89219
0
LINE
8
BLACK
6
CONTINUOUS
10
7.37568
20
-3.89219
11
7.37669
21
-3.89044
0
LINE
8
BLACK
6
CONTINUOUS
10
7.37669
20
-3.89044
11
7.37859
21
-3.88975
0
LINE
8
BLACK
6
CONTINUOUS
10
7.37859
20
-3.88975
11
7.38992
21
-3.88975
0
LINE
8
BLACK
6
CONTINUOUS
10
7.38992
20
-3.88975
11
7.38992
21
-3.85221
0
LINE
8
BLACK
6
CONTINUOUS
10
7.38992
20
-3.85221
11
7.38544
21
-3.85669
0
LINE
8
BLACK
6
CONTINUOUS
10
7.38544
20
-3.85669
11
7.38472
21
-3.8572
0
LINE
8
BLACK
6
CONTINUOUS
10
7.38472
20
-3.8572
11
7.38467
21
-3.85724
0
LINE
8
BLACK
6
CONTINUOUS
10
7.38467
20
-3.85724
11
7.37991
21
-3.85962
0
LINE
8
BLACK
6
CONTINUOUS
10
7.37991
20
-3.85962
11
7.37893
21
-3.85992
0
LINE
8
BLACK
6
CONTINUOUS
10
7.37893
20
-3.85992
11
7.37696
21
-3.85945
0
LINE
8
BLACK
6
CONTINUOUS
10
7.37696
20
-3.85945
11
7.37576
21
-3.85783
0
LINE
8
BLACK
6
CONTINUOUS
10
7.37576
20
-3.85783
11
7.37588
21
-3.85581
0
LINE
8
BLACK
6
CONTINUOUS
10
7.37588
20
-3.85581
11
7.37727
21
-3.85434
0
LINE
8
BLACK
6
CONTINUOUS
10
7.37727
20
-3.85434
11
7.3816
21
-3.85218
0
LINE
8
BLACK
6
CONTINUOUS
10
7.3816
20
-3.85218
11
7.38582
21
-3.84796
0
LINE
8
BLACK
6
CONTINUOUS
10
7.38582
20
-3.84796
11
7.39042
21
-3.84106
0
LINE
8
BLACK
6
CONTINUOUS
10
7.39042
20
-3.84106
11
7.39113
21
-3.84032
0
LINE
8
BLACK
6
CONTINUOUS
10
7.39113
20
-3.84032
11
7.39129
21
-3.84027
0
LINE
8
BLACK
6
CONTINUOUS
10
7.39129
20
-3.84027
11
7.3914
21
-3.84014
0
LINE
8
BLACK
6
CONTINUOUS
10
7.3914
20
-3.84014
11
7.39224
21
-3.83999
0
LINE
8
BLACK
6
CONTINUOUS
10
7.39224
20
-3.83999
11
7.39307
21
-3.83975
0
LINE
8
BLACK
6
CONTINUOUS
10
7.39307
20
-3.83975
11
7.39322
21
-3.83982
0
LINE
8
BLACK
6
CONTINUOUS
10
7.35942
20
-3.8408
11
7.36011
21
-3.8427
0
LINE
8
BLACK
6
CONTINUOUS
10
7.36011
20
-3.8427
11
7.36011
21
-3.87841
0
LINE
8
BLACK
6
CONTINUOUS
10
7.36011
20
-3.87841
11
7.35996
21
-3.87928
0
LINE
8
BLACK
6
CONTINUOUS
10
7.35996
20
-3.87928
11
7.35996
21
-3.87935
0
LINE
8
BLACK
6
CONTINUOUS
10
7.35996
20
-3.87935
11
7.35758
21
-3.88649
0
LINE
8
BLACK
6
CONTINUOUS
10
7.35758
20
-3.88649
11
7.35709
21
-3.88739
0
LINE
8
BLACK
6
CONTINUOUS
10
7.35709
20
-3.88739
11
7.35694
21
-3.88748
0
LINE
8
BLACK
6
CONTINUOUS
10
7.35694
20
-3.88748
11
7.35687
21
-3.88764
0
LINE
8
BLACK
6
CONTINUOUS
10
7.35687
20
-3.88764
11
7.35211
21
-3.8924
0
LINE
8
BLACK
6
CONTINUOUS
10
7.35211
20
-3.8924
11
7.35127
21
-3.89299
0
LINE
8
BLACK
6
CONTINUOUS
10
7.35127
20
-3.89299
11
7.35109
21
-3.89301
0
LINE
8
BLACK
6
CONTINUOUS
10
7.35109
20
-3.89301
11
7.35095
21
-3.89312
0
LINE
8
BLACK
6
CONTINUOUS
10
7.35095
20
-3.89312
11
7.34381
21
-3.8955
0
LINE
8
BLACK
6
CONTINUOUS
10
7.34381
20
-3.8955
11
7.34294
21
-3.89563
0
LINE
8
BLACK
6
CONTINUOUS
10
7.34294
20
-3.89563
11
7.34288
21
-3.89565
0
LINE
8
BLACK
6
CONTINUOUS
10
7.34288
20
-3.89565
11
7.33811
21
-3.89565
0
LINE
8
BLACK
6
CONTINUOUS
10
7.33811
20
-3.89565
11
7.3371
21
-3.89547
0
LINE
8
BLACK
6
CONTINUOUS
10
7.3371
20
-3.89547
11
7.33556
21
-3.89417
0
LINE
8
BLACK
6
CONTINUOUS
10
7.33556
20
-3.89417
11
7.33521
21
-3.89219
0
LINE
8
BLACK
6
CONTINUOUS
10
7.33521
20
-3.89219
11
7.33622
21
-3.89044
0
LINE
8
BLACK
6
CONTINUOUS
10
7.33622
20
-3.89044
11
7.33811
21
-3.88975
0
LINE
8
BLACK
6
CONTINUOUS
10
7.33811
20
-3.88975
11
7.3424
21
-3.88975
0
LINE
8
BLACK
6
CONTINUOUS
10
7.3424
20
-3.88975
11
7.34842
21
-3.88774
0
LINE
8
BLACK
6
CONTINUOUS
10
7.34842
20
-3.88774
11
7.3522
21
-3.88396
0
LINE
8
BLACK
6
CONTINUOUS
10
7.3522
20
-3.88396
11
7.35421
21
-3.87793
0
LINE
8
BLACK
6
CONTINUOUS
10
7.35421
20
-3.87793
11
7.35421
21
-3.8427
0
LINE
8
BLACK
6
CONTINUOUS
10
7.35421
20
-3.8427
11
7.35439
21
-3.84169
0
LINE
8
BLACK
6
CONTINUOUS
10
7.35439
20
-3.84169
11
7.35569
21
-3.84014
0
LINE
8
BLACK
6
CONTINUOUS
10
7.35569
20
-3.84014
11
7.35767
21
-3.83979
0
LINE
8
BLACK
6
CONTINUOUS
10
7.35767
20
-3.83979
11
7.35942
21
-3.8408
0
LINE
8
BLACK
6
CONTINUOUS
10
7.43952
20
-3.83772
11
7.44086
21
-3.83923
0
LINE
8
BLACK
6
CONTINUOUS
10
7.44086
20
-3.83923
11
7.44092
21
-3.84125
0
LINE
8
BLACK
6
CONTINUOUS
10
7.44092
20
-3.84125
11
7.43031
21
-3.87308
0
LINE
8
BLACK
6
CONTINUOUS
10
7.43031
20
-3.87308
11
7.44707
21
-3.87308
0
LINE
8
BLACK
6
CONTINUOUS
10
7.44707
20
-3.87308
11
7.44707
21
-3.85936
0
LINE
8
BLACK
6
CONTINUOUS
10
7.44707
20
-3.85936
11
7.44724
21
-3.85835
0
LINE
8
BLACK
6
CONTINUOUS
10
7.44724
20
-3.85835
11
7.44854
21
-3.85681
0
LINE
8
BLACK
6
CONTINUOUS
10
7.44854
20
-3.85681
11
7.45053
21
-3.85646
0
LINE
8
BLACK
6
CONTINUOUS
10
7.45053
20
-3.85646
11
7.45228
21
-3.85747
0
LINE
8
BLACK
6
CONTINUOUS
10
7.45228
20
-3.85747
11
7.45297
21
-3.85936
0
LINE
8
BLACK
6
CONTINUOUS
10
7.45297
20
-3.85936
11
7.45297
21
-3.87308
0
LINE
8
BLACK
6
CONTINUOUS
10
7.45297
20
-3.87308
11
7.45716
21
-3.87308
0
LINE
8
BLACK
6
CONTINUOUS
10
7.45716
20
-3.87308
11
7.45817
21
-3.87326
0
LINE
8
BLACK
6
CONTINUOUS
10
7.45817
20
-3.87326
11
7.45972
21
-3.87455
0
LINE
8
BLACK
6
CONTINUOUS
10
7.45972
20
-3.87455
11
7.46007
21
-3.87654
0
LINE
8
BLACK
6
CONTINUOUS
10
7.46007
20
-3.87654
11
7.45906
21
-3.87829
0
LINE
8
BLACK
6
CONTINUOUS
10
7.45906
20
-3.87829
11
7.45716
21
-3.87898
0
LINE
8
BLACK
6
CONTINUOUS
10
7.45716
20
-3.87898
11
7.45297
21
-3.87898
0
LINE
8
BLACK
6
CONTINUOUS
10
7.45297
20
-3.87898
11
7.45297
21
-3.8927
0
LINE
8
BLACK
6
CONTINUOUS
10
7.45297
20
-3.8927
11
7.45279
21
-3.89371
0
LINE
8
BLACK
6
CONTINUOUS
10
7.45279
20
-3.89371
11
7.4515
21
-3.89525
0
LINE
8
BLACK
6
CONTINUOUS
10
7.4515
20
-3.89525
11
7.44951
21
-3.89561
0
LINE
8
BLACK
6
CONTINUOUS
10
7.44951
20
-3.89561
11
7.44776
21
-3.8946
0
LINE
8
BLACK
6
CONTINUOUS
10
7.44776
20
-3.8946
11
7.44707
21
-3.8927
0
LINE
8
BLACK
6
CONTINUOUS
10
7.44707
20
-3.8927
11
7.44707
21
-3.87898
0
LINE
8
BLACK
6
CONTINUOUS
10
7.44707
20
-3.87898
11
7.42621
21
-3.87898
0
LINE
8
BLACK
6
CONTINUOUS
10
7.42621
20
-3.87898
11
7.4252
21
-3.87881
0
LINE
8
BLACK
6
CONTINUOUS
10
7.4252
20
-3.87881
11
7.42503
21
-3.87866
0
LINE
8
BLACK
6
CONTINUOUS
10
7.42503
20
-3.87866
11
7.4248
21
-3.87863
0
LINE
8
BLACK
6
CONTINUOUS
10
7.4248
20
-3.87863
11
7.42427
21
-3.87803
0
LINE
8
BLACK
6
CONTINUOUS
10
7.42427
20
-3.87803
11
7.42365
21
-3.87751
0
LINE
8
BLACK
6
CONTINUOUS
10
7.42365
20
-3.87751
11
7.42361
21
-3.87729
0
LINE
8
BLACK
6
CONTINUOUS
10
7.42361
20
-3.87729
11
7.42346
21
-3.87712
0
LINE
8
BLACK
6
CONTINUOUS
10
7.42346
20
-3.87712
11
7.42344
21
-3.87631
0
LINE
8
BLACK
6
CONTINUOUS
10
7.42344
20
-3.87631
11
7.4233
21
-3.87552
0
LINE
8
BLACK
6
CONTINUOUS
10
7.4233
20
-3.87552
11
7.42341
21
-3.87532
0
LINE
8
BLACK
6
CONTINUOUS
10
7.42341
20
-3.87532
11
7.42341
21
-3.8751
0
LINE
8
BLACK
6
CONTINUOUS
10
7.42341
20
-3.8751
11
7.43531
21
-3.83938
0
LINE
8
BLACK
6
CONTINUOUS
10
7.43531
20
-3.83938
11
7.4358
21
-3.83848
0
LINE
8
BLACK
6
CONTINUOUS
10
7.4358
20
-3.83848
11
7.43752
21
-3.83742
0
LINE
8
BLACK
6
CONTINUOUS
10
7.43752
20
-3.83742
11
7.43952
21
-3.83772
0
LINE
8
BLACK
6
CONTINUOUS
10
7.4626
20
-3.56791
11
7.4626
21
-3.63878
0
LINE
8
BLACK
6
CONTINUOUS
10
7.4626
20
-3.63878
11
7.46202
21
-3.64017
0
LINE
8
BLACK
6
CONTINUOUS
10
7.46202
20
-3.64017
11
7.46063
21
-3.64075
0
LINE
8
BLACK
6
CONTINUOUS
10
7.46063
20
-3.64075
11
7.45472
21
-3.64075
0
LINE
8
BLACK
6
CONTINUOUS
10
7.45472
20
-3.64075
11
7.45472
21
-3.65453
0
LINE
8
BLACK
6
CONTINUOUS
10
7.45472
20
-3.65453
11
7.45415
21
-3.65592
0
LINE
8
BLACK
6
CONTINUOUS
10
7.45415
20
-3.65592
11
7.45276
21
-3.6565
0
LINE
8
BLACK
6
CONTINUOUS
10
7.45276
20
-3.6565
11
7.41535
21
-3.6565
0
LINE
8
BLACK
6
CONTINUOUS
10
7.41535
20
-3.6565
11
7.41535
21
-3.66437
0
LINE
8
BLACK
6
CONTINUOUS
10
7.41535
20
-3.66437
11
7.41478
21
-3.66576
0
LINE
8
BLACK
6
CONTINUOUS
10
7.41478
20
-3.66576
11
7.41339
21
-3.66634
0
LINE
8
BLACK
6
CONTINUOUS
10
7.41339
20
-3.66634
11
7.39567
21
-3.66634
0
LINE
8
BLACK
6
CONTINUOUS
10
7.39567
20
-3.66634
11
7.39428
21
-3.66576
0
LINE
8
BLACK
6
CONTINUOUS
10
7.39428
20
-3.66576
11
7.38837
21
-3.65986
0
LINE
8
BLACK
6
CONTINUOUS
10
7.38837
20
-3.65986
11
7.3878
21
-3.65846
0
LINE
8
BLACK
6
CONTINUOUS
10
7.3878
20
-3.65846
11
7.3878
21
-3.6565
0
LINE
8
BLACK
6
CONTINUOUS
10
7.3878
20
-3.6565
11
7.35039
21
-3.6565
0
LINE
8
BLACK
6
CONTINUOUS
10
7.35039
20
-3.6565
11
7.349
21
-3.65592
0
LINE
8
BLACK
6
CONTINUOUS
10
7.349
20
-3.65592
11
7.34843
21
-3.65453
0
LINE
8
BLACK
6
CONTINUOUS
10
7.34843
20
-3.65453
11
7.34843
21
-3.64075
0
LINE
8
BLACK
6
CONTINUOUS
10
7.34843
20
-3.64075
11
7.34252
21
-3.64075
0
LINE
8
BLACK
6
CONTINUOUS
10
7.34252
20
-3.64075
11
7.34113
21
-3.64017
0
LINE
8
BLACK
6
CONTINUOUS
10
7.34113
20
-3.64017
11
7.34055
21
-3.63878
0
LINE
8
BLACK
6
CONTINUOUS
10
7.34055
20
-3.63878
11
7.34055
21
-3.56791
0
LINE
8
BLACK
6
CONTINUOUS
10
7.34055
20
-3.56791
11
7.34113
21
-3.56652
0
LINE
8
BLACK
6
CONTINUOUS
10
7.34113
20
-3.56652
11
7.34252
21
-3.56594
0
LINE
8
BLACK
6
CONTINUOUS
10
7.34252
20
-3.56594
11
7.34843
21
-3.56594
0
LINE
8
BLACK
6
CONTINUOUS
10
7.34843
20
-3.56594
11
7.34843
21
-3.55217
0
LINE
8
BLACK
6
CONTINUOUS
10
7.34843
20
-3.55217
11
7.349
21
-3.55077
0
LINE
8
BLACK
6
CONTINUOUS
10
7.349
20
-3.55077
11
7.35039
21
-3.5502
0
LINE
8
BLACK
6
CONTINUOUS
10
7.35039
20
-3.5502
11
7.45276
21
-3.5502
0
LINE
8
BLACK
6
CONTINUOUS
10
7.45276
20
-3.5502
11
7.45415
21
-3.55077
0
LINE
8
BLACK
6
CONTINUOUS
10
7.45415
20
-3.55077
11
7.45472
21
-3.55217
0
LINE
8
BLACK
6
CONTINUOUS
10
7.45472
20
-3.55217
11
7.45472
21
-3.56594
0
LINE
8
BLACK
6
CONTINUOUS
10
7.45472
20
-3.56594
11
7.46063
21
-3.56594
0
LINE
8
BLACK
6
CONTINUOUS
10
7.46063
20
-3.56594
11
7.46202
21
-3.56652
0
LINE
8
BLACK
6
CONTINUOUS
10
7.46202
20
-3.56652
11
7.4626
21
-3.56791
0
LINE
8
BLACK
6
CONTINUOUS
10
7.34449
20
-3.63681
11
7.35039
21
-3.63681
0
LINE
8
BLACK
6
CONTINUOUS
10
7.35039
20
-3.63681
11
7.35179
21
-3.63739
0
LINE
8
BLACK
6
CONTINUOUS
10
7.35179
20
-3.63739
11
7.35236
21
-3.63878
0
LINE
8
BLACK
6
CONTINUOUS
10
7.35236
20
-3.63878
11
7.35236
21
-3.65256
0
LINE
8
BLACK
6
CONTINUOUS
10
7.35236
20
-3.65256
11
7.38976
21
-3.65256
0
LINE
8
BLACK
6
CONTINUOUS
10
7.38976
20
-3.65256
11
7.39116
21
-3.65314
0
LINE
8
BLACK
6
CONTINUOUS
10
7.39116
20
-3.65314
11
7.39173
21
-3.65453
0
LINE
8
BLACK
6
CONTINUOUS
10
7.39173
20
-3.65453
11
7.39173
21
-3.65765
0
LINE
8
BLACK
6
CONTINUOUS
10
7.39173
20
-3.65765
11
7.39648
21
-3.6624
0
LINE
8
BLACK
6
CONTINUOUS
10
7.39648
20
-3.6624
11
7.41142
21
-3.6624
0
LINE
8
BLACK
6
CONTINUOUS
10
7.41142
20
-3.6624
11
7.41142
21
-3.65453
0
LINE
8
BLACK
6
CONTINUOUS
10
7.41142
20
-3.65453
11
7.41199
21
-3.65314
0
LINE
8
BLACK
6
CONTINUOUS
10
7.41199
20
-3.65314
11
7.41339
21
-3.65256
0
LINE
8
BLACK
6
CONTINUOUS
10
7.41339
20
-3.65256
11
7.45079
21
-3.65256
0
LINE
8
BLACK
6
CONTINUOUS
10
7.45079
20
-3.65256
11
7.45079
21
-3.63878
0
LINE
8
BLACK
6
CONTINUOUS
10
7.45079
20
-3.63878
11
7.45136
21
-3.63739
0
LINE
8
BLACK
6
CONTINUOUS
10
7.45136
20
-3.63739
11
7.45276
21
-3.63681
0
LINE
8
BLACK
6
CONTINUOUS
10
7.45276
20
-3.63681
11
7.45866
21
-3.63681
0
LINE
8
BLACK
6
CONTINUOUS
10
7.45866
20
-3.63681
11
7.45866
21
-3.56988
0
LINE
8
BLACK
6
CONTINUOUS
10
7.45866
20
-3.56988
11
7.45276
21
-3.56988
0
LINE
8
BLACK
6
CONTINUOUS
10
7.45276
20
-3.56988
11
7.45136
21
-3.56931
0
LINE
8
BLACK
6
CONTINUOUS
10
7.45136
20
-3.56931
11
7.45079
21
-3.56791
0
LINE
8
BLACK
6
CONTINUOUS
10
7.45079
20
-3.56791
11
7.45079
21
-3.55413
0
LINE
8
BLACK
6
CONTINUOUS
10
7.45079
20
-3.55413
11
7.35236
21
-3.55413
0
LINE
8
BLACK
6
CONTINUOUS
10
7.35236
20
-3.55413
11
7.35236
21
-3.56791
0
LINE
8
BLACK
6
CONTINUOUS
10
7.35236
20
-3.56791
11
7.35179
21
-3.56931
0
LINE
8
BLACK
6
CONTINUOUS
10
7.35179
20
-3.56931
11
7.35039
21
-3.56988
0
LINE
8
BLACK
6
CONTINUOUS
10
7.35039
20
-3.56988
11
7.34449
21
-3.56988
0
LINE
8
BLACK
6
CONTINUOUS
10
7.34449
20
-3.56988
11
7.34449
21
-3.63681
0
LINE
8
BLACK
6
CONTINUOUS
10
7.4287
20
-3.58916
11
7.42922
21
-3.59041
0
LINE
8
BLACK
6
CONTINUOUS
10
7.42922
20
-3.59041
11
7.4287
21
-3.59166
0
LINE
8
BLACK
6
CONTINUOUS
10
7.4287
20
-3.59166
11
7.42745
21
-3.59218
0
LINE
8
BLACK
6
CONTINUOUS
10
7.42745
20
-3.59218
11
7.4178
21
-3.59218
0
LINE
8
BLACK
6
CONTINUOUS
10
7.4178
20
-3.59218
11
7.41722
21
-3.59804
0
LINE
8
BLACK
6
CONTINUOUS
10
7.41722
20
-3.59804
11
7.41766
21
-3.59782
0
LINE
8
BLACK
6
CONTINUOUS
10
7.41766
20
-3.59782
11
7.41807
21
-3.5978
0
LINE
8
BLACK
6
CONTINUOUS
10
7.41807
20
-3.5978
11
7.41845
21
-3.59764
0
LINE
8
BLACK
6
CONTINUOUS
10
7.41845
20
-3.59764
11
7.42407
21
-3.59764
0
LINE
8
BLACK
6
CONTINUOUS
10
7.42407
20
-3.59764
11
7.42445
21
-3.5978
0
LINE
8
BLACK
6
CONTINUOUS
10
7.42445
20
-3.5978
11
7.42486
21
-3.59782
0
LINE
8
BLACK
6
CONTINUOUS
10
7.42486
20
-3.59782
11
7.42711
21
-3.59895
0
LINE
8
BLACK
6
CONTINUOUS
10
7.42711
20
-3.59895
11
7.42731
21
-3.59917
0
LINE
8
BLACK
6
CONTINUOUS
10
7.42731
20
-3.59917
11
7.42757
21
-3.59928
0
LINE
8
BLACK
6
CONTINUOUS
10
7.42757
20
-3.59928
11
7.4287
21
-3.60041
0
LINE
8
BLACK
6
CONTINUOUS
10
7.4287
20
-3.60041
11
7.42881
21
-3.60068
0
LINE
8
BLACK
6
CONTINUOUS
10
7.42881
20
-3.60068
11
7.42903
21
-3.60087
0
LINE
8
BLACK
6
CONTINUOUS
10
7.42903
20
-3.60087
11
7.43016
21
-3.60312
0
LINE
8
BLACK
6
CONTINUOUS
10
7.43016
20
-3.60312
11
7.43019
21
-3.60353
0
LINE
8
BLACK
6
CONTINUOUS
10
7.43019
20
-3.60353
11
7.43034
21
-3.60391
0
LINE
8
BLACK
6
CONTINUOUS
10
7.43034
20
-3.60391
11
7.43034
21
-3.60953
0
LINE
8
BLACK
6
CONTINUOUS
10
7.43034
20
-3.60953
11
7.43019
21
-3.60991
0
LINE
8
BLACK
6
CONTINUOUS
10
7.43019
20
-3.60991
11
7.43016
21
-3.61033
0
LINE
8
BLACK
6
CONTINUOUS
10
7.43016
20
-3.61033
11
7.42903
21
-3.61258
0
LINE
8
BLACK
6
CONTINUOUS
10
7.42903
20
-3.61258
11
7.42881
21
-3.61277
0
LINE
8
BLACK
6
CONTINUOUS
10
7.42881
20
-3.61277
11
7.4287
21
-3.61304
0
LINE
8
BLACK
6
CONTINUOUS
10
7.4287
20
-3.61304
11
7.42757
21
-3.61416
0
LINE
8
BLACK
6
CONTINUOUS
10
7.42757
20
-3.61416
11
7.42731
21
-3.61427
0
LINE
8
BLACK
6
CONTINUOUS
10
7.42731
20
-3.61427
11
7.42711
21
-3.61449
0
LINE
8
BLACK
6
CONTINUOUS
10
7.42711
20
-3.61449
11
7.42486
21
-3.61562
0
LINE
8
BLACK
6
CONTINUOUS
10
7.42486
20
-3.61562
11
7.42445
21
-3.61565
0
LINE
8
BLACK
6
CONTINUOUS
10
7.42445
20
-3.61565
11
7.42407
21
-3.6158
0
LINE
8
BLACK
6
CONTINUOUS
10
7.42407
20
-3.6158
11
7.41845
21
-3.6158
0
LINE
8
BLACK
6
CONTINUOUS
10
7.41845
20
-3.6158
11
7.41807
21
-3.61565
0
LINE
8
BLACK
6
CONTINUOUS
10
7.41807
20
-3.61565
11
7.41766
21
-3.61562
0
LINE
8
BLACK
6
CONTINUOUS
10
7.41766
20
-3.61562
11
7.41541
21
-3.61449
0
LINE
8
BLACK
6
CONTINUOUS
10
7.41541
20
-3.61449
11
7.41521
21
-3.61427
0
LINE
8
BLACK
6
CONTINUOUS
10
7.41521
20
-3.61427
11
7.41495
21
-3.61416
0
LINE
8
BLACK
6
CONTINUOUS
10
7.41495
20
-3.61416
11
7.41382
21
-3.61304
0
LINE
8
BLACK
6
CONTINUOUS
10
7.41382
20
-3.61304
11
7.4133
21
-3.61178
0
LINE
8
BLACK
6
CONTINUOUS
10
7.4133
20
-3.61178
11
7.41382
21
-3.61053
0
LINE
8
BLACK
6
CONTINUOUS
10
7.41382
20
-3.61053
11
7.41507
21
-3.61001
0
LINE
8
BLACK
6
CONTINUOUS
10
7.41507
20
-3.61001
11
7.41633
21
-3.61053
0
LINE
8
BLACK
6
CONTINUOUS
10
7.41633
20
-3.61053
11
7.41725
21
-3.61145
0
LINE
8
BLACK
6
CONTINUOUS
10
7.41725
20
-3.61145
11
7.41887
21
-3.61226
0
LINE
8
BLACK
6
CONTINUOUS
10
7.41887
20
-3.61226
11
7.42365
21
-3.61226
0
LINE
8
BLACK
6
CONTINUOUS
10
7.42365
20
-3.61226
11
7.42527
21
-3.61145
0
LINE
8
BLACK
6
CONTINUOUS
10
7.42527
20
-3.61145
11
7.42599
21
-3.61073
0
LINE
8
BLACK
6
CONTINUOUS
10
7.42599
20
-3.61073
11
7.4268
21
-3.60911
0
LINE
8
BLACK
6
CONTINUOUS
10
7.4268
20
-3.60911
11
7.4268
21
-3.60433
0
LINE
8
BLACK
6
CONTINUOUS
10
7.4268
20
-3.60433
11
7.42599
21
-3.60271
0
LINE
8
BLACK
6
CONTINUOUS
10
7.42599
20
-3.60271
11
7.42527
21
-3.60199
0
LINE
8
BLACK
6
CONTINUOUS
10
7.42527
20
-3.60199
11
7.42365
21
-3.60118
0
LINE
8
BLACK
6
CONTINUOUS
10
7.42365
20
-3.60118
11
7.41887
21
-3.60118
0
LINE
8
BLACK
6
CONTINUOUS
10
7.41887
20
-3.60118
11
7.41725
21
-3.60199
0
LINE
8
BLACK
6
CONTINUOUS
10
7.41725
20
-3.60199
11
7.41633
21
-3.60291
0
LINE
8
BLACK
6
CONTINUOUS
10
7.41633
20
-3.60291
11
7.41624
21
-3.60295
0
LINE
8
BLACK
6
CONTINUOUS
10
7.41624
20
-3.60295
11
7.4162
21
-3.60303
0
LINE
8
BLACK
6
CONTINUOUS
10
7.4162
20
-3.60303
11
7.41562
21
-3.6032
0
LINE
8
BLACK
6
CONTINUOUS
10
7.41562
20
-3.6032
11
7.41507
21
-3.60343
0
LINE
8
BLACK
6
CONTINUOUS
10
7.41507
20
-3.60343
11
7.41499
21
-3.60339
0
LINE
8
BLACK
6
CONTINUOUS
10
7.41499
20
-3.60339
11
7.4149
21
-3.60342
0
LINE
8
BLACK
6
CONTINUOUS
10
7.4149
20
-3.60342
11
7.41437
21
-3.60314
0
LINE
8
BLACK
6
CONTINUOUS
10
7.41437
20
-3.60314
11
7.41382
21
-3.60291
0
LINE
8
BLACK
6
CONTINUOUS
10
7.41382
20
-3.60291
11
7.41378
21
-3.60283
0
LINE
8
BLACK
6
CONTINUOUS
10
7.41378
20
-3.60283
11
7.4137
21
-3.60278
0
LINE
8
BLACK
6
CONTINUOUS
10
7.4137
20
-3.60278
11
7.41353
21
-3.60221
0
LINE
8
BLACK
6
CONTINUOUS
10
7.41353
20
-3.60221
11
7.4133
21
-3.60166
0
LINE
8
BLACK
6
CONTINUOUS
10
7.4133
20
-3.60166
11
7.41334
21
-3.60157
0
LINE
8
BLACK
6
CONTINUOUS
10
7.41334
20
-3.60157
11
7.41331
21
-3.60148
0
LINE
8
BLACK
6
CONTINUOUS
10
7.41331
20
-3.60148
11
7.41444
21
-3.59023
0
LINE
8
BLACK
6
CONTINUOUS
10
7.41444
20
-3.59023
11
7.41472
21
-3.58971
0
LINE
8
BLACK
6
CONTINUOUS
10
7.41472
20
-3.58971
11
7.41495
21
-3.58916
0
LINE
8
BLACK
6
CONTINUOUS
10
7.41495
20
-3.58916
11
7.41503
21
-3.58912
0
LINE
8
BLACK
6
CONTINUOUS
10
7.41503
20
-3.58912
11
7.41508
21
-3.58904
0
LINE
8
BLACK
6
CONTINUOUS
10
7.41508
20
-3.58904
11
7.41565
21
-3.58887
0
LINE
8
BLACK
6
CONTINUOUS
10
7.41565
20
-3.58887
11
7.4162
21
-3.58864
0
LINE
8
BLACK
6
CONTINUOUS
10
7.4162
20
-3.58864
11
7.42745
21
-3.58864
0
LINE
8
BLACK
6
CONTINUOUS
10
7.42745
20
-3.58864
11
7.4287
21
-3.58916
0
LINE
8
BLACK
6
CONTINUOUS
10
7.39132
20
-3.61529
11
7.3908
21
-3.61403
0
LINE
8
BLACK
6
CONTINUOUS
10
7.3908
20
-3.61403
11
7.39132
21
-3.61278
0
LINE
8
BLACK
6
CONTINUOUS
10
7.39132
20
-3.61278
11
7.39258
21
-3.61226
0
LINE
8
BLACK
6
CONTINUOUS
10
7.39258
20
-3.61226
11
7.39755
21
-3.61226
0
LINE
8
BLACK
6
CONTINUOUS
10
7.39755
20
-3.61226
11
7.39755
21
-3.59581
0
LINE
8
BLACK
6
CONTINUOUS
10
7.39755
20
-3.59581
11
7.39608
21
-3.59729
0
LINE
8
BLACK
6
CONTINUOUS
10
7.39608
20
-3.59729
11
7.39581
21
-3.5974
0
LINE
8
BLACK
6
CONTINUOUS
10
7.39581
20
-3.5974
11
7.39562
21
-3.59762
0
LINE
8
BLACK
6
CONTINUOUS
10
7.39562
20
-3.59762
11
7.39337
21
-3.59874
0
LINE
8
BLACK
6
CONTINUOUS
10
7.39337
20
-3.59874
11
7.39202
21
-3.59884
0
LINE
8
BLACK
6
CONTINUOUS
10
7.39202
20
-3.59884
11
7.39099
21
-3.59795
0
LINE
8
BLACK
6
CONTINUOUS
10
7.39099
20
-3.59795
11
7.3909
21
-3.5966
0
LINE
8
BLACK
6
CONTINUOUS
10
7.3909
20
-3.5966
11
7.39178
21
-3.59558
0
LINE
8
BLACK
6
CONTINUOUS
10
7.39178
20
-3.59558
11
7.39378
21
-3.59458
0
LINE
8
BLACK
6
CONTINUOUS
10
7.39378
20
-3.59458
11
7.3957
21
-3.59266
0
LINE
8
BLACK
6
CONTINUOUS
10
7.3957
20
-3.59266
11
7.39785
21
-3.58943
0
LINE
8
BLACK
6
CONTINUOUS
10
7.39785
20
-3.58943
11
7.398
21
-3.58933
0
LINE
8
BLACK
6
CONTINUOUS
10
7.398
20
-3.58933
11
7.39807
21
-3.58916
0
LINE
8
BLACK
6
CONTINUOUS
10
7.39807
20
-3.58916
11
7.39855
21
-3.58896
0
LINE
8
BLACK
6
CONTINUOUS
10
7.39855
20
-3.58896
11
7.39898
21
-3.58867
0
LINE
8
BLACK
6
CONTINUOUS
10
7.39898
20
-3.58867
11
7.39916
21
-3.58871
0
LINE
8
BLACK
6
CONTINUOUS
10
7.39916
20
-3.58871
11
7.39933
21
-3.58864
0
LINE
8
BLACK
6
CONTINUOUS
10
7.39933
20
-3.58864
11
7.3998
21
-3.58884
0
LINE
8
BLACK
6
CONTINUOUS
10
7.3998
20
-3.58884
11
7.40031
21
-3.58894
0
LINE
8
BLACK
6
CONTINUOUS
10
7.40031
20
-3.58894
11
7.40041
21
-3.58909
0
LINE
8
BLACK
6
CONTINUOUS
10
7.40041
20
-3.58909
11
7.40058
21
-3.58916
0
LINE
8
BLACK
6
CONTINUOUS
10
7.40058
20
-3.58916
11
7.40078
21
-3.58963
0
LINE
8
BLACK
6
CONTINUOUS
10
7.40078
20
-3.58963
11
7.40106
21
-3.59006
0
LINE
8
BLACK
6
CONTINUOUS
10
7.40106
20
-3.59006
11
7.40103
21
-3.59024
0
LINE
8
BLACK
6
CONTINUOUS
10
7.40103
20
-3.59024
11
7.4011
21
-3.59041
0
LINE
8
BLACK
6
CONTINUOUS
10
7.4011
20
-3.59041
11
7.4011
21
-3.61226
0
LINE
8
BLACK
6
CONTINUOUS
10
7.4011
20
-3.61226
11
7.40607
21
-3.61226
0
LINE
8
BLACK
6
CONTINUOUS
10
7.40607
20
-3.61226
11
7.40733
21
-3.61278
0
LINE
8
BLACK
6
CONTINUOUS
10
7.40733
20
-3.61278
11
7.40785
21
-3.61403
0
LINE
8
BLACK
6
CONTINUOUS
10
7.40785
20
-3.61403
11
7.40733
21
-3.61529
0
LINE
8
BLACK
6
CONTINUOUS
10
7.40733
20
-3.61529
11
7.40607
21
-3.6158
0
LINE
8
BLACK
6
CONTINUOUS
10
7.40607
20
-3.6158
11
7.39258
21
-3.6158
0
LINE
8
BLACK
6
CONTINUOUS
10
7.39258
20
-3.6158
11
7.39132
21
-3.61529
0
LINE
8
BLACK
6
CONTINUOUS
10
7.3837
20
-3.58916
11
7.38422
21
-3.59041
0
LINE
8
BLACK
6
CONTINUOUS
10
7.38422
20
-3.59041
11
7.38422
21
-3.60728
0
LINE
8
BLACK
6
CONTINUOUS
10
7.38422
20
-3.60728
11
7.38411
21
-3.60755
0
LINE
8
BLACK
6
CONTINUOUS
10
7.38411
20
-3.60755
11
7.38413
21
-3.60784
0
LINE
8
BLACK
6
CONTINUOUS
10
7.38413
20
-3.60784
11
7.38301
21
-3.61122
0
LINE
8
BLACK
6
CONTINUOUS
10
7.38301
20
-3.61122
11
7.38274
21
-3.61153
0
LINE
8
BLACK
6
CONTINUOUS
10
7.38274
20
-3.61153
11
7.38258
21
-3.61191
0
LINE
8
BLACK
6
CONTINUOUS
10
7.38258
20
-3.61191
11
7.38033
21
-3.61416
0
LINE
8
BLACK
6
CONTINUOUS
10
7.38033
20
-3.61416
11
7.37995
21
-3.61432
0
LINE
8
BLACK
6
CONTINUOUS
10
7.37995
20
-3.61432
11
7.37964
21
-3.61459
0
LINE
8
BLACK
6
CONTINUOUS
10
7.37964
20
-3.61459
11
7.37626
21
-3.61571
0
LINE
8
BLACK
6
CONTINUOUS
10
7.37626
20
-3.61571
11
7.37597
21
-3.61569
0
LINE
8
BLACK
6
CONTINUOUS
10
7.37597
20
-3.61569
11
7.3757
21
-3.6158
0
LINE
8
BLACK
6
CONTINUOUS
10
7.3757
20
-3.6158
11
7.37345
21
-3.6158
0
LINE
8
BLACK
6
CONTINUOUS
10
7.37345
20
-3.6158
11
7.3722
21
-3.61529
0
LINE
8
BLACK
6
CONTINUOUS
10
7.3722
20
-3.61529
11
7.37168
21
-3.61403
0
LINE
8
BLACK
6
CONTINUOUS
10
7.37168
20
-3.61403
11
7.3722
21
-3.61278
0
LINE
8
BLACK
6
CONTINUOUS
10
7.3722
20
-3.61278
11
7.37345
21
-3.61226
0
LINE
8
BLACK
6
CONTINUOUS
10
7.37345
20
-3.61226
11
7.37542
21
-3.61226
0
LINE
8
BLACK
6
CONTINUOUS
10
7.37542
20
-3.61226
11
7.37812
21
-3.61136
0
LINE
8
BLACK
6
CONTINUOUS
10
7.37812
20
-3.61136
11
7.37978
21
-3.6097
0
LINE
8
BLACK
6
CONTINUOUS
10
7.37978
20
-3.6097
11
7.38068
21
-3.607
0
LINE
8
BLACK
6
CONTINUOUS
10
7.38068
20
-3.607
11
7.38068
21
-3.59041
0
LINE
8
BLACK
6
CONTINUOUS
10
7.38068
20
-3.59041
11
7.3812
21
-3.58916
0
LINE
8
BLACK
6
CONTINUOUS
10
7.3812
20
-3.58916
11
7.38245
21
-3.58864
0
LINE
8
BLACK
6
CONTINUOUS
10
7.38245
20
-3.58864
11
7.3837
21
-3.58916
0
LINE
8
BLACK
6
CONTINUOUS
10
7.53888
20
-3.63151
11
7.53902
21
-3.63162
0
LINE
8
BLACK
6
CONTINUOUS
10
7.53902
20
-3.63162
11
7.53919
21
-3.63164
0
LINE
8
BLACK
6
CONTINUOUS
10
7.53919
20
-3.63164
11
7.54294
21
-3.63351
0
LINE
8
BLACK
6
CONTINUOUS
10
7.54294
20
-3.63351
11
7.54365
21
-3.63404
0
LINE
8
BLACK
6
CONTINUOUS
10
7.54365
20
-3.63404
11
7.54371
21
-3.63407
0
LINE
8
BLACK
6
CONTINUOUS
10
7.54371
20
-3.63407
11
7.54558
21
-3.63594
0
LINE
8
BLACK
6
CONTINUOUS
10
7.54558
20
-3.63594
11
7.54609
21
-3.63666
0
LINE
8
BLACK
6
CONTINUOUS
10
7.54609
20
-3.63666
11
7.54614
21
-3.63671
0
LINE
8
BLACK
6
CONTINUOUS
10
7.54614
20
-3.63671
11
7.54801
21
-3.64046
0
LINE
8
BLACK
6
CONTINUOUS
10
7.54801
20
-3.64046
11
7.5483
21
-3.64144
0
LINE
8
BLACK
6
CONTINUOUS
10
7.5483
20
-3.64144
11
7.54826
21
-3.64161
0
LINE
8
BLACK
6
CONTINUOUS
10
7.54826
20
-3.64161
11
7.54832
21
-3.64178
0
LINE
8
BLACK
6
CONTINUOUS
10
7.54832
20
-3.64178
11
7.54832
21
-3.64928
0
LINE
8
BLACK
6
CONTINUOUS
10
7.54832
20
-3.64928
11
7.54814
21
-3.65029
0
LINE
8
BLACK
6
CONTINUOUS
10
7.54814
20
-3.65029
11
7.54803
21
-3.65042
0
LINE
8
BLACK
6
CONTINUOUS
10
7.54803
20
-3.65042
11
7.54801
21
-3.6506
0
LINE
8
BLACK
6
CONTINUOUS
10
7.54801
20
-3.6506
11
7.54614
21
-3.65435
0
LINE
8
BLACK
6
CONTINUOUS
10
7.54614
20
-3.65435
11
7.54561
21
-3.65506
0
LINE
8
BLACK
6
CONTINUOUS
10
7.54561
20
-3.65506
11
7.54558
21
-3.65512
0
LINE
8
BLACK
6
CONTINUOUS
10
7.54558
20
-3.65512
11
7.54371
21
-3.65699
0
LINE
8
BLACK
6
CONTINUOUS
10
7.54371
20
-3.65699
11
7.54298
21
-3.6575
0
LINE
8
BLACK
6
CONTINUOUS
10
7.54298
20
-3.6575
11
7.54294
21
-3.65754
0
LINE
8
BLACK
6
CONTINUOUS
10
7.54294
20
-3.65754
11
7.53919
21
-3.65942
0
LINE
8
BLACK
6
CONTINUOUS
10
7.53919
20
-3.65942
11
7.53821
21
-3.65971
0
LINE
8
BLACK
6
CONTINUOUS
10
7.53821
20
-3.65971
11
7.53804
21
-3.65967
0
LINE
8
BLACK
6
CONTINUOUS
10
7.53804
20
-3.65967
11
7.53787
21
-3.65973
0
LINE
8
BLACK
6
CONTINUOUS
10
7.53787
20
-3.65973
11
7.506
21
-3.65973
0
LINE
8
BLACK
6
CONTINUOUS
10
7.506
20
-3.65973
11
7.50499
21
-3.65955
0
LINE
8
BLACK
6
CONTINUOUS
10
7.50499
20
-3.65955
11
7.50344
21
-3.65825
0
LINE
8
BLACK
6
CONTINUOUS
10
7.50344
20
-3.65825
11
7.50309
21
-3.65626
0
LINE
8
BLACK
6
CONTINUOUS
10
7.50309
20
-3.65626
11
7.5041
21
-3.65452
0
LINE
8
BLACK
6
CONTINUOUS
10
7.5041
20
-3.65452
11
7.506
21
-3.65382
0
LINE
8
BLACK
6
CONTINUOUS
10
7.506
20
-3.65382
11
7.53717
21
-3.65382
0
LINE
8
BLACK
6
CONTINUOUS
10
7.53717
20
-3.65382
11
7.53987
21
-3.65248
0
LINE
8
BLACK
6
CONTINUOUS
10
7.53987
20
-3.65248
11
7.54107
21
-3.65128
0
LINE
8
BLACK
6
CONTINUOUS
10
7.54107
20
-3.65128
11
7.54242
21
-3.64858
0
LINE
8
BLACK
6
CONTINUOUS
10
7.54242
20
-3.64858
11
7.54242
21
-3.64248
0
LINE
8
BLACK
6
CONTINUOUS
10
7.54242
20
-3.64248
11
7.54107
21
-3.63978
0
LINE
8
BLACK
6
CONTINUOUS
10
7.54107
20
-3.63978
11
7.53987
21
-3.63858
0
LINE
8
BLACK
6
CONTINUOUS
10
7.53987
20
-3.63858
11
7.53717
21
-3.63723
0
LINE
8
BLACK
6
CONTINUOUS
10
7.53717
20
-3.63723
11
7.506
21
-3.63723
0
LINE
8
BLACK
6
CONTINUOUS
10
7.506
20
-3.63723
11
7.50499
21
-3.63705
0
LINE
8
BLACK
6
CONTINUOUS
10
7.50499
20
-3.63705
11
7.50344
21
-3.63576
0
LINE
8
BLACK
6
CONTINUOUS
10
7.50344
20
-3.63576
11
7.50309
21
-3.63377
0
LINE
8
BLACK
6
CONTINUOUS
10
7.50309
20
-3.63377
11
7.5041
21
-3.63202
0
LINE
8
BLACK
6
CONTINUOUS
10
7.5041
20
-3.63202
11
7.506
21
-3.63133
0
LINE
8
BLACK
6
CONTINUOUS
10
7.506
20
-3.63133
11
7.53787
21
-3.63133
0
LINE
8
BLACK
6
CONTINUOUS
10
7.53787
20
-3.63133
11
7.53888
21
-3.63151
0
LINE
8
BLACK
6
CONTINUOUS
10
7.54399
20
-3.61083
11
7.54426
21
-3.61081
0
LINE
8
BLACK
6
CONTINUOUS
10
7.54426
20
-3.61081
11
7.54489
21
-3.61125
0
LINE
8
BLACK
6
CONTINUOUS
10
7.54489
20
-3.61125
11
7.54558
21
-3.61157
0
LINE
8
BLACK
6
CONTINUOUS
10
7.54558
20
-3.61157
11
7.54746
21
-3.61344
0
LINE
8
BLACK
6
CONTINUOUS
10
7.54746
20
-3.61344
11
7.54768
21
-3.61376
0
LINE
8
BLACK
6
CONTINUOUS
10
7.54768
20
-3.61376
11
7.54779
21
-3.61384
0
LINE
8
BLACK
6
CONTINUOUS
10
7.54779
20
-3.61384
11
7.54782
21
-3.61397
0
LINE
8
BLACK
6
CONTINUOUS
10
7.54782
20
-3.61397
11
7.54783
21
-3.61397
0
LINE
8
BLACK
6
CONTINUOUS
10
7.54783
20
-3.61397
11
7.54793
21
-3.61406
0
LINE
8
BLACK
6
CONTINUOUS
10
7.54793
20
-3.61406
11
7.54794
21
-3.61413
0
LINE
8
BLACK
6
CONTINUOUS
10
7.54794
20
-3.61413
11
7.54805
21
-3.61428
0
LINE
8
BLACK
6
CONTINUOUS
10
7.54805
20
-3.61428
11
7.54811
21
-3.61505
0
LINE
8
BLACK
6
CONTINUOUS
10
7.54811
20
-3.61505
11
7.54831
21
-3.61579
0
LINE
8
BLACK
6
CONTINUOUS
10
7.54831
20
-3.61579
11
7.54825
21
-3.61591
0
LINE
8
BLACK
6
CONTINUOUS
10
7.54825
20
-3.61591
11
7.54828
21
-3.61605
0
LINE
8
BLACK
6
CONTINUOUS
10
7.54828
20
-3.61605
11
7.54821
21
-3.61616
0
LINE
8
BLACK
6
CONTINUOUS
10
7.54821
20
-3.61616
11
7.54822
21
-3.6163
0
LINE
8
BLACK
6
CONTINUOUS
10
7.54822
20
-3.6163
11
7.54778
21
-3.61692
0
LINE
8
BLACK
6
CONTINUOUS
10
7.54778
20
-3.61692
11
7.54746
21
-3.61762
0
LINE
8
BLACK
6
CONTINUOUS
10
7.54746
20
-3.61762
11
7.54558
21
-3.6195
0
LINE
8
BLACK
6
CONTINUOUS
10
7.54558
20
-3.6195
11
7.54526
21
-3.61972
0
LINE
8
BLACK
6
CONTINUOUS
10
7.54526
20
-3.61972
11
7.54519
21
-3.61983
0
LINE
8
BLACK
6
CONTINUOUS
10
7.54519
20
-3.61983
11
7.54506
21
-3.61986
0
LINE
8
BLACK
6
CONTINUOUS
10
7.54506
20
-3.61986
11
7.54474
21
-3.62008
0
LINE
8
BLACK
6
CONTINUOUS
10
7.54474
20
-3.62008
11
7.54398
21
-3.62015
0
LINE
8
BLACK
6
CONTINUOUS
10
7.54398
20
-3.62015
11
7.54324
21
-3.62035
0
LINE
8
BLACK
6
CONTINUOUS
10
7.54324
20
-3.62035
11
7.543
21
-3.62024
0
LINE
8
BLACK
6
CONTINUOUS
10
7.543
20
-3.62024
11
7.54273
21
-3.62026
0
LINE
8
BLACK
6
CONTINUOUS
10
7.54273
20
-3.62026
11
7.5421
21
-3.61982
0
LINE
8
BLACK
6
CONTINUOUS
10
7.5421
20
-3.61982
11
7.54141
21
-3.6195
0
LINE
8
BLACK
6
CONTINUOUS
10
7.54141
20
-3.6195
11
7.53953
21
-3.61762
0
LINE
8
BLACK
6
CONTINUOUS
10
7.53953
20
-3.61762
11
7.53931
21
-3.6173
0
LINE
8
BLACK
6
CONTINUOUS
10
7.53931
20
-3.6173
11
7.5392
21
-3.61723
0
LINE
8
BLACK
6
CONTINUOUS
10
7.5392
20
-3.61723
11
7.53917
21
-3.6171
0
LINE
8
BLACK
6
CONTINUOUS
10
7.53917
20
-3.6171
11
7.53916
21
-3.61709
0
LINE
8
BLACK
6
CONTINUOUS
10
7.53916
20
-3.61709
11
7.53906
21
-3.61701
0
LINE
8
BLACK
6
CONTINUOUS
10
7.53906
20
-3.61701
11
7.53905
21
-3.61693
0
LINE
8
BLACK
6
CONTINUOUS
10
7.53905
20
-3.61693
11
7.53894
21
-3.61678
0
LINE
8
BLACK
6
CONTINUOUS
10
7.53894
20
-3.61678
11
7.53888
21
-3.61602
0
LINE
8
BLACK
6
CONTINUOUS
10
7.53888
20
-3.61602
11
7.53868
21
-3.61528
0
LINE
8
BLACK
6
CONTINUOUS
10
7.53868
20
-3.61528
11
7.53874
21
-3.61515
0
LINE
8
BLACK
6
CONTINUOUS
10
7.53874
20
-3.61515
11
7.53871
21
-3.61502
0
LINE
8
BLACK
6
CONTINUOUS
10
7.53871
20
-3.61502
11
7.53878
21
-3.6149
0
LINE
8
BLACK
6
CONTINUOUS
10
7.53878
20
-3.6149
11
7.53877
21
-3.61477
0
LINE
8
BLACK
6
CONTINUOUS
10
7.53877
20
-3.61477
11
7.53921
21
-3.61414
0
LINE
8
BLACK
6
CONTINUOUS
10
7.53921
20
-3.61414
11
7.53953
21
-3.61344
0
LINE
8
BLACK
6
CONTINUOUS
10
7.53953
20
-3.61344
11
7.54141
21
-3.61157
0
LINE
8
BLACK
6
CONTINUOUS
10
7.54141
20
-3.61157
11
7.54173
21
-3.61135
0
LINE
8
BLACK
6
CONTINUOUS
10
7.54173
20
-3.61135
11
7.5418
21
-3.61124
0
LINE
8
BLACK
6
CONTINUOUS
10
7.5418
20
-3.61124
11
7.54193
21
-3.6112
0
LINE
8
BLACK
6
CONTINUOUS
10
7.54193
20
-3.6112
11
7.54225
21
-3.61098
0
LINE
8
BLACK
6
CONTINUOUS
10
7.54225
20
-3.61098
11
7.54301
21
-3.61091
0
LINE
8
BLACK
6
CONTINUOUS
10
7.54301
20
-3.61091
11
7.54375
21
-3.61072
0
LINE
8
BLACK
6
CONTINUOUS
10
7.54375
20
-3.61072
11
7.54399
21
-3.61083
0
LINE
8
BLACK
6
CONTINUOUS
10
7.50826
20
-3.57614
11
7.50895
21
-3.57804
0
LINE
8
BLACK
6
CONTINUOUS
10
7.50895
20
-3.57804
11
7.50895
21
-3.59383
0
LINE
8
BLACK
6
CONTINUOUS
10
7.50895
20
-3.59383
11
7.52179
21
-3.59383
0
LINE
8
BLACK
6
CONTINUOUS
10
7.52179
20
-3.59383
11
7.52179
21
-3.58366
0
LINE
8
BLACK
6
CONTINUOUS
10
7.52179
20
-3.58366
11
7.52197
21
-3.58265
0
LINE
8
BLACK
6
CONTINUOUS
10
7.52197
20
-3.58265
11
7.52327
21
-3.5811
0
LINE
8
BLACK
6
CONTINUOUS
10
7.52327
20
-3.5811
11
7.52526
21
-3.58075
0
LINE
8
BLACK
6
CONTINUOUS
10
7.52526
20
-3.58075
11
7.52701
21
-3.58176
0
LINE
8
BLACK
6
CONTINUOUS
10
7.52701
20
-3.58176
11
7.5277
21
-3.58366
0
LINE
8
BLACK
6
CONTINUOUS
10
7.5277
20
-3.58366
11
7.5277
21
-3.59383
0
LINE
8
BLACK
6
CONTINUOUS
10
7.5277
20
-3.59383
11
7.54537
21
-3.59383
0
LINE
8
BLACK
6
CONTINUOUS
10
7.54537
20
-3.59383
11
7.54638
21
-3.59401
0
LINE
8
BLACK
6
CONTINUOUS
10
7.54638
20
-3.59401
11
7.54793
21
-3.59531
0
LINE
8
BLACK
6
CONTINUOUS
10
7.54793
20
-3.59531
11
7.54828
21
-3.5973
0
LINE
8
BLACK
6
CONTINUOUS
10
7.54828
20
-3.5973
11
7.54727
21
-3.59905
0
LINE
8
BLACK
6
CONTINUOUS
10
7.54727
20
-3.59905
11
7.54537
21
-3.59974
0
LINE
8
BLACK
6
CONTINUOUS
10
7.54537
20
-3.59974
11
7.506
21
-3.59974
0
LINE
8
BLACK
6
CONTINUOUS
10
7.506
20
-3.59974
11
7.50562
21
-3.59967
0
LINE
8
BLACK
6
CONTINUOUS
10
7.50562
20
-3.59967
11
7.50549
21
-3.59969
0
LINE
8
BLACK
6
CONTINUOUS
10
7.50549
20
-3.59969
11
7.50537
21
-3.59963
0
LINE
8
BLACK
6
CONTINUOUS
10
7.50537
20
-3.59963
11
7.50499
21
-3.59956
0
LINE
8
BLACK
6
CONTINUOUS
10
7.50499
20
-3.59956
11
7.5044
21
-3.59907
0
LINE
8
BLACK
6
CONTINUOUS
10
7.5044
20
-3.59907
11
7.50374
21
-3.59868
0
LINE
8
BLACK
6
CONTINUOUS
10
7.50374
20
-3.59868
11
7.50365
21
-3.59843
0
LINE
8
BLACK
6
CONTINUOUS
10
7.50365
20
-3.59843
11
7.50344
21
-3.59826
0
LINE
8
BLACK
6
CONTINUOUS
10
7.50344
20
-3.59826
11
7.50331
21
-3.59751
0
LINE
8
BLACK
6
CONTINUOUS
10
7.50331
20
-3.59751
11
7.50305
21
-3.59678
0
LINE
8
BLACK
6
CONTINUOUS
10
7.50305
20
-3.59678
11
7.50305
21
-3.57804
0
LINE
8
BLACK
6
CONTINUOUS
10
7.50305
20
-3.57804
11
7.50322
21
-3.57703
0
LINE
8
BLACK
6
CONTINUOUS
10
7.50322
20
-3.57703
11
7.50452
21
-3.57548
0
LINE
8
BLACK
6
CONTINUOUS
10
7.50452
20
-3.57548
11
7.50651
21
-3.57513
0
LINE
8
BLACK
6
CONTINUOUS
10
7.50651
20
-3.57513
11
7.50826
21
-3.57614
0
LINE
8
BLACK
6
CONTINUOUS
10
7.54763
20
-3.54239
11
7.54832
21
-3.54429
0
LINE
8
BLACK
6
CONTINUOUS
10
7.54832
20
-3.54429
11
7.54832
21
-3.56304
0
LINE
8
BLACK
6
CONTINUOUS
10
7.54832
20
-3.56304
11
7.54825
21
-3.56342
0
LINE
8
BLACK
6
CONTINUOUS
10
7.54825
20
-3.56342
11
7.54828
21
-3.56355
0
LINE
8
BLACK
6
CONTINUOUS
10
7.54828
20
-3.56355
11
7.54821
21
-3.56367
0
LINE
8
BLACK
6
CONTINUOUS
10
7.54821
20
-3.56367
11
7.54814
21
-3.56405
0
LINE
8
BLACK
6
CONTINUOUS
10
7.54814
20
-3.56405
11
7.54765
21
-3.56464
0
LINE
8
BLACK
6
CONTINUOUS
10
7.54765
20
-3.56464
11
7.54727
21
-3.5653
0
LINE
8
BLACK
6
CONTINUOUS
10
7.54727
20
-3.5653
11
7.54702
21
-3.56539
0
LINE
8
BLACK
6
CONTINUOUS
10
7.54702
20
-3.56539
11
7.54685
21
-3.5656
0
LINE
8
BLACK
6
CONTINUOUS
10
7.54685
20
-3.5656
11
7.54609
21
-3.56573
0
LINE
8
BLACK
6
CONTINUOUS
10
7.54609
20
-3.56573
11
7.54537
21
-3.56599
0
LINE
8
BLACK
6
CONTINUOUS
10
7.54537
20
-3.56599
11
7.506
21
-3.56599
0
LINE
8
BLACK
6
CONTINUOUS
10
7.506
20
-3.56599
11
7.50499
21
-3.56581
0
LINE
8
BLACK
6
CONTINUOUS
10
7.50499
20
-3.56581
11
7.50344
21
-3.56452
0
LINE
8
BLACK
6
CONTINUOUS
10
7.50344
20
-3.56452
11
7.50309
21
-3.56253
0
LINE
8
BLACK
6
CONTINUOUS
10
7.50309
20
-3.56253
11
7.5041
21
-3.56078
0
LINE
8
BLACK
6
CONTINUOUS
10
7.5041
20
-3.56078
11
7.506
21
-3.56009
0
LINE
8
BLACK
6
CONTINUOUS
10
7.506
20
-3.56009
11
7.54242
21
-3.56009
0
LINE
8
BLACK
6
CONTINUOUS
10
7.54242
20
-3.56009
11
7.54242
21
-3.54429
0
LINE
8
BLACK
6
CONTINUOUS
10
7.54242
20
-3.54429
11
7.54259
21
-3.54328
0
LINE
8
BLACK
6
CONTINUOUS
10
7.54259
20
-3.54328
11
7.54389
21
-3.54173
0
LINE
8
BLACK
6
CONTINUOUS
10
7.54389
20
-3.54173
11
7.54588
21
-3.54138
0
LINE
8
BLACK
6
CONTINUOUS
10
7.54588
20
-3.54138
11
7.54763
21
-3.54239
0
LINE
8
BLACK
6
CONTINUOUS
10
6.02239
20
-3.30438
11
6.02181
21
-3.30299
0
LINE
8
BLACK
6
CONTINUOUS
10
6.02181
20
-3.30299
11
6.02181
21
-3.14354
0
LINE
8
BLACK
6
CONTINUOUS
10
6.02181
20
-3.14354
11
6.02239
21
-3.14215
0
LINE
8
BLACK
6
CONTINUOUS
10
6.02239
20
-3.14215
11
6.02378
21
-3.14157
0
LINE
8
BLACK
6
CONTINUOUS
10
6.02378
20
-3.14157
11
6.49622
21
-3.14157
0
LINE
8
BLACK
6
CONTINUOUS
10
6.49622
20
-3.14157
11
6.49761
21
-3.14215
0
LINE
8
BLACK
6
CONTINUOUS
10
6.49761
20
-3.14215
11
6.49819
21
-3.14354
0
LINE
8
BLACK
6
CONTINUOUS
10
6.49819
20
-3.14354
11
6.49819
21
-3.30299
0
LINE
8
BLACK
6
CONTINUOUS
10
6.49819
20
-3.30299
11
6.49761
21
-3.30438
0
LINE
8
BLACK
6
CONTINUOUS
10
6.49761
20
-3.30438
11
6.49622
21
-3.30496
0
LINE
8
BLACK
6
CONTINUOUS
10
6.49622
20
-3.30496
11
6.02378
21
-3.30496
0
LINE
8
BLACK
6
CONTINUOUS
10
6.02378
20
-3.30496
11
6.02239
21
-3.30438
0
LINE
8
BLACK
6
CONTINUOUS
10
6.02575
20
-3.14551
11
6.02575
21
-3.30102
0
LINE
8
BLACK
6
CONTINUOUS
10
6.02575
20
-3.30102
11
6.38693
21
-3.30102
0
LINE
8
BLACK
6
CONTINUOUS
10
6.38693
20
-3.30102
11
6.40603
21
-3.27402
0
LINE
8
BLACK
6
CONTINUOUS
10
6.40603
20
-3.27402
11
6.40632
21
-3.27383
0
LINE
8
BLACK
6
CONTINUOUS
10
6.40632
20
-3.27383
11
6.4065
21
-3.27355
0
LINE
8
BLACK
6
CONTINUOUS
10
6.4065
20
-3.27355
11
6.40693
21
-3.27345
0
LINE
8
BLACK
6
CONTINUOUS
10
6.40693
20
-3.27345
11
6.4073
21
-3.27321
0
LINE
8
BLACK
6
CONTINUOUS
10
6.4073
20
-3.27321
11
6.40764
21
-3.27329
0
LINE
8
BLACK
6
CONTINUOUS
10
6.40764
20
-3.27329
11
6.40797
21
-3.27321
0
LINE
8
BLACK
6
CONTINUOUS
10
6.40797
20
-3.27321
11
6.40834
21
-3.27345
0
LINE
8
BLACK
6
CONTINUOUS
10
6.40834
20
-3.27345
11
6.40877
21
-3.27355
0
LINE
8
BLACK
6
CONTINUOUS
10
6.40877
20
-3.27355
11
6.40896
21
-3.27383
0
LINE
8
BLACK
6
CONTINUOUS
10
6.40896
20
-3.27383
11
6.40925
21
-3.27402
0
LINE
8
BLACK
6
CONTINUOUS
10
6.40925
20
-3.27402
11
6.42834
21
-3.30102
0
LINE
8
BLACK
6
CONTINUOUS
10
6.42834
20
-3.30102
11
6.49425
21
-3.30102
0
LINE
8
BLACK
6
CONTINUOUS
10
6.49425
20
-3.30102
11
6.49425
21
-3.14551
0
LINE
8
BLACK
6
CONTINUOUS
10
6.49425
20
-3.14551
11
6.02575
21
-3.14551
0
LINE
8
BLACK
6
CONTINUOUS
10
6.39176
20
-3.30102
11
6.42352
21
-3.30102
0
LINE
8
BLACK
6
CONTINUOUS
10
6.42352
20
-3.30102
11
6.40764
21
-3.27856
0
LINE
8
BLACK
6
CONTINUOUS
10
6.40764
20
-3.27856
11
6.39176
21
-3.30102
0
LINE
8
BLACK
6
CONTINUOUS
10
6.27976
20
-3.21567
11
6.27989
21
-3.21578
0
LINE
8
BLACK
6
CONTINUOUS
10
6.27989
20
-3.21578
11
6.28007
21
-3.2158
0
LINE
8
BLACK
6
CONTINUOUS
10
6.28007
20
-3.2158
11
6.28382
21
-3.21767
0
LINE
8
BLACK
6
CONTINUOUS
10
6.28382
20
-3.21767
11
6.28453
21
-3.2182
0
LINE
8
BLACK
6
CONTINUOUS
10
6.28453
20
-3.2182
11
6.28459
21
-3.21823
0
LINE
8
BLACK
6
CONTINUOUS
10
6.28459
20
-3.21823
11
6.28646
21
-3.2201
0
LINE
8
BLACK
6
CONTINUOUS
10
6.28646
20
-3.2201
11
6.28697
21
-3.22082
0
LINE
8
BLACK
6
CONTINUOUS
10
6.28697
20
-3.22082
11
6.28701
21
-3.22087
0
LINE
8
BLACK
6
CONTINUOUS
10
6.28701
20
-3.22087
11
6.28889
21
-3.22462
0
LINE
8
BLACK
6
CONTINUOUS
10
6.28889
20
-3.22462
11
6.28918
21
-3.2256
0
LINE
8
BLACK
6
CONTINUOUS
10
6.28918
20
-3.2256
11
6.28914
21
-3.22577
0
LINE
8
BLACK
6
CONTINUOUS
10
6.28914
20
-3.22577
11
6.2892
21
-3.22594
0
LINE
8
BLACK
6
CONTINUOUS
10
6.2892
20
-3.22594
11
6.2892
21
-3.22969
0
LINE
8
BLACK
6
CONTINUOUS
10
6.2892
20
-3.22969
11
6.28905
21
-3.23056
0
LINE
8
BLACK
6
CONTINUOUS
10
6.28905
20
-3.23056
11
6.28905
21
-3.23062
0
LINE
8
BLACK
6
CONTINUOUS
10
6.28905
20
-3.23062
11
6.28717
21
-3.23625
0
LINE
8
BLACK
6
CONTINUOUS
10
6.28717
20
-3.23625
11
6.28668
21
-3.23715
0
LINE
8
BLACK
6
CONTINUOUS
10
6.28668
20
-3.23715
11
6.28653
21
-3.23724
0
LINE
8
BLACK
6
CONTINUOUS
10
6.28653
20
-3.23724
11
6.28646
21
-3.2374
0
LINE
8
BLACK
6
CONTINUOUS
10
6.28646
20
-3.2374
11
6.269
21
-3.25486
0
LINE
8
BLACK
6
CONTINUOUS
10
6.269
20
-3.25486
11
6.28625
21
-3.25486
0
LINE
8
BLACK
6
CONTINUOUS
10
6.28625
20
-3.25486
11
6.28726
21
-3.25504
0
LINE
8
BLACK
6
CONTINUOUS
10
6.28726
20
-3.25504
11
6.2888
21
-3.25633
0
LINE
8
BLACK
6
CONTINUOUS
10
6.2888
20
-3.25633
11
6.28915
21
-3.25832
0
LINE
8
BLACK
6
CONTINUOUS
10
6.28915
20
-3.25832
11
6.28814
21
-3.26007
0
LINE
8
BLACK
6
CONTINUOUS
10
6.28814
20
-3.26007
11
6.28625
21
-3.26076
0
LINE
8
BLACK
6
CONTINUOUS
10
6.28625
20
-3.26076
11
6.26187
21
-3.26076
0
LINE
8
BLACK
6
CONTINUOUS
10
6.26187
20
-3.26076
11
6.26124
21
-3.26065
0
LINE
8
BLACK
6
CONTINUOUS
10
6.26124
20
-3.26065
11
6.26111
21
-3.26066
0
LINE
8
BLACK
6
CONTINUOUS
10
6.26111
20
-3.26066
11
6.26105
21
-3.26062
0
LINE
8
BLACK
6
CONTINUOUS
10
6.26105
20
-3.26062
11
6.26086
21
-3.26058
0
LINE
8
BLACK
6
CONTINUOUS
10
6.26086
20
-3.26058
11
6.26018
21
-3.26001
0
LINE
8
BLACK
6
CONTINUOUS
10
6.26018
20
-3.26001
11
6.25946
21
-3.2595
0
LINE
8
BLACK
6
CONTINUOUS
10
6.25946
20
-3.2595
11
6.25942
21
-3.25937
0
LINE
8
BLACK
6
CONTINUOUS
10
6.25942
20
-3.25937
11
6.25932
21
-3.25929
0
LINE
8
BLACK
6
CONTINUOUS
10
6.25932
20
-3.25929
11
6.25916
21
-3.25841
0
LINE
8
BLACK
6
CONTINUOUS
10
6.25916
20
-3.25841
11
6.25893
21
-3.25755
0
LINE
8
BLACK
6
CONTINUOUS
10
6.25893
20
-3.25755
11
6.25899
21
-3.25743
0
LINE
8
BLACK
6
CONTINUOUS
10
6.25899
20
-3.25743
11
6.25897
21
-3.2573
0
LINE
8
BLACK
6
CONTINUOUS
10
6.25897
20
-3.2573
11
6.25941
21
-3.25653
0
LINE
8
BLACK
6
CONTINUOUS
10
6.25941
20
-3.25653
11
6.25979
21
-3.25572
0
LINE
8
BLACK
6
CONTINUOUS
10
6.25979
20
-3.25572
11
6.28179
21
-3.23372
0
LINE
8
BLACK
6
CONTINUOUS
10
6.28179
20
-3.23372
11
6.28329
21
-3.22921
0
LINE
8
BLACK
6
CONTINUOUS
10
6.28329
20
-3.22921
11
6.28329
21
-3.22664
0
LINE
8
BLACK
6
CONTINUOUS
10
6.28329
20
-3.22664
11
6.28195
21
-3.22394
0
LINE
8
BLACK
6
CONTINUOUS
10
6.28195
20
-3.22394
11
6.28075
21
-3.22274
0
LINE
8
BLACK
6
CONTINUOUS
10
6.28075
20
-3.22274
11
6.27805
21
-3.22139
0
LINE
8
BLACK
6
CONTINUOUS
10
6.27805
20
-3.22139
11
6.27007
21
-3.22139
0
LINE
8
BLACK
6
CONTINUOUS
10
6.27007
20
-3.22139
11
6.26737
21
-3.22274
0
LINE
8
BLACK
6
CONTINUOUS
10
6.26737
20
-3.22274
11
6.26584
21
-3.22428
0
LINE
8
BLACK
6
CONTINUOUS
10
6.26584
20
-3.22428
11
6.265
21
-3.22487
0
LINE
8
BLACK
6
CONTINUOUS
10
6.265
20
-3.22487
11
6.26299
21
-3.22504
0
LINE
8
BLACK
6
CONTINUOUS
10
6.26299
20
-3.22504
11
6.26133
21
-3.22388
0
LINE
8
BLACK
6
CONTINUOUS
10
6.26133
20
-3.22388
11
6.26081
21
-3.22193
0
LINE
8
BLACK
6
CONTINUOUS
10
6.26081
20
-3.22193
11
6.26166
21
-3.2201
0
LINE
8
BLACK
6
CONTINUOUS
10
6.26166
20
-3.2201
11
6.26354
21
-3.21823
0
LINE
8
BLACK
6
CONTINUOUS
10
6.26354
20
-3.21823
11
6.26426
21
-3.21772
0
LINE
8
BLACK
6
CONTINUOUS
10
6.26426
20
-3.21772
11
6.2643
21
-3.21767
0
LINE
8
BLACK
6
CONTINUOUS
10
6.2643
20
-3.21767
11
6.26805
21
-3.2158
0
LINE
8
BLACK
6
CONTINUOUS
10
6.26805
20
-3.2158
11
6.26904
21
-3.21551
0
LINE
8
BLACK
6
CONTINUOUS
10
6.26904
20
-3.21551
11
6.26921
21
-3.21555
0
LINE
8
BLACK
6
CONTINUOUS
10
6.26921
20
-3.21555
11
6.26937
21
-3.21549
0
LINE
8
BLACK
6
CONTINUOUS
10
6.26937
20
-3.21549
11
6.27875
21
-3.21549
0
LINE
8
BLACK
6
CONTINUOUS
10
6.27875
20
-3.21549
11
6.27976
21
-3.21567
0
LINE
8
BLACK
6
CONTINUOUS
10
6.24914
20
-3.21654
11
6.24983
21
-3.21844
0
LINE
8
BLACK
6
CONTINUOUS
10
6.24983
20
-3.21844
11
6.24983
21
-3.24656
0
LINE
8
BLACK
6
CONTINUOUS
10
6.24983
20
-3.24656
11
6.24968
21
-3.24743
0
LINE
8
BLACK
6
CONTINUOUS
10
6.24968
20
-3.24743
11
6.24968
21
-3.2475
0
LINE
8
BLACK
6
CONTINUOUS
10
6.24968
20
-3.2475
11
6.2478
21
-3.25312
0
LINE
8
BLACK
6
CONTINUOUS
10
6.2478
20
-3.25312
11
6.24731
21
-3.25402
0
LINE
8
BLACK
6
CONTINUOUS
10
6.24731
20
-3.25402
11
6.24716
21
-3.25411
0
LINE
8
BLACK
6
CONTINUOUS
10
6.24716
20
-3.25411
11
6.24709
21
-3.25427
0
LINE
8
BLACK
6
CONTINUOUS
10
6.24709
20
-3.25427
11
6.24334
21
-3.25802
0
LINE
8
BLACK
6
CONTINUOUS
10
6.24334
20
-3.25802
11
6.2425
21
-3.25861
0
LINE
8
BLACK
6
CONTINUOUS
10
6.2425
20
-3.25861
11
6.24232
21
-3.25863
0
LINE
8
BLACK
6
CONTINUOUS
10
6.24232
20
-3.25863
11
6.24219
21
-3.25874
0
LINE
8
BLACK
6
CONTINUOUS
10
6.24219
20
-3.25874
11
6.23656
21
-3.26061
0
LINE
8
BLACK
6
CONTINUOUS
10
6.23656
20
-3.26061
11
6.23569
21
-3.26074
0
LINE
8
BLACK
6
CONTINUOUS
10
6.23569
20
-3.26074
11
6.23563
21
-3.26076
0
LINE
8
BLACK
6
CONTINUOUS
10
6.23563
20
-3.26076
11
6.23188
21
-3.26076
0
LINE
8
BLACK
6
CONTINUOUS
10
6.23188
20
-3.26076
11
6.23087
21
-3.26058
0
LINE
8
BLACK
6
CONTINUOUS
10
6.23087
20
-3.26058
11
6.22932
21
-3.25929
0
LINE
8
BLACK
6
CONTINUOUS
10
6.22932
20
-3.25929
11
6.22897
21
-3.2573
0
LINE
8
BLACK
6
CONTINUOUS
10
6.22897
20
-3.2573
11
6.22998
21
-3.25555
0
LINE
8
BLACK
6
CONTINUOUS
10
6.22998
20
-3.25555
11
6.23188
21
-3.25486
0
LINE
8
BLACK
6
CONTINUOUS
10
6.23188
20
-3.25486
11
6.23515
21
-3.25486
0
LINE
8
BLACK
6
CONTINUOUS
10
6.23515
20
-3.25486
11
6.23966
21
-3.25335
0
LINE
8
BLACK
6
CONTINUOUS
10
6.23966
20
-3.25335
11
6.24242
21
-3.25059
0
LINE
8
BLACK
6
CONTINUOUS
10
6.24242
20
-3.25059
11
6.24392
21
-3.24608
0
LINE
8
BLACK
6
CONTINUOUS
10
6.24392
20
-3.24608
11
6.24392
21
-3.21844
0
LINE
8
BLACK
6
CONTINUOUS
10
6.24392
20
-3.21844
11
6.2441
21
-3.21743
0
LINE
8
BLACK
6
CONTINUOUS
10
6.2441
20
-3.21743
11
6.2454
21
-3.21588
0
LINE
8
BLACK
6
CONTINUOUS
10
6.2454
20
-3.21588
11
6.24739
21
-3.21553
0
LINE
8
BLACK
6
CONTINUOUS
10
6.24739
20
-3.21553
11
6.24914
21
-3.21654
0
LINE
8
BLACK
6
CONTINUOUS
10
6.20008
20
-3.06212
11
6.20022
21
-3.06224
0
LINE
8
BLACK
6
CONTINUOUS
10
6.20022
20
-3.06224
11
6.20039
21
-3.06226
0
LINE
8
BLACK
6
CONTINUOUS
10
6.20039
20
-3.06226
11
6.20414
21
-3.06413
0
LINE
8
BLACK
6
CONTINUOUS
10
6.20414
20
-3.06413
11
6.20485
21
-3.06466
0
LINE
8
BLACK
6
CONTINUOUS
10
6.20485
20
-3.06466
11
6.20491
21
-3.06468
0
LINE
8
BLACK
6
CONTINUOUS
10
6.20491
20
-3.06468
11
6.20678
21
-3.06656
0
LINE
8
BLACK
6
CONTINUOUS
10
6.20678
20
-3.06656
11
6.20729
21
-3.06728
0
LINE
8
BLACK
6
CONTINUOUS
10
6.20729
20
-3.06728
11
6.20734
21
-3.06733
0
LINE
8
BLACK
6
CONTINUOUS
10
6.20734
20
-3.06733
11
6.20921
21
-3.07108
0
LINE
8
BLACK
6
CONTINUOUS
10
6.20921
20
-3.07108
11
6.2095
21
-3.07206
0
LINE
8
BLACK
6
CONTINUOUS
10
6.2095
20
-3.07206
11
6.20946
21
-3.07223
0
LINE
8
BLACK
6
CONTINUOUS
10
6.20946
20
-3.07223
11
6.20952
21
-3.0724
0
LINE
8
BLACK
6
CONTINUOUS
10
6.20952
20
-3.0724
11
6.20952
21
-3.07615
0
LINE
8
BLACK
6
CONTINUOUS
10
6.20952
20
-3.07615
11
6.20934
21
-3.07716
0
LINE
8
BLACK
6
CONTINUOUS
10
6.20934
20
-3.07716
11
6.20923
21
-3.07729
0
LINE
8
BLACK
6
CONTINUOUS
10
6.20923
20
-3.07729
11
6.20921
21
-3.07747
0
LINE
8
BLACK
6
CONTINUOUS
10
6.20921
20
-3.07747
11
6.20734
21
-3.08122
0
LINE
8
BLACK
6
CONTINUOUS
10
6.20734
20
-3.08122
11
6.20681
21
-3.08192
0
LINE
8
BLACK
6
CONTINUOUS
10
6.20681
20
-3.08192
11
6.20678
21
-3.08198
0
LINE
8
BLACK
6
CONTINUOUS
10
6.20678
20
-3.08198
11
6.2059
21
-3.08287
0
LINE
8
BLACK
6
CONTINUOUS
10
6.2059
20
-3.08287
11
6.20653
21
-3.08321
0
LINE
8
BLACK
6
CONTINUOUS
10
6.20653
20
-3.08321
11
6.20662
21
-3.08336
0
LINE
8
BLACK
6
CONTINUOUS
10
6.20662
20
-3.08336
11
6.20678
21
-3.08343
0
LINE
8
BLACK
6
CONTINUOUS
10
6.20678
20
-3.08343
11
6.20866
21
-3.08531
0
LINE
8
BLACK
6
CONTINUOUS
10
6.20866
20
-3.08531
11
6.20916
21
-3.08603
0
LINE
8
BLACK
6
CONTINUOUS
10
6.20916
20
-3.08603
11
6.20921
21
-3.08607
0
LINE
8
BLACK
6
CONTINUOUS
10
6.20921
20
-3.08607
11
6.21108
21
-3.08982
0
LINE
8
BLACK
6
CONTINUOUS
10
6.21108
20
-3.08982
11
6.21138
21
-3.09081
0
LINE
8
BLACK
6
CONTINUOUS
10
6.21138
20
-3.09081
11
6.21134
21
-3.09098
0
LINE
8
BLACK
6
CONTINUOUS
10
6.21134
20
-3.09098
11
6.2114
21
-3.09114
0
LINE
8
BLACK
6
CONTINUOUS
10
6.2114
20
-3.09114
11
6.2114
21
-3.09677
0
LINE
8
BLACK
6
CONTINUOUS
10
6.2114
20
-3.09677
11
6.21122
21
-3.09778
0
LINE
8
BLACK
6
CONTINUOUS
10
6.21122
20
-3.09778
11
6.21111
21
-3.09791
0
LINE
8
BLACK
6
CONTINUOUS
10
6.21111
20
-3.09791
11
6.21108
21
-3.09809
0
LINE
8
BLACK
6
CONTINUOUS
10
6.21108
20
-3.09809
11
6.20921
21
-3.10184
0
LINE
8
BLACK
6
CONTINUOUS
10
6.20921
20
-3.10184
11
6.20868
21
-3.10255
0
LINE
8
BLACK
6
CONTINUOUS
10
6.20868
20
-3.10255
11
6.20866
21
-3.10261
0
LINE
8
BLACK
6
CONTINUOUS
10
6.20866
20
-3.10261
11
6.20678
21
-3.10448
0
LINE
8
BLACK
6
CONTINUOUS
10
6.20678
20
-3.10448
11
6.20606
21
-3.10499
0
LINE
8
BLACK
6
CONTINUOUS
10
6.20606
20
-3.10499
11
6.20601
21
-3.10503
0
LINE
8
BLACK
6
CONTINUOUS
10
6.20601
20
-3.10503
11
6.20227
21
-3.10691
0
LINE
8
BLACK
6
CONTINUOUS
10
6.20227
20
-3.10691
11
6.20128
21
-3.1072
0
LINE
8
BLACK
6
CONTINUOUS
10
6.20128
20
-3.1072
11
6.20111
21
-3.10716
0
LINE
8
BLACK
6
CONTINUOUS
10
6.20111
20
-3.10716
11
6.20094
21
-3.10722
0
LINE
8
BLACK
6
CONTINUOUS
10
6.20094
20
-3.10722
11
6.18595
21
-3.10722
0
LINE
8
BLACK
6
CONTINUOUS
10
6.18595
20
-3.10722
11
6.18556
21
-3.10715
0
LINE
8
BLACK
6
CONTINUOUS
10
6.18556
20
-3.10715
11
6.18543
21
-3.10717
0
LINE
8
BLACK
6
CONTINUOUS
10
6.18543
20
-3.10717
11
6.18532
21
-3.10711
0
LINE
8
BLACK
6
CONTINUOUS
10
6.18532
20
-3.10711
11
6.18494
21
-3.10704
0
LINE
8
BLACK
6
CONTINUOUS
10
6.18494
20
-3.10704
11
6.18435
21
-3.10655
0
LINE
8
BLACK
6
CONTINUOUS
10
6.18435
20
-3.10655
11
6.18368
21
-3.10616
0
LINE
8
BLACK
6
CONTINUOUS
10
6.18368
20
-3.10616
11
6.18359
21
-3.10591
0
LINE
8
BLACK
6
CONTINUOUS
10
6.18359
20
-3.10591
11
6.18339
21
-3.10574
0
LINE
8
BLACK
6
CONTINUOUS
10
6.18339
20
-3.10574
11
6.18326
21
-3.10499
0
LINE
8
BLACK
6
CONTINUOUS
10
6.18326
20
-3.10499
11
6.18299
21
-3.10427
0
LINE
8
BLACK
6
CONTINUOUS
10
6.18299
20
-3.10427
11
6.18299
21
-3.0649
0
LINE
8
BLACK
6
CONTINUOUS
10
6.18299
20
-3.0649
11
6.18306
21
-3.06451
0
LINE
8
BLACK
6
CONTINUOUS
10
6.18306
20
-3.06451
11
6.18304
21
-3.06438
0
LINE
8
BLACK
6
CONTINUOUS
10
6.18304
20
-3.06438
11
6.1831
21
-3.06427
0
LINE
8
BLACK
6
CONTINUOUS
10
6.1831
20
-3.06427
11
6.18317
21
-3.06389
0
LINE
8
BLACK
6
CONTINUOUS
10
6.18317
20
-3.06389
11
6.18367
21
-3.0633
0
LINE
8
BLACK
6
CONTINUOUS
10
6.18367
20
-3.0633
11
6.18405
21
-3.06263
0
LINE
8
BLACK
6
CONTINUOUS
10
6.18405
20
-3.06263
11
6.1843
21
-3.06254
0
LINE
8
BLACK
6
CONTINUOUS
10
6.1843
20
-3.06254
11
6.18447
21
-3.06234
0
LINE
8
BLACK
6
CONTINUOUS
10
6.18447
20
-3.06234
11
6.18523
21
-3.06221
0
LINE
8
BLACK
6
CONTINUOUS
10
6.18523
20
-3.06221
11
6.18595
21
-3.06194
0
LINE
8
BLACK
6
CONTINUOUS
10
6.18595
20
-3.06194
11
6.19907
21
-3.06194
0
LINE
8
BLACK
6
CONTINUOUS
10
6.19907
20
-3.06194
11
6.20008
21
-3.06212
0
LINE
8
BLACK
6
CONTINUOUS
10
6.1889
20
-3.0866
11
6.1889
21
-3.10131
0
LINE
8
BLACK
6
CONTINUOUS
10
6.1889
20
-3.10131
11
6.20025
21
-3.10131
0
LINE
8
BLACK
6
CONTINUOUS
10
6.20025
20
-3.10131
11
6.20295
21
-3.09997
0
LINE
8
BLACK
6
CONTINUOUS
10
6.20295
20
-3.09997
11
6.20414
21
-3.09877
0
LINE
8
BLACK
6
CONTINUOUS
10
6.20414
20
-3.09877
11
6.20549
21
-3.09607
0
LINE
8
BLACK
6
CONTINUOUS
10
6.20549
20
-3.09607
11
6.20549
21
-3.09184
0
LINE
8
BLACK
6
CONTINUOUS
10
6.20549
20
-3.09184
11
6.20414
21
-3.08914
0
LINE
8
BLACK
6
CONTINUOUS
10
6.20414
20
-3.08914
11
6.2031
21
-3.0881
0
LINE
8
BLACK
6
CONTINUOUS
10
6.2031
20
-3.0881
11
6.19859
21
-3.0866
0
LINE
8
BLACK
6
CONTINUOUS
10
6.19859
20
-3.0866
11
6.1889
21
-3.0866
0
LINE
8
BLACK
6
CONTINUOUS
10
6.1889
20
-3.06785
11
6.1889
21
-3.08069
0
LINE
8
BLACK
6
CONTINUOUS
10
6.1889
20
-3.08069
11
6.19837
21
-3.08069
0
LINE
8
BLACK
6
CONTINUOUS
10
6.19837
20
-3.08069
11
6.20107
21
-3.07934
0
LINE
8
BLACK
6
CONTINUOUS
10
6.20107
20
-3.07934
11
6.20227
21
-3.07815
0
LINE
8
BLACK
6
CONTINUOUS
10
6.20227
20
-3.07815
11
6.20362
21
-3.07545
0
LINE
8
BLACK
6
CONTINUOUS
10
6.20362
20
-3.07545
11
6.20362
21
-3.07309
0
LINE
8
BLACK
6
CONTINUOUS
10
6.20362
20
-3.07309
11
6.20227
21
-3.0704
0
LINE
8
BLACK
6
CONTINUOUS
10
6.20227
20
-3.0704
11
6.20107
21
-3.0692
0
LINE
8
BLACK
6
CONTINUOUS
10
6.20107
20
-3.0692
11
6.19837
21
-3.06785
0
LINE
8
BLACK
6
CONTINUOUS
10
6.19837
20
-3.06785
11
6.1889
21
-3.06785
0
LINE
8
BLACK
6
CONTINUOUS
10
6.37054
20
-3.0621
11
6.37061
21
-3.0621
0
LINE
8
BLACK
6
CONTINUOUS
10
6.37061
20
-3.0621
11
6.37623
21
-3.06397
0
LINE
8
BLACK
6
CONTINUOUS
10
6.37623
20
-3.06397
11
6.37713
21
-3.06446
0
LINE
8
BLACK
6
CONTINUOUS
10
6.37713
20
-3.06446
11
6.37819
21
-3.06618
0
LINE
8
BLACK
6
CONTINUOUS
10
6.37819
20
-3.06618
11
6.37789
21
-3.06818
0
LINE
8
BLACK
6
CONTINUOUS
10
6.37789
20
-3.06818
11
6.37638
21
-3.06952
0
LINE
8
BLACK
6
CONTINUOUS
10
6.37638
20
-3.06952
11
6.37436
21
-3.06957
0
LINE
8
BLACK
6
CONTINUOUS
10
6.37436
20
-3.06957
11
6.36919
21
-3.06785
0
LINE
8
BLACK
6
CONTINUOUS
10
6.36919
20
-3.06785
11
6.361
21
-3.06785
0
LINE
8
BLACK
6
CONTINUOUS
10
6.361
20
-3.06785
11
6.3583
21
-3.0692
0
LINE
8
BLACK
6
CONTINUOUS
10
6.3583
20
-3.0692
11
6.3571
21
-3.0704
0
LINE
8
BLACK
6
CONTINUOUS
10
6.3571
20
-3.0704
11
6.35575
21
-3.07309
0
LINE
8
BLACK
6
CONTINUOUS
10
6.35575
20
-3.07309
11
6.35575
21
-3.07545
0
LINE
8
BLACK
6
CONTINUOUS
10
6.35575
20
-3.07545
11
6.3571
21
-3.07815
0
LINE
8
BLACK
6
CONTINUOUS
10
6.3571
20
-3.07815
11
6.3583
21
-3.07934
0
LINE
8
BLACK
6
CONTINUOUS
10
6.3583
20
-3.07934
11
6.36133
21
-3.08086
0
LINE
8
BLACK
6
CONTINUOUS
10
6.36133
20
-3.08086
11
6.36852
21
-3.08265
0
LINE
8
BLACK
6
CONTINUOUS
10
6.36852
20
-3.08265
11
6.36898
21
-3.08286
0
LINE
8
BLACK
6
CONTINUOUS
10
6.36898
20
-3.08286
11
6.36912
21
-3.08288
0
LINE
8
BLACK
6
CONTINUOUS
10
6.36912
20
-3.08288
11
6.37287
21
-3.08475
0
LINE
8
BLACK
6
CONTINUOUS
10
6.37287
20
-3.08475
11
6.37358
21
-3.08528
0
LINE
8
BLACK
6
CONTINUOUS
10
6.37358
20
-3.08528
11
6.37364
21
-3.08531
0
LINE
8
BLACK
6
CONTINUOUS
10
6.37364
20
-3.08531
11
6.37551
21
-3.08718
0
LINE
8
BLACK
6
CONTINUOUS
10
6.37551
20
-3.08718
11
6.37602
21
-3.0879
0
LINE
8
BLACK
6
CONTINUOUS
10
6.37602
20
-3.0879
11
6.37606
21
-3.08795
0
LINE
8
BLACK
6
CONTINUOUS
10
6.37606
20
-3.08795
11
6.37794
21
-3.0917
0
LINE
8
BLACK
6
CONTINUOUS
10
6.37794
20
-3.0917
11
6.37823
21
-3.09268
0
LINE
8
BLACK
6
CONTINUOUS
10
6.37823
20
-3.09268
11
6.37819
21
-3.09285
0
LINE
8
BLACK
6
CONTINUOUS
10
6.37819
20
-3.09285
11
6.37825
21
-3.09302
0
LINE
8
BLACK
6
CONTINUOUS
10
6.37825
20
-3.09302
11
6.37825
21
-3.09677
0
LINE
8
BLACK
6
CONTINUOUS
10
6.37825
20
-3.09677
11
6.37807
21
-3.09778
0
LINE
8
BLACK
6
CONTINUOUS
10
6.37807
20
-3.09778
11
6.37796
21
-3.09791
0
LINE
8
BLACK
6
CONTINUOUS
10
6.37796
20
-3.09791
11
6.37794
21
-3.09809
0
LINE
8
BLACK
6
CONTINUOUS
10
6.37794
20
-3.09809
11
6.37606
21
-3.10184
0
LINE
8
BLACK
6
CONTINUOUS
10
6.37606
20
-3.10184
11
6.37554
21
-3.10255
0
LINE
8
BLACK
6
CONTINUOUS
10
6.37554
20
-3.10255
11
6.37551
21
-3.10261
0
LINE
8
BLACK
6
CONTINUOUS
10
6.37551
20
-3.10261
11
6.37364
21
-3.10448
0
LINE
8
BLACK
6
CONTINUOUS
10
6.37364
20
-3.10448
11
6.37291
21
-3.10499
0
LINE
8
BLACK
6
CONTINUOUS
10
6.37291
20
-3.10499
11
6.37287
21
-3.10503
0
LINE
8
BLACK
6
CONTINUOUS
10
6.37287
20
-3.10503
11
6.36912
21
-3.10691
0
LINE
8
BLACK
6
CONTINUOUS
10
6.36912
20
-3.10691
11
6.36814
21
-3.1072
0
LINE
8
BLACK
6
CONTINUOUS
10
6.36814
20
-3.1072
11
6.36796
21
-3.10716
0
LINE
8
BLACK
6
CONTINUOUS
10
6.36796
20
-3.10716
11
6.3678
21
-3.10722
0
LINE
8
BLACK
6
CONTINUOUS
10
6.3678
20
-3.10722
11
6.35843
21
-3.10722
0
LINE
8
BLACK
6
CONTINUOUS
10
6.35843
20
-3.10722
11
6.35756
21
-3.10707
0
LINE
8
BLACK
6
CONTINUOUS
10
6.35756
20
-3.10707
11
6.35749
21
-3.10707
0
LINE
8
BLACK
6
CONTINUOUS
10
6.35749
20
-3.10707
11
6.35187
21
-3.10519
0
LINE
8
BLACK
6
CONTINUOUS
10
6.35187
20
-3.10519
11
6.35097
21
-3.10471
0
LINE
8
BLACK
6
CONTINUOUS
10
6.35097
20
-3.10471
11
6.34991
21
-3.10298
0
LINE
8
BLACK
6
CONTINUOUS
10
6.34991
20
-3.10298
11
6.3502
21
-3.10099
0
LINE
8
BLACK
6
CONTINUOUS
10
6.3502
20
-3.10099
11
6.35172
21
-3.09965
0
LINE
8
BLACK
6
CONTINUOUS
10
6.35172
20
-3.09965
11
6.35373
21
-3.09959
0
LINE
8
BLACK
6
CONTINUOUS
10
6.35373
20
-3.09959
11
6.3589
21
-3.10131
0
LINE
8
BLACK
6
CONTINUOUS
10
6.3589
20
-3.10131
11
6.3671
21
-3.10131
0
LINE
8
BLACK
6
CONTINUOUS
10
6.3671
20
-3.10131
11
6.3698
21
-3.09997
0
LINE
8
BLACK
6
CONTINUOUS
10
6.3698
20
-3.09997
11
6.371
21
-3.09877
0
LINE
8
BLACK
6
CONTINUOUS
10
6.371
20
-3.09877
11
6.37235
21
-3.09607
0
LINE
8
BLACK
6
CONTINUOUS
10
6.37235
20
-3.09607
11
6.37235
21
-3.09372
0
LINE
8
BLACK
6
CONTINUOUS
10
6.37235
20
-3.09372
11
6.371
21
-3.09102
0
LINE
8
BLACK
6
CONTINUOUS
10
6.371
20
-3.09102
11
6.3698
21
-3.08982
0
LINE
8
BLACK
6
CONTINUOUS
10
6.3698
20
-3.08982
11
6.36677
21
-3.08831
0
LINE
8
BLACK
6
CONTINUOUS
10
6.36677
20
-3.08831
11
6.35958
21
-3.08651
0
LINE
8
BLACK
6
CONTINUOUS
10
6.35958
20
-3.08651
11
6.35912
21
-3.0863
0
LINE
8
BLACK
6
CONTINUOUS
10
6.35912
20
-3.0863
11
6.35898
21
-3.08629
0
LINE
8
BLACK
6
CONTINUOUS
10
6.35898
20
-3.08629
11
6.35523
21
-3.08441
0
LINE
8
BLACK
6
CONTINUOUS
10
6.35523
20
-3.08441
11
6.35452
21
-3.08388
0
LINE
8
BLACK
6
CONTINUOUS
10
6.35452
20
-3.08388
11
6.35446
21
-3.08386
0
LINE
8
BLACK
6
CONTINUOUS
10
6.35446
20
-3.08386
11
6.35259
21
-3.08198
0
LINE
8
BLACK
6
CONTINUOUS
10
6.35259
20
-3.08198
11
6.35208
21
-3.08126
0
LINE
8
BLACK
6
CONTINUOUS
10
6.35208
20
-3.08126
11
6.35203
21
-3.08122
0
LINE
8
BLACK
6
CONTINUOUS
10
6.35203
20
-3.08122
11
6.35016
21
-3.07747
0
LINE
8
BLACK
6
CONTINUOUS
10
6.35016
20
-3.07747
11
6.34987
21
-3.07648
0
LINE
8
BLACK
6
CONTINUOUS
10
6.34987
20
-3.07648
11
6.34991
21
-3.07631
0
LINE
8
BLACK
6
CONTINUOUS
10
6.34991
20
-3.07631
11
6.34985
21
-3.07615
0
LINE
8
BLACK
6
CONTINUOUS
10
6.34985
20
-3.07615
11
6.34985
21
-3.0724
0
LINE
8
BLACK
6
CONTINUOUS
10
6.34985
20
-3.0724
11
6.35003
21
-3.07139
0
LINE
8
BLACK
6
CONTINUOUS
10
6.35003
20
-3.07139
11
6.35014
21
-3.07125
0
LINE
8
BLACK
6
CONTINUOUS
10
6.35014
20
-3.07125
11
6.35016
21
-3.07108
0
LINE
8
BLACK
6
CONTINUOUS
10
6.35016
20
-3.07108
11
6.35203
21
-3.06733
0
LINE
8
BLACK
6
CONTINUOUS
10
6.35203
20
-3.06733
11
6.35256
21
-3.06662
0
LINE
8
BLACK
6
CONTINUOUS
10
6.35256
20
-3.06662
11
6.35259
21
-3.06656
0
LINE
8
BLACK
6
CONTINUOUS
10
6.35259
20
-3.06656
11
6.35446
21
-3.06468
0
LINE
8
BLACK
6
CONTINUOUS
10
6.35446
20
-3.06468
11
6.35519
21
-3.06418
0
LINE
8
BLACK
6
CONTINUOUS
10
6.35519
20
-3.06418
11
6.35523
21
-3.06413
0
LINE
8
BLACK
6
CONTINUOUS
10
6.35523
20
-3.06413
11
6.35898
21
-3.06226
0
LINE
8
BLACK
6
CONTINUOUS
10
6.35898
20
-3.06226
11
6.35996
21
-3.06196
0
LINE
8
BLACK
6
CONTINUOUS
10
6.35996
20
-3.06196
11
6.36013
21
-3.062
0
LINE
8
BLACK
6
CONTINUOUS
10
6.36013
20
-3.062
11
6.3603
21
-3.06194
0
LINE
8
BLACK
6
CONTINUOUS
10
6.3603
20
-3.06194
11
6.36967
21
-3.06194
0
LINE
8
BLACK
6
CONTINUOUS
10
6.36967
20
-3.06194
11
6.37054
21
-3.0621
0
LINE
8
BLACK
6
CONTINUOUS
10
6.48504
20
-3.06212
11
6.48518
21
-3.06224
0
LINE
8
BLACK
6
CONTINUOUS
10
6.48518
20
-3.06224
11
6.48536
21
-3.06226
0
LINE
8
BLACK
6
CONTINUOUS
10
6.48536
20
-3.06226
11
6.4891
21
-3.06413
0
LINE
8
BLACK
6
CONTINUOUS
10
6.4891
20
-3.06413
11
6.48981
21
-3.06466
0
LINE
8
BLACK
6
CONTINUOUS
10
6.48981
20
-3.06466
11
6.48987
21
-3.06468
0
LINE
8
BLACK
6
CONTINUOUS
10
6.48987
20
-3.06468
11
6.49175
21
-3.06656
0
LINE
8
BLACK
6
CONTINUOUS
10
6.49175
20
-3.06656
11
6.49225
21
-3.06728
0
LINE
8
BLACK
6
CONTINUOUS
10
6.49225
20
-3.06728
11
6.4923
21
-3.06733
0
LINE
8
BLACK
6
CONTINUOUS
10
6.4923
20
-3.06733
11
6.49417
21
-3.07108
0
LINE
8
BLACK
6
CONTINUOUS
10
6.49417
20
-3.07108
11
6.49447
21
-3.07206
0
LINE
8
BLACK
6
CONTINUOUS
10
6.49447
20
-3.07206
11
6.49443
21
-3.07223
0
LINE
8
BLACK
6
CONTINUOUS
10
6.49443
20
-3.07223
11
6.49449
21
-3.0724
0
LINE
8
BLACK
6
CONTINUOUS
10
6.49449
20
-3.0724
11
6.49449
21
-3.07615
0
LINE
8
BLACK
6
CONTINUOUS
10
6.49449
20
-3.07615
11
6.49431
21
-3.07716
0
LINE
8
BLACK
6
CONTINUOUS
10
6.49431
20
-3.07716
11
6.49419
21
-3.07729
0
LINE
8
BLACK
6
CONTINUOUS
10
6.49419
20
-3.07729
11
6.49417
21
-3.07747
0
LINE
8
BLACK
6
CONTINUOUS
10
6.49417
20
-3.07747
11
6.4923
21
-3.08122
0
LINE
8
BLACK
6
CONTINUOUS
10
6.4923
20
-3.08122
11
6.49177
21
-3.08192
0
LINE
8
BLACK
6
CONTINUOUS
10
6.49177
20
-3.08192
11
6.49175
21
-3.08198
0
LINE
8
BLACK
6
CONTINUOUS
10
6.49175
20
-3.08198
11
6.49086
21
-3.08287
0
LINE
8
BLACK
6
CONTINUOUS
10
6.49086
20
-3.08287
11
6.49149
21
-3.08321
0
LINE
8
BLACK
6
CONTINUOUS
10
6.49149
20
-3.08321
11
6.49159
21
-3.08336
0
LINE
8
BLACK
6
CONTINUOUS
10
6.49159
20
-3.08336
11
6.49175
21
-3.08343
0
LINE
8
BLACK
6
CONTINUOUS
10
6.49175
20
-3.08343
11
6.49362
21
-3.08531
0
LINE
8
BLACK
6
CONTINUOUS
10
6.49362
20
-3.08531
11
6.49413
21
-3.08603
0
LINE
8
BLACK
6
CONTINUOUS
10
6.49413
20
-3.08603
11
6.49417
21
-3.08607
0
LINE
8
BLACK
6
CONTINUOUS
10
6.49417
20
-3.08607
11
6.49605
21
-3.08982
0
LINE
8
BLACK
6
CONTINUOUS
10
6.49605
20
-3.08982
11
6.49634
21
-3.09081
0
LINE
8
BLACK
6
CONTINUOUS
10
6.49634
20
-3.09081
11
6.4963
21
-3.09098
0
LINE
8
BLACK
6
CONTINUOUS
10
6.4963
20
-3.09098
11
6.49636
21
-3.09114
0
LINE
8
BLACK
6
CONTINUOUS
10
6.49636
20
-3.09114
11
6.49636
21
-3.09677
0
LINE
8
BLACK
6
CONTINUOUS
10
6.49636
20
-3.09677
11
6.49618
21
-3.09778
0
LINE
8
BLACK
6
CONTINUOUS
10
6.49618
20
-3.09778
11
6.49607
21
-3.09791
0
LINE
8
BLACK
6
CONTINUOUS
10
6.49607
20
-3.09791
11
6.49605
21
-3.09809
0
LINE
8
BLACK
6
CONTINUOUS
10
6.49605
20
-3.09809
11
6.49417
21
-3.10184
0
LINE
8
BLACK
6
CONTINUOUS
10
6.49417
20
-3.10184
11
6.49365
21
-3.10255
0
LINE
8
BLACK
6
CONTINUOUS
10
6.49365
20
-3.10255
11
6.49362
21
-3.10261
0
LINE
8
BLACK
6
CONTINUOUS
10
6.49362
20
-3.10261
11
6.49175
21
-3.10448
0
LINE
8
BLACK
6
CONTINUOUS
10
6.49175
20
-3.10448
11
6.49102
21
-3.10499
0
LINE
8
BLACK
6
CONTINUOUS
10
6.49102
20
-3.10499
11
6.49098
21
-3.10503
0
LINE
8
BLACK
6
CONTINUOUS
10
6.49098
20
-3.10503
11
6.48723
21
-3.10691
0
LINE
8
BLACK
6
CONTINUOUS
10
6.48723
20
-3.10691
11
6.48625
21
-3.1072
0
LINE
8
BLACK
6
CONTINUOUS
10
6.48625
20
-3.1072
11
6.48608
21
-3.10716
0
LINE
8
BLACK
6
CONTINUOUS
10
6.48608
20
-3.10716
11
6.48591
21
-3.10722
0
LINE
8
BLACK
6
CONTINUOUS
10
6.48591
20
-3.10722
11
6.47091
21
-3.10722
0
LINE
8
BLACK
6
CONTINUOUS
10
6.47091
20
-3.10722
11
6.47053
21
-3.10715
0
LINE
8
BLACK
6
CONTINUOUS
10
6.47053
20
-3.10715
11
6.4704
21
-3.10717
0
LINE
8
BLACK
6
CONTINUOUS
10
6.4704
20
-3.10717
11
6.47028
21
-3.10711
0
LINE
8
BLACK
6
CONTINUOUS
10
6.47028
20
-3.10711
11
6.4699
21
-3.10704
0
LINE
8
BLACK
6
CONTINUOUS
10
6.4699
20
-3.10704
11
6.46931
21
-3.10655
0
LINE
8
BLACK
6
CONTINUOUS
10
6.46931
20
-3.10655
11
6.46865
21
-3.10616
0
LINE
8
BLACK
6
CONTINUOUS
10
6.46865
20
-3.10616
11
6.46856
21
-3.10591
0
LINE
8
BLACK
6
CONTINUOUS
10
6.46856
20
-3.10591
11
6.46835
21
-3.10574
0
LINE
8
BLACK
6
CONTINUOUS
10
6.46835
20
-3.10574
11
6.46822
21
-3.10499
0
LINE
8
BLACK
6
CONTINUOUS
10
6.46822
20
-3.10499
11
6.46796
21
-3.10427
0
LINE
8
BLACK
6
CONTINUOUS
10
6.46796
20
-3.10427
11
6.46796
21
-3.0649
0
LINE
8
BLACK
6
CONTINUOUS
10
6.46796
20
-3.0649
11
6.46803
21
-3.06451
0
LINE
8
BLACK
6
CONTINUOUS
10
6.46803
20
-3.06451
11
6.468
21
-3.06438
0
LINE
8
BLACK
6
CONTINUOUS
10
6.468
20
-3.06438
11
6.46807
21
-3.06427
0
LINE
8
BLACK
6
CONTINUOUS
10
6.46807
20
-3.06427
11
6.46814
21
-3.06389
0
LINE
8
BLACK
6
CONTINUOUS
10
6.46814
20
-3.06389
11
6.46863
21
-3.0633
0
LINE
8
BLACK
6
CONTINUOUS
10
6.46863
20
-3.0633
11
6.46901
21
-3.06263
0
LINE
8
BLACK
6
CONTINUOUS
10
6.46901
20
-3.06263
11
6.46926
21
-3.06254
0
LINE
8
BLACK
6
CONTINUOUS
10
6.46926
20
-3.06254
11
6.46943
21
-3.06234
0
LINE
8
BLACK
6
CONTINUOUS
10
6.46943
20
-3.06234
11
6.47019
21
-3.06221
0
LINE
8
BLACK
6
CONTINUOUS
10
6.47019
20
-3.06221
11
6.47091
21
-3.06194
0
LINE
8
BLACK
6
CONTINUOUS
10
6.47091
20
-3.06194
11
6.48403
21
-3.06194
0
LINE
8
BLACK
6
CONTINUOUS
10
6.48403
20
-3.06194
11
6.48504
21
-3.06212
0
LINE
8
BLACK
6
CONTINUOUS
10
6.47386
20
-3.0866
11
6.47386
21
-3.10131
0
LINE
8
BLACK
6
CONTINUOUS
10
6.47386
20
-3.10131
11
6.48521
21
-3.10131
0
LINE
8
BLACK
6
CONTINUOUS
10
6.48521
20
-3.10131
11
6.48791
21
-3.09997
0
LINE
8
BLACK
6
CONTINUOUS
10
6.48791
20
-3.09997
11
6.48911
21
-3.09877
0
LINE
8
BLACK
6
CONTINUOUS
10
6.48911
20
-3.09877
11
6.49046
21
-3.09607
0
LINE
8
BLACK
6
CONTINUOUS
10
6.49046
20
-3.09607
11
6.49046
21
-3.09184
0
LINE
8
BLACK
6
CONTINUOUS
10
6.49046
20
-3.09184
11
6.48911
21
-3.08914
0
LINE
8
BLACK
6
CONTINUOUS
10
6.48911
20
-3.08914
11
6.48806
21
-3.0881
0
LINE
8
BLACK
6
CONTINUOUS
10
6.48806
20
-3.0881
11
6.48356
21
-3.0866
0
LINE
8
BLACK
6
CONTINUOUS
10
6.48356
20
-3.0866
11
6.47386
21
-3.0866
0
LINE
8
BLACK
6
CONTINUOUS
10
6.47386
20
-3.06785
11
6.47386
21
-3.08069
0
LINE
8
BLACK
6
CONTINUOUS
10
6.47386
20
-3.08069
11
6.48334
21
-3.08069
0
LINE
8
BLACK
6
CONTINUOUS
10
6.48334
20
-3.08069
11
6.48603
21
-3.07934
0
LINE
8
BLACK
6
CONTINUOUS
10
6.48603
20
-3.07934
11
6.48723
21
-3.07815
0
LINE
8
BLACK
6
CONTINUOUS
10
6.48723
20
-3.07815
11
6.48858
21
-3.07545
0
LINE
8
BLACK
6
CONTINUOUS
10
6.48858
20
-3.07545
11
6.48858
21
-3.07309
0
LINE
8
BLACK
6
CONTINUOUS
10
6.48858
20
-3.07309
11
6.48723
21
-3.0704
0
LINE
8
BLACK
6
CONTINUOUS
10
6.48723
20
-3.0704
11
6.48603
21
-3.0692
0
LINE
8
BLACK
6
CONTINUOUS
10
6.48603
20
-3.0692
11
6.48334
21
-3.06785
0
LINE
8
BLACK
6
CONTINUOUS
10
6.48334
20
-3.06785
11
6.47386
21
-3.06785
0
LINE
8
BLACK
6
CONTINUOUS
10
6.29194
20
-3.06212
11
6.29208
21
-3.06224
0
LINE
8
BLACK
6
CONTINUOUS
10
6.29208
20
-3.06224
11
6.29225
21
-3.06226
0
LINE
8
BLACK
6
CONTINUOUS
10
6.29225
20
-3.06226
11
6.296
21
-3.06413
0
LINE
8
BLACK
6
CONTINUOUS
10
6.296
20
-3.06413
11
6.29683
21
-3.06474
0
LINE
8
BLACK
6
CONTINUOUS
10
6.29683
20
-3.06474
11
6.29763
21
-3.06659
0
LINE
8
BLACK
6
CONTINUOUS
10
6.29763
20
-3.06659
11
6.29705
21
-3.06853
0
LINE
8
BLACK
6
CONTINUOUS
10
6.29705
20
-3.06853
11
6.29537
21
-3.06964
0
LINE
8
BLACK
6
CONTINUOUS
10
6.29537
20
-3.06964
11
6.29336
21
-3.06941
0
LINE
8
BLACK
6
CONTINUOUS
10
6.29336
20
-3.06941
11
6.29024
21
-3.06785
0
LINE
8
BLACK
6
CONTINUOUS
10
6.29024
20
-3.06785
11
6.28579
21
-3.06785
0
LINE
8
BLACK
6
CONTINUOUS
10
6.28579
20
-3.06785
11
6.28128
21
-3.06935
0
LINE
8
BLACK
6
CONTINUOUS
10
6.28128
20
-3.06935
11
6.27836
21
-3.07227
0
LINE
8
BLACK
6
CONTINUOUS
10
6.27836
20
-3.07227
11
6.27685
21
-3.0753
0
LINE
8
BLACK
6
CONTINUOUS
10
6.27685
20
-3.0753
11
6.27514
21
-3.08213
0
LINE
8
BLACK
6
CONTINUOUS
10
6.27514
20
-3.08213
11
6.27514
21
-3.08703
0
LINE
8
BLACK
6
CONTINUOUS
10
6.27514
20
-3.08703
11
6.27685
21
-3.09386
0
LINE
8
BLACK
6
CONTINUOUS
10
6.27685
20
-3.09386
11
6.27836
21
-3.09689
0
LINE
8
BLACK
6
CONTINUOUS
10
6.27836
20
-3.09689
11
6.28128
21
-3.09981
0
LINE
8
BLACK
6
CONTINUOUS
10
6.28128
20
-3.09981
11
6.28579
21
-3.10131
0
LINE
8
BLACK
6
CONTINUOUS
10
6.28579
20
-3.10131
11
6.28858
21
-3.10131
0
LINE
8
BLACK
6
CONTINUOUS
10
6.28858
20
-3.10131
11
6.29309
21
-3.09981
0
LINE
8
BLACK
6
CONTINUOUS
10
6.29309
20
-3.09981
11
6.29361
21
-3.09929
0
LINE
8
BLACK
6
CONTINUOUS
10
6.29361
20
-3.09929
11
6.29361
21
-3.09035
0
LINE
8
BLACK
6
CONTINUOUS
10
6.29361
20
-3.09035
11
6.28906
21
-3.09035
0
LINE
8
BLACK
6
CONTINUOUS
10
6.28906
20
-3.09035
11
6.28805
21
-3.09017
0
LINE
8
BLACK
6
CONTINUOUS
10
6.28805
20
-3.09017
11
6.2865
21
-3.08887
0
LINE
8
BLACK
6
CONTINUOUS
10
6.2865
20
-3.08887
11
6.28615
21
-3.08688
0
LINE
8
BLACK
6
CONTINUOUS
10
6.28615
20
-3.08688
11
6.28716
21
-3.08513
0
LINE
8
BLACK
6
CONTINUOUS
10
6.28716
20
-3.08513
11
6.28906
21
-3.08444
0
LINE
8
BLACK
6
CONTINUOUS
10
6.28906
20
-3.08444
11
6.29656
21
-3.08444
0
LINE
8
BLACK
6
CONTINUOUS
10
6.29656
20
-3.08444
11
6.29694
21
-3.08451
0
LINE
8
BLACK
6
CONTINUOUS
10
6.29694
20
-3.08451
11
6.29707
21
-3.08449
0
LINE
8
BLACK
6
CONTINUOUS
10
6.29707
20
-3.08449
11
6.29718
21
-3.08455
0
LINE
8
BLACK
6
CONTINUOUS
10
6.29718
20
-3.08455
11
6.29757
21
-3.08462
0
LINE
8
BLACK
6
CONTINUOUS
10
6.29757
20
-3.08462
11
6.29816
21
-3.08511
0
LINE
8
BLACK
6
CONTINUOUS
10
6.29816
20
-3.08511
11
6.29882
21
-3.0855
0
LINE
8
BLACK
6
CONTINUOUS
10
6.29882
20
-3.0855
11
6.29891
21
-3.08575
0
LINE
8
BLACK
6
CONTINUOUS
10
6.29891
20
-3.08575
11
6.29912
21
-3.08592
0
LINE
8
BLACK
6
CONTINUOUS
10
6.29912
20
-3.08592
11
6.29925
21
-3.08667
0
LINE
8
BLACK
6
CONTINUOUS
10
6.29925
20
-3.08667
11
6.29951
21
-3.08739
0
LINE
8
BLACK
6
CONTINUOUS
10
6.29951
20
-3.08739
11
6.29951
21
-3.10052
0
LINE
8
BLACK
6
CONTINUOUS
10
6.29951
20
-3.10052
11
6.29948
21
-3.1007
0
LINE
8
BLACK
6
CONTINUOUS
10
6.29948
20
-3.1007
11
6.2995
21
-3.10077
0
LINE
8
BLACK
6
CONTINUOUS
10
6.2995
20
-3.10077
11
6.29944
21
-3.10089
0
LINE
8
BLACK
6
CONTINUOUS
10
6.29944
20
-3.10089
11
6.29933
21
-3.10153
0
LINE
8
BLACK
6
CONTINUOUS
10
6.29933
20
-3.10153
11
6.29892
21
-3.10202
0
LINE
8
BLACK
6
CONTINUOUS
10
6.29892
20
-3.10202
11
6.29865
21
-3.10261
0
LINE
8
BLACK
6
CONTINUOUS
10
6.29865
20
-3.10261
11
6.29677
21
-3.10448
0
LINE
8
BLACK
6
CONTINUOUS
10
6.29677
20
-3.10448
11
6.29593
21
-3.10507
0
LINE
8
BLACK
6
CONTINUOUS
10
6.29593
20
-3.10507
11
6.29576
21
-3.10508
0
LINE
8
BLACK
6
CONTINUOUS
10
6.29576
20
-3.10508
11
6.29562
21
-3.10519
0
LINE
8
BLACK
6
CONTINUOUS
10
6.29562
20
-3.10519
11
6.28999
21
-3.10707
0
LINE
8
BLACK
6
CONTINUOUS
10
6.28999
20
-3.10707
11
6.28912
21
-3.1072
0
LINE
8
BLACK
6
CONTINUOUS
10
6.28912
20
-3.1072
11
6.28906
21
-3.10722
0
LINE
8
BLACK
6
CONTINUOUS
10
6.28906
20
-3.10722
11
6.28531
21
-3.10722
0
LINE
8
BLACK
6
CONTINUOUS
10
6.28531
20
-3.10722
11
6.28444
21
-3.10707
0
LINE
8
BLACK
6
CONTINUOUS
10
6.28444
20
-3.10707
11
6.28438
21
-3.10707
0
LINE
8
BLACK
6
CONTINUOUS
10
6.28438
20
-3.10707
11
6.27875
21
-3.10519
0
LINE
8
BLACK
6
CONTINUOUS
10
6.27875
20
-3.10519
11
6.27785
21
-3.10471
0
LINE
8
BLACK
6
CONTINUOUS
10
6.27785
20
-3.10471
11
6.27776
21
-3.10455
0
LINE
8
BLACK
6
CONTINUOUS
10
6.27776
20
-3.10455
11
6.2776
21
-3.10448
0
LINE
8
BLACK
6
CONTINUOUS
10
6.2776
20
-3.10448
11
6.27385
21
-3.10073
0
LINE
8
BLACK
6
CONTINUOUS
10
6.27385
20
-3.10073
11
6.27334
21
-3.10001
0
LINE
8
BLACK
6
CONTINUOUS
10
6.27334
20
-3.10001
11
6.27329
21
-3.09996
0
LINE
8
BLACK
6
CONTINUOUS
10
6.27329
20
-3.09996
11
6.27142
21
-3.09621
0
LINE
8
BLACK
6
CONTINUOUS
10
6.27142
20
-3.09621
11
6.27127
21
-3.09573
0
LINE
8
BLACK
6
CONTINUOUS
10
6.27127
20
-3.09573
11
6.2712
21
-3.09561
0
LINE
8
BLACK
6
CONTINUOUS
10
6.2712
20
-3.09561
11
6.26932
21
-3.08811
0
LINE
8
BLACK
6
CONTINUOUS
10
6.26932
20
-3.08811
11
6.26928
21
-3.08752
0
LINE
8
BLACK
6
CONTINUOUS
10
6.26928
20
-3.08752
11
6.26923
21
-3.08739
0
LINE
8
BLACK
6
CONTINUOUS
10
6.26923
20
-3.08739
11
6.26923
21
-3.08177
0
LINE
8
BLACK
6
CONTINUOUS
10
6.26923
20
-3.08177
11
6.26934
21
-3.08119
0
LINE
8
BLACK
6
CONTINUOUS
10
6.26934
20
-3.08119
11
6.26932
21
-3.08105
0
LINE
8
BLACK
6
CONTINUOUS
10
6.26932
20
-3.08105
11
6.2712
21
-3.07355
0
LINE
8
BLACK
6
CONTINUOUS
10
6.2712
20
-3.07355
11
6.2714
21
-3.07309
0
LINE
8
BLACK
6
CONTINUOUS
10
6.2714
20
-3.07309
11
6.27142
21
-3.07295
0
LINE
8
BLACK
6
CONTINUOUS
10
6.27142
20
-3.07295
11
6.27329
21
-3.0692
0
LINE
8
BLACK
6
CONTINUOUS
10
6.27329
20
-3.0692
11
6.27382
21
-3.06849
0
LINE
8
BLACK
6
CONTINUOUS
10
6.27382
20
-3.06849
11
6.27385
21
-3.06843
0
LINE
8
BLACK
6
CONTINUOUS
10
6.27385
20
-3.06843
11
6.2776
21
-3.06468
0
LINE
8
BLACK
6
CONTINUOUS
10
6.2776
20
-3.06468
11
6.27844
21
-3.0641
0
LINE
8
BLACK
6
CONTINUOUS
10
6.27844
20
-3.0641
11
6.27861
21
-3.06408
0
LINE
8
BLACK
6
CONTINUOUS
10
6.27861
20
-3.06408
11
6.27875
21
-3.06397
0
LINE
8
BLACK
6
CONTINUOUS
10
6.27875
20
-3.06397
11
6.28438
21
-3.0621
0
LINE
8
BLACK
6
CONTINUOUS
10
6.28438
20
-3.0621
11
6.28525
21
-3.06197
0
LINE
8
BLACK
6
CONTINUOUS
10
6.28525
20
-3.06197
11
6.28531
21
-3.06194
0
LINE
8
BLACK
6
CONTINUOUS
10
6.28531
20
-3.06194
11
6.29093
21
-3.06194
0
LINE
8
BLACK
6
CONTINUOUS
10
6.29093
20
-3.06194
11
6.29194
21
-3.06212
0
LINE
8
BLACK
6
CONTINUOUS
10
6.04433
20
-3.0621
11
6.0444
21
-3.0621
0
LINE
8
BLACK
6
CONTINUOUS
10
6.0444
20
-3.0621
11
6.05002
21
-3.06397
0
LINE
8
BLACK
6
CONTINUOUS
10
6.05002
20
-3.06397
11
6.05092
21
-3.06446
0
LINE
8
BLACK
6
CONTINUOUS
10
6.05092
20
-3.06446
11
6.05198
21
-3.06618
0
LINE
8
BLACK
6
CONTINUOUS
10
6.05198
20
-3.06618
11
6.05169
21
-3.06818
0
LINE
8
BLACK
6
CONTINUOUS
10
6.05169
20
-3.06818
11
6.05017
21
-3.06952
0
LINE
8
BLACK
6
CONTINUOUS
10
6.05017
20
-3.06952
11
6.04816
21
-3.06957
0
LINE
8
BLACK
6
CONTINUOUS
10
6.04816
20
-3.06957
11
6.04299
21
-3.06785
0
LINE
8
BLACK
6
CONTINUOUS
10
6.04299
20
-3.06785
11
6.03479
21
-3.06785
0
LINE
8
BLACK
6
CONTINUOUS
10
6.03479
20
-3.06785
11
6.03209
21
-3.0692
0
LINE
8
BLACK
6
CONTINUOUS
10
6.03209
20
-3.0692
11
6.03089
21
-3.0704
0
LINE
8
BLACK
6
CONTINUOUS
10
6.03089
20
-3.0704
11
6.02954
21
-3.07309
0
LINE
8
BLACK
6
CONTINUOUS
10
6.02954
20
-3.07309
11
6.02954
21
-3.07545
0
LINE
8
BLACK
6
CONTINUOUS
10
6.02954
20
-3.07545
11
6.03089
21
-3.07815
0
LINE
8
BLACK
6
CONTINUOUS
10
6.03089
20
-3.07815
11
6.03209
21
-3.07934
0
LINE
8
BLACK
6
CONTINUOUS
10
6.03209
20
-3.07934
11
6.03512
21
-3.08086
0
LINE
8
BLACK
6
CONTINUOUS
10
6.03512
20
-3.08086
11
6.04231
21
-3.08265
0
LINE
8
BLACK
6
CONTINUOUS
10
6.04231
20
-3.08265
11
6.04277
21
-3.08286
0
LINE
8
BLACK
6
CONTINUOUS
10
6.04277
20
-3.08286
11
6.04291
21
-3.08288
0
LINE
8
BLACK
6
CONTINUOUS
10
6.04291
20
-3.08288
11
6.04666
21
-3.08475
0
LINE
8
BLACK
6
CONTINUOUS
10
6.04666
20
-3.08475
11
6.04737
21
-3.08528
0
LINE
8
BLACK
6
CONTINUOUS
10
6.04737
20
-3.08528
11
6.04743
21
-3.08531
0
LINE
8
BLACK
6
CONTINUOUS
10
6.04743
20
-3.08531
11
6.0493
21
-3.08718
0
LINE
8
BLACK
6
CONTINUOUS
10
6.0493
20
-3.08718
11
6.04981
21
-3.0879
0
LINE
8
BLACK
6
CONTINUOUS
10
6.04981
20
-3.0879
11
6.04986
21
-3.08795
0
LINE
8
BLACK
6
CONTINUOUS
10
6.04986
20
-3.08795
11
6.05173
21
-3.0917
0
LINE
8
BLACK
6
CONTINUOUS
10
6.05173
20
-3.0917
11
6.05202
21
-3.09268
0
LINE
8
BLACK
6
CONTINUOUS
10
6.05202
20
-3.09268
11
6.05198
21
-3.09285
0
LINE
8
BLACK
6
CONTINUOUS
10
6.05198
20
-3.09285
11
6.05204
21
-3.09302
0
LINE
8
BLACK
6
CONTINUOUS
10
6.05204
20
-3.09302
11
6.05204
21
-3.09677
0
LINE
8
BLACK
6
CONTINUOUS
10
6.05204
20
-3.09677
11
6.05186
21
-3.09778
0
LINE
8
BLACK
6
CONTINUOUS
10
6.05186
20
-3.09778
11
6.05175
21
-3.09791
0
LINE
8
BLACK
6
CONTINUOUS
10
6.05175
20
-3.09791
11
6.05173
21
-3.09809
0
LINE
8
BLACK
6
CONTINUOUS
10
6.05173
20
-3.09809
11
6.04986
21
-3.10184
0
LINE
8
BLACK
6
CONTINUOUS
10
6.04986
20
-3.10184
11
6.04933
21
-3.10255
0
LINE
8
BLACK
6
CONTINUOUS
10
6.04933
20
-3.10255
11
6.0493
21
-3.10261
0
LINE
8
BLACK
6
CONTINUOUS
10
6.0493
20
-3.10261
11
6.04743
21
-3.10448
0
LINE
8
BLACK
6
CONTINUOUS
10
6.04743
20
-3.10448
11
6.0467
21
-3.10499
0
LINE
8
BLACK
6
CONTINUOUS
10
6.0467
20
-3.10499
11
6.04666
21
-3.10503
0
LINE
8
BLACK
6
CONTINUOUS
10
6.04666
20
-3.10503
11
6.04291
21
-3.10691
0
LINE
8
BLACK
6
CONTINUOUS
10
6.04291
20
-3.10691
11
6.04193
21
-3.1072
0
LINE
8
BLACK
6
CONTINUOUS
10
6.04193
20
-3.1072
11
6.04176
21
-3.10716
0
LINE
8
BLACK
6
CONTINUOUS
10
6.04176
20
-3.10716
11
6.04159
21
-3.10722
0
LINE
8
BLACK
6
CONTINUOUS
10
6.04159
20
-3.10722
11
6.03222
21
-3.10722
0
LINE
8
BLACK
6
CONTINUOUS
10
6.03222
20
-3.10722
11
6.03135
21
-3.10707
0
LINE
8
BLACK
6
CONTINUOUS
10
6.03135
20
-3.10707
11
6.03128
21
-3.10707
0
LINE
8
BLACK
6
CONTINUOUS
10
6.03128
20
-3.10707
11
6.02566
21
-3.10519
0
LINE
8
BLACK
6
CONTINUOUS
10
6.02566
20
-3.10519
11
6.02476
21
-3.10471
0
LINE
8
BLACK
6
CONTINUOUS
10
6.02476
20
-3.10471
11
6.0237
21
-3.10298
0
LINE
8
BLACK
6
CONTINUOUS
10
6.0237
20
-3.10298
11
6.024
21
-3.10099
0
LINE
8
BLACK
6
CONTINUOUS
10
6.024
20
-3.10099
11
6.02551
21
-3.09965
0
LINE
8
BLACK
6
CONTINUOUS
10
6.02551
20
-3.09965
11
6.02753
21
-3.09959
0
LINE
8
BLACK
6
CONTINUOUS
10
6.02753
20
-3.09959
11
6.0327
21
-3.10131
0
LINE
8
BLACK
6
CONTINUOUS
10
6.0327
20
-3.10131
11
6.04089
21
-3.10131
0
LINE
8
BLACK
6
CONTINUOUS
10
6.04089
20
-3.10131
11
6.04359
21
-3.09997
0
LINE
8
BLACK
6
CONTINUOUS
10
6.04359
20
-3.09997
11
6.04479
21
-3.09877
0
LINE
8
BLACK
6
CONTINUOUS
10
6.04479
20
-3.09877
11
6.04614
21
-3.09607
0
LINE
8
BLACK
6
CONTINUOUS
10
6.04614
20
-3.09607
11
6.04614
21
-3.09372
0
LINE
8
BLACK
6
CONTINUOUS
10
6.04614
20
-3.09372
11
6.04479
21
-3.09102
0
LINE
8
BLACK
6
CONTINUOUS
10
6.04479
20
-3.09102
11
6.04359
21
-3.08982
0
LINE
8
BLACK
6
CONTINUOUS
10
6.04359
20
-3.08982
11
6.04056
21
-3.08831
0
LINE
8
BLACK
6
CONTINUOUS
10
6.04056
20
-3.08831
11
6.03337
21
-3.08651
0
LINE
8
BLACK
6
CONTINUOUS
10
6.03337
20
-3.08651
11
6.03291
21
-3.0863
0
LINE
8
BLACK
6
CONTINUOUS
10
6.03291
20
-3.0863
11
6.03277
21
-3.08629
0
LINE
8
BLACK
6
CONTINUOUS
10
6.03277
20
-3.08629
11
6.02902
21
-3.08441
0
LINE
8
BLACK
6
CONTINUOUS
10
6.02902
20
-3.08441
11
6.02831
21
-3.08388
0
LINE
8
BLACK
6
CONTINUOUS
10
6.02831
20
-3.08388
11
6.02825
21
-3.08386
0
LINE
8
BLACK
6
CONTINUOUS
10
6.02825
20
-3.08386
11
6.02638
21
-3.08198
0
LINE
8
BLACK
6
CONTINUOUS
10
6.02638
20
-3.08198
11
6.02587
21
-3.08126
0
LINE
8
BLACK
6
CONTINUOUS
10
6.02587
20
-3.08126
11
6.02583
21
-3.08122
0
LINE
8
BLACK
6
CONTINUOUS
10
6.02583
20
-3.08122
11
6.02395
21
-3.07747
0
LINE
8
BLACK
6
CONTINUOUS
10
6.02395
20
-3.07747
11
6.02366
21
-3.07648
0
LINE
8
BLACK
6
CONTINUOUS
10
6.02366
20
-3.07648
11
6.0237
21
-3.07631
0
LINE
8
BLACK
6
CONTINUOUS
10
6.0237
20
-3.07631
11
6.02364
21
-3.07615
0
LINE
8
BLACK
6
CONTINUOUS
10
6.02364
20
-3.07615
11
6.02364
21
-3.0724
0
LINE
8
BLACK
6
CONTINUOUS
10
6.02364
20
-3.0724
11
6.02382
21
-3.07139
0
LINE
8
BLACK
6
CONTINUOUS
10
6.02382
20
-3.07139
11
6.02393
21
-3.07125
0
LINE
8
BLACK
6
CONTINUOUS
10
6.02393
20
-3.07125
11
6.02395
21
-3.07108
0
LINE
8
BLACK
6
CONTINUOUS
10
6.02395
20
-3.07108
11
6.02583
21
-3.06733
0
LINE
8
BLACK
6
CONTINUOUS
10
6.02583
20
-3.06733
11
6.02635
21
-3.06662
0
LINE
8
BLACK
6
CONTINUOUS
10
6.02635
20
-3.06662
11
6.02638
21
-3.06656
0
LINE
8
BLACK
6
CONTINUOUS
10
6.02638
20
-3.06656
11
6.02825
21
-3.06468
0
LINE
8
BLACK
6
CONTINUOUS
10
6.02825
20
-3.06468
11
6.02898
21
-3.06418
0
LINE
8
BLACK
6
CONTINUOUS
10
6.02898
20
-3.06418
11
6.02902
21
-3.06413
0
LINE
8
BLACK
6
CONTINUOUS
10
6.02902
20
-3.06413
11
6.03277
21
-3.06226
0
LINE
8
BLACK
6
CONTINUOUS
10
6.03277
20
-3.06226
11
6.03375
21
-3.06196
0
LINE
8
BLACK
6
CONTINUOUS
10
6.03375
20
-3.06196
11
6.03392
21
-3.062
0
LINE
8
BLACK
6
CONTINUOUS
10
6.03392
20
-3.062
11
6.03409
21
-3.06194
0
LINE
8
BLACK
6
CONTINUOUS
10
6.03409
20
-3.06194
11
6.04346
21
-3.06194
0
LINE
8
BLACK
6
CONTINUOUS
10
6.04346
20
-3.06194
11
6.04433
21
-3.0621
0
LINE
8
BLACK
6
CONTINUOUS
10
6.12321
20
-3.06212
11
6.12335
21
-3.06224
0
LINE
8
BLACK
6
CONTINUOUS
10
6.12335
20
-3.06224
11
6.12353
21
-3.06226
0
LINE
8
BLACK
6
CONTINUOUS
10
6.12353
20
-3.06226
11
6.12727
21
-3.06413
0
LINE
8
BLACK
6
CONTINUOUS
10
6.12727
20
-3.06413
11
6.12798
21
-3.06466
0
LINE
8
BLACK
6
CONTINUOUS
10
6.12798
20
-3.06466
11
6.12804
21
-3.06468
0
LINE
8
BLACK
6
CONTINUOUS
10
6.12804
20
-3.06468
11
6.12992
21
-3.06656
0
LINE
8
BLACK
6
CONTINUOUS
10
6.12992
20
-3.06656
11
6.13042
21
-3.06728
0
LINE
8
BLACK
6
CONTINUOUS
10
6.13042
20
-3.06728
11
6.13047
21
-3.06733
0
LINE
8
BLACK
6
CONTINUOUS
10
6.13047
20
-3.06733
11
6.13234
21
-3.07108
0
LINE
8
BLACK
6
CONTINUOUS
10
6.13234
20
-3.07108
11
6.13249
21
-3.07156
0
LINE
8
BLACK
6
CONTINUOUS
10
6.13249
20
-3.07156
11
6.13257
21
-3.07168
0
LINE
8
BLACK
6
CONTINUOUS
10
6.13257
20
-3.07168
11
6.13444
21
-3.07918
0
LINE
8
BLACK
6
CONTINUOUS
10
6.13444
20
-3.07918
11
6.13448
21
-3.07977
0
LINE
8
BLACK
6
CONTINUOUS
10
6.13448
20
-3.07977
11
6.13453
21
-3.0799
0
LINE
8
BLACK
6
CONTINUOUS
10
6.13453
20
-3.0799
11
6.13453
21
-3.08927
0
LINE
8
BLACK
6
CONTINUOUS
10
6.13453
20
-3.08927
11
6.13443
21
-3.08985
0
LINE
8
BLACK
6
CONTINUOUS
10
6.13443
20
-3.08985
11
6.13444
21
-3.08998
0
LINE
8
BLACK
6
CONTINUOUS
10
6.13444
20
-3.08998
11
6.13257
21
-3.09748
0
LINE
8
BLACK
6
CONTINUOUS
10
6.13257
20
-3.09748
11
6.13236
21
-3.09795
0
LINE
8
BLACK
6
CONTINUOUS
10
6.13236
20
-3.09795
11
6.13234
21
-3.09809
0
LINE
8
BLACK
6
CONTINUOUS
10
6.13234
20
-3.09809
11
6.13047
21
-3.10184
0
LINE
8
BLACK
6
CONTINUOUS
10
6.13047
20
-3.10184
11
6.12994
21
-3.10255
0
LINE
8
BLACK
6
CONTINUOUS
10
6.12994
20
-3.10255
11
6.12992
21
-3.10261
0
LINE
8
BLACK
6
CONTINUOUS
10
6.12992
20
-3.10261
11
6.12804
21
-3.10448
0
LINE
8
BLACK
6
CONTINUOUS
10
6.12804
20
-3.10448
11
6.12732
21
-3.10499
0
LINE
8
BLACK
6
CONTINUOUS
10
6.12732
20
-3.10499
11
6.12727
21
-3.10503
0
LINE
8
BLACK
6
CONTINUOUS
10
6.12727
20
-3.10503
11
6.12353
21
-3.10691
0
LINE
8
BLACK
6
CONTINUOUS
10
6.12353
20
-3.10691
11
6.12254
21
-3.1072
0
LINE
8
BLACK
6
CONTINUOUS
10
6.12254
20
-3.1072
11
6.12237
21
-3.10716
0
LINE
8
BLACK
6
CONTINUOUS
10
6.12237
20
-3.10716
11
6.1222
21
-3.10722
0
LINE
8
BLACK
6
CONTINUOUS
10
6.1222
20
-3.10722
11
6.11846
21
-3.10722
0
LINE
8
BLACK
6
CONTINUOUS
10
6.11846
20
-3.10722
11
6.11745
21
-3.10704
0
LINE
8
BLACK
6
CONTINUOUS
10
6.11745
20
-3.10704
11
6.11731
21
-3.10693
0
LINE
8
BLACK
6
CONTINUOUS
10
6.11731
20
-3.10693
11
6.11713
21
-3.10691
0
LINE
8
BLACK
6
CONTINUOUS
10
6.11713
20
-3.10691
11
6.11339
21
-3.10503
0
LINE
8
BLACK
6
CONTINUOUS
10
6.11339
20
-3.10503
11
6.11268
21
-3.10451
0
LINE
8
BLACK
6
CONTINUOUS
10
6.11268
20
-3.10451
11
6.11262
21
-3.10448
0
LINE
8
BLACK
6
CONTINUOUS
10
6.11262
20
-3.10448
11
6.11074
21
-3.10261
0
LINE
8
BLACK
6
CONTINUOUS
10
6.11074
20
-3.10261
11
6.11024
21
-3.10188
0
LINE
8
BLACK
6
CONTINUOUS
10
6.11024
20
-3.10188
11
6.11019
21
-3.10184
0
LINE
8
BLACK
6
CONTINUOUS
10
6.11019
20
-3.10184
11
6.10832
21
-3.09809
0
LINE
8
BLACK
6
CONTINUOUS
10
6.10832
20
-3.09809
11
6.10817
21
-3.0976
0
LINE
8
BLACK
6
CONTINUOUS
10
6.10817
20
-3.0976
11
6.10809
21
-3.09748
0
LINE
8
BLACK
6
CONTINUOUS
10
6.10809
20
-3.09748
11
6.10622
21
-3.08998
0
LINE
8
BLACK
6
CONTINUOUS
10
6.10622
20
-3.08998
11
6.10618
21
-3.0894
0
LINE
8
BLACK
6
CONTINUOUS
10
6.10618
20
-3.0894
11
6.10613
21
-3.08927
0
LINE
8
BLACK
6
CONTINUOUS
10
6.10613
20
-3.08927
11
6.10613
21
-3.0799
0
LINE
8
BLACK
6
CONTINUOUS
10
6.10613
20
-3.0799
11
6.10623
21
-3.07931
0
LINE
8
BLACK
6
CONTINUOUS
10
6.10623
20
-3.07931
11
6.10622
21
-3.07918
0
LINE
8
BLACK
6
CONTINUOUS
10
6.10622
20
-3.07918
11
6.10809
21
-3.07168
0
LINE
8
BLACK
6
CONTINUOUS
10
6.10809
20
-3.07168
11
6.1083
21
-3.07121
0
LINE
8
BLACK
6
CONTINUOUS
10
6.1083
20
-3.07121
11
6.10832
21
-3.07108
0
LINE
8
BLACK
6
CONTINUOUS
10
6.10832
20
-3.07108
11
6.11019
21
-3.06733
0
LINE
8
BLACK
6
CONTINUOUS
10
6.11019
20
-3.06733
11
6.11072
21
-3.06662
0
LINE
8
BLACK
6
CONTINUOUS
10
6.11072
20
-3.06662
11
6.11074
21
-3.06656
0
LINE
8
BLACK
6
CONTINUOUS
10
6.11074
20
-3.06656
11
6.11262
21
-3.06468
0
LINE
8
BLACK
6
CONTINUOUS
10
6.11262
20
-3.06468
11
6.11334
21
-3.06418
0
LINE
8
BLACK
6
CONTINUOUS
10
6.11334
20
-3.06418
11
6.11339
21
-3.06413
0
LINE
8
BLACK
6
CONTINUOUS
10
6.11339
20
-3.06413
11
6.11713
21
-3.06226
0
LINE
8
BLACK
6
CONTINUOUS
10
6.11713
20
-3.06226
11
6.11812
21
-3.06196
0
LINE
8
BLACK
6
CONTINUOUS
10
6.11812
20
-3.06196
11
6.11829
21
-3.062
0
LINE
8
BLACK
6
CONTINUOUS
10
6.11829
20
-3.062
11
6.11846
21
-3.06194
0
LINE
8
BLACK
6
CONTINUOUS
10
6.11846
20
-3.06194
11
6.1222
21
-3.06194
0
LINE
8
BLACK
6
CONTINUOUS
10
6.1222
20
-3.06194
11
6.12321
21
-3.06212
0
LINE
8
BLACK
6
CONTINUOUS
10
6.11915
20
-3.06785
11
6.11645
21
-3.0692
0
LINE
8
BLACK
6
CONTINUOUS
10
6.11645
20
-3.0692
11
6.11526
21
-3.0704
0
LINE
8
BLACK
6
CONTINUOUS
10
6.11526
20
-3.0704
11
6.11374
21
-3.07343
0
LINE
8
BLACK
6
CONTINUOUS
10
6.11374
20
-3.07343
11
6.11203
21
-3.08026
0
LINE
8
BLACK
6
CONTINUOUS
10
6.11203
20
-3.08026
11
6.11203
21
-3.08891
0
LINE
8
BLACK
6
CONTINUOUS
10
6.11203
20
-3.08891
11
6.11374
21
-3.09574
0
LINE
8
BLACK
6
CONTINUOUS
10
6.11374
20
-3.09574
11
6.11526
21
-3.09877
0
LINE
8
BLACK
6
CONTINUOUS
10
6.11526
20
-3.09877
11
6.11645
21
-3.09997
0
LINE
8
BLACK
6
CONTINUOUS
10
6.11645
20
-3.09997
11
6.11915
21
-3.10131
0
LINE
8
BLACK
6
CONTINUOUS
10
6.11915
20
-3.10131
11
6.12151
21
-3.10131
0
LINE
8
BLACK
6
CONTINUOUS
10
6.12151
20
-3.10131
11
6.12421
21
-3.09997
0
LINE
8
BLACK
6
CONTINUOUS
10
6.12421
20
-3.09997
11
6.1254
21
-3.09877
0
LINE
8
BLACK
6
CONTINUOUS
10
6.1254
20
-3.09877
11
6.12692
21
-3.09574
0
LINE
8
BLACK
6
CONTINUOUS
10
6.12692
20
-3.09574
11
6.12863
21
-3.08891
0
LINE
8
BLACK
6
CONTINUOUS
10
6.12863
20
-3.08891
11
6.12863
21
-3.08026
0
LINE
8
BLACK
6
CONTINUOUS
10
6.12863
20
-3.08026
11
6.12692
21
-3.07343
0
LINE
8
BLACK
6
CONTINUOUS
10
6.12692
20
-3.07343
11
6.1254
21
-3.0704
0
LINE
8
BLACK
6
CONTINUOUS
10
6.1254
20
-3.0704
11
6.12421
21
-3.0692
0
LINE
8
BLACK
6
CONTINUOUS
10
6.12421
20
-3.0692
11
6.12151
21
-3.06785
0
LINE
8
BLACK
6
CONTINUOUS
10
6.12151
20
-3.06785
11
6.11915
21
-3.06785
0
LINE
8
BLACK
6
CONTINUOUS
10
6.17196
20
-3.06212
11
6.17223
21
-3.06235
0
LINE
8
BLACK
6
CONTINUOUS
10
6.17223
20
-3.06235
11
6.17257
21
-3.06243
0
LINE
8
BLACK
6
CONTINUOUS
10
6.17257
20
-3.06243
11
6.17298
21
-3.06298
0
LINE
8
BLACK
6
CONTINUOUS
10
6.17298
20
-3.06298
11
6.17351
21
-3.06342
0
LINE
8
BLACK
6
CONTINUOUS
10
6.17351
20
-3.06342
11
6.17357
21
-3.06376
0
LINE
8
BLACK
6
CONTINUOUS
10
6.17357
20
-3.06376
11
6.17378
21
-3.06404
0
LINE
8
BLACK
6
CONTINUOUS
10
6.17378
20
-3.06404
11
6.17374
21
-3.06473
0
LINE
8
BLACK
6
CONTINUOUS
10
6.17374
20
-3.06473
11
6.17386
21
-3.06541
0
LINE
8
BLACK
6
CONTINUOUS
10
6.17386
20
-3.06541
11
6.17368
21
-3.06571
0
LINE
8
BLACK
6
CONTINUOUS
10
6.17368
20
-3.06571
11
6.17366
21
-3.06606
0
LINE
8
BLACK
6
CONTINUOUS
10
6.17366
20
-3.06606
11
6.15679
21
-3.10543
0
LINE
8
BLACK
6
CONTINUOUS
10
6.15679
20
-3.10543
11
6.15623
21
-3.10629
0
LINE
8
BLACK
6
CONTINUOUS
10
6.15623
20
-3.10629
11
6.15443
21
-3.1072
0
LINE
8
BLACK
6
CONTINUOUS
10
6.15443
20
-3.1072
11
6.15246
21
-3.10674
0
LINE
8
BLACK
6
CONTINUOUS
10
6.15246
20
-3.10674
11
6.15125
21
-3.10512
0
LINE
8
BLACK
6
CONTINUOUS
10
6.15125
20
-3.10512
11
6.15136
21
-3.1031
0
LINE
8
BLACK
6
CONTINUOUS
10
6.15136
20
-3.1031
11
6.16647
21
-3.06785
0
LINE
8
BLACK
6
CONTINUOUS
10
6.16647
20
-3.06785
11
6.1447
21
-3.06785
0
LINE
8
BLACK
6
CONTINUOUS
10
6.1447
20
-3.06785
11
6.14369
21
-3.06767
0
LINE
8
BLACK
6
CONTINUOUS
10
6.14369
20
-3.06767
11
6.14214
21
-3.06637
0
LINE
8
BLACK
6
CONTINUOUS
10
6.14214
20
-3.06637
11
6.14179
21
-3.06438
0
LINE
8
BLACK
6
CONTINUOUS
10
6.14179
20
-3.06438
11
6.1428
21
-3.06263
0
LINE
8
BLACK
6
CONTINUOUS
10
6.1428
20
-3.06263
11
6.1447
21
-3.06194
0
LINE
8
BLACK
6
CONTINUOUS
10
6.1447
20
-3.06194
11
6.17095
21
-3.06194
0
LINE
8
BLACK
6
CONTINUOUS
10
6.17095
20
-3.06194
11
6.17196
21
-3.06212
0
LINE
8
BLACK
6
CONTINUOUS
10
6.4588
20
-3.06212
11
6.46034
21
-3.06342
0
LINE
8
BLACK
6
CONTINUOUS
10
6.46034
20
-3.06342
11
6.4607
21
-3.06541
0
LINE
8
BLACK
6
CONTINUOUS
10
6.4607
20
-3.06541
11
6.45969
21
-3.06716
0
LINE
8
BLACK
6
CONTINUOUS
10
6.45969
20
-3.06716
11
6.45779
21
-3.06785
0
LINE
8
BLACK
6
CONTINUOUS
10
6.45779
20
-3.06785
11
6.44949
21
-3.06785
0
LINE
8
BLACK
6
CONTINUOUS
10
6.44949
20
-3.06785
11
6.44949
21
-3.10427
0
LINE
8
BLACK
6
CONTINUOUS
10
6.44949
20
-3.10427
11
6.44931
21
-3.10528
0
LINE
8
BLACK
6
CONTINUOUS
10
6.44931
20
-3.10528
11
6.44802
21
-3.10682
0
LINE
8
BLACK
6
CONTINUOUS
10
6.44802
20
-3.10682
11
6.44603
21
-3.10717
0
LINE
8
BLACK
6
CONTINUOUS
10
6.44603
20
-3.10717
11
6.44428
21
-3.10616
0
LINE
8
BLACK
6
CONTINUOUS
10
6.44428
20
-3.10616
11
6.44359
21
-3.10427
0
LINE
8
BLACK
6
CONTINUOUS
10
6.44359
20
-3.10427
11
6.44359
21
-3.06785
0
LINE
8
BLACK
6
CONTINUOUS
10
6.44359
20
-3.06785
11
6.43529
21
-3.06785
0
LINE
8
BLACK
6
CONTINUOUS
10
6.43529
20
-3.06785
11
6.43428
21
-3.06767
0
LINE
8
BLACK
6
CONTINUOUS
10
6.43428
20
-3.06767
11
6.43273
21
-3.06637
0
LINE
8
BLACK
6
CONTINUOUS
10
6.43273
20
-3.06637
11
6.43238
21
-3.06438
0
LINE
8
BLACK
6
CONTINUOUS
10
6.43238
20
-3.06438
11
6.43339
21
-3.06263
0
LINE
8
BLACK
6
CONTINUOUS
10
6.43339
20
-3.06263
11
6.43529
21
-3.06194
0
LINE
8
BLACK
6
CONTINUOUS
10
6.43529
20
-3.06194
11
6.45779
21
-3.06194
0
LINE
8
BLACK
6
CONTINUOUS
10
6.45779
20
-3.06194
11
6.4588
21
-3.06212
0
LINE
8
BLACK
6
CONTINUOUS
10
6.33819
20
-3.063
11
6.33888
21
-3.0649
0
LINE
8
BLACK
6
CONTINUOUS
10
6.33888
20
-3.0649
11
6.33888
21
-3.10427
0
LINE
8
BLACK
6
CONTINUOUS
10
6.33888
20
-3.10427
11
6.3387
21
-3.10528
0
LINE
8
BLACK
6
CONTINUOUS
10
6.3387
20
-3.10528
11
6.3374
21
-3.10682
0
LINE
8
BLACK
6
CONTINUOUS
10
6.3374
20
-3.10682
11
6.33542
21
-3.10717
0
LINE
8
BLACK
6
CONTINUOUS
10
6.33542
20
-3.10717
11
6.33367
21
-3.10616
0
LINE
8
BLACK
6
CONTINUOUS
10
6.33367
20
-3.10616
11
6.33298
21
-3.10427
0
LINE
8
BLACK
6
CONTINUOUS
10
6.33298
20
-3.10427
11
6.33298
21
-3.0866
0
LINE
8
BLACK
6
CONTINUOUS
10
6.33298
20
-3.0866
11
6.31638
21
-3.0866
0
LINE
8
BLACK
6
CONTINUOUS
10
6.31638
20
-3.0866
11
6.31638
21
-3.10427
0
LINE
8
BLACK
6
CONTINUOUS
10
6.31638
20
-3.10427
11
6.31621
21
-3.10528
0
LINE
8
BLACK
6
CONTINUOUS
10
6.31621
20
-3.10528
11
6.31491
21
-3.10682
0
LINE
8
BLACK
6
CONTINUOUS
10
6.31491
20
-3.10682
11
6.31292
21
-3.10717
0
LINE
8
BLACK
6
CONTINUOUS
10
6.31292
20
-3.10717
11
6.31117
21
-3.10616
0
LINE
8
BLACK
6
CONTINUOUS
10
6.31117
20
-3.10616
11
6.31048
21
-3.10427
0
LINE
8
BLACK
6
CONTINUOUS
10
6.31048
20
-3.10427
11
6.31048
21
-3.0649
0
LINE
8
BLACK
6
CONTINUOUS
10
6.31048
20
-3.0649
11
6.31066
21
-3.06389
0
LINE
8
BLACK
6
CONTINUOUS
10
6.31066
20
-3.06389
11
6.31195
21
-3.06234
0
LINE
8
BLACK
6
CONTINUOUS
10
6.31195
20
-3.06234
11
6.31394
21
-3.06199
0
LINE
8
BLACK
6
CONTINUOUS
10
6.31394
20
-3.06199
11
6.31569
21
-3.063
0
LINE
8
BLACK
6
CONTINUOUS
10
6.31569
20
-3.063
11
6.31638
21
-3.0649
0
LINE
8
BLACK
6
CONTINUOUS
10
6.31638
20
-3.0649
11
6.31638
21
-3.08069
0
LINE
8
BLACK
6
CONTINUOUS
10
6.31638
20
-3.08069
11
6.33298
21
-3.08069
0
LINE
8
BLACK
6
CONTINUOUS
10
6.33298
20
-3.08069
11
6.33298
21
-3.0649
0
LINE
8
BLACK
6
CONTINUOUS
10
6.33298
20
-3.0649
11
6.33315
21
-3.06389
0
LINE
8
BLACK
6
CONTINUOUS
10
6.33315
20
-3.06389
11
6.33445
21
-3.06234
0
LINE
8
BLACK
6
CONTINUOUS
10
6.33445
20
-3.06234
11
6.33644
21
-3.06199
0
LINE
8
BLACK
6
CONTINUOUS
10
6.33644
20
-3.06199
11
6.33819
21
-3.063
0
LINE
8
BLACK
6
CONTINUOUS
10
6.09233
20
-3.06206
11
6.09272
21
-3.06199
0
LINE
8
BLACK
6
CONTINUOUS
10
6.09272
20
-3.06199
11
6.09328
21
-3.06231
0
LINE
8
BLACK
6
CONTINUOUS
10
6.09328
20
-3.06231
11
6.0939
21
-3.06248
0
LINE
8
BLACK
6
CONTINUOUS
10
6.0939
20
-3.06248
11
6.09413
21
-3.0628
0
LINE
8
BLACK
6
CONTINUOUS
10
6.09413
20
-3.0628
11
6.09447
21
-3.063
0
LINE
8
BLACK
6
CONTINUOUS
10
6.09447
20
-3.063
11
6.09469
21
-3.0636
0
LINE
8
BLACK
6
CONTINUOUS
10
6.09469
20
-3.0636
11
6.09506
21
-3.06413
0
LINE
8
BLACK
6
CONTINUOUS
10
6.09506
20
-3.06413
11
6.09503
21
-3.06453
0
LINE
8
BLACK
6
CONTINUOUS
10
6.09503
20
-3.06453
11
6.09516
21
-3.0649
0
LINE
8
BLACK
6
CONTINUOUS
10
6.09516
20
-3.0649
11
6.09516
21
-3.10427
0
LINE
8
BLACK
6
CONTINUOUS
10
6.09516
20
-3.10427
11
6.09498
21
-3.10528
0
LINE
8
BLACK
6
CONTINUOUS
10
6.09498
20
-3.10528
11
6.09368
21
-3.10682
0
LINE
8
BLACK
6
CONTINUOUS
10
6.09368
20
-3.10682
11
6.0917
21
-3.10717
0
LINE
8
BLACK
6
CONTINUOUS
10
6.0917
20
-3.10717
11
6.08995
21
-3.10616
0
LINE
8
BLACK
6
CONTINUOUS
10
6.08995
20
-3.10616
11
6.08926
21
-3.10427
0
LINE
8
BLACK
6
CONTINUOUS
10
6.08926
20
-3.10427
11
6.08926
21
-3.07821
0
LINE
8
BLACK
6
CONTINUOUS
10
6.08926
20
-3.07821
11
6.08176
21
-3.09427
0
LINE
8
BLACK
6
CONTINUOUS
10
6.08176
20
-3.09427
11
6.08154
21
-3.09458
0
LINE
8
BLACK
6
CONTINUOUS
10
6.08154
20
-3.09458
11
6.0815
21
-3.09471
0
LINE
8
BLACK
6
CONTINUOUS
10
6.0815
20
-3.09471
11
6.0814
21
-3.09479
0
LINE
8
BLACK
6
CONTINUOUS
10
6.0814
20
-3.09479
11
6.08117
21
-3.09511
0
LINE
8
BLACK
6
CONTINUOUS
10
6.08117
20
-3.09511
11
6.08048
21
-3.09543
0
LINE
8
BLACK
6
CONTINUOUS
10
6.08048
20
-3.09543
11
6.07985
21
-3.09587
0
LINE
8
BLACK
6
CONTINUOUS
10
6.07985
20
-3.09587
11
6.07958
21
-3.09585
0
LINE
8
BLACK
6
CONTINUOUS
10
6.07958
20
-3.09585
11
6.07934
21
-3.09596
0
LINE
8
BLACK
6
CONTINUOUS
10
6.07934
20
-3.09596
11
6.0786
21
-3.09576
0
LINE
8
BLACK
6
CONTINUOUS
10
6.0786
20
-3.09576
11
6.07784
21
-3.09569
0
LINE
8
BLACK
6
CONTINUOUS
10
6.07784
20
-3.09569
11
6.07765
21
-3.09551
0
LINE
8
BLACK
6
CONTINUOUS
10
6.07765
20
-3.09551
11
6.07739
21
-3.09544
0
LINE
8
BLACK
6
CONTINUOUS
10
6.07739
20
-3.09544
11
6.07695
21
-3.09481
0
LINE
8
BLACK
6
CONTINUOUS
10
6.07695
20
-3.09481
11
6.07641
21
-3.09427
0
LINE
8
BLACK
6
CONTINUOUS
10
6.07641
20
-3.09427
11
6.06891
21
-3.07821
0
LINE
8
BLACK
6
CONTINUOUS
10
6.06891
20
-3.07821
11
6.06891
21
-3.10427
0
LINE
8
BLACK
6
CONTINUOUS
10
6.06891
20
-3.10427
11
6.06874
21
-3.10528
0
LINE
8
BLACK
6
CONTINUOUS
10
6.06874
20
-3.10528
11
6.06744
21
-3.10682
0
LINE
8
BLACK
6
CONTINUOUS
10
6.06744
20
-3.10682
11
6.06545
21
-3.10717
0
LINE
8
BLACK
6
CONTINUOUS
10
6.06545
20
-3.10717
11
6.0637
21
-3.10616
0
LINE
8
BLACK
6
CONTINUOUS
10
6.0637
20
-3.10616
11
6.06301
21
-3.10427
0
LINE
8
BLACK
6
CONTINUOUS
10
6.06301
20
-3.10427
11
6.06301
21
-3.0649
0
LINE
8
BLACK
6
CONTINUOUS
10
6.06301
20
-3.0649
11
6.06319
21
-3.06389
0
LINE
8
BLACK
6
CONTINUOUS
10
6.06319
20
-3.06389
11
6.06344
21
-3.06358
0
LINE
8
BLACK
6
CONTINUOUS
10
6.06344
20
-3.06358
11
6.06354
21
-3.0632
0
LINE
8
BLACK
6
CONTINUOUS
10
6.06354
20
-3.0632
11
6.06407
21
-3.06283
0
LINE
8
BLACK
6
CONTINUOUS
10
6.06407
20
-3.06283
11
6.06449
21
-3.06234
0
LINE
8
BLACK
6
CONTINUOUS
10
6.06449
20
-3.06234
11
6.06487
21
-3.06227
0
LINE
8
BLACK
6
CONTINUOUS
10
6.06487
20
-3.06227
11
6.0652
21
-3.06204
0
LINE
8
BLACK
6
CONTINUOUS
10
6.0652
20
-3.06204
11
6.06584
21
-3.0621
0
LINE
8
BLACK
6
CONTINUOUS
10
6.06584
20
-3.0621
11
6.06647
21
-3.06199
0
LINE
8
BLACK
6
CONTINUOUS
10
6.06647
20
-3.06199
11
6.06682
21
-3.06219
0
LINE
8
BLACK
6
CONTINUOUS
10
6.06682
20
-3.06219
11
6.06721
21
-3.06222
0
LINE
8
BLACK
6
CONTINUOUS
10
6.06721
20
-3.06222
11
6.06766
21
-3.06268
0
LINE
8
BLACK
6
CONTINUOUS
10
6.06766
20
-3.06268
11
6.06822
21
-3.063
0
LINE
8
BLACK
6
CONTINUOUS
10
6.06822
20
-3.063
11
6.06836
21
-3.06337
0
LINE
8
BLACK
6
CONTINUOUS
10
6.06836
20
-3.06337
11
6.06864
21
-3.06365
0
LINE
8
BLACK
6
CONTINUOUS
10
6.06864
20
-3.06365
11
6.07909
21
-3.08604
0
LINE
8
BLACK
6
CONTINUOUS
10
6.07909
20
-3.08604
11
6.08953
21
-3.06365
0
LINE
8
BLACK
6
CONTINUOUS
10
6.08953
20
-3.06365
11
6.09012
21
-3.06281
0
LINE
8
BLACK
6
CONTINUOUS
10
6.09012
20
-3.06281
11
6.09048
21
-3.06264
0
LINE
8
BLACK
6
CONTINUOUS
10
6.09048
20
-3.06264
11
6.09073
21
-3.06234
0
LINE
8
BLACK
6
CONTINUOUS
10
6.09073
20
-3.06234
11
6.09137
21
-3.06223
0
LINE
8
BLACK
6
CONTINUOUS
10
6.09137
20
-3.06223
11
6.09195
21
-3.06196
0
LINE
8
BLACK
6
CONTINUOUS
10
6.09195
20
-3.06196
11
6.09233
21
-3.06206
0
LINE
8
BLACK
6
CONTINUOUS
10
6.25632
20
-3.08649
11
6.25787
21
-3.08779
0
LINE
8
BLACK
6
CONTINUOUS
10
6.25787
20
-3.08779
11
6.25822
21
-3.08978
0
LINE
8
BLACK
6
CONTINUOUS
10
6.25822
20
-3.08978
11
6.25721
21
-3.09153
0
LINE
8
BLACK
6
CONTINUOUS
10
6.25721
20
-3.09153
11
6.25531
21
-3.09222
0
LINE
8
BLACK
6
CONTINUOUS
10
6.25531
20
-3.09222
11
6.22532
21
-3.09222
0
LINE
8
BLACK
6
CONTINUOUS
10
6.22532
20
-3.09222
11
6.22431
21
-3.09204
0
LINE
8
BLACK
6
CONTINUOUS
10
6.22431
20
-3.09204
11
6.22276
21
-3.09075
0
LINE
8
BLACK
6
CONTINUOUS
10
6.22276
20
-3.09075
11
6.22241
21
-3.08876
0
LINE
8
BLACK
6
CONTINUOUS
10
6.22241
20
-3.08876
11
6.22342
21
-3.08701
0
LINE
8
BLACK
6
CONTINUOUS
10
6.22342
20
-3.08701
11
6.22532
21
-3.08632
0
LINE
8
BLACK
6
CONTINUOUS
10
6.22532
20
-3.08632
11
6.25531
21
-3.08632
0
LINE
8
BLACK
6
CONTINUOUS
10
6.25531
20
-3.08632
11
6.25632
21
-3.08649
0
LINE
8
BLACK
6
CONTINUOUS
10
6.42318
20
-3.08649
11
6.42472
21
-3.08779
0
LINE
8
BLACK
6
CONTINUOUS
10
6.42472
20
-3.08779
11
6.42508
21
-3.08978
0
LINE
8
BLACK
6
CONTINUOUS
10
6.42508
20
-3.08978
11
6.42407
21
-3.09153
0
LINE
8
BLACK
6
CONTINUOUS
10
6.42407
20
-3.09153
11
6.42217
21
-3.09222
0
LINE
8
BLACK
6
CONTINUOUS
10
6.42217
20
-3.09222
11
6.39217
21
-3.09222
0
LINE
8
BLACK
6
CONTINUOUS
10
6.39217
20
-3.09222
11
6.39116
21
-3.09204
0
LINE
8
BLACK
6
CONTINUOUS
10
6.39116
20
-3.09204
11
6.38961
21
-3.09075
0
LINE
8
BLACK
6
CONTINUOUS
10
6.38961
20
-3.09075
11
6.38926
21
-3.08876
0
LINE
8
BLACK
6
CONTINUOUS
10
6.38926
20
-3.08876
11
6.39027
21
-3.08701
0
LINE
8
BLACK
6
CONTINUOUS
10
6.39027
20
-3.08701
11
6.39217
21
-3.08632
0
LINE
8
BLACK
6
CONTINUOUS
10
6.39217
20
-3.08632
11
6.42217
21
-3.08632
0
LINE
8
BLACK
6
CONTINUOUS
10
6.42217
20
-3.08632
11
6.42318
21
-3.08649
  0
ENDSEC
  0
EOF
