  0
SECTION
  2
HEADER
  9
$ANGBASE
  50
0.0
  9
$ANGDIR
  70
1
  9
$MEASUREMENT
  70
0
  0
ENDSEC
  0
SECTION
  2
TABLES
  0
TABLE
  2
LTYPE
  70
4
  0
LTYPE
  5
40F
  2
CONTINUOUS
  70
0
  3
Solid line
  72
65
  73
0
  40
0.0
  0
LTYPE
  5
410
  2
DASHDOT
 70
0
  3
Dash Dot ____ _ ____ _
 72
65
 73
4
 40
2.0
 49
1.25
 49
-0.25
 49
0.25
 49
-0.25
  0
LTYPE
  5
411
  2
DASHED
 70
0
  3
Dashed __ __ __ __ __
 72
65
 73
2
 40
0.75
 49
0.5
 49
-0.25
  0
LTYPE
  5
43B
  2
DOTTED
 70
0
  3
Dotted .  .  .  .
 72
65
 73
2
 40
0.2
 49
0.0
 49
-0.2
  0
ENDTAB
  0
TABLE
  2
STYLE
  70
4
  0
STYLE
  2
KICAD
  70
0
  40
0
  41
1
  42
1
  50
0
  71
0
  3
isocp.shx
  0
STYLE
  2
KICADB
  70
0
  40
0
  41
1
  42
1
  50
0
  71
0
  3
isocp.shx
  0
STYLE
  2
KICADI
  70
0
  40
0
  41
1
  42
1
  50
15
  71
0
  3
isocp.shx
  0
STYLE
  2
KICADBI
  70
0
  40
0
  41
1
  42
1
  50
15
  71
0
  3
isocp.shx
  0
ENDTAB
  0
TABLE
  2
LAYER
  70
1
  0
LAYER
  2
BLACK
  70
0
  62
7
  6
CONTINUOUS
  0
ENDTAB
  0
ENDSEC
  0
SECTION
  2
ENTITIES
0
LINE
8
BLACK
6
CONTINUOUS
10
5.58038
20
-4.42711
11
5.58051
21
-4.42709
0
LINE
8
BLACK
6
CONTINUOUS
10
5.58051
20
-4.42709
11
5.58063
21
-4.42716
0
LINE
8
BLACK
6
CONTINUOUS
10
5.58063
20
-4.42716
11
5.58101
21
-4.42723
0
LINE
8
BLACK
6
CONTINUOUS
10
5.58101
20
-4.42723
11
5.5816
21
-4.42772
0
LINE
8
BLACK
6
CONTINUOUS
10
5.5816
20
-4.42772
11
5.58226
21
-4.4281
0
LINE
8
BLACK
6
CONTINUOUS
10
5.58226
20
-4.4281
11
5.58235
21
-4.42835
0
LINE
8
BLACK
6
CONTINUOUS
10
5.58235
20
-4.42835
11
5.58256
21
-4.42852
0
LINE
8
BLACK
6
CONTINUOUS
10
5.58256
20
-4.42852
11
5.58269
21
-4.42928
0
LINE
8
BLACK
6
CONTINUOUS
10
5.58269
20
-4.42928
11
5.58295
21
-4.43
0
LINE
8
BLACK
6
CONTINUOUS
10
5.58295
20
-4.43
11
5.58295
21
-4.53
0
LINE
8
BLACK
6
CONTINUOUS
10
5.58295
20
-4.53
11
5.58295
21
-4.63
0
LINE
8
BLACK
6
CONTINUOUS
10
5.58295
20
-4.63
11
5.58295
21
-4.73
0
LINE
8
BLACK
6
CONTINUOUS
10
5.58295
20
-4.73
11
5.58289
21
-4.73038
0
LINE
8
BLACK
6
CONTINUOUS
10
5.58289
20
-4.73038
11
5.58291
21
-4.73051
0
LINE
8
BLACK
6
CONTINUOUS
10
5.58291
20
-4.73051
11
5.58284
21
-4.73063
0
LINE
8
BLACK
6
CONTINUOUS
10
5.58284
20
-4.73063
11
5.58277
21
-4.73101
0
LINE
8
BLACK
6
CONTINUOUS
10
5.58277
20
-4.73101
11
5.58228
21
-4.7316
0
LINE
8
BLACK
6
CONTINUOUS
10
5.58228
20
-4.7316
11
5.5819
21
-4.73226
0
LINE
8
BLACK
6
CONTINUOUS
10
5.5819
20
-4.73226
11
5.58165
21
-4.73235
0
LINE
8
BLACK
6
CONTINUOUS
10
5.58165
20
-4.73235
11
5.58148
21
-4.73256
0
LINE
8
BLACK
6
CONTINUOUS
10
5.58148
20
-4.73256
11
5.58072
21
-4.73269
0
LINE
8
BLACK
6
CONTINUOUS
10
5.58072
20
-4.73269
11
5.58
21
-4.73295
0
LINE
8
BLACK
6
CONTINUOUS
10
5.58
20
-4.73295
11
5.38
21
-4.73295
0
LINE
8
BLACK
6
CONTINUOUS
10
5.38
20
-4.73295
11
5.37962
21
-4.73289
0
LINE
8
BLACK
6
CONTINUOUS
10
5.37962
20
-4.73289
11
5.37949
21
-4.73291
0
LINE
8
BLACK
6
CONTINUOUS
10
5.37949
20
-4.73291
11
5.37937
21
-4.73284
0
LINE
8
BLACK
6
CONTINUOUS
10
5.37937
20
-4.73284
11
5.37899
21
-4.73277
0
LINE
8
BLACK
6
CONTINUOUS
10
5.37899
20
-4.73277
11
5.3784
21
-4.73228
0
LINE
8
BLACK
6
CONTINUOUS
10
5.3784
20
-4.73228
11
5.37774
21
-4.7319
0
LINE
8
BLACK
6
CONTINUOUS
10
5.37774
20
-4.7319
11
5.37765
21
-4.73165
0
LINE
8
BLACK
6
CONTINUOUS
10
5.37765
20
-4.73165
11
5.37744
21
-4.73148
0
LINE
8
BLACK
6
CONTINUOUS
10
5.37744
20
-4.73148
11
5.37731
21
-4.73072
0
LINE
8
BLACK
6
CONTINUOUS
10
5.37731
20
-4.73072
11
5.37705
21
-4.73
0
LINE
8
BLACK
6
CONTINUOUS
10
5.37705
20
-4.73
11
5.37705
21
-4.63
0
LINE
8
BLACK
6
CONTINUOUS
10
5.37705
20
-4.63
11
5.37705
21
-4.53
0
LINE
8
BLACK
6
CONTINUOUS
10
5.37705
20
-4.53
11
5.37705
21
-4.53
0
LINE
8
BLACK
6
CONTINUOUS
10
5.37705
20
-4.53
11
5.37705
21
-4.43
0
LINE
8
BLACK
6
CONTINUOUS
10
5.37705
20
-4.43
11
5.37711
21
-4.42962
0
LINE
8
BLACK
6
CONTINUOUS
10
5.37711
20
-4.42962
11
5.37709
21
-4.42949
0
LINE
8
BLACK
6
CONTINUOUS
10
5.37709
20
-4.42949
11
5.37716
21
-4.42937
0
LINE
8
BLACK
6
CONTINUOUS
10
5.37716
20
-4.42937
11
5.37723
21
-4.42899
0
LINE
8
BLACK
6
CONTINUOUS
10
5.37723
20
-4.42899
11
5.37772
21
-4.4284
0
LINE
8
BLACK
6
CONTINUOUS
10
5.37772
20
-4.4284
11
5.3781
21
-4.42774
0
LINE
8
BLACK
6
CONTINUOUS
10
5.3781
20
-4.42774
11
5.37835
21
-4.42765
0
LINE
8
BLACK
6
CONTINUOUS
10
5.37835
20
-4.42765
11
5.37852
21
-4.42744
0
LINE
8
BLACK
6
CONTINUOUS
10
5.37852
20
-4.42744
11
5.37928
21
-4.42731
0
LINE
8
BLACK
6
CONTINUOUS
10
5.37928
20
-4.42731
11
5.38
21
-4.42705
0
LINE
8
BLACK
6
CONTINUOUS
10
5.38
20
-4.42705
11
5.58
21
-4.42705
0
LINE
8
BLACK
6
CONTINUOUS
10
5.58
20
-4.42705
11
5.58038
21
-4.42711
0
LINE
8
BLACK
6
CONTINUOUS
10
5.38295
20
-4.63295
11
5.38295
21
-4.72705
0
LINE
8
BLACK
6
CONTINUOUS
10
5.38295
20
-4.72705
11
5.57705
21
-4.72705
0
LINE
8
BLACK
6
CONTINUOUS
10
5.57705
20
-4.72705
11
5.57705
21
-4.63295
0
LINE
8
BLACK
6
CONTINUOUS
10
5.57705
20
-4.63295
11
5.38295
21
-4.63295
0
LINE
8
BLACK
6
CONTINUOUS
10
5.38295
20
-4.53295
11
5.38295
21
-4.62705
0
LINE
8
BLACK
6
CONTINUOUS
10
5.38295
20
-4.62705
11
5.57705
21
-4.62705
0
LINE
8
BLACK
6
CONTINUOUS
10
5.57705
20
-4.62705
11
5.57705
21
-4.53295
0
LINE
8
BLACK
6
CONTINUOUS
10
5.57705
20
-4.53295
11
5.38295
21
-4.53295
0
LINE
8
BLACK
6
CONTINUOUS
10
5.38295
20
-4.43295
11
5.38295
21
-4.52705
0
LINE
8
BLACK
6
CONTINUOUS
10
5.38295
20
-4.52705
11
5.57705
21
-4.52705
0
LINE
8
BLACK
6
CONTINUOUS
10
5.57705
20
-4.52705
11
5.57705
21
-4.43295
0
LINE
8
BLACK
6
CONTINUOUS
10
5.57705
20
-4.43295
11
5.38295
21
-4.43295
0
LINE
8
BLACK
6
CONTINUOUS
10
7.0735
20
-4.41265
11
7.0848
21
-4.4149
0
LINE
8
BLACK
6
CONTINUOUS
10
7.0848
20
-4.4149
11
7.09572
21
-4.4186
0
LINE
8
BLACK
6
CONTINUOUS
10
7.09572
20
-4.4186
11
7.10605
21
-4.4237
0
LINE
8
BLACK
6
CONTINUOUS
10
7.10605
20
-4.4237
11
7.11563
21
-4.4301
0
LINE
8
BLACK
6
CONTINUOUS
10
7.11563
20
-4.4301
11
7.1243
21
-4.4377
0
LINE
8
BLACK
6
CONTINUOUS
10
7.1243
20
-4.4377
11
7.1319
21
-4.44637
0
LINE
8
BLACK
6
CONTINUOUS
10
7.1319
20
-4.44637
11
7.1383
21
-4.45595
0
LINE
8
BLACK
6
CONTINUOUS
10
7.1383
20
-4.45595
11
7.1434
21
-4.46628
0
LINE
8
BLACK
6
CONTINUOUS
10
7.1434
20
-4.46628
11
7.1471
21
-4.4772
0
LINE
8
BLACK
6
CONTINUOUS
10
7.1471
20
-4.4772
11
7.14935
21
-4.4885
0
LINE
8
BLACK
6
CONTINUOUS
10
7.14935
20
-4.4885
11
7.1501
21
-4.5
0
LINE
8
BLACK
6
CONTINUOUS
10
7.1501
20
-4.5
11
7.14935
21
-4.5115
0
LINE
8
BLACK
6
CONTINUOUS
10
7.14935
20
-4.5115
11
7.1471
21
-4.5228
0
LINE
8
BLACK
6
CONTINUOUS
10
7.1471
20
-4.5228
11
7.1434
21
-4.53372
0
LINE
8
BLACK
6
CONTINUOUS
10
7.1434
20
-4.53372
11
7.1383
21
-4.54405
0
LINE
8
BLACK
6
CONTINUOUS
10
7.1383
20
-4.54405
11
7.1319
21
-4.55363
0
LINE
8
BLACK
6
CONTINUOUS
10
7.1319
20
-4.55363
11
7.1243
21
-4.5623
0
LINE
8
BLACK
6
CONTINUOUS
10
7.1243
20
-4.5623
11
7.11563
21
-4.5699
0
LINE
8
BLACK
6
CONTINUOUS
10
7.11563
20
-4.5699
11
7.10605
21
-4.5763
0
LINE
8
BLACK
6
CONTINUOUS
10
7.10605
20
-4.5763
11
7.09572
21
-4.5814
0
LINE
8
BLACK
6
CONTINUOUS
10
7.09572
20
-4.5814
11
7.0848
21
-4.5851
0
LINE
8
BLACK
6
CONTINUOUS
10
7.0848
20
-4.5851
11
7.0735
21
-4.58735
0
LINE
8
BLACK
6
CONTINUOUS
10
7.0735
20
-4.58735
11
7.062
21
-4.5881
0
LINE
8
BLACK
6
CONTINUOUS
10
7.062
20
-4.5881
11
7.0505
21
-4.58735
0
LINE
8
BLACK
6
CONTINUOUS
10
7.0505
20
-4.58735
11
7.0392
21
-4.5851
0
LINE
8
BLACK
6
CONTINUOUS
10
7.0392
20
-4.5851
11
7.02828
21
-4.5814
0
LINE
8
BLACK
6
CONTINUOUS
10
7.02828
20
-4.5814
11
7.01795
21
-4.5763
0
LINE
8
BLACK
6
CONTINUOUS
10
7.01795
20
-4.5763
11
7.00837
21
-4.5699
0
LINE
8
BLACK
6
CONTINUOUS
10
7.00837
20
-4.5699
11
6.9997
21
-4.5623
0
LINE
8
BLACK
6
CONTINUOUS
10
6.9997
20
-4.5623
11
6.9921
21
-4.55363
0
LINE
8
BLACK
6
CONTINUOUS
10
6.9921
20
-4.55363
11
6.9857
21
-4.54405
0
LINE
8
BLACK
6
CONTINUOUS
10
6.9857
20
-4.54405
11
6.9806
21
-4.53372
0
LINE
8
BLACK
6
CONTINUOUS
10
6.9806
20
-4.53372
11
6.9769
21
-4.5228
0
LINE
8
BLACK
6
CONTINUOUS
10
6.9769
20
-4.5228
11
6.97465
21
-4.5115
0
LINE
8
BLACK
6
CONTINUOUS
10
6.97465
20
-4.5115
11
6.9739
21
-4.5
0
LINE
8
BLACK
6
CONTINUOUS
10
6.9739
20
-4.5
11
6.97465
21
-4.4885
0
LINE
8
BLACK
6
CONTINUOUS
10
6.97465
20
-4.4885
11
6.9769
21
-4.4772
0
LINE
8
BLACK
6
CONTINUOUS
10
6.9769
20
-4.4772
11
6.9806
21
-4.46628
0
LINE
8
BLACK
6
CONTINUOUS
10
6.9806
20
-4.46628
11
6.9857
21
-4.45595
0
LINE
8
BLACK
6
CONTINUOUS
10
6.9857
20
-4.45595
11
6.9921
21
-4.44637
0
LINE
8
BLACK
6
CONTINUOUS
10
6.9921
20
-4.44637
11
6.9997
21
-4.4377
0
LINE
8
BLACK
6
CONTINUOUS
10
6.9997
20
-4.4377
11
7.00837
21
-4.4301
0
LINE
8
BLACK
6
CONTINUOUS
10
7.00837
20
-4.4301
11
7.01795
21
-4.4237
0
LINE
8
BLACK
6
CONTINUOUS
10
7.01795
20
-4.4237
11
7.02828
21
-4.4186
0
LINE
8
BLACK
6
CONTINUOUS
10
7.02828
20
-4.4186
11
7.0392
21
-4.4149
0
LINE
8
BLACK
6
CONTINUOUS
10
7.0392
20
-4.4149
11
7.0505
21
-4.41265
0
LINE
8
BLACK
6
CONTINUOUS
10
7.0505
20
-4.41265
11
7.062
21
-4.4119
0
LINE
8
BLACK
6
CONTINUOUS
10
7.062
20
-4.4119
11
7.0735
21
-4.41265
0
LINE
8
BLACK
6
CONTINUOUS
10
7.07141
20
-4.53768
11
7.07147
21
-4.53767
0
LINE
8
BLACK
6
CONTINUOUS
10
7.07147
20
-4.53767
11
7.07861
21
-4.54006
0
LINE
8
BLACK
6
CONTINUOUS
10
7.07861
20
-4.54006
11
7.07952
21
-4.54054
0
LINE
8
BLACK
6
CONTINUOUS
10
7.07952
20
-4.54054
11
7.07961
21
-4.54069
0
LINE
8
BLACK
6
CONTINUOUS
10
7.07961
20
-4.54069
11
7.07977
21
-4.54077
0
LINE
8
BLACK
6
CONTINUOUS
10
7.07977
20
-4.54077
11
7.08453
21
-4.54553
0
LINE
8
BLACK
6
CONTINUOUS
10
7.08453
20
-4.54553
11
7.08512
21
-4.54637
0
LINE
8
BLACK
6
CONTINUOUS
10
7.08512
20
-4.54637
11
7.08513
21
-4.54655
0
LINE
8
BLACK
6
CONTINUOUS
10
7.08513
20
-4.54655
11
7.08524
21
-4.54669
0
LINE
8
BLACK
6
CONTINUOUS
10
7.08524
20
-4.54669
11
7.08763
21
-4.55383
0
LINE
8
BLACK
6
CONTINUOUS
10
7.08763
20
-4.55383
11
7.08775
21
-4.5547
0
LINE
8
BLACK
6
CONTINUOUS
10
7.08775
20
-4.5547
11
7.08778
21
-4.55476
0
LINE
8
BLACK
6
CONTINUOUS
10
7.08778
20
-4.55476
11
7.08778
21
-4.55952
0
LINE
8
BLACK
6
CONTINUOUS
10
7.08778
20
-4.55952
11
7.0876
21
-4.56053
0
LINE
8
BLACK
6
CONTINUOUS
10
7.0876
20
-4.56053
11
7.0863
21
-4.56208
0
LINE
8
BLACK
6
CONTINUOUS
10
7.0863
20
-4.56208
11
7.08431
21
-4.56243
0
LINE
8
BLACK
6
CONTINUOUS
10
7.08431
20
-4.56243
11
7.08256
21
-4.56142
0
LINE
8
BLACK
6
CONTINUOUS
10
7.08256
20
-4.56142
11
7.08187
21
-4.55952
0
LINE
8
BLACK
6
CONTINUOUS
10
7.08187
20
-4.55952
11
7.08187
21
-4.55524
0
LINE
8
BLACK
6
CONTINUOUS
10
7.08187
20
-4.55524
11
7.07986
21
-4.54921
0
LINE
8
BLACK
6
CONTINUOUS
10
7.07986
20
-4.54921
11
7.07609
21
-4.54544
0
LINE
8
BLACK
6
CONTINUOUS
10
7.07609
20
-4.54544
11
7.07006
21
-4.54343
0
LINE
8
BLACK
6
CONTINUOUS
10
7.07006
20
-4.54343
11
7.03482
21
-4.54343
0
LINE
8
BLACK
6
CONTINUOUS
10
7.03482
20
-4.54343
11
7.03381
21
-4.54325
0
LINE
8
BLACK
6
CONTINUOUS
10
7.03381
20
-4.54325
11
7.03227
21
-4.54195
0
LINE
8
BLACK
6
CONTINUOUS
10
7.03227
20
-4.54195
11
7.03192
21
-4.53996
0
LINE
8
BLACK
6
CONTINUOUS
10
7.03192
20
-4.53996
11
7.03293
21
-4.53821
0
LINE
8
BLACK
6
CONTINUOUS
10
7.03293
20
-4.53821
11
7.03482
21
-4.53752
0
LINE
8
BLACK
6
CONTINUOUS
10
7.03482
20
-4.53752
11
7.07054
21
-4.53752
0
LINE
8
BLACK
6
CONTINUOUS
10
7.07054
20
-4.53752
11
7.07141
21
-4.53768
0
LINE
8
BLACK
6
CONTINUOUS
10
7.08709
20
-4.48858
11
7.08778
21
-4.49048
0
LINE
8
BLACK
6
CONTINUOUS
10
7.08778
20
-4.49048
11
7.08778
21
-4.51905
0
LINE
8
BLACK
6
CONTINUOUS
10
7.08778
20
-4.51905
11
7.0876
21
-4.52006
0
LINE
8
BLACK
6
CONTINUOUS
10
7.0876
20
-4.52006
11
7.0863
21
-4.5216
0
LINE
8
BLACK
6
CONTINUOUS
10
7.0863
20
-4.5216
11
7.08431
21
-4.52196
0
LINE
8
BLACK
6
CONTINUOUS
10
7.08431
20
-4.52196
11
7.08256
21
-4.52095
0
LINE
8
BLACK
6
CONTINUOUS
10
7.08256
20
-4.52095
11
7.08187
21
-4.51905
0
LINE
8
BLACK
6
CONTINUOUS
10
7.08187
20
-4.51905
11
7.08187
21
-4.50771
0
LINE
8
BLACK
6
CONTINUOUS
10
7.08187
20
-4.50771
11
7.04433
21
-4.50771
0
LINE
8
BLACK
6
CONTINUOUS
10
7.04433
20
-4.50771
11
7.04882
21
-4.5122
0
LINE
8
BLACK
6
CONTINUOUS
10
7.04882
20
-4.5122
11
7.04932
21
-4.51292
0
LINE
8
BLACK
6
CONTINUOUS
10
7.04932
20
-4.51292
11
7.04937
21
-4.51297
0
LINE
8
BLACK
6
CONTINUOUS
10
7.04937
20
-4.51297
11
7.05175
21
-4.51773
0
LINE
8
BLACK
6
CONTINUOUS
10
7.05175
20
-4.51773
11
7.05204
21
-4.51871
0
LINE
8
BLACK
6
CONTINUOUS
10
7.05204
20
-4.51871
11
7.05157
21
-4.52067
0
LINE
8
BLACK
6
CONTINUOUS
10
7.05157
20
-4.52067
11
7.04995
21
-4.52188
0
LINE
8
BLACK
6
CONTINUOUS
10
7.04995
20
-4.52188
11
7.04794
21
-4.52176
0
LINE
8
BLACK
6
CONTINUOUS
10
7.04794
20
-4.52176
11
7.04647
21
-4.52037
0
LINE
8
BLACK
6
CONTINUOUS
10
7.04647
20
-4.52037
11
7.0443
21
-4.51603
0
LINE
8
BLACK
6
CONTINUOUS
10
7.0443
20
-4.51603
11
7.04009
21
-4.51182
0
LINE
8
BLACK
6
CONTINUOUS
10
7.04009
20
-4.51182
11
7.03319
21
-4.50722
0
LINE
8
BLACK
6
CONTINUOUS
10
7.03319
20
-4.50722
11
7.03244
21
-4.50651
0
LINE
8
BLACK
6
CONTINUOUS
10
7.03244
20
-4.50651
11
7.0324
21
-4.50635
0
LINE
8
BLACK
6
CONTINUOUS
10
7.0324
20
-4.50635
11
7.03227
21
-4.50624
0
LINE
8
BLACK
6
CONTINUOUS
10
7.03227
20
-4.50624
11
7.03212
21
-4.50539
0
LINE
8
BLACK
6
CONTINUOUS
10
7.03212
20
-4.50539
11
7.03188
21
-4.50457
0
LINE
8
BLACK
6
CONTINUOUS
10
7.03188
20
-4.50457
11
7.03195
21
-4.50442
0
LINE
8
BLACK
6
CONTINUOUS
10
7.03195
20
-4.50442
11
7.03192
21
-4.50425
0
LINE
8
BLACK
6
CONTINUOUS
10
7.03192
20
-4.50425
11
7.03234
21
-4.50351
0
LINE
8
BLACK
6
CONTINUOUS
10
7.03234
20
-4.50351
11
7.03269
21
-4.50272
0
LINE
8
BLACK
6
CONTINUOUS
10
7.03269
20
-4.50272
11
7.03284
21
-4.50265
0
LINE
8
BLACK
6
CONTINUOUS
10
7.03284
20
-4.50265
11
7.03293
21
-4.5025
0
LINE
8
BLACK
6
CONTINUOUS
10
7.03293
20
-4.5025
11
7.03373
21
-4.50221
0
LINE
8
BLACK
6
CONTINUOUS
10
7.03373
20
-4.50221
11
7.0345
21
-4.50183
0
LINE
8
BLACK
6
CONTINUOUS
10
7.0345
20
-4.50183
11
7.03466
21
-4.50187
0
LINE
8
BLACK
6
CONTINUOUS
10
7.03466
20
-4.50187
11
7.03482
21
-4.50181
0
LINE
8
BLACK
6
CONTINUOUS
10
7.03482
20
-4.50181
11
7.08187
21
-4.50181
0
LINE
8
BLACK
6
CONTINUOUS
10
7.08187
20
-4.50181
11
7.08187
21
-4.49048
0
LINE
8
BLACK
6
CONTINUOUS
10
7.08187
20
-4.49048
11
7.08205
21
-4.48947
0
LINE
8
BLACK
6
CONTINUOUS
10
7.08205
20
-4.48947
11
7.08335
21
-4.48792
0
LINE
8
BLACK
6
CONTINUOUS
10
7.08335
20
-4.48792
11
7.08534
21
-4.48757
0
LINE
8
BLACK
6
CONTINUOUS
10
7.08534
20
-4.48757
11
7.08709
21
-4.48858
0
LINE
8
BLACK
6
CONTINUOUS
10
7.04998
20
-4.44006
11
7.05004
21
-4.44006
0
LINE
8
BLACK
6
CONTINUOUS
10
7.05004
20
-4.44006
11
7.05719
21
-4.44244
0
LINE
8
BLACK
6
CONTINUOUS
10
7.05719
20
-4.44244
11
7.05809
21
-4.44293
0
LINE
8
BLACK
6
CONTINUOUS
10
7.05809
20
-4.44293
11
7.05818
21
-4.44308
0
LINE
8
BLACK
6
CONTINUOUS
10
7.05818
20
-4.44308
11
7.05834
21
-4.44315
0
LINE
8
BLACK
6
CONTINUOUS
10
7.05834
20
-4.44315
11
7.08187
21
-4.46668
0
LINE
8
BLACK
6
CONTINUOUS
10
7.08187
20
-4.46668
11
7.08187
21
-4.44286
0
LINE
8
BLACK
6
CONTINUOUS
10
7.08187
20
-4.44286
11
7.08205
21
-4.44185
0
LINE
8
BLACK
6
CONTINUOUS
10
7.08205
20
-4.44185
11
7.08335
21
-4.4403
0
LINE
8
BLACK
6
CONTINUOUS
10
7.08335
20
-4.4403
11
7.08534
21
-4.43995
0
LINE
8
BLACK
6
CONTINUOUS
10
7.08534
20
-4.43995
11
7.08709
21
-4.44096
0
LINE
8
BLACK
6
CONTINUOUS
10
7.08709
20
-4.44096
11
7.08778
21
-4.44286
0
LINE
8
BLACK
6
CONTINUOUS
10
7.08778
20
-4.44286
11
7.08778
21
-4.47381
0
LINE
8
BLACK
6
CONTINUOUS
10
7.08778
20
-4.47381
11
7.08766
21
-4.47444
0
LINE
8
BLACK
6
CONTINUOUS
10
7.08766
20
-4.47444
11
7.08768
21
-4.47457
0
LINE
8
BLACK
6
CONTINUOUS
10
7.08768
20
-4.47457
11
7.08763
21
-4.47464
0
LINE
8
BLACK
6
CONTINUOUS
10
7.08763
20
-4.47464
11
7.0876
21
-4.47482
0
LINE
8
BLACK
6
CONTINUOUS
10
7.0876
20
-4.47482
11
7.08703
21
-4.4755
0
LINE
8
BLACK
6
CONTINUOUS
10
7.08703
20
-4.4755
11
7.08652
21
-4.47623
0
LINE
8
BLACK
6
CONTINUOUS
10
7.08652
20
-4.47623
11
7.08639
21
-4.47626
0
LINE
8
BLACK
6
CONTINUOUS
10
7.08639
20
-4.47626
11
7.0863
21
-4.47637
0
LINE
8
BLACK
6
CONTINUOUS
10
7.0863
20
-4.47637
11
7.08542
21
-4.47652
0
LINE
8
BLACK
6
CONTINUOUS
10
7.08542
20
-4.47652
11
7.08457
21
-4.47675
0
LINE
8
BLACK
6
CONTINUOUS
10
7.08457
20
-4.47675
11
7.08444
21
-4.47669
0
LINE
8
BLACK
6
CONTINUOUS
10
7.08444
20
-4.47669
11
7.08431
21
-4.47672
0
LINE
8
BLACK
6
CONTINUOUS
10
7.08431
20
-4.47672
11
7.08354
21
-4.47627
0
LINE
8
BLACK
6
CONTINUOUS
10
7.08354
20
-4.47627
11
7.08274
21
-4.4759
0
LINE
8
BLACK
6
CONTINUOUS
10
7.08274
20
-4.4759
11
7.05466
21
-4.44782
0
LINE
8
BLACK
6
CONTINUOUS
10
7.05466
20
-4.44782
11
7.04863
21
-4.44581
0
LINE
8
BLACK
6
CONTINUOUS
10
7.04863
20
-4.44581
11
7.04504
21
-4.44581
0
LINE
8
BLACK
6
CONTINUOUS
10
7.04504
20
-4.44581
11
7.04133
21
-4.44766
0
LINE
8
BLACK
6
CONTINUOUS
10
7.04133
20
-4.44766
11
7.03963
21
-4.44937
0
LINE
8
BLACK
6
CONTINUOUS
10
7.03963
20
-4.44937
11
7.03778
21
-4.45308
0
LINE
8
BLACK
6
CONTINUOUS
10
7.03778
20
-4.45308
11
7.03778
21
-4.46359
0
LINE
8
BLACK
6
CONTINUOUS
10
7.03778
20
-4.46359
11
7.03963
21
-4.4673
0
LINE
8
BLACK
6
CONTINUOUS
10
7.03963
20
-4.4673
11
7.04167
21
-4.46934
0
LINE
8
BLACK
6
CONTINUOUS
10
7.04167
20
-4.46934
11
7.04226
21
-4.47018
0
LINE
8
BLACK
6
CONTINUOUS
10
7.04226
20
-4.47018
11
7.04244
21
-4.47219
0
LINE
8
BLACK
6
CONTINUOUS
10
7.04244
20
-4.47219
11
7.04128
21
-4.47385
0
LINE
8
BLACK
6
CONTINUOUS
10
7.04128
20
-4.47385
11
7.03933
21
-4.47437
0
LINE
8
BLACK
6
CONTINUOUS
10
7.03933
20
-4.47437
11
7.0375
21
-4.47352
0
LINE
8
BLACK
6
CONTINUOUS
10
7.0375
20
-4.47352
11
7.03512
21
-4.47114
0
LINE
8
BLACK
6
CONTINUOUS
10
7.03512
20
-4.47114
11
7.03461
21
-4.47041
0
LINE
8
BLACK
6
CONTINUOUS
10
7.03461
20
-4.47041
11
7.03456
21
-4.47037
0
LINE
8
BLACK
6
CONTINUOUS
10
7.03456
20
-4.47037
11
7.03218
21
-4.46561
0
LINE
8
BLACK
6
CONTINUOUS
10
7.03218
20
-4.46561
11
7.03189
21
-4.46462
0
LINE
8
BLACK
6
CONTINUOUS
10
7.03189
20
-4.46462
11
7.03193
21
-4.46445
0
LINE
8
BLACK
6
CONTINUOUS
10
7.03193
20
-4.46445
11
7.03187
21
-4.46429
0
LINE
8
BLACK
6
CONTINUOUS
10
7.03187
20
-4.46429
11
7.03187
21
-4.45238
0
LINE
8
BLACK
6
CONTINUOUS
10
7.03187
20
-4.45238
11
7.03205
21
-4.45137
0
LINE
8
BLACK
6
CONTINUOUS
10
7.03205
20
-4.45137
11
7.03216
21
-4.45124
0
LINE
8
BLACK
6
CONTINUOUS
10
7.03216
20
-4.45124
11
7.03218
21
-4.45106
0
LINE
8
BLACK
6
CONTINUOUS
10
7.03218
20
-4.45106
11
7.03456
21
-4.4463
0
LINE
8
BLACK
6
CONTINUOUS
10
7.03456
20
-4.4463
11
7.03509
21
-4.44559
0
LINE
8
BLACK
6
CONTINUOUS
10
7.03509
20
-4.44559
11
7.03512
21
-4.44553
0
LINE
8
BLACK
6
CONTINUOUS
10
7.03512
20
-4.44553
11
7.0375
21
-4.44315
0
LINE
8
BLACK
6
CONTINUOUS
10
7.0375
20
-4.44315
11
7.03822
21
-4.44264
0
LINE
8
BLACK
6
CONTINUOUS
10
7.03822
20
-4.44264
11
7.03827
21
-4.4426
0
LINE
8
BLACK
6
CONTINUOUS
10
7.03827
20
-4.4426
11
7.04303
21
-4.44022
0
LINE
8
BLACK
6
CONTINUOUS
10
7.04303
20
-4.44022
11
7.04401
21
-4.43992
0
LINE
8
BLACK
6
CONTINUOUS
10
7.04401
20
-4.43992
11
7.04418
21
-4.43996
0
LINE
8
BLACK
6
CONTINUOUS
10
7.04418
20
-4.43996
11
7.04435
21
-4.4399
0
LINE
8
BLACK
6
CONTINUOUS
10
7.04435
20
-4.4399
11
7.04911
21
-4.4399
0
LINE
8
BLACK
6
CONTINUOUS
10
7.04911
20
-4.4399
11
7.04998
21
-4.44006
0
LINE
8
BLACK
6
CONTINUOUS
10
6.98038
20
-4.51122
11
6.98267
21
-4.52223
0
LINE
8
BLACK
6
CONTINUOUS
10
6.98267
20
-4.52223
11
6.98643
21
-4.53282
0
LINE
8
BLACK
6
CONTINUOUS
10
6.98643
20
-4.53282
11
6.99161
21
-4.54281
0
LINE
8
BLACK
6
CONTINUOUS
10
6.99161
20
-4.54281
11
6.99809
21
-4.55199
0
LINE
8
BLACK
6
CONTINUOUS
10
6.99809
20
-4.55199
11
7.00577
21
-4.56021
0
LINE
8
BLACK
6
CONTINUOUS
10
7.00577
20
-4.56021
11
7.01449
21
-4.56731
0
LINE
8
BLACK
6
CONTINUOUS
10
7.01449
20
-4.56731
11
7.0241
21
-4.57315
0
LINE
8
BLACK
6
CONTINUOUS
10
7.0241
20
-4.57315
11
7.03441
21
-4.57763
0
LINE
8
BLACK
6
CONTINUOUS
10
7.03441
20
-4.57763
11
7.04524
21
-4.58067
0
LINE
8
BLACK
6
CONTINUOUS
10
7.04524
20
-4.58067
11
7.05638
21
-4.5822
0
LINE
8
BLACK
6
CONTINUOUS
10
7.05638
20
-4.5822
11
7.06762
21
-4.5822
0
LINE
8
BLACK
6
CONTINUOUS
10
7.06762
20
-4.5822
11
7.07876
21
-4.58067
0
LINE
8
BLACK
6
CONTINUOUS
10
7.07876
20
-4.58067
11
7.08959
21
-4.57763
0
LINE
8
BLACK
6
CONTINUOUS
10
7.08959
20
-4.57763
11
7.0999
21
-4.57315
0
LINE
8
BLACK
6
CONTINUOUS
10
7.0999
20
-4.57315
11
7.10951
21
-4.56731
0
LINE
8
BLACK
6
CONTINUOUS
10
7.10951
20
-4.56731
11
7.11823
21
-4.56021
0
LINE
8
BLACK
6
CONTINUOUS
10
7.11823
20
-4.56021
11
7.12591
21
-4.55199
0
LINE
8
BLACK
6
CONTINUOUS
10
7.12591
20
-4.55199
11
7.13239
21
-4.54281
0
LINE
8
BLACK
6
CONTINUOUS
10
7.13239
20
-4.54281
11
7.13757
21
-4.53282
0
LINE
8
BLACK
6
CONTINUOUS
10
7.13757
20
-4.53282
11
7.14133
21
-4.52223
0
LINE
8
BLACK
6
CONTINUOUS
10
7.14133
20
-4.52223
11
7.14362
21
-4.51122
0
LINE
8
BLACK
6
CONTINUOUS
10
7.14362
20
-4.51122
11
7.14439
21
-4.5
0
LINE
8
BLACK
6
CONTINUOUS
10
7.14439
20
-4.5
11
7.14362
21
-4.48878
0
LINE
8
BLACK
6
CONTINUOUS
10
7.14362
20
-4.48878
11
7.14133
21
-4.47777
0
LINE
8
BLACK
6
CONTINUOUS
10
7.14133
20
-4.47777
11
7.13757
21
-4.46718
0
LINE
8
BLACK
6
CONTINUOUS
10
7.13757
20
-4.46718
11
7.13239
21
-4.45719
0
LINE
8
BLACK
6
CONTINUOUS
10
7.13239
20
-4.45719
11
7.12591
21
-4.44801
0
LINE
8
BLACK
6
CONTINUOUS
10
7.12591
20
-4.44801
11
7.11823
21
-4.43979
0
LINE
8
BLACK
6
CONTINUOUS
10
7.11823
20
-4.43979
11
7.10951
21
-4.43269
0
LINE
8
BLACK
6
CONTINUOUS
10
7.10951
20
-4.43269
11
7.0999
21
-4.42685
0
LINE
8
BLACK
6
CONTINUOUS
10
7.0999
20
-4.42685
11
7.08959
21
-4.42237
0
LINE
8
BLACK
6
CONTINUOUS
10
7.08959
20
-4.42237
11
7.07876
21
-4.41933
0
LINE
8
BLACK
6
CONTINUOUS
10
7.07876
20
-4.41933
11
7.06762
21
-4.4178
0
LINE
8
BLACK
6
CONTINUOUS
10
7.06762
20
-4.4178
11
7.05638
21
-4.4178
0
LINE
8
BLACK
6
CONTINUOUS
10
7.05638
20
-4.4178
11
7.04524
21
-4.41933
0
LINE
8
BLACK
6
CONTINUOUS
10
7.04524
20
-4.41933
11
7.03441
21
-4.42237
0
LINE
8
BLACK
6
CONTINUOUS
10
7.03441
20
-4.42237
11
7.0241
21
-4.42685
0
LINE
8
BLACK
6
CONTINUOUS
10
7.0241
20
-4.42685
11
7.01449
21
-4.43269
0
LINE
8
BLACK
6
CONTINUOUS
10
7.01449
20
-4.43269
11
7.00577
21
-4.43979
0
LINE
8
BLACK
6
CONTINUOUS
10
7.00577
20
-4.43979
11
6.99809
21
-4.44801
0
LINE
8
BLACK
6
CONTINUOUS
10
6.99809
20
-4.44801
11
6.99161
21
-4.45719
0
LINE
8
BLACK
6
CONTINUOUS
10
6.99161
20
-4.45719
11
6.98643
21
-4.46718
0
LINE
8
BLACK
6
CONTINUOUS
10
6.98643
20
-4.46718
11
6.98267
21
-4.47777
0
LINE
8
BLACK
6
CONTINUOUS
10
6.98267
20
-4.47777
11
6.98038
21
-4.48878
0
LINE
8
BLACK
6
CONTINUOUS
10
6.98038
20
-4.48878
11
6.97961
21
-4.5
0
LINE
8
BLACK
6
CONTINUOUS
10
6.97961
20
-4.5
11
6.98038
21
-4.51122
0
LINE
8
BLACK
6
CONTINUOUS
10
7.20018
20
-4.35932
11
7.20031
21
-4.3593
0
LINE
8
BLACK
6
CONTINUOUS
10
7.20031
20
-4.3593
11
7.20042
21
-4.35936
0
LINE
8
BLACK
6
CONTINUOUS
10
7.20042
20
-4.35936
11
7.20081
21
-4.35943
0
LINE
8
BLACK
6
CONTINUOUS
10
7.20081
20
-4.35943
11
7.20139
21
-4.35992
0
LINE
8
BLACK
6
CONTINUOUS
10
7.20139
20
-4.35992
11
7.20206
21
-4.36031
0
LINE
8
BLACK
6
CONTINUOUS
10
7.20206
20
-4.36031
11
7.20215
21
-4.36056
0
LINE
8
BLACK
6
CONTINUOUS
10
7.20215
20
-4.36056
11
7.20235
21
-4.36073
0
LINE
8
BLACK
6
CONTINUOUS
10
7.20235
20
-4.36073
11
7.20249
21
-4.36148
0
LINE
8
BLACK
6
CONTINUOUS
10
7.20249
20
-4.36148
11
7.20275
21
-4.3622
0
LINE
8
BLACK
6
CONTINUOUS
10
7.20275
20
-4.3622
11
7.20275
21
-4.6378
0
LINE
8
BLACK
6
CONTINUOUS
10
7.20275
20
-4.6378
11
7.20268
21
-4.63818
0
LINE
8
BLACK
6
CONTINUOUS
10
7.20268
20
-4.63818
11
7.2027
21
-4.63831
0
LINE
8
BLACK
6
CONTINUOUS
10
7.2027
20
-4.63831
11
7.20264
21
-4.63842
0
LINE
8
BLACK
6
CONTINUOUS
10
7.20264
20
-4.63842
11
7.20257
21
-4.63881
0
LINE
8
BLACK
6
CONTINUOUS
10
7.20257
20
-4.63881
11
7.20208
21
-4.63939
0
LINE
8
BLACK
6
CONTINUOUS
10
7.20208
20
-4.63939
11
7.20169
21
-4.64006
0
LINE
8
BLACK
6
CONTINUOUS
10
7.20169
20
-4.64006
11
7.20144
21
-4.64015
0
LINE
8
BLACK
6
CONTINUOUS
10
7.20144
20
-4.64015
11
7.20127
21
-4.64035
0
LINE
8
BLACK
6
CONTINUOUS
10
7.20127
20
-4.64035
11
7.20052
21
-4.64049
0
LINE
8
BLACK
6
CONTINUOUS
10
7.20052
20
-4.64049
11
7.1998
21
-4.64075
0
LINE
8
BLACK
6
CONTINUOUS
10
7.1998
20
-4.64075
11
6.9242
21
-4.64075
0
LINE
8
BLACK
6
CONTINUOUS
10
6.9242
20
-4.64075
11
6.92382
21
-4.64068
0
LINE
8
BLACK
6
CONTINUOUS
10
6.92382
20
-4.64068
11
6.92369
21
-4.6407
0
LINE
8
BLACK
6
CONTINUOUS
10
6.92369
20
-4.6407
11
6.92358
21
-4.64064
0
LINE
8
BLACK
6
CONTINUOUS
10
6.92358
20
-4.64064
11
6.92319
21
-4.64057
0
LINE
8
BLACK
6
CONTINUOUS
10
6.92319
20
-4.64057
11
6.92261
21
-4.64008
0
LINE
8
BLACK
6
CONTINUOUS
10
6.92261
20
-4.64008
11
6.92194
21
-4.63969
0
LINE
8
BLACK
6
CONTINUOUS
10
6.92194
20
-4.63969
11
6.92185
21
-4.63944
0
LINE
8
BLACK
6
CONTINUOUS
10
6.92185
20
-4.63944
11
6.92165
21
-4.63927
0
LINE
8
BLACK
6
CONTINUOUS
10
6.92165
20
-4.63927
11
6.92151
21
-4.63852
0
LINE
8
BLACK
6
CONTINUOUS
10
6.92151
20
-4.63852
11
6.92125
21
-4.6378
0
LINE
8
BLACK
6
CONTINUOUS
10
6.92125
20
-4.6378
11
6.92125
21
-4.3622
0
LINE
8
BLACK
6
CONTINUOUS
10
6.92125
20
-4.3622
11
6.92132
21
-4.36182
0
LINE
8
BLACK
6
CONTINUOUS
10
6.92132
20
-4.36182
11
6.9213
21
-4.36169
0
LINE
8
BLACK
6
CONTINUOUS
10
6.9213
20
-4.36169
11
6.92136
21
-4.36158
0
LINE
8
BLACK
6
CONTINUOUS
10
6.92136
20
-4.36158
11
6.92143
21
-4.36119
0
LINE
8
BLACK
6
CONTINUOUS
10
6.92143
20
-4.36119
11
6.92192
21
-4.36061
0
LINE
8
BLACK
6
CONTINUOUS
10
6.92192
20
-4.36061
11
6.92231
21
-4.35994
0
LINE
8
BLACK
6
CONTINUOUS
10
6.92231
20
-4.35994
11
6.92256
21
-4.35985
0
LINE
8
BLACK
6
CONTINUOUS
10
6.92256
20
-4.35985
11
6.92273
21
-4.35965
0
LINE
8
BLACK
6
CONTINUOUS
10
6.92273
20
-4.35965
11
6.92348
21
-4.35951
0
LINE
8
BLACK
6
CONTINUOUS
10
6.92348
20
-4.35951
11
6.9242
21
-4.35925
0
LINE
8
BLACK
6
CONTINUOUS
10
6.9242
20
-4.35925
11
7.1998
21
-4.35925
0
LINE
8
BLACK
6
CONTINUOUS
10
7.1998
20
-4.35925
11
7.20018
21
-4.35932
0
LINE
8
BLACK
6
CONTINUOUS
10
6.92716
20
-4.58287
11
6.92716
21
-4.63484
0
LINE
8
BLACK
6
CONTINUOUS
10
6.92716
20
-4.63484
11
6.97913
21
-4.63484
0
LINE
8
BLACK
6
CONTINUOUS
10
6.97913
20
-4.63484
11
6.97913
21
-4.62303
0
LINE
8
BLACK
6
CONTINUOUS
10
6.97913
20
-4.62303
11
6.94192
21
-4.62303
0
LINE
8
BLACK
6
CONTINUOUS
10
6.94192
20
-4.62303
11
6.94154
21
-4.62296
0
LINE
8
BLACK
6
CONTINUOUS
10
6.94154
20
-4.62296
11
6.94141
21
-4.62299
0
LINE
8
BLACK
6
CONTINUOUS
10
6.94141
20
-4.62299
11
6.94129
21
-4.62292
0
LINE
8
BLACK
6
CONTINUOUS
10
6.94129
20
-4.62292
11
6.94091
21
-4.62285
0
LINE
8
BLACK
6
CONTINUOUS
10
6.94091
20
-4.62285
11
6.94032
21
-4.62236
0
LINE
8
BLACK
6
CONTINUOUS
10
6.94032
20
-4.62236
11
6.93966
21
-4.62198
0
LINE
8
BLACK
6
CONTINUOUS
10
6.93966
20
-4.62198
11
6.93957
21
-4.62173
0
LINE
8
BLACK
6
CONTINUOUS
10
6.93957
20
-4.62173
11
6.93936
21
-4.62156
0
LINE
8
BLACK
6
CONTINUOUS
10
6.93936
20
-4.62156
11
6.93923
21
-4.6208
0
LINE
8
BLACK
6
CONTINUOUS
10
6.93923
20
-4.6208
11
6.93897
21
-4.62008
0
LINE
8
BLACK
6
CONTINUOUS
10
6.93897
20
-4.62008
11
6.93897
21
-4.58287
0
LINE
8
BLACK
6
CONTINUOUS
10
6.93897
20
-4.58287
11
6.92716
21
-4.58287
0
LINE
8
BLACK
6
CONTINUOUS
10
6.98503
20
-4.36516
11
6.98503
21
-4.42008
0
LINE
8
BLACK
6
CONTINUOUS
10
6.98503
20
-4.42008
11
6.98496
21
-4.42046
0
LINE
8
BLACK
6
CONTINUOUS
10
6.98496
20
-4.42046
11
6.98499
21
-4.42059
0
LINE
8
BLACK
6
CONTINUOUS
10
6.98499
20
-4.42059
11
6.98492
21
-4.42071
0
LINE
8
BLACK
6
CONTINUOUS
10
6.98492
20
-4.42071
11
6.98485
21
-4.42109
0
LINE
8
BLACK
6
CONTINUOUS
10
6.98485
20
-4.42109
11
6.98436
21
-4.42168
0
LINE
8
BLACK
6
CONTINUOUS
10
6.98436
20
-4.42168
11
6.98398
21
-4.42234
0
LINE
8
BLACK
6
CONTINUOUS
10
6.98398
20
-4.42234
11
6.98373
21
-4.42243
0
LINE
8
BLACK
6
CONTINUOUS
10
6.98373
20
-4.42243
11
6.98356
21
-4.42264
0
LINE
8
BLACK
6
CONTINUOUS
10
6.98356
20
-4.42264
11
6.9828
21
-4.42277
0
LINE
8
BLACK
6
CONTINUOUS
10
6.9828
20
-4.42277
11
6.98208
21
-4.42303
0
LINE
8
BLACK
6
CONTINUOUS
10
6.98208
20
-4.42303
11
6.92716
21
-4.42303
0
LINE
8
BLACK
6
CONTINUOUS
10
6.92716
20
-4.42303
11
6.92716
21
-4.57697
0
LINE
8
BLACK
6
CONTINUOUS
10
6.92716
20
-4.57697
11
6.98208
21
-4.57697
0
LINE
8
BLACK
6
CONTINUOUS
10
6.98208
20
-4.57697
11
6.98246
21
-4.57704
0
LINE
8
BLACK
6
CONTINUOUS
10
6.98246
20
-4.57704
11
6.98259
21
-4.57701
0
LINE
8
BLACK
6
CONTINUOUS
10
6.98259
20
-4.57701
11
6.98271
21
-4.57708
0
LINE
8
BLACK
6
CONTINUOUS
10
6.98271
20
-4.57708
11
6.98309
21
-4.57715
0
LINE
8
BLACK
6
CONTINUOUS
10
6.98309
20
-4.57715
11
6.98368
21
-4.57764
0
LINE
8
BLACK
6
CONTINUOUS
10
6.98368
20
-4.57764
11
6.98434
21
-4.57802
0
LINE
8
BLACK
6
CONTINUOUS
10
6.98434
20
-4.57802
11
6.98443
21
-4.57827
0
LINE
8
BLACK
6
CONTINUOUS
10
6.98443
20
-4.57827
11
6.98464
21
-4.57844
0
LINE
8
BLACK
6
CONTINUOUS
10
6.98464
20
-4.57844
11
6.98477
21
-4.5792
0
LINE
8
BLACK
6
CONTINUOUS
10
6.98477
20
-4.5792
11
6.98503
21
-4.57992
0
LINE
8
BLACK
6
CONTINUOUS
10
6.98503
20
-4.57992
11
6.98503
21
-4.63484
0
LINE
8
BLACK
6
CONTINUOUS
10
6.98503
20
-4.63484
11
7.13897
21
-4.63484
0
LINE
8
BLACK
6
CONTINUOUS
10
7.13897
20
-4.63484
11
7.13897
21
-4.57992
0
LINE
8
BLACK
6
CONTINUOUS
10
7.13897
20
-4.57992
11
7.13904
21
-4.57954
0
LINE
8
BLACK
6
CONTINUOUS
10
7.13904
20
-4.57954
11
7.13901
21
-4.57941
0
LINE
8
BLACK
6
CONTINUOUS
10
7.13901
20
-4.57941
11
7.13908
21
-4.57929
0
LINE
8
BLACK
6
CONTINUOUS
10
7.13908
20
-4.57929
11
7.13915
21
-4.57891
0
LINE
8
BLACK
6
CONTINUOUS
10
7.13915
20
-4.57891
11
7.13964
21
-4.57832
0
LINE
8
BLACK
6
CONTINUOUS
10
7.13964
20
-4.57832
11
7.14002
21
-4.57766
0
LINE
8
BLACK
6
CONTINUOUS
10
7.14002
20
-4.57766
11
7.14027
21
-4.57757
0
LINE
8
BLACK
6
CONTINUOUS
10
7.14027
20
-4.57757
11
7.14044
21
-4.57736
0
LINE
8
BLACK
6
CONTINUOUS
10
7.14044
20
-4.57736
11
7.1412
21
-4.57723
0
LINE
8
BLACK
6
CONTINUOUS
10
7.1412
20
-4.57723
11
7.14192
21
-4.57697
0
LINE
8
BLACK
6
CONTINUOUS
10
7.14192
20
-4.57697
11
7.19684
21
-4.57697
0
LINE
8
BLACK
6
CONTINUOUS
10
7.19684
20
-4.57697
11
7.19684
21
-4.42303
0
LINE
8
BLACK
6
CONTINUOUS
10
7.19684
20
-4.42303
11
7.14192
21
-4.42303
0
LINE
8
BLACK
6
CONTINUOUS
10
7.14192
20
-4.42303
11
7.14154
21
-4.42296
0
LINE
8
BLACK
6
CONTINUOUS
10
7.14154
20
-4.42296
11
7.14141
21
-4.42299
0
LINE
8
BLACK
6
CONTINUOUS
10
7.14141
20
-4.42299
11
7.14129
21
-4.42292
0
LINE
8
BLACK
6
CONTINUOUS
10
7.14129
20
-4.42292
11
7.14091
21
-4.42285
0
LINE
8
BLACK
6
CONTINUOUS
10
7.14091
20
-4.42285
11
7.14032
21
-4.42236
0
LINE
8
BLACK
6
CONTINUOUS
10
7.14032
20
-4.42236
11
7.13966
21
-4.42198
0
LINE
8
BLACK
6
CONTINUOUS
10
7.13966
20
-4.42198
11
7.13957
21
-4.42173
0
LINE
8
BLACK
6
CONTINUOUS
10
7.13957
20
-4.42173
11
7.13936
21
-4.42156
0
LINE
8
BLACK
6
CONTINUOUS
10
7.13936
20
-4.42156
11
7.13923
21
-4.4208
0
LINE
8
BLACK
6
CONTINUOUS
10
7.13923
20
-4.4208
11
7.13897
21
-4.42008
0
LINE
8
BLACK
6
CONTINUOUS
10
7.13897
20
-4.42008
11
7.13897
21
-4.36516
0
LINE
8
BLACK
6
CONTINUOUS
10
7.13897
20
-4.36516
11
6.98503
21
-4.36516
0
LINE
8
BLACK
6
CONTINUOUS
10
7.18503
20
-4.58287
11
7.18503
21
-4.62008
0
LINE
8
BLACK
6
CONTINUOUS
10
7.18503
20
-4.62008
11
7.18496
21
-4.62046
0
LINE
8
BLACK
6
CONTINUOUS
10
7.18496
20
-4.62046
11
7.18499
21
-4.62059
0
LINE
8
BLACK
6
CONTINUOUS
10
7.18499
20
-4.62059
11
7.18492
21
-4.62071
0
LINE
8
BLACK
6
CONTINUOUS
10
7.18492
20
-4.62071
11
7.18485
21
-4.62109
0
LINE
8
BLACK
6
CONTINUOUS
10
7.18485
20
-4.62109
11
7.18436
21
-4.62168
0
LINE
8
BLACK
6
CONTINUOUS
10
7.18436
20
-4.62168
11
7.18398
21
-4.62234
0
LINE
8
BLACK
6
CONTINUOUS
10
7.18398
20
-4.62234
11
7.18373
21
-4.62243
0
LINE
8
BLACK
6
CONTINUOUS
10
7.18373
20
-4.62243
11
7.18356
21
-4.62264
0
LINE
8
BLACK
6
CONTINUOUS
10
7.18356
20
-4.62264
11
7.1828
21
-4.62277
0
LINE
8
BLACK
6
CONTINUOUS
10
7.1828
20
-4.62277
11
7.18208
21
-4.62303
0
LINE
8
BLACK
6
CONTINUOUS
10
7.18208
20
-4.62303
11
7.14487
21
-4.62303
0
LINE
8
BLACK
6
CONTINUOUS
10
7.14487
20
-4.62303
11
7.14487
21
-4.63484
0
LINE
8
BLACK
6
CONTINUOUS
10
7.14487
20
-4.63484
11
7.19684
21
-4.63484
0
LINE
8
BLACK
6
CONTINUOUS
10
7.19684
20
-4.63484
11
7.19684
21
-4.58287
0
LINE
8
BLACK
6
CONTINUOUS
10
7.19684
20
-4.58287
11
7.18503
21
-4.58287
0
LINE
8
BLACK
6
CONTINUOUS
10
7.14487
20
-4.58287
11
7.14487
21
-4.61713
0
LINE
8
BLACK
6
CONTINUOUS
10
7.14487
20
-4.61713
11
7.17913
21
-4.61713
0
LINE
8
BLACK
6
CONTINUOUS
10
7.17913
20
-4.61713
11
7.17913
21
-4.58287
0
LINE
8
BLACK
6
CONTINUOUS
10
7.17913
20
-4.58287
11
7.14487
21
-4.58287
0
LINE
8
BLACK
6
CONTINUOUS
10
6.94487
20
-4.58287
11
6.94487
21
-4.61713
0
LINE
8
BLACK
6
CONTINUOUS
10
6.94487
20
-4.61713
11
6.97913
21
-4.61713
0
LINE
8
BLACK
6
CONTINUOUS
10
6.97913
20
-4.61713
11
6.97913
21
-4.58287
0
LINE
8
BLACK
6
CONTINUOUS
10
6.97913
20
-4.58287
11
6.94487
21
-4.58287
0
LINE
8
BLACK
6
CONTINUOUS
10
7.14487
20
-4.38287
11
7.14487
21
-4.41713
0
LINE
8
BLACK
6
CONTINUOUS
10
7.14487
20
-4.41713
11
7.17913
21
-4.41713
0
LINE
8
BLACK
6
CONTINUOUS
10
7.17913
20
-4.41713
11
7.17913
21
-4.38287
0
LINE
8
BLACK
6
CONTINUOUS
10
7.17913
20
-4.38287
11
7.14487
21
-4.38287
0
LINE
8
BLACK
6
CONTINUOUS
10
7.14487
20
-4.36516
11
7.14487
21
-4.37697
0
LINE
8
BLACK
6
CONTINUOUS
10
7.14487
20
-4.37697
11
7.18208
21
-4.37697
0
LINE
8
BLACK
6
CONTINUOUS
10
7.18208
20
-4.37697
11
7.18246
21
-4.37704
0
LINE
8
BLACK
6
CONTINUOUS
10
7.18246
20
-4.37704
11
7.18259
21
-4.37701
0
LINE
8
BLACK
6
CONTINUOUS
10
7.18259
20
-4.37701
11
7.18271
21
-4.37708
0
LINE
8
BLACK
6
CONTINUOUS
10
7.18271
20
-4.37708
11
7.18309
21
-4.37715
0
LINE
8
BLACK
6
CONTINUOUS
10
7.18309
20
-4.37715
11
7.18368
21
-4.37764
0
LINE
8
BLACK
6
CONTINUOUS
10
7.18368
20
-4.37764
11
7.18434
21
-4.37802
0
LINE
8
BLACK
6
CONTINUOUS
10
7.18434
20
-4.37802
11
7.18443
21
-4.37827
0
LINE
8
BLACK
6
CONTINUOUS
10
7.18443
20
-4.37827
11
7.18464
21
-4.37844
0
LINE
8
BLACK
6
CONTINUOUS
10
7.18464
20
-4.37844
11
7.18477
21
-4.3792
0
LINE
8
BLACK
6
CONTINUOUS
10
7.18477
20
-4.3792
11
7.18503
21
-4.37992
0
LINE
8
BLACK
6
CONTINUOUS
10
7.18503
20
-4.37992
11
7.18503
21
-4.41713
0
LINE
8
BLACK
6
CONTINUOUS
10
7.18503
20
-4.41713
11
7.19684
21
-4.41713
0
LINE
8
BLACK
6
CONTINUOUS
10
7.19684
20
-4.41713
11
7.19684
21
-4.36516
0
LINE
8
BLACK
6
CONTINUOUS
10
7.19684
20
-4.36516
11
7.14487
21
-4.36516
0
LINE
8
BLACK
6
CONTINUOUS
10
6.92716
20
-4.36516
11
6.92716
21
-4.41713
0
LINE
8
BLACK
6
CONTINUOUS
10
6.92716
20
-4.41713
11
6.93897
21
-4.41713
0
LINE
8
BLACK
6
CONTINUOUS
10
6.93897
20
-4.41713
11
6.93897
21
-4.37992
0
LINE
8
BLACK
6
CONTINUOUS
10
6.93897
20
-4.37992
11
6.93904
21
-4.37954
0
LINE
8
BLACK
6
CONTINUOUS
10
6.93904
20
-4.37954
11
6.93901
21
-4.37941
0
LINE
8
BLACK
6
CONTINUOUS
10
6.93901
20
-4.37941
11
6.93908
21
-4.37929
0
LINE
8
BLACK
6
CONTINUOUS
10
6.93908
20
-4.37929
11
6.93915
21
-4.37891
0
LINE
8
BLACK
6
CONTINUOUS
10
6.93915
20
-4.37891
11
6.93964
21
-4.37832
0
LINE
8
BLACK
6
CONTINUOUS
10
6.93964
20
-4.37832
11
6.94002
21
-4.37766
0
LINE
8
BLACK
6
CONTINUOUS
10
6.94002
20
-4.37766
11
6.94027
21
-4.37757
0
LINE
8
BLACK
6
CONTINUOUS
10
6.94027
20
-4.37757
11
6.94044
21
-4.37736
0
LINE
8
BLACK
6
CONTINUOUS
10
6.94044
20
-4.37736
11
6.9412
21
-4.37723
0
LINE
8
BLACK
6
CONTINUOUS
10
6.9412
20
-4.37723
11
6.94192
21
-4.37697
0
LINE
8
BLACK
6
CONTINUOUS
10
6.94192
20
-4.37697
11
6.97913
21
-4.37697
0
LINE
8
BLACK
6
CONTINUOUS
10
6.97913
20
-4.37697
11
6.97913
21
-4.36516
0
LINE
8
BLACK
6
CONTINUOUS
10
6.97913
20
-4.36516
11
6.92716
21
-4.36516
0
LINE
8
BLACK
6
CONTINUOUS
10
6.94487
20
-4.38287
11
6.94487
21
-4.41713
0
LINE
8
BLACK
6
CONTINUOUS
10
6.94487
20
-4.41713
11
6.97913
21
-4.41713
0
LINE
8
BLACK
6
CONTINUOUS
10
6.97913
20
-4.41713
11
6.97913
21
-4.38287
0
LINE
8
BLACK
6
CONTINUOUS
10
6.97913
20
-4.38287
11
6.94487
21
-4.38287
0
LINE
8
BLACK
6
CONTINUOUS
10
6.08948
20
-3.99709
11
6.08961
21
-3.99705
0
LINE
8
BLACK
6
CONTINUOUS
10
6.08961
20
-3.99705
11
6.18961
21
-3.99705
0
LINE
8
BLACK
6
CONTINUOUS
10
6.18961
20
-3.99705
11
6.18987
21
-3.99709
0
LINE
8
BLACK
6
CONTINUOUS
10
6.18987
20
-3.99709
11
6.19
21
-3.99705
0
LINE
8
BLACK
6
CONTINUOUS
10
6.19
20
-3.99705
11
6.29
21
-3.99705
0
LINE
8
BLACK
6
CONTINUOUS
10
6.29
20
-3.99705
11
6.29027
21
-3.99709
0
LINE
8
BLACK
6
CONTINUOUS
10
6.29027
20
-3.99709
11
6.29039
21
-3.99705
0
LINE
8
BLACK
6
CONTINUOUS
10
6.29039
20
-3.99705
11
6.39039
21
-3.99705
0
LINE
8
BLACK
6
CONTINUOUS
10
6.39039
20
-3.99705
11
6.39066
21
-3.99709
0
LINE
8
BLACK
6
CONTINUOUS
10
6.39066
20
-3.99709
11
6.39079
21
-3.99705
0
LINE
8
BLACK
6
CONTINUOUS
10
6.39079
20
-3.99705
11
6.49079
21
-3.99705
0
LINE
8
BLACK
6
CONTINUOUS
10
6.49079
20
-3.99705
11
6.49117
21
-3.99711
0
LINE
8
BLACK
6
CONTINUOUS
10
6.49117
20
-3.99711
11
6.4913
21
-3.99709
0
LINE
8
BLACK
6
CONTINUOUS
10
6.4913
20
-3.99709
11
6.49141
21
-3.99716
0
LINE
8
BLACK
6
CONTINUOUS
10
6.49141
20
-3.99716
11
6.4918
21
-3.99723
0
LINE
8
BLACK
6
CONTINUOUS
10
6.4918
20
-3.99723
11
6.49238
21
-3.99772
0
LINE
8
BLACK
6
CONTINUOUS
10
6.49238
20
-3.99772
11
6.49305
21
-3.9981
0
LINE
8
BLACK
6
CONTINUOUS
10
6.49305
20
-3.9981
11
6.49314
21
-3.99835
0
LINE
8
BLACK
6
CONTINUOUS
10
6.49314
20
-3.99835
11
6.49334
21
-3.99852
0
LINE
8
BLACK
6
CONTINUOUS
10
6.49334
20
-3.99852
11
6.49348
21
-3.99928
0
LINE
8
BLACK
6
CONTINUOUS
10
6.49348
20
-3.99928
11
6.49374
21
-4
0
LINE
8
BLACK
6
CONTINUOUS
10
6.49374
20
-4
11
6.49374
21
-4.2
0
LINE
8
BLACK
6
CONTINUOUS
10
6.49374
20
-4.2
11
6.49367
21
-4.20038
0
LINE
8
BLACK
6
CONTINUOUS
10
6.49367
20
-4.20038
11
6.4937
21
-4.20051
0
LINE
8
BLACK
6
CONTINUOUS
10
6.4937
20
-4.20051
11
6.49363
21
-4.20063
0
LINE
8
BLACK
6
CONTINUOUS
10
6.49363
20
-4.20063
11
6.49356
21
-4.20101
0
LINE
8
BLACK
6
CONTINUOUS
10
6.49356
20
-4.20101
11
6.49307
21
-4.2016
0
LINE
8
BLACK
6
CONTINUOUS
10
6.49307
20
-4.2016
11
6.49269
21
-4.20226
0
LINE
8
BLACK
6
CONTINUOUS
10
6.49269
20
-4.20226
11
6.49244
21
-4.20235
0
LINE
8
BLACK
6
CONTINUOUS
10
6.49244
20
-4.20235
11
6.49226
21
-4.20256
0
LINE
8
BLACK
6
CONTINUOUS
10
6.49226
20
-4.20256
11
6.49151
21
-4.20269
0
LINE
8
BLACK
6
CONTINUOUS
10
6.49151
20
-4.20269
11
6.49079
21
-4.20295
0
LINE
8
BLACK
6
CONTINUOUS
10
6.49079
20
-4.20295
11
6.39079
21
-4.20295
0
LINE
8
BLACK
6
CONTINUOUS
10
6.39079
20
-4.20295
11
6.39052
21
-4.20291
0
LINE
8
BLACK
6
CONTINUOUS
10
6.39052
20
-4.20291
11
6.39039
21
-4.20295
0
LINE
8
BLACK
6
CONTINUOUS
10
6.39039
20
-4.20295
11
6.29039
21
-4.20295
0
LINE
8
BLACK
6
CONTINUOUS
10
6.29039
20
-4.20295
11
6.29013
21
-4.20291
0
LINE
8
BLACK
6
CONTINUOUS
10
6.29013
20
-4.20291
11
6.29
21
-4.20295
0
LINE
8
BLACK
6
CONTINUOUS
10
6.29
20
-4.20295
11
6.19
21
-4.20295
0
LINE
8
BLACK
6
CONTINUOUS
10
6.19
20
-4.20295
11
6.18973
21
-4.20291
0
LINE
8
BLACK
6
CONTINUOUS
10
6.18973
20
-4.20291
11
6.18961
21
-4.20295
0
LINE
8
BLACK
6
CONTINUOUS
10
6.18961
20
-4.20295
11
6.08961
21
-4.20295
0
LINE
8
BLACK
6
CONTINUOUS
10
6.08961
20
-4.20295
11
6.08934
21
-4.20291
0
LINE
8
BLACK
6
CONTINUOUS
10
6.08934
20
-4.20291
11
6.08921
21
-4.20295
0
LINE
8
BLACK
6
CONTINUOUS
10
6.08921
20
-4.20295
11
5.98921
21
-4.20295
0
LINE
8
BLACK
6
CONTINUOUS
10
5.98921
20
-4.20295
11
5.98883
21
-4.20289
0
LINE
8
BLACK
6
CONTINUOUS
10
5.98883
20
-4.20289
11
5.9887
21
-4.20291
0
LINE
8
BLACK
6
CONTINUOUS
10
5.9887
20
-4.20291
11
5.98859
21
-4.20284
0
LINE
8
BLACK
6
CONTINUOUS
10
5.98859
20
-4.20284
11
5.9882
21
-4.20277
0
LINE
8
BLACK
6
CONTINUOUS
10
5.9882
20
-4.20277
11
5.98761
21
-4.20228
0
LINE
8
BLACK
6
CONTINUOUS
10
5.98761
20
-4.20228
11
5.98695
21
-4.2019
0
LINE
8
BLACK
6
CONTINUOUS
10
5.98695
20
-4.2019
11
5.98686
21
-4.20165
0
LINE
8
BLACK
6
CONTINUOUS
10
5.98686
20
-4.20165
11
5.98666
21
-4.20148
0
LINE
8
BLACK
6
CONTINUOUS
10
5.98666
20
-4.20148
11
5.98652
21
-4.20072
0
LINE
8
BLACK
6
CONTINUOUS
10
5.98652
20
-4.20072
11
5.98626
21
-4.2
0
LINE
8
BLACK
6
CONTINUOUS
10
5.98626
20
-4.2
11
5.98626
21
-4
0
LINE
8
BLACK
6
CONTINUOUS
10
5.98626
20
-4
11
5.98633
21
-3.99962
0
LINE
8
BLACK
6
CONTINUOUS
10
5.98633
20
-3.99962
11
5.9863
21
-3.99949
0
LINE
8
BLACK
6
CONTINUOUS
10
5.9863
20
-3.99949
11
5.98637
21
-3.99937
0
LINE
8
BLACK
6
CONTINUOUS
10
5.98637
20
-3.99937
11
5.98644
21
-3.99899
0
LINE
8
BLACK
6
CONTINUOUS
10
5.98644
20
-3.99899
11
5.98693
21
-3.9984
0
LINE
8
BLACK
6
CONTINUOUS
10
5.98693
20
-3.9984
11
5.98731
21
-3.99774
0
LINE
8
BLACK
6
CONTINUOUS
10
5.98731
20
-3.99774
11
5.98756
21
-3.99765
0
LINE
8
BLACK
6
CONTINUOUS
10
5.98756
20
-3.99765
11
5.98774
21
-3.99744
0
LINE
8
BLACK
6
CONTINUOUS
10
5.98774
20
-3.99744
11
5.98849
21
-3.99731
0
LINE
8
BLACK
6
CONTINUOUS
10
5.98849
20
-3.99731
11
5.98921
21
-3.99705
0
LINE
8
BLACK
6
CONTINUOUS
10
5.98921
20
-3.99705
11
6.08921
21
-3.99705
0
LINE
8
BLACK
6
CONTINUOUS
10
6.08921
20
-3.99705
11
6.08948
21
-3.99709
0
LINE
8
BLACK
6
CONTINUOUS
10
6.39374
20
-4.00295
11
6.39374
21
-4.19705
0
LINE
8
BLACK
6
CONTINUOUS
10
6.39374
20
-4.19705
11
6.48783
21
-4.19705
0
LINE
8
BLACK
6
CONTINUOUS
10
6.48783
20
-4.19705
11
6.48783
21
-4.00295
0
LINE
8
BLACK
6
CONTINUOUS
10
6.48783
20
-4.00295
11
6.39374
21
-4.00295
0
LINE
8
BLACK
6
CONTINUOUS
10
6.29335
20
-4.00295
11
6.29335
21
-4.19705
0
LINE
8
BLACK
6
CONTINUOUS
10
6.29335
20
-4.19705
11
6.38744
21
-4.19705
0
LINE
8
BLACK
6
CONTINUOUS
10
6.38744
20
-4.19705
11
6.38744
21
-4.00295
0
LINE
8
BLACK
6
CONTINUOUS
10
6.38744
20
-4.00295
11
6.29335
21
-4.00295
0
LINE
8
BLACK
6
CONTINUOUS
10
6.19295
20
-4.00295
11
6.19295
21
-4.19705
0
LINE
8
BLACK
6
CONTINUOUS
10
6.19295
20
-4.19705
11
6.28705
21
-4.19705
0
LINE
8
BLACK
6
CONTINUOUS
10
6.28705
20
-4.19705
11
6.28705
21
-4.00295
0
LINE
8
BLACK
6
CONTINUOUS
10
6.28705
20
-4.00295
11
6.19295
21
-4.00295
0
LINE
8
BLACK
6
CONTINUOUS
10
6.09256
20
-4.00295
11
6.09256
21
-4.19705
0
LINE
8
BLACK
6
CONTINUOUS
10
6.09256
20
-4.19705
11
6.18665
21
-4.19705
0
LINE
8
BLACK
6
CONTINUOUS
10
6.18665
20
-4.19705
11
6.18665
21
-4.00295
0
LINE
8
BLACK
6
CONTINUOUS
10
6.18665
20
-4.00295
11
6.09256
21
-4.00295
0
LINE
8
BLACK
6
CONTINUOUS
10
5.99217
20
-4.00295
11
5.99217
21
-4.19705
0
LINE
8
BLACK
6
CONTINUOUS
10
5.99217
20
-4.19705
11
6.08626
21
-4.19705
0
LINE
8
BLACK
6
CONTINUOUS
10
6.08626
20
-4.19705
11
6.08626
21
-4.00295
0
LINE
8
BLACK
6
CONTINUOUS
10
6.08626
20
-4.00295
11
5.99217
21
-4.00295
0
LINE
8
BLACK
6
CONTINUOUS
10
6.62908
20
-3.99709
11
6.62921
21
-3.99705
0
LINE
8
BLACK
6
CONTINUOUS
10
6.62921
20
-3.99705
11
6.72921
21
-3.99705
0
LINE
8
BLACK
6
CONTINUOUS
10
6.72921
20
-3.99705
11
6.72948
21
-3.99709
0
LINE
8
BLACK
6
CONTINUOUS
10
6.72948
20
-3.99709
11
6.72961
21
-3.99705
0
LINE
8
BLACK
6
CONTINUOUS
10
6.72961
20
-3.99705
11
6.82961
21
-3.99705
0
LINE
8
BLACK
6
CONTINUOUS
10
6.82961
20
-3.99705
11
6.82987
21
-3.99709
0
LINE
8
BLACK
6
CONTINUOUS
10
6.82987
20
-3.99709
11
6.83
21
-3.99705
0
LINE
8
BLACK
6
CONTINUOUS
10
6.83
20
-3.99705
11
6.93
21
-3.99705
0
LINE
8
BLACK
6
CONTINUOUS
10
6.93
20
-3.99705
11
6.93038
21
-3.99711
0
LINE
8
BLACK
6
CONTINUOUS
10
6.93038
20
-3.99711
11
6.93051
21
-3.99709
0
LINE
8
BLACK
6
CONTINUOUS
10
6.93051
20
-3.99709
11
6.93063
21
-3.99716
0
LINE
8
BLACK
6
CONTINUOUS
10
6.93063
20
-3.99716
11
6.93101
21
-3.99723
0
LINE
8
BLACK
6
CONTINUOUS
10
6.93101
20
-3.99723
11
6.9316
21
-3.99772
0
LINE
8
BLACK
6
CONTINUOUS
10
6.9316
20
-3.99772
11
6.93226
21
-3.9981
0
LINE
8
BLACK
6
CONTINUOUS
10
6.93226
20
-3.9981
11
6.93235
21
-3.99835
0
LINE
8
BLACK
6
CONTINUOUS
10
6.93235
20
-3.99835
11
6.93256
21
-3.99852
0
LINE
8
BLACK
6
CONTINUOUS
10
6.93256
20
-3.99852
11
6.93269
21
-3.99928
0
LINE
8
BLACK
6
CONTINUOUS
10
6.93269
20
-3.99928
11
6.93295
21
-4
0
LINE
8
BLACK
6
CONTINUOUS
10
6.93295
20
-4
11
6.93295
21
-4.2
0
LINE
8
BLACK
6
CONTINUOUS
10
6.93295
20
-4.2
11
6.93289
21
-4.20038
0
LINE
8
BLACK
6
CONTINUOUS
10
6.93289
20
-4.20038
11
6.93291
21
-4.20051
0
LINE
8
BLACK
6
CONTINUOUS
10
6.93291
20
-4.20051
11
6.93284
21
-4.20063
0
LINE
8
BLACK
6
CONTINUOUS
10
6.93284
20
-4.20063
11
6.93277
21
-4.20101
0
LINE
8
BLACK
6
CONTINUOUS
10
6.93277
20
-4.20101
11
6.93228
21
-4.2016
0
LINE
8
BLACK
6
CONTINUOUS
10
6.93228
20
-4.2016
11
6.9319
21
-4.20226
0
LINE
8
BLACK
6
CONTINUOUS
10
6.9319
20
-4.20226
11
6.93165
21
-4.20235
0
LINE
8
BLACK
6
CONTINUOUS
10
6.93165
20
-4.20235
11
6.93148
21
-4.20256
0
LINE
8
BLACK
6
CONTINUOUS
10
6.93148
20
-4.20256
11
6.93072
21
-4.20269
0
LINE
8
BLACK
6
CONTINUOUS
10
6.93072
20
-4.20269
11
6.93
21
-4.20295
0
LINE
8
BLACK
6
CONTINUOUS
10
6.93
20
-4.20295
11
6.83
21
-4.20295
0
LINE
8
BLACK
6
CONTINUOUS
10
6.83
20
-4.20295
11
6.82973
21
-4.20291
0
LINE
8
BLACK
6
CONTINUOUS
10
6.82973
20
-4.20291
11
6.82961
21
-4.20295
0
LINE
8
BLACK
6
CONTINUOUS
10
6.82961
20
-4.20295
11
6.72961
21
-4.20295
0
LINE
8
BLACK
6
CONTINUOUS
10
6.72961
20
-4.20295
11
6.72934
21
-4.20291
0
LINE
8
BLACK
6
CONTINUOUS
10
6.72934
20
-4.20291
11
6.72921
21
-4.20295
0
LINE
8
BLACK
6
CONTINUOUS
10
6.72921
20
-4.20295
11
6.62921
21
-4.20295
0
LINE
8
BLACK
6
CONTINUOUS
10
6.62921
20
-4.20295
11
6.62895
21
-4.20291
0
LINE
8
BLACK
6
CONTINUOUS
10
6.62895
20
-4.20291
11
6.62882
21
-4.20295
0
LINE
8
BLACK
6
CONTINUOUS
10
6.62882
20
-4.20295
11
6.52882
21
-4.20295
0
LINE
8
BLACK
6
CONTINUOUS
10
6.52882
20
-4.20295
11
6.52844
21
-4.20289
0
LINE
8
BLACK
6
CONTINUOUS
10
6.52844
20
-4.20289
11
6.52831
21
-4.20291
0
LINE
8
BLACK
6
CONTINUOUS
10
6.52831
20
-4.20291
11
6.52819
21
-4.20284
0
LINE
8
BLACK
6
CONTINUOUS
10
6.52819
20
-4.20284
11
6.52781
21
-4.20277
0
LINE
8
BLACK
6
CONTINUOUS
10
6.52781
20
-4.20277
11
6.52722
21
-4.20228
0
LINE
8
BLACK
6
CONTINUOUS
10
6.52722
20
-4.20228
11
6.52656
21
-4.2019
0
LINE
8
BLACK
6
CONTINUOUS
10
6.52656
20
-4.2019
11
6.52647
21
-4.20165
0
LINE
8
BLACK
6
CONTINUOUS
10
6.52647
20
-4.20165
11
6.52626
21
-4.20148
0
LINE
8
BLACK
6
CONTINUOUS
10
6.52626
20
-4.20148
11
6.52613
21
-4.20072
0
LINE
8
BLACK
6
CONTINUOUS
10
6.52613
20
-4.20072
11
6.52587
21
-4.2
0
LINE
8
BLACK
6
CONTINUOUS
10
6.52587
20
-4.2
11
6.52587
21
-4
0
LINE
8
BLACK
6
CONTINUOUS
10
6.52587
20
-4
11
6.52593
21
-3.99962
0
LINE
8
BLACK
6
CONTINUOUS
10
6.52593
20
-3.99962
11
6.52591
21
-3.99949
0
LINE
8
BLACK
6
CONTINUOUS
10
6.52591
20
-3.99949
11
6.52598
21
-3.99937
0
LINE
8
BLACK
6
CONTINUOUS
10
6.52598
20
-3.99937
11
6.52604
21
-3.99899
0
LINE
8
BLACK
6
CONTINUOUS
10
6.52604
20
-3.99899
11
6.52654
21
-3.9984
0
LINE
8
BLACK
6
CONTINUOUS
10
6.52654
20
-3.9984
11
6.52692
21
-3.99774
0
LINE
8
BLACK
6
CONTINUOUS
10
6.52692
20
-3.99774
11
6.52717
21
-3.99765
0
LINE
8
BLACK
6
CONTINUOUS
10
6.52717
20
-3.99765
11
6.52734
21
-3.99744
0
LINE
8
BLACK
6
CONTINUOUS
10
6.52734
20
-3.99744
11
6.5281
21
-3.99731
0
LINE
8
BLACK
6
CONTINUOUS
10
6.5281
20
-3.99731
11
6.52882
21
-3.99705
0
LINE
8
BLACK
6
CONTINUOUS
10
6.52882
20
-3.99705
11
6.62882
21
-3.99705
0
LINE
8
BLACK
6
CONTINUOUS
10
6.62882
20
-3.99705
11
6.62908
21
-3.99709
0
LINE
8
BLACK
6
CONTINUOUS
10
6.83295
20
-4.00295
11
6.83295
21
-4.19705
0
LINE
8
BLACK
6
CONTINUOUS
10
6.83295
20
-4.19705
11
6.92705
21
-4.19705
0
LINE
8
BLACK
6
CONTINUOUS
10
6.92705
20
-4.19705
11
6.92705
21
-4.00295
0
LINE
8
BLACK
6
CONTINUOUS
10
6.92705
20
-4.00295
11
6.83295
21
-4.00295
0
LINE
8
BLACK
6
CONTINUOUS
10
6.73256
20
-4.00295
11
6.73256
21
-4.19705
0
LINE
8
BLACK
6
CONTINUOUS
10
6.73256
20
-4.19705
11
6.82665
21
-4.19705
0
LINE
8
BLACK
6
CONTINUOUS
10
6.82665
20
-4.19705
11
6.82665
21
-4.00295
0
LINE
8
BLACK
6
CONTINUOUS
10
6.82665
20
-4.00295
11
6.73256
21
-4.00295
0
LINE
8
BLACK
6
CONTINUOUS
10
6.63217
20
-4.00295
11
6.63217
21
-4.19705
0
LINE
8
BLACK
6
CONTINUOUS
10
6.63217
20
-4.19705
11
6.72626
21
-4.19705
0
LINE
8
BLACK
6
CONTINUOUS
10
6.72626
20
-4.19705
11
6.72626
21
-4.00295
0
LINE
8
BLACK
6
CONTINUOUS
10
6.72626
20
-4.00295
11
6.63217
21
-4.00295
0
LINE
8
BLACK
6
CONTINUOUS
10
6.53177
20
-4.00295
11
6.53177
21
-4.19705
0
LINE
8
BLACK
6
CONTINUOUS
10
6.53177
20
-4.19705
11
6.62587
21
-4.19705
0
LINE
8
BLACK
6
CONTINUOUS
10
6.62587
20
-4.19705
11
6.62587
21
-4.00295
0
LINE
8
BLACK
6
CONTINUOUS
10
6.62587
20
-4.00295
11
6.53177
21
-4.00295
  0
ENDSEC
  0
EOF
