  0
SECTION
  2
HEADER
  9
$ANGBASE
  50
0.0
  9
$ANGDIR
  70
1
  9
$MEASUREMENT
  70
0
  0
ENDSEC
  0
SECTION
  2
TABLES
  0
TABLE
  2
LTYPE
  70
4
  0
LTYPE
  5
40F
  2
CONTINUOUS
  70
0
  3
Solid line
  72
65
  73
0
  40
0.0
  0
LTYPE
  5
410
  2
DASHDOT
 70
0
  3
Dash Dot ____ _ ____ _
 72
65
 73
4
 40
2.0
 49
1.25
 49
-0.25
 49
0.25
 49
-0.25
  0
LTYPE
  5
411
  2
DASHED
 70
0
  3
Dashed __ __ __ __ __
 72
65
 73
2
 40
0.75
 49
0.5
 49
-0.25
  0
LTYPE
  5
43B
  2
DOTTED
 70
0
  3
Dotted .  .  .  .
 72
65
 73
2
 40
0.2
 49
0.0
 49
-0.2
  0
ENDTAB
  0
TABLE
  2
STYLE
  70
4
  0
STYLE
  2
KICAD
  70
0
  40
0
  41
1
  42
1
  50
0
  71
0
  3
isocp.shx
  0
STYLE
  2
KICADB
  70
0
  40
0
  41
1
  42
1
  50
0
  71
0
  3
isocp.shx
  0
STYLE
  2
KICADI
  70
0
  40
0
  41
1
  42
1
  50
15
  71
0
  3
isocp.shx
  0
STYLE
  2
KICADBI
  70
0
  40
0
  41
1
  42
1
  50
15
  71
0
  3
isocp.shx
  0
ENDTAB
  0
TABLE
  2
LAYER
  70
1
  0
LAYER
  2
BLACK
  70
0
  62
7
  6
CONTINUOUS
  0
ENDTAB
  0
ENDSEC
  0
SECTION
  2
ENTITIES
0
LINE
8
BLACK
6
CONTINUOUS
10
5.97
20
-4.90177
11
5.9707
21
-4.90206
0
LINE
8
BLACK
6
CONTINUOUS
10
5.9707
20
-4.90206
11
5.97098
21
-4.90276
0
LINE
8
BLACK
6
CONTINUOUS
10
5.97098
20
-4.90276
11
5.97098
21
-5.02323
0
LINE
8
BLACK
6
CONTINUOUS
10
5.97098
20
-5.02323
11
5.9707
21
-5.02392
0
LINE
8
BLACK
6
CONTINUOUS
10
5.9707
20
-5.02392
11
5.97
21
-5.02421
0
LINE
8
BLACK
6
CONTINUOUS
10
5.97
20
-5.02421
11
5.82984
21
-5.02421
0
LINE
8
BLACK
6
CONTINUOUS
10
5.82984
20
-5.02421
11
5.82915
21
-5.02392
0
LINE
8
BLACK
6
CONTINUOUS
10
5.82915
20
-5.02392
11
5.82886
21
-5.02323
0
LINE
8
BLACK
6
CONTINUOUS
10
5.82886
20
-5.02323
11
5.82886
21
-5.02323
0
LINE
8
BLACK
6
CONTINUOUS
10
5.82886
20
-5.02323
11
5.82886
21
-4.90276
0
LINE
8
BLACK
6
CONTINUOUS
10
5.82886
20
-4.90276
11
5.82915
21
-4.90206
0
LINE
8
BLACK
6
CONTINUOUS
10
5.82915
20
-4.90206
11
5.82984
21
-4.90177
0
LINE
8
BLACK
6
CONTINUOUS
10
5.82984
20
-4.90177
11
5.97
21
-4.90177
0
LINE
8
BLACK
6
CONTINUOUS
10
5.83083
20
-4.90374
11
5.83083
21
-5.02224
0
LINE
8
BLACK
6
CONTINUOUS
10
5.83083
20
-5.02224
11
5.96902
21
-5.02224
0
LINE
8
BLACK
6
CONTINUOUS
10
5.96902
20
-5.02224
11
5.96902
21
-4.90374
0
LINE
8
BLACK
6
CONTINUOUS
10
5.96902
20
-4.90374
11
5.83083
21
-4.90374
0
LINE
8
BLACK
6
CONTINUOUS
10
5.8263
20
-4.83406
11
5.827
21
-4.83434
0
LINE
8
BLACK
6
CONTINUOUS
10
5.827
20
-4.83434
11
5.82728
21
-4.83504
0
LINE
8
BLACK
6
CONTINUOUS
10
5.82728
20
-4.83504
11
5.82728
21
-4.96496
0
LINE
8
BLACK
6
CONTINUOUS
10
5.82728
20
-4.96496
11
5.827
21
-4.96566
0
LINE
8
BLACK
6
CONTINUOUS
10
5.827
20
-4.96566
11
5.8263
21
-4.96594
0
LINE
8
BLACK
6
CONTINUOUS
10
5.8263
20
-4.96594
11
5.76882
21
-4.96594
0
LINE
8
BLACK
6
CONTINUOUS
10
5.76882
20
-4.96594
11
5.76812
21
-4.96566
0
LINE
8
BLACK
6
CONTINUOUS
10
5.76812
20
-4.96566
11
5.76783
21
-4.96496
0
LINE
8
BLACK
6
CONTINUOUS
10
5.76783
20
-4.96496
11
5.76783
21
-4.83504
0
LINE
8
BLACK
6
CONTINUOUS
10
5.76783
20
-4.83504
11
5.76812
21
-4.83434
0
LINE
8
BLACK
6
CONTINUOUS
10
5.76812
20
-4.83434
11
5.76882
21
-4.83406
0
LINE
8
BLACK
6
CONTINUOUS
10
5.76882
20
-4.83406
11
5.8263
21
-4.83406
0
LINE
8
BLACK
6
CONTINUOUS
10
5.7698
20
-4.83602
11
5.7698
21
-4.96398
0
LINE
8
BLACK
6
CONTINUOUS
10
5.7698
20
-4.96398
11
5.82531
21
-4.96398
0
LINE
8
BLACK
6
CONTINUOUS
10
5.82531
20
-4.96398
11
5.82531
21
-4.83602
0
LINE
8
BLACK
6
CONTINUOUS
10
5.82531
20
-4.83602
11
5.7698
21
-4.83602
0
LINE
8
BLACK
6
CONTINUOUS
10
6.03102
20
-4.83406
11
6.03172
21
-4.83434
0
LINE
8
BLACK
6
CONTINUOUS
10
6.03172
20
-4.83434
11
6.03201
21
-4.83504
0
LINE
8
BLACK
6
CONTINUOUS
10
6.03201
20
-4.83504
11
6.03201
21
-4.96496
0
LINE
8
BLACK
6
CONTINUOUS
10
6.03201
20
-4.96496
11
6.03172
21
-4.96566
0
LINE
8
BLACK
6
CONTINUOUS
10
6.03172
20
-4.96566
11
6.03102
21
-4.96594
0
LINE
8
BLACK
6
CONTINUOUS
10
6.03102
20
-4.96594
11
5.97354
21
-4.96594
0
LINE
8
BLACK
6
CONTINUOUS
10
5.97354
20
-4.96594
11
5.97285
21
-4.96566
0
LINE
8
BLACK
6
CONTINUOUS
10
5.97285
20
-4.96566
11
5.97256
21
-4.96496
0
LINE
8
BLACK
6
CONTINUOUS
10
5.97256
20
-4.96496
11
5.97256
21
-4.83504
0
LINE
8
BLACK
6
CONTINUOUS
10
5.97256
20
-4.83504
11
5.97285
21
-4.83434
0
LINE
8
BLACK
6
CONTINUOUS
10
5.97285
20
-4.83434
11
5.97354
21
-4.83406
0
LINE
8
BLACK
6
CONTINUOUS
10
5.97354
20
-4.83406
11
6.03102
21
-4.83406
0
LINE
8
BLACK
6
CONTINUOUS
10
5.97453
20
-4.83602
11
5.97453
21
-4.96398
0
LINE
8
BLACK
6
CONTINUOUS
10
5.97453
20
-4.96398
11
6.03004
21
-4.96398
0
LINE
8
BLACK
6
CONTINUOUS
10
6.03004
20
-4.96398
11
6.03004
21
-4.83602
0
LINE
8
BLACK
6
CONTINUOUS
10
6.03004
20
-4.83602
11
5.97453
21
-4.83602
0
LINE
8
BLACK
6
CONTINUOUS
10
6.17256
20
-4.83035
11
6.17326
21
-4.83064
0
LINE
8
BLACK
6
CONTINUOUS
10
6.17326
20
-4.83064
11
6.17354
21
-4.83134
0
LINE
8
BLACK
6
CONTINUOUS
10
6.17354
20
-4.83134
11
6.17354
21
-4.88882
0
LINE
8
BLACK
6
CONTINUOUS
10
6.17354
20
-4.88882
11
6.17326
21
-4.88951
0
LINE
8
BLACK
6
CONTINUOUS
10
6.17326
20
-4.88951
11
6.17256
21
-4.8898
0
LINE
8
BLACK
6
CONTINUOUS
10
6.17256
20
-4.8898
11
6.04264
21
-4.8898
0
LINE
8
BLACK
6
CONTINUOUS
10
6.04264
20
-4.8898
11
6.04194
21
-4.88951
0
LINE
8
BLACK
6
CONTINUOUS
10
6.04194
20
-4.88951
11
6.04165
21
-4.88882
0
LINE
8
BLACK
6
CONTINUOUS
10
6.04165
20
-4.88882
11
6.04165
21
-4.83134
0
LINE
8
BLACK
6
CONTINUOUS
10
6.04165
20
-4.83134
11
6.04194
21
-4.83064
0
LINE
8
BLACK
6
CONTINUOUS
10
6.04194
20
-4.83064
11
6.04264
21
-4.83035
0
LINE
8
BLACK
6
CONTINUOUS
10
6.04264
20
-4.83035
11
6.17256
21
-4.83035
0
LINE
8
BLACK
6
CONTINUOUS
10
6.04362
20
-4.83232
11
6.04362
21
-4.88783
0
LINE
8
BLACK
6
CONTINUOUS
10
6.04362
20
-4.88783
11
6.17157
21
-4.88783
0
LINE
8
BLACK
6
CONTINUOUS
10
6.17157
20
-4.88783
11
6.17157
21
-4.83232
0
LINE
8
BLACK
6
CONTINUOUS
10
6.17157
20
-4.83232
11
6.04362
21
-4.83232
0
LINE
8
BLACK
6
CONTINUOUS
10
6.43654
20
-4.7435
11
6.43723
21
-4.74379
0
LINE
8
BLACK
6
CONTINUOUS
10
6.43723
20
-4.74379
11
6.43752
21
-4.74449
0
LINE
8
BLACK
6
CONTINUOUS
10
6.43752
20
-4.74449
11
6.43752
21
-4.87441
0
LINE
8
BLACK
6
CONTINUOUS
10
6.43752
20
-4.87441
11
6.43723
21
-4.87511
0
LINE
8
BLACK
6
CONTINUOUS
10
6.43723
20
-4.87511
11
6.43654
21
-4.87539
0
LINE
8
BLACK
6
CONTINUOUS
10
6.43654
20
-4.87539
11
6.37906
21
-4.87539
0
LINE
8
BLACK
6
CONTINUOUS
10
6.37906
20
-4.87539
11
6.37836
21
-4.87511
0
LINE
8
BLACK
6
CONTINUOUS
10
6.37836
20
-4.87511
11
6.37807
21
-4.87441
0
LINE
8
BLACK
6
CONTINUOUS
10
6.37807
20
-4.87441
11
6.37807
21
-4.74449
0
LINE
8
BLACK
6
CONTINUOUS
10
6.37807
20
-4.74449
11
6.37836
21
-4.74379
0
LINE
8
BLACK
6
CONTINUOUS
10
6.37836
20
-4.74379
11
6.37906
21
-4.7435
0
LINE
8
BLACK
6
CONTINUOUS
10
6.37906
20
-4.7435
11
6.43654
21
-4.7435
0
LINE
8
BLACK
6
CONTINUOUS
10
6.38004
20
-4.74547
11
6.38004
21
-4.87343
0
LINE
8
BLACK
6
CONTINUOUS
10
6.38004
20
-4.87343
11
6.43555
21
-4.87343
0
LINE
8
BLACK
6
CONTINUOUS
10
6.43555
20
-4.87343
11
6.43555
21
-4.74547
0
LINE
8
BLACK
6
CONTINUOUS
10
6.43555
20
-4.74547
11
6.38004
21
-4.74547
0
LINE
8
BLACK
6
CONTINUOUS
10
6.17256
20
-4.76343
11
6.17326
21
-4.76371
0
LINE
8
BLACK
6
CONTINUOUS
10
6.17326
20
-4.76371
11
6.17354
21
-4.76441
0
LINE
8
BLACK
6
CONTINUOUS
10
6.17354
20
-4.76441
11
6.17354
21
-4.82189
0
LINE
8
BLACK
6
CONTINUOUS
10
6.17354
20
-4.82189
11
6.17326
21
-4.82259
0
LINE
8
BLACK
6
CONTINUOUS
10
6.17326
20
-4.82259
11
6.17256
21
-4.82287
0
LINE
8
BLACK
6
CONTINUOUS
10
6.17256
20
-4.82287
11
6.04264
21
-4.82287
0
LINE
8
BLACK
6
CONTINUOUS
10
6.04264
20
-4.82287
11
6.04194
21
-4.82259
0
LINE
8
BLACK
6
CONTINUOUS
10
6.04194
20
-4.82259
11
6.04165
21
-4.82189
0
LINE
8
BLACK
6
CONTINUOUS
10
6.04165
20
-4.82189
11
6.04165
21
-4.76441
0
LINE
8
BLACK
6
CONTINUOUS
10
6.04165
20
-4.76441
11
6.04194
21
-4.76371
0
LINE
8
BLACK
6
CONTINUOUS
10
6.04194
20
-4.76371
11
6.04264
21
-4.76343
0
LINE
8
BLACK
6
CONTINUOUS
10
6.04264
20
-4.76343
11
6.17256
21
-4.76343
0
LINE
8
BLACK
6
CONTINUOUS
10
6.04362
20
-4.76539
11
6.04362
21
-4.82091
0
LINE
8
BLACK
6
CONTINUOUS
10
6.04362
20
-4.82091
11
6.17157
21
-4.82091
0
LINE
8
BLACK
6
CONTINUOUS
10
6.17157
20
-4.82091
11
6.17157
21
-4.76539
0
LINE
8
BLACK
6
CONTINUOUS
10
6.17157
20
-4.76539
11
6.04362
21
-4.76539
0
LINE
8
BLACK
6
CONTINUOUS
10
6.23969
20
-4.67602
11
6.24038
21
-4.67631
0
LINE
8
BLACK
6
CONTINUOUS
10
6.24038
20
-4.67631
11
6.24067
21
-4.67701
0
LINE
8
BLACK
6
CONTINUOUS
10
6.24067
20
-4.67701
11
6.24067
21
-4.80693
0
LINE
8
BLACK
6
CONTINUOUS
10
6.24067
20
-4.80693
11
6.24038
21
-4.80763
0
LINE
8
BLACK
6
CONTINUOUS
10
6.24038
20
-4.80763
11
6.23969
21
-4.80791
0
LINE
8
BLACK
6
CONTINUOUS
10
6.23969
20
-4.80791
11
6.1822
21
-4.80791
0
LINE
8
BLACK
6
CONTINUOUS
10
6.1822
20
-4.80791
11
6.18151
21
-4.80763
0
LINE
8
BLACK
6
CONTINUOUS
10
6.18151
20
-4.80763
11
6.18122
21
-4.80693
0
LINE
8
BLACK
6
CONTINUOUS
10
6.18122
20
-4.80693
11
6.18122
21
-4.67701
0
LINE
8
BLACK
6
CONTINUOUS
10
6.18122
20
-4.67701
11
6.18151
21
-4.67631
0
LINE
8
BLACK
6
CONTINUOUS
10
6.18151
20
-4.67631
11
6.1822
21
-4.67602
0
LINE
8
BLACK
6
CONTINUOUS
10
6.1822
20
-4.67602
11
6.23969
21
-4.67602
0
LINE
8
BLACK
6
CONTINUOUS
10
6.18319
20
-4.67799
11
6.18319
21
-4.80594
0
LINE
8
BLACK
6
CONTINUOUS
10
6.18319
20
-4.80594
11
6.2387
21
-4.80594
0
LINE
8
BLACK
6
CONTINUOUS
10
6.2387
20
-4.80594
11
6.2387
21
-4.67799
0
LINE
8
BLACK
6
CONTINUOUS
10
6.2387
20
-4.67799
11
6.18319
21
-4.67799
0
LINE
8
BLACK
6
CONTINUOUS
10
6.34598
20
-4.75398
11
6.34668
21
-4.75426
0
LINE
8
BLACK
6
CONTINUOUS
10
6.34668
20
-4.75426
11
6.34697
21
-4.75496
0
LINE
8
BLACK
6
CONTINUOUS
10
6.34697
20
-4.75496
11
6.34697
21
-4.79197
0
LINE
8
BLACK
6
CONTINUOUS
10
6.34697
20
-4.79197
11
6.34668
21
-4.79266
0
LINE
8
BLACK
6
CONTINUOUS
10
6.34668
20
-4.79266
11
6.34598
21
-4.79295
0
LINE
8
BLACK
6
CONTINUOUS
10
6.34598
20
-4.79295
11
6.27276
21
-4.79295
0
LINE
8
BLACK
6
CONTINUOUS
10
6.27276
20
-4.79295
11
6.27206
21
-4.79266
0
LINE
8
BLACK
6
CONTINUOUS
10
6.27206
20
-4.79266
11
6.27177
21
-4.79197
0
LINE
8
BLACK
6
CONTINUOUS
10
6.27177
20
-4.79197
11
6.27177
21
-4.75496
0
LINE
8
BLACK
6
CONTINUOUS
10
6.27177
20
-4.75496
11
6.27206
21
-4.75426
0
LINE
8
BLACK
6
CONTINUOUS
10
6.27206
20
-4.75426
11
6.27276
21
-4.75398
0
LINE
8
BLACK
6
CONTINUOUS
10
6.27276
20
-4.75398
11
6.34598
21
-4.75398
0
LINE
8
BLACK
6
CONTINUOUS
10
6.27374
20
-4.75594
11
6.27374
21
-4.79098
0
LINE
8
BLACK
6
CONTINUOUS
10
6.27374
20
-4.79098
11
6.345
21
-4.79098
0
LINE
8
BLACK
6
CONTINUOUS
10
6.345
20
-4.79098
11
6.345
21
-4.75594
0
LINE
8
BLACK
6
CONTINUOUS
10
6.345
20
-4.75594
11
6.27374
21
-4.75594
0
LINE
8
BLACK
6
CONTINUOUS
10
6.64874
20
-4.65406
11
6.64944
21
-4.65434
0
LINE
8
BLACK
6
CONTINUOUS
10
6.64944
20
-4.65434
11
6.64972
21
-4.65504
0
LINE
8
BLACK
6
CONTINUOUS
10
6.64972
20
-4.65504
11
6.64972
21
-4.78496
0
LINE
8
BLACK
6
CONTINUOUS
10
6.64972
20
-4.78496
11
6.64944
21
-4.78566
0
LINE
8
BLACK
6
CONTINUOUS
10
6.64944
20
-4.78566
11
6.64874
21
-4.78594
0
LINE
8
BLACK
6
CONTINUOUS
10
6.64874
20
-4.78594
11
6.59126
21
-4.78594
0
LINE
8
BLACK
6
CONTINUOUS
10
6.59126
20
-4.78594
11
6.59056
21
-4.78566
0
LINE
8
BLACK
6
CONTINUOUS
10
6.59056
20
-4.78566
11
6.59028
21
-4.78496
0
LINE
8
BLACK
6
CONTINUOUS
10
6.59028
20
-4.78496
11
6.59028
21
-4.78496
0
LINE
8
BLACK
6
CONTINUOUS
10
6.59028
20
-4.78496
11
6.59028
21
-4.65504
0
LINE
8
BLACK
6
CONTINUOUS
10
6.59028
20
-4.65504
11
6.59056
21
-4.65434
0
LINE
8
BLACK
6
CONTINUOUS
10
6.59056
20
-4.65434
11
6.59126
21
-4.65406
0
LINE
8
BLACK
6
CONTINUOUS
10
6.59126
20
-4.65406
11
6.64874
21
-4.65406
0
LINE
8
BLACK
6
CONTINUOUS
10
6.59224
20
-4.65602
11
6.59224
21
-4.78398
0
LINE
8
BLACK
6
CONTINUOUS
10
6.59224
20
-4.78398
11
6.64776
21
-4.78398
0
LINE
8
BLACK
6
CONTINUOUS
10
6.64776
20
-4.78398
11
6.64776
21
-4.65602
0
LINE
8
BLACK
6
CONTINUOUS
10
6.64776
20
-4.65602
11
6.59224
21
-4.65602
0
LINE
8
BLACK
6
CONTINUOUS
10
5.73969
20
-4.64846
11
5.74038
21
-4.64875
0
LINE
8
BLACK
6
CONTINUOUS
10
5.74038
20
-4.64875
11
5.74067
21
-4.64945
0
LINE
8
BLACK
6
CONTINUOUS
10
5.74067
20
-4.64945
11
5.74067
21
-4.77937
0
LINE
8
BLACK
6
CONTINUOUS
10
5.74067
20
-4.77937
11
5.74038
21
-4.78007
0
LINE
8
BLACK
6
CONTINUOUS
10
5.74038
20
-4.78007
11
5.73969
21
-4.78035
0
LINE
8
BLACK
6
CONTINUOUS
10
5.73969
20
-4.78035
11
5.6822
21
-4.78035
0
LINE
8
BLACK
6
CONTINUOUS
10
5.6822
20
-4.78035
11
5.68151
21
-4.78007
0
LINE
8
BLACK
6
CONTINUOUS
10
5.68151
20
-4.78007
11
5.68122
21
-4.77937
0
LINE
8
BLACK
6
CONTINUOUS
10
5.68122
20
-4.77937
11
5.68122
21
-4.64945
0
LINE
8
BLACK
6
CONTINUOUS
10
5.68122
20
-4.64945
11
5.68151
21
-4.64875
0
LINE
8
BLACK
6
CONTINUOUS
10
5.68151
20
-4.64875
11
5.6822
21
-4.64846
0
LINE
8
BLACK
6
CONTINUOUS
10
5.6822
20
-4.64846
11
5.73969
21
-4.64846
0
LINE
8
BLACK
6
CONTINUOUS
10
5.68319
20
-4.65043
11
5.68319
21
-4.77839
0
LINE
8
BLACK
6
CONTINUOUS
10
5.68319
20
-4.77839
11
5.7387
21
-4.77839
0
LINE
8
BLACK
6
CONTINUOUS
10
5.7387
20
-4.77839
11
5.7387
21
-4.65043
0
LINE
8
BLACK
6
CONTINUOUS
10
5.7387
20
-4.65043
11
5.68319
21
-4.65043
0
LINE
8
BLACK
6
CONTINUOUS
10
6.17039
20
-4.68075
11
6.17109
21
-4.68104
0
LINE
8
BLACK
6
CONTINUOUS
10
6.17109
20
-4.68104
11
6.17138
21
-4.68173
0
LINE
8
BLACK
6
CONTINUOUS
10
6.17138
20
-4.68173
11
6.17138
21
-4.75496
0
LINE
8
BLACK
6
CONTINUOUS
10
6.17138
20
-4.75496
11
6.17109
21
-4.75566
0
LINE
8
BLACK
6
CONTINUOUS
10
6.17109
20
-4.75566
11
6.17039
21
-4.75594
0
LINE
8
BLACK
6
CONTINUOUS
10
6.17039
20
-4.75594
11
6.13339
21
-4.75594
0
LINE
8
BLACK
6
CONTINUOUS
10
6.13339
20
-4.75594
11
6.13269
21
-4.75566
0
LINE
8
BLACK
6
CONTINUOUS
10
6.13269
20
-4.75566
11
6.1324
21
-4.75496
0
LINE
8
BLACK
6
CONTINUOUS
10
6.1324
20
-4.75496
11
6.1324
21
-4.68173
0
LINE
8
BLACK
6
CONTINUOUS
10
6.1324
20
-4.68173
11
6.13269
21
-4.68104
0
LINE
8
BLACK
6
CONTINUOUS
10
6.13269
20
-4.68104
11
6.13339
21
-4.68075
0
LINE
8
BLACK
6
CONTINUOUS
10
6.13339
20
-4.68075
11
6.17039
21
-4.68075
0
LINE
8
BLACK
6
CONTINUOUS
10
6.13437
20
-4.68272
11
6.13437
21
-4.75398
0
LINE
8
BLACK
6
CONTINUOUS
10
6.13437
20
-4.75398
11
6.16941
21
-4.75398
0
LINE
8
BLACK
6
CONTINUOUS
10
6.16941
20
-4.75398
11
6.16941
21
-4.68272
0
LINE
8
BLACK
6
CONTINUOUS
10
6.16941
20
-4.68272
11
6.13437
21
-4.68272
0
LINE
8
BLACK
6
CONTINUOUS
10
6.5625
20
-4.6624
11
6.5632
21
-4.66269
0
LINE
8
BLACK
6
CONTINUOUS
10
6.5632
20
-4.66269
11
6.56349
21
-4.66339
0
LINE
8
BLACK
6
CONTINUOUS
10
6.56349
20
-4.66339
11
6.56349
21
-4.73661
0
LINE
8
BLACK
6
CONTINUOUS
10
6.56349
20
-4.73661
11
6.5632
21
-4.73731
0
LINE
8
BLACK
6
CONTINUOUS
10
6.5632
20
-4.73731
11
6.5625
21
-4.7376
0
LINE
8
BLACK
6
CONTINUOUS
10
6.5625
20
-4.7376
11
6.5255
21
-4.7376
0
LINE
8
BLACK
6
CONTINUOUS
10
6.5255
20
-4.7376
11
6.5248
21
-4.73731
0
LINE
8
BLACK
6
CONTINUOUS
10
6.5248
20
-4.73731
11
6.52451
21
-4.73661
0
LINE
8
BLACK
6
CONTINUOUS
10
6.52451
20
-4.73661
11
6.52451
21
-4.73661
0
LINE
8
BLACK
6
CONTINUOUS
10
6.52451
20
-4.73661
11
6.52451
21
-4.66339
0
LINE
8
BLACK
6
CONTINUOUS
10
6.52451
20
-4.66339
11
6.5248
21
-4.66269
0
LINE
8
BLACK
6
CONTINUOUS
10
6.5248
20
-4.66269
11
6.5255
21
-4.6624
0
LINE
8
BLACK
6
CONTINUOUS
10
6.5255
20
-4.6624
11
6.5625
21
-4.6624
0
LINE
8
BLACK
6
CONTINUOUS
10
6.52648
20
-4.66437
11
6.52648
21
-4.73563
0
LINE
8
BLACK
6
CONTINUOUS
10
6.52648
20
-4.73563
11
6.56152
21
-4.73563
0
LINE
8
BLACK
6
CONTINUOUS
10
6.56152
20
-4.73563
11
6.56152
21
-4.66437
0
LINE
8
BLACK
6
CONTINUOUS
10
6.56152
20
-4.66437
11
6.52648
21
-4.66437
0
LINE
8
BLACK
6
CONTINUOUS
10
6.37433
20
-4.67681
11
6.37503
21
-4.6771
0
LINE
8
BLACK
6
CONTINUOUS
10
6.37503
20
-4.6771
11
6.37531
21
-4.6778
0
LINE
8
BLACK
6
CONTINUOUS
10
6.37531
20
-4.6778
11
6.37531
21
-4.73528
0
LINE
8
BLACK
6
CONTINUOUS
10
6.37531
20
-4.73528
11
6.37503
21
-4.73597
0
LINE
8
BLACK
6
CONTINUOUS
10
6.37503
20
-4.73597
11
6.37433
21
-4.73626
0
LINE
8
BLACK
6
CONTINUOUS
10
6.37433
20
-4.73626
11
6.24441
21
-4.73626
0
LINE
8
BLACK
6
CONTINUOUS
10
6.24441
20
-4.73626
11
6.24371
21
-4.73597
0
LINE
8
BLACK
6
CONTINUOUS
10
6.24371
20
-4.73597
11
6.24343
21
-4.73528
0
LINE
8
BLACK
6
CONTINUOUS
10
6.24343
20
-4.73528
11
6.24343
21
-4.73528
0
LINE
8
BLACK
6
CONTINUOUS
10
6.24343
20
-4.73528
11
6.24343
21
-4.6778
0
LINE
8
BLACK
6
CONTINUOUS
10
6.24343
20
-4.6778
11
6.24371
21
-4.6771
0
LINE
8
BLACK
6
CONTINUOUS
10
6.24371
20
-4.6771
11
6.24441
21
-4.67681
0
LINE
8
BLACK
6
CONTINUOUS
10
6.24441
20
-4.67681
11
6.37433
21
-4.67681
0
LINE
8
BLACK
6
CONTINUOUS
10
6.24539
20
-4.67878
11
6.24539
21
-4.73429
0
LINE
8
BLACK
6
CONTINUOUS
10
6.24539
20
-4.73429
11
6.37335
21
-4.73429
0
LINE
8
BLACK
6
CONTINUOUS
10
6.37335
20
-4.73429
11
6.37335
21
-4.67878
0
LINE
8
BLACK
6
CONTINUOUS
10
6.37335
20
-4.67878
11
6.24539
21
-4.67878
0
LINE
8
BLACK
6
CONTINUOUS
10
6.51141
20
-4.67628
11
6.51211
21
-4.67656
0
LINE
8
BLACK
6
CONTINUOUS
10
6.51211
20
-4.67656
11
6.51239
21
-4.67726
0
LINE
8
BLACK
6
CONTINUOUS
10
6.51239
20
-4.67726
11
6.51239
21
-4.73474
0
LINE
8
BLACK
6
CONTINUOUS
10
6.51239
20
-4.73474
11
6.51211
21
-4.73544
0
LINE
8
BLACK
6
CONTINUOUS
10
6.51211
20
-4.73544
11
6.51141
21
-4.73572
0
LINE
8
BLACK
6
CONTINUOUS
10
6.51141
20
-4.73572
11
6.38149
21
-4.73572
0
LINE
8
BLACK
6
CONTINUOUS
10
6.38149
20
-4.73572
11
6.38079
21
-4.73544
0
LINE
8
BLACK
6
CONTINUOUS
10
6.38079
20
-4.73544
11
6.3805
21
-4.73474
0
LINE
8
BLACK
6
CONTINUOUS
10
6.3805
20
-4.73474
11
6.3805
21
-4.67726
0
LINE
8
BLACK
6
CONTINUOUS
10
6.3805
20
-4.67726
11
6.38079
21
-4.67656
0
LINE
8
BLACK
6
CONTINUOUS
10
6.38079
20
-4.67656
11
6.38149
21
-4.67628
0
LINE
8
BLACK
6
CONTINUOUS
10
6.38149
20
-4.67628
11
6.51141
21
-4.67628
0
LINE
8
BLACK
6
CONTINUOUS
10
6.38247
20
-4.67824
11
6.38247
21
-4.73376
0
LINE
8
BLACK
6
CONTINUOUS
10
6.38247
20
-4.73376
11
6.51043
21
-4.73376
0
LINE
8
BLACK
6
CONTINUOUS
10
6.51043
20
-4.73376
11
6.51043
21
-4.67824
0
LINE
8
BLACK
6
CONTINUOUS
10
6.51043
20
-4.67824
11
6.38247
21
-4.67824
0
LINE
8
BLACK
6
CONTINUOUS
10
6.00228
20
-4.52839
11
6.00298
21
-4.52867
0
LINE
8
BLACK
6
CONTINUOUS
10
6.00298
20
-4.52867
11
6.00327
21
-4.52937
0
LINE
8
BLACK
6
CONTINUOUS
10
6.00327
20
-4.52937
11
6.00327
21
-4.73409
0
LINE
8
BLACK
6
CONTINUOUS
10
6.00327
20
-4.73409
11
6.00298
21
-4.73479
0
LINE
8
BLACK
6
CONTINUOUS
10
6.00298
20
-4.73479
11
6.00228
21
-4.73508
0
LINE
8
BLACK
6
CONTINUOUS
10
6.00228
20
-4.73508
11
5.79756
21
-4.73508
0
LINE
8
BLACK
6
CONTINUOUS
10
5.79756
20
-4.73508
11
5.79686
21
-4.73479
0
LINE
8
BLACK
6
CONTINUOUS
10
5.79686
20
-4.73479
11
5.79657
21
-4.73409
0
LINE
8
BLACK
6
CONTINUOUS
10
5.79657
20
-4.73409
11
5.79657
21
-4.52937
0
LINE
8
BLACK
6
CONTINUOUS
10
5.79657
20
-4.52937
11
5.79686
21
-4.52867
0
LINE
8
BLACK
6
CONTINUOUS
10
5.79686
20
-4.52867
11
5.79756
21
-4.52839
0
LINE
8
BLACK
6
CONTINUOUS
10
5.79756
20
-4.52839
11
6.00228
21
-4.52839
0
LINE
8
BLACK
6
CONTINUOUS
10
5.79854
20
-4.53035
11
5.79854
21
-4.73311
0
LINE
8
BLACK
6
CONTINUOUS
10
5.79854
20
-4.73311
11
6.0013
21
-4.73311
0
LINE
8
BLACK
6
CONTINUOUS
10
6.0013
20
-4.73311
11
6.0013
21
-4.53035
0
LINE
8
BLACK
6
CONTINUOUS
10
6.0013
20
-4.53035
11
5.79854
21
-4.53035
0
LINE
8
BLACK
6
CONTINUOUS
10
6.12157
20
-4.67917
11
6.12227
21
-4.67946
0
LINE
8
BLACK
6
CONTINUOUS
10
6.12227
20
-4.67946
11
6.12256
21
-4.68016
0
LINE
8
BLACK
6
CONTINUOUS
10
6.12256
20
-4.68016
11
6.12256
21
-4.71717
0
LINE
8
BLACK
6
CONTINUOUS
10
6.12256
20
-4.71717
11
6.12227
21
-4.71786
0
LINE
8
BLACK
6
CONTINUOUS
10
6.12227
20
-4.71786
11
6.12157
21
-4.71815
0
LINE
8
BLACK
6
CONTINUOUS
10
6.12157
20
-4.71815
11
6.04835
21
-4.71815
0
LINE
8
BLACK
6
CONTINUOUS
10
6.04835
20
-4.71815
11
6.04765
21
-4.71786
0
LINE
8
BLACK
6
CONTINUOUS
10
6.04765
20
-4.71786
11
6.04736
21
-4.71717
0
LINE
8
BLACK
6
CONTINUOUS
10
6.04736
20
-4.71717
11
6.04736
21
-4.68016
0
LINE
8
BLACK
6
CONTINUOUS
10
6.04736
20
-4.68016
11
6.04765
21
-4.67946
0
LINE
8
BLACK
6
CONTINUOUS
10
6.04765
20
-4.67946
11
6.04835
21
-4.67917
0
LINE
8
BLACK
6
CONTINUOUS
10
6.04835
20
-4.67917
11
6.12157
21
-4.67917
0
LINE
8
BLACK
6
CONTINUOUS
10
6.04933
20
-4.68114
11
6.04933
21
-4.71618
0
LINE
8
BLACK
6
CONTINUOUS
10
6.04933
20
-4.71618
11
6.12059
21
-4.71618
0
LINE
8
BLACK
6
CONTINUOUS
10
6.12059
20
-4.71618
11
6.12059
21
-4.68114
0
LINE
8
BLACK
6
CONTINUOUS
10
6.12059
20
-4.68114
11
6.04933
21
-4.68114
0
LINE
8
BLACK
6
CONTINUOUS
10
6.38929
20
-4.50673
11
6.38999
21
-4.50702
0
LINE
8
BLACK
6
CONTINUOUS
10
6.38999
20
-4.50702
11
6.39028
21
-4.50772
0
LINE
8
BLACK
6
CONTINUOUS
10
6.39028
20
-4.50772
11
6.39028
21
-4.63764
0
LINE
8
BLACK
6
CONTINUOUS
10
6.39028
20
-4.63764
11
6.38999
21
-4.63833
0
LINE
8
BLACK
6
CONTINUOUS
10
6.38999
20
-4.63833
11
6.38929
21
-4.63862
0
LINE
8
BLACK
6
CONTINUOUS
10
6.38929
20
-4.63862
11
6.33181
21
-4.63862
0
LINE
8
BLACK
6
CONTINUOUS
10
6.33181
20
-4.63862
11
6.33112
21
-4.63833
0
LINE
8
BLACK
6
CONTINUOUS
10
6.33112
20
-4.63833
11
6.33083
21
-4.63764
0
LINE
8
BLACK
6
CONTINUOUS
10
6.33083
20
-4.63764
11
6.33083
21
-4.50772
0
LINE
8
BLACK
6
CONTINUOUS
10
6.33083
20
-4.50772
11
6.33112
21
-4.50702
0
LINE
8
BLACK
6
CONTINUOUS
10
6.33112
20
-4.50702
11
6.33181
21
-4.50673
0
LINE
8
BLACK
6
CONTINUOUS
10
6.33181
20
-4.50673
11
6.38929
21
-4.50673
0
LINE
8
BLACK
6
CONTINUOUS
10
6.3328
20
-4.5087
11
6.3328
21
-4.63665
0
LINE
8
BLACK
6
CONTINUOUS
10
6.3328
20
-4.63665
11
6.38831
21
-4.63665
0
LINE
8
BLACK
6
CONTINUOUS
10
6.38831
20
-4.63665
11
6.38831
21
-4.5087
0
LINE
8
BLACK
6
CONTINUOUS
10
6.38831
20
-4.5087
11
6.3328
21
-4.5087
0
LINE
8
BLACK
6
CONTINUOUS
10
6.30551
20
-4.57839
11
6.30621
21
-4.57867
0
LINE
8
BLACK
6
CONTINUOUS
10
6.30621
20
-4.57867
11
6.3065
21
-4.57937
0
LINE
8
BLACK
6
CONTINUOUS
10
6.3065
20
-4.57937
11
6.3065
21
-4.63685
0
LINE
8
BLACK
6
CONTINUOUS
10
6.3065
20
-4.63685
11
6.30621
21
-4.63755
0
LINE
8
BLACK
6
CONTINUOUS
10
6.30621
20
-4.63755
11
6.30551
21
-4.63783
0
LINE
8
BLACK
6
CONTINUOUS
10
6.30551
20
-4.63783
11
6.17559
21
-4.63783
0
LINE
8
BLACK
6
CONTINUOUS
10
6.17559
20
-4.63783
11
6.17489
21
-4.63755
0
LINE
8
BLACK
6
CONTINUOUS
10
6.17489
20
-4.63755
11
6.17461
21
-4.63685
0
LINE
8
BLACK
6
CONTINUOUS
10
6.17461
20
-4.63685
11
6.17461
21
-4.63685
0
LINE
8
BLACK
6
CONTINUOUS
10
6.17461
20
-4.63685
11
6.17461
21
-4.57937
0
LINE
8
BLACK
6
CONTINUOUS
10
6.17461
20
-4.57937
11
6.17489
21
-4.57867
0
LINE
8
BLACK
6
CONTINUOUS
10
6.17489
20
-4.57867
11
6.17559
21
-4.57839
0
LINE
8
BLACK
6
CONTINUOUS
10
6.17559
20
-4.57839
11
6.30551
21
-4.57839
0
LINE
8
BLACK
6
CONTINUOUS
10
6.17657
20
-4.58035
11
6.17657
21
-4.63587
0
LINE
8
BLACK
6
CONTINUOUS
10
6.17657
20
-4.63587
11
6.30453
21
-4.63587
0
LINE
8
BLACK
6
CONTINUOUS
10
6.30453
20
-4.63587
11
6.30453
21
-4.58035
0
LINE
8
BLACK
6
CONTINUOUS
10
6.30453
20
-4.58035
11
6.17657
21
-4.58035
0
LINE
8
BLACK
6
CONTINUOUS
10
5.67669
20
-4.5028
11
5.67739
21
-4.50308
0
LINE
8
BLACK
6
CONTINUOUS
10
5.67739
20
-4.50308
11
5.67768
21
-4.50378
0
LINE
8
BLACK
6
CONTINUOUS
10
5.67768
20
-4.50378
11
5.67768
21
-4.6337
0
LINE
8
BLACK
6
CONTINUOUS
10
5.67768
20
-4.6337
11
5.67739
21
-4.6344
0
LINE
8
BLACK
6
CONTINUOUS
10
5.67739
20
-4.6344
11
5.67669
21
-4.63469
0
LINE
8
BLACK
6
CONTINUOUS
10
5.67669
20
-4.63469
11
5.61921
21
-4.63469
0
LINE
8
BLACK
6
CONTINUOUS
10
5.61921
20
-4.63469
11
5.61852
21
-4.6344
0
LINE
8
BLACK
6
CONTINUOUS
10
5.61852
20
-4.6344
11
5.61823
21
-4.6337
0
LINE
8
BLACK
6
CONTINUOUS
10
5.61823
20
-4.6337
11
5.61823
21
-4.50378
0
LINE
8
BLACK
6
CONTINUOUS
10
5.61823
20
-4.50378
11
5.61852
21
-4.50308
0
LINE
8
BLACK
6
CONTINUOUS
10
5.61852
20
-4.50308
11
5.61921
21
-4.5028
0
LINE
8
BLACK
6
CONTINUOUS
10
5.61921
20
-4.5028
11
5.67669
21
-4.5028
0
LINE
8
BLACK
6
CONTINUOUS
10
5.6202
20
-4.50476
11
5.6202
21
-4.63272
0
LINE
8
BLACK
6
CONTINUOUS
10
5.6202
20
-4.63272
11
5.67571
21
-4.63272
0
LINE
8
BLACK
6
CONTINUOUS
10
5.67571
20
-4.63272
11
5.67571
21
-4.50476
0
LINE
8
BLACK
6
CONTINUOUS
10
5.67571
20
-4.50476
11
5.6202
21
-4.50476
0
LINE
8
BLACK
6
CONTINUOUS
10
5.73969
20
-4.5028
11
5.74038
21
-4.50308
0
LINE
8
BLACK
6
CONTINUOUS
10
5.74038
20
-4.50308
11
5.74067
21
-4.50378
0
LINE
8
BLACK
6
CONTINUOUS
10
5.74067
20
-4.50378
11
5.74067
21
-4.6337
0
LINE
8
BLACK
6
CONTINUOUS
10
5.74067
20
-4.6337
11
5.74038
21
-4.6344
0
LINE
8
BLACK
6
CONTINUOUS
10
5.74038
20
-4.6344
11
5.73969
21
-4.63469
0
LINE
8
BLACK
6
CONTINUOUS
10
5.73969
20
-4.63469
11
5.6822
21
-4.63469
0
LINE
8
BLACK
6
CONTINUOUS
10
5.6822
20
-4.63469
11
5.68151
21
-4.6344
0
LINE
8
BLACK
6
CONTINUOUS
10
5.68151
20
-4.6344
11
5.68122
21
-4.6337
0
LINE
8
BLACK
6
CONTINUOUS
10
5.68122
20
-4.6337
11
5.68122
21
-4.50378
0
LINE
8
BLACK
6
CONTINUOUS
10
5.68122
20
-4.50378
11
5.68151
21
-4.50308
0
LINE
8
BLACK
6
CONTINUOUS
10
5.68151
20
-4.50308
11
5.6822
21
-4.5028
0
LINE
8
BLACK
6
CONTINUOUS
10
5.6822
20
-4.5028
11
5.73969
21
-4.5028
0
LINE
8
BLACK
6
CONTINUOUS
10
5.68319
20
-4.50476
11
5.68319
21
-4.63272
0
LINE
8
BLACK
6
CONTINUOUS
10
5.68319
20
-4.63272
11
5.7387
21
-4.63272
0
LINE
8
BLACK
6
CONTINUOUS
10
5.7387
20
-4.63272
11
5.7387
21
-4.50476
0
LINE
8
BLACK
6
CONTINUOUS
10
5.7387
20
-4.50476
11
5.68319
21
-4.50476
0
LINE
8
BLACK
6
CONTINUOUS
10
6.55512
20
-4.49846
11
6.55581
21
-4.49875
0
LINE
8
BLACK
6
CONTINUOUS
10
6.55581
20
-4.49875
11
6.5561
21
-4.49945
0
LINE
8
BLACK
6
CONTINUOUS
10
6.5561
20
-4.49945
11
6.5561
21
-4.62543
0
LINE
8
BLACK
6
CONTINUOUS
10
6.5561
20
-4.62543
11
6.55581
21
-4.62613
0
LINE
8
BLACK
6
CONTINUOUS
10
6.55581
20
-4.62613
11
6.55512
21
-4.62642
0
LINE
8
BLACK
6
CONTINUOUS
10
6.55512
20
-4.62642
11
6.44488
21
-4.62642
0
LINE
8
BLACK
6
CONTINUOUS
10
6.44488
20
-4.62642
11
6.44419
21
-4.62613
0
LINE
8
BLACK
6
CONTINUOUS
10
6.44419
20
-4.62613
11
6.4439
21
-4.62543
0
LINE
8
BLACK
6
CONTINUOUS
10
6.4439
20
-4.62543
11
6.4439
21
-4.49945
0
LINE
8
BLACK
6
CONTINUOUS
10
6.4439
20
-4.49945
11
6.44419
21
-4.49875
0
LINE
8
BLACK
6
CONTINUOUS
10
6.44419
20
-4.49875
11
6.44488
21
-4.49846
0
LINE
8
BLACK
6
CONTINUOUS
10
6.44488
20
-4.49846
11
6.55512
21
-4.49846
0
LINE
8
BLACK
6
CONTINUOUS
10
6.44587
20
-4.50043
11
6.44587
21
-4.62445
0
LINE
8
BLACK
6
CONTINUOUS
10
6.44587
20
-4.62445
11
6.55413
21
-4.62445
0
LINE
8
BLACK
6
CONTINUOUS
10
6.55413
20
-4.62445
11
6.55413
21
-4.50043
0
LINE
8
BLACK
6
CONTINUOUS
10
6.55413
20
-4.50043
11
6.44587
21
-4.50043
0
LINE
8
BLACK
6
CONTINUOUS
10
6.15906
20
-4.53508
11
6.15975
21
-4.53537
0
LINE
8
BLACK
6
CONTINUOUS
10
6.15975
20
-4.53537
11
6.16004
21
-4.53606
0
LINE
8
BLACK
6
CONTINUOUS
10
6.16004
20
-4.53606
11
6.16004
21
-4.60929
0
LINE
8
BLACK
6
CONTINUOUS
10
6.16004
20
-4.60929
11
6.15975
21
-4.60999
0
LINE
8
BLACK
6
CONTINUOUS
10
6.15975
20
-4.60999
11
6.15906
21
-4.61028
0
LINE
8
BLACK
6
CONTINUOUS
10
6.15906
20
-4.61028
11
6.12205
21
-4.61028
0
LINE
8
BLACK
6
CONTINUOUS
10
6.12205
20
-4.61028
11
6.12135
21
-4.60999
0
LINE
8
BLACK
6
CONTINUOUS
10
6.12135
20
-4.60999
11
6.12106
21
-4.60929
0
LINE
8
BLACK
6
CONTINUOUS
10
6.12106
20
-4.60929
11
6.12106
21
-4.53606
0
LINE
8
BLACK
6
CONTINUOUS
10
6.12106
20
-4.53606
11
6.12135
21
-4.53537
0
LINE
8
BLACK
6
CONTINUOUS
10
6.12135
20
-4.53537
11
6.12205
21
-4.53508
0
LINE
8
BLACK
6
CONTINUOUS
10
6.12205
20
-4.53508
11
6.15906
21
-4.53508
0
LINE
8
BLACK
6
CONTINUOUS
10
6.12303
20
-4.53705
11
6.12303
21
-4.60831
0
LINE
8
BLACK
6
CONTINUOUS
10
6.12303
20
-4.60831
11
6.15807
21
-4.60831
0
LINE
8
BLACK
6
CONTINUOUS
10
6.15807
20
-4.60831
11
6.15807
21
-4.53705
0
LINE
8
BLACK
6
CONTINUOUS
10
6.15807
20
-4.53705
11
6.12303
21
-4.53705
0
LINE
8
BLACK
6
CONTINUOUS
10
6.30551
20
-4.51028
11
6.30621
21
-4.51056
0
LINE
8
BLACK
6
CONTINUOUS
10
6.30621
20
-4.51056
11
6.3065
21
-4.51126
0
LINE
8
BLACK
6
CONTINUOUS
10
6.3065
20
-4.51126
11
6.3065
21
-4.56874
0
LINE
8
BLACK
6
CONTINUOUS
10
6.3065
20
-4.56874
11
6.30621
21
-4.56944
0
LINE
8
BLACK
6
CONTINUOUS
10
6.30621
20
-4.56944
11
6.30551
21
-4.56972
0
LINE
8
BLACK
6
CONTINUOUS
10
6.30551
20
-4.56972
11
6.17559
21
-4.56972
0
LINE
8
BLACK
6
CONTINUOUS
10
6.17559
20
-4.56972
11
6.17489
21
-4.56944
0
LINE
8
BLACK
6
CONTINUOUS
10
6.17489
20
-4.56944
11
6.17461
21
-4.56874
0
LINE
8
BLACK
6
CONTINUOUS
10
6.17461
20
-4.56874
11
6.17461
21
-4.51126
0
LINE
8
BLACK
6
CONTINUOUS
10
6.17461
20
-4.51126
11
6.17489
21
-4.51056
0
LINE
8
BLACK
6
CONTINUOUS
10
6.17489
20
-4.51056
11
6.17559
21
-4.51028
0
LINE
8
BLACK
6
CONTINUOUS
10
6.17559
20
-4.51028
11
6.30551
21
-4.51028
0
LINE
8
BLACK
6
CONTINUOUS
10
6.17657
20
-4.51224
11
6.17657
21
-4.56776
0
LINE
8
BLACK
6
CONTINUOUS
10
6.17657
20
-4.56776
11
6.30453
21
-4.56776
0
LINE
8
BLACK
6
CONTINUOUS
10
6.30453
20
-4.56776
11
6.30453
21
-4.51224
0
LINE
8
BLACK
6
CONTINUOUS
10
6.30453
20
-4.51224
11
6.17657
21
-4.51224
0
LINE
8
BLACK
6
CONTINUOUS
10
6.6803
20
-4.41949
11
6.681
21
-4.41978
0
LINE
8
BLACK
6
CONTINUOUS
10
6.681
20
-4.41978
11
6.68128
21
-4.42047
0
LINE
8
BLACK
6
CONTINUOUS
10
6.68128
20
-4.42047
11
6.68128
21
-4.55039
0
LINE
8
BLACK
6
CONTINUOUS
10
6.68128
20
-4.55039
11
6.681
21
-4.55109
0
LINE
8
BLACK
6
CONTINUOUS
10
6.681
20
-4.55109
11
6.6803
21
-4.55138
0
LINE
8
BLACK
6
CONTINUOUS
10
6.6803
20
-4.55138
11
6.62282
21
-4.55138
0
LINE
8
BLACK
6
CONTINUOUS
10
6.62282
20
-4.55138
11
6.62212
21
-4.55109
0
LINE
8
BLACK
6
CONTINUOUS
10
6.62212
20
-4.55109
11
6.62183
21
-4.55039
0
LINE
8
BLACK
6
CONTINUOUS
10
6.62183
20
-4.55039
11
6.62183
21
-4.42047
0
LINE
8
BLACK
6
CONTINUOUS
10
6.62183
20
-4.42047
11
6.62212
21
-4.41978
0
LINE
8
BLACK
6
CONTINUOUS
10
6.62212
20
-4.41978
11
6.62282
21
-4.41949
0
LINE
8
BLACK
6
CONTINUOUS
10
6.62282
20
-4.41949
11
6.6803
21
-4.41949
0
LINE
8
BLACK
6
CONTINUOUS
10
6.6238
20
-4.42146
11
6.6238
21
-4.54941
0
LINE
8
BLACK
6
CONTINUOUS
10
6.6238
20
-4.54941
11
6.67931
21
-4.54941
0
LINE
8
BLACK
6
CONTINUOUS
10
6.67931
20
-4.54941
11
6.67931
21
-4.42146
0
LINE
8
BLACK
6
CONTINUOUS
10
6.67931
20
-4.42146
11
6.6238
21
-4.42146
0
LINE
8
BLACK
6
CONTINUOUS
10
6.82874
20
-4.41406
11
6.82944
21
-4.41434
0
LINE
8
BLACK
6
CONTINUOUS
10
6.82944
20
-4.41434
11
6.82972
21
-4.41504
0
LINE
8
BLACK
6
CONTINUOUS
10
6.82972
20
-4.41504
11
6.82972
21
-4.54496
0
LINE
8
BLACK
6
CONTINUOUS
10
6.82972
20
-4.54496
11
6.82944
21
-4.54566
0
LINE
8
BLACK
6
CONTINUOUS
10
6.82944
20
-4.54566
11
6.82874
21
-4.54594
0
LINE
8
BLACK
6
CONTINUOUS
10
6.82874
20
-4.54594
11
6.77126
21
-4.54594
0
LINE
8
BLACK
6
CONTINUOUS
10
6.77126
20
-4.54594
11
6.77056
21
-4.54566
0
LINE
8
BLACK
6
CONTINUOUS
10
6.77056
20
-4.54566
11
6.77028
21
-4.54496
0
LINE
8
BLACK
6
CONTINUOUS
10
6.77028
20
-4.54496
11
6.77028
21
-4.54496
0
LINE
8
BLACK
6
CONTINUOUS
10
6.77028
20
-4.54496
11
6.77028
21
-4.41504
0
LINE
8
BLACK
6
CONTINUOUS
10
6.77028
20
-4.41504
11
6.77056
21
-4.41434
0
LINE
8
BLACK
6
CONTINUOUS
10
6.77056
20
-4.41434
11
6.77126
21
-4.41406
0
LINE
8
BLACK
6
CONTINUOUS
10
6.77126
20
-4.41406
11
6.82874
21
-4.41406
0
LINE
8
BLACK
6
CONTINUOUS
10
6.77224
20
-4.41602
11
6.77224
21
-4.54398
0
LINE
8
BLACK
6
CONTINUOUS
10
6.77224
20
-4.54398
11
6.82776
21
-4.54398
0
LINE
8
BLACK
6
CONTINUOUS
10
6.82776
20
-4.54398
11
6.82776
21
-4.41602
0
LINE
8
BLACK
6
CONTINUOUS
10
6.82776
20
-4.41602
11
6.77224
21
-4.41602
0
LINE
8
BLACK
6
CONTINUOUS
10
6.60451
20
-4.42028
11
6.60521
21
-4.42056
0
LINE
8
BLACK
6
CONTINUOUS
10
6.60521
20
-4.42056
11
6.6055
21
-4.42126
0
LINE
8
BLACK
6
CONTINUOUS
10
6.6055
20
-4.42126
11
6.6055
21
-4.47874
0
LINE
8
BLACK
6
CONTINUOUS
10
6.6055
20
-4.47874
11
6.60521
21
-4.47944
0
LINE
8
BLACK
6
CONTINUOUS
10
6.60521
20
-4.47944
11
6.60451
21
-4.47972
0
LINE
8
BLACK
6
CONTINUOUS
10
6.60451
20
-4.47972
11
6.47459
21
-4.47972
0
LINE
8
BLACK
6
CONTINUOUS
10
6.47459
20
-4.47972
11
6.47389
21
-4.47944
0
LINE
8
BLACK
6
CONTINUOUS
10
6.47389
20
-4.47944
11
6.47361
21
-4.47874
0
LINE
8
BLACK
6
CONTINUOUS
10
6.47361
20
-4.47874
11
6.47361
21
-4.42126
0
LINE
8
BLACK
6
CONTINUOUS
10
6.47361
20
-4.42126
11
6.47389
21
-4.42056
0
LINE
8
BLACK
6
CONTINUOUS
10
6.47389
20
-4.42056
11
6.47459
21
-4.42028
0
LINE
8
BLACK
6
CONTINUOUS
10
6.47459
20
-4.42028
11
6.60451
21
-4.42028
0
LINE
8
BLACK
6
CONTINUOUS
10
6.47557
20
-4.42224
11
6.47557
21
-4.47776
0
LINE
8
BLACK
6
CONTINUOUS
10
6.47557
20
-4.47776
11
6.60353
21
-4.47776
0
LINE
8
BLACK
6
CONTINUOUS
10
6.60353
20
-4.47776
11
6.60353
21
-4.42224
0
LINE
8
BLACK
6
CONTINUOUS
10
6.60353
20
-4.42224
11
6.47557
21
-4.42224
0
LINE
8
BLACK
6
CONTINUOUS
10
6.76691
20
-4.43051
11
6.76761
21
-4.4308
0
LINE
8
BLACK
6
CONTINUOUS
10
6.76761
20
-4.4308
11
6.7679
21
-4.4315
0
LINE
8
BLACK
6
CONTINUOUS
10
6.7679
20
-4.4315
11
6.7679
21
-4.4685
0
LINE
8
BLACK
6
CONTINUOUS
10
6.7679
20
-4.4685
11
6.76761
21
-4.4692
0
LINE
8
BLACK
6
CONTINUOUS
10
6.76761
20
-4.4692
11
6.76691
21
-4.46949
0
LINE
8
BLACK
6
CONTINUOUS
10
6.76691
20
-4.46949
11
6.69369
21
-4.46949
0
LINE
8
BLACK
6
CONTINUOUS
10
6.69369
20
-4.46949
11
6.69299
21
-4.4692
0
LINE
8
BLACK
6
CONTINUOUS
10
6.69299
20
-4.4692
11
6.6927
21
-4.4685
0
LINE
8
BLACK
6
CONTINUOUS
10
6.6927
20
-4.4685
11
6.6927
21
-4.4315
0
LINE
8
BLACK
6
CONTINUOUS
10
6.6927
20
-4.4315
11
6.69299
21
-4.4308
0
LINE
8
BLACK
6
CONTINUOUS
10
6.69299
20
-4.4308
11
6.69369
21
-4.43051
0
LINE
8
BLACK
6
CONTINUOUS
10
6.69369
20
-4.43051
11
6.76691
21
-4.43051
0
LINE
8
BLACK
6
CONTINUOUS
10
6.69467
20
-4.43248
11
6.69467
21
-4.46752
0
LINE
8
BLACK
6
CONTINUOUS
10
6.69467
20
-4.46752
11
6.76593
21
-4.46752
0
LINE
8
BLACK
6
CONTINUOUS
10
6.76593
20
-4.46752
11
6.76593
21
-4.43248
0
LINE
8
BLACK
6
CONTINUOUS
10
6.76593
20
-4.43248
11
6.69467
21
-4.43248
0
LINE
8
BLACK
6
CONTINUOUS
10
6.39551
20
-4.38528
11
6.39621
21
-4.38556
0
LINE
8
BLACK
6
CONTINUOUS
10
6.39621
20
-4.38556
11
6.3965
21
-4.38626
0
LINE
8
BLACK
6
CONTINUOUS
10
6.3965
20
-4.38626
11
6.3965
21
-4.44374
0
LINE
8
BLACK
6
CONTINUOUS
10
6.3965
20
-4.44374
11
6.39621
21
-4.44444
0
LINE
8
BLACK
6
CONTINUOUS
10
6.39621
20
-4.44444
11
6.39551
21
-4.44472
0
LINE
8
BLACK
6
CONTINUOUS
10
6.39551
20
-4.44472
11
6.26559
21
-4.44472
0
LINE
8
BLACK
6
CONTINUOUS
10
6.26559
20
-4.44472
11
6.26489
21
-4.44444
0
LINE
8
BLACK
6
CONTINUOUS
10
6.26489
20
-4.44444
11
6.26461
21
-4.44374
0
LINE
8
BLACK
6
CONTINUOUS
10
6.26461
20
-4.44374
11
6.26461
21
-4.38626
0
LINE
8
BLACK
6
CONTINUOUS
10
6.26461
20
-4.38626
11
6.26489
21
-4.38556
0
LINE
8
BLACK
6
CONTINUOUS
10
6.26489
20
-4.38556
11
6.26559
21
-4.38528
0
LINE
8
BLACK
6
CONTINUOUS
10
6.26559
20
-4.38528
11
6.39551
21
-4.38528
0
LINE
8
BLACK
6
CONTINUOUS
10
6.26657
20
-4.38724
11
6.26657
21
-4.44276
0
LINE
8
BLACK
6
CONTINUOUS
10
6.26657
20
-4.44276
11
6.39453
21
-4.44276
0
LINE
8
BLACK
6
CONTINUOUS
10
6.39453
20
-4.44276
11
6.39453
21
-4.38724
0
LINE
8
BLACK
6
CONTINUOUS
10
6.39453
20
-4.38724
11
6.26657
21
-4.38724
0
LINE
8
BLACK
6
CONTINUOUS
10
5.81843
20
-4.35028
11
5.81912
21
-4.35056
0
LINE
8
BLACK
6
CONTINUOUS
10
5.81912
20
-4.35056
11
5.81941
21
-4.35126
0
LINE
8
BLACK
6
CONTINUOUS
10
5.81941
20
-4.35126
11
5.81941
21
-4.40874
0
LINE
8
BLACK
6
CONTINUOUS
10
5.81941
20
-4.40874
11
5.81912
21
-4.40944
0
LINE
8
BLACK
6
CONTINUOUS
10
5.81912
20
-4.40944
11
5.81843
21
-4.40972
0
LINE
8
BLACK
6
CONTINUOUS
10
5.81843
20
-4.40972
11
5.6885
21
-4.40972
0
LINE
8
BLACK
6
CONTINUOUS
10
5.6885
20
-4.40972
11
5.68781
21
-4.40944
0
LINE
8
BLACK
6
CONTINUOUS
10
5.68781
20
-4.40944
11
5.68752
21
-4.40874
0
LINE
8
BLACK
6
CONTINUOUS
10
5.68752
20
-4.40874
11
5.68752
21
-4.35126
0
LINE
8
BLACK
6
CONTINUOUS
10
5.68752
20
-4.35126
11
5.68781
21
-4.35056
0
LINE
8
BLACK
6
CONTINUOUS
10
5.68781
20
-4.35056
11
5.6885
21
-4.35028
0
LINE
8
BLACK
6
CONTINUOUS
10
5.6885
20
-4.35028
11
5.81843
21
-4.35028
0
LINE
8
BLACK
6
CONTINUOUS
10
5.68949
20
-4.35224
11
5.68949
21
-4.40776
0
LINE
8
BLACK
6
CONTINUOUS
10
5.68949
20
-4.40776
11
5.81744
21
-4.40776
0
LINE
8
BLACK
6
CONTINUOUS
10
5.81744
20
-4.40776
11
5.81744
21
-4.35224
0
LINE
8
BLACK
6
CONTINUOUS
10
5.81744
20
-4.35224
11
5.68949
21
-4.35224
0
LINE
8
BLACK
6
CONTINUOUS
10
5.58417
20
-4.26091
11
5.58487
21
-4.26119
0
LINE
8
BLACK
6
CONTINUOUS
10
5.58487
20
-4.26119
11
5.58516
21
-4.26189
0
LINE
8
BLACK
6
CONTINUOUS
10
5.58516
20
-4.26189
11
5.58516
21
-4.40362
0
LINE
8
BLACK
6
CONTINUOUS
10
5.58516
20
-4.40362
11
5.58487
21
-4.40432
0
LINE
8
BLACK
6
CONTINUOUS
10
5.58487
20
-4.40432
11
5.58417
21
-4.40461
0
LINE
8
BLACK
6
CONTINUOUS
10
5.58417
20
-4.40461
11
5.43457
21
-4.40461
0
LINE
8
BLACK
6
CONTINUOUS
10
5.43457
20
-4.40461
11
5.43387
21
-4.40432
0
LINE
8
BLACK
6
CONTINUOUS
10
5.43387
20
-4.40432
11
5.43358
21
-4.40362
0
LINE
8
BLACK
6
CONTINUOUS
10
5.43358
20
-4.40362
11
5.43358
21
-4.26189
0
LINE
8
BLACK
6
CONTINUOUS
10
5.43358
20
-4.26189
11
5.43387
21
-4.26119
0
LINE
8
BLACK
6
CONTINUOUS
10
5.43387
20
-4.26119
11
5.43457
21
-4.26091
0
LINE
8
BLACK
6
CONTINUOUS
10
5.43457
20
-4.26091
11
5.58417
21
-4.26091
0
LINE
8
BLACK
6
CONTINUOUS
10
5.43555
20
-4.26287
11
5.43555
21
-4.40264
0
LINE
8
BLACK
6
CONTINUOUS
10
5.43555
20
-4.40264
11
5.58319
21
-4.40264
0
LINE
8
BLACK
6
CONTINUOUS
10
5.58319
20
-4.40264
11
5.58319
21
-4.26287
0
LINE
8
BLACK
6
CONTINUOUS
10
5.58319
20
-4.26287
11
5.43555
21
-4.26287
0
LINE
8
BLACK
6
CONTINUOUS
10
6.48226
20
-4.31028
11
6.48296
21
-4.31056
0
LINE
8
BLACK
6
CONTINUOUS
10
6.48296
20
-4.31056
11
6.48325
21
-4.31126
0
LINE
8
BLACK
6
CONTINUOUS
10
6.48325
20
-4.31126
11
6.48325
21
-4.36874
0
LINE
8
BLACK
6
CONTINUOUS
10
6.48325
20
-4.36874
11
6.48296
21
-4.36944
0
LINE
8
BLACK
6
CONTINUOUS
10
6.48296
20
-4.36944
11
6.48226
21
-4.36972
0
LINE
8
BLACK
6
CONTINUOUS
10
6.48226
20
-4.36972
11
6.36573
21
-4.36972
0
LINE
8
BLACK
6
CONTINUOUS
10
6.36573
20
-4.36972
11
6.36503
21
-4.36944
0
LINE
8
BLACK
6
CONTINUOUS
10
6.36503
20
-4.36944
11
6.36474
21
-4.36874
0
LINE
8
BLACK
6
CONTINUOUS
10
6.36474
20
-4.36874
11
6.36474
21
-4.31126
0
LINE
8
BLACK
6
CONTINUOUS
10
6.36474
20
-4.31126
11
6.36503
21
-4.31056
0
LINE
8
BLACK
6
CONTINUOUS
10
6.36503
20
-4.31056
11
6.36573
21
-4.31028
0
LINE
8
BLACK
6
CONTINUOUS
10
6.36573
20
-4.31028
11
6.48226
21
-4.31028
0
LINE
8
BLACK
6
CONTINUOUS
10
6.36671
20
-4.31224
11
6.36671
21
-4.36776
0
LINE
8
BLACK
6
CONTINUOUS
10
6.36671
20
-4.36776
11
6.48128
21
-4.36776
0
LINE
8
BLACK
6
CONTINUOUS
10
6.48128
20
-4.36776
11
6.48128
21
-4.31224
0
LINE
8
BLACK
6
CONTINUOUS
10
6.48128
20
-4.31224
11
6.36671
21
-4.31224
0
LINE
8
BLACK
6
CONTINUOUS
10
6.64226
20
-4.31028
11
6.64296
21
-4.31056
0
LINE
8
BLACK
6
CONTINUOUS
10
6.64296
20
-4.31056
11
6.64325
21
-4.31126
0
LINE
8
BLACK
6
CONTINUOUS
10
6.64325
20
-4.31126
11
6.64325
21
-4.36874
0
LINE
8
BLACK
6
CONTINUOUS
10
6.64325
20
-4.36874
11
6.64296
21
-4.36944
0
LINE
8
BLACK
6
CONTINUOUS
10
6.64296
20
-4.36944
11
6.64226
21
-4.36972
0
LINE
8
BLACK
6
CONTINUOUS
10
6.64226
20
-4.36972
11
6.52573
21
-4.36972
0
LINE
8
BLACK
6
CONTINUOUS
10
6.52573
20
-4.36972
11
6.52503
21
-4.36944
0
LINE
8
BLACK
6
CONTINUOUS
10
6.52503
20
-4.36944
11
6.52474
21
-4.36874
0
LINE
8
BLACK
6
CONTINUOUS
10
6.52474
20
-4.36874
11
6.52474
21
-4.31126
0
LINE
8
BLACK
6
CONTINUOUS
10
6.52474
20
-4.31126
11
6.52503
21
-4.31056
0
LINE
8
BLACK
6
CONTINUOUS
10
6.52503
20
-4.31056
11
6.52573
21
-4.31028
0
LINE
8
BLACK
6
CONTINUOUS
10
6.52573
20
-4.31028
11
6.64226
21
-4.31028
0
LINE
8
BLACK
6
CONTINUOUS
10
6.52671
20
-4.31224
11
6.52671
21
-4.36776
0
LINE
8
BLACK
6
CONTINUOUS
10
6.52671
20
-4.36776
11
6.64128
21
-4.36776
0
LINE
8
BLACK
6
CONTINUOUS
10
6.64128
20
-4.36776
11
6.64128
21
-4.31224
0
LINE
8
BLACK
6
CONTINUOUS
10
6.64128
20
-4.31224
11
6.52671
21
-4.31224
0
LINE
8
BLACK
6
CONTINUOUS
10
5.99543
20
-4.23571
11
5.99613
21
-4.236
0
LINE
8
BLACK
6
CONTINUOUS
10
5.99613
20
-4.236
11
5.99642
21
-4.23669
0
LINE
8
BLACK
6
CONTINUOUS
10
5.99642
20
-4.23669
11
5.99642
21
-4.32331
0
LINE
8
BLACK
6
CONTINUOUS
10
5.99642
20
-4.32331
11
5.99613
21
-4.324
0
LINE
8
BLACK
6
CONTINUOUS
10
5.99613
20
-4.324
11
5.99543
21
-4.32429
0
LINE
8
BLACK
6
CONTINUOUS
10
5.99543
20
-4.32429
11
5.78677
21
-4.32429
0
LINE
8
BLACK
6
CONTINUOUS
10
5.78677
20
-4.32429
11
5.78608
21
-4.324
0
LINE
8
BLACK
6
CONTINUOUS
10
5.78608
20
-4.324
11
5.78579
21
-4.32331
0
LINE
8
BLACK
6
CONTINUOUS
10
5.78579
20
-4.32331
11
5.78579
21
-4.23669
0
LINE
8
BLACK
6
CONTINUOUS
10
5.78579
20
-4.23669
11
5.78608
21
-4.236
0
LINE
8
BLACK
6
CONTINUOUS
10
5.78608
20
-4.236
11
5.78677
21
-4.23571
0
LINE
8
BLACK
6
CONTINUOUS
10
5.78677
20
-4.23571
11
5.99543
21
-4.23571
0
LINE
8
BLACK
6
CONTINUOUS
10
5.78776
20
-4.23768
11
5.78776
21
-4.32232
0
LINE
8
BLACK
6
CONTINUOUS
10
5.78776
20
-4.32232
11
5.99445
21
-4.32232
0
LINE
8
BLACK
6
CONTINUOUS
10
5.99445
20
-4.32232
11
5.99445
21
-4.23768
0
LINE
8
BLACK
6
CONTINUOUS
10
5.99445
20
-4.23768
11
5.78776
21
-4.23768
  0
ENDSEC
  0
EOF
