  0
SECTION
  2
HEADER
  9
$ANGBASE
  50
0.0
  9
$ANGDIR
  70
1
  9
$MEASUREMENT
  70
0
  0
ENDSEC
  0
SECTION
  2
TABLES
  0
TABLE
  2
LTYPE
  70
4
  0
LTYPE
  5
40F
  2
CONTINUOUS
  70
0
  3
Solid line
  72
65
  73
0
  40
0.0
  0
LTYPE
  5
410
  2
DASHDOT
 70
0
  3
Dash Dot ____ _ ____ _
 72
65
 73
4
 40
2.0
 49
1.25
 49
-0.25
 49
0.25
 49
-0.25
  0
LTYPE
  5
411
  2
DASHED
 70
0
  3
Dashed __ __ __ __ __
 72
65
 73
2
 40
0.75
 49
0.5
 49
-0.25
  0
LTYPE
  5
43B
  2
DOTTED
 70
0
  3
Dotted .  .  .  .
 72
65
 73
2
 40
0.2
 49
0.0
 49
-0.2
  0
ENDTAB
  0
TABLE
  2
STYLE
  70
4
  0
STYLE
  2
KICAD
  70
0
  40
0
  41
1
  42
1
  50
0
  71
0
  3
isocp.shx
  0
STYLE
  2
KICADB
  70
0
  40
0
  41
1
  42
1
  50
0
  71
0
  3
isocp.shx
  0
STYLE
  2
KICADI
  70
0
  40
0
  41
1
  42
1
  50
15
  71
0
  3
isocp.shx
  0
STYLE
  2
KICADBI
  70
0
  40
0
  41
1
  42
1
  50
15
  71
0
  3
isocp.shx
  0
ENDTAB
  0
TABLE
  2
LAYER
  70
1
  0
LAYER
  2
BLACK
  70
0
  62
7
  6
CONTINUOUS
  0
ENDTAB
  0
ENDSEC
  0
SECTION
  2
ENTITIES
0
LINE
8
BLACK
6
CONTINUOUS
10
5.520509645669291
20
-4.7836841338582676
11
5.5338744094488188
21
-4.7868516141732282
0
LINE
8
BLACK
6
CONTINUOUS
10
5.5338744094488188
20
-4.7868516141732282
11
5.5467810629921255
21
-4.7915492913385824
0
LINE
8
BLACK
6
CONTINUOUS
10
5.5467810629921255
20
-4.7915492913385824
11
5.5590551181102361
21
-4.7977135433070863
0
LINE
8
BLACK
6
CONTINUOUS
10
5.5590551181102361
20
-4.7977135433070863
11
5.5705305511811023
21
-4.8052610236220472
0
LINE
8
BLACK
6
CONTINUOUS
10
5.5705305511811023
20
-4.8052610236220472
11
5.5810521653543308
21
-4.8140897244094489
0
LINE
8
BLACK
6
CONTINUOUS
10
5.5810521653543308
20
-4.8140897244094489
11
5.5904776771653539
21
-4.8240801968503932
0
LINE
8
BLACK
6
CONTINUOUS
10
5.5904776771653539
20
-4.8240801968503932
11
5.5986796456692911
21
-4.8350973622047242
0
LINE
8
BLACK
6
CONTINUOUS
10
5.5986796456692911
20
-4.8350973622047242
11
5.6055471653543307
21
-4.8469922047244092
0
LINE
8
BLACK
6
CONTINUOUS
10
5.6055471653543307
20
-4.8469922047244092
11
5.6109873228346459
21
-4.8596039370078739
0
LINE
8
BLACK
6
CONTINUOUS
10
5.6109873228346459
20
-4.8596039370078739
11
5.6149265748031496
21
-4.8727618897637797
0
LINE
8
BLACK
6
CONTINUOUS
10
5.6149265748031496
20
-4.8727618897637797
11
5.6173116141732287
21
-4.8862882283464568
0
LINE
8
BLACK
6
CONTINUOUS
10
5.6173116141732287
20
-4.8862882283464568
11
5.6181102362204722
21
-4.8999999999999995
0
LINE
8
BLACK
6
CONTINUOUS
10
5.6181102362204722
20
-4.8999999999999995
11
5.6173116141732287
21
-4.913711771653543
0
LINE
8
BLACK
6
CONTINUOUS
10
5.6173116141732287
20
-4.913711771653543
11
5.6149265748031496
21
-4.9272381102362202
0
LINE
8
BLACK
6
CONTINUOUS
10
5.6149265748031496
20
-4.9272381102362202
11
5.6109873228346459
21
-4.940396062992126
0
LINE
8
BLACK
6
CONTINUOUS
10
5.6109873228346459
20
-4.940396062992126
11
5.6055471653543307
21
-4.9530077952755907
0
LINE
8
BLACK
6
CONTINUOUS
10
5.6055471653543307
20
-4.9530077952755907
11
5.5986796456692911
21
-4.9649026377952756
0
LINE
8
BLACK
6
CONTINUOUS
10
5.5986796456692911
20
-4.9649026377952756
11
5.5904776771653539
21
-4.9759198031496066
0
LINE
8
BLACK
6
CONTINUOUS
10
5.5904776771653539
20
-4.9759198031496066
11
5.5810521653543308
21
-4.9859102755905509
0
LINE
8
BLACK
6
CONTINUOUS
10
5.5810521653543308
20
-4.9859102755905509
11
5.5705305511811023
21
-4.9947389763779526
0
LINE
8
BLACK
6
CONTINUOUS
10
5.5705305511811023
20
-4.9947389763779526
11
5.5590551181102361
21
-5.0022864566929135
0
LINE
8
BLACK
6
CONTINUOUS
10
5.5590551181102361
20
-5.0022864566929135
11
5.5467810629921255
21
-5.0084507086614174
0
LINE
8
BLACK
6
CONTINUOUS
10
5.5467810629921255
20
-5.0084507086614174
11
5.5338744094488188
21
-5.0131483858267716
0
LINE
8
BLACK
6
CONTINUOUS
10
5.5338744094488188
20
-5.0131483858267716
11
5.520509645669291
21
-5.0163158661417322
0
LINE
8
BLACK
6
CONTINUOUS
10
5.520509645669291
20
-5.0163158661417322
11
5.5068674803149609
21
-5.0179103937007872
0
LINE
8
BLACK
6
CONTINUOUS
10
5.5068674803149609
20
-5.0179103937007872
11
5.4931325196850391
21
-5.0179103937007872
0
LINE
8
BLACK
6
CONTINUOUS
10
5.4931325196850391
20
-5.0179103937007872
11
5.479490354330709
21
-5.0163158661417322
0
LINE
8
BLACK
6
CONTINUOUS
10
5.479490354330709
20
-5.0163158661417322
11
5.4661255905511812
21
-5.0131483858267716
0
LINE
8
BLACK
6
CONTINUOUS
10
5.4661255905511812
20
-5.0131483858267716
11
5.4532189370078736
21
-5.0084507086614174
0
LINE
8
BLACK
6
CONTINUOUS
10
5.4532189370078736
20
-5.0084507086614174
11
5.4409448818897639
21
-5.0022864566929135
0
LINE
8
BLACK
6
CONTINUOUS
10
5.4409448818897639
20
-5.0022864566929135
11
5.4294694488188977
21
-4.9947389763779526
0
LINE
8
BLACK
6
CONTINUOUS
10
5.4294694488188977
20
-4.9947389763779526
11
5.4189478346456692
21
-4.9859102755905509
0
LINE
8
BLACK
6
CONTINUOUS
10
5.4189478346456692
20
-4.9859102755905509
11
5.4095223228346452
21
-4.9759198031496066
0
LINE
8
BLACK
6
CONTINUOUS
10
5.4095223228346452
20
-4.9759198031496066
11
5.4013203543307089
21
-4.9649026377952756
0
LINE
8
BLACK
6
CONTINUOUS
10
5.4013203543307089
20
-4.9649026377952756
11
5.3944528346456693
21
-4.9530077952755907
0
LINE
8
BLACK
6
CONTINUOUS
10
5.3944528346456693
20
-4.9530077952755907
11
5.3890126771653541
21
-4.940396062992126
0
LINE
8
BLACK
6
CONTINUOUS
10
5.3890126771653541
20
-4.940396062992126
11
5.3850734251968504
21
-4.9272381102362202
0
LINE
8
BLACK
6
CONTINUOUS
10
5.3850734251968504
20
-4.9272381102362202
11
5.3826883858267713
21
-4.913711771653543
0
LINE
8
BLACK
6
CONTINUOUS
10
5.3826883858267713
20
-4.913711771653543
11
5.3818897637795278
21
-4.8999999999999995
0
LINE
8
BLACK
6
CONTINUOUS
10
5.3818897637795278
20
-4.8999999999999995
11
5.3826883858267713
21
-4.8862882283464568
0
LINE
8
BLACK
6
CONTINUOUS
10
5.3826883858267713
20
-4.8862882283464568
11
5.3850734251968504
21
-4.8727618897637797
0
LINE
8
BLACK
6
CONTINUOUS
10
5.3850734251968504
20
-4.8727618897637797
11
5.3890126771653541
21
-4.8596039370078739
0
LINE
8
BLACK
6
CONTINUOUS
10
5.3890126771653541
20
-4.8596039370078739
11
5.3944528346456693
21
-4.8469922047244092
0
LINE
8
BLACK
6
CONTINUOUS
10
5.3944528346456693
20
-4.8469922047244092
11
5.4013203543307089
21
-4.8350973622047242
0
LINE
8
BLACK
6
CONTINUOUS
10
5.4013203543307089
20
-4.8350973622047242
11
5.4095223228346452
21
-4.8240801968503932
0
LINE
8
BLACK
6
CONTINUOUS
10
5.4095223228346452
20
-4.8240801968503932
11
5.4189478346456692
21
-4.8140897244094489
0
LINE
8
BLACK
6
CONTINUOUS
10
5.4189478346456692
20
-4.8140897244094489
11
5.4294694488188977
21
-4.8052610236220472
0
LINE
8
BLACK
6
CONTINUOUS
10
5.4294694488188977
20
-4.8052610236220472
11
5.4409448818897639
21
-4.7977135433070863
0
LINE
8
BLACK
6
CONTINUOUS
10
5.4409448818897639
20
-4.7977135433070863
11
5.4532189370078736
21
-4.7915492913385824
0
LINE
8
BLACK
6
CONTINUOUS
10
5.4532189370078736
20
-4.7915492913385824
11
5.4661255905511812
21
-4.7868516141732282
0
LINE
8
BLACK
6
CONTINUOUS
10
5.4661255905511812
20
-4.7868516141732282
11
5.479490354330709
21
-4.7836841338582676
0
LINE
8
BLACK
6
CONTINUOUS
10
5.479490354330709
20
-4.7836841338582676
11
5.4931325196850391
21
-4.7820896062992126
0
LINE
8
BLACK
6
CONTINUOUS
10
5.4931325196850391
20
-4.7820896062992126
11
5.5068674803149609
21
-4.7820896062992126
0
LINE
8
BLACK
6
CONTINUOUS
10
5.5068674803149609
20
-4.7820896062992126
11
5.520509645669291
21
-4.7836841338582676
0
LINE
8
BLACK
6
CONTINUOUS
10
7.1205096456692916
20
-4.7836841338582676
11
7.1338744094488185
21
-4.7868516141732282
0
LINE
8
BLACK
6
CONTINUOUS
10
7.1338744094488185
20
-4.7868516141732282
11
7.146781062992126
21
-4.7915492913385824
0
LINE
8
BLACK
6
CONTINUOUS
10
7.146781062992126
20
-4.7915492913385824
11
7.1590551181102358
21
-4.7977135433070863
0
LINE
8
BLACK
6
CONTINUOUS
10
7.1590551181102358
20
-4.7977135433070863
11
7.1705305511811019
21
-4.8052610236220472
0
LINE
8
BLACK
6
CONTINUOUS
10
7.1705305511811019
20
-4.8052610236220472
11
7.1810521653543304
21
-4.8140897244094489
0
LINE
8
BLACK
6
CONTINUOUS
10
7.1810521653543304
20
-4.8140897244094489
11
7.1904776771653545
21
-4.8240801968503932
0
LINE
8
BLACK
6
CONTINUOUS
10
7.1904776771653545
20
-4.8240801968503932
11
7.1986796456692907
21
-4.8350973622047242
0
LINE
8
BLACK
6
CONTINUOUS
10
7.1986796456692907
20
-4.8350973622047242
11
7.2055471653543304
21
-4.8469922047244092
0
LINE
8
BLACK
6
CONTINUOUS
10
7.2055471653543304
20
-4.8469922047244092
11
7.2109873228346455
21
-4.8596039370078739
0
LINE
8
BLACK
6
CONTINUOUS
10
7.2109873228346455
20
-4.8596039370078739
11
7.2149265748031493
21
-4.8727618897637797
0
LINE
8
BLACK
6
CONTINUOUS
10
7.2149265748031493
20
-4.8727618897637797
11
7.2173116141732283
21
-4.8862882283464568
0
LINE
8
BLACK
6
CONTINUOUS
10
7.2173116141732283
20
-4.8862882283464568
11
7.2181102362204719
21
-4.8999999999999995
0
LINE
8
BLACK
6
CONTINUOUS
10
7.2181102362204719
20
-4.8999999999999995
11
7.2173116141732283
21
-4.913711771653543
0
LINE
8
BLACK
6
CONTINUOUS
10
7.2173116141732283
20
-4.913711771653543
11
7.2149265748031493
21
-4.9272381102362202
0
LINE
8
BLACK
6
CONTINUOUS
10
7.2149265748031493
20
-4.9272381102362202
11
7.2109873228346455
21
-4.940396062992126
0
LINE
8
BLACK
6
CONTINUOUS
10
7.2109873228346455
20
-4.940396062992126
11
7.2055471653543304
21
-4.9530077952755907
0
LINE
8
BLACK
6
CONTINUOUS
10
7.2055471653543304
20
-4.9530077952755907
11
7.1986796456692907
21
-4.9649026377952756
0
LINE
8
BLACK
6
CONTINUOUS
10
7.1986796456692907
20
-4.9649026377952756
11
7.1904776771653545
21
-4.9759198031496066
0
LINE
8
BLACK
6
CONTINUOUS
10
7.1904776771653545
20
-4.9759198031496066
11
7.1810521653543304
21
-4.9859102755905509
0
LINE
8
BLACK
6
CONTINUOUS
10
7.1810521653543304
20
-4.9859102755905509
11
7.1705305511811019
21
-4.9947389763779526
0
LINE
8
BLACK
6
CONTINUOUS
10
7.1705305511811019
20
-4.9947389763779526
11
7.1590551181102358
21
-5.0022864566929135
0
LINE
8
BLACK
6
CONTINUOUS
10
7.1590551181102358
20
-5.0022864566929135
11
7.146781062992126
21
-5.0084507086614174
0
LINE
8
BLACK
6
CONTINUOUS
10
7.146781062992126
20
-5.0084507086614174
11
7.1338744094488185
21
-5.0131483858267716
0
LINE
8
BLACK
6
CONTINUOUS
10
7.1338744094488185
20
-5.0131483858267716
11
7.1205096456692916
21
-5.0163158661417322
0
LINE
8
BLACK
6
CONTINUOUS
10
7.1205096456692916
20
-5.0163158661417322
11
7.1068674803149605
21
-5.0179103937007872
0
LINE
8
BLACK
6
CONTINUOUS
10
7.1068674803149605
20
-5.0179103937007872
11
7.0931325196850388
21
-5.0179103937007872
0
LINE
8
BLACK
6
CONTINUOUS
10
7.0931325196850388
20
-5.0179103937007872
11
7.0794903543307086
21
-5.0163158661417322
0
LINE
8
BLACK
6
CONTINUOUS
10
7.0794903543307086
20
-5.0163158661417322
11
7.0661255905511808
21
-5.0131483858267716
0
LINE
8
BLACK
6
CONTINUOUS
10
7.0661255905511808
20
-5.0131483858267716
11
7.0532189370078742
21
-5.0084507086614174
0
LINE
8
BLACK
6
CONTINUOUS
10
7.0532189370078742
20
-5.0084507086614174
11
7.0409448818897635
21
-5.0022864566929135
0
LINE
8
BLACK
6
CONTINUOUS
10
7.0409448818897635
20
-5.0022864566929135
11
7.0294694488188973
21
-4.9947389763779526
0
LINE
8
BLACK
6
CONTINUOUS
10
7.0294694488188973
20
-4.9947389763779526
11
7.0189478346456688
21
-4.9859102755905509
0
LINE
8
BLACK
6
CONTINUOUS
10
7.0189478346456688
20
-4.9859102755905509
11
7.0095223228346457
21
-4.9759198031496066
0
LINE
8
BLACK
6
CONTINUOUS
10
7.0095223228346457
20
-4.9759198031496066
11
7.0013203543307085
21
-4.9649026377952756
0
LINE
8
BLACK
6
CONTINUOUS
10
7.0013203543307085
20
-4.9649026377952756
11
6.9944528346456689
21
-4.9530077952755907
0
LINE
8
BLACK
6
CONTINUOUS
10
6.9944528346456689
20
-4.9530077952755907
11
6.9890126771653538
21
-4.940396062992126
0
LINE
8
BLACK
6
CONTINUOUS
10
6.9890126771653538
20
-4.940396062992126
11
6.98507342519685
21
-4.9272381102362202
0
LINE
8
BLACK
6
CONTINUOUS
10
6.98507342519685
20
-4.9272381102362202
11
6.9826883858267719
21
-4.913711771653543
0
LINE
8
BLACK
6
CONTINUOUS
10
6.9826883858267719
20
-4.913711771653543
11
6.9818897637795274
21
-4.8999999999999995
0
LINE
8
BLACK
6
CONTINUOUS
10
6.9818897637795274
20
-4.8999999999999995
11
6.9826883858267719
21
-4.8862882283464568
0
LINE
8
BLACK
6
CONTINUOUS
10
6.9826883858267719
20
-4.8862882283464568
11
6.98507342519685
21
-4.8727618897637797
0
LINE
8
BLACK
6
CONTINUOUS
10
6.98507342519685
20
-4.8727618897637797
11
6.9890126771653538
21
-4.8596039370078739
0
LINE
8
BLACK
6
CONTINUOUS
10
6.9890126771653538
20
-4.8596039370078739
11
6.9944528346456689
21
-4.8469922047244092
0
LINE
8
BLACK
6
CONTINUOUS
10
6.9944528346456689
20
-4.8469922047244092
11
7.0013203543307085
21
-4.8350973622047242
0
LINE
8
BLACK
6
CONTINUOUS
10
7.0013203543307085
20
-4.8350973622047242
11
7.0095223228346457
21
-4.8240801968503932
0
LINE
8
BLACK
6
CONTINUOUS
10
7.0095223228346457
20
-4.8240801968503932
11
7.0189478346456688
21
-4.8140897244094489
0
LINE
8
BLACK
6
CONTINUOUS
10
7.0189478346456688
20
-4.8140897244094489
11
7.0294694488188973
21
-4.8052610236220472
0
LINE
8
BLACK
6
CONTINUOUS
10
7.0294694488188973
20
-4.8052610236220472
11
7.0409448818897635
21
-4.7977135433070863
0
LINE
8
BLACK
6
CONTINUOUS
10
7.0409448818897635
20
-4.7977135433070863
11
7.0532189370078742
21
-4.7915492913385824
0
LINE
8
BLACK
6
CONTINUOUS
10
7.0532189370078742
20
-4.7915492913385824
11
7.0661255905511808
21
-4.7868516141732282
0
LINE
8
BLACK
6
CONTINUOUS
10
7.0661255905511808
20
-4.7868516141732282
11
7.0794903543307086
21
-4.7836841338582676
0
LINE
8
BLACK
6
CONTINUOUS
10
7.0794903543307086
20
-4.7836841338582676
11
7.0931325196850388
21
-4.7820896062992126
0
LINE
8
BLACK
6
CONTINUOUS
10
7.0931325196850388
20
-4.7820896062992126
11
7.1068674803149605
21
-4.7820896062992126
0
LINE
8
BLACK
6
CONTINUOUS
10
7.1068674803149605
20
-4.7820896062992126
11
7.1205096456692916
21
-4.7836841338582676
0
LINE
8
BLACK
6
CONTINUOUS
10
5.46
20
-4.71
11
5.3999999999999995
21
-4.71
0
LINE
8
BLACK
6
CONTINUOUS
10
5.3999999999999995
20
-4.71
11
5.3999999999999995
21
-4.6499999999999995
0
LINE
8
BLACK
6
CONTINUOUS
10
5.3999999999999995
20
-4.6499999999999995
11
5.46
21
-4.6499999999999995
0
LINE
8
BLACK
6
CONTINUOUS
10
5.46
20
-4.6499999999999995
11
5.46
21
-4.71
0
LINE
8
BLACK
6
CONTINUOUS
10
5.5599999999999996
20
-4.71
11
5.5
21
-4.71
0
LINE
8
BLACK
6
CONTINUOUS
10
5.5
20
-4.71
11
5.5
21
-4.6499999999999995
0
LINE
8
BLACK
6
CONTINUOUS
10
5.5
20
-4.6499999999999995
11
5.5599999999999996
21
-4.6499999999999995
0
LINE
8
BLACK
6
CONTINUOUS
10
5.5599999999999996
20
-4.6499999999999995
11
5.5599999999999996
21
-4.71
0
LINE
8
BLACK
6
CONTINUOUS
10
6.9712293307086615
20
-4.5476578740157478
11
6.9801782283464568
21
-4.5500557086614171
0
LINE
8
BLACK
6
CONTINUOUS
10
6.9801782283464568
20
-4.5500557086614171
11
6.9885748031496062
21
-4.5539711023622047
0
LINE
8
BLACK
6
CONTINUOUS
10
6.9885748031496062
20
-4.5539711023622047
11
6.9961638976377953
21
-4.5592850393700788
0
LINE
8
BLACK
6
CONTINUOUS
10
6.9961638976377953
20
-4.5592850393700788
11
7.0027149606299215
21
-4.5658361023622049
0
LINE
8
BLACK
6
CONTINUOUS
10
7.0027149606299215
20
-4.5658361023622049
11
7.0080288976377947
21
-4.5734251968503932
0
LINE
8
BLACK
6
CONTINUOUS
10
7.0080288976377947
20
-4.5734251968503932
11
7.0119442913385823
21
-4.5818217716535434
0
LINE
8
BLACK
6
CONTINUOUS
10
7.0119442913385823
20
-4.5818217716535434
11
7.0143421259842516
21
-4.5907706692913388
0
LINE
8
BLACK
6
CONTINUOUS
10
7.0143421259842516
20
-4.5907706692913388
11
7.0151496062992127
21
-4.5999999999999996
0
LINE
8
BLACK
6
CONTINUOUS
10
7.0151496062992127
20
-4.5999999999999996
11
7.0143421259842516
21
-4.6092293307086614
0
LINE
8
BLACK
6
CONTINUOUS
10
7.0143421259842516
20
-4.6092293307086614
11
7.0119442913385823
21
-4.6181782283464567
0
LINE
8
BLACK
6
CONTINUOUS
10
7.0119442913385823
20
-4.6181782283464567
11
7.0080288976377947
21
-4.6265748031496061
0
LINE
8
BLACK
6
CONTINUOUS
10
7.0080288976377947
20
-4.6265748031496061
11
7.0027149606299215
21
-4.6341638976377952
0
LINE
8
BLACK
6
CONTINUOUS
10
7.0027149606299215
20
-4.6341638976377952
11
6.9961638976377953
21
-4.6407149606299214
0
LINE
8
BLACK
6
CONTINUOUS
10
6.9961638976377953
20
-4.6407149606299214
11
6.9885748031496062
21
-4.6460288976377955
0
LINE
8
BLACK
6
CONTINUOUS
10
6.9885748031496062
20
-4.6460288976377955
11
6.9801782283464568
21
-4.6499442913385822
0
LINE
8
BLACK
6
CONTINUOUS
10
6.9801782283464568
20
-4.6499442913385822
11
6.9712293307086615
21
-4.6523421259842515
0
LINE
8
BLACK
6
CONTINUOUS
10
6.9712293307086615
20
-4.6523421259842515
11
6.9619999999999997
21
-4.6531496062992126
0
LINE
8
BLACK
6
CONTINUOUS
10
6.9619999999999997
20
-4.6531496062992126
11
6.952770669291338
21
-4.6523421259842515
0
LINE
8
BLACK
6
CONTINUOUS
10
6.952770669291338
20
-4.6523421259842515
11
6.9438217716535435
21
-4.6499442913385822
0
LINE
8
BLACK
6
CONTINUOUS
10
6.9438217716535435
20
-4.6499442913385822
11
6.9354251968503933
21
-4.6460288976377955
0
LINE
8
BLACK
6
CONTINUOUS
10
6.9354251968503933
20
-4.6460288976377955
11
6.9278361023622042
21
-4.6407149606299214
0
LINE
8
BLACK
6
CONTINUOUS
10
6.9278361023622042
20
-4.6407149606299214
11
6.9212850393700789
21
-4.6341638976377952
0
LINE
8
BLACK
6
CONTINUOUS
10
6.9212850393700789
20
-4.6341638976377952
11
6.9159711023622048
21
-4.6265748031496061
0
LINE
8
BLACK
6
CONTINUOUS
10
6.9159711023622048
20
-4.6265748031496061
11
6.9120557086614172
21
-4.6181782283464567
0
LINE
8
BLACK
6
CONTINUOUS
10
6.9120557086614172
20
-4.6181782283464567
11
6.9096578740157479
21
-4.6092293307086614
0
LINE
8
BLACK
6
CONTINUOUS
10
6.9096578740157479
20
-4.6092293307086614
11
6.9088503937007877
21
-4.5999999999999996
0
LINE
8
BLACK
6
CONTINUOUS
10
6.9088503937007877
20
-4.5999999999999996
11
6.9096578740157479
21
-4.5907706692913388
0
LINE
8
BLACK
6
CONTINUOUS
10
6.9096578740157479
20
-4.5907706692913388
11
6.9120557086614172
21
-4.5818217716535434
0
LINE
8
BLACK
6
CONTINUOUS
10
6.9120557086614172
20
-4.5818217716535434
11
6.9159711023622048
21
-4.5734251968503932
0
LINE
8
BLACK
6
CONTINUOUS
10
6.9159711023622048
20
-4.5734251968503932
11
6.9212850393700789
21
-4.5658361023622049
0
LINE
8
BLACK
6
CONTINUOUS
10
6.9212850393700789
20
-4.5658361023622049
11
6.9278361023622042
21
-4.5592850393700788
0
LINE
8
BLACK
6
CONTINUOUS
10
6.9278361023622042
20
-4.5592850393700788
11
6.9354251968503933
21
-4.5539711023622047
0
LINE
8
BLACK
6
CONTINUOUS
10
6.9354251968503933
20
-4.5539711023622047
11
6.9438217716535435
21
-4.5500557086614171
0
LINE
8
BLACK
6
CONTINUOUS
10
6.9438217716535435
20
-4.5500557086614171
11
6.952770669291338
21
-4.5476578740157478
0
LINE
8
BLACK
6
CONTINUOUS
10
6.952770669291338
20
-4.5476578740157478
11
6.9619999999999997
21
-4.5468503937007876
0
LINE
8
BLACK
6
CONTINUOUS
10
6.9619999999999997
20
-4.5468503937007876
11
6.9712293307086615
21
-4.5476578740157478
0
LINE
8
BLACK
6
CONTINUOUS
10
7.1712293307086616
20
-4.5476578740157478
11
7.1801782283464561
21
-4.5500557086614171
0
LINE
8
BLACK
6
CONTINUOUS
10
7.1801782283464561
20
-4.5500557086614171
11
7.1885748031496064
21
-4.5539711023622047
0
LINE
8
BLACK
6
CONTINUOUS
10
7.1885748031496064
20
-4.5539711023622047
11
7.1961638976377955
21
-4.5592850393700788
0
LINE
8
BLACK
6
CONTINUOUS
10
7.1961638976377955
20
-4.5592850393700788
11
7.2027149606299208
21
-4.5658361023622049
0
LINE
8
BLACK
6
CONTINUOUS
10
7.2027149606299208
20
-4.5658361023622049
11
7.2080288976377949
21
-4.5734251968503932
0
LINE
8
BLACK
6
CONTINUOUS
10
7.2080288976377949
20
-4.5734251968503932
11
7.2119442913385825
21
-4.5818217716535434
0
LINE
8
BLACK
6
CONTINUOUS
10
7.2119442913385825
20
-4.5818217716535434
11
7.2143421259842517
21
-4.5907706692913388
0
LINE
8
BLACK
6
CONTINUOUS
10
7.2143421259842517
20
-4.5907706692913388
11
7.2151496062992129
21
-4.5999999999999996
0
LINE
8
BLACK
6
CONTINUOUS
10
7.2151496062992129
20
-4.5999999999999996
11
7.2143421259842517
21
-4.6092293307086614
0
LINE
8
BLACK
6
CONTINUOUS
10
7.2143421259842517
20
-4.6092293307086614
11
7.2119442913385825
21
-4.6181782283464567
0
LINE
8
BLACK
6
CONTINUOUS
10
7.2119442913385825
20
-4.6181782283464567
11
7.2080288976377949
21
-4.6265748031496061
0
LINE
8
BLACK
6
CONTINUOUS
10
7.2080288976377949
20
-4.6265748031496061
11
7.2027149606299208
21
-4.6341638976377952
0
LINE
8
BLACK
6
CONTINUOUS
10
7.2027149606299208
20
-4.6341638976377952
11
7.1961638976377955
21
-4.6407149606299214
0
LINE
8
BLACK
6
CONTINUOUS
10
7.1961638976377955
20
-4.6407149606299214
11
7.1885748031496064
21
-4.6460288976377955
0
LINE
8
BLACK
6
CONTINUOUS
10
7.1885748031496064
20
-4.6460288976377955
11
7.1801782283464561
21
-4.6499442913385822
0
LINE
8
BLACK
6
CONTINUOUS
10
7.1801782283464561
20
-4.6499442913385822
11
7.1712293307086616
21
-4.6523421259842515
0
LINE
8
BLACK
6
CONTINUOUS
10
7.1712293307086616
20
-4.6523421259842515
11
7.1619999999999999
21
-4.6531496062992126
0
LINE
8
BLACK
6
CONTINUOUS
10
7.1619999999999999
20
-4.6531496062992126
11
7.1527706692913382
21
-4.6523421259842515
0
LINE
8
BLACK
6
CONTINUOUS
10
7.1527706692913382
20
-4.6523421259842515
11
7.1438217716535428
21
-4.6499442913385822
0
LINE
8
BLACK
6
CONTINUOUS
10
7.1438217716535428
20
-4.6499442913385822
11
7.1354251968503934
21
-4.6460288976377955
0
LINE
8
BLACK
6
CONTINUOUS
10
7.1354251968503934
20
-4.6460288976377955
11
7.1278361023622043
21
-4.6407149606299214
0
LINE
8
BLACK
6
CONTINUOUS
10
7.1278361023622043
20
-4.6407149606299214
11
7.1212850393700782
21
-4.6341638976377952
0
LINE
8
BLACK
6
CONTINUOUS
10
7.1212850393700782
20
-4.6341638976377952
11
7.115971102362205
21
-4.6265748031496061
0
LINE
8
BLACK
6
CONTINUOUS
10
7.115971102362205
20
-4.6265748031496061
11
7.1120557086614173
21
-4.6181782283464567
0
LINE
8
BLACK
6
CONTINUOUS
10
7.1120557086614173
20
-4.6181782283464567
11
7.1096578740157481
21
-4.6092293307086614
0
LINE
8
BLACK
6
CONTINUOUS
10
7.1096578740157481
20
-4.6092293307086614
11
7.108850393700787
21
-4.5999999999999996
0
LINE
8
BLACK
6
CONTINUOUS
10
7.108850393700787
20
-4.5999999999999996
11
7.1096578740157481
21
-4.5907706692913388
0
LINE
8
BLACK
6
CONTINUOUS
10
7.1096578740157481
20
-4.5907706692913388
11
7.1120557086614173
21
-4.5818217716535434
0
LINE
8
BLACK
6
CONTINUOUS
10
7.1120557086614173
20
-4.5818217716535434
11
7.115971102362205
21
-4.5734251968503932
0
LINE
8
BLACK
6
CONTINUOUS
10
7.115971102362205
20
-4.5734251968503932
11
7.1212850393700782
21
-4.5658361023622049
0
LINE
8
BLACK
6
CONTINUOUS
10
7.1212850393700782
20
-4.5658361023622049
11
7.1278361023622043
21
-4.5592850393700788
0
LINE
8
BLACK
6
CONTINUOUS
10
7.1278361023622043
20
-4.5592850393700788
11
7.1354251968503934
21
-4.5539711023622047
0
LINE
8
BLACK
6
CONTINUOUS
10
7.1354251968503934
20
-4.5539711023622047
11
7.1438217716535428
21
-4.5500557086614171
0
LINE
8
BLACK
6
CONTINUOUS
10
7.1438217716535428
20
-4.5500557086614171
11
7.1527706692913382
21
-4.5476578740157478
0
LINE
8
BLACK
6
CONTINUOUS
10
7.1527706692913382
20
-4.5476578740157478
11
7.1619999999999999
21
-4.5468503937007876
0
LINE
8
BLACK
6
CONTINUOUS
10
7.1619999999999999
20
-4.5468503937007876
11
7.1712293307086616
21
-4.5476578740157478
0
LINE
8
BLACK
6
CONTINUOUS
10
5.46
20
-4.6100000000000003
11
5.3999999999999995
21
-4.6100000000000003
0
LINE
8
BLACK
6
CONTINUOUS
10
5.3999999999999995
20
-4.6100000000000003
11
5.3999999999999995
21
-4.5499999999999998
0
LINE
8
BLACK
6
CONTINUOUS
10
5.3999999999999995
20
-4.5499999999999998
11
5.46
21
-4.5499999999999998
0
LINE
8
BLACK
6
CONTINUOUS
10
5.46
20
-4.5499999999999998
11
5.46
21
-4.6100000000000003
0
LINE
8
BLACK
6
CONTINUOUS
10
5.5599999999999996
20
-4.6100000000000003
11
5.5
21
-4.6100000000000003
0
LINE
8
BLACK
6
CONTINUOUS
10
5.5
20
-4.6100000000000003
11
5.5
21
-4.5499999999999998
0
LINE
8
BLACK
6
CONTINUOUS
10
5.5
20
-4.5499999999999998
11
5.5599999999999996
21
-4.5499999999999998
0
LINE
8
BLACK
6
CONTINUOUS
10
5.5599999999999996
20
-4.5499999999999998
11
5.5599999999999996
21
-4.6100000000000003
0
LINE
8
BLACK
6
CONTINUOUS
10
7.070545669291338
20
-4.4515350393700786
11
7.0788316929133854
21
-4.4537552755905514
0
LINE
8
BLACK
6
CONTINUOUS
10
7.0788316929133854
20
-4.4537552755905514
11
7.0866062992125984
21
-4.4573806299212597
0
LINE
8
BLACK
6
CONTINUOUS
10
7.0866062992125984
20
-4.4573806299212597
11
7.0936332677165357
21
-4.46230094488189
0
LINE
8
BLACK
6
CONTINUOUS
10
7.0936332677165357
20
-4.46230094488189
11
7.0996990551181103
21
-4.4683667322834646
0
LINE
8
BLACK
6
CONTINUOUS
10
7.0996990551181103
20
-4.4683667322834646
11
7.1046193700787397
21
-4.4753937007874018
0
LINE
8
BLACK
6
CONTINUOUS
10
7.1046193700787397
20
-4.4753937007874018
11
7.1082447244094489
21
-4.483168307086614
0
LINE
8
BLACK
6
CONTINUOUS
10
7.1082447244094489
20
-4.483168307086614
11
7.1104649606299208
21
-4.4914543307086614
0
LINE
8
BLACK
6
CONTINUOUS
10
7.1104649606299208
20
-4.4914543307086614
11
7.1112125984251966
21
-4.5
0
LINE
8
BLACK
6
CONTINUOUS
10
7.1112125984251966
20
-4.5
11
7.1104649606299208
21
-4.5085456692913386
0
LINE
8
BLACK
6
CONTINUOUS
10
7.1104649606299208
20
-4.5085456692913386
11
7.1082447244094489
21
-4.516831692913386
0
LINE
8
BLACK
6
CONTINUOUS
10
7.1082447244094489
20
-4.516831692913386
11
7.1046193700787397
21
-4.5246062992125982
0
LINE
8
BLACK
6
CONTINUOUS
10
7.1046193700787397
20
-4.5246062992125982
11
7.0996990551181103
21
-4.5316332677165354
0
LINE
8
BLACK
6
CONTINUOUS
10
7.0996990551181103
20
-4.5316332677165354
11
7.0936332677165357
21
-4.53769905511811
0
LINE
8
BLACK
6
CONTINUOUS
10
7.0936332677165357
20
-4.53769905511811
11
7.0866062992125984
21
-4.5426193700787403
0
LINE
8
BLACK
6
CONTINUOUS
10
7.0866062992125984
20
-4.5426193700787403
11
7.0788316929133854
21
-4.5462447244094486
0
LINE
8
BLACK
6
CONTINUOUS
10
7.0788316929133854
20
-4.5462447244094486
11
7.070545669291338
21
-4.5484649606299214
0
LINE
8
BLACK
6
CONTINUOUS
10
7.070545669291338
20
-4.5484649606299214
11
7.0620000000000003
21
-4.5492125984251963
0
LINE
8
BLACK
6
CONTINUOUS
10
7.0620000000000003
20
-4.5492125984251963
11
7.0534543307086617
21
-4.5484649606299214
0
LINE
8
BLACK
6
CONTINUOUS
10
7.0534543307086617
20
-4.5484649606299214
11
7.0451683070866142
21
-4.5462447244094486
0
LINE
8
BLACK
6
CONTINUOUS
10
7.0451683070866142
20
-4.5462447244094486
11
7.0373937007874012
21
-4.5426193700787403
0
LINE
8
BLACK
6
CONTINUOUS
10
7.0373937007874012
20
-4.5426193700787403
11
7.030366732283464
21
-4.53769905511811
0
LINE
8
BLACK
6
CONTINUOUS
10
7.030366732283464
20
-4.53769905511811
11
7.0243009448818894
21
-4.5316332677165354
0
LINE
8
BLACK
6
CONTINUOUS
10
7.0243009448818894
20
-4.5316332677165354
11
7.01938062992126
21
-4.5246062992125982
0
LINE
8
BLACK
6
CONTINUOUS
10
7.01938062992126
20
-4.5246062992125982
11
7.0157552755905508
21
-4.516831692913386
0
LINE
8
BLACK
6
CONTINUOUS
10
7.0157552755905508
20
-4.516831692913386
11
7.0135350393700788
21
-4.5085456692913386
0
LINE
8
BLACK
6
CONTINUOUS
10
7.0135350393700788
20
-4.5085456692913386
11
7.0127874015748031
21
-4.5
0
LINE
8
BLACK
6
CONTINUOUS
10
7.0127874015748031
20
-4.5
11
7.0135350393700788
21
-4.4914543307086614
0
LINE
8
BLACK
6
CONTINUOUS
10
7.0135350393700788
20
-4.4914543307086614
11
7.0157552755905508
21
-4.483168307086614
0
LINE
8
BLACK
6
CONTINUOUS
10
7.0157552755905508
20
-4.483168307086614
11
7.01938062992126
21
-4.4753937007874018
0
LINE
8
BLACK
6
CONTINUOUS
10
7.01938062992126
20
-4.4753937007874018
11
7.0243009448818894
21
-4.4683667322834646
0
LINE
8
BLACK
6
CONTINUOUS
10
7.0243009448818894
20
-4.4683667322834646
11
7.030366732283464
21
-4.46230094488189
0
LINE
8
BLACK
6
CONTINUOUS
10
7.030366732283464
20
-4.46230094488189
11
7.0373937007874012
21
-4.4573806299212597
0
LINE
8
BLACK
6
CONTINUOUS
10
7.0373937007874012
20
-4.4573806299212597
11
7.0451683070866142
21
-4.4537552755905514
0
LINE
8
BLACK
6
CONTINUOUS
10
7.0451683070866142
20
-4.4537552755905514
11
7.0534543307086617
21
-4.4515350393700786
0
LINE
8
BLACK
6
CONTINUOUS
10
7.0534543307086617
20
-4.4515350393700786
11
7.0620000000000003
21
-4.4507874015748028
0
LINE
8
BLACK
6
CONTINUOUS
10
7.0620000000000003
20
-4.4507874015748028
11
7.070545669291338
21
-4.4515350393700786
0
LINE
8
BLACK
6
CONTINUOUS
10
5.46
20
-4.5099999999999998
11
5.3999999999999995
21
-4.5099999999999998
0
LINE
8
BLACK
6
CONTINUOUS
10
5.3999999999999995
20
-4.5099999999999998
11
5.3999999999999995
21
-4.4500000000000002
0
LINE
8
BLACK
6
CONTINUOUS
10
5.3999999999999995
20
-4.4500000000000002
11
5.46
21
-4.4500000000000002
0
LINE
8
BLACK
6
CONTINUOUS
10
5.46
20
-4.4500000000000002
11
5.46
21
-4.5099999999999998
0
LINE
8
BLACK
6
CONTINUOUS
10
5.5599999999999996
20
-4.5099999999999998
11
5.5
21
-4.5099999999999998
0
LINE
8
BLACK
6
CONTINUOUS
10
5.5
20
-4.5099999999999998
11
5.5
21
-4.4500000000000002
0
LINE
8
BLACK
6
CONTINUOUS
10
5.5
20
-4.4500000000000002
11
5.5599999999999996
21
-4.4500000000000002
0
LINE
8
BLACK
6
CONTINUOUS
10
5.5599999999999996
20
-4.4500000000000002
11
5.5599999999999996
21
-4.5099999999999998
0
LINE
8
BLACK
6
CONTINUOUS
10
6.9712293307086615
20
-4.3476578740157477
11
6.9801782283464568
21
-4.3500557086614169
0
LINE
8
BLACK
6
CONTINUOUS
10
6.9801782283464568
20
-4.3500557086614169
11
6.9885748031496062
21
-4.3539711023622045
0
LINE
8
BLACK
6
CONTINUOUS
10
6.9885748031496062
20
-4.3539711023622045
11
6.9961638976377953
21
-4.3592850393700786
0
LINE
8
BLACK
6
CONTINUOUS
10
6.9961638976377953
20
-4.3592850393700786
11
7.0027149606299215
21
-4.3658361023622048
0
LINE
8
BLACK
6
CONTINUOUS
10
7.0027149606299215
20
-4.3658361023622048
11
7.0080288976377947
21
-4.3734251968503939
0
LINE
8
BLACK
6
CONTINUOUS
10
7.0080288976377947
20
-4.3734251968503939
11
7.0119442913385823
21
-4.3818217716535433
0
LINE
8
BLACK
6
CONTINUOUS
10
7.0119442913385823
20
-4.3818217716535433
11
7.0143421259842516
21
-4.3907706692913386
0
LINE
8
BLACK
6
CONTINUOUS
10
7.0143421259842516
20
-4.3907706692913386
11
7.0151496062992127
21
-4.3999999999999995
0
LINE
8
BLACK
6
CONTINUOUS
10
7.0151496062992127
20
-4.3999999999999995
11
7.0143421259842516
21
-4.4092293307086612
0
LINE
8
BLACK
6
CONTINUOUS
10
7.0143421259842516
20
-4.4092293307086612
11
7.0119442913385823
21
-4.4181782283464566
0
LINE
8
BLACK
6
CONTINUOUS
10
7.0119442913385823
20
-4.4181782283464566
11
7.0080288976377947
21
-4.4265748031496059
0
LINE
8
BLACK
6
CONTINUOUS
10
7.0080288976377947
20
-4.4265748031496059
11
7.0027149606299215
21
-4.4341638976377951
0
LINE
8
BLACK
6
CONTINUOUS
10
7.0027149606299215
20
-4.4341638976377951
11
6.9961638976377953
21
-4.4407149606299212
0
LINE
8
BLACK
6
CONTINUOUS
10
6.9961638976377953
20
-4.4407149606299212
11
6.9885748031496062
21
-4.4460288976377953
0
LINE
8
BLACK
6
CONTINUOUS
10
6.9885748031496062
20
-4.4460288976377953
11
6.9801782283464568
21
-4.4499442913385829
0
LINE
8
BLACK
6
CONTINUOUS
10
6.9801782283464568
20
-4.4499442913385829
11
6.9712293307086615
21
-4.4523421259842522
0
LINE
8
BLACK
6
CONTINUOUS
10
6.9712293307086615
20
-4.4523421259842522
11
6.9619999999999997
21
-4.4531496062992124
0
LINE
8
BLACK
6
CONTINUOUS
10
6.9619999999999997
20
-4.4531496062992124
11
6.952770669291338
21
-4.4523421259842522
0
LINE
8
BLACK
6
CONTINUOUS
10
6.952770669291338
20
-4.4523421259842522
11
6.9438217716535435
21
-4.4499442913385829
0
LINE
8
BLACK
6
CONTINUOUS
10
6.9438217716535435
20
-4.4499442913385829
11
6.9354251968503933
21
-4.4460288976377953
0
LINE
8
BLACK
6
CONTINUOUS
10
6.9354251968503933
20
-4.4460288976377953
11
6.9278361023622042
21
-4.4407149606299212
0
LINE
8
BLACK
6
CONTINUOUS
10
6.9278361023622042
20
-4.4407149606299212
11
6.9212850393700789
21
-4.4341638976377951
0
LINE
8
BLACK
6
CONTINUOUS
10
6.9212850393700789
20
-4.4341638976377951
11
6.9159711023622048
21
-4.4265748031496059
0
LINE
8
BLACK
6
CONTINUOUS
10
6.9159711023622048
20
-4.4265748031496059
11
6.9120557086614172
21
-4.4181782283464566
0
LINE
8
BLACK
6
CONTINUOUS
10
6.9120557086614172
20
-4.4181782283464566
11
6.9096578740157479
21
-4.4092293307086612
0
LINE
8
BLACK
6
CONTINUOUS
10
6.9096578740157479
20
-4.4092293307086612
11
6.9088503937007877
21
-4.3999999999999995
0
LINE
8
BLACK
6
CONTINUOUS
10
6.9088503937007877
20
-4.3999999999999995
11
6.9096578740157479
21
-4.3907706692913386
0
LINE
8
BLACK
6
CONTINUOUS
10
6.9096578740157479
20
-4.3907706692913386
11
6.9120557086614172
21
-4.3818217716535433
0
LINE
8
BLACK
6
CONTINUOUS
10
6.9120557086614172
20
-4.3818217716535433
11
6.9159711023622048
21
-4.3734251968503939
0
LINE
8
BLACK
6
CONTINUOUS
10
6.9159711023622048
20
-4.3734251968503939
11
6.9212850393700789
21
-4.3658361023622048
0
LINE
8
BLACK
6
CONTINUOUS
10
6.9212850393700789
20
-4.3658361023622048
11
6.9278361023622042
21
-4.3592850393700786
0
LINE
8
BLACK
6
CONTINUOUS
10
6.9278361023622042
20
-4.3592850393700786
11
6.9354251968503933
21
-4.3539711023622045
0
LINE
8
BLACK
6
CONTINUOUS
10
6.9354251968503933
20
-4.3539711023622045
11
6.9438217716535435
21
-4.3500557086614169
0
LINE
8
BLACK
6
CONTINUOUS
10
6.9438217716535435
20
-4.3500557086614169
11
6.952770669291338
21
-4.3476578740157477
0
LINE
8
BLACK
6
CONTINUOUS
10
6.952770669291338
20
-4.3476578740157477
11
6.9619999999999997
21
-4.3468503937007874
0
LINE
8
BLACK
6
CONTINUOUS
10
6.9619999999999997
20
-4.3468503937007874
11
6.9712293307086615
21
-4.3476578740157477
0
LINE
8
BLACK
6
CONTINUOUS
10
7.1712293307086616
20
-4.3476578740157477
11
7.1801782283464561
21
-4.3500557086614169
0
LINE
8
BLACK
6
CONTINUOUS
10
7.1801782283464561
20
-4.3500557086614169
11
7.1885748031496064
21
-4.3539711023622045
0
LINE
8
BLACK
6
CONTINUOUS
10
7.1885748031496064
20
-4.3539711023622045
11
7.1961638976377955
21
-4.3592850393700786
0
LINE
8
BLACK
6
CONTINUOUS
10
7.1961638976377955
20
-4.3592850393700786
11
7.2027149606299208
21
-4.3658361023622048
0
LINE
8
BLACK
6
CONTINUOUS
10
7.2027149606299208
20
-4.3658361023622048
11
7.2080288976377949
21
-4.3734251968503939
0
LINE
8
BLACK
6
CONTINUOUS
10
7.2080288976377949
20
-4.3734251968503939
11
7.2119442913385825
21
-4.3818217716535433
0
LINE
8
BLACK
6
CONTINUOUS
10
7.2119442913385825
20
-4.3818217716535433
11
7.2143421259842517
21
-4.3907706692913386
0
LINE
8
BLACK
6
CONTINUOUS
10
7.2143421259842517
20
-4.3907706692913386
11
7.2151496062992129
21
-4.3999999999999995
0
LINE
8
BLACK
6
CONTINUOUS
10
7.2151496062992129
20
-4.3999999999999995
11
7.2143421259842517
21
-4.4092293307086612
0
LINE
8
BLACK
6
CONTINUOUS
10
7.2143421259842517
20
-4.4092293307086612
11
7.2119442913385825
21
-4.4181782283464566
0
LINE
8
BLACK
6
CONTINUOUS
10
7.2119442913385825
20
-4.4181782283464566
11
7.2080288976377949
21
-4.4265748031496059
0
LINE
8
BLACK
6
CONTINUOUS
10
7.2080288976377949
20
-4.4265748031496059
11
7.2027149606299208
21
-4.4341638976377951
0
LINE
8
BLACK
6
CONTINUOUS
10
7.2027149606299208
20
-4.4341638976377951
11
7.1961638976377955
21
-4.4407149606299212
0
LINE
8
BLACK
6
CONTINUOUS
10
7.1961638976377955
20
-4.4407149606299212
11
7.1885748031496064
21
-4.4460288976377953
0
LINE
8
BLACK
6
CONTINUOUS
10
7.1885748031496064
20
-4.4460288976377953
11
7.1801782283464561
21
-4.4499442913385829
0
LINE
8
BLACK
6
CONTINUOUS
10
7.1801782283464561
20
-4.4499442913385829
11
7.1712293307086616
21
-4.4523421259842522
0
LINE
8
BLACK
6
CONTINUOUS
10
7.1712293307086616
20
-4.4523421259842522
11
7.1619999999999999
21
-4.4531496062992124
0
LINE
8
BLACK
6
CONTINUOUS
10
7.1619999999999999
20
-4.4531496062992124
11
7.1527706692913382
21
-4.4523421259842522
0
LINE
8
BLACK
6
CONTINUOUS
10
7.1527706692913382
20
-4.4523421259842522
11
7.1438217716535428
21
-4.4499442913385829
0
LINE
8
BLACK
6
CONTINUOUS
10
7.1438217716535428
20
-4.4499442913385829
11
7.1354251968503934
21
-4.4460288976377953
0
LINE
8
BLACK
6
CONTINUOUS
10
7.1354251968503934
20
-4.4460288976377953
11
7.1278361023622043
21
-4.4407149606299212
0
LINE
8
BLACK
6
CONTINUOUS
10
7.1278361023622043
20
-4.4407149606299212
11
7.1212850393700782
21
-4.4341638976377951
0
LINE
8
BLACK
6
CONTINUOUS
10
7.1212850393700782
20
-4.4341638976377951
11
7.115971102362205
21
-4.4265748031496059
0
LINE
8
BLACK
6
CONTINUOUS
10
7.115971102362205
20
-4.4265748031496059
11
7.1120557086614173
21
-4.4181782283464566
0
LINE
8
BLACK
6
CONTINUOUS
10
7.1120557086614173
20
-4.4181782283464566
11
7.1096578740157481
21
-4.4092293307086612
0
LINE
8
BLACK
6
CONTINUOUS
10
7.1096578740157481
20
-4.4092293307086612
11
7.108850393700787
21
-4.3999999999999995
0
LINE
8
BLACK
6
CONTINUOUS
10
7.108850393700787
20
-4.3999999999999995
11
7.1096578740157481
21
-4.3907706692913386
0
LINE
8
BLACK
6
CONTINUOUS
10
7.1096578740157481
20
-4.3907706692913386
11
7.1120557086614173
21
-4.3818217716535433
0
LINE
8
BLACK
6
CONTINUOUS
10
7.1120557086614173
20
-4.3818217716535433
11
7.115971102362205
21
-4.3734251968503939
0
LINE
8
BLACK
6
CONTINUOUS
10
7.115971102362205
20
-4.3734251968503939
11
7.1212850393700782
21
-4.3658361023622048
0
LINE
8
BLACK
6
CONTINUOUS
10
7.1212850393700782
20
-4.3658361023622048
11
7.1278361023622043
21
-4.3592850393700786
0
LINE
8
BLACK
6
CONTINUOUS
10
7.1278361023622043
20
-4.3592850393700786
11
7.1354251968503934
21
-4.3539711023622045
0
LINE
8
BLACK
6
CONTINUOUS
10
7.1354251968503934
20
-4.3539711023622045
11
7.1438217716535428
21
-4.3500557086614169
0
LINE
8
BLACK
6
CONTINUOUS
10
7.1438217716535428
20
-4.3500557086614169
11
7.1527706692913382
21
-4.3476578740157477
0
LINE
8
BLACK
6
CONTINUOUS
10
7.1527706692913382
20
-4.3476578740157477
11
7.1619999999999999
21
-4.3468503937007874
0
LINE
8
BLACK
6
CONTINUOUS
10
7.1619999999999999
20
-4.3468503937007874
11
7.1712293307086616
21
-4.3476578740157477
0
LINE
8
BLACK
6
CONTINUOUS
10
5.520509645669291
20
-3.9836841338582678
11
5.5338744094488188
21
-3.9868516141732284
0
LINE
8
BLACK
6
CONTINUOUS
10
5.5338744094488188
20
-3.9868516141732284
11
5.5467810629921255
21
-3.9915492913385826
0
LINE
8
BLACK
6
CONTINUOUS
10
5.5467810629921255
20
-3.9915492913385826
11
5.5590551181102361
21
-3.9977135433070865
0
LINE
8
BLACK
6
CONTINUOUS
10
5.5590551181102361
20
-3.9977135433070865
11
5.5705305511811023
21
-4.0052610236220474
0
LINE
8
BLACK
6
CONTINUOUS
10
5.5705305511811023
20
-4.0052610236220474
11
5.5810521653543308
21
-4.0140897244094491
0
LINE
8
BLACK
6
CONTINUOUS
10
5.5810521653543308
20
-4.0140897244094491
11
5.5904776771653539
21
-4.0240801968503934
0
LINE
8
BLACK
6
CONTINUOUS
10
5.5904776771653539
20
-4.0240801968503934
11
5.5986796456692911
21
-4.0350973622047244
0
LINE
8
BLACK
6
CONTINUOUS
10
5.5986796456692911
20
-4.0350973622047244
11
5.6055471653543307
21
-4.0469922047244093
0
LINE
8
BLACK
6
CONTINUOUS
10
5.6055471653543307
20
-4.0469922047244093
11
5.6109873228346459
21
-4.059603937007874
0
LINE
8
BLACK
6
CONTINUOUS
10
5.6109873228346459
20
-4.059603937007874
11
5.6149265748031496
21
-4.0727618897637798
0
LINE
8
BLACK
6
CONTINUOUS
10
5.6149265748031496
20
-4.0727618897637798
11
5.6173116141732287
21
-4.086288228346457
0
LINE
8
BLACK
6
CONTINUOUS
10
5.6173116141732287
20
-4.086288228346457
11
5.6181102362204722
21
-4.0999999999999996
0
LINE
8
BLACK
6
CONTINUOUS
10
5.6181102362204722
20
-4.0999999999999996
11
5.6173116141732287
21
-4.1137117716535432
0
LINE
8
BLACK
6
CONTINUOUS
10
5.6173116141732287
20
-4.1137117716535432
11
5.6149265748031496
21
-4.1272381102362203
0
LINE
8
BLACK
6
CONTINUOUS
10
5.6149265748031496
20
-4.1272381102362203
11
5.6109873228346459
21
-4.1403960629921261
0
LINE
8
BLACK
6
CONTINUOUS
10
5.6109873228346459
20
-4.1403960629921261
11
5.6055471653543307
21
-4.1530077952755908
0
LINE
8
BLACK
6
CONTINUOUS
10
5.6055471653543307
20
-4.1530077952755908
11
5.5986796456692911
21
-4.1649026377952758
0
LINE
8
BLACK
6
CONTINUOUS
10
5.5986796456692911
20
-4.1649026377952758
11
5.5904776771653539
21
-4.1759198031496059
0
LINE
8
BLACK
6
CONTINUOUS
10
5.5904776771653539
20
-4.1759198031496059
11
5.5810521653543308
21
-4.1859102755905511
0
LINE
8
BLACK
6
CONTINUOUS
10
5.5810521653543308
20
-4.1859102755905511
11
5.5705305511811023
21
-4.1947389763779528
0
LINE
8
BLACK
6
CONTINUOUS
10
5.5705305511811023
20
-4.1947389763779528
11
5.5590551181102361
21
-4.2022864566929137
0
LINE
8
BLACK
6
CONTINUOUS
10
5.5590551181102361
20
-4.2022864566929137
11
5.5467810629921255
21
-4.2084507086614176
0
LINE
8
BLACK
6
CONTINUOUS
10
5.5467810629921255
20
-4.2084507086614176
11
5.5338744094488188
21
-4.2131483858267718
0
LINE
8
BLACK
6
CONTINUOUS
10
5.5338744094488188
20
-4.2131483858267718
11
5.520509645669291
21
-4.2163158661417324
0
LINE
8
BLACK
6
CONTINUOUS
10
5.520509645669291
20
-4.2163158661417324
11
5.5068674803149609
21
-4.2179103937007874
0
LINE
8
BLACK
6
CONTINUOUS
10
5.5068674803149609
20
-4.2179103937007874
11
5.4931325196850391
21
-4.2179103937007874
0
LINE
8
BLACK
6
CONTINUOUS
10
5.4931325196850391
20
-4.2179103937007874
11
5.479490354330709
21
-4.2163158661417324
0
LINE
8
BLACK
6
CONTINUOUS
10
5.479490354330709
20
-4.2163158661417324
11
5.4661255905511812
21
-4.2131483858267718
0
LINE
8
BLACK
6
CONTINUOUS
10
5.4661255905511812
20
-4.2131483858267718
11
5.4532189370078736
21
-4.2084507086614176
0
LINE
8
BLACK
6
CONTINUOUS
10
5.4532189370078736
20
-4.2084507086614176
11
5.4409448818897639
21
-4.2022864566929137
0
LINE
8
BLACK
6
CONTINUOUS
10
5.4409448818897639
20
-4.2022864566929137
11
5.4294694488188977
21
-4.1947389763779528
0
LINE
8
BLACK
6
CONTINUOUS
10
5.4294694488188977
20
-4.1947389763779528
11
5.4189478346456692
21
-4.1859102755905511
0
LINE
8
BLACK
6
CONTINUOUS
10
5.4189478346456692
20
-4.1859102755905511
11
5.4095223228346452
21
-4.1759198031496059
0
LINE
8
BLACK
6
CONTINUOUS
10
5.4095223228346452
20
-4.1759198031496059
11
5.4013203543307089
21
-4.1649026377952758
0
LINE
8
BLACK
6
CONTINUOUS
10
5.4013203543307089
20
-4.1649026377952758
11
5.3944528346456693
21
-4.1530077952755908
0
LINE
8
BLACK
6
CONTINUOUS
10
5.3944528346456693
20
-4.1530077952755908
11
5.3890126771653541
21
-4.1403960629921261
0
LINE
8
BLACK
6
CONTINUOUS
10
5.3890126771653541
20
-4.1403960629921261
11
5.3850734251968504
21
-4.1272381102362203
0
LINE
8
BLACK
6
CONTINUOUS
10
5.3850734251968504
20
-4.1272381102362203
11
5.3826883858267713
21
-4.1137117716535432
0
LINE
8
BLACK
6
CONTINUOUS
10
5.3826883858267713
20
-4.1137117716535432
11
5.3818897637795278
21
-4.0999999999999996
0
LINE
8
BLACK
6
CONTINUOUS
10
5.3818897637795278
20
-4.0999999999999996
11
5.3826883858267713
21
-4.086288228346457
0
LINE
8
BLACK
6
CONTINUOUS
10
5.3826883858267713
20
-4.086288228346457
11
5.3850734251968504
21
-4.0727618897637798
0
LINE
8
BLACK
6
CONTINUOUS
10
5.3850734251968504
20
-4.0727618897637798
11
5.3890126771653541
21
-4.059603937007874
0
LINE
8
BLACK
6
CONTINUOUS
10
5.3890126771653541
20
-4.059603937007874
11
5.3944528346456693
21
-4.0469922047244093
0
LINE
8
BLACK
6
CONTINUOUS
10
5.3944528346456693
20
-4.0469922047244093
11
5.4013203543307089
21
-4.0350973622047244
0
LINE
8
BLACK
6
CONTINUOUS
10
5.4013203543307089
20
-4.0350973622047244
11
5.4095223228346452
21
-4.0240801968503934
0
LINE
8
BLACK
6
CONTINUOUS
10
5.4095223228346452
20
-4.0240801968503934
11
5.4189478346456692
21
-4.0140897244094491
0
LINE
8
BLACK
6
CONTINUOUS
10
5.4189478346456692
20
-4.0140897244094491
11
5.4294694488188977
21
-4.0052610236220474
0
LINE
8
BLACK
6
CONTINUOUS
10
5.4294694488188977
20
-4.0052610236220474
11
5.4409448818897639
21
-3.9977135433070865
0
LINE
8
BLACK
6
CONTINUOUS
10
5.4409448818897639
20
-3.9977135433070865
11
5.4532189370078736
21
-3.9915492913385826
0
LINE
8
BLACK
6
CONTINUOUS
10
5.4532189370078736
20
-3.9915492913385826
11
5.4661255905511812
21
-3.9868516141732284
0
LINE
8
BLACK
6
CONTINUOUS
10
5.4661255905511812
20
-3.9868516141732284
11
5.479490354330709
21
-3.9836841338582678
0
LINE
8
BLACK
6
CONTINUOUS
10
5.479490354330709
20
-3.9836841338582678
11
5.4931325196850391
21
-3.9820896062992124
0
LINE
8
BLACK
6
CONTINUOUS
10
5.4931325196850391
20
-3.9820896062992124
11
5.5068674803149609
21
-3.9820896062992124
0
LINE
8
BLACK
6
CONTINUOUS
10
5.5068674803149609
20
-3.9820896062992124
11
5.520509645669291
21
-3.9836841338582678
0
LINE
8
BLACK
6
CONTINUOUS
10
7.1205096456692916
20
-3.9836841338582678
11
7.1338744094488185
21
-3.9868516141732284
0
LINE
8
BLACK
6
CONTINUOUS
10
7.1338744094488185
20
-3.9868516141732284
11
7.146781062992126
21
-3.9915492913385826
0
LINE
8
BLACK
6
CONTINUOUS
10
7.146781062992126
20
-3.9915492913385826
11
7.1590551181102358
21
-3.9977135433070865
0
LINE
8
BLACK
6
CONTINUOUS
10
7.1590551181102358
20
-3.9977135433070865
11
7.1705305511811019
21
-4.0052610236220474
0
LINE
8
BLACK
6
CONTINUOUS
10
7.1705305511811019
20
-4.0052610236220474
11
7.1810521653543304
21
-4.0140897244094491
0
LINE
8
BLACK
6
CONTINUOUS
10
7.1810521653543304
20
-4.0140897244094491
11
7.1904776771653545
21
-4.0240801968503934
0
LINE
8
BLACK
6
CONTINUOUS
10
7.1904776771653545
20
-4.0240801968503934
11
7.1986796456692907
21
-4.0350973622047244
0
LINE
8
BLACK
6
CONTINUOUS
10
7.1986796456692907
20
-4.0350973622047244
11
7.2055471653543304
21
-4.0469922047244093
0
LINE
8
BLACK
6
CONTINUOUS
10
7.2055471653543304
20
-4.0469922047244093
11
7.2109873228346455
21
-4.059603937007874
0
LINE
8
BLACK
6
CONTINUOUS
10
7.2109873228346455
20
-4.059603937007874
11
7.2149265748031493
21
-4.0727618897637798
0
LINE
8
BLACK
6
CONTINUOUS
10
7.2149265748031493
20
-4.0727618897637798
11
7.2173116141732283
21
-4.086288228346457
0
LINE
8
BLACK
6
CONTINUOUS
10
7.2173116141732283
20
-4.086288228346457
11
7.2181102362204719
21
-4.0999999999999996
0
LINE
8
BLACK
6
CONTINUOUS
10
7.2181102362204719
20
-4.0999999999999996
11
7.2173116141732283
21
-4.1137117716535432
0
LINE
8
BLACK
6
CONTINUOUS
10
7.2173116141732283
20
-4.1137117716535432
11
7.2149265748031493
21
-4.1272381102362203
0
LINE
8
BLACK
6
CONTINUOUS
10
7.2149265748031493
20
-4.1272381102362203
11
7.2109873228346455
21
-4.1403960629921261
0
LINE
8
BLACK
6
CONTINUOUS
10
7.2109873228346455
20
-4.1403960629921261
11
7.2055471653543304
21
-4.1530077952755908
0
LINE
8
BLACK
6
CONTINUOUS
10
7.2055471653543304
20
-4.1530077952755908
11
7.1986796456692907
21
-4.1649026377952758
0
LINE
8
BLACK
6
CONTINUOUS
10
7.1986796456692907
20
-4.1649026377952758
11
7.1904776771653545
21
-4.1759198031496059
0
LINE
8
BLACK
6
CONTINUOUS
10
7.1904776771653545
20
-4.1759198031496059
11
7.1810521653543304
21
-4.1859102755905511
0
LINE
8
BLACK
6
CONTINUOUS
10
7.1810521653543304
20
-4.1859102755905511
11
7.1705305511811019
21
-4.1947389763779528
0
LINE
8
BLACK
6
CONTINUOUS
10
7.1705305511811019
20
-4.1947389763779528
11
7.1590551181102358
21
-4.2022864566929137
0
LINE
8
BLACK
6
CONTINUOUS
10
7.1590551181102358
20
-4.2022864566929137
11
7.146781062992126
21
-4.2084507086614176
0
LINE
8
BLACK
6
CONTINUOUS
10
7.146781062992126
20
-4.2084507086614176
11
7.1338744094488185
21
-4.2131483858267718
0
LINE
8
BLACK
6
CONTINUOUS
10
7.1338744094488185
20
-4.2131483858267718
11
7.1205096456692916
21
-4.2163158661417324
0
LINE
8
BLACK
6
CONTINUOUS
10
7.1205096456692916
20
-4.2163158661417324
11
7.1068674803149605
21
-4.2179103937007874
0
LINE
8
BLACK
6
CONTINUOUS
10
7.1068674803149605
20
-4.2179103937007874
11
7.0931325196850388
21
-4.2179103937007874
0
LINE
8
BLACK
6
CONTINUOUS
10
7.0931325196850388
20
-4.2179103937007874
11
7.0794903543307086
21
-4.2163158661417324
0
LINE
8
BLACK
6
CONTINUOUS
10
7.0794903543307086
20
-4.2163158661417324
11
7.0661255905511808
21
-4.2131483858267718
0
LINE
8
BLACK
6
CONTINUOUS
10
7.0661255905511808
20
-4.2131483858267718
11
7.0532189370078742
21
-4.2084507086614176
0
LINE
8
BLACK
6
CONTINUOUS
10
7.0532189370078742
20
-4.2084507086614176
11
7.0409448818897635
21
-4.2022864566929137
0
LINE
8
BLACK
6
CONTINUOUS
10
7.0409448818897635
20
-4.2022864566929137
11
7.0294694488188973
21
-4.1947389763779528
0
LINE
8
BLACK
6
CONTINUOUS
10
7.0294694488188973
20
-4.1947389763779528
11
7.0189478346456688
21
-4.1859102755905511
0
LINE
8
BLACK
6
CONTINUOUS
10
7.0189478346456688
20
-4.1859102755905511
11
7.0095223228346457
21
-4.1759198031496059
0
LINE
8
BLACK
6
CONTINUOUS
10
7.0095223228346457
20
-4.1759198031496059
11
7.0013203543307085
21
-4.1649026377952758
0
LINE
8
BLACK
6
CONTINUOUS
10
7.0013203543307085
20
-4.1649026377952758
11
6.9944528346456689
21
-4.1530077952755908
0
LINE
8
BLACK
6
CONTINUOUS
10
6.9944528346456689
20
-4.1530077952755908
11
6.9890126771653538
21
-4.1403960629921261
0
LINE
8
BLACK
6
CONTINUOUS
10
6.9890126771653538
20
-4.1403960629921261
11
6.98507342519685
21
-4.1272381102362203
0
LINE
8
BLACK
6
CONTINUOUS
10
6.98507342519685
20
-4.1272381102362203
11
6.9826883858267719
21
-4.1137117716535432
0
LINE
8
BLACK
6
CONTINUOUS
10
6.9826883858267719
20
-4.1137117716535432
11
6.9818897637795274
21
-4.0999999999999996
0
LINE
8
BLACK
6
CONTINUOUS
10
6.9818897637795274
20
-4.0999999999999996
11
6.9826883858267719
21
-4.086288228346457
0
LINE
8
BLACK
6
CONTINUOUS
10
6.9826883858267719
20
-4.086288228346457
11
6.98507342519685
21
-4.0727618897637798
0
LINE
8
BLACK
6
CONTINUOUS
10
6.98507342519685
20
-4.0727618897637798
11
6.9890126771653538
21
-4.059603937007874
0
LINE
8
BLACK
6
CONTINUOUS
10
6.9890126771653538
20
-4.059603937007874
11
6.9944528346456689
21
-4.0469922047244093
0
LINE
8
BLACK
6
CONTINUOUS
10
6.9944528346456689
20
-4.0469922047244093
11
7.0013203543307085
21
-4.0350973622047244
0
LINE
8
BLACK
6
CONTINUOUS
10
7.0013203543307085
20
-4.0350973622047244
11
7.0095223228346457
21
-4.0240801968503934
0
LINE
8
BLACK
6
CONTINUOUS
10
7.0095223228346457
20
-4.0240801968503934
11
7.0189478346456688
21
-4.0140897244094491
0
LINE
8
BLACK
6
CONTINUOUS
10
7.0189478346456688
20
-4.0140897244094491
11
7.0294694488188973
21
-4.0052610236220474
0
LINE
8
BLACK
6
CONTINUOUS
10
7.0294694488188973
20
-4.0052610236220474
11
7.0409448818897635
21
-3.9977135433070865
0
LINE
8
BLACK
6
CONTINUOUS
10
7.0409448818897635
20
-3.9977135433070865
11
7.0532189370078742
21
-3.9915492913385826
0
LINE
8
BLACK
6
CONTINUOUS
10
7.0532189370078742
20
-3.9915492913385826
11
7.0661255905511808
21
-3.9868516141732284
0
LINE
8
BLACK
6
CONTINUOUS
10
7.0661255905511808
20
-3.9868516141732284
11
7.0794903543307086
21
-3.9836841338582678
0
LINE
8
BLACK
6
CONTINUOUS
10
7.0794903543307086
20
-3.9836841338582678
11
7.0931325196850388
21
-3.9820896062992124
0
LINE
8
BLACK
6
CONTINUOUS
10
7.0931325196850388
20
-3.9820896062992124
11
7.1068674803149605
21
-3.9820896062992124
0
LINE
8
BLACK
6
CONTINUOUS
10
7.1068674803149605
20
-3.9820896062992124
11
7.1205096456692916
21
-3.9836841338582678
0
LINE
8
BLACK
6
CONTINUOUS
10
5.75
20
-4.1799999999999997
11
5.6899999999999995
21
-4.1799999999999997
0
LINE
8
BLACK
6
CONTINUOUS
10
5.6899999999999995
20
-4.1799999999999997
11
5.6899999999999995
21
-4.1200000000000001
0
LINE
8
BLACK
6
CONTINUOUS
10
5.6899999999999995
20
-4.1200000000000001
11
5.75
21
-4.1200000000000001
0
LINE
8
BLACK
6
CONTINUOUS
10
5.75
20
-4.1200000000000001
11
5.75
21
-4.1799999999999997
0
LINE
8
BLACK
6
CONTINUOUS
10
5.8499999999999996
20
-4.1799999999999997
11
5.79
21
-4.1799999999999997
0
LINE
8
BLACK
6
CONTINUOUS
10
5.79
20
-4.1799999999999997
11
5.79
21
-4.1200000000000001
0
LINE
8
BLACK
6
CONTINUOUS
10
5.79
20
-4.1200000000000001
11
5.8499999999999996
21
-4.1200000000000001
0
LINE
8
BLACK
6
CONTINUOUS
10
5.8499999999999996
20
-4.1200000000000001
11
5.8499999999999996
21
-4.1799999999999997
0
LINE
8
BLACK
6
CONTINUOUS
10
5.9500000000000002
20
-4.1799999999999997
11
5.8899999999999997
21
-4.1799999999999997
0
LINE
8
BLACK
6
CONTINUOUS
10
5.8899999999999997
20
-4.1799999999999997
11
5.8899999999999997
21
-4.1200000000000001
0
LINE
8
BLACK
6
CONTINUOUS
10
5.8899999999999997
20
-4.1200000000000001
11
5.9500000000000002
21
-4.1200000000000001
0
LINE
8
BLACK
6
CONTINUOUS
10
5.9500000000000002
20
-4.1200000000000001
11
5.9500000000000002
21
-4.1799999999999997
0
LINE
8
BLACK
6
CONTINUOUS
10
6.0692125984251968
20
-4.1799999999999997
11
6.0092125984251963
21
-4.1799999999999997
0
LINE
8
BLACK
6
CONTINUOUS
10
6.0092125984251963
20
-4.1799999999999997
11
6.0092125984251963
21
-4.1200000000000001
0
LINE
8
BLACK
6
CONTINUOUS
10
6.0092125984251963
20
-4.1200000000000001
11
6.0692125984251968
21
-4.1200000000000001
0
LINE
8
BLACK
6
CONTINUOUS
10
6.0692125984251968
20
-4.1200000000000001
11
6.0692125984251968
21
-4.1799999999999997
0
LINE
8
BLACK
6
CONTINUOUS
10
6.1696062992125986
20
-4.1799999999999997
11
6.1096062992125981
21
-4.1799999999999997
0
LINE
8
BLACK
6
CONTINUOUS
10
6.1096062992125981
20
-4.1799999999999997
11
6.1096062992125981
21
-4.1200000000000001
0
LINE
8
BLACK
6
CONTINUOUS
10
6.1096062992125981
20
-4.1200000000000001
11
6.1696062992125986
21
-4.1200000000000001
0
LINE
8
BLACK
6
CONTINUOUS
10
6.1696062992125986
20
-4.1200000000000001
11
6.1696062992125986
21
-4.1799999999999997
0
LINE
8
BLACK
6
CONTINUOUS
10
6.2699999999999996
20
-4.1799999999999997
11
6.21
21
-4.1799999999999997
0
LINE
8
BLACK
6
CONTINUOUS
10
6.21
20
-4.1799999999999997
11
6.21
21
-4.1200000000000001
0
LINE
8
BLACK
6
CONTINUOUS
10
6.21
20
-4.1200000000000001
11
6.2699999999999996
21
-4.1200000000000001
0
LINE
8
BLACK
6
CONTINUOUS
10
6.2699999999999996
20
-4.1200000000000001
11
6.2699999999999996
21
-4.1799999999999997
0
LINE
8
BLACK
6
CONTINUOUS
10
6.3703937007874014
20
-4.1799999999999997
11
6.3103937007874018
21
-4.1799999999999997
0
LINE
8
BLACK
6
CONTINUOUS
10
6.3103937007874018
20
-4.1799999999999997
11
6.3103937007874018
21
-4.1200000000000001
0
LINE
8
BLACK
6
CONTINUOUS
10
6.3103937007874018
20
-4.1200000000000001
11
6.3703937007874014
21
-4.1200000000000001
0
LINE
8
BLACK
6
CONTINUOUS
10
6.3703937007874014
20
-4.1200000000000001
11
6.3703937007874014
21
-4.1799999999999997
0
LINE
8
BLACK
6
CONTINUOUS
10
6.4707874015748033
20
-4.1799999999999997
11
6.4107874015748028
21
-4.1799999999999997
0
LINE
8
BLACK
6
CONTINUOUS
10
6.4107874015748028
20
-4.1799999999999997
11
6.4107874015748028
21
-4.1200000000000001
0
LINE
8
BLACK
6
CONTINUOUS
10
6.4107874015748028
20
-4.1200000000000001
11
6.4707874015748033
21
-4.1200000000000001
0
LINE
8
BLACK
6
CONTINUOUS
10
6.4707874015748033
20
-4.1200000000000001
11
6.4707874015748033
21
-4.1799999999999997
0
LINE
8
BLACK
6
CONTINUOUS
10
6.6088188976377955
20
-4.1799999999999997
11
6.548818897637795
21
-4.1799999999999997
0
LINE
8
BLACK
6
CONTINUOUS
10
6.548818897637795
20
-4.1799999999999997
11
6.548818897637795
21
-4.1200000000000001
0
LINE
8
BLACK
6
CONTINUOUS
10
6.548818897637795
20
-4.1200000000000001
11
6.6088188976377955
21
-4.1200000000000001
0
LINE
8
BLACK
6
CONTINUOUS
10
6.6088188976377955
20
-4.1200000000000001
11
6.6088188976377955
21
-4.1799999999999997
0
LINE
8
BLACK
6
CONTINUOUS
10
6.7092125984251965
20
-4.1799999999999997
11
6.6492125984251969
21
-4.1799999999999997
0
LINE
8
BLACK
6
CONTINUOUS
10
6.6492125984251969
20
-4.1799999999999997
11
6.6492125984251969
21
-4.1200000000000001
0
LINE
8
BLACK
6
CONTINUOUS
10
6.6492125984251969
20
-4.1200000000000001
11
6.7092125984251965
21
-4.1200000000000001
0
LINE
8
BLACK
6
CONTINUOUS
10
6.7092125984251965
20
-4.1200000000000001
11
6.7092125984251965
21
-4.1799999999999997
0
LINE
8
BLACK
6
CONTINUOUS
10
6.8096062992125983
20
-4.1799999999999997
11
6.7496062992125987
21
-4.1799999999999997
0
LINE
8
BLACK
6
CONTINUOUS
10
6.7496062992125987
20
-4.1799999999999997
11
6.7496062992125987
21
-4.1200000000000001
0
LINE
8
BLACK
6
CONTINUOUS
10
6.7496062992125987
20
-4.1200000000000001
11
6.8096062992125983
21
-4.1200000000000001
0
LINE
8
BLACK
6
CONTINUOUS
10
6.8096062992125983
20
-4.1200000000000001
11
6.8096062992125983
21
-4.1799999999999997
0
LINE
8
BLACK
6
CONTINUOUS
10
6.9100000000000001
20
-4.1799999999999997
11
6.8499999999999996
21
-4.1799999999999997
0
LINE
8
BLACK
6
CONTINUOUS
10
6.8499999999999996
20
-4.1799999999999997
11
6.8499999999999996
21
-4.1200000000000001
0
LINE
8
BLACK
6
CONTINUOUS
10
6.8499999999999996
20
-4.1200000000000001
11
6.9100000000000001
21
-4.1200000000000001
0
LINE
8
BLACK
6
CONTINUOUS
10
6.9100000000000001
20
-4.1200000000000001
11
6.9100000000000001
21
-4.1799999999999997
0
LINE
8
BLACK
6
CONTINUOUS
10
5.75
20
-4.0800000000000001
11
5.6899999999999995
21
-4.0800000000000001
0
LINE
8
BLACK
6
CONTINUOUS
10
5.6899999999999995
20
-4.0800000000000001
11
5.6899999999999995
21
-4.0199999999999996
0
LINE
8
BLACK
6
CONTINUOUS
10
5.6899999999999995
20
-4.0199999999999996
11
5.75
21
-4.0199999999999996
0
LINE
8
BLACK
6
CONTINUOUS
10
5.75
20
-4.0199999999999996
11
5.75
21
-4.0800000000000001
0
LINE
8
BLACK
6
CONTINUOUS
10
5.8499999999999996
20
-4.0800000000000001
11
5.79
21
-4.0800000000000001
0
LINE
8
BLACK
6
CONTINUOUS
10
5.79
20
-4.0800000000000001
11
5.79
21
-4.0199999999999996
0
LINE
8
BLACK
6
CONTINUOUS
10
5.79
20
-4.0199999999999996
11
5.8499999999999996
21
-4.0199999999999996
0
LINE
8
BLACK
6
CONTINUOUS
10
5.8499999999999996
20
-4.0199999999999996
11
5.8499999999999996
21
-4.0800000000000001
0
LINE
8
BLACK
6
CONTINUOUS
10
5.9500000000000002
20
-4.0800000000000001
11
5.8899999999999997
21
-4.0800000000000001
0
LINE
8
BLACK
6
CONTINUOUS
10
5.8899999999999997
20
-4.0800000000000001
11
5.8899999999999997
21
-4.0199999999999996
0
LINE
8
BLACK
6
CONTINUOUS
10
5.8899999999999997
20
-4.0199999999999996
11
5.9500000000000002
21
-4.0199999999999996
0
LINE
8
BLACK
6
CONTINUOUS
10
5.9500000000000002
20
-4.0199999999999996
11
5.9500000000000002
21
-4.0800000000000001
0
LINE
8
BLACK
6
CONTINUOUS
10
6.0692125984251968
20
-4.0800000000000001
11
6.0092125984251963
21
-4.0800000000000001
0
LINE
8
BLACK
6
CONTINUOUS
10
6.0092125984251963
20
-4.0800000000000001
11
6.0092125984251963
21
-4.0199999999999996
0
LINE
8
BLACK
6
CONTINUOUS
10
6.0092125984251963
20
-4.0199999999999996
11
6.0692125984251968
21
-4.0199999999999996
0
LINE
8
BLACK
6
CONTINUOUS
10
6.0692125984251968
20
-4.0199999999999996
11
6.0692125984251968
21
-4.0800000000000001
0
LINE
8
BLACK
6
CONTINUOUS
10
6.1696062992125986
20
-4.0800000000000001
11
6.1096062992125981
21
-4.0800000000000001
0
LINE
8
BLACK
6
CONTINUOUS
10
6.1096062992125981
20
-4.0800000000000001
11
6.1096062992125981
21
-4.0199999999999996
0
LINE
8
BLACK
6
CONTINUOUS
10
6.1096062992125981
20
-4.0199999999999996
11
6.1696062992125986
21
-4.0199999999999996
0
LINE
8
BLACK
6
CONTINUOUS
10
6.1696062992125986
20
-4.0199999999999996
11
6.1696062992125986
21
-4.0800000000000001
0
LINE
8
BLACK
6
CONTINUOUS
10
6.2699999999999996
20
-4.0800000000000001
11
6.21
21
-4.0800000000000001
0
LINE
8
BLACK
6
CONTINUOUS
10
6.21
20
-4.0800000000000001
11
6.21
21
-4.0199999999999996
0
LINE
8
BLACK
6
CONTINUOUS
10
6.21
20
-4.0199999999999996
11
6.2699999999999996
21
-4.0199999999999996
0
LINE
8
BLACK
6
CONTINUOUS
10
6.2699999999999996
20
-4.0199999999999996
11
6.2699999999999996
21
-4.0800000000000001
0
LINE
8
BLACK
6
CONTINUOUS
10
6.3703937007874014
20
-4.0800000000000001
11
6.3103937007874018
21
-4.0800000000000001
0
LINE
8
BLACK
6
CONTINUOUS
10
6.3103937007874018
20
-4.0800000000000001
11
6.3103937007874018
21
-4.0199999999999996
0
LINE
8
BLACK
6
CONTINUOUS
10
6.3103937007874018
20
-4.0199999999999996
11
6.3703937007874014
21
-4.0199999999999996
0
LINE
8
BLACK
6
CONTINUOUS
10
6.3703937007874014
20
-4.0199999999999996
11
6.3703937007874014
21
-4.0800000000000001
0
LINE
8
BLACK
6
CONTINUOUS
10
6.4707874015748033
20
-4.0800000000000001
11
6.4107874015748028
21
-4.0800000000000001
0
LINE
8
BLACK
6
CONTINUOUS
10
6.4107874015748028
20
-4.0800000000000001
11
6.4107874015748028
21
-4.0199999999999996
0
LINE
8
BLACK
6
CONTINUOUS
10
6.4107874015748028
20
-4.0199999999999996
11
6.4707874015748033
21
-4.0199999999999996
0
LINE
8
BLACK
6
CONTINUOUS
10
6.4707874015748033
20
-4.0199999999999996
11
6.4707874015748033
21
-4.0800000000000001
0
LINE
8
BLACK
6
CONTINUOUS
10
6.6088188976377955
20
-4.0800000000000001
11
6.548818897637795
21
-4.0800000000000001
0
LINE
8
BLACK
6
CONTINUOUS
10
6.548818897637795
20
-4.0800000000000001
11
6.548818897637795
21
-4.0199999999999996
0
LINE
8
BLACK
6
CONTINUOUS
10
6.548818897637795
20
-4.0199999999999996
11
6.6088188976377955
21
-4.0199999999999996
0
LINE
8
BLACK
6
CONTINUOUS
10
6.6088188976377955
20
-4.0199999999999996
11
6.6088188976377955
21
-4.0800000000000001
0
LINE
8
BLACK
6
CONTINUOUS
10
6.7092125984251965
20
-4.0800000000000001
11
6.6492125984251969
21
-4.0800000000000001
0
LINE
8
BLACK
6
CONTINUOUS
10
6.6492125984251969
20
-4.0800000000000001
11
6.6492125984251969
21
-4.0199999999999996
0
LINE
8
BLACK
6
CONTINUOUS
10
6.6492125984251969
20
-4.0199999999999996
11
6.7092125984251965
21
-4.0199999999999996
0
LINE
8
BLACK
6
CONTINUOUS
10
6.7092125984251965
20
-4.0199999999999996
11
6.7092125984251965
21
-4.0800000000000001
0
LINE
8
BLACK
6
CONTINUOUS
10
6.8096062992125983
20
-4.0800000000000001
11
6.7496062992125987
21
-4.0800000000000001
0
LINE
8
BLACK
6
CONTINUOUS
10
6.7496062992125987
20
-4.0800000000000001
11
6.7496062992125987
21
-4.0199999999999996
0
LINE
8
BLACK
6
CONTINUOUS
10
6.7496062992125987
20
-4.0199999999999996
11
6.8096062992125983
21
-4.0199999999999996
0
LINE
8
BLACK
6
CONTINUOUS
10
6.8096062992125983
20
-4.0199999999999996
11
6.8096062992125983
21
-4.0800000000000001
0
LINE
8
BLACK
6
CONTINUOUS
10
6.9100000000000001
20
-4.0800000000000001
11
6.8499999999999996
21
-4.0800000000000001
0
LINE
8
BLACK
6
CONTINUOUS
10
6.8499999999999996
20
-4.0800000000000001
11
6.8499999999999996
21
-4.0199999999999996
0
LINE
8
BLACK
6
CONTINUOUS
10
6.8499999999999996
20
-4.0199999999999996
11
6.9100000000000001
21
-4.0199999999999996
0
LINE
8
BLACK
6
CONTINUOUS
10
6.9100000000000001
20
-4.0199999999999996
11
6.9100000000000001
21
-4.0800000000000001
  0
ENDSEC
  0
EOF
