  0
SECTION
  2
HEADER
  9
$ANGBASE
  50
0.0
  9
$ANGDIR
  70
1
  9
$MEASUREMENT
  70
0
  0
ENDSEC
  0
SECTION
  2
TABLES
  0
TABLE
  2
LTYPE
  70
4
  0
LTYPE
  5
40F
  2
CONTINUOUS
  70
0
  3
Solid line
  72
65
  73
0
  40
0.0
  0
LTYPE
  5
410
  2
DASHDOT
 70
0
  3
Dash Dot ____ _ ____ _
 72
65
 73
4
 40
2.0
 49
1.25
 49
-0.25
 49
0.25
 49
-0.25
  0
LTYPE
  5
411
  2
DASHED
 70
0
  3
Dashed __ __ __ __ __
 72
65
 73
2
 40
0.75
 49
0.5
 49
-0.25
  0
LTYPE
  5
43B
  2
DOTTED
 70
0
  3
Dotted .  .  .  .
 72
65
 73
2
 40
0.2
 49
0.0
 49
-0.2
  0
ENDTAB
  0
TABLE
  2
STYLE
  70
4
  0
STYLE
  2
KICAD
  70
0
  40
0
  41
1
  42
1
  50
0
  71
0
  3
isocp.shx
  0
STYLE
  2
KICADB
  70
0
  40
0
  41
1
  42
1
  50
0
  71
0
  3
isocp.shx
  0
STYLE
  2
KICADI
  70
0
  40
0
  41
1
  42
1
  50
15
  71
0
  3
isocp.shx
  0
STYLE
  2
KICADBI
  70
0
  40
0
  41
1
  42
1
  50
15
  71
0
  3
isocp.shx
  0
ENDTAB
  0
TABLE
  2
LAYER
  70
1
  0
LAYER
  2
BLACK
  70
0
  62
7
  6
CONTINUOUS
  0
ENDTAB
  0
ENDSEC
  0
SECTION
  2
ENTITIES
0
LINE
8
BLACK
6
CONTINUOUS
10
5.5805760629921259
20
-4.4271039763779525
11
5.5816404724409452
21
-4.427544881889764
0
LINE
8
BLACK
6
CONTINUOUS
10
5.5816404724409452
20
-4.427544881889764
11
5.5824551181102358
21
-4.4283595275590546
0
LINE
8
BLACK
6
CONTINUOUS
10
5.5824551181102358
20
-4.4283595275590546
11
5.5828960236220473
21
-4.4294239370078738
0
LINE
8
BLACK
6
CONTINUOUS
10
5.5828960236220473
20
-4.4294239370078738
11
5.5829527559055121
21
-4.4299999999999997
0
LINE
8
BLACK
6
CONTINUOUS
10
5.5829527559055121
20
-4.4299999999999997
11
5.5829527559055121
21
-4.5300000000000002
0
LINE
8
BLACK
6
CONTINUOUS
10
5.5829527559055121
20
-4.5300000000000002
11
5.5829527559055121
21
-4.6299999999999999
0
LINE
8
BLACK
6
CONTINUOUS
10
5.5829527559055121
20
-4.6299999999999999
11
5.5829527559055121
21
-4.7299999999999995
0
LINE
8
BLACK
6
CONTINUOUS
10
5.5829527559055121
20
-4.7299999999999995
11
5.5828960236220473
21
-4.7305760629921263
0
LINE
8
BLACK
6
CONTINUOUS
10
5.5828960236220473
20
-4.7305760629921263
11
5.5824551181102358
21
-4.7316404724409447
0
LINE
8
BLACK
6
CONTINUOUS
10
5.5824551181102358
20
-4.7316404724409447
11
5.5816404724409452
21
-4.7324551181102361
0
LINE
8
BLACK
6
CONTINUOUS
10
5.5816404724409452
20
-4.7324551181102361
11
5.5805760629921259
21
-4.7328960236220468
0
LINE
8
BLACK
6
CONTINUOUS
10
5.5805760629921259
20
-4.7328960236220468
11
5.5800000000000001
21
-4.7329527559055116
0
LINE
8
BLACK
6
CONTINUOUS
10
5.5800000000000001
20
-4.7329527559055116
11
5.3799999999999999
21
-4.7329527559055116
0
LINE
8
BLACK
6
CONTINUOUS
10
5.3799999999999999
20
-4.7329527559055116
11
5.379423937007874
21
-4.7328960236220468
0
LINE
8
BLACK
6
CONTINUOUS
10
5.379423937007874
20
-4.7328960236220468
11
5.3783595275590548
21
-4.7324551181102361
0
LINE
8
BLACK
6
CONTINUOUS
10
5.3783595275590548
20
-4.7324551181102361
11
5.3775448818897633
21
-4.7316404724409447
0
LINE
8
BLACK
6
CONTINUOUS
10
5.3775448818897633
20
-4.7316404724409447
11
5.3771039763779527
21
-4.7305760629921263
0
LINE
8
BLACK
6
CONTINUOUS
10
5.3771039763779527
20
-4.7305760629921263
11
5.3770472440944879
21
-4.7299999999999995
0
LINE
8
BLACK
6
CONTINUOUS
10
5.3770472440944879
20
-4.7299999999999995
11
5.3770472440944879
21
-4.6299999999999999
0
LINE
8
BLACK
6
CONTINUOUS
10
5.3770472440944879
20
-4.6299999999999999
11
5.3770472440944879
21
-4.5300000000000002
0
LINE
8
BLACK
6
CONTINUOUS
10
5.3770472440944879
20
-4.5300000000000002
11
5.3770472440944879
21
-4.4299999999999997
0
LINE
8
BLACK
6
CONTINUOUS
10
5.3770472440944879
20
-4.4299999999999997
11
5.3771039763779527
21
-4.4294239370078738
0
LINE
8
BLACK
6
CONTINUOUS
10
5.3771039763779527
20
-4.4294239370078738
11
5.3775448818897633
21
-4.4283595275590546
0
LINE
8
BLACK
6
CONTINUOUS
10
5.3775448818897633
20
-4.4283595275590546
11
5.3783595275590548
21
-4.427544881889764
0
LINE
8
BLACK
6
CONTINUOUS
10
5.3783595275590548
20
-4.427544881889764
11
5.379423937007874
21
-4.4271039763779525
0
LINE
8
BLACK
6
CONTINUOUS
10
5.379423937007874
20
-4.4271039763779525
11
5.3799999999999999
21
-4.4270472440944877
0
LINE
8
BLACK
6
CONTINUOUS
10
5.3799999999999999
20
-4.4270472440944877
11
5.5800000000000001
21
-4.4270472440944877
0
LINE
8
BLACK
6
CONTINUOUS
10
5.5800000000000001
20
-4.4270472440944877
11
5.5805760629921259
21
-4.4271039763779525
0
LINE
8
BLACK
6
CONTINUOUS
10
5.3829527559055119
20
-4.6329527559055119
11
5.3829527559055119
21
-4.7270472440944884
0
LINE
8
BLACK
6
CONTINUOUS
10
5.3829527559055119
20
-4.7270472440944884
11
5.577047244094488
21
-4.7270472440944884
0
LINE
8
BLACK
6
CONTINUOUS
10
5.577047244094488
20
-4.7270472440944884
11
5.577047244094488
21
-4.6329527559055119
0
LINE
8
BLACK
6
CONTINUOUS
10
5.577047244094488
20
-4.6329527559055119
11
5.3829527559055119
21
-4.6329527559055119
0
LINE
8
BLACK
6
CONTINUOUS
10
5.3829527559055119
20
-4.5329527559055114
11
5.3829527559055119
21
-4.6270472440944879
0
LINE
8
BLACK
6
CONTINUOUS
10
5.3829527559055119
20
-4.6270472440944879
11
5.577047244094488
21
-4.6270472440944879
0
LINE
8
BLACK
6
CONTINUOUS
10
5.577047244094488
20
-4.6270472440944879
11
5.577047244094488
21
-4.5329527559055114
0
LINE
8
BLACK
6
CONTINUOUS
10
5.577047244094488
20
-4.5329527559055114
11
5.3829527559055119
21
-4.5329527559055114
0
LINE
8
BLACK
6
CONTINUOUS
10
5.3829527559055119
20
-4.4329527559055117
11
5.3829527559055119
21
-4.5270472440944882
0
LINE
8
BLACK
6
CONTINUOUS
10
5.3829527559055119
20
-4.5270472440944882
11
5.577047244094488
21
-4.5270472440944882
0
LINE
8
BLACK
6
CONTINUOUS
10
5.577047244094488
20
-4.5270472440944882
11
5.577047244094488
21
-4.4329527559055117
0
LINE
8
BLACK
6
CONTINUOUS
10
5.577047244094488
20
-4.4329527559055117
11
5.3829527559055119
21
-4.4329527559055117
0
LINE
8
BLACK
6
CONTINUOUS
10
7.0708296850393699
20
-4.5375520866141734
11
7.0709074803149603
21
-4.5375465748031498
0
LINE
8
BLACK
6
CONTINUOUS
10
7.0709074803149603
20
-4.5375465748031498
11
7.071009724409449
21
-4.5375698031496059
0
LINE
8
BLACK
6
CONTINUOUS
10
7.071009724409449
20
-4.5375698031496059
11
7.0711142125984248
21
-4.5375801181102364
0
LINE
8
BLACK
6
CONTINUOUS
10
7.0711142125984248
20
-4.5375801181102364
11
7.0711862598425199
21
-4.5376099606299212
0
LINE
8
BLACK
6
CONTINUOUS
10
7.0711862598425199
20
-4.5376099606299212
11
7.0714718897637789
21
-4.5376749212598426
0
LINE
8
BLACK
6
CONTINUOUS
10
7.0714718897637789
20
-4.5376749212598426
11
7.0786147244094488
21
-4.540055905511811
0
LINE
8
BLACK
6
CONTINUOUS
10
7.0786147244094488
20
-4.540055905511811
11
7.0791433070866141
21
-4.5402918897637798
0
LINE
8
BLACK
6
CONTINUOUS
10
7.0791433070866141
20
-4.5402918897637798
11
7.07922342519685
21
-4.5403613779527561
0
LINE
8
BLACK
6
CONTINUOUS
10
7.07922342519685
20
-4.5403613779527561
11
7.0793214173228343
21
-4.5404019685039367
0
LINE
8
BLACK
6
CONTINUOUS
10
7.0793214173228343
20
-4.5404019685039367
11
7.0797688976377948
21
-4.5407692125984251
0
LINE
8
BLACK
6
CONTINUOUS
10
7.0797688976377948
20
-4.5407692125984251
11
7.0845308267716538
21
-4.5455311023622045
0
LINE
8
BLACK
6
CONTINUOUS
10
7.0845308267716538
20
-4.5455311023622045
11
7.0848980708661413
21
-4.5459785433070863
0
LINE
8
BLACK
6
CONTINUOUS
10
7.0848980708661413
20
-4.5459785433070863
11
7.0849387007874016
21
-4.5460766535433068
0
LINE
8
BLACK
6
CONTINUOUS
10
7.0849387007874016
20
-4.5460766535433068
11
7.0850081496062991
21
-4.5461567322834648
0
LINE
8
BLACK
6
CONTINUOUS
10
7.0850081496062991
20
-4.5461567322834648
11
7.0852441338582679
21
-4.5466852755905514
0
LINE
8
BLACK
6
CONTINUOUS
10
7.0852441338582679
20
-4.5466852755905514
11
7.0876250787401576
21
-4.5538281496062991
0
LINE
8
BLACK
6
CONTINUOUS
10
7.0876250787401576
20
-4.5538281496062991
11
7.0876900000000003
21
-4.5541137007874015
0
LINE
8
BLACK
6
CONTINUOUS
10
7.0876900000000003
20
-4.5541137007874015
11
7.0877198818897638
21
-4.5541858267716533
0
LINE
8
BLACK
6
CONTINUOUS
10
7.0877198818897638
20
-4.5541858267716533
11
7.0877301574803147
21
-4.55429031496063
0
LINE
8
BLACK
6
CONTINUOUS
10
7.0877301574803147
20
-4.55429031496063
11
7.0877534251968504
21
-4.5543925984251965
0
LINE
8
BLACK
6
CONTINUOUS
10
7.0877534251968504
20
-4.5543925984251965
11
7.087747874015748
21
-4.5544703149606303
0
LINE
8
BLACK
6
CONTINUOUS
10
7.087747874015748
20
-4.5544703149606303
11
7.0877766141732286
21
-4.5547618897637792
0
LINE
8
BLACK
6
CONTINUOUS
10
7.0877766141732286
20
-4.5547618897637792
11
7.0877766141732286
21
-4.5595237795275594
0
LINE
8
BLACK
6
CONTINUOUS
10
7.0877766141732286
20
-4.5595237795275594
11
7.0877198818897638
21
-4.5600998425196853
0
LINE
8
BLACK
6
CONTINUOUS
10
7.0877198818897638
20
-4.5600998425196853
11
7.0872789763779522
21
-4.5611642519685036
0
LINE
8
BLACK
6
CONTINUOUS
10
7.0872789763779522
20
-4.5611642519685036
11
7.0864643307086617
21
-4.5619788976377951
0
LINE
8
BLACK
6
CONTINUOUS
10
7.0864643307086617
20
-4.5619788976377951
11
7.0853999212598424
21
-4.5624198031496066
0
LINE
8
BLACK
6
CONTINUOUS
10
7.0853999212598424
20
-4.5624198031496066
11
7.0842477952755907
21
-4.5624198031496066
0
LINE
8
BLACK
6
CONTINUOUS
10
7.0842477952755907
20
-4.5624198031496066
11
7.0831833858267714
21
-4.5619788976377951
0
LINE
8
BLACK
6
CONTINUOUS
10
7.0831833858267714
20
-4.5619788976377951
11
7.08236874015748
21
-4.5611642519685036
0
LINE
8
BLACK
6
CONTINUOUS
10
7.08236874015748
20
-4.5611642519685036
11
7.0819278346456693
21
-4.5600998425196853
0
LINE
8
BLACK
6
CONTINUOUS
10
7.0819278346456693
20
-4.5600998425196853
11
7.0818711023622045
21
-4.5595237795275594
0
LINE
8
BLACK
6
CONTINUOUS
10
7.0818711023622045
20
-4.5595237795275594
11
7.0818711023622045
21
-4.5552409842519683
0
LINE
8
BLACK
6
CONTINUOUS
10
7.0818711023622045
20
-4.5552409842519683
11
7.0798621259842518
21
-4.5492140551181102
0
LINE
8
BLACK
6
CONTINUOUS
10
7.0798621259842518
20
-4.5492140551181102
11
7.07608594488189
21
-4.5454379133858263
0
LINE
8
BLACK
6
CONTINUOUS
10
7.07608594488189
20
-4.5454379133858263
11
7.070059015748031
21
-4.5434288976377948
0
LINE
8
BLACK
6
CONTINUOUS
10
7.070059015748031
20
-4.5434288976377948
11
7.0348238582677167
21
-4.5434288976377948
0
LINE
8
BLACK
6
CONTINUOUS
10
7.0348238582677167
20
-4.5434288976377948
11
7.03424779527559
21
-4.5433721653543309
0
LINE
8
BLACK
6
CONTINUOUS
10
7.03424779527559
20
-4.5433721653543309
11
7.0331833858267716
21
-4.5429312598425193
0
LINE
8
BLACK
6
CONTINUOUS
10
7.0331833858267716
20
-4.5429312598425193
11
7.0323687401574801
21
-4.5421166141732279
0
LINE
8
BLACK
6
CONTINUOUS
10
7.0323687401574801
20
-4.5421166141732279
11
7.0319278346456695
21
-4.5410522047244095
0
LINE
8
BLACK
6
CONTINUOUS
10
7.0319278346456695
20
-4.5410522047244095
11
7.0319278346456695
21
-4.5399000787401578
0
LINE
8
BLACK
6
CONTINUOUS
10
7.0319278346456695
20
-4.5399000787401578
11
7.0323687401574801
21
-4.5388356692913385
0
LINE
8
BLACK
6
CONTINUOUS
10
7.0323687401574801
20
-4.5388356692913385
11
7.0331833858267716
21
-4.5380210236220471
0
LINE
8
BLACK
6
CONTINUOUS
10
7.0331833858267716
20
-4.5380210236220471
11
7.03424779527559
21
-4.5375801181102364
0
LINE
8
BLACK
6
CONTINUOUS
10
7.03424779527559
20
-4.5375801181102364
11
7.0348238582677167
21
-4.5375233858267716
0
LINE
8
BLACK
6
CONTINUOUS
10
7.0348238582677167
20
-4.5375233858267716
11
7.0705381496062989
21
-4.5375233858267716
0
LINE
8
BLACK
6
CONTINUOUS
10
7.0705381496062989
20
-4.5375233858267716
11
7.0708296850393699
21
-4.5375520866141734
0
LINE
8
BLACK
6
CONTINUOUS
10
7.0864643307086617
20
-4.4880210236220472
11
7.0872789763779522
21
-4.4888356692913387
0
LINE
8
BLACK
6
CONTINUOUS
10
7.0872789763779522
20
-4.4888356692913387
11
7.0877198818897638
21
-4.4899000787401571
0
LINE
8
BLACK
6
CONTINUOUS
10
7.0877198818897638
20
-4.4899000787401571
11
7.0877766141732286
21
-4.4904761417322829
0
LINE
8
BLACK
6
CONTINUOUS
10
7.0877766141732286
20
-4.4904761417322829
11
7.0877766141732286
21
-4.519047598425197
0
LINE
8
BLACK
6
CONTINUOUS
10
7.0877766141732286
20
-4.519047598425197
11
7.0877198818897638
21
-4.5196236614173229
0
LINE
8
BLACK
6
CONTINUOUS
10
7.0877198818897638
20
-4.5196236614173229
11
7.0872789763779522
21
-4.5206880708661412
0
LINE
8
BLACK
6
CONTINUOUS
10
7.0872789763779522
20
-4.5206880708661412
11
7.0864643307086617
21
-4.5215027165354327
0
LINE
8
BLACK
6
CONTINUOUS
10
7.0864643307086617
20
-4.5215027165354327
11
7.0853999212598424
21
-4.5219436220472442
0
LINE
8
BLACK
6
CONTINUOUS
10
7.0853999212598424
20
-4.5219436220472442
11
7.0842477952755907
21
-4.5219436220472442
0
LINE
8
BLACK
6
CONTINUOUS
10
7.0842477952755907
20
-4.5219436220472442
11
7.0831833858267714
21
-4.5215027165354327
0
LINE
8
BLACK
6
CONTINUOUS
10
7.0831833858267714
20
-4.5215027165354327
11
7.08236874015748
21
-4.5206880708661412
0
LINE
8
BLACK
6
CONTINUOUS
10
7.08236874015748
20
-4.5206880708661412
11
7.0819278346456693
21
-4.5196236614173229
0
LINE
8
BLACK
6
CONTINUOUS
10
7.0819278346456693
20
-4.5196236614173229
11
7.0818711023622045
21
-4.519047598425197
0
LINE
8
BLACK
6
CONTINUOUS
10
7.0818711023622045
20
-4.519047598425197
11
7.0818711023622045
21
-4.5077146456692914
0
LINE
8
BLACK
6
CONTINUOUS
10
7.0818711023622045
20
-4.5077146456692914
11
7.0443333858267714
21
-4.5077146456692914
0
LINE
8
BLACK
6
CONTINUOUS
10
7.0443333858267714
20
-4.5077146456692914
11
7.0488165354330707
21
-4.512197755905512
0
LINE
8
BLACK
6
CONTINUOUS
10
7.0488165354330707
20
-4.512197755905512
11
7.0490023622047246
21
-4.5124241338582678
0
LINE
8
BLACK
6
CONTINUOUS
10
7.0490023622047246
20
-4.5124241338582678
11
7.0490612992125978
21
-4.5124752755905515
0
LINE
8
BLACK
6
CONTINUOUS
10
7.0490612992125978
20
-4.5124752755905515
11
7.049117165354331
21
-4.5125640157480316
0
LINE
8
BLACK
6
CONTINUOUS
10
7.049117165354331
20
-4.5125640157480316
11
7.0491837795275591
21
-4.5126451968503938
0
LINE
8
BLACK
6
CONTINUOUS
10
7.0491837795275591
20
-4.5126451968503938
11
7.0492136220472439
21
-4.5127173228346456
0
LINE
8
BLACK
6
CONTINUOUS
10
7.0492136220472439
20
-4.5127173228346456
11
7.0493696456692909
21
-4.5129651574803145
0
LINE
8
BLACK
6
CONTINUOUS
10
7.0493696456692909
20
-4.5129651574803145
11
7.0517505905511806
21
-4.5177270866141734
0
LINE
8
BLACK
6
CONTINUOUS
10
7.0517505905511806
20
-4.5177270866141734
11
7.0519574803149601
21
-4.5182677165354326
0
LINE
8
BLACK
6
CONTINUOUS
10
7.0519574803149601
20
-4.5182677165354326
11
7.0520391338582673
21
-4.5194169291338584
0
LINE
8
BLACK
6
CONTINUOUS
10
7.0520391338582673
20
-4.5194169291338584
11
7.0516748031496057
21
-4.5205098818897635
0
LINE
8
BLACK
6
CONTINUOUS
10
7.0516748031496057
20
-4.5205098818897635
11
7.0509199212598421
21
-4.5213802362204722
0
LINE
8
BLACK
6
CONTINUOUS
10
7.0509199212598421
20
-4.5213802362204722
11
7.0498894488188979
21
-4.5218955118110236
0
LINE
8
BLACK
6
CONTINUOUS
10
7.0498894488188979
20
-4.5218955118110236
11
7.0487402362204721
21
-4.5219771653543308
0
LINE
8
BLACK
6
CONTINUOUS
10
7.0487402362204721
20
-4.5219771653543308
11
7.0476472834645669
21
-4.5216128346456692
0
LINE
8
BLACK
6
CONTINUOUS
10
7.0476472834645669
20
-4.5216128346456692
11
7.0467768897637795
21
-4.5208579527559056
0
LINE
8
BLACK
6
CONTINUOUS
10
7.0467768897637795
20
-4.5208579527559056
11
7.0464685433070864
21
-4.5203680708661418
0
LINE
8
BLACK
6
CONTINUOUS
10
7.0464685433070864
20
-4.5203680708661418
11
7.044301889763779
21
-4.5160347637795271
0
LINE
8
BLACK
6
CONTINUOUS
10
7.044301889763779
20
-4.5160347637795271
11
7.0400855905511808
21
-4.5118185039370076
0
LINE
8
BLACK
6
CONTINUOUS
10
7.0400855905511808
20
-4.5118185039370076
11
7.0331859448818896
21
-4.5072187401574801
0
LINE
8
BLACK
6
CONTINUOUS
10
7.0331859448818896
20
-4.5072187401574801
11
7.0331842519685042
21
-4.5072173622047247
0
LINE
8
BLACK
6
CONTINUOUS
10
7.0331842519685042
20
-4.5072173622047247
11
7.0331833858267716
21
-4.5072170078740159
0
LINE
8
BLACK
6
CONTINUOUS
10
7.0331833858267716
20
-4.5072170078740159
11
7.0331813385826774
21
-4.5072149606299208
0
LINE
8
BLACK
6
CONTINUOUS
10
7.0331813385826774
20
-4.5072149606299208
11
7.0327381102362203
21
-4.5068519685039368
0
LINE
8
BLACK
6
CONTINUOUS
10
7.0327381102362203
20
-4.5068519685039368
11
7.0325754330708659
21
-4.5066090551181102
0
LINE
8
BLACK
6
CONTINUOUS
10
7.0325754330708659
20
-4.5066090551181102
11
7.0323687401574801
21
-4.5064023622047245
0
LINE
8
BLACK
6
CONTINUOUS
10
7.0323687401574801
20
-4.5064023622047245
11
7.0322579921259845
21
-4.5061350393700783
0
LINE
8
BLACK
6
CONTINUOUS
10
7.0322579921259845
20
-4.5061350393700783
11
7.0320970472440942
21
-4.5058946850393697
0
LINE
8
BLACK
6
CONTINUOUS
10
7.0320970472440942
20
-4.5058946850393697
11
7.0320396850393703
21
-4.5056080314960631
0
LINE
8
BLACK
6
CONTINUOUS
10
7.0320396850393703
20
-4.5056080314960631
11
7.0319278346456695
21
-4.5053379527559052
0
LINE
8
BLACK
6
CONTINUOUS
10
7.0319278346456695
20
-4.5053379527559052
11
7.0319278346456695
21
-4.5050486220472443
0
LINE
8
BLACK
6
CONTINUOUS
10
7.0319278346456695
20
-4.5050486220472443
11
7.0318711023622047
21
-4.5047649999999999
0
LINE
8
BLACK
6
CONTINUOUS
10
7.0318711023622047
20
-4.5047649999999999
11
7.0319278346456695
21
-4.5044781889763774
0
LINE
8
BLACK
6
CONTINUOUS
10
7.0319278346456695
20
-4.5044781889763774
11
7.0319278346456695
21
-4.5041858267716535
0
LINE
8
BLACK
6
CONTINUOUS
10
7.0319278346456695
20
-4.5041858267716535
11
7.0320385433070864
21
-4.5039185433070861
0
LINE
8
BLACK
6
CONTINUOUS
10
7.0320385433070864
20
-4.5039185433070861
11
7.03209468503937
21
-4.5036347637795275
0
LINE
8
BLACK
6
CONTINUOUS
10
7.03209468503937
20
-4.5036347637795275
11
7.0322568503937006
21
-4.5033914960629922
0
LINE
8
BLACK
6
CONTINUOUS
10
7.0322568503937006
20
-4.5033914960629922
11
7.0323687401574801
21
-4.5031214173228342
0
LINE
8
BLACK
6
CONTINUOUS
10
7.0323687401574801
20
-4.5031214173228342
11
7.0325732677165353
21
-4.5029168503937003
0
LINE
8
BLACK
6
CONTINUOUS
10
7.0325732677165353
20
-4.5029168503937003
11
7.0327337795275593
21
-4.5026761417322829
0
LINE
8
BLACK
6
CONTINUOUS
10
7.0327337795275593
20
-4.5026761417322829
11
7.0329766535433071
21
-4.5025134645669294
0
LINE
8
BLACK
6
CONTINUOUS
10
7.0329766535433071
20
-4.5025134645669294
11
7.0331833858267716
21
-4.5023067716535428
0
LINE
8
BLACK
6
CONTINUOUS
10
7.0331833858267716
20
-4.5023067716535428
11
7.0334506692913381
21
-4.5021960236220471
0
LINE
8
BLACK
6
CONTINUOUS
10
7.0334506692913381
20
-4.5021960236220471
11
7.0336910629921254
21
-4.5020350787401577
0
LINE
8
BLACK
6
CONTINUOUS
10
7.0336910629921254
20
-4.5020350787401577
11
7.0339776771653542
21
-4.5019777165354329
0
LINE
8
BLACK
6
CONTINUOUS
10
7.0339776771653542
20
-4.5019777165354329
11
7.03424779527559
21
-4.5018658661417321
0
LINE
8
BLACK
6
CONTINUOUS
10
7.03424779527559
20
-4.5018658661417321
11
7.0348177165354331
21
-4.5018097244094486
0
LINE
8
BLACK
6
CONTINUOUS
10
7.0348177165354331
20
-4.5018097244094486
11
7.0348207480314962
21
-4.5018091338582673
0
LINE
8
BLACK
6
CONTINUOUS
10
7.0348207480314962
20
-4.5018091338582673
11
7.0348217716535428
21
-4.5018093307086611
0
LINE
8
BLACK
6
CONTINUOUS
10
7.0348217716535428
20
-4.5018093307086611
11
7.0348238582677167
21
-4.5018091338582673
0
LINE
8
BLACK
6
CONTINUOUS
10
7.0348238582677167
20
-4.5018091338582673
11
7.0818711023622045
21
-4.5018091338582673
0
LINE
8
BLACK
6
CONTINUOUS
10
7.0818711023622045
20
-4.5018091338582673
11
7.0818711023622045
21
-4.4904761417322829
0
LINE
8
BLACK
6
CONTINUOUS
10
7.0818711023622045
20
-4.4904761417322829
11
7.0819278346456693
21
-4.4899000787401571
0
LINE
8
BLACK
6
CONTINUOUS
10
7.0819278346456693
20
-4.4899000787401571
11
7.08236874015748
21
-4.4888356692913387
0
LINE
8
BLACK
6
CONTINUOUS
10
7.08236874015748
20
-4.4888356692913387
11
7.0831833858267714
21
-4.4880210236220472
0
LINE
8
BLACK
6
CONTINUOUS
10
7.0831833858267714
20
-4.4880210236220472
11
7.0842477952755907
21
-4.4875801181102357
0
LINE
8
BLACK
6
CONTINUOUS
10
7.0842477952755907
20
-4.4875801181102357
11
7.0853999212598424
21
-4.4875801181102357
0
LINE
8
BLACK
6
CONTINUOUS
10
7.0853999212598424
20
-4.4875801181102357
11
7.0864643307086617
21
-4.4880210236220472
0
LINE
8
BLACK
6
CONTINUOUS
10
7.0494011023622045
20
-4.4399330314960626
11
7.0494788976377949
21
-4.439927519685039
0
LINE
8
BLACK
6
CONTINUOUS
10
7.0494788976377949
20
-4.439927519685039
11
7.0495811417322836
21
-4.4399507480314959
0
LINE
8
BLACK
6
CONTINUOUS
10
7.0495811417322836
20
-4.4399507480314959
11
7.0496856299212594
21
-4.4399610629921256
0
LINE
8
BLACK
6
CONTINUOUS
10
7.0496856299212594
20
-4.4399610629921256
11
7.0497576771653545
21
-4.4399909055118112
0
LINE
8
BLACK
6
CONTINUOUS
10
7.0497576771653545
20
-4.4399909055118112
11
7.0500433070866144
21
-4.4400558661417318
0
LINE
8
BLACK
6
CONTINUOUS
10
7.0500433070866144
20
-4.4400558661417318
11
7.0571861417322834
21
-4.4424368503937011
0
LINE
8
BLACK
6
CONTINUOUS
10
7.0571861417322834
20
-4.4424368503937011
11
7.0577147244094487
21
-4.442672834645669
0
LINE
8
BLACK
6
CONTINUOUS
10
7.0577147244094487
20
-4.442672834645669
11
7.0577948818897633
21
-4.442742362204724
0
LINE
8
BLACK
6
CONTINUOUS
10
7.0577948818897633
20
-4.442742362204724
11
7.0578928740157476
21
-4.4427829527559055
0
LINE
8
BLACK
6
CONTINUOUS
10
7.0578928740157476
20
-4.4427829527559055
11
7.0583403149606294
21
-4.4431501574803152
0
LINE
8
BLACK
6
CONTINUOUS
10
7.0583403149606294
20
-4.4431501574803152
11
7.0818711023622045
21
-4.4666809055118106
0
LINE
8
BLACK
6
CONTINUOUS
10
7.0818711023622045
20
-4.4666809055118106
11
7.0818711023622045
21
-4.4428570866141728
0
LINE
8
BLACK
6
CONTINUOUS
10
7.0818711023622045
20
-4.4428570866141728
11
7.0819278346456693
21
-4.4422810236220469
0
LINE
8
BLACK
6
CONTINUOUS
10
7.0819278346456693
20
-4.4422810236220469
11
7.08236874015748
21
-4.4412166141732285
0
LINE
8
BLACK
6
CONTINUOUS
10
7.08236874015748
20
-4.4412166141732285
11
7.0831833858267714
21
-4.4404019685039371
0
LINE
8
BLACK
6
CONTINUOUS
10
7.0831833858267714
20
-4.4404019685039371
11
7.0842477952755907
21
-4.4399610629921256
0
LINE
8
BLACK
6
CONTINUOUS
10
7.0842477952755907
20
-4.4399610629921256
11
7.0853999212598424
21
-4.4399610629921256
0
LINE
8
BLACK
6
CONTINUOUS
10
7.0853999212598424
20
-4.4399610629921256
11
7.0864643307086617
21
-4.4404019685039371
0
LINE
8
BLACK
6
CONTINUOUS
10
7.0864643307086617
20
-4.4404019685039371
11
7.0872789763779522
21
-4.4412166141732285
0
LINE
8
BLACK
6
CONTINUOUS
10
7.0872789763779522
20
-4.4412166141732285
11
7.0877198818897638
21
-4.4422810236220469
0
LINE
8
BLACK
6
CONTINUOUS
10
7.0877198818897638
20
-4.4422810236220469
11
7.0877766141732286
21
-4.4428570866141728
0
LINE
8
BLACK
6
CONTINUOUS
10
7.0877766141732286
20
-4.4428570866141728
11
7.0877766141732286
21
-4.4738094881889765
0
LINE
8
BLACK
6
CONTINUOUS
10
7.0877766141732286
20
-4.4738094881889765
11
7.0877198818897638
21
-4.4743855511811024
0
LINE
8
BLACK
6
CONTINUOUS
10
7.0877198818897638
20
-4.4743855511811024
11
7.0872789763779522
21
-4.4754499606299207
0
LINE
8
BLACK
6
CONTINUOUS
10
7.0872789763779522
20
-4.4754499606299207
11
7.0864643307086617
21
-4.4762646062992122
0
LINE
8
BLACK
6
CONTINUOUS
10
7.0864643307086617
20
-4.4762646062992122
11
7.0853999212598424
21
-4.4767055118110237
0
LINE
8
BLACK
6
CONTINUOUS
10
7.0853999212598424
20
-4.4767055118110237
11
7.0842477952755907
21
-4.4767055118110237
0
LINE
8
BLACK
6
CONTINUOUS
10
7.0842477952755907
20
-4.4767055118110237
11
7.0831833858267714
21
-4.4762646062992122
0
LINE
8
BLACK
6
CONTINUOUS
10
7.0831833858267714
20
-4.4762646062992122
11
7.0827359448818896
21
-4.4758974015748034
0
LINE
8
BLACK
6
CONTINUOUS
10
7.0827359448818896
20
-4.4758974015748034
11
7.0546573622047246
21
-4.4478188582677163
0
LINE
8
BLACK
6
CONTINUOUS
10
7.0546573622047246
20
-4.4478188582677163
11
7.0486304330708656
21
-4.4458098425196848
0
LINE
8
BLACK
6
CONTINUOUS
10
7.0486304330708656
20
-4.4458098425196848
11
7.0450447244094487
21
-4.4458098425196848
0
LINE
8
BLACK
6
CONTINUOUS
10
7.0450447244094487
20
-4.4458098425196848
11
7.0413348425196851
21
-4.4476647637795272
0
LINE
8
BLACK
6
CONTINUOUS
10
7.0413348425196851
20
-4.4476647637795272
11
7.0396315354330703
21
-4.4493681102362208
0
LINE
8
BLACK
6
CONTINUOUS
10
7.0396315354330703
20
-4.4493681102362208
11
7.0377766141732279
21
-4.4530779527559057
0
LINE
8
BLACK
6
CONTINUOUS
10
7.0377766141732279
20
-4.4530779527559057
11
7.0377766141732279
21
-4.4635886220472436
0
LINE
8
BLACK
6
CONTINUOUS
10
7.0377766141732279
20
-4.4635886220472436
11
7.0396315354330703
21
-4.4672985039370081
0
LINE
8
BLACK
6
CONTINUOUS
10
7.0396315354330703
20
-4.4672985039370081
11
7.041673661417323
21
-4.4693406299212599
0
LINE
8
BLACK
6
CONTINUOUS
10
7.041673661417323
20
-4.4693406299212599
11
7.0420408661417317
21
-4.4697880708661417
0
LINE
8
BLACK
6
CONTINUOUS
10
7.0420408661417317
20
-4.4697880708661417
11
7.0424817716535433
21
-4.4708525196850388
0
LINE
8
BLACK
6
CONTINUOUS
10
7.0424817716535433
20
-4.4708525196850388
11
7.0424817716535433
21
-4.472004566929134
0
LINE
8
BLACK
6
CONTINUOUS
10
7.0424817716535433
20
-4.472004566929134
11
7.0420408661417317
21
-4.4730690157480311
0
LINE
8
BLACK
6
CONTINUOUS
10
7.0420408661417317
20
-4.4730690157480311
11
7.0412262204724412
21
-4.4738836614173225
0
LINE
8
BLACK
6
CONTINUOUS
10
7.0412262204724412
20
-4.4738836614173225
11
7.0401617716535432
21
-4.4743245669291341
0
LINE
8
BLACK
6
CONTINUOUS
10
7.0401617716535432
20
-4.4743245669291341
11
7.0390097244094489
21
-4.4743245669291341
0
LINE
8
BLACK
6
CONTINUOUS
10
7.0390097244094489
20
-4.4743245669291341
11
7.0379452755905509
21
-4.4738836614173225
0
LINE
8
BLACK
6
CONTINUOUS
10
7.0379452755905509
20
-4.4738836614173225
11
7.0374978346456691
21
-4.4735164566929129
0
LINE
8
BLACK
6
CONTINUOUS
10
7.0374978346456691
20
-4.4735164566929129
11
7.0351168897637795
21
-4.4711355118110232
0
LINE
8
BLACK
6
CONTINUOUS
10
7.0351168897637795
20
-4.4711355118110232
11
7.0349310236220468
21
-4.4709090157480311
0
LINE
8
BLACK
6
CONTINUOUS
10
7.0349310236220468
20
-4.4709090157480311
11
7.0348721259842515
21
-4.4708579527559058
0
LINE
8
BLACK
6
CONTINUOUS
10
7.0348721259842515
20
-4.4708579527559058
11
7.0348162204724405
21
-4.4707691732283461
0
LINE
8
BLACK
6
CONTINUOUS
10
7.0348162204724405
20
-4.4707691732283461
11
7.0347496850393698
21
-4.4706880708661414
0
LINE
8
BLACK
6
CONTINUOUS
10
7.0347496850393698
20
-4.4706880708661414
11
7.0347198031496063
21
-4.4706159842519684
0
LINE
8
BLACK
6
CONTINUOUS
10
7.0347198031496063
20
-4.4706159842519684
11
7.0345637795275593
21
-4.470368070866142
0
LINE
8
BLACK
6
CONTINUOUS
10
7.0345637795275593
20
-4.470368070866142
11
7.0321828346456687
21
-4.4656061811023617
0
LINE
8
BLACK
6
CONTINUOUS
10
7.0321828346456687
20
-4.4656061811023617
11
7.0319759448818893
21
-4.4650655511811026
0
LINE
8
BLACK
6
CONTINUOUS
10
7.0319759448818893
20
-4.4650655511811026
11
7.0319684251968502
21
-4.4649597244094483
0
LINE
8
BLACK
6
CONTINUOUS
10
7.0319684251968502
20
-4.4649597244094483
11
7.0319278346456695
21
-4.4648617322834641
0
LINE
8
BLACK
6
CONTINUOUS
10
7.0319278346456695
20
-4.4648617322834641
11
7.0318711023622047
21
-4.4642856692913382
0
LINE
8
BLACK
6
CONTINUOUS
10
7.0318711023622047
20
-4.4642856692913382
11
7.0318711023622047
21
-4.4523809055118111
0
LINE
8
BLACK
6
CONTINUOUS
10
7.0318711023622047
20
-4.4523809055118111
11
7.0319278346456695
21
-4.4518048425196852
0
LINE
8
BLACK
6
CONTINUOUS
10
7.0319278346456695
20
-4.4518048425196852
11
7.0319684251968502
21
-4.4517068110236222
0
LINE
8
BLACK
6
CONTINUOUS
10
7.0319684251968502
20
-4.4517068110236222
11
7.0319759448818893
21
-4.4516010236220476
0
LINE
8
BLACK
6
CONTINUOUS
10
7.0319759448818893
20
-4.4516010236220476
11
7.0321828346456687
21
-4.4510603937007875
0
LINE
8
BLACK
6
CONTINUOUS
10
7.0321828346456687
20
-4.4510603937007875
11
7.0345637795275593
21
-4.4462985039370082
0
LINE
8
BLACK
6
CONTINUOUS
10
7.0345637795275593
20
-4.4462985039370082
11
7.0347198425196851
21
-4.4460505511811022
0
LINE
8
BLACK
6
CONTINUOUS
10
7.0347198425196851
20
-4.4460505511811022
11
7.0347496850393698
21
-4.4459785433070866
0
LINE
8
BLACK
6
CONTINUOUS
10
7.0347496850393698
20
-4.4459785433070866
11
7.0348162204724405
21
-4.4458974409448819
0
LINE
8
BLACK
6
CONTINUOUS
10
7.0348162204724405
20
-4.4458974409448819
11
7.0348721259842515
21
-4.4458086614173231
0
LINE
8
BLACK
6
CONTINUOUS
10
7.0348721259842515
20
-4.4458086614173231
11
7.0349310236220468
21
-4.4457575590551182
0
LINE
8
BLACK
6
CONTINUOUS
10
7.0349310236220468
20
-4.4457575590551182
11
7.0351168897637795
21
-4.4455311023622048
0
LINE
8
BLACK
6
CONTINUOUS
10
7.0351168897637795
20
-4.4455311023622048
11
7.0374978346456691
21
-4.4431501574803152
0
LINE
8
BLACK
6
CONTINUOUS
10
7.0374978346456691
20
-4.4431501574803152
11
7.0377242913385825
21
-4.4429642913385825
0
LINE
8
BLACK
6
CONTINUOUS
10
7.0377242913385825
20
-4.4429642913385825
11
7.0377753543307087
21
-4.4429054330708659
0
LINE
8
BLACK
6
CONTINUOUS
10
7.0377753543307087
20
-4.4429054330708659
11
7.0378640944881887
21
-4.4428495275590549
0
LINE
8
BLACK
6
CONTINUOUS
10
7.0378640944881887
20
-4.4428495275590549
11
7.0379452755905509
21
-4.4427829527559055
0
LINE
8
BLACK
6
CONTINUOUS
10
7.0379452755905509
20
-4.4427829527559055
11
7.0380173228346452
21
-4.442753070866142
0
LINE
8
BLACK
6
CONTINUOUS
10
7.0380173228346452
20
-4.442753070866142
11
7.0382652362204725
21
-4.4425970472440941
0
LINE
8
BLACK
6
CONTINUOUS
10
7.0382652362204725
20
-4.4425970472440941
11
7.0430271259842518
21
-4.4402160629921257
0
LINE
8
BLACK
6
CONTINUOUS
10
7.0430271259842518
20
-4.4402160629921257
11
7.0435677165354331
21
-4.4400091732283462
0
LINE
8
BLACK
6
CONTINUOUS
10
7.0435677165354331
20
-4.4400091732283462
11
7.0436735826771653
21
-4.4400016141732284
0
LINE
8
BLACK
6
CONTINUOUS
10
7.0436735826771653
20
-4.4400016141732284
11
7.0437715748031495
21
-4.4399610629921256
0
LINE
8
BLACK
6
CONTINUOUS
10
7.0437715748031495
20
-4.4399610629921256
11
7.0443476377952754
21
-4.4399043307086616
0
LINE
8
BLACK
6
CONTINUOUS
10
7.0443476377952754
20
-4.4399043307086616
11
7.0491095669291335
21
-4.4399043307086616
0
LINE
8
BLACK
6
CONTINUOUS
10
7.0491095669291335
20
-4.4399043307086616
11
7.0494011023622045
21
-4.4399330314960626
0
LINE
8
BLACK
6
CONTINUOUS
10
7.0734996456692913
20
-4.4126514173228344
11
7.0848025590551176
21
-4.4148996850393702
0
LINE
8
BLACK
6
CONTINUOUS
10
7.0848025590551176
20
-4.4148996850393702
11
7.0957153149606293
21
-4.4186040551181103
0
LINE
8
BLACK
6
CONTINUOUS
10
7.0957153149606293
20
-4.4186040551181103
11
7.1060511811023623
21
-4.4237011417322831
0
LINE
8
BLACK
6
CONTINUOUS
10
7.1060511811023623
20
-4.4237011417322831
11
7.1156333070866138
21
-4.4301037401574801
0
LINE
8
BLACK
6
CONTINUOUS
10
7.1156333070866138
20
-4.4301037401574801
11
7.1242977559055118
21
-4.4377022440944884
0
LINE
8
BLACK
6
CONTINUOUS
10
7.1242977559055118
20
-4.4377022440944884
11
7.1318962598425193
21
-4.4463666929133856
0
LINE
8
BLACK
6
CONTINUOUS
10
7.1318962598425193
20
-4.4463666929133856
11
7.1382988582677163
21
-4.4559488582677167
0
LINE
8
BLACK
6
CONTINUOUS
10
7.1382988582677163
20
-4.4559488582677167
11
7.14339594488189
21
-4.46628468503937
0
LINE
8
BLACK
6
CONTINUOUS
10
7.14339594488189
20
-4.46628468503937
11
7.14710031496063
21
-4.4771974409448818
0
LINE
8
BLACK
6
CONTINUOUS
10
7.14710031496063
20
-4.4771974409448818
11
7.149348582677165
21
-4.4885003543307089
0
LINE
8
BLACK
6
CONTINUOUS
10
7.149348582677165
20
-4.4885003543307089
11
7.1501023228346456
21
-4.5
0
LINE
8
BLACK
6
CONTINUOUS
10
7.1501023228346456
20
-4.5
11
7.149348582677165
21
-4.5114996456692911
0
LINE
8
BLACK
6
CONTINUOUS
10
7.149348582677165
20
-4.5114996456692911
11
7.14710031496063
21
-4.5228025590551182
0
LINE
8
BLACK
6
CONTINUOUS
10
7.14710031496063
20
-4.5228025590551182
11
7.14339594488189
21
-4.53371531496063
0
LINE
8
BLACK
6
CONTINUOUS
10
7.14339594488189
20
-4.53371531496063
11
7.1382988582677163
21
-4.5440511811023621
0
LINE
8
BLACK
6
CONTINUOUS
10
7.1382988582677163
20
-4.5440511811023621
11
7.1318962598425193
21
-4.5536333070866144
0
LINE
8
BLACK
6
CONTINUOUS
10
7.1318962598425193
20
-4.5536333070866144
11
7.1242977559055118
21
-4.5622977559055116
0
LINE
8
BLACK
6
CONTINUOUS
10
7.1242977559055118
20
-4.5622977559055116
11
7.1156333070866138
21
-4.5698962598425199
0
LINE
8
BLACK
6
CONTINUOUS
10
7.1156333070866138
20
-4.5698962598425199
11
7.1060511811023623
21
-4.5762988582677169
0
LINE
8
BLACK
6
CONTINUOUS
10
7.1060511811023623
20
-4.5762988582677169
11
7.0957153149606293
21
-4.5813959448818897
0
LINE
8
BLACK
6
CONTINUOUS
10
7.0957153149606293
20
-4.5813959448818897
11
7.0848025590551176
21
-4.5851003149606298
0
LINE
8
BLACK
6
CONTINUOUS
10
7.0848025590551176
20
-4.5851003149606298
11
7.0734996456692913
21
-4.5873485826771656
0
LINE
8
BLACK
6
CONTINUOUS
10
7.0734996456692913
20
-4.5873485826771656
11
7.0620000000000003
21
-4.5881023228346454
0
LINE
8
BLACK
6
CONTINUOUS
10
7.0620000000000003
20
-4.5881023228346454
11
7.0505003543307083
21
-4.5873485826771656
0
LINE
8
BLACK
6
CONTINUOUS
10
7.0505003543307083
20
-4.5873485826771656
11
7.0391974409448821
21
-4.5851003149606298
0
LINE
8
BLACK
6
CONTINUOUS
10
7.0391974409448821
20
-4.5851003149606298
11
7.0282846850393703
21
-4.5813959448818897
0
LINE
8
BLACK
6
CONTINUOUS
10
7.0282846850393703
20
-4.5813959448818897
11
7.0179488188976373
21
-4.5762988582677169
0
LINE
8
BLACK
6
CONTINUOUS
10
7.0179488188976373
20
-4.5762988582677169
11
7.0083666929133859
21
-4.5698962598425199
0
LINE
8
BLACK
6
CONTINUOUS
10
7.0083666929133859
20
-4.5698962598425199
11
6.9997022440944878
21
-4.5622977559055116
0
LINE
8
BLACK
6
CONTINUOUS
10
6.9997022440944878
20
-4.5622977559055116
11
6.9921037401574804
21
-4.5536333070866144
0
LINE
8
BLACK
6
CONTINUOUS
10
6.9921037401574804
20
-4.5536333070866144
11
6.9857011417322834
21
-4.5440511811023621
0
LINE
8
BLACK
6
CONTINUOUS
10
6.9857011417322834
20
-4.5440511811023621
11
6.9806040551181097
21
-4.53371531496063
0
LINE
8
BLACK
6
CONTINUOUS
10
6.9806040551181097
20
-4.53371531496063
11
6.9768996850393696
21
-4.5228025590551182
0
LINE
8
BLACK
6
CONTINUOUS
10
6.9768996850393696
20
-4.5228025590551182
11
6.9746514173228347
21
-4.5114996456692911
0
LINE
8
BLACK
6
CONTINUOUS
10
6.9746514173228347
20
-4.5114996456692911
11
6.973897677165354
21
-4.5
0
LINE
8
BLACK
6
CONTINUOUS
10
6.973897677165354
20
-4.5
11
6.9746514173228347
21
-4.4885003543307089
0
LINE
8
BLACK
6
CONTINUOUS
10
6.9746514173228347
20
-4.4885003543307089
11
6.9768996850393696
21
-4.4771974409448818
0
LINE
8
BLACK
6
CONTINUOUS
10
6.9768996850393696
20
-4.4771974409448818
11
6.9806040551181097
21
-4.46628468503937
0
LINE
8
BLACK
6
CONTINUOUS
10
6.9806040551181097
20
-4.46628468503937
11
6.9857011417322834
21
-4.4559488582677167
0
LINE
8
BLACK
6
CONTINUOUS
10
6.9857011417322834
20
-4.4559488582677167
11
6.9921037401574804
21
-4.4463666929133856
0
LINE
8
BLACK
6
CONTINUOUS
10
6.9921037401574804
20
-4.4463666929133856
11
6.9997022440944878
21
-4.4377022440944884
0
LINE
8
BLACK
6
CONTINUOUS
10
6.9997022440944878
20
-4.4377022440944884
11
7.0083666929133859
21
-4.4301037401574801
0
LINE
8
BLACK
6
CONTINUOUS
10
7.0083666929133859
20
-4.4301037401574801
11
7.0179488582677161
21
-4.4237011417322831
0
LINE
8
BLACK
6
CONTINUOUS
10
7.0179488582677161
20
-4.4237011417322831
11
7.0282846850393703
21
-4.4186040551181103
0
LINE
8
BLACK
6
CONTINUOUS
10
7.0282846850393703
20
-4.4186040551181103
11
7.0391974409448821
21
-4.4148996850393702
0
LINE
8
BLACK
6
CONTINUOUS
10
7.0391974409448821
20
-4.4148996850393702
11
7.0505003543307083
21
-4.4126514173228344
0
LINE
8
BLACK
6
CONTINUOUS
10
7.0505003543307083
20
-4.4126514173228344
11
7.0620000000000003
21
-4.4118976771653546
0
LINE
8
BLACK
6
CONTINUOUS
10
7.0620000000000003
20
-4.4118976771653546
11
7.0734996456692913
21
-4.4126514173228344
0
LINE
8
BLACK
6
CONTINUOUS
10
6.9803784645669289
20
-4.5112186220472443
11
6.9826662992125978
21
-4.5222282677165353
0
LINE
8
BLACK
6
CONTINUOUS
10
6.9826662992125978
20
-4.5222282677165353
11
6.9864319685039371
21
-4.5328238188976373
0
LINE
8
BLACK
6
CONTINUOUS
10
6.9864319685039371
20
-4.5328238188976373
11
6.9916053149606299
21
-4.5428079527559051
0
LINE
8
BLACK
6
CONTINUOUS
10
6.9916053149606299
20
-4.5428079527559051
11
6.9980899999999995
21
-4.551994645669291
0
LINE
8
BLACK
6
CONTINUOUS
10
6.9980899999999995
20
-4.551994645669291
11
7.0057651968503931
21
-4.5602127559055115
0
LINE
8
BLACK
6
CONTINUOUS
10
7.0057651968503931
20
-4.5602127559055115
11
7.0144879527559052
21
-4.5673092519685037
0
LINE
8
BLACK
6
CONTINUOUS
10
7.0144879527559052
20
-4.5673092519685037
11
7.0240957480314963
21
-4.5731518897637793
0
LINE
8
BLACK
6
CONTINUOUS
10
7.0240957480314963
20
-4.5731518897637793
11
7.0344096456692915
21
-4.5776318503937006
0
LINE
8
BLACK
6
CONTINUOUS
10
7.0344096456692915
20
-4.5776318503937006
11
7.0452374803149604
21
-4.5806656692913386
0
LINE
8
BLACK
6
CONTINUOUS
10
7.0452374803149604
20
-4.5806656692913386
11
7.0563775984251969
21
-4.5821968110236222
0
LINE
8
BLACK
6
CONTINUOUS
10
7.0563775984251969
20
-4.5821968110236222
11
7.0676224015748028
21
-4.5821968110236222
0
LINE
8
BLACK
6
CONTINUOUS
10
7.0676224015748028
20
-4.5821968110236222
11
7.0787625196850392
21
-4.5806656692913386
0
LINE
8
BLACK
6
CONTINUOUS
10
7.0787625196850392
20
-4.5806656692913386
11
7.0895903543307082
21
-4.5776318503937006
0
LINE
8
BLACK
6
CONTINUOUS
10
7.0895903543307082
20
-4.5776318503937006
11
7.0999042519685034
21
-4.5731518897637793
0
LINE
8
BLACK
6
CONTINUOUS
10
7.0999042519685034
20
-4.5731518897637793
11
7.1095120472440945
21
-4.5673092519685037
0
LINE
8
BLACK
6
CONTINUOUS
10
7.1095120472440945
20
-4.5673092519685037
11
7.1182348031496065
21
-4.5602127559055115
0
LINE
8
BLACK
6
CONTINUOUS
10
7.1182348031496065
20
-4.5602127559055115
11
7.1259100000000002
21
-4.551994645669291
0
LINE
8
BLACK
6
CONTINUOUS
10
7.1259100000000002
20
-4.551994645669291
11
7.1323946850393698
21
-4.5428079527559051
0
LINE
8
BLACK
6
CONTINUOUS
10
7.1323946850393698
20
-4.5428079527559051
11
7.1375680314960626
21
-4.5328238188976373
0
LINE
8
BLACK
6
CONTINUOUS
10
7.1375680314960626
20
-4.5328238188976373
11
7.1413337007874018
21
-4.5222282677165353
0
LINE
8
BLACK
6
CONTINUOUS
10
7.1413337007874018
20
-4.5222282677165353
11
7.1436215354330708
21
-4.5112186220472443
0
LINE
8
BLACK
6
CONTINUOUS
10
7.1436215354330708
20
-4.5112186220472443
11
7.1443888976377954
21
-4.5
0
LINE
8
BLACK
6
CONTINUOUS
10
7.1443888976377954
20
-4.5
11
7.1436215354330708
21
-4.4887813779527557
0
LINE
8
BLACK
6
CONTINUOUS
10
7.1436215354330708
20
-4.4887813779527557
11
7.1413337007874018
21
-4.4777717322834647
0
LINE
8
BLACK
6
CONTINUOUS
10
7.1413337007874018
20
-4.4777717322834647
11
7.1375680314960626
21
-4.4671761811023618
0
LINE
8
BLACK
6
CONTINUOUS
10
7.1375680314960626
20
-4.4671761811023618
11
7.1323946850393698
21
-4.457192047244094
0
LINE
8
BLACK
6
CONTINUOUS
10
7.1323946850393698
20
-4.457192047244094
11
7.1259100000000002
21
-4.448005354330709
0
LINE
8
BLACK
6
CONTINUOUS
10
7.1259100000000002
20
-4.448005354330709
11
7.1182348031496065
21
-4.4397872440944877
0
LINE
8
BLACK
6
CONTINUOUS
10
7.1182348031496065
20
-4.4397872440944877
11
7.1095120472440945
21
-4.4326907480314963
0
LINE
8
BLACK
6
CONTINUOUS
10
7.1095120472440945
20
-4.4326907480314963
11
7.0999042519685034
21
-4.4268481102362207
0
LINE
8
BLACK
6
CONTINUOUS
10
7.0999042519685034
20
-4.4268481102362207
11
7.0895903543307082
21
-4.4223681496062994
0
LINE
8
BLACK
6
CONTINUOUS
10
7.0895903543307082
20
-4.4223681496062994
11
7.0787625196850392
21
-4.4193343307086614
0
LINE
8
BLACK
6
CONTINUOUS
10
7.0787625196850392
20
-4.4193343307086614
11
7.0676224015748028
21
-4.4178031889763778
0
LINE
8
BLACK
6
CONTINUOUS
10
7.0676224015748028
20
-4.4178031889763778
11
7.0563775984251969
21
-4.4178031889763778
0
LINE
8
BLACK
6
CONTINUOUS
10
7.0563775984251969
20
-4.4178031889763778
11
7.0452374803149604
21
-4.4193343307086614
0
LINE
8
BLACK
6
CONTINUOUS
10
7.0452374803149604
20
-4.4193343307086614
11
7.0344096456692915
21
-4.4223681496062994
0
LINE
8
BLACK
6
CONTINUOUS
10
7.0344096456692915
20
-4.4223681496062994
11
7.0240957480314963
21
-4.4268481102362207
0
LINE
8
BLACK
6
CONTINUOUS
10
7.0240957480314963
20
-4.4268481102362207
11
7.0144879527559052
21
-4.4326907480314963
0
LINE
8
BLACK
6
CONTINUOUS
10
7.0144879527559052
20
-4.4326907480314963
11
7.0057651968503931
21
-4.4397872440944877
0
LINE
8
BLACK
6
CONTINUOUS
10
7.0057651968503931
20
-4.4397872440944877
11
6.9980899999999995
21
-4.448005354330709
0
LINE
8
BLACK
6
CONTINUOUS
10
6.9980899999999995
20
-4.448005354330709
11
6.9916053149606299
21
-4.457192047244094
0
LINE
8
BLACK
6
CONTINUOUS
10
6.9916053149606299
20
-4.457192047244094
11
6.9864319685039371
21
-4.4671761811023618
0
LINE
8
BLACK
6
CONTINUOUS
10
6.9864319685039371
20
-4.4671761811023618
11
6.9826662992125978
21
-4.4777717322834647
0
LINE
8
BLACK
6
CONTINUOUS
10
6.9826662992125978
20
-4.4777717322834647
11
6.9803784645669289
21
-4.4887813779527557
0
LINE
8
BLACK
6
CONTINUOUS
10
6.9803784645669289
20
-4.4887813779527557
11
6.9796111023622043
21
-4.5
0
LINE
8
BLACK
6
CONTINUOUS
10
6.9796111023622043
20
-4.5
11
6.9803784645669289
21
-4.5112186220472443
0
LINE
8
BLACK
6
CONTINUOUS
10
7.2003713385826771
20
-4.3593087007874018
11
7.2014357480314963
21
-4.3597496062992125
0
LINE
8
BLACK
6
CONTINUOUS
10
7.2014357480314963
20
-4.3597496062992125
11
7.2022503937007869
21
-4.3605642519685039
0
LINE
8
BLACK
6
CONTINUOUS
10
7.2022503937007869
20
-4.3605642519685039
11
7.2026912992125984
21
-4.3616286614173223
0
LINE
8
BLACK
6
CONTINUOUS
10
7.2026912992125984
20
-4.3616286614173223
11
7.2027480314960632
21
-4.3622047244094491
0
LINE
8
BLACK
6
CONTINUOUS
10
7.2027480314960632
20
-4.3622047244094491
11
7.2027480314960632
21
-4.6377952755905509
0
LINE
8
BLACK
6
CONTINUOUS
10
7.2027480314960632
20
-4.6377952755905509
11
7.2026912992125984
21
-4.6383713385826768
0
LINE
8
BLACK
6
CONTINUOUS
10
7.2026912992125984
20
-4.6383713385826768
11
7.2022503937007869
21
-4.6394357480314961
0
LINE
8
BLACK
6
CONTINUOUS
10
7.2022503937007869
20
-4.6394357480314961
11
7.2014357480314963
21
-4.6402503937007875
0
LINE
8
BLACK
6
CONTINUOUS
10
7.2014357480314963
20
-4.6402503937007875
11
7.2003713385826771
21
-4.6406912992125982
0
LINE
8
BLACK
6
CONTINUOUS
10
7.2003713385826771
20
-4.6406912992125982
11
7.1997952755905512
21
-4.640748031496063
0
LINE
8
BLACK
6
CONTINUOUS
10
7.1997952755905512
20
-4.640748031496063
11
6.9242047244094485
21
-4.640748031496063
0
LINE
8
BLACK
6
CONTINUOUS
10
6.9242047244094485
20
-4.640748031496063
11
6.9236286614173226
21
-4.6406912992125982
0
LINE
8
BLACK
6
CONTINUOUS
10
6.9236286614173226
20
-4.6406912992125982
11
6.9225642519685042
21
-4.6402503937007875
0
LINE
8
BLACK
6
CONTINUOUS
10
6.9225642519685042
20
-4.6402503937007875
11
6.9217496062992128
21
-4.6394357480314961
0
LINE
8
BLACK
6
CONTINUOUS
10
6.9217496062992128
20
-4.6394357480314961
11
6.9213087007874012
21
-4.6383713385826768
0
LINE
8
BLACK
6
CONTINUOUS
10
6.9213087007874012
20
-4.6383713385826768
11
6.9212519685039364
21
-4.6377952755905509
0
LINE
8
BLACK
6
CONTINUOUS
10
6.9212519685039364
20
-4.6377952755905509
11
6.9212519685039364
21
-4.3622047244094491
0
LINE
8
BLACK
6
CONTINUOUS
10
6.9212519685039364
20
-4.3622047244094491
11
6.9213087007874012
21
-4.3616286614173223
0
LINE
8
BLACK
6
CONTINUOUS
10
6.9213087007874012
20
-4.3616286614173223
11
6.9217496062992128
21
-4.3605642519685039
0
LINE
8
BLACK
6
CONTINUOUS
10
6.9217496062992128
20
-4.3605642519685039
11
6.9225642519685042
21
-4.3597496062992125
0
LINE
8
BLACK
6
CONTINUOUS
10
6.9225642519685042
20
-4.3597496062992125
11
6.9236286614173226
21
-4.3593087007874018
0
LINE
8
BLACK
6
CONTINUOUS
10
6.9236286614173226
20
-4.3593087007874018
11
6.9242047244094485
21
-4.359251968503937
0
LINE
8
BLACK
6
CONTINUOUS
10
6.9242047244094485
20
-4.359251968503937
11
7.1997952755905512
21
-4.359251968503937
0
LINE
8
BLACK
6
CONTINUOUS
10
7.1997952755905512
20
-4.359251968503937
11
7.2003713385826771
21
-4.3593087007874018
0
LINE
8
BLACK
6
CONTINUOUS
10
6.9271574803149605
20
-4.5828740157480317
11
6.9271574803149605
21
-4.6348425196850389
0
LINE
8
BLACK
6
CONTINUOUS
10
6.9271574803149605
20
-4.6348425196850389
11
6.9791259842519686
21
-4.6348425196850389
0
LINE
8
BLACK
6
CONTINUOUS
10
6.9791259842519686
20
-4.6348425196850389
11
6.9791259842519686
21
-4.6230314960629917
0
LINE
8
BLACK
6
CONTINUOUS
10
6.9791259842519686
20
-4.6230314960629917
11
6.9419212598425197
21
-4.6230314960629917
0
LINE
8
BLACK
6
CONTINUOUS
10
6.9419212598425197
20
-4.6230314960629917
11
6.9413451968503939
21
-4.6229747637795278
0
LINE
8
BLACK
6
CONTINUOUS
10
6.9413451968503939
20
-4.6229747637795278
11
6.9402807874015746
21
-4.6225338582677162
0
LINE
8
BLACK
6
CONTINUOUS
10
6.9402807874015746
20
-4.6225338582677162
11
6.9394661417322832
21
-4.6217192125984248
0
LINE
8
BLACK
6
CONTINUOUS
10
6.9394661417322832
20
-4.6217192125984248
11
6.9390252362204725
21
-4.6206548031496064
0
LINE
8
BLACK
6
CONTINUOUS
10
6.9390252362204725
20
-4.6206548031496064
11
6.9389685039370077
21
-4.6200787401574805
0
LINE
8
BLACK
6
CONTINUOUS
10
6.9389685039370077
20
-4.6200787401574805
11
6.9389685039370077
21
-4.5828740157480317
0
LINE
8
BLACK
6
CONTINUOUS
10
6.9389685039370077
20
-4.5828740157480317
11
6.9271574803149605
21
-4.5828740157480317
0
LINE
8
BLACK
6
CONTINUOUS
10
6.9850314960629918
20
-4.3651574803149602
11
6.9850314960629918
21
-4.4200787401574804
0
LINE
8
BLACK
6
CONTINUOUS
10
6.9850314960629918
20
-4.4200787401574804
11
6.984974763779527
21
-4.4206548031496062
0
LINE
8
BLACK
6
CONTINUOUS
10
6.984974763779527
20
-4.4206548031496062
11
6.9845338582677163
21
-4.4217192125984255
0
LINE
8
BLACK
6
CONTINUOUS
10
6.9845338582677163
20
-4.4217192125984255
11
6.9837192125984249
21
-4.4225338582677161
0
LINE
8
BLACK
6
CONTINUOUS
10
6.9837192125984249
20
-4.4225338582677161
11
6.9826548031496065
21
-4.4229747637795276
0
LINE
8
BLACK
6
CONTINUOUS
10
6.9826548031496065
20
-4.4229747637795276
11
6.9820787401574798
21
-4.4230314960629924
0
LINE
8
BLACK
6
CONTINUOUS
10
6.9820787401574798
20
-4.4230314960629924
11
6.9271574803149605
21
-4.4230314960629924
0
LINE
8
BLACK
6
CONTINUOUS
10
6.9271574803149605
20
-4.4230314960629924
11
6.9271574803149605
21
-4.5769685039370076
0
LINE
8
BLACK
6
CONTINUOUS
10
6.9271574803149605
20
-4.5769685039370076
11
6.9820787401574798
21
-4.5769685039370076
0
LINE
8
BLACK
6
CONTINUOUS
10
6.9820787401574798
20
-4.5769685039370076
11
6.9826548031496065
21
-4.5770252362204724
0
LINE
8
BLACK
6
CONTINUOUS
10
6.9826548031496065
20
-4.5770252362204724
11
6.9837192125984249
21
-4.5774661417322831
0
LINE
8
BLACK
6
CONTINUOUS
10
6.9837192125984249
20
-4.5774661417322831
11
6.9845338582677163
21
-4.5782807874015745
0
LINE
8
BLACK
6
CONTINUOUS
10
6.9845338582677163
20
-4.5782807874015745
11
6.984974763779527
21
-4.5793451968503938
0
LINE
8
BLACK
6
CONTINUOUS
10
6.984974763779527
20
-4.5793451968503938
11
6.9850314960629918
21
-4.5799212598425196
0
LINE
8
BLACK
6
CONTINUOUS
10
6.9850314960629918
20
-4.5799212598425196
11
6.9850314960629918
21
-4.6348425196850389
0
LINE
8
BLACK
6
CONTINUOUS
10
6.9850314960629918
20
-4.6348425196850389
11
7.1389685039370079
21
-4.6348425196850389
0
LINE
8
BLACK
6
CONTINUOUS
10
7.1389685039370079
20
-4.6348425196850389
11
7.1389685039370079
21
-4.5799212598425196
0
LINE
8
BLACK
6
CONTINUOUS
10
7.1389685039370079
20
-4.5799212598425196
11
7.1390252362204727
21
-4.5793451968503938
0
LINE
8
BLACK
6
CONTINUOUS
10
7.1390252362204727
20
-4.5793451968503938
11
7.1394661417322833
21
-4.5782807874015745
0
LINE
8
BLACK
6
CONTINUOUS
10
7.1394661417322833
20
-4.5782807874015745
11
7.1402807874015748
21
-4.5774661417322831
0
LINE
8
BLACK
6
CONTINUOUS
10
7.1402807874015748
20
-4.5774661417322831
11
7.1413451968503932
21
-4.5770252362204724
0
LINE
8
BLACK
6
CONTINUOUS
10
7.1413451968503932
20
-4.5770252362204724
11
7.1419212598425199
21
-4.5769685039370076
0
LINE
8
BLACK
6
CONTINUOUS
10
7.1419212598425199
20
-4.5769685039370076
11
7.1968425196850392
21
-4.5769685039370076
0
LINE
8
BLACK
6
CONTINUOUS
10
7.1968425196850392
20
-4.5769685039370076
11
7.1968425196850392
21
-4.4230314960629924
0
LINE
8
BLACK
6
CONTINUOUS
10
7.1968425196850392
20
-4.4230314960629924
11
7.1419212598425199
21
-4.4230314960629924
0
LINE
8
BLACK
6
CONTINUOUS
10
7.1419212598425199
20
-4.4230314960629924
11
7.1413451968503932
21
-4.4229747637795276
0
LINE
8
BLACK
6
CONTINUOUS
10
7.1413451968503932
20
-4.4229747637795276
11
7.1402807874015748
21
-4.4225338582677161
0
LINE
8
BLACK
6
CONTINUOUS
10
7.1402807874015748
20
-4.4225338582677161
11
7.1394661417322833
21
-4.4217192125984255
0
LINE
8
BLACK
6
CONTINUOUS
10
7.1394661417322833
20
-4.4217192125984255
11
7.1390252362204727
21
-4.4206548031496062
0
LINE
8
BLACK
6
CONTINUOUS
10
7.1390252362204727
20
-4.4206548031496062
11
7.1389685039370079
21
-4.4200787401574804
0
LINE
8
BLACK
6
CONTINUOUS
10
7.1389685039370079
20
-4.4200787401574804
11
7.1389685039370079
21
-4.3651574803149602
0
LINE
8
BLACK
6
CONTINUOUS
10
7.1389685039370079
20
-4.3651574803149602
11
6.9850314960629918
21
-4.3651574803149602
0
LINE
8
BLACK
6
CONTINUOUS
10
7.185031496062992
20
-4.5828740157480317
11
7.185031496062992
21
-4.6200787401574805
0
LINE
8
BLACK
6
CONTINUOUS
10
7.185031496062992
20
-4.6200787401574805
11
7.1849747637795272
21
-4.6206548031496064
0
LINE
8
BLACK
6
CONTINUOUS
10
7.1849747637795272
20
-4.6206548031496064
11
7.1845338582677165
21
-4.6217192125984248
0
LINE
8
BLACK
6
CONTINUOUS
10
7.1845338582677165
20
-4.6217192125984248
11
7.1837192125984251
21
-4.6225338582677162
0
LINE
8
BLACK
6
CONTINUOUS
10
7.1837192125984251
20
-4.6225338582677162
11
7.1826548031496058
21
-4.6229747637795278
0
LINE
8
BLACK
6
CONTINUOUS
10
7.1826548031496058
20
-4.6229747637795278
11
7.1820787401574799
21
-4.6230314960629917
0
LINE
8
BLACK
6
CONTINUOUS
10
7.1820787401574799
20
-4.6230314960629917
11
7.144874015748031
21
-4.6230314960629917
0
LINE
8
BLACK
6
CONTINUOUS
10
7.144874015748031
20
-4.6230314960629917
11
7.144874015748031
21
-4.6348425196850389
0
LINE
8
BLACK
6
CONTINUOUS
10
7.144874015748031
20
-4.6348425196850389
11
7.1968425196850392
21
-4.6348425196850389
0
LINE
8
BLACK
6
CONTINUOUS
10
7.1968425196850392
20
-4.6348425196850389
11
7.1968425196850392
21
-4.5828740157480317
0
LINE
8
BLACK
6
CONTINUOUS
10
7.1968425196850392
20
-4.5828740157480317
11
7.185031496062992
21
-4.5828740157480317
0
LINE
8
BLACK
6
CONTINUOUS
10
7.144874015748031
20
-4.5828740157480317
11
7.144874015748031
21
-4.6171259842519685
0
LINE
8
BLACK
6
CONTINUOUS
10
7.144874015748031
20
-4.6171259842519685
11
7.1791259842519679
21
-4.6171259842519685
0
LINE
8
BLACK
6
CONTINUOUS
10
7.1791259842519679
20
-4.6171259842519685
11
7.1791259842519679
21
-4.5828740157480317
0
LINE
8
BLACK
6
CONTINUOUS
10
7.1791259842519679
20
-4.5828740157480317
11
7.144874015748031
21
-4.5828740157480317
0
LINE
8
BLACK
6
CONTINUOUS
10
6.9448740157480318
20
-4.5828740157480317
11
6.9448740157480318
21
-4.6171259842519685
0
LINE
8
BLACK
6
CONTINUOUS
10
6.9448740157480318
20
-4.6171259842519685
11
6.9791259842519686
21
-4.6171259842519685
0
LINE
8
BLACK
6
CONTINUOUS
10
6.9791259842519686
20
-4.6171259842519685
11
6.9791259842519686
21
-4.5828740157480317
0
LINE
8
BLACK
6
CONTINUOUS
10
6.9791259842519686
20
-4.5828740157480317
11
6.9448740157480318
21
-4.5828740157480317
0
LINE
8
BLACK
6
CONTINUOUS
10
7.144874015748031
20
-4.3828740157480315
11
7.144874015748031
21
-4.4171259842519683
0
LINE
8
BLACK
6
CONTINUOUS
10
7.144874015748031
20
-4.4171259842519683
11
7.1791259842519679
21
-4.4171259842519683
0
LINE
8
BLACK
6
CONTINUOUS
10
7.1791259842519679
20
-4.4171259842519683
11
7.1791259842519679
21
-4.3828740157480315
0
LINE
8
BLACK
6
CONTINUOUS
10
7.1791259842519679
20
-4.3828740157480315
11
7.144874015748031
21
-4.3828740157480315
0
LINE
8
BLACK
6
CONTINUOUS
10
7.144874015748031
20
-4.3651574803149602
11
7.144874015748031
21
-4.3769685039370074
0
LINE
8
BLACK
6
CONTINUOUS
10
7.144874015748031
20
-4.3769685039370074
11
7.1820787401574799
21
-4.3769685039370074
0
LINE
8
BLACK
6
CONTINUOUS
10
7.1820787401574799
20
-4.3769685039370074
11
7.1826548031496058
21
-4.3770252362204722
0
LINE
8
BLACK
6
CONTINUOUS
10
7.1826548031496058
20
-4.3770252362204722
11
7.1837192125984251
21
-4.3774661417322838
0
LINE
8
BLACK
6
CONTINUOUS
10
7.1837192125984251
20
-4.3774661417322838
11
7.1845338582677165
21
-4.3782807874015743
0
LINE
8
BLACK
6
CONTINUOUS
10
7.1845338582677165
20
-4.3782807874015743
11
7.1849747637795272
21
-4.3793451968503936
0
LINE
8
BLACK
6
CONTINUOUS
10
7.1849747637795272
20
-4.3793451968503936
11
7.185031496062992
21
-4.3799212598425195
0
LINE
8
BLACK
6
CONTINUOUS
10
7.185031496062992
20
-4.3799212598425195
11
7.185031496062992
21
-4.4171259842519683
0
LINE
8
BLACK
6
CONTINUOUS
10
7.185031496062992
20
-4.4171259842519683
11
7.1968425196850392
21
-4.4171259842519683
0
LINE
8
BLACK
6
CONTINUOUS
10
7.1968425196850392
20
-4.4171259842519683
11
7.1968425196850392
21
-4.3651574803149602
0
LINE
8
BLACK
6
CONTINUOUS
10
7.1968425196850392
20
-4.3651574803149602
11
7.144874015748031
21
-4.3651574803149602
0
LINE
8
BLACK
6
CONTINUOUS
10
6.9271574803149605
20
-4.3651574803149602
11
6.9271574803149605
21
-4.4171259842519683
0
LINE
8
BLACK
6
CONTINUOUS
10
6.9271574803149605
20
-4.4171259842519683
11
6.9389685039370077
21
-4.4171259842519683
0
LINE
8
BLACK
6
CONTINUOUS
10
6.9389685039370077
20
-4.4171259842519683
11
6.9389685039370077
21
-4.3799212598425195
0
LINE
8
BLACK
6
CONTINUOUS
10
6.9389685039370077
20
-4.3799212598425195
11
6.9390252362204725
21
-4.3793451968503936
0
LINE
8
BLACK
6
CONTINUOUS
10
6.9390252362204725
20
-4.3793451968503936
11
6.9394661417322832
21
-4.3782807874015743
0
LINE
8
BLACK
6
CONTINUOUS
10
6.9394661417322832
20
-4.3782807874015743
11
6.9402807874015746
21
-4.3774661417322838
0
LINE
8
BLACK
6
CONTINUOUS
10
6.9402807874015746
20
-4.3774661417322838
11
6.9413451968503939
21
-4.3770252362204722
0
LINE
8
BLACK
6
CONTINUOUS
10
6.9413451968503939
20
-4.3770252362204722
11
6.9419212598425197
21
-4.3769685039370074
0
LINE
8
BLACK
6
CONTINUOUS
10
6.9419212598425197
20
-4.3769685039370074
11
6.9791259842519686
21
-4.3769685039370074
0
LINE
8
BLACK
6
CONTINUOUS
10
6.9791259842519686
20
-4.3769685039370074
11
6.9791259842519686
21
-4.3651574803149602
0
LINE
8
BLACK
6
CONTINUOUS
10
6.9791259842519686
20
-4.3651574803149602
11
6.9271574803149605
21
-4.3651574803149602
0
LINE
8
BLACK
6
CONTINUOUS
10
6.9448740157480318
20
-4.3828740157480315
11
6.9448740157480318
21
-4.4171259842519683
0
LINE
8
BLACK
6
CONTINUOUS
10
6.9448740157480318
20
-4.4171259842519683
11
6.9791259842519686
21
-4.4171259842519683
0
LINE
8
BLACK
6
CONTINUOUS
10
6.9791259842519686
20
-4.4171259842519683
11
6.9791259842519686
21
-4.3828740157480315
0
LINE
8
BLACK
6
CONTINUOUS
10
6.9791259842519686
20
-4.3828740157480315
11
6.9448740157480318
21
-4.3828740157480315
0
LINE
8
BLACK
6
CONTINUOUS
10
6.0894094488188975
20
-3.9970666141732281
11
6.0896062992125986
21
-3.997047244094488
0
LINE
8
BLACK
6
CONTINUOUS
10
6.0896062992125986
20
-3.997047244094488
11
6.1896062992125982
21
-3.997047244094488
0
LINE
8
BLACK
6
CONTINUOUS
10
6.1896062992125982
20
-3.997047244094488
11
6.1898031496062993
21
-3.9970666141732281
0
LINE
8
BLACK
6
CONTINUOUS
10
6.1898031496062993
20
-3.9970666141732281
11
6.1899999999999995
21
-3.997047244094488
0
LINE
8
BLACK
6
CONTINUOUS
10
6.1899999999999995
20
-3.997047244094488
11
6.29
21
-3.997047244094488
0
LINE
8
BLACK
6
CONTINUOUS
10
6.29
20
-3.997047244094488
11
6.2901968503937002
21
-3.9970666141732281
0
LINE
8
BLACK
6
CONTINUOUS
10
6.2901968503937002
20
-3.9970666141732281
11
6.2903937007874013
21
-3.997047244094488
0
LINE
8
BLACK
6
CONTINUOUS
10
6.2903937007874013
20
-3.997047244094488
11
6.390393700787401
21
-3.997047244094488
0
LINE
8
BLACK
6
CONTINUOUS
10
6.390393700787401
20
-3.997047244094488
11
6.3905905511811021
21
-3.9970666141732281
0
LINE
8
BLACK
6
CONTINUOUS
10
6.3905905511811021
20
-3.9970666141732281
11
6.3907874015748032
21
-3.997047244094488
0
LINE
8
BLACK
6
CONTINUOUS
10
6.3907874015748032
20
-3.997047244094488
11
6.4907874015748028
21
-3.997047244094488
0
LINE
8
BLACK
6
CONTINUOUS
10
6.4907874015748028
20
-3.997047244094488
11
6.4913634645669287
21
-3.9971039763779528
0
LINE
8
BLACK
6
CONTINUOUS
10
6.4913634645669287
20
-3.9971039763779528
11
6.4924278740157479
21
-3.9975448818897639
0
LINE
8
BLACK
6
CONTINUOUS
10
6.4924278740157479
20
-3.9975448818897639
11
6.4932425196850394
21
-3.9983595275590549
0
LINE
8
BLACK
6
CONTINUOUS
10
6.4932425196850394
20
-3.9983595275590549
11
6.49368342519685
21
-3.9994239370078741
0
LINE
8
BLACK
6
CONTINUOUS
10
6.49368342519685
20
-3.9994239370078741
11
6.4937401574803149
21
-4.
0
LINE
8
BLACK
6
CONTINUOUS
10
6.4937401574803149
20
-4.
11
6.4937401574803149
21
-4.2000000000000002
0
LINE
8
BLACK
6
CONTINUOUS
10
6.4937401574803149
20
-4.2000000000000002
11
6.49368342519685
21
-4.200576062992126
0
LINE
8
BLACK
6
CONTINUOUS
10
6.49368342519685
20
-4.200576062992126
11
6.4932425196850394
21
-4.2016404724409444
0
LINE
8
BLACK
6
CONTINUOUS
10
6.4932425196850394
20
-4.2016404724409444
11
6.4924278740157479
21
-4.2024551181102359
0
LINE
8
BLACK
6
CONTINUOUS
10
6.4924278740157479
20
-4.2024551181102359
11
6.4913634645669287
21
-4.2028960236220474
0
LINE
8
BLACK
6
CONTINUOUS
10
6.4913634645669287
20
-4.2028960236220474
11
6.4907874015748028
21
-4.2029527559055113
0
LINE
8
BLACK
6
CONTINUOUS
10
6.4907874015748028
20
-4.2029527559055113
11
6.3907874015748032
21
-4.2029527559055113
0
LINE
8
BLACK
6
CONTINUOUS
10
6.3907874015748032
20
-4.2029527559055113
11
6.3905905511811021
21
-4.2029333464566925
0
LINE
8
BLACK
6
CONTINUOUS
10
6.3905905511811021
20
-4.2029333464566925
11
6.390393700787401
21
-4.2029527559055113
0
LINE
8
BLACK
6
CONTINUOUS
10
6.390393700787401
20
-4.2029527559055113
11
6.2903937007874013
21
-4.2029527559055113
0
LINE
8
BLACK
6
CONTINUOUS
10
6.2903937007874013
20
-4.2029527559055113
11
6.2901968503937002
21
-4.2029333464566925
0
LINE
8
BLACK
6
CONTINUOUS
10
6.2901968503937002
20
-4.2029333464566925
11
6.29
21
-4.2029527559055113
0
LINE
8
BLACK
6
CONTINUOUS
10
6.29
20
-4.2029527559055113
11
6.1899999999999995
21
-4.2029527559055113
0
LINE
8
BLACK
6
CONTINUOUS
10
6.1899999999999995
20
-4.2029527559055113
11
6.1898031496062993
21
-4.2029333464566925
0
LINE
8
BLACK
6
CONTINUOUS
10
6.1898031496062993
20
-4.2029333464566925
11
6.1896062992125982
21
-4.2029527559055113
0
LINE
8
BLACK
6
CONTINUOUS
10
6.1896062992125982
20
-4.2029527559055113
11
6.0896062992125986
21
-4.2029527559055113
0
LINE
8
BLACK
6
CONTINUOUS
10
6.0896062992125986
20
-4.2029527559055113
11
6.0894094488188975
21
-4.2029333464566925
0
LINE
8
BLACK
6
CONTINUOUS
10
6.0894094488188975
20
-4.2029333464566925
11
6.0892125984251964
21
-4.2029527559055113
0
LINE
8
BLACK
6
CONTINUOUS
10
6.0892125984251964
20
-4.2029527559055113
11
5.9892125984251967
21
-4.2029527559055113
0
LINE
8
BLACK
6
CONTINUOUS
10
5.9892125984251967
20
-4.2029527559055113
11
5.9886365354330708
21
-4.2028960236220474
0
LINE
8
BLACK
6
CONTINUOUS
10
5.9886365354330708
20
-4.2028960236220474
11
5.9875721259842516
21
-4.2024551181102359
0
LINE
8
BLACK
6
CONTINUOUS
10
5.9875721259842516
20
-4.2024551181102359
11
5.9867574803149601
21
-4.2016404724409444
0
LINE
8
BLACK
6
CONTINUOUS
10
5.9867574803149601
20
-4.2016404724409444
11
5.9863165748031495
21
-4.200576062992126
0
LINE
8
BLACK
6
CONTINUOUS
10
5.9863165748031495
20
-4.200576062992126
11
5.9862598425196847
21
-4.2000000000000002
0
LINE
8
BLACK
6
CONTINUOUS
10
5.9862598425196847
20
-4.2000000000000002
11
5.9862598425196847
21
-4.
0
LINE
8
BLACK
6
CONTINUOUS
10
5.9862598425196847
20
-4.
11
5.9863165748031495
21
-3.9994239370078741
0
LINE
8
BLACK
6
CONTINUOUS
10
5.9863165748031495
20
-3.9994239370078741
11
5.9867574803149601
21
-3.9983595275590549
0
LINE
8
BLACK
6
CONTINUOUS
10
5.9867574803149601
20
-3.9983595275590549
11
5.9875721259842516
21
-3.9975448818897639
0
LINE
8
BLACK
6
CONTINUOUS
10
5.9875721259842516
20
-3.9975448818897639
11
5.9886365354330708
21
-3.9971039763779528
0
LINE
8
BLACK
6
CONTINUOUS
10
5.9886365354330708
20
-3.9971039763779528
11
5.9892125984251967
21
-3.997047244094488
0
LINE
8
BLACK
6
CONTINUOUS
10
5.9892125984251967
20
-3.997047244094488
11
6.0892125984251964
21
-3.997047244094488
0
LINE
8
BLACK
6
CONTINUOUS
10
6.0892125984251964
20
-3.997047244094488
11
6.0894094488188975
21
-3.9970666141732281
0
LINE
8
BLACK
6
CONTINUOUS
10
6.3937401574803152
20
-4.002952755905512
11
6.3937401574803152
21
-4.1970472440944881
0
LINE
8
BLACK
6
CONTINUOUS
10
6.3937401574803152
20
-4.1970472440944881
11
6.4878346456692908
21
-4.1970472440944881
0
LINE
8
BLACK
6
CONTINUOUS
10
6.4878346456692908
20
-4.1970472440944881
11
6.4878346456692908
21
-4.002952755905512
0
LINE
8
BLACK
6
CONTINUOUS
10
6.4878346456692908
20
-4.002952755905512
11
6.3937401574803152
21
-4.002952755905512
0
LINE
8
BLACK
6
CONTINUOUS
10
6.2933464566929134
20
-4.002952755905512
11
6.2933464566929134
21
-4.1970472440944881
0
LINE
8
BLACK
6
CONTINUOUS
10
6.2933464566929134
20
-4.1970472440944881
11
6.3874409448818898
21
-4.1970472440944881
0
LINE
8
BLACK
6
CONTINUOUS
10
6.3874409448818898
20
-4.1970472440944881
11
6.3874409448818898
21
-4.002952755905512
0
LINE
8
BLACK
6
CONTINUOUS
10
6.3874409448818898
20
-4.002952755905512
11
6.2933464566929134
21
-4.002952755905512
0
LINE
8
BLACK
6
CONTINUOUS
10
6.1929527559055115
20
-4.002952755905512
11
6.1929527559055115
21
-4.1970472440944881
0
LINE
8
BLACK
6
CONTINUOUS
10
6.1929527559055115
20
-4.1970472440944881
11
6.287047244094488
21
-4.1970472440944881
0
LINE
8
BLACK
6
CONTINUOUS
10
6.287047244094488
20
-4.1970472440944881
11
6.287047244094488
21
-4.002952755905512
0
LINE
8
BLACK
6
CONTINUOUS
10
6.287047244094488
20
-4.002952755905512
11
6.1929527559055115
21
-4.002952755905512
0
LINE
8
BLACK
6
CONTINUOUS
10
6.0925590551181097
20
-4.002952755905512
11
6.0925590551181097
21
-4.1970472440944881
0
LINE
8
BLACK
6
CONTINUOUS
10
6.0925590551181097
20
-4.1970472440944881
11
6.1866535433070862
21
-4.1970472440944881
0
LINE
8
BLACK
6
CONTINUOUS
10
6.1866535433070862
20
-4.1970472440944881
11
6.1866535433070862
21
-4.002952755905512
0
LINE
8
BLACK
6
CONTINUOUS
10
6.1866535433070862
20
-4.002952755905512
11
6.0925590551181097
21
-4.002952755905512
0
LINE
8
BLACK
6
CONTINUOUS
10
5.9921653543307087
20
-4.002952755905512
11
5.9921653543307087
21
-4.1970472440944881
0
LINE
8
BLACK
6
CONTINUOUS
10
5.9921653543307087
20
-4.1970472440944881
11
6.0862598425196852
21
-4.1970472440944881
0
LINE
8
BLACK
6
CONTINUOUS
10
6.0862598425196852
20
-4.1970472440944881
11
6.0862598425196852
21
-4.002952755905512
0
LINE
8
BLACK
6
CONTINUOUS
10
6.0862598425196852
20
-4.002952755905512
11
5.9921653543307087
21
-4.002952755905512
0
LINE
8
BLACK
6
CONTINUOUS
10
6.6290157480314962
20
-3.9970666141732281
11
6.6292125984251964
21
-3.997047244094488
0
LINE
8
BLACK
6
CONTINUOUS
10
6.6292125984251964
20
-3.997047244094488
11
6.7292125984251969
21
-3.997047244094488
0
LINE
8
BLACK
6
CONTINUOUS
10
6.7292125984251969
20
-3.997047244094488
11
6.7294094488188971
21
-3.9970666141732281
0
LINE
8
BLACK
6
CONTINUOUS
10
6.7294094488188971
20
-3.9970666141732281
11
6.7296062992125982
21
-3.997047244094488
0
LINE
8
BLACK
6
CONTINUOUS
10
6.7296062992125982
20
-3.997047244094488
11
6.8296062992125979
21
-3.997047244094488
0
LINE
8
BLACK
6
CONTINUOUS
10
6.8296062992125979
20
-3.997047244094488
11
6.829803149606299
21
-3.9970666141732281
0
LINE
8
BLACK
6
CONTINUOUS
10
6.829803149606299
20
-3.9970666141732281
11
6.8300000000000001
21
-3.997047244094488
0
LINE
8
BLACK
6
CONTINUOUS
10
6.8300000000000001
20
-3.997047244094488
11
6.9299999999999997
21
-3.997047244094488
0
LINE
8
BLACK
6
CONTINUOUS
10
6.9299999999999997
20
-3.997047244094488
11
6.9305760629921256
21
-3.9971039763779528
0
LINE
8
BLACK
6
CONTINUOUS
10
6.9305760629921256
20
-3.9971039763779528
11
6.9316404724409448
21
-3.9975448818897639
0
LINE
8
BLACK
6
CONTINUOUS
10
6.9316404724409448
20
-3.9975448818897639
11
6.9324551181102363
21
-3.9983595275590549
0
LINE
8
BLACK
6
CONTINUOUS
10
6.9324551181102363
20
-3.9983595275590549
11
6.9328960236220469
21
-3.9994239370078741
0
LINE
8
BLACK
6
CONTINUOUS
10
6.9328960236220469
20
-3.9994239370078741
11
6.9329527559055117
21
-4.
0
LINE
8
BLACK
6
CONTINUOUS
10
6.9329527559055117
20
-4.
11
6.9329527559055117
21
-4.2000000000000002
0
LINE
8
BLACK
6
CONTINUOUS
10
6.9329527559055117
20
-4.2000000000000002
11
6.9328960236220469
21
-4.200576062992126
0
LINE
8
BLACK
6
CONTINUOUS
10
6.9328960236220469
20
-4.200576062992126
11
6.9324551181102363
21
-4.2016404724409444
0
LINE
8
BLACK
6
CONTINUOUS
10
6.9324551181102363
20
-4.2016404724409444
11
6.9316404724409448
21
-4.2024551181102359
0
LINE
8
BLACK
6
CONTINUOUS
10
6.9316404724409448
20
-4.2024551181102359
11
6.9305760629921256
21
-4.2028960236220474
0
LINE
8
BLACK
6
CONTINUOUS
10
6.9305760629921256
20
-4.2028960236220474
11
6.9299999999999997
21
-4.2029527559055113
0
LINE
8
BLACK
6
CONTINUOUS
10
6.9299999999999997
20
-4.2029527559055113
11
6.8300000000000001
21
-4.2029527559055113
0
LINE
8
BLACK
6
CONTINUOUS
10
6.8300000000000001
20
-4.2029527559055113
11
6.829803149606299
21
-4.2029333464566925
0
LINE
8
BLACK
6
CONTINUOUS
10
6.829803149606299
20
-4.2029333464566925
11
6.8296062992125979
21
-4.2029527559055113
0
LINE
8
BLACK
6
CONTINUOUS
10
6.8296062992125979
20
-4.2029527559055113
11
6.7296062992125982
21
-4.2029527559055113
0
LINE
8
BLACK
6
CONTINUOUS
10
6.7296062992125982
20
-4.2029527559055113
11
6.7294094488188971
21
-4.2029333464566925
0
LINE
8
BLACK
6
CONTINUOUS
10
6.7294094488188971
20
-4.2029333464566925
11
6.7292125984251969
21
-4.2029527559055113
0
LINE
8
BLACK
6
CONTINUOUS
10
6.7292125984251969
20
-4.2029527559055113
11
6.6292125984251964
21
-4.2029527559055113
0
LINE
8
BLACK
6
CONTINUOUS
10
6.6292125984251964
20
-4.2029527559055113
11
6.6290157480314962
21
-4.2029333464566925
0
LINE
8
BLACK
6
CONTINUOUS
10
6.6290157480314962
20
-4.2029333464566925
11
6.6288188976377951
21
-4.2029527559055113
0
LINE
8
BLACK
6
CONTINUOUS
10
6.6288188976377951
20
-4.2029527559055113
11
6.5288188976377954
21
-4.2029527559055113
0
LINE
8
BLACK
6
CONTINUOUS
10
6.5288188976377954
20
-4.2029527559055113
11
6.5282428346456696
21
-4.2028960236220474
0
LINE
8
BLACK
6
CONTINUOUS
10
6.5282428346456696
20
-4.2028960236220474
11
6.5271784251968503
21
-4.2024551181102359
0
LINE
8
BLACK
6
CONTINUOUS
10
6.5271784251968503
20
-4.2024551181102359
11
6.5263637795275589
21
-4.2016404724409444
0
LINE
8
BLACK
6
CONTINUOUS
10
6.5263637795275589
20
-4.2016404724409444
11
6.5259228740157482
21
-4.200576062992126
0
LINE
8
BLACK
6
CONTINUOUS
10
6.5259228740157482
20
-4.200576062992126
11
6.5258661417322834
21
-4.2000000000000002
0
LINE
8
BLACK
6
CONTINUOUS
10
6.5258661417322834
20
-4.2000000000000002
11
6.5258661417322834
21
-4.
0
LINE
8
BLACK
6
CONTINUOUS
10
6.5258661417322834
20
-4.
11
6.5259228740157482
21
-3.9994239370078741
0
LINE
8
BLACK
6
CONTINUOUS
10
6.5259228740157482
20
-3.9994239370078741
11
6.5263637795275589
21
-3.9983595275590549
0
LINE
8
BLACK
6
CONTINUOUS
10
6.5263637795275589
20
-3.9983595275590549
11
6.5271784251968503
21
-3.9975448818897639
0
LINE
8
BLACK
6
CONTINUOUS
10
6.5271784251968503
20
-3.9975448818897639
11
6.5282428346456696
21
-3.9971039763779528
0
LINE
8
BLACK
6
CONTINUOUS
10
6.5282428346456696
20
-3.9971039763779528
11
6.5288188976377954
21
-3.997047244094488
0
LINE
8
BLACK
6
CONTINUOUS
10
6.5288188976377954
20
-3.997047244094488
11
6.6288188976377951
21
-3.997047244094488
0
LINE
8
BLACK
6
CONTINUOUS
10
6.6288188976377951
20
-3.997047244094488
11
6.6290157480314962
21
-3.9970666141732281
0
LINE
8
BLACK
6
CONTINUOUS
10
6.8329527559055121
20
-4.002952755905512
11
6.8329527559055121
21
-4.1970472440944881
0
LINE
8
BLACK
6
CONTINUOUS
10
6.8329527559055121
20
-4.1970472440944881
11
6.9270472440944877
21
-4.1970472440944881
0
LINE
8
BLACK
6
CONTINUOUS
10
6.9270472440944877
20
-4.1970472440944881
11
6.9270472440944877
21
-4.002952755905512
0
LINE
8
BLACK
6
CONTINUOUS
10
6.9270472440944877
20
-4.002952755905512
11
6.8329527559055121
21
-4.002952755905512
0
LINE
8
BLACK
6
CONTINUOUS
10
6.7325590551181103
20
-4.002952755905512
11
6.7325590551181103
21
-4.1970472440944881
0
LINE
8
BLACK
6
CONTINUOUS
10
6.7325590551181103
20
-4.1970472440944881
11
6.8266535433070867
21
-4.1970472440944881
0
LINE
8
BLACK
6
CONTINUOUS
10
6.8266535433070867
20
-4.1970472440944881
11
6.8266535433070867
21
-4.002952755905512
0
LINE
8
BLACK
6
CONTINUOUS
10
6.8266535433070867
20
-4.002952755905512
11
6.7325590551181103
21
-4.002952755905512
0
LINE
8
BLACK
6
CONTINUOUS
10
6.6321653543307084
20
-4.002952755905512
11
6.6321653543307084
21
-4.1970472440944881
0
LINE
8
BLACK
6
CONTINUOUS
10
6.6321653543307084
20
-4.1970472440944881
11
6.7262598425196849
21
-4.1970472440944881
0
LINE
8
BLACK
6
CONTINUOUS
10
6.7262598425196849
20
-4.1970472440944881
11
6.7262598425196849
21
-4.002952755905512
0
LINE
8
BLACK
6
CONTINUOUS
10
6.7262598425196849
20
-4.002952755905512
11
6.6321653543307084
21
-4.002952755905512
0
LINE
8
BLACK
6
CONTINUOUS
10
6.5317716535433066
20
-4.002952755905512
11
6.5317716535433066
21
-4.1970472440944881
0
LINE
8
BLACK
6
CONTINUOUS
10
6.5317716535433066
20
-4.1970472440944881
11
6.6258661417322831
21
-4.1970472440944881
0
LINE
8
BLACK
6
CONTINUOUS
10
6.6258661417322831
20
-4.1970472440944881
11
6.6258661417322831
21
-4.002952755905512
0
LINE
8
BLACK
6
CONTINUOUS
10
6.6258661417322831
20
-4.002952755905512
11
6.5317716535433066
21
-4.002952755905512
0
CIRCLE
8
BLACK
10
5.5
20
-4.0999999999999996
40
0.0068897637795276
0
CIRCLE
8
BLACK
10
7.0999999999999996
20
-4.8999999999999995
40
0.0068897637795276
0
CIRCLE
8
BLACK
10
5.4299999999999997
20
-4.6799999999999997
40
0.0068897637795276
0
CIRCLE
8
BLACK
10
5.5300000000000002
20
-4.6799999999999997
40
0.0068897637795276
0
CIRCLE
8
BLACK
10
6.5788188976377953
20
-4.1499999999999995
40
0.0068897637795276
0
CIRCLE
8
BLACK
10
6.5788188976377953
20
-4.0499999999999998
40
0.0068897637795276
0
CIRCLE
8
BLACK
10
6.7796062992125981
20
-4.1499999999999995
40
0.0068897637795276
0
CIRCLE
8
BLACK
10
6.7796062992125981
20
-4.0499999999999998
40
0.0068897637795276
0
CIRCLE
8
BLACK
10
6.440787401574803
20
-4.1499999999999995
40
0.0068897637795276
0
CIRCLE
8
BLACK
10
6.440787401574803
20
-4.0499999999999998
40
0.0068897637795276
0
CIRCLE
8
BLACK
10
7.0620000000000003
20
-4.5
40
0.0068897637795276
0
CIRCLE
8
BLACK
10
6.9619999999999997
20
-4.5999999999999996
40
0.0068897637795276
0
CIRCLE
8
BLACK
10
7.1619999999999999
20
-4.5999999999999996
40
0.0068897637795276
0
CIRCLE
8
BLACK
10
6.9619999999999997
20
-4.3999999999999995
40
0.0068897637795276
0
CIRCLE
8
BLACK
10
7.1619999999999999
20
-4.3999999999999995
40
0.0068897637795276
0
CIRCLE
8
BLACK
10
6.0392125984251965
20
-4.1499999999999995
40
0.0068897637795276
0
CIRCLE
8
BLACK
10
6.0392125984251965
20
-4.0499999999999998
40
0.0068897637795276
0
CIRCLE
8
BLACK
10
6.8799999999999999
20
-4.1499999999999995
40
0.0068897637795276
0
CIRCLE
8
BLACK
10
6.8799999999999999
20
-4.0499999999999998
40
0.0068897637795276
0
CIRCLE
8
BLACK
10
6.1396062992125984
20
-4.1499999999999995
40
0.0068897637795276
0
CIRCLE
8
BLACK
10
6.1396062992125984
20
-4.0499999999999998
40
0.0068897637795276
0
CIRCLE
8
BLACK
10
6.2400000000000002
20
-4.1499999999999995
40
0.0068897637795276
0
CIRCLE
8
BLACK
10
6.2400000000000002
20
-4.0499999999999998
40
0.0068897637795276
0
CIRCLE
8
BLACK
10
6.3403937007874012
20
-4.1499999999999995
40
0.0068897637795276
0
CIRCLE
8
BLACK
10
6.3403937007874012
20
-4.0499999999999998
40
0.0068897637795276
0
CIRCLE
8
BLACK
10
6.6792125984251971
20
-4.1499999999999995
40
0.0068897637795276
0
CIRCLE
8
BLACK
10
6.6792125984251971
20
-4.0499999999999998
40
0.0068897637795276
0
CIRCLE
8
BLACK
10
7.0999999999999996
20
-4.0999999999999996
40
0.0068897637795276
0
CIRCLE
8
BLACK
10
5.7199999999999998
20
-4.1499999999999995
40
0.0068897637795276
0
CIRCLE
8
BLACK
10
5.7199999999999998
20
-4.0499999999999998
40
0.0068897637795276
0
CIRCLE
8
BLACK
10
5.8200000000000003
20
-4.1499999999999995
40
0.0068897637795276
0
CIRCLE
8
BLACK
10
5.8200000000000003
20
-4.0499999999999998
40
0.0068897637795276
0
CIRCLE
8
BLACK
10
5.9199999999999999
20
-4.1499999999999995
40
0.0068897637795276
0
CIRCLE
8
BLACK
10
5.9199999999999999
20
-4.0499999999999998
40
0.0068897637795276
0
CIRCLE
8
BLACK
10
5.5
20
-4.8999999999999995
40
0.0068897637795276
0
CIRCLE
8
BLACK
10
5.4299999999999997
20
-4.4799999999999995
40
0.0068897637795276
0
CIRCLE
8
BLACK
10
5.5300000000000002
20
-4.4799999999999995
40
0.0068897637795276
0
CIRCLE
8
BLACK
10
5.4299999999999997
20
-4.5800000000000001
40
0.0068897637795276
0
CIRCLE
8
BLACK
10
5.5300000000000002
20
-4.5800000000000001
40
0.0068897637795276
0
CIRCLE
8
BLACK
10
5.8585826771653542
20
-4.6730708661417326
40
0.0039370078740157
0
CIRCLE
8
BLACK
10
5.8999212598425199
20
-4.6730708661417326
40
0.0039370078740157
0
CIRCLE
8
BLACK
10
5.9412598425196848
20
-4.6730708661417326
40
0.0039370078740157
0
CIRCLE
8
BLACK
10
5.8585826771653542
20
-4.6317322834645669
40
0.0039370078740157
0
CIRCLE
8
BLACK
10
5.8999212598425199
20
-4.6317322834645669
40
0.0039370078740157
0
CIRCLE
8
BLACK
10
5.9412598425196848
20
-4.6317322834645669
40
0.0039370078740157
0
CIRCLE
8
BLACK
10
5.8585826771653542
20
-4.5903937007874012
40
0.0039370078740157
0
CIRCLE
8
BLACK
10
5.8999212598425199
20
-4.5903937007874012
40
0.0039370078740157
0
CIRCLE
8
BLACK
10
5.9412598425196848
20
-4.5903937007874012
40
0.0039370078740157
  0
ENDSEC
  0
EOF
