  0
SECTION
  2
HEADER
  9
$ANGBASE
  50
0.0
  9
$ANGDIR
  70
1
  9
$MEASUREMENT
  70
0
  0
ENDSEC
  0
SECTION
  2
TABLES
  0
TABLE
  2
LTYPE
  70
4
  0
LTYPE
  5
40F
  2
CONTINUOUS
  70
0
  3
Solid line
  72
65
  73
0
  40
0.0
  0
LTYPE
  5
410
  2
DASHDOT
 70
0
  3
Dash Dot ____ _ ____ _
 72
65
 73
4
 40
2.0
 49
1.25
 49
-0.25
 49
0.25
 49
-0.25
  0
LTYPE
  5
411
  2
DASHED
 70
0
  3
Dashed __ __ __ __ __
 72
65
 73
2
 40
0.75
 49
0.5
 49
-0.25
  0
LTYPE
  5
43B
  2
DOTTED
 70
0
  3
Dotted .  .  .  .
 72
65
 73
2
 40
0.2
 49
0.0
 49
-0.2
  0
ENDTAB
  0
TABLE
  2
STYLE
  70
4
  0
STYLE
  2
KICAD
  70
0
  40
0
  41
1
  42
1
  50
0
  71
0
  3
isocp.shx
  0
STYLE
  2
KICADB
  70
0
  40
0
  41
1
  42
1
  50
0
  71
0
  3
isocp.shx
  0
STYLE
  2
KICADI
  70
0
  40
0
  41
1
  42
1
  50
15
  71
0
  3
isocp.shx
  0
STYLE
  2
KICADBI
  70
0
  40
0
  41
1
  42
1
  50
15
  71
0
  3
isocp.shx
  0
ENDTAB
  0
TABLE
  2
LAYER
  70
1
  0
LAYER
  2
BLACK
  70
0
  62
7
  6
CONTINUOUS
  0
ENDTAB
  0
ENDSEC
  0
SECTION
  2
ENTITIES
0
LINE
8
BLACK
6
CONTINUOUS
10
5.33034
20
-3.13305
11
5.33143
21
-3.13143
0
LINE
8
BLACK
6
CONTINUOUS
10
5.33143
20
-3.13143
11
5.33305
21
-3.13034
0
LINE
8
BLACK
6
CONTINUOUS
10
5.33305
20
-3.13034
11
5.33496
21
-3.12996
0
LINE
8
BLACK
6
CONTINUOUS
10
5.33496
20
-3.12996
11
5.99587
21
-3.12996
0
LINE
8
BLACK
6
CONTINUOUS
10
5.99587
20
-3.12996
11
5.99779
21
-3.13034
0
LINE
8
BLACK
6
CONTINUOUS
10
5.99779
20
-3.13034
11
5.99941
21
-3.13143
0
LINE
8
BLACK
6
CONTINUOUS
10
5.99941
20
-3.13143
11
6.00049
21
-3.13305
0
LINE
8
BLACK
6
CONTINUOUS
10
6.00049
20
-3.13305
11
6.00087
21
-3.13496
0
LINE
8
BLACK
6
CONTINUOUS
10
6.00087
20
-3.13496
11
6.00082
21
-3.13567
0
LINE
8
BLACK
6
CONTINUOUS
10
6.00082
20
-3.13567
11
5.99968
21
-3.14365
0
LINE
8
BLACK
6
CONTINUOUS
10
5.99968
20
-3.14365
11
5.99968
21
-3.17681
0
LINE
8
BLACK
6
CONTINUOUS
10
5.99968
20
-3.17681
11
6.01984
21
-3.17681
0
LINE
8
BLACK
6
CONTINUOUS
10
6.01984
20
-3.17681
11
6.01984
21
-3.14354
0
LINE
8
BLACK
6
CONTINUOUS
10
6.01984
20
-3.14354
11
6.02059
21
-3.13978
0
LINE
8
BLACK
6
CONTINUOUS
10
6.02059
20
-3.13978
11
6.02273
21
-3.13658
0
LINE
8
BLACK
6
CONTINUOUS
10
6.02273
20
-3.13658
11
6.02592
21
-3.13445
0
LINE
8
BLACK
6
CONTINUOUS
10
6.02592
20
-3.13445
11
6.02969
21
-3.1337
0
LINE
8
BLACK
6
CONTINUOUS
10
6.02969
20
-3.1337
11
6.04937
21
-3.1337
0
LINE
8
BLACK
6
CONTINUOUS
10
6.04937
20
-3.1337
11
6.05314
21
-3.13445
0
LINE
8
BLACK
6
CONTINUOUS
10
6.05314
20
-3.13445
11
6.05633
21
-3.13658
0
LINE
8
BLACK
6
CONTINUOUS
10
6.05633
20
-3.13658
11
6.05846
21
-3.13978
0
LINE
8
BLACK
6
CONTINUOUS
10
6.05846
20
-3.13978
11
6.05921
21
-3.14354
0
LINE
8
BLACK
6
CONTINUOUS
10
6.05921
20
-3.14354
11
6.05921
21
-3.17681
0
LINE
8
BLACK
6
CONTINUOUS
10
6.05921
20
-3.17681
11
6.06124
21
-3.17681
0
LINE
8
BLACK
6
CONTINUOUS
10
6.06124
20
-3.17681
11
6.07938
21
-3.15867
0
LINE
8
BLACK
6
CONTINUOUS
10
6.07938
20
-3.15867
11
6.07938
21
-3.14365
0
LINE
8
BLACK
6
CONTINUOUS
10
6.07938
20
-3.14365
11
6.07772
21
-3.13602
0
LINE
8
BLACK
6
CONTINUOUS
10
6.07772
20
-3.13602
11
6.07769
21
-3.13407
0
LINE
8
BLACK
6
CONTINUOUS
10
6.07769
20
-3.13407
11
6.0784
21
-3.13226
0
LINE
8
BLACK
6
CONTINUOUS
10
6.0784
20
-3.13226
11
6.07975
21
-3.13085
0
LINE
8
BLACK
6
CONTINUOUS
10
6.07975
20
-3.13085
11
6.08154
21
-3.13007
0
LINE
8
BLACK
6
CONTINUOUS
10
6.08154
20
-3.13007
11
6.08261
21
-3.12996
0
LINE
8
BLACK
6
CONTINUOUS
10
6.08261
20
-3.12996
11
6.43682
21
-3.12996
0
LINE
8
BLACK
6
CONTINUOUS
10
6.43682
20
-3.12996
11
6.43873
21
-3.13034
0
LINE
8
BLACK
6
CONTINUOUS
10
6.43873
20
-3.13034
11
6.44035
21
-3.13143
0
LINE
8
BLACK
6
CONTINUOUS
10
6.44035
20
-3.13143
11
6.44144
21
-3.13305
0
LINE
8
BLACK
6
CONTINUOUS
10
6.44144
20
-3.13305
11
6.44182
21
-3.13496
0
LINE
8
BLACK
6
CONTINUOUS
10
6.44182
20
-3.13496
11
6.44177
21
-3.13567
0
LINE
8
BLACK
6
CONTINUOUS
10
6.44177
20
-3.13567
11
6.44062
21
-3.14365
0
LINE
8
BLACK
6
CONTINUOUS
10
6.44062
20
-3.14365
11
6.44062
21
-3.17681
0
LINE
8
BLACK
6
CONTINUOUS
10
6.44062
20
-3.17681
11
6.46079
21
-3.17681
0
LINE
8
BLACK
6
CONTINUOUS
10
6.46079
20
-3.17681
11
6.46079
21
-3.14354
0
LINE
8
BLACK
6
CONTINUOUS
10
6.46079
20
-3.14354
11
6.46154
21
-3.13978
0
LINE
8
BLACK
6
CONTINUOUS
10
6.46154
20
-3.13978
11
6.46367
21
-3.13658
0
LINE
8
BLACK
6
CONTINUOUS
10
6.46367
20
-3.13658
11
6.46686
21
-3.13445
0
LINE
8
BLACK
6
CONTINUOUS
10
6.46686
20
-3.13445
11
6.47063
21
-3.1337
0
LINE
8
BLACK
6
CONTINUOUS
10
6.47063
20
-3.1337
11
6.49031
21
-3.1337
0
LINE
8
BLACK
6
CONTINUOUS
10
6.49031
20
-3.1337
11
6.49408
21
-3.13445
0
LINE
8
BLACK
6
CONTINUOUS
10
6.49408
20
-3.13445
11
6.49727
21
-3.13658
0
LINE
8
BLACK
6
CONTINUOUS
10
6.49727
20
-3.13658
11
6.49941
21
-3.13978
0
LINE
8
BLACK
6
CONTINUOUS
10
6.49941
20
-3.13978
11
6.50016
21
-3.14354
0
LINE
8
BLACK
6
CONTINUOUS
10
6.50016
20
-3.14354
11
6.50016
21
-3.17681
0
LINE
8
BLACK
6
CONTINUOUS
10
6.50016
20
-3.17681
11
6.52032
21
-3.17681
0
LINE
8
BLACK
6
CONTINUOUS
10
6.52032
20
-3.17681
11
6.52032
21
-3.14365
0
LINE
8
BLACK
6
CONTINUOUS
10
6.52032
20
-3.14365
11
6.51866
21
-3.13602
0
LINE
8
BLACK
6
CONTINUOUS
10
6.51866
20
-3.13602
11
6.51863
21
-3.13407
0
LINE
8
BLACK
6
CONTINUOUS
10
6.51863
20
-3.13407
11
6.51934
21
-3.13226
0
LINE
8
BLACK
6
CONTINUOUS
10
6.51934
20
-3.13226
11
6.5207
21
-3.13085
0
LINE
8
BLACK
6
CONTINUOUS
10
6.5207
20
-3.13085
11
6.52249
21
-3.13007
0
LINE
8
BLACK
6
CONTINUOUS
10
6.52249
20
-3.13007
11
6.52355
21
-3.12996
0
LINE
8
BLACK
6
CONTINUOUS
10
6.52355
20
-3.12996
11
7.66504
21
-3.12996
0
LINE
8
BLACK
6
CONTINUOUS
10
7.66504
20
-3.12996
11
7.66695
21
-3.13034
0
LINE
8
BLACK
6
CONTINUOUS
10
7.66695
20
-3.13034
11
7.66857
21
-3.13143
0
LINE
8
BLACK
6
CONTINUOUS
10
7.66857
20
-3.13143
11
7.66966
21
-3.13305
0
LINE
8
BLACK
6
CONTINUOUS
10
7.66966
20
-3.13305
11
7.67004
21
-3.13496
0
LINE
8
BLACK
6
CONTINUOUS
10
7.67004
20
-3.13496
11
7.67004
21
-5.06504
0
LINE
8
BLACK
6
CONTINUOUS
10
7.67004
20
-5.06504
11
7.66966
21
-5.06695
0
LINE
8
BLACK
6
CONTINUOUS
10
7.66966
20
-5.06695
11
7.66857
21
-5.06857
0
LINE
8
BLACK
6
CONTINUOUS
10
7.66857
20
-5.06857
11
7.66695
21
-5.06966
0
LINE
8
BLACK
6
CONTINUOUS
10
7.66695
20
-5.06966
11
7.66504
21
-5.07004
0
LINE
8
BLACK
6
CONTINUOUS
10
7.66504
20
-5.07004
11
5.33496
21
-5.07004
0
LINE
8
BLACK
6
CONTINUOUS
10
5.33496
20
-5.07004
11
5.33305
21
-5.06966
0
LINE
8
BLACK
6
CONTINUOUS
10
5.33305
20
-5.06966
11
5.33143
21
-5.06857
0
LINE
8
BLACK
6
CONTINUOUS
10
5.33143
20
-5.06857
11
5.33034
21
-5.06695
0
LINE
8
BLACK
6
CONTINUOUS
10
5.33034
20
-5.06695
11
5.32996
21
-5.06504
0
LINE
8
BLACK
6
CONTINUOUS
10
5.32996
20
-5.06504
11
5.32996
21
-3.13496
0
LINE
8
BLACK
6
CONTINUOUS
10
5.32996
20
-3.13496
11
5.33034
21
-3.13305
0
LINE
8
BLACK
6
CONTINUOUS
10
7.47106
20
-4.23586
11
7.47946
21
-4.23195
0
LINE
8
BLACK
6
CONTINUOUS
10
7.47946
20
-4.23195
11
7.48841
21
-4.22955
0
LINE
8
BLACK
6
CONTINUOUS
10
7.48841
20
-4.22955
11
7.49764
21
-4.22874
0
LINE
8
BLACK
6
CONTINUOUS
10
7.49764
20
-4.22874
11
7.50687
21
-4.22955
0
LINE
8
BLACK
6
CONTINUOUS
10
7.50687
20
-4.22955
11
7.51582
21
-4.23195
0
LINE
8
BLACK
6
CONTINUOUS
10
7.51582
20
-4.23195
11
7.52421
21
-4.23586
0
LINE
8
BLACK
6
CONTINUOUS
10
7.52421
20
-4.23586
11
7.5273
21
-4.23803
0
LINE
8
BLACK
6
CONTINUOUS
10
7.5273
20
-4.23803
11
7.54183
21
-4.2235
0
LINE
8
BLACK
6
CONTINUOUS
10
7.54183
20
-4.2235
11
7.54083
21
-4.22266
0
LINE
8
BLACK
6
CONTINUOUS
10
7.54083
20
-4.22266
11
7.53183
21
-4.21704
0
LINE
8
BLACK
6
CONTINUOUS
10
7.53183
20
-4.21704
11
7.52211
21
-4.21279
0
LINE
8
BLACK
6
CONTINUOUS
10
7.52211
20
-4.21279
11
7.51188
21
-4.20998
0
LINE
8
BLACK
6
CONTINUOUS
10
7.51188
20
-4.20998
11
7.50135
21
-4.20868
0
LINE
8
BLACK
6
CONTINUOUS
10
7.50135
20
-4.20868
11
7.49074
21
-4.20891
0
LINE
8
BLACK
6
CONTINUOUS
10
7.49074
20
-4.20891
11
7.48028
21
-4.21067
0
LINE
8
BLACK
6
CONTINUOUS
10
7.48028
20
-4.21067
11
7.47018
21
-4.21392
0
LINE
8
BLACK
6
CONTINUOUS
10
7.47018
20
-4.21392
11
7.46065
21
-4.2186
0
LINE
8
BLACK
6
CONTINUOUS
10
7.46065
20
-4.2186
11
7.45347
21
-4.22352
0
LINE
8
BLACK
6
CONTINUOUS
10
7.45347
20
-4.22352
11
7.46797
21
-4.23803
0
LINE
8
BLACK
6
CONTINUOUS
10
7.46797
20
-4.23803
11
7.47106
21
-4.23586
0
LINE
8
BLACK
6
CONTINUOUS
10
7.42595
20
-4.7232
11
7.43204
21
-4.72672
0
LINE
8
BLACK
6
CONTINUOUS
10
7.43204
20
-4.72672
11
7.43898
21
-4.72795
0
LINE
8
BLACK
6
CONTINUOUS
10
7.43898
20
-4.72795
11
7.44961
21
-4.72795
0
LINE
8
BLACK
6
CONTINUOUS
10
7.44961
20
-4.72795
11
7.44961
21
-4.70768
0
LINE
8
BLACK
6
CONTINUOUS
10
7.44961
20
-4.70768
11
7.43898
21
-4.70768
0
LINE
8
BLACK
6
CONTINUOUS
10
7.43898
20
-4.70768
11
7.43898
21
-4.67441
0
LINE
8
BLACK
6
CONTINUOUS
10
7.43898
20
-4.67441
11
7.41871
21
-4.67441
0
LINE
8
BLACK
6
CONTINUOUS
10
7.41871
20
-4.67441
11
7.41871
21
-4.70767
0
LINE
8
BLACK
6
CONTINUOUS
10
7.41871
20
-4.70767
11
7.42142
21
-4.71781
0
LINE
8
BLACK
6
CONTINUOUS
10
7.42142
20
-4.71781
11
7.42595
21
-4.7232
0
LINE
8
BLACK
6
CONTINUOUS
10
7.30981
20
-4.7232
11
7.3159
21
-4.72672
0
LINE
8
BLACK
6
CONTINUOUS
10
7.3159
20
-4.72672
11
7.32284
21
-4.72795
0
LINE
8
BLACK
6
CONTINUOUS
10
7.32284
20
-4.72795
11
7.33346
21
-4.72795
0
LINE
8
BLACK
6
CONTINUOUS
10
7.33346
20
-4.72795
11
7.33346
21
-4.70768
0
LINE
8
BLACK
6
CONTINUOUS
10
7.33346
20
-4.70768
11
7.32283
21
-4.70768
0
LINE
8
BLACK
6
CONTINUOUS
10
7.32283
20
-4.70768
11
7.32283
21
-4.67441
0
LINE
8
BLACK
6
CONTINUOUS
10
7.32283
20
-4.67441
11
7.30257
21
-4.67441
0
LINE
8
BLACK
6
CONTINUOUS
10
7.30257
20
-4.67441
11
7.30257
21
-4.70767
0
LINE
8
BLACK
6
CONTINUOUS
10
7.30257
20
-4.70767
11
7.30528
21
-4.71781
0
LINE
8
BLACK
6
CONTINUOUS
10
7.30528
20
-4.71781
11
7.30981
21
-4.7232
0
LINE
8
BLACK
6
CONTINUOUS
10
7.49045
20
-4.72523
11
7.49584
21
-4.72071
0
LINE
8
BLACK
6
CONTINUOUS
10
7.49584
20
-4.72071
11
7.49936
21
-4.71461
0
LINE
8
BLACK
6
CONTINUOUS
10
7.49936
20
-4.71461
11
7.50058
21
-4.70767
0
LINE
8
BLACK
6
CONTINUOUS
10
7.50058
20
-4.70767
11
7.50058
21
-4.67441
0
LINE
8
BLACK
6
CONTINUOUS
10
7.50058
20
-4.67441
11
7.48031
21
-4.67441
0
LINE
8
BLACK
6
CONTINUOUS
10
7.48031
20
-4.67441
11
7.48031
21
-4.70768
0
LINE
8
BLACK
6
CONTINUOUS
10
7.48031
20
-4.70768
11
7.46969
21
-4.70768
0
LINE
8
BLACK
6
CONTINUOUS
10
7.46969
20
-4.70768
11
7.46969
21
-4.72795
0
LINE
8
BLACK
6
CONTINUOUS
10
7.46969
20
-4.72795
11
7.48031
21
-4.72795
0
LINE
8
BLACK
6
CONTINUOUS
10
7.48031
20
-4.72795
11
7.49045
21
-4.72523
0
LINE
8
BLACK
6
CONTINUOUS
10
7.32283
20
-4.62106
11
7.33346
21
-4.62106
0
LINE
8
BLACK
6
CONTINUOUS
10
7.33346
20
-4.62106
11
7.33346
21
-4.60079
0
LINE
8
BLACK
6
CONTINUOUS
10
7.33346
20
-4.60079
11
7.32284
21
-4.60079
0
LINE
8
BLACK
6
CONTINUOUS
10
7.32284
20
-4.60079
11
7.3127
21
-4.60351
0
LINE
8
BLACK
6
CONTINUOUS
10
7.3127
20
-4.60351
11
7.30731
21
-4.60803
0
LINE
8
BLACK
6
CONTINUOUS
10
7.30731
20
-4.60803
11
7.30379
21
-4.61413
0
LINE
8
BLACK
6
CONTINUOUS
10
7.30379
20
-4.61413
11
7.30257
21
-4.62107
0
LINE
8
BLACK
6
CONTINUOUS
10
7.30257
20
-4.62107
11
7.30257
21
-4.65433
0
LINE
8
BLACK
6
CONTINUOUS
10
7.30257
20
-4.65433
11
7.32283
21
-4.65433
0
LINE
8
BLACK
6
CONTINUOUS
10
7.32283
20
-4.65433
11
7.32283
21
-4.62106
0
LINE
8
BLACK
6
CONTINUOUS
10
7.46643
20
-4.54822
11
7.47633
21
-4.55203
0
LINE
8
BLACK
6
CONTINUOUS
10
7.47633
20
-4.55203
11
7.48668
21
-4.55437
0
LINE
8
BLACK
6
CONTINUOUS
10
7.48668
20
-4.55437
11
7.49725
21
-4.55519
0
LINE
8
BLACK
6
CONTINUOUS
10
7.49725
20
-4.55519
11
7.50784
21
-4.55448
0
LINE
8
BLACK
6
CONTINUOUS
10
7.50784
20
-4.55448
11
7.51821
21
-4.55225
0
LINE
8
BLACK
6
CONTINUOUS
10
7.51821
20
-4.55225
11
7.52815
21
-4.54854
0
LINE
8
BLACK
6
CONTINUOUS
10
7.52815
20
-4.54854
11
7.53746
21
-4.54344
0
LINE
8
BLACK
6
CONTINUOUS
10
7.53746
20
-4.54344
11
7.54175
21
-4.5402
0
LINE
8
BLACK
6
CONTINUOUS
10
7.54175
20
-4.5402
11
7.5273
21
-4.52575
0
LINE
8
BLACK
6
CONTINUOUS
10
7.5273
20
-4.52575
11
7.52421
21
-4.52792
0
LINE
8
BLACK
6
CONTINUOUS
10
7.52421
20
-4.52792
11
7.51582
21
-4.53183
0
LINE
8
BLACK
6
CONTINUOUS
10
7.51582
20
-4.53183
11
7.50687
21
-4.53423
0
LINE
8
BLACK
6
CONTINUOUS
10
7.50687
20
-4.53423
11
7.49764
21
-4.53504
0
LINE
8
BLACK
6
CONTINUOUS
10
7.49764
20
-4.53504
11
7.48841
21
-4.53423
0
LINE
8
BLACK
6
CONTINUOUS
10
7.48841
20
-4.53423
11
7.47946
21
-4.53183
0
LINE
8
BLACK
6
CONTINUOUS
10
7.47946
20
-4.53183
11
7.47106
21
-4.52792
0
LINE
8
BLACK
6
CONTINUOUS
10
7.47106
20
-4.52792
11
7.46797
21
-4.52575
0
LINE
8
BLACK
6
CONTINUOUS
10
7.46797
20
-4.52575
11
7.45352
21
-4.5402
0
LINE
8
BLACK
6
CONTINUOUS
10
7.45352
20
-4.5402
11
7.45718
21
-4.54302
0
LINE
8
BLACK
6
CONTINUOUS
10
7.45718
20
-4.54302
11
7.46643
21
-4.54822
0
LINE
8
BLACK
6
CONTINUOUS
10
7.46969
20
-4.60079
11
7.46969
21
-4.62106
0
LINE
8
BLACK
6
CONTINUOUS
10
7.46969
20
-4.62106
11
7.48031
21
-4.62106
0
LINE
8
BLACK
6
CONTINUOUS
10
7.48031
20
-4.62106
11
7.48031
21
-4.65433
0
LINE
8
BLACK
6
CONTINUOUS
10
7.48031
20
-4.65433
11
7.50058
21
-4.65433
0
LINE
8
BLACK
6
CONTINUOUS
10
7.50058
20
-4.65433
11
7.50058
21
-4.62107
0
LINE
8
BLACK
6
CONTINUOUS
10
7.50058
20
-4.62107
11
7.49787
21
-4.61093
0
LINE
8
BLACK
6
CONTINUOUS
10
7.49787
20
-4.61093
11
7.49334
21
-4.60554
0
LINE
8
BLACK
6
CONTINUOUS
10
7.49334
20
-4.60554
11
7.48725
21
-4.60202
0
LINE
8
BLACK
6
CONTINUOUS
10
7.48725
20
-4.60202
11
7.48031
21
-4.60079
0
LINE
8
BLACK
6
CONTINUOUS
10
7.48031
20
-4.60079
11
7.46969
21
-4.60079
0
LINE
8
BLACK
6
CONTINUOUS
10
7.26643
20
-4.54822
11
7.27633
21
-4.55203
0
LINE
8
BLACK
6
CONTINUOUS
10
7.27633
20
-4.55203
11
7.28668
21
-4.55437
0
LINE
8
BLACK
6
CONTINUOUS
10
7.28668
20
-4.55437
11
7.29725
21
-4.55519
0
LINE
8
BLACK
6
CONTINUOUS
10
7.29725
20
-4.55519
11
7.30784
21
-4.55448
0
LINE
8
BLACK
6
CONTINUOUS
10
7.30784
20
-4.55448
11
7.31821
21
-4.55225
0
LINE
8
BLACK
6
CONTINUOUS
10
7.31821
20
-4.55225
11
7.32815
21
-4.54854
0
LINE
8
BLACK
6
CONTINUOUS
10
7.32815
20
-4.54854
11
7.33746
21
-4.54344
0
LINE
8
BLACK
6
CONTINUOUS
10
7.33746
20
-4.54344
11
7.34175
21
-4.5402
0
LINE
8
BLACK
6
CONTINUOUS
10
7.34175
20
-4.5402
11
7.3273
21
-4.52575
0
LINE
8
BLACK
6
CONTINUOUS
10
7.3273
20
-4.52575
11
7.32421
21
-4.52792
0
LINE
8
BLACK
6
CONTINUOUS
10
7.32421
20
-4.52792
11
7.31582
21
-4.53183
0
LINE
8
BLACK
6
CONTINUOUS
10
7.31582
20
-4.53183
11
7.30687
21
-4.53423
0
LINE
8
BLACK
6
CONTINUOUS
10
7.30687
20
-4.53423
11
7.29764
21
-4.53504
0
LINE
8
BLACK
6
CONTINUOUS
10
7.29764
20
-4.53504
11
7.28841
21
-4.53423
0
LINE
8
BLACK
6
CONTINUOUS
10
7.28841
20
-4.53423
11
7.27946
21
-4.53183
0
LINE
8
BLACK
6
CONTINUOUS
10
7.27946
20
-4.53183
11
7.27106
21
-4.52792
0
LINE
8
BLACK
6
CONTINUOUS
10
7.27106
20
-4.52792
11
7.26797
21
-4.52575
0
LINE
8
BLACK
6
CONTINUOUS
10
7.26797
20
-4.52575
11
7.25352
21
-4.5402
0
LINE
8
BLACK
6
CONTINUOUS
10
7.25352
20
-4.5402
11
7.25718
21
-4.54302
0
LINE
8
BLACK
6
CONTINUOUS
10
7.25718
20
-4.54302
11
7.26643
21
-4.54822
0
LINE
8
BLACK
6
CONTINUOUS
10
7.22683
20
-4.50086
11
7.23031
21
-4.51089
0
LINE
8
BLACK
6
CONTINUOUS
10
7.23031
20
-4.51089
11
7.2352
21
-4.5203
0
LINE
8
BLACK
6
CONTINUOUS
10
7.2352
20
-4.5203
11
7.23931
21
-4.52601
0
LINE
8
BLACK
6
CONTINUOUS
10
7.23931
20
-4.52601
11
7.25377
21
-4.51156
0
LINE
8
BLACK
6
CONTINUOUS
10
7.25377
20
-4.51156
11
7.25161
21
-4.50846
0
LINE
8
BLACK
6
CONTINUOUS
10
7.25161
20
-4.50846
11
7.24769
21
-4.50007
0
LINE
8
BLACK
6
CONTINUOUS
10
7.24769
20
-4.50007
11
7.2453
21
-4.49112
0
LINE
8
BLACK
6
CONTINUOUS
10
7.2453
20
-4.49112
11
7.24449
21
-4.48189
0
LINE
8
BLACK
6
CONTINUOUS
10
7.24449
20
-4.48189
11
7.2453
21
-4.47266
0
LINE
8
BLACK
6
CONTINUOUS
10
7.2453
20
-4.47266
11
7.24769
21
-4.46371
0
LINE
8
BLACK
6
CONTINUOUS
10
7.24769
20
-4.46371
11
7.25161
21
-4.45531
0
LINE
8
BLACK
6
CONTINUOUS
10
7.25161
20
-4.45531
11
7.25377
21
-4.45222
0
LINE
8
BLACK
6
CONTINUOUS
10
7.25377
20
-4.45222
11
7.2393
21
-4.43775
0
LINE
8
BLACK
6
CONTINUOUS
10
7.2393
20
-4.43775
11
7.23744
21
-4.44005
0
LINE
8
BLACK
6
CONTINUOUS
10
7.23744
20
-4.44005
11
7.23203
21
-4.44918
0
LINE
8
BLACK
6
CONTINUOUS
10
7.23203
20
-4.44918
11
7.228
21
-4.45899
0
LINE
8
BLACK
6
CONTINUOUS
10
7.228
20
-4.45899
11
7.22542
21
-4.46929
0
LINE
8
BLACK
6
CONTINUOUS
10
7.22542
20
-4.46929
11
7.22436
21
-4.47984
0
LINE
8
BLACK
6
CONTINUOUS
10
7.22436
20
-4.47984
11
7.22483
21
-4.49044
0
LINE
8
BLACK
6
CONTINUOUS
10
7.22483
20
-4.49044
11
7.22683
21
-4.50086
0
LINE
8
BLACK
6
CONTINUOUS
10
7.5415
20
-4.45222
11
7.54367
21
-4.45531
0
LINE
8
BLACK
6
CONTINUOUS
10
7.54367
20
-4.45531
11
7.54758
21
-4.46371
0
LINE
8
BLACK
6
CONTINUOUS
10
7.54758
20
-4.46371
11
7.54998
21
-4.47266
0
LINE
8
BLACK
6
CONTINUOUS
10
7.54998
20
-4.47266
11
7.55079
21
-4.48189
0
LINE
8
BLACK
6
CONTINUOUS
10
7.55079
20
-4.48189
11
7.54998
21
-4.49112
0
LINE
8
BLACK
6
CONTINUOUS
10
7.54998
20
-4.49112
11
7.54758
21
-4.50007
0
LINE
8
BLACK
6
CONTINUOUS
10
7.54758
20
-4.50007
11
7.54691
21
-4.5015
0
LINE
8
BLACK
6
CONTINUOUS
10
7.54691
20
-4.5015
11
7.562
21
-4.51658
0
LINE
8
BLACK
6
CONTINUOUS
10
7.562
20
-4.51658
11
7.56466
21
-4.51159
0
LINE
8
BLACK
6
CONTINUOUS
10
7.56466
20
-4.51159
11
7.56824
21
-4.5016
0
LINE
8
BLACK
6
CONTINUOUS
10
7.56824
20
-4.5016
11
7.57035
21
-4.4912
0
LINE
8
BLACK
6
CONTINUOUS
10
7.57035
20
-4.4912
11
7.57076
21
-4.47665
0
LINE
8
BLACK
6
CONTINUOUS
10
7.57076
20
-4.47665
11
7.56923
21
-4.46615
0
LINE
8
BLACK
6
CONTINUOUS
10
7.56923
20
-4.46615
11
7.56621
21
-4.45598
0
LINE
8
BLACK
6
CONTINUOUS
10
7.56621
20
-4.45598
11
7.56175
21
-4.44635
0
LINE
8
BLACK
6
CONTINUOUS
10
7.56175
20
-4.44635
11
7.55607
21
-4.43765
0
LINE
8
BLACK
6
CONTINUOUS
10
7.55607
20
-4.43765
11
7.5415
21
-4.45222
0
LINE
8
BLACK
6
CONTINUOUS
10
7.22683
20
-4.30086
11
7.23031
21
-4.31089
0
LINE
8
BLACK
6
CONTINUOUS
10
7.23031
20
-4.31089
11
7.2352
21
-4.3203
0
LINE
8
BLACK
6
CONTINUOUS
10
7.2352
20
-4.3203
11
7.23931
21
-4.32601
0
LINE
8
BLACK
6
CONTINUOUS
10
7.23931
20
-4.32601
11
7.25377
21
-4.31156
0
LINE
8
BLACK
6
CONTINUOUS
10
7.25377
20
-4.31156
11
7.25161
21
-4.30846
0
LINE
8
BLACK
6
CONTINUOUS
10
7.25161
20
-4.30846
11
7.24769
21
-4.30007
0
LINE
8
BLACK
6
CONTINUOUS
10
7.24769
20
-4.30007
11
7.2453
21
-4.29112
0
LINE
8
BLACK
6
CONTINUOUS
10
7.2453
20
-4.29112
11
7.24449
21
-4.28189
0
LINE
8
BLACK
6
CONTINUOUS
10
7.24449
20
-4.28189
11
7.2453
21
-4.27266
0
LINE
8
BLACK
6
CONTINUOUS
10
7.2453
20
-4.27266
11
7.24769
21
-4.26371
0
LINE
8
BLACK
6
CONTINUOUS
10
7.24769
20
-4.26371
11
7.25161
21
-4.25531
0
LINE
8
BLACK
6
CONTINUOUS
10
7.25161
20
-4.25531
11
7.25377
21
-4.25222
0
LINE
8
BLACK
6
CONTINUOUS
10
7.25377
20
-4.25222
11
7.2393
21
-4.23775
0
LINE
8
BLACK
6
CONTINUOUS
10
7.2393
20
-4.23775
11
7.23744
21
-4.24005
0
LINE
8
BLACK
6
CONTINUOUS
10
7.23744
20
-4.24005
11
7.23203
21
-4.24918
0
LINE
8
BLACK
6
CONTINUOUS
10
7.23203
20
-4.24918
11
7.228
21
-4.25899
0
LINE
8
BLACK
6
CONTINUOUS
10
7.228
20
-4.25899
11
7.22542
21
-4.26929
0
LINE
8
BLACK
6
CONTINUOUS
10
7.22542
20
-4.26929
11
7.22436
21
-4.27984
0
LINE
8
BLACK
6
CONTINUOUS
10
7.22436
20
-4.27984
11
7.22483
21
-4.29044
0
LINE
8
BLACK
6
CONTINUOUS
10
7.22483
20
-4.29044
11
7.22683
21
-4.30086
0
LINE
8
BLACK
6
CONTINUOUS
10
7.5415
20
-4.25222
11
7.54367
21
-4.25531
0
LINE
8
BLACK
6
CONTINUOUS
10
7.54367
20
-4.25531
11
7.54758
21
-4.26371
0
LINE
8
BLACK
6
CONTINUOUS
10
7.54758
20
-4.26371
11
7.54998
21
-4.27266
0
LINE
8
BLACK
6
CONTINUOUS
10
7.54998
20
-4.27266
11
7.55079
21
-4.28189
0
LINE
8
BLACK
6
CONTINUOUS
10
7.55079
20
-4.28189
11
7.54998
21
-4.29112
0
LINE
8
BLACK
6
CONTINUOUS
10
7.54998
20
-4.29112
11
7.54758
21
-4.30007
0
LINE
8
BLACK
6
CONTINUOUS
10
7.54758
20
-4.30007
11
7.54367
21
-4.30846
0
LINE
8
BLACK
6
CONTINUOUS
10
7.54367
20
-4.30846
11
7.5415
21
-4.31156
0
LINE
8
BLACK
6
CONTINUOUS
10
7.5415
20
-4.31156
11
7.55595
21
-4.326
0
LINE
8
BLACK
6
CONTINUOUS
10
7.55595
20
-4.326
11
7.55967
21
-4.32095
0
LINE
8
BLACK
6
CONTINUOUS
10
7.55967
20
-4.32095
11
7.56466
21
-4.31159
0
LINE
8
BLACK
6
CONTINUOUS
10
7.56466
20
-4.31159
11
7.56824
21
-4.3016
0
LINE
8
BLACK
6
CONTINUOUS
10
7.56824
20
-4.3016
11
7.57035
21
-4.2912
0
LINE
8
BLACK
6
CONTINUOUS
10
7.57035
20
-4.2912
11
7.57076
21
-4.27665
0
LINE
8
BLACK
6
CONTINUOUS
10
7.57076
20
-4.27665
11
7.56923
21
-4.26615
0
LINE
8
BLACK
6
CONTINUOUS
10
7.56923
20
-4.26615
11
7.56621
21
-4.25598
0
LINE
8
BLACK
6
CONTINUOUS
10
7.56621
20
-4.25598
11
7.56175
21
-4.24635
0
LINE
8
BLACK
6
CONTINUOUS
10
7.56175
20
-4.24635
11
7.55607
21
-4.23765
0
LINE
8
BLACK
6
CONTINUOUS
10
7.55607
20
-4.23765
11
7.5415
21
-4.25222
0
LINE
8
BLACK
6
CONTINUOUS
10
7.22683
20
-3.98905
11
7.23031
21
-3.99907
0
LINE
8
BLACK
6
CONTINUOUS
10
7.23031
20
-3.99907
11
7.2352
21
-4.00849
0
LINE
8
BLACK
6
CONTINUOUS
10
7.2352
20
-4.00849
11
7.23931
21
-4.0142
0
LINE
8
BLACK
6
CONTINUOUS
10
7.23931
20
-4.0142
11
7.25377
21
-3.99975
0
LINE
8
BLACK
6
CONTINUOUS
10
7.25377
20
-3.99975
11
7.25161
21
-3.99665
0
LINE
8
BLACK
6
CONTINUOUS
10
7.25161
20
-3.99665
11
7.24769
21
-3.98826
0
LINE
8
BLACK
6
CONTINUOUS
10
7.24769
20
-3.98826
11
7.2453
21
-3.97931
0
LINE
8
BLACK
6
CONTINUOUS
10
7.2453
20
-3.97931
11
7.24449
21
-3.97008
0
LINE
8
BLACK
6
CONTINUOUS
10
7.24449
20
-3.97008
11
7.2453
21
-3.96085
0
LINE
8
BLACK
6
CONTINUOUS
10
7.2453
20
-3.96085
11
7.24769
21
-3.9519
0
LINE
8
BLACK
6
CONTINUOUS
10
7.24769
20
-3.9519
11
7.25161
21
-3.9435
0
LINE
8
BLACK
6
CONTINUOUS
10
7.25161
20
-3.9435
11
7.25377
21
-3.94041
0
LINE
8
BLACK
6
CONTINUOUS
10
7.25377
20
-3.94041
11
7.2393
21
-3.92594
0
LINE
8
BLACK
6
CONTINUOUS
10
7.2393
20
-3.92594
11
7.23744
21
-3.92824
0
LINE
8
BLACK
6
CONTINUOUS
10
7.23744
20
-3.92824
11
7.23203
21
-3.93737
0
LINE
8
BLACK
6
CONTINUOUS
10
7.23203
20
-3.93737
11
7.228
21
-3.94718
0
LINE
8
BLACK
6
CONTINUOUS
10
7.228
20
-3.94718
11
7.22542
21
-3.95748
0
LINE
8
BLACK
6
CONTINUOUS
10
7.22542
20
-3.95748
11
7.22436
21
-3.96803
0
LINE
8
BLACK
6
CONTINUOUS
10
7.22436
20
-3.96803
11
7.22483
21
-3.97863
0
LINE
8
BLACK
6
CONTINUOUS
10
7.22483
20
-3.97863
11
7.22683
21
-3.98905
0
LINE
8
BLACK
6
CONTINUOUS
10
7.47106
20
-3.72405
11
7.47946
21
-3.72013
0
LINE
8
BLACK
6
CONTINUOUS
10
7.47946
20
-3.72013
11
7.48841
21
-3.71774
0
LINE
8
BLACK
6
CONTINUOUS
10
7.48841
20
-3.71774
11
7.49764
21
-3.71693
0
LINE
8
BLACK
6
CONTINUOUS
10
7.49764
20
-3.71693
11
7.50687
21
-3.71774
0
LINE
8
BLACK
6
CONTINUOUS
10
7.50687
20
-3.71774
11
7.51582
21
-3.72013
0
LINE
8
BLACK
6
CONTINUOUS
10
7.51582
20
-3.72013
11
7.52421
21
-3.72405
0
LINE
8
BLACK
6
CONTINUOUS
10
7.52421
20
-3.72405
11
7.5273
21
-3.72621
0
LINE
8
BLACK
6
CONTINUOUS
10
7.5273
20
-3.72621
11
7.54183
21
-3.71169
0
LINE
8
BLACK
6
CONTINUOUS
10
7.54183
20
-3.71169
11
7.54083
21
-3.71085
0
LINE
8
BLACK
6
CONTINUOUS
10
7.54083
20
-3.71085
11
7.53183
21
-3.70523
0
LINE
8
BLACK
6
CONTINUOUS
10
7.53183
20
-3.70523
11
7.52211
21
-3.70098
0
LINE
8
BLACK
6
CONTINUOUS
10
7.52211
20
-3.70098
11
7.51188
21
-3.69817
0
LINE
8
BLACK
6
CONTINUOUS
10
7.51188
20
-3.69817
11
7.50135
21
-3.69687
0
LINE
8
BLACK
6
CONTINUOUS
10
7.50135
20
-3.69687
11
7.49074
21
-3.6971
0
LINE
8
BLACK
6
CONTINUOUS
10
7.49074
20
-3.6971
11
7.48028
21
-3.69886
0
LINE
8
BLACK
6
CONTINUOUS
10
7.48028
20
-3.69886
11
7.47018
21
-3.70211
0
LINE
8
BLACK
6
CONTINUOUS
10
7.47018
20
-3.70211
11
7.46065
21
-3.70679
0
LINE
8
BLACK
6
CONTINUOUS
10
7.46065
20
-3.70679
11
7.45347
21
-3.71171
0
LINE
8
BLACK
6
CONTINUOUS
10
7.45347
20
-3.71171
11
7.46797
21
-3.72621
0
LINE
8
BLACK
6
CONTINUOUS
10
7.46797
20
-3.72621
11
7.47106
21
-3.72405
0
LINE
8
BLACK
6
CONTINUOUS
10
7.5415
20
-3.94041
11
7.54367
21
-3.9435
0
LINE
8
BLACK
6
CONTINUOUS
10
7.54367
20
-3.9435
11
7.54758
21
-3.9519
0
LINE
8
BLACK
6
CONTINUOUS
10
7.54758
20
-3.9519
11
7.54998
21
-3.96085
0
LINE
8
BLACK
6
CONTINUOUS
10
7.54998
20
-3.96085
11
7.55079
21
-3.97008
0
LINE
8
BLACK
6
CONTINUOUS
10
7.55079
20
-3.97008
11
7.54998
21
-3.97931
0
LINE
8
BLACK
6
CONTINUOUS
10
7.54998
20
-3.97931
11
7.54758
21
-3.98826
0
LINE
8
BLACK
6
CONTINUOUS
10
7.54758
20
-3.98826
11
7.54367
21
-3.99665
0
LINE
8
BLACK
6
CONTINUOUS
10
7.54367
20
-3.99665
11
7.5415
21
-3.99975
0
LINE
8
BLACK
6
CONTINUOUS
10
7.5415
20
-3.99975
11
7.55595
21
-4.01419
0
LINE
8
BLACK
6
CONTINUOUS
10
7.55595
20
-4.01419
11
7.55967
21
-4.00914
0
LINE
8
BLACK
6
CONTINUOUS
10
7.55967
20
-4.00914
11
7.56466
21
-3.99978
0
LINE
8
BLACK
6
CONTINUOUS
10
7.56466
20
-3.99978
11
7.56824
21
-3.98979
0
LINE
8
BLACK
6
CONTINUOUS
10
7.56824
20
-3.98979
11
7.57035
21
-3.97939
0
LINE
8
BLACK
6
CONTINUOUS
10
7.57035
20
-3.97939
11
7.57076
21
-3.96484
0
LINE
8
BLACK
6
CONTINUOUS
10
7.57076
20
-3.96484
11
7.56923
21
-3.95434
0
LINE
8
BLACK
6
CONTINUOUS
10
7.56923
20
-3.95434
11
7.56621
21
-3.94417
0
LINE
8
BLACK
6
CONTINUOUS
10
7.56621
20
-3.94417
11
7.56175
21
-3.93454
0
LINE
8
BLACK
6
CONTINUOUS
10
7.56175
20
-3.93454
11
7.55607
21
-3.92584
0
LINE
8
BLACK
6
CONTINUOUS
10
7.55607
20
-3.92584
11
7.5415
21
-3.94041
0
LINE
8
BLACK
6
CONTINUOUS
10
7.22683
20
-3.78905
11
7.23031
21
-3.79907
0
LINE
8
BLACK
6
CONTINUOUS
10
7.23031
20
-3.79907
11
7.2352
21
-3.80849
0
LINE
8
BLACK
6
CONTINUOUS
10
7.2352
20
-3.80849
11
7.23931
21
-3.8142
0
LINE
8
BLACK
6
CONTINUOUS
10
7.23931
20
-3.8142
11
7.25377
21
-3.79975
0
LINE
8
BLACK
6
CONTINUOUS
10
7.25377
20
-3.79975
11
7.25161
21
-3.79665
0
LINE
8
BLACK
6
CONTINUOUS
10
7.25161
20
-3.79665
11
7.24769
21
-3.78826
0
LINE
8
BLACK
6
CONTINUOUS
10
7.24769
20
-3.78826
11
7.2453
21
-3.77931
0
LINE
8
BLACK
6
CONTINUOUS
10
7.2453
20
-3.77931
11
7.24449
21
-3.77008
0
LINE
8
BLACK
6
CONTINUOUS
10
7.24449
20
-3.77008
11
7.2453
21
-3.76085
0
LINE
8
BLACK
6
CONTINUOUS
10
7.2453
20
-3.76085
11
7.24769
21
-3.7519
0
LINE
8
BLACK
6
CONTINUOUS
10
7.24769
20
-3.7519
11
7.25161
21
-3.7435
0
LINE
8
BLACK
6
CONTINUOUS
10
7.25161
20
-3.7435
11
7.25377
21
-3.74041
0
LINE
8
BLACK
6
CONTINUOUS
10
7.25377
20
-3.74041
11
7.2393
21
-3.72594
0
LINE
8
BLACK
6
CONTINUOUS
10
7.2393
20
-3.72594
11
7.23744
21
-3.72824
0
LINE
8
BLACK
6
CONTINUOUS
10
7.23744
20
-3.72824
11
7.23203
21
-3.73737
0
LINE
8
BLACK
6
CONTINUOUS
10
7.23203
20
-3.73737
11
7.228
21
-3.74718
0
LINE
8
BLACK
6
CONTINUOUS
10
7.228
20
-3.74718
11
7.22542
21
-3.75748
0
LINE
8
BLACK
6
CONTINUOUS
10
7.22542
20
-3.75748
11
7.22436
21
-3.76803
0
LINE
8
BLACK
6
CONTINUOUS
10
7.22436
20
-3.76803
11
7.22483
21
-3.77863
0
LINE
8
BLACK
6
CONTINUOUS
10
7.22483
20
-3.77863
11
7.22683
21
-3.78905
0
LINE
8
BLACK
6
CONTINUOUS
10
7.5415
20
-3.74041
11
7.54367
21
-3.7435
0
LINE
8
BLACK
6
CONTINUOUS
10
7.54367
20
-3.7435
11
7.54758
21
-3.7519
0
LINE
8
BLACK
6
CONTINUOUS
10
7.54758
20
-3.7519
11
7.54998
21
-3.76085
0
LINE
8
BLACK
6
CONTINUOUS
10
7.54998
20
-3.76085
11
7.55079
21
-3.77008
0
LINE
8
BLACK
6
CONTINUOUS
10
7.55079
20
-3.77008
11
7.54998
21
-3.77931
0
LINE
8
BLACK
6
CONTINUOUS
10
7.54998
20
-3.77931
11
7.54758
21
-3.78826
0
LINE
8
BLACK
6
CONTINUOUS
10
7.54758
20
-3.78826
11
7.54367
21
-3.79665
0
LINE
8
BLACK
6
CONTINUOUS
10
7.54367
20
-3.79665
11
7.5415
21
-3.79975
0
LINE
8
BLACK
6
CONTINUOUS
10
7.5415
20
-3.79975
11
7.55595
21
-3.81419
0
LINE
8
BLACK
6
CONTINUOUS
10
7.55595
20
-3.81419
11
7.55967
21
-3.80914
0
LINE
8
BLACK
6
CONTINUOUS
10
7.55967
20
-3.80914
11
7.56466
21
-3.79978
0
LINE
8
BLACK
6
CONTINUOUS
10
7.56466
20
-3.79978
11
7.56824
21
-3.78979
0
LINE
8
BLACK
6
CONTINUOUS
10
7.56824
20
-3.78979
11
7.57035
21
-3.77939
0
LINE
8
BLACK
6
CONTINUOUS
10
7.57035
20
-3.77939
11
7.57076
21
-3.76484
0
LINE
8
BLACK
6
CONTINUOUS
10
7.57076
20
-3.76484
11
7.56923
21
-3.75434
0
LINE
8
BLACK
6
CONTINUOUS
10
7.56923
20
-3.75434
11
7.56621
21
-3.74417
0
LINE
8
BLACK
6
CONTINUOUS
10
7.56621
20
-3.74417
11
7.56175
21
-3.73454
0
LINE
8
BLACK
6
CONTINUOUS
10
7.56175
20
-3.73454
11
7.55607
21
-3.72584
0
LINE
8
BLACK
6
CONTINUOUS
10
7.55607
20
-3.72584
11
7.5415
21
-3.74041
0
LINE
8
BLACK
6
CONTINUOUS
10
5.56361
20
-3.75898
11
5.56484
21
-3.75204
0
LINE
8
BLACK
6
CONTINUOUS
10
5.56484
20
-3.75204
11
5.56484
21
-3.73209
0
LINE
8
BLACK
6
CONTINUOUS
10
5.56484
20
-3.73209
11
5.54457
21
-3.73209
0
LINE
8
BLACK
6
CONTINUOUS
10
5.54457
20
-3.73209
11
5.54457
21
-3.75205
0
LINE
8
BLACK
6
CONTINUOUS
10
5.54457
20
-3.75205
11
5.52461
21
-3.75205
0
LINE
8
BLACK
6
CONTINUOUS
10
5.52461
20
-3.75205
11
5.52461
21
-3.77232
0
LINE
8
BLACK
6
CONTINUOUS
10
5.52461
20
-3.77232
11
5.54456
21
-3.77232
0
LINE
8
BLACK
6
CONTINUOUS
10
5.54456
20
-3.77232
11
5.5547
21
-3.7696
0
LINE
8
BLACK
6
CONTINUOUS
10
5.5547
20
-3.7696
11
5.55657
21
-3.76803
0
LINE
8
BLACK
6
CONTINUOUS
10
5.55657
20
-3.76803
11
5.56009
21
-3.76508
0
LINE
8
BLACK
6
CONTINUOUS
10
5.56009
20
-3.76508
11
5.56361
21
-3.75898
0
LINE
8
BLACK
6
CONTINUOUS
10
7.27106
20
-3.72405
11
7.27946
21
-3.72013
0
LINE
8
BLACK
6
CONTINUOUS
10
7.27946
20
-3.72013
11
7.28841
21
-3.71774
0
LINE
8
BLACK
6
CONTINUOUS
10
7.28841
20
-3.71774
11
7.29764
21
-3.71693
0
LINE
8
BLACK
6
CONTINUOUS
10
7.29764
20
-3.71693
11
7.30687
21
-3.71774
0
LINE
8
BLACK
6
CONTINUOUS
10
7.30687
20
-3.71774
11
7.31582
21
-3.72013
0
LINE
8
BLACK
6
CONTINUOUS
10
7.31582
20
-3.72013
11
7.32421
21
-3.72405
0
LINE
8
BLACK
6
CONTINUOUS
10
7.32421
20
-3.72405
11
7.3273
21
-3.72621
0
LINE
8
BLACK
6
CONTINUOUS
10
7.3273
20
-3.72621
11
7.34183
21
-3.71169
0
LINE
8
BLACK
6
CONTINUOUS
10
7.34183
20
-3.71169
11
7.34083
21
-3.71085
0
LINE
8
BLACK
6
CONTINUOUS
10
7.34083
20
-3.71085
11
7.33183
21
-3.70523
0
LINE
8
BLACK
6
CONTINUOUS
10
7.33183
20
-3.70523
11
7.32211
21
-3.70098
0
LINE
8
BLACK
6
CONTINUOUS
10
7.32211
20
-3.70098
11
7.31188
21
-3.69817
0
LINE
8
BLACK
6
CONTINUOUS
10
7.31188
20
-3.69817
11
7.30135
21
-3.69687
0
LINE
8
BLACK
6
CONTINUOUS
10
7.30135
20
-3.69687
11
7.29074
21
-3.6971
0
LINE
8
BLACK
6
CONTINUOUS
10
7.29074
20
-3.6971
11
7.28028
21
-3.69886
0
LINE
8
BLACK
6
CONTINUOUS
10
7.28028
20
-3.69886
11
7.27018
21
-3.70211
0
LINE
8
BLACK
6
CONTINUOUS
10
7.27018
20
-3.70211
11
7.26065
21
-3.70679
0
LINE
8
BLACK
6
CONTINUOUS
10
7.26065
20
-3.70679
11
7.25347
21
-3.71171
0
LINE
8
BLACK
6
CONTINUOUS
10
7.25347
20
-3.71171
11
7.26797
21
-3.72621
0
LINE
8
BLACK
6
CONTINUOUS
10
7.26797
20
-3.72621
11
7.27106
21
-3.72405
0
LINE
8
BLACK
6
CONTINUOUS
10
7.30981
20
-3.66218
11
7.3159
21
-3.6657
0
LINE
8
BLACK
6
CONTINUOUS
10
7.3159
20
-3.6657
11
7.32284
21
-3.66692
0
LINE
8
BLACK
6
CONTINUOUS
10
7.32284
20
-3.66692
11
7.33346
21
-3.66692
0
LINE
8
BLACK
6
CONTINUOUS
10
7.33346
20
-3.66692
11
7.33346
21
-3.64665
0
LINE
8
BLACK
6
CONTINUOUS
10
7.33346
20
-3.64665
11
7.32283
21
-3.64665
0
LINE
8
BLACK
6
CONTINUOUS
10
7.32283
20
-3.64665
11
7.32283
21
-3.61339
0
LINE
8
BLACK
6
CONTINUOUS
10
7.32283
20
-3.61339
11
7.30257
21
-3.61339
0
LINE
8
BLACK
6
CONTINUOUS
10
7.30257
20
-3.61339
11
7.30257
21
-3.64665
0
LINE
8
BLACK
6
CONTINUOUS
10
7.30257
20
-3.64665
11
7.30528
21
-3.65679
0
LINE
8
BLACK
6
CONTINUOUS
10
7.30528
20
-3.65679
11
7.30981
21
-3.66218
0
LINE
8
BLACK
6
CONTINUOUS
10
7.43898
20
-3.56004
11
7.44961
21
-3.56004
0
LINE
8
BLACK
6
CONTINUOUS
10
7.44961
20
-3.56004
11
7.44961
21
-3.53977
0
LINE
8
BLACK
6
CONTINUOUS
10
7.44961
20
-3.53977
11
7.43898
21
-3.53977
0
LINE
8
BLACK
6
CONTINUOUS
10
7.43898
20
-3.53977
11
7.42884
21
-3.54249
0
LINE
8
BLACK
6
CONTINUOUS
10
7.42884
20
-3.54249
11
7.42345
21
-3.54701
0
LINE
8
BLACK
6
CONTINUOUS
10
7.42345
20
-3.54701
11
7.41993
21
-3.55311
0
LINE
8
BLACK
6
CONTINUOUS
10
7.41993
20
-3.55311
11
7.41871
21
-3.56004
0
LINE
8
BLACK
6
CONTINUOUS
10
7.41871
20
-3.56004
11
7.41871
21
-3.59331
0
LINE
8
BLACK
6
CONTINUOUS
10
7.41871
20
-3.59331
11
7.43898
21
-3.59331
0
LINE
8
BLACK
6
CONTINUOUS
10
7.43898
20
-3.59331
11
7.43898
21
-3.56004
0
LINE
8
BLACK
6
CONTINUOUS
10
7.46969
20
-3.53977
11
7.46969
21
-3.56004
0
LINE
8
BLACK
6
CONTINUOUS
10
7.46969
20
-3.56004
11
7.48031
21
-3.56004
0
LINE
8
BLACK
6
CONTINUOUS
10
7.48031
20
-3.56004
11
7.48031
21
-3.59331
0
LINE
8
BLACK
6
CONTINUOUS
10
7.48031
20
-3.59331
11
7.50058
21
-3.59331
0
LINE
8
BLACK
6
CONTINUOUS
10
7.50058
20
-3.59331
11
7.50058
21
-3.56004
0
LINE
8
BLACK
6
CONTINUOUS
10
7.50058
20
-3.56004
11
7.49787
21
-3.5499
0
LINE
8
BLACK
6
CONTINUOUS
10
7.49787
20
-3.5499
11
7.49334
21
-3.54451
0
LINE
8
BLACK
6
CONTINUOUS
10
7.49334
20
-3.54451
11
7.48725
21
-3.54099
0
LINE
8
BLACK
6
CONTINUOUS
10
7.48725
20
-3.54099
11
7.48031
21
-3.53977
0
LINE
8
BLACK
6
CONTINUOUS
10
7.48031
20
-3.53977
11
7.46969
21
-3.53977
0
LINE
8
BLACK
6
CONTINUOUS
10
5.52461
20
-3.47178
11
5.52461
21
-3.49205
0
LINE
8
BLACK
6
CONTINUOUS
10
5.52461
20
-3.49205
11
5.54457
21
-3.49205
0
LINE
8
BLACK
6
CONTINUOUS
10
5.54457
20
-3.49205
11
5.54457
21
-3.51201
0
LINE
8
BLACK
6
CONTINUOUS
10
5.54457
20
-3.51201
11
5.56484
21
-3.51201
0
LINE
8
BLACK
6
CONTINUOUS
10
5.56484
20
-3.51201
11
5.56484
21
-3.49205
0
LINE
8
BLACK
6
CONTINUOUS
10
5.56484
20
-3.49205
11
5.56212
21
-3.48191
0
LINE
8
BLACK
6
CONTINUOUS
10
5.56212
20
-3.48191
11
5.5576
21
-3.47652
0
LINE
8
BLACK
6
CONTINUOUS
10
5.5576
20
-3.47652
11
5.5515
21
-3.473
0
LINE
8
BLACK
6
CONTINUOUS
10
5.5515
20
-3.473
11
5.54456
21
-3.47178
0
LINE
8
BLACK
6
CONTINUOUS
10
5.54456
20
-3.47178
11
5.52461
21
-3.47178
0
LINE
8
BLACK
6
CONTINUOUS
10
6.10055
20
-3.28528
11
6.101
21
-3.28302
0
LINE
8
BLACK
6
CONTINUOUS
10
6.101
20
-3.28302
11
6.10228
21
-3.2811
0
LINE
8
BLACK
6
CONTINUOUS
10
6.10228
20
-3.2811
11
6.10232
21
-3.28107
0
LINE
8
BLACK
6
CONTINUOUS
10
6.10232
20
-3.28107
11
6.10232
21
-3.25998
0
LINE
8
BLACK
6
CONTINUOUS
10
6.10232
20
-3.25998
11
6.09697
21
-3.26099
0
LINE
8
BLACK
6
CONTINUOUS
10
6.09697
20
-3.26099
11
6.09021
21
-3.26489
0
LINE
8
BLACK
6
CONTINUOUS
10
6.09021
20
-3.26489
11
6.08491
21
-3.27061
0
LINE
8
BLACK
6
CONTINUOUS
10
6.08491
20
-3.27061
11
6.08153
21
-3.27763
0
LINE
8
BLACK
6
CONTINUOUS
10
6.08153
20
-3.27763
11
6.08036
21
-3.28535
0
LINE
8
BLACK
6
CONTINUOUS
10
6.08036
20
-3.28535
11
6.08036
21
-3.3028
0
LINE
8
BLACK
6
CONTINUOUS
10
6.08036
20
-3.3028
11
6.10055
21
-3.3028
0
LINE
8
BLACK
6
CONTINUOUS
10
6.10055
20
-3.3028
11
6.10055
21
-3.28528
0
LINE
8
BLACK
6
CONTINUOUS
10
6.50993
20
-3.25281
11
6.51554
21
-3.24633
0
LINE
8
BLACK
6
CONTINUOUS
10
6.51554
20
-3.24633
11
6.5191
21
-3.23854
0
LINE
8
BLACK
6
CONTINUOUS
10
6.5191
20
-3.23854
11
6.52032
21
-3.23005
0
LINE
8
BLACK
6
CONTINUOUS
10
6.52032
20
-3.23005
11
6.52032
21
-3.19689
0
LINE
8
BLACK
6
CONTINUOUS
10
6.52032
20
-3.19689
11
6.50016
21
-3.19689
0
LINE
8
BLACK
6
CONTINUOUS
10
6.50016
20
-3.19689
11
6.50016
21
-3.23016
0
LINE
8
BLACK
6
CONTINUOUS
10
6.50016
20
-3.23016
11
6.49941
21
-3.23392
0
LINE
8
BLACK
6
CONTINUOUS
10
6.49941
20
-3.23392
11
6.49727
21
-3.23712
0
LINE
8
BLACK
6
CONTINUOUS
10
6.49727
20
-3.23712
11
6.49408
21
-3.23925
0
LINE
8
BLACK
6
CONTINUOUS
10
6.49408
20
-3.23925
11
6.49051
21
-3.23996
0
LINE
8
BLACK
6
CONTINUOUS
10
6.49051
20
-3.23996
11
6.49051
21
-3.2601
0
LINE
8
BLACK
6
CONTINUOUS
10
6.49051
20
-3.2601
11
6.50272
21
-3.25744
0
LINE
8
BLACK
6
CONTINUOUS
10
6.50272
20
-3.25744
11
6.50993
21
-3.25281
0
LINE
8
BLACK
6
CONTINUOUS
10
6.05921
20
-3.19689
11
6.05921
21
-3.23016
0
LINE
8
BLACK
6
CONTINUOUS
10
6.05921
20
-3.23016
11
6.05846
21
-3.23392
0
LINE
8
BLACK
6
CONTINUOUS
10
6.05846
20
-3.23392
11
6.05633
21
-3.23712
0
LINE
8
BLACK
6
CONTINUOUS
10
6.05633
20
-3.23712
11
6.05314
21
-3.23925
0
LINE
8
BLACK
6
CONTINUOUS
10
6.05314
20
-3.23925
11
6.04957
21
-3.23996
0
LINE
8
BLACK
6
CONTINUOUS
10
6.04957
20
-3.23996
11
6.04957
21
-3.2601
0
LINE
8
BLACK
6
CONTINUOUS
10
6.04957
20
-3.2601
11
6.06178
21
-3.25744
0
LINE
8
BLACK
6
CONTINUOUS
10
6.06178
20
-3.25744
11
6.06899
21
-3.25281
0
LINE
8
BLACK
6
CONTINUOUS
10
6.06899
20
-3.25281
11
6.0746
21
-3.24633
0
LINE
8
BLACK
6
CONTINUOUS
10
6.0746
20
-3.24633
11
6.07816
21
-3.23854
0
LINE
8
BLACK
6
CONTINUOUS
10
6.07816
20
-3.23854
11
6.07938
21
-3.23005
0
LINE
8
BLACK
6
CONTINUOUS
10
6.07938
20
-3.23005
11
6.07938
21
-3.19689
0
LINE
8
BLACK
6
CONTINUOUS
10
6.07938
20
-3.19689
11
6.05921
21
-3.19689
0
LINE
8
BLACK
6
CONTINUOUS
10
7.37431
20
-4.72523
11
7.3797
21
-4.72071
0
LINE
8
BLACK
6
CONTINUOUS
10
7.3797
20
-4.72071
11
7.38322
21
-4.71461
0
LINE
8
BLACK
6
CONTINUOUS
10
7.38322
20
-4.71461
11
7.38444
21
-4.70767
0
LINE
8
BLACK
6
CONTINUOUS
10
7.38444
20
-4.70767
11
7.38444
21
-4.67441
0
LINE
8
BLACK
6
CONTINUOUS
10
7.38444
20
-4.67441
11
7.36417
21
-4.67441
0
LINE
8
BLACK
6
CONTINUOUS
10
7.36417
20
-4.67441
11
7.36417
21
-4.70768
0
LINE
8
BLACK
6
CONTINUOUS
10
7.36417
20
-4.70768
11
7.35354
21
-4.70768
0
LINE
8
BLACK
6
CONTINUOUS
10
7.35354
20
-4.70768
11
7.35354
21
-4.72795
0
LINE
8
BLACK
6
CONTINUOUS
10
7.35354
20
-4.72795
11
7.36417
21
-4.72795
0
LINE
8
BLACK
6
CONTINUOUS
10
7.36417
20
-4.72795
11
7.37431
21
-4.72523
0
LINE
8
BLACK
6
CONTINUOUS
10
7.27106
20
-4.43586
11
7.27946
21
-4.43195
0
LINE
8
BLACK
6
CONTINUOUS
10
7.27946
20
-4.43195
11
7.28841
21
-4.42955
0
LINE
8
BLACK
6
CONTINUOUS
10
7.28841
20
-4.42955
11
7.29764
21
-4.42874
0
LINE
8
BLACK
6
CONTINUOUS
10
7.29764
20
-4.42874
11
7.30687
21
-4.42955
0
LINE
8
BLACK
6
CONTINUOUS
10
7.30687
20
-4.42955
11
7.31582
21
-4.43195
0
LINE
8
BLACK
6
CONTINUOUS
10
7.31582
20
-4.43195
11
7.32421
21
-4.43586
0
LINE
8
BLACK
6
CONTINUOUS
10
7.32421
20
-4.43586
11
7.3318
21
-4.44117
0
LINE
8
BLACK
6
CONTINUOUS
10
7.3318
20
-4.44117
11
7.33835
21
-4.44773
0
LINE
8
BLACK
6
CONTINUOUS
10
7.33835
20
-4.44773
11
7.34367
21
-4.45531
0
LINE
8
BLACK
6
CONTINUOUS
10
7.34367
20
-4.45531
11
7.34758
21
-4.46371
0
LINE
8
BLACK
6
CONTINUOUS
10
7.34758
20
-4.46371
11
7.34998
21
-4.47266
0
LINE
8
BLACK
6
CONTINUOUS
10
7.34998
20
-4.47266
11
7.35079
21
-4.48189
0
LINE
8
BLACK
6
CONTINUOUS
10
7.35079
20
-4.48189
11
7.34998
21
-4.49112
0
LINE
8
BLACK
6
CONTINUOUS
10
7.34998
20
-4.49112
11
7.34758
21
-4.50007
0
LINE
8
BLACK
6
CONTINUOUS
10
7.34758
20
-4.50007
11
7.34367
21
-4.50846
0
LINE
8
BLACK
6
CONTINUOUS
10
7.34367
20
-4.50846
11
7.3415
21
-4.51156
0
LINE
8
BLACK
6
CONTINUOUS
10
7.3415
20
-4.51156
11
7.35595
21
-4.526
0
LINE
8
BLACK
6
CONTINUOUS
10
7.35595
20
-4.526
11
7.35967
21
-4.52095
0
LINE
8
BLACK
6
CONTINUOUS
10
7.35967
20
-4.52095
11
7.36236
21
-4.5159
0
LINE
8
BLACK
6
CONTINUOUS
10
7.36236
20
-4.5159
11
7.36359
21
-4.51439
0
LINE
8
BLACK
6
CONTINUOUS
10
7.36359
20
-4.51439
11
7.36531
21
-4.51347
0
LINE
8
BLACK
6
CONTINUOUS
10
7.36531
20
-4.51347
11
7.36726
21
-4.51328
0
LINE
8
BLACK
6
CONTINUOUS
10
7.36726
20
-4.51328
11
7.36912
21
-4.51384
0
LINE
8
BLACK
6
CONTINUOUS
10
7.36912
20
-4.51384
11
7.37063
21
-4.51508
0
LINE
8
BLACK
6
CONTINUOUS
10
7.37063
20
-4.51508
11
7.37155
21
-4.5168
0
LINE
8
BLACK
6
CONTINUOUS
10
7.37155
20
-4.5168
11
7.37177
21
-4.51825
0
LINE
8
BLACK
6
CONTINUOUS
10
7.37177
20
-4.51825
11
7.37177
21
-4.56376
0
LINE
8
BLACK
6
CONTINUOUS
10
7.37177
20
-4.56376
11
7.37139
21
-4.56568
0
LINE
8
BLACK
6
CONTINUOUS
10
7.37139
20
-4.56568
11
7.37031
21
-4.5673
0
LINE
8
BLACK
6
CONTINUOUS
10
7.37031
20
-4.5673
11
7.36999
21
-4.56759
0
LINE
8
BLACK
6
CONTINUOUS
10
7.36999
20
-4.56759
11
7.36636
21
-4.57063
0
LINE
8
BLACK
6
CONTINUOUS
10
7.36636
20
-4.57063
11
7.36284
21
-4.57673
0
LINE
8
BLACK
6
CONTINUOUS
10
7.36284
20
-4.57673
11
7.36162
21
-4.58366
0
LINE
8
BLACK
6
CONTINUOUS
10
7.36162
20
-4.58366
11
7.36162
21
-4.59579
0
LINE
8
BLACK
6
CONTINUOUS
10
7.36162
20
-4.59579
11
7.36124
21
-4.59771
0
LINE
8
BLACK
6
CONTINUOUS
10
7.36124
20
-4.59771
11
7.36016
21
-4.59933
0
LINE
8
BLACK
6
CONTINUOUS
10
7.36016
20
-4.59933
11
7.35853
21
-4.60041
0
LINE
8
BLACK
6
CONTINUOUS
10
7.35853
20
-4.60041
11
7.35662
21
-4.60079
0
LINE
8
BLACK
6
CONTINUOUS
10
7.35662
20
-4.60079
11
7.35354
21
-4.60079
0
LINE
8
BLACK
6
CONTINUOUS
10
7.35354
20
-4.60079
11
7.35354
21
-4.62106
0
LINE
8
BLACK
6
CONTINUOUS
10
7.35354
20
-4.62106
11
7.36417
21
-4.62106
0
LINE
8
BLACK
6
CONTINUOUS
10
7.36417
20
-4.62106
11
7.36417
21
-4.65433
0
LINE
8
BLACK
6
CONTINUOUS
10
7.36417
20
-4.65433
11
7.38444
21
-4.65433
0
LINE
8
BLACK
6
CONTINUOUS
10
7.38444
20
-4.65433
11
7.38444
21
-4.65027
0
LINE
8
BLACK
6
CONTINUOUS
10
7.38444
20
-4.65027
11
7.38482
21
-4.64836
0
LINE
8
BLACK
6
CONTINUOUS
10
7.38482
20
-4.64836
11
7.38591
21
-4.64673
0
LINE
8
BLACK
6
CONTINUOUS
10
7.38591
20
-4.64673
11
7.38753
21
-4.64565
0
LINE
8
BLACK
6
CONTINUOUS
10
7.38753
20
-4.64565
11
7.38944
21
-4.64527
0
LINE
8
BLACK
6
CONTINUOUS
10
7.38944
20
-4.64527
11
7.41371
21
-4.64527
0
LINE
8
BLACK
6
CONTINUOUS
10
7.41371
20
-4.64527
11
7.41562
21
-4.64565
0
LINE
8
BLACK
6
CONTINUOUS
10
7.41562
20
-4.64565
11
7.41724
21
-4.64673
0
LINE
8
BLACK
6
CONTINUOUS
10
7.41724
20
-4.64673
11
7.41833
21
-4.64836
0
LINE
8
BLACK
6
CONTINUOUS
10
7.41833
20
-4.64836
11
7.41871
21
-4.65027
0
LINE
8
BLACK
6
CONTINUOUS
10
7.41871
20
-4.65027
11
7.41871
21
-4.65433
0
LINE
8
BLACK
6
CONTINUOUS
10
7.41871
20
-4.65433
11
7.43898
21
-4.65433
0
LINE
8
BLACK
6
CONTINUOUS
10
7.43898
20
-4.65433
11
7.43898
21
-4.62106
0
LINE
8
BLACK
6
CONTINUOUS
10
7.43898
20
-4.62106
11
7.44961
21
-4.62106
0
LINE
8
BLACK
6
CONTINUOUS
10
7.44961
20
-4.62106
11
7.44961
21
-4.60079
0
LINE
8
BLACK
6
CONTINUOUS
10
7.44961
20
-4.60079
11
7.44653
21
-4.60079
0
LINE
8
BLACK
6
CONTINUOUS
10
7.44653
20
-4.60079
11
7.44462
21
-4.60041
0
LINE
8
BLACK
6
CONTINUOUS
10
7.44462
20
-4.60041
11
7.44299
21
-4.59933
0
LINE
8
BLACK
6
CONTINUOUS
10
7.44299
20
-4.59933
11
7.44191
21
-4.59771
0
LINE
8
BLACK
6
CONTINUOUS
10
7.44191
20
-4.59771
11
7.44153
21
-4.59579
0
LINE
8
BLACK
6
CONTINUOUS
10
7.44153
20
-4.59579
11
7.44153
21
-4.58367
0
LINE
8
BLACK
6
CONTINUOUS
10
7.44153
20
-4.58367
11
7.43881
21
-4.57353
0
LINE
8
BLACK
6
CONTINUOUS
10
7.43881
20
-4.57353
11
7.43429
21
-4.56813
0
LINE
8
BLACK
6
CONTINUOUS
10
7.43429
20
-4.56813
11
7.43388
21
-4.5679
0
LINE
8
BLACK
6
CONTINUOUS
10
7.43388
20
-4.5679
11
7.43241
21
-4.56661
0
LINE
8
BLACK
6
CONTINUOUS
10
7.43241
20
-4.56661
11
7.43155
21
-4.56486
0
LINE
8
BLACK
6
CONTINUOUS
10
7.43155
20
-4.56486
11
7.43138
21
-4.56357
0
LINE
8
BLACK
6
CONTINUOUS
10
7.43138
20
-4.56357
11
7.43138
21
-4.53049
0
LINE
8
BLACK
6
CONTINUOUS
10
7.43138
20
-4.53049
11
7.43176
21
-4.52858
0
LINE
8
BLACK
6
CONTINUOUS
10
7.43176
20
-4.52858
11
7.43284
21
-4.52696
0
LINE
8
BLACK
6
CONTINUOUS
10
7.43284
20
-4.52696
11
7.43446
21
-4.52587
0
LINE
8
BLACK
6
CONTINUOUS
10
7.43446
20
-4.52587
11
7.43638
21
-4.52549
0
LINE
8
BLACK
6
CONTINUOUS
10
7.43638
20
-4.52549
11
7.43829
21
-4.52587
0
LINE
8
BLACK
6
CONTINUOUS
10
7.43829
20
-4.52587
11
7.43899
21
-4.52634
0
LINE
8
BLACK
6
CONTINUOUS
10
7.43899
20
-4.52634
11
7.45377
21
-4.51156
0
LINE
8
BLACK
6
CONTINUOUS
10
7.45377
20
-4.51156
11
7.45161
21
-4.50846
0
LINE
8
BLACK
6
CONTINUOUS
10
7.45161
20
-4.50846
11
7.44769
21
-4.50007
0
LINE
8
BLACK
6
CONTINUOUS
10
7.44769
20
-4.50007
11
7.4453
21
-4.49112
0
LINE
8
BLACK
6
CONTINUOUS
10
7.4453
20
-4.49112
11
7.44449
21
-4.48189
0
LINE
8
BLACK
6
CONTINUOUS
10
7.44449
20
-4.48189
11
7.4453
21
-4.47266
0
LINE
8
BLACK
6
CONTINUOUS
10
7.4453
20
-4.47266
11
7.44769
21
-4.46371
0
LINE
8
BLACK
6
CONTINUOUS
10
7.44769
20
-4.46371
11
7.45161
21
-4.45531
0
LINE
8
BLACK
6
CONTINUOUS
10
7.45161
20
-4.45531
11
7.45692
21
-4.44773
0
LINE
8
BLACK
6
CONTINUOUS
10
7.45692
20
-4.44773
11
7.46347
21
-4.44117
0
LINE
8
BLACK
6
CONTINUOUS
10
7.46347
20
-4.44117
11
7.47106
21
-4.43586
0
LINE
8
BLACK
6
CONTINUOUS
10
7.47106
20
-4.43586
11
7.47946
21
-4.43195
0
LINE
8
BLACK
6
CONTINUOUS
10
7.47946
20
-4.43195
11
7.48841
21
-4.42955
0
LINE
8
BLACK
6
CONTINUOUS
10
7.48841
20
-4.42955
11
7.49764
21
-4.42874
0
LINE
8
BLACK
6
CONTINUOUS
10
7.49764
20
-4.42874
11
7.50687
21
-4.42955
0
LINE
8
BLACK
6
CONTINUOUS
10
7.50687
20
-4.42955
11
7.51582
21
-4.43195
0
LINE
8
BLACK
6
CONTINUOUS
10
7.51582
20
-4.43195
11
7.52421
21
-4.43586
0
LINE
8
BLACK
6
CONTINUOUS
10
7.52421
20
-4.43586
11
7.5273
21
-4.43803
0
LINE
8
BLACK
6
CONTINUOUS
10
7.5273
20
-4.43803
11
7.54183
21
-4.4235
0
LINE
8
BLACK
6
CONTINUOUS
10
7.54183
20
-4.4235
11
7.54083
21
-4.42266
0
LINE
8
BLACK
6
CONTINUOUS
10
7.54083
20
-4.42266
11
7.53183
21
-4.41704
0
LINE
8
BLACK
6
CONTINUOUS
10
7.53183
20
-4.41704
11
7.52211
21
-4.41279
0
LINE
8
BLACK
6
CONTINUOUS
10
7.52211
20
-4.41279
11
7.51188
21
-4.40998
0
LINE
8
BLACK
6
CONTINUOUS
10
7.51188
20
-4.40998
11
7.50135
21
-4.40868
0
LINE
8
BLACK
6
CONTINUOUS
10
7.50135
20
-4.40868
11
7.49074
21
-4.40891
0
LINE
8
BLACK
6
CONTINUOUS
10
7.49074
20
-4.40891
11
7.48028
21
-4.41067
0
LINE
8
BLACK
6
CONTINUOUS
10
7.48028
20
-4.41067
11
7.47018
21
-4.41392
0
LINE
8
BLACK
6
CONTINUOUS
10
7.47018
20
-4.41392
11
7.46844
21
-4.41477
0
LINE
8
BLACK
6
CONTINUOUS
10
7.46844
20
-4.41477
11
7.46655
21
-4.41528
0
LINE
8
BLACK
6
CONTINUOUS
10
7.46655
20
-4.41528
11
7.46462
21
-4.41502
0
LINE
8
BLACK
6
CONTINUOUS
10
7.46462
20
-4.41502
11
7.46293
21
-4.41404
0
LINE
8
BLACK
6
CONTINUOUS
10
7.46293
20
-4.41404
11
7.46175
21
-4.41249
0
LINE
8
BLACK
6
CONTINUOUS
10
7.46175
20
-4.41249
11
7.46125
21
-4.4106
0
LINE
8
BLACK
6
CONTINUOUS
10
7.46125
20
-4.4106
11
7.46154
21
-4.40857
0
LINE
8
BLACK
6
CONTINUOUS
10
7.46154
20
-4.40857
11
7.46438
21
-4.40078
0
LINE
8
BLACK
6
CONTINUOUS
10
7.46438
20
-4.40078
11
7.46644
21
-4.3907
0
LINE
8
BLACK
6
CONTINUOUS
10
7.46644
20
-4.3907
11
7.46682
21
-4.37681
0
LINE
8
BLACK
6
CONTINUOUS
10
7.46682
20
-4.37681
11
7.46531
21
-4.36664
0
LINE
8
BLACK
6
CONTINUOUS
10
7.46531
20
-4.36664
11
7.46231
21
-4.35681
0
LINE
8
BLACK
6
CONTINUOUS
10
7.46231
20
-4.35681
11
7.46177
21
-4.35567
0
LINE
8
BLACK
6
CONTINUOUS
10
7.46177
20
-4.35567
11
7.46129
21
-4.35378
0
LINE
8
BLACK
6
CONTINUOUS
10
7.46129
20
-4.35378
11
7.46157
21
-4.35185
0
LINE
8
BLACK
6
CONTINUOUS
10
7.46157
20
-4.35185
11
7.46257
21
-4.35017
0
LINE
8
BLACK
6
CONTINUOUS
10
7.46257
20
-4.35017
11
7.46414
21
-4.34901
0
LINE
8
BLACK
6
CONTINUOUS
10
7.46414
20
-4.34901
11
7.46603
21
-4.34853
0
LINE
8
BLACK
6
CONTINUOUS
10
7.46603
20
-4.34853
11
7.46808
21
-4.34886
0
LINE
8
BLACK
6
CONTINUOUS
10
7.46808
20
-4.34886
11
7.47633
21
-4.35203
0
LINE
8
BLACK
6
CONTINUOUS
10
7.47633
20
-4.35203
11
7.48668
21
-4.35437
0
LINE
8
BLACK
6
CONTINUOUS
10
7.48668
20
-4.35437
11
7.49725
21
-4.35519
0
LINE
8
BLACK
6
CONTINUOUS
10
7.49725
20
-4.35519
11
7.50784
21
-4.35448
0
LINE
8
BLACK
6
CONTINUOUS
10
7.50784
20
-4.35448
11
7.51821
21
-4.35225
0
LINE
8
BLACK
6
CONTINUOUS
10
7.51821
20
-4.35225
11
7.52815
21
-4.34854
0
LINE
8
BLACK
6
CONTINUOUS
10
7.52815
20
-4.34854
11
7.53746
21
-4.34344
0
LINE
8
BLACK
6
CONTINUOUS
10
7.53746
20
-4.34344
11
7.54175
21
-4.3402
0
LINE
8
BLACK
6
CONTINUOUS
10
7.54175
20
-4.3402
11
7.5273
21
-4.32575
0
LINE
8
BLACK
6
CONTINUOUS
10
7.5273
20
-4.32575
11
7.52421
21
-4.32792
0
LINE
8
BLACK
6
CONTINUOUS
10
7.52421
20
-4.32792
11
7.51582
21
-4.33183
0
LINE
8
BLACK
6
CONTINUOUS
10
7.51582
20
-4.33183
11
7.50687
21
-4.33423
0
LINE
8
BLACK
6
CONTINUOUS
10
7.50687
20
-4.33423
11
7.49764
21
-4.33504
0
LINE
8
BLACK
6
CONTINUOUS
10
7.49764
20
-4.33504
11
7.48841
21
-4.33423
0
LINE
8
BLACK
6
CONTINUOUS
10
7.48841
20
-4.33423
11
7.47946
21
-4.33183
0
LINE
8
BLACK
6
CONTINUOUS
10
7.47946
20
-4.33183
11
7.47106
21
-4.32792
0
LINE
8
BLACK
6
CONTINUOUS
10
7.47106
20
-4.32792
11
7.46347
21
-4.3226
0
LINE
8
BLACK
6
CONTINUOUS
10
7.46347
20
-4.3226
11
7.45692
21
-4.31605
0
LINE
8
BLACK
6
CONTINUOUS
10
7.45692
20
-4.31605
11
7.45161
21
-4.30846
0
LINE
8
BLACK
6
CONTINUOUS
10
7.45161
20
-4.30846
11
7.44769
21
-4.30007
0
LINE
8
BLACK
6
CONTINUOUS
10
7.44769
20
-4.30007
11
7.4453
21
-4.29112
0
LINE
8
BLACK
6
CONTINUOUS
10
7.4453
20
-4.29112
11
7.44449
21
-4.28189
0
LINE
8
BLACK
6
CONTINUOUS
10
7.44449
20
-4.28189
11
7.4453
21
-4.27266
0
LINE
8
BLACK
6
CONTINUOUS
10
7.4453
20
-4.27266
11
7.44769
21
-4.26371
0
LINE
8
BLACK
6
CONTINUOUS
10
7.44769
20
-4.26371
11
7.45161
21
-4.25531
0
LINE
8
BLACK
6
CONTINUOUS
10
7.45161
20
-4.25531
11
7.45377
21
-4.25222
0
LINE
8
BLACK
6
CONTINUOUS
10
7.45377
20
-4.25222
11
7.4393
21
-4.23775
0
LINE
8
BLACK
6
CONTINUOUS
10
7.4393
20
-4.23775
11
7.43744
21
-4.24005
0
LINE
8
BLACK
6
CONTINUOUS
10
7.43744
20
-4.24005
11
7.43203
21
-4.24918
0
LINE
8
BLACK
6
CONTINUOUS
10
7.43203
20
-4.24918
11
7.428
21
-4.25899
0
LINE
8
BLACK
6
CONTINUOUS
10
7.428
20
-4.25899
11
7.42542
21
-4.26929
0
LINE
8
BLACK
6
CONTINUOUS
10
7.42542
20
-4.26929
11
7.42436
21
-4.27984
0
LINE
8
BLACK
6
CONTINUOUS
10
7.42436
20
-4.27984
11
7.42483
21
-4.29044
0
LINE
8
BLACK
6
CONTINUOUS
10
7.42483
20
-4.29044
11
7.42683
21
-4.30086
0
LINE
8
BLACK
6
CONTINUOUS
10
7.42683
20
-4.30086
11
7.43031
21
-4.31089
0
LINE
8
BLACK
6
CONTINUOUS
10
7.43031
20
-4.31089
11
7.43038
21
-4.31102
0
LINE
8
BLACK
6
CONTINUOUS
10
7.43038
20
-4.31102
11
7.43092
21
-4.31289
0
LINE
8
BLACK
6
CONTINUOUS
10
7.43092
20
-4.31289
11
7.43071
21
-4.31483
0
LINE
8
BLACK
6
CONTINUOUS
10
7.43071
20
-4.31483
11
7.42977
21
-4.31654
0
LINE
8
BLACK
6
CONTINUOUS
10
7.42977
20
-4.31654
11
7.42825
21
-4.31776
0
LINE
8
BLACK
6
CONTINUOUS
10
7.42825
20
-4.31776
11
7.42637
21
-4.31831
0
LINE
8
BLACK
6
CONTINUOUS
10
7.42637
20
-4.31831
11
7.42444
21
-4.31809
0
LINE
8
BLACK
6
CONTINUOUS
10
7.42444
20
-4.31809
11
7.42407
21
-4.31796
0
LINE
8
BLACK
6
CONTINUOUS
10
7.42407
20
-4.31796
11
7.41884
21
-4.31584
0
LINE
8
BLACK
6
CONTINUOUS
10
7.41884
20
-4.31584
11
7.40885
21
-4.31343
0
LINE
8
BLACK
6
CONTINUOUS
10
7.40885
20
-4.31343
11
7.39861
21
-4.31253
0
LINE
8
BLACK
6
CONTINUOUS
10
7.39861
20
-4.31253
11
7.38834
21
-4.31315
0
LINE
8
BLACK
6
CONTINUOUS
10
7.38834
20
-4.31315
11
7.37828
21
-4.31528
0
LINE
8
BLACK
6
CONTINUOUS
10
7.37828
20
-4.31528
11
7.37112
21
-4.31795
0
LINE
8
BLACK
6
CONTINUOUS
10
7.37112
20
-4.31795
11
7.36919
21
-4.31826
0
LINE
8
BLACK
6
CONTINUOUS
10
7.36919
20
-4.31826
11
7.36729
21
-4.31781
0
LINE
8
BLACK
6
CONTINUOUS
10
7.36729
20
-4.31781
11
7.36571
21
-4.31667
0
LINE
8
BLACK
6
CONTINUOUS
10
7.36571
20
-4.31667
11
7.36468
21
-4.31501
0
LINE
8
BLACK
6
CONTINUOUS
10
7.36468
20
-4.31501
11
7.36437
21
-4.31309
0
LINE
8
BLACK
6
CONTINUOUS
10
7.36437
20
-4.31309
11
7.36466
21
-4.31158
0
LINE
8
BLACK
6
CONTINUOUS
10
7.36466
20
-4.31158
11
7.36824
21
-4.3016
0
LINE
8
BLACK
6
CONTINUOUS
10
7.36824
20
-4.3016
11
7.37035
21
-4.2912
0
LINE
8
BLACK
6
CONTINUOUS
10
7.37035
20
-4.2912
11
7.37076
21
-4.27665
0
LINE
8
BLACK
6
CONTINUOUS
10
7.37076
20
-4.27665
11
7.36923
21
-4.26615
0
LINE
8
BLACK
6
CONTINUOUS
10
7.36923
20
-4.26615
11
7.36621
21
-4.25598
0
LINE
8
BLACK
6
CONTINUOUS
10
7.36621
20
-4.25598
11
7.36175
21
-4.24635
0
LINE
8
BLACK
6
CONTINUOUS
10
7.36175
20
-4.24635
11
7.35607
21
-4.23765
0
LINE
8
BLACK
6
CONTINUOUS
10
7.35607
20
-4.23765
11
7.3415
21
-4.25222
0
LINE
8
BLACK
6
CONTINUOUS
10
7.3415
20
-4.25222
11
7.34367
21
-4.25531
0
LINE
8
BLACK
6
CONTINUOUS
10
7.34367
20
-4.25531
11
7.34758
21
-4.26371
0
LINE
8
BLACK
6
CONTINUOUS
10
7.34758
20
-4.26371
11
7.34998
21
-4.27266
0
LINE
8
BLACK
6
CONTINUOUS
10
7.34998
20
-4.27266
11
7.35079
21
-4.28189
0
LINE
8
BLACK
6
CONTINUOUS
10
7.35079
20
-4.28189
11
7.34998
21
-4.29112
0
LINE
8
BLACK
6
CONTINUOUS
10
7.34998
20
-4.29112
11
7.34758
21
-4.30007
0
LINE
8
BLACK
6
CONTINUOUS
10
7.34758
20
-4.30007
11
7.34367
21
-4.30846
0
LINE
8
BLACK
6
CONTINUOUS
10
7.34367
20
-4.30846
11
7.33835
21
-4.31605
0
LINE
8
BLACK
6
CONTINUOUS
10
7.33835
20
-4.31605
11
7.3318
21
-4.3226
0
LINE
8
BLACK
6
CONTINUOUS
10
7.3318
20
-4.3226
11
7.32421
21
-4.32792
0
LINE
8
BLACK
6
CONTINUOUS
10
7.32421
20
-4.32792
11
7.31582
21
-4.33183
0
LINE
8
BLACK
6
CONTINUOUS
10
7.31582
20
-4.33183
11
7.30687
21
-4.33423
0
LINE
8
BLACK
6
CONTINUOUS
10
7.30687
20
-4.33423
11
7.29764
21
-4.33504
0
LINE
8
BLACK
6
CONTINUOUS
10
7.29764
20
-4.33504
11
7.28841
21
-4.33423
0
LINE
8
BLACK
6
CONTINUOUS
10
7.28841
20
-4.33423
11
7.27946
21
-4.33183
0
LINE
8
BLACK
6
CONTINUOUS
10
7.27946
20
-4.33183
11
7.27106
21
-4.32792
0
LINE
8
BLACK
6
CONTINUOUS
10
7.27106
20
-4.32792
11
7.26797
21
-4.32575
0
LINE
8
BLACK
6
CONTINUOUS
10
7.26797
20
-4.32575
11
7.25352
21
-4.3402
0
LINE
8
BLACK
6
CONTINUOUS
10
7.25352
20
-4.3402
11
7.25718
21
-4.34302
0
LINE
8
BLACK
6
CONTINUOUS
10
7.25718
20
-4.34302
11
7.26643
21
-4.34822
0
LINE
8
BLACK
6
CONTINUOUS
10
7.26643
20
-4.34822
11
7.27633
21
-4.35203
0
LINE
8
BLACK
6
CONTINUOUS
10
7.27633
20
-4.35203
11
7.28668
21
-4.35437
0
LINE
8
BLACK
6
CONTINUOUS
10
7.28668
20
-4.35437
11
7.29725
21
-4.35519
0
LINE
8
BLACK
6
CONTINUOUS
10
7.29725
20
-4.35519
11
7.30784
21
-4.35448
0
LINE
8
BLACK
6
CONTINUOUS
10
7.30784
20
-4.35448
11
7.31821
21
-4.35225
0
LINE
8
BLACK
6
CONTINUOUS
10
7.31821
20
-4.35225
11
7.32714
21
-4.34892
0
LINE
8
BLACK
6
CONTINUOUS
10
7.32714
20
-4.34892
11
7.32907
21
-4.34861
0
LINE
8
BLACK
6
CONTINUOUS
10
7.32907
20
-4.34861
11
7.33097
21
-4.34906
0
LINE
8
BLACK
6
CONTINUOUS
10
7.33097
20
-4.34906
11
7.33255
21
-4.3502
0
LINE
8
BLACK
6
CONTINUOUS
10
7.33255
20
-4.3502
11
7.33357
21
-4.35186
0
LINE
8
BLACK
6
CONTINUOUS
10
7.33357
20
-4.35186
11
7.33388
21
-4.35378
0
LINE
8
BLACK
6
CONTINUOUS
10
7.33388
20
-4.35378
11
7.33363
21
-4.3552
0
LINE
8
BLACK
6
CONTINUOUS
10
7.33363
20
-4.3552
11
7.33042
21
-4.36476
0
LINE
8
BLACK
6
CONTINUOUS
10
7.33042
20
-4.36476
11
7.32863
21
-4.37488
0
LINE
8
BLACK
6
CONTINUOUS
10
7.32863
20
-4.37488
11
7.32835
21
-4.38516
0
LINE
8
BLACK
6
CONTINUOUS
10
7.32835
20
-4.38516
11
7.32959
21
-4.39536
0
LINE
8
BLACK
6
CONTINUOUS
10
7.32959
20
-4.39536
11
7.33233
21
-4.40527
0
LINE
8
BLACK
6
CONTINUOUS
10
7.33233
20
-4.40527
11
7.33371
21
-4.40838
0
LINE
8
BLACK
6
CONTINUOUS
10
7.33371
20
-4.40838
11
7.33414
21
-4.41028
0
LINE
8
BLACK
6
CONTINUOUS
10
7.33414
20
-4.41028
11
7.33381
21
-4.41221
0
LINE
8
BLACK
6
CONTINUOUS
10
7.33381
20
-4.41221
11
7.33277
21
-4.41386
0
LINE
8
BLACK
6
CONTINUOUS
10
7.33277
20
-4.41386
11
7.33117
21
-4.41498
0
LINE
8
BLACK
6
CONTINUOUS
10
7.33117
20
-4.41498
11
7.32927
21
-4.41541
0
LINE
8
BLACK
6
CONTINUOUS
10
7.32927
20
-4.41541
11
7.32735
21
-4.41508
0
LINE
8
BLACK
6
CONTINUOUS
10
7.32735
20
-4.41508
11
7.32714
21
-4.41499
0
LINE
8
BLACK
6
CONTINUOUS
10
7.32714
20
-4.41499
11
7.32211
21
-4.41279
0
LINE
8
BLACK
6
CONTINUOUS
10
7.32211
20
-4.41279
11
7.31188
21
-4.40998
0
LINE
8
BLACK
6
CONTINUOUS
10
7.31188
20
-4.40998
11
7.30135
21
-4.40868
0
LINE
8
BLACK
6
CONTINUOUS
10
7.30135
20
-4.40868
11
7.29074
21
-4.40891
0
LINE
8
BLACK
6
CONTINUOUS
10
7.29074
20
-4.40891
11
7.28028
21
-4.41067
0
LINE
8
BLACK
6
CONTINUOUS
10
7.28028
20
-4.41067
11
7.27018
21
-4.41392
0
LINE
8
BLACK
6
CONTINUOUS
10
7.27018
20
-4.41392
11
7.26065
21
-4.4186
0
LINE
8
BLACK
6
CONTINUOUS
10
7.26065
20
-4.4186
11
7.25347
21
-4.42352
0
LINE
8
BLACK
6
CONTINUOUS
10
7.25347
20
-4.42352
11
7.26797
21
-4.43803
0
LINE
8
BLACK
6
CONTINUOUS
10
7.26797
20
-4.43803
11
7.27106
21
-4.43586
0
LINE
8
BLACK
6
CONTINUOUS
10
7.46643
20
-4.03641
11
7.47633
21
-4.04022
0
LINE
8
BLACK
6
CONTINUOUS
10
7.47633
20
-4.04022
11
7.48668
21
-4.04256
0
LINE
8
BLACK
6
CONTINUOUS
10
7.48668
20
-4.04256
11
7.49725
21
-4.04338
0
LINE
8
BLACK
6
CONTINUOUS
10
7.49725
20
-4.04338
11
7.50784
21
-4.04267
0
LINE
8
BLACK
6
CONTINUOUS
10
7.50784
20
-4.04267
11
7.51821
21
-4.04044
0
LINE
8
BLACK
6
CONTINUOUS
10
7.51821
20
-4.04044
11
7.52815
21
-4.03673
0
LINE
8
BLACK
6
CONTINUOUS
10
7.52815
20
-4.03673
11
7.53746
21
-4.03163
0
LINE
8
BLACK
6
CONTINUOUS
10
7.53746
20
-4.03163
11
7.54175
21
-4.02839
0
LINE
8
BLACK
6
CONTINUOUS
10
7.54175
20
-4.02839
11
7.5273
21
-4.01394
0
LINE
8
BLACK
6
CONTINUOUS
10
7.5273
20
-4.01394
11
7.52421
21
-4.01611
0
LINE
8
BLACK
6
CONTINUOUS
10
7.52421
20
-4.01611
11
7.51582
21
-4.02002
0
LINE
8
BLACK
6
CONTINUOUS
10
7.51582
20
-4.02002
11
7.50687
21
-4.02242
0
LINE
8
BLACK
6
CONTINUOUS
10
7.50687
20
-4.02242
11
7.49764
21
-4.02323
0
LINE
8
BLACK
6
CONTINUOUS
10
7.49764
20
-4.02323
11
7.48841
21
-4.02242
0
LINE
8
BLACK
6
CONTINUOUS
10
7.48841
20
-4.02242
11
7.47946
21
-4.02002
0
LINE
8
BLACK
6
CONTINUOUS
10
7.47946
20
-4.02002
11
7.47106
21
-4.01611
0
LINE
8
BLACK
6
CONTINUOUS
10
7.47106
20
-4.01611
11
7.46797
21
-4.01394
0
LINE
8
BLACK
6
CONTINUOUS
10
7.46797
20
-4.01394
11
7.45352
21
-4.02839
0
LINE
8
BLACK
6
CONTINUOUS
10
7.45352
20
-4.02839
11
7.45718
21
-4.03121
0
LINE
8
BLACK
6
CONTINUOUS
10
7.45718
20
-4.03121
11
7.46643
21
-4.03641
0
LINE
8
BLACK
6
CONTINUOUS
10
7.27106
20
-4.23586
11
7.27946
21
-4.23195
0
LINE
8
BLACK
6
CONTINUOUS
10
7.27946
20
-4.23195
11
7.28841
21
-4.22955
0
LINE
8
BLACK
6
CONTINUOUS
10
7.28841
20
-4.22955
11
7.29764
21
-4.22874
0
LINE
8
BLACK
6
CONTINUOUS
10
7.29764
20
-4.22874
11
7.30687
21
-4.22955
0
LINE
8
BLACK
6
CONTINUOUS
10
7.30687
20
-4.22955
11
7.31582
21
-4.23195
0
LINE
8
BLACK
6
CONTINUOUS
10
7.31582
20
-4.23195
11
7.32421
21
-4.23586
0
LINE
8
BLACK
6
CONTINUOUS
10
7.32421
20
-4.23586
11
7.3273
21
-4.23803
0
LINE
8
BLACK
6
CONTINUOUS
10
7.3273
20
-4.23803
11
7.34183
21
-4.2235
0
LINE
8
BLACK
6
CONTINUOUS
10
7.34183
20
-4.2235
11
7.34083
21
-4.22266
0
LINE
8
BLACK
6
CONTINUOUS
10
7.34083
20
-4.22266
11
7.33183
21
-4.21704
0
LINE
8
BLACK
6
CONTINUOUS
10
7.33183
20
-4.21704
11
7.32782
21
-4.21529
0
LINE
8
BLACK
6
CONTINUOUS
10
7.32782
20
-4.21529
11
7.32489
21
-4.21636
0
LINE
8
BLACK
6
CONTINUOUS
10
7.32489
20
-4.21636
11
7.32078
21
-4.21636
0
LINE
8
BLACK
6
CONTINUOUS
10
7.32078
20
-4.21636
11
7.31693
21
-4.21495
0
LINE
8
BLACK
6
CONTINUOUS
10
7.31693
20
-4.21495
11
7.31379
21
-4.21232
0
LINE
8
BLACK
6
CONTINUOUS
10
7.31379
20
-4.21232
11
7.31254
21
-4.21016
0
LINE
8
BLACK
6
CONTINUOUS
10
7.31254
20
-4.21016
11
7.31188
21
-4.20998
0
LINE
8
BLACK
6
CONTINUOUS
10
7.31188
20
-4.20998
11
7.30135
21
-4.20868
0
LINE
8
BLACK
6
CONTINUOUS
10
7.30135
20
-4.20868
11
7.29074
21
-4.20891
0
LINE
8
BLACK
6
CONTINUOUS
10
7.29074
20
-4.20891
11
7.28028
21
-4.21067
0
LINE
8
BLACK
6
CONTINUOUS
10
7.28028
20
-4.21067
11
7.27018
21
-4.21392
0
LINE
8
BLACK
6
CONTINUOUS
10
7.27018
20
-4.21392
11
7.26065
21
-4.2186
0
LINE
8
BLACK
6
CONTINUOUS
10
7.26065
20
-4.2186
11
7.25347
21
-4.22352
0
LINE
8
BLACK
6
CONTINUOUS
10
7.25347
20
-4.22352
11
7.26797
21
-4.23803
0
LINE
8
BLACK
6
CONTINUOUS
10
7.26797
20
-4.23803
11
7.27106
21
-4.23586
0
LINE
8
BLACK
6
CONTINUOUS
10
6.11512
20
-4.27564
11
6.11333
21
-4.27487
0
LINE
8
BLACK
6
CONTINUOUS
10
6.11333
20
-4.27487
11
6.11262
21
-4.27429
0
LINE
8
BLACK
6
CONTINUOUS
10
6.11262
20
-4.27429
11
6.08174
21
-4.2434
0
LINE
8
BLACK
6
CONTINUOUS
10
6.08174
20
-4.2434
11
6.08032
21
-4.24268
0
LINE
8
BLACK
6
CONTINUOUS
10
6.08032
20
-4.24268
11
6.07965
21
-4.24227
0
LINE
8
BLACK
6
CONTINUOUS
10
6.07965
20
-4.24227
11
6.07837
21
-4.24133
0
LINE
8
BLACK
6
CONTINUOUS
10
6.07837
20
-4.24133
11
6.07686
21
-4.24084
0
LINE
8
BLACK
6
CONTINUOUS
10
6.07686
20
-4.24084
11
6.07613
21
-4.24054
0
LINE
8
BLACK
6
CONTINUOUS
10
6.07613
20
-4.24054
11
6.07471
21
-4.23982
0
LINE
8
BLACK
6
CONTINUOUS
10
6.07471
20
-4.23982
11
6.07314
21
-4.23957
0
LINE
8
BLACK
6
CONTINUOUS
10
6.07314
20
-4.23957
11
6.07238
21
-4.23939
0
LINE
8
BLACK
6
CONTINUOUS
10
6.07238
20
-4.23939
11
6.07087
21
-4.2389
0
LINE
8
BLACK
6
CONTINUOUS
10
6.07087
20
-4.2389
11
5.9787
21
-4.2389
0
LINE
8
BLACK
6
CONTINUOUS
10
5.9787
20
-4.2389
11
5.97679
21
-4.23852
0
LINE
8
BLACK
6
CONTINUOUS
10
5.97679
20
-4.23852
11
5.97517
21
-4.23743
0
LINE
8
BLACK
6
CONTINUOUS
10
5.97517
20
-4.23743
11
5.97408
21
-4.23581
0
LINE
8
BLACK
6
CONTINUOUS
10
5.97408
20
-4.23581
11
5.9737
21
-4.2339
0
LINE
8
BLACK
6
CONTINUOUS
10
5.9737
20
-4.2339
11
5.9737
21
-4.22281
0
LINE
8
BLACK
6
CONTINUOUS
10
5.9737
20
-4.22281
11
5.9737
21
-4.19685
0
LINE
8
BLACK
6
CONTINUOUS
10
5.9737
20
-4.19685
11
5.97321
21
-4.19534
0
LINE
8
BLACK
6
CONTINUOUS
10
5.97321
20
-4.19534
11
5.97303
21
-4.19457
0
LINE
8
BLACK
6
CONTINUOUS
10
5.97303
20
-4.19457
11
5.97278
21
-4.193
0
LINE
8
BLACK
6
CONTINUOUS
10
5.97278
20
-4.193
11
5.97206
21
-4.19159
0
LINE
8
BLACK
6
CONTINUOUS
10
5.97206
20
-4.19159
11
5.97176
21
-4.19086
0
LINE
8
BLACK
6
CONTINUOUS
10
5.97176
20
-4.19086
11
5.97127
21
-4.18935
0
LINE
8
BLACK
6
CONTINUOUS
10
5.97127
20
-4.18935
11
5.97033
21
-4.18806
0
LINE
8
BLACK
6
CONTINUOUS
10
5.97033
20
-4.18806
11
5.96992
21
-4.1874
0
LINE
8
BLACK
6
CONTINUOUS
10
5.96992
20
-4.1874
11
5.9692
21
-4.18598
0
LINE
8
BLACK
6
CONTINUOUS
10
5.9692
20
-4.18598
11
5.9455
21
-4.16228
0
LINE
8
BLACK
6
CONTINUOUS
10
5.9455
20
-4.16228
11
5.94442
21
-4.16066
0
LINE
8
BLACK
6
CONTINUOUS
10
5.94442
20
-4.16066
11
5.94404
21
-4.15875
0
LINE
8
BLACK
6
CONTINUOUS
10
5.94404
20
-4.15875
11
5.94425
21
-4.1573
0
LINE
8
BLACK
6
CONTINUOUS
10
5.94425
20
-4.1573
11
5.94506
21
-4.15462
0
LINE
8
BLACK
6
CONTINUOUS
10
5.94506
20
-4.15462
11
5.94516
21
-4.14525
0
LINE
8
BLACK
6
CONTINUOUS
10
5.94516
20
-4.14525
11
5.94282
21
-4.13687
0
LINE
8
BLACK
6
CONTINUOUS
10
5.94282
20
-4.13687
11
5.93831
21
-4.12942
0
LINE
8
BLACK
6
CONTINUOUS
10
5.93831
20
-4.12942
11
5.93196
21
-4.12346
0
LINE
8
BLACK
6
CONTINUOUS
10
5.93196
20
-4.12346
11
5.92425
21
-4.11943
0
LINE
8
BLACK
6
CONTINUOUS
10
5.92425
20
-4.11943
11
5.91573
21
-4.11762
0
LINE
8
BLACK
6
CONTINUOUS
10
5.91573
20
-4.11762
11
5.91209
21
-4.11785
0
LINE
8
BLACK
6
CONTINUOUS
10
5.91209
20
-4.11785
11
5.91015
21
-4.11759
0
LINE
8
BLACK
6
CONTINUOUS
10
5.91015
20
-4.11759
11
5.90847
21
-4.11661
0
LINE
8
BLACK
6
CONTINUOUS
10
5.90847
20
-4.11661
11
5.90728
21
-4.11506
0
LINE
8
BLACK
6
CONTINUOUS
10
5.90728
20
-4.11506
11
5.90678
21
-4.11318
0
LINE
8
BLACK
6
CONTINUOUS
10
5.90678
20
-4.11318
11
5.90677
21
-4.11286
0
LINE
8
BLACK
6
CONTINUOUS
10
5.90677
20
-4.11286
11
5.90677
21
-4.03729
0
LINE
8
BLACK
6
CONTINUOUS
10
5.90677
20
-4.03729
11
5.90715
21
-4.03538
0
LINE
8
BLACK
6
CONTINUOUS
10
5.90715
20
-4.03538
11
5.90755
21
-4.03461
0
LINE
8
BLACK
6
CONTINUOUS
10
5.90755
20
-4.03461
11
5.91105
21
-4.0291
0
LINE
8
BLACK
6
CONTINUOUS
10
5.91105
20
-4.0291
11
5.91126
21
-4.02839
0
LINE
8
BLACK
6
CONTINUOUS
10
5.91126
20
-4.02839
11
5.91155
21
-4.02743
0
LINE
8
BLACK
6
CONTINUOUS
10
5.91155
20
-4.02743
11
5.91357
21
-4.02077
0
LINE
8
BLACK
6
CONTINUOUS
10
5.91357
20
-4.02077
11
5.91366
21
-4.0114
0
LINE
8
BLACK
6
CONTINUOUS
10
5.91366
20
-4.0114
11
5.91132
21
-4.00301
0
LINE
8
BLACK
6
CONTINUOUS
10
5.91132
20
-4.00301
11
5.9096
21
-4.00016
0
LINE
8
BLACK
6
CONTINUOUS
10
5.9096
20
-4.00016
11
5.90893
21
-3.99833
0
LINE
8
BLACK
6
CONTINUOUS
10
5.90893
20
-3.99833
11
5.90902
21
-3.99638
0
LINE
8
BLACK
6
CONTINUOUS
10
5.90902
20
-3.99638
11
5.90984
21
-3.99461
0
LINE
8
BLACK
6
CONTINUOUS
10
5.90984
20
-3.99461
11
5.91128
21
-3.9933
0
LINE
8
BLACK
6
CONTINUOUS
10
5.91128
20
-3.9933
11
5.91312
21
-3.99263
0
LINE
8
BLACK
6
CONTINUOUS
10
5.91312
20
-3.99263
11
5.91429
21
-3.99259
0
LINE
8
BLACK
6
CONTINUOUS
10
5.91429
20
-3.99259
11
5.91506
21
-3.99266
0
LINE
8
BLACK
6
CONTINUOUS
10
5.91506
20
-3.99266
11
5.92361
21
-3.99102
0
LINE
8
BLACK
6
CONTINUOUS
10
5.92361
20
-3.99102
11
5.93141
21
-3.98715
0
LINE
8
BLACK
6
CONTINUOUS
10
5.93141
20
-3.98715
11
5.93181
21
-3.9868
0
LINE
8
BLACK
6
CONTINUOUS
10
5.93181
20
-3.9868
11
5.93349
21
-3.9858
0
LINE
8
BLACK
6
CONTINUOUS
10
5.93349
20
-3.9858
11
5.93515
21
-3.98551
0
LINE
8
BLACK
6
CONTINUOUS
10
5.93515
20
-3.98551
11
6.01006
21
-3.98551
0
LINE
8
BLACK
6
CONTINUOUS
10
6.01006
20
-3.98551
11
6.01198
21
-3.98589
0
LINE
8
BLACK
6
CONTINUOUS
10
6.01198
20
-3.98589
11
6.013
21
-3.98647
0
LINE
8
BLACK
6
CONTINUOUS
10
6.013
20
-3.98647
11
6.01634
21
-3.98889
0
LINE
8
BLACK
6
CONTINUOUS
10
6.01634
20
-3.98889
11
6.0245
21
-3.99193
0
LINE
8
BLACK
6
CONTINUOUS
10
6.0245
20
-3.99193
11
6.03317
21
-3.99266
0
LINE
8
BLACK
6
CONTINUOUS
10
6.03317
20
-3.99266
11
6.04173
21
-3.99103
0
LINE
8
BLACK
6
CONTINUOUS
10
6.04173
20
-3.99103
11
6.04952
21
-3.98715
0
LINE
8
BLACK
6
CONTINUOUS
10
6.04952
20
-3.98715
11
6.05599
21
-3.98133
0
LINE
8
BLACK
6
CONTINUOUS
10
6.05599
20
-3.98133
11
6.06066
21
-3.97398
0
LINE
8
BLACK
6
CONTINUOUS
10
6.06066
20
-3.97398
11
6.06245
21
-3.96803
0
LINE
8
BLACK
6
CONTINUOUS
10
6.06245
20
-3.96803
11
6.06293
21
-3.96645
0
LINE
8
BLACK
6
CONTINUOUS
10
6.06293
20
-3.96645
11
6.06293
21
-3.96645
0
LINE
8
BLACK
6
CONTINUOUS
10
6.06293
20
-3.96645
11
6.06317
21
-3.96565
0
LINE
8
BLACK
6
CONTINUOUS
10
6.06317
20
-3.96565
11
6.06327
21
-3.95628
0
LINE
8
BLACK
6
CONTINUOUS
10
6.06327
20
-3.95628
11
6.06093
21
-3.94789
0
LINE
8
BLACK
6
CONTINUOUS
10
6.06093
20
-3.94789
11
6.05642
21
-3.94045
0
LINE
8
BLACK
6
CONTINUOUS
10
6.05642
20
-3.94045
11
6.05007
21
-3.93449
0
LINE
8
BLACK
6
CONTINUOUS
10
6.05007
20
-3.93449
11
6.04236
21
-3.93046
0
LINE
8
BLACK
6
CONTINUOUS
10
6.04236
20
-3.93046
11
6.03384
21
-3.92865
0
LINE
8
BLACK
6
CONTINUOUS
10
6.03384
20
-3.92865
11
6.02516
21
-3.92919
0
LINE
8
BLACK
6
CONTINUOUS
10
6.02516
20
-3.92919
11
6.01694
21
-3.93206
0
LINE
8
BLACK
6
CONTINUOUS
10
6.01694
20
-3.93206
11
6.01291
21
-3.93485
0
LINE
8
BLACK
6
CONTINUOUS
10
6.01291
20
-3.93485
11
6.01112
21
-3.93563
0
LINE
8
BLACK
6
CONTINUOUS
10
6.01112
20
-3.93563
11
6.01006
21
-3.93575
0
LINE
8
BLACK
6
CONTINUOUS
10
6.01006
20
-3.93575
11
5.93528
21
-3.93575
0
LINE
8
BLACK
6
CONTINUOUS
10
5.93528
20
-3.93575
11
5.93337
21
-3.93537
0
LINE
8
BLACK
6
CONTINUOUS
10
5.93337
20
-3.93537
11
5.9322
21
-3.93461
0
LINE
8
BLACK
6
CONTINUOUS
10
5.9322
20
-3.93461
11
5.92425
21
-3.93045
0
LINE
8
BLACK
6
CONTINUOUS
10
5.92425
20
-3.93045
11
5.91573
21
-3.92864
0
LINE
8
BLACK
6
CONTINUOUS
10
5.91573
20
-3.92864
11
5.90705
21
-3.92919
0
LINE
8
BLACK
6
CONTINUOUS
10
5.90705
20
-3.92919
11
5.89883
21
-3.93205
0
LINE
8
BLACK
6
CONTINUOUS
10
5.89883
20
-3.93205
11
5.89168
21
-3.93702
0
LINE
8
BLACK
6
CONTINUOUS
10
5.89168
20
-3.93702
11
5.88613
21
-3.94373
0
LINE
8
BLACK
6
CONTINUOUS
10
5.88613
20
-3.94373
11
5.88259
21
-3.95168
0
LINE
8
BLACK
6
CONTINUOUS
10
5.88259
20
-3.95168
11
5.88132
21
-3.96029
0
LINE
8
BLACK
6
CONTINUOUS
10
5.88132
20
-3.96029
11
5.88241
21
-3.96893
0
LINE
8
BLACK
6
CONTINUOUS
10
5.88241
20
-3.96893
11
5.8858
21
-3.97701
0
LINE
8
BLACK
6
CONTINUOUS
10
5.8858
20
-3.97701
11
5.88619
21
-3.97892
0
LINE
8
BLACK
6
CONTINUOUS
10
5.88619
20
-3.97892
11
5.88582
21
-3.98084
0
LINE
8
BLACK
6
CONTINUOUS
10
5.88582
20
-3.98084
11
5.88475
21
-3.98246
0
LINE
8
BLACK
6
CONTINUOUS
10
5.88475
20
-3.98246
11
5.88313
21
-3.98356
0
LINE
8
BLACK
6
CONTINUOUS
10
5.88313
20
-3.98356
11
5.88151
21
-3.98394
0
LINE
8
BLACK
6
CONTINUOUS
10
5.88151
20
-3.98394
11
5.87555
21
-3.98431
0
LINE
8
BLACK
6
CONTINUOUS
10
5.87555
20
-3.98431
11
5.86733
21
-3.98717
0
LINE
8
BLACK
6
CONTINUOUS
10
5.86733
20
-3.98717
11
5.86018
21
-3.99214
0
LINE
8
BLACK
6
CONTINUOUS
10
5.86018
20
-3.99214
11
5.85463
21
-3.99885
0
LINE
8
BLACK
6
CONTINUOUS
10
5.85463
20
-3.99885
11
5.85109
21
-4.0068
0
LINE
8
BLACK
6
CONTINUOUS
10
5.85109
20
-4.0068
11
5.84982
21
-4.01541
0
LINE
8
BLACK
6
CONTINUOUS
10
5.84982
20
-4.01541
11
5.85026
21
-4.01887
0
LINE
8
BLACK
6
CONTINUOUS
10
5.85026
20
-4.01887
11
5.85157
21
-4.01997
0
LINE
8
BLACK
6
CONTINUOUS
10
5.85157
20
-4.01997
11
5.85362
21
-4.02352
0
LINE
8
BLACK
6
CONTINUOUS
10
5.85362
20
-4.02352
11
5.85433
21
-4.02756
0
LINE
8
BLACK
6
CONTINUOUS
10
5.85433
20
-4.02756
11
5.85376
21
-4.03082
0
LINE
8
BLACK
6
CONTINUOUS
10
5.85376
20
-4.03082
11
5.85429
21
-4.03208
0
LINE
8
BLACK
6
CONTINUOUS
10
5.85429
20
-4.03208
11
5.85593
21
-4.03415
0
LINE
8
BLACK
6
CONTINUOUS
10
5.85593
20
-4.03415
11
5.85682
21
-4.03588
0
LINE
8
BLACK
6
CONTINUOUS
10
5.85682
20
-4.03588
11
5.85701
21
-4.03725
0
LINE
8
BLACK
6
CONTINUOUS
10
5.85701
20
-4.03725
11
5.85701
21
-4.17717
0
LINE
8
BLACK
6
CONTINUOUS
10
5.85701
20
-4.17717
11
5.8575
21
-4.17868
0
LINE
8
BLACK
6
CONTINUOUS
10
5.8575
20
-4.17868
11
5.85768
21
-4.17944
0
LINE
8
BLACK
6
CONTINUOUS
10
5.85768
20
-4.17944
11
5.85793
21
-4.18101
0
LINE
8
BLACK
6
CONTINUOUS
10
5.85793
20
-4.18101
11
5.85865
21
-4.18243
0
LINE
8
BLACK
6
CONTINUOUS
10
5.85865
20
-4.18243
11
5.85895
21
-4.18315
0
LINE
8
BLACK
6
CONTINUOUS
10
5.85895
20
-4.18315
11
5.85944
21
-4.18467
0
LINE
8
BLACK
6
CONTINUOUS
10
5.85944
20
-4.18467
11
5.86038
21
-4.18595
0
LINE
8
BLACK
6
CONTINUOUS
10
5.86038
20
-4.18595
11
5.86079
21
-4.18662
0
LINE
8
BLACK
6
CONTINUOUS
10
5.86079
20
-4.18662
11
5.86151
21
-4.18804
0
LINE
8
BLACK
6
CONTINUOUS
10
5.86151
20
-4.18804
11
5.88231
21
-4.20884
0
LINE
8
BLACK
6
CONTINUOUS
10
5.88231
20
-4.20884
11
5.88394
21
-4.20884
0
LINE
8
BLACK
6
CONTINUOUS
10
5.88394
20
-4.20884
11
5.8878
21
-4.21024
0
LINE
8
BLACK
6
CONTINUOUS
10
5.8878
20
-4.21024
11
5.89094
21
-4.21288
0
LINE
8
BLACK
6
CONTINUOUS
10
5.89094
20
-4.21288
11
5.89299
21
-4.21643
0
LINE
8
BLACK
6
CONTINUOUS
10
5.89299
20
-4.21643
11
5.89365
21
-4.22018
0
LINE
8
BLACK
6
CONTINUOUS
10
5.89365
20
-4.22018
11
5.89491
21
-4.22144
0
LINE
8
BLACK
6
CONTINUOUS
10
5.89491
20
-4.22144
11
5.896
21
-4.22306
0
LINE
8
BLACK
6
CONTINUOUS
10
5.896
20
-4.22306
11
5.89638
21
-4.22498
0
LINE
8
BLACK
6
CONTINUOUS
10
5.89638
20
-4.22498
11
5.89638
21
-4.27782
0
LINE
8
BLACK
6
CONTINUOUS
10
5.89638
20
-4.27782
11
5.89687
21
-4.27933
0
LINE
8
BLACK
6
CONTINUOUS
10
5.89687
20
-4.27933
11
5.89705
21
-4.28009
0
LINE
8
BLACK
6
CONTINUOUS
10
5.89705
20
-4.28009
11
5.8973
21
-4.28166
0
LINE
8
BLACK
6
CONTINUOUS
10
5.8973
20
-4.28166
11
5.89802
21
-4.28308
0
LINE
8
BLACK
6
CONTINUOUS
10
5.89802
20
-4.28308
11
5.89832
21
-4.2838
0
LINE
8
BLACK
6
CONTINUOUS
10
5.89832
20
-4.2838
11
5.89881
21
-4.28531
0
LINE
8
BLACK
6
CONTINUOUS
10
5.89881
20
-4.28531
11
5.89975
21
-4.2866
0
LINE
8
BLACK
6
CONTINUOUS
10
5.89975
20
-4.2866
11
5.90016
21
-4.28727
0
LINE
8
BLACK
6
CONTINUOUS
10
5.90016
20
-4.28727
11
5.90088
21
-4.28868
0
LINE
8
BLACK
6
CONTINUOUS
10
5.90088
20
-4.28868
11
5.92169
21
-4.3095
0
LINE
8
BLACK
6
CONTINUOUS
10
5.92169
20
-4.3095
11
5.92277
21
-4.31112
0
LINE
8
BLACK
6
CONTINUOUS
10
5.92277
20
-4.31112
11
5.92311
21
-4.3124
0
LINE
8
BLACK
6
CONTINUOUS
10
5.92311
20
-4.3124
11
5.92349
21
-4.31539
0
LINE
8
BLACK
6
CONTINUOUS
10
5.92349
20
-4.31539
11
5.92686
21
-4.32341
0
LINE
8
BLACK
6
CONTINUOUS
10
5.92686
20
-4.32341
11
5.93227
21
-4.33023
0
LINE
8
BLACK
6
CONTINUOUS
10
5.93227
20
-4.33023
11
5.93931
21
-4.33535
0
LINE
8
BLACK
6
CONTINUOUS
10
5.93931
20
-4.33535
11
5.94747
21
-4.33838
0
LINE
8
BLACK
6
CONTINUOUS
10
5.94747
20
-4.33838
11
5.95615
21
-4.33911
0
LINE
8
BLACK
6
CONTINUOUS
10
5.95615
20
-4.33911
11
5.9647
21
-4.33748
0
LINE
8
BLACK
6
CONTINUOUS
10
5.9647
20
-4.33748
11
5.9725
21
-4.33361
0
LINE
8
BLACK
6
CONTINUOUS
10
5.9725
20
-4.33361
11
5.97896
21
-4.32779
0
LINE
8
BLACK
6
CONTINUOUS
10
5.97896
20
-4.32779
11
5.98363
21
-4.32044
0
LINE
8
BLACK
6
CONTINUOUS
10
5.98363
20
-4.32044
11
5.9853
21
-4.31489
0
LINE
8
BLACK
6
CONTINUOUS
10
5.9853
20
-4.31489
11
5.98505
21
-4.31468
0
LINE
8
BLACK
6
CONTINUOUS
10
5.98505
20
-4.31468
11
5.983
21
-4.31113
0
LINE
8
BLACK
6
CONTINUOUS
10
5.983
20
-4.31113
11
5.98228
21
-4.30709
0
LINE
8
BLACK
6
CONTINUOUS
10
5.98228
20
-4.30709
11
5.983
21
-4.30305
0
LINE
8
BLACK
6
CONTINUOUS
10
5.983
20
-4.30305
11
5.98505
21
-4.29949
0
LINE
8
BLACK
6
CONTINUOUS
10
5.98505
20
-4.29949
11
5.98528
21
-4.2993
0
LINE
8
BLACK
6
CONTINUOUS
10
5.98528
20
-4.2993
11
5.98409
21
-4.29501
0
LINE
8
BLACK
6
CONTINUOUS
10
5.98409
20
-4.29501
11
5.98394
21
-4.29306
0
LINE
8
BLACK
6
CONTINUOUS
10
5.98394
20
-4.29306
11
5.98454
21
-4.29121
0
LINE
8
BLACK
6
CONTINUOUS
10
5.98454
20
-4.29121
11
5.98582
21
-4.28973
0
LINE
8
BLACK
6
CONTINUOUS
10
5.98582
20
-4.28973
11
5.98756
21
-4.28885
0
LINE
8
BLACK
6
CONTINUOUS
10
5.98756
20
-4.28885
11
5.9889
21
-4.28866
0
LINE
8
BLACK
6
CONTINUOUS
10
5.9889
20
-4.28866
11
6.05455
21
-4.28866
0
LINE
8
BLACK
6
CONTINUOUS
10
6.05455
20
-4.28866
11
6.05647
21
-4.28904
0
LINE
8
BLACK
6
CONTINUOUS
10
6.05647
20
-4.28904
11
6.05809
21
-4.29013
0
LINE
8
BLACK
6
CONTINUOUS
10
6.05809
20
-4.29013
11
6.06488
21
-4.29692
0
LINE
8
BLACK
6
CONTINUOUS
10
6.06488
20
-4.29692
11
6.06496
21
-4.29686
0
LINE
8
BLACK
6
CONTINUOUS
10
6.06496
20
-4.29686
11
6.06882
21
-4.29546
0
LINE
8
BLACK
6
CONTINUOUS
10
6.06882
20
-4.29546
11
6.07292
21
-4.29546
0
LINE
8
BLACK
6
CONTINUOUS
10
6.07292
20
-4.29546
11
6.07677
21
-4.29686
0
LINE
8
BLACK
6
CONTINUOUS
10
6.07677
20
-4.29686
11
6.07991
21
-4.29949
0
LINE
8
BLACK
6
CONTINUOUS
10
6.07991
20
-4.29949
11
6.08196
21
-4.30305
0
LINE
8
BLACK
6
CONTINUOUS
10
6.08196
20
-4.30305
11
6.08268
21
-4.30709
0
LINE
8
BLACK
6
CONTINUOUS
10
6.08268
20
-4.30709
11
6.08196
21
-4.31113
0
LINE
8
BLACK
6
CONTINUOUS
10
6.08196
20
-4.31113
11
6.07991
21
-4.31468
0
LINE
8
BLACK
6
CONTINUOUS
10
6.07991
20
-4.31468
11
6.07924
21
-4.31524
0
LINE
8
BLACK
6
CONTINUOUS
10
6.07924
20
-4.31524
11
6.07926
21
-4.31539
0
LINE
8
BLACK
6
CONTINUOUS
10
6.07926
20
-4.31539
11
6.08263
21
-4.32341
0
LINE
8
BLACK
6
CONTINUOUS
10
6.08263
20
-4.32341
11
6.08804
21
-4.33023
0
LINE
8
BLACK
6
CONTINUOUS
10
6.08804
20
-4.33023
11
6.09508
21
-4.33535
0
LINE
8
BLACK
6
CONTINUOUS
10
6.09508
20
-4.33535
11
6.10324
21
-4.33838
0
LINE
8
BLACK
6
CONTINUOUS
10
6.10324
20
-4.33838
11
6.11191
21
-4.33911
0
LINE
8
BLACK
6
CONTINUOUS
10
6.11191
20
-4.33911
11
6.12047
21
-4.33748
0
LINE
8
BLACK
6
CONTINUOUS
10
6.12047
20
-4.33748
11
6.12826
21
-4.33361
0
LINE
8
BLACK
6
CONTINUOUS
10
6.12826
20
-4.33361
11
6.13473
21
-4.32779
0
LINE
8
BLACK
6
CONTINUOUS
10
6.13473
20
-4.32779
11
6.1394
21
-4.32044
0
LINE
8
BLACK
6
CONTINUOUS
10
6.1394
20
-4.32044
11
6.14191
21
-4.3121
0
LINE
8
BLACK
6
CONTINUOUS
10
6.14191
20
-4.3121
11
6.14201
21
-4.30273
0
LINE
8
BLACK
6
CONTINUOUS
10
6.14201
20
-4.30273
11
6.13967
21
-4.29435
0
LINE
8
BLACK
6
CONTINUOUS
10
6.13967
20
-4.29435
11
6.13516
21
-4.2869
0
LINE
8
BLACK
6
CONTINUOUS
10
6.13516
20
-4.2869
11
6.13137
21
-4.28335
0
LINE
8
BLACK
6
CONTINUOUS
10
6.13137
20
-4.28335
11
6.12881
21
-4.28095
0
LINE
8
BLACK
6
CONTINUOUS
10
6.12881
20
-4.28095
11
6.12671
21
-4.27984
0
LINE
8
BLACK
6
CONTINUOUS
10
6.12671
20
-4.27984
11
6.1211
21
-4.27691
0
LINE
8
BLACK
6
CONTINUOUS
10
6.1211
20
-4.27691
11
6.11512
21
-4.27564
0
LINE
8
BLACK
6
CONTINUOUS
10
7.26643
20
-4.03641
11
7.27633
21
-4.04022
0
LINE
8
BLACK
6
CONTINUOUS
10
7.27633
20
-4.04022
11
7.28668
21
-4.04256
0
LINE
8
BLACK
6
CONTINUOUS
10
7.28668
20
-4.04256
11
7.29725
21
-4.04338
0
LINE
8
BLACK
6
CONTINUOUS
10
7.29725
20
-4.04338
11
7.30784
21
-4.04267
0
LINE
8
BLACK
6
CONTINUOUS
10
7.30784
20
-4.04267
11
7.31821
21
-4.04044
0
LINE
8
BLACK
6
CONTINUOUS
10
7.31821
20
-4.04044
11
7.32815
21
-4.03673
0
LINE
8
BLACK
6
CONTINUOUS
10
7.32815
20
-4.03673
11
7.33746
21
-4.03163
0
LINE
8
BLACK
6
CONTINUOUS
10
7.33746
20
-4.03163
11
7.34175
21
-4.02839
0
LINE
8
BLACK
6
CONTINUOUS
10
7.34175
20
-4.02839
11
7.34175
21
-4.02839
0
LINE
8
BLACK
6
CONTINUOUS
10
7.34175
20
-4.02839
11
7.3273
21
-4.01394
0
LINE
8
BLACK
6
CONTINUOUS
10
7.3273
20
-4.01394
11
7.32421
21
-4.01611
0
LINE
8
BLACK
6
CONTINUOUS
10
7.32421
20
-4.01611
11
7.31582
21
-4.02002
0
LINE
8
BLACK
6
CONTINUOUS
10
7.31582
20
-4.02002
11
7.30687
21
-4.02242
0
LINE
8
BLACK
6
CONTINUOUS
10
7.30687
20
-4.02242
11
7.29764
21
-4.02323
0
LINE
8
BLACK
6
CONTINUOUS
10
7.29764
20
-4.02323
11
7.28841
21
-4.02242
0
LINE
8
BLACK
6
CONTINUOUS
10
7.28841
20
-4.02242
11
7.27946
21
-4.02002
0
LINE
8
BLACK
6
CONTINUOUS
10
7.27946
20
-4.02002
11
7.27106
21
-4.01611
0
LINE
8
BLACK
6
CONTINUOUS
10
7.27106
20
-4.01611
11
7.26797
21
-4.01394
0
LINE
8
BLACK
6
CONTINUOUS
10
7.26797
20
-4.01394
11
7.25352
21
-4.02839
0
LINE
8
BLACK
6
CONTINUOUS
10
7.25352
20
-4.02839
11
7.25718
21
-4.03121
0
LINE
8
BLACK
6
CONTINUOUS
10
7.25718
20
-4.03121
11
7.26643
21
-4.03641
0
LINE
8
BLACK
6
CONTINUOUS
10
5.37154
20
-3.76757
11
5.37763
21
-3.77109
0
LINE
8
BLACK
6
CONTINUOUS
10
5.37763
20
-3.77109
11
5.38457
21
-3.77232
0
LINE
8
BLACK
6
CONTINUOUS
10
5.38457
20
-3.77232
11
5.40453
21
-3.77232
0
LINE
8
BLACK
6
CONTINUOUS
10
5.40453
20
-3.77232
11
5.40453
21
-3.75205
0
LINE
8
BLACK
6
CONTINUOUS
10
5.40453
20
-3.75205
11
5.38457
21
-3.75205
0
LINE
8
BLACK
6
CONTINUOUS
10
5.38457
20
-3.75205
11
5.38457
21
-3.73209
0
LINE
8
BLACK
6
CONTINUOUS
10
5.38457
20
-3.73209
11
5.3643
21
-3.73209
0
LINE
8
BLACK
6
CONTINUOUS
10
5.3643
20
-3.73209
11
5.3643
21
-3.75204
0
LINE
8
BLACK
6
CONTINUOUS
10
5.3643
20
-3.75204
11
5.36702
21
-3.76218
0
LINE
8
BLACK
6
CONTINUOUS
10
5.36702
20
-3.76218
11
5.37154
21
-3.76757
0
LINE
8
BLACK
6
CONTINUOUS
10
7.32283
20
-3.56004
11
7.33346
21
-3.56004
0
LINE
8
BLACK
6
CONTINUOUS
10
7.33346
20
-3.56004
11
7.33346
21
-3.53977
0
LINE
8
BLACK
6
CONTINUOUS
10
7.33346
20
-3.53977
11
7.32284
21
-3.53977
0
LINE
8
BLACK
6
CONTINUOUS
10
7.32284
20
-3.53977
11
7.3127
21
-3.54249
0
LINE
8
BLACK
6
CONTINUOUS
10
7.3127
20
-3.54249
11
7.30731
21
-3.54701
0
LINE
8
BLACK
6
CONTINUOUS
10
7.30731
20
-3.54701
11
7.30379
21
-3.55311
0
LINE
8
BLACK
6
CONTINUOUS
10
7.30379
20
-3.55311
11
7.30257
21
-3.56004
0
LINE
8
BLACK
6
CONTINUOUS
10
7.30257
20
-3.56004
11
7.30257
21
-3.59331
0
LINE
8
BLACK
6
CONTINUOUS
10
7.30257
20
-3.59331
11
7.32283
21
-3.59331
0
LINE
8
BLACK
6
CONTINUOUS
10
7.32283
20
-3.59331
11
7.32283
21
-3.56004
0
LINE
8
BLACK
6
CONTINUOUS
10
5.38457
20
-3.49205
11
5.40453
21
-3.49205
0
LINE
8
BLACK
6
CONTINUOUS
10
5.40453
20
-3.49205
11
5.40453
21
-3.47178
0
LINE
8
BLACK
6
CONTINUOUS
10
5.40453
20
-3.47178
11
5.38457
21
-3.47178
0
LINE
8
BLACK
6
CONTINUOUS
10
5.38457
20
-3.47178
11
5.37443
21
-3.4745
0
LINE
8
BLACK
6
CONTINUOUS
10
5.37443
20
-3.4745
11
5.36904
21
-3.47902
0
LINE
8
BLACK
6
CONTINUOUS
10
5.36904
20
-3.47902
11
5.36552
21
-3.48511
0
LINE
8
BLACK
6
CONTINUOUS
10
5.36552
20
-3.48511
11
5.3643
21
-3.49205
0
LINE
8
BLACK
6
CONTINUOUS
10
5.3643
20
-3.49205
11
5.3643
21
-3.51201
0
LINE
8
BLACK
6
CONTINUOUS
10
5.3643
20
-3.51201
11
5.38457
21
-3.51201
0
LINE
8
BLACK
6
CONTINUOUS
10
5.38457
20
-3.51201
11
5.38457
21
-3.49205
0
LINE
8
BLACK
6
CONTINUOUS
10
7.49045
20
-3.66421
11
7.49584
21
-3.65968
0
LINE
8
BLACK
6
CONTINUOUS
10
7.49584
20
-3.65968
11
7.49936
21
-3.65359
0
LINE
8
BLACK
6
CONTINUOUS
10
7.49936
20
-3.65359
11
7.50058
21
-3.64665
0
LINE
8
BLACK
6
CONTINUOUS
10
7.50058
20
-3.64665
11
7.50058
21
-3.61339
0
LINE
8
BLACK
6
CONTINUOUS
10
7.50058
20
-3.61339
11
7.48031
21
-3.61339
0
LINE
8
BLACK
6
CONTINUOUS
10
7.48031
20
-3.61339
11
7.48031
21
-3.64665
0
LINE
8
BLACK
6
CONTINUOUS
10
7.48031
20
-3.64665
11
7.46969
21
-3.64665
0
LINE
8
BLACK
6
CONTINUOUS
10
7.46969
20
-3.64665
11
7.46969
21
-3.66692
0
LINE
8
BLACK
6
CONTINUOUS
10
7.46969
20
-3.66692
11
7.48031
21
-3.66692
0
LINE
8
BLACK
6
CONTINUOUS
10
7.48031
20
-3.66692
11
7.49045
21
-3.66421
0
LINE
8
BLACK
6
CONTINUOUS
10
7.27106
20
-3.92405
11
7.27946
21
-3.92013
0
LINE
8
BLACK
6
CONTINUOUS
10
7.27946
20
-3.92013
11
7.28841
21
-3.91774
0
LINE
8
BLACK
6
CONTINUOUS
10
7.28841
20
-3.91774
11
7.29764
21
-3.91693
0
LINE
8
BLACK
6
CONTINUOUS
10
7.29764
20
-3.91693
11
7.30687
21
-3.91774
0
LINE
8
BLACK
6
CONTINUOUS
10
7.30687
20
-3.91774
11
7.31582
21
-3.92013
0
LINE
8
BLACK
6
CONTINUOUS
10
7.31582
20
-3.92013
11
7.32421
21
-3.92405
0
LINE
8
BLACK
6
CONTINUOUS
10
7.32421
20
-3.92405
11
7.3318
21
-3.92936
0
LINE
8
BLACK
6
CONTINUOUS
10
7.3318
20
-3.92936
11
7.33835
21
-3.93591
0
LINE
8
BLACK
6
CONTINUOUS
10
7.33835
20
-3.93591
11
7.34367
21
-3.9435
0
LINE
8
BLACK
6
CONTINUOUS
10
7.34367
20
-3.9435
11
7.34758
21
-3.9519
0
LINE
8
BLACK
6
CONTINUOUS
10
7.34758
20
-3.9519
11
7.34998
21
-3.96085
0
LINE
8
BLACK
6
CONTINUOUS
10
7.34998
20
-3.96085
11
7.35079
21
-3.97008
0
LINE
8
BLACK
6
CONTINUOUS
10
7.35079
20
-3.97008
11
7.34998
21
-3.97931
0
LINE
8
BLACK
6
CONTINUOUS
10
7.34998
20
-3.97931
11
7.34758
21
-3.98826
0
LINE
8
BLACK
6
CONTINUOUS
10
7.34758
20
-3.98826
11
7.34367
21
-3.99665
0
LINE
8
BLACK
6
CONTINUOUS
10
7.34367
20
-3.99665
11
7.3415
21
-3.99975
0
LINE
8
BLACK
6
CONTINUOUS
10
7.3415
20
-3.99975
11
7.35595
21
-4.01419
0
LINE
8
BLACK
6
CONTINUOUS
10
7.35595
20
-4.01419
11
7.35967
21
-4.00914
0
LINE
8
BLACK
6
CONTINUOUS
10
7.35967
20
-4.00914
11
7.36466
21
-3.99978
0
LINE
8
BLACK
6
CONTINUOUS
10
7.36466
20
-3.99978
11
7.36824
21
-3.98979
0
LINE
8
BLACK
6
CONTINUOUS
10
7.36824
20
-3.98979
11
7.37035
21
-3.97939
0
LINE
8
BLACK
6
CONTINUOUS
10
7.37035
20
-3.97939
11
7.37076
21
-3.96484
0
LINE
8
BLACK
6
CONTINUOUS
10
7.37076
20
-3.96484
11
7.36923
21
-3.95434
0
LINE
8
BLACK
6
CONTINUOUS
10
7.36923
20
-3.95434
11
7.36621
21
-3.94417
0
LINE
8
BLACK
6
CONTINUOUS
10
7.36621
20
-3.94417
11
7.36459
21
-3.94067
0
LINE
8
BLACK
6
CONTINUOUS
10
7.36459
20
-3.94067
11
7.36413
21
-3.93877
0
LINE
8
BLACK
6
CONTINUOUS
10
7.36413
20
-3.93877
11
7.36443
21
-3.93685
0
LINE
8
BLACK
6
CONTINUOUS
10
7.36443
20
-3.93685
11
7.36545
21
-3.93518
0
LINE
8
BLACK
6
CONTINUOUS
10
7.36545
20
-3.93518
11
7.36703
21
-3.93403
0
LINE
8
BLACK
6
CONTINUOUS
10
7.36703
20
-3.93403
11
7.36892
21
-3.93357
0
LINE
8
BLACK
6
CONTINUOUS
10
7.36892
20
-3.93357
11
7.37085
21
-3.93387
0
LINE
8
BLACK
6
CONTINUOUS
10
7.37085
20
-3.93387
11
7.37113
21
-3.93399
0
LINE
8
BLACK
6
CONTINUOUS
10
7.37113
20
-3.93399
11
7.37471
21
-3.93555
0
LINE
8
BLACK
6
CONTINUOUS
10
7.37471
20
-3.93555
11
7.38464
21
-3.93822
0
LINE
8
BLACK
6
CONTINUOUS
10
7.38464
20
-3.93822
11
7.39485
21
-3.93939
0
LINE
8
BLACK
6
CONTINUOUS
10
7.39485
20
-3.93939
11
7.40513
21
-3.93904
0
LINE
8
BLACK
6
CONTINUOUS
10
7.40513
20
-3.93904
11
7.41524
21
-3.93718
0
LINE
8
BLACK
6
CONTINUOUS
10
7.41524
20
-3.93718
11
7.42444
21
-3.93402
0
LINE
8
BLACK
6
CONTINUOUS
10
7.42444
20
-3.93402
11
7.42637
21
-3.93376
0
LINE
8
BLACK
6
CONTINUOUS
10
7.42637
20
-3.93376
11
7.42826
21
-3.93425
0
LINE
8
BLACK
6
CONTINUOUS
10
7.42826
20
-3.93425
11
7.42981
21
-3.93544
0
LINE
8
BLACK
6
CONTINUOUS
10
7.42981
20
-3.93544
11
7.43079
21
-3.93712
0
LINE
8
BLACK
6
CONTINUOUS
10
7.43079
20
-3.93712
11
7.43105
21
-3.93906
0
LINE
8
BLACK
6
CONTINUOUS
10
7.43105
20
-3.93906
11
7.43069
21
-3.94065
0
LINE
8
BLACK
6
CONTINUOUS
10
7.43069
20
-3.94065
11
7.428
21
-3.94718
0
LINE
8
BLACK
6
CONTINUOUS
10
7.428
20
-3.94718
11
7.42542
21
-3.95748
0
LINE
8
BLACK
6
CONTINUOUS
10
7.42542
20
-3.95748
11
7.42436
21
-3.96803
0
LINE
8
BLACK
6
CONTINUOUS
10
7.42436
20
-3.96803
11
7.42483
21
-3.97863
0
LINE
8
BLACK
6
CONTINUOUS
10
7.42483
20
-3.97863
11
7.42683
21
-3.98905
0
LINE
8
BLACK
6
CONTINUOUS
10
7.42683
20
-3.98905
11
7.43031
21
-3.99907
0
LINE
8
BLACK
6
CONTINUOUS
10
7.43031
20
-3.99907
11
7.4352
21
-4.00849
0
LINE
8
BLACK
6
CONTINUOUS
10
7.4352
20
-4.00849
11
7.43931
21
-4.0142
0
LINE
8
BLACK
6
CONTINUOUS
10
7.43931
20
-4.0142
11
7.45377
21
-3.99975
0
LINE
8
BLACK
6
CONTINUOUS
10
7.45377
20
-3.99975
11
7.45161
21
-3.99665
0
LINE
8
BLACK
6
CONTINUOUS
10
7.45161
20
-3.99665
11
7.44769
21
-3.98826
0
LINE
8
BLACK
6
CONTINUOUS
10
7.44769
20
-3.98826
11
7.4453
21
-3.97931
0
LINE
8
BLACK
6
CONTINUOUS
10
7.4453
20
-3.97931
11
7.44449
21
-3.97008
0
LINE
8
BLACK
6
CONTINUOUS
10
7.44449
20
-3.97008
11
7.4453
21
-3.96085
0
LINE
8
BLACK
6
CONTINUOUS
10
7.4453
20
-3.96085
11
7.44769
21
-3.9519
0
LINE
8
BLACK
6
CONTINUOUS
10
7.44769
20
-3.9519
11
7.45161
21
-3.9435
0
LINE
8
BLACK
6
CONTINUOUS
10
7.45161
20
-3.9435
11
7.45692
21
-3.93591
0
LINE
8
BLACK
6
CONTINUOUS
10
7.45692
20
-3.93591
11
7.46347
21
-3.92936
0
LINE
8
BLACK
6
CONTINUOUS
10
7.46347
20
-3.92936
11
7.47106
21
-3.92405
0
LINE
8
BLACK
6
CONTINUOUS
10
7.47106
20
-3.92405
11
7.47946
21
-3.92013
0
LINE
8
BLACK
6
CONTINUOUS
10
7.47946
20
-3.92013
11
7.48841
21
-3.91774
0
LINE
8
BLACK
6
CONTINUOUS
10
7.48841
20
-3.91774
11
7.49764
21
-3.91693
0
LINE
8
BLACK
6
CONTINUOUS
10
7.49764
20
-3.91693
11
7.50687
21
-3.91774
0
LINE
8
BLACK
6
CONTINUOUS
10
7.50687
20
-3.91774
11
7.51582
21
-3.92013
0
LINE
8
BLACK
6
CONTINUOUS
10
7.51582
20
-3.92013
11
7.52421
21
-3.92405
0
LINE
8
BLACK
6
CONTINUOUS
10
7.52421
20
-3.92405
11
7.5273
21
-3.92621
0
LINE
8
BLACK
6
CONTINUOUS
10
7.5273
20
-3.92621
11
7.54183
21
-3.91169
0
LINE
8
BLACK
6
CONTINUOUS
10
7.54183
20
-3.91169
11
7.54083
21
-3.91085
0
LINE
8
BLACK
6
CONTINUOUS
10
7.54083
20
-3.91085
11
7.53183
21
-3.90523
0
LINE
8
BLACK
6
CONTINUOUS
10
7.53183
20
-3.90523
11
7.52211
21
-3.90098
0
LINE
8
BLACK
6
CONTINUOUS
10
7.52211
20
-3.90098
11
7.51188
21
-3.89817
0
LINE
8
BLACK
6
CONTINUOUS
10
7.51188
20
-3.89817
11
7.50135
21
-3.89687
0
LINE
8
BLACK
6
CONTINUOUS
10
7.50135
20
-3.89687
11
7.49074
21
-3.8971
0
LINE
8
BLACK
6
CONTINUOUS
10
7.49074
20
-3.8971
11
7.48028
21
-3.89886
0
LINE
8
BLACK
6
CONTINUOUS
10
7.48028
20
-3.89886
11
7.47018
21
-3.90211
0
LINE
8
BLACK
6
CONTINUOUS
10
7.47018
20
-3.90211
11
7.46844
21
-3.90296
0
LINE
8
BLACK
6
CONTINUOUS
10
7.46844
20
-3.90296
11
7.46655
21
-3.90347
0
LINE
8
BLACK
6
CONTINUOUS
10
7.46655
20
-3.90347
11
7.46462
21
-3.90321
0
LINE
8
BLACK
6
CONTINUOUS
10
7.46462
20
-3.90321
11
7.46293
21
-3.90223
0
LINE
8
BLACK
6
CONTINUOUS
10
7.46293
20
-3.90223
11
7.46175
21
-3.90068
0
LINE
8
BLACK
6
CONTINUOUS
10
7.46175
20
-3.90068
11
7.46125
21
-3.89879
0
LINE
8
BLACK
6
CONTINUOUS
10
7.46125
20
-3.89879
11
7.46154
21
-3.89676
0
LINE
8
BLACK
6
CONTINUOUS
10
7.46154
20
-3.89676
11
7.46438
21
-3.88897
0
LINE
8
BLACK
6
CONTINUOUS
10
7.46438
20
-3.88897
11
7.46644
21
-3.87889
0
LINE
8
BLACK
6
CONTINUOUS
10
7.46644
20
-3.87889
11
7.46682
21
-3.865
0
LINE
8
BLACK
6
CONTINUOUS
10
7.46682
20
-3.865
11
7.46531
21
-3.85483
0
LINE
8
BLACK
6
CONTINUOUS
10
7.46531
20
-3.85483
11
7.46231
21
-3.84499
0
LINE
8
BLACK
6
CONTINUOUS
10
7.46231
20
-3.84499
11
7.46177
21
-3.84386
0
LINE
8
BLACK
6
CONTINUOUS
10
7.46177
20
-3.84386
11
7.46129
21
-3.84197
0
LINE
8
BLACK
6
CONTINUOUS
10
7.46129
20
-3.84197
11
7.46157
21
-3.84004
0
LINE
8
BLACK
6
CONTINUOUS
10
7.46157
20
-3.84004
11
7.46257
21
-3.83836
0
LINE
8
BLACK
6
CONTINUOUS
10
7.46257
20
-3.83836
11
7.46414
21
-3.8372
0
LINE
8
BLACK
6
CONTINUOUS
10
7.46414
20
-3.8372
11
7.46603
21
-3.83672
0
LINE
8
BLACK
6
CONTINUOUS
10
7.46603
20
-3.83672
11
7.46808
21
-3.83705
0
LINE
8
BLACK
6
CONTINUOUS
10
7.46808
20
-3.83705
11
7.47633
21
-3.84022
0
LINE
8
BLACK
6
CONTINUOUS
10
7.47633
20
-3.84022
11
7.48668
21
-3.84256
0
LINE
8
BLACK
6
CONTINUOUS
10
7.48668
20
-3.84256
11
7.49725
21
-3.84338
0
LINE
8
BLACK
6
CONTINUOUS
10
7.49725
20
-3.84338
11
7.50784
21
-3.84267
0
LINE
8
BLACK
6
CONTINUOUS
10
7.50784
20
-3.84267
11
7.51821
21
-3.84044
0
LINE
8
BLACK
6
CONTINUOUS
10
7.51821
20
-3.84044
11
7.52815
21
-3.83673
0
LINE
8
BLACK
6
CONTINUOUS
10
7.52815
20
-3.83673
11
7.53746
21
-3.83163
0
LINE
8
BLACK
6
CONTINUOUS
10
7.53746
20
-3.83163
11
7.54175
21
-3.82839
0
LINE
8
BLACK
6
CONTINUOUS
10
7.54175
20
-3.82839
11
7.5273
21
-3.81394
0
LINE
8
BLACK
6
CONTINUOUS
10
7.5273
20
-3.81394
11
7.52421
21
-3.81611
0
LINE
8
BLACK
6
CONTINUOUS
10
7.52421
20
-3.81611
11
7.51582
21
-3.82002
0
LINE
8
BLACK
6
CONTINUOUS
10
7.51582
20
-3.82002
11
7.50687
21
-3.82242
0
LINE
8
BLACK
6
CONTINUOUS
10
7.50687
20
-3.82242
11
7.49764
21
-3.82323
0
LINE
8
BLACK
6
CONTINUOUS
10
7.49764
20
-3.82323
11
7.48841
21
-3.82242
0
LINE
8
BLACK
6
CONTINUOUS
10
7.48841
20
-3.82242
11
7.47946
21
-3.82002
0
LINE
8
BLACK
6
CONTINUOUS
10
7.47946
20
-3.82002
11
7.47106
21
-3.81611
0
LINE
8
BLACK
6
CONTINUOUS
10
7.47106
20
-3.81611
11
7.46347
21
-3.81079
0
LINE
8
BLACK
6
CONTINUOUS
10
7.46347
20
-3.81079
11
7.45692
21
-3.80424
0
LINE
8
BLACK
6
CONTINUOUS
10
7.45692
20
-3.80424
11
7.45161
21
-3.79665
0
LINE
8
BLACK
6
CONTINUOUS
10
7.45161
20
-3.79665
11
7.44769
21
-3.78826
0
LINE
8
BLACK
6
CONTINUOUS
10
7.44769
20
-3.78826
11
7.4453
21
-3.77931
0
LINE
8
BLACK
6
CONTINUOUS
10
7.4453
20
-3.77931
11
7.44449
21
-3.77008
0
LINE
8
BLACK
6
CONTINUOUS
10
7.44449
20
-3.77008
11
7.4453
21
-3.76085
0
LINE
8
BLACK
6
CONTINUOUS
10
7.4453
20
-3.76085
11
7.44769
21
-3.7519
0
LINE
8
BLACK
6
CONTINUOUS
10
7.44769
20
-3.7519
11
7.45161
21
-3.7435
0
LINE
8
BLACK
6
CONTINUOUS
10
7.45161
20
-3.7435
11
7.45377
21
-3.74041
0
LINE
8
BLACK
6
CONTINUOUS
10
7.45377
20
-3.74041
11
7.43909
21
-3.72573
0
LINE
8
BLACK
6
CONTINUOUS
10
7.43909
20
-3.72573
11
7.43877
21
-3.726
0
LINE
8
BLACK
6
CONTINUOUS
10
7.43877
20
-3.726
11
7.4369
21
-3.72658
0
LINE
8
BLACK
6
CONTINUOUS
10
7.4369
20
-3.72658
11
7.43496
21
-3.7264
0
LINE
8
BLACK
6
CONTINUOUS
10
7.43496
20
-3.7264
11
7.43323
21
-3.72549
0
LINE
8
BLACK
6
CONTINUOUS
10
7.43323
20
-3.72549
11
7.43199
21
-3.724
0
LINE
8
BLACK
6
CONTINUOUS
10
7.43199
20
-3.724
11
7.43141
21
-3.72213
0
LINE
8
BLACK
6
CONTINUOUS
10
7.43141
20
-3.72213
11
7.43138
21
-3.72161
0
LINE
8
BLACK
6
CONTINUOUS
10
7.43138
20
-3.72161
11
7.43138
21
-3.70395
0
LINE
8
BLACK
6
CONTINUOUS
10
7.43138
20
-3.70395
11
7.43176
21
-3.70204
0
LINE
8
BLACK
6
CONTINUOUS
10
7.43176
20
-3.70204
11
7.43284
21
-3.70042
0
LINE
8
BLACK
6
CONTINUOUS
10
7.43284
20
-3.70042
11
7.43316
21
-3.70012
0
LINE
8
BLACK
6
CONTINUOUS
10
7.43316
20
-3.70012
11
7.43679
21
-3.69708
0
LINE
8
BLACK
6
CONTINUOUS
10
7.43679
20
-3.69708
11
7.44031
21
-3.69099
0
LINE
8
BLACK
6
CONTINUOUS
10
7.44031
20
-3.69099
11
7.44153
21
-3.68405
0
LINE
8
BLACK
6
CONTINUOUS
10
7.44153
20
-3.68405
11
7.44153
21
-3.67192
0
LINE
8
BLACK
6
CONTINUOUS
10
7.44153
20
-3.67192
11
7.44191
21
-3.67001
0
LINE
8
BLACK
6
CONTINUOUS
10
7.44191
20
-3.67001
11
7.44299
21
-3.66839
0
LINE
8
BLACK
6
CONTINUOUS
10
7.44299
20
-3.66839
11
7.44462
21
-3.6673
0
LINE
8
BLACK
6
CONTINUOUS
10
7.44462
20
-3.6673
11
7.44653
21
-3.66692
0
LINE
8
BLACK
6
CONTINUOUS
10
7.44653
20
-3.66692
11
7.44961
21
-3.66692
0
LINE
8
BLACK
6
CONTINUOUS
10
7.44961
20
-3.66692
11
7.44961
21
-3.64665
0
LINE
8
BLACK
6
CONTINUOUS
10
7.44961
20
-3.64665
11
7.43898
21
-3.64665
0
LINE
8
BLACK
6
CONTINUOUS
10
7.43898
20
-3.64665
11
7.43898
21
-3.61339
0
LINE
8
BLACK
6
CONTINUOUS
10
7.43898
20
-3.61339
11
7.41871
21
-3.61339
0
LINE
8
BLACK
6
CONTINUOUS
10
7.41871
20
-3.61339
11
7.41871
21
-3.61745
0
LINE
8
BLACK
6
CONTINUOUS
10
7.41871
20
-3.61745
11
7.41833
21
-3.61936
0
LINE
8
BLACK
6
CONTINUOUS
10
7.41833
20
-3.61936
11
7.41724
21
-3.62098
0
LINE
8
BLACK
6
CONTINUOUS
10
7.41724
20
-3.62098
11
7.41562
21
-3.62207
0
LINE
8
BLACK
6
CONTINUOUS
10
7.41562
20
-3.62207
11
7.41371
21
-3.62245
0
LINE
8
BLACK
6
CONTINUOUS
10
7.41371
20
-3.62245
11
7.38944
21
-3.62245
0
LINE
8
BLACK
6
CONTINUOUS
10
7.38944
20
-3.62245
11
7.38753
21
-3.62207
0
LINE
8
BLACK
6
CONTINUOUS
10
7.38753
20
-3.62207
11
7.38591
21
-3.62098
0
LINE
8
BLACK
6
CONTINUOUS
10
7.38591
20
-3.62098
11
7.38482
21
-3.61936
0
LINE
8
BLACK
6
CONTINUOUS
10
7.38482
20
-3.61936
11
7.38444
21
-3.61745
0
LINE
8
BLACK
6
CONTINUOUS
10
7.38444
20
-3.61745
11
7.38444
21
-3.61339
0
LINE
8
BLACK
6
CONTINUOUS
10
7.38444
20
-3.61339
11
7.36417
21
-3.61339
0
LINE
8
BLACK
6
CONTINUOUS
10
7.36417
20
-3.61339
11
7.36417
21
-3.64665
0
LINE
8
BLACK
6
CONTINUOUS
10
7.36417
20
-3.64665
11
7.35354
21
-3.64665
0
LINE
8
BLACK
6
CONTINUOUS
10
7.35354
20
-3.64665
11
7.35354
21
-3.66692
0
LINE
8
BLACK
6
CONTINUOUS
10
7.35354
20
-3.66692
11
7.35662
21
-3.66692
0
LINE
8
BLACK
6
CONTINUOUS
10
7.35662
20
-3.66692
11
7.35853
21
-3.6673
0
LINE
8
BLACK
6
CONTINUOUS
10
7.35853
20
-3.6673
11
7.36016
21
-3.66839
0
LINE
8
BLACK
6
CONTINUOUS
10
7.36016
20
-3.66839
11
7.36124
21
-3.67001
0
LINE
8
BLACK
6
CONTINUOUS
10
7.36124
20
-3.67001
11
7.36162
21
-3.67192
0
LINE
8
BLACK
6
CONTINUOUS
10
7.36162
20
-3.67192
11
7.36162
21
-3.68405
0
LINE
8
BLACK
6
CONTINUOUS
10
7.36162
20
-3.68405
11
7.36434
21
-3.69419
0
LINE
8
BLACK
6
CONTINUOUS
10
7.36434
20
-3.69419
11
7.36886
21
-3.69958
0
LINE
8
BLACK
6
CONTINUOUS
10
7.36886
20
-3.69958
11
7.36927
21
-3.69982
0
LINE
8
BLACK
6
CONTINUOUS
10
7.36927
20
-3.69982
11
7.37074
21
-3.7011
0
LINE
8
BLACK
6
CONTINUOUS
10
7.37074
20
-3.7011
11
7.3716
21
-3.70285
0
LINE
8
BLACK
6
CONTINUOUS
10
7.3716
20
-3.70285
11
7.37177
21
-3.70415
0
LINE
8
BLACK
6
CONTINUOUS
10
7.37177
20
-3.70415
11
7.37177
21
-3.73348
0
LINE
8
BLACK
6
CONTINUOUS
10
7.37177
20
-3.73348
11
7.37139
21
-3.73539
0
LINE
8
BLACK
6
CONTINUOUS
10
7.37139
20
-3.73539
11
7.37031
21
-3.73701
0
LINE
8
BLACK
6
CONTINUOUS
10
7.37031
20
-3.73701
11
7.36869
21
-3.7381
0
LINE
8
BLACK
6
CONTINUOUS
10
7.36869
20
-3.7381
11
7.36677
21
-3.73848
0
LINE
8
BLACK
6
CONTINUOUS
10
7.36677
20
-3.73848
11
7.36486
21
-3.7381
0
LINE
8
BLACK
6
CONTINUOUS
10
7.36486
20
-3.7381
11
7.36324
21
-3.73701
0
LINE
8
BLACK
6
CONTINUOUS
10
7.36324
20
-3.73701
11
7.36223
21
-3.73558
0
LINE
8
BLACK
6
CONTINUOUS
10
7.36223
20
-3.73558
11
7.36175
21
-3.73454
0
LINE
8
BLACK
6
CONTINUOUS
10
7.36175
20
-3.73454
11
7.35607
21
-3.72584
0
LINE
8
BLACK
6
CONTINUOUS
10
7.35607
20
-3.72584
11
7.3415
21
-3.74041
0
LINE
8
BLACK
6
CONTINUOUS
10
7.3415
20
-3.74041
11
7.34367
21
-3.7435
0
LINE
8
BLACK
6
CONTINUOUS
10
7.34367
20
-3.7435
11
7.34758
21
-3.7519
0
LINE
8
BLACK
6
CONTINUOUS
10
7.34758
20
-3.7519
11
7.34998
21
-3.76085
0
LINE
8
BLACK
6
CONTINUOUS
10
7.34998
20
-3.76085
11
7.35079
21
-3.77008
0
LINE
8
BLACK
6
CONTINUOUS
10
7.35079
20
-3.77008
11
7.34998
21
-3.77931
0
LINE
8
BLACK
6
CONTINUOUS
10
7.34998
20
-3.77931
11
7.34758
21
-3.78826
0
LINE
8
BLACK
6
CONTINUOUS
10
7.34758
20
-3.78826
11
7.34367
21
-3.79665
0
LINE
8
BLACK
6
CONTINUOUS
10
7.34367
20
-3.79665
11
7.33835
21
-3.80424
0
LINE
8
BLACK
6
CONTINUOUS
10
7.33835
20
-3.80424
11
7.3318
21
-3.81079
0
LINE
8
BLACK
6
CONTINUOUS
10
7.3318
20
-3.81079
11
7.32421
21
-3.81611
0
LINE
8
BLACK
6
CONTINUOUS
10
7.32421
20
-3.81611
11
7.31582
21
-3.82002
0
LINE
8
BLACK
6
CONTINUOUS
10
7.31582
20
-3.82002
11
7.30687
21
-3.82242
0
LINE
8
BLACK
6
CONTINUOUS
10
7.30687
20
-3.82242
11
7.29764
21
-3.82323
0
LINE
8
BLACK
6
CONTINUOUS
10
7.29764
20
-3.82323
11
7.28841
21
-3.82242
0
LINE
8
BLACK
6
CONTINUOUS
10
7.28841
20
-3.82242
11
7.27946
21
-3.82002
0
LINE
8
BLACK
6
CONTINUOUS
10
7.27946
20
-3.82002
11
7.27106
21
-3.81611
0
LINE
8
BLACK
6
CONTINUOUS
10
7.27106
20
-3.81611
11
7.26797
21
-3.81394
0
LINE
8
BLACK
6
CONTINUOUS
10
7.26797
20
-3.81394
11
7.25352
21
-3.82839
0
LINE
8
BLACK
6
CONTINUOUS
10
7.25352
20
-3.82839
11
7.25718
21
-3.83121
0
LINE
8
BLACK
6
CONTINUOUS
10
7.25718
20
-3.83121
11
7.26643
21
-3.83641
0
LINE
8
BLACK
6
CONTINUOUS
10
7.26643
20
-3.83641
11
7.27633
21
-3.84022
0
LINE
8
BLACK
6
CONTINUOUS
10
7.27633
20
-3.84022
11
7.28668
21
-3.84256
0
LINE
8
BLACK
6
CONTINUOUS
10
7.28668
20
-3.84256
11
7.29725
21
-3.84338
0
LINE
8
BLACK
6
CONTINUOUS
10
7.29725
20
-3.84338
11
7.30784
21
-3.84267
0
LINE
8
BLACK
6
CONTINUOUS
10
7.30784
20
-3.84267
11
7.31821
21
-3.84044
0
LINE
8
BLACK
6
CONTINUOUS
10
7.31821
20
-3.84044
11
7.32714
21
-3.83711
0
LINE
8
BLACK
6
CONTINUOUS
10
7.32714
20
-3.83711
11
7.32907
21
-3.8368
0
LINE
8
BLACK
6
CONTINUOUS
10
7.32907
20
-3.8368
11
7.33097
21
-3.83725
0
LINE
8
BLACK
6
CONTINUOUS
10
7.33097
20
-3.83725
11
7.33255
21
-3.83839
0
LINE
8
BLACK
6
CONTINUOUS
10
7.33255
20
-3.83839
11
7.33357
21
-3.84005
0
LINE
8
BLACK
6
CONTINUOUS
10
7.33357
20
-3.84005
11
7.33388
21
-3.84197
0
LINE
8
BLACK
6
CONTINUOUS
10
7.33388
20
-3.84197
11
7.33363
21
-3.84338
0
LINE
8
BLACK
6
CONTINUOUS
10
7.33363
20
-3.84338
11
7.33042
21
-3.85295
0
LINE
8
BLACK
6
CONTINUOUS
10
7.33042
20
-3.85295
11
7.32863
21
-3.86307
0
LINE
8
BLACK
6
CONTINUOUS
10
7.32863
20
-3.86307
11
7.32835
21
-3.87335
0
LINE
8
BLACK
6
CONTINUOUS
10
7.32835
20
-3.87335
11
7.32959
21
-3.88355
0
LINE
8
BLACK
6
CONTINUOUS
10
7.32959
20
-3.88355
11
7.33233
21
-3.89346
0
LINE
8
BLACK
6
CONTINUOUS
10
7.33233
20
-3.89346
11
7.33371
21
-3.89657
0
LINE
8
BLACK
6
CONTINUOUS
10
7.33371
20
-3.89657
11
7.33414
21
-3.89847
0
LINE
8
BLACK
6
CONTINUOUS
10
7.33414
20
-3.89847
11
7.33381
21
-3.9004
0
LINE
8
BLACK
6
CONTINUOUS
10
7.33381
20
-3.9004
11
7.33277
21
-3.90204
0
LINE
8
BLACK
6
CONTINUOUS
10
7.33277
20
-3.90204
11
7.33117
21
-3.90317
0
LINE
8
BLACK
6
CONTINUOUS
10
7.33117
20
-3.90317
11
7.32927
21
-3.9036
0
LINE
8
BLACK
6
CONTINUOUS
10
7.32927
20
-3.9036
11
7.32735
21
-3.90327
0
LINE
8
BLACK
6
CONTINUOUS
10
7.32735
20
-3.90327
11
7.32714
21
-3.90318
0
LINE
8
BLACK
6
CONTINUOUS
10
7.32714
20
-3.90318
11
7.32211
21
-3.90098
0
LINE
8
BLACK
6
CONTINUOUS
10
7.32211
20
-3.90098
11
7.31188
21
-3.89817
0
LINE
8
BLACK
6
CONTINUOUS
10
7.31188
20
-3.89817
11
7.30135
21
-3.89687
0
LINE
8
BLACK
6
CONTINUOUS
10
7.30135
20
-3.89687
11
7.29074
21
-3.8971
0
LINE
8
BLACK
6
CONTINUOUS
10
7.29074
20
-3.8971
11
7.28028
21
-3.89886
0
LINE
8
BLACK
6
CONTINUOUS
10
7.28028
20
-3.89886
11
7.27018
21
-3.90211
0
LINE
8
BLACK
6
CONTINUOUS
10
7.27018
20
-3.90211
11
7.26065
21
-3.90679
0
LINE
8
BLACK
6
CONTINUOUS
10
7.26065
20
-3.90679
11
7.25347
21
-3.91171
0
LINE
8
BLACK
6
CONTINUOUS
10
7.25347
20
-3.91171
11
7.26797
21
-3.92621
0
LINE
8
BLACK
6
CONTINUOUS
10
7.26797
20
-3.92621
11
7.27106
21
-3.92405
0
LINE
8
BLACK
6
CONTINUOUS
10
5.48457
20
-3.55205
11
5.48457
21
-3.49205
0
LINE
8
BLACK
6
CONTINUOUS
10
5.48457
20
-3.49205
11
5.50453
21
-3.49205
0
LINE
8
BLACK
6
CONTINUOUS
10
5.50453
20
-3.49205
11
5.50453
21
-3.47178
0
LINE
8
BLACK
6
CONTINUOUS
10
5.50453
20
-3.47178
11
5.48457
21
-3.47178
0
LINE
8
BLACK
6
CONTINUOUS
10
5.48457
20
-3.47178
11
5.47443
21
-3.4745
0
LINE
8
BLACK
6
CONTINUOUS
10
5.47443
20
-3.4745
11
5.46904
21
-3.47902
0
LINE
8
BLACK
6
CONTINUOUS
10
5.46904
20
-3.47902
11
5.4688
21
-3.47943
0
LINE
8
BLACK
6
CONTINUOUS
10
5.4688
20
-3.47943
11
5.46751
21
-3.4809
0
LINE
8
BLACK
6
CONTINUOUS
10
5.46751
20
-3.4809
11
5.46576
21
-3.48176
0
LINE
8
BLACK
6
CONTINUOUS
10
5.46576
20
-3.48176
11
5.46382
21
-3.48189
0
LINE
8
BLACK
6
CONTINUOUS
10
5.46382
20
-3.48189
11
5.46197
21
-3.48127
0
LINE
8
BLACK
6
CONTINUOUS
10
5.46197
20
-3.48127
11
5.46064
21
-3.48015
0
LINE
8
BLACK
6
CONTINUOUS
10
5.46064
20
-3.48015
11
5.4576
21
-3.47652
0
LINE
8
BLACK
6
CONTINUOUS
10
5.4576
20
-3.47652
11
5.4515
21
-3.473
0
LINE
8
BLACK
6
CONTINUOUS
10
5.4515
20
-3.473
11
5.44456
21
-3.47178
0
LINE
8
BLACK
6
CONTINUOUS
10
5.44456
20
-3.47178
11
5.42461
21
-3.47178
0
LINE
8
BLACK
6
CONTINUOUS
10
5.42461
20
-3.47178
11
5.42461
21
-3.49205
0
LINE
8
BLACK
6
CONTINUOUS
10
5.42461
20
-3.49205
11
5.44457
21
-3.49205
0
LINE
8
BLACK
6
CONTINUOUS
10
5.44457
20
-3.49205
11
5.44457
21
-3.55205
0
LINE
8
BLACK
6
CONTINUOUS
10
5.44457
20
-3.55205
11
5.38457
21
-3.55205
0
LINE
8
BLACK
6
CONTINUOUS
10
5.38457
20
-3.55205
11
5.38457
21
-3.53209
0
LINE
8
BLACK
6
CONTINUOUS
10
5.38457
20
-3.53209
11
5.3643
21
-3.53209
0
LINE
8
BLACK
6
CONTINUOUS
10
5.3643
20
-3.53209
11
5.3643
21
-3.55204
0
LINE
8
BLACK
6
CONTINUOUS
10
5.3643
20
-3.55204
11
5.36702
21
-3.56218
0
LINE
8
BLACK
6
CONTINUOUS
10
5.36702
20
-3.56218
11
5.37154
21
-3.56757
0
LINE
8
BLACK
6
CONTINUOUS
10
5.37154
20
-3.56757
11
5.37195
21
-3.56781
0
LINE
8
BLACK
6
CONTINUOUS
10
5.37195
20
-3.56781
11
5.37342
21
-3.5691
0
LINE
8
BLACK
6
CONTINUOUS
10
5.37342
20
-3.5691
11
5.37428
21
-3.57085
0
LINE
8
BLACK
6
CONTINUOUS
10
5.37428
20
-3.57085
11
5.37441
21
-3.5728
0
LINE
8
BLACK
6
CONTINUOUS
10
5.37441
20
-3.5728
11
5.37378
21
-3.57464
0
LINE
8
BLACK
6
CONTINUOUS
10
5.37378
20
-3.57464
11
5.37267
21
-3.57597
0
LINE
8
BLACK
6
CONTINUOUS
10
5.37267
20
-3.57597
11
5.36904
21
-3.57902
0
LINE
8
BLACK
6
CONTINUOUS
10
5.36904
20
-3.57902
11
5.36552
21
-3.58511
0
LINE
8
BLACK
6
CONTINUOUS
10
5.36552
20
-3.58511
11
5.3643
21
-3.59205
0
LINE
8
BLACK
6
CONTINUOUS
10
5.3643
20
-3.59205
11
5.3643
21
-3.65204
0
LINE
8
BLACK
6
CONTINUOUS
10
5.3643
20
-3.65204
11
5.36702
21
-3.66218
0
LINE
8
BLACK
6
CONTINUOUS
10
5.36702
20
-3.66218
11
5.37154
21
-3.66757
0
LINE
8
BLACK
6
CONTINUOUS
10
5.37154
20
-3.66757
11
5.37195
21
-3.66781
0
LINE
8
BLACK
6
CONTINUOUS
10
5.37195
20
-3.66781
11
5.37342
21
-3.6691
0
LINE
8
BLACK
6
CONTINUOUS
10
5.37342
20
-3.6691
11
5.37428
21
-3.67085
0
LINE
8
BLACK
6
CONTINUOUS
10
5.37428
20
-3.67085
11
5.37441
21
-3.6728
0
LINE
8
BLACK
6
CONTINUOUS
10
5.37441
20
-3.6728
11
5.37378
21
-3.67464
0
LINE
8
BLACK
6
CONTINUOUS
10
5.37378
20
-3.67464
11
5.37267
21
-3.67597
0
LINE
8
BLACK
6
CONTINUOUS
10
5.37267
20
-3.67597
11
5.36904
21
-3.67902
0
LINE
8
BLACK
6
CONTINUOUS
10
5.36904
20
-3.67902
11
5.36552
21
-3.68511
0
LINE
8
BLACK
6
CONTINUOUS
10
5.36552
20
-3.68511
11
5.3643
21
-3.69205
0
LINE
8
BLACK
6
CONTINUOUS
10
5.3643
20
-3.69205
11
5.3643
21
-3.71201
0
LINE
8
BLACK
6
CONTINUOUS
10
5.3643
20
-3.71201
11
5.38457
21
-3.71201
0
LINE
8
BLACK
6
CONTINUOUS
10
5.38457
20
-3.71201
11
5.38457
21
-3.69205
0
LINE
8
BLACK
6
CONTINUOUS
10
5.38457
20
-3.69205
11
5.44457
21
-3.69205
0
LINE
8
BLACK
6
CONTINUOUS
10
5.44457
20
-3.69205
11
5.44457
21
-3.75205
0
LINE
8
BLACK
6
CONTINUOUS
10
5.44457
20
-3.75205
11
5.42461
21
-3.75205
0
LINE
8
BLACK
6
CONTINUOUS
10
5.42461
20
-3.75205
11
5.42461
21
-3.77232
0
LINE
8
BLACK
6
CONTINUOUS
10
5.42461
20
-3.77232
11
5.44456
21
-3.77232
0
LINE
8
BLACK
6
CONTINUOUS
10
5.44456
20
-3.77232
11
5.4547
21
-3.7696
0
LINE
8
BLACK
6
CONTINUOUS
10
5.4547
20
-3.7696
11
5.46009
21
-3.76508
0
LINE
8
BLACK
6
CONTINUOUS
10
5.46009
20
-3.76508
11
5.46033
21
-3.76466
0
LINE
8
BLACK
6
CONTINUOUS
10
5.46033
20
-3.76466
11
5.46162
21
-3.76319
0
LINE
8
BLACK
6
CONTINUOUS
10
5.46162
20
-3.76319
11
5.46337
21
-3.76233
0
LINE
8
BLACK
6
CONTINUOUS
10
5.46337
20
-3.76233
11
5.46532
21
-3.7622
0
LINE
8
BLACK
6
CONTINUOUS
10
5.46532
20
-3.7622
11
5.46716
21
-3.76283
0
LINE
8
BLACK
6
CONTINUOUS
10
5.46716
20
-3.76283
11
5.46849
21
-3.76395
0
LINE
8
BLACK
6
CONTINUOUS
10
5.46849
20
-3.76395
11
5.47154
21
-3.76757
0
LINE
8
BLACK
6
CONTINUOUS
10
5.47154
20
-3.76757
11
5.47763
21
-3.77109
0
LINE
8
BLACK
6
CONTINUOUS
10
5.47763
20
-3.77109
11
5.48457
21
-3.77232
0
LINE
8
BLACK
6
CONTINUOUS
10
5.48457
20
-3.77232
11
5.50453
21
-3.77232
0
LINE
8
BLACK
6
CONTINUOUS
10
5.50453
20
-3.77232
11
5.50453
21
-3.75205
0
LINE
8
BLACK
6
CONTINUOUS
10
5.50453
20
-3.75205
11
5.48457
21
-3.75205
0
LINE
8
BLACK
6
CONTINUOUS
10
5.48457
20
-3.75205
11
5.48457
21
-3.69205
0
LINE
8
BLACK
6
CONTINUOUS
10
5.48457
20
-3.69205
11
5.54457
21
-3.69205
0
LINE
8
BLACK
6
CONTINUOUS
10
5.54457
20
-3.69205
11
5.54457
21
-3.71201
0
LINE
8
BLACK
6
CONTINUOUS
10
5.54457
20
-3.71201
11
5.56484
21
-3.71201
0
LINE
8
BLACK
6
CONTINUOUS
10
5.56484
20
-3.71201
11
5.56484
21
-3.69205
0
LINE
8
BLACK
6
CONTINUOUS
10
5.56484
20
-3.69205
11
5.56212
21
-3.68191
0
LINE
8
BLACK
6
CONTINUOUS
10
5.56212
20
-3.68191
11
5.5576
21
-3.67652
0
LINE
8
BLACK
6
CONTINUOUS
10
5.5576
20
-3.67652
11
5.55718
21
-3.67628
0
LINE
8
BLACK
6
CONTINUOUS
10
5.55718
20
-3.67628
11
5.55571
21
-3.67499
0
LINE
8
BLACK
6
CONTINUOUS
10
5.55571
20
-3.67499
11
5.55485
21
-3.67324
0
LINE
8
BLACK
6
CONTINUOUS
10
5.55485
20
-3.67324
11
5.55472
21
-3.6713
0
LINE
8
BLACK
6
CONTINUOUS
10
5.55472
20
-3.6713
11
5.55535
21
-3.66945
0
LINE
8
BLACK
6
CONTINUOUS
10
5.55535
20
-3.66945
11
5.55647
21
-3.66812
0
LINE
8
BLACK
6
CONTINUOUS
10
5.55647
20
-3.66812
11
5.56009
21
-3.66508
0
LINE
8
BLACK
6
CONTINUOUS
10
5.56009
20
-3.66508
11
5.56361
21
-3.65898
0
LINE
8
BLACK
6
CONTINUOUS
10
5.56361
20
-3.65898
11
5.56484
21
-3.65204
0
LINE
8
BLACK
6
CONTINUOUS
10
5.56484
20
-3.65204
11
5.56484
21
-3.59205
0
LINE
8
BLACK
6
CONTINUOUS
10
5.56484
20
-3.59205
11
5.56212
21
-3.58191
0
LINE
8
BLACK
6
CONTINUOUS
10
5.56212
20
-3.58191
11
5.5576
21
-3.57652
0
LINE
8
BLACK
6
CONTINUOUS
10
5.5576
20
-3.57652
11
5.55718
21
-3.57628
0
LINE
8
BLACK
6
CONTINUOUS
10
5.55718
20
-3.57628
11
5.55571
21
-3.57499
0
LINE
8
BLACK
6
CONTINUOUS
10
5.55571
20
-3.57499
11
5.55485
21
-3.57324
0
LINE
8
BLACK
6
CONTINUOUS
10
5.55485
20
-3.57324
11
5.55472
21
-3.5713
0
LINE
8
BLACK
6
CONTINUOUS
10
5.55472
20
-3.5713
11
5.55535
21
-3.56945
0
LINE
8
BLACK
6
CONTINUOUS
10
5.55535
20
-3.56945
11
5.55647
21
-3.56812
0
LINE
8
BLACK
6
CONTINUOUS
10
5.55647
20
-3.56812
11
5.56009
21
-3.56508
0
LINE
8
BLACK
6
CONTINUOUS
10
5.56009
20
-3.56508
11
5.56361
21
-3.55898
0
LINE
8
BLACK
6
CONTINUOUS
10
5.56361
20
-3.55898
11
5.56484
21
-3.55204
0
LINE
8
BLACK
6
CONTINUOUS
10
5.56484
20
-3.55204
11
5.56484
21
-3.53209
0
LINE
8
BLACK
6
CONTINUOUS
10
5.56484
20
-3.53209
11
5.54457
21
-3.53209
0
LINE
8
BLACK
6
CONTINUOUS
10
5.54457
20
-3.53209
11
5.54457
21
-3.55205
0
LINE
8
BLACK
6
CONTINUOUS
10
5.54457
20
-3.55205
11
5.48457
21
-3.55205
0
LINE
8
BLACK
6
CONTINUOUS
10
5.69713
20
-3.62309
11
5.70323
21
-3.62661
0
LINE
8
BLACK
6
CONTINUOUS
10
5.70323
20
-3.62661
11
5.71016
21
-3.62783
0
LINE
8
BLACK
6
CONTINUOUS
10
5.71016
20
-3.62783
11
5.77015
21
-3.62783
0
LINE
8
BLACK
6
CONTINUOUS
10
5.77015
20
-3.62783
11
5.78029
21
-3.62511
0
LINE
8
BLACK
6
CONTINUOUS
10
5.78029
20
-3.62511
11
5.78568
21
-3.62059
0
LINE
8
BLACK
6
CONTINUOUS
10
5.78568
20
-3.62059
11
5.78608
21
-3.61989
0
LINE
8
BLACK
6
CONTINUOUS
10
5.78608
20
-3.61989
11
5.78737
21
-3.61843
0
LINE
8
BLACK
6
CONTINUOUS
10
5.78737
20
-3.61843
11
5.78912
21
-3.61756
0
LINE
8
BLACK
6
CONTINUOUS
10
5.78912
20
-3.61756
11
5.79107
21
-3.61744
0
LINE
8
BLACK
6
CONTINUOUS
10
5.79107
20
-3.61744
11
5.79291
21
-3.61806
0
LINE
8
BLACK
6
CONTINUOUS
10
5.79291
20
-3.61806
11
5.79425
21
-3.61918
0
LINE
8
BLACK
6
CONTINUOUS
10
5.79425
20
-3.61918
11
5.79752
21
-3.62309
0
LINE
8
BLACK
6
CONTINUOUS
10
5.79752
20
-3.62309
11
5.80362
21
-3.62661
0
LINE
8
BLACK
6
CONTINUOUS
10
5.80362
20
-3.62661
11
5.81055
21
-3.62783
0
LINE
8
BLACK
6
CONTINUOUS
10
5.81055
20
-3.62783
11
5.87055
21
-3.62783
0
LINE
8
BLACK
6
CONTINUOUS
10
5.87055
20
-3.62783
11
5.88069
21
-3.62511
0
LINE
8
BLACK
6
CONTINUOUS
10
5.88069
20
-3.62511
11
5.88608
21
-3.62059
0
LINE
8
BLACK
6
CONTINUOUS
10
5.88608
20
-3.62059
11
5.88648
21
-3.61989
0
LINE
8
BLACK
6
CONTINUOUS
10
5.88648
20
-3.61989
11
5.88776
21
-3.61843
0
LINE
8
BLACK
6
CONTINUOUS
10
5.88776
20
-3.61843
11
5.88951
21
-3.61756
0
LINE
8
BLACK
6
CONTINUOUS
10
5.88951
20
-3.61756
11
5.89146
21
-3.61744
0
LINE
8
BLACK
6
CONTINUOUS
10
5.89146
20
-3.61744
11
5.89331
21
-3.61806
0
LINE
8
BLACK
6
CONTINUOUS
10
5.89331
20
-3.61806
11
5.89464
21
-3.61918
0
LINE
8
BLACK
6
CONTINUOUS
10
5.89464
20
-3.61918
11
5.89792
21
-3.62309
0
LINE
8
BLACK
6
CONTINUOUS
10
5.89792
20
-3.62309
11
5.90401
21
-3.62661
0
LINE
8
BLACK
6
CONTINUOUS
10
5.90401
20
-3.62661
11
5.91095
21
-3.62783
0
LINE
8
BLACK
6
CONTINUOUS
10
5.91095
20
-3.62783
11
5.97094
21
-3.62783
0
LINE
8
BLACK
6
CONTINUOUS
10
5.97094
20
-3.62783
11
5.98108
21
-3.62511
0
LINE
8
BLACK
6
CONTINUOUS
10
5.98108
20
-3.62511
11
5.98647
21
-3.62059
0
LINE
8
BLACK
6
CONTINUOUS
10
5.98647
20
-3.62059
11
5.98687
21
-3.61989
0
LINE
8
BLACK
6
CONTINUOUS
10
5.98687
20
-3.61989
11
5.98816
21
-3.61843
0
LINE
8
BLACK
6
CONTINUOUS
10
5.98816
20
-3.61843
11
5.98991
21
-3.61756
0
LINE
8
BLACK
6
CONTINUOUS
10
5.98991
20
-3.61756
11
5.99185
21
-3.61744
0
LINE
8
BLACK
6
CONTINUOUS
10
5.99185
20
-3.61744
11
5.9937
21
-3.61806
0
LINE
8
BLACK
6
CONTINUOUS
10
5.9937
20
-3.61806
11
5.99503
21
-3.61918
0
LINE
8
BLACK
6
CONTINUOUS
10
5.99503
20
-3.61918
11
5.99831
21
-3.62309
0
LINE
8
BLACK
6
CONTINUOUS
10
5.99831
20
-3.62309
11
6.00441
21
-3.62661
0
LINE
8
BLACK
6
CONTINUOUS
10
6.00441
20
-3.62661
11
6.01134
21
-3.62783
0
LINE
8
BLACK
6
CONTINUOUS
10
6.01134
20
-3.62783
11
6.07133
21
-3.62783
0
LINE
8
BLACK
6
CONTINUOUS
10
6.07133
20
-3.62783
11
6.08147
21
-3.62511
0
LINE
8
BLACK
6
CONTINUOUS
10
6.08147
20
-3.62511
11
6.08687
21
-3.62059
0
LINE
8
BLACK
6
CONTINUOUS
10
6.08687
20
-3.62059
11
6.08727
21
-3.61989
0
LINE
8
BLACK
6
CONTINUOUS
10
6.08727
20
-3.61989
11
6.08855
21
-3.61843
0
LINE
8
BLACK
6
CONTINUOUS
10
6.08855
20
-3.61843
11
6.0903
21
-3.61756
0
LINE
8
BLACK
6
CONTINUOUS
10
6.0903
20
-3.61756
11
6.09225
21
-3.61744
0
LINE
8
BLACK
6
CONTINUOUS
10
6.09225
20
-3.61744
11
6.0941
21
-3.61806
0
LINE
8
BLACK
6
CONTINUOUS
10
6.0941
20
-3.61806
11
6.09543
21
-3.61918
0
LINE
8
BLACK
6
CONTINUOUS
10
6.09543
20
-3.61918
11
6.0987
21
-3.62309
0
LINE
8
BLACK
6
CONTINUOUS
10
6.0987
20
-3.62309
11
6.1048
21
-3.62661
0
LINE
8
BLACK
6
CONTINUOUS
10
6.1048
20
-3.62661
11
6.11174
21
-3.62783
0
LINE
8
BLACK
6
CONTINUOUS
10
6.11174
20
-3.62783
11
6.17173
21
-3.62783
0
LINE
8
BLACK
6
CONTINUOUS
10
6.17173
20
-3.62783
11
6.18187
21
-3.62511
0
LINE
8
BLACK
6
CONTINUOUS
10
6.18187
20
-3.62511
11
6.18726
21
-3.62059
0
LINE
8
BLACK
6
CONTINUOUS
10
6.18726
20
-3.62059
11
6.19078
21
-3.61449
0
LINE
8
BLACK
6
CONTINUOUS
10
6.19078
20
-3.61449
11
6.192
21
-3.60756
0
LINE
8
BLACK
6
CONTINUOUS
10
6.192
20
-3.60756
11
6.192
21
-3.54756
0
LINE
8
BLACK
6
CONTINUOUS
10
6.192
20
-3.54756
11
6.18928
21
-3.53742
0
LINE
8
BLACK
6
CONTINUOUS
10
6.18928
20
-3.53742
11
6.18476
21
-3.53203
0
LINE
8
BLACK
6
CONTINUOUS
10
6.18476
20
-3.53203
11
6.18434
21
-3.53179
0
LINE
8
BLACK
6
CONTINUOUS
10
6.18434
20
-3.53179
11
6.18288
21
-3.53051
0
LINE
8
BLACK
6
CONTINUOUS
10
6.18288
20
-3.53051
11
6.18201
21
-3.52876
0
LINE
8
BLACK
6
CONTINUOUS
10
6.18201
20
-3.52876
11
6.18189
21
-3.52681
0
LINE
8
BLACK
6
CONTINUOUS
10
6.18189
20
-3.52681
11
6.18251
21
-3.52496
0
LINE
8
BLACK
6
CONTINUOUS
10
6.18251
20
-3.52496
11
6.18363
21
-3.52363
0
LINE
8
BLACK
6
CONTINUOUS
10
6.18363
20
-3.52363
11
6.18726
21
-3.52059
0
LINE
8
BLACK
6
CONTINUOUS
10
6.18726
20
-3.52059
11
6.19078
21
-3.51449
0
LINE
8
BLACK
6
CONTINUOUS
10
6.19078
20
-3.51449
11
6.192
21
-3.50756
0
LINE
8
BLACK
6
CONTINUOUS
10
6.192
20
-3.50756
11
6.192
21
-3.44756
0
LINE
8
BLACK
6
CONTINUOUS
10
6.192
20
-3.44756
11
6.18928
21
-3.43742
0
LINE
8
BLACK
6
CONTINUOUS
10
6.18928
20
-3.43742
11
6.18476
21
-3.43203
0
LINE
8
BLACK
6
CONTINUOUS
10
6.18476
20
-3.43203
11
6.17866
21
-3.42851
0
LINE
8
BLACK
6
CONTINUOUS
10
6.17866
20
-3.42851
11
6.17173
21
-3.42729
0
LINE
8
BLACK
6
CONTINUOUS
10
6.17173
20
-3.42729
11
6.12782
21
-3.42729
0
LINE
8
BLACK
6
CONTINUOUS
10
6.12782
20
-3.42729
11
6.12591
21
-3.42691
0
LINE
8
BLACK
6
CONTINUOUS
10
6.12591
20
-3.42691
11
6.12429
21
-3.42583
0
LINE
8
BLACK
6
CONTINUOUS
10
6.12429
20
-3.42583
11
6.1232
21
-3.4242
0
LINE
8
BLACK
6
CONTINUOUS
10
6.1232
20
-3.4242
11
6.12282
21
-3.42229
0
LINE
8
BLACK
6
CONTINUOUS
10
6.12282
20
-3.42229
11
6.1232
21
-3.42038
0
LINE
8
BLACK
6
CONTINUOUS
10
6.1232
20
-3.42038
11
6.12429
21
-3.41875
0
LINE
8
BLACK
6
CONTINUOUS
10
6.12429
20
-3.41875
11
6.12555
21
-3.41783
0
LINE
8
BLACK
6
CONTINUOUS
10
6.12555
20
-3.41783
11
6.12731
21
-3.41694
0
LINE
8
BLACK
6
CONTINUOUS
10
6.12731
20
-3.41694
11
6.12804
21
-3.41664
0
LINE
8
BLACK
6
CONTINUOUS
10
6.12804
20
-3.41664
11
6.12955
21
-3.41615
0
LINE
8
BLACK
6
CONTINUOUS
10
6.12955
20
-3.41615
11
6.13083
21
-3.41521
0
LINE
8
BLACK
6
CONTINUOUS
10
6.13083
20
-3.41521
11
6.1315
21
-3.4148
0
LINE
8
BLACK
6
CONTINUOUS
10
6.1315
20
-3.4148
11
6.13292
21
-3.41408
0
LINE
8
BLACK
6
CONTINUOUS
10
6.13292
20
-3.41408
11
6.17245
21
-3.37455
0
LINE
8
BLACK
6
CONTINUOUS
10
6.17245
20
-3.37455
11
6.17407
21
-3.37346
0
LINE
8
BLACK
6
CONTINUOUS
10
6.17407
20
-3.37346
11
6.17599
21
-3.37308
0
LINE
8
BLACK
6
CONTINUOUS
10
6.17599
20
-3.37308
11
6.1779
21
-3.37346
0
LINE
8
BLACK
6
CONTINUOUS
10
6.1779
20
-3.37346
11
6.17952
21
-3.37455
0
LINE
8
BLACK
6
CONTINUOUS
10
6.17952
20
-3.37455
11
6.18061
21
-3.37617
0
LINE
8
BLACK
6
CONTINUOUS
10
6.18061
20
-3.37617
11
6.18099
21
-3.37808
0
LINE
8
BLACK
6
CONTINUOUS
10
6.18099
20
-3.37808
11
6.18093
21
-3.37881
0
LINE
8
BLACK
6
CONTINUOUS
10
6.18093
20
-3.37881
11
6.18053
21
-3.38155
0
LINE
8
BLACK
6
CONTINUOUS
10
6.18053
20
-3.38155
11
6.18162
21
-3.39019
0
LINE
8
BLACK
6
CONTINUOUS
10
6.18162
20
-3.39019
11
6.18499
21
-3.39821
0
LINE
8
BLACK
6
CONTINUOUS
10
6.18499
20
-3.39821
11
6.1904
21
-3.40504
0
LINE
8
BLACK
6
CONTINUOUS
10
6.1904
20
-3.40504
11
6.19744
21
-3.41015
0
LINE
8
BLACK
6
CONTINUOUS
10
6.19744
20
-3.41015
11
6.2056
21
-3.41319
0
LINE
8
BLACK
6
CONTINUOUS
10
6.2056
20
-3.41319
11
6.21428
21
-3.41392
0
LINE
8
BLACK
6
CONTINUOUS
10
6.21428
20
-3.41392
11
6.22282
21
-3.41229
0
LINE
8
BLACK
6
CONTINUOUS
10
6.22282
20
-3.41229
11
6.22477
21
-3.4123
0
LINE
8
BLACK
6
CONTINUOUS
10
6.22477
20
-3.4123
11
6.22657
21
-3.41306
0
LINE
8
BLACK
6
CONTINUOUS
10
6.22657
20
-3.41306
11
6.22793
21
-3.41445
0
LINE
8
BLACK
6
CONTINUOUS
10
6.22793
20
-3.41445
11
6.22867
21
-3.41626
0
LINE
8
BLACK
6
CONTINUOUS
10
6.22867
20
-3.41626
11
6.22872
21
-3.41657
0
LINE
8
BLACK
6
CONTINUOUS
10
6.22872
20
-3.41657
11
6.22886
21
-3.41775
0
LINE
8
BLACK
6
CONTINUOUS
10
6.22886
20
-3.41775
11
6.23224
21
-3.42577
0
LINE
8
BLACK
6
CONTINUOUS
10
6.23224
20
-3.42577
11
6.23765
21
-3.4326
0
LINE
8
BLACK
6
CONTINUOUS
10
6.23765
20
-3.4326
11
6.24469
21
-3.43771
0
LINE
8
BLACK
6
CONTINUOUS
10
6.24469
20
-3.43771
11
6.24641
21
-3.43835
0
LINE
8
BLACK
6
CONTINUOUS
10
6.24641
20
-3.43835
11
6.24807
21
-3.43938
0
LINE
8
BLACK
6
CONTINUOUS
10
6.24807
20
-3.43938
11
6.24921
21
-3.44096
0
LINE
8
BLACK
6
CONTINUOUS
10
6.24921
20
-3.44096
11
6.24966
21
-3.44286
0
LINE
8
BLACK
6
CONTINUOUS
10
6.24966
20
-3.44286
11
6.24959
21
-3.44391
0
LINE
8
BLACK
6
CONTINUOUS
10
6.24959
20
-3.44391
11
6.24894
21
-3.44756
0
LINE
8
BLACK
6
CONTINUOUS
10
6.24894
20
-3.44756
11
6.24894
21
-3.50755
0
LINE
8
BLACK
6
CONTINUOUS
10
6.24894
20
-3.50755
11
6.25166
21
-3.51769
0
LINE
8
BLACK
6
CONTINUOUS
10
6.25166
20
-3.51769
11
6.25618
21
-3.52309
0
LINE
8
BLACK
6
CONTINUOUS
10
6.25618
20
-3.52309
11
6.2566
21
-3.52333
0
LINE
8
BLACK
6
CONTINUOUS
10
6.2566
20
-3.52333
11
6.25807
21
-3.52461
0
LINE
8
BLACK
6
CONTINUOUS
10
6.25807
20
-3.52461
11
6.25893
21
-3.52636
0
LINE
8
BLACK
6
CONTINUOUS
10
6.25893
20
-3.52636
11
6.25906
21
-3.52831
0
LINE
8
BLACK
6
CONTINUOUS
10
6.25906
20
-3.52831
11
6.25843
21
-3.53016
0
LINE
8
BLACK
6
CONTINUOUS
10
6.25843
20
-3.53016
11
6.25731
21
-3.53149
0
LINE
8
BLACK
6
CONTINUOUS
10
6.25731
20
-3.53149
11
6.25369
21
-3.53453
0
LINE
8
BLACK
6
CONTINUOUS
10
6.25369
20
-3.53453
11
6.25017
21
-3.54063
0
LINE
8
BLACK
6
CONTINUOUS
10
6.25017
20
-3.54063
11
6.24894
21
-3.54756
0
LINE
8
BLACK
6
CONTINUOUS
10
6.24894
20
-3.54756
11
6.24894
21
-3.60755
0
LINE
8
BLACK
6
CONTINUOUS
10
6.24894
20
-3.60755
11
6.25166
21
-3.61769
0
LINE
8
BLACK
6
CONTINUOUS
10
6.25166
20
-3.61769
11
6.25618
21
-3.62309
0
LINE
8
BLACK
6
CONTINUOUS
10
6.25618
20
-3.62309
11
6.26228
21
-3.62661
0
LINE
8
BLACK
6
CONTINUOUS
10
6.26228
20
-3.62661
11
6.26922
21
-3.62783
0
LINE
8
BLACK
6
CONTINUOUS
10
6.26922
20
-3.62783
11
6.32921
21
-3.62783
0
LINE
8
BLACK
6
CONTINUOUS
10
6.32921
20
-3.62783
11
6.33935
21
-3.62511
0
LINE
8
BLACK
6
CONTINUOUS
10
6.33935
20
-3.62511
11
6.34474
21
-3.62059
0
LINE
8
BLACK
6
CONTINUOUS
10
6.34474
20
-3.62059
11
6.34514
21
-3.61989
0
LINE
8
BLACK
6
CONTINUOUS
10
6.34514
20
-3.61989
11
6.34643
21
-3.61843
0
LINE
8
BLACK
6
CONTINUOUS
10
6.34643
20
-3.61843
11
6.34818
21
-3.61756
0
LINE
8
BLACK
6
CONTINUOUS
10
6.34818
20
-3.61756
11
6.35012
21
-3.61744
0
LINE
8
BLACK
6
CONTINUOUS
10
6.35012
20
-3.61744
11
6.35197
21
-3.61806
0
LINE
8
BLACK
6
CONTINUOUS
10
6.35197
20
-3.61806
11
6.3533
21
-3.61918
0
LINE
8
BLACK
6
CONTINUOUS
10
6.3533
20
-3.61918
11
6.35658
21
-3.62309
0
LINE
8
BLACK
6
CONTINUOUS
10
6.35658
20
-3.62309
11
6.36267
21
-3.62661
0
LINE
8
BLACK
6
CONTINUOUS
10
6.36267
20
-3.62661
11
6.36961
21
-3.62783
0
LINE
8
BLACK
6
CONTINUOUS
10
6.36961
20
-3.62783
11
6.4296
21
-3.62783
0
LINE
8
BLACK
6
CONTINUOUS
10
6.4296
20
-3.62783
11
6.43974
21
-3.62511
0
LINE
8
BLACK
6
CONTINUOUS
10
6.43974
20
-3.62511
11
6.44513
21
-3.62059
0
LINE
8
BLACK
6
CONTINUOUS
10
6.44513
20
-3.62059
11
6.44553
21
-3.61989
0
LINE
8
BLACK
6
CONTINUOUS
10
6.44553
20
-3.61989
11
6.44682
21
-3.61843
0
LINE
8
BLACK
6
CONTINUOUS
10
6.44682
20
-3.61843
11
6.44857
21
-3.61756
0
LINE
8
BLACK
6
CONTINUOUS
10
6.44857
20
-3.61756
11
6.45052
21
-3.61744
0
LINE
8
BLACK
6
CONTINUOUS
10
6.45052
20
-3.61744
11
6.45236
21
-3.61806
0
LINE
8
BLACK
6
CONTINUOUS
10
6.45236
20
-3.61806
11
6.45369
21
-3.61918
0
LINE
8
BLACK
6
CONTINUOUS
10
6.45369
20
-3.61918
11
6.45697
21
-3.62309
0
LINE
8
BLACK
6
CONTINUOUS
10
6.45697
20
-3.62309
11
6.46307
21
-3.62661
0
LINE
8
BLACK
6
CONTINUOUS
10
6.46307
20
-3.62661
11
6.47
21
-3.62783
0
LINE
8
BLACK
6
CONTINUOUS
10
6.47
20
-3.62783
11
6.52999
21
-3.62783
0
LINE
8
BLACK
6
CONTINUOUS
10
6.52999
20
-3.62783
11
6.54014
21
-3.62511
0
LINE
8
BLACK
6
CONTINUOUS
10
6.54014
20
-3.62511
11
6.54553
21
-3.62059
0
LINE
8
BLACK
6
CONTINUOUS
10
6.54553
20
-3.62059
11
6.54593
21
-3.61989
0
LINE
8
BLACK
6
CONTINUOUS
10
6.54593
20
-3.61989
11
6.54721
21
-3.61843
0
LINE
8
BLACK
6
CONTINUOUS
10
6.54721
20
-3.61843
11
6.54896
21
-3.61756
0
LINE
8
BLACK
6
CONTINUOUS
10
6.54896
20
-3.61756
11
6.55091
21
-3.61744
0
LINE
8
BLACK
6
CONTINUOUS
10
6.55091
20
-3.61744
11
6.55276
21
-3.61806
0
LINE
8
BLACK
6
CONTINUOUS
10
6.55276
20
-3.61806
11
6.55409
21
-3.61918
0
LINE
8
BLACK
6
CONTINUOUS
10
6.55409
20
-3.61918
11
6.55737
21
-3.62309
0
LINE
8
BLACK
6
CONTINUOUS
10
6.55737
20
-3.62309
11
6.56346
21
-3.62661
0
LINE
8
BLACK
6
CONTINUOUS
10
6.56346
20
-3.62661
11
6.5704
21
-3.62783
0
LINE
8
BLACK
6
CONTINUOUS
10
6.5704
20
-3.62783
11
6.63039
21
-3.62783
0
LINE
8
BLACK
6
CONTINUOUS
10
6.63039
20
-3.62783
11
6.64053
21
-3.62511
0
LINE
8
BLACK
6
CONTINUOUS
10
6.64053
20
-3.62511
11
6.64592
21
-3.62059
0
LINE
8
BLACK
6
CONTINUOUS
10
6.64592
20
-3.62059
11
6.64944
21
-3.61449
0
LINE
8
BLACK
6
CONTINUOUS
10
6.64944
20
-3.61449
11
6.65066
21
-3.60756
0
LINE
8
BLACK
6
CONTINUOUS
10
6.65066
20
-3.60756
11
6.65066
21
-3.54756
0
LINE
8
BLACK
6
CONTINUOUS
10
6.65066
20
-3.54756
11
6.64795
21
-3.53742
0
LINE
8
BLACK
6
CONTINUOUS
10
6.64795
20
-3.53742
11
6.64342
21
-3.53203
0
LINE
8
BLACK
6
CONTINUOUS
10
6.64342
20
-3.53203
11
6.64301
21
-3.53179
0
LINE
8
BLACK
6
CONTINUOUS
10
6.64301
20
-3.53179
11
6.64154
21
-3.53051
0
LINE
8
BLACK
6
CONTINUOUS
10
6.64154
20
-3.53051
11
6.64068
21
-3.52876
0
LINE
8
BLACK
6
CONTINUOUS
10
6.64068
20
-3.52876
11
6.64055
21
-3.52681
0
LINE
8
BLACK
6
CONTINUOUS
10
6.64055
20
-3.52681
11
6.64118
21
-3.52496
0
LINE
8
BLACK
6
CONTINUOUS
10
6.64118
20
-3.52496
11
6.64229
21
-3.52363
0
LINE
8
BLACK
6
CONTINUOUS
10
6.64229
20
-3.52363
11
6.64592
21
-3.52059
0
LINE
8
BLACK
6
CONTINUOUS
10
6.64592
20
-3.52059
11
6.64944
21
-3.51449
0
LINE
8
BLACK
6
CONTINUOUS
10
6.64944
20
-3.51449
11
6.65066
21
-3.50756
0
LINE
8
BLACK
6
CONTINUOUS
10
6.65066
20
-3.50756
11
6.65066
21
-3.44756
0
LINE
8
BLACK
6
CONTINUOUS
10
6.65066
20
-3.44756
11
6.64795
21
-3.43742
0
LINE
8
BLACK
6
CONTINUOUS
10
6.64795
20
-3.43742
11
6.64342
21
-3.43203
0
LINE
8
BLACK
6
CONTINUOUS
10
6.64342
20
-3.43203
11
6.63733
21
-3.42851
0
LINE
8
BLACK
6
CONTINUOUS
10
6.63733
20
-3.42851
11
6.63039
21
-3.42729
0
LINE
8
BLACK
6
CONTINUOUS
10
6.63039
20
-3.42729
11
6.5704
21
-3.42729
0
LINE
8
BLACK
6
CONTINUOUS
10
6.5704
20
-3.42729
11
6.56026
21
-3.43001
0
LINE
8
BLACK
6
CONTINUOUS
10
6.56026
20
-3.43001
11
6.55487
21
-3.43453
0
LINE
8
BLACK
6
CONTINUOUS
10
6.55487
20
-3.43453
11
6.55447
21
-3.43522
0
LINE
8
BLACK
6
CONTINUOUS
10
6.55447
20
-3.43522
11
6.55318
21
-3.43669
0
LINE
8
BLACK
6
CONTINUOUS
10
6.55318
20
-3.43669
11
6.55143
21
-3.43755
0
LINE
8
BLACK
6
CONTINUOUS
10
6.55143
20
-3.43755
11
6.54948
21
-3.43768
0
LINE
8
BLACK
6
CONTINUOUS
10
6.54948
20
-3.43768
11
6.54764
21
-3.43705
0
LINE
8
BLACK
6
CONTINUOUS
10
6.54764
20
-3.43705
11
6.54631
21
-3.43594
0
LINE
8
BLACK
6
CONTINUOUS
10
6.54631
20
-3.43594
11
6.54303
21
-3.43203
0
LINE
8
BLACK
6
CONTINUOUS
10
6.54303
20
-3.43203
11
6.53693
21
-3.42851
0
LINE
8
BLACK
6
CONTINUOUS
10
6.53693
20
-3.42851
11
6.53
21
-3.42729
0
LINE
8
BLACK
6
CONTINUOUS
10
6.53
20
-3.42729
11
6.49211
21
-3.42729
0
LINE
8
BLACK
6
CONTINUOUS
10
6.49211
20
-3.42729
11
6.49019
21
-3.42691
0
LINE
8
BLACK
6
CONTINUOUS
10
6.49019
20
-3.42691
11
6.48857
21
-3.42583
0
LINE
8
BLACK
6
CONTINUOUS
10
6.48857
20
-3.42583
11
6.45756
21
-3.39482
0
LINE
8
BLACK
6
CONTINUOUS
10
6.45756
20
-3.39482
11
6.45615
21
-3.39409
0
LINE
8
BLACK
6
CONTINUOUS
10
6.45615
20
-3.39409
11
6.45548
21
-3.39368
0
LINE
8
BLACK
6
CONTINUOUS
10
6.45548
20
-3.39368
11
6.45419
21
-3.39275
0
LINE
8
BLACK
6
CONTINUOUS
10
6.45419
20
-3.39275
11
6.45268
21
-3.39226
0
LINE
8
BLACK
6
CONTINUOUS
10
6.45268
20
-3.39226
11
6.45196
21
-3.39196
0
LINE
8
BLACK
6
CONTINUOUS
10
6.45196
20
-3.39196
11
6.45054
21
-3.39124
0
LINE
8
BLACK
6
CONTINUOUS
10
6.45054
20
-3.39124
11
6.44897
21
-3.39099
0
LINE
8
BLACK
6
CONTINUOUS
10
6.44897
20
-3.39099
11
6.44821
21
-3.39081
0
LINE
8
BLACK
6
CONTINUOUS
10
6.44821
20
-3.39081
11
6.4467
21
-3.39031
0
LINE
8
BLACK
6
CONTINUOUS
10
6.4467
20
-3.39031
11
6.42364
21
-3.39031
0
LINE
8
BLACK
6
CONTINUOUS
10
6.42364
20
-3.39031
11
6.42172
21
-3.38993
0
LINE
8
BLACK
6
CONTINUOUS
10
6.42172
20
-3.38993
11
6.4201
21
-3.38885
0
LINE
8
BLACK
6
CONTINUOUS
10
6.4201
20
-3.38885
11
6.40627
21
-3.37502
0
LINE
8
BLACK
6
CONTINUOUS
10
6.40627
20
-3.37502
11
6.40519
21
-3.3734
0
LINE
8
BLACK
6
CONTINUOUS
10
6.40519
20
-3.3734
11
6.40481
21
-3.37149
0
LINE
8
BLACK
6
CONTINUOUS
10
6.40481
20
-3.37149
11
6.40519
21
-3.36957
0
LINE
8
BLACK
6
CONTINUOUS
10
6.40519
20
-3.36957
11
6.40627
21
-3.36795
0
LINE
8
BLACK
6
CONTINUOUS
10
6.40627
20
-3.36795
11
6.40789
21
-3.36687
0
LINE
8
BLACK
6
CONTINUOUS
10
6.40789
20
-3.36687
11
6.40981
21
-3.36649
0
LINE
8
BLACK
6
CONTINUOUS
10
6.40981
20
-3.36649
11
6.41347
21
-3.36649
0
LINE
8
BLACK
6
CONTINUOUS
10
6.41347
20
-3.36649
11
6.42303
21
-3.36468
0
LINE
8
BLACK
6
CONTINUOUS
10
6.42303
20
-3.36468
11
6.42979
21
-3.36078
0
LINE
8
BLACK
6
CONTINUOUS
10
6.42979
20
-3.36078
11
6.43509
21
-3.35506
0
LINE
8
BLACK
6
CONTINUOUS
10
6.43509
20
-3.35506
11
6.43847
21
-3.34804
0
LINE
8
BLACK
6
CONTINUOUS
10
6.43847
20
-3.34804
11
6.43883
21
-3.34564
0
LINE
8
BLACK
6
CONTINUOUS
10
6.43883
20
-3.34564
11
6.4395
21
-3.3438
0
LINE
8
BLACK
6
CONTINUOUS
10
6.4395
20
-3.3438
11
6.44081
21
-3.34236
0
LINE
8
BLACK
6
CONTINUOUS
10
6.44081
20
-3.34236
11
6.44258
21
-3.34153
0
LINE
8
BLACK
6
CONTINUOUS
10
6.44258
20
-3.34153
11
6.4442
21
-3.3414
0
LINE
8
BLACK
6
CONTINUOUS
10
6.4442
20
-3.3414
11
6.45168
21
-3.34203
0
LINE
8
BLACK
6
CONTINUOUS
10
6.45168
20
-3.34203
11
6.46023
21
-3.3404
0
LINE
8
BLACK
6
CONTINUOUS
10
6.46023
20
-3.3404
11
6.46803
21
-3.33652
0
LINE
8
BLACK
6
CONTINUOUS
10
6.46803
20
-3.33652
11
6.4745
21
-3.3307
0
LINE
8
BLACK
6
CONTINUOUS
10
6.4745
20
-3.3307
11
6.47916
21
-3.32335
0
LINE
8
BLACK
6
CONTINUOUS
10
6.47916
20
-3.32335
11
6.48168
21
-3.31502
0
LINE
8
BLACK
6
CONTINUOUS
10
6.48168
20
-3.31502
11
6.48177
21
-3.30565
0
LINE
8
BLACK
6
CONTINUOUS
10
6.48177
20
-3.30565
11
6.47943
21
-3.29726
0
LINE
8
BLACK
6
CONTINUOUS
10
6.47943
20
-3.29726
11
6.47492
21
-3.28982
0
LINE
8
BLACK
6
CONTINUOUS
10
6.47492
20
-3.28982
11
6.46858
21
-3.28386
0
LINE
8
BLACK
6
CONTINUOUS
10
6.46858
20
-3.28386
11
6.46086
21
-3.27983
0
LINE
8
BLACK
6
CONTINUOUS
10
6.46086
20
-3.27983
11
6.45235
21
-3.27802
0
LINE
8
BLACK
6
CONTINUOUS
10
6.45235
20
-3.27802
11
6.44298
21
-3.27861
0
LINE
8
BLACK
6
CONTINUOUS
10
6.44298
20
-3.27861
11
6.44298
21
-3.27858
0
LINE
8
BLACK
6
CONTINUOUS
10
6.44298
20
-3.27858
11
6.44211
21
-3.2787
0
LINE
8
BLACK
6
CONTINUOUS
10
6.44211
20
-3.2787
11
6.44022
21
-3.27821
0
LINE
8
BLACK
6
CONTINUOUS
10
6.44022
20
-3.27821
11
6.43867
21
-3.27703
0
LINE
8
BLACK
6
CONTINUOUS
10
6.43867
20
-3.27703
11
6.43807
21
-3.27621
0
LINE
8
BLACK
6
CONTINUOUS
10
6.43807
20
-3.27621
11
6.43393
21
-3.26903
0
LINE
8
BLACK
6
CONTINUOUS
10
6.43393
20
-3.26903
11
6.42821
21
-3.26373
0
LINE
8
BLACK
6
CONTINUOUS
10
6.42821
20
-3.26373
11
6.42119
21
-3.26035
0
LINE
8
BLACK
6
CONTINUOUS
10
6.42119
20
-3.26035
11
6.41347
21
-3.25918
0
LINE
8
BLACK
6
CONTINUOUS
10
6.41347
20
-3.25918
11
6.4018
21
-3.25918
0
LINE
8
BLACK
6
CONTINUOUS
10
6.4018
20
-3.25918
11
6.39224
21
-3.26099
0
LINE
8
BLACK
6
CONTINUOUS
10
6.39224
20
-3.26099
11
6.38546
21
-3.26491
0
LINE
8
BLACK
6
CONTINUOUS
10
6.38546
20
-3.26491
11
6.38361
21
-3.26554
0
LINE
8
BLACK
6
CONTINUOUS
10
6.38361
20
-3.26554
11
6.38166
21
-3.26541
0
LINE
8
BLACK
6
CONTINUOUS
10
6.38166
20
-3.26541
11
6.37991
21
-3.26455
0
LINE
8
BLACK
6
CONTINUOUS
10
6.37991
20
-3.26455
11
6.37956
21
-3.26425
0
LINE
8
BLACK
6
CONTINUOUS
10
6.37956
20
-3.26425
11
6.379
21
-3.26373
0
LINE
8
BLACK
6
CONTINUOUS
10
6.379
20
-3.26373
11
6.37197
21
-3.26035
0
LINE
8
BLACK
6
CONTINUOUS
10
6.37197
20
-3.26035
11
6.36426
21
-3.25918
0
LINE
8
BLACK
6
CONTINUOUS
10
6.36426
20
-3.25918
11
6.35259
21
-3.25918
0
LINE
8
BLACK
6
CONTINUOUS
10
6.35259
20
-3.25918
11
6.34303
21
-3.26099
0
LINE
8
BLACK
6
CONTINUOUS
10
6.34303
20
-3.26099
11
6.33624
21
-3.26491
0
LINE
8
BLACK
6
CONTINUOUS
10
6.33624
20
-3.26491
11
6.3344
21
-3.26554
0
LINE
8
BLACK
6
CONTINUOUS
10
6.3344
20
-3.26554
11
6.33245
21
-3.26541
0
LINE
8
BLACK
6
CONTINUOUS
10
6.33245
20
-3.26541
11
6.3307
21
-3.26455
0
LINE
8
BLACK
6
CONTINUOUS
10
6.3307
20
-3.26455
11
6.33034
21
-3.26425
0
LINE
8
BLACK
6
CONTINUOUS
10
6.33034
20
-3.26425
11
6.32979
21
-3.26373
0
LINE
8
BLACK
6
CONTINUOUS
10
6.32979
20
-3.26373
11
6.32276
21
-3.26035
0
LINE
8
BLACK
6
CONTINUOUS
10
6.32276
20
-3.26035
11
6.31505
21
-3.25918
0
LINE
8
BLACK
6
CONTINUOUS
10
6.31505
20
-3.25918
11
6.30338
21
-3.25918
0
LINE
8
BLACK
6
CONTINUOUS
10
6.30338
20
-3.25918
11
6.29382
21
-3.26099
0
LINE
8
BLACK
6
CONTINUOUS
10
6.29382
20
-3.26099
11
6.28703
21
-3.26491
0
LINE
8
BLACK
6
CONTINUOUS
10
6.28703
20
-3.26491
11
6.28518
21
-3.26554
0
LINE
8
BLACK
6
CONTINUOUS
10
6.28518
20
-3.26554
11
6.28324
21
-3.26541
0
LINE
8
BLACK
6
CONTINUOUS
10
6.28324
20
-3.26541
11
6.28149
21
-3.26455
0
LINE
8
BLACK
6
CONTINUOUS
10
6.28149
20
-3.26455
11
6.28113
21
-3.26425
0
LINE
8
BLACK
6
CONTINUOUS
10
6.28113
20
-3.26425
11
6.28057
21
-3.26373
0
LINE
8
BLACK
6
CONTINUOUS
10
6.28057
20
-3.26373
11
6.27355
21
-3.26035
0
LINE
8
BLACK
6
CONTINUOUS
10
6.27355
20
-3.26035
11
6.26584
21
-3.25918
0
LINE
8
BLACK
6
CONTINUOUS
10
6.26584
20
-3.25918
11
6.25416
21
-3.25918
0
LINE
8
BLACK
6
CONTINUOUS
10
6.25416
20
-3.25918
11
6.2446
21
-3.26099
0
LINE
8
BLACK
6
CONTINUOUS
10
6.2446
20
-3.26099
11
6.23782
21
-3.26491
0
LINE
8
BLACK
6
CONTINUOUS
10
6.23782
20
-3.26491
11
6.23597
21
-3.26554
0
LINE
8
BLACK
6
CONTINUOUS
10
6.23597
20
-3.26554
11
6.23402
21
-3.26541
0
LINE
8
BLACK
6
CONTINUOUS
10
6.23402
20
-3.26541
11
6.23227
21
-3.26455
0
LINE
8
BLACK
6
CONTINUOUS
10
6.23227
20
-3.26455
11
6.23192
21
-3.26425
0
LINE
8
BLACK
6
CONTINUOUS
10
6.23192
20
-3.26425
11
6.23136
21
-3.26373
0
LINE
8
BLACK
6
CONTINUOUS
10
6.23136
20
-3.26373
11
6.22434
21
-3.26035
0
LINE
8
BLACK
6
CONTINUOUS
10
6.22434
20
-3.26035
11
6.21662
21
-3.25918
0
LINE
8
BLACK
6
CONTINUOUS
10
6.21662
20
-3.25918
11
6.20495
21
-3.25918
0
LINE
8
BLACK
6
CONTINUOUS
10
6.20495
20
-3.25918
11
6.19539
21
-3.26099
0
LINE
8
BLACK
6
CONTINUOUS
10
6.19539
20
-3.26099
11
6.18861
21
-3.26491
0
LINE
8
BLACK
6
CONTINUOUS
10
6.18861
20
-3.26491
11
6.18676
21
-3.26554
0
LINE
8
BLACK
6
CONTINUOUS
10
6.18676
20
-3.26554
11
6.18481
21
-3.26541
0
LINE
8
BLACK
6
CONTINUOUS
10
6.18481
20
-3.26541
11
6.18306
21
-3.26455
0
LINE
8
BLACK
6
CONTINUOUS
10
6.18306
20
-3.26455
11
6.18271
21
-3.26425
0
LINE
8
BLACK
6
CONTINUOUS
10
6.18271
20
-3.26425
11
6.18215
21
-3.26373
0
LINE
8
BLACK
6
CONTINUOUS
10
6.18215
20
-3.26373
11
6.17512
21
-3.26035
0
LINE
8
BLACK
6
CONTINUOUS
10
6.17512
20
-3.26035
11
6.16741
21
-3.25918
0
LINE
8
BLACK
6
CONTINUOUS
10
6.16741
20
-3.25918
11
6.15574
21
-3.25918
0
LINE
8
BLACK
6
CONTINUOUS
10
6.15574
20
-3.25918
11
6.14618
21
-3.26099
0
LINE
8
BLACK
6
CONTINUOUS
10
6.14618
20
-3.26099
11
6.13939
21
-3.26491
0
LINE
8
BLACK
6
CONTINUOUS
10
6.13939
20
-3.26491
11
6.13755
21
-3.26554
0
LINE
8
BLACK
6
CONTINUOUS
10
6.13755
20
-3.26554
11
6.1356
21
-3.26541
0
LINE
8
BLACK
6
CONTINUOUS
10
6.1356
20
-3.26541
11
6.13385
21
-3.26455
0
LINE
8
BLACK
6
CONTINUOUS
10
6.13385
20
-3.26455
11
6.13349
21
-3.26425
0
LINE
8
BLACK
6
CONTINUOUS
10
6.13349
20
-3.26425
11
6.13294
21
-3.26373
0
LINE
8
BLACK
6
CONTINUOUS
10
6.13294
20
-3.26373
11
6.12591
21
-3.26035
0
LINE
8
BLACK
6
CONTINUOUS
10
6.12591
20
-3.26035
11
6.1224
21
-3.25982
0
LINE
8
BLACK
6
CONTINUOUS
10
6.1224
20
-3.25982
11
6.1224
21
-3.28107
0
LINE
8
BLACK
6
CONTINUOUS
10
6.1224
20
-3.28107
11
6.12244
21
-3.2811
0
LINE
8
BLACK
6
CONTINUOUS
10
6.12244
20
-3.2811
11
6.12372
21
-3.28302
0
LINE
8
BLACK
6
CONTINUOUS
10
6.12372
20
-3.28302
11
6.12417
21
-3.28528
0
LINE
8
BLACK
6
CONTINUOUS
10
6.12417
20
-3.28528
11
6.12417
21
-3.34039
0
LINE
8
BLACK
6
CONTINUOUS
10
6.12417
20
-3.34039
11
6.12372
21
-3.34265
0
LINE
8
BLACK
6
CONTINUOUS
10
6.12372
20
-3.34265
11
6.12244
21
-3.34457
0
LINE
8
BLACK
6
CONTINUOUS
10
6.12244
20
-3.34457
11
6.12053
21
-3.34585
0
LINE
8
BLACK
6
CONTINUOUS
10
6.12053
20
-3.34585
11
6.11827
21
-3.3463
0
LINE
8
BLACK
6
CONTINUOUS
10
6.11827
20
-3.3463
11
6.10646
21
-3.3463
0
LINE
8
BLACK
6
CONTINUOUS
10
6.10646
20
-3.3463
11
6.1042
21
-3.34585
0
LINE
8
BLACK
6
CONTINUOUS
10
6.1042
20
-3.34585
11
6.10228
21
-3.34457
0
LINE
8
BLACK
6
CONTINUOUS
10
6.10228
20
-3.34457
11
6.101
21
-3.34265
0
LINE
8
BLACK
6
CONTINUOUS
10
6.101
20
-3.34265
11
6.10055
21
-3.34039
0
LINE
8
BLACK
6
CONTINUOUS
10
6.10055
20
-3.34039
11
6.10055
21
-3.32287
0
LINE
8
BLACK
6
CONTINUOUS
10
6.10055
20
-3.32287
11
6.08036
21
-3.32287
0
LINE
8
BLACK
6
CONTINUOUS
10
6.08036
20
-3.32287
11
6.08036
21
-3.34032
0
LINE
8
BLACK
6
CONTINUOUS
10
6.08036
20
-3.34032
11
6.08217
21
-3.34988
0
LINE
8
BLACK
6
CONTINUOUS
10
6.08217
20
-3.34988
11
6.08607
21
-3.35664
0
LINE
8
BLACK
6
CONTINUOUS
10
6.08607
20
-3.35664
11
6.08986
21
-3.36015
0
LINE
8
BLACK
6
CONTINUOUS
10
6.08986
20
-3.36015
11
6.09101
21
-3.36173
0
LINE
8
BLACK
6
CONTINUOUS
10
6.09101
20
-3.36173
11
6.09146
21
-3.36363
0
LINE
8
BLACK
6
CONTINUOUS
10
6.09146
20
-3.36363
11
6.09115
21
-3.36556
0
LINE
8
BLACK
6
CONTINUOUS
10
6.09115
20
-3.36556
11
6.09013
21
-3.36722
0
LINE
8
BLACK
6
CONTINUOUS
10
6.09013
20
-3.36722
11
6.08855
21
-3.36836
0
LINE
8
BLACK
6
CONTINUOUS
10
6.08855
20
-3.36836
11
6.08646
21
-3.36882
0
LINE
8
BLACK
6
CONTINUOUS
10
6.08646
20
-3.36882
11
6.0748
21
-3.36882
0
LINE
8
BLACK
6
CONTINUOUS
10
6.0748
20
-3.36882
11
6.07329
21
-3.36931
0
LINE
8
BLACK
6
CONTINUOUS
10
6.07329
20
-3.36931
11
6.07253
21
-3.36949
0
LINE
8
BLACK
6
CONTINUOUS
10
6.07253
20
-3.36949
11
6.07096
21
-3.36974
0
LINE
8
BLACK
6
CONTINUOUS
10
6.07096
20
-3.36974
11
6.06954
21
-3.37046
0
LINE
8
BLACK
6
CONTINUOUS
10
6.06954
20
-3.37046
11
6.06881
21
-3.37076
0
LINE
8
BLACK
6
CONTINUOUS
10
6.06881
20
-3.37076
11
6.0673
21
-3.37125
0
LINE
8
BLACK
6
CONTINUOUS
10
6.0673
20
-3.37125
11
6.06602
21
-3.37219
0
LINE
8
BLACK
6
CONTINUOUS
10
6.06602
20
-3.37219
11
6.06535
21
-3.3726
0
LINE
8
BLACK
6
CONTINUOUS
10
6.06535
20
-3.3726
11
6.06393
21
-3.37332
0
LINE
8
BLACK
6
CONTINUOUS
10
6.06393
20
-3.37332
11
6.02096
21
-3.41629
0
LINE
8
BLACK
6
CONTINUOUS
10
6.02096
20
-3.41629
11
6.02024
21
-3.41771
0
LINE
8
BLACK
6
CONTINUOUS
10
6.02024
20
-3.41771
11
6.01983
21
-3.41838
0
LINE
8
BLACK
6
CONTINUOUS
10
6.01983
20
-3.41838
11
6.01889
21
-3.41967
0
LINE
8
BLACK
6
CONTINUOUS
10
6.01889
20
-3.41967
11
6.0184
21
-3.42118
0
LINE
8
BLACK
6
CONTINUOUS
10
6.0184
20
-3.42118
11
6.0181
21
-3.4219
0
LINE
8
BLACK
6
CONTINUOUS
10
6.0181
20
-3.4219
11
6.01719
21
-3.42369
0
LINE
8
BLACK
6
CONTINUOUS
10
6.01719
20
-3.42369
11
6.01674
21
-3.4249
0
LINE
8
BLACK
6
CONTINUOUS
10
6.01674
20
-3.4249
11
6.01542
21
-3.42633
0
LINE
8
BLACK
6
CONTINUOUS
10
6.01542
20
-3.42633
11
6.01365
21
-3.42715
0
LINE
8
BLACK
6
CONTINUOUS
10
6.01365
20
-3.42715
11
6.01248
21
-3.42729
0
LINE
8
BLACK
6
CONTINUOUS
10
6.01248
20
-3.42729
11
6.01134
21
-3.42729
0
LINE
8
BLACK
6
CONTINUOUS
10
6.01134
20
-3.42729
11
6.0012
21
-3.43001
0
LINE
8
BLACK
6
CONTINUOUS
10
6.0012
20
-3.43001
11
5.99581
21
-3.43453
0
LINE
8
BLACK
6
CONTINUOUS
10
5.99581
20
-3.43453
11
5.99541
21
-3.43522
0
LINE
8
BLACK
6
CONTINUOUS
10
5.99541
20
-3.43522
11
5.99412
21
-3.43669
0
LINE
8
BLACK
6
CONTINUOUS
10
5.99412
20
-3.43669
11
5.99238
21
-3.43755
0
LINE
8
BLACK
6
CONTINUOUS
10
5.99238
20
-3.43755
11
5.99043
21
-3.43768
0
LINE
8
BLACK
6
CONTINUOUS
10
5.99043
20
-3.43768
11
5.98858
21
-3.43705
0
LINE
8
BLACK
6
CONTINUOUS
10
5.98858
20
-3.43705
11
5.98725
21
-3.43594
0
LINE
8
BLACK
6
CONTINUOUS
10
5.98725
20
-3.43594
11
5.98397
21
-3.43203
0
LINE
8
BLACK
6
CONTINUOUS
10
5.98397
20
-3.43203
11
5.97788
21
-3.42851
0
LINE
8
BLACK
6
CONTINUOUS
10
5.97788
20
-3.42851
11
5.97094
21
-3.42729
0
LINE
8
BLACK
6
CONTINUOUS
10
5.97094
20
-3.42729
11
5.91095
21
-3.42729
0
LINE
8
BLACK
6
CONTINUOUS
10
5.91095
20
-3.42729
11
5.90081
21
-3.43001
0
LINE
8
BLACK
6
CONTINUOUS
10
5.90081
20
-3.43001
11
5.89542
21
-3.43453
0
LINE
8
BLACK
6
CONTINUOUS
10
5.89542
20
-3.43453
11
5.89502
21
-3.43522
0
LINE
8
BLACK
6
CONTINUOUS
10
5.89502
20
-3.43522
11
5.89373
21
-3.43669
0
LINE
8
BLACK
6
CONTINUOUS
10
5.89373
20
-3.43669
11
5.89198
21
-3.43755
0
LINE
8
BLACK
6
CONTINUOUS
10
5.89198
20
-3.43755
11
5.89003
21
-3.43768
0
LINE
8
BLACK
6
CONTINUOUS
10
5.89003
20
-3.43768
11
5.88819
21
-3.43705
0
LINE
8
BLACK
6
CONTINUOUS
10
5.88819
20
-3.43705
11
5.88686
21
-3.43594
0
LINE
8
BLACK
6
CONTINUOUS
10
5.88686
20
-3.43594
11
5.88358
21
-3.43203
0
LINE
8
BLACK
6
CONTINUOUS
10
5.88358
20
-3.43203
11
5.87748
21
-3.42851
0
LINE
8
BLACK
6
CONTINUOUS
10
5.87748
20
-3.42851
11
5.87055
21
-3.42729
0
LINE
8
BLACK
6
CONTINUOUS
10
5.87055
20
-3.42729
11
5.81056
21
-3.42729
0
LINE
8
BLACK
6
CONTINUOUS
10
5.81056
20
-3.42729
11
5.80042
21
-3.43001
0
LINE
8
BLACK
6
CONTINUOUS
10
5.80042
20
-3.43001
11
5.79502
21
-3.43453
0
LINE
8
BLACK
6
CONTINUOUS
10
5.79502
20
-3.43453
11
5.79462
21
-3.43522
0
LINE
8
BLACK
6
CONTINUOUS
10
5.79462
20
-3.43522
11
5.79334
21
-3.43669
0
LINE
8
BLACK
6
CONTINUOUS
10
5.79334
20
-3.43669
11
5.79159
21
-3.43755
0
LINE
8
BLACK
6
CONTINUOUS
10
5.79159
20
-3.43755
11
5.78964
21
-3.43768
0
LINE
8
BLACK
6
CONTINUOUS
10
5.78964
20
-3.43768
11
5.78779
21
-3.43705
0
LINE
8
BLACK
6
CONTINUOUS
10
5.78779
20
-3.43705
11
5.78646
21
-3.43594
0
LINE
8
BLACK
6
CONTINUOUS
10
5.78646
20
-3.43594
11
5.78319
21
-3.43203
0
LINE
8
BLACK
6
CONTINUOUS
10
5.78319
20
-3.43203
11
5.77709
21
-3.42851
0
LINE
8
BLACK
6
CONTINUOUS
10
5.77709
20
-3.42851
11
5.77015
21
-3.42729
0
LINE
8
BLACK
6
CONTINUOUS
10
5.77015
20
-3.42729
11
5.71016
21
-3.42729
0
LINE
8
BLACK
6
CONTINUOUS
10
5.71016
20
-3.42729
11
5.70002
21
-3.43001
0
LINE
8
BLACK
6
CONTINUOUS
10
5.70002
20
-3.43001
11
5.69463
21
-3.43453
0
LINE
8
BLACK
6
CONTINUOUS
10
5.69463
20
-3.43453
11
5.69111
21
-3.44063
0
LINE
8
BLACK
6
CONTINUOUS
10
5.69111
20
-3.44063
11
5.68989
21
-3.44756
0
LINE
8
BLACK
6
CONTINUOUS
10
5.68989
20
-3.44756
11
5.68989
21
-3.50755
0
LINE
8
BLACK
6
CONTINUOUS
10
5.68989
20
-3.50755
11
5.69261
21
-3.51769
0
LINE
8
BLACK
6
CONTINUOUS
10
5.69261
20
-3.51769
11
5.69713
21
-3.52309
0
LINE
8
BLACK
6
CONTINUOUS
10
5.69713
20
-3.52309
11
5.69755
21
-3.52333
0
LINE
8
BLACK
6
CONTINUOUS
10
5.69755
20
-3.52333
11
5.69901
21
-3.52461
0
LINE
8
BLACK
6
CONTINUOUS
10
5.69901
20
-3.52461
11
5.69987
21
-3.52636
0
LINE
8
BLACK
6
CONTINUOUS
10
5.69987
20
-3.52636
11
5.7
21
-3.52831
0
LINE
8
BLACK
6
CONTINUOUS
10
5.7
20
-3.52831
11
5.69938
21
-3.53016
0
LINE
8
BLACK
6
CONTINUOUS
10
5.69938
20
-3.53016
11
5.69826
21
-3.53149
0
LINE
8
BLACK
6
CONTINUOUS
10
5.69826
20
-3.53149
11
5.69463
21
-3.53453
0
LINE
8
BLACK
6
CONTINUOUS
10
5.69463
20
-3.53453
11
5.69111
21
-3.54063
0
LINE
8
BLACK
6
CONTINUOUS
10
5.69111
20
-3.54063
11
5.68989
21
-3.54756
0
LINE
8
BLACK
6
CONTINUOUS
10
5.68989
20
-3.54756
11
5.68989
21
-3.60755
0
LINE
8
BLACK
6
CONTINUOUS
10
5.68989
20
-3.60755
11
5.69261
21
-3.61769
0
LINE
8
BLACK
6
CONTINUOUS
10
5.69261
20
-3.61769
11
5.69713
21
-3.62309
0
LINE
8
BLACK
6
CONTINUOUS
10
7.38173
20
-3.5499
11
7.3772
21
-3.54451
0
LINE
8
BLACK
6
CONTINUOUS
10
7.3772
20
-3.54451
11
7.37111
21
-3.54099
0
LINE
8
BLACK
6
CONTINUOUS
10
7.37111
20
-3.54099
11
7.36417
21
-3.53977
0
LINE
8
BLACK
6
CONTINUOUS
10
7.36417
20
-3.53977
11
7.35354
21
-3.53977
0
LINE
8
BLACK
6
CONTINUOUS
10
7.35354
20
-3.53977
11
7.35354
21
-3.56004
0
LINE
8
BLACK
6
CONTINUOUS
10
7.35354
20
-3.56004
11
7.36417
21
-3.56004
0
LINE
8
BLACK
6
CONTINUOUS
10
7.36417
20
-3.56004
11
7.36417
21
-3.59331
0
LINE
8
BLACK
6
CONTINUOUS
10
7.36417
20
-3.59331
11
7.38444
21
-3.59331
0
LINE
8
BLACK
6
CONTINUOUS
10
7.38444
20
-3.59331
11
7.38444
21
-3.56004
0
LINE
8
BLACK
6
CONTINUOUS
10
7.38444
20
-3.56004
11
7.38173
21
-3.5499
0
LINE
8
BLACK
6
CONTINUOUS
10
6.00703
20
-3.24977
11
6.01351
21
-3.25539
0
LINE
8
BLACK
6
CONTINUOUS
10
6.01351
20
-3.25539
11
6.0213
21
-3.25895
0
LINE
8
BLACK
6
CONTINUOUS
10
6.0213
20
-3.25895
11
6.02949
21
-3.26012
0
LINE
8
BLACK
6
CONTINUOUS
10
6.02949
20
-3.26012
11
6.02949
21
-3.23996
0
LINE
8
BLACK
6
CONTINUOUS
10
6.02949
20
-3.23996
11
6.02592
21
-3.23925
0
LINE
8
BLACK
6
CONTINUOUS
10
6.02592
20
-3.23925
11
6.02273
21
-3.23712
0
LINE
8
BLACK
6
CONTINUOUS
10
6.02273
20
-3.23712
11
6.02059
21
-3.23392
0
LINE
8
BLACK
6
CONTINUOUS
10
6.02059
20
-3.23392
11
6.01984
21
-3.23016
0
LINE
8
BLACK
6
CONTINUOUS
10
6.01984
20
-3.23016
11
6.01984
21
-3.19689
0
LINE
8
BLACK
6
CONTINUOUS
10
6.01984
20
-3.19689
11
5.99968
21
-3.19689
0
LINE
8
BLACK
6
CONTINUOUS
10
5.99968
20
-3.19689
11
5.99968
21
-3.23005
0
LINE
8
BLACK
6
CONTINUOUS
10
5.99968
20
-3.23005
11
6.0024
21
-3.24257
0
LINE
8
BLACK
6
CONTINUOUS
10
6.0024
20
-3.24257
11
6.00703
21
-3.24977
0
LINE
8
BLACK
6
CONTINUOUS
10
6.44798
20
-3.24977
11
6.45445
21
-3.25539
0
LINE
8
BLACK
6
CONTINUOUS
10
6.45445
20
-3.25539
11
6.46225
21
-3.25895
0
LINE
8
BLACK
6
CONTINUOUS
10
6.46225
20
-3.25895
11
6.47043
21
-3.26012
0
LINE
8
BLACK
6
CONTINUOUS
10
6.47043
20
-3.26012
11
6.47043
21
-3.23996
0
LINE
8
BLACK
6
CONTINUOUS
10
6.47043
20
-3.23996
11
6.46686
21
-3.23925
0
LINE
8
BLACK
6
CONTINUOUS
10
6.46686
20
-3.23925
11
6.46367
21
-3.23712
0
LINE
8
BLACK
6
CONTINUOUS
10
6.46367
20
-3.23712
11
6.46154
21
-3.23392
0
LINE
8
BLACK
6
CONTINUOUS
10
6.46154
20
-3.23392
11
6.46079
21
-3.23016
0
LINE
8
BLACK
6
CONTINUOUS
10
6.46079
20
-3.23016
11
6.46079
21
-3.19689
0
LINE
8
BLACK
6
CONTINUOUS
10
6.46079
20
-3.19689
11
6.44062
21
-3.19689
0
LINE
8
BLACK
6
CONTINUOUS
10
6.44062
20
-3.19689
11
6.44062
21
-3.23005
0
LINE
8
BLACK
6
CONTINUOUS
10
6.44062
20
-3.23005
11
6.44334
21
-3.24257
0
LINE
8
BLACK
6
CONTINUOUS
10
6.44334
20
-3.24257
11
6.44798
21
-3.24977
0
LINE
8
BLACK
6
CONTINUOUS
10
5.91929
20
-4.13938
11
5.92243
21
-4.14201
0
LINE
8
BLACK
6
CONTINUOUS
10
5.92243
20
-4.14201
11
5.92448
21
-4.14557
0
LINE
8
BLACK
6
CONTINUOUS
10
5.92448
20
-4.14557
11
5.9252
21
-4.14961
0
LINE
8
BLACK
6
CONTINUOUS
10
5.9252
20
-4.14961
11
5.92448
21
-4.15365
0
LINE
8
BLACK
6
CONTINUOUS
10
5.92448
20
-4.15365
11
5.92243
21
-4.1572
0
LINE
8
BLACK
6
CONTINUOUS
10
5.92243
20
-4.1572
11
5.91929
21
-4.15983
0
LINE
8
BLACK
6
CONTINUOUS
10
5.91929
20
-4.15983
11
5.91831
21
-4.16019
0
LINE
8
BLACK
6
CONTINUOUS
10
5.91831
20
-4.16019
11
5.91831
21
-4.16332
0
LINE
8
BLACK
6
CONTINUOUS
10
5.91831
20
-4.16332
11
5.9523
21
-4.19731
0
LINE
8
BLACK
6
CONTINUOUS
10
5.9523
20
-4.19731
11
5.95282
21
-4.19801
0
LINE
8
BLACK
6
CONTINUOUS
10
5.95282
20
-4.19801
11
5.95296
21
-4.19813
0
LINE
8
BLACK
6
CONTINUOUS
10
5.95296
20
-4.19813
11
5.95299
21
-4.19824
0
LINE
8
BLACK
6
CONTINUOUS
10
5.95299
20
-4.19824
11
5.95314
21
-4.19844
0
LINE
8
BLACK
6
CONTINUOUS
10
5.95314
20
-4.19844
11
5.9534
21
-4.19962
0
LINE
8
BLACK
6
CONTINUOUS
10
5.9534
20
-4.19962
11
5.95374
21
-4.20079
0
LINE
8
BLACK
6
CONTINUOUS
10
5.95374
20
-4.20079
11
5.95374
21
-4.24599
0
LINE
8
BLACK
6
CONTINUOUS
10
5.95374
20
-4.24599
11
5.96661
21
-4.25886
0
LINE
8
BLACK
6
CONTINUOUS
10
5.96661
20
-4.25886
11
6.06693
21
-4.25886
0
LINE
8
BLACK
6
CONTINUOUS
10
6.06693
20
-4.25886
11
6.0678
21
-4.25898
0
LINE
8
BLACK
6
CONTINUOUS
10
6.0678
20
-4.25898
11
6.06798
21
-4.25897
0
LINE
8
BLACK
6
CONTINUOUS
10
6.06798
20
-4.25897
11
6.06807
21
-4.25902
0
LINE
8
BLACK
6
CONTINUOUS
10
6.06807
20
-4.25902
11
6.06833
21
-4.25906
0
LINE
8
BLACK
6
CONTINUOUS
10
6.06833
20
-4.25906
11
6.06935
21
-4.25972
0
LINE
8
BLACK
6
CONTINUOUS
10
6.06935
20
-4.25972
11
6.07041
21
-4.2603
0
LINE
8
BLACK
6
CONTINUOUS
10
6.07041
20
-4.2603
11
6.10191
21
-4.2918
0
LINE
8
BLACK
6
CONTINUOUS
10
6.10191
20
-4.2918
11
6.10191
21
-4.2918
0
LINE
8
BLACK
6
CONTINUOUS
10
6.10191
20
-4.2918
11
6.10626
21
-4.29615
0
LINE
8
BLACK
6
CONTINUOUS
10
6.10626
20
-4.29615
11
6.10819
21
-4.29546
0
LINE
8
BLACK
6
CONTINUOUS
10
6.10819
20
-4.29546
11
6.11229
21
-4.29546
0
LINE
8
BLACK
6
CONTINUOUS
10
6.11229
20
-4.29546
11
6.11614
21
-4.29686
0
LINE
8
BLACK
6
CONTINUOUS
10
6.11614
20
-4.29686
11
6.11928
21
-4.29949
0
LINE
8
BLACK
6
CONTINUOUS
10
6.11928
20
-4.29949
11
6.12133
21
-4.30305
0
LINE
8
BLACK
6
CONTINUOUS
10
6.12133
20
-4.30305
11
6.12205
21
-4.30709
0
LINE
8
BLACK
6
CONTINUOUS
10
6.12205
20
-4.30709
11
6.12133
21
-4.31113
0
LINE
8
BLACK
6
CONTINUOUS
10
6.12133
20
-4.31113
11
6.11928
21
-4.31468
0
LINE
8
BLACK
6
CONTINUOUS
10
6.11928
20
-4.31468
11
6.11614
21
-4.31732
0
LINE
8
BLACK
6
CONTINUOUS
10
6.11614
20
-4.31732
11
6.11229
21
-4.31872
0
LINE
8
BLACK
6
CONTINUOUS
10
6.11229
20
-4.31872
11
6.10819
21
-4.31872
0
LINE
8
BLACK
6
CONTINUOUS
10
6.10819
20
-4.31872
11
6.10433
21
-4.31732
0
LINE
8
BLACK
6
CONTINUOUS
10
6.10433
20
-4.31732
11
6.10119
21
-4.31468
0
LINE
8
BLACK
6
CONTINUOUS
10
6.10119
20
-4.31468
11
6.09914
21
-4.31113
0
LINE
8
BLACK
6
CONTINUOUS
10
6.09914
20
-4.31113
11
6.09843
21
-4.30709
0
LINE
8
BLACK
6
CONTINUOUS
10
6.09843
20
-4.30709
11
6.09914
21
-4.30305
0
LINE
8
BLACK
6
CONTINUOUS
10
6.09914
20
-4.30305
11
6.09917
21
-4.30298
0
LINE
8
BLACK
6
CONTINUOUS
10
6.09917
20
-4.30298
11
6.09495
21
-4.29876
0
LINE
8
BLACK
6
CONTINUOUS
10
6.09495
20
-4.29876
11
6.09495
21
-4.29876
0
LINE
8
BLACK
6
CONTINUOUS
10
6.09495
20
-4.29876
11
6.06489
21
-4.2687
0
LINE
8
BLACK
6
CONTINUOUS
10
6.06489
20
-4.2687
11
5.96457
21
-4.2687
0
LINE
8
BLACK
6
CONTINUOUS
10
5.96457
20
-4.2687
11
5.9637
21
-4.26858
0
LINE
8
BLACK
6
CONTINUOUS
10
5.9637
20
-4.26858
11
5.96352
21
-4.26859
0
LINE
8
BLACK
6
CONTINUOUS
10
5.96352
20
-4.26859
11
5.96342
21
-4.26853
0
LINE
8
BLACK
6
CONTINUOUS
10
5.96342
20
-4.26853
11
5.96317
21
-4.2685
0
LINE
8
BLACK
6
CONTINUOUS
10
5.96317
20
-4.2685
11
5.96215
21
-4.26784
0
LINE
8
BLACK
6
CONTINUOUS
10
5.96215
20
-4.26784
11
5.96109
21
-4.26726
0
LINE
8
BLACK
6
CONTINUOUS
10
5.96109
20
-4.26726
11
5.94534
21
-4.25151
0
LINE
8
BLACK
6
CONTINUOUS
10
5.94534
20
-4.25151
11
5.94481
21
-4.25081
0
LINE
8
BLACK
6
CONTINUOUS
10
5.94481
20
-4.25081
11
5.94468
21
-4.25069
0
LINE
8
BLACK
6
CONTINUOUS
10
5.94468
20
-4.25069
11
5.94465
21
-4.25058
0
LINE
8
BLACK
6
CONTINUOUS
10
5.94465
20
-4.25058
11
5.94449
21
-4.25038
0
LINE
8
BLACK
6
CONTINUOUS
10
5.94449
20
-4.25038
11
5.94424
21
-4.24919
0
LINE
8
BLACK
6
CONTINUOUS
10
5.94424
20
-4.24919
11
5.9439
21
-4.24803
0
LINE
8
BLACK
6
CONTINUOUS
10
5.9439
20
-4.24803
11
5.9439
21
-4.20283
0
LINE
8
BLACK
6
CONTINUOUS
10
5.9439
20
-4.20283
11
5.90991
21
-4.16883
0
LINE
8
BLACK
6
CONTINUOUS
10
5.90991
20
-4.16883
11
5.90938
21
-4.16813
0
LINE
8
BLACK
6
CONTINUOUS
10
5.90938
20
-4.16813
11
5.90924
21
-4.16801
0
LINE
8
BLACK
6
CONTINUOUS
10
5.90924
20
-4.16801
11
5.90921
21
-4.16791
0
LINE
8
BLACK
6
CONTINUOUS
10
5.90921
20
-4.16791
11
5.90906
21
-4.1677
0
LINE
8
BLACK
6
CONTINUOUS
10
5.90906
20
-4.1677
11
5.90881
21
-4.16652
0
LINE
8
BLACK
6
CONTINUOUS
10
5.90881
20
-4.16652
11
5.90846
21
-4.16535
0
LINE
8
BLACK
6
CONTINUOUS
10
5.90846
20
-4.16535
11
5.90846
21
-4.16019
0
LINE
8
BLACK
6
CONTINUOUS
10
5.90846
20
-4.16019
11
5.90748
21
-4.15983
0
LINE
8
BLACK
6
CONTINUOUS
10
5.90748
20
-4.15983
11
5.90434
21
-4.1572
0
LINE
8
BLACK
6
CONTINUOUS
10
5.90434
20
-4.1572
11
5.90229
21
-4.15365
0
LINE
8
BLACK
6
CONTINUOUS
10
5.90229
20
-4.15365
11
5.90157
21
-4.14961
0
LINE
8
BLACK
6
CONTINUOUS
10
5.90157
20
-4.14961
11
5.90229
21
-4.14557
0
LINE
8
BLACK
6
CONTINUOUS
10
5.90229
20
-4.14557
11
5.90434
21
-4.14201
0
LINE
8
BLACK
6
CONTINUOUS
10
5.90434
20
-4.14201
11
5.90748
21
-4.13938
0
LINE
8
BLACK
6
CONTINUOUS
10
5.90748
20
-4.13938
11
5.91133
21
-4.13797
0
LINE
8
BLACK
6
CONTINUOUS
10
5.91133
20
-4.13797
11
5.91544
21
-4.13797
0
LINE
8
BLACK
6
CONTINUOUS
10
5.91544
20
-4.13797
11
5.91929
21
-4.13938
0
LINE
8
BLACK
6
CONTINUOUS
10
5.92474
20
-4.20912
11
5.92526
21
-4.20982
0
LINE
8
BLACK
6
CONTINUOUS
10
5.92526
20
-4.20982
11
5.9254
21
-4.20994
0
LINE
8
BLACK
6
CONTINUOUS
10
5.9254
20
-4.20994
11
5.92543
21
-4.21005
0
LINE
8
BLACK
6
CONTINUOUS
10
5.92543
20
-4.21005
11
5.92558
21
-4.21025
0
LINE
8
BLACK
6
CONTINUOUS
10
5.92558
20
-4.21025
11
5.92584
21
-4.21144
0
LINE
8
BLACK
6
CONTINUOUS
10
5.92584
20
-4.21144
11
5.92618
21
-4.2126
0
LINE
8
BLACK
6
CONTINUOUS
10
5.92618
20
-4.2126
11
5.92618
21
-4.27184
0
LINE
8
BLACK
6
CONTINUOUS
10
5.92618
20
-4.27184
11
5.9505
21
-4.29615
0
LINE
8
BLACK
6
CONTINUOUS
10
5.9505
20
-4.29615
11
5.95242
21
-4.29546
0
LINE
8
BLACK
6
CONTINUOUS
10
5.95242
20
-4.29546
11
5.95652
21
-4.29546
0
LINE
8
BLACK
6
CONTINUOUS
10
5.95652
20
-4.29546
11
5.96037
21
-4.29686
0
LINE
8
BLACK
6
CONTINUOUS
10
5.96037
20
-4.29686
11
5.96352
21
-4.29949
0
LINE
8
BLACK
6
CONTINUOUS
10
5.96352
20
-4.29949
11
5.96557
21
-4.30305
0
LINE
8
BLACK
6
CONTINUOUS
10
5.96557
20
-4.30305
11
5.96628
21
-4.30709
0
LINE
8
BLACK
6
CONTINUOUS
10
5.96628
20
-4.30709
11
5.96557
21
-4.31113
0
LINE
8
BLACK
6
CONTINUOUS
10
5.96557
20
-4.31113
11
5.96352
21
-4.31468
0
LINE
8
BLACK
6
CONTINUOUS
10
5.96352
20
-4.31468
11
5.96037
21
-4.31732
0
LINE
8
BLACK
6
CONTINUOUS
10
5.96037
20
-4.31732
11
5.95652
21
-4.31872
0
LINE
8
BLACK
6
CONTINUOUS
10
5.95652
20
-4.31872
11
5.95242
21
-4.31872
0
LINE
8
BLACK
6
CONTINUOUS
10
5.95242
20
-4.31872
11
5.94856
21
-4.31732
0
LINE
8
BLACK
6
CONTINUOUS
10
5.94856
20
-4.31732
11
5.94542
21
-4.31468
0
LINE
8
BLACK
6
CONTINUOUS
10
5.94542
20
-4.31468
11
5.94337
21
-4.31113
0
LINE
8
BLACK
6
CONTINUOUS
10
5.94337
20
-4.31113
11
5.94266
21
-4.30709
0
LINE
8
BLACK
6
CONTINUOUS
10
5.94266
20
-4.30709
11
5.94337
21
-4.30305
0
LINE
8
BLACK
6
CONTINUOUS
10
5.94337
20
-4.30305
11
5.94341
21
-4.30298
0
LINE
8
BLACK
6
CONTINUOUS
10
5.94341
20
-4.30298
11
5.91778
21
-4.27736
0
LINE
8
BLACK
6
CONTINUOUS
10
5.91778
20
-4.27736
11
5.91726
21
-4.27665
0
LINE
8
BLACK
6
CONTINUOUS
10
5.91726
20
-4.27665
11
5.91712
21
-4.27654
0
LINE
8
BLACK
6
CONTINUOUS
10
5.91712
20
-4.27654
11
5.91709
21
-4.27643
0
LINE
8
BLACK
6
CONTINUOUS
10
5.91709
20
-4.27643
11
5.91693
21
-4.27623
0
LINE
8
BLACK
6
CONTINUOUS
10
5.91693
20
-4.27623
11
5.91668
21
-4.27504
0
LINE
8
BLACK
6
CONTINUOUS
10
5.91668
20
-4.27504
11
5.91634
21
-4.27388
0
LINE
8
BLACK
6
CONTINUOUS
10
5.91634
20
-4.27388
11
5.91634
21
-4.21464
0
LINE
8
BLACK
6
CONTINUOUS
10
5.91634
20
-4.21464
11
5.87841
21
-4.17671
0
LINE
8
BLACK
6
CONTINUOUS
10
5.87841
20
-4.17671
11
5.87789
21
-4.17601
0
LINE
8
BLACK
6
CONTINUOUS
10
5.87789
20
-4.17601
11
5.87775
21
-4.17589
0
LINE
8
BLACK
6
CONTINUOUS
10
5.87775
20
-4.17589
11
5.87772
21
-4.17578
0
LINE
8
BLACK
6
CONTINUOUS
10
5.87772
20
-4.17578
11
5.87756
21
-4.17558
0
LINE
8
BLACK
6
CONTINUOUS
10
5.87756
20
-4.17558
11
5.87731
21
-4.17439
0
LINE
8
BLACK
6
CONTINUOUS
10
5.87731
20
-4.17439
11
5.87697
21
-4.17323
0
LINE
8
BLACK
6
CONTINUOUS
10
5.87697
20
-4.17323
11
5.87697
21
-4.02634
0
LINE
8
BLACK
6
CONTINUOUS
10
5.87697
20
-4.02634
11
5.87598
21
-4.02598
0
LINE
8
BLACK
6
CONTINUOUS
10
5.87598
20
-4.02598
11
5.87284
21
-4.02334
0
LINE
8
BLACK
6
CONTINUOUS
10
5.87284
20
-4.02334
11
5.87079
21
-4.01979
0
LINE
8
BLACK
6
CONTINUOUS
10
5.87079
20
-4.01979
11
5.87008
21
-4.01575
0
LINE
8
BLACK
6
CONTINUOUS
10
5.87008
20
-4.01575
11
5.87079
21
-4.01171
0
LINE
8
BLACK
6
CONTINUOUS
10
5.87079
20
-4.01171
11
5.87284
21
-4.00816
0
LINE
8
BLACK
6
CONTINUOUS
10
5.87284
20
-4.00816
11
5.87598
21
-4.00552
0
LINE
8
BLACK
6
CONTINUOUS
10
5.87598
20
-4.00552
11
5.87984
21
-4.00412
0
LINE
8
BLACK
6
CONTINUOUS
10
5.87984
20
-4.00412
11
5.88394
21
-4.00412
0
LINE
8
BLACK
6
CONTINUOUS
10
5.88394
20
-4.00412
11
5.8878
21
-4.00552
0
LINE
8
BLACK
6
CONTINUOUS
10
5.8878
20
-4.00552
11
5.89094
21
-4.00816
0
LINE
8
BLACK
6
CONTINUOUS
10
5.89094
20
-4.00816
11
5.89299
21
-4.01171
0
LINE
8
BLACK
6
CONTINUOUS
10
5.89299
20
-4.01171
11
5.8937
21
-4.01575
0
LINE
8
BLACK
6
CONTINUOUS
10
5.8937
20
-4.01575
11
5.89299
21
-4.01979
0
LINE
8
BLACK
6
CONTINUOUS
10
5.89299
20
-4.01979
11
5.89094
21
-4.02334
0
LINE
8
BLACK
6
CONTINUOUS
10
5.89094
20
-4.02334
11
5.8878
21
-4.02598
0
LINE
8
BLACK
6
CONTINUOUS
10
5.8878
20
-4.02598
11
5.88681
21
-4.02634
0
LINE
8
BLACK
6
CONTINUOUS
10
5.88681
20
-4.02634
11
5.88681
21
-4.17119
0
LINE
8
BLACK
6
CONTINUOUS
10
5.88681
20
-4.17119
11
5.92474
21
-4.20912
0
LINE
8
BLACK
6
CONTINUOUS
10
6.42961
20
-3.60756
11
6.36961
21
-3.60756
0
LINE
8
BLACK
6
CONTINUOUS
10
6.36961
20
-3.60756
11
6.36961
21
-3.54756
0
LINE
8
BLACK
6
CONTINUOUS
10
6.36961
20
-3.54756
11
6.42961
21
-3.54756
0
LINE
8
BLACK
6
CONTINUOUS
10
6.42961
20
-3.54756
11
6.42961
21
-3.60756
0
LINE
8
BLACK
6
CONTINUOUS
10
6.32921
20
-3.60756
11
6.26921
21
-3.60756
0
LINE
8
BLACK
6
CONTINUOUS
10
6.26921
20
-3.60756
11
6.26921
21
-3.54756
0
LINE
8
BLACK
6
CONTINUOUS
10
6.26921
20
-3.54756
11
6.32921
21
-3.54756
0
LINE
8
BLACK
6
CONTINUOUS
10
6.32921
20
-3.54756
11
6.32921
21
-3.60756
0
LINE
8
BLACK
6
CONTINUOUS
10
6.53
20
-3.60756
11
6.47
21
-3.60756
0
LINE
8
BLACK
6
CONTINUOUS
10
6.47
20
-3.60756
11
6.47
21
-3.54756
0
LINE
8
BLACK
6
CONTINUOUS
10
6.47
20
-3.54756
11
6.53
21
-3.54756
0
LINE
8
BLACK
6
CONTINUOUS
10
6.53
20
-3.54756
11
6.53
21
-3.60756
0
LINE
8
BLACK
6
CONTINUOUS
10
6.17173
20
-3.60756
11
6.11173
21
-3.60756
0
LINE
8
BLACK
6
CONTINUOUS
10
6.11173
20
-3.60756
11
6.11173
21
-3.54756
0
LINE
8
BLACK
6
CONTINUOUS
10
6.11173
20
-3.54756
11
6.17173
21
-3.54756
0
LINE
8
BLACK
6
CONTINUOUS
10
6.17173
20
-3.54756
11
6.17173
21
-3.60756
0
LINE
8
BLACK
6
CONTINUOUS
10
5.77016
20
-3.60756
11
5.71016
21
-3.60756
0
LINE
8
BLACK
6
CONTINUOUS
10
5.71016
20
-3.60756
11
5.71016
21
-3.54756
0
LINE
8
BLACK
6
CONTINUOUS
10
5.71016
20
-3.54756
11
5.77016
21
-3.54756
0
LINE
8
BLACK
6
CONTINUOUS
10
5.77016
20
-3.54756
11
5.77016
21
-3.60756
0
LINE
8
BLACK
6
CONTINUOUS
10
6.63039
20
-3.60756
11
6.57039
21
-3.60756
0
LINE
8
BLACK
6
CONTINUOUS
10
6.57039
20
-3.60756
11
6.57039
21
-3.54756
0
LINE
8
BLACK
6
CONTINUOUS
10
6.57039
20
-3.54756
11
6.63039
21
-3.54756
0
LINE
8
BLACK
6
CONTINUOUS
10
6.63039
20
-3.54756
11
6.63039
21
-3.60756
0
LINE
8
BLACK
6
CONTINUOUS
10
6.07134
20
-3.60756
11
6.01134
21
-3.60756
0
LINE
8
BLACK
6
CONTINUOUS
10
6.01134
20
-3.60756
11
6.01134
21
-3.54756
0
LINE
8
BLACK
6
CONTINUOUS
10
6.01134
20
-3.54756
11
6.07134
21
-3.54756
0
LINE
8
BLACK
6
CONTINUOUS
10
6.07134
20
-3.54756
11
6.07134
21
-3.60756
0
LINE
8
BLACK
6
CONTINUOUS
10
5.87055
20
-3.60756
11
5.81055
21
-3.60756
0
LINE
8
BLACK
6
CONTINUOUS
10
5.81055
20
-3.60756
11
5.81055
21
-3.54756
0
LINE
8
BLACK
6
CONTINUOUS
10
5.81055
20
-3.54756
11
5.87055
21
-3.54756
0
LINE
8
BLACK
6
CONTINUOUS
10
5.87055
20
-3.54756
11
5.87055
21
-3.60756
0
LINE
8
BLACK
6
CONTINUOUS
10
5.97094
20
-3.60756
11
5.91094
21
-3.60756
0
LINE
8
BLACK
6
CONTINUOUS
10
5.91094
20
-3.60756
11
5.91094
21
-3.54756
0
LINE
8
BLACK
6
CONTINUOUS
10
5.91094
20
-3.54756
11
5.97094
21
-3.54756
0
LINE
8
BLACK
6
CONTINUOUS
10
5.97094
20
-3.54756
11
5.97094
21
-3.60756
0
LINE
8
BLACK
6
CONTINUOUS
10
6.31738
20
-3.27982
11
6.31929
21
-3.2811
0
LINE
8
BLACK
6
CONTINUOUS
10
6.31929
20
-3.2811
11
6.32057
21
-3.28302
0
LINE
8
BLACK
6
CONTINUOUS
10
6.32057
20
-3.28302
11
6.32102
21
-3.28528
0
LINE
8
BLACK
6
CONTINUOUS
10
6.32102
20
-3.28528
11
6.32102
21
-3.34039
0
LINE
8
BLACK
6
CONTINUOUS
10
6.32102
20
-3.34039
11
6.32057
21
-3.34265
0
LINE
8
BLACK
6
CONTINUOUS
10
6.32057
20
-3.34265
11
6.31929
21
-3.34457
0
LINE
8
BLACK
6
CONTINUOUS
10
6.31929
20
-3.34457
11
6.31738
21
-3.34585
0
LINE
8
BLACK
6
CONTINUOUS
10
6.31738
20
-3.34585
11
6.31512
21
-3.3463
0
LINE
8
BLACK
6
CONTINUOUS
10
6.31512
20
-3.3463
11
6.31413
21
-3.3463
0
LINE
8
BLACK
6
CONTINUOUS
10
6.31413
20
-3.3463
11
6.31413
21
-3.44756
0
LINE
8
BLACK
6
CONTINUOUS
10
6.31413
20
-3.44756
11
6.32921
21
-3.44756
0
LINE
8
BLACK
6
CONTINUOUS
10
6.32921
20
-3.44756
11
6.32921
21
-3.50756
0
LINE
8
BLACK
6
CONTINUOUS
10
6.32921
20
-3.50756
11
6.26921
21
-3.50756
0
LINE
8
BLACK
6
CONTINUOUS
10
6.26921
20
-3.50756
11
6.26921
21
-3.44756
0
LINE
8
BLACK
6
CONTINUOUS
10
6.26921
20
-3.44756
11
6.30429
21
-3.44756
0
LINE
8
BLACK
6
CONTINUOUS
10
6.30429
20
-3.44756
11
6.30429
21
-3.3463
0
LINE
8
BLACK
6
CONTINUOUS
10
6.30429
20
-3.3463
11
6.30331
21
-3.3463
0
LINE
8
BLACK
6
CONTINUOUS
10
6.30331
20
-3.3463
11
6.30105
21
-3.34585
0
LINE
8
BLACK
6
CONTINUOUS
10
6.30105
20
-3.34585
11
6.29913
21
-3.34457
0
LINE
8
BLACK
6
CONTINUOUS
10
6.29913
20
-3.34457
11
6.29785
21
-3.34265
0
LINE
8
BLACK
6
CONTINUOUS
10
6.29785
20
-3.34265
11
6.2974
21
-3.34039
0
LINE
8
BLACK
6
CONTINUOUS
10
6.2974
20
-3.34039
11
6.2974
21
-3.28528
0
LINE
8
BLACK
6
CONTINUOUS
10
6.2974
20
-3.28528
11
6.29785
21
-3.28302
0
LINE
8
BLACK
6
CONTINUOUS
10
6.29785
20
-3.28302
11
6.29913
21
-3.2811
0
LINE
8
BLACK
6
CONTINUOUS
10
6.29913
20
-3.2811
11
6.30105
21
-3.27982
0
LINE
8
BLACK
6
CONTINUOUS
10
6.30105
20
-3.27982
11
6.30331
21
-3.27937
0
LINE
8
BLACK
6
CONTINUOUS
10
6.30331
20
-3.27937
11
6.31512
21
-3.27937
0
LINE
8
BLACK
6
CONTINUOUS
10
6.31512
20
-3.27937
11
6.31738
21
-3.27982
0
LINE
8
BLACK
6
CONTINUOUS
10
6.42961
20
-3.50756
11
6.36961
21
-3.50756
0
LINE
8
BLACK
6
CONTINUOUS
10
6.36961
20
-3.50756
11
6.36961
21
-3.44756
0
LINE
8
BLACK
6
CONTINUOUS
10
6.36961
20
-3.44756
11
6.42961
21
-3.44756
0
LINE
8
BLACK
6
CONTINUOUS
10
6.42961
20
-3.44756
11
6.42961
21
-3.50756
0
LINE
8
BLACK
6
CONTINUOUS
10
6.36659
20
-3.27982
11
6.36851
21
-3.2811
0
LINE
8
BLACK
6
CONTINUOUS
10
6.36851
20
-3.2811
11
6.36979
21
-3.28302
0
LINE
8
BLACK
6
CONTINUOUS
10
6.36979
20
-3.28302
11
6.37024
21
-3.28528
0
LINE
8
BLACK
6
CONTINUOUS
10
6.37024
20
-3.28528
11
6.37024
21
-3.34039
0
LINE
8
BLACK
6
CONTINUOUS
10
6.37024
20
-3.34039
11
6.36979
21
-3.34265
0
LINE
8
BLACK
6
CONTINUOUS
10
6.36979
20
-3.34265
11
6.36851
21
-3.34457
0
LINE
8
BLACK
6
CONTINUOUS
10
6.36851
20
-3.34457
11
6.36659
21
-3.34585
0
LINE
8
BLACK
6
CONTINUOUS
10
6.36659
20
-3.34585
11
6.36433
21
-3.3463
0
LINE
8
BLACK
6
CONTINUOUS
10
6.36433
20
-3.3463
11
6.36335
21
-3.3463
0
LINE
8
BLACK
6
CONTINUOUS
10
6.36335
20
-3.3463
11
6.36335
21
-3.36032
0
LINE
8
BLACK
6
CONTINUOUS
10
6.36335
20
-3.36032
11
6.4133
21
-3.41028
0
LINE
8
BLACK
6
CONTINUOUS
10
6.4133
20
-3.41028
11
6.44276
21
-3.41028
0
LINE
8
BLACK
6
CONTINUOUS
10
6.44276
20
-3.41028
11
6.44362
21
-3.4104
0
LINE
8
BLACK
6
CONTINUOUS
10
6.44362
20
-3.4104
11
6.4438
21
-3.41039
0
LINE
8
BLACK
6
CONTINUOUS
10
6.4438
20
-3.41039
11
6.4439
21
-3.41044
0
LINE
8
BLACK
6
CONTINUOUS
10
6.4439
20
-3.41044
11
6.44415
21
-3.41048
0
LINE
8
BLACK
6
CONTINUOUS
10
6.44415
20
-3.41048
11
6.44517
21
-3.41114
0
LINE
8
BLACK
6
CONTINUOUS
10
6.44517
20
-3.41114
11
6.44624
21
-3.41172
0
LINE
8
BLACK
6
CONTINUOUS
10
6.44624
20
-3.41172
11
6.48208
21
-3.44756
0
LINE
8
BLACK
6
CONTINUOUS
10
6.48208
20
-3.44756
11
6.53
21
-3.44756
0
LINE
8
BLACK
6
CONTINUOUS
10
6.53
20
-3.44756
11
6.53
21
-3.50756
0
LINE
8
BLACK
6
CONTINUOUS
10
6.53
20
-3.50756
11
6.47
21
-3.50756
0
LINE
8
BLACK
6
CONTINUOUS
10
6.47
20
-3.50756
11
6.47
21
-3.4494
0
LINE
8
BLACK
6
CONTINUOUS
10
6.47
20
-3.4494
11
6.44072
21
-3.42012
0
LINE
8
BLACK
6
CONTINUOUS
10
6.44072
20
-3.42012
11
6.41126
21
-3.42012
0
LINE
8
BLACK
6
CONTINUOUS
10
6.41126
20
-3.42012
11
6.41039
21
-3.41999
0
LINE
8
BLACK
6
CONTINUOUS
10
6.41039
20
-3.41999
11
6.41021
21
-3.42001
0
LINE
8
BLACK
6
CONTINUOUS
10
6.41021
20
-3.42001
11
6.41011
21
-3.41995
0
LINE
8
BLACK
6
CONTINUOUS
10
6.41011
20
-3.41995
11
6.40986
21
-3.41992
0
LINE
8
BLACK
6
CONTINUOUS
10
6.40986
20
-3.41992
11
6.40884
21
-3.41926
0
LINE
8
BLACK
6
CONTINUOUS
10
6.40884
20
-3.41926
11
6.40778
21
-3.41868
0
LINE
8
BLACK
6
CONTINUOUS
10
6.40778
20
-3.41868
11
6.35495
21
-3.36584
0
LINE
8
BLACK
6
CONTINUOUS
10
6.35495
20
-3.36584
11
6.35442
21
-3.36514
0
LINE
8
BLACK
6
CONTINUOUS
10
6.35442
20
-3.36514
11
6.35428
21
-3.36502
0
LINE
8
BLACK
6
CONTINUOUS
10
6.35428
20
-3.36502
11
6.35425
21
-3.36491
0
LINE
8
BLACK
6
CONTINUOUS
10
6.35425
20
-3.36491
11
6.3541
21
-3.36471
0
LINE
8
BLACK
6
CONTINUOUS
10
6.3541
20
-3.36471
11
6.35385
21
-3.36353
0
LINE
8
BLACK
6
CONTINUOUS
10
6.35385
20
-3.36353
11
6.3535
21
-3.36236
0
LINE
8
BLACK
6
CONTINUOUS
10
6.3535
20
-3.36236
11
6.3535
21
-3.3463
0
LINE
8
BLACK
6
CONTINUOUS
10
6.3535
20
-3.3463
11
6.35252
21
-3.3463
0
LINE
8
BLACK
6
CONTINUOUS
10
6.35252
20
-3.3463
11
6.35026
21
-3.34585
0
LINE
8
BLACK
6
CONTINUOUS
10
6.35026
20
-3.34585
11
6.34834
21
-3.34457
0
LINE
8
BLACK
6
CONTINUOUS
10
6.34834
20
-3.34457
11
6.34706
21
-3.34265
0
LINE
8
BLACK
6
CONTINUOUS
10
6.34706
20
-3.34265
11
6.34661
21
-3.34039
0
LINE
8
BLACK
6
CONTINUOUS
10
6.34661
20
-3.34039
11
6.34661
21
-3.28528
0
LINE
8
BLACK
6
CONTINUOUS
10
6.34661
20
-3.28528
11
6.34706
21
-3.28302
0
LINE
8
BLACK
6
CONTINUOUS
10
6.34706
20
-3.28302
11
6.34834
21
-3.2811
0
LINE
8
BLACK
6
CONTINUOUS
10
6.34834
20
-3.2811
11
6.35026
21
-3.27982
0
LINE
8
BLACK
6
CONTINUOUS
10
6.35026
20
-3.27982
11
6.35252
21
-3.27937
0
LINE
8
BLACK
6
CONTINUOUS
10
6.35252
20
-3.27937
11
6.36433
21
-3.27937
0
LINE
8
BLACK
6
CONTINUOUS
10
6.36433
20
-3.27937
11
6.36659
21
-3.27982
0
LINE
8
BLACK
6
CONTINUOUS
10
6.63039
20
-3.50756
11
6.57039
21
-3.50756
0
LINE
8
BLACK
6
CONTINUOUS
10
6.57039
20
-3.50756
11
6.57039
21
-3.44756
0
LINE
8
BLACK
6
CONTINUOUS
10
6.57039
20
-3.44756
11
6.63039
21
-3.44756
0
LINE
8
BLACK
6
CONTINUOUS
10
6.63039
20
-3.44756
11
6.63039
21
-3.50756
0
LINE
8
BLACK
6
CONTINUOUS
10
6.26817
20
-3.27982
11
6.27008
21
-3.2811
0
LINE
8
BLACK
6
CONTINUOUS
10
6.27008
20
-3.2811
11
6.27136
21
-3.28302
0
LINE
8
BLACK
6
CONTINUOUS
10
6.27136
20
-3.28302
11
6.27181
21
-3.28528
0
LINE
8
BLACK
6
CONTINUOUS
10
6.27181
20
-3.28528
11
6.27181
21
-3.34039
0
LINE
8
BLACK
6
CONTINUOUS
10
6.27181
20
-3.34039
11
6.27136
21
-3.34265
0
LINE
8
BLACK
6
CONTINUOUS
10
6.27136
20
-3.34265
11
6.27008
21
-3.34457
0
LINE
8
BLACK
6
CONTINUOUS
10
6.27008
20
-3.34457
11
6.26817
21
-3.34585
0
LINE
8
BLACK
6
CONTINUOUS
10
6.26817
20
-3.34585
11
6.26591
21
-3.3463
0
LINE
8
BLACK
6
CONTINUOUS
10
6.26591
20
-3.3463
11
6.26492
21
-3.3463
0
LINE
8
BLACK
6
CONTINUOUS
10
6.26492
20
-3.3463
11
6.26492
21
-3.39892
0
LINE
8
BLACK
6
CONTINUOUS
10
6.26492
20
-3.39892
11
6.26575
21
-3.39922
0
LINE
8
BLACK
6
CONTINUOUS
10
6.26575
20
-3.39922
11
6.26889
21
-3.40186
0
LINE
8
BLACK
6
CONTINUOUS
10
6.26889
20
-3.40186
11
6.27094
21
-3.40541
0
LINE
8
BLACK
6
CONTINUOUS
10
6.27094
20
-3.40541
11
6.27165
21
-3.40945
0
LINE
8
BLACK
6
CONTINUOUS
10
6.27165
20
-3.40945
11
6.27094
21
-3.41349
0
LINE
8
BLACK
6
CONTINUOUS
10
6.27094
20
-3.41349
11
6.26889
21
-3.41704
0
LINE
8
BLACK
6
CONTINUOUS
10
6.26889
20
-3.41704
11
6.26575
21
-3.41968
0
LINE
8
BLACK
6
CONTINUOUS
10
6.26575
20
-3.41968
11
6.26189
21
-3.42108
0
LINE
8
BLACK
6
CONTINUOUS
10
6.26189
20
-3.42108
11
6.25779
21
-3.42108
0
LINE
8
BLACK
6
CONTINUOUS
10
6.25779
20
-3.42108
11
6.25394
21
-3.41968
0
LINE
8
BLACK
6
CONTINUOUS
10
6.25394
20
-3.41968
11
6.25079
21
-3.41704
0
LINE
8
BLACK
6
CONTINUOUS
10
6.25079
20
-3.41704
11
6.24874
21
-3.41349
0
LINE
8
BLACK
6
CONTINUOUS
10
6.24874
20
-3.41349
11
6.24803
21
-3.40945
0
LINE
8
BLACK
6
CONTINUOUS
10
6.24803
20
-3.40945
11
6.24874
21
-3.40541
0
LINE
8
BLACK
6
CONTINUOUS
10
6.24874
20
-3.40541
11
6.25079
21
-3.40186
0
LINE
8
BLACK
6
CONTINUOUS
10
6.25079
20
-3.40186
11
6.25394
21
-3.39922
0
LINE
8
BLACK
6
CONTINUOUS
10
6.25394
20
-3.39922
11
6.25508
21
-3.3988
0
LINE
8
BLACK
6
CONTINUOUS
10
6.25508
20
-3.3988
11
6.25508
21
-3.3463
0
LINE
8
BLACK
6
CONTINUOUS
10
6.25508
20
-3.3463
11
6.25409
21
-3.3463
0
LINE
8
BLACK
6
CONTINUOUS
10
6.25409
20
-3.3463
11
6.25183
21
-3.34585
0
LINE
8
BLACK
6
CONTINUOUS
10
6.25183
20
-3.34585
11
6.24992
21
-3.34457
0
LINE
8
BLACK
6
CONTINUOUS
10
6.24992
20
-3.34457
11
6.24864
21
-3.34265
0
LINE
8
BLACK
6
CONTINUOUS
10
6.24864
20
-3.34265
11
6.24819
21
-3.34039
0
LINE
8
BLACK
6
CONTINUOUS
10
6.24819
20
-3.34039
11
6.24819
21
-3.28528
0
LINE
8
BLACK
6
CONTINUOUS
10
6.24819
20
-3.28528
11
6.24864
21
-3.28302
0
LINE
8
BLACK
6
CONTINUOUS
10
6.24864
20
-3.28302
11
6.24992
21
-3.2811
0
LINE
8
BLACK
6
CONTINUOUS
10
6.24992
20
-3.2811
11
6.25183
21
-3.27982
0
LINE
8
BLACK
6
CONTINUOUS
10
6.25183
20
-3.27982
11
6.25409
21
-3.27937
0
LINE
8
BLACK
6
CONTINUOUS
10
6.25409
20
-3.27937
11
6.26591
21
-3.27937
0
LINE
8
BLACK
6
CONTINUOUS
10
6.26591
20
-3.27937
11
6.26817
21
-3.27982
0
LINE
8
BLACK
6
CONTINUOUS
10
6.21895
20
-3.27982
11
6.22087
21
-3.2811
0
LINE
8
BLACK
6
CONTINUOUS
10
6.22087
20
-3.2811
11
6.22215
21
-3.28302
0
LINE
8
BLACK
6
CONTINUOUS
10
6.22215
20
-3.28302
11
6.2226
21
-3.28528
0
LINE
8
BLACK
6
CONTINUOUS
10
6.2226
20
-3.28528
11
6.2226
21
-3.34039
0
LINE
8
BLACK
6
CONTINUOUS
10
6.2226
20
-3.34039
11
6.22215
21
-3.34265
0
LINE
8
BLACK
6
CONTINUOUS
10
6.22215
20
-3.34265
11
6.22087
21
-3.34457
0
LINE
8
BLACK
6
CONTINUOUS
10
6.22087
20
-3.34457
11
6.21895
21
-3.34585
0
LINE
8
BLACK
6
CONTINUOUS
10
6.21895
20
-3.34585
11
6.21669
21
-3.3463
0
LINE
8
BLACK
6
CONTINUOUS
10
6.21669
20
-3.3463
11
6.21571
21
-3.3463
0
LINE
8
BLACK
6
CONTINUOUS
10
6.21571
20
-3.3463
11
6.21571
21
-3.37064
0
LINE
8
BLACK
6
CONTINUOUS
10
6.21571
20
-3.37064
11
6.2185
21
-3.37166
0
LINE
8
BLACK
6
CONTINUOUS
10
6.2185
20
-3.37166
11
6.22165
21
-3.3743
0
LINE
8
BLACK
6
CONTINUOUS
10
6.22165
20
-3.3743
11
6.2237
21
-3.37785
0
LINE
8
BLACK
6
CONTINUOUS
10
6.2237
20
-3.37785
11
6.22441
21
-3.38189
0
LINE
8
BLACK
6
CONTINUOUS
10
6.22441
20
-3.38189
11
6.2237
21
-3.38593
0
LINE
8
BLACK
6
CONTINUOUS
10
6.2237
20
-3.38593
11
6.22165
21
-3.38948
0
LINE
8
BLACK
6
CONTINUOUS
10
6.22165
20
-3.38948
11
6.2185
21
-3.39212
0
LINE
8
BLACK
6
CONTINUOUS
10
6.2185
20
-3.39212
11
6.21465
21
-3.39352
0
LINE
8
BLACK
6
CONTINUOUS
10
6.21465
20
-3.39352
11
6.21055
21
-3.39352
0
LINE
8
BLACK
6
CONTINUOUS
10
6.21055
20
-3.39352
11
6.20669
21
-3.39212
0
LINE
8
BLACK
6
CONTINUOUS
10
6.20669
20
-3.39212
11
6.20355
21
-3.38948
0
LINE
8
BLACK
6
CONTINUOUS
10
6.20355
20
-3.38948
11
6.2015
21
-3.38593
0
LINE
8
BLACK
6
CONTINUOUS
10
6.2015
20
-3.38593
11
6.20079
21
-3.38189
0
LINE
8
BLACK
6
CONTINUOUS
10
6.20079
20
-3.38189
11
6.2015
21
-3.37785
0
LINE
8
BLACK
6
CONTINUOUS
10
6.2015
20
-3.37785
11
6.20355
21
-3.3743
0
LINE
8
BLACK
6
CONTINUOUS
10
6.20355
20
-3.3743
11
6.20587
21
-3.37235
0
LINE
8
BLACK
6
CONTINUOUS
10
6.20587
20
-3.37235
11
6.20587
21
-3.3463
0
LINE
8
BLACK
6
CONTINUOUS
10
6.20587
20
-3.3463
11
6.20488
21
-3.3463
0
LINE
8
BLACK
6
CONTINUOUS
10
6.20488
20
-3.3463
11
6.20262
21
-3.34585
0
LINE
8
BLACK
6
CONTINUOUS
10
6.20262
20
-3.34585
11
6.20071
21
-3.34457
0
LINE
8
BLACK
6
CONTINUOUS
10
6.20071
20
-3.34457
11
6.19943
21
-3.34265
0
LINE
8
BLACK
6
CONTINUOUS
10
6.19943
20
-3.34265
11
6.19898
21
-3.34039
0
LINE
8
BLACK
6
CONTINUOUS
10
6.19898
20
-3.34039
11
6.19898
21
-3.28528
0
LINE
8
BLACK
6
CONTINUOUS
10
6.19898
20
-3.28528
11
6.19943
21
-3.28302
0
LINE
8
BLACK
6
CONTINUOUS
10
6.19943
20
-3.28302
11
6.20071
21
-3.2811
0
LINE
8
BLACK
6
CONTINUOUS
10
6.20071
20
-3.2811
11
6.20262
21
-3.27982
0
LINE
8
BLACK
6
CONTINUOUS
10
6.20262
20
-3.27982
11
6.20488
21
-3.27937
0
LINE
8
BLACK
6
CONTINUOUS
10
6.20488
20
-3.27937
11
6.21669
21
-3.27937
0
LINE
8
BLACK
6
CONTINUOUS
10
6.21669
20
-3.27937
11
6.21895
21
-3.27982
0
LINE
8
BLACK
6
CONTINUOUS
10
7.40618
20
-4.33342
11
7.41447
21
-4.33565
0
LINE
8
BLACK
6
CONTINUOUS
10
7.41447
20
-4.33565
11
7.42224
21
-4.33927
0
LINE
8
BLACK
6
CONTINUOUS
10
7.42224
20
-4.33927
11
7.42927
21
-4.34419
0
LINE
8
BLACK
6
CONTINUOUS
10
7.42927
20
-4.34419
11
7.43534
21
-4.35026
0
LINE
8
BLACK
6
CONTINUOUS
10
7.43534
20
-4.35026
11
7.44026
21
-4.35728
0
LINE
8
BLACK
6
CONTINUOUS
10
7.44026
20
-4.35728
11
7.44388
21
-4.36506
0
LINE
8
BLACK
6
CONTINUOUS
10
7.44388
20
-4.36506
11
7.4461
21
-4.37334
0
LINE
8
BLACK
6
CONTINUOUS
10
7.4461
20
-4.37334
11
7.44685
21
-4.38189
0
LINE
8
BLACK
6
CONTINUOUS
10
7.44685
20
-4.38189
11
7.4461
21
-4.39044
0
LINE
8
BLACK
6
CONTINUOUS
10
7.4461
20
-4.39044
11
7.44388
21
-4.39872
0
LINE
8
BLACK
6
CONTINUOUS
10
7.44388
20
-4.39872
11
7.44026
21
-4.4065
0
LINE
8
BLACK
6
CONTINUOUS
10
7.44026
20
-4.4065
11
7.43534
21
-4.41352
0
LINE
8
BLACK
6
CONTINUOUS
10
7.43534
20
-4.41352
11
7.42927
21
-4.41959
0
LINE
8
BLACK
6
CONTINUOUS
10
7.42927
20
-4.41959
11
7.42224
21
-4.42451
0
LINE
8
BLACK
6
CONTINUOUS
10
7.42224
20
-4.42451
11
7.41447
21
-4.42813
0
LINE
8
BLACK
6
CONTINUOUS
10
7.41447
20
-4.42813
11
7.41142
21
-4.42895
0
LINE
8
BLACK
6
CONTINUOUS
10
7.41142
20
-4.42895
11
7.41142
21
-4.58366
0
LINE
8
BLACK
6
CONTINUOUS
10
7.41142
20
-4.58366
11
7.42126
21
-4.58366
0
LINE
8
BLACK
6
CONTINUOUS
10
7.42126
20
-4.58366
11
7.42126
21
-4.625
0
LINE
8
BLACK
6
CONTINUOUS
10
7.42126
20
-4.625
11
7.38189
21
-4.625
0
LINE
8
BLACK
6
CONTINUOUS
10
7.38189
20
-4.625
11
7.38189
21
-4.58366
0
LINE
8
BLACK
6
CONTINUOUS
10
7.38189
20
-4.58366
11
7.39173
21
-4.58366
0
LINE
8
BLACK
6
CONTINUOUS
10
7.39173
20
-4.58366
11
7.39173
21
-4.43059
0
LINE
8
BLACK
6
CONTINUOUS
10
7.39173
20
-4.43059
11
7.38909
21
-4.43035
0
LINE
8
BLACK
6
CONTINUOUS
10
7.38909
20
-4.43035
11
7.38081
21
-4.42813
0
LINE
8
BLACK
6
CONTINUOUS
10
7.38081
20
-4.42813
11
7.37303
21
-4.42451
0
LINE
8
BLACK
6
CONTINUOUS
10
7.37303
20
-4.42451
11
7.366
21
-4.41959
0
LINE
8
BLACK
6
CONTINUOUS
10
7.366
20
-4.41959
11
7.35994
21
-4.41352
0
LINE
8
BLACK
6
CONTINUOUS
10
7.35994
20
-4.41352
11
7.35502
21
-4.4065
0
LINE
8
BLACK
6
CONTINUOUS
10
7.35502
20
-4.4065
11
7.35139
21
-4.39872
0
LINE
8
BLACK
6
CONTINUOUS
10
7.35139
20
-4.39872
11
7.34917
21
-4.39044
0
LINE
8
BLACK
6
CONTINUOUS
10
7.34917
20
-4.39044
11
7.34843
21
-4.38189
0
LINE
8
BLACK
6
CONTINUOUS
10
7.34843
20
-4.38189
11
7.34917
21
-4.37334
0
LINE
8
BLACK
6
CONTINUOUS
10
7.34917
20
-4.37334
11
7.35139
21
-4.36506
0
LINE
8
BLACK
6
CONTINUOUS
10
7.35139
20
-4.36506
11
7.35502
21
-4.35728
0
LINE
8
BLACK
6
CONTINUOUS
10
7.35502
20
-4.35728
11
7.35994
21
-4.35026
0
LINE
8
BLACK
6
CONTINUOUS
10
7.35994
20
-4.35026
11
7.366
21
-4.34419
0
LINE
8
BLACK
6
CONTINUOUS
10
7.366
20
-4.34419
11
7.37303
21
-4.33927
0
LINE
8
BLACK
6
CONTINUOUS
10
7.37303
20
-4.33927
11
7.38081
21
-4.33565
0
LINE
8
BLACK
6
CONTINUOUS
10
7.38081
20
-4.33565
11
7.38909
21
-4.33342
0
LINE
8
BLACK
6
CONTINUOUS
10
7.38909
20
-4.33342
11
7.39764
21
-4.33268
0
LINE
8
BLACK
6
CONTINUOUS
10
7.39764
20
-4.33268
11
7.40618
21
-4.33342
0
LINE
8
BLACK
6
CONTINUOUS
10
5.91929
20
-3.9504
11
5.92243
21
-3.95304
0
LINE
8
BLACK
6
CONTINUOUS
10
5.92243
20
-3.95304
11
5.92397
21
-3.95571
0
LINE
8
BLACK
6
CONTINUOUS
10
5.92397
20
-3.95571
11
6.02091
21
-3.95571
0
LINE
8
BLACK
6
CONTINUOUS
10
6.02091
20
-3.95571
11
6.02245
21
-3.95304
0
LINE
8
BLACK
6
CONTINUOUS
10
6.02245
20
-3.95304
11
6.02559
21
-3.9504
0
LINE
8
BLACK
6
CONTINUOUS
10
6.02559
20
-3.9504
11
6.02945
21
-3.949
0
LINE
8
BLACK
6
CONTINUOUS
10
6.02945
20
-3.949
11
6.03355
21
-3.949
0
LINE
8
BLACK
6
CONTINUOUS
10
6.03355
20
-3.949
11
6.0374
21
-3.9504
0
LINE
8
BLACK
6
CONTINUOUS
10
6.0374
20
-3.9504
11
6.04054
21
-3.95304
0
LINE
8
BLACK
6
CONTINUOUS
10
6.04054
20
-3.95304
11
6.04259
21
-3.95659
0
LINE
8
BLACK
6
CONTINUOUS
10
6.04259
20
-3.95659
11
6.04331
21
-3.96063
0
LINE
8
BLACK
6
CONTINUOUS
10
6.04331
20
-3.96063
11
6.04259
21
-3.96467
0
LINE
8
BLACK
6
CONTINUOUS
10
6.04259
20
-3.96467
11
6.04054
21
-3.96822
0
LINE
8
BLACK
6
CONTINUOUS
10
6.04054
20
-3.96822
11
6.0374
21
-3.97086
0
LINE
8
BLACK
6
CONTINUOUS
10
6.0374
20
-3.97086
11
6.03355
21
-3.97226
0
LINE
8
BLACK
6
CONTINUOUS
10
6.03355
20
-3.97226
11
6.02945
21
-3.97226
0
LINE
8
BLACK
6
CONTINUOUS
10
6.02945
20
-3.97226
11
6.02559
21
-3.97086
0
LINE
8
BLACK
6
CONTINUOUS
10
6.02559
20
-3.97086
11
6.02245
21
-3.96822
0
LINE
8
BLACK
6
CONTINUOUS
10
6.02245
20
-3.96822
11
6.02091
21
-3.96555
0
LINE
8
BLACK
6
CONTINUOUS
10
6.02091
20
-3.96555
11
5.92397
21
-3.96555
0
LINE
8
BLACK
6
CONTINUOUS
10
5.92397
20
-3.96555
11
5.92243
21
-3.96822
0
LINE
8
BLACK
6
CONTINUOUS
10
5.92243
20
-3.96822
11
5.91929
21
-3.97086
0
LINE
8
BLACK
6
CONTINUOUS
10
5.91929
20
-3.97086
11
5.91544
21
-3.97226
0
LINE
8
BLACK
6
CONTINUOUS
10
5.91544
20
-3.97226
11
5.91133
21
-3.97226
0
LINE
8
BLACK
6
CONTINUOUS
10
5.91133
20
-3.97226
11
5.90748
21
-3.97086
0
LINE
8
BLACK
6
CONTINUOUS
10
5.90748
20
-3.97086
11
5.90434
21
-3.96822
0
LINE
8
BLACK
6
CONTINUOUS
10
5.90434
20
-3.96822
11
5.90229
21
-3.96467
0
LINE
8
BLACK
6
CONTINUOUS
10
5.90229
20
-3.96467
11
5.90157
21
-3.96063
0
LINE
8
BLACK
6
CONTINUOUS
10
5.90157
20
-3.96063
11
5.90229
21
-3.95659
0
LINE
8
BLACK
6
CONTINUOUS
10
5.90229
20
-3.95659
11
5.90434
21
-3.95304
0
LINE
8
BLACK
6
CONTINUOUS
10
5.90434
20
-3.95304
11
5.90748
21
-3.9504
0
LINE
8
BLACK
6
CONTINUOUS
10
5.90748
20
-3.9504
11
5.91133
21
-3.949
0
LINE
8
BLACK
6
CONTINUOUS
10
5.91133
20
-3.949
11
5.91544
21
-3.949
0
LINE
8
BLACK
6
CONTINUOUS
10
5.91544
20
-3.949
11
5.91929
21
-3.9504
0
LINE
8
BLACK
6
CONTINUOUS
10
7.42126
20
-3.68406
11
7.41142
21
-3.68406
0
LINE
8
BLACK
6
CONTINUOUS
10
7.41142
20
-3.68406
11
7.41142
21
-3.82302
0
LINE
8
BLACK
6
CONTINUOUS
10
7.41142
20
-3.82302
11
7.41447
21
-3.82383
0
LINE
8
BLACK
6
CONTINUOUS
10
7.41447
20
-3.82383
11
7.42224
21
-3.82746
0
LINE
8
BLACK
6
CONTINUOUS
10
7.42224
20
-3.82746
11
7.42927
21
-3.83238
0
LINE
8
BLACK
6
CONTINUOUS
10
7.42927
20
-3.83238
11
7.43534
21
-3.83845
0
LINE
8
BLACK
6
CONTINUOUS
10
7.43534
20
-3.83845
11
7.44026
21
-3.84547
0
LINE
8
BLACK
6
CONTINUOUS
10
7.44026
20
-3.84547
11
7.44388
21
-3.85325
0
LINE
8
BLACK
6
CONTINUOUS
10
7.44388
20
-3.85325
11
7.4461
21
-3.86153
0
LINE
8
BLACK
6
CONTINUOUS
10
7.4461
20
-3.86153
11
7.44685
21
-3.87008
0
LINE
8
BLACK
6
CONTINUOUS
10
7.44685
20
-3.87008
11
7.4461
21
-3.87862
0
LINE
8
BLACK
6
CONTINUOUS
10
7.4461
20
-3.87862
11
7.44388
21
-3.88691
0
LINE
8
BLACK
6
CONTINUOUS
10
7.44388
20
-3.88691
11
7.44026
21
-3.89469
0
LINE
8
BLACK
6
CONTINUOUS
10
7.44026
20
-3.89469
11
7.43534
21
-3.90171
0
LINE
8
BLACK
6
CONTINUOUS
10
7.43534
20
-3.90171
11
7.42927
21
-3.90778
0
LINE
8
BLACK
6
CONTINUOUS
10
7.42927
20
-3.90778
11
7.42224
21
-3.9127
0
LINE
8
BLACK
6
CONTINUOUS
10
7.42224
20
-3.9127
11
7.41447
21
-3.91632
0
LINE
8
BLACK
6
CONTINUOUS
10
7.41447
20
-3.91632
11
7.40618
21
-3.91854
0
LINE
8
BLACK
6
CONTINUOUS
10
7.40618
20
-3.91854
11
7.39764
21
-3.91929
0
LINE
8
BLACK
6
CONTINUOUS
10
7.39764
20
-3.91929
11
7.38909
21
-3.91854
0
LINE
8
BLACK
6
CONTINUOUS
10
7.38909
20
-3.91854
11
7.38081
21
-3.91632
0
LINE
8
BLACK
6
CONTINUOUS
10
7.38081
20
-3.91632
11
7.37303
21
-3.9127
0
LINE
8
BLACK
6
CONTINUOUS
10
7.37303
20
-3.9127
11
7.366
21
-3.90778
0
LINE
8
BLACK
6
CONTINUOUS
10
7.366
20
-3.90778
11
7.35994
21
-3.90171
0
LINE
8
BLACK
6
CONTINUOUS
10
7.35994
20
-3.90171
11
7.35502
21
-3.89469
0
LINE
8
BLACK
6
CONTINUOUS
10
7.35502
20
-3.89469
11
7.35139
21
-3.88691
0
LINE
8
BLACK
6
CONTINUOUS
10
7.35139
20
-3.88691
11
7.34917
21
-3.87862
0
LINE
8
BLACK
6
CONTINUOUS
10
7.34917
20
-3.87862
11
7.34843
21
-3.87008
0
LINE
8
BLACK
6
CONTINUOUS
10
7.34843
20
-3.87008
11
7.34917
21
-3.86153
0
LINE
8
BLACK
6
CONTINUOUS
10
7.34917
20
-3.86153
11
7.35139
21
-3.85325
0
LINE
8
BLACK
6
CONTINUOUS
10
7.35139
20
-3.85325
11
7.35502
21
-3.84547
0
LINE
8
BLACK
6
CONTINUOUS
10
7.35502
20
-3.84547
11
7.35994
21
-3.83845
0
LINE
8
BLACK
6
CONTINUOUS
10
7.35994
20
-3.83845
11
7.366
21
-3.83238
0
LINE
8
BLACK
6
CONTINUOUS
10
7.366
20
-3.83238
11
7.37303
21
-3.82746
0
LINE
8
BLACK
6
CONTINUOUS
10
7.37303
20
-3.82746
11
7.38081
21
-3.82383
0
LINE
8
BLACK
6
CONTINUOUS
10
7.38081
20
-3.82383
11
7.38909
21
-3.82161
0
LINE
8
BLACK
6
CONTINUOUS
10
7.38909
20
-3.82161
11
7.39173
21
-3.82138
0
LINE
8
BLACK
6
CONTINUOUS
10
7.39173
20
-3.82138
11
7.39173
21
-3.68406
0
LINE
8
BLACK
6
CONTINUOUS
10
7.39173
20
-3.68406
11
7.38189
21
-3.68406
0
LINE
8
BLACK
6
CONTINUOUS
10
7.38189
20
-3.68406
11
7.38189
21
-3.64272
0
LINE
8
BLACK
6
CONTINUOUS
10
7.38189
20
-3.64272
11
7.42126
21
-3.64272
0
LINE
8
BLACK
6
CONTINUOUS
10
7.42126
20
-3.64272
11
7.42126
21
-3.68406
0
LINE
8
BLACK
6
CONTINUOUS
10
5.54457
20
-3.65205
11
5.48457
21
-3.65205
0
LINE
8
BLACK
6
CONTINUOUS
10
5.48457
20
-3.65205
11
5.48457
21
-3.59205
0
LINE
8
BLACK
6
CONTINUOUS
10
5.48457
20
-3.59205
11
5.54457
21
-3.59205
0
LINE
8
BLACK
6
CONTINUOUS
10
5.54457
20
-3.59205
11
5.54457
21
-3.65205
0
LINE
8
BLACK
6
CONTINUOUS
10
5.44457
20
-3.65205
11
5.38457
21
-3.65205
0
LINE
8
BLACK
6
CONTINUOUS
10
5.38457
20
-3.65205
11
5.38457
21
-3.59205
0
LINE
8
BLACK
6
CONTINUOUS
10
5.38457
20
-3.59205
11
5.44457
21
-3.59205
0
LINE
8
BLACK
6
CONTINUOUS
10
5.44457
20
-3.59205
11
5.44457
21
-3.65205
0
LINE
8
BLACK
6
CONTINUOUS
10
6.16974
20
-3.27982
11
6.17166
21
-3.2811
0
LINE
8
BLACK
6
CONTINUOUS
10
6.17166
20
-3.2811
11
6.17294
21
-3.28302
0
LINE
8
BLACK
6
CONTINUOUS
10
6.17294
20
-3.28302
11
6.17339
21
-3.28528
0
LINE
8
BLACK
6
CONTINUOUS
10
6.17339
20
-3.28528
11
6.17339
21
-3.34039
0
LINE
8
BLACK
6
CONTINUOUS
10
6.17339
20
-3.34039
11
6.17294
21
-3.34265
0
LINE
8
BLACK
6
CONTINUOUS
10
6.17294
20
-3.34265
11
6.17166
21
-3.34457
0
LINE
8
BLACK
6
CONTINUOUS
10
6.17166
20
-3.34457
11
6.16974
21
-3.34585
0
LINE
8
BLACK
6
CONTINUOUS
10
6.16974
20
-3.34585
11
6.16748
21
-3.3463
0
LINE
8
BLACK
6
CONTINUOUS
10
6.16748
20
-3.3463
11
6.1665
21
-3.3463
0
LINE
8
BLACK
6
CONTINUOUS
10
6.1665
20
-3.3463
11
6.1665
21
-3.35024
0
LINE
8
BLACK
6
CONTINUOUS
10
6.1665
20
-3.35024
11
6.16637
21
-3.3511
0
LINE
8
BLACK
6
CONTINUOUS
10
6.16637
20
-3.3511
11
6.16638
21
-3.35128
0
LINE
8
BLACK
6
CONTINUOUS
10
6.16638
20
-3.35128
11
6.16633
21
-3.35138
0
LINE
8
BLACK
6
CONTINUOUS
10
6.16633
20
-3.35138
11
6.16629
21
-3.35163
0
LINE
8
BLACK
6
CONTINUOUS
10
6.16629
20
-3.35163
11
6.16564
21
-3.35265
0
LINE
8
BLACK
6
CONTINUOUS
10
6.16564
20
-3.35265
11
6.16505
21
-3.35372
0
LINE
8
BLACK
6
CONTINUOUS
10
6.16505
20
-3.35372
11
6.12159
21
-3.39718
0
LINE
8
BLACK
6
CONTINUOUS
10
6.12159
20
-3.39718
11
6.12089
21
-3.3977
0
LINE
8
BLACK
6
CONTINUOUS
10
6.12089
20
-3.3977
11
6.12077
21
-3.39784
0
LINE
8
BLACK
6
CONTINUOUS
10
6.12077
20
-3.39784
11
6.12066
21
-3.39787
0
LINE
8
BLACK
6
CONTINUOUS
10
6.12066
20
-3.39787
11
6.12046
21
-3.39803
0
LINE
8
BLACK
6
CONTINUOUS
10
6.12046
20
-3.39803
11
6.11927
21
-3.39828
0
LINE
8
BLACK
6
CONTINUOUS
10
6.11927
20
-3.39828
11
6.11811
21
-3.39862
0
LINE
8
BLACK
6
CONTINUOUS
10
6.11811
20
-3.39862
11
6.08078
21
-3.39862
0
LINE
8
BLACK
6
CONTINUOUS
10
6.08078
20
-3.39862
11
6.04626
21
-3.43314
0
LINE
8
BLACK
6
CONTINUOUS
10
6.04626
20
-3.43314
11
6.04626
21
-3.44756
0
LINE
8
BLACK
6
CONTINUOUS
10
6.04626
20
-3.44756
11
6.07134
21
-3.44756
0
LINE
8
BLACK
6
CONTINUOUS
10
6.07134
20
-3.44756
11
6.07134
21
-3.50756
0
LINE
8
BLACK
6
CONTINUOUS
10
6.07134
20
-3.50756
11
6.01134
21
-3.50756
0
LINE
8
BLACK
6
CONTINUOUS
10
6.01134
20
-3.50756
11
6.01134
21
-3.44756
0
LINE
8
BLACK
6
CONTINUOUS
10
6.01134
20
-3.44756
11
6.03642
21
-3.44756
0
LINE
8
BLACK
6
CONTINUOUS
10
6.03642
20
-3.44756
11
6.03642
21
-3.4311
0
LINE
8
BLACK
6
CONTINUOUS
10
6.03642
20
-3.4311
11
6.03654
21
-3.43023
0
LINE
8
BLACK
6
CONTINUOUS
10
6.03654
20
-3.43023
11
6.03653
21
-3.43005
0
LINE
8
BLACK
6
CONTINUOUS
10
6.03653
20
-3.43005
11
6.03658
21
-3.42996
0
LINE
8
BLACK
6
CONTINUOUS
10
6.03658
20
-3.42996
11
6.03662
21
-3.4297
0
LINE
8
BLACK
6
CONTINUOUS
10
6.03662
20
-3.4297
11
6.03728
21
-3.42869
0
LINE
8
BLACK
6
CONTINUOUS
10
6.03728
20
-3.42869
11
6.03786
21
-3.42762
0
LINE
8
BLACK
6
CONTINUOUS
10
6.03786
20
-3.42762
11
6.07526
21
-3.39022
0
LINE
8
BLACK
6
CONTINUOUS
10
6.07526
20
-3.39022
11
6.07596
21
-3.3897
0
LINE
8
BLACK
6
CONTINUOUS
10
6.07596
20
-3.3897
11
6.07608
21
-3.38956
0
LINE
8
BLACK
6
CONTINUOUS
10
6.07608
20
-3.38956
11
6.07619
21
-3.38953
0
LINE
8
BLACK
6
CONTINUOUS
10
6.07619
20
-3.38953
11
6.07639
21
-3.38938
0
LINE
8
BLACK
6
CONTINUOUS
10
6.07639
20
-3.38938
11
6.07758
21
-3.38912
0
LINE
8
BLACK
6
CONTINUOUS
10
6.07758
20
-3.38912
11
6.07874
21
-3.38878
0
LINE
8
BLACK
6
CONTINUOUS
10
6.07874
20
-3.38878
11
6.11607
21
-3.38878
0
LINE
8
BLACK
6
CONTINUOUS
10
6.11607
20
-3.38878
11
6.15665
21
-3.3482
0
LINE
8
BLACK
6
CONTINUOUS
10
6.15665
20
-3.3482
11
6.15665
21
-3.3463
0
LINE
8
BLACK
6
CONTINUOUS
10
6.15665
20
-3.3463
11
6.15567
21
-3.3463
0
LINE
8
BLACK
6
CONTINUOUS
10
6.15567
20
-3.3463
11
6.15341
21
-3.34585
0
LINE
8
BLACK
6
CONTINUOUS
10
6.15341
20
-3.34585
11
6.15149
21
-3.34457
0
LINE
8
BLACK
6
CONTINUOUS
10
6.15149
20
-3.34457
11
6.15021
21
-3.34265
0
LINE
8
BLACK
6
CONTINUOUS
10
6.15021
20
-3.34265
11
6.14976
21
-3.34039
0
LINE
8
BLACK
6
CONTINUOUS
10
6.14976
20
-3.34039
11
6.14976
21
-3.28528
0
LINE
8
BLACK
6
CONTINUOUS
10
6.14976
20
-3.28528
11
6.15021
21
-3.28302
0
LINE
8
BLACK
6
CONTINUOUS
10
6.15021
20
-3.28302
11
6.15149
21
-3.2811
0
LINE
8
BLACK
6
CONTINUOUS
10
6.15149
20
-3.2811
11
6.15341
21
-3.27982
0
LINE
8
BLACK
6
CONTINUOUS
10
6.15341
20
-3.27982
11
6.15567
21
-3.27937
0
LINE
8
BLACK
6
CONTINUOUS
10
6.15567
20
-3.27937
11
6.16748
21
-3.27937
0
LINE
8
BLACK
6
CONTINUOUS
10
6.16748
20
-3.27937
11
6.16974
21
-3.27982
0
LINE
8
BLACK
6
CONTINUOUS
10
5.97094
20
-3.50756
11
5.91094
21
-3.50756
0
LINE
8
BLACK
6
CONTINUOUS
10
5.91094
20
-3.50756
11
5.91094
21
-3.44756
0
LINE
8
BLACK
6
CONTINUOUS
10
5.91094
20
-3.44756
11
5.97094
21
-3.44756
0
LINE
8
BLACK
6
CONTINUOUS
10
5.97094
20
-3.44756
11
5.97094
21
-3.50756
0
LINE
8
BLACK
6
CONTINUOUS
10
5.87055
20
-3.50756
11
5.81055
21
-3.50756
0
LINE
8
BLACK
6
CONTINUOUS
10
5.81055
20
-3.50756
11
5.81055
21
-3.44756
0
LINE
8
BLACK
6
CONTINUOUS
10
5.81055
20
-3.44756
11
5.87055
21
-3.44756
0
LINE
8
BLACK
6
CONTINUOUS
10
5.87055
20
-3.44756
11
5.87055
21
-3.50756
0
LINE
8
BLACK
6
CONTINUOUS
10
5.77016
20
-3.50756
11
5.71016
21
-3.50756
0
LINE
8
BLACK
6
CONTINUOUS
10
5.71016
20
-3.50756
11
5.71016
21
-3.44756
0
LINE
8
BLACK
6
CONTINUOUS
10
5.71016
20
-3.44756
11
5.77016
21
-3.44756
0
LINE
8
BLACK
6
CONTINUOUS
10
5.77016
20
-3.44756
11
5.77016
21
-3.50756
0
LINE
8
BLACK
6
CONTINUOUS
10
6.17173
20
-3.50756
11
6.11173
21
-3.50756
0
LINE
8
BLACK
6
CONTINUOUS
10
6.11173
20
-3.50756
11
6.11173
21
-3.44756
0
LINE
8
BLACK
6
CONTINUOUS
10
6.11173
20
-3.44756
11
6.17173
21
-3.44756
0
LINE
8
BLACK
6
CONTINUOUS
10
6.17173
20
-3.44756
11
6.17173
21
-3.50756
0
LINE
8
BLACK
6
CONTINUOUS
10
6.4158
20
-3.27982
11
6.41772
21
-3.2811
0
LINE
8
BLACK
6
CONTINUOUS
10
6.41772
20
-3.2811
11
6.419
21
-3.28302
0
LINE
8
BLACK
6
CONTINUOUS
10
6.419
20
-3.28302
11
6.41945
21
-3.28528
0
LINE
8
BLACK
6
CONTINUOUS
10
6.41945
20
-3.28528
11
6.41945
21
-3.30016
0
LINE
8
BLACK
6
CONTINUOUS
10
6.41945
20
-3.30016
11
6.44363
21
-3.30016
0
LINE
8
BLACK
6
CONTINUOUS
10
6.44363
20
-3.30016
11
6.44409
21
-3.29977
0
LINE
8
BLACK
6
CONTINUOUS
10
6.44409
20
-3.29977
11
6.44795
21
-3.29837
0
LINE
8
BLACK
6
CONTINUOUS
10
6.44795
20
-3.29837
11
6.45205
21
-3.29837
0
LINE
8
BLACK
6
CONTINUOUS
10
6.45205
20
-3.29837
11
6.45591
21
-3.29977
0
LINE
8
BLACK
6
CONTINUOUS
10
6.45591
20
-3.29977
11
6.45905
21
-3.30241
0
LINE
8
BLACK
6
CONTINUOUS
10
6.45905
20
-3.30241
11
6.4611
21
-3.30596
0
LINE
8
BLACK
6
CONTINUOUS
10
6.4611
20
-3.30596
11
6.46181
21
-3.31
0
LINE
8
BLACK
6
CONTINUOUS
10
6.46181
20
-3.31
11
6.4611
21
-3.31404
0
LINE
8
BLACK
6
CONTINUOUS
10
6.4611
20
-3.31404
11
6.45905
21
-3.31759
0
LINE
8
BLACK
6
CONTINUOUS
10
6.45905
20
-3.31759
11
6.45591
21
-3.32023
0
LINE
8
BLACK
6
CONTINUOUS
10
6.45591
20
-3.32023
11
6.45205
21
-3.32163
0
LINE
8
BLACK
6
CONTINUOUS
10
6.45205
20
-3.32163
11
6.44795
21
-3.32163
0
LINE
8
BLACK
6
CONTINUOUS
10
6.44795
20
-3.32163
11
6.44409
21
-3.32023
0
LINE
8
BLACK
6
CONTINUOUS
10
6.44409
20
-3.32023
11
6.44363
21
-3.31984
0
LINE
8
BLACK
6
CONTINUOUS
10
6.44363
20
-3.31984
11
6.41945
21
-3.31984
0
LINE
8
BLACK
6
CONTINUOUS
10
6.41945
20
-3.31984
11
6.41945
21
-3.34039
0
LINE
8
BLACK
6
CONTINUOUS
10
6.41945
20
-3.34039
11
6.419
21
-3.34265
0
LINE
8
BLACK
6
CONTINUOUS
10
6.419
20
-3.34265
11
6.41772
21
-3.34457
0
LINE
8
BLACK
6
CONTINUOUS
10
6.41772
20
-3.34457
11
6.4158
21
-3.34585
0
LINE
8
BLACK
6
CONTINUOUS
10
6.4158
20
-3.34585
11
6.41354
21
-3.3463
0
LINE
8
BLACK
6
CONTINUOUS
10
6.41354
20
-3.3463
11
6.40173
21
-3.3463
0
LINE
8
BLACK
6
CONTINUOUS
10
6.40173
20
-3.3463
11
6.39947
21
-3.34585
0
LINE
8
BLACK
6
CONTINUOUS
10
6.39947
20
-3.34585
11
6.39756
21
-3.34457
0
LINE
8
BLACK
6
CONTINUOUS
10
6.39756
20
-3.34457
11
6.39628
21
-3.34265
0
LINE
8
BLACK
6
CONTINUOUS
10
6.39628
20
-3.34265
11
6.39583
21
-3.34039
0
LINE
8
BLACK
6
CONTINUOUS
10
6.39583
20
-3.34039
11
6.39583
21
-3.28528
0
LINE
8
BLACK
6
CONTINUOUS
10
6.39583
20
-3.28528
11
6.39628
21
-3.28302
0
LINE
8
BLACK
6
CONTINUOUS
10
6.39628
20
-3.28302
11
6.39756
21
-3.2811
0
LINE
8
BLACK
6
CONTINUOUS
10
6.39756
20
-3.2811
11
6.39947
21
-3.27982
0
LINE
8
BLACK
6
CONTINUOUS
10
6.39947
20
-3.27982
11
6.40173
21
-3.27937
0
LINE
8
BLACK
6
CONTINUOUS
10
6.40173
20
-3.27937
11
6.41354
21
-3.27937
0
LINE
8
BLACK
6
CONTINUOUS
10
6.41354
20
-3.27937
11
6.4158
21
-3.27982
0
CIRCLE
8
BLACK
10
5.84252
20
-4.02756
40
0.00590551
0
CIRCLE
8
BLACK
10
5.77953
20
-4.02756
40
0.00590551
0
CIRCLE
8
BLACK
10
6.09055
20
-4.44488
40
0.00590551
0
CIRCLE
8
BLACK
10
5.97244
20
-4.44488
40
0.00590551
0
CIRCLE
8
BLACK
10
6.05906
20
-4.49606
40
0.00590551
0
CIRCLE
8
BLACK
10
5.37795
20
-3.85039
40
0.00590551
0
CIRCLE
8
BLACK
10
5.46457
20
-3.84646
40
0.00590551
0
CIRCLE
8
BLACK
10
6.69291
20
-3.83858
40
0.00590551
0
CIRCLE
8
BLACK
10
6.73228
20
-3.93701
40
0.00590551
0
CIRCLE
8
BLACK
10
6.88976
20
-4.62598
40
0.00590551
0
CIRCLE
8
BLACK
10
6.69291
20
-3.64173
40
0.00590551
0
CIRCLE
8
BLACK
10
6.41732
20
-4.44882
40
0.00590551
0
CIRCLE
8
BLACK
10
6.53543
20
-4.52756
40
0.00590551
0
CIRCLE
8
BLACK
10
6.70866
20
-4.06299
40
0.00590551
0
CIRCLE
8
BLACK
10
5.61024
20
-4.62598
40
0.00590551
0
CIRCLE
8
BLACK
10
6.53543
20
-4.37008
40
0.00590551
0
CIRCLE
8
BLACK
10
6.32672
20
-4.19669
40
0.00590551
0
CIRCLE
8
BLACK
10
6.37795
20
-4.37008
40
0.00590551
0
CIRCLE
8
BLACK
10
6.79134
20
-3.24803
40
0.00590551
0
CIRCLE
8
BLACK
10
6.69291
20
-4.72441
40
0.00590551
0
CIRCLE
8
BLACK
10
6.5748
20
-3.93701
40
0.00590551
0
CIRCLE
8
BLACK
10
6.24409
20
-3.90551
40
0.00590551
0
CIRCLE
8
BLACK
10
6.29921
20
-4.62598
40
0.00590551
0
CIRCLE
8
BLACK
10
6.88976
20
-3.14961
40
0.00590551
0
CIRCLE
8
BLACK
10
5.90551
20
-4.72441
40
0.00590551
0
CIRCLE
8
BLACK
10
7.59843
20
-3.62205
40
0.00590551
0
CIRCLE
8
BLACK
10
7.59843
20
-4.40945
40
0.00590551
0
CIRCLE
8
BLACK
10
6.79134
20
-4.92126
40
0.00590551
0
CIRCLE
8
BLACK
10
6.45669
20
-4.52756
40
0.00590551
0
CIRCLE
8
BLACK
10
7.00787
20
-4.29134
40
0.00590551
0
CIRCLE
8
BLACK
10
7.08661
20
-3.34646
40
0.00590551
0
CIRCLE
8
BLACK
10
5.87402
20
-4.45669
40
0.00590551
0
CIRCLE
8
BLACK
10
7.59843
20
-3.46457
40
0.00590551
0
CIRCLE
8
BLACK
10
6.18898
20
-4.45669
40
0.00590551
0
CIRCLE
8
BLACK
10
7.20472
20
-4.80315
40
0.00590551
0
CIRCLE
8
BLACK
10
6.65354
20
-3.93701
40
0.00590551
0
CIRCLE
8
BLACK
10
6.29921
20
-3.14961
40
0.00590551
0
CIRCLE
8
BLACK
10
7.04724
20
-4.6063
40
0.00590551
0
CIRCLE
8
BLACK
10
5.61024
20
-4.72441
40
0.00590551
0
CIRCLE
8
BLACK
10
6.98819
20
-3.64173
40
0.00590551
0
CIRCLE
8
BLACK
10
6.88976
20
-3.54331
40
0.00590551
0
CIRCLE
8
BLACK
10
6.65354
20
-4.44882
40
0.00590551
0
CIRCLE
8
BLACK
10
6.10236
20
-3.23622
40
0.00590551
0
CIRCLE
8
BLACK
10
7.12598
20
-4.84252
40
0.00590551
0
CIRCLE
8
BLACK
10
7.3622
20
-4.05512
40
0.00590551
0
CIRCLE
8
BLACK
10
6.69291
20
-3.14961
40
0.00590551
0
CIRCLE
8
BLACK
10
7.3937
20
-4.1811
40
0.00590551
0
CIRCLE
8
BLACK
10
6.59449
20
-3.34646
40
0.00590551
0
CIRCLE
8
BLACK
10
7.44094
20
-4.76378
40
0.00590551
0
CIRCLE
8
BLACK
10
7.59843
20
-4.33071
40
0.00590551
0
CIRCLE
8
BLACK
10
5.90551
20
-4.82283
40
0.00590551
0
CIRCLE
8
BLACK
10
6.39764
20
-4.62598
40
0.00590551
0
CIRCLE
8
BLACK
10
6.61417
20
-4.37008
40
0.00590551
0
CIRCLE
8
BLACK
10
6.16142
20
-4.39764
40
0.00590551
0
CIRCLE
8
BLACK
10
7.04724
20
-4.33071
40
0.00590551
0
CIRCLE
8
BLACK
10
6.49606
20
-4.92126
40
0.00590551
0
CIRCLE
8
BLACK
10
7.28346
20
-4.66142
40
0.00590551
0
CIRCLE
8
BLACK
10
6.26772
20
-4.19685
40
0.00590551
0
CIRCLE
8
BLACK
10
5.61024
20
-4.13386
40
0.00590551
0
CIRCLE
8
BLACK
10
7.08661
20
-4.20472
40
0.00590551
0
CIRCLE
8
BLACK
10
6.3937
20
-3.23622
40
0.00590551
0
CIRCLE
8
BLACK
10
7.59843
20
-4.01575
40
0.00590551
0
CIRCLE
8
BLACK
10
7.20472
20
-3.30709
40
0.00590551
0
CIRCLE
8
BLACK
10
6.79134
20
-4.62598
40
0.00590551
0
CIRCLE
8
BLACK
10
6.59449
20
-4.72441
40
0.00590551
0
CIRCLE
8
BLACK
10
7.12598
20
-4.48819
40
0.00590551
0
CIRCLE
8
BLACK
10
6.20079
20
-4.82283
40
0.00590551
0
CIRCLE
8
BLACK
10
6.0315
20
-4.4685
40
0.00590551
0
CIRCLE
8
BLACK
10
6.88976
20
-4.82283
40
0.00590551
0
CIRCLE
8
BLACK
10
7.24409
20
-4.56693
40
0.00590551
0
CIRCLE
8
BLACK
10
7.44882
20
-4.07087
40
0.00590551
0
CIRCLE
8
BLACK
10
6.85039
20
-4.29134
40
0.00590551
0
CIRCLE
8
BLACK
10
6.07087
20
-4.30709
40
0.00590551
0
CIRCLE
8
BLACK
10
7.51969
20
-4.09449
40
0.00590551
0
CIRCLE
8
BLACK
10
7.59843
20
-4.72441
40
0.00590551
0
CIRCLE
8
BLACK
10
6.85039
20
-4.01575
40
0.00590551
0
CIRCLE
8
BLACK
10
7.00787
20
-4.52756
40
0.00590551
0
CIRCLE
8
BLACK
10
6.69291
20
-3.34646
40
0.00590551
0
CIRCLE
8
BLACK
10
7.08661
20
-3.54331
40
0.00590551
0
CIRCLE
8
BLACK
10
6.59449
20
-4.82283
40
0.00590551
0
CIRCLE
8
BLACK
10
7.28346
20
-3.34646
40
0.00590551
0
CIRCLE
8
BLACK
10
7.00787
20
-4.20472
40
0.00590551
0
CIRCLE
8
BLACK
10
7.20472
20
-4.72441
40
0.00590551
0
CIRCLE
8
BLACK
10
5.51181
20
-4.13386
40
0.00590551
0
CIRCLE
8
BLACK
10
7.28346
20
-3.26772
40
0.00590551
0
CIRCLE
8
BLACK
10
7.12598
20
-4.44882
40
0.00590551
0
CIRCLE
8
BLACK
10
6.39764
20
-4.72441
40
0.00590551
0
CIRCLE
8
BLACK
10
6.10236
20
-4.82283
40
0.00590551
0
CIRCLE
8
BLACK
10
6.39764
20
-4.82283
40
0.00590551
0
CIRCLE
8
BLACK
10
5.76378
20
-3.84252
40
0.00590551
0
CIRCLE
8
BLACK
10
7.20472
20
-5.03937
40
0.00590551
0
CIRCLE
8
BLACK
10
7.28346
20
-3.66142
40
0.00590551
0
CIRCLE
8
BLACK
10
7.12598
20
-4.33071
40
0.00590551
0
CIRCLE
8
BLACK
10
5.80709
20
-4.82283
40
0.00590551
0
CIRCLE
8
BLACK
10
6.79134
20
-3.44488
40
0.00590551
0
CIRCLE
8
BLACK
10
7.28346
20
-4.72441
40
0.00590551
0
CIRCLE
8
BLACK
10
6.79134
20
-4.82283
40
0.00590551
0
CIRCLE
8
BLACK
10
7.32283
20
-4.09449
40
0.00590551
0
CIRCLE
8
BLACK
10
7.20472
20
-3.22835
40
0.00590551
0
CIRCLE
8
BLACK
10
7.20472
20
-4.01575
40
0.00590551
0
CIRCLE
8
BLACK
10
6.98819
20
-3.24803
40
0.00590551
0
CIRCLE
8
BLACK
10
7.28346
20
-3.6063
40
0.00590551
0
CIRCLE
8
BLACK
10
7.08661
20
-3.44488
40
0.00590551
0
CIRCLE
8
BLACK
10
6.79134
20
-3.14961
40
0.00590551
0
CIRCLE
8
BLACK
10
6.33858
20
-4.44882
40
0.00590551
0
CIRCLE
8
BLACK
10
7.20472
20
-3.85827
40
0.00590551
0
CIRCLE
8
BLACK
10
6.29921
20
-4.92126
40
0.00590551
0
CIRCLE
8
BLACK
10
7.28346
20
-3.4252
40
0.00590551
0
CIRCLE
8
BLACK
10
5.7874
20
-3.14961
40
0.00590551
0
CIRCLE
8
BLACK
10
6.59449
20
-3.24803
40
0.00590551
0
CIRCLE
8
BLACK
10
6.20079
20
-4.72441
40
0.00590551
0
CIRCLE
8
BLACK
10
7.59843
20
-3.70079
40
0.00590551
0
CIRCLE
8
BLACK
10
5.90551
20
-4.92126
40
0.00590551
0
CIRCLE
8
BLACK
10
5.99409
20
-4.30709
40
0.00590551
0
CIRCLE
8
BLACK
10
7.28346
20
-4.6063
40
0.00590551
0
CIRCLE
8
BLACK
10
7.08661
20
-3.83858
40
0.00590551
0
CIRCLE
8
BLACK
10
6.45669
20
-4.01575
40
0.00590551
0
CIRCLE
8
BLACK
10
7.51969
20
-4.72441
40
0.00590551
0
CIRCLE
8
BLACK
10
7.20472
20
-4.33071
40
0.00590551
0
CIRCLE
8
BLACK
10
6.69291
20
-4.01575
40
0.00590551
0
CIRCLE
8
BLACK
10
5.41339
20
-4.42913
40
0.00590551
0
CIRCLE
8
BLACK
10
6.51969
20
-4.19685
40
0.00590551
0
CIRCLE
8
BLACK
10
6.69291
20
-3.24803
40
0.00590551
0
CIRCLE
8
BLACK
10
6.20079
20
-3.69685
40
0.00590551
0
CIRCLE
8
BLACK
10
6.87402
20
-4.19685
40
0.00590551
0
CIRCLE
8
BLACK
10
6.88976
20
-3.93701
40
0.00590551
0
CIRCLE
8
BLACK
10
5.96063
20
-3.84252
40
0.00590551
0
CIRCLE
8
BLACK
10
6.2126
20
-4.19685
40
0.00590551
0
CIRCLE
8
BLACK
10
6.88976
20
-4.25197
40
0.00590551
0
CIRCLE
8
BLACK
10
6.69291
20
-3.44488
40
0.00590551
0
CIRCLE
8
BLACK
10
6.88976
20
-4.33071
40
0.00590551
0
CIRCLE
8
BLACK
10
5.51181
20
-4.33071
40
0.00590551
0
CIRCLE
8
BLACK
10
6.10236
20
-4.62598
40
0.00590551
0
CIRCLE
8
BLACK
10
6.79134
20
-3.83858
40
0.00590551
0
CIRCLE
8
BLACK
10
7.51968
20
-4.6063
40
0.00590551
0
CIRCLE
8
BLACK
10
5.61024
20
-4.03543
40
0.00590551
0
CIRCLE
8
BLACK
10
5.70866
20
-3.14961
40
0.00590551
0
CIRCLE
8
BLACK
10
7.51969
20
-4.66142
40
0.00590551
0
CIRCLE
8
BLACK
10
7.28346
20
-5
40
0.00590551
0
CIRCLE
8
BLACK
10
6.69291
20
-4.62598
40
0.00590551
0
CIRCLE
8
BLACK
10
6.37795
20
-4.01575
40
0.00590551
0
CIRCLE
8
BLACK
10
6.58268
20
-4.19685
40
0.00590551
0
CIRCLE
8
BLACK
10
7.20472
20
-4.6063
40
0.00590551
0
CIRCLE
8
BLACK
10
6.43701
20
-3.69685
40
0.00590551
0
CIRCLE
8
BLACK
10
5.6063
20
-4.33858
40
0.00590551
0
CIRCLE
8
BLACK
10
6.69291
20
-4.92126
40
0.00590551
0
CIRCLE
8
BLACK
10
7.20472
20
-3.14961
40
0.00590551
0
CIRCLE
8
BLACK
10
5.86614
20
-3.14961
40
0.00590551
0
CIRCLE
8
BLACK
10
6.16142
20
-4.33071
40
0.00590551
0
CIRCLE
8
BLACK
10
6.98819
20
-3.44488
40
0.00590551
0
CIRCLE
8
BLACK
10
5.80709
20
-3.93701
40
0.00590551
0
CIRCLE
8
BLACK
10
7.59843
20
-4.48819
40
0.00590551
0
CIRCLE
8
BLACK
10
6.88976
20
-3.83858
40
0.00590551
0
CIRCLE
8
BLACK
10
6.81102
20
-4.44882
40
0.00590551
0
CIRCLE
8
BLACK
10
6.20079
20
-4.92126
40
0.00590551
0
CIRCLE
8
BLACK
10
6.10236
20
-4.72441
40
0.00590551
0
CIRCLE
8
BLACK
10
7.16535
20
-4.52756
40
0.00590551
0
CIRCLE
8
BLACK
10
6.49606
20
-3.93701
40
0.00590551
0
CIRCLE
8
BLACK
10
7.20472
20
-3.38583
40
0.00590551
0
CIRCLE
8
BLACK
10
5.41339
20
-4.52756
40
0.00590551
0
CIRCLE
8
BLACK
10
7.59843
20
-3.77953
40
0.00590551
0
CIRCLE
8
BLACK
10
5.51181
20
-4.62598
40
0.00590551
0
CIRCLE
8
BLACK
10
7.08661
20
-4.29134
40
0.00590551
0
CIRCLE
8
BLACK
10
6.79528
20
-4.19685
40
0.00590551
0
CIRCLE
8
BLACK
10
6.77165
20
-4.52756
40
0.00590551
0
CIRCLE
8
BLACK
10
6.45669
20
-4.19685
40
0.00590551
0
CIRCLE
8
BLACK
10
6.59449
20
-3.14961
40
0.00590551
0
CIRCLE
8
BLACK
10
6.22047
20
-4.52756
40
0.00590551
0
CIRCLE
8
BLACK
10
5.80709
20
-4.62598
40
0.00590551
0
CIRCLE
8
BLACK
10
6.55906
20
-4.07087
40
0.00590551
0
CIRCLE
8
BLACK
10
7.28346
20
-3.14961
40
0.00590551
0
CIRCLE
8
BLACK
10
5.88189
20
-4.22047
40
0.00590551
0
CIRCLE
8
BLACK
10
7.44094
20
-3.50394
40
0.00590551
0
CIRCLE
8
BLACK
10
7.51969
20
-3.66142
40
0.00590551
0
CIRCLE
8
BLACK
10
7.28346
20
-4.84252
40
0.00590551
0
CIRCLE
8
BLACK
10
6.69291
20
-4.82283
40
0.00590551
0
CIRCLE
8
BLACK
10
5.70866
20
-3.24803
40
0.00590551
0
CIRCLE
8
BLACK
10
6.88976
20
-3.34646
40
0.00590551
0
CIRCLE
8
BLACK
10
7.04724
20
-4.80315
40
0.00590551
0
CIRCLE
8
BLACK
10
6.49606
20
-4.72441
40
0.00590551
0
CIRCLE
8
BLACK
10
6.5748
20
-4.44882
40
0.00590551
0
CIRCLE
8
BLACK
10
6.69291
20
-4.52756
40
0.00590551
0
CIRCLE
8
BLACK
10
7.20472
20
-3.62205
40
0.00590551
0
CIRCLE
8
BLACK
10
7.3622
20
-3.14961
40
0.00590551
0
CIRCLE
8
BLACK
10
7.20472
20
-3.46457
40
0.00590551
0
CIRCLE
8
BLACK
10
6.98819
20
-3.14961
40
0.00590551
0
CIRCLE
8
BLACK
10
7.20472
20
-3.77953
40
0.00590551
0
CIRCLE
8
BLACK
10
7.08661
20
-3.74016
40
0.00590551
0
CIRCLE
8
BLACK
10
7.59843
20
-4.25197
40
0.00590551
0
CIRCLE
8
BLACK
10
7.00787
20
-4.64567
40
0.00590551
0
CIRCLE
8
BLACK
10
6.61417
20
-4.52756
40
0.00590551
0
CIRCLE
8
BLACK
10
7.59843
20
-3.85827
40
0.00590551
0
CIRCLE
8
BLACK
10
7.20472
20
-4.25197
40
0.00590551
0
CIRCLE
8
BLACK
10
6.10236
20
-4.92126
40
0.00590551
0
CIRCLE
8
BLACK
10
6.88976
20
-4.44882
40
0.00590551
0
CIRCLE
8
BLACK
10
6.59449
20
-4.92126
40
0.00590551
0
CIRCLE
8
BLACK
10
6.00787
20
-4.49606
40
0.00590551
0
CIRCLE
8
BLACK
10
6.79134
20
-4.72441
40
0.00590551
0
CIRCLE
8
BLACK
10
6.87402
20
-4.09449
40
0.00590551
0
CIRCLE
8
BLACK
10
7.12598
20
-4.68504
40
0.00590551
0
CIRCLE
8
BLACK
10
7.59843
20
-4.56693
40
0.00590551
0
CIRCLE
8
BLACK
10
6.69291
20
-3.54331
40
0.00590551
0
CIRCLE
8
BLACK
10
7.04724
20
-5.03937
40
0.00590551
0
CIRCLE
8
BLACK
10
6.98819
20
-3.34646
40
0.00590551
0
CIRCLE
8
BLACK
10
6.61417
20
-4.01575
40
0.00590551
0
CIRCLE
8
BLACK
10
5.51181
20
-4.23228
40
0.00590551
0
CIRCLE
8
BLACK
10
6.49606
20
-4.82283
40
0.00590551
0
CIRCLE
8
BLACK
10
7.12598
20
-4.6063
40
0.00590551
0
CIRCLE
8
BLACK
10
7.28346
20
-3.54331
40
0.00590551
0
CIRCLE
8
BLACK
10
7.08661
20
-3.14961
40
0.00590551
0
CIRCLE
8
BLACK
10
5.51181
20
-4.52756
40
0.00590551
0
CIRCLE
8
BLACK
10
6.79134
20
-3.34646
40
0.00590551
0
CIRCLE
8
BLACK
10
7.04724
20
-4.88189
40
0.00590551
0
CIRCLE
8
BLACK
10
5.95276
20
-4.5748
40
0.00590551
0
CIRCLE
8
BLACK
10
6.10236
20
-3.14961
40
0.00590551
0
CIRCLE
8
BLACK
10
7.08661
20
-4.52756
40
0.00590551
0
CIRCLE
8
BLACK
10
6.59449
20
-4.62598
40
0.00590551
0
CIRCLE
8
BLACK
10
6.81102
20
-3.93701
40
0.00590551
0
CIRCLE
8
BLACK
10
7.16535
20
-4.29134
40
0.00590551
0
CIRCLE
8
BLACK
10
6.73228
20
-4.33071
40
0.00590551
0
CIRCLE
8
BLACK
10
5.51181
20
-4.03543
40
0.00590551
0
CIRCLE
8
BLACK
10
6.81102
20
-4.25197
40
0.00590551
0
CIRCLE
8
BLACK
10
7.16535
20
-4.09449
40
0.00590551
0
CIRCLE
8
BLACK
10
6.88976
20
-4.72441
40
0.00590551
0
CIRCLE
8
BLACK
10
6.00394
20
-4.92126
40
0.00590551
0
CIRCLE
8
BLACK
10
6.00394
20
-4.82283
40
0.00590551
0
CIRCLE
8
BLACK
10
6.39764
20
-4.92126
40
0.00590551
0
CIRCLE
8
BLACK
10
7.59843
20
-3.54331
40
0.00590551
0
CIRCLE
8
BLACK
10
7.12598
20
-4.25197
40
0.00590551
0
CIRCLE
8
BLACK
10
6.77165
20
-4.29134
40
0.00590551
0
CIRCLE
8
BLACK
10
6.3937
20
-4.19685
40
0.00590551
0
CIRCLE
8
BLACK
10
7.43307
20
-4.13386
40
0.00590551
0
CIRCLE
8
BLACK
10
7.59843
20
-3.93701
40
0.00590551
0
CIRCLE
8
BLACK
10
7.08661
20
-3.24803
40
0.00590551
0
CIRCLE
8
BLACK
10
7.24409
20
-4.20472
40
0.00590551
0
CIRCLE
8
BLACK
10
7.28346
20
-3.18898
40
0.00590551
0
CIRCLE
8
BLACK
10
6.72441
20
-4.19685
40
0.00590551
0
CIRCLE
8
BLACK
10
7.04724
20
-4.96063
40
0.00590551
0
CIRCLE
8
BLACK
10
7.51969
20
-3.54331
40
0.00590551
0
CIRCLE
8
BLACK
10
6.49606
20
-4.44882
40
0.00590551
0
CIRCLE
8
BLACK
10
7.20472
20
-3.93701
40
0.00590551
0
CIRCLE
8
BLACK
10
6.79134
20
-3.64173
40
0.00590551
0
CIRCLE
8
BLACK
10
7.59843
20
-4.17323
40
0.00590551
0
CIRCLE
8
BLACK
10
5.51181
20
-4.42913
40
0.00590551
0
CIRCLE
8
BLACK
10
6.85039
20
-4.52756
40
0.00590551
0
CIRCLE
8
BLACK
10
7.20472
20
-4.96063
40
0.00590551
0
CIRCLE
8
BLACK
10
5.61024
20
-4.42913
40
0.00590551
0
CIRCLE
8
BLACK
10
7.3622
20
-3.50394
40
0.00590551
0
CIRCLE
8
BLACK
10
6.98819
20
-3.54331
40
0.00590551
0
CIRCLE
8
BLACK
10
7.51969
20
-4.17323
40
0.00590551
0
CIRCLE
8
BLACK
10
7.24409
20
-4.09449
40
0.00590551
0
CIRCLE
8
BLACK
10
7.20472
20
-3.54331
40
0.00590551
0
CIRCLE
8
BLACK
10
5.80709
20
-3.24803
40
0.00590551
0
CIRCLE
8
BLACK
10
7.16535
20
-4.20472
40
0.00590551
0
CIRCLE
8
BLACK
10
5.80709
20
-4.92126
40
0.00590551
0
CIRCLE
8
BLACK
10
7.08661
20
-4.44882
40
0.00590551
0
CIRCLE
8
BLACK
10
5.80709
20
-4.52756
40
0.00590551
0
CIRCLE
8
BLACK
10
6.19685
20
-3.23622
40
0.00590551
0
CIRCLE
8
BLACK
10
7.12598
20
-5
40
0.00590551
0
CIRCLE
8
BLACK
10
7.32283
20
-4.20472
40
0.00590551
0
CIRCLE
8
BLACK
10
6.53543
20
-4.01575
40
0.00590551
0
CIRCLE
8
BLACK
10
6.88976
20
-3.44488
40
0.00590551
0
CIRCLE
8
BLACK
10
5.80709
20
-4.42913
40
0.00590551
0
CIRCLE
8
BLACK
10
7.51969
20
-3.6063
40
0.00590551
0
CIRCLE
8
BLACK
10
6.88976
20
-4.92126
40
0.00590551
0
CIRCLE
8
BLACK
10
6.39764
20
-3.83858
40
0.00590551
0
CIRCLE
8
BLACK
10
6.79134
20
-3.54331
40
0.00590551
0
CIRCLE
8
BLACK
10
7.59843
20
-4.64567
40
0.00590551
0
CIRCLE
8
BLACK
10
6.20079
20
-4.62598
40
0.00590551
0
CIRCLE
8
BLACK
10
7.04724
20
-4.72441
40
0.00590551
0
CIRCLE
8
BLACK
10
7.28346
20
-4.92126
40
0.00590551
0
CIRCLE
8
BLACK
10
7.00787
20
-4.09449
40
0.00590551
0
CIRCLE
8
BLACK
10
6.29921
20
-4.82283
40
0.00590551
0
CIRCLE
8
BLACK
10
6.77165
20
-4.01575
40
0.00590551
0
CIRCLE
8
BLACK
10
6.20079
20
-3.83858
40
0.00590551
0
CIRCLE
8
BLACK
10
6.49606
20
-4.07087
40
0.00590551
0
CIRCLE
8
BLACK
10
6.00394
20
-4.62598
40
0.00590551
0
CIRCLE
8
BLACK
10
5.90551
20
-3.24803
40
0.00590551
0
CIRCLE
8
BLACK
10
5.94488
20
-3.14961
40
0.00590551
0
CIRCLE
8
BLACK
10
6.59449
20
-3.83858
40
0.00590551
0
CIRCLE
8
BLACK
10
6.37795
20
-4.52756
40
0.00590551
0
CIRCLE
8
BLACK
10
6.49606
20
-4.62598
40
0.00590551
0
CIRCLE
8
BLACK
10
6.73228
20
-4.25197
40
0.00590551
0
CIRCLE
8
BLACK
10
7.20472
20
-4.88189
40
0.00590551
0
CIRCLE
8
BLACK
10
6.45669
20
-4.37008
40
0.00590551
0
CIRCLE
8
BLACK
10
6.65354
20
-4.19685
40
0.00590551
0
CIRCLE
8
BLACK
10
5.80709
20
-4.72441
40
0.00590551
0
CIRCLE
8
BLACK
10
7.3622
20
-4.76378
40
0.00590551
0
CIRCLE
8
BLACK
10
6.29921
20
-4.52756
40
0.00590551
0
CIRCLE
8
BLACK
10
6.88976
20
-3.24803
40
0.00590551
0
CIRCLE
8
BLACK
10
6.00394
20
-4.72441
40
0.00590551
0
CIRCLE
8
BLACK
10
7.12598
20
-4.76378
40
0.00590551
0
CIRCLE
8
BLACK
10
6.39764
20
-3.14961
40
0.00590551
0
CIRCLE
8
BLACK
10
6.37008
20
-3.89764
40
0.00590551
0
CIRCLE
8
BLACK
10
6.29921
20
-4.72441
40
0.00590551
0
CIRCLE
8
BLACK
10
6.20079
20
-3.14961
40
0.00590551
0
CIRCLE
8
BLACK
10
6.29921
20
-3.23622
40
0.00590551
0
CIRCLE
8
BLACK
10
7.20472
20
-3.70079
40
0.00590551
0
CIRCLE
8
BLACK
10
7.12598
20
-4.92126
40
0.00590551
0
CIRCLE
8
BLACK
10
5.90551
20
-4.62598
40
0.00590551
0
CIRCLE
8
BLACK
10
7.59843
20
-4.09449
40
0.00590551
0
CIRCLE
8
BLACK
10
5.41339
20
-4.72441
40
0.00590551
0
CIRCLE
8
BLACK
10
5.41339
20
-4.62598
40
0.00590551
0
CIRCLE
8
BLACK
10
6.88976
20
-3.64173
40
0.00590551
0
CIRCLE
8
BLACK
10
7.08661
20
-4.09449
40
0.00590551
0
CIRCLE
8
BLACK
10
5.61024
20
-4.52756
40
0.00590551
0
CIRCLE
8
BLACK
10
7.08661
20
-3.64173
40
0.00590551
0
CIRCLE
8
BLACK
10
6.81102
20
-4.33071
40
0.00590551
0
CIRCLE
8
BLACK
10
7.08661
20
-3.93701
40
0.00590551
0
CIRCLE
8
BLACK
10
6.45
20
-3.31
40
0.00590551
0
CIRCLE
8
BLACK
10
6.0315
20
-3.96063
40
0.00590551
0
CIRCLE
8
BLACK
10
6.11024
20
-4.30709
40
0.00590551
0
CIRCLE
8
BLACK
10
5.91339
20
-4.14961
40
0.00590551
0
CIRCLE
8
BLACK
10
5.91338
20
-3.96063
40
0.00590551
0
CIRCLE
8
BLACK
10
6.25984
20
-3.40945
40
0.00590551
0
CIRCLE
8
BLACK
10
6.2126
20
-3.38189
40
0.00590551
0
CIRCLE
8
BLACK
10
5.88189
20
-4.01575
40
0.00590551
0
CIRCLE
8
BLACK
10
5.95447
20
-4.30709
40
0.00590551
  0
ENDSEC
  0
EOF
