  0
SECTION
  2
HEADER
  9
$ANGBASE
  50
0.0
  9
$ANGDIR
  70
1
  9
$MEASUREMENT
  70
0
  0
ENDSEC
  0
SECTION
  2
TABLES
  0
TABLE
  2
LTYPE
  70
4
  0
LTYPE
  5
40F
  2
CONTINUOUS
  70
0
  3
Solid line
  72
65
  73
0
  40
0.0
  0
LTYPE
  5
410
  2
DASHDOT
 70
0
  3
Dash Dot ____ _ ____ _
 72
65
 73
4
 40
2.0
 49
1.25
 49
-0.25
 49
0.25
 49
-0.25
  0
LTYPE
  5
411
  2
DASHED
 70
0
  3
Dashed __ __ __ __ __
 72
65
 73
2
 40
0.75
 49
0.5
 49
-0.25
  0
LTYPE
  5
43B
  2
DOTTED
 70
0
  3
Dotted .  .  .  .
 72
65
 73
2
 40
0.2
 49
0.0
 49
-0.2
  0
ENDTAB
  0
TABLE
  2
STYLE
  70
4
  0
STYLE
  2
KICAD
  70
0
  40
0
  41
1
  42
1
  50
0
  71
0
  3
isocp.shx
  0
STYLE
  2
KICADB
  70
0
  40
0
  41
1
  42
1
  50
0
  71
0
  3
isocp.shx
  0
STYLE
  2
KICADI
  70
0
  40
0
  41
1
  42
1
  50
15
  71
0
  3
isocp.shx
  0
STYLE
  2
KICADBI
  70
0
  40
0
  41
1
  42
1
  50
15
  71
0
  3
isocp.shx
  0
ENDTAB
  0
TABLE
  2
LAYER
  70
1
  0
LAYER
  2
BLACK
  70
0
  62
7
  6
CONTINUOUS
  0
ENDTAB
  0
ENDSEC
  0
SECTION
  2
ENTITIES
0
LINE
8
BLACK
6
CONTINUOUS
10
5.52051
20
-4.78368
11
5.53387
21
-4.78685
0
LINE
8
BLACK
6
CONTINUOUS
10
5.53387
20
-4.78685
11
5.54678
21
-4.79155
0
LINE
8
BLACK
6
CONTINUOUS
10
5.54678
20
-4.79155
11
5.55906
21
-4.79771
0
LINE
8
BLACK
6
CONTINUOUS
10
5.55906
20
-4.79771
11
5.57053
21
-4.80526
0
LINE
8
BLACK
6
CONTINUOUS
10
5.57053
20
-4.80526
11
5.58105
21
-4.81409
0
LINE
8
BLACK
6
CONTINUOUS
10
5.58105
20
-4.81409
11
5.59048
21
-4.82408
0
LINE
8
BLACK
6
CONTINUOUS
10
5.59048
20
-4.82408
11
5.59868
21
-4.8351
0
LINE
8
BLACK
6
CONTINUOUS
10
5.59868
20
-4.8351
11
5.60555
21
-4.84699
0
LINE
8
BLACK
6
CONTINUOUS
10
5.60555
20
-4.84699
11
5.61099
21
-4.8596
0
LINE
8
BLACK
6
CONTINUOUS
10
5.61099
20
-4.8596
11
5.61493
21
-4.87276
0
LINE
8
BLACK
6
CONTINUOUS
10
5.61493
20
-4.87276
11
5.61731
21
-4.88629
0
LINE
8
BLACK
6
CONTINUOUS
10
5.61731
20
-4.88629
11
5.61811
21
-4.9
0
LINE
8
BLACK
6
CONTINUOUS
10
5.61811
20
-4.9
11
5.61731
21
-4.91371
0
LINE
8
BLACK
6
CONTINUOUS
10
5.61731
20
-4.91371
11
5.61493
21
-4.92724
0
LINE
8
BLACK
6
CONTINUOUS
10
5.61493
20
-4.92724
11
5.61099
21
-4.9404
0
LINE
8
BLACK
6
CONTINUOUS
10
5.61099
20
-4.9404
11
5.60555
21
-4.95301
0
LINE
8
BLACK
6
CONTINUOUS
10
5.60555
20
-4.95301
11
5.59868
21
-4.9649
0
LINE
8
BLACK
6
CONTINUOUS
10
5.59868
20
-4.9649
11
5.59048
21
-4.97592
0
LINE
8
BLACK
6
CONTINUOUS
10
5.59048
20
-4.97592
11
5.58105
21
-4.98591
0
LINE
8
BLACK
6
CONTINUOUS
10
5.58105
20
-4.98591
11
5.57053
21
-4.99474
0
LINE
8
BLACK
6
CONTINUOUS
10
5.57053
20
-4.99474
11
5.55906
21
-5.00229
0
LINE
8
BLACK
6
CONTINUOUS
10
5.55906
20
-5.00229
11
5.54678
21
-5.00845
0
LINE
8
BLACK
6
CONTINUOUS
10
5.54678
20
-5.00845
11
5.53387
21
-5.01315
0
LINE
8
BLACK
6
CONTINUOUS
10
5.53387
20
-5.01315
11
5.52051
21
-5.01632
0
LINE
8
BLACK
6
CONTINUOUS
10
5.52051
20
-5.01632
11
5.50687
21
-5.01791
0
LINE
8
BLACK
6
CONTINUOUS
10
5.50687
20
-5.01791
11
5.49313
21
-5.01791
0
LINE
8
BLACK
6
CONTINUOUS
10
5.49313
20
-5.01791
11
5.47949
21
-5.01632
0
LINE
8
BLACK
6
CONTINUOUS
10
5.47949
20
-5.01632
11
5.46613
21
-5.01315
0
LINE
8
BLACK
6
CONTINUOUS
10
5.46613
20
-5.01315
11
5.45322
21
-5.00845
0
LINE
8
BLACK
6
CONTINUOUS
10
5.45322
20
-5.00845
11
5.44094
21
-5.00229
0
LINE
8
BLACK
6
CONTINUOUS
10
5.44094
20
-5.00229
11
5.42947
21
-4.99474
0
LINE
8
BLACK
6
CONTINUOUS
10
5.42947
20
-4.99474
11
5.41895
21
-4.98591
0
LINE
8
BLACK
6
CONTINUOUS
10
5.41895
20
-4.98591
11
5.40952
21
-4.97592
0
LINE
8
BLACK
6
CONTINUOUS
10
5.40952
20
-4.97592
11
5.40132
21
-4.9649
0
LINE
8
BLACK
6
CONTINUOUS
10
5.40132
20
-4.9649
11
5.39445
21
-4.95301
0
LINE
8
BLACK
6
CONTINUOUS
10
5.39445
20
-4.95301
11
5.38901
21
-4.9404
0
LINE
8
BLACK
6
CONTINUOUS
10
5.38901
20
-4.9404
11
5.38507
21
-4.92724
0
LINE
8
BLACK
6
CONTINUOUS
10
5.38507
20
-4.92724
11
5.38269
21
-4.91371
0
LINE
8
BLACK
6
CONTINUOUS
10
5.38269
20
-4.91371
11
5.38189
21
-4.9
0
LINE
8
BLACK
6
CONTINUOUS
10
5.38189
20
-4.9
11
5.38269
21
-4.88629
0
LINE
8
BLACK
6
CONTINUOUS
10
5.38269
20
-4.88629
11
5.38507
21
-4.87276
0
LINE
8
BLACK
6
CONTINUOUS
10
5.38507
20
-4.87276
11
5.38901
21
-4.8596
0
LINE
8
BLACK
6
CONTINUOUS
10
5.38901
20
-4.8596
11
5.39445
21
-4.84699
0
LINE
8
BLACK
6
CONTINUOUS
10
5.39445
20
-4.84699
11
5.40132
21
-4.8351
0
LINE
8
BLACK
6
CONTINUOUS
10
5.40132
20
-4.8351
11
5.40952
21
-4.82408
0
LINE
8
BLACK
6
CONTINUOUS
10
5.40952
20
-4.82408
11
5.41895
21
-4.81409
0
LINE
8
BLACK
6
CONTINUOUS
10
5.41895
20
-4.81409
11
5.42947
21
-4.80526
0
LINE
8
BLACK
6
CONTINUOUS
10
5.42947
20
-4.80526
11
5.44094
21
-4.79771
0
LINE
8
BLACK
6
CONTINUOUS
10
5.44094
20
-4.79771
11
5.45322
21
-4.79155
0
LINE
8
BLACK
6
CONTINUOUS
10
5.45322
20
-4.79155
11
5.46613
21
-4.78685
0
LINE
8
BLACK
6
CONTINUOUS
10
5.46613
20
-4.78685
11
5.47949
21
-4.78368
0
LINE
8
BLACK
6
CONTINUOUS
10
5.47949
20
-4.78368
11
5.49313
21
-4.78209
0
LINE
8
BLACK
6
CONTINUOUS
10
5.49313
20
-4.78209
11
5.50687
21
-4.78209
0
LINE
8
BLACK
6
CONTINUOUS
10
5.50687
20
-4.78209
11
5.52051
21
-4.78368
0
LINE
8
BLACK
6
CONTINUOUS
10
7.12051
20
-4.78368
11
7.13387
21
-4.78685
0
LINE
8
BLACK
6
CONTINUOUS
10
7.13387
20
-4.78685
11
7.14678
21
-4.79155
0
LINE
8
BLACK
6
CONTINUOUS
10
7.14678
20
-4.79155
11
7.15906
21
-4.79771
0
LINE
8
BLACK
6
CONTINUOUS
10
7.15906
20
-4.79771
11
7.17053
21
-4.80526
0
LINE
8
BLACK
6
CONTINUOUS
10
7.17053
20
-4.80526
11
7.18105
21
-4.81409
0
LINE
8
BLACK
6
CONTINUOUS
10
7.18105
20
-4.81409
11
7.19048
21
-4.82408
0
LINE
8
BLACK
6
CONTINUOUS
10
7.19048
20
-4.82408
11
7.19868
21
-4.8351
0
LINE
8
BLACK
6
CONTINUOUS
10
7.19868
20
-4.8351
11
7.20555
21
-4.84699
0
LINE
8
BLACK
6
CONTINUOUS
10
7.20555
20
-4.84699
11
7.21099
21
-4.8596
0
LINE
8
BLACK
6
CONTINUOUS
10
7.21099
20
-4.8596
11
7.21493
21
-4.87276
0
LINE
8
BLACK
6
CONTINUOUS
10
7.21493
20
-4.87276
11
7.21731
21
-4.88629
0
LINE
8
BLACK
6
CONTINUOUS
10
7.21731
20
-4.88629
11
7.21811
21
-4.9
0
LINE
8
BLACK
6
CONTINUOUS
10
7.21811
20
-4.9
11
7.21731
21
-4.91371
0
LINE
8
BLACK
6
CONTINUOUS
10
7.21731
20
-4.91371
11
7.21493
21
-4.92724
0
LINE
8
BLACK
6
CONTINUOUS
10
7.21493
20
-4.92724
11
7.21099
21
-4.9404
0
LINE
8
BLACK
6
CONTINUOUS
10
7.21099
20
-4.9404
11
7.20555
21
-4.95301
0
LINE
8
BLACK
6
CONTINUOUS
10
7.20555
20
-4.95301
11
7.19868
21
-4.9649
0
LINE
8
BLACK
6
CONTINUOUS
10
7.19868
20
-4.9649
11
7.19048
21
-4.97592
0
LINE
8
BLACK
6
CONTINUOUS
10
7.19048
20
-4.97592
11
7.18105
21
-4.98591
0
LINE
8
BLACK
6
CONTINUOUS
10
7.18105
20
-4.98591
11
7.17053
21
-4.99474
0
LINE
8
BLACK
6
CONTINUOUS
10
7.17053
20
-4.99474
11
7.15906
21
-5.00229
0
LINE
8
BLACK
6
CONTINUOUS
10
7.15906
20
-5.00229
11
7.14678
21
-5.00845
0
LINE
8
BLACK
6
CONTINUOUS
10
7.14678
20
-5.00845
11
7.13387
21
-5.01315
0
LINE
8
BLACK
6
CONTINUOUS
10
7.13387
20
-5.01315
11
7.12051
21
-5.01632
0
LINE
8
BLACK
6
CONTINUOUS
10
7.12051
20
-5.01632
11
7.10687
21
-5.01791
0
LINE
8
BLACK
6
CONTINUOUS
10
7.10687
20
-5.01791
11
7.09313
21
-5.01791
0
LINE
8
BLACK
6
CONTINUOUS
10
7.09313
20
-5.01791
11
7.07949
21
-5.01632
0
LINE
8
BLACK
6
CONTINUOUS
10
7.07949
20
-5.01632
11
7.06613
21
-5.01315
0
LINE
8
BLACK
6
CONTINUOUS
10
7.06613
20
-5.01315
11
7.05322
21
-5.00845
0
LINE
8
BLACK
6
CONTINUOUS
10
7.05322
20
-5.00845
11
7.04094
21
-5.00229
0
LINE
8
BLACK
6
CONTINUOUS
10
7.04094
20
-5.00229
11
7.02947
21
-4.99474
0
LINE
8
BLACK
6
CONTINUOUS
10
7.02947
20
-4.99474
11
7.01895
21
-4.98591
0
LINE
8
BLACK
6
CONTINUOUS
10
7.01895
20
-4.98591
11
7.00952
21
-4.97592
0
LINE
8
BLACK
6
CONTINUOUS
10
7.00952
20
-4.97592
11
7.00132
21
-4.9649
0
LINE
8
BLACK
6
CONTINUOUS
10
7.00132
20
-4.9649
11
6.99445
21
-4.95301
0
LINE
8
BLACK
6
CONTINUOUS
10
6.99445
20
-4.95301
11
6.98901
21
-4.9404
0
LINE
8
BLACK
6
CONTINUOUS
10
6.98901
20
-4.9404
11
6.98507
21
-4.92724
0
LINE
8
BLACK
6
CONTINUOUS
10
6.98507
20
-4.92724
11
6.98269
21
-4.91371
0
LINE
8
BLACK
6
CONTINUOUS
10
6.98269
20
-4.91371
11
6.98189
21
-4.9
0
LINE
8
BLACK
6
CONTINUOUS
10
6.98189
20
-4.9
11
6.98269
21
-4.88629
0
LINE
8
BLACK
6
CONTINUOUS
10
6.98269
20
-4.88629
11
6.98507
21
-4.87276
0
LINE
8
BLACK
6
CONTINUOUS
10
6.98507
20
-4.87276
11
6.98901
21
-4.8596
0
LINE
8
BLACK
6
CONTINUOUS
10
6.98901
20
-4.8596
11
6.99445
21
-4.84699
0
LINE
8
BLACK
6
CONTINUOUS
10
6.99445
20
-4.84699
11
7.00132
21
-4.8351
0
LINE
8
BLACK
6
CONTINUOUS
10
7.00132
20
-4.8351
11
7.00952
21
-4.82408
0
LINE
8
BLACK
6
CONTINUOUS
10
7.00952
20
-4.82408
11
7.01895
21
-4.81409
0
LINE
8
BLACK
6
CONTINUOUS
10
7.01895
20
-4.81409
11
7.02947
21
-4.80526
0
LINE
8
BLACK
6
CONTINUOUS
10
7.02947
20
-4.80526
11
7.04094
21
-4.79771
0
LINE
8
BLACK
6
CONTINUOUS
10
7.04094
20
-4.79771
11
7.05322
21
-4.79155
0
LINE
8
BLACK
6
CONTINUOUS
10
7.05322
20
-4.79155
11
7.06613
21
-4.78685
0
LINE
8
BLACK
6
CONTINUOUS
10
7.06613
20
-4.78685
11
7.07949
21
-4.78368
0
LINE
8
BLACK
6
CONTINUOUS
10
7.07949
20
-4.78368
11
7.09313
21
-4.78209
0
LINE
8
BLACK
6
CONTINUOUS
10
7.09313
20
-4.78209
11
7.10687
21
-4.78209
0
LINE
8
BLACK
6
CONTINUOUS
10
7.10687
20
-4.78209
11
7.12051
21
-4.78368
0
LINE
8
BLACK
6
CONTINUOUS
10
5.46
20
-4.71
11
5.4
21
-4.71
0
LINE
8
BLACK
6
CONTINUOUS
10
5.4
20
-4.71
11
5.4
21
-4.65
0
LINE
8
BLACK
6
CONTINUOUS
10
5.4
20
-4.65
11
5.46
21
-4.65
0
LINE
8
BLACK
6
CONTINUOUS
10
5.46
20
-4.65
11
5.46
21
-4.71
0
LINE
8
BLACK
6
CONTINUOUS
10
5.56
20
-4.71
11
5.5
21
-4.71
0
LINE
8
BLACK
6
CONTINUOUS
10
5.5
20
-4.71
11
5.5
21
-4.65
0
LINE
8
BLACK
6
CONTINUOUS
10
5.5
20
-4.65
11
5.56
21
-4.65
0
LINE
8
BLACK
6
CONTINUOUS
10
5.56
20
-4.65
11
5.56
21
-4.71
0
LINE
8
BLACK
6
CONTINUOUS
10
6.97123
20
-4.54766
11
6.98018
21
-4.55006
0
LINE
8
BLACK
6
CONTINUOUS
10
6.98018
20
-4.55006
11
6.98857
21
-4.55397
0
LINE
8
BLACK
6
CONTINUOUS
10
6.98857
20
-4.55397
11
6.99616
21
-4.55929
0
LINE
8
BLACK
6
CONTINUOUS
10
6.99616
20
-4.55929
11
7.00271
21
-4.56584
0
LINE
8
BLACK
6
CONTINUOUS
10
7.00271
20
-4.56584
11
7.00803
21
-4.57343
0
LINE
8
BLACK
6
CONTINUOUS
10
7.00803
20
-4.57343
11
7.01194
21
-4.58182
0
LINE
8
BLACK
6
CONTINUOUS
10
7.01194
20
-4.58182
11
7.01434
21
-4.59077
0
LINE
8
BLACK
6
CONTINUOUS
10
7.01434
20
-4.59077
11
7.01515
21
-4.6
0
LINE
8
BLACK
6
CONTINUOUS
10
7.01515
20
-4.6
11
7.01434
21
-4.60923
0
LINE
8
BLACK
6
CONTINUOUS
10
7.01434
20
-4.60923
11
7.01194
21
-4.61818
0
LINE
8
BLACK
6
CONTINUOUS
10
7.01194
20
-4.61818
11
7.00803
21
-4.62657
0
LINE
8
BLACK
6
CONTINUOUS
10
7.00803
20
-4.62657
11
7.00271
21
-4.63416
0
LINE
8
BLACK
6
CONTINUOUS
10
7.00271
20
-4.63416
11
6.99616
21
-4.64071
0
LINE
8
BLACK
6
CONTINUOUS
10
6.99616
20
-4.64071
11
6.98857
21
-4.64603
0
LINE
8
BLACK
6
CONTINUOUS
10
6.98857
20
-4.64603
11
6.98018
21
-4.64994
0
LINE
8
BLACK
6
CONTINUOUS
10
6.98018
20
-4.64994
11
6.97123
21
-4.65234
0
LINE
8
BLACK
6
CONTINUOUS
10
6.97123
20
-4.65234
11
6.962
21
-4.65315
0
LINE
8
BLACK
6
CONTINUOUS
10
6.962
20
-4.65315
11
6.95277
21
-4.65234
0
LINE
8
BLACK
6
CONTINUOUS
10
6.95277
20
-4.65234
11
6.94382
21
-4.64994
0
LINE
8
BLACK
6
CONTINUOUS
10
6.94382
20
-4.64994
11
6.93543
21
-4.64603
0
LINE
8
BLACK
6
CONTINUOUS
10
6.93543
20
-4.64603
11
6.92784
21
-4.64071
0
LINE
8
BLACK
6
CONTINUOUS
10
6.92784
20
-4.64071
11
6.92129
21
-4.63416
0
LINE
8
BLACK
6
CONTINUOUS
10
6.92129
20
-4.63416
11
6.91597
21
-4.62657
0
LINE
8
BLACK
6
CONTINUOUS
10
6.91597
20
-4.62657
11
6.91206
21
-4.61818
0
LINE
8
BLACK
6
CONTINUOUS
10
6.91206
20
-4.61818
11
6.90966
21
-4.60923
0
LINE
8
BLACK
6
CONTINUOUS
10
6.90966
20
-4.60923
11
6.90885
21
-4.6
0
LINE
8
BLACK
6
CONTINUOUS
10
6.90885
20
-4.6
11
6.90966
21
-4.59077
0
LINE
8
BLACK
6
CONTINUOUS
10
6.90966
20
-4.59077
11
6.91206
21
-4.58182
0
LINE
8
BLACK
6
CONTINUOUS
10
6.91206
20
-4.58182
11
6.91597
21
-4.57343
0
LINE
8
BLACK
6
CONTINUOUS
10
6.91597
20
-4.57343
11
6.92129
21
-4.56584
0
LINE
8
BLACK
6
CONTINUOUS
10
6.92129
20
-4.56584
11
6.92784
21
-4.55929
0
LINE
8
BLACK
6
CONTINUOUS
10
6.92784
20
-4.55929
11
6.93543
21
-4.55397
0
LINE
8
BLACK
6
CONTINUOUS
10
6.93543
20
-4.55397
11
6.94382
21
-4.55006
0
LINE
8
BLACK
6
CONTINUOUS
10
6.94382
20
-4.55006
11
6.95277
21
-4.54766
0
LINE
8
BLACK
6
CONTINUOUS
10
6.95277
20
-4.54766
11
6.962
21
-4.54685
0
LINE
8
BLACK
6
CONTINUOUS
10
6.962
20
-4.54685
11
6.97123
21
-4.54766
0
LINE
8
BLACK
6
CONTINUOUS
10
7.17123
20
-4.54766
11
7.18018
21
-4.55006
0
LINE
8
BLACK
6
CONTINUOUS
10
7.18018
20
-4.55006
11
7.18857
21
-4.55397
0
LINE
8
BLACK
6
CONTINUOUS
10
7.18857
20
-4.55397
11
7.19616
21
-4.55929
0
LINE
8
BLACK
6
CONTINUOUS
10
7.19616
20
-4.55929
11
7.20271
21
-4.56584
0
LINE
8
BLACK
6
CONTINUOUS
10
7.20271
20
-4.56584
11
7.20803
21
-4.57343
0
LINE
8
BLACK
6
CONTINUOUS
10
7.20803
20
-4.57343
11
7.21194
21
-4.58182
0
LINE
8
BLACK
6
CONTINUOUS
10
7.21194
20
-4.58182
11
7.21434
21
-4.59077
0
LINE
8
BLACK
6
CONTINUOUS
10
7.21434
20
-4.59077
11
7.21515
21
-4.6
0
LINE
8
BLACK
6
CONTINUOUS
10
7.21515
20
-4.6
11
7.21434
21
-4.60923
0
LINE
8
BLACK
6
CONTINUOUS
10
7.21434
20
-4.60923
11
7.21194
21
-4.61818
0
LINE
8
BLACK
6
CONTINUOUS
10
7.21194
20
-4.61818
11
7.20803
21
-4.62657
0
LINE
8
BLACK
6
CONTINUOUS
10
7.20803
20
-4.62657
11
7.20271
21
-4.63416
0
LINE
8
BLACK
6
CONTINUOUS
10
7.20271
20
-4.63416
11
7.19616
21
-4.64071
0
LINE
8
BLACK
6
CONTINUOUS
10
7.19616
20
-4.64071
11
7.18857
21
-4.64603
0
LINE
8
BLACK
6
CONTINUOUS
10
7.18857
20
-4.64603
11
7.18018
21
-4.64994
0
LINE
8
BLACK
6
CONTINUOUS
10
7.18018
20
-4.64994
11
7.17123
21
-4.65234
0
LINE
8
BLACK
6
CONTINUOUS
10
7.17123
20
-4.65234
11
7.162
21
-4.65315
0
LINE
8
BLACK
6
CONTINUOUS
10
7.162
20
-4.65315
11
7.15277
21
-4.65234
0
LINE
8
BLACK
6
CONTINUOUS
10
7.15277
20
-4.65234
11
7.14382
21
-4.64994
0
LINE
8
BLACK
6
CONTINUOUS
10
7.14382
20
-4.64994
11
7.13543
21
-4.64603
0
LINE
8
BLACK
6
CONTINUOUS
10
7.13543
20
-4.64603
11
7.12784
21
-4.64071
0
LINE
8
BLACK
6
CONTINUOUS
10
7.12784
20
-4.64071
11
7.12129
21
-4.63416
0
LINE
8
BLACK
6
CONTINUOUS
10
7.12129
20
-4.63416
11
7.11597
21
-4.62657
0
LINE
8
BLACK
6
CONTINUOUS
10
7.11597
20
-4.62657
11
7.11206
21
-4.61818
0
LINE
8
BLACK
6
CONTINUOUS
10
7.11206
20
-4.61818
11
7.10966
21
-4.60923
0
LINE
8
BLACK
6
CONTINUOUS
10
7.10966
20
-4.60923
11
7.10885
21
-4.6
0
LINE
8
BLACK
6
CONTINUOUS
10
7.10885
20
-4.6
11
7.10966
21
-4.59077
0
LINE
8
BLACK
6
CONTINUOUS
10
7.10966
20
-4.59077
11
7.11206
21
-4.58182
0
LINE
8
BLACK
6
CONTINUOUS
10
7.11206
20
-4.58182
11
7.11597
21
-4.57343
0
LINE
8
BLACK
6
CONTINUOUS
10
7.11597
20
-4.57343
11
7.12129
21
-4.56584
0
LINE
8
BLACK
6
CONTINUOUS
10
7.12129
20
-4.56584
11
7.12784
21
-4.55929
0
LINE
8
BLACK
6
CONTINUOUS
10
7.12784
20
-4.55929
11
7.13543
21
-4.55397
0
LINE
8
BLACK
6
CONTINUOUS
10
7.13543
20
-4.55397
11
7.14382
21
-4.55006
0
LINE
8
BLACK
6
CONTINUOUS
10
7.14382
20
-4.55006
11
7.15277
21
-4.54766
0
LINE
8
BLACK
6
CONTINUOUS
10
7.15277
20
-4.54766
11
7.162
21
-4.54685
0
LINE
8
BLACK
6
CONTINUOUS
10
7.162
20
-4.54685
11
7.17123
21
-4.54766
0
LINE
8
BLACK
6
CONTINUOUS
10
5.46
20
-4.61
11
5.4
21
-4.61
0
LINE
8
BLACK
6
CONTINUOUS
10
5.4
20
-4.61
11
5.4
21
-4.55
0
LINE
8
BLACK
6
CONTINUOUS
10
5.4
20
-4.55
11
5.46
21
-4.55
0
LINE
8
BLACK
6
CONTINUOUS
10
5.46
20
-4.55
11
5.46
21
-4.61
0
LINE
8
BLACK
6
CONTINUOUS
10
5.56
20
-4.61
11
5.5
21
-4.61
0
LINE
8
BLACK
6
CONTINUOUS
10
5.5
20
-4.61
11
5.5
21
-4.55
0
LINE
8
BLACK
6
CONTINUOUS
10
5.5
20
-4.55
11
5.56
21
-4.55
0
LINE
8
BLACK
6
CONTINUOUS
10
5.56
20
-4.55
11
5.56
21
-4.61
0
LINE
8
BLACK
6
CONTINUOUS
10
7.07055
20
-4.45154
11
7.07883
21
-4.45376
0
LINE
8
BLACK
6
CONTINUOUS
10
7.07883
20
-4.45376
11
7.08661
21
-4.45738
0
LINE
8
BLACK
6
CONTINUOUS
10
7.08661
20
-4.45738
11
7.09363
21
-4.4623
0
LINE
8
BLACK
6
CONTINUOUS
10
7.09363
20
-4.4623
11
7.0997
21
-4.46837
0
LINE
8
BLACK
6
CONTINUOUS
10
7.0997
20
-4.46837
11
7.10462
21
-4.47539
0
LINE
8
BLACK
6
CONTINUOUS
10
7.10462
20
-4.47539
11
7.10824
21
-4.48317
0
LINE
8
BLACK
6
CONTINUOUS
10
7.10824
20
-4.48317
11
7.11046
21
-4.49145
0
LINE
8
BLACK
6
CONTINUOUS
10
7.11046
20
-4.49145
11
7.11121
21
-4.5
0
LINE
8
BLACK
6
CONTINUOUS
10
7.11121
20
-4.5
11
7.11046
21
-4.50855
0
LINE
8
BLACK
6
CONTINUOUS
10
7.11046
20
-4.50855
11
7.10824
21
-4.51683
0
LINE
8
BLACK
6
CONTINUOUS
10
7.10824
20
-4.51683
11
7.10462
21
-4.52461
0
LINE
8
BLACK
6
CONTINUOUS
10
7.10462
20
-4.52461
11
7.0997
21
-4.53163
0
LINE
8
BLACK
6
CONTINUOUS
10
7.0997
20
-4.53163
11
7.09363
21
-4.5377
0
LINE
8
BLACK
6
CONTINUOUS
10
7.09363
20
-4.5377
11
7.08661
21
-4.54262
0
LINE
8
BLACK
6
CONTINUOUS
10
7.08661
20
-4.54262
11
7.07883
21
-4.54624
0
LINE
8
BLACK
6
CONTINUOUS
10
7.07883
20
-4.54624
11
7.07055
21
-4.54846
0
LINE
8
BLACK
6
CONTINUOUS
10
7.07055
20
-4.54846
11
7.062
21
-4.54921
0
LINE
8
BLACK
6
CONTINUOUS
10
7.062
20
-4.54921
11
7.05345
21
-4.54846
0
LINE
8
BLACK
6
CONTINUOUS
10
7.05345
20
-4.54846
11
7.04517
21
-4.54624
0
LINE
8
BLACK
6
CONTINUOUS
10
7.04517
20
-4.54624
11
7.03739
21
-4.54262
0
LINE
8
BLACK
6
CONTINUOUS
10
7.03739
20
-4.54262
11
7.03037
21
-4.5377
0
LINE
8
BLACK
6
CONTINUOUS
10
7.03037
20
-4.5377
11
7.0243
21
-4.53163
0
LINE
8
BLACK
6
CONTINUOUS
10
7.0243
20
-4.53163
11
7.01938
21
-4.52461
0
LINE
8
BLACK
6
CONTINUOUS
10
7.01938
20
-4.52461
11
7.01576
21
-4.51683
0
LINE
8
BLACK
6
CONTINUOUS
10
7.01576
20
-4.51683
11
7.01354
21
-4.50855
0
LINE
8
BLACK
6
CONTINUOUS
10
7.01354
20
-4.50855
11
7.01279
21
-4.5
0
LINE
8
BLACK
6
CONTINUOUS
10
7.01279
20
-4.5
11
7.01354
21
-4.49145
0
LINE
8
BLACK
6
CONTINUOUS
10
7.01354
20
-4.49145
11
7.01576
21
-4.48317
0
LINE
8
BLACK
6
CONTINUOUS
10
7.01576
20
-4.48317
11
7.01938
21
-4.47539
0
LINE
8
BLACK
6
CONTINUOUS
10
7.01938
20
-4.47539
11
7.0243
21
-4.46837
0
LINE
8
BLACK
6
CONTINUOUS
10
7.0243
20
-4.46837
11
7.03037
21
-4.4623
0
LINE
8
BLACK
6
CONTINUOUS
10
7.03037
20
-4.4623
11
7.03739
21
-4.45738
0
LINE
8
BLACK
6
CONTINUOUS
10
7.03739
20
-4.45738
11
7.04517
21
-4.45376
0
LINE
8
BLACK
6
CONTINUOUS
10
7.04517
20
-4.45376
11
7.05345
21
-4.45154
0
LINE
8
BLACK
6
CONTINUOUS
10
7.05345
20
-4.45154
11
7.062
21
-4.45079
0
LINE
8
BLACK
6
CONTINUOUS
10
7.062
20
-4.45079
11
7.07055
21
-4.45154
0
LINE
8
BLACK
6
CONTINUOUS
10
5.46
20
-4.51
11
5.4
21
-4.51
0
LINE
8
BLACK
6
CONTINUOUS
10
5.4
20
-4.51
11
5.4
21
-4.45
0
LINE
8
BLACK
6
CONTINUOUS
10
5.4
20
-4.45
11
5.46
21
-4.45
0
LINE
8
BLACK
6
CONTINUOUS
10
5.46
20
-4.45
11
5.46
21
-4.51
0
LINE
8
BLACK
6
CONTINUOUS
10
5.56
20
-4.51
11
5.5
21
-4.51
0
LINE
8
BLACK
6
CONTINUOUS
10
5.5
20
-4.51
11
5.5
21
-4.45
0
LINE
8
BLACK
6
CONTINUOUS
10
5.5
20
-4.45
11
5.56
21
-4.45
0
LINE
8
BLACK
6
CONTINUOUS
10
5.56
20
-4.45
11
5.56
21
-4.51
0
LINE
8
BLACK
6
CONTINUOUS
10
6.97123
20
-4.34766
11
6.98018
21
-4.35006
0
LINE
8
BLACK
6
CONTINUOUS
10
6.98018
20
-4.35006
11
6.98857
21
-4.35397
0
LINE
8
BLACK
6
CONTINUOUS
10
6.98857
20
-4.35397
11
6.99616
21
-4.35929
0
LINE
8
BLACK
6
CONTINUOUS
10
6.99616
20
-4.35929
11
7.00271
21
-4.36584
0
LINE
8
BLACK
6
CONTINUOUS
10
7.00271
20
-4.36584
11
7.00803
21
-4.37343
0
LINE
8
BLACK
6
CONTINUOUS
10
7.00803
20
-4.37343
11
7.01194
21
-4.38182
0
LINE
8
BLACK
6
CONTINUOUS
10
7.01194
20
-4.38182
11
7.01434
21
-4.39077
0
LINE
8
BLACK
6
CONTINUOUS
10
7.01434
20
-4.39077
11
7.01515
21
-4.4
0
LINE
8
BLACK
6
CONTINUOUS
10
7.01515
20
-4.4
11
7.01434
21
-4.40923
0
LINE
8
BLACK
6
CONTINUOUS
10
7.01434
20
-4.40923
11
7.01194
21
-4.41818
0
LINE
8
BLACK
6
CONTINUOUS
10
7.01194
20
-4.41818
11
7.00803
21
-4.42657
0
LINE
8
BLACK
6
CONTINUOUS
10
7.00803
20
-4.42657
11
7.00271
21
-4.43416
0
LINE
8
BLACK
6
CONTINUOUS
10
7.00271
20
-4.43416
11
6.99616
21
-4.44071
0
LINE
8
BLACK
6
CONTINUOUS
10
6.99616
20
-4.44071
11
6.98857
21
-4.44603
0
LINE
8
BLACK
6
CONTINUOUS
10
6.98857
20
-4.44603
11
6.98018
21
-4.44994
0
LINE
8
BLACK
6
CONTINUOUS
10
6.98018
20
-4.44994
11
6.97123
21
-4.45234
0
LINE
8
BLACK
6
CONTINUOUS
10
6.97123
20
-4.45234
11
6.962
21
-4.45315
0
LINE
8
BLACK
6
CONTINUOUS
10
6.962
20
-4.45315
11
6.95277
21
-4.45234
0
LINE
8
BLACK
6
CONTINUOUS
10
6.95277
20
-4.45234
11
6.94382
21
-4.44994
0
LINE
8
BLACK
6
CONTINUOUS
10
6.94382
20
-4.44994
11
6.93543
21
-4.44603
0
LINE
8
BLACK
6
CONTINUOUS
10
6.93543
20
-4.44603
11
6.92784
21
-4.44071
0
LINE
8
BLACK
6
CONTINUOUS
10
6.92784
20
-4.44071
11
6.92129
21
-4.43416
0
LINE
8
BLACK
6
CONTINUOUS
10
6.92129
20
-4.43416
11
6.91597
21
-4.42657
0
LINE
8
BLACK
6
CONTINUOUS
10
6.91597
20
-4.42657
11
6.91206
21
-4.41818
0
LINE
8
BLACK
6
CONTINUOUS
10
6.91206
20
-4.41818
11
6.90966
21
-4.40923
0
LINE
8
BLACK
6
CONTINUOUS
10
6.90966
20
-4.40923
11
6.90885
21
-4.4
0
LINE
8
BLACK
6
CONTINUOUS
10
6.90885
20
-4.4
11
6.90966
21
-4.39077
0
LINE
8
BLACK
6
CONTINUOUS
10
6.90966
20
-4.39077
11
6.91206
21
-4.38182
0
LINE
8
BLACK
6
CONTINUOUS
10
6.91206
20
-4.38182
11
6.91597
21
-4.37343
0
LINE
8
BLACK
6
CONTINUOUS
10
6.91597
20
-4.37343
11
6.92129
21
-4.36584
0
LINE
8
BLACK
6
CONTINUOUS
10
6.92129
20
-4.36584
11
6.92784
21
-4.35929
0
LINE
8
BLACK
6
CONTINUOUS
10
6.92784
20
-4.35929
11
6.93543
21
-4.35397
0
LINE
8
BLACK
6
CONTINUOUS
10
6.93543
20
-4.35397
11
6.94382
21
-4.35006
0
LINE
8
BLACK
6
CONTINUOUS
10
6.94382
20
-4.35006
11
6.95277
21
-4.34766
0
LINE
8
BLACK
6
CONTINUOUS
10
6.95277
20
-4.34766
11
6.962
21
-4.34685
0
LINE
8
BLACK
6
CONTINUOUS
10
6.962
20
-4.34685
11
6.97123
21
-4.34766
0
LINE
8
BLACK
6
CONTINUOUS
10
7.17123
20
-4.34766
11
7.18018
21
-4.35006
0
LINE
8
BLACK
6
CONTINUOUS
10
7.18018
20
-4.35006
11
7.18857
21
-4.35397
0
LINE
8
BLACK
6
CONTINUOUS
10
7.18857
20
-4.35397
11
7.19616
21
-4.35929
0
LINE
8
BLACK
6
CONTINUOUS
10
7.19616
20
-4.35929
11
7.20271
21
-4.36584
0
LINE
8
BLACK
6
CONTINUOUS
10
7.20271
20
-4.36584
11
7.20803
21
-4.37343
0
LINE
8
BLACK
6
CONTINUOUS
10
7.20803
20
-4.37343
11
7.21194
21
-4.38182
0
LINE
8
BLACK
6
CONTINUOUS
10
7.21194
20
-4.38182
11
7.21434
21
-4.39077
0
LINE
8
BLACK
6
CONTINUOUS
10
7.21434
20
-4.39077
11
7.21515
21
-4.4
0
LINE
8
BLACK
6
CONTINUOUS
10
7.21515
20
-4.4
11
7.21434
21
-4.40923
0
LINE
8
BLACK
6
CONTINUOUS
10
7.21434
20
-4.40923
11
7.21194
21
-4.41818
0
LINE
8
BLACK
6
CONTINUOUS
10
7.21194
20
-4.41818
11
7.20803
21
-4.42657
0
LINE
8
BLACK
6
CONTINUOUS
10
7.20803
20
-4.42657
11
7.20271
21
-4.43416
0
LINE
8
BLACK
6
CONTINUOUS
10
7.20271
20
-4.43416
11
7.19616
21
-4.44071
0
LINE
8
BLACK
6
CONTINUOUS
10
7.19616
20
-4.44071
11
7.18857
21
-4.44603
0
LINE
8
BLACK
6
CONTINUOUS
10
7.18857
20
-4.44603
11
7.18018
21
-4.44994
0
LINE
8
BLACK
6
CONTINUOUS
10
7.18018
20
-4.44994
11
7.17123
21
-4.45234
0
LINE
8
BLACK
6
CONTINUOUS
10
7.17123
20
-4.45234
11
7.162
21
-4.45315
0
LINE
8
BLACK
6
CONTINUOUS
10
7.162
20
-4.45315
11
7.15277
21
-4.45234
0
LINE
8
BLACK
6
CONTINUOUS
10
7.15277
20
-4.45234
11
7.14382
21
-4.44994
0
LINE
8
BLACK
6
CONTINUOUS
10
7.14382
20
-4.44994
11
7.13543
21
-4.44603
0
LINE
8
BLACK
6
CONTINUOUS
10
7.13543
20
-4.44603
11
7.12784
21
-4.44071
0
LINE
8
BLACK
6
CONTINUOUS
10
7.12784
20
-4.44071
11
7.12129
21
-4.43416
0
LINE
8
BLACK
6
CONTINUOUS
10
7.12129
20
-4.43416
11
7.11597
21
-4.42657
0
LINE
8
BLACK
6
CONTINUOUS
10
7.11597
20
-4.42657
11
7.11206
21
-4.41818
0
LINE
8
BLACK
6
CONTINUOUS
10
7.11206
20
-4.41818
11
7.10966
21
-4.40923
0
LINE
8
BLACK
6
CONTINUOUS
10
7.10966
20
-4.40923
11
7.10885
21
-4.4
0
LINE
8
BLACK
6
CONTINUOUS
10
7.10885
20
-4.4
11
7.10966
21
-4.39077
0
LINE
8
BLACK
6
CONTINUOUS
10
7.10966
20
-4.39077
11
7.11206
21
-4.38182
0
LINE
8
BLACK
6
CONTINUOUS
10
7.11206
20
-4.38182
11
7.11597
21
-4.37343
0
LINE
8
BLACK
6
CONTINUOUS
10
7.11597
20
-4.37343
11
7.12129
21
-4.36584
0
LINE
8
BLACK
6
CONTINUOUS
10
7.12129
20
-4.36584
11
7.12784
21
-4.35929
0
LINE
8
BLACK
6
CONTINUOUS
10
7.12784
20
-4.35929
11
7.13543
21
-4.35397
0
LINE
8
BLACK
6
CONTINUOUS
10
7.13543
20
-4.35397
11
7.14382
21
-4.35006
0
LINE
8
BLACK
6
CONTINUOUS
10
7.14382
20
-4.35006
11
7.15277
21
-4.34766
0
LINE
8
BLACK
6
CONTINUOUS
10
7.15277
20
-4.34766
11
7.162
21
-4.34685
0
LINE
8
BLACK
6
CONTINUOUS
10
7.162
20
-4.34685
11
7.17123
21
-4.34766
0
LINE
8
BLACK
6
CONTINUOUS
10
5.52051
20
-3.98368
11
5.53387
21
-3.98685
0
LINE
8
BLACK
6
CONTINUOUS
10
5.53387
20
-3.98685
11
5.54678
21
-3.99155
0
LINE
8
BLACK
6
CONTINUOUS
10
5.54678
20
-3.99155
11
5.55906
21
-3.99771
0
LINE
8
BLACK
6
CONTINUOUS
10
5.55906
20
-3.99771
11
5.57053
21
-4.00526
0
LINE
8
BLACK
6
CONTINUOUS
10
5.57053
20
-4.00526
11
5.58105
21
-4.01409
0
LINE
8
BLACK
6
CONTINUOUS
10
5.58105
20
-4.01409
11
5.59048
21
-4.02408
0
LINE
8
BLACK
6
CONTINUOUS
10
5.59048
20
-4.02408
11
5.59868
21
-4.0351
0
LINE
8
BLACK
6
CONTINUOUS
10
5.59868
20
-4.0351
11
5.60555
21
-4.04699
0
LINE
8
BLACK
6
CONTINUOUS
10
5.60555
20
-4.04699
11
5.61099
21
-4.0596
0
LINE
8
BLACK
6
CONTINUOUS
10
5.61099
20
-4.0596
11
5.61493
21
-4.07276
0
LINE
8
BLACK
6
CONTINUOUS
10
5.61493
20
-4.07276
11
5.61731
21
-4.08629
0
LINE
8
BLACK
6
CONTINUOUS
10
5.61731
20
-4.08629
11
5.61811
21
-4.1
0
LINE
8
BLACK
6
CONTINUOUS
10
5.61811
20
-4.1
11
5.61731
21
-4.11371
0
LINE
8
BLACK
6
CONTINUOUS
10
5.61731
20
-4.11371
11
5.61493
21
-4.12724
0
LINE
8
BLACK
6
CONTINUOUS
10
5.61493
20
-4.12724
11
5.61099
21
-4.1404
0
LINE
8
BLACK
6
CONTINUOUS
10
5.61099
20
-4.1404
11
5.60555
21
-4.15301
0
LINE
8
BLACK
6
CONTINUOUS
10
5.60555
20
-4.15301
11
5.59868
21
-4.1649
0
LINE
8
BLACK
6
CONTINUOUS
10
5.59868
20
-4.1649
11
5.59048
21
-4.17592
0
LINE
8
BLACK
6
CONTINUOUS
10
5.59048
20
-4.17592
11
5.58105
21
-4.18591
0
LINE
8
BLACK
6
CONTINUOUS
10
5.58105
20
-4.18591
11
5.57053
21
-4.19474
0
LINE
8
BLACK
6
CONTINUOUS
10
5.57053
20
-4.19474
11
5.55906
21
-4.20229
0
LINE
8
BLACK
6
CONTINUOUS
10
5.55906
20
-4.20229
11
5.54678
21
-4.20845
0
LINE
8
BLACK
6
CONTINUOUS
10
5.54678
20
-4.20845
11
5.53387
21
-4.21315
0
LINE
8
BLACK
6
CONTINUOUS
10
5.53387
20
-4.21315
11
5.52051
21
-4.21632
0
LINE
8
BLACK
6
CONTINUOUS
10
5.52051
20
-4.21632
11
5.50687
21
-4.21791
0
LINE
8
BLACK
6
CONTINUOUS
10
5.50687
20
-4.21791
11
5.49313
21
-4.21791
0
LINE
8
BLACK
6
CONTINUOUS
10
5.49313
20
-4.21791
11
5.47949
21
-4.21632
0
LINE
8
BLACK
6
CONTINUOUS
10
5.47949
20
-4.21632
11
5.46613
21
-4.21315
0
LINE
8
BLACK
6
CONTINUOUS
10
5.46613
20
-4.21315
11
5.45322
21
-4.20845
0
LINE
8
BLACK
6
CONTINUOUS
10
5.45322
20
-4.20845
11
5.44094
21
-4.20229
0
LINE
8
BLACK
6
CONTINUOUS
10
5.44094
20
-4.20229
11
5.42947
21
-4.19474
0
LINE
8
BLACK
6
CONTINUOUS
10
5.42947
20
-4.19474
11
5.41895
21
-4.18591
0
LINE
8
BLACK
6
CONTINUOUS
10
5.41895
20
-4.18591
11
5.40952
21
-4.17592
0
LINE
8
BLACK
6
CONTINUOUS
10
5.40952
20
-4.17592
11
5.40132
21
-4.1649
0
LINE
8
BLACK
6
CONTINUOUS
10
5.40132
20
-4.1649
11
5.39445
21
-4.15301
0
LINE
8
BLACK
6
CONTINUOUS
10
5.39445
20
-4.15301
11
5.38901
21
-4.1404
0
LINE
8
BLACK
6
CONTINUOUS
10
5.38901
20
-4.1404
11
5.38507
21
-4.12724
0
LINE
8
BLACK
6
CONTINUOUS
10
5.38507
20
-4.12724
11
5.38269
21
-4.11371
0
LINE
8
BLACK
6
CONTINUOUS
10
5.38269
20
-4.11371
11
5.38189
21
-4.1
0
LINE
8
BLACK
6
CONTINUOUS
10
5.38189
20
-4.1
11
5.38269
21
-4.08629
0
LINE
8
BLACK
6
CONTINUOUS
10
5.38269
20
-4.08629
11
5.38507
21
-4.07276
0
LINE
8
BLACK
6
CONTINUOUS
10
5.38507
20
-4.07276
11
5.38901
21
-4.0596
0
LINE
8
BLACK
6
CONTINUOUS
10
5.38901
20
-4.0596
11
5.39445
21
-4.04699
0
LINE
8
BLACK
6
CONTINUOUS
10
5.39445
20
-4.04699
11
5.40132
21
-4.0351
0
LINE
8
BLACK
6
CONTINUOUS
10
5.40132
20
-4.0351
11
5.40952
21
-4.02408
0
LINE
8
BLACK
6
CONTINUOUS
10
5.40952
20
-4.02408
11
5.41895
21
-4.01409
0
LINE
8
BLACK
6
CONTINUOUS
10
5.41895
20
-4.01409
11
5.42947
21
-4.00526
0
LINE
8
BLACK
6
CONTINUOUS
10
5.42947
20
-4.00526
11
5.44094
21
-3.99771
0
LINE
8
BLACK
6
CONTINUOUS
10
5.44094
20
-3.99771
11
5.45322
21
-3.99155
0
LINE
8
BLACK
6
CONTINUOUS
10
5.45322
20
-3.99155
11
5.46613
21
-3.98685
0
LINE
8
BLACK
6
CONTINUOUS
10
5.46613
20
-3.98685
11
5.47949
21
-3.98368
0
LINE
8
BLACK
6
CONTINUOUS
10
5.47949
20
-3.98368
11
5.49313
21
-3.98209
0
LINE
8
BLACK
6
CONTINUOUS
10
5.49313
20
-3.98209
11
5.50687
21
-3.98209
0
LINE
8
BLACK
6
CONTINUOUS
10
5.50687
20
-3.98209
11
5.52051
21
-3.98368
0
LINE
8
BLACK
6
CONTINUOUS
10
7.12051
20
-3.98368
11
7.13387
21
-3.98685
0
LINE
8
BLACK
6
CONTINUOUS
10
7.13387
20
-3.98685
11
7.14678
21
-3.99155
0
LINE
8
BLACK
6
CONTINUOUS
10
7.14678
20
-3.99155
11
7.15906
21
-3.99771
0
LINE
8
BLACK
6
CONTINUOUS
10
7.15906
20
-3.99771
11
7.17053
21
-4.00526
0
LINE
8
BLACK
6
CONTINUOUS
10
7.17053
20
-4.00526
11
7.18105
21
-4.01409
0
LINE
8
BLACK
6
CONTINUOUS
10
7.18105
20
-4.01409
11
7.19048
21
-4.02408
0
LINE
8
BLACK
6
CONTINUOUS
10
7.19048
20
-4.02408
11
7.19868
21
-4.0351
0
LINE
8
BLACK
6
CONTINUOUS
10
7.19868
20
-4.0351
11
7.20555
21
-4.04699
0
LINE
8
BLACK
6
CONTINUOUS
10
7.20555
20
-4.04699
11
7.21099
21
-4.0596
0
LINE
8
BLACK
6
CONTINUOUS
10
7.21099
20
-4.0596
11
7.21493
21
-4.07276
0
LINE
8
BLACK
6
CONTINUOUS
10
7.21493
20
-4.07276
11
7.21731
21
-4.08629
0
LINE
8
BLACK
6
CONTINUOUS
10
7.21731
20
-4.08629
11
7.21811
21
-4.1
0
LINE
8
BLACK
6
CONTINUOUS
10
7.21811
20
-4.1
11
7.21731
21
-4.11371
0
LINE
8
BLACK
6
CONTINUOUS
10
7.21731
20
-4.11371
11
7.21493
21
-4.12724
0
LINE
8
BLACK
6
CONTINUOUS
10
7.21493
20
-4.12724
11
7.21099
21
-4.1404
0
LINE
8
BLACK
6
CONTINUOUS
10
7.21099
20
-4.1404
11
7.20555
21
-4.15301
0
LINE
8
BLACK
6
CONTINUOUS
10
7.20555
20
-4.15301
11
7.19868
21
-4.1649
0
LINE
8
BLACK
6
CONTINUOUS
10
7.19868
20
-4.1649
11
7.19048
21
-4.17592
0
LINE
8
BLACK
6
CONTINUOUS
10
7.19048
20
-4.17592
11
7.18105
21
-4.18591
0
LINE
8
BLACK
6
CONTINUOUS
10
7.18105
20
-4.18591
11
7.17053
21
-4.19474
0
LINE
8
BLACK
6
CONTINUOUS
10
7.17053
20
-4.19474
11
7.15906
21
-4.20229
0
LINE
8
BLACK
6
CONTINUOUS
10
7.15906
20
-4.20229
11
7.14678
21
-4.20845
0
LINE
8
BLACK
6
CONTINUOUS
10
7.14678
20
-4.20845
11
7.13387
21
-4.21315
0
LINE
8
BLACK
6
CONTINUOUS
10
7.13387
20
-4.21315
11
7.12051
21
-4.21632
0
LINE
8
BLACK
6
CONTINUOUS
10
7.12051
20
-4.21632
11
7.10687
21
-4.21791
0
LINE
8
BLACK
6
CONTINUOUS
10
7.10687
20
-4.21791
11
7.09313
21
-4.21791
0
LINE
8
BLACK
6
CONTINUOUS
10
7.09313
20
-4.21791
11
7.07949
21
-4.21632
0
LINE
8
BLACK
6
CONTINUOUS
10
7.07949
20
-4.21632
11
7.06613
21
-4.21315
0
LINE
8
BLACK
6
CONTINUOUS
10
7.06613
20
-4.21315
11
7.05322
21
-4.20845
0
LINE
8
BLACK
6
CONTINUOUS
10
7.05322
20
-4.20845
11
7.04094
21
-4.20229
0
LINE
8
BLACK
6
CONTINUOUS
10
7.04094
20
-4.20229
11
7.02947
21
-4.19474
0
LINE
8
BLACK
6
CONTINUOUS
10
7.02947
20
-4.19474
11
7.01895
21
-4.18591
0
LINE
8
BLACK
6
CONTINUOUS
10
7.01895
20
-4.18591
11
7.00952
21
-4.17592
0
LINE
8
BLACK
6
CONTINUOUS
10
7.00952
20
-4.17592
11
7.00132
21
-4.1649
0
LINE
8
BLACK
6
CONTINUOUS
10
7.00132
20
-4.1649
11
6.99445
21
-4.15301
0
LINE
8
BLACK
6
CONTINUOUS
10
6.99445
20
-4.15301
11
6.98901
21
-4.1404
0
LINE
8
BLACK
6
CONTINUOUS
10
6.98901
20
-4.1404
11
6.98507
21
-4.12724
0
LINE
8
BLACK
6
CONTINUOUS
10
6.98507
20
-4.12724
11
6.98269
21
-4.11371
0
LINE
8
BLACK
6
CONTINUOUS
10
6.98269
20
-4.11371
11
6.98189
21
-4.1
0
LINE
8
BLACK
6
CONTINUOUS
10
6.98189
20
-4.1
11
6.98269
21
-4.08629
0
LINE
8
BLACK
6
CONTINUOUS
10
6.98269
20
-4.08629
11
6.98507
21
-4.07276
0
LINE
8
BLACK
6
CONTINUOUS
10
6.98507
20
-4.07276
11
6.98901
21
-4.0596
0
LINE
8
BLACK
6
CONTINUOUS
10
6.98901
20
-4.0596
11
6.99445
21
-4.04699
0
LINE
8
BLACK
6
CONTINUOUS
10
6.99445
20
-4.04699
11
7.00132
21
-4.0351
0
LINE
8
BLACK
6
CONTINUOUS
10
7.00132
20
-4.0351
11
7.00952
21
-4.02408
0
LINE
8
BLACK
6
CONTINUOUS
10
7.00952
20
-4.02408
11
7.01895
21
-4.01409
0
LINE
8
BLACK
6
CONTINUOUS
10
7.01895
20
-4.01409
11
7.02947
21
-4.00526
0
LINE
8
BLACK
6
CONTINUOUS
10
7.02947
20
-4.00526
11
7.04094
21
-3.99771
0
LINE
8
BLACK
6
CONTINUOUS
10
7.04094
20
-3.99771
11
7.05322
21
-3.99155
0
LINE
8
BLACK
6
CONTINUOUS
10
7.05322
20
-3.99155
11
7.06613
21
-3.98685
0
LINE
8
BLACK
6
CONTINUOUS
10
7.06613
20
-3.98685
11
7.07949
21
-3.98368
0
LINE
8
BLACK
6
CONTINUOUS
10
7.07949
20
-3.98368
11
7.09313
21
-3.98209
0
LINE
8
BLACK
6
CONTINUOUS
10
7.09313
20
-3.98209
11
7.10687
21
-3.98209
0
LINE
8
BLACK
6
CONTINUOUS
10
7.10687
20
-3.98209
11
7.12051
21
-3.98368
0
LINE
8
BLACK
6
CONTINUOUS
10
5.75
20
-4.18
11
5.69
21
-4.18
0
LINE
8
BLACK
6
CONTINUOUS
10
5.69
20
-4.18
11
5.69
21
-4.12
0
LINE
8
BLACK
6
CONTINUOUS
10
5.69
20
-4.12
11
5.75
21
-4.12
0
LINE
8
BLACK
6
CONTINUOUS
10
5.75
20
-4.12
11
5.75
21
-4.18
0
LINE
8
BLACK
6
CONTINUOUS
10
5.85
20
-4.18
11
5.79
21
-4.18
0
LINE
8
BLACK
6
CONTINUOUS
10
5.79
20
-4.18
11
5.79
21
-4.12
0
LINE
8
BLACK
6
CONTINUOUS
10
5.79
20
-4.12
11
5.85
21
-4.12
0
LINE
8
BLACK
6
CONTINUOUS
10
5.85
20
-4.12
11
5.85
21
-4.18
0
LINE
8
BLACK
6
CONTINUOUS
10
5.95
20
-4.18
11
5.89
21
-4.18
0
LINE
8
BLACK
6
CONTINUOUS
10
5.89
20
-4.18
11
5.89
21
-4.12
0
LINE
8
BLACK
6
CONTINUOUS
10
5.89
20
-4.12
11
5.95
21
-4.12
0
LINE
8
BLACK
6
CONTINUOUS
10
5.95
20
-4.12
11
5.95
21
-4.18
0
LINE
8
BLACK
6
CONTINUOUS
10
6.06921
20
-4.18
11
6.00921
21
-4.18
0
LINE
8
BLACK
6
CONTINUOUS
10
6.00921
20
-4.18
11
6.00921
21
-4.12
0
LINE
8
BLACK
6
CONTINUOUS
10
6.00921
20
-4.12
11
6.06921
21
-4.12
0
LINE
8
BLACK
6
CONTINUOUS
10
6.06921
20
-4.12
11
6.06921
21
-4.18
0
LINE
8
BLACK
6
CONTINUOUS
10
6.16961
20
-4.18
11
6.10961
21
-4.18
0
LINE
8
BLACK
6
CONTINUOUS
10
6.10961
20
-4.18
11
6.10961
21
-4.12
0
LINE
8
BLACK
6
CONTINUOUS
10
6.10961
20
-4.12
11
6.16961
21
-4.12
0
LINE
8
BLACK
6
CONTINUOUS
10
6.16961
20
-4.12
11
6.16961
21
-4.18
0
LINE
8
BLACK
6
CONTINUOUS
10
6.27
20
-4.18
11
6.21
21
-4.18
0
LINE
8
BLACK
6
CONTINUOUS
10
6.21
20
-4.18
11
6.21
21
-4.12
0
LINE
8
BLACK
6
CONTINUOUS
10
6.21
20
-4.12
11
6.27
21
-4.12
0
LINE
8
BLACK
6
CONTINUOUS
10
6.27
20
-4.12
11
6.27
21
-4.18
0
LINE
8
BLACK
6
CONTINUOUS
10
6.37039
20
-4.18
11
6.31039
21
-4.18
0
LINE
8
BLACK
6
CONTINUOUS
10
6.31039
20
-4.18
11
6.31039
21
-4.12
0
LINE
8
BLACK
6
CONTINUOUS
10
6.31039
20
-4.12
11
6.37039
21
-4.12
0
LINE
8
BLACK
6
CONTINUOUS
10
6.37039
20
-4.12
11
6.37039
21
-4.18
0
LINE
8
BLACK
6
CONTINUOUS
10
6.47079
20
-4.18
11
6.41079
21
-4.18
0
LINE
8
BLACK
6
CONTINUOUS
10
6.41079
20
-4.18
11
6.41079
21
-4.12
0
LINE
8
BLACK
6
CONTINUOUS
10
6.41079
20
-4.12
11
6.47079
21
-4.12
0
LINE
8
BLACK
6
CONTINUOUS
10
6.47079
20
-4.12
11
6.47079
21
-4.18
0
LINE
8
BLACK
6
CONTINUOUS
10
6.60882
20
-4.18
11
6.54882
21
-4.18
0
LINE
8
BLACK
6
CONTINUOUS
10
6.54882
20
-4.18
11
6.54882
21
-4.12
0
LINE
8
BLACK
6
CONTINUOUS
10
6.54882
20
-4.12
11
6.60882
21
-4.12
0
LINE
8
BLACK
6
CONTINUOUS
10
6.60882
20
-4.12
11
6.60882
21
-4.18
0
LINE
8
BLACK
6
CONTINUOUS
10
6.70921
20
-4.18
11
6.64921
21
-4.18
0
LINE
8
BLACK
6
CONTINUOUS
10
6.64921
20
-4.18
11
6.64921
21
-4.12
0
LINE
8
BLACK
6
CONTINUOUS
10
6.64921
20
-4.12
11
6.70921
21
-4.12
0
LINE
8
BLACK
6
CONTINUOUS
10
6.70921
20
-4.12
11
6.70921
21
-4.18
0
LINE
8
BLACK
6
CONTINUOUS
10
6.80961
20
-4.18
11
6.74961
21
-4.18
0
LINE
8
BLACK
6
CONTINUOUS
10
6.74961
20
-4.18
11
6.74961
21
-4.12
0
LINE
8
BLACK
6
CONTINUOUS
10
6.74961
20
-4.12
11
6.80961
21
-4.12
0
LINE
8
BLACK
6
CONTINUOUS
10
6.80961
20
-4.12
11
6.80961
21
-4.18
0
LINE
8
BLACK
6
CONTINUOUS
10
6.91
20
-4.18
11
6.85
21
-4.18
0
LINE
8
BLACK
6
CONTINUOUS
10
6.85
20
-4.18
11
6.85
21
-4.12
0
LINE
8
BLACK
6
CONTINUOUS
10
6.85
20
-4.12
11
6.91
21
-4.12
0
LINE
8
BLACK
6
CONTINUOUS
10
6.91
20
-4.12
11
6.91
21
-4.18
0
LINE
8
BLACK
6
CONTINUOUS
10
5.75
20
-4.08
11
5.69
21
-4.08
0
LINE
8
BLACK
6
CONTINUOUS
10
5.69
20
-4.08
11
5.69
21
-4.02
0
LINE
8
BLACK
6
CONTINUOUS
10
5.69
20
-4.02
11
5.75
21
-4.02
0
LINE
8
BLACK
6
CONTINUOUS
10
5.75
20
-4.02
11
5.75
21
-4.08
0
LINE
8
BLACK
6
CONTINUOUS
10
5.85
20
-4.08
11
5.79
21
-4.08
0
LINE
8
BLACK
6
CONTINUOUS
10
5.79
20
-4.08
11
5.79
21
-4.02
0
LINE
8
BLACK
6
CONTINUOUS
10
5.79
20
-4.02
11
5.85
21
-4.02
0
LINE
8
BLACK
6
CONTINUOUS
10
5.85
20
-4.02
11
5.85
21
-4.08
0
LINE
8
BLACK
6
CONTINUOUS
10
5.95
20
-4.08
11
5.89
21
-4.08
0
LINE
8
BLACK
6
CONTINUOUS
10
5.89
20
-4.08
11
5.89
21
-4.02
0
LINE
8
BLACK
6
CONTINUOUS
10
5.89
20
-4.02
11
5.95
21
-4.02
0
LINE
8
BLACK
6
CONTINUOUS
10
5.95
20
-4.02
11
5.95
21
-4.08
0
LINE
8
BLACK
6
CONTINUOUS
10
6.06921
20
-4.08
11
6.00921
21
-4.08
0
LINE
8
BLACK
6
CONTINUOUS
10
6.00921
20
-4.08
11
6.00921
21
-4.02
0
LINE
8
BLACK
6
CONTINUOUS
10
6.00921
20
-4.02
11
6.06921
21
-4.02
0
LINE
8
BLACK
6
CONTINUOUS
10
6.06921
20
-4.02
11
6.06921
21
-4.08
0
LINE
8
BLACK
6
CONTINUOUS
10
6.16961
20
-4.08
11
6.10961
21
-4.08
0
LINE
8
BLACK
6
CONTINUOUS
10
6.10961
20
-4.08
11
6.10961
21
-4.02
0
LINE
8
BLACK
6
CONTINUOUS
10
6.10961
20
-4.02
11
6.16961
21
-4.02
0
LINE
8
BLACK
6
CONTINUOUS
10
6.16961
20
-4.02
11
6.16961
21
-4.08
0
LINE
8
BLACK
6
CONTINUOUS
10
6.27
20
-4.08
11
6.21
21
-4.08
0
LINE
8
BLACK
6
CONTINUOUS
10
6.21
20
-4.08
11
6.21
21
-4.02
0
LINE
8
BLACK
6
CONTINUOUS
10
6.21
20
-4.02
11
6.27
21
-4.02
0
LINE
8
BLACK
6
CONTINUOUS
10
6.27
20
-4.02
11
6.27
21
-4.08
0
LINE
8
BLACK
6
CONTINUOUS
10
6.37039
20
-4.08
11
6.31039
21
-4.08
0
LINE
8
BLACK
6
CONTINUOUS
10
6.31039
20
-4.08
11
6.31039
21
-4.02
0
LINE
8
BLACK
6
CONTINUOUS
10
6.31039
20
-4.02
11
6.37039
21
-4.02
0
LINE
8
BLACK
6
CONTINUOUS
10
6.37039
20
-4.02
11
6.37039
21
-4.08
0
LINE
8
BLACK
6
CONTINUOUS
10
6.47079
20
-4.08
11
6.41079
21
-4.08
0
LINE
8
BLACK
6
CONTINUOUS
10
6.41079
20
-4.08
11
6.41079
21
-4.02
0
LINE
8
BLACK
6
CONTINUOUS
10
6.41079
20
-4.02
11
6.47079
21
-4.02
0
LINE
8
BLACK
6
CONTINUOUS
10
6.47079
20
-4.02
11
6.47079
21
-4.08
0
LINE
8
BLACK
6
CONTINUOUS
10
6.60882
20
-4.08
11
6.54882
21
-4.08
0
LINE
8
BLACK
6
CONTINUOUS
10
6.54882
20
-4.08
11
6.54882
21
-4.02
0
LINE
8
BLACK
6
CONTINUOUS
10
6.54882
20
-4.02
11
6.60882
21
-4.02
0
LINE
8
BLACK
6
CONTINUOUS
10
6.60882
20
-4.02
11
6.60882
21
-4.08
0
LINE
8
BLACK
6
CONTINUOUS
10
6.70921
20
-4.08
11
6.64921
21
-4.08
0
LINE
8
BLACK
6
CONTINUOUS
10
6.64921
20
-4.08
11
6.64921
21
-4.02
0
LINE
8
BLACK
6
CONTINUOUS
10
6.64921
20
-4.02
11
6.70921
21
-4.02
0
LINE
8
BLACK
6
CONTINUOUS
10
6.70921
20
-4.02
11
6.70921
21
-4.08
0
LINE
8
BLACK
6
CONTINUOUS
10
6.80961
20
-4.08
11
6.74961
21
-4.08
0
LINE
8
BLACK
6
CONTINUOUS
10
6.74961
20
-4.08
11
6.74961
21
-4.02
0
LINE
8
BLACK
6
CONTINUOUS
10
6.74961
20
-4.02
11
6.80961
21
-4.02
0
LINE
8
BLACK
6
CONTINUOUS
10
6.80961
20
-4.02
11
6.80961
21
-4.08
0
LINE
8
BLACK
6
CONTINUOUS
10
6.91
20
-4.08
11
6.85
21
-4.08
0
LINE
8
BLACK
6
CONTINUOUS
10
6.85
20
-4.08
11
6.85
21
-4.02
0
LINE
8
BLACK
6
CONTINUOUS
10
6.85
20
-4.02
11
6.91
21
-4.02
0
LINE
8
BLACK
6
CONTINUOUS
10
6.91
20
-4.02
11
6.91
21
-4.08
  0
ENDSEC
  0
EOF
