  0
SECTION
  2
HEADER
  9
$ANGBASE
  50
0.0
  9
$ANGDIR
  70
1
  9
$MEASUREMENT
  70
0
  0
ENDSEC
  0
SECTION
  2
TABLES
  0
TABLE
  2
LTYPE
  70
4
  0
LTYPE
  5
40F
  2
CONTINUOUS
  70
0
  3
Solid line
  72
65
  73
0
  40
0.0
  0
LTYPE
  5
410
  2
DASHDOT
 70
0
  3
Dash Dot ____ _ ____ _
 72
65
 73
4
 40
2.0
 49
1.25
 49
-0.25
 49
0.25
 49
-0.25
  0
LTYPE
  5
411
  2
DASHED
 70
0
  3
Dashed __ __ __ __ __
 72
65
 73
2
 40
0.75
 49
0.5
 49
-0.25
  0
LTYPE
  5
43B
  2
DOTTED
 70
0
  3
Dotted .  .  .  .
 72
65
 73
2
 40
0.2
 49
0.0
 49
-0.2
  0
ENDTAB
  0
TABLE
  2
STYLE
  70
4
  0
STYLE
  2
KICAD
  70
0
  40
0
  41
1
  42
1
  50
0
  71
0
  3
isocp.shx
  0
STYLE
  2
KICADB
  70
0
  40
0
  41
1
  42
1
  50
0
  71
0
  3
isocp.shx
  0
STYLE
  2
KICADI
  70
0
  40
0
  41
1
  42
1
  50
15
  71
0
  3
isocp.shx
  0
STYLE
  2
KICADBI
  70
0
  40
0
  41
1
  42
1
  50
15
  71
0
  3
isocp.shx
  0
ENDTAB
  0
TABLE
  2
LAYER
  70
1
  0
LAYER
  2
BLACK
  70
0
  62
7
  6
CONTINUOUS
  0
ENDTAB
  0
ENDSEC
  0
SECTION
  2
ENTITIES
0
LINE
8
BLACK
6
CONTINUOUS
10
7.69038
20
-3.10711
11
7.69051
21
-3.10709
0
LINE
8
BLACK
6
CONTINUOUS
10
7.69051
20
-3.10709
11
7.69063
21
-3.10716
0
LINE
8
BLACK
6
CONTINUOUS
10
7.69063
20
-3.10716
11
7.69101
21
-3.10723
0
LINE
8
BLACK
6
CONTINUOUS
10
7.69101
20
-3.10723
11
7.6916
21
-3.10772
0
LINE
8
BLACK
6
CONTINUOUS
10
7.6916
20
-3.10772
11
7.69226
21
-3.1081
0
LINE
8
BLACK
6
CONTINUOUS
10
7.69226
20
-3.1081
11
7.69235
21
-3.10835
0
LINE
8
BLACK
6
CONTINUOUS
10
7.69235
20
-3.10835
11
7.69256
21
-3.10852
0
LINE
8
BLACK
6
CONTINUOUS
10
7.69256
20
-3.10852
11
7.69269
21
-3.10928
0
LINE
8
BLACK
6
CONTINUOUS
10
7.69269
20
-3.10928
11
7.69295
21
-3.11
0
LINE
8
BLACK
6
CONTINUOUS
10
7.69295
20
-3.11
11
7.69295
21
-5.09
0
LINE
8
BLACK
6
CONTINUOUS
10
7.69295
20
-5.09
11
7.69289
21
-5.09038
0
LINE
8
BLACK
6
CONTINUOUS
10
7.69289
20
-5.09038
11
7.69291
21
-5.09051
0
LINE
8
BLACK
6
CONTINUOUS
10
7.69291
20
-5.09051
11
7.69284
21
-5.09063
0
LINE
8
BLACK
6
CONTINUOUS
10
7.69284
20
-5.09063
11
7.69277
21
-5.09101
0
LINE
8
BLACK
6
CONTINUOUS
10
7.69277
20
-5.09101
11
7.69228
21
-5.0916
0
LINE
8
BLACK
6
CONTINUOUS
10
7.69228
20
-5.0916
11
7.6919
21
-5.09226
0
LINE
8
BLACK
6
CONTINUOUS
10
7.6919
20
-5.09226
11
7.69165
21
-5.09235
0
LINE
8
BLACK
6
CONTINUOUS
10
7.69165
20
-5.09235
11
7.69148
21
-5.09256
0
LINE
8
BLACK
6
CONTINUOUS
10
7.69148
20
-5.09256
11
7.69072
21
-5.09269
0
LINE
8
BLACK
6
CONTINUOUS
10
7.69072
20
-5.09269
11
7.69
21
-5.09295
0
LINE
8
BLACK
6
CONTINUOUS
10
7.69
20
-5.09295
11
5.31
21
-5.09295
0
LINE
8
BLACK
6
CONTINUOUS
10
5.31
20
-5.09295
11
5.30962
21
-5.09289
0
LINE
8
BLACK
6
CONTINUOUS
10
5.30962
20
-5.09289
11
5.30949
21
-5.09291
0
LINE
8
BLACK
6
CONTINUOUS
10
5.30949
20
-5.09291
11
5.30937
21
-5.09284
0
LINE
8
BLACK
6
CONTINUOUS
10
5.30937
20
-5.09284
11
5.30899
21
-5.09277
0
LINE
8
BLACK
6
CONTINUOUS
10
5.30899
20
-5.09277
11
5.3084
21
-5.09228
0
LINE
8
BLACK
6
CONTINUOUS
10
5.3084
20
-5.09228
11
5.30774
21
-5.0919
0
LINE
8
BLACK
6
CONTINUOUS
10
5.30774
20
-5.0919
11
5.30765
21
-5.09165
0
LINE
8
BLACK
6
CONTINUOUS
10
5.30765
20
-5.09165
11
5.30744
21
-5.09148
0
LINE
8
BLACK
6
CONTINUOUS
10
5.30744
20
-5.09148
11
5.30731
21
-5.09072
0
LINE
8
BLACK
6
CONTINUOUS
10
5.30731
20
-5.09072
11
5.30705
21
-5.09
0
LINE
8
BLACK
6
CONTINUOUS
10
5.30705
20
-5.09
11
5.30705
21
-3.11
0
LINE
8
BLACK
6
CONTINUOUS
10
5.30705
20
-3.11
11
5.30711
21
-3.10962
0
LINE
8
BLACK
6
CONTINUOUS
10
5.30711
20
-3.10962
11
5.30709
21
-3.10949
0
LINE
8
BLACK
6
CONTINUOUS
10
5.30709
20
-3.10949
11
5.30716
21
-3.10937
0
LINE
8
BLACK
6
CONTINUOUS
10
5.30716
20
-3.10937
11
5.30723
21
-3.10899
0
LINE
8
BLACK
6
CONTINUOUS
10
5.30723
20
-3.10899
11
5.30772
21
-3.1084
0
LINE
8
BLACK
6
CONTINUOUS
10
5.30772
20
-3.1084
11
5.3081
21
-3.10774
0
LINE
8
BLACK
6
CONTINUOUS
10
5.3081
20
-3.10774
11
5.30835
21
-3.10765
0
LINE
8
BLACK
6
CONTINUOUS
10
5.30835
20
-3.10765
11
5.30852
21
-3.10744
0
LINE
8
BLACK
6
CONTINUOUS
10
5.30852
20
-3.10744
11
5.30928
21
-3.10731
0
LINE
8
BLACK
6
CONTINUOUS
10
5.30928
20
-3.10731
11
5.31
21
-3.10705
0
LINE
8
BLACK
6
CONTINUOUS
10
5.31
20
-3.10705
11
7.69
21
-3.10705
0
LINE
8
BLACK
6
CONTINUOUS
10
7.69
20
-3.10705
11
7.69038
21
-3.10711
0
LINE
8
BLACK
6
CONTINUOUS
10
5.31295
20
-3.11295
11
5.31295
21
-5.08705
0
LINE
8
BLACK
6
CONTINUOUS
10
5.31295
20
-5.08705
11
7.68705
21
-5.08705
0
LINE
8
BLACK
6
CONTINUOUS
10
7.68705
20
-5.08705
11
7.68705
21
-3.11295
0
LINE
8
BLACK
6
CONTINUOUS
10
7.68705
20
-3.11295
11
5.31295
21
-3.11295
  0
ENDSEC
  0
EOF
