<?xml version='1.0' encoding='ASCII' standalone='yes'?>
<svg xmlns:svg="http://www.w3.org/2000/svg" xmlns="http://www.w3.org/2000/svg" xmlns:xlink="http://www.w3.org/1999/xlink" version="1.1" width="297.0022mm" height="210.0072mm" viewBox="0.0000 0.0000 297.0022 210.0072">
<title>SVG Image created as ISM02-F_Fab.svg date 2023/07/20 09:00:28 </title>
  <desc>Image generated by PCBNEW </desc>
<g style="fill:#848484; fill-opacity:1.0000;stroke:#848484; stroke-opacity:1.0000; stroke-linecap:round; stroke-linejoin:round;" transform="translate(0 0) scale(1 1)">
</g>
<g style="fill:#848484; fill-opacity:0.0;  stroke:#848484; stroke-width:0.0000; stroke-opacity:1;  stroke-linecap:round; stroke-linejoin:round;">
</g>
<g style="fill:#848484; fill-opacity:0.0;  stroke:#848484; stroke-width:0.8832; stroke-opacity:1;  stroke-linecap:round; stroke-linejoin:round;">
<g transform="rotate(-90.000000 262.4612 105.0036)">
<text x="262.4612" y="108.7425" textLength="20.6530" font-size="9.9703" lengthAdjust="spacingAndGlyphs" text-anchor="middle" opacity="0.01" style="font-family:monospace">J12</text>
</g>
<g class="stroked-text"><desc>J12</desc>
<path d="M258.3969 111.0570 L263.7381 111.0570 "/>
<path d="M263.7381 111.0570 L264.8064 111.4131 "/>
<path d="M264.8064 111.4131 L265.5185 112.1252 "/>
<path d="M265.5185 112.1252 L265.8746 113.1935 "/>
<path d="M265.8746 113.1935 L265.8746 113.9056 "/>
<path d="M265.8746 103.5793 L265.8746 107.8522 "/>
<path d="M265.8746 105.7158 L258.3969 105.7158 "/>
<path d="M258.3969 105.7158 L259.4651 106.4279 "/>
<path d="M259.4651 106.4279 L260.1773 107.1401 "/>
<path d="M260.1773 107.1401 L260.5334 107.8522 "/>
<path d="M259.1091 100.7306 L258.7530 100.3745 "/>
<path d="M258.7530 100.3745 L258.3969 99.6624 "/>
<path d="M258.3969 99.6624 L258.3969 97.8820 "/>
<path d="M258.3969 97.8820 L258.7530 97.1698 "/>
<path d="M258.7530 97.1698 L259.1091 96.8137 "/>
<path d="M259.1091 96.8137 L259.8212 96.4577 "/>
<path d="M259.8212 96.4577 L260.5334 96.4577 "/>
<path d="M260.5334 96.4577 L261.6016 96.8137 "/>
<path d="M261.6016 96.8137 L265.8746 101.0867 "/>
<path d="M265.8746 101.0867 L265.8746 96.4577 "/>
</g><path d="M10.9115 124.4456 L40.8223 124.4456 "/>
<path d="M10.9115 139.4010 L10.9115 124.4456 "/>
<path d="M40.8223 124.4456 L40.8223 139.4010 "/>
<path d="M40.8223 139.4010 L10.9115 139.4010 "/>
<path d="M182.7219 60.1374 L182.7219 30.2266 "/>
<path d="M197.6773 60.1374 L182.7219 60.1374 "/>
<path d="M182.7219 30.2266 L197.6773 30.2266 "/>
<path d="M197.6773 30.2266 L197.6773 60.1374 "/>
<path d="M212.7504 60.1374 L212.7504 30.2266 "/>
<path d="M227.7058 60.1374 L212.7504 60.1374 "/>
<path d="M212.7504 30.2266 L227.7058 30.2266 "/>
<path d="M227.7058 30.2266 L227.7058 60.1374 "/>
<path d="M162.0787 60.1374 L162.0787 30.2266 "/>
<path d="M177.0341 60.1374 L162.0787 60.1374 "/>
<path d="M162.0787 30.2266 L177.0341 30.2266 "/>
<path d="M177.0341 30.2266 L177.0341 60.1374 "/>
<path d="M241.8534 125.6114 L283.0690 125.6114 "/>
<path d="M274.4137 125.6114 L274.4137 116.9561 "/>
<path d="M283.0690 125.6114 L283.0690 84.3958 "/>
<path d="M244.5030 122.9619 L250.5087 122.9619 "/>
<path d="M280.4195 122.9619 L274.4137 122.9619 "/>
<path d="M241.8534 116.9561 L250.5087 116.9561 "/>
<path d="M244.5030 116.9561 L244.5030 122.9619 "/>
<path d="M250.5087 116.9561 L250.5087 125.6114 "/>
<path d="M274.4137 116.9561 L283.0690 116.9561 "/>
<path d="M280.4195 116.9561 L280.4195 122.9619 "/>
<path d="M241.8534 93.0511 L250.5087 93.0511 "/>
<path d="M250.5087 93.0511 L250.5087 84.3958 "/>
<path d="M274.4137 93.0511 L274.4137 84.3958 "/>
<path d="M280.4195 93.0511 L280.4195 87.0454 "/>
<path d="M283.0690 93.0511 L274.4137 93.0511 "/>
<path d="M244.5030 87.0454 L244.5030 93.0511 "/>
<path d="M244.5030 87.0454 L250.5087 87.0454 "/>
<path d="M280.4195 87.0454 L274.4137 87.0454 "/>
<path d="M241.8534 84.3958 L241.8534 125.6114 "/>
<path d="M283.0690 84.3958 L241.8534 84.3958 "/>
<circle cx="262.4612" cy="105.0036" r="12.7345"/> 
<path d="M102.0216 60.1374 L102.0216 30.2266 "/>
<path d="M116.9770 60.1374 L102.0216 60.1374 "/>
<path d="M102.0216 30.2266 L116.9770 30.2266 "/>
<path d="M116.9770 30.2266 L116.9770 60.1374 "/>
<path d="M227.7647 60.1374 L227.7647 30.2266 "/>
<path d="M242.7201 60.1374 L227.7647 60.1374 "/>
<path d="M227.7647 30.2266 L242.7201 30.2266 "/>
<path d="M242.7201 30.2266 L242.7201 60.1374 "/>
<path d="M117.0359 60.1374 L117.0359 30.2266 "/>
<path d="M131.9913 60.1374 L117.0359 60.1374 "/>
<path d="M117.0359 30.2266 L131.9913 30.2266 "/>
<path d="M131.9913 30.2266 L131.9913 60.1374 "/>
<path d="M132.0502 60.1374 L132.0502 30.2266 "/>
<path d="M147.0056 60.1374 L132.0502 60.1374 "/>
<path d="M132.0502 30.2266 L147.0056 30.2266 "/>
<path d="M147.0056 30.2266 L147.0056 60.1374 "/>
<path d="M147.0644 60.1374 L147.0644 30.2266 "/>
<path d="M162.0198 60.1374 L147.0644 60.1374 "/>
<path d="M147.0644 30.2266 L162.0198 30.2266 "/>
<path d="M162.0198 30.2266 L162.0198 60.1374 "/>
<path d="M197.7361 60.1374 L197.7361 30.2266 "/>
<path d="M212.6915 60.1374 L197.7361 60.1374 "/>
<path d="M197.7361 30.2266 L212.6915 30.2266 "/>
<path d="M212.6915 30.2266 L212.6915 60.1374 "/>
<path d="M10.9115 94.5348 L40.8223 94.5348 "/>
<path d="M10.9115 109.4902 L10.9115 94.5348 "/>
<path d="M40.8223 94.5348 L40.8223 109.4902 "/>
<path d="M40.8223 109.4902 L10.9115 109.4902 "/>
<path d="M10.9115 109.4902 L40.8223 109.4902 "/>
<path d="M10.9115 124.4456 L10.9115 109.4902 "/>
<path d="M40.8223 109.4902 L40.8223 124.4456 "/>
<path d="M40.8223 124.4456 L10.9115 124.4456 "/>
<g>
</g>
<g>
</g>
<g>
</g>
<g>
</g>
<g>
</g>
<g>
</g>
<g>
</g>
<g>
</g>
<g>
</g>
<g>
</g>
<g>
</g>
<g>
</g>
<g>
</g>
<g>
</g>
<g>
</g>
<g>
</g>
<g>
</g>
<g>
</g>
<g>
</g>
<g>
</g>
<g>
</g>
<g>
</g>
<g>
</g>
<g>
</g>
<g>
</g>
<g>
</g>
<g>
</g>
<g>
</g>
<g>
</g>
<g>
</g>
<g>
</g>
<g>
</g>
<g>
</g>
<g>
</g>
<g>
</g>
<g>
</g>
<g>
</g>
<g>
</g>
<g>
</g>
<g>
</g>
<g>
</g>
<g>
</g>
<g>
</g>
<g>
</g>
<g>
</g>
<g>
</g>
<g>
</g>
<g>
</g>
<g>
</g>
<g>
</g>
<g>
</g>
<g>
</g>
<g>
</g>
<g>
</g>
<g>
</g>
<g>
</g>
<g>
</g>
<g>
</g>
</g> 
<svg:g><svg:g><svg:title>SVG Image created as ISM02-Edge_Cuts.svg date 2023/07/20 09:00:28 </svg:title>
  <svg:desc>Image generated by PCBNEW </svg:desc>
<svg:g style="fill:#C2C200; fill-opacity:1.0000;stroke:#C2C200; stroke-opacity:1.0000; stroke-linecap:round; stroke-linejoin:round;" transform="translate(0 0) scale(1 1)">
</svg:g>
<svg:g style="fill:#C2C200; fill-opacity:0.0;  stroke:#C2C200; stroke-width:0.0000; stroke-opacity:1;  stroke-linecap:round; stroke-linejoin:round;">
</svg:g>
<svg:g style="fill:#C2C200; fill-opacity:0.0;  stroke:#C2C200; stroke-width:0.8832; stroke-opacity:1;  stroke-linecap:round; stroke-linejoin:round;">
<svg:path d="M0.4427 16.7668 L0.4427 193.2404 "/>
<svg:path d="M0.4427 16.7668 L296.5595 16.7668 "/>
<svg:path d="M296.5595 193.2404 L0.4427 193.2404 "/>
<svg:path d="M296.5595 193.2404 L296.5595 16.7668 "/>
<svg:g>
</svg:g>
<svg:g>
</svg:g>
<svg:g>
</svg:g>
<svg:g>
</svg:g>
<svg:g>
</svg:g>
<svg:g>
</svg:g>
<svg:g>
</svg:g>
<svg:g>
</svg:g>
<svg:g>
</svg:g>
<svg:g>
</svg:g>
<svg:g>
</svg:g>
<svg:g>
</svg:g>
<svg:g>
</svg:g>
<svg:g>
</svg:g>
<svg:g>
</svg:g>
<svg:g>
</svg:g>
<svg:g>
</svg:g>
<svg:g>
</svg:g>
<svg:g>
</svg:g>
<svg:g>
</svg:g>
<svg:g>
</svg:g>
<svg:g>
</svg:g>
<svg:g>
</svg:g>
<svg:g>
</svg:g>
<svg:g>
</svg:g>
<svg:g>
</svg:g>
<svg:g>
</svg:g>
<svg:g>
</svg:g>
<svg:g>
</svg:g>
<svg:g>
</svg:g>
<svg:g>
</svg:g>
<svg:g>
</svg:g>
<svg:g>
</svg:g>
<svg:g>
</svg:g>
<svg:g>
</svg:g>
<svg:g>
</svg:g>
<svg:g>
</svg:g>
<svg:g>
</svg:g>
<svg:g>
</svg:g>
<svg:g>
</svg:g>
<svg:g>
</svg:g>
<svg:g>
</svg:g>
<svg:g>
</svg:g>
<svg:g>
</svg:g>
<svg:g>
</svg:g>
<svg:g>
</svg:g>
<svg:g>
</svg:g>
<svg:g>
</svg:g>
<svg:g>
</svg:g>
<svg:g>
</svg:g>
<svg:g>
</svg:g>
<svg:g>
</svg:g>
<svg:g>
</svg:g>
<svg:g>
</svg:g>
<svg:g>
</svg:g>
<svg:g>
</svg:g>
<svg:g>
</svg:g>
<svg:g>
</svg:g>
</svg:g> 
</svg:g></svg:g></svg>
