<?xml version='1.0' encoding='ASCII' standalone='yes'?>
<svg xmlns:svg="http://www.w3.org/2000/svg" xmlns="http://www.w3.org/2000/svg" xmlns:xlink="http://www.w3.org/1999/xlink" version="1.1" width="297.0022mm" height="210.0072mm" viewBox="0.0000 0.0000 297.0022 210.0072">
<title>SVG Image created as ISM02-B_Fab.svg date 2023/07/21 03:41:46 </title>
  <desc>Image generated by PCBNEW </desc>
<g style="fill:#000084; fill-opacity:1.0000;stroke:#000084; stroke-opacity:1.0000; stroke-linecap:round; stroke-linejoin:round;" transform="translate(0 0) scale(1 1)">
</g>
<g style="fill:#000084; fill-opacity:0.0;  stroke:#000084; stroke-width:0.0000; stroke-opacity:1;  stroke-linecap:round; stroke-linejoin:round;">
</g>
<g style="fill:#000084; fill-opacity:0.01;  stroke:#000084; stroke-width:0.3533; stroke-opacity:1;  stroke-linecap:round; stroke-linejoin:round;">
<g transform="rotate(-90.000000 95.9241 102.8251)">
<text x="95.9241" y="104.0027" transform="scale(-1 1) translate(-191.848112 0)" textLength="7.2534" font-size="3.1402" lengthAdjust="spacingAndGlyphs" text-anchor="middle" opacity="0.01" style="font-family:monospace">C19</text>
</g>
<g class="stroked-text"><desc>C19</desc>
<path d="M95.0772 101.3110 L94.9650 101.1989 "/>
<path d="M94.9650 101.1989 L94.8529 100.8624 "/>
<path d="M94.8529 100.8624 L94.8529 100.6381 "/>
<path d="M94.8529 100.6381 L94.9650 100.3016 "/>
<path d="M94.9650 100.3016 L95.1893 100.0773 "/>
<path d="M95.1893 100.0773 L95.4136 99.9652 "/>
<path d="M95.4136 99.9652 L95.8622 99.8530 "/>
<path d="M95.8622 99.8530 L96.1987 99.8530 "/>
<path d="M96.1987 99.8530 L96.6473 99.9652 "/>
<path d="M96.6473 99.9652 L96.8716 100.0773 "/>
<path d="M96.8716 100.0773 L97.0959 100.3016 "/>
<path d="M97.0959 100.3016 L97.2081 100.6381 "/>
<path d="M97.2081 100.6381 L97.2081 100.8624 "/>
<path d="M97.2081 100.8624 L97.0959 101.1989 "/>
<path d="M97.0959 101.1989 L96.9838 101.3110 "/>
<path d="M94.8529 103.5540 L94.8529 102.2082 "/>
<path d="M94.8529 102.8811 L97.2081 102.8811 "/>
<path d="M97.2081 102.8811 L96.8716 102.6568 "/>
<path d="M96.8716 102.6568 L96.6473 102.4325 "/>
<path d="M96.6473 102.4325 L96.5351 102.2082 "/>
<path d="M94.8529 104.6756 L94.8529 105.1242 "/>
<path d="M94.8529 105.1242 L94.9650 105.3485 "/>
<path d="M94.9650 105.3485 L95.0772 105.4606 "/>
<path d="M95.0772 105.4606 L95.4136 105.6849 "/>
<path d="M95.4136 105.6849 L95.8622 105.7971 "/>
<path d="M95.8622 105.7971 L96.7595 105.7971 "/>
<path d="M96.7595 105.7971 L96.9838 105.6849 "/>
<path d="M96.9838 105.6849 L97.0959 105.5728 "/>
<path d="M97.0959 105.5728 L97.2081 105.3485 "/>
<path d="M97.2081 105.3485 L97.2081 104.8999 "/>
<path d="M97.2081 104.8999 L97.0959 104.6756 "/>
<path d="M97.0959 104.6756 L96.9838 104.5634 "/>
<path d="M96.9838 104.5634 L96.7595 104.4513 "/>
<path d="M96.7595 104.4513 L96.1987 104.4513 "/>
<path d="M96.1987 104.4513 L95.9744 104.5634 "/>
<path d="M95.9744 104.5634 L95.8622 104.6756 "/>
<path d="M95.8622 104.6756 L95.7501 104.8999 "/>
<path d="M95.7501 104.8999 L95.7501 105.3485 "/>
<path d="M95.7501 105.3485 L95.8622 105.5728 "/>
<path d="M95.8622 105.5728 L95.9744 105.6849 "/>
<path d="M95.9744 105.6849 L96.1987 105.7971 "/>
</g><text x="143.9320" y="93.4691" transform="scale(-1 1) translate(-287.864099 0)" textLength="7.2534" font-size="3.1402" lengthAdjust="spacingAndGlyphs" text-anchor="middle" opacity="0.01" style="font-family:monospace">C18</text>
<g class="stroked-text"><desc>C18</desc>
<path d="M142.4180 93.1384 L142.3059 93.2505 "/>
<path d="M142.3059 93.2505 L141.9694 93.3627 "/>
<path d="M141.9694 93.3627 L141.7451 93.3627 "/>
<path d="M141.7451 93.3627 L141.4086 93.2505 "/>
<path d="M141.4086 93.2505 L141.1843 93.0262 "/>
<path d="M141.1843 93.0262 L141.0722 92.8019 "/>
<path d="M141.0722 92.8019 L140.9600 92.3533 "/>
<path d="M140.9600 92.3533 L140.9600 92.0169 "/>
<path d="M140.9600 92.0169 L141.0722 91.5683 "/>
<path d="M141.0722 91.5683 L141.1843 91.3440 "/>
<path d="M141.1843 91.3440 L141.4086 91.1197 "/>
<path d="M141.4086 91.1197 L141.7451 91.0075 "/>
<path d="M141.7451 91.0075 L141.9694 91.0075 "/>
<path d="M141.9694 91.0075 L142.3059 91.1197 "/>
<path d="M142.3059 91.1197 L142.4180 91.2318 "/>
<path d="M144.6610 93.3627 L143.3152 93.3627 "/>
<path d="M143.9881 93.3627 L143.9881 91.0075 "/>
<path d="M143.9881 91.0075 L143.7638 91.3440 "/>
<path d="M143.7638 91.3440 L143.5395 91.5683 "/>
<path d="M143.5395 91.5683 L143.3152 91.6804 "/>
<path d="M146.0069 92.0169 L145.7825 91.9047 "/>
<path d="M145.7825 91.9047 L145.6704 91.7926 "/>
<path d="M145.6704 91.7926 L145.5582 91.5683 "/>
<path d="M145.5582 91.5683 L145.5582 91.4561 "/>
<path d="M145.5582 91.4561 L145.6704 91.2318 "/>
<path d="M145.6704 91.2318 L145.7825 91.1197 "/>
<path d="M145.7825 91.1197 L146.0069 91.0075 "/>
<path d="M146.0069 91.0075 L146.4555 91.0075 "/>
<path d="M146.4555 91.0075 L146.6798 91.1197 "/>
<path d="M146.6798 91.1197 L146.7919 91.2318 "/>
<path d="M146.7919 91.2318 L146.9041 91.4561 "/>
<path d="M146.9041 91.4561 L146.9041 91.5683 "/>
<path d="M146.9041 91.5683 L146.7919 91.7926 "/>
<path d="M146.7919 91.7926 L146.6798 91.9047 "/>
<path d="M146.6798 91.9047 L146.4555 92.0169 "/>
<path d="M146.4555 92.0169 L146.0069 92.0169 "/>
<path d="M146.0069 92.0169 L145.7825 92.1290 "/>
<path d="M145.7825 92.1290 L145.6704 92.2412 "/>
<path d="M145.6704 92.2412 L145.5582 92.4655 "/>
<path d="M145.5582 92.4655 L145.5582 92.9141 "/>
<path d="M145.5582 92.9141 L145.6704 93.1384 "/>
<path d="M145.6704 93.1384 L145.7825 93.2505 "/>
<path d="M145.7825 93.2505 L146.0069 93.3627 "/>
<path d="M146.0069 93.3627 L146.4555 93.3627 "/>
<path d="M146.4555 93.3627 L146.6798 93.2505 "/>
<path d="M146.6798 93.2505 L146.7919 93.1384 "/>
<path d="M146.7919 93.1384 L146.9041 92.9141 "/>
<path d="M146.9041 92.9141 L146.9041 92.4655 "/>
<path d="M146.9041 92.4655 L146.7919 92.2412 "/>
<path d="M146.7919 92.2412 L146.6798 92.1290 "/>
<path d="M146.6798 92.1290 L146.4555 92.0169 "/>
</g><g transform="rotate(-90.000000 139.4454 115.8728)">
<text x="139.4454" y="117.0503" transform="scale(-1 1) translate(-278.890862 0)" textLength="7.2534" font-size="3.1402" lengthAdjust="spacingAndGlyphs" text-anchor="middle" opacity="0.01" style="font-family:monospace">C12</text>
</g>
<g class="stroked-text"><desc>C12</desc>
<path d="M138.5986 114.3587 L138.4864 114.2466 "/>
<path d="M138.4864 114.2466 L138.3743 113.9101 "/>
<path d="M138.3743 113.9101 L138.3743 113.6858 "/>
<path d="M138.3743 113.6858 L138.4864 113.3493 "/>
<path d="M138.4864 113.3493 L138.7107 113.1250 "/>
<path d="M138.7107 113.1250 L138.9350 113.0129 "/>
<path d="M138.9350 113.0129 L139.3836 112.9007 "/>
<path d="M139.3836 112.9007 L139.7201 112.9007 "/>
<path d="M139.7201 112.9007 L140.1687 113.0129 "/>
<path d="M140.1687 113.0129 L140.3930 113.1250 "/>
<path d="M140.3930 113.1250 L140.6173 113.3493 "/>
<path d="M140.6173 113.3493 L140.7294 113.6858 "/>
<path d="M140.7294 113.6858 L140.7294 113.9101 "/>
<path d="M140.7294 113.9101 L140.6173 114.2466 "/>
<path d="M140.6173 114.2466 L140.5051 114.3587 "/>
<path d="M138.3743 116.6017 L138.3743 115.2559 "/>
<path d="M138.3743 115.9288 L140.7294 115.9288 "/>
<path d="M140.7294 115.9288 L140.3930 115.7045 "/>
<path d="M140.3930 115.7045 L140.1687 115.4802 "/>
<path d="M140.1687 115.4802 L140.0565 115.2559 "/>
<path d="M140.5051 117.4990 L140.6173 117.6111 "/>
<path d="M140.6173 117.6111 L140.7294 117.8354 "/>
<path d="M140.7294 117.8354 L140.7294 118.3962 "/>
<path d="M140.7294 118.3962 L140.6173 118.6205 "/>
<path d="M140.6173 118.6205 L140.5051 118.7326 "/>
<path d="M140.5051 118.7326 L140.2808 118.8448 "/>
<path d="M140.2808 118.8448 L140.0565 118.8448 "/>
<path d="M140.0565 118.8448 L139.7201 118.7326 "/>
<path d="M139.7201 118.7326 L138.3743 117.3868 "/>
<path d="M138.3743 117.3868 L138.3743 118.8448 "/>
</g><g transform="rotate(-90.000000 73.7241 102.0125)">
<text x="73.7241" y="103.1901" transform="scale(-1 1) translate(-147.448255 0)" textLength="7.2534" font-size="3.1402" lengthAdjust="spacingAndGlyphs" text-anchor="middle" opacity="0.01" style="font-family:monospace">C22</text>
</g>
<g class="stroked-text"><desc>C22</desc>
<path d="M72.8773 100.4985 L72.7651 100.3863 "/>
<path d="M72.7651 100.3863 L72.6530 100.0499 "/>
<path d="M72.6530 100.0499 L72.6530 99.8256 "/>
<path d="M72.6530 99.8256 L72.7651 99.4891 "/>
<path d="M72.7651 99.4891 L72.9894 99.2648 "/>
<path d="M72.9894 99.2648 L73.2137 99.1527 "/>
<path d="M73.2137 99.1527 L73.6623 99.0405 "/>
<path d="M73.6623 99.0405 L73.9988 99.0405 "/>
<path d="M73.9988 99.0405 L74.4474 99.1527 "/>
<path d="M74.4474 99.1527 L74.6717 99.2648 "/>
<path d="M74.6717 99.2648 L74.8960 99.4891 "/>
<path d="M74.8960 99.4891 L75.0081 99.8256 "/>
<path d="M75.0081 99.8256 L75.0081 100.0499 "/>
<path d="M75.0081 100.0499 L74.8960 100.3863 "/>
<path d="M74.8960 100.3863 L74.7838 100.4985 "/>
<path d="M74.7838 101.3957 L74.8960 101.5078 "/>
<path d="M74.8960 101.5078 L75.0081 101.7321 "/>
<path d="M75.0081 101.7321 L75.0081 102.2929 "/>
<path d="M75.0081 102.2929 L74.8960 102.5172 "/>
<path d="M74.8960 102.5172 L74.7838 102.6294 "/>
<path d="M74.7838 102.6294 L74.5595 102.7415 "/>
<path d="M74.5595 102.7415 L74.3352 102.7415 "/>
<path d="M74.3352 102.7415 L73.9988 102.6294 "/>
<path d="M73.9988 102.6294 L72.6530 101.2835 "/>
<path d="M72.6530 101.2835 L72.6530 102.7415 "/>
<path d="M74.7838 103.6387 L74.8960 103.7509 "/>
<path d="M74.8960 103.7509 L75.0081 103.9752 "/>
<path d="M75.0081 103.9752 L75.0081 104.5359 "/>
<path d="M75.0081 104.5359 L74.8960 104.7602 "/>
<path d="M74.8960 104.7602 L74.7838 104.8724 "/>
<path d="M74.7838 104.8724 L74.5595 104.9845 "/>
<path d="M74.5595 104.9845 L74.3352 104.9845 "/>
<path d="M74.3352 104.9845 L73.9988 104.8724 "/>
<path d="M73.9988 104.8724 L72.6530 103.5266 "/>
<path d="M72.6530 103.5266 L72.6530 104.9845 "/>
</g><g transform="rotate(-90.000000 236.5966 137.0694)">
<text x="236.5966" y="138.2470" transform="scale(-1 1) translate(-473.193229 0)" textLength="5.0104" font-size="3.1402" lengthAdjust="spacingAndGlyphs" text-anchor="middle" opacity="0.01" style="font-family:monospace">C4</text>
</g>
<g class="stroked-text"><desc>C4</desc>
<path d="M235.7497 136.6768 L235.6376 136.5647 "/>
<path d="M235.6376 136.5647 L235.5254 136.2282 "/>
<path d="M235.5254 136.2282 L235.5254 136.0039 "/>
<path d="M235.5254 136.0039 L235.6376 135.6675 "/>
<path d="M235.6376 135.6675 L235.8619 135.4432 "/>
<path d="M235.8619 135.4432 L236.0862 135.3310 "/>
<path d="M236.0862 135.3310 L236.5348 135.2189 "/>
<path d="M236.5348 135.2189 L236.8713 135.2189 "/>
<path d="M236.8713 135.2189 L237.3199 135.3310 "/>
<path d="M237.3199 135.3310 L237.5442 135.4432 "/>
<path d="M237.5442 135.4432 L237.7685 135.6675 "/>
<path d="M237.7685 135.6675 L237.8806 136.0039 "/>
<path d="M237.8806 136.0039 L237.8806 136.2282 "/>
<path d="M237.8806 136.2282 L237.7685 136.5647 "/>
<path d="M237.7685 136.5647 L237.6563 136.6768 "/>
<path d="M237.0956 138.6956 L235.5254 138.6956 "/>
<path d="M237.9928 138.1348 L236.3105 137.5741 "/>
<path d="M236.3105 137.5741 L236.3105 139.0320 "/>
</g><g transform="rotate(-90.000000 246.0173 115.2840)">
<text x="246.0173" y="116.4616" transform="scale(-1 1) translate(-492.034671 0)" textLength="5.0104" font-size="3.1402" lengthAdjust="spacingAndGlyphs" text-anchor="middle" opacity="0.01" style="font-family:monospace">C5</text>
</g>
<g class="stroked-text"><desc>C5</desc>
<path d="M245.1705 114.8914 L245.0583 114.7793 "/>
<path d="M245.0583 114.7793 L244.9462 114.4428 "/>
<path d="M244.9462 114.4428 L244.9462 114.2185 "/>
<path d="M244.9462 114.2185 L245.0583 113.8821 "/>
<path d="M245.0583 113.8821 L245.2826 113.6578 "/>
<path d="M245.2826 113.6578 L245.5069 113.5456 "/>
<path d="M245.5069 113.5456 L245.9555 113.4335 "/>
<path d="M245.9555 113.4335 L246.2920 113.4335 "/>
<path d="M246.2920 113.4335 L246.7406 113.5456 "/>
<path d="M246.7406 113.5456 L246.9649 113.6578 "/>
<path d="M246.9649 113.6578 L247.1892 113.8821 "/>
<path d="M247.1892 113.8821 L247.3013 114.2185 "/>
<path d="M247.3013 114.2185 L247.3013 114.4428 "/>
<path d="M247.3013 114.4428 L247.1892 114.7793 "/>
<path d="M247.1892 114.7793 L247.0770 114.8914 "/>
<path d="M247.3013 117.0223 L247.3013 115.9008 "/>
<path d="M247.3013 115.9008 L246.1798 115.7886 "/>
<path d="M246.1798 115.7886 L246.2920 115.9008 "/>
<path d="M246.2920 115.9008 L246.4041 116.1251 "/>
<path d="M246.4041 116.1251 L246.4041 116.6859 "/>
<path d="M246.4041 116.6859 L246.2920 116.9102 "/>
<path d="M246.2920 116.9102 L246.1798 117.0223 "/>
<path d="M246.1798 117.0223 L245.9555 117.1345 "/>
<path d="M245.9555 117.1345 L245.3948 117.1345 "/>
<path d="M245.3948 117.1345 L245.1705 117.0223 "/>
<path d="M245.1705 117.0223 L245.0583 116.9102 "/>
<path d="M245.0583 116.9102 L244.9462 116.6859 "/>
<path d="M244.9462 116.6859 L244.9462 116.1251 "/>
<path d="M244.9462 116.1251 L245.0583 115.9008 "/>
<path d="M245.0583 115.9008 L245.1705 115.7886 "/>
</g><g transform="rotate(-90.000000 193.0258 164.8252)">
<text x="193.0258" y="166.0028" transform="scale(-1 1) translate(-386.051562 0)" textLength="5.0104" font-size="3.1402" lengthAdjust="spacingAndGlyphs" text-anchor="middle" opacity="0.01" style="font-family:monospace">C1</text>
</g>
<g class="stroked-text"><desc>C1</desc>
<path d="M192.1789 164.4326 L192.0668 164.3205 "/>
<path d="M192.0668 164.3205 L191.9546 163.9840 "/>
<path d="M191.9546 163.9840 L191.9546 163.7597 "/>
<path d="M191.9546 163.7597 L192.0668 163.4233 "/>
<path d="M192.0668 163.4233 L192.2911 163.1990 "/>
<path d="M192.2911 163.1990 L192.5154 163.0868 "/>
<path d="M192.5154 163.0868 L192.9640 162.9747 "/>
<path d="M192.9640 162.9747 L193.3004 162.9747 "/>
<path d="M193.3004 162.9747 L193.7490 163.0868 "/>
<path d="M193.7490 163.0868 L193.9733 163.1990 "/>
<path d="M193.9733 163.1990 L194.1976 163.4233 "/>
<path d="M194.1976 163.4233 L194.3098 163.7597 "/>
<path d="M194.3098 163.7597 L194.3098 163.9840 "/>
<path d="M194.3098 163.9840 L194.1976 164.3205 "/>
<path d="M194.1976 164.3205 L194.0855 164.4326 "/>
<path d="M191.9546 166.6757 L191.9546 165.3299 "/>
<path d="M191.9546 166.0028 L194.3098 166.0028 "/>
<path d="M194.3098 166.0028 L193.9733 165.7785 "/>
<path d="M193.9733 165.7785 L193.7490 165.5542 "/>
<path d="M193.7490 165.5542 L193.6369 165.3299 "/>
</g><g transform="rotate(-90.000000 223.6431 164.8252)">
<text x="223.6431" y="166.0028" transform="scale(-1 1) translate(-447.286247 0)" textLength="5.0104" font-size="3.1402" lengthAdjust="spacingAndGlyphs" text-anchor="middle" opacity="0.01" style="font-family:monospace">C3</text>
</g>
<g class="stroked-text"><desc>C3</desc>
<path d="M222.7962 164.4326 L222.6841 164.3205 "/>
<path d="M222.6841 164.3205 L222.5719 163.9840 "/>
<path d="M222.5719 163.9840 L222.5719 163.7597 "/>
<path d="M222.5719 163.7597 L222.6841 163.4233 "/>
<path d="M222.6841 163.4233 L222.9084 163.1990 "/>
<path d="M222.9084 163.1990 L223.1327 163.0868 "/>
<path d="M223.1327 163.0868 L223.5813 162.9747 "/>
<path d="M223.5813 162.9747 L223.9178 162.9747 "/>
<path d="M223.9178 162.9747 L224.3664 163.0868 "/>
<path d="M224.3664 163.0868 L224.5907 163.1990 "/>
<path d="M224.5907 163.1990 L224.8150 163.4233 "/>
<path d="M224.8150 163.4233 L224.9271 163.7597 "/>
<path d="M224.9271 163.7597 L224.9271 163.9840 "/>
<path d="M224.9271 163.9840 L224.8150 164.3205 "/>
<path d="M224.8150 164.3205 L224.7028 164.4326 "/>
<path d="M224.9271 165.2177 L224.9271 166.6757 "/>
<path d="M224.9271 166.6757 L224.0299 165.8906 "/>
<path d="M224.0299 165.8906 L224.0299 166.2271 "/>
<path d="M224.0299 166.2271 L223.9178 166.4514 "/>
<path d="M223.9178 166.4514 L223.8056 166.5635 "/>
<path d="M223.8056 166.5635 L223.5813 166.6757 "/>
<path d="M223.5813 166.6757 L223.0205 166.6757 "/>
<path d="M223.0205 166.6757 L222.7962 166.5635 "/>
<path d="M222.7962 166.5635 L222.6841 166.4514 "/>
<path d="M222.6841 166.4514 L222.5719 166.2271 "/>
<path d="M222.5719 166.2271 L222.5719 165.5542 "/>
<path d="M222.5719 165.5542 L222.6841 165.3299 "/>
<path d="M222.6841 165.3299 L222.7962 165.2177 "/>
</g><text x="157.3919" y="122.3495" transform="scale(-1 1) translate(-314.783808 0)" textLength="7.2534" font-size="3.1402" lengthAdjust="spacingAndGlyphs" text-anchor="middle" opacity="0.01" style="font-family:monospace">C10</text>
<g class="stroked-text"><desc>C10</desc>
<path d="M155.8779 122.0188 L155.7657 122.1309 "/>
<path d="M155.7657 122.1309 L155.4293 122.2431 "/>
<path d="M155.4293 122.2431 L155.2050 122.2431 "/>
<path d="M155.2050 122.2431 L154.8685 122.1309 "/>
<path d="M154.8685 122.1309 L154.6442 121.9066 "/>
<path d="M154.6442 121.9066 L154.5321 121.6823 "/>
<path d="M154.5321 121.6823 L154.4199 121.2337 "/>
<path d="M154.4199 121.2337 L154.4199 120.8973 "/>
<path d="M154.4199 120.8973 L154.5321 120.4487 "/>
<path d="M154.5321 120.4487 L154.6442 120.2244 "/>
<path d="M154.6442 120.2244 L154.8685 120.0001 "/>
<path d="M154.8685 120.0001 L155.2050 119.8879 "/>
<path d="M155.2050 119.8879 L155.4293 119.8879 "/>
<path d="M155.4293 119.8879 L155.7657 120.0001 "/>
<path d="M155.7657 120.0001 L155.8779 120.1122 "/>
<path d="M158.1209 122.2431 L156.7751 122.2431 "/>
<path d="M157.4480 122.2431 L157.4480 119.8879 "/>
<path d="M157.4480 119.8879 L157.2237 120.2244 "/>
<path d="M157.2237 120.2244 L156.9994 120.4487 "/>
<path d="M156.9994 120.4487 L156.7751 120.5608 "/>
<path d="M159.5789 119.8879 L159.8032 119.8879 "/>
<path d="M159.8032 119.8879 L160.0275 120.0001 "/>
<path d="M160.0275 120.0001 L160.1396 120.1122 "/>
<path d="M160.1396 120.1122 L160.2518 120.3365 "/>
<path d="M160.2518 120.3365 L160.3639 120.7851 "/>
<path d="M160.3639 120.7851 L160.3639 121.3459 "/>
<path d="M160.3639 121.3459 L160.2518 121.7945 "/>
<path d="M160.2518 121.7945 L160.1396 122.0188 "/>
<path d="M160.1396 122.0188 L160.0275 122.1309 "/>
<path d="M160.0275 122.1309 L159.8032 122.2431 "/>
<path d="M159.8032 122.2431 L159.5789 122.2431 "/>
<path d="M159.5789 122.2431 L159.3546 122.1309 "/>
<path d="M159.3546 122.1309 L159.2424 122.0188 "/>
<path d="M159.2424 122.0188 L159.1303 121.7945 "/>
<path d="M159.1303 121.7945 L159.0181 121.3459 "/>
<path d="M159.0181 121.3459 L159.0181 120.7851 "/>
<path d="M159.0181 120.7851 L159.1303 120.3365 "/>
<path d="M159.1303 120.3365 L159.2424 120.1122 "/>
<path d="M159.2424 120.1122 L159.3546 120.0001 "/>
<path d="M159.3546 120.0001 L159.5789 119.8879 "/>
</g><g transform="rotate(-90.000000 236.5966 115.2840)">
<text x="236.5966" y="116.4616" transform="scale(-1 1) translate(-473.193229 0)" textLength="5.0104" font-size="3.1402" lengthAdjust="spacingAndGlyphs" text-anchor="middle" opacity="0.01" style="font-family:monospace">C6</text>
</g>
<g class="stroked-text"><desc>C6</desc>
<path d="M235.7497 114.8914 L235.6376 114.7793 "/>
<path d="M235.6376 114.7793 L235.5254 114.4428 "/>
<path d="M235.5254 114.4428 L235.5254 114.2185 "/>
<path d="M235.5254 114.2185 L235.6376 113.8821 "/>
<path d="M235.6376 113.8821 L235.8619 113.6578 "/>
<path d="M235.8619 113.6578 L236.0862 113.5456 "/>
<path d="M236.0862 113.5456 L236.5348 113.4335 "/>
<path d="M236.5348 113.4335 L236.8713 113.4335 "/>
<path d="M236.8713 113.4335 L237.3199 113.5456 "/>
<path d="M237.3199 113.5456 L237.5442 113.6578 "/>
<path d="M237.5442 113.6578 L237.7685 113.8821 "/>
<path d="M237.7685 113.8821 L237.8806 114.2185 "/>
<path d="M237.8806 114.2185 L237.8806 114.4428 "/>
<path d="M237.8806 114.4428 L237.7685 114.7793 "/>
<path d="M237.7685 114.7793 L237.6563 114.8914 "/>
<path d="M237.8806 116.9102 L237.8806 116.4616 "/>
<path d="M237.8806 116.4616 L237.7685 116.2372 "/>
<path d="M237.7685 116.2372 L237.6563 116.1251 "/>
<path d="M237.6563 116.1251 L237.3199 115.9008 "/>
<path d="M237.3199 115.9008 L236.8713 115.7886 "/>
<path d="M236.8713 115.7886 L235.9740 115.7886 "/>
<path d="M235.9740 115.7886 L235.7497 115.9008 "/>
<path d="M235.7497 115.9008 L235.6376 116.0129 "/>
<path d="M235.6376 116.0129 L235.5254 116.2372 "/>
<path d="M235.5254 116.2372 L235.5254 116.6859 "/>
<path d="M235.5254 116.6859 L235.6376 116.9102 "/>
<path d="M235.6376 116.9102 L235.7497 117.0223 "/>
<path d="M235.7497 117.0223 L235.9740 117.1345 "/>
<path d="M235.9740 117.1345 L236.5348 117.1345 "/>
<path d="M236.5348 117.1345 L236.7591 117.0223 "/>
<path d="M236.7591 117.0223 L236.8713 116.9102 "/>
<path d="M236.8713 116.9102 L236.9834 116.6859 "/>
<path d="M236.9834 116.6859 L236.9834 116.2372 "/>
<path d="M236.9834 116.2372 L236.8713 116.0129 "/>
<path d="M236.8713 116.0129 L236.7591 115.9008 "/>
<path d="M236.7591 115.9008 L236.5348 115.7886 "/>
</g><text x="157.3919" y="112.1633" transform="scale(-1 1) translate(-314.783808 0)" textLength="5.0104" font-size="3.1402" lengthAdjust="spacingAndGlyphs" text-anchor="middle" opacity="0.01" style="font-family:monospace">C8</text>
<g class="stroked-text"><desc>C8</desc>
<path d="M156.9994 111.8326 L156.8872 111.9448 "/>
<path d="M156.8872 111.9448 L156.5508 112.0569 "/>
<path d="M156.5508 112.0569 L156.3265 112.0569 "/>
<path d="M156.3265 112.0569 L155.9900 111.9448 "/>
<path d="M155.9900 111.9448 L155.7657 111.7205 "/>
<path d="M155.7657 111.7205 L155.6536 111.4962 "/>
<path d="M155.6536 111.4962 L155.5414 111.0476 "/>
<path d="M155.5414 111.0476 L155.5414 110.7111 "/>
<path d="M155.5414 110.7111 L155.6536 110.2625 "/>
<path d="M155.6536 110.2625 L155.7657 110.0382 "/>
<path d="M155.7657 110.0382 L155.9900 109.8139 "/>
<path d="M155.9900 109.8139 L156.3265 109.7018 "/>
<path d="M156.3265 109.7018 L156.5508 109.7018 "/>
<path d="M156.5508 109.7018 L156.8872 109.8139 "/>
<path d="M156.8872 109.8139 L156.9994 109.9261 "/>
<path d="M158.3452 110.7111 L158.1209 110.5990 "/>
<path d="M158.1209 110.5990 L158.0087 110.4868 "/>
<path d="M158.0087 110.4868 L157.8966 110.2625 "/>
<path d="M157.8966 110.2625 L157.8966 110.1504 "/>
<path d="M157.8966 110.1504 L158.0087 109.9261 "/>
<path d="M158.0087 109.9261 L158.1209 109.8139 "/>
<path d="M158.1209 109.8139 L158.3452 109.7018 "/>
<path d="M158.3452 109.7018 L158.7938 109.7018 "/>
<path d="M158.7938 109.7018 L159.0181 109.8139 "/>
<path d="M159.0181 109.8139 L159.1303 109.9261 "/>
<path d="M159.1303 109.9261 L159.2424 110.1504 "/>
<path d="M159.2424 110.1504 L159.2424 110.2625 "/>
<path d="M159.2424 110.2625 L159.1303 110.4868 "/>
<path d="M159.1303 110.4868 L159.0181 110.5990 "/>
<path d="M159.0181 110.5990 L158.7938 110.7111 "/>
<path d="M158.7938 110.7111 L158.3452 110.7111 "/>
<path d="M158.3452 110.7111 L158.1209 110.8233 "/>
<path d="M158.1209 110.8233 L158.0087 110.9354 "/>
<path d="M158.0087 110.9354 L157.8966 111.1597 "/>
<path d="M157.8966 111.1597 L157.8966 111.6083 "/>
<path d="M157.8966 111.6083 L158.0087 111.8326 "/>
<path d="M158.0087 111.8326 L158.1209 111.9448 "/>
<path d="M158.1209 111.9448 L158.3452 112.0569 "/>
<path d="M158.3452 112.0569 L158.7938 112.0569 "/>
<path d="M158.7938 112.0569 L159.0181 111.9448 "/>
<path d="M159.0181 111.9448 L159.1303 111.8326 "/>
<path d="M159.1303 111.8326 L159.2424 111.6083 "/>
<path d="M159.2424 111.6083 L159.2424 111.1597 "/>
<path d="M159.2424 111.1597 L159.1303 110.9354 "/>
<path d="M159.1303 110.9354 L159.0181 110.8233 "/>
<path d="M159.0181 110.8233 L158.7938 110.7111 "/>
</g></g>
<g style="fill:#000084; fill-opacity:0.01;  stroke:#000084; stroke-width:0.4416; stroke-opacity:1;  stroke-linecap:round; stroke-linejoin:round;">
<text x="208.3345" y="175.7179" transform="scale(-1 1) translate(-416.668904 0)" textLength="5.8424" font-size="3.9253" lengthAdjust="spacingAndGlyphs" text-anchor="middle" opacity="0.01" style="font-family:monospace">Y1</text>
<g class="stroked-text"><desc>Y1</desc>
<path d="M206.9326 174.1830 L206.9326 175.5849 "/>
<path d="M205.9512 172.6409 L206.9326 174.1830 "/>
<path d="M206.9326 174.1830 L207.9139 172.6409 "/>
<path d="M210.4373 175.5849 L208.7550 175.5849 "/>
<path d="M209.5962 175.5849 L209.5962 172.6409 "/>
<path d="M209.5962 172.6409 L209.3158 173.0615 "/>
<path d="M209.3158 173.0615 L209.0354 173.3418 "/>
<path d="M209.0354 173.3418 L208.7550 173.4820 "/>
</g></g>
<g style="fill:#000084; fill-opacity:0.0;  stroke:#000084; stroke-width:0.8832; stroke-opacity:1;  stroke-linecap:round; stroke-linejoin:round;">
<g transform="rotate(-90.000000 208.3345 124.7047)">
<text x="208.3345" y="127.6487" transform="scale(-1 1) translate(-416.668904 0)" textLength="12.8063" font-size="7.8506" lengthAdjust="spacingAndGlyphs" text-anchor="middle" opacity="0.01" style="font-family:monospace">U1</text>
</g>
<g class="stroked-text"><desc>U1</desc>
<path d="M211.5445 120.2186 L206.7780 120.2186 "/>
<path d="M206.7780 120.2186 L206.2173 120.4990 "/>
<path d="M206.2173 120.4990 L205.9369 120.7794 "/>
<path d="M205.9369 120.7794 L205.6565 121.3401 "/>
<path d="M205.6565 121.3401 L205.6565 122.4617 "/>
<path d="M205.6565 122.4617 L205.9369 123.0224 "/>
<path d="M205.9369 123.0224 L206.2173 123.3028 "/>
<path d="M206.2173 123.3028 L206.7780 123.5832 "/>
<path d="M206.7780 123.5832 L211.5445 123.5832 "/>
<path d="M205.6565 129.4711 L205.6565 126.1066 "/>
<path d="M205.6565 127.7888 L211.5445 127.7888 "/>
<path d="M211.5445 127.7888 L210.7033 127.2281 "/>
<path d="M210.7033 127.2281 L210.1426 126.6673 "/>
<path d="M210.1426 126.6673 L209.8622 126.1066 "/>
</g></g>
<g style="fill:#000084; fill-opacity:0.01;  stroke:#000084; stroke-width:0.3533; stroke-opacity:1;  stroke-linecap:round; stroke-linejoin:round;">
<text x="106.0284" y="82.2526" transform="scale(-1 1) translate(-212.056736 0)" textLength="5.0104" font-size="3.1402" lengthAdjust="spacingAndGlyphs" text-anchor="middle" opacity="0.01" style="font-family:monospace">R1</text>
<g class="stroked-text"><desc>R1</desc>
<path d="M105.6358 82.1461 L104.8508 81.0246 "/>
<path d="M104.2900 82.1461 L104.2900 79.7910 "/>
<path d="M104.2900 79.7910 L105.1872 79.7910 "/>
<path d="M105.1872 79.7910 L105.4115 79.9031 "/>
<path d="M105.4115 79.9031 L105.5237 80.0153 "/>
<path d="M105.5237 80.0153 L105.6358 80.2396 "/>
<path d="M105.6358 80.2396 L105.6358 80.5760 "/>
<path d="M105.6358 80.5760 L105.5237 80.8003 "/>
<path d="M105.5237 80.8003 L105.4115 80.9125 "/>
<path d="M105.4115 80.9125 L105.1872 81.0246 "/>
<path d="M105.1872 81.0246 L104.2900 81.0246 "/>
<path d="M107.8789 82.1461 L106.5331 82.1461 "/>
<path d="M107.2060 82.1461 L107.2060 79.7910 "/>
<path d="M107.2060 79.7910 L106.9817 80.1274 "/>
<path d="M106.9817 80.1274 L106.7574 80.3517 "/>
<path d="M106.7574 80.3517 L106.5331 80.4639 "/>
</g></g>
<g style="fill:#000084; fill-opacity:0.01;  stroke:#000084; stroke-width:0.2355; stroke-opacity:1;  stroke-linecap:round; stroke-linejoin:round;">
<g transform="rotate(-90.000000 172.3473 115.8728)">
<text x="172.3473" y="116.6088" transform="scale(-1 1) translate(-344.694597 0)" textLength="2.8879" font-size="1.9626" lengthAdjust="spacingAndGlyphs" text-anchor="middle" opacity="0.01" style="font-family:monospace">L2</text>
</g>
<g class="stroked-text"><desc>L2</desc>
<path d="M171.6786 115.6274 L171.6786 114.9265 "/>
<path d="M171.6786 114.9265 L173.1506 114.9265 "/>
<path d="M173.0104 116.0480 L173.0805 116.1181 "/>
<path d="M173.0805 116.1181 L173.1506 116.2583 "/>
<path d="M173.1506 116.2583 L173.1506 116.6088 "/>
<path d="M173.1506 116.6088 L173.0805 116.7489 "/>
<path d="M173.0805 116.7489 L173.0104 116.8190 "/>
<path d="M173.0104 116.8190 L172.8702 116.8891 "/>
<path d="M172.8702 116.8891 L172.7300 116.8891 "/>
<path d="M172.7300 116.8891 L172.5197 116.8190 "/>
<path d="M172.5197 116.8190 L171.6786 115.9779 "/>
<path d="M171.6786 115.9779 L171.6786 116.8891 "/>
</g><text x="84.1482" y="98.2619" transform="scale(-1 1) translate(-168.296310 0)" textLength="2.8879" font-size="1.9626" lengthAdjust="spacingAndGlyphs" text-anchor="middle" opacity="0.01" style="font-family:monospace">L7</text>
<g class="stroked-text"><desc>L7</desc>
<path d="M83.9028 98.1946 L83.2019 98.1946 "/>
<path d="M83.2019 98.1946 L83.2019 96.7226 "/>
<path d="M84.2533 96.7226 L85.2346 96.7226 "/>
<path d="M85.2346 96.7226 L84.6038 98.1946 "/>
</g></g>
<g style="fill:#000084; fill-opacity:0.0;  stroke:#000084; stroke-width:0.6431; stroke-opacity:1;  stroke-linecap:round; stroke-linejoin:round;">
<g transform="rotate(-90.000000 245.9143 134.9144)">
<text x="245.9143" y="136.3875" transform="scale(-1 1) translate(-491.828593 0)" textLength="6.2094" font-size="3.9283" lengthAdjust="spacingAndGlyphs" text-anchor="middle" opacity="0.01" style="font-family:monospace">L1</text>
</g>
<g class="stroked-text"><desc>L1</desc>
<path d="M244.5848 134.4234 L244.5848 133.0204 "/>
<path d="M244.5848 133.0204 L247.5310 133.0204 "/>
<path d="M244.5848 136.9487 L244.5848 135.2651 "/>
<path d="M244.5848 136.1069 L247.5310 136.1069 "/>
<path d="M247.5310 136.1069 L247.1101 135.8263 "/>
<path d="M247.1101 135.8263 L246.8295 135.5457 "/>
<path d="M246.8295 135.5457 L246.6892 135.2651 "/>
</g><g transform="rotate(-90.000000 250.0270 134.1666)">
<text x="250.0270" y="135.6397" transform="scale(-1 1) translate(-500.054059 0)" textLength="12.3824" font-size="3.9283" lengthAdjust="spacingAndGlyphs" text-anchor="middle" opacity="0.01" style="font-family:monospace">15uH</text>
</g>
<g class="stroked-text"><desc>15uH</desc>
<path d="M248.6975 130.7294 L248.6975 129.0458 "/>
<path d="M248.6975 129.8876 L251.6437 129.8876 "/>
<path d="M251.6437 129.8876 L251.2228 129.6070 "/>
<path d="M251.2228 129.6070 L250.9422 129.3264 "/>
<path d="M250.9422 129.3264 L250.8019 129.0458 "/>
<path d="M251.6437 133.3950 L251.6437 131.9920 "/>
<path d="M251.6437 131.9920 L250.2408 131.8517 "/>
<path d="M250.2408 131.8517 L250.3810 131.9920 "/>
<path d="M250.3810 131.9920 L250.5213 132.2726 "/>
<path d="M250.5213 132.2726 L250.5213 132.9741 "/>
<path d="M250.5213 132.9741 L250.3810 133.2547 "/>
<path d="M250.3810 133.2547 L250.2408 133.3950 "/>
<path d="M250.2408 133.3950 L249.9602 133.5353 "/>
<path d="M249.9602 133.5353 L249.2587 133.5353 "/>
<path d="M249.2587 133.5353 L248.9781 133.3950 "/>
<path d="M248.9781 133.3950 L248.8378 133.2547 "/>
<path d="M248.8378 133.2547 L248.6975 132.9741 "/>
<path d="M248.6975 132.9741 L248.6975 132.2726 "/>
<path d="M248.6975 132.2726 L248.8378 131.9920 "/>
<path d="M248.8378 131.9920 L248.9781 131.8517 "/>
<path d="M250.6616 136.0606 L248.6975 136.0606 "/>
<path d="M250.6616 134.7980 L249.1184 134.7980 "/>
<path d="M249.1184 134.7980 L248.8378 134.9382 "/>
<path d="M248.8378 134.9382 L248.6975 135.2188 "/>
<path d="M248.6975 135.2188 L248.6975 135.6397 "/>
<path d="M248.6975 135.6397 L248.8378 135.9203 "/>
<path d="M248.8378 135.9203 L248.9781 136.0606 "/>
<path d="M248.6975 137.4636 L251.6437 137.4636 "/>
<path d="M250.2408 137.4636 L250.2408 139.1471 "/>
<path d="M248.6975 139.1471 L251.6437 139.1471 "/>
</g></g>
<g style="fill:#000084; fill-opacity:0.01;  stroke:#000084; stroke-width:0.2355; stroke-opacity:1;  stroke-linecap:round; stroke-linejoin:round;">
<g transform="rotate(-90.000000 170.6516 137.6582)">
<text x="170.6516" y="138.3942" transform="scale(-1 1) translate(-341.303138 0)" textLength="2.8879" font-size="1.9626" lengthAdjust="spacingAndGlyphs" text-anchor="middle" opacity="0.01" style="font-family:monospace">L4</text>
</g>
<g class="stroked-text"><desc>L4</desc>
<path d="M169.9829 137.4128 L169.9829 136.7119 "/>
<path d="M169.9829 136.7119 L171.4548 136.7119 "/>
<path d="M170.9642 138.5344 L169.9829 138.5344 "/>
<path d="M171.5249 138.1839 L170.4735 137.8334 "/>
<path d="M170.4735 137.8334 L170.4735 138.7446 "/>
</g><g transform="rotate(-90.000000 112.0099 134.9144)">
<text x="112.0099" y="135.6504" transform="scale(-1 1) translate(-224.019874 0)" textLength="2.8879" font-size="1.9626" lengthAdjust="spacingAndGlyphs" text-anchor="middle" opacity="0.01" style="font-family:monospace">L6</text>
</g>
<g class="stroked-text"><desc>L6</desc>
<path d="M111.3412 134.6691 L111.3412 133.9681 "/>
<path d="M111.3412 133.9681 L112.8132 133.9681 "/>
<path d="M112.8132 135.7906 L112.8132 135.5102 "/>
<path d="M112.8132 135.5102 L112.7431 135.3700 "/>
<path d="M112.7431 135.3700 L112.6730 135.2999 "/>
<path d="M112.6730 135.2999 L112.4627 135.1597 "/>
<path d="M112.4627 135.1597 L112.1824 135.0896 "/>
<path d="M112.1824 135.0896 L111.6216 135.0896 "/>
<path d="M111.6216 135.0896 L111.4814 135.1597 "/>
<path d="M111.4814 135.1597 L111.4113 135.2298 "/>
<path d="M111.4113 135.2298 L111.3412 135.3700 "/>
<path d="M111.3412 135.3700 L111.3412 135.6504 "/>
<path d="M111.3412 135.6504 L111.4113 135.7906 "/>
<path d="M111.4113 135.7906 L111.4814 135.8607 "/>
<path d="M111.4814 135.8607 L111.6216 135.9308 "/>
<path d="M111.6216 135.9308 L111.9721 135.9308 "/>
<path d="M111.9721 135.9308 L112.1123 135.8607 "/>
<path d="M112.1123 135.8607 L112.1824 135.7906 "/>
<path d="M112.1824 135.7906 L112.2524 135.6504 "/>
<path d="M112.2524 135.6504 L112.2524 135.3700 "/>
<path d="M112.2524 135.3700 L112.1824 135.2298 "/>
<path d="M112.1824 135.2298 L112.1123 135.1597 "/>
<path d="M112.1123 135.1597 L111.9721 135.0896 "/>
</g><text x="147.0998" y="146.6373" transform="scale(-1 1) translate(-294.199533 0)" textLength="2.8879" font-size="1.9626" lengthAdjust="spacingAndGlyphs" text-anchor="middle" opacity="0.01" style="font-family:monospace">L5</text>
<g class="stroked-text"><desc>L5</desc>
<path d="M146.8544 146.5700 L146.1535 146.5700 "/>
<path d="M146.1535 146.5700 L146.1535 145.0980 "/>
<path d="M148.0460 145.0980 L147.3451 145.0980 "/>
<path d="M147.3451 145.0980 L147.2750 145.7990 "/>
<path d="M147.2750 145.7990 L147.3451 145.7289 "/>
<path d="M147.3451 145.7289 L147.4853 145.6588 "/>
<path d="M147.4853 145.6588 L147.8358 145.6588 "/>
<path d="M147.8358 145.6588 L147.9760 145.7289 "/>
<path d="M147.9760 145.7289 L148.0460 145.7990 "/>
<path d="M148.0460 145.7990 L148.1161 145.9392 "/>
<path d="M148.1161 145.9392 L148.1161 146.2896 "/>
<path d="M148.1161 146.2896 L148.0460 146.4298 "/>
<path d="M148.0460 146.4298 L147.9760 146.4999 "/>
<path d="M147.9760 146.4999 L147.8358 146.5700 "/>
<path d="M147.8358 146.5700 L147.4853 146.5700 "/>
<path d="M147.4853 146.5700 L147.3451 146.4999 "/>
<path d="M147.3451 146.4999 L147.2750 146.4298 "/>
</g></g>
<g style="fill:#000084; fill-opacity:0.01;  stroke:#000084; stroke-width:0.3533; stroke-opacity:1;  stroke-linecap:round; stroke-linejoin:round;">
<text x="147.0998" y="137.0694" transform="scale(-1 1) translate(-294.199533 0)" textLength="7.2534" font-size="3.1402" lengthAdjust="spacingAndGlyphs" text-anchor="middle" opacity="0.01" style="font-family:monospace">C13</text>
<g class="stroked-text"><desc>C13</desc>
<path d="M145.5857 136.7387 L145.4736 136.8508 "/>
<path d="M145.4736 136.8508 L145.1371 136.9630 "/>
<path d="M145.1371 136.9630 L144.9128 136.9630 "/>
<path d="M144.9128 136.9630 L144.5764 136.8508 "/>
<path d="M144.5764 136.8508 L144.3521 136.6265 "/>
<path d="M144.3521 136.6265 L144.2399 136.4022 "/>
<path d="M144.2399 136.4022 L144.1278 135.9536 "/>
<path d="M144.1278 135.9536 L144.1278 135.6172 "/>
<path d="M144.1278 135.6172 L144.2399 135.1685 "/>
<path d="M144.2399 135.1685 L144.3521 134.9442 "/>
<path d="M144.3521 134.9442 L144.5764 134.7199 "/>
<path d="M144.5764 134.7199 L144.9128 134.6078 "/>
<path d="M144.9128 134.6078 L145.1371 134.6078 "/>
<path d="M145.1371 134.6078 L145.4736 134.7199 "/>
<path d="M145.4736 134.7199 L145.5857 134.8321 "/>
<path d="M147.8288 136.9630 L146.4829 136.9630 "/>
<path d="M147.1558 136.9630 L147.1558 134.6078 "/>
<path d="M147.1558 134.6078 L146.9315 134.9442 "/>
<path d="M146.9315 134.9442 L146.7072 135.1685 "/>
<path d="M146.7072 135.1685 L146.4829 135.2807 "/>
<path d="M148.6138 134.6078 L150.0718 134.6078 "/>
<path d="M150.0718 134.6078 L149.2867 135.5050 "/>
<path d="M149.2867 135.5050 L149.6232 135.5050 "/>
<path d="M149.6232 135.5050 L149.8475 135.6172 "/>
<path d="M149.8475 135.6172 L149.9596 135.7293 "/>
<path d="M149.9596 135.7293 L150.0718 135.9536 "/>
<path d="M150.0718 135.9536 L150.0718 136.5144 "/>
<path d="M150.0718 136.5144 L149.9596 136.7387 "/>
<path d="M149.9596 136.7387 L149.8475 136.8508 "/>
<path d="M149.8475 136.8508 L149.6232 136.9630 "/>
<path d="M149.6232 136.9630 L148.9503 136.9630 "/>
<path d="M148.9503 136.9630 L148.7260 136.8508 "/>
<path d="M148.7260 136.8508 L148.6138 136.7387 "/>
</g><g transform="rotate(-90.000000 100.6438 137.9055)">
<text x="100.6438" y="139.0831" transform="scale(-1 1) translate(-201.287674 0)" textLength="7.2534" font-size="3.1402" lengthAdjust="spacingAndGlyphs" text-anchor="middle" opacity="0.01" style="font-family:monospace">C16</text>
</g>
<g class="stroked-text"><desc>C16</desc>
<path d="M99.7970 136.3914 L99.6848 136.2793 "/>
<path d="M99.6848 136.2793 L99.5727 135.9428 "/>
<path d="M99.5727 135.9428 L99.5727 135.7185 "/>
<path d="M99.5727 135.7185 L99.6848 135.3821 "/>
<path d="M99.6848 135.3821 L99.9091 135.1578 "/>
<path d="M99.9091 135.1578 L100.1334 135.0456 "/>
<path d="M100.1334 135.0456 L100.5820 134.9335 "/>
<path d="M100.5820 134.9335 L100.9185 134.9335 "/>
<path d="M100.9185 134.9335 L101.3671 135.0456 "/>
<path d="M101.3671 135.0456 L101.5914 135.1578 "/>
<path d="M101.5914 135.1578 L101.8157 135.3821 "/>
<path d="M101.8157 135.3821 L101.9278 135.7185 "/>
<path d="M101.9278 135.7185 L101.9278 135.9428 "/>
<path d="M101.9278 135.9428 L101.8157 136.2793 "/>
<path d="M101.8157 136.2793 L101.7035 136.3914 "/>
<path d="M99.5727 138.6345 L99.5727 137.2886 "/>
<path d="M99.5727 137.9615 L101.9278 137.9615 "/>
<path d="M101.9278 137.9615 L101.5914 137.7372 "/>
<path d="M101.5914 137.7372 L101.3671 137.5129 "/>
<path d="M101.3671 137.5129 L101.2549 137.2886 "/>
<path d="M101.9278 140.6532 L101.9278 140.2046 "/>
<path d="M101.9278 140.2046 L101.8157 139.9803 "/>
<path d="M101.8157 139.9803 L101.7035 139.8681 "/>
<path d="M101.7035 139.8681 L101.3671 139.6438 "/>
<path d="M101.3671 139.6438 L100.9185 139.5317 "/>
<path d="M100.9185 139.5317 L100.0213 139.5317 "/>
<path d="M100.0213 139.5317 L99.7970 139.6438 "/>
<path d="M99.7970 139.6438 L99.6848 139.7560 "/>
<path d="M99.6848 139.7560 L99.5727 139.9803 "/>
<path d="M99.5727 139.9803 L99.5727 140.4289 "/>
<path d="M99.5727 140.4289 L99.6848 140.6532 "/>
<path d="M99.6848 140.6532 L99.7970 140.7653 "/>
<path d="M99.7970 140.7653 L100.0213 140.8775 "/>
<path d="M100.0213 140.8775 L100.5820 140.8775 "/>
<path d="M100.5820 140.8775 L100.8063 140.7653 "/>
<path d="M100.8063 140.7653 L100.9185 140.6532 "/>
<path d="M100.9185 140.6532 L101.0306 140.4289 "/>
<path d="M101.0306 140.4289 L101.0306 139.9803 "/>
<path d="M101.0306 139.9803 L100.9185 139.7560 "/>
<path d="M100.9185 139.7560 L100.8063 139.6438 "/>
<path d="M100.8063 139.6438 L100.5820 139.5317 "/>
</g><text x="112.6753" y="98.7035" transform="scale(-1 1) translate(-225.350550 0)" textLength="7.2534" font-size="3.1402" lengthAdjust="spacingAndGlyphs" text-anchor="middle" opacity="0.01" style="font-family:monospace">C17</text>
<g class="stroked-text"><desc>C17</desc>
<path d="M111.1612 98.3728 L111.0491 98.4849 "/>
<path d="M111.0491 98.4849 L110.7126 98.5971 "/>
<path d="M110.7126 98.5971 L110.4883 98.5971 "/>
<path d="M110.4883 98.5971 L110.1519 98.4849 "/>
<path d="M110.1519 98.4849 L109.9276 98.2606 "/>
<path d="M109.9276 98.2606 L109.8154 98.0363 "/>
<path d="M109.8154 98.0363 L109.7033 97.5877 "/>
<path d="M109.7033 97.5877 L109.7033 97.2513 "/>
<path d="M109.7033 97.2513 L109.8154 96.8027 "/>
<path d="M109.8154 96.8027 L109.9276 96.5784 "/>
<path d="M109.9276 96.5784 L110.1519 96.3541 "/>
<path d="M110.1519 96.3541 L110.4883 96.2419 "/>
<path d="M110.4883 96.2419 L110.7126 96.2419 "/>
<path d="M110.7126 96.2419 L111.0491 96.3541 "/>
<path d="M111.0491 96.3541 L111.1612 96.4662 "/>
<path d="M113.4043 98.5971 L112.0584 98.5971 "/>
<path d="M112.7314 98.5971 L112.7314 96.2419 "/>
<path d="M112.7314 96.2419 L112.5071 96.5784 "/>
<path d="M112.5071 96.5784 L112.2827 96.8027 "/>
<path d="M112.2827 96.8027 L112.0584 96.9148 "/>
<path d="M114.1893 96.2419 L115.7594 96.2419 "/>
<path d="M115.7594 96.2419 L114.7501 98.5971 "/>
</g><g transform="rotate(-90.000000 132.3799 151.2829)">
<text x="132.3799" y="152.4605" transform="scale(-1 1) translate(-264.759781 0)" textLength="7.2534" font-size="3.1402" lengthAdjust="spacingAndGlyphs" text-anchor="middle" opacity="0.01" style="font-family:monospace">C14</text>
</g>
<g class="stroked-text"><desc>C14</desc>
<path d="M131.5330 149.7688 L131.4209 149.6567 "/>
<path d="M131.4209 149.6567 L131.3087 149.3202 "/>
<path d="M131.3087 149.3202 L131.3087 149.0959 "/>
<path d="M131.3087 149.0959 L131.4209 148.7595 "/>
<path d="M131.4209 148.7595 L131.6452 148.5352 "/>
<path d="M131.6452 148.5352 L131.8695 148.4230 "/>
<path d="M131.8695 148.4230 L132.3181 148.3109 "/>
<path d="M132.3181 148.3109 L132.6545 148.3109 "/>
<path d="M132.6545 148.3109 L133.1031 148.4230 "/>
<path d="M133.1031 148.4230 L133.3274 148.5352 "/>
<path d="M133.3274 148.5352 L133.5517 148.7595 "/>
<path d="M133.5517 148.7595 L133.6639 149.0959 "/>
<path d="M133.6639 149.0959 L133.6639 149.3202 "/>
<path d="M133.6639 149.3202 L133.5517 149.6567 "/>
<path d="M133.5517 149.6567 L133.4396 149.7688 "/>
<path d="M131.3087 152.0119 L131.3087 150.6661 "/>
<path d="M131.3087 151.3390 L133.6639 151.3390 "/>
<path d="M133.6639 151.3390 L133.3274 151.1147 "/>
<path d="M133.3274 151.1147 L133.1031 150.8904 "/>
<path d="M133.1031 150.8904 L132.9910 150.6661 "/>
<path d="M132.8788 154.0306 L131.3087 154.0306 "/>
<path d="M133.7760 153.4698 L132.0938 152.9091 "/>
<path d="M132.0938 152.9091 L132.0938 154.3671 "/>
</g><g transform="rotate(-90.000000 161.8196 141.1909)">
<text x="161.8196" y="142.3685" transform="scale(-1 1) translate(-323.639286 0)" textLength="7.2534" font-size="3.1402" lengthAdjust="spacingAndGlyphs" text-anchor="middle" opacity="0.01" style="font-family:monospace">C11</text>
</g>
<g class="stroked-text"><desc>C11</desc>
<path d="M160.9728 139.6769 L160.8606 139.5647 "/>
<path d="M160.8606 139.5647 L160.7485 139.2283 "/>
<path d="M160.7485 139.2283 L160.7485 139.0040 "/>
<path d="M160.7485 139.0040 L160.8606 138.6675 "/>
<path d="M160.8606 138.6675 L161.0849 138.4432 "/>
<path d="M161.0849 138.4432 L161.3092 138.3311 "/>
<path d="M161.3092 138.3311 L161.7578 138.2189 "/>
<path d="M161.7578 138.2189 L162.0943 138.2189 "/>
<path d="M162.0943 138.2189 L162.5429 138.3311 "/>
<path d="M162.5429 138.3311 L162.7672 138.4432 "/>
<path d="M162.7672 138.4432 L162.9915 138.6675 "/>
<path d="M162.9915 138.6675 L163.1036 139.0040 "/>
<path d="M163.1036 139.0040 L163.1036 139.2283 "/>
<path d="M163.1036 139.2283 L162.9915 139.5647 "/>
<path d="M162.9915 139.5647 L162.8793 139.6769 "/>
<path d="M160.7485 141.9199 L160.7485 140.5741 "/>
<path d="M160.7485 141.2470 L163.1036 141.2470 "/>
<path d="M163.1036 141.2470 L162.7672 141.0227 "/>
<path d="M162.7672 141.0227 L162.5429 140.7984 "/>
<path d="M162.5429 140.7984 L162.4307 140.5741 "/>
<path d="M160.7485 144.1630 L160.7485 142.8171 "/>
<path d="M160.7485 143.4900 L163.1036 143.4900 "/>
<path d="M163.1036 143.4900 L162.7672 143.2657 "/>
<path d="M162.7672 143.2657 L162.5429 143.0414 "/>
<path d="M162.5429 143.0414 L162.4307 142.8171 "/>
</g><text x="126.5991" y="136.9893" transform="scale(-1 1) translate(-253.198201 0)" textLength="7.2534" font-size="3.1402" lengthAdjust="spacingAndGlyphs" text-anchor="middle" opacity="0.01" style="font-family:monospace">C15</text>
<g class="stroked-text"><desc>C15</desc>
<path d="M125.0851 136.6586 L124.9729 136.7707 "/>
<path d="M124.9729 136.7707 L124.6365 136.8829 "/>
<path d="M124.6365 136.8829 L124.4122 136.8829 "/>
<path d="M124.4122 136.8829 L124.0757 136.7707 "/>
<path d="M124.0757 136.7707 L123.8514 136.5464 "/>
<path d="M123.8514 136.5464 L123.7392 136.3221 "/>
<path d="M123.7392 136.3221 L123.6271 135.8735 "/>
<path d="M123.6271 135.8735 L123.6271 135.5371 "/>
<path d="M123.6271 135.5371 L123.7392 135.0885 "/>
<path d="M123.7392 135.0885 L123.8514 134.8642 "/>
<path d="M123.8514 134.8642 L124.0757 134.6399 "/>
<path d="M124.0757 134.6399 L124.4122 134.5277 "/>
<path d="M124.4122 134.5277 L124.6365 134.5277 "/>
<path d="M124.6365 134.5277 L124.9729 134.6399 "/>
<path d="M124.9729 134.6399 L125.0851 134.7520 "/>
<path d="M127.3281 136.8829 L125.9823 136.8829 "/>
<path d="M126.6552 136.8829 L126.6552 134.5277 "/>
<path d="M126.6552 134.5277 L126.4309 134.8642 "/>
<path d="M126.4309 134.8642 L126.2066 135.0885 "/>
<path d="M126.2066 135.0885 L125.9823 135.2006 "/>
<path d="M129.4590 134.5277 L128.3375 134.5277 "/>
<path d="M128.3375 134.5277 L128.2253 135.6492 "/>
<path d="M128.2253 135.6492 L128.3375 135.5371 "/>
<path d="M128.3375 135.5371 L128.5618 135.4249 "/>
<path d="M128.5618 135.4249 L129.1225 135.4249 "/>
<path d="M129.1225 135.4249 L129.3468 135.5371 "/>
<path d="M129.3468 135.5371 L129.4590 135.6492 "/>
<path d="M129.4590 135.6492 L129.5711 135.8735 "/>
<path d="M129.5711 135.8735 L129.5711 136.4343 "/>
<path d="M129.5711 136.4343 L129.4590 136.6586 "/>
<path d="M129.4590 136.6586 L129.3468 136.7707 "/>
<path d="M129.3468 136.7707 L129.1225 136.8829 "/>
<path d="M129.1225 136.8829 L128.5618 136.8829 "/>
<path d="M128.5618 136.8829 L128.3375 136.7707 "/>
<path d="M128.3375 136.7707 L128.2253 136.6586 "/>
</g><text x="177.2755" y="150.0229" transform="scale(-1 1) translate(-354.551026 0)" textLength="5.0104" font-size="3.1402" lengthAdjust="spacingAndGlyphs" text-anchor="middle" opacity="0.01" style="font-family:monospace">C9</text>
<g class="stroked-text"><desc>C9</desc>
<path d="M176.8830 149.6922 L176.7708 149.8043 "/>
<path d="M176.7708 149.8043 L176.4344 149.9165 "/>
<path d="M176.4344 149.9165 L176.2101 149.9165 "/>
<path d="M176.2101 149.9165 L175.8736 149.8043 "/>
<path d="M175.8736 149.8043 L175.6493 149.5800 "/>
<path d="M175.6493 149.5800 L175.5372 149.3557 "/>
<path d="M175.5372 149.3557 L175.4250 148.9071 "/>
<path d="M175.4250 148.9071 L175.4250 148.5706 "/>
<path d="M175.4250 148.5706 L175.5372 148.1220 "/>
<path d="M175.5372 148.1220 L175.6493 147.8977 "/>
<path d="M175.6493 147.8977 L175.8736 147.6734 "/>
<path d="M175.8736 147.6734 L176.2101 147.5613 "/>
<path d="M176.2101 147.5613 L176.4344 147.5613 "/>
<path d="M176.4344 147.5613 L176.7708 147.6734 "/>
<path d="M176.7708 147.6734 L176.8830 147.7856 "/>
<path d="M178.0045 149.9165 L178.4531 149.9165 "/>
<path d="M178.4531 149.9165 L178.6774 149.8043 "/>
<path d="M178.6774 149.8043 L178.7896 149.6922 "/>
<path d="M178.7896 149.6922 L179.0139 149.3557 "/>
<path d="M179.0139 149.3557 L179.1260 148.9071 "/>
<path d="M179.1260 148.9071 L179.1260 148.0099 "/>
<path d="M179.1260 148.0099 L179.0139 147.7856 "/>
<path d="M179.0139 147.7856 L178.9017 147.6734 "/>
<path d="M178.9017 147.6734 L178.6774 147.5613 "/>
<path d="M178.6774 147.5613 L178.2288 147.5613 "/>
<path d="M178.2288 147.5613 L178.0045 147.6734 "/>
<path d="M178.0045 147.6734 L177.8924 147.7856 "/>
<path d="M177.8924 147.7856 L177.7802 148.0099 "/>
<path d="M177.7802 148.0099 L177.7802 148.5706 "/>
<path d="M177.7802 148.5706 L177.8924 148.7949 "/>
<path d="M177.8924 148.7949 L178.0045 148.9071 "/>
<path d="M178.0045 148.9071 L178.2288 149.0192 "/>
<path d="M178.2288 149.0192 L178.6774 149.0192 "/>
<path d="M178.6774 149.0192 L178.9017 148.9071 "/>
<path d="M178.9017 148.9071 L179.0139 148.7949 "/>
<path d="M179.0139 148.7949 L179.1260 148.5706 "/>
</g><text x="177.2755" y="160.0324" transform="scale(-1 1) translate(-354.551026 0)" textLength="5.0104" font-size="3.1402" lengthAdjust="spacingAndGlyphs" text-anchor="middle" opacity="0.01" style="font-family:monospace">C7</text>
<g class="stroked-text"><desc>C7</desc>
<path d="M176.8830 159.7017 L176.7708 159.8138 "/>
<path d="M176.7708 159.8138 L176.4344 159.9260 "/>
<path d="M176.4344 159.9260 L176.2101 159.9260 "/>
<path d="M176.2101 159.9260 L175.8736 159.8138 "/>
<path d="M175.8736 159.8138 L175.6493 159.5895 "/>
<path d="M175.6493 159.5895 L175.5372 159.3652 "/>
<path d="M175.5372 159.3652 L175.4250 158.9166 "/>
<path d="M175.4250 158.9166 L175.4250 158.5802 "/>
<path d="M175.4250 158.5802 L175.5372 158.1316 "/>
<path d="M175.5372 158.1316 L175.6493 157.9072 "/>
<path d="M175.6493 157.9072 L175.8736 157.6829 "/>
<path d="M175.8736 157.6829 L176.2101 157.5708 "/>
<path d="M176.2101 157.5708 L176.4344 157.5708 "/>
<path d="M176.4344 157.5708 L176.7708 157.6829 "/>
<path d="M176.7708 157.6829 L176.8830 157.7951 "/>
<path d="M177.6680 157.5708 L179.2382 157.5708 "/>
<path d="M179.2382 157.5708 L178.2288 159.9260 "/>
</g></g>
<g style="fill:#000084; fill-opacity:0.01;  stroke:#000084; stroke-width:0.2355; stroke-opacity:1;  stroke-linecap:round; stroke-linejoin:round;">
<text x="180.6611" y="135.4502" transform="scale(-1 1) translate(-361.322169 0)" textLength="2.8879" font-size="1.9626" lengthAdjust="spacingAndGlyphs" text-anchor="middle" opacity="0.01" style="font-family:monospace">L3</text>
<g class="stroked-text"><desc>L3</desc>
<path d="M180.4158 135.3829 L179.7148 135.3829 "/>
<path d="M179.7148 135.3829 L179.7148 133.9109 "/>
<path d="M180.7662 133.9109 L181.6775 133.9109 "/>
<path d="M181.6775 133.9109 L181.1868 134.4717 "/>
<path d="M181.1868 134.4717 L181.3971 134.4717 "/>
<path d="M181.3971 134.4717 L181.5373 134.5418 "/>
<path d="M181.5373 134.5418 L181.6074 134.6119 "/>
<path d="M181.6074 134.6119 L181.6775 134.7521 "/>
<path d="M181.6775 134.7521 L181.6775 135.1025 "/>
<path d="M181.6775 135.1025 L181.6074 135.2427 "/>
<path d="M181.6074 135.2427 L181.5373 135.3128 "/>
<path d="M181.5373 135.3128 L181.3971 135.3829 "/>
<path d="M181.3971 135.3829 L180.9765 135.3829 "/>
<path d="M180.9765 135.3829 L180.8363 135.3128 "/>
<path d="M180.8363 135.3128 L180.7662 135.2427 "/>
</g></g>
<g style="fill:#000084; fill-opacity:0.01;  stroke:#000084; stroke-width:0.3533; stroke-opacity:1;  stroke-linecap:round; stroke-linejoin:round;">
<text x="230.2376" y="88.2347" transform="scale(-1 1) translate(-460.475256 0)" textLength="5.0104" font-size="3.1402" lengthAdjust="spacingAndGlyphs" text-anchor="middle" opacity="0.01" style="font-family:monospace">C2</text>
<g class="stroked-text"><desc>C2</desc>
<path d="M229.8451 87.9040 L229.7329 88.0162 "/>
<path d="M229.7329 88.0162 L229.3965 88.1283 "/>
<path d="M229.3965 88.1283 L229.1722 88.1283 "/>
<path d="M229.1722 88.1283 L228.8357 88.0162 "/>
<path d="M228.8357 88.0162 L228.6114 87.7919 "/>
<path d="M228.6114 87.7919 L228.4993 87.5675 "/>
<path d="M228.4993 87.5675 L228.3871 87.1189 "/>
<path d="M228.3871 87.1189 L228.3871 86.7825 "/>
<path d="M228.3871 86.7825 L228.4993 86.3339 "/>
<path d="M228.4993 86.3339 L228.6114 86.1096 "/>
<path d="M228.6114 86.1096 L228.8357 85.8853 "/>
<path d="M228.8357 85.8853 L229.1722 85.7731 "/>
<path d="M229.1722 85.7731 L229.3965 85.7731 "/>
<path d="M229.3965 85.7731 L229.7329 85.8853 "/>
<path d="M229.7329 85.8853 L229.8451 85.9974 "/>
<path d="M230.7423 85.9974 L230.8545 85.8853 "/>
<path d="M230.8545 85.8853 L231.0788 85.7731 "/>
<path d="M231.0788 85.7731 L231.6395 85.7731 "/>
<path d="M231.6395 85.7731 L231.8638 85.8853 "/>
<path d="M231.8638 85.8853 L231.9760 85.9974 "/>
<path d="M231.9760 85.9974 L232.0881 86.2217 "/>
<path d="M232.0881 86.2217 L232.0881 86.4460 "/>
<path d="M232.0881 86.4460 L231.9760 86.7825 "/>
<path d="M231.9760 86.7825 L230.6302 88.1283 "/>
<path d="M230.6302 88.1283 L232.0881 88.1283 "/>
</g></g>
<g style="fill:#000084; fill-opacity:0.01;  stroke:#000084; stroke-width:0.8832; stroke-opacity:1;  stroke-linecap:round; stroke-linejoin:round;">
<text x="209.6534" y="86.8216" transform="scale(-1 1) translate(-419.306706 0)" textLength="12.5259" font-size="7.8506" lengthAdjust="spacingAndGlyphs" text-anchor="middle" opacity="0.01" style="font-family:monospace">D1</text>
<g class="stroked-text"><desc>D1</desc>
<path d="M205.3075 86.5556 L205.3075 80.6676 "/>
<path d="M205.3075 80.6676 L206.7094 80.6676 "/>
<path d="M206.7094 80.6676 L207.5505 80.9480 "/>
<path d="M207.5505 80.9480 L208.1113 81.5088 "/>
<path d="M208.1113 81.5088 L208.3917 82.0695 "/>
<path d="M208.3917 82.0695 L208.6720 83.1910 "/>
<path d="M208.6720 83.1910 L208.6720 84.0322 "/>
<path d="M208.6720 84.0322 L208.3917 85.1537 "/>
<path d="M208.3917 85.1537 L208.1113 85.7144 "/>
<path d="M208.1113 85.7144 L207.5505 86.2752 "/>
<path d="M207.5505 86.2752 L206.7094 86.5556 "/>
<path d="M206.7094 86.5556 L205.3075 86.5556 "/>
<path d="M214.2796 86.5556 L210.9151 86.5556 "/>
<path d="M212.5973 86.5556 L212.5973 80.6676 "/>
<path d="M212.5973 80.6676 L212.0366 81.5088 "/>
<path d="M212.0366 81.5088 L211.4758 82.0695 "/>
<path d="M211.4758 82.0695 L210.9151 82.3499 "/>
</g></g>
<g style="fill:#000084; fill-opacity:0.0;  stroke:#000084; stroke-width:0.4416; stroke-opacity:1;  stroke-linecap:round; stroke-linejoin:round;">
<g transform="rotate(-90.000000 266.7429 79.9916)">
<text x="266.7429" y="81.4636" transform="scale(-1 1) translate(-533.485842 0)" textLength="6.4031" font-size="3.9253" lengthAdjust="spacingAndGlyphs" text-anchor="middle" opacity="0.01" style="font-family:monospace">U2</text>
</g>
<g class="stroked-text"><desc>U2</desc>
<path d="M268.3479 77.7486 L265.9647 77.7486 "/>
<path d="M265.9647 77.7486 L265.6843 77.8887 "/>
<path d="M265.6843 77.8887 L265.5441 78.0289 "/>
<path d="M265.5441 78.0289 L265.4039 78.3093 "/>
<path d="M265.4039 78.3093 L265.4039 78.8701 "/>
<path d="M265.4039 78.8701 L265.5441 79.1504 "/>
<path d="M265.5441 79.1504 L265.6843 79.2906 "/>
<path d="M265.6843 79.2906 L265.9647 79.4308 "/>
<path d="M265.9647 79.4308 L268.3479 79.4308 "/>
<path d="M268.0675 80.6925 L268.2077 80.8327 "/>
<path d="M268.2077 80.8327 L268.3479 81.1131 "/>
<path d="M268.3479 81.1131 L268.3479 81.8140 "/>
<path d="M268.3479 81.8140 L268.2077 82.0944 "/>
<path d="M268.2077 82.0944 L268.0675 82.2346 "/>
<path d="M268.0675 82.2346 L267.7872 82.3748 "/>
<path d="M267.7872 82.3748 L267.5068 82.3748 "/>
<path d="M267.5068 82.3748 L267.0862 82.2346 "/>
<path d="M267.0862 82.2346 L265.4039 80.5523 "/>
<path d="M265.4039 80.5523 L265.4039 82.3748 "/>
</g></g>
<g style="fill:#000084; fill-opacity:0.0;  stroke:#000084; stroke-width:0.6431; stroke-opacity:1;  stroke-linecap:round; stroke-linejoin:round;">
<g transform="rotate(-90.000000 284.2213 78.4578)">
<text x="284.2213" y="79.9309" transform="scale(-1 1) translate(-568.442605 0)" textLength="9.5765" font-size="3.9283" lengthAdjust="spacingAndGlyphs" text-anchor="middle" opacity="0.01" style="font-family:monospace">C24</text>
</g>
<g class="stroked-text"><desc>C24</desc>
<path d="M283.1724 76.5638 L283.0321 76.4235 "/>
<path d="M283.0321 76.4235 L282.8918 76.0026 "/>
<path d="M282.8918 76.0026 L282.8918 75.7220 "/>
<path d="M282.8918 75.7220 L283.0321 75.3011 "/>
<path d="M283.0321 75.3011 L283.3127 75.0205 "/>
<path d="M283.3127 75.0205 L283.5933 74.8802 "/>
<path d="M283.5933 74.8802 L284.1544 74.7399 "/>
<path d="M284.1544 74.7399 L284.5753 74.7399 "/>
<path d="M284.5753 74.7399 L285.1365 74.8802 "/>
<path d="M285.1365 74.8802 L285.4171 75.0205 "/>
<path d="M285.4171 75.0205 L285.6977 75.3011 "/>
<path d="M285.6977 75.3011 L285.8380 75.7220 "/>
<path d="M285.8380 75.7220 L285.8380 76.0026 "/>
<path d="M285.8380 76.0026 L285.6977 76.4235 "/>
<path d="M285.6977 76.4235 L285.5574 76.5638 "/>
<path d="M285.5574 77.6861 L285.6977 77.8264 "/>
<path d="M285.6977 77.8264 L285.8380 78.1070 "/>
<path d="M285.8380 78.1070 L285.8380 78.8085 "/>
<path d="M285.8380 78.8085 L285.6977 79.0891 "/>
<path d="M285.6977 79.0891 L285.5574 79.2294 "/>
<path d="M285.5574 79.2294 L285.2768 79.3697 "/>
<path d="M285.2768 79.3697 L284.9962 79.3697 "/>
<path d="M284.9962 79.3697 L284.5753 79.2294 "/>
<path d="M284.5753 79.2294 L282.8918 77.5459 "/>
<path d="M282.8918 77.5459 L282.8918 79.3697 "/>
<path d="M284.8559 81.8950 L282.8918 81.8950 "/>
<path d="M285.9783 81.1935 L283.8738 80.4921 "/>
<path d="M283.8738 80.4921 L283.8738 82.3159 "/>
</g><g transform="rotate(-90.000000 288.3340 77.7100)">
<text x="288.3340" y="79.1831" transform="scale(-1 1) translate(-576.668072 0)" textLength="11.8212" font-size="3.9283" lengthAdjust="spacingAndGlyphs" text-anchor="middle" opacity="0.01" style="font-family:monospace">10uF</text>
</g>
<g class="stroked-text"><desc>10uF</desc>
<path d="M287.0045 74.5533 L287.0045 72.8698 "/>
<path d="M287.0045 73.7116 L289.9507 73.7116 "/>
<path d="M289.9507 73.7116 L289.5298 73.4310 "/>
<path d="M289.5298 73.4310 L289.2492 73.1504 "/>
<path d="M289.2492 73.1504 L289.1089 72.8698 "/>
<path d="M289.9507 76.3772 L289.9507 76.6578 "/>
<path d="M289.9507 76.6578 L289.8104 76.9384 "/>
<path d="M289.8104 76.9384 L289.6701 77.0787 "/>
<path d="M289.6701 77.0787 L289.3895 77.2190 "/>
<path d="M289.3895 77.2190 L288.8284 77.3593 "/>
<path d="M288.8284 77.3593 L288.1269 77.3593 "/>
<path d="M288.1269 77.3593 L287.5657 77.2190 "/>
<path d="M287.5657 77.2190 L287.2851 77.0787 "/>
<path d="M287.2851 77.0787 L287.1448 76.9384 "/>
<path d="M287.1448 76.9384 L287.0045 76.6578 "/>
<path d="M287.0045 76.6578 L287.0045 76.3772 "/>
<path d="M287.0045 76.3772 L287.1448 76.0966 "/>
<path d="M287.1448 76.0966 L287.2851 75.9563 "/>
<path d="M287.2851 75.9563 L287.5657 75.8160 "/>
<path d="M287.5657 75.8160 L288.1269 75.6757 "/>
<path d="M288.1269 75.6757 L288.8284 75.6757 "/>
<path d="M288.8284 75.6757 L289.3895 75.8160 "/>
<path d="M289.3895 75.8160 L289.6701 75.9563 "/>
<path d="M289.6701 75.9563 L289.8104 76.0966 "/>
<path d="M289.8104 76.0966 L289.9507 76.3772 "/>
<path d="M288.9687 79.8846 L287.0045 79.8846 "/>
<path d="M288.9687 78.6219 L287.4254 78.6219 "/>
<path d="M287.4254 78.6219 L287.1448 78.7622 "/>
<path d="M287.1448 78.7622 L287.0045 79.0428 "/>
<path d="M287.0045 79.0428 L287.0045 79.4637 "/>
<path d="M287.0045 79.4637 L287.1448 79.7443 "/>
<path d="M287.1448 79.7443 L287.2851 79.8846 "/>
<path d="M288.5478 82.2696 L288.5478 81.2875 "/>
<path d="M287.0045 81.2875 L289.9507 81.2875 "/>
<path d="M289.9507 81.2875 L289.9507 82.6905 "/>
</g><g transform="rotate(-90.000000 250.3597 79.9916)">
<text x="250.3597" y="81.4647" transform="scale(-1 1) translate(-500.719398 0)" textLength="9.5765" font-size="3.9283" lengthAdjust="spacingAndGlyphs" text-anchor="middle" opacity="0.01" style="font-family:monospace">C21</text>
</g>
<g class="stroked-text"><desc>C21</desc>
<path d="M249.3108 78.0976 L249.1705 77.9573 "/>
<path d="M249.1705 77.9573 L249.0302 77.5364 "/>
<path d="M249.0302 77.5364 L249.0302 77.2558 "/>
<path d="M249.0302 77.2558 L249.1705 76.8349 "/>
<path d="M249.1705 76.8349 L249.4511 76.5543 "/>
<path d="M249.4511 76.5543 L249.7316 76.4140 "/>
<path d="M249.7316 76.4140 L250.2928 76.2737 "/>
<path d="M250.2928 76.2737 L250.7137 76.2737 "/>
<path d="M250.7137 76.2737 L251.2749 76.4140 "/>
<path d="M251.2749 76.4140 L251.5555 76.5543 "/>
<path d="M251.5555 76.5543 L251.8361 76.8349 "/>
<path d="M251.8361 76.8349 L251.9764 77.2558 "/>
<path d="M251.9764 77.2558 L251.9764 77.5364 "/>
<path d="M251.9764 77.5364 L251.8361 77.9573 "/>
<path d="M251.8361 77.9573 L251.6958 78.0976 "/>
<path d="M251.6958 79.2200 L251.8361 79.3603 "/>
<path d="M251.8361 79.3603 L251.9764 79.6408 "/>
<path d="M251.9764 79.6408 L251.9764 80.3423 "/>
<path d="M251.9764 80.3423 L251.8361 80.6229 "/>
<path d="M251.8361 80.6229 L251.6958 80.7632 "/>
<path d="M251.6958 80.7632 L251.4152 80.9035 "/>
<path d="M251.4152 80.9035 L251.1346 80.9035 "/>
<path d="M251.1346 80.9035 L250.7137 80.7632 "/>
<path d="M250.7137 80.7632 L249.0302 79.0797 "/>
<path d="M249.0302 79.0797 L249.0302 80.9035 "/>
<path d="M249.0302 83.7094 L249.0302 82.0259 "/>
<path d="M249.0302 82.8677 L251.9764 82.8677 "/>
<path d="M251.9764 82.8677 L251.5555 82.5871 "/>
<path d="M251.5555 82.5871 L251.2749 82.3065 "/>
<path d="M251.2749 82.3065 L251.1346 82.0259 "/>
</g><g transform="rotate(-90.000000 246.2470 80.7394)">
<text x="246.2470" y="82.2125" transform="scale(-1 1) translate(-492.493931 0)" textLength="11.8212" font-size="3.9283" lengthAdjust="spacingAndGlyphs" text-anchor="middle" opacity="0.01" style="font-family:monospace">10uF</text>
</g>
<g class="stroked-text"><desc>10uF</desc>
<path d="M244.9174 77.5827 L244.9174 75.8992 "/>
<path d="M244.9174 76.7409 L247.8636 76.7409 "/>
<path d="M247.8636 76.7409 L247.4428 76.4603 "/>
<path d="M247.4428 76.4603 L247.1622 76.1797 "/>
<path d="M247.1622 76.1797 L247.0219 75.8992 "/>
<path d="M247.8636 79.4065 L247.8636 79.6871 "/>
<path d="M247.8636 79.6871 L247.7234 79.9677 "/>
<path d="M247.7234 79.9677 L247.5831 80.1080 "/>
<path d="M247.5831 80.1080 L247.3025 80.2483 "/>
<path d="M247.3025 80.2483 L246.7413 80.3886 "/>
<path d="M246.7413 80.3886 L246.0398 80.3886 "/>
<path d="M246.0398 80.3886 L245.4786 80.2483 "/>
<path d="M245.4786 80.2483 L245.1980 80.1080 "/>
<path d="M245.1980 80.1080 L245.0577 79.9677 "/>
<path d="M245.0577 79.9677 L244.9174 79.6871 "/>
<path d="M244.9174 79.6871 L244.9174 79.4065 "/>
<path d="M244.9174 79.4065 L245.0577 79.1260 "/>
<path d="M245.0577 79.1260 L245.1980 78.9857 "/>
<path d="M245.1980 78.9857 L245.4786 78.8454 "/>
<path d="M245.4786 78.8454 L246.0398 78.7051 "/>
<path d="M246.0398 78.7051 L246.7413 78.7051 "/>
<path d="M246.7413 78.7051 L247.3025 78.8454 "/>
<path d="M247.3025 78.8454 L247.5831 78.9857 "/>
<path d="M247.5831 78.9857 L247.7234 79.1260 "/>
<path d="M247.7234 79.1260 L247.8636 79.4065 "/>
<path d="M246.8816 82.9139 L244.9174 82.9139 "/>
<path d="M246.8816 81.6513 L245.3383 81.6513 "/>
<path d="M245.3383 81.6513 L245.0577 81.7916 "/>
<path d="M245.0577 81.7916 L244.9174 82.0722 "/>
<path d="M244.9174 82.0722 L244.9174 82.4930 "/>
<path d="M244.9174 82.4930 L245.0577 82.7736 "/>
<path d="M245.0577 82.7736 L245.1980 82.9139 "/>
<path d="M246.4607 85.2990 L246.4607 84.3169 "/>
<path d="M244.9174 84.3169 L247.8636 84.3169 "/>
<path d="M247.8636 84.3169 L247.8636 85.7199 "/>
</g><g transform="rotate(-90.000000 233.3730 71.7278)">
<text x="233.3730" y="73.2010" transform="scale(-1 1) translate(-466.745923 0)" textLength="9.5765" font-size="3.9283" lengthAdjust="spacingAndGlyphs" text-anchor="middle" opacity="0.01" style="font-family:monospace">C25</text>
</g>
<g class="stroked-text"><desc>C25</desc>
<path d="M232.3240 69.8339 L232.1837 69.6936 "/>
<path d="M232.1837 69.6936 L232.0434 69.2727 "/>
<path d="M232.0434 69.2727 L232.0434 68.9921 "/>
<path d="M232.0434 68.9921 L232.1837 68.5712 "/>
<path d="M232.1837 68.5712 L232.4643 68.2906 "/>
<path d="M232.4643 68.2906 L232.7449 68.1503 "/>
<path d="M232.7449 68.1503 L233.3061 68.0100 "/>
<path d="M233.3061 68.0100 L233.7270 68.0100 "/>
<path d="M233.7270 68.0100 L234.2882 68.1503 "/>
<path d="M234.2882 68.1503 L234.5688 68.2906 "/>
<path d="M234.5688 68.2906 L234.8493 68.5712 "/>
<path d="M234.8493 68.5712 L234.9896 68.9921 "/>
<path d="M234.9896 68.9921 L234.9896 69.2727 "/>
<path d="M234.9896 69.2727 L234.8493 69.6936 "/>
<path d="M234.8493 69.6936 L234.7091 69.8339 "/>
<path d="M234.7091 70.9562 L234.8493 71.0965 "/>
<path d="M234.8493 71.0965 L234.9896 71.3771 "/>
<path d="M234.9896 71.3771 L234.9896 72.0786 "/>
<path d="M234.9896 72.0786 L234.8493 72.3592 "/>
<path d="M234.8493 72.3592 L234.7091 72.4995 "/>
<path d="M234.7091 72.4995 L234.4285 72.6398 "/>
<path d="M234.4285 72.6398 L234.1479 72.6398 "/>
<path d="M234.1479 72.6398 L233.7270 72.4995 "/>
<path d="M233.7270 72.4995 L232.0434 70.8159 "/>
<path d="M232.0434 70.8159 L232.0434 72.6398 "/>
<path d="M234.9896 75.3054 L234.9896 73.9024 "/>
<path d="M234.9896 73.9024 L233.5867 73.7621 "/>
<path d="M233.5867 73.7621 L233.7270 73.9024 "/>
<path d="M233.7270 73.9024 L233.8673 74.1830 "/>
<path d="M233.8673 74.1830 L233.8673 74.8845 "/>
<path d="M233.8673 74.8845 L233.7270 75.1651 "/>
<path d="M233.7270 75.1651 L233.5867 75.3054 "/>
<path d="M233.5867 75.3054 L233.3061 75.4457 "/>
<path d="M233.3061 75.4457 L232.6046 75.4457 "/>
<path d="M232.6046 75.4457 L232.3240 75.3054 "/>
<path d="M232.3240 75.3054 L232.1837 75.1651 "/>
<path d="M232.1837 75.1651 L232.0434 74.8845 "/>
<path d="M232.0434 74.8845 L232.0434 74.1830 "/>
<path d="M232.0434 74.1830 L232.1837 73.9024 "/>
<path d="M232.1837 73.9024 L232.3240 73.7621 "/>
</g><g transform="rotate(-90.000000 237.4857 70.9801)">
<text x="237.4857" y="72.4532" transform="scale(-1 1) translate(-474.971390 0)" textLength="11.8212" font-size="3.9283" lengthAdjust="spacingAndGlyphs" text-anchor="middle" opacity="0.01" style="font-family:monospace">10uF</text>
</g>
<g class="stroked-text"><desc>10uF</desc>
<path d="M236.1562 67.8234 L236.1562 66.1399 "/>
<path d="M236.1562 66.9816 L239.1024 66.9816 "/>
<path d="M239.1024 66.9816 L238.6815 66.7011 "/>
<path d="M238.6815 66.7011 L238.4009 66.4205 "/>
<path d="M238.4009 66.4205 L238.2606 66.1399 "/>
<path d="M239.1024 69.6473 L239.1024 69.9279 "/>
<path d="M239.1024 69.9279 L238.9621 70.2085 "/>
<path d="M238.9621 70.2085 L238.8218 70.3487 "/>
<path d="M238.8218 70.3487 L238.5412 70.4890 "/>
<path d="M238.5412 70.4890 L237.9800 70.6293 "/>
<path d="M237.9800 70.6293 L237.2785 70.6293 "/>
<path d="M237.2785 70.6293 L236.7173 70.4890 "/>
<path d="M236.7173 70.4890 L236.4368 70.3487 "/>
<path d="M236.4368 70.3487 L236.2965 70.2085 "/>
<path d="M236.2965 70.2085 L236.1562 69.9279 "/>
<path d="M236.1562 69.9279 L236.1562 69.6473 "/>
<path d="M236.1562 69.6473 L236.2965 69.3667 "/>
<path d="M236.2965 69.3667 L236.4368 69.2264 "/>
<path d="M236.4368 69.2264 L236.7173 69.0861 "/>
<path d="M236.7173 69.0861 L237.2785 68.9458 "/>
<path d="M237.2785 68.9458 L237.9800 68.9458 "/>
<path d="M237.9800 68.9458 L238.5412 69.0861 "/>
<path d="M238.5412 69.0861 L238.8218 69.2264 "/>
<path d="M238.8218 69.2264 L238.9621 69.3667 "/>
<path d="M238.9621 69.3667 L239.1024 69.6473 "/>
<path d="M238.1203 73.1547 L236.1562 73.1547 "/>
<path d="M238.1203 71.8920 L236.5771 71.8920 "/>
<path d="M236.5771 71.8920 L236.2965 72.0323 "/>
<path d="M236.2965 72.0323 L236.1562 72.3129 "/>
<path d="M236.1562 72.3129 L236.1562 72.7338 "/>
<path d="M236.1562 72.7338 L236.2965 73.0144 "/>
<path d="M236.2965 73.0144 L236.4368 73.1547 "/>
<path d="M237.6994 75.5397 L237.6994 74.5576 "/>
<path d="M236.1562 74.5576 L239.1024 74.5576 "/>
<path d="M239.1024 74.5576 L239.1024 75.9606 "/>
</g></g>
<g style="fill:#000084; fill-opacity:0.01;  stroke:#000084; stroke-width:0.4416; stroke-opacity:1;  stroke-linecap:round; stroke-linejoin:round;">
<text x="118.5903" y="115.8139" transform="scale(-1 1) translate(-237.180621 0)" textLength="6.4031" font-size="3.9253" lengthAdjust="spacingAndGlyphs" text-anchor="middle" opacity="0.01" style="font-family:monospace">U3</text>
<g class="stroked-text"><desc>U3</desc>
<path d="M116.3473 112.7369 L116.3473 115.1201 "/>
<path d="M116.3473 115.1201 L116.4875 115.4005 "/>
<path d="M116.4875 115.4005 L116.6277 115.5407 "/>
<path d="M116.6277 115.5407 L116.9080 115.6809 "/>
<path d="M116.9080 115.6809 L117.4688 115.6809 "/>
<path d="M117.4688 115.6809 L117.7492 115.5407 "/>
<path d="M117.7492 115.5407 L117.8894 115.4005 "/>
<path d="M117.8894 115.4005 L118.0296 115.1201 "/>
<path d="M118.0296 115.1201 L118.0296 112.7369 "/>
<path d="M119.1511 112.7369 L120.9735 112.7369 "/>
<path d="M120.9735 112.7369 L119.9922 113.8584 "/>
<path d="M119.9922 113.8584 L120.4128 113.8584 "/>
<path d="M120.4128 113.8584 L120.6932 113.9986 "/>
<path d="M120.6932 113.9986 L120.8333 114.1388 "/>
<path d="M120.8333 114.1388 L120.9735 114.4192 "/>
<path d="M120.9735 114.4192 L120.9735 115.1201 "/>
<path d="M120.9735 115.1201 L120.8333 115.4005 "/>
<path d="M120.8333 115.4005 L120.6932 115.5407 "/>
<path d="M120.6932 115.5407 L120.4128 115.6809 "/>
<path d="M120.4128 115.6809 L119.5716 115.6809 "/>
<path d="M119.5716 115.6809 L119.2913 115.5407 "/>
<path d="M119.2913 115.5407 L119.1511 115.4005 "/>
</g></g>
<g style="fill:#000084; fill-opacity:0.01;  stroke:#000084; stroke-width:0.3533; stroke-opacity:1;  stroke-linecap:round; stroke-linejoin:round;">
<text x="129.9570" y="82.2526" transform="scale(-1 1) translate(-259.913998 0)" textLength="5.0104" font-size="3.1402" lengthAdjust="spacingAndGlyphs" text-anchor="middle" opacity="0.01" style="font-family:monospace">R2</text>
<g class="stroked-text"><desc>R2</desc>
<path d="M129.5645 82.1461 L128.7794 81.0246 "/>
<path d="M128.2187 82.1461 L128.2187 79.7910 "/>
<path d="M128.2187 79.7910 L129.1159 79.7910 "/>
<path d="M129.1159 79.7910 L129.3402 79.9031 "/>
<path d="M129.3402 79.9031 L129.4523 80.0153 "/>
<path d="M129.4523 80.0153 L129.5645 80.2396 "/>
<path d="M129.5645 80.2396 L129.5645 80.5760 "/>
<path d="M129.5645 80.5760 L129.4523 80.8003 "/>
<path d="M129.4523 80.8003 L129.3402 80.9125 "/>
<path d="M129.3402 80.9125 L129.1159 81.0246 "/>
<path d="M129.1159 81.0246 L128.2187 81.0246 "/>
<path d="M130.4617 80.0153 L130.5738 79.9031 "/>
<path d="M130.5738 79.9031 L130.7981 79.7910 "/>
<path d="M130.7981 79.7910 L131.3589 79.7910 "/>
<path d="M131.3589 79.7910 L131.5832 79.9031 "/>
<path d="M131.5832 79.9031 L131.6954 80.0153 "/>
<path d="M131.6954 80.0153 L131.8075 80.2396 "/>
<path d="M131.8075 80.2396 L131.8075 80.4639 "/>
<path d="M131.8075 80.4639 L131.6954 80.8003 "/>
<path d="M131.6954 80.8003 L130.3495 82.1461 "/>
<path d="M130.3495 82.1461 L131.8075 82.1461 "/>
</g></g>
<g style="fill:#000084; fill-opacity:0.0;  stroke:#000084; stroke-width:0.5888; stroke-opacity:1;  stroke-linecap:round; stroke-linejoin:round;">
<path d="M98.2792 107.5354 L93.5689 107.5354 "/>
<path d="M93.5689 107.5354 L93.5689 98.1147 "/>
<path d="M98.2792 98.1147 L98.2792 107.5354 "/>
<path d="M93.5689 98.1147 L98.2792 98.1147 "/>
<path d="M139.2217 94.6467 L139.2217 89.9363 "/>
<path d="M139.2217 89.9363 L148.6424 89.9363 "/>
<path d="M148.6424 94.6467 L139.2217 94.6467 "/>
<path d="M148.6424 89.9363 L148.6424 94.6467 "/>
<path d="M141.8006 120.5831 L137.0903 120.5831 "/>
<path d="M137.0903 120.5831 L137.0903 111.1624 "/>
<path d="M141.8006 111.1624 L141.8006 120.5831 "/>
<path d="M137.0903 111.1624 L141.8006 111.1624 "/>
<path d="M76.0793 106.7229 L71.3689 106.7229 "/>
<path d="M71.3689 106.7229 L71.3689 97.3022 "/>
<path d="M76.0793 97.3022 L76.0793 106.7229 "/>
<path d="M71.3689 97.3022 L76.0793 97.3022 "/>
<path d="M238.9518 141.7797 L234.2414 141.7797 "/>
<path d="M234.2414 141.7797 L234.2414 132.3590 "/>
<path d="M238.9518 132.3590 L238.9518 141.7797 "/>
<path d="M234.2414 132.3590 L238.9518 132.3590 "/>
<path d="M248.3725 119.9943 L243.6622 119.9943 "/>
<path d="M243.6622 119.9943 L243.6622 110.5736 "/>
<path d="M248.3725 110.5736 L248.3725 119.9943 "/>
<path d="M243.6622 110.5736 L248.3725 110.5736 "/>
<path d="M195.3810 169.5355 L190.6706 169.5355 "/>
<path d="M190.6706 169.5355 L190.6706 160.1148 "/>
<path d="M195.3810 160.1148 L195.3810 169.5355 "/>
<path d="M190.6706 160.1148 L195.3810 160.1148 "/>
<path d="M225.9983 169.5355 L221.2879 169.5355 "/>
<path d="M221.2879 169.5355 L221.2879 160.1148 "/>
<path d="M225.9983 160.1148 L225.9983 169.5355 "/>
<path d="M221.2879 160.1148 L225.9983 160.1148 "/>
<path d="M152.6815 123.5271 L152.6815 118.8167 "/>
<path d="M152.6815 118.8167 L162.1023 118.8167 "/>
<path d="M162.1023 123.5271 L152.6815 123.5271 "/>
<path d="M162.1023 118.8167 L162.1023 123.5271 "/>
<path d="M238.9518 119.9943 L234.2414 119.9943 "/>
<path d="M234.2414 119.9943 L234.2414 110.5736 "/>
<path d="M238.9518 110.5736 L238.9518 119.9943 "/>
<path d="M234.2414 110.5736 L238.9518 110.5736 "/>
<path d="M162.1023 108.6306 L162.1023 113.3409 "/>
<path d="M162.1023 113.3409 L152.6815 113.3409 "/>
<path d="M152.6815 108.6306 L162.1023 108.6306 "/>
<path d="M152.6815 113.3409 L152.6815 108.6306 "/>
<path d="M215.6944 180.1339 L215.6944 168.3579 "/>
<path d="M203.9185 180.1339 L215.6944 180.1339 "/>
<path d="M200.9745 177.1899 L203.9185 180.1339 "/>
<path d="M200.9745 177.1899 L200.9745 168.3579 "/>
<path d="M200.9745 168.3579 L215.6944 168.3579 "/>
<path d="M220.1104 136.4806 L202.4465 136.4806 "/>
<path d="M202.4465 136.4806 L196.5586 130.5926 "/>
<path d="M196.5586 130.5926 L196.5586 112.9288 "/>
<path d="M220.1104 112.9288 L220.1104 136.4806 "/>
<path d="M196.5586 112.9288 L220.1104 112.9288 "/>
<path d="M110.7387 78.7198 L110.7387 83.4302 "/>
<path d="M110.7387 83.4302 L101.3180 83.4302 "/>
<path d="M101.3180 78.7198 L110.7387 78.7198 "/>
<path d="M101.3180 83.4302 L101.3180 78.7198 "/>
<path d="M170.8753 112.9288 L173.8193 112.9288 "/>
<path d="M173.8193 112.9288 L173.8193 118.8167 "/>
<path d="M170.8753 118.8167 L170.8753 112.9288 "/>
<path d="M173.8193 118.8167 L170.8753 118.8167 "/>
<path d="M87.0921 96.0539 L87.0921 98.9979 "/>
<path d="M87.0921 98.9979 L81.2042 98.9979 "/>
<path d="M81.2042 96.0539 L87.0921 96.0539 "/>
<path d="M81.2042 98.9979 L81.2042 96.0539 "/>
</g>
<g style="fill:#000084; fill-opacity:0.0;  stroke:#000084; stroke-width:0.8832; stroke-opacity:1;  stroke-linecap:round; stroke-linejoin:round;">
<path d="M252.2703 143.8876 L243.2971 143.8876 "/>
<path d="M243.2971 143.8876 L243.2971 137.9055 "/>
<path d="M252.2703 137.9055 L252.2703 143.8876 "/>
<path d="M243.2971 131.9233 L243.2971 125.9412 "/>
<path d="M252.2703 125.9412 L252.2703 131.9233 "/>
<path d="M243.2971 125.9412 L252.2703 125.9412 "/>
</g>
<g style="fill:#000084; fill-opacity:0.0;  stroke:#000084; stroke-width:0.5888; stroke-opacity:1;  stroke-linecap:round; stroke-linejoin:round;">
<path d="M172.1236 140.6022 L169.1796 140.6022 "/>
<path d="M169.1796 140.6022 L169.1796 134.7142 "/>
<path d="M172.1236 134.7142 L172.1236 140.6022 "/>
<path d="M169.1796 134.7142 L172.1236 134.7142 "/>
<path d="M113.4819 137.8584 L110.5379 137.8584 "/>
<path d="M110.5379 137.8584 L110.5379 131.9704 "/>
<path d="M113.4819 131.9704 L113.4819 137.8584 "/>
<path d="M110.5379 131.9704 L113.4819 131.9704 "/>
<path d="M150.0437 144.4293 L150.0437 147.3733 "/>
<path d="M150.0437 147.3733 L144.1558 147.3733 "/>
<path d="M144.1558 144.4293 L150.0437 144.4293 "/>
<path d="M144.1558 147.3733 L144.1558 144.4293 "/>
<path d="M142.3894 138.2470 L142.3894 133.5366 "/>
<path d="M142.3894 133.5366 L151.8101 133.5366 "/>
<path d="M151.8101 138.2470 L142.3894 138.2470 "/>
<path d="M151.8101 133.5366 L151.8101 138.2470 "/>
<path d="M98.2887 133.1951 L102.9990 133.1951 "/>
<path d="M102.9990 133.1951 L102.9990 142.6158 "/>
<path d="M98.2887 142.6158 L98.2887 133.1951 "/>
<path d="M102.9990 142.6158 L98.2887 142.6158 "/>
<path d="M107.9649 99.8811 L107.9649 95.1707 "/>
<path d="M107.9649 95.1707 L117.3856 95.1707 "/>
<path d="M117.3856 99.8811 L107.9649 99.8811 "/>
<path d="M117.3856 95.1707 L117.3856 99.8811 "/>
<path d="M130.0247 146.5725 L134.7351 146.5725 "/>
<path d="M134.7351 146.5725 L134.7351 155.9933 "/>
<path d="M130.0247 155.9933 L130.0247 146.5725 "/>
<path d="M134.7351 155.9933 L130.0247 155.9933 "/>
<path d="M159.4645 136.4806 L164.1748 136.4806 "/>
<path d="M164.1748 136.4806 L164.1748 145.9013 "/>
<path d="M159.4645 145.9013 L159.4645 136.4806 "/>
<path d="M164.1748 145.9013 L159.4645 145.9013 "/>
<path d="M121.8887 138.1669 L121.8887 133.4565 "/>
<path d="M121.8887 133.4565 L131.3095 133.4565 "/>
<path d="M131.3095 138.1669 L121.8887 138.1669 "/>
<path d="M131.3095 133.4565 L131.3095 138.1669 "/>
<path d="M172.5652 151.2005 L172.5652 146.4901 "/>
<path d="M172.5652 146.4901 L181.9859 146.4901 "/>
<path d="M181.9859 151.2005 L172.5652 151.2005 "/>
<path d="M181.9859 146.4901 L181.9859 151.2005 "/>
<path d="M172.5652 161.2100 L172.5652 156.4996 "/>
<path d="M172.5652 156.4996 L181.9859 156.4996 "/>
<path d="M181.9859 161.2100 L172.5652 161.2100 "/>
<path d="M181.9859 156.4996 L181.9859 161.2100 "/>
<path d="M183.6051 133.2422 L183.6051 136.1862 "/>
<path d="M183.6051 136.1862 L177.7171 136.1862 "/>
<path d="M177.7171 133.2422 L183.6051 133.2422 "/>
<path d="M177.7171 136.1862 L177.7171 133.2422 "/>
<path d="M234.9480 84.7019 L234.9480 89.4123 "/>
<path d="M234.9480 89.4123 L225.5273 89.4123 "/>
<path d="M225.5273 84.7019 L234.9480 84.7019 "/>
<path d="M225.5273 89.4123 L225.5273 84.7019 "/>
<path d="M219.3685 67.3914 L219.3685 76.8121 "/>
<path d="M219.3685 76.8121 L199.9382 76.8121 "/>
<path d="M214.0693 72.1017 L211.7141 72.1017 "/>
<path d="M211.7141 72.1017 L211.7141 68.8634 "/>
<path d="M211.7141 72.1017 L211.7141 75.3401 "/>
<path d="M211.7141 72.1017 L208.1814 74.4569 "/>
<path d="M208.1814 69.7466 L211.7141 72.1017 "/>
<path d="M208.1814 72.1017 L205.2374 72.1017 "/>
<path d="M208.1814 74.4569 L208.1814 69.7466 "/>
<path d="M199.9382 67.3914 L219.3685 67.3914 "/>
<path d="M199.9382 76.8121 L199.9382 67.3914 "/>
<path d="M261.4438 74.6924 L261.4438 89.1179 "/>
<path d="M261.4438 74.6924 L265.2709 70.8653 "/>
<path d="M272.0421 89.1179 L261.4438 89.1179 "/>
<path d="M272.0421 70.8653 L265.2709 70.8653 "/>
<path d="M272.0421 70.8653 L272.0421 89.1179 "/>
</g>
<g style="fill:#000084; fill-opacity:0.0;  stroke:#000084; stroke-width:0.8832; stroke-opacity:1;  stroke-linecap:round; stroke-linejoin:round;">
<path d="M290.5773 87.4310 L281.6041 87.4310 "/>
<path d="M281.6041 87.4310 L281.6041 81.4489 "/>
<path d="M290.5773 81.4489 L290.5773 87.4310 "/>
<path d="M281.6041 75.4667 L281.6041 69.4845 "/>
<path d="M290.5773 69.4845 L290.5773 75.4667 "/>
<path d="M281.6041 69.4845 L290.5773 69.4845 "/>
<path d="M244.0037 71.0184 L252.9769 71.0184 "/>
<path d="M252.9769 71.0184 L252.9769 77.0005 "/>
<path d="M244.0037 77.0005 L244.0037 71.0184 "/>
<path d="M252.9769 82.9827 L252.9769 88.9648 "/>
<path d="M244.0037 88.9648 L244.0037 82.9827 "/>
<path d="M252.9769 88.9648 L244.0037 88.9648 "/>
<path d="M239.7290 80.7011 L230.7558 80.7011 "/>
<path d="M230.7558 80.7011 L230.7558 74.7189 "/>
<path d="M239.7290 74.7189 L239.7290 80.7011 "/>
<path d="M230.7558 68.7368 L230.7558 62.7546 "/>
<path d="M239.7290 62.7546 L239.7290 68.7368 "/>
<path d="M230.7558 62.7546 L239.7290 62.7546 "/>
</g>
<g style="fill:#000084; fill-opacity:0.0;  stroke:#000084; stroke-width:0.5888; stroke-opacity:1;  stroke-linecap:round; stroke-linejoin:round;">
<path d="M115.0575 118.3163 L125.0671 118.3163 "/>
<path d="M112.1136 115.3723 L115.0575 118.3163 "/>
<path d="M125.0671 110.3675 L125.0671 118.3163 "/>
<path d="M112.1136 110.3675 L112.1136 115.3723 "/>
<path d="M112.1136 110.3675 L125.0671 110.3675 "/>
<path d="M125.2466 83.4302 L125.2466 78.7198 "/>
<path d="M125.2466 78.7198 L134.6674 78.7198 "/>
<path d="M134.6674 83.4302 L125.2466 83.4302 "/>
<path d="M134.6674 78.7198 L134.6674 83.4302 "/>
<g>
</g>
<g>
</g>
<g>
</g>
<g>
</g>
<g>
</g>
<g>
</g>
<g>
</g>
<g>
</g>
<g>
</g>
<g>
</g>
<g>
</g>
<g>
</g>
<g>
</g>
<g>
</g>
<g>
</g>
<g>
</g>
<g>
</g>
<g>
</g>
<g>
</g>
<g>
</g>
<g>
</g>
<g>
</g>
<g>
</g>
<g>
</g>
<g>
</g>
<g>
</g>
<g>
</g>
<g>
</g>
<g>
</g>
<g>
</g>
<g>
</g>
<g>
</g>
<g>
</g>
<g>
</g>
<g>
</g>
<g>
</g>
<g>
</g>
<g>
</g>
<g>
</g>
<g>
</g>
<g>
</g>
<g>
</g>
<g>
</g>
<g>
</g>
<g>
</g>
<g>
</g>
<g>
</g>
<g>
</g>
<g>
</g>
<g>
</g>
<g>
</g>
<g>
</g>
<g>
</g>
<g>
</g>
<g>
</g>
<g>
</g>
<g>
</g>
<g>
</g>
</g> 
<svg:g><svg:g><svg:title>SVG Image created as ISM02-Edge_Cuts.svg date 2023/07/21 03:41:46 </svg:title>
  <svg:desc>Image generated by PCBNEW </svg:desc>
<svg:g style="fill:#C2C200; fill-opacity:1.0000;stroke:#C2C200; stroke-opacity:1.0000; stroke-linecap:round; stroke-linejoin:round;" transform="translate(0 0) scale(1 1)">
</svg:g>
<svg:g style="fill:#C2C200; fill-opacity:0.0;  stroke:#C2C200; stroke-width:0.0000; stroke-opacity:1;  stroke-linecap:round; stroke-linejoin:round;">
</svg:g>
<svg:g style="fill:#C2C200; fill-opacity:0.0;  stroke:#C2C200; stroke-width:0.8832; stroke-opacity:1;  stroke-linecap:round; stroke-linejoin:round;">
<svg:path d="M296.5595 16.7668 L296.5595 193.2404 "/>
<svg:path d="M296.5595 16.7668 L0.4427 16.7668 "/>
<svg:path d="M0.4427 193.2404 L296.5595 193.2404 "/>
<svg:path d="M0.4427 193.2404 L0.4427 16.7668 "/>
<svg:g>
</svg:g>
<svg:g>
</svg:g>
<svg:g>
</svg:g>
<svg:g>
</svg:g>
<svg:g>
</svg:g>
<svg:g>
</svg:g>
<svg:g>
</svg:g>
<svg:g>
</svg:g>
<svg:g>
</svg:g>
<svg:g>
</svg:g>
<svg:g>
</svg:g>
<svg:g>
</svg:g>
<svg:g>
</svg:g>
<svg:g>
</svg:g>
<svg:g>
</svg:g>
<svg:g>
</svg:g>
<svg:g>
</svg:g>
<svg:g>
</svg:g>
<svg:g>
</svg:g>
<svg:g>
</svg:g>
<svg:g>
</svg:g>
<svg:g>
</svg:g>
<svg:g>
</svg:g>
<svg:g>
</svg:g>
<svg:g>
</svg:g>
<svg:g>
</svg:g>
<svg:g>
</svg:g>
<svg:g>
</svg:g>
<svg:g>
</svg:g>
<svg:g>
</svg:g>
<svg:g>
</svg:g>
<svg:g>
</svg:g>
<svg:g>
</svg:g>
<svg:g>
</svg:g>
<svg:g>
</svg:g>
<svg:g>
</svg:g>
<svg:g>
</svg:g>
<svg:g>
</svg:g>
<svg:g>
</svg:g>
<svg:g>
</svg:g>
<svg:g>
</svg:g>
<svg:g>
</svg:g>
<svg:g>
</svg:g>
<svg:g>
</svg:g>
<svg:g>
</svg:g>
<svg:g>
</svg:g>
<svg:g>
</svg:g>
<svg:g>
</svg:g>
<svg:g>
</svg:g>
<svg:g>
</svg:g>
<svg:g>
</svg:g>
<svg:g>
</svg:g>
<svg:g>
</svg:g>
<svg:g>
</svg:g>
<svg:g>
</svg:g>
<svg:g>
</svg:g>
<svg:g>
</svg:g>
<svg:g>
</svg:g>
</svg:g> 
</svg:g></svg:g></svg>
