<?xml version='1.0' encoding='ASCII' standalone='yes'?>
<svg xmlns:svg="http://www.w3.org/2000/svg" xmlns="http://www.w3.org/2000/svg" xmlns:xlink="http://www.w3.org/1999/xlink" version="1.1" width="29.700220cm" height="21.000720cm" viewBox="0 0 2970022 2100072">
<title>SVG Picture created as ISM02B-B_Fab.svg date 2023/02/14 08:27:22 </title>
  <desc>Picture generated by PCBNEW </desc>
<g style="fill:#000084; fill-opacity:1.000000;stroke:#000084; stroke-opacity:1.000000; stroke-linecap:round; stroke-linejoin:round;" transform="translate(0 0) scale(1 1)">
</g>
<g style="fill:#000084; fill-opacity:0.0;  stroke:#000084; stroke-width:0.000000; stroke-opacity:1;  stroke-linecap:round; stroke-linejoin:round;">
</g>
<g style="fill:#000084; fill-opacity:0.01;  stroke:#000084; stroke-width:2292.266863; stroke-opacity:1;  stroke-linecap:round; stroke-linejoin:round;">
<g transform="rotate(-90.000000 1641786.780541 1334746.574071)">
<text x="1641786.780541" y="1342387.463614" transform="scale(-1 1) translate(-3283573.561081 0)" textLength="44389.900621" font-size="20375.692715" lengthAdjust="spacingAndGlyphs" text-anchor="middle" opacity="0.01" style="font-family:monospace">C19</text>
</g>
<g class="stroked-text"><desc>C19</desc>
<path d="M1647244 1324922 L1647972 1324194 L1648699 1322011 L1648699 1320556 L1647972 1318373 L1646516 1316917 L1645061 1316190 L1642150 1315462 L1639967 1315462 L1637056 1316190 L1635601 1316917 L1634145 1318373 L1633418 1320556 L1633418 1322011 L1634145 1324194 L1634873 1324922 "/>
<path d="M1648699 1339476 L1648699 1330744 "/>
<path d="M1648699 1335110 L1633418 1335110 L1635601 1333654 L1637056 1332199 L1637784 1330744 "/>
<path d="M1648699 1346753 L1648699 1349664 L1647972 1351119 L1647244 1351847 L1645061 1353303 L1642150 1354030 L1636328 1354030 L1634873 1353303 L1634145 1352575 L1633418 1351119 L1633418 1348209 L1634145 1346753 L1634873 1346025 L1636328 1345298 L1639967 1345298 L1641422 1346025 L1642150 1346753 L1642878 1348209 L1642878 1351119 L1642150 1352575 L1641422 1353303 L1639967 1354030 "/>
</g><text x="1330282.995626" y="1274039.706647" transform="scale(-1 1) translate(-2660565.991252 0)" textLength="41409.991904" font-size="20375.692715" lengthAdjust="spacingAndGlyphs" text-anchor="middle" opacity="0.01" style="font-family:monospace">C18</text>
<g class="stroked-text"><desc>C18</desc>
<path d="M1340106 1271856 L1340834 1272584 L1343017 1273311 L1344473 1273311 L1346656 1272584 L1348111 1271128 L1348839 1269673 L1349567 1266762 L1349567 1264579 L1348839 1261668 L1348111 1260213 L1346656 1258757 L1344473 1258030 L1343017 1258030 L1340834 1258757 L1340106 1259485 "/>
<path d="M1325552 1273311 L1334285 1273311 "/>
<path d="M1329919 1273311 L1329919 1258030 L1331374 1260213 L1332829 1261668 L1334285 1262396 "/>
<path d="M1316820 1264579 L1318275 1263851 L1319003 1263124 L1319731 1261668 L1319731 1260941 L1319003 1259485 L1318275 1258757 L1316820 1258030 L1313909 1258030 L1312454 1258757 L1311726 1259485 L1310998 1260941 L1310998 1261668 L1311726 1263124 L1312454 1263851 L1313909 1264579 L1316820 1264579 L1318275 1265307 L1319003 1266034 L1319731 1267490 L1319731 1270401 L1319003 1271856 L1318275 1272584 L1316820 1273311 L1313909 1273311 L1312454 1272584 L1311726 1271856 L1310998 1270401 L1310998 1267490 L1311726 1266034 L1312454 1265307 L1313909 1264579 "/>
</g><g transform="rotate(-90.000000 1359394.784787 1419407.630214)">
<text x="1359394.784787" y="1427048.519758" transform="scale(-1 1) translate(-2718789.569575 0)" textLength="41409.991904" font-size="20375.692715" lengthAdjust="spacingAndGlyphs" text-anchor="middle" opacity="0.01" style="font-family:monospace">C12</text>
</g>
<g class="stroked-text"><desc>C12</desc>
<path d="M1364852 1409583 L1365580 1408855 L1366307 1406672 L1366307 1405217 L1365580 1403034 L1364124 1401578 L1362669 1400851 L1359758 1400123 L1357575 1400123 L1354664 1400851 L1353209 1401578 L1351753 1403034 L1351026 1405217 L1351026 1406672 L1351753 1408855 L1352481 1409583 "/>
<path d="M1366307 1424137 L1366307 1415405 "/>
<path d="M1366307 1419771 L1351026 1419771 L1353209 1418316 L1354664 1416860 L1355392 1415405 "/>
<path d="M1352481 1429959 L1351753 1430687 L1351026 1432142 L1351026 1435780 L1351753 1437236 L1352481 1437964 L1353936 1438691 L1355392 1438691 L1357575 1437964 L1366307 1429231 L1366307 1438691 "/>
</g><g transform="rotate(-90.000000 1785832.830217 1329474.360286)">
<text x="1785832.830217" y="1337115.249829" transform="scale(-1 1) translate(-3571665.660434 0)" textLength="41409.991904" font-size="20375.692715" lengthAdjust="spacingAndGlyphs" text-anchor="middle" opacity="0.01" style="font-family:monospace">C22</text>
</g>
<g class="stroked-text"><desc>C22</desc>
<path d="M1791290 1319650 L1792018 1318922 L1792746 1316739 L1792746 1315284 L1792018 1313101 L1790562 1311645 L1789107 1310917 L1786196 1310190 L1784013 1310190 L1781102 1310917 L1779647 1311645 L1778191 1313101 L1777464 1315284 L1777464 1316739 L1778191 1318922 L1778919 1319650 "/>
<path d="M1778919 1325471 L1778191 1326199 L1777464 1327655 L1777464 1331293 L1778191 1332749 L1778919 1333476 L1780375 1334204 L1781830 1334204 L1784013 1333476 L1792746 1324744 L1792746 1334204 "/>
<path d="M1778919 1340026 L1778191 1340753 L1777464 1342209 L1777464 1345847 L1778191 1347303 L1778919 1348030 L1780375 1348758 L1781830 1348758 L1784013 1348030 L1792746 1339298 L1792746 1348758 "/>
</g><g transform="rotate(-90.000000 729021.397438 1556943.641999)">
<text x="729021.397438" y="1564584.531543" transform="scale(-1 1) translate(-1458042.794876 0)" textLength="26855.892932" font-size="20375.692715" lengthAdjust="spacingAndGlyphs" text-anchor="middle" opacity="0.01" style="font-family:monospace">C4</text>
</g>
<g class="stroked-text"><desc>C4</desc>
<path d="M734479 1554396 L735206 1553668 L735934 1551485 L735934 1550030 L735206 1547847 L733751 1546391 L732296 1545664 L729385 1544936 L727202 1544936 L724291 1545664 L722835 1546391 L721380 1547847 L720652 1550030 L720652 1551485 L721380 1553668 L722108 1554396 "/>
<path d="M725746 1567495 L735934 1567495 "/>
<path d="M719925 1563856 L730840 1560218 L730840 1569678 "/>
</g><g transform="rotate(-90.000000 667894.281089 1415587.185442)">
<text x="667894.281089" y="1423228.074986" transform="scale(-1 1) translate(-1335788.562178 0)" textLength="26855.892932" font-size="20375.692715" lengthAdjust="spacingAndGlyphs" text-anchor="middle" opacity="0.01" style="font-family:monospace">C5</text>
</g>
<g class="stroked-text"><desc>C5</desc>
<path d="M673352 1413040 L674079 1412312 L674807 1410129 L674807 1408673 L674079 1406490 L672624 1405035 L671168 1404307 L668258 1403580 L666074 1403580 L663164 1404307 L661708 1405035 L660253 1406490 L659525 1408673 L659525 1410129 L660253 1412312 L660981 1413040 "/>
<path d="M659525 1426866 L659525 1419589 L666802 1418861 L666074 1419589 L665347 1421044 L665347 1424683 L666074 1426138 L666802 1426866 L668258 1427594 L671896 1427594 L673352 1426866 L674079 1426138 L674807 1424683 L674807 1421044 L674079 1419589 L673352 1418861 "/>
</g><g transform="rotate(-90.000000 1011734.310552 1737039.408543)">
<text x="1011734.310552" y="1744680.298086" transform="scale(-1 1) translate(-2023468.621104 0)" textLength="26855.892932" font-size="20375.692715" lengthAdjust="spacingAndGlyphs" text-anchor="middle" opacity="0.01" style="font-family:monospace">C1</text>
</g>
<g class="stroked-text"><desc>C1</desc>
<path d="M1017192 1734492 L1017919 1733764 L1018647 1731581 L1018647 1730126 L1017919 1727943 L1016464 1726487 L1015008 1725759 L1012098 1725032 L1009915 1725032 L1007004 1725759 L1005548 1726487 L1004093 1727943 L1003365 1730126 L1003365 1731581 L1004093 1733764 L1004821 1734492 "/>
<path d="M1018647 1749046 L1018647 1740314 "/>
<path d="M1018647 1744680 L1003365 1744680 L1005548 1743224 L1007004 1741769 L1007731 1740314 "/>
</g><g transform="rotate(-90.000000 813071.182418 1737039.408543)">
<text x="813071.182418" y="1744680.298086" transform="scale(-1 1) translate(-1626142.364836 0)" textLength="26855.892932" font-size="20375.692715" lengthAdjust="spacingAndGlyphs" text-anchor="middle" opacity="0.01" style="font-family:monospace">C3</text>
</g>
<g class="stroked-text"><desc>C3</desc>
<path d="M818528 1734492 L819256 1733764 L819984 1731581 L819984 1730126 L819256 1727943 L817801 1726487 L816345 1725759 L813435 1725032 L811251 1725032 L808341 1725759 L806885 1726487 L805430 1727943 L804702 1730126 L804702 1731581 L805430 1733764 L806157 1734492 "/>
<path d="M804702 1739586 L804702 1749046 L810524 1743952 L810524 1746135 L811251 1747591 L811979 1748318 L813435 1749046 L817073 1749046 L818528 1748318 L819256 1747591 L819984 1746135 L819984 1741769 L819256 1740314 L818528 1739586 "/>
</g><text x="1242947.628142" y="1461432.522704" transform="scale(-1 1) translate(-2485895.256285 0)" textLength="41409.991904" font-size="20375.692715" lengthAdjust="spacingAndGlyphs" text-anchor="middle" opacity="0.01" style="font-family:monospace">C10</text>
<g class="stroked-text"><desc>C10</desc>
<path d="M1252771 1459249 L1253499 1459977 L1255682 1460704 L1257137 1460704 L1259320 1459977 L1260776 1458521 L1261504 1457066 L1262231 1454155 L1262231 1451972 L1261504 1449061 L1260776 1447606 L1259320 1446150 L1257137 1445423 L1255682 1445423 L1253499 1446150 L1252771 1446878 "/>
<path d="M1238217 1460704 L1246949 1460704 "/>
<path d="M1242583 1460704 L1242583 1445423 L1244039 1447606 L1245494 1449061 L1246949 1449789 "/>
<path d="M1228757 1445423 L1227301 1445423 L1225846 1446150 L1225118 1446878 L1224391 1448333 L1223663 1451244 L1223663 1454883 L1224391 1457793 L1225118 1459249 L1225846 1459977 L1227301 1460704 L1228757 1460704 L1230212 1459977 L1230940 1459249 L1231668 1457793 L1232395 1454883 L1232395 1451244 L1231668 1448333 L1230940 1446878 L1230212 1446150 L1228757 1445423 "/>
</g><g transform="rotate(-90.000000 729021.397438 1415587.185442)">
<text x="729021.397438" y="1423228.074986" transform="scale(-1 1) translate(-1458042.794876 0)" textLength="26855.892932" font-size="20375.692715" lengthAdjust="spacingAndGlyphs" text-anchor="middle" opacity="0.01" style="font-family:monospace">C6</text>
</g>
<g class="stroked-text"><desc>C6</desc>
<path d="M734479 1413040 L735206 1412312 L735934 1410129 L735934 1408673 L735206 1406490 L733751 1405035 L732296 1404307 L729385 1403580 L727202 1403580 L724291 1404307 L722835 1405035 L721380 1406490 L720652 1408673 L720652 1410129 L721380 1412312 L722108 1413040 "/>
<path d="M720652 1426138 L720652 1423228 L721380 1421772 L722108 1421044 L724291 1419589 L727202 1418861 L733023 1418861 L734479 1419589 L735206 1420317 L735934 1421772 L735934 1424683 L735206 1426138 L734479 1426866 L733023 1427594 L729385 1427594 L727929 1426866 L727202 1426138 L726474 1424683 L726474 1421772 L727202 1420317 L727929 1419589 L729385 1418861 "/>
</g><text x="1242947.628142" y="1395338.828152" transform="scale(-1 1) translate(-2485895.256285 0)" textLength="26855.892932" font-size="20375.692715" lengthAdjust="spacingAndGlyphs" text-anchor="middle" opacity="0.01" style="font-family:monospace">C8</text>
<g class="stroked-text"><desc>C8</desc>
<path d="M1245494 1393155 L1246222 1393883 L1248405 1394611 L1249860 1394611 L1252043 1393883 L1253499 1392427 L1254227 1390972 L1254954 1388061 L1254954 1385878 L1254227 1382967 L1253499 1381512 L1252043 1380057 L1249860 1379329 L1248405 1379329 L1246222 1380057 L1245494 1380784 "/>
<path d="M1236762 1385878 L1238217 1385150 L1238945 1384423 L1239672 1382967 L1239672 1382240 L1238945 1380784 L1238217 1380057 L1236762 1379329 L1233851 1379329 L1232395 1380057 L1231668 1380784 L1230940 1382240 L1230940 1382967 L1231668 1384423 L1232395 1385150 L1233851 1385878 L1236762 1385878 L1238217 1386606 L1238945 1387334 L1239672 1388789 L1239672 1391700 L1238945 1393155 L1238217 1393883 L1236762 1394611 L1233851 1394611 L1232395 1393883 L1231668 1393155 L1230940 1391700 L1230940 1388789 L1231668 1387334 L1232395 1386606 L1233851 1385878 "/>
</g></g>
<g style="fill:#000084; fill-opacity:0.01;  stroke:#000084; stroke-width:2865.333579; stroke-opacity:1;  stroke-linecap:round; stroke-linejoin:round;">
<text x="912402.746485" y="1807717.636821" transform="scale(-1 1) translate(-1824805.492970 0)" textLength="31585.985604" font-size="25469.606342" lengthAdjust="spacingAndGlyphs" text-anchor="middle" opacity="0.01" style="font-family:monospace">Y1</text>
<g class="stroked-text"><desc>Y1</desc>
<path d="M921499 1797711 L921499 1806807 "/>
<path d="M927866 1787705 L921499 1797711 L915131 1787705 "/>
<path d="M898758 1806807 L909673 1806807 "/>
<path d="M904216 1806807 L904216 1787705 L906035 1790434 L907854 1792253 L909673 1793163 "/>
</g></g>
<g style="fill:#000084; fill-opacity:0.0;  stroke:#000084; stroke-width:5730.667158; stroke-opacity:1;  stroke-linecap:round; stroke-linejoin:round;">
<g transform="rotate(-90.000000 912402.746485 1476714.301791)">
<text x="912402.746485" y="1495816.525650" transform="scale(-1 1) translate(-1824805.492970 0)" textLength="72683.961784" font-size="50939.250889" lengthAdjust="spacingAndGlyphs" text-anchor="middle" opacity="0.01" style="font-family:monospace">U1</text>
</g>
<g class="stroked-text"><desc>U1</desc>
<path d="M891481 1447606 L922408 1447606 L926047 1449425 L927866 1451244 L929685 1454883 L929685 1462160 L927866 1465798 L926047 1467617 L922408 1469437 L891481 1469437 "/>
<path d="M929685 1507641 L929685 1485810 "/>
<path d="M929685 1496726 L891481 1496726 L896939 1493087 L900577 1489449 L902396 1485810 "/>
</g></g>
<g style="fill:#000084; fill-opacity:0.01;  stroke:#000084; stroke-width:2292.266863; stroke-opacity:1;  stroke-linecap:round; stroke-linejoin:round;">
<text x="1576224.127812" y="1201260.233744" transform="scale(-1 1) translate(-3152448.255623 0)" textLength="22385.972549" font-size="20375.692715" lengthAdjust="spacingAndGlyphs" text-anchor="middle" opacity="0.01" style="font-family:monospace">R1</text>
<g class="stroked-text"><desc>R1</desc>
<path d="M1578771 1200532 L1583865 1193255 "/>
<path d="M1587503 1200532 L1587503 1185250 L1581681 1185250 L1580226 1185978 L1579498 1186706 L1578771 1188161 L1578771 1190344 L1579498 1191800 L1580226 1192527 L1581681 1193255 L1587503 1193255 "/>
<path d="M1564217 1200532 L1572949 1200532 "/>
<path d="M1568583 1200532 L1568583 1185250 L1570038 1187433 L1571494 1188889 L1572949 1189616 "/>
</g></g>
<g style="fill:#000084; fill-opacity:0.01;  stroke:#000084; stroke-width:1528.177909; stroke-opacity:1;  stroke-linecap:round; stroke-linejoin:round;">
<g transform="rotate(-90.000000 1145908.330938 1419407.630214)">
<text x="1145908.330938" y="1424183.186179" transform="scale(-1 1) translate(-2291816.661877 0)" textLength="13848.195391" font-size="12734.803171" lengthAdjust="spacingAndGlyphs" text-anchor="middle" opacity="0.01" style="font-family:monospace">L2</text>
</g>
<g class="stroked-text"><desc>L2</desc>
<path d="M1150229 1417815 L1150229 1413267 L1140677 1413267 "/>
<path d="M1141587 1420544 L1141132 1420999 L1140677 1421909 L1140677 1424183 L1141132 1425092 L1141587 1425547 L1142497 1426002 L1143406 1426002 L1144771 1425547 L1150229 1420089 L1150229 1426002 "/>
</g><text x="1718195.675977" y="1305138.127089" transform="scale(-1 1) translate(-3436391.351954 0)" textLength="14841.511032" font-size="12734.803171" lengthAdjust="spacingAndGlyphs" text-anchor="middle" opacity="0.01" style="font-family:monospace">L7</text>
<g class="stroked-text"><desc>L7</desc>
<path d="M1719787 1304683 L1724335 1304683 L1724335 1295132 "/>
<path d="M1717513 1295132 L1711146 1295132 L1715239 1304683 "/>
</g></g>
<g style="fill:#000084; fill-opacity:0.0;  stroke:#000084; stroke-width:4172.689780; stroke-opacity:1;  stroke-linecap:round; stroke-linejoin:round;">
<g transform="rotate(-90.000000 668562.858924 1542960.814135)">
<text x="668562.858924" y="1552519.184909" transform="scale(-1 1) translate(-1337125.717848 0)" textLength="31695.250325" font-size="25488.975997" lengthAdjust="spacingAndGlyphs" text-anchor="middle" opacity="0.01" style="font-family:monospace">L1</text>
</g>
<g class="stroked-text"><desc>L1</desc>
<path d="M677210 1539774 L677210 1530671 L658094 1530671 "/>
<path d="M677210 1556160 L677210 1545236 "/>
<path d="M677210 1550698 L658094 1550698 L660825 1548877 L662645 1547057 L663556 1545236 "/>
</g><g transform="rotate(-90.000000 641877.052193 1538108.849274)">
<text x="641877.052193" y="1547667.220049" transform="scale(-1 1) translate(-1283754.104386 0)" textLength="68311.500947" font-size="25488.975997" lengthAdjust="spacingAndGlyphs" text-anchor="middle" opacity="0.01" style="font-family:monospace">15uH</text>
</g>
<g class="stroked-text"><desc>15uH</desc>
<path d="M650525 1515805 L650525 1504882 "/>
<path d="M650525 1510344 L631408 1510344 L634139 1508523 L635959 1506702 L636870 1504882 "/>
<path d="M631408 1533102 L631408 1523998 L640511 1523088 L639601 1523998 L638690 1525819 L638690 1530371 L639601 1532191 L640511 1533102 L642332 1534012 L646883 1534012 L648704 1533102 L649614 1532191 L650525 1530371 L650525 1525819 L649614 1523998 L648704 1523088 "/>
<path d="M637780 1550398 L650525 1550398 "/>
<path d="M637780 1542205 L647794 1542205 L649614 1543115 L650525 1544936 L650525 1547667 L649614 1549487 L648704 1550398 "/>
<path d="M650525 1559501 L631408 1559501 "/>
<path d="M640511 1559501 L640511 1570425 "/>
<path d="M650525 1570425 L631408 1570425 "/>
</g></g>
<g style="fill:#000084; fill-opacity:0.01;  stroke:#000084; stroke-width:1528.177909; stroke-opacity:1;  stroke-linecap:round; stroke-linejoin:round;">
<g transform="rotate(-90.000000 1156911.211881 1560764.086771)">
<text x="1156911.211881" y="1565539.642736" transform="scale(-1 1) translate(-2313822.423762 0)" textLength="11403.645599" font-size="12734.803171" lengthAdjust="spacingAndGlyphs" text-anchor="middle" opacity="0.01" style="font-family:monospace">L4</text>
</g>
<g class="stroked-text"><desc>L4</desc>
<path d="M1161231 1559172 L1161231 1554624 L1151680 1554624 "/>
<path d="M1154864 1566449 L1161231 1566449 "/>
<path d="M1151226 1564175 L1158048 1561901 L1158048 1567813 "/>
</g><g transform="rotate(-90.000000 1537412.229375 1542960.814135)">
<text x="1537412.229375" y="1547736.370099" transform="scale(-1 1) translate(-3074824.458749 0)" textLength="14841.511032" font-size="12734.803171" lengthAdjust="spacingAndGlyphs" text-anchor="middle" opacity="0.01" style="font-family:monospace">L6</text>
</g>
<g class="stroked-text"><desc>L6</desc>
<path d="M1541732 1541368 L1541732 1536820 L1532181 1536820 "/>
<path d="M1532181 1548645 L1532181 1546826 L1532636 1545917 L1533091 1545462 L1534455 1544552 L1536275 1544097 L1539913 1544097 L1540823 1544552 L1541278 1545007 L1541732 1545917 L1541732 1547736 L1541278 1548645 L1540823 1549100 L1539913 1549555 L1537639 1549555 L1536729 1549100 L1536275 1548645 L1535820 1547736 L1535820 1545917 L1536275 1545007 L1536729 1544552 L1537639 1544097 "/>
</g><text x="1309729.002754" y="1619025.869541" transform="scale(-1 1) translate(-2619458.005507 0)" textLength="14841.511032" font-size="12734.803171" lengthAdjust="spacingAndGlyphs" text-anchor="middle" opacity="0.01" style="font-family:monospace">L5</text>
<g class="stroked-text"><desc>L5</desc>
<path d="M1311320 1618571 L1315868 1618571 L1315868 1609019 "/>
<path d="M1303588 1609019 L1308137 1609019 L1308591 1613568 L1308137 1613113 L1307227 1612658 L1304953 1612658 L1304043 1613113 L1303588 1613568 L1303134 1614477 L1303134 1616751 L1303588 1617661 L1304043 1618116 L1304953 1618571 L1307227 1618571 L1308137 1618116 L1308591 1617661 "/>
</g></g>
<g style="fill:#000084; fill-opacity:0.01;  stroke:#000084; stroke-width:2292.266863; stroke-opacity:1;  stroke-linecap:round; stroke-linejoin:round;">
<text x="1309729.002754" y="1556943.641999" transform="scale(-1 1) translate(-2619458.005507 0)" textLength="42403.307545" font-size="20375.692715" lengthAdjust="spacingAndGlyphs" text-anchor="middle" opacity="0.01" style="font-family:monospace">C13</text>
<g class="stroked-text"><desc>C13</desc>
<path d="M1319552 1554760 L1320280 1555488 L1322463 1556215 L1323919 1556215 L1326102 1555488 L1327557 1554032 L1328285 1552577 L1329013 1549666 L1329013 1547483 L1328285 1544572 L1327557 1543117 L1326102 1541661 L1323919 1540934 L1322463 1540934 L1320280 1541661 L1319552 1542389 "/>
<path d="M1304998 1556215 L1313731 1556215 "/>
<path d="M1309365 1556215 L1309365 1540934 L1310820 1543117 L1312275 1544572 L1313731 1545300 "/>
<path d="M1299904 1540934 L1290444 1540934 L1295538 1546755 L1293355 1546755 L1291900 1547483 L1291172 1548211 L1290444 1549666 L1290444 1553305 L1291172 1554760 L1291900 1555488 L1293355 1556215 L1297721 1556215 L1299177 1555488 L1299904 1554760 "/>
</g><g transform="rotate(-90.000000 1611162.095250 1562368.673575)">
<text x="1611162.095250" y="1570009.563119" transform="scale(-1 1) translate(-3222324.190500 0)" textLength="41409.991904" font-size="20375.692715" lengthAdjust="spacingAndGlyphs" text-anchor="middle" opacity="0.01" style="font-family:monospace">C16</text>
</g>
<g class="stroked-text"><desc>C16</desc>
<path d="M1616619 1552544 L1617347 1551816 L1618075 1549633 L1618075 1548178 L1617347 1545995 L1615892 1544539 L1614436 1543812 L1611525 1543084 L1609342 1543084 L1606432 1543812 L1604976 1544539 L1603521 1545995 L1602793 1548178 L1602793 1549633 L1603521 1551816 L1604248 1552544 "/>
<path d="M1618075 1567098 L1618075 1558366 "/>
<path d="M1618075 1562732 L1602793 1562732 L1604976 1561277 L1606432 1559821 L1607159 1558366 "/>
<path d="M1602793 1580197 L1602793 1577286 L1603521 1575831 L1604248 1575103 L1606432 1573648 L1609342 1572920 L1615164 1572920 L1616619 1573648 L1617347 1574375 L1618075 1575831 L1618075 1578741 L1617347 1580197 L1616619 1580925 L1615164 1581652 L1611525 1581652 L1610070 1580925 L1609342 1580197 L1608615 1578741 L1608615 1575831 L1609342 1574375 L1610070 1573648 L1611525 1572920 "/>
</g><text x="1533095.126783" y="1308003.460668" transform="scale(-1 1) translate(-3066190.253565 0)" textLength="41409.991904" font-size="20375.692715" lengthAdjust="spacingAndGlyphs" text-anchor="middle" opacity="0.01" style="font-family:monospace">C17</text>
<g class="stroked-text"><desc>C17</desc>
<path d="M1542919 1305820 L1543646 1306548 L1545829 1307275 L1547285 1307275 L1549468 1306548 L1550923 1305092 L1551651 1303637 L1552379 1300726 L1552379 1298543 L1551651 1295632 L1550923 1294177 L1549468 1292721 L1547285 1291993 L1545829 1291993 L1543646 1292721 L1542919 1293449 "/>
<path d="M1528365 1307275 L1537097 1307275 "/>
<path d="M1532731 1307275 L1532731 1291993 L1534186 1294177 L1535642 1295632 L1537097 1296360 "/>
<path d="M1523271 1291993 L1513083 1291993 L1519632 1307275 "/>
</g><g transform="rotate(-90.000000 1405240.122049 1649169.178791)">
<text x="1405240.122049" y="1656810.068335" transform="scale(-1 1) translate(-2810480.244098 0)" textLength="41409.991904" font-size="20375.692715" lengthAdjust="spacingAndGlyphs" text-anchor="middle" opacity="0.01" style="font-family:monospace">C14</text>
</g>
<g class="stroked-text"><desc>C14</desc>
<path d="M1410697 1639345 L1411425 1638617 L1412153 1636434 L1412153 1634978 L1411425 1632795 L1409970 1631340 L1408514 1630612 L1405603 1629885 L1403420 1629885 L1400510 1630612 L1399054 1631340 L1397599 1632795 L1396871 1634978 L1396871 1636434 L1397599 1638617 L1398326 1639345 "/>
<path d="M1412153 1653899 L1412153 1645166 "/>
<path d="M1412153 1649532 L1396871 1649532 L1399054 1648077 L1400510 1646622 L1401237 1645166 "/>
<path d="M1401965 1666997 L1412153 1666997 "/>
<path d="M1396143 1663359 L1407059 1659720 L1407059 1669181 "/>
</g><g transform="rotate(-90.000000 1214217.883458 1583686.755402)">
<text x="1214217.883458" y="1591327.644946" transform="scale(-1 1) translate(-2428435.766917 0)" textLength="41409.991904" font-size="20375.692715" lengthAdjust="spacingAndGlyphs" text-anchor="middle" opacity="0.01" style="font-family:monospace">C11</text>
</g>
<g class="stroked-text"><desc>C11</desc>
<path d="M1219675 1573862 L1220403 1573135 L1221131 1570951 L1221131 1569496 L1220403 1567313 L1218947 1565858 L1217492 1565130 L1214581 1564402 L1212398 1564402 L1209487 1565130 L1208032 1565858 L1206576 1567313 L1205849 1569496 L1205849 1570951 L1206576 1573135 L1207304 1573862 "/>
<path d="M1221131 1588416 L1221131 1579684 "/>
<path d="M1221131 1584050 L1205849 1584050 L1208032 1582595 L1209487 1581139 L1210215 1579684 "/>
<path d="M1221131 1602970 L1221131 1594238 "/>
<path d="M1221131 1598604 L1205849 1598604 L1208032 1597149 L1209487 1595693 L1210215 1594238 "/>
</g><text x="1442749.248819" y="1556424.061510" transform="scale(-1 1) translate(-2885498.497637 0)" textLength="41409.991904" font-size="20375.692715" lengthAdjust="spacingAndGlyphs" text-anchor="middle" opacity="0.01" style="font-family:monospace">C15</text>
<g class="stroked-text"><desc>C15</desc>
<path d="M1452573 1554240 L1453300 1554968 L1455484 1555696 L1456939 1555696 L1459122 1554968 L1460577 1553513 L1461305 1552057 L1462033 1549146 L1462033 1546963 L1461305 1544053 L1460577 1542597 L1459122 1541142 L1456939 1540414 L1455484 1540414 L1453300 1541142 L1452573 1541869 "/>
<path d="M1438019 1555696 L1446751 1555696 "/>
<path d="M1442385 1555696 L1442385 1540414 L1443840 1542597 L1445296 1544053 L1446751 1544780 "/>
<path d="M1424192 1540414 L1431469 1540414 L1432197 1547691 L1431469 1546963 L1430014 1546236 L1426375 1546236 L1424920 1546963 L1424192 1547691 L1423465 1549146 L1423465 1552785 L1424192 1554240 L1424920 1554968 L1426375 1555696 L1430014 1555696 L1431469 1554968 L1432197 1554240 "/>
</g><text x="1113931.208198" y="1640993.426979" transform="scale(-1 1) translate(-2227862.416396 0)" textLength="26855.892932" font-size="20375.692715" lengthAdjust="spacingAndGlyphs" text-anchor="middle" opacity="0.01" style="font-family:monospace">C9</text>
<g class="stroked-text"><desc>C9</desc>
<path d="M1116478 1638810 L1117205 1639537 L1119388 1640265 L1120844 1640265 L1123027 1639537 L1124482 1638082 L1125210 1636627 L1125938 1633716 L1125938 1631533 L1125210 1628622 L1124482 1627167 L1123027 1625711 L1120844 1624983 L1119388 1624983 L1117205 1625711 L1116478 1626439 "/>
<path d="M1109201 1640265 L1106290 1640265 L1104834 1639537 L1104107 1638810 L1102651 1636627 L1101924 1633716 L1101924 1627894 L1102651 1626439 L1103379 1625711 L1104834 1624983 L1107745 1624983 L1109201 1625711 L1109928 1626439 L1110656 1627894 L1110656 1631533 L1109928 1632988 L1109201 1633716 L1107745 1634444 L1104834 1634444 L1103379 1633716 L1102651 1632988 L1101924 1631533 "/>
</g><text x="1113931.208198" y="1705940.988100" transform="scale(-1 1) translate(-2227862.416396 0)" textLength="26855.892932" font-size="20375.692715" lengthAdjust="spacingAndGlyphs" text-anchor="middle" opacity="0.01" style="font-family:monospace">C7</text>
<g class="stroked-text"><desc>C7</desc>
<path d="M1116478 1703757 L1117205 1704485 L1119388 1705213 L1120844 1705213 L1123027 1704485 L1124482 1703030 L1125210 1701574 L1125938 1698663 L1125938 1696480 L1125210 1693570 L1124482 1692114 L1123027 1690659 L1120844 1689931 L1119388 1689931 L1117205 1690659 L1116478 1691386 "/>
<path d="M1111384 1689931 L1101196 1689931 L1107745 1705213 "/>
</g></g>
<g style="fill:#000084; fill-opacity:0.01;  stroke:#000084; stroke-width:1528.177909; stroke-opacity:1;  stroke-linecap:round; stroke-linejoin:round;">
<text x="1091963.650760" y="1546437.418877" transform="scale(-1 1) translate(-2183927.301521 0)" textLength="13848.195391" font-size="12734.803171" lengthAdjust="spacingAndGlyphs" text-anchor="middle" opacity="0.01" style="font-family:monospace">L3</text>
<g class="stroked-text"><desc>L3</desc>
<path d="M1093555 1545982 L1098103 1545982 L1098103 1536431 "/>
<path d="M1091281 1536431 L1085368 1536431 L1088552 1540069 L1087188 1540069 L1086278 1540524 L1085823 1540979 L1085368 1541889 L1085368 1544163 L1085823 1545072 L1086278 1545527 L1087188 1545982 L1089916 1545982 L1090826 1545527 L1091281 1545072 "/>
</g></g>
<g style="fill:#000084; fill-opacity:0.01;  stroke:#000084; stroke-width:2292.266863; stroke-opacity:1;  stroke-linecap:round; stroke-linejoin:round;">
<text x="770282.200974" y="1240075.952625" transform="scale(-1 1) translate(-1540564.401947 0)" textLength="27849.208573" font-size="20375.692715" lengthAdjust="spacingAndGlyphs" text-anchor="middle" opacity="0.01" style="font-family:monospace">C2</text>
<g class="stroked-text"><desc>C2</desc>
<path d="M772829 1237892 L773556 1238620 L775739 1239348 L777195 1239348 L779378 1238620 L780833 1237165 L781561 1235709 L782289 1232798 L782289 1230615 L781561 1227704 L780833 1226249 L779378 1224794 L777195 1224066 L775739 1224066 L773556 1224794 L772829 1225521 "/>
<path d="M767007 1225521 L766279 1224794 L764824 1224066 L761185 1224066 L759730 1224794 L759002 1225521 L758275 1226977 L758275 1228432 L759002 1230615 L767735 1239348 L758275 1239348 "/>
</g></g>
<g style="fill:#000084; fill-opacity:0.01;  stroke:#000084; stroke-width:5730.667158; stroke-opacity:1;  stroke-linecap:round; stroke-linejoin:round;">
<text x="903844.950196" y="1230906.885173" transform="scale(-1 1) translate(-1807689.900392 0)" textLength="71609.690918" font-size="50939.250889" lengthAdjust="spacingAndGlyphs" text-anchor="middle" opacity="0.01" style="font-family:monospace">D1</text>
<g class="stroked-text"><desc>D1</desc>
<path d="M932043 1229087 L932043 1190883 L922947 1190883 L917489 1192702 L913850 1196340 L912031 1199979 L910212 1207256 L910212 1212714 L912031 1219991 L913850 1223629 L917489 1227268 L922947 1229087 L932043 1229087 "/>
<path d="M873827 1229087 L895658 1229087 "/>
<path d="M884742 1229087 L884742 1190883 L888381 1196340 L892019 1199979 L895658 1201798 "/>
</g></g>
<g style="fill:#000084; fill-opacity:0.0;  stroke:#000084; stroke-width:2865.333579; stroke-opacity:1;  stroke-linecap:round; stroke-linejoin:round;">
<g transform="rotate(-90.000000 533414.625121 1186589.725820)">
<text x="533414.625121" y="1196140.837749" transform="scale(-1 1) translate(-1066829.250242 0)" textLength="30754.580413" font-size="25469.606342" lengthAdjust="spacingAndGlyphs" text-anchor="middle" opacity="0.01" style="font-family:monospace">U2</text>
</g>
<g class="stroked-text"><desc>U2</desc>
<path d="M522953 1172035 L538417 1172035 L540236 1172945 L541146 1173854 L542056 1175674 L542056 1179312 L541146 1181131 L540236 1182041 L538417 1182951 L522953 1182951 "/>
<path d="M524773 1191137 L523863 1192047 L522953 1193866 L522953 1198414 L523863 1200234 L524773 1201143 L526592 1202053 L528411 1202053 L531140 1201143 L542056 1190228 L542056 1202053 "/>
</g></g>
<g style="fill:#000084; fill-opacity:0.0;  stroke:#000084; stroke-width:4172.689780; stroke-opacity:1;  stroke-linecap:round; stroke-linejoin:round;">
<g transform="rotate(-90.000000 420004.722070 1176637.467189)">
<text x="420004.722070" y="1186195.837964" transform="scale(-1 1) translate(-840009.444139 0)" textLength="51804.658039" font-size="25488.975997" lengthAdjust="spacingAndGlyphs" text-anchor="middle" opacity="0.01" style="font-family:monospace">C24</text>
</g>
<g class="stroked-text"><desc>C24</desc>
<path d="M426832 1164348 L427742 1163437 L428652 1160706 L428652 1158886 L427742 1156155 L425921 1154334 L424101 1153424 L420459 1152513 L417728 1152513 L414087 1153424 L412266 1154334 L410446 1156155 L409536 1158886 L409536 1160706 L410446 1163437 L411356 1164348 "/>
<path d="M411356 1171630 L410446 1172540 L409536 1174361 L409536 1178913 L410446 1180733 L411356 1181644 L413177 1182554 L414997 1182554 L417728 1181644 L428652 1170720 L428652 1182554 "/>
<path d="M415908 1198940 L428652 1198940 "/>
<path d="M408625 1194388 L422280 1189837 L422280 1201671 "/>
</g><g transform="rotate(-90.000000 393318.915339 1171785.502329)">
<text x="393318.915339" y="1181343.873104" transform="scale(-1 1) translate(-786637.830677 0)" textLength="64670.235035" font-size="25488.975997" lengthAdjust="spacingAndGlyphs" text-anchor="middle" opacity="0.01" style="font-family:monospace">10uF</text>
</g>
<g class="stroked-text"><desc>10uF</desc>
<path d="M401966 1151303 L401966 1140379 "/>
<path d="M401966 1145841 L382850 1145841 L385581 1144020 L387401 1142200 L388312 1140379 "/>
<path d="M382850 1163137 L382850 1164958 L383760 1166778 L384670 1167689 L386491 1168599 L390132 1169509 L394684 1169509 L398325 1168599 L400146 1167689 L401056 1166778 L401966 1164958 L401966 1163137 L401056 1161316 L400146 1160406 L398325 1159496 L394684 1158585 L390132 1158585 L386491 1159496 L384670 1160406 L383760 1161316 L382850 1163137 "/>
<path d="M389222 1185895 L401966 1185895 "/>
<path d="M389222 1177702 L399235 1177702 L401056 1178612 L401966 1180433 L401966 1183164 L401056 1184985 L400146 1185895 "/>
<path d="M391953 1201370 L391953 1194998 "/>
<path d="M401966 1194998 L382850 1194998 L382850 1204101 "/>
</g><g transform="rotate(-90.000000 639718.500897 1186589.725820)">
<text x="639718.500897" y="1196148.096594" transform="scale(-1 1) translate(-1279437.001794 0)" textLength="50105.094978" font-size="25488.975997" lengthAdjust="spacingAndGlyphs" text-anchor="middle" opacity="0.01" style="font-family:monospace">C21</text>
</g>
<g class="stroked-text"><desc>C21</desc>
<path d="M646545 1174300 L647456 1173390 L648366 1170659 L648366 1168838 L647456 1166107 L645635 1164286 L643814 1163376 L640173 1162466 L637442 1162466 L633801 1163376 L631980 1164286 L630160 1166107 L629249 1168838 L629249 1170659 L630160 1173390 L631070 1174300 "/>
<path d="M631070 1181582 L630160 1182493 L629249 1184313 L629249 1188865 L630160 1190686 L631070 1191596 L632891 1192506 L634711 1192506 L637442 1191596 L648366 1180672 L648366 1192506 "/>
<path d="M648366 1210713 L648366 1199789 "/>
<path d="M648366 1205251 L629249 1205251 L631980 1203430 L633801 1201609 L634711 1199789 "/>
</g><g transform="rotate(-90.000000 666404.307628 1191441.690680)">
<text x="666404.307628" y="1201000.061455" transform="scale(-1 1) translate(-1332808.615256 0)" textLength="64670.235035" font-size="25488.975997" lengthAdjust="spacingAndGlyphs" text-anchor="middle" opacity="0.01" style="font-family:monospace">10uF</text>
</g>
<g class="stroked-text"><desc>10uF</desc>
<path d="M675052 1170959 L675052 1160035 "/>
<path d="M675052 1165497 L655935 1165497 L658666 1163676 L660487 1161856 L661397 1160035 "/>
<path d="M655935 1182793 L655935 1184614 L656845 1186434 L657756 1187345 L659576 1188255 L663218 1189165 L667769 1189165 L671411 1188255 L673231 1187345 L674142 1186434 L675052 1184614 L675052 1182793 L674142 1180972 L673231 1180062 L671411 1179152 L667769 1178242 L663218 1178242 L659576 1179152 L657756 1180062 L656845 1180972 L655935 1182793 "/>
<path d="M662307 1205551 L675052 1205551 "/>
<path d="M662307 1197358 L672321 1197358 L674142 1198269 L675052 1200089 L675052 1202820 L674142 1204641 L673231 1205551 "/>
<path d="M665038 1221027 L665038 1214654 "/>
<path d="M675052 1214654 L655935 1214654 L655935 1223758 "/>
</g><g transform="rotate(-90.000000 749938.332564 1132969.783447)">
<text x="749938.332564" y="1142528.154222" transform="scale(-1 1) translate(-1499876.665127 0)" textLength="50105.094978" font-size="25488.975997" lengthAdjust="spacingAndGlyphs" text-anchor="middle" opacity="0.01" style="font-family:monospace">C25</text>
</g>
<g class="stroked-text"><desc>C25</desc>
<path d="M756765 1120680 L757676 1119770 L758586 1117039 L758586 1115218 L757676 1112487 L755855 1110666 L754034 1109756 L750393 1108846 L747662 1108846 L744021 1109756 L742200 1110666 L740379 1112487 L739469 1115218 L739469 1117039 L740379 1119770 L741290 1120680 "/>
<path d="M741290 1127963 L740379 1128873 L739469 1130693 L739469 1135245 L740379 1137066 L741290 1137976 L743110 1138886 L744931 1138886 L747662 1137976 L758586 1127052 L758586 1138886 "/>
<path d="M739469 1156182 L739469 1147079 L748572 1146169 L747662 1147079 L746752 1148900 L746752 1153451 L747662 1155272 L748572 1156182 L750393 1157093 L754945 1157093 L756765 1156182 L757676 1155272 L758586 1153451 L758586 1148900 L757676 1147079 L756765 1146169 "/>
</g><g transform="rotate(-90.000000 723252.525832 1128117.818587)">
<text x="723252.525832" y="1137676.189362" transform="scale(-1 1) translate(-1446505.051665 0)" textLength="64670.235035" font-size="25488.975997" lengthAdjust="spacingAndGlyphs" text-anchor="middle" opacity="0.01" style="font-family:monospace">10uF</text>
</g>
<g class="stroked-text"><desc>10uF</desc>
<path d="M731900 1107635 L731900 1096711 "/>
<path d="M731900 1102173 L712783 1102173 L715514 1100353 L717335 1098532 L718245 1096711 "/>
<path d="M712783 1119469 L712783 1121290 L713694 1123111 L714604 1124021 L716425 1124931 L720066 1125841 L724617 1125841 L728259 1124931 L730079 1124021 L730990 1123111 L731900 1121290 L731900 1119469 L730990 1117649 L730079 1116738 L728259 1115828 L724617 1114918 L720066 1114918 L716425 1115828 L714604 1116738 L713694 1117649 L712783 1119469 "/>
<path d="M719156 1142227 L731900 1142227 "/>
<path d="M719156 1134034 L729169 1134034 L730990 1134945 L731900 1136765 L731900 1139496 L730990 1141317 L730079 1142227 "/>
<path d="M721887 1157703 L721887 1151330 "/>
<path d="M731900 1151330 L712783 1151330 L712783 1160434 "/>
</g></g>
<g style="fill:#000084; fill-opacity:0.01;  stroke:#000084; stroke-width:2865.333579; stroke-opacity:1;  stroke-linecap:round; stroke-linejoin:round;">
<text x="1494714.938605" y="1419025.585737" transform="scale(-1 1) translate(-2989429.877210 0)" textLength="32779.951004" font-size="25469.606342" lengthAdjust="spacingAndGlyphs" text-anchor="middle" opacity="0.01" style="font-family:monospace">U3</text>
<g class="stroked-text"><desc>U3</desc>
<path d="M1509268 1399013 L1509268 1414477 L1508359 1416296 L1507449 1417206 L1505630 1418115 L1501991 1418115 L1500172 1417206 L1499263 1416296 L1498353 1414477 L1498353 1399013 "/>
<path d="M1491076 1399013 L1479251 1399013 L1485618 1406290 L1482889 1406290 L1481070 1407200 L1480160 1408110 L1479251 1409929 L1479251 1414477 L1480160 1416296 L1481070 1417206 L1482889 1418115 L1488347 1418115 L1490166 1417206 L1491076 1416296 "/>
</g></g>
<g style="fill:#000084; fill-opacity:0.01;  stroke:#000084; stroke-width:2292.266863; stroke-opacity:1;  stroke-linecap:round; stroke-linejoin:round;">
<text x="1420961.252285" y="1201260.233744" transform="scale(-1 1) translate(-2841922.504570 0)" textLength="26110.906202" font-size="20375.692715" lengthAdjust="spacingAndGlyphs" text-anchor="middle" opacity="0.01" style="font-family:monospace">R2</text>
<g class="stroked-text"><desc>R2</desc>
<path d="M1423508 1200532 L1428602 1193255 "/>
<path d="M1432240 1200532 L1432240 1185250 L1426419 1185250 L1424963 1185978 L1424235 1186706 L1423508 1188161 L1423508 1190344 L1424235 1191800 L1424963 1192527 L1426419 1193255 L1432240 1193255 "/>
<path d="M1417686 1186706 L1416958 1185978 L1415503 1185250 L1411864 1185250 L1410409 1185978 L1409681 1186706 L1408954 1188161 L1408954 1189616 L1409681 1191800 L1418414 1200532 L1408954 1200532 "/>
</g></g>
<g style="fill:#000084; fill-opacity:0.0;  stroke:#000084; stroke-width:3820.444772; stroke-opacity:1;  stroke-linecap:round; stroke-linejoin:round;">
<path d="M1626505 1365310 L1657068 1365310 "/>
<path d="M1657068 1304183 L1626505 1304183 "/>
<path d="M1626505 1304183 L1626505 1365310 "/>
<path d="M1657068 1365310 L1657068 1304183 "/>
<path d="M1299719 1251117 L1299719 1281680 "/>
<path d="M1360846 1281680 L1360846 1251117 "/>
<path d="M1360846 1251117 L1299719 1251117 "/>
<path d="M1299719 1281680 L1360846 1281680 "/>
<path d="M1374676 1449971 L1374676 1388844 "/>
<path d="M1374676 1388844 L1344113 1388844 "/>
<path d="M1344113 1388844 L1344113 1449971 "/>
<path d="M1344113 1449971 L1374676 1449971 "/>
<path d="M1801114 1298910 L1770551 1298910 "/>
<path d="M1801114 1360037 L1801114 1298910 "/>
<path d="M1770551 1298910 L1770551 1360037 "/>
<path d="M1770551 1360037 L1801114 1360037 "/>
<path d="M713739 1587507 L744303 1587507 "/>
<path d="M713739 1526380 L713739 1587507 "/>
<path d="M744303 1587507 L744303 1526380 "/>
<path d="M744303 1526380 L713739 1526380 "/>
<path d="M683176 1446150 L683176 1385023 "/>
<path d="M652612 1385023 L652612 1446150 "/>
<path d="M652612 1446150 L683176 1446150 "/>
<path d="M683176 1385023 L652612 1385023 "/>
<path d="M1027016 1706475 L996452 1706475 "/>
<path d="M996452 1767602 L1027016 1767602 "/>
<path d="M1027016 1767602 L1027016 1706475 "/>
<path d="M996452 1706475 L996452 1767602 "/>
<path d="M828352 1706475 L797789 1706475 "/>
<path d="M797789 1706475 L797789 1767602 "/>
<path d="M828352 1767602 L828352 1706475 "/>
<path d="M797789 1767602 L828352 1767602 "/>
<path d="M1273511 1438509 L1212384 1438509 "/>
<path d="M1212384 1469073 L1273511 1469073 "/>
<path d="M1273511 1469073 L1273511 1438509 "/>
<path d="M1212384 1438509 L1212384 1469073 "/>
<path d="M744303 1446150 L744303 1385023 "/>
<path d="M713739 1385023 L713739 1446150 "/>
<path d="M744303 1385023 L713739 1385023 "/>
<path d="M713739 1446150 L744303 1446150 "/>
<path d="M1273511 1402979 L1273511 1372416 "/>
<path d="M1273511 1372416 L1212384 1372416 "/>
<path d="M1212384 1372416 L1212384 1402979 "/>
<path d="M1212384 1402979 L1273511 1402979 "/>
<path d="M864647 1836370 L864647 1759962 "/>
<path d="M960158 1817268 L960158 1759962 "/>
<path d="M960158 1759962 L864647 1759962 "/>
<path d="M941056 1836370 L864647 1836370 "/>
<path d="M960158 1817268 L941056 1836370 "/>
<path d="M835993 1553123 L950607 1553123 "/>
<path d="M950607 1553123 L988811 1514918 "/>
<path d="M988811 1400305 L835993 1400305 "/>
<path d="M988811 1514918 L988811 1400305 "/>
<path d="M835993 1400305 L835993 1553123 "/>
<path d="M1606787 1178337 L1545660 1178337 "/>
<path d="M1545660 1178337 L1545660 1208901 "/>
<path d="M1545660 1208901 L1606787 1208901 "/>
<path d="M1606787 1208901 L1606787 1178337 "/>
<path d="M1136357 1438509 L1155459 1438509 "/>
<path d="M1155459 1438509 L1155459 1400305 "/>
<path d="M1136357 1400305 L1136357 1438509 "/>
<path d="M1155459 1400305 L1136357 1400305 "/>
<path d="M1699093 1290811 L1699093 1309913 "/>
<path d="M1699093 1309913 L1737297 1309913 "/>
<path d="M1737297 1309913 L1737297 1290811 "/>
<path d="M1737297 1290811 L1699093 1290811 "/>
</g>
<g style="fill:#000084; fill-opacity:0.0;  stroke:#000084; stroke-width:5730.667158; stroke-opacity:1;  stroke-linecap:round; stroke-linejoin:round;">
<path d="M685544 1523552 L685544 1484737 "/>
<path d="M627321 1484737 L627321 1523552 "/>
<path d="M685544 1601184 L685544 1562368 "/>
<path d="M627321 1601184 L685544 1601184 "/>
<path d="M685544 1484737 L627321 1484737 "/>
<path d="M627321 1562368 L627321 1601184 "/>
</g>
<g style="fill:#000084; fill-opacity:0.0;  stroke:#000084; stroke-width:3820.444772; stroke-opacity:1;  stroke-linecap:round; stroke-linejoin:round;">
<path d="M1147360 1541661 L1147360 1579866 "/>
<path d="M1166462 1579866 L1166462 1541661 "/>
<path d="M1147360 1579866 L1166462 1579866 "/>
<path d="M1166462 1541661 L1147360 1541661 "/>
<path d="M1527861 1523858 L1527861 1562063 "/>
<path d="M1527861 1562063 L1546963 1562063 "/>
<path d="M1546963 1562063 L1546963 1523858 "/>
<path d="M1546963 1523858 L1527861 1523858 "/>
<path d="M1328831 1604699 L1290626 1604699 "/>
<path d="M1290626 1604699 L1290626 1623801 "/>
<path d="M1328831 1623801 L1328831 1604699 "/>
<path d="M1290626 1623801 L1328831 1623801 "/>
<path d="M1279165 1534020 L1279165 1564584 "/>
<path d="M1279165 1564584 L1340292 1564584 "/>
<path d="M1340292 1564584 L1340292 1534020 "/>
<path d="M1340292 1534020 L1279165 1534020 "/>
<path d="M1595880 1592932 L1626443 1592932 "/>
<path d="M1626443 1531805 L1595880 1531805 "/>
<path d="M1595880 1531805 L1595880 1592932 "/>
<path d="M1626443 1592932 L1626443 1531805 "/>
<path d="M1563658 1285080 L1502531 1285080 "/>
<path d="M1502531 1285080 L1502531 1315644 "/>
<path d="M1563658 1315644 L1563658 1285080 "/>
<path d="M1502531 1315644 L1563658 1315644 "/>
<path d="M1389958 1679732 L1420521 1679732 "/>
<path d="M1389958 1618605 L1389958 1679732 "/>
<path d="M1420521 1618605 L1389958 1618605 "/>
<path d="M1420521 1679732 L1420521 1618605 "/>
<path d="M1229499 1614250 L1229499 1553123 "/>
<path d="M1198936 1553123 L1198936 1614250 "/>
<path d="M1229499 1553123 L1198936 1553123 "/>
<path d="M1198936 1614250 L1229499 1614250 "/>
<path d="M1412185 1564064 L1473312 1564064 "/>
<path d="M1473312 1533501 L1412185 1533501 "/>
<path d="M1473312 1564064 L1473312 1533501 "/>
<path d="M1412185 1533501 L1412185 1564064 "/>
<path d="M1083367 1648634 L1144494 1648634 "/>
<path d="M1083367 1618070 L1083367 1648634 "/>
<path d="M1144494 1648634 L1144494 1618070 "/>
<path d="M1144494 1618070 L1083367 1618070 "/>
<path d="M1144494 1683018 L1083367 1683018 "/>
<path d="M1144494 1713581 L1144494 1683018 "/>
<path d="M1083367 1713581 L1144494 1713581 "/>
<path d="M1083367 1683018 L1083367 1713581 "/>
<path d="M1072861 1532110 L1072861 1551212 "/>
<path d="M1111065 1551212 L1111065 1532110 "/>
<path d="M1072861 1551212 L1111065 1551212 "/>
<path d="M1111065 1532110 L1072861 1532110 "/>
<path d="M800845 1247716 L800845 1217153 "/>
<path d="M739718 1217153 L739718 1247716 "/>
<path d="M739718 1247716 L800845 1247716 "/>
<path d="M800845 1217153 L739718 1217153 "/>
<path d="M890473 1135395 L890473 1156408 "/>
<path d="M913396 1150677 L913396 1120113 "/>
<path d="M840807 1104832 L840807 1165959 "/>
<path d="M875191 1135395 L890473 1135395 "/>
<path d="M966882 1165959 L966882 1104832 "/>
<path d="M890473 1135395 L913396 1150677 "/>
<path d="M840807 1165959 L966882 1165959 "/>
<path d="M913396 1120113 L890473 1135395 "/>
<path d="M966882 1104832 L840807 1104832 "/>
<path d="M913396 1135395 L932498 1135395 "/>
<path d="M890473 1135395 L890473 1114383 "/>
<path d="M499030 1127372 L499030 1245806 "/>
<path d="M499030 1245806 L567798 1245806 "/>
<path d="M567798 1152205 L567798 1245806 "/>
<path d="M567798 1152205 L542965 1127372 "/>
<path d="M499030 1127372 L542965 1127372 "/>
</g>
<g style="fill:#000084; fill-opacity:0.0;  stroke:#000084; stroke-width:5730.667158; stroke-opacity:1;  stroke-linecap:round; stroke-linejoin:round;">
<path d="M378763 1118413 L378763 1157229 "/>
<path d="M378763 1196045 L378763 1234861 "/>
<path d="M436986 1234861 L436986 1196045 "/>
<path d="M436986 1118413 L378763 1118413 "/>
<path d="M436986 1157229 L436986 1118413 "/>
<path d="M378763 1234861 L436986 1234861 "/>
<path d="M622736 1128366 L622736 1167181 "/>
<path d="M680960 1128366 L622736 1128366 "/>
<path d="M622736 1244813 L680960 1244813 "/>
<path d="M622736 1205997 L622736 1244813 "/>
<path d="M680960 1244813 L680960 1205997 "/>
<path d="M680960 1167181 L680960 1128366 "/>
<path d="M766920 1113561 L766920 1074746 "/>
<path d="M708696 1191193 L766920 1191193 "/>
<path d="M766920 1191193 L766920 1152377 "/>
<path d="M708696 1074746 L708696 1113561 "/>
<path d="M708696 1152377 L708696 1191193 "/>
<path d="M766920 1074746 L708696 1074746 "/>
</g>
<g style="fill:#000084; fill-opacity:0.0;  stroke:#000084; stroke-width:3820.444772; stroke-opacity:1;  stroke-linecap:round; stroke-linejoin:round;">
<path d="M1536739 1383686 L1452690 1383686 "/>
<path d="M1536739 1416160 L1517637 1435262 "/>
<path d="M1536739 1383686 L1536739 1416160 "/>
<path d="M1452690 1383686 L1452690 1435262 "/>
<path d="M1517637 1435262 L1452690 1435262 "/>
<path d="M1451524 1208901 L1451524 1178337 "/>
<path d="M1390397 1178337 L1390397 1208901 "/>
<path d="M1451524 1178337 L1390397 1178337 "/>
<path d="M1390397 1208901 L1451524 1208901 "/>
<g>
</g>
<g>
</g>
<g>
</g>
<g>
</g>
<g>
</g>
<g>
</g>
<g>
</g>
<g>
</g>
<g>
</g>
<g>
</g>
<g>
</g>
<g>
</g>
<g>
</g>
<g>
</g>
<g>
</g>
<g>
</g>
<g>
</g>
<g>
</g>
<g>
</g>
<g>
</g>
<g>
</g>
<g>
</g>
<g>
</g>
<g>
</g>
<g>
</g>
<g>
</g>
<g>
</g>
<g>
</g>
<g>
</g>
<g>
</g>
<g>
</g>
<g>
</g>
<g>
</g>
<g>
</g>
<g>
</g>
<g>
</g>
<g>
</g>
<g>
</g>
<g>
</g>
<g>
</g>
<g>
</g>
<g>
</g>
<g>
</g>
<g>
</g>
<g>
</g>
<g>
</g>
<g>
</g>
<g>
</g>
<g>
</g>
<g>
</g>
<g>
</g>
<g>
</g>
<g>
</g>
<g>
</g>
<g>
</g>
<g>
</g>
<g>
</g>
<g>
</g>
</g> 
<svg:g><svg:g><svg:title>SVG Picture created as ISM02B-Edge_Cuts.svg date 2023/02/14 08:27:22 </svg:title>
  <svg:desc>Picture generated by PCBNEW </svg:desc>
<svg:g style="fill:#C2C200; fill-opacity:1.000000;stroke:#C2C200; stroke-opacity:1.000000; stroke-linecap:round; stroke-linejoin:round;" transform="translate(0 0) scale(1 1)">
</svg:g>
<svg:g style="fill:#C2C200; fill-opacity:0.0;  stroke:#C2C200; stroke-width:0.000000; stroke-opacity:1;  stroke-linecap:round; stroke-linejoin:round;">
</svg:g>
<svg:g style="fill:#C2C200; fill-opacity:0.0;  stroke:#C2C200; stroke-width:5730.667158; stroke-opacity:1;  stroke-linecap:round; stroke-linejoin:round;">
<svg:path d="M339947 776350 L339947 1921414 "/>
<svg:path d="M339947 776350 L2261325 776350 "/>
<svg:path d="M2261325 1921414 L339947 1921414 "/>
<svg:path d="M2261325 1921414 L2261325 776350 "/>
<svg:g>
</svg:g>
<svg:g>
</svg:g>
<svg:g>
</svg:g>
<svg:g>
</svg:g>
<svg:g>
</svg:g>
<svg:g>
</svg:g>
<svg:g>
</svg:g>
<svg:g>
</svg:g>
<svg:g>
</svg:g>
<svg:g>
</svg:g>
<svg:g>
</svg:g>
<svg:g>
</svg:g>
<svg:g>
</svg:g>
<svg:g>
</svg:g>
<svg:g>
</svg:g>
<svg:g>
</svg:g>
<svg:g>
</svg:g>
<svg:g>
</svg:g>
<svg:g>
</svg:g>
<svg:g>
</svg:g>
<svg:g>
</svg:g>
<svg:g>
</svg:g>
<svg:g>
</svg:g>
<svg:g>
</svg:g>
<svg:g>
</svg:g>
<svg:g>
</svg:g>
<svg:g>
</svg:g>
<svg:g>
</svg:g>
<svg:g>
</svg:g>
<svg:g>
</svg:g>
<svg:g>
</svg:g>
<svg:g>
</svg:g>
<svg:g>
</svg:g>
<svg:g>
</svg:g>
<svg:g>
</svg:g>
<svg:g>
</svg:g>
<svg:g>
</svg:g>
<svg:g>
</svg:g>
<svg:g>
</svg:g>
<svg:g>
</svg:g>
<svg:g>
</svg:g>
<svg:g>
</svg:g>
<svg:g>
</svg:g>
<svg:g>
</svg:g>
<svg:g>
</svg:g>
<svg:g>
</svg:g>
<svg:g>
</svg:g>
<svg:g>
</svg:g>
<svg:g>
</svg:g>
<svg:g>
</svg:g>
<svg:g>
</svg:g>
<svg:g>
</svg:g>
<svg:g>
</svg:g>
<svg:g>
</svg:g>
<svg:g>
</svg:g>
<svg:g>
</svg:g>
<svg:g>
</svg:g>
<svg:g>
</svg:g>
</svg:g> 
</svg:g></svg:g></svg>
