%TF.GenerationSoftware,KiCad,Pcbnew,7.0.5.1-1-g8f565ef7f0-dirty-deb11*%
%TF.CreationDate,2023-07-20T08:59:28+00:00*%
%TF.ProjectId,ISM02,49534d30-322e-46b6-9963-61645f706362,rev?*%
%TF.SameCoordinates,Original*%
%TF.FileFunction,Copper,L1,Top*%
%TF.FilePolarity,Positive*%
%FSLAX46Y46*%
G04 Gerber Fmt 4.6, Leading zero omitted, Abs format (unit mm)*
G04 Created by KiCad (PCBNEW 7.0.5.1-1-g8f565ef7f0-dirty-deb11) date 2023-07-20 08:59:28*
%MOMM*%
%LPD*%
G01*
G04 APERTURE LIST*
G04 Aperture macros list*
%AMRoundRect*
0 Rectangle with rounded corners*
0 $1 Rounding radius*
0 $2 $3 $4 $5 $6 $7 $8 $9 X,Y pos of 4 corners*
0 Add a 4 corners polygon primitive as box body*
4,1,4,$2,$3,$4,$5,$6,$7,$8,$9,$2,$3,0*
0 Add four circle primitives for the rounded corners*
1,1,$1+$1,$2,$3*
1,1,$1+$1,$4,$5*
1,1,$1+$1,$6,$7*
1,1,$1+$1,$8,$9*
0 Add four rect primitives between the rounded corners*
20,1,$1+$1,$2,$3,$4,$5,0*
20,1,$1+$1,$4,$5,$6,$7,0*
20,1,$1+$1,$6,$7,$8,$9,0*
20,1,$1+$1,$8,$9,$2,$3,0*%
G04 Aperture macros list end*
%TA.AperFunction,ComponentPad*%
%ADD10C,6.000000*%
%TD*%
%TA.AperFunction,ComponentPad*%
%ADD11R,1.524000X1.524000*%
%TD*%
%TA.AperFunction,ComponentPad*%
%ADD12C,2.500000*%
%TD*%
%TA.AperFunction,ComponentPad*%
%ADD13C,2.700000*%
%TD*%
%TA.AperFunction,ComponentPad*%
%ADD14C,0.500000*%
%TD*%
%TA.AperFunction,SMDPad,CuDef*%
%ADD15RoundRect,0.250000X1.050000X-1.050000X1.050000X1.050000X-1.050000X1.050000X-1.050000X-1.050000X0*%
%TD*%
%TA.AperFunction,ViaPad*%
%ADD16C,0.600000*%
%TD*%
%TA.AperFunction,Conductor*%
%ADD17C,0.250000*%
%TD*%
%TA.AperFunction,Conductor*%
%ADD18C,0.500000*%
%TD*%
%TA.AperFunction,Conductor*%
%ADD19C,0.300000*%
%TD*%
G04 APERTURE END LIST*
D10*
%TO.P,M2,1*%
%TO.N,GND*%
X139700000Y-104140000D03*
%TD*%
%TO.P,M3,1*%
%TO.N,GND*%
X180340000Y-124460000D03*
%TD*%
D11*
%TO.P,J2,1*%
%TO.N,GND*%
X137922000Y-118872000D03*
%TO.P,J2,2*%
X140462000Y-118872000D03*
%TD*%
%TO.P,J5,1*%
%TO.N,/MISO*%
X167102000Y-105410000D03*
%TO.P,J5,2*%
X167102000Y-102870000D03*
%TD*%
%TO.P,J4,1*%
%TO.N,/SCK*%
X172202000Y-105410000D03*
%TO.P,J4,2*%
X172202000Y-102870000D03*
%TD*%
%TO.P,J3,1*%
%TO.N,/#RESET*%
X163596000Y-105410000D03*
%TO.P,J3,2*%
X163596000Y-102870000D03*
%TD*%
D12*
%TO.P,J12,1*%
%TO.N,Net-(C22-Pad2)*%
X179374800Y-114300000D03*
D13*
%TO.P,J12,2*%
%TO.N,GND*%
X176834800Y-116840000D03*
X181914800Y-116840000D03*
X176834800Y-111760000D03*
X181914800Y-111760000D03*
%TD*%
D11*
%TO.P,J10,1*%
%TO.N,/DIO3*%
X153396000Y-105410000D03*
%TO.P,J10,2*%
X153396000Y-102870000D03*
%TD*%
%TO.P,J7,1*%
%TO.N,/#CS*%
X174752000Y-105410000D03*
%TO.P,J7,2*%
X174752000Y-102870000D03*
%TD*%
%TO.P,J9,1*%
%TO.N,/DIO2*%
X155946000Y-105410000D03*
%TO.P,J9,2*%
X155946000Y-102870000D03*
%TD*%
%TO.P,J8,1*%
%TO.N,/DIO1*%
X158496000Y-105410000D03*
%TO.P,J8,2*%
X158496000Y-102870000D03*
%TD*%
%TO.P,J11,1*%
%TO.N,/BUSY*%
X161046000Y-105410000D03*
%TO.P,J11,2*%
X161046000Y-102870000D03*
%TD*%
%TO.P,J6,1*%
%TO.N,/MOSI*%
X169652000Y-105410000D03*
%TO.P,J6,2*%
X169652000Y-102870000D03*
%TD*%
D10*
%TO.P,M1,1*%
%TO.N,GND*%
X180340000Y-104140000D03*
%TD*%
D11*
%TO.P,J1,1,2*%
%TO.N,GND*%
X145288000Y-105410000D03*
%TO.P,J1,2,2*%
X145288000Y-102870000D03*
%TO.P,J1,3,4*%
%TO.N,+5V*%
X147828000Y-105410000D03*
%TO.P,J1,4,4*%
X147828000Y-102870000D03*
%TO.P,J1,5,6*%
%TO.N,GND*%
X150368000Y-105410000D03*
%TO.P,J1,6,6*%
X150368000Y-102870000D03*
%TD*%
D10*
%TO.P,M4,1*%
%TO.N,GND*%
X139700000Y-124460000D03*
%TD*%
D11*
%TO.P,J15,1*%
%TO.N,GND*%
X137922000Y-113792000D03*
%TO.P,J15,2*%
X140462000Y-113792000D03*
%TD*%
%TO.P,J13,1*%
%TO.N,+3V3*%
X137922000Y-116332000D03*
%TO.P,J13,2*%
X140462000Y-116332000D03*
%TD*%
D14*
%TO.P,U1,25,GND*%
%TO.N,GND*%
X148808000Y-118696000D03*
X149858000Y-118696000D03*
X150908000Y-118696000D03*
X148808000Y-117646000D03*
X149858000Y-117646000D03*
D15*
X149858000Y-117646000D03*
D14*
X150908000Y-117646000D03*
X148808000Y-116596000D03*
X149858000Y-116596000D03*
X150908000Y-116596000D03*
%TD*%
D16*
%TO.N,GND*%
X145058000Y-114046000D03*
X143458000Y-114046000D03*
X151358000Y-123260000D03*
X148358000Y-123260000D03*
X150558000Y-124560000D03*
X163830000Y-113665000D03*
X184150000Y-119380000D03*
X148463000Y-128270000D03*
X163830000Y-100330000D03*
X161798000Y-113919000D03*
X171069000Y-111633000D03*
X184150000Y-118110000D03*
X157356660Y-118341817D03*
X158750000Y-113919000D03*
X184150000Y-114300000D03*
X145161000Y-122301000D03*
X168910000Y-111633000D03*
X142240000Y-128270000D03*
X184150000Y-110490000D03*
X156972000Y-113919000D03*
X167894000Y-111633000D03*
X143383000Y-107442000D03*
X145161000Y-123317000D03*
X153858000Y-124946000D03*
X146304000Y-128270000D03*
X159766000Y-113919000D03*
X168402000Y-122428000D03*
X143764000Y-112649000D03*
X153670000Y-100330000D03*
X169164000Y-116967000D03*
X177800000Y-108585000D03*
X170053000Y-111633000D03*
X172085000Y-128270000D03*
X164211000Y-121666000D03*
X161290000Y-100330000D03*
X172212000Y-111506000D03*
X163195000Y-128270000D03*
X160655000Y-128270000D03*
X167767000Y-114300000D03*
X154940000Y-100330000D03*
X153416000Y-123446000D03*
X172720000Y-100330000D03*
X157480000Y-100330000D03*
X162560000Y-124460000D03*
X155858000Y-118346000D03*
X152273000Y-128270000D03*
X174117000Y-114935000D03*
X166370000Y-100330000D03*
X160655000Y-113919000D03*
X150876000Y-122301000D03*
X181610000Y-120015000D03*
X159766000Y-122809000D03*
X149858000Y-123860000D03*
X149606000Y-107442000D03*
X153797000Y-126111000D03*
X150858000Y-121146000D03*
X155575000Y-128270000D03*
X145161000Y-128270000D03*
X170815000Y-128270000D03*
X143510000Y-100330000D03*
X144780000Y-100330000D03*
X135890000Y-120650000D03*
X168275000Y-128270000D03*
X158750000Y-100330000D03*
X172847000Y-116967000D03*
X146050000Y-100330000D03*
X173101000Y-111506000D03*
X169545000Y-120904000D03*
X177800000Y-100330000D03*
X175260000Y-100330000D03*
X176530000Y-108585000D03*
X146939000Y-112649000D03*
X158115000Y-128270000D03*
X168148000Y-116967000D03*
X156210000Y-100330000D03*
X182245000Y-108585000D03*
X149860000Y-100330000D03*
X162941000Y-115697000D03*
X167640000Y-100330000D03*
X173990000Y-100330000D03*
X183515000Y-120015000D03*
X148908011Y-121145981D03*
X148590000Y-100330000D03*
X170180000Y-100330000D03*
X164846000Y-111633000D03*
X135890000Y-119380000D03*
X162258000Y-118346000D03*
X164465000Y-128270000D03*
X146050000Y-127000000D03*
X135890000Y-116840000D03*
X184150000Y-116840000D03*
X154940000Y-118346000D03*
X173990000Y-111506000D03*
X174498000Y-112268000D03*
X165735000Y-128270000D03*
X171450000Y-100330000D03*
X164846000Y-117983000D03*
X170561000Y-116967000D03*
X154305000Y-128270000D03*
X152019000Y-122301000D03*
X153035000Y-115570000D03*
X163858046Y-118346000D03*
X173990000Y-118110000D03*
X161925000Y-128270000D03*
X145161000Y-125349000D03*
X153158000Y-121746000D03*
X168910000Y-100330000D03*
X177165000Y-128270000D03*
X173355000Y-128270000D03*
X148717000Y-122174000D03*
X160658000Y-118346000D03*
X145161000Y-126619000D03*
X165100000Y-100330000D03*
X147320000Y-121920000D03*
X146058000Y-118946000D03*
X175895000Y-120015000D03*
X162560000Y-100330000D03*
X184150000Y-113030000D03*
X161036000Y-122809000D03*
X184150000Y-107950000D03*
X171704000Y-116967000D03*
X179705000Y-118745000D03*
X179070000Y-120015000D03*
X166497000Y-121158000D03*
X160020000Y-100330000D03*
X157480000Y-122809000D03*
X151130000Y-100330000D03*
X164211000Y-122809000D03*
X169545000Y-122428000D03*
X167132000Y-116967000D03*
X184150000Y-115570000D03*
X171323000Y-114300000D03*
X149258000Y-124560000D03*
X161036000Y-124460000D03*
X169418000Y-117983000D03*
X147447000Y-128270000D03*
X156224000Y-114808000D03*
X170307000Y-114300000D03*
X184150000Y-120650000D03*
X175895000Y-128270000D03*
X169545000Y-128270000D03*
X165227000Y-121158000D03*
X174625000Y-120015000D03*
X157861000Y-113919000D03*
X147858000Y-126560000D03*
X153035000Y-127127000D03*
X136271000Y-107315000D03*
X184150000Y-109220000D03*
X152400000Y-100330000D03*
X145161000Y-112649000D03*
X167005000Y-128270000D03*
X159058000Y-118346000D03*
X174117000Y-116967000D03*
X176530000Y-100330000D03*
X159385000Y-128270000D03*
X149606000Y-128270000D03*
X180975000Y-108585000D03*
X164338000Y-124460000D03*
X143510000Y-128270000D03*
X147320000Y-100330000D03*
X165989000Y-111633000D03*
X175006000Y-115062000D03*
X135890000Y-118110000D03*
X177800000Y-120015000D03*
X141859000Y-107569000D03*
X163830000Y-111633000D03*
X143637000Y-121920000D03*
X158623000Y-122809000D03*
X173990000Y-119380000D03*
X166116000Y-113919000D03*
X145161000Y-124333000D03*
X156845000Y-128270000D03*
X167132000Y-122428000D03*
X179070000Y-110490000D03*
X150876000Y-128270000D03*
X146050000Y-121920000D03*
X169545000Y-119126000D03*
X163830000Y-112649000D03*
X149606000Y-108712000D03*
X184150000Y-111760000D03*
X174625000Y-128270000D03*
X184150000Y-106680000D03*
X142494000Y-112649000D03*
%TO.N,+3V3*%
X167005000Y-115443000D03*
X165354000Y-110236000D03*
X137940000Y-110000000D03*
X151858000Y-121146000D03*
X146858000Y-117146000D03*
%TO.N,Net-(C18-Pad1)*%
X162814000Y-111633000D03*
X163703000Y-114935000D03*
%TO.N,/#RESET*%
X169164000Y-110236000D03*
%TO.N,/DIO2*%
X161544000Y-109490080D03*
%TO.N,/DIO3*%
X146058000Y-113746046D03*
X147901519Y-121146000D03*
%TD*%
D17*
%TO.N,GND*%
X148358000Y-122533000D02*
X148717000Y-122174000D01*
X143383000Y-107442000D02*
X141986000Y-107442000D01*
X167767000Y-116586000D02*
X167767000Y-114681000D01*
X149606000Y-128270000D02*
X150876000Y-128270000D01*
X150858000Y-121146000D02*
X150858000Y-122283000D01*
X152273000Y-128270000D02*
X152273000Y-127889000D01*
D18*
X155862183Y-118341817D02*
X155858000Y-118346000D01*
D17*
X168148000Y-116967000D02*
X167767000Y-116586000D01*
D18*
X149258000Y-124460000D02*
X149858000Y-123860000D01*
X162258000Y-118346000D02*
X163858046Y-118346000D01*
D17*
X167767000Y-114681000D02*
X167767000Y-114300000D01*
D18*
X149258000Y-124560000D02*
X149258000Y-124460000D01*
D17*
X149606000Y-108712000D02*
X149606000Y-107442000D01*
D18*
X159058000Y-118346000D02*
X160658000Y-118346000D01*
X157356660Y-118341817D02*
X155862183Y-118341817D01*
D17*
X152273000Y-127889000D02*
X153035000Y-127127000D01*
X150858000Y-122283000D02*
X150876000Y-122301000D01*
X148358000Y-123260000D02*
X148358000Y-122533000D01*
X141986000Y-107442000D02*
X141859000Y-107569000D01*
%TO.N,+3V3*%
X151558001Y-120846001D02*
X151858000Y-121146000D01*
D19*
X167005000Y-110744000D02*
X166497000Y-110236000D01*
D18*
X160165091Y-110290091D02*
X160600909Y-110290091D01*
X160600909Y-110290091D02*
X165299909Y-110290091D01*
D17*
X146858000Y-117146000D02*
X146858000Y-117546000D01*
X146858000Y-117546000D02*
X147758000Y-118446000D01*
D19*
X166497000Y-110236000D02*
X165354000Y-110236000D01*
D17*
X147758000Y-119646000D02*
X148158000Y-120046000D01*
D18*
X160600909Y-110290091D02*
X138230091Y-110290091D01*
X165299909Y-110290091D02*
X165354000Y-110236000D01*
D17*
X150758000Y-120046000D02*
X151558001Y-120846001D01*
D18*
X138230091Y-110290091D02*
X137940000Y-110000000D01*
D19*
X167005000Y-115443000D02*
X167005000Y-110744000D01*
D17*
X148158000Y-120046000D02*
X150758000Y-120046000D01*
X147758000Y-118446000D02*
X147758000Y-119646000D01*
D19*
%TO.N,Net-(C18-Pad1)*%
X162814000Y-111633000D02*
X162814000Y-114046000D01*
X162814000Y-114046000D02*
X163703000Y-114935000D01*
D17*
%TO.N,/SCK*%
X172202000Y-102740000D02*
X172202000Y-102870000D01*
%TO.N,/MISO*%
X167256000Y-102716000D02*
X167102000Y-102870000D01*
X167356000Y-102616000D02*
X167102000Y-102870000D01*
D19*
%TO.N,/#RESET*%
X168422000Y-110236000D02*
X163596000Y-105410000D01*
X169164000Y-110236000D02*
X168422000Y-110236000D01*
D17*
%TO.N,/DIO2*%
X156083000Y-105410000D02*
X160020000Y-109347000D01*
X155946000Y-105410000D02*
X156083000Y-105410000D01*
X160020000Y-109347000D02*
X161400920Y-109347000D01*
X161400920Y-109347000D02*
X161544000Y-109490080D01*
%TO.N,/DIO3*%
X146058000Y-117746000D02*
X146058000Y-114170310D01*
X147058000Y-118746000D02*
X146058000Y-117746000D01*
X147058000Y-120302481D02*
X147058000Y-118746000D01*
X147901519Y-121146000D02*
X147058000Y-120302481D01*
X146058000Y-114170310D02*
X146058000Y-113746046D01*
%TD*%
%TA.AperFunction,Conductor*%
%TO.N,GND*%
G36*
X140043553Y-118707772D02*
G01*
X140013736Y-118838407D01*
X140023749Y-118972028D01*
X140072703Y-119096760D01*
X140096021Y-119126000D01*
X138288618Y-119126000D01*
X138340447Y-119036228D01*
X138370264Y-118905593D01*
X138360251Y-118771972D01*
X138311297Y-118647240D01*
X138287979Y-118618000D01*
X140095382Y-118618000D01*
X140043553Y-118707772D01*
G37*
%TD.AperFunction*%
%TA.AperFunction,Conductor*%
G36*
X140043553Y-113627772D02*
G01*
X140013736Y-113758407D01*
X140023749Y-113892028D01*
X140072703Y-114016760D01*
X140096021Y-114046000D01*
X138288618Y-114046000D01*
X138340447Y-113956228D01*
X138370264Y-113825593D01*
X138360251Y-113691972D01*
X138311297Y-113567240D01*
X138287979Y-113538000D01*
X140095382Y-113538000D01*
X140043553Y-113627772D01*
G37*
%TD.AperFunction*%
%TA.AperFunction,Conductor*%
G36*
X145092960Y-103275004D02*
G01*
X145221002Y-103314500D01*
X145321312Y-103314500D01*
X145420499Y-103299550D01*
X145541224Y-103241412D01*
X145542000Y-103240691D01*
X145542000Y-105045194D01*
X145483040Y-105004996D01*
X145354998Y-104965500D01*
X145254688Y-104965500D01*
X145155501Y-104980450D01*
X145034776Y-105038588D01*
X145034000Y-105039308D01*
X145034000Y-103234805D01*
X145092960Y-103275004D01*
G37*
%TD.AperFunction*%
%TA.AperFunction,Conductor*%
G36*
X150172960Y-103275004D02*
G01*
X150301002Y-103314500D01*
X150401312Y-103314500D01*
X150500499Y-103299550D01*
X150621224Y-103241412D01*
X150622000Y-103240691D01*
X150622000Y-105045194D01*
X150563040Y-105004996D01*
X150434998Y-104965500D01*
X150334688Y-104965500D01*
X150235501Y-104980450D01*
X150114776Y-105038588D01*
X150114000Y-105039308D01*
X150114000Y-103234805D01*
X150172960Y-103275004D01*
G37*
%TD.AperFunction*%
%TA.AperFunction,Conductor*%
G36*
X184607621Y-99834502D02*
G01*
X184654114Y-99888158D01*
X184665500Y-99940500D01*
X184665500Y-128659500D01*
X184645498Y-128727621D01*
X184591842Y-128774114D01*
X184539500Y-128785500D01*
X135500500Y-128785500D01*
X135432379Y-128765498D01*
X135385886Y-128711842D01*
X135374500Y-128659500D01*
X135374500Y-119682597D01*
X136652000Y-119682597D01*
X136658505Y-119743093D01*
X136709555Y-119879964D01*
X136709555Y-119879965D01*
X136797095Y-119996904D01*
X136914034Y-120084444D01*
X137050906Y-120135494D01*
X137111402Y-120141999D01*
X137111415Y-120142000D01*
X137668000Y-120142000D01*
X137668000Y-119236805D01*
X137726960Y-119277004D01*
X137855002Y-119316500D01*
X137955312Y-119316500D01*
X138054499Y-119301550D01*
X138175224Y-119243412D01*
X138176000Y-119242691D01*
X138176000Y-120142000D01*
X138732585Y-120142000D01*
X138732597Y-120141999D01*
X138793093Y-120135494D01*
X138929964Y-120084444D01*
X138929965Y-120084444D01*
X139046904Y-119996904D01*
X139091132Y-119937823D01*
X139147968Y-119895276D01*
X139218783Y-119890212D01*
X139281096Y-119924237D01*
X139292868Y-119937823D01*
X139337095Y-119996904D01*
X139454034Y-120084444D01*
X139590906Y-120135494D01*
X139651402Y-120141999D01*
X139651415Y-120142000D01*
X140208000Y-120142000D01*
X140208000Y-119236805D01*
X140266960Y-119277004D01*
X140395002Y-119316500D01*
X140495312Y-119316500D01*
X140594499Y-119301550D01*
X140715224Y-119243412D01*
X140716000Y-119242691D01*
X140716000Y-120142000D01*
X141272585Y-120142000D01*
X141272597Y-120141999D01*
X141333093Y-120135494D01*
X141469964Y-120084444D01*
X141469965Y-120084444D01*
X141586904Y-119996904D01*
X141674444Y-119879965D01*
X141674444Y-119879964D01*
X141725494Y-119743093D01*
X141731999Y-119682597D01*
X141732000Y-119682585D01*
X141732000Y-119126000D01*
X140828618Y-119126000D01*
X140880447Y-119036228D01*
X140910264Y-118905593D01*
X140900251Y-118771972D01*
X140851297Y-118647240D01*
X140827979Y-118618000D01*
X141732000Y-118618000D01*
X141732000Y-118061414D01*
X141731999Y-118061402D01*
X141725494Y-118000906D01*
X141674444Y-117864035D01*
X141674444Y-117864034D01*
X141586904Y-117747095D01*
X141469965Y-117659555D01*
X141333093Y-117608505D01*
X141272597Y-117602000D01*
X140716000Y-117602000D01*
X140716000Y-118507194D01*
X140657040Y-118466996D01*
X140528998Y-118427500D01*
X140428688Y-118427500D01*
X140329501Y-118442450D01*
X140208776Y-118500588D01*
X140208000Y-118501308D01*
X140208000Y-117602000D01*
X139651402Y-117602000D01*
X139590906Y-117608505D01*
X139454035Y-117659555D01*
X139454034Y-117659555D01*
X139337097Y-117747094D01*
X139292868Y-117806177D01*
X139236031Y-117848723D01*
X139165216Y-117853787D01*
X139102904Y-117819762D01*
X139091132Y-117806177D01*
X139046902Y-117747094D01*
X138929965Y-117659555D01*
X138793093Y-117608505D01*
X138732597Y-117602000D01*
X138176000Y-117602000D01*
X138176000Y-118507194D01*
X138117040Y-118466996D01*
X137988998Y-118427500D01*
X137888688Y-118427500D01*
X137789501Y-118442450D01*
X137668776Y-118500588D01*
X137668000Y-118501308D01*
X137668000Y-117602000D01*
X137111402Y-117602000D01*
X137050906Y-117608505D01*
X136914035Y-117659555D01*
X136914034Y-117659555D01*
X136797095Y-117747095D01*
X136709555Y-117864034D01*
X136709555Y-117864035D01*
X136658505Y-118000906D01*
X136652000Y-118061402D01*
X136652000Y-118618000D01*
X137555382Y-118618000D01*
X137503553Y-118707772D01*
X137473736Y-118838407D01*
X137483749Y-118972028D01*
X137532703Y-119096760D01*
X137556021Y-119126000D01*
X136652000Y-119126000D01*
X136652000Y-119682597D01*
X135374500Y-119682597D01*
X135374500Y-117119063D01*
X136905500Y-117119063D01*
X136905501Y-117119073D01*
X136920265Y-117193300D01*
X136976516Y-117277484D01*
X137060697Y-117333733D01*
X137060699Y-117333734D01*
X137134933Y-117348500D01*
X138709066Y-117348499D01*
X138709069Y-117348498D01*
X138709073Y-117348498D01*
X138758326Y-117338701D01*
X138783301Y-117333734D01*
X138867484Y-117277484D01*
X138923734Y-117193301D01*
X138938500Y-117119067D01*
X138938500Y-117119063D01*
X139445500Y-117119063D01*
X139445501Y-117119073D01*
X139460265Y-117193300D01*
X139516516Y-117277484D01*
X139600697Y-117333733D01*
X139600699Y-117333734D01*
X139674933Y-117348500D01*
X141249066Y-117348499D01*
X141249069Y-117348498D01*
X141249073Y-117348498D01*
X141298326Y-117338701D01*
X141323301Y-117333734D01*
X141407484Y-117277484D01*
X141463734Y-117193301D01*
X141478500Y-117119067D01*
X141478499Y-115544934D01*
X141478498Y-115544930D01*
X141478498Y-115544926D01*
X141463734Y-115470699D01*
X141445225Y-115442999D01*
X141407484Y-115386516D01*
X141407483Y-115386515D01*
X141323302Y-115330266D01*
X141249067Y-115315500D01*
X139674936Y-115315500D01*
X139674926Y-115315501D01*
X139600699Y-115330265D01*
X139516515Y-115386516D01*
X139460266Y-115470697D01*
X139445500Y-115544930D01*
X139445500Y-117119063D01*
X138938500Y-117119063D01*
X138938499Y-115544934D01*
X138938498Y-115544930D01*
X138938498Y-115544926D01*
X138923734Y-115470699D01*
X138905225Y-115442999D01*
X138867484Y-115386516D01*
X138867483Y-115386515D01*
X138783302Y-115330266D01*
X138709067Y-115315500D01*
X137134936Y-115315500D01*
X137134926Y-115315501D01*
X137060699Y-115330265D01*
X136976515Y-115386516D01*
X136920266Y-115470697D01*
X136905500Y-115544930D01*
X136905500Y-117119063D01*
X135374500Y-117119063D01*
X135374500Y-114602597D01*
X136652000Y-114602597D01*
X136658505Y-114663093D01*
X136709555Y-114799964D01*
X136709555Y-114799965D01*
X136797095Y-114916904D01*
X136914034Y-115004444D01*
X137050906Y-115055494D01*
X137111402Y-115061999D01*
X137111415Y-115062000D01*
X137668000Y-115062000D01*
X137668000Y-114156805D01*
X137726960Y-114197004D01*
X137855002Y-114236500D01*
X137955312Y-114236500D01*
X138054499Y-114221550D01*
X138175224Y-114163412D01*
X138176000Y-114162691D01*
X138176000Y-115062000D01*
X138732585Y-115062000D01*
X138732597Y-115061999D01*
X138793093Y-115055494D01*
X138929964Y-115004444D01*
X138929965Y-115004444D01*
X139046904Y-114916904D01*
X139091132Y-114857823D01*
X139147968Y-114815276D01*
X139218783Y-114810212D01*
X139281096Y-114844237D01*
X139292868Y-114857823D01*
X139337095Y-114916904D01*
X139454034Y-115004444D01*
X139590906Y-115055494D01*
X139651402Y-115061999D01*
X139651415Y-115062000D01*
X140208000Y-115062000D01*
X140208000Y-114156805D01*
X140266960Y-114197004D01*
X140395002Y-114236500D01*
X140495312Y-114236500D01*
X140594499Y-114221550D01*
X140715224Y-114163412D01*
X140716000Y-114162691D01*
X140716000Y-115062000D01*
X141272585Y-115062000D01*
X141272597Y-115061999D01*
X141333093Y-115055494D01*
X141469964Y-115004444D01*
X141469965Y-115004444D01*
X141586904Y-114916904D01*
X141674444Y-114799965D01*
X141674444Y-114799964D01*
X141725494Y-114663093D01*
X141731999Y-114602597D01*
X141732000Y-114602585D01*
X141732000Y-114046000D01*
X140828618Y-114046000D01*
X140880447Y-113956228D01*
X140910264Y-113825593D01*
X140904303Y-113746046D01*
X145498715Y-113746046D01*
X145517771Y-113890798D01*
X145573644Y-114025687D01*
X145573649Y-114025695D01*
X145652462Y-114128405D01*
X145678063Y-114194625D01*
X145678500Y-114205109D01*
X145678500Y-117693573D01*
X145675818Y-117719430D01*
X145673580Y-117730099D01*
X145675905Y-117748746D01*
X145678016Y-117765683D01*
X145678500Y-117773473D01*
X145678500Y-117777443D01*
X145680907Y-117791870D01*
X145682170Y-117799440D01*
X145682544Y-117802013D01*
X145689247Y-117855781D01*
X145691517Y-117863406D01*
X145694099Y-117870927D01*
X145719875Y-117918556D01*
X145721065Y-117920869D01*
X145737108Y-117953683D01*
X145744874Y-117969568D01*
X145744875Y-117969569D01*
X145749493Y-117976038D01*
X145754376Y-117982312D01*
X145794242Y-118019011D01*
X145796096Y-118020790D01*
X146237204Y-118461898D01*
X146641595Y-118866289D01*
X146675621Y-118928601D01*
X146678500Y-118955384D01*
X146678500Y-120250054D01*
X146675818Y-120275911D01*
X146673580Y-120286580D01*
X146675905Y-120305227D01*
X146678016Y-120322164D01*
X146678500Y-120329954D01*
X146678500Y-120333924D01*
X146680907Y-120348351D01*
X146682170Y-120355921D01*
X146682544Y-120358494D01*
X146689247Y-120412262D01*
X146691517Y-120419887D01*
X146694099Y-120427408D01*
X146719875Y-120475037D01*
X146721065Y-120477350D01*
X146737108Y-120510164D01*
X146744874Y-120526049D01*
X146744875Y-120526050D01*
X146749493Y-120532519D01*
X146754376Y-120538793D01*
X146794242Y-120575492D01*
X146796096Y-120577271D01*
X147085181Y-120866356D01*
X147308564Y-121089739D01*
X147342590Y-121152051D01*
X147344391Y-121162387D01*
X147361290Y-121290752D01*
X147417163Y-121425641D01*
X147417168Y-121425649D01*
X147506044Y-121541474D01*
X147621869Y-121630350D01*
X147621876Y-121630355D01*
X147756765Y-121686228D01*
X147901519Y-121705285D01*
X148046273Y-121686228D01*
X148181162Y-121630355D01*
X148296993Y-121541474D01*
X148385874Y-121425643D01*
X148441747Y-121290754D01*
X148460804Y-121146000D01*
X148441747Y-121001246D01*
X148385874Y-120866358D01*
X148296993Y-120750526D01*
X148296991Y-120750524D01*
X148296990Y-120750523D01*
X148181166Y-120661647D01*
X148179386Y-120660620D01*
X148178184Y-120659359D01*
X148174610Y-120656617D01*
X148175037Y-120656059D01*
X148130393Y-120609238D01*
X148116955Y-120539525D01*
X148143341Y-120473613D01*
X148201173Y-120432430D01*
X148242385Y-120425500D01*
X150548616Y-120425500D01*
X150616737Y-120445502D01*
X150637711Y-120462405D01*
X151265045Y-121089739D01*
X151299071Y-121152051D01*
X151300872Y-121162387D01*
X151317771Y-121290752D01*
X151373644Y-121425641D01*
X151373649Y-121425649D01*
X151462525Y-121541474D01*
X151578350Y-121630350D01*
X151578357Y-121630355D01*
X151713246Y-121686228D01*
X151858000Y-121705285D01*
X152002754Y-121686228D01*
X152137643Y-121630355D01*
X152253474Y-121541474D01*
X152342355Y-121425643D01*
X152398228Y-121290754D01*
X152417285Y-121146000D01*
X152398228Y-121001246D01*
X152342355Y-120866358D01*
X152253474Y-120750526D01*
X152253472Y-120750524D01*
X152253471Y-120750523D01*
X152137649Y-120661649D01*
X152137641Y-120661644D01*
X152002752Y-120605771D01*
X151874387Y-120588872D01*
X151809460Y-120560149D01*
X151801739Y-120553045D01*
X151063419Y-119814725D01*
X151047029Y-119794542D01*
X151041068Y-119785418D01*
X151041067Y-119785417D01*
X151012770Y-119763393D01*
X151006923Y-119758229D01*
X151004113Y-119755419D01*
X151004112Y-119755418D01*
X151004111Y-119755417D01*
X151004106Y-119755413D01*
X150985974Y-119742467D01*
X150983889Y-119740912D01*
X150941120Y-119707625D01*
X150934140Y-119703848D01*
X150926977Y-119700346D01*
X150875063Y-119684890D01*
X150872584Y-119684096D01*
X150821326Y-119666499D01*
X150813504Y-119665194D01*
X150805589Y-119664207D01*
X150761056Y-119666049D01*
X150751475Y-119666446D01*
X150748881Y-119666500D01*
X148367384Y-119666500D01*
X148299263Y-119646498D01*
X148278289Y-119629595D01*
X148174405Y-119525711D01*
X148140379Y-119463399D01*
X148137500Y-119436616D01*
X148137500Y-118498421D01*
X148140181Y-118472566D01*
X148142418Y-118461900D01*
X148137983Y-118426322D01*
X148137500Y-118418532D01*
X148137500Y-118414562D01*
X148137500Y-118414557D01*
X148133825Y-118392542D01*
X148133453Y-118389984D01*
X148126752Y-118336217D01*
X148126750Y-118336213D01*
X148124485Y-118328605D01*
X148121900Y-118321076D01*
X148121900Y-118321073D01*
X148121898Y-118321069D01*
X148096114Y-118273423D01*
X148094922Y-118271108D01*
X148071126Y-118222432D01*
X148071124Y-118222430D01*
X148071124Y-118222429D01*
X148066521Y-118215982D01*
X148061621Y-118209686D01*
X148021756Y-118172987D01*
X148019901Y-118171207D01*
X147381964Y-117533269D01*
X147347938Y-117470958D01*
X147353003Y-117400143D01*
X147354635Y-117395994D01*
X147398228Y-117290754D01*
X147417285Y-117146000D01*
X147398228Y-117001246D01*
X147342355Y-116866358D01*
X147322130Y-116840000D01*
X174972054Y-116840000D01*
X174991013Y-117105092D01*
X175047507Y-117364793D01*
X175140387Y-117613814D01*
X175267758Y-117847076D01*
X175353703Y-117961885D01*
X175353703Y-117961886D01*
X176081606Y-117233982D01*
X176127116Y-117319822D01*
X176246809Y-117460735D01*
X176393995Y-117572623D01*
X176440069Y-117593939D01*
X175712912Y-118321095D01*
X175712913Y-118321096D01*
X175827719Y-118407039D01*
X176060985Y-118534412D01*
X176310006Y-118627292D01*
X176569707Y-118683786D01*
X176834799Y-118702745D01*
X177099892Y-118683786D01*
X177359593Y-118627292D01*
X177608614Y-118534412D01*
X177841876Y-118407042D01*
X177956685Y-118321095D01*
X177956686Y-118321095D01*
X177229877Y-117594286D01*
X177352231Y-117520669D01*
X177486458Y-117393523D01*
X177590213Y-117240495D01*
X177591435Y-117237426D01*
X178315895Y-117961886D01*
X178315895Y-117961885D01*
X178401842Y-117847076D01*
X178529212Y-117613814D01*
X178622092Y-117364793D01*
X178678586Y-117105092D01*
X178697545Y-116839999D01*
X178678586Y-116574907D01*
X178622092Y-116315206D01*
X178529212Y-116066185D01*
X178401839Y-115832919D01*
X178281448Y-115672096D01*
X178256637Y-115605576D01*
X178271728Y-115536202D01*
X178321930Y-115486000D01*
X178391304Y-115470908D01*
X178457825Y-115495719D01*
X178464143Y-115500774D01*
X178487743Y-115520930D01*
X178689659Y-115644664D01*
X178908446Y-115735289D01*
X179138717Y-115790572D01*
X179374800Y-115809152D01*
X179610883Y-115790572D01*
X179841154Y-115735289D01*
X180059941Y-115644664D01*
X180261857Y-115520930D01*
X180285454Y-115500776D01*
X180350239Y-115471745D01*
X180420439Y-115482348D01*
X180473763Y-115529222D01*
X180493280Y-115597483D01*
X180472794Y-115665460D01*
X180468151Y-115672096D01*
X180347760Y-115832919D01*
X180220387Y-116066185D01*
X180127507Y-116315206D01*
X180071013Y-116574907D01*
X180052054Y-116840000D01*
X180071013Y-117105092D01*
X180127507Y-117364793D01*
X180220387Y-117613814D01*
X180347758Y-117847076D01*
X180433703Y-117961885D01*
X180433703Y-117961886D01*
X181161606Y-117233982D01*
X181207116Y-117319822D01*
X181326809Y-117460735D01*
X181473995Y-117572623D01*
X181520069Y-117593939D01*
X180792912Y-118321095D01*
X180792913Y-118321096D01*
X180907719Y-118407039D01*
X181140985Y-118534412D01*
X181390006Y-118627292D01*
X181649707Y-118683786D01*
X181914799Y-118702745D01*
X182179892Y-118683786D01*
X182439593Y-118627292D01*
X182688614Y-118534412D01*
X182921876Y-118407042D01*
X183036685Y-118321095D01*
X183036686Y-118321095D01*
X182309877Y-117594286D01*
X182432231Y-117520669D01*
X182566458Y-117393523D01*
X182670213Y-117240495D01*
X182671435Y-117237426D01*
X183395895Y-117961886D01*
X183395895Y-117961885D01*
X183481842Y-117847076D01*
X183609212Y-117613814D01*
X183702092Y-117364793D01*
X183758586Y-117105092D01*
X183777545Y-116839999D01*
X183758586Y-116574907D01*
X183702092Y-116315206D01*
X183609212Y-116066185D01*
X183481839Y-115832919D01*
X183395896Y-115718113D01*
X183395895Y-115718112D01*
X182667992Y-116446015D01*
X182622484Y-116360178D01*
X182502791Y-116219265D01*
X182355605Y-116107377D01*
X182309529Y-116086059D01*
X183036686Y-115358903D01*
X182921876Y-115272958D01*
X182688614Y-115145587D01*
X182439593Y-115052707D01*
X182179892Y-114996213D01*
X181914800Y-114977254D01*
X181649707Y-114996213D01*
X181390006Y-115052707D01*
X181140985Y-115145587D01*
X180907719Y-115272960D01*
X180746896Y-115393351D01*
X180680376Y-115418162D01*
X180611002Y-115403071D01*
X180560799Y-115352868D01*
X180545708Y-115283494D01*
X180570519Y-115216974D01*
X180575552Y-115210682D01*
X180595730Y-115187057D01*
X180719464Y-114985141D01*
X180810089Y-114766354D01*
X180865372Y-114536083D01*
X180883952Y-114300000D01*
X180865372Y-114063917D01*
X180810089Y-113833646D01*
X180719464Y-113614859D01*
X180595730Y-113412943D01*
X180575576Y-113389346D01*
X180546545Y-113324558D01*
X180557149Y-113254358D01*
X180604024Y-113201035D01*
X180672285Y-113181519D01*
X180740262Y-113202006D01*
X180746896Y-113206648D01*
X180907719Y-113327039D01*
X181140985Y-113454412D01*
X181390006Y-113547292D01*
X181649707Y-113603786D01*
X181914799Y-113622745D01*
X182179892Y-113603786D01*
X182439593Y-113547292D01*
X182688614Y-113454412D01*
X182921876Y-113327042D01*
X183036685Y-113241095D01*
X183036686Y-113241095D01*
X182309877Y-112514286D01*
X182432231Y-112440669D01*
X182566458Y-112313523D01*
X182670213Y-112160495D01*
X182671435Y-112157426D01*
X183395895Y-112881886D01*
X183395895Y-112881885D01*
X183481842Y-112767076D01*
X183609212Y-112533814D01*
X183702092Y-112284793D01*
X183758586Y-112025092D01*
X183777545Y-111759999D01*
X183758586Y-111494907D01*
X183702092Y-111235206D01*
X183609212Y-110986185D01*
X183481839Y-110752919D01*
X183395896Y-110638113D01*
X183395895Y-110638112D01*
X182667992Y-111366015D01*
X182622484Y-111280178D01*
X182502791Y-111139265D01*
X182355605Y-111027377D01*
X182309529Y-111006060D01*
X183036686Y-110278903D01*
X182921876Y-110192958D01*
X182688614Y-110065587D01*
X182439593Y-109972707D01*
X182179892Y-109916213D01*
X181914800Y-109897254D01*
X181649707Y-109916213D01*
X181390006Y-109972707D01*
X181140985Y-110065587D01*
X180907724Y-110192957D01*
X180792913Y-110278902D01*
X180792912Y-110278903D01*
X181519722Y-111005713D01*
X181397369Y-111079331D01*
X181263142Y-111206477D01*
X181159387Y-111359505D01*
X181158164Y-111362573D01*
X180433703Y-110638112D01*
X180433702Y-110638113D01*
X180347757Y-110752924D01*
X180220387Y-110986185D01*
X180127507Y-111235206D01*
X180071013Y-111494907D01*
X180052054Y-111760000D01*
X180071013Y-112025092D01*
X180127507Y-112284793D01*
X180220387Y-112533814D01*
X180347760Y-112767080D01*
X180468151Y-112927903D01*
X180492962Y-112994423D01*
X180477871Y-113063797D01*
X180427669Y-113113999D01*
X180358295Y-113129091D01*
X180291774Y-113104280D01*
X180285471Y-113099238D01*
X180261857Y-113079070D01*
X180059941Y-112955336D01*
X180009723Y-112934535D01*
X179841154Y-112864711D01*
X179841154Y-112864710D01*
X179610883Y-112809428D01*
X179374800Y-112790848D01*
X179138717Y-112809428D01*
X178908445Y-112864711D01*
X178689660Y-112955335D01*
X178487741Y-113079071D01*
X178487740Y-113079072D01*
X178464145Y-113099224D01*
X178399355Y-113128255D01*
X178329155Y-113117648D01*
X178275834Y-113070773D01*
X178256319Y-113002511D01*
X178276808Y-112934535D01*
X178281448Y-112927902D01*
X178401842Y-112767076D01*
X178529212Y-112533814D01*
X178622092Y-112284793D01*
X178678586Y-112025092D01*
X178697545Y-111759999D01*
X178678586Y-111494907D01*
X178622092Y-111235206D01*
X178529212Y-110986185D01*
X178401839Y-110752919D01*
X178315896Y-110638113D01*
X178315895Y-110638113D01*
X177587992Y-111366016D01*
X177542484Y-111280178D01*
X177422791Y-111139265D01*
X177275605Y-111027377D01*
X177229529Y-111006060D01*
X177956686Y-110278903D01*
X177841876Y-110192958D01*
X177608614Y-110065587D01*
X177359593Y-109972707D01*
X177099892Y-109916213D01*
X176834800Y-109897254D01*
X176569707Y-109916213D01*
X176310006Y-109972707D01*
X176060985Y-110065587D01*
X175827724Y-110192957D01*
X175712913Y-110278902D01*
X175712912Y-110278903D01*
X176439722Y-111005713D01*
X176317369Y-111079331D01*
X176183142Y-111206477D01*
X176079387Y-111359505D01*
X176078164Y-111362573D01*
X175353703Y-110638112D01*
X175353702Y-110638113D01*
X175267757Y-110752924D01*
X175140387Y-110986185D01*
X175047507Y-111235206D01*
X174991013Y-111494907D01*
X174972054Y-111760000D01*
X174991013Y-112025092D01*
X175047507Y-112284793D01*
X175140387Y-112533814D01*
X175267758Y-112767076D01*
X175353703Y-112881885D01*
X175353703Y-112881886D01*
X176081606Y-112153982D01*
X176127116Y-112239822D01*
X176246809Y-112380735D01*
X176393995Y-112492623D01*
X176440069Y-112513939D01*
X175712913Y-113241095D01*
X175712913Y-113241096D01*
X175827719Y-113327039D01*
X176060985Y-113454412D01*
X176310006Y-113547292D01*
X176569707Y-113603786D01*
X176834799Y-113622745D01*
X177099892Y-113603786D01*
X177359593Y-113547292D01*
X177608614Y-113454412D01*
X177841876Y-113327042D01*
X178002702Y-113206648D01*
X178069222Y-113181837D01*
X178138597Y-113196928D01*
X178188799Y-113247130D01*
X178203891Y-113316504D01*
X178179081Y-113383024D01*
X178174024Y-113389345D01*
X178153872Y-113412940D01*
X178153871Y-113412941D01*
X178030135Y-113614860D01*
X177939511Y-113833645D01*
X177884228Y-114063917D01*
X177870646Y-114236500D01*
X177865648Y-114300000D01*
X177884228Y-114536083D01*
X177939511Y-114766354D01*
X178030136Y-114985141D01*
X178153870Y-115187057D01*
X178174024Y-115210654D01*
X178203054Y-115275441D01*
X178192449Y-115345641D01*
X178145575Y-115398964D01*
X178077313Y-115418480D01*
X178009337Y-115397992D01*
X178002703Y-115393351D01*
X177841880Y-115272960D01*
X177608614Y-115145587D01*
X177359593Y-115052707D01*
X177099892Y-114996213D01*
X176834800Y-114977254D01*
X176569707Y-114996213D01*
X176310006Y-115052707D01*
X176060985Y-115145587D01*
X175827724Y-115272957D01*
X175712913Y-115358902D01*
X175712912Y-115358903D01*
X176439722Y-116085713D01*
X176317369Y-116159331D01*
X176183142Y-116286477D01*
X176079387Y-116439505D01*
X176078164Y-116442572D01*
X175353703Y-115718112D01*
X175353702Y-115718113D01*
X175267757Y-115832924D01*
X175140387Y-116066185D01*
X175047507Y-116315206D01*
X174991013Y-116574907D01*
X174972054Y-116840000D01*
X147322130Y-116840000D01*
X147253474Y-116750526D01*
X147253472Y-116750524D01*
X147253471Y-116750523D01*
X147137649Y-116661649D01*
X147137641Y-116661644D01*
X147002752Y-116605771D01*
X146858000Y-116586715D01*
X146713247Y-116605771D01*
X146667610Y-116624675D01*
X146611716Y-116647827D01*
X146541129Y-116655416D01*
X146477642Y-116623637D01*
X146441414Y-116562579D01*
X146437500Y-116531418D01*
X146437500Y-114205109D01*
X146457502Y-114136988D01*
X146463538Y-114128405D01*
X146513021Y-114063917D01*
X146542355Y-114025689D01*
X146598228Y-113890800D01*
X146617285Y-113746046D01*
X146598228Y-113601292D01*
X146542355Y-113466404D01*
X146453474Y-113350572D01*
X146453472Y-113350570D01*
X146453471Y-113350569D01*
X146337649Y-113261695D01*
X146337641Y-113261690D01*
X146202752Y-113205817D01*
X146058000Y-113186761D01*
X145913247Y-113205817D01*
X145847942Y-113232868D01*
X145778358Y-113261691D01*
X145778357Y-113261692D01*
X145778356Y-113261692D01*
X145662526Y-113350572D01*
X145573646Y-113466402D01*
X145573645Y-113466404D01*
X145554871Y-113511728D01*
X145517771Y-113601293D01*
X145498715Y-113746045D01*
X145498715Y-113746046D01*
X140904303Y-113746046D01*
X140900251Y-113691972D01*
X140851297Y-113567240D01*
X140827979Y-113538000D01*
X141732000Y-113538000D01*
X141732000Y-112981414D01*
X141731999Y-112981402D01*
X141725494Y-112920906D01*
X141674444Y-112784035D01*
X141674444Y-112784034D01*
X141586904Y-112667095D01*
X141469965Y-112579555D01*
X141333093Y-112528505D01*
X141272597Y-112522000D01*
X140716000Y-112522000D01*
X140716000Y-113427194D01*
X140657040Y-113386996D01*
X140528998Y-113347500D01*
X140428688Y-113347500D01*
X140329501Y-113362450D01*
X140208776Y-113420588D01*
X140208000Y-113421308D01*
X140208000Y-112522000D01*
X139651402Y-112522000D01*
X139590906Y-112528505D01*
X139454035Y-112579555D01*
X139454034Y-112579555D01*
X139337097Y-112667094D01*
X139292868Y-112726177D01*
X139236031Y-112768723D01*
X139165216Y-112773787D01*
X139102904Y-112739762D01*
X139091132Y-112726177D01*
X139046902Y-112667094D01*
X138929965Y-112579555D01*
X138793093Y-112528505D01*
X138732597Y-112522000D01*
X138176000Y-112522000D01*
X138176000Y-113427194D01*
X138117040Y-113386996D01*
X137988998Y-113347500D01*
X137888688Y-113347500D01*
X137789501Y-113362450D01*
X137668776Y-113420588D01*
X137668000Y-113421308D01*
X137668000Y-112522000D01*
X137111402Y-112522000D01*
X137050906Y-112528505D01*
X136914035Y-112579555D01*
X136914034Y-112579555D01*
X136797095Y-112667095D01*
X136709555Y-112784034D01*
X136709555Y-112784035D01*
X136658505Y-112920906D01*
X136652000Y-112981402D01*
X136652000Y-113538000D01*
X137555382Y-113538000D01*
X137503553Y-113627772D01*
X137473736Y-113758407D01*
X137483749Y-113892028D01*
X137532703Y-114016760D01*
X137556021Y-114046000D01*
X136652000Y-114046000D01*
X136652000Y-114602597D01*
X135374500Y-114602597D01*
X135374500Y-111633000D01*
X162254715Y-111633000D01*
X162273771Y-111777752D01*
X162285592Y-111806289D01*
X162329645Y-111912643D01*
X162383462Y-111982778D01*
X162409063Y-112048997D01*
X162409500Y-112059482D01*
X162409500Y-114110068D01*
X162416395Y-114131290D01*
X162421009Y-114150508D01*
X162424501Y-114172552D01*
X162424501Y-114172554D01*
X162434630Y-114192432D01*
X162442195Y-114210697D01*
X162449092Y-114231924D01*
X162449093Y-114231926D01*
X162462213Y-114249984D01*
X162472541Y-114266838D01*
X162482671Y-114286718D01*
X162482674Y-114286723D01*
X162503786Y-114307835D01*
X162503801Y-114307851D01*
X162505464Y-114309514D01*
X162505465Y-114309515D01*
X163115406Y-114919456D01*
X163149430Y-114981767D01*
X163151232Y-114992103D01*
X163162771Y-115079752D01*
X163218644Y-115214641D01*
X163218649Y-115214649D01*
X163307525Y-115330474D01*
X163423350Y-115419350D01*
X163423357Y-115419355D01*
X163558246Y-115475228D01*
X163630622Y-115484756D01*
X163702999Y-115494285D01*
X163702999Y-115494284D01*
X163703000Y-115494285D01*
X163847754Y-115475228D01*
X163982643Y-115419355D01*
X164098474Y-115330474D01*
X164187355Y-115214643D01*
X164243228Y-115079754D01*
X164262285Y-114935000D01*
X164243228Y-114790246D01*
X164187355Y-114655358D01*
X164098474Y-114539526D01*
X164098472Y-114539524D01*
X164098471Y-114539523D01*
X163982649Y-114450649D01*
X163982641Y-114450644D01*
X163847752Y-114394771D01*
X163760104Y-114383232D01*
X163695177Y-114354509D01*
X163687455Y-114347405D01*
X163255404Y-113915353D01*
X163221379Y-113853041D01*
X163218500Y-113826258D01*
X163218500Y-112059482D01*
X163238502Y-111991361D01*
X163244529Y-111982788D01*
X163298355Y-111912643D01*
X163354228Y-111777754D01*
X163373285Y-111633000D01*
X163354228Y-111488246D01*
X163298355Y-111353358D01*
X163209474Y-111237526D01*
X163209472Y-111237524D01*
X163209471Y-111237523D01*
X163093649Y-111148649D01*
X163093641Y-111148644D01*
X162958752Y-111092771D01*
X162814000Y-111073715D01*
X162669247Y-111092771D01*
X162601802Y-111120708D01*
X162534358Y-111148645D01*
X162534357Y-111148646D01*
X162534356Y-111148646D01*
X162418526Y-111237526D01*
X162329646Y-111353356D01*
X162329645Y-111353358D01*
X162327099Y-111359505D01*
X162273771Y-111488247D01*
X162254715Y-111632999D01*
X162254715Y-111633000D01*
X135374500Y-111633000D01*
X135374500Y-110000000D01*
X137380715Y-110000000D01*
X137399771Y-110144752D01*
X137455644Y-110279641D01*
X137455649Y-110279649D01*
X137544525Y-110395474D01*
X137660350Y-110484350D01*
X137660357Y-110484355D01*
X137723459Y-110510492D01*
X137764335Y-110537806D01*
X137825423Y-110598894D01*
X137842323Y-110619864D01*
X137844895Y-110623866D01*
X137853675Y-110631474D01*
X137884393Y-110658091D01*
X137887673Y-110661144D01*
X137898870Y-110672341D01*
X137911541Y-110681826D01*
X137915017Y-110684627D01*
X137954533Y-110718868D01*
X137958852Y-110720840D01*
X137982016Y-110734583D01*
X137985824Y-110737434D01*
X138010987Y-110746819D01*
X138034794Y-110755699D01*
X138038951Y-110757421D01*
X138080134Y-110776228D01*
X138086495Y-110779133D01*
X138091192Y-110779808D01*
X138117300Y-110786471D01*
X138121749Y-110788131D01*
X138173883Y-110791859D01*
X138178344Y-110792338D01*
X138187917Y-110793715D01*
X138194006Y-110794591D01*
X138194008Y-110794591D01*
X138209814Y-110794591D01*
X138214310Y-110794752D01*
X138232607Y-110796060D01*
X138266451Y-110798481D01*
X138271093Y-110797471D01*
X138297878Y-110794591D01*
X160129008Y-110794591D01*
X160564826Y-110794591D01*
X165232125Y-110794591D01*
X165258905Y-110797469D01*
X165263549Y-110798480D01*
X165298012Y-110796015D01*
X165315681Y-110794752D01*
X165320177Y-110794591D01*
X165344595Y-110794591D01*
X165352830Y-110795131D01*
X165353999Y-110795285D01*
X165353999Y-110795284D01*
X165354000Y-110795285D01*
X165498754Y-110776228D01*
X165633643Y-110720355D01*
X165703778Y-110666537D01*
X165769997Y-110640937D01*
X165780482Y-110640500D01*
X166277259Y-110640500D01*
X166345380Y-110660502D01*
X166366354Y-110677404D01*
X166563595Y-110874644D01*
X166597620Y-110936956D01*
X166600500Y-110963740D01*
X166600500Y-115016516D01*
X166580498Y-115084637D01*
X166574463Y-115093219D01*
X166520649Y-115163351D01*
X166520646Y-115163356D01*
X166520645Y-115163358D01*
X166501056Y-115210650D01*
X166464771Y-115298247D01*
X166445715Y-115442999D01*
X166445715Y-115443000D01*
X166464771Y-115587752D01*
X166520644Y-115722641D01*
X166520649Y-115722649D01*
X166609525Y-115838474D01*
X166725350Y-115927350D01*
X166725357Y-115927355D01*
X166860246Y-115983228D01*
X166911685Y-115990000D01*
X167004999Y-116002285D01*
X167004999Y-116002284D01*
X167005000Y-116002285D01*
X167149754Y-115983228D01*
X167284643Y-115927355D01*
X167400474Y-115838474D01*
X167489355Y-115722643D01*
X167545228Y-115587754D01*
X167564285Y-115443000D01*
X167561171Y-115419350D01*
X167547500Y-115315501D01*
X167545228Y-115298246D01*
X167489355Y-115163358D01*
X167489350Y-115163351D01*
X167435537Y-115093219D01*
X167409937Y-115026998D01*
X167409500Y-115016516D01*
X167409500Y-110709805D01*
X167409499Y-110709776D01*
X167409499Y-110679933D01*
X167402604Y-110658715D01*
X167397989Y-110639496D01*
X167394498Y-110617445D01*
X167384364Y-110597556D01*
X167376801Y-110579299D01*
X167369904Y-110558071D01*
X167356784Y-110540013D01*
X167346456Y-110523158D01*
X167336325Y-110503276D01*
X167309772Y-110476723D01*
X167245723Y-110412674D01*
X166760515Y-109927465D01*
X166760514Y-109927464D01*
X166758851Y-109925801D01*
X166758835Y-109925786D01*
X166737723Y-109904674D01*
X166737720Y-109904672D01*
X166737718Y-109904671D01*
X166717838Y-109894541D01*
X166700984Y-109884213D01*
X166682926Y-109871093D01*
X166682924Y-109871092D01*
X166661697Y-109864195D01*
X166643432Y-109856630D01*
X166623553Y-109846501D01*
X166601508Y-109843009D01*
X166582290Y-109838395D01*
X166561068Y-109831500D01*
X166561066Y-109831500D01*
X166528834Y-109831500D01*
X165780482Y-109831500D01*
X165712361Y-109811498D01*
X165703788Y-109805470D01*
X165633643Y-109751645D01*
X165578472Y-109728792D01*
X165498752Y-109695771D01*
X165354000Y-109676715D01*
X165209247Y-109695771D01*
X165149893Y-109720357D01*
X165074358Y-109751645D01*
X165074356Y-109751646D01*
X165074357Y-109751646D01*
X165074350Y-109751650D01*
X165064053Y-109759552D01*
X164997834Y-109785154D01*
X164987348Y-109785591D01*
X162208039Y-109785591D01*
X162139918Y-109765589D01*
X162093425Y-109711933D01*
X162083524Y-109643071D01*
X162083150Y-109643022D01*
X162083325Y-109641689D01*
X162083321Y-109641659D01*
X162083344Y-109641544D01*
X162084227Y-109634836D01*
X162084228Y-109634834D01*
X162103285Y-109490080D01*
X162084228Y-109345326D01*
X162028355Y-109210438D01*
X161939474Y-109094606D01*
X161939472Y-109094604D01*
X161939471Y-109094603D01*
X161823649Y-109005729D01*
X161823641Y-109005724D01*
X161688752Y-108949851D01*
X161544000Y-108930795D01*
X161399245Y-108949852D01*
X161379794Y-108957909D01*
X161331577Y-108967500D01*
X160229384Y-108967500D01*
X160161263Y-108947498D01*
X160140289Y-108930595D01*
X157851288Y-106641594D01*
X157817262Y-106579282D01*
X157822327Y-106508467D01*
X157864874Y-106451631D01*
X157931394Y-106426820D01*
X157940359Y-106426499D01*
X159283066Y-106426499D01*
X159283069Y-106426498D01*
X159283073Y-106426498D01*
X159332326Y-106416701D01*
X159357301Y-106411734D01*
X159441484Y-106355484D01*
X159497734Y-106271301D01*
X159512500Y-106197067D01*
X159512500Y-106197063D01*
X160029500Y-106197063D01*
X160029501Y-106197073D01*
X160044265Y-106271300D01*
X160100516Y-106355484D01*
X160184697Y-106411733D01*
X160184699Y-106411734D01*
X160258933Y-106426500D01*
X161833066Y-106426499D01*
X161833069Y-106426498D01*
X161833073Y-106426498D01*
X161882326Y-106416701D01*
X161907301Y-106411734D01*
X161991484Y-106355484D01*
X162047734Y-106271301D01*
X162062500Y-106197067D01*
X162062500Y-106197063D01*
X162579500Y-106197063D01*
X162579501Y-106197073D01*
X162594265Y-106271300D01*
X162650516Y-106355484D01*
X162734697Y-106411733D01*
X162734699Y-106411734D01*
X162808933Y-106426500D01*
X163988259Y-106426499D01*
X164056380Y-106446501D01*
X164077354Y-106463404D01*
X168090674Y-110476723D01*
X168181277Y-110567326D01*
X168201160Y-110577457D01*
X168218014Y-110587785D01*
X168236071Y-110600905D01*
X168257293Y-110607799D01*
X168275560Y-110615365D01*
X168295445Y-110625498D01*
X168317488Y-110628989D01*
X168336704Y-110633602D01*
X168357934Y-110640500D01*
X168390166Y-110640500D01*
X168737518Y-110640500D01*
X168805639Y-110660502D01*
X168814211Y-110666529D01*
X168884357Y-110720355D01*
X169019246Y-110776228D01*
X169164000Y-110795285D01*
X169308754Y-110776228D01*
X169443643Y-110720355D01*
X169559474Y-110631474D01*
X169648355Y-110515643D01*
X169704228Y-110380754D01*
X169723285Y-110236000D01*
X169717618Y-110192958D01*
X169704228Y-110091247D01*
X169704228Y-110091246D01*
X169648355Y-109956358D01*
X169559474Y-109840526D01*
X169559472Y-109840524D01*
X169559471Y-109840523D01*
X169443649Y-109751649D01*
X169443641Y-109751644D01*
X169308752Y-109695771D01*
X169164000Y-109676715D01*
X169019247Y-109695771D01*
X168959893Y-109720357D01*
X168884358Y-109751645D01*
X168884356Y-109751646D01*
X168884357Y-109751646D01*
X168884351Y-109751649D01*
X168814222Y-109805462D01*
X168748002Y-109831063D01*
X168737518Y-109831500D01*
X168641739Y-109831500D01*
X168573618Y-109811498D01*
X168552644Y-109794595D01*
X164955113Y-106197063D01*
X166085500Y-106197063D01*
X166085501Y-106197073D01*
X166100265Y-106271300D01*
X166156516Y-106355484D01*
X166240697Y-106411733D01*
X166240699Y-106411734D01*
X166314933Y-106426500D01*
X167889066Y-106426499D01*
X167889069Y-106426498D01*
X167889073Y-106426498D01*
X167938326Y-106416701D01*
X167963301Y-106411734D01*
X168047484Y-106355484D01*
X168103734Y-106271301D01*
X168118500Y-106197067D01*
X168118500Y-106197063D01*
X168635500Y-106197063D01*
X168635501Y-106197073D01*
X168650265Y-106271300D01*
X168706516Y-106355484D01*
X168790697Y-106411733D01*
X168790699Y-106411734D01*
X168864933Y-106426500D01*
X170439066Y-106426499D01*
X170439069Y-106426498D01*
X170439073Y-106426498D01*
X170488326Y-106416701D01*
X170513301Y-106411734D01*
X170597484Y-106355484D01*
X170653734Y-106271301D01*
X170668500Y-106197067D01*
X170668500Y-106197063D01*
X171185500Y-106197063D01*
X171185501Y-106197073D01*
X171200265Y-106271300D01*
X171256516Y-106355484D01*
X171340697Y-106411733D01*
X171340699Y-106411734D01*
X171414933Y-106426500D01*
X172989066Y-106426499D01*
X172989069Y-106426498D01*
X172989073Y-106426498D01*
X173038326Y-106416701D01*
X173063301Y-106411734D01*
X173147484Y-106355484D01*
X173203734Y-106271301D01*
X173218500Y-106197067D01*
X173218500Y-106197063D01*
X173735500Y-106197063D01*
X173735501Y-106197073D01*
X173750265Y-106271300D01*
X173806516Y-106355484D01*
X173890697Y-106411733D01*
X173890699Y-106411734D01*
X173964933Y-106426500D01*
X175539066Y-106426499D01*
X175539069Y-106426498D01*
X175539073Y-106426498D01*
X175588326Y-106416701D01*
X175613301Y-106411734D01*
X175697484Y-106355484D01*
X175753734Y-106271301D01*
X175768500Y-106197067D01*
X175768499Y-104622934D01*
X175768498Y-104622927D01*
X175768498Y-104622926D01*
X175753734Y-104548699D01*
X175697483Y-104464515D01*
X175613302Y-104408266D01*
X175539067Y-104393500D01*
X173964936Y-104393500D01*
X173964926Y-104393501D01*
X173890699Y-104408265D01*
X173806515Y-104464516D01*
X173750266Y-104548697D01*
X173735500Y-104622930D01*
X173735500Y-106197063D01*
X173218500Y-106197063D01*
X173218499Y-104622934D01*
X173218498Y-104622927D01*
X173218498Y-104622926D01*
X173203734Y-104548699D01*
X173147483Y-104464515D01*
X173063302Y-104408266D01*
X172989067Y-104393500D01*
X171414936Y-104393500D01*
X171414926Y-104393501D01*
X171340699Y-104408265D01*
X171256515Y-104464516D01*
X171200266Y-104548697D01*
X171185500Y-104622930D01*
X171185500Y-106197063D01*
X170668500Y-106197063D01*
X170668499Y-104622934D01*
X170668498Y-104622927D01*
X170668498Y-104622926D01*
X170653734Y-104548699D01*
X170597483Y-104464515D01*
X170513302Y-104408266D01*
X170439067Y-104393500D01*
X168864936Y-104393500D01*
X168864926Y-104393501D01*
X168790699Y-104408265D01*
X168706515Y-104464516D01*
X168650266Y-104548697D01*
X168635500Y-104622930D01*
X168635500Y-106197063D01*
X168118500Y-106197063D01*
X168118499Y-104622934D01*
X168118498Y-104622927D01*
X168118498Y-104622926D01*
X168103734Y-104548699D01*
X168047483Y-104464515D01*
X167963302Y-104408266D01*
X167889067Y-104393500D01*
X166314936Y-104393500D01*
X166314926Y-104393501D01*
X166240699Y-104408265D01*
X166156515Y-104464516D01*
X166100266Y-104548697D01*
X166085500Y-104622930D01*
X166085500Y-106197063D01*
X164955113Y-106197063D01*
X164649404Y-105891354D01*
X164615378Y-105829042D01*
X164612499Y-105802259D01*
X164612499Y-104622936D01*
X164612498Y-104622927D01*
X164597734Y-104548699D01*
X164541483Y-104464515D01*
X164457302Y-104408266D01*
X164383067Y-104393500D01*
X162808936Y-104393500D01*
X162808926Y-104393501D01*
X162734699Y-104408265D01*
X162650515Y-104464516D01*
X162594266Y-104548697D01*
X162579500Y-104622930D01*
X162579500Y-106197063D01*
X162062500Y-106197063D01*
X162062499Y-104622934D01*
X162062498Y-104622927D01*
X162062498Y-104622926D01*
X162047734Y-104548699D01*
X161991483Y-104464515D01*
X161907302Y-104408266D01*
X161833067Y-104393500D01*
X160258936Y-104393500D01*
X160258926Y-104393501D01*
X160184699Y-104408265D01*
X160100515Y-104464516D01*
X160044266Y-104548697D01*
X160029500Y-104622930D01*
X160029500Y-106197063D01*
X159512500Y-106197063D01*
X159512499Y-104622934D01*
X159512498Y-104622927D01*
X159512498Y-104622926D01*
X159497734Y-104548699D01*
X159441483Y-104464515D01*
X159357302Y-104408266D01*
X159283067Y-104393500D01*
X157708936Y-104393500D01*
X157708926Y-104393501D01*
X157634699Y-104408265D01*
X157550515Y-104464516D01*
X157494266Y-104548697D01*
X157479500Y-104622930D01*
X157479500Y-105965616D01*
X157459498Y-106033737D01*
X157405842Y-106080230D01*
X157335568Y-106090334D01*
X157270988Y-106060840D01*
X157264418Y-106054724D01*
X156999402Y-105789708D01*
X156965378Y-105727397D01*
X156962499Y-105700614D01*
X156962499Y-104622936D01*
X156962498Y-104622927D01*
X156947734Y-104548699D01*
X156891483Y-104464515D01*
X156807302Y-104408266D01*
X156733067Y-104393500D01*
X155158936Y-104393500D01*
X155158926Y-104393501D01*
X155084699Y-104408265D01*
X155000515Y-104464516D01*
X154944266Y-104548697D01*
X154929500Y-104622930D01*
X154929500Y-106197063D01*
X154929501Y-106197073D01*
X154944265Y-106271300D01*
X155000516Y-106355484D01*
X155084697Y-106411733D01*
X155084699Y-106411734D01*
X155158933Y-106426500D01*
X156510615Y-106426499D01*
X156578736Y-106446501D01*
X156599710Y-106463404D01*
X159706802Y-109570496D01*
X159740828Y-109632808D01*
X159735763Y-109703623D01*
X159693216Y-109760459D01*
X159626696Y-109785270D01*
X159617707Y-109785591D01*
X138534764Y-109785591D01*
X138466643Y-109765589D01*
X138429601Y-109726741D01*
X138429382Y-109726910D01*
X138427818Y-109724871D01*
X138425648Y-109722596D01*
X138424359Y-109720364D01*
X138424355Y-109720359D01*
X138424355Y-109720358D01*
X138335474Y-109604526D01*
X138335472Y-109604524D01*
X138335471Y-109604523D01*
X138219649Y-109515649D01*
X138219641Y-109515644D01*
X138084752Y-109459771D01*
X137940000Y-109440715D01*
X137795247Y-109459771D01*
X137727802Y-109487708D01*
X137660358Y-109515645D01*
X137660357Y-109515646D01*
X137660356Y-109515646D01*
X137544526Y-109604526D01*
X137455646Y-109720356D01*
X137455645Y-109720358D01*
X137436910Y-109765589D01*
X137399771Y-109855247D01*
X137380715Y-109999999D01*
X137380715Y-110000000D01*
X135374500Y-110000000D01*
X135374500Y-106220597D01*
X144018000Y-106220597D01*
X144024505Y-106281093D01*
X144075555Y-106417964D01*
X144075555Y-106417965D01*
X144163095Y-106534904D01*
X144280034Y-106622444D01*
X144416906Y-106673494D01*
X144477402Y-106679999D01*
X144477415Y-106680000D01*
X145034000Y-106680000D01*
X145034000Y-105774805D01*
X145092960Y-105815004D01*
X145221002Y-105854500D01*
X145321312Y-105854500D01*
X145420499Y-105839550D01*
X145541224Y-105781412D01*
X145542000Y-105780691D01*
X145542000Y-106680000D01*
X146098585Y-106680000D01*
X146098597Y-106679999D01*
X146159093Y-106673494D01*
X146295964Y-106622444D01*
X146295965Y-106622444D01*
X146412904Y-106534904D01*
X146500444Y-106417965D01*
X146500444Y-106417964D01*
X146551494Y-106281093D01*
X146557999Y-106220597D01*
X146558000Y-106220585D01*
X146558000Y-106197063D01*
X146811500Y-106197063D01*
X146811501Y-106197073D01*
X146826265Y-106271300D01*
X146882516Y-106355484D01*
X146966697Y-106411733D01*
X146966699Y-106411734D01*
X147040933Y-106426500D01*
X148615066Y-106426499D01*
X148615069Y-106426498D01*
X148615073Y-106426498D01*
X148664326Y-106416701D01*
X148689301Y-106411734D01*
X148773484Y-106355484D01*
X148829734Y-106271301D01*
X148839820Y-106220597D01*
X149098000Y-106220597D01*
X149104505Y-106281093D01*
X149155555Y-106417964D01*
X149155555Y-106417965D01*
X149243095Y-106534904D01*
X149360034Y-106622444D01*
X149496906Y-106673494D01*
X149557402Y-106679999D01*
X149557415Y-106680000D01*
X150114000Y-106680000D01*
X150114000Y-105774805D01*
X150172960Y-105815004D01*
X150301002Y-105854500D01*
X150401312Y-105854500D01*
X150500499Y-105839550D01*
X150621224Y-105781412D01*
X150622000Y-105780691D01*
X150622000Y-106680000D01*
X151178585Y-106680000D01*
X151178597Y-106679999D01*
X151239093Y-106673494D01*
X151375964Y-106622444D01*
X151375965Y-106622444D01*
X151492904Y-106534904D01*
X151580444Y-106417965D01*
X151580444Y-106417964D01*
X151631494Y-106281093D01*
X151637999Y-106220597D01*
X151638000Y-106220585D01*
X151638000Y-106197063D01*
X152379500Y-106197063D01*
X152379501Y-106197073D01*
X152394265Y-106271300D01*
X152450516Y-106355484D01*
X152534697Y-106411733D01*
X152534699Y-106411734D01*
X152608933Y-106426500D01*
X154183066Y-106426499D01*
X154183069Y-106426498D01*
X154183073Y-106426498D01*
X154232326Y-106416701D01*
X154257301Y-106411734D01*
X154341484Y-106355484D01*
X154397734Y-106271301D01*
X154412500Y-106197067D01*
X154412499Y-104622934D01*
X154412498Y-104622927D01*
X154412498Y-104622926D01*
X154397734Y-104548699D01*
X154341483Y-104464515D01*
X154257302Y-104408266D01*
X154183067Y-104393500D01*
X152608936Y-104393500D01*
X152608926Y-104393501D01*
X152534699Y-104408265D01*
X152450515Y-104464516D01*
X152394266Y-104548697D01*
X152379500Y-104622930D01*
X152379500Y-106197063D01*
X151638000Y-106197063D01*
X151638000Y-105664000D01*
X150734618Y-105664000D01*
X150786447Y-105574228D01*
X150816264Y-105443593D01*
X150806251Y-105309972D01*
X150757297Y-105185240D01*
X150733979Y-105156000D01*
X151638000Y-105156000D01*
X151638000Y-104599414D01*
X151637999Y-104599402D01*
X151631494Y-104538906D01*
X151580444Y-104402035D01*
X151580444Y-104402034D01*
X151492904Y-104285095D01*
X151433823Y-104240868D01*
X151391276Y-104184032D01*
X151386212Y-104113217D01*
X151420237Y-104050904D01*
X151433823Y-104039132D01*
X151492904Y-103994904D01*
X151580444Y-103877965D01*
X151580444Y-103877964D01*
X151631494Y-103741093D01*
X151637999Y-103680597D01*
X151638000Y-103680585D01*
X151638000Y-103657063D01*
X152379500Y-103657063D01*
X152379501Y-103657073D01*
X152394265Y-103731300D01*
X152450516Y-103815484D01*
X152534697Y-103871733D01*
X152534699Y-103871734D01*
X152608933Y-103886500D01*
X154183066Y-103886499D01*
X154183069Y-103886498D01*
X154183073Y-103886498D01*
X154232326Y-103876701D01*
X154257301Y-103871734D01*
X154341484Y-103815484D01*
X154397734Y-103731301D01*
X154412500Y-103657067D01*
X154412500Y-103657063D01*
X154929500Y-103657063D01*
X154929501Y-103657073D01*
X154944265Y-103731300D01*
X155000516Y-103815484D01*
X155084697Y-103871733D01*
X155084699Y-103871734D01*
X155158933Y-103886500D01*
X156733066Y-103886499D01*
X156733069Y-103886498D01*
X156733073Y-103886498D01*
X156782326Y-103876701D01*
X156807301Y-103871734D01*
X156891484Y-103815484D01*
X156947734Y-103731301D01*
X156962500Y-103657067D01*
X156962500Y-103657063D01*
X157479500Y-103657063D01*
X157479501Y-103657073D01*
X157494265Y-103731300D01*
X157550516Y-103815484D01*
X157634697Y-103871733D01*
X157634699Y-103871734D01*
X157708933Y-103886500D01*
X159283066Y-103886499D01*
X159283069Y-103886498D01*
X159283073Y-103886498D01*
X159332326Y-103876701D01*
X159357301Y-103871734D01*
X159441484Y-103815484D01*
X159497734Y-103731301D01*
X159512500Y-103657067D01*
X159512500Y-103657063D01*
X160029500Y-103657063D01*
X160029501Y-103657073D01*
X160044265Y-103731300D01*
X160100516Y-103815484D01*
X160184697Y-103871733D01*
X160184699Y-103871734D01*
X160258933Y-103886500D01*
X161833066Y-103886499D01*
X161833069Y-103886498D01*
X161833073Y-103886498D01*
X161882326Y-103876701D01*
X161907301Y-103871734D01*
X161991484Y-103815484D01*
X162047734Y-103731301D01*
X162062500Y-103657067D01*
X162062500Y-103657063D01*
X162579500Y-103657063D01*
X162579501Y-103657073D01*
X162594265Y-103731300D01*
X162650516Y-103815484D01*
X162734697Y-103871733D01*
X162734699Y-103871734D01*
X162808933Y-103886500D01*
X164383066Y-103886499D01*
X164383069Y-103886498D01*
X164383073Y-103886498D01*
X164432326Y-103876701D01*
X164457301Y-103871734D01*
X164541484Y-103815484D01*
X164597734Y-103731301D01*
X164612500Y-103657067D01*
X164612500Y-103657063D01*
X166085500Y-103657063D01*
X166085501Y-103657073D01*
X166100265Y-103731300D01*
X166156516Y-103815484D01*
X166240697Y-103871733D01*
X166240699Y-103871734D01*
X166314933Y-103886500D01*
X167889066Y-103886499D01*
X167889069Y-103886498D01*
X167889073Y-103886498D01*
X167938326Y-103876701D01*
X167963301Y-103871734D01*
X168047484Y-103815484D01*
X168103734Y-103731301D01*
X168118500Y-103657067D01*
X168118500Y-103657063D01*
X168635500Y-103657063D01*
X168635501Y-103657073D01*
X168650265Y-103731300D01*
X168706516Y-103815484D01*
X168790697Y-103871733D01*
X168790699Y-103871734D01*
X168864933Y-103886500D01*
X170439066Y-103886499D01*
X170439069Y-103886498D01*
X170439073Y-103886498D01*
X170488326Y-103876701D01*
X170513301Y-103871734D01*
X170597484Y-103815484D01*
X170653734Y-103731301D01*
X170668500Y-103657067D01*
X170668500Y-103657063D01*
X171185500Y-103657063D01*
X171185501Y-103657073D01*
X171200265Y-103731300D01*
X171256516Y-103815484D01*
X171340697Y-103871733D01*
X171340699Y-103871734D01*
X171414933Y-103886500D01*
X172989066Y-103886499D01*
X172989069Y-103886498D01*
X172989073Y-103886498D01*
X173038326Y-103876701D01*
X173063301Y-103871734D01*
X173147484Y-103815484D01*
X173203734Y-103731301D01*
X173218500Y-103657067D01*
X173218500Y-103657063D01*
X173735500Y-103657063D01*
X173735501Y-103657073D01*
X173750265Y-103731300D01*
X173806516Y-103815484D01*
X173890697Y-103871733D01*
X173890699Y-103871734D01*
X173964933Y-103886500D01*
X175539066Y-103886499D01*
X175539069Y-103886498D01*
X175539073Y-103886498D01*
X175588326Y-103876701D01*
X175613301Y-103871734D01*
X175697484Y-103815484D01*
X175753734Y-103731301D01*
X175768500Y-103657067D01*
X175768499Y-102082934D01*
X175768498Y-102082930D01*
X175768498Y-102082926D01*
X175753734Y-102008699D01*
X175697483Y-101924515D01*
X175613302Y-101868266D01*
X175539067Y-101853500D01*
X173964936Y-101853500D01*
X173964926Y-101853501D01*
X173890699Y-101868265D01*
X173806515Y-101924516D01*
X173750266Y-102008697D01*
X173735500Y-102082930D01*
X173735500Y-103657063D01*
X173218500Y-103657063D01*
X173218499Y-102082934D01*
X173218498Y-102082930D01*
X173218498Y-102082926D01*
X173203734Y-102008699D01*
X173147483Y-101924515D01*
X173063302Y-101868266D01*
X172989067Y-101853500D01*
X171414936Y-101853500D01*
X171414926Y-101853501D01*
X171340699Y-101868265D01*
X171256515Y-101924516D01*
X171200266Y-102008697D01*
X171185500Y-102082930D01*
X171185500Y-103657063D01*
X170668500Y-103657063D01*
X170668499Y-102082934D01*
X170668498Y-102082930D01*
X170668498Y-102082926D01*
X170653734Y-102008699D01*
X170597483Y-101924515D01*
X170513302Y-101868266D01*
X170439067Y-101853500D01*
X168864936Y-101853500D01*
X168864926Y-101853501D01*
X168790699Y-101868265D01*
X168706515Y-101924516D01*
X168650266Y-102008697D01*
X168635500Y-102082930D01*
X168635500Y-103657063D01*
X168118500Y-103657063D01*
X168118499Y-102082934D01*
X168118498Y-102082930D01*
X168118498Y-102082926D01*
X168103734Y-102008699D01*
X168047483Y-101924515D01*
X167963302Y-101868266D01*
X167889067Y-101853500D01*
X166314936Y-101853500D01*
X166314926Y-101853501D01*
X166240699Y-101868265D01*
X166156515Y-101924516D01*
X166100266Y-102008697D01*
X166085500Y-102082930D01*
X166085500Y-103657063D01*
X164612500Y-103657063D01*
X164612499Y-102082934D01*
X164612498Y-102082930D01*
X164612498Y-102082926D01*
X164597734Y-102008699D01*
X164541483Y-101924515D01*
X164457302Y-101868266D01*
X164383067Y-101853500D01*
X162808936Y-101853500D01*
X162808926Y-101853501D01*
X162734699Y-101868265D01*
X162650515Y-101924516D01*
X162594266Y-102008697D01*
X162579500Y-102082930D01*
X162579500Y-103657063D01*
X162062500Y-103657063D01*
X162062499Y-102082934D01*
X162062498Y-102082930D01*
X162062498Y-102082926D01*
X162047734Y-102008699D01*
X161991483Y-101924515D01*
X161907302Y-101868266D01*
X161833067Y-101853500D01*
X160258936Y-101853500D01*
X160258926Y-101853501D01*
X160184699Y-101868265D01*
X160100515Y-101924516D01*
X160044266Y-102008697D01*
X160029500Y-102082930D01*
X160029500Y-103657063D01*
X159512500Y-103657063D01*
X159512499Y-102082934D01*
X159512498Y-102082930D01*
X159512498Y-102082926D01*
X159497734Y-102008699D01*
X159441483Y-101924515D01*
X159357302Y-101868266D01*
X159283067Y-101853500D01*
X157708936Y-101853500D01*
X157708926Y-101853501D01*
X157634699Y-101868265D01*
X157550515Y-101924516D01*
X157494266Y-102008697D01*
X157479500Y-102082930D01*
X157479500Y-103657063D01*
X156962500Y-103657063D01*
X156962499Y-102082934D01*
X156962498Y-102082930D01*
X156962498Y-102082926D01*
X156947734Y-102008699D01*
X156891483Y-101924515D01*
X156807302Y-101868266D01*
X156733067Y-101853500D01*
X155158936Y-101853500D01*
X155158926Y-101853501D01*
X155084699Y-101868265D01*
X155000515Y-101924516D01*
X154944266Y-102008697D01*
X154929500Y-102082930D01*
X154929500Y-103657063D01*
X154412500Y-103657063D01*
X154412499Y-102082934D01*
X154412498Y-102082930D01*
X154412498Y-102082926D01*
X154397734Y-102008699D01*
X154341483Y-101924515D01*
X154257302Y-101868266D01*
X154183067Y-101853500D01*
X152608936Y-101853500D01*
X152608926Y-101853501D01*
X152534699Y-101868265D01*
X152450515Y-101924516D01*
X152394266Y-102008697D01*
X152379500Y-102082930D01*
X152379500Y-103657063D01*
X151638000Y-103657063D01*
X151638000Y-103124000D01*
X150734618Y-103124000D01*
X150786447Y-103034228D01*
X150816264Y-102903593D01*
X150806251Y-102769972D01*
X150757297Y-102645240D01*
X150733979Y-102616000D01*
X151638000Y-102616000D01*
X151638000Y-102059414D01*
X151637999Y-102059402D01*
X151631494Y-101998906D01*
X151580444Y-101862035D01*
X151580444Y-101862034D01*
X151492904Y-101745095D01*
X151375965Y-101657555D01*
X151239093Y-101606505D01*
X151178597Y-101600000D01*
X150622000Y-101600000D01*
X150622000Y-102505194D01*
X150563040Y-102464996D01*
X150434998Y-102425500D01*
X150334688Y-102425500D01*
X150235501Y-102440450D01*
X150114776Y-102498588D01*
X150114000Y-102499308D01*
X150114000Y-101600000D01*
X149557402Y-101600000D01*
X149496906Y-101606505D01*
X149360035Y-101657555D01*
X149360034Y-101657555D01*
X149243095Y-101745095D01*
X149155555Y-101862034D01*
X149155555Y-101862035D01*
X149104505Y-101998906D01*
X149098000Y-102059402D01*
X149098000Y-102616000D01*
X150001382Y-102616000D01*
X149949553Y-102705772D01*
X149919736Y-102836407D01*
X149929749Y-102970028D01*
X149978703Y-103094760D01*
X150002021Y-103124000D01*
X149098000Y-103124000D01*
X149098000Y-103680597D01*
X149104505Y-103741093D01*
X149155555Y-103877964D01*
X149155555Y-103877965D01*
X149243094Y-103994902D01*
X149302177Y-104039132D01*
X149344723Y-104095969D01*
X149349787Y-104166784D01*
X149315762Y-104229096D01*
X149302177Y-104240868D01*
X149243094Y-104285097D01*
X149155555Y-104402034D01*
X149155555Y-104402035D01*
X149104505Y-104538906D01*
X149098000Y-104599402D01*
X149098000Y-105156000D01*
X150001382Y-105156000D01*
X149949553Y-105245772D01*
X149919736Y-105376407D01*
X149929749Y-105510028D01*
X149978703Y-105634760D01*
X150002021Y-105664000D01*
X149098000Y-105664000D01*
X149098000Y-106220597D01*
X148839820Y-106220597D01*
X148844500Y-106197067D01*
X148844499Y-104622934D01*
X148844498Y-104622927D01*
X148844498Y-104622926D01*
X148829734Y-104548699D01*
X148773483Y-104464515D01*
X148689302Y-104408266D01*
X148615067Y-104393500D01*
X147040936Y-104393500D01*
X147040926Y-104393501D01*
X146966699Y-104408265D01*
X146882515Y-104464516D01*
X146826266Y-104548697D01*
X146811500Y-104622930D01*
X146811500Y-106197063D01*
X146558000Y-106197063D01*
X146558000Y-105664000D01*
X145654618Y-105664000D01*
X145706447Y-105574228D01*
X145736264Y-105443593D01*
X145726251Y-105309972D01*
X145677297Y-105185240D01*
X145653979Y-105156000D01*
X146558000Y-105156000D01*
X146558000Y-104599414D01*
X146557999Y-104599402D01*
X146551494Y-104538906D01*
X146500444Y-104402035D01*
X146500444Y-104402034D01*
X146412904Y-104285095D01*
X146353823Y-104240868D01*
X146311276Y-104184032D01*
X146306212Y-104113217D01*
X146340237Y-104050904D01*
X146353823Y-104039132D01*
X146412904Y-103994904D01*
X146500444Y-103877965D01*
X146500444Y-103877964D01*
X146551494Y-103741093D01*
X146557999Y-103680597D01*
X146558000Y-103680585D01*
X146558000Y-103657063D01*
X146811500Y-103657063D01*
X146811501Y-103657073D01*
X146826265Y-103731300D01*
X146882516Y-103815484D01*
X146966697Y-103871733D01*
X146966699Y-103871734D01*
X147040933Y-103886500D01*
X148615066Y-103886499D01*
X148615069Y-103886498D01*
X148615073Y-103886498D01*
X148664326Y-103876701D01*
X148689301Y-103871734D01*
X148773484Y-103815484D01*
X148829734Y-103731301D01*
X148844500Y-103657067D01*
X148844499Y-102082934D01*
X148844498Y-102082930D01*
X148844498Y-102082926D01*
X148829734Y-102008699D01*
X148773483Y-101924515D01*
X148689302Y-101868266D01*
X148615067Y-101853500D01*
X147040936Y-101853500D01*
X147040926Y-101853501D01*
X146966699Y-101868265D01*
X146882515Y-101924516D01*
X146826266Y-102008697D01*
X146811500Y-102082930D01*
X146811500Y-103657063D01*
X146558000Y-103657063D01*
X146558000Y-103124000D01*
X145654618Y-103124000D01*
X145706447Y-103034228D01*
X145736264Y-102903593D01*
X145726251Y-102769972D01*
X145677297Y-102645240D01*
X145653979Y-102616000D01*
X146558000Y-102616000D01*
X146558000Y-102059414D01*
X146557999Y-102059402D01*
X146551494Y-101998906D01*
X146500444Y-101862035D01*
X146500444Y-101862034D01*
X146412904Y-101745095D01*
X146295965Y-101657555D01*
X146159093Y-101606505D01*
X146098597Y-101600000D01*
X145542000Y-101600000D01*
X145542000Y-102505194D01*
X145483040Y-102464996D01*
X145354998Y-102425500D01*
X145254688Y-102425500D01*
X145155501Y-102440450D01*
X145034776Y-102498588D01*
X145034000Y-102499308D01*
X145034000Y-101600000D01*
X144477402Y-101600000D01*
X144416906Y-101606505D01*
X144280035Y-101657555D01*
X144280034Y-101657555D01*
X144163095Y-101745095D01*
X144075555Y-101862034D01*
X144075555Y-101862035D01*
X144024505Y-101998906D01*
X144018000Y-102059402D01*
X144018000Y-102616000D01*
X144921382Y-102616000D01*
X144869553Y-102705772D01*
X144839736Y-102836407D01*
X144849749Y-102970028D01*
X144898703Y-103094760D01*
X144922021Y-103124000D01*
X144018000Y-103124000D01*
X144018000Y-103680597D01*
X144024505Y-103741093D01*
X144075555Y-103877964D01*
X144075555Y-103877965D01*
X144163094Y-103994902D01*
X144222177Y-104039132D01*
X144264723Y-104095969D01*
X144269787Y-104166784D01*
X144235762Y-104229096D01*
X144222177Y-104240868D01*
X144163094Y-104285097D01*
X144075555Y-104402034D01*
X144075555Y-104402035D01*
X144024505Y-104538906D01*
X144018000Y-104599402D01*
X144018000Y-105156000D01*
X144921382Y-105156000D01*
X144869553Y-105245772D01*
X144839736Y-105376407D01*
X144849749Y-105510028D01*
X144898703Y-105634760D01*
X144922021Y-105664000D01*
X144018000Y-105664000D01*
X144018000Y-106220597D01*
X135374500Y-106220597D01*
X135374500Y-99940500D01*
X135394502Y-99872379D01*
X135448158Y-99825886D01*
X135500500Y-99814500D01*
X184539500Y-99814500D01*
X184607621Y-99834502D01*
G37*
%TD.AperFunction*%
%TD*%
M02*
