%TF.GenerationSoftware,KiCad,Pcbnew,7.0.5.1-1-g8f565ef7f0-dirty-deb11*%
%TF.CreationDate,2023-07-21T01:10:23+00:00*%
%TF.ProjectId,ISM02,49534d30-322e-46b6-9963-61645f706362,rev?*%
%TF.SameCoordinates,Original*%
%TF.FileFunction,Copper,L2,Bot*%
%TF.FilePolarity,Positive*%
%FSLAX46Y46*%
G04 Gerber Fmt 4.6, Leading zero omitted, Abs format (unit mm)*
G04 Created by KiCad (PCBNEW 7.0.5.1-1-g8f565ef7f0-dirty-deb11) date 2023-07-21 01:10:23*
%MOMM*%
%LPD*%
G01*
G04 APERTURE LIST*
G04 Aperture macros list*
%AMRoundRect*
0 Rectangle with rounded corners*
0 $1 Rounding radius*
0 $2 $3 $4 $5 $6 $7 $8 $9 X,Y pos of 4 corners*
0 Add a 4 corners polygon primitive as box body*
4,1,4,$2,$3,$4,$5,$6,$7,$8,$9,$2,$3,0*
0 Add four circle primitives for the rounded corners*
1,1,$1+$1,$2,$3*
1,1,$1+$1,$4,$5*
1,1,$1+$1,$6,$7*
1,1,$1+$1,$8,$9*
0 Add four rect primitives between the rounded corners*
20,1,$1+$1,$2,$3,$4,$5,0*
20,1,$1+$1,$4,$5,$6,$7,0*
20,1,$1+$1,$6,$7,$8,$9,0*
20,1,$1+$1,$8,$9,$2,$3,0*%
G04 Aperture macros list end*
%TA.AperFunction,ComponentPad*%
%ADD10C,6.000000*%
%TD*%
%TA.AperFunction,ComponentPad*%
%ADD11R,1.524000X1.524000*%
%TD*%
%TA.AperFunction,ComponentPad*%
%ADD12C,2.500000*%
%TD*%
%TA.AperFunction,ComponentPad*%
%ADD13C,2.700000*%
%TD*%
%TA.AperFunction,SMDPad,CuDef*%
%ADD14RoundRect,0.237500X0.237500X-0.287500X0.237500X0.287500X-0.237500X0.287500X-0.237500X-0.287500X0*%
%TD*%
%TA.AperFunction,SMDPad,CuDef*%
%ADD15RoundRect,0.237500X0.287500X0.237500X-0.287500X0.237500X-0.287500X-0.237500X0.287500X-0.237500X0*%
%TD*%
%TA.AperFunction,SMDPad,CuDef*%
%ADD16RoundRect,0.237500X-0.287500X-0.237500X0.287500X-0.237500X0.287500X0.237500X-0.287500X0.237500X0*%
%TD*%
%TA.AperFunction,SMDPad,CuDef*%
%ADD17R,0.850000X0.750000*%
%TD*%
%TA.AperFunction,SMDPad,CuDef*%
%ADD18RoundRect,0.062500X0.062500X-0.350000X0.062500X0.350000X-0.062500X0.350000X-0.062500X-0.350000X0*%
%TD*%
%TA.AperFunction,SMDPad,CuDef*%
%ADD19RoundRect,0.062500X0.350000X-0.062500X0.350000X0.062500X-0.350000X0.062500X-0.350000X-0.062500X0*%
%TD*%
%TA.AperFunction,ComponentPad*%
%ADD20C,0.500000*%
%TD*%
%TA.AperFunction,SMDPad,CuDef*%
%ADD21RoundRect,0.250000X1.050000X-1.050000X1.050000X1.050000X-1.050000X1.050000X-1.050000X-1.050000X0*%
%TD*%
%TA.AperFunction,SMDPad,CuDef*%
%ADD22RoundRect,0.218750X-0.218750X-0.256250X0.218750X-0.256250X0.218750X0.256250X-0.218750X0.256250X0*%
%TD*%
%TA.AperFunction,SMDPad,CuDef*%
%ADD23RoundRect,0.147500X-0.172500X0.147500X-0.172500X-0.147500X0.172500X-0.147500X0.172500X0.147500X0*%
%TD*%
%TA.AperFunction,SMDPad,CuDef*%
%ADD24RoundRect,0.147500X-0.147500X-0.172500X0.147500X-0.172500X0.147500X0.172500X-0.147500X0.172500X0*%
%TD*%
%TA.AperFunction,SMDPad,CuDef*%
%ADD25R,1.397000X0.889000*%
%TD*%
%TA.AperFunction,SMDPad,CuDef*%
%ADD26RoundRect,0.147500X0.172500X-0.147500X0.172500X0.147500X-0.172500X0.147500X-0.172500X-0.147500X0*%
%TD*%
%TA.AperFunction,SMDPad,CuDef*%
%ADD27RoundRect,0.237500X-0.237500X0.287500X-0.237500X-0.287500X0.237500X-0.287500X0.237500X0.287500X0*%
%TD*%
%TA.AperFunction,SMDPad,CuDef*%
%ADD28R,1.300000X1.700000*%
%TD*%
%TA.AperFunction,SMDPad,CuDef*%
%ADD29R,1.060000X0.650000*%
%TD*%
%TA.AperFunction,SMDPad,CuDef*%
%ADD30R,0.400000X0.650000*%
%TD*%
%TA.AperFunction,SMDPad,CuDef*%
%ADD31RoundRect,0.218750X0.218750X0.256250X-0.218750X0.256250X-0.218750X-0.256250X0.218750X-0.256250X0*%
%TD*%
%TA.AperFunction,ViaPad*%
%ADD32C,0.600000*%
%TD*%
%TA.AperFunction,Conductor*%
%ADD33C,0.250000*%
%TD*%
%TA.AperFunction,Conductor*%
%ADD34C,0.500000*%
%TD*%
%TA.AperFunction,Conductor*%
%ADD35C,0.300000*%
%TD*%
%TA.AperFunction,Conductor*%
%ADD36C,0.400000*%
%TD*%
G04 APERTURE END LIST*
D10*
%TO.P,M2,1*%
%TO.N,GND*%
X139700000Y-104140000D03*
%TD*%
%TO.P,M3,1*%
%TO.N,GND*%
X180340000Y-124460000D03*
%TD*%
D11*
%TO.P,J2,1*%
%TO.N,GND*%
X137922000Y-118872000D03*
%TO.P,J2,2*%
X140462000Y-118872000D03*
%TD*%
%TO.P,J5,1*%
%TO.N,/MISO*%
X167102000Y-105410000D03*
%TO.P,J5,2*%
X167102000Y-102870000D03*
%TD*%
%TO.P,J4,1*%
%TO.N,/SCK*%
X172202000Y-105410000D03*
%TO.P,J4,2*%
X172202000Y-102870000D03*
%TD*%
%TO.P,J3,1*%
%TO.N,/#RESET*%
X163596000Y-105410000D03*
%TO.P,J3,2*%
X163596000Y-102870000D03*
%TD*%
D12*
%TO.P,J12,1*%
%TO.N,Net-(C22-Pad2)*%
X179374800Y-114300000D03*
D13*
%TO.P,J12,2*%
%TO.N,GND*%
X176834800Y-116840000D03*
X181914800Y-116840000D03*
X176834800Y-111760000D03*
X181914800Y-111760000D03*
%TD*%
D11*
%TO.P,J10,1*%
%TO.N,/DIO3*%
X153396000Y-105410000D03*
%TO.P,J10,2*%
X153396000Y-102870000D03*
%TD*%
%TO.P,J7,1*%
%TO.N,/#CS*%
X174752000Y-105410000D03*
%TO.P,J7,2*%
X174752000Y-102870000D03*
%TD*%
%TO.P,J9,1*%
%TO.N,/DIO2*%
X155946000Y-105410000D03*
%TO.P,J9,2*%
X155946000Y-102870000D03*
%TD*%
%TO.P,J8,1*%
%TO.N,/DIO1*%
X158496000Y-105410000D03*
%TO.P,J8,2*%
X158496000Y-102870000D03*
%TD*%
%TO.P,J11,1*%
%TO.N,/BUSY*%
X161046000Y-105410000D03*
%TO.P,J11,2*%
X161046000Y-102870000D03*
%TD*%
%TO.P,J6,1*%
%TO.N,/MOSI*%
X169652000Y-105410000D03*
%TO.P,J6,2*%
X169652000Y-102870000D03*
%TD*%
D10*
%TO.P,M1,1*%
%TO.N,GND*%
X180340000Y-104140000D03*
%TD*%
D11*
%TO.P,J1,1,2*%
%TO.N,GND*%
X145288000Y-105410000D03*
%TO.P,J1,2,2*%
X145288000Y-102870000D03*
%TO.P,J1,3,4*%
%TO.N,+5V*%
X147828000Y-105410000D03*
%TO.P,J1,4,4*%
X147828000Y-102870000D03*
%TO.P,J1,5,6*%
%TO.N,GND*%
X150368000Y-105410000D03*
%TO.P,J1,6,6*%
X150368000Y-102870000D03*
%TD*%
D10*
%TO.P,M4,1*%
%TO.N,GND*%
X139700000Y-124460000D03*
%TD*%
D11*
%TO.P,J15,1*%
%TO.N,GND*%
X137922000Y-113792000D03*
%TO.P,J15,2*%
X140462000Y-113792000D03*
%TD*%
%TO.P,J13,1*%
%TO.N,+3V3*%
X137922000Y-116332000D03*
%TO.P,J13,2*%
X140462000Y-116332000D03*
%TD*%
D14*
%TO.P,C19,1*%
%TO.N,GND*%
X168949600Y-114805000D03*
%TO.P,C19,2*%
%TO.N,Net-(C17-Pad1)*%
X168949600Y-113055000D03*
%TD*%
D15*
%TO.P,C18,1*%
%TO.N,Net-(C18-Pad1)*%
X161671000Y-112141000D03*
%TO.P,C18,2*%
%TO.N,GND*%
X159921000Y-112141000D03*
%TD*%
D14*
%TO.P,C12,1*%
%TO.N,Net-(C10-Pad1)*%
X161558000Y-117021000D03*
%TO.P,C12,2*%
%TO.N,GND*%
X161558000Y-115271000D03*
%TD*%
%TO.P,C22,1*%
%TO.N,GND*%
X172720000Y-114667000D03*
%TO.P,C22,2*%
%TO.N,Net-(C22-Pad2)*%
X172720000Y-112917000D03*
%TD*%
%TO.P,C4,1*%
%TO.N,Net-(C4-Pad1)*%
X145058000Y-120621000D03*
%TO.P,C4,2*%
%TO.N,GND*%
X145058000Y-118871000D03*
%TD*%
%TO.P,C5,1*%
%TO.N,+3V3*%
X143458000Y-116921000D03*
%TO.P,C5,2*%
%TO.N,GND*%
X143458000Y-115171000D03*
%TD*%
%TO.P,C1,1*%
%TO.N,Net-(C1-Pad1)*%
X152458000Y-125335000D03*
%TO.P,C1,2*%
%TO.N,GND*%
X152458000Y-123585000D03*
%TD*%
%TO.P,C3,1*%
%TO.N,Net-(C3-Pad1)*%
X147258000Y-125335000D03*
%TO.P,C3,2*%
%TO.N,GND*%
X147258000Y-123585000D03*
%TD*%
D15*
%TO.P,C10,1*%
%TO.N,Net-(C10-Pad1)*%
X159385000Y-117046000D03*
%TO.P,C10,2*%
%TO.N,Net-(C10-Pad2)*%
X157635000Y-117046000D03*
%TD*%
D14*
%TO.P,C6,1*%
%TO.N,+3V3*%
X145058000Y-116921000D03*
%TO.P,C6,2*%
%TO.N,GND*%
X145058000Y-115171000D03*
%TD*%
D16*
%TO.P,C8,1*%
%TO.N,Net-(C8-Pad1)*%
X157635000Y-115316000D03*
%TO.P,C8,2*%
%TO.N,GND*%
X159385000Y-115316000D03*
%TD*%
D17*
%TO.P,Y1,1,1*%
%TO.N,Net-(C1-Pad1)*%
X150533000Y-126585000D03*
%TO.P,Y1,2,2*%
%TO.N,GND*%
X149183000Y-126585000D03*
%TO.P,Y1,3,3*%
%TO.N,Net-(C3-Pad1)*%
X149183000Y-125535000D03*
%TO.P,Y1,4,4*%
%TO.N,GND*%
X150533000Y-125535000D03*
%TD*%
D18*
%TO.P,U1,1,VDD_IN*%
%TO.N,+3V3*%
X151108000Y-119583500D03*
%TO.P,U1,2,GND*%
%TO.N,GND*%
X150608000Y-119583500D03*
%TO.P,U1,3,XTA*%
%TO.N,Net-(C1-Pad1)*%
X150108000Y-119583500D03*
%TO.P,U1,4,XTB*%
%TO.N,Net-(C3-Pad1)*%
X149608000Y-119583500D03*
%TO.P,U1,5,GND*%
%TO.N,GND*%
X149108000Y-119583500D03*
%TO.P,U1,6,DIO3*%
%TO.N,/DIO3*%
X148608000Y-119583500D03*
D19*
%TO.P,U1,7,VREG*%
%TO.N,Net-(C4-Pad1)*%
X147920500Y-118896000D03*
%TO.P,U1,8,GND*%
%TO.N,GND*%
X147920500Y-118396000D03*
%TO.P,U1,9,DCC_SW*%
%TO.N,Net-(L1-Pad2)*%
X147920500Y-117896000D03*
%TO.P,U1,10,VBAT*%
%TO.N,+3V3*%
X147920500Y-117396000D03*
%TO.P,U1,11,VBAT_IO*%
X147920500Y-116896000D03*
%TO.P,U1,12,DIO2*%
%TO.N,/DIO2*%
X147920500Y-116396000D03*
D18*
%TO.P,U1,13,DIO1*%
%TO.N,/DIO1*%
X148608000Y-115708500D03*
%TO.P,U1,14,BUSY*%
%TO.N,/BUSY*%
X149108000Y-115708500D03*
%TO.P,U1,15,RESET*%
%TO.N,/#RESET*%
X149608000Y-115708500D03*
%TO.P,U1,16,MISO*%
%TO.N,/MISO*%
X150108000Y-115708500D03*
%TO.P,U1,17,MOSI*%
%TO.N,/MOSI*%
X150608000Y-115708500D03*
%TO.P,U1,18,SCK*%
%TO.N,/SCK*%
X151108000Y-115708500D03*
D19*
%TO.P,U1,19,~CS~*%
%TO.N,/#CS*%
X151795500Y-116396000D03*
%TO.P,U1,20,GND*%
%TO.N,GND*%
X151795500Y-116896000D03*
%TO.P,U1,21,RFI_P*%
%TO.N,Net-(C8-Pad1)*%
X151795500Y-117396000D03*
%TO.P,U1,22,RFI_N*%
%TO.N,Net-(C10-Pad2)*%
X151795500Y-117896000D03*
%TO.P,U1,23,RFO*%
%TO.N,Net-(L3-Pad1)*%
X151795500Y-118396000D03*
%TO.P,U1,24,VR_PA*%
%TO.N,Net-(C7-Pad1)*%
X151795500Y-118896000D03*
D20*
%TO.P,U1,25,GND*%
%TO.N,GND*%
X148808000Y-118696000D03*
X149858000Y-118696000D03*
X150908000Y-118696000D03*
X148808000Y-117646000D03*
X149858000Y-117646000D03*
D21*
X149858000Y-117646000D03*
D20*
X150908000Y-117646000D03*
X148808000Y-116596000D03*
X149858000Y-116596000D03*
X150908000Y-116596000D03*
%TD*%
D22*
%TO.P,R1,1*%
%TO.N,+3V3*%
X166446000Y-110236000D03*
%TO.P,R1,2*%
%TO.N,/#RESET*%
X168021000Y-110236000D03*
%TD*%
D23*
%TO.P,L2,1,1*%
%TO.N,Net-(C8-Pad1)*%
X155970000Y-115661000D03*
%TO.P,L2,2,2*%
%TO.N,Net-(C10-Pad2)*%
X155970000Y-116631000D03*
%TD*%
D24*
%TO.P,L7,1,1*%
%TO.N,Net-(C17-Pad1)*%
X170464600Y-113030000D03*
%TO.P,L7,2,2*%
%TO.N,Net-(C22-Pad2)*%
X171434600Y-113030000D03*
%TD*%
D25*
%TO.P,L1,1*%
%TO.N,Net-(C4-Pad1)*%
X143158000Y-120332500D03*
%TO.P,L1,2*%
%TO.N,Net-(L1-Pad2)*%
X143158000Y-118427500D03*
%TD*%
D26*
%TO.P,L4,1,1*%
%TO.N,Net-(C7-Pad1)*%
X156258000Y-120331000D03*
%TO.P,L4,2,2*%
%TO.N,Net-(C11-Pad1)*%
X156258000Y-119361000D03*
%TD*%
%TO.P,L6,1,1*%
%TO.N,Net-(C15-Pad1)*%
X166217600Y-119865000D03*
%TO.P,L6,2,2*%
%TO.N,Net-(C16-Pad1)*%
X166217600Y-118895000D03*
%TD*%
D24*
%TO.P,L5,1,1*%
%TO.N,Net-(C11-Pad1)*%
X159773000Y-121246000D03*
%TO.P,L5,2,2*%
%TO.N,Net-(C13-Pad1)*%
X160743000Y-121246000D03*
%TD*%
D15*
%TO.P,C13,1*%
%TO.N,Net-(C13-Pad1)*%
X161133000Y-119546000D03*
%TO.P,C13,2*%
%TO.N,Net-(C11-Pad1)*%
X159383000Y-119546000D03*
%TD*%
D27*
%TO.P,C16,1*%
%TO.N,Net-(C16-Pad1)*%
X168148000Y-119013000D03*
%TO.P,C16,2*%
%TO.N,GND*%
X168148000Y-120763000D03*
%TD*%
D15*
%TO.P,C17,1*%
%TO.N,Net-(C17-Pad1)*%
X166979600Y-113030000D03*
%TO.P,C17,2*%
%TO.N,Net-(C17-Pad2)*%
X165229600Y-113030000D03*
%TD*%
D27*
%TO.P,C14,1*%
%TO.N,Net-(C13-Pad1)*%
X162758000Y-121285000D03*
%TO.P,C14,2*%
%TO.N,GND*%
X162758000Y-123035000D03*
%TD*%
%TO.P,C11,1*%
%TO.N,Net-(C11-Pad1)*%
X157758000Y-119571000D03*
%TO.P,C11,2*%
%TO.N,GND*%
X157758000Y-121321000D03*
%TD*%
D15*
%TO.P,C15,1*%
%TO.N,Net-(C15-Pad1)*%
X164614800Y-119532400D03*
%TO.P,C15,2*%
%TO.N,Net-(C13-Pad1)*%
X162864800Y-119532400D03*
%TD*%
%TO.P,C9,1*%
%TO.N,Net-(C7-Pad1)*%
X156008000Y-121746000D03*
%TO.P,C9,2*%
%TO.N,GND*%
X154258000Y-121746000D03*
%TD*%
%TO.P,C7,1*%
%TO.N,Net-(C7-Pad1)*%
X156008000Y-123446000D03*
%TO.P,C7,2*%
%TO.N,GND*%
X154258000Y-123446000D03*
%TD*%
D24*
%TO.P,L3,1,1*%
%TO.N,Net-(L3-Pad1)*%
X154073000Y-119346000D03*
%TO.P,L3,2,2*%
%TO.N,Net-(C11-Pad1)*%
X155043000Y-119346000D03*
%TD*%
D16*
%TO.P,C2,1*%
%TO.N,+5V*%
X145263000Y-111252000D03*
%TO.P,C2,2*%
%TO.N,GND*%
X147013000Y-111252000D03*
%TD*%
D28*
%TO.P,D1,1,K*%
%TO.N,+5V*%
X147884000Y-108712000D03*
%TO.P,D1,2,A*%
%TO.N,GND*%
X151384000Y-108712000D03*
%TD*%
D29*
%TO.P,U2,1,VIN*%
%TO.N,+5V*%
X141038000Y-109102000D03*
%TO.P,U2,2,GND*%
%TO.N,GND*%
X141038000Y-110052000D03*
%TO.P,U2,3,EN*%
%TO.N,+5V*%
X141038000Y-111002000D03*
%TO.P,U2,4,NC*%
%TO.N,N/C*%
X138838000Y-111002000D03*
%TO.P,U2,5,VOUT*%
%TO.N,+3V3*%
X138838000Y-109102000D03*
%TD*%
D25*
%TO.P,C24,1*%
%TO.N,+3V3*%
X136652000Y-110744000D03*
%TO.P,C24,2*%
%TO.N,GND*%
X136652000Y-108839000D03*
%TD*%
%TO.P,C21,1*%
%TO.N,+5V*%
X143038000Y-109099500D03*
%TO.P,C21,2*%
%TO.N,GND*%
X143038000Y-111004500D03*
%TD*%
%TO.P,C25,1*%
%TO.N,+5V*%
X145288000Y-109601000D03*
%TO.P,C25,2*%
%TO.N,GND*%
X145288000Y-107696000D03*
%TD*%
D30*
%TO.P,U3,1,RF1*%
%TO.N,Net-(C16-Pad1)*%
X165750000Y-116836000D03*
%TO.P,U3,2,GND*%
%TO.N,GND*%
X165100000Y-116836000D03*
%TO.P,U3,3,RF2*%
%TO.N,Net-(C10-Pad1)*%
X164450000Y-116836000D03*
%TO.P,U3,4,CTRL*%
%TO.N,Net-(C18-Pad1)*%
X164450000Y-114936000D03*
%TO.P,U3,5,RFC*%
%TO.N,Net-(C17-Pad2)*%
X165100000Y-114936000D03*
%TO.P,U3,6,#CTRL*%
%TO.N,+3V3*%
X165750000Y-114936000D03*
%TD*%
D31*
%TO.P,R2,1*%
%TO.N,Net-(C18-Pad1)*%
X163957000Y-110236000D03*
%TO.P,R2,2*%
%TO.N,/DIO2*%
X162382000Y-110236000D03*
%TD*%
D32*
%TO.N,GND*%
X145058000Y-114046000D03*
X143458000Y-114046000D03*
X151358000Y-123260000D03*
X148358000Y-123260000D03*
X150558000Y-124560000D03*
X163830000Y-113665000D03*
X184150000Y-119380000D03*
X148463000Y-128270000D03*
X163830000Y-100330000D03*
X161798000Y-113919000D03*
X171069000Y-111633000D03*
X184150000Y-118110000D03*
X157356660Y-118341817D03*
X158750000Y-113919000D03*
X184150000Y-114300000D03*
X145161000Y-122301000D03*
X168910000Y-111633000D03*
X142240000Y-128270000D03*
X184150000Y-110490000D03*
X156972000Y-113919000D03*
X167894000Y-111633000D03*
X143383000Y-107442000D03*
X145161000Y-123317000D03*
X153858000Y-124946000D03*
X146304000Y-128270000D03*
X159766000Y-113919000D03*
X168402000Y-122428000D03*
X143764000Y-112649000D03*
X153670000Y-100330000D03*
X169164000Y-116967000D03*
X177800000Y-108585000D03*
X170053000Y-111633000D03*
X172085000Y-128270000D03*
X164211000Y-121666000D03*
X161290000Y-100330000D03*
X172212000Y-111506000D03*
X163195000Y-128270000D03*
X160655000Y-128270000D03*
X167767000Y-114300000D03*
X154940000Y-100330000D03*
X153416000Y-123446000D03*
X172720000Y-100330000D03*
X157480000Y-100330000D03*
X162560000Y-124460000D03*
X155858000Y-118346000D03*
X152273000Y-128270000D03*
X174117000Y-114935000D03*
X166370000Y-100330000D03*
X160655000Y-113919000D03*
X150876000Y-122301000D03*
X181610000Y-120015000D03*
X159766000Y-122809000D03*
X149858000Y-123860000D03*
X149606000Y-107442000D03*
X153797000Y-126111000D03*
X150858000Y-121146000D03*
X155575000Y-128270000D03*
X145161000Y-128270000D03*
X170815000Y-128270000D03*
X143510000Y-100330000D03*
X144780000Y-100330000D03*
X135890000Y-120650000D03*
X168275000Y-128270000D03*
X158750000Y-100330000D03*
X172847000Y-116967000D03*
X146050000Y-100330000D03*
X173101000Y-111506000D03*
X169545000Y-120904000D03*
X177800000Y-100330000D03*
X175260000Y-100330000D03*
X176530000Y-108585000D03*
X146939000Y-112649000D03*
X158115000Y-128270000D03*
X168148000Y-116967000D03*
X156210000Y-100330000D03*
X182245000Y-108585000D03*
X149860000Y-100330000D03*
X162941000Y-115697000D03*
X167640000Y-100330000D03*
X173990000Y-100330000D03*
X183515000Y-120015000D03*
X148908011Y-121145981D03*
X148590000Y-100330000D03*
X170180000Y-100330000D03*
X164846000Y-111633000D03*
X135890000Y-119380000D03*
X162258000Y-118346000D03*
X164465000Y-128270000D03*
X146050000Y-127000000D03*
X135890000Y-116840000D03*
X184150000Y-116840000D03*
X154940000Y-118346000D03*
X173990000Y-111506000D03*
X174498000Y-112268000D03*
X165735000Y-128270000D03*
X171450000Y-100330000D03*
X164846000Y-117983000D03*
X170561000Y-116967000D03*
X154305000Y-128270000D03*
X152019000Y-122301000D03*
X153035000Y-115570000D03*
X163858046Y-118346000D03*
X173990000Y-118110000D03*
X161925000Y-128270000D03*
X145161000Y-125349000D03*
X153158000Y-121746000D03*
X168910000Y-100330000D03*
X177165000Y-128270000D03*
X173355000Y-128270000D03*
X148717000Y-122174000D03*
X160658000Y-118346000D03*
X145161000Y-126619000D03*
X165100000Y-100330000D03*
X147320000Y-121920000D03*
X146058000Y-118946000D03*
X175895000Y-120015000D03*
X162560000Y-100330000D03*
X184150000Y-113030000D03*
X161036000Y-122809000D03*
X184150000Y-107950000D03*
X171704000Y-116967000D03*
X179705000Y-118745000D03*
X179070000Y-120015000D03*
X166497000Y-121158000D03*
X160020000Y-100330000D03*
X157480000Y-122809000D03*
X151130000Y-100330000D03*
X164211000Y-122809000D03*
X169545000Y-122428000D03*
X167132000Y-116967000D03*
X184150000Y-115570000D03*
X171323000Y-114300000D03*
X149258000Y-124560000D03*
X161036000Y-124460000D03*
X169418000Y-117983000D03*
X147447000Y-128270000D03*
X156224000Y-114808000D03*
X170307000Y-114300000D03*
X184150000Y-120650000D03*
X175895000Y-128270000D03*
X169545000Y-128270000D03*
X165227000Y-121158000D03*
X174625000Y-120015000D03*
X157861000Y-113919000D03*
X147858000Y-126560000D03*
X153035000Y-127127000D03*
X136271000Y-107315000D03*
X184150000Y-109220000D03*
X152400000Y-100330000D03*
X145161000Y-112649000D03*
X167005000Y-128270000D03*
X159058000Y-118346000D03*
X174117000Y-116967000D03*
X176530000Y-100330000D03*
X159385000Y-128270000D03*
X149606000Y-128270000D03*
X180975000Y-108585000D03*
X164338000Y-124460000D03*
X143510000Y-128270000D03*
X147320000Y-100330000D03*
X165989000Y-111633000D03*
X175006000Y-115062000D03*
X135890000Y-118110000D03*
X177800000Y-120015000D03*
X141859000Y-107569000D03*
X163830000Y-111633000D03*
X143637000Y-121920000D03*
X158623000Y-122809000D03*
X173990000Y-119380000D03*
X166116000Y-113919000D03*
X145161000Y-124333000D03*
X156845000Y-128270000D03*
X167132000Y-122428000D03*
X179070000Y-110490000D03*
X150876000Y-128270000D03*
X146050000Y-121920000D03*
X169545000Y-119126000D03*
X163830000Y-112649000D03*
X149606000Y-108712000D03*
X184150000Y-111760000D03*
X174625000Y-128270000D03*
X184150000Y-106680000D03*
X142494000Y-112649000D03*
%TO.N,+3V3*%
X167005000Y-115443000D03*
X165354000Y-110236000D03*
X137940000Y-110000000D03*
X151858000Y-121146000D03*
X146858000Y-117146000D03*
%TO.N,Net-(C18-Pad1)*%
X162814000Y-111633000D03*
X163703000Y-114935000D03*
%TO.N,/#RESET*%
X169164000Y-110236000D03*
%TO.N,/DIO2*%
X161544000Y-109490080D03*
%TO.N,/DIO3*%
X146058000Y-113746046D03*
X147901519Y-121146000D03*
%TD*%
D33*
%TO.N,Net-(C1-Pad1)*%
X152458000Y-125335000D02*
X152458000Y-125960000D01*
X152058000Y-126360000D02*
X150758000Y-126360000D01*
X150758000Y-126360000D02*
X150533000Y-126585000D01*
X152458000Y-125960000D02*
X152058000Y-126360000D01*
X150108000Y-122985000D02*
X152458000Y-125335000D01*
X150108000Y-122985000D02*
X150108000Y-119583500D01*
%TO.N,GND*%
X148033000Y-123585000D02*
X148358000Y-123260000D01*
X150608000Y-119583500D02*
X150608000Y-118996000D01*
X149108000Y-118996000D02*
X148808000Y-118696000D01*
X152458000Y-123585000D02*
X151683000Y-123585000D01*
X147258000Y-123585000D02*
X148033000Y-123585000D01*
X151683000Y-123585000D02*
X151358000Y-123260000D01*
X150533000Y-124585000D02*
X150558000Y-124560000D01*
X147920500Y-118396000D02*
X148508000Y-118396000D01*
X148508000Y-118396000D02*
X148808000Y-118696000D01*
X149108000Y-119583500D02*
X149108000Y-118996000D01*
X151208000Y-116896000D02*
X150908000Y-116596000D01*
X150608000Y-118996000D02*
X150908000Y-118696000D01*
X150533000Y-125535000D02*
X150533000Y-124585000D01*
X143458000Y-115171000D02*
X143458000Y-114046000D01*
X145058000Y-115171000D02*
X145058000Y-114046000D01*
X151795500Y-116896000D02*
X151208000Y-116896000D01*
D34*
X142085500Y-110052000D02*
X143038000Y-111004500D01*
X141038000Y-110052000D02*
X142085500Y-110052000D01*
X157379928Y-118318541D02*
X157356652Y-118341817D01*
D33*
X166497000Y-114300000D02*
X166116000Y-113919000D01*
X150876000Y-128270000D02*
X152273000Y-128270000D01*
X167767000Y-114300000D02*
X166497000Y-114300000D01*
D34*
X157356660Y-118341817D02*
X159053817Y-118341817D01*
D33*
X148463000Y-128270000D02*
X149606000Y-128270000D01*
X153035000Y-126873000D02*
X153797000Y-126111000D01*
D34*
X163858046Y-118346000D02*
X164483000Y-118346000D01*
D33*
X154258000Y-121746000D02*
X153158000Y-121746000D01*
X154157999Y-124646001D02*
X153858000Y-124946000D01*
X146357999Y-118646001D02*
X146058000Y-118946000D01*
X153035000Y-127127000D02*
X153035000Y-126873000D01*
X149183000Y-126585000D02*
X147883000Y-126585000D01*
X145058000Y-118871000D02*
X145983000Y-118871000D01*
D34*
X157356652Y-118341817D02*
X157356660Y-118341817D01*
D35*
X161513000Y-115316000D02*
X161558000Y-115271000D01*
D33*
X144018000Y-122301000D02*
X143637000Y-121920000D01*
X145161000Y-122301000D02*
X144018000Y-122301000D01*
X145983000Y-118871000D02*
X146058000Y-118946000D01*
X149108000Y-120945992D02*
X148908011Y-121145981D01*
X146608000Y-118396000D02*
X146357999Y-118646001D01*
X150876000Y-122301000D02*
X152019000Y-122301000D01*
X147883000Y-126585000D02*
X147858000Y-126560000D01*
X150608000Y-119583500D02*
X150608000Y-120896000D01*
D34*
X160658000Y-118346000D02*
X162258000Y-118346000D01*
D33*
X149108000Y-119583500D02*
X149108000Y-120945992D01*
X147920500Y-118396000D02*
X146608000Y-118396000D01*
X154258000Y-123446000D02*
X154258000Y-124546000D01*
D34*
X150558000Y-124560000D02*
X149258000Y-124560000D01*
D33*
X154258000Y-124546000D02*
X154157999Y-124646001D01*
X150608000Y-120896000D02*
X150858000Y-121146000D01*
D34*
X164483000Y-118346000D02*
X164846000Y-117983000D01*
D33*
X151384000Y-108712000D02*
X149606000Y-108712000D01*
D34*
X159053817Y-118341817D02*
X159058000Y-118346000D01*
D33*
%TO.N,+5V*%
X140258000Y-109102000D02*
X140132999Y-109227001D01*
D34*
X143038000Y-109099500D02*
X143292000Y-109099500D01*
X143035500Y-109102000D02*
X143038000Y-109099500D01*
D33*
X140132999Y-110876999D02*
X140258000Y-111002000D01*
D34*
X141038000Y-109102000D02*
X143035500Y-109102000D01*
D33*
X140132999Y-109227001D02*
X140132999Y-110876999D01*
X140258000Y-111002000D02*
X141038000Y-111002000D01*
X141038000Y-109102000D02*
X140258000Y-109102000D01*
D34*
X143539500Y-109601000D02*
X143038000Y-109099500D01*
X145263000Y-111252000D02*
X145263000Y-109626000D01*
X147828000Y-105410000D02*
X147828000Y-108656000D01*
X146995000Y-109601000D02*
X147884000Y-108712000D01*
X147828000Y-102870000D02*
X147828000Y-105410000D01*
X145288000Y-109601000D02*
X143539500Y-109601000D01*
X145288000Y-109601000D02*
X146995000Y-109601000D01*
X145263000Y-109626000D02*
X145288000Y-109601000D01*
X147828000Y-108656000D02*
X147884000Y-108712000D01*
D33*
%TO.N,Net-(C3-Pad1)*%
X147683000Y-125760000D02*
X147258000Y-125335000D01*
X148958000Y-125760000D02*
X147683000Y-125760000D01*
X149183000Y-125535000D02*
X148958000Y-125760000D01*
X149608000Y-122985000D02*
X147258000Y-125335000D01*
X149608000Y-122985000D02*
X149608000Y-119583500D01*
%TO.N,Net-(C4-Pad1)*%
X145058000Y-120621000D02*
X146195500Y-120621000D01*
X143158000Y-120332500D02*
X144769500Y-120332500D01*
X146195500Y-120621000D02*
X147920500Y-118896000D01*
X144769500Y-120332500D02*
X145058000Y-120621000D01*
D34*
%TO.N,+3V3*%
X143435500Y-116898500D02*
X143458000Y-116921000D01*
X142883000Y-116921000D02*
X143458000Y-116921000D01*
X137196000Y-110744000D02*
X137940000Y-110000000D01*
D35*
X165750000Y-114936000D02*
X166498000Y-114936000D01*
D34*
X166446000Y-110236000D02*
X165354000Y-110236000D01*
D33*
X145058000Y-116921000D02*
X146633000Y-116921000D01*
X146633000Y-116921000D02*
X146858000Y-117146000D01*
D34*
X140462000Y-116332000D02*
X137922000Y-116332000D01*
X136144000Y-115824000D02*
X136144000Y-111252000D01*
X141051000Y-116921000D02*
X140462000Y-116332000D01*
X136144000Y-111252000D02*
X136652000Y-110744000D01*
X136652000Y-110744000D02*
X137196000Y-110744000D01*
D35*
X166498000Y-114936000D02*
X167005000Y-115443000D01*
D33*
X151108000Y-120396000D02*
X151858000Y-121146000D01*
D34*
X137940000Y-110000000D02*
X138838000Y-109102000D01*
D33*
X151108000Y-119583500D02*
X151108000Y-120396000D01*
D34*
X136652000Y-116332000D02*
X136144000Y-115824000D01*
X143458000Y-116921000D02*
X141051000Y-116921000D01*
X137922000Y-116332000D02*
X136652000Y-116332000D01*
D33*
%TO.N,Net-(C7-Pad1)*%
X152058000Y-118896000D02*
X151795500Y-118896000D01*
D34*
X156008000Y-121746000D02*
X156008000Y-123446000D01*
D33*
X152008000Y-118896000D02*
X151795500Y-118896000D01*
D34*
X156258000Y-120331000D02*
X156258000Y-121396000D01*
D33*
X152424000Y-118896000D02*
X153859000Y-120331000D01*
D34*
X156258000Y-121396000D02*
X155908000Y-121746000D01*
D33*
X153859000Y-120331000D02*
X153989000Y-120331000D01*
D34*
X156258000Y-120331000D02*
X153989000Y-120331000D01*
D33*
X151795500Y-118896000D02*
X152424000Y-118896000D01*
D34*
%TO.N,Net-(C8-Pad1)*%
X154525980Y-116320332D02*
X153670000Y-117176312D01*
D33*
X152733000Y-117396000D02*
X152779893Y-117396000D01*
D34*
X154630452Y-116215860D02*
X154525980Y-116320332D01*
X156875801Y-115661000D02*
X155970000Y-115661000D01*
D33*
X151795500Y-117396000D02*
X152733000Y-117396000D01*
D34*
X157582893Y-115368107D02*
X157635000Y-115316000D01*
D33*
X153596759Y-117249553D02*
X153670000Y-117176312D01*
X152733000Y-117396000D02*
X153243205Y-117396000D01*
D34*
X155970000Y-115660999D02*
G75*
G03*
X154630452Y-116215860I0J-1894401D01*
G01*
X156875801Y-115660990D02*
G75*
G03*
X157582893Y-115368107I-1J999990D01*
G01*
D33*
X153243205Y-117396003D02*
G75*
G03*
X153596759Y-117249553I-5J500003D01*
G01*
D34*
%TO.N,Net-(C10-Pad1)*%
X159531000Y-116900000D02*
X161437000Y-116900000D01*
X164450000Y-116836000D02*
X161743000Y-116836000D01*
%TO.N,Net-(C10-Pad2)*%
X155970000Y-116631000D02*
X155962074Y-116631000D01*
X154790874Y-117116126D02*
X154319545Y-117587455D01*
D33*
X151795500Y-117896000D02*
X153574652Y-117896000D01*
D34*
X156633115Y-116631000D02*
X155970000Y-116631000D01*
X157635000Y-117046000D02*
G75*
G03*
X156633115Y-116631000I-1001900J-1001900D01*
G01*
X155962074Y-116630974D02*
G75*
G03*
X154790875Y-117116127I26J-1656326D01*
G01*
X153574652Y-117895976D02*
G75*
G03*
X154319544Y-117587454I48J1053376D01*
G01*
%TO.N,Net-(C11-Pad1)*%
X159358000Y-119571000D02*
X159383000Y-119546000D01*
X159383000Y-120856000D02*
X159773000Y-121246000D01*
X157758000Y-119571000D02*
X159358000Y-119571000D01*
X156258000Y-119361000D02*
X157548000Y-119361000D01*
X157548000Y-119361000D02*
X157758000Y-119571000D01*
X159383000Y-119546000D02*
X159383000Y-120856000D01*
X155043000Y-119346000D02*
X156243000Y-119346000D01*
X156243000Y-119346000D02*
X156258000Y-119361000D01*
%TO.N,Net-(C13-Pad1)*%
X161133000Y-120856000D02*
X160743000Y-121246000D01*
X161133000Y-119546000D02*
X162851200Y-119546000D01*
X161133000Y-119546000D02*
X161133000Y-120856000D01*
X162864800Y-119532400D02*
X162864800Y-121178200D01*
X162851200Y-119546000D02*
X162864800Y-119532400D01*
X162864800Y-121178200D02*
X162758000Y-121285000D01*
%TO.N,Net-(C15-Pad1)*%
X164947400Y-119865000D02*
X166217600Y-119865000D01*
X164614800Y-119532400D02*
X164947400Y-119865000D01*
D35*
%TO.N,Net-(C16-Pad1)*%
X165750000Y-116836000D02*
X165750000Y-117766138D01*
D34*
X166217600Y-118895000D02*
X168030000Y-118895000D01*
X168030000Y-118895000D02*
X168148000Y-119013000D01*
D35*
X165749966Y-117766138D02*
G75*
G03*
X166217601Y-118894999I1596434J38D01*
G01*
D34*
%TO.N,Net-(C17-Pad1)*%
X168949600Y-113055000D02*
X170439600Y-113055000D01*
X170439600Y-113055000D02*
X170464600Y-113030000D01*
X166979600Y-113030000D02*
X168924600Y-113030000D01*
X168924600Y-113030000D02*
X168949600Y-113055000D01*
D35*
%TO.N,Net-(C18-Pad1)*%
X162814000Y-111379000D02*
X163957000Y-110236000D01*
X162814000Y-111633000D02*
X162179000Y-111633000D01*
X162814000Y-111633000D02*
X162814000Y-111379000D01*
X162179000Y-111633000D02*
X161671000Y-112141000D01*
X163704000Y-114936000D02*
X163703000Y-114935000D01*
X164450000Y-114936000D02*
X163704000Y-114936000D01*
D34*
%TO.N,Net-(C22-Pad2)*%
X172924600Y-113030000D02*
X172949600Y-113055000D01*
X171434600Y-113030000D02*
X172924600Y-113030000D01*
X176088427Y-114300000D02*
X179374800Y-114300000D01*
X172720000Y-112917000D02*
X172749572Y-112917000D01*
X174674200Y-113714228D02*
G75*
G03*
X176088427Y-114300000I1414200J1414228D01*
G01*
X174674238Y-113714190D02*
G75*
G03*
X172749572Y-112917000I-1924638J-1924710D01*
G01*
D36*
%TO.N,Net-(C17-Pad2)*%
X165100000Y-114936000D02*
X165100000Y-113159600D01*
D35*
X165100000Y-113159600D02*
X165229600Y-113030000D01*
D33*
%TO.N,/SCK*%
X169275060Y-108315060D02*
X169286000Y-108326000D01*
X159564524Y-109720020D02*
X160969484Y-108315060D01*
X172202000Y-103882000D02*
X172202000Y-105410000D01*
X151108000Y-115708500D02*
X151108000Y-115177408D01*
X158902252Y-109720020D02*
X159564524Y-109720020D01*
X172202000Y-102870000D02*
X172202000Y-103882000D01*
X151917760Y-114367648D02*
X154254624Y-114367648D01*
X151108000Y-115177408D02*
X151917760Y-114367648D01*
X169286000Y-108326000D02*
X172202000Y-105410000D01*
X160969484Y-108315060D02*
X169275060Y-108315060D01*
X154254624Y-114367648D02*
X158902252Y-109720020D01*
%TO.N,/MISO*%
X167102000Y-103882000D02*
X167102000Y-105410000D01*
X165226980Y-107315020D02*
X165544500Y-106997500D01*
X167102000Y-102870000D02*
X167102000Y-103882000D01*
X167102000Y-105440000D02*
X167102000Y-105410000D01*
X158496000Y-108712000D02*
X159158272Y-108712000D01*
X167202000Y-105510000D02*
X167102000Y-105410000D01*
X160555252Y-107315020D02*
X165226980Y-107315020D01*
X150108000Y-114763136D02*
X151503528Y-113367608D01*
X151503528Y-113367608D02*
X153840392Y-113367608D01*
X150108000Y-115708500D02*
X150108000Y-114763136D01*
X153840392Y-113367608D02*
X158496000Y-108712000D01*
X165226980Y-107315020D02*
X167102000Y-105440000D01*
X159158272Y-108712000D02*
X160555252Y-107315020D01*
%TO.N,/MOSI*%
X167266960Y-107815040D02*
X167449500Y-107632500D01*
X150608000Y-115708500D02*
X150608000Y-114970272D01*
X169652000Y-103882000D02*
X169652000Y-105410000D01*
X150608000Y-114970272D02*
X151710644Y-113867628D01*
X169652000Y-105430000D02*
X169652000Y-105410000D01*
X154047508Y-113867628D02*
X158695136Y-109220000D01*
X169652000Y-102870000D02*
X169652000Y-103882000D01*
X167266960Y-107815040D02*
X169652000Y-105430000D01*
X160762368Y-107815040D02*
X167266960Y-107815040D01*
X159357408Y-109220000D02*
X160762368Y-107815040D01*
X158695136Y-109220000D02*
X159357408Y-109220000D01*
X151710644Y-113867628D02*
X154047508Y-113867628D01*
%TO.N,/#CS*%
X163840940Y-108826020D02*
X171335980Y-108826020D01*
X159771640Y-110220040D02*
X161176600Y-108815080D01*
X151795500Y-116396000D02*
X151795500Y-115208500D01*
X171335980Y-108826020D02*
X174752000Y-105410000D01*
X161176600Y-108815080D02*
X163830000Y-108815080D01*
X163830000Y-108815080D02*
X163840940Y-108826020D01*
X154461740Y-114867668D02*
X159109368Y-110220040D01*
X152136332Y-114867668D02*
X154461740Y-114867668D01*
X159109368Y-110220040D02*
X159771640Y-110220040D01*
X151795500Y-115208500D02*
X152136332Y-114867668D01*
X174752000Y-102870000D02*
X174752000Y-105410000D01*
%TO.N,/#RESET*%
X160348136Y-106815000D02*
X163203000Y-106815000D01*
X149608000Y-114556000D02*
X151296412Y-112867588D01*
X163596000Y-102870000D02*
X163596000Y-105410000D01*
X149608000Y-115708500D02*
X149608000Y-114556000D01*
X163203000Y-106815000D02*
X163596000Y-106422000D01*
X153448300Y-112867588D02*
X158111888Y-108204000D01*
X158959136Y-108204000D02*
X160348136Y-106815000D01*
D35*
X168021000Y-110236000D02*
X169164000Y-110236000D01*
D33*
X158111888Y-108204000D02*
X158959136Y-108204000D01*
X163596000Y-106422000D02*
X163596000Y-105410000D01*
X151296412Y-112867588D02*
X153448300Y-112867588D01*
%TO.N,/DIO1*%
X150876000Y-111760000D02*
X153141617Y-111760000D01*
X158496000Y-105590000D02*
X158496000Y-105410000D01*
X158496000Y-102870000D02*
X158496000Y-105410000D01*
X148608000Y-114028000D02*
X150876000Y-111760000D01*
X158496000Y-106405617D02*
X158496000Y-105410000D01*
X148608000Y-115708500D02*
X148608000Y-114028000D01*
X153141617Y-111760000D02*
X158496000Y-106405617D01*
%TO.N,/DIO2*%
X147920500Y-116396000D02*
X147920500Y-113898636D01*
X156096000Y-105560000D02*
X155946000Y-105410000D01*
X155946000Y-102870000D02*
X155946000Y-103882000D01*
X155946000Y-108248482D02*
X155946000Y-105410000D01*
X147920500Y-113898636D02*
X150567136Y-111252000D01*
D34*
X162382000Y-110236000D02*
X162289920Y-110236000D01*
D35*
X161636080Y-109490080D02*
X162382000Y-110236000D01*
D33*
X155946000Y-103882000D02*
X155946000Y-105410000D01*
D35*
X161544000Y-109490080D02*
X161636080Y-109490080D01*
D33*
X152942482Y-111252000D02*
X155946000Y-108248482D01*
X150567136Y-111252000D02*
X152942482Y-111252000D01*
%TO.N,/DIO3*%
X153416000Y-105430000D02*
X153396000Y-105410000D01*
X153416000Y-110071346D02*
X153416000Y-105430000D01*
X148608000Y-120439519D02*
X148201518Y-120846001D01*
X150368000Y-110744000D02*
X152743346Y-110744000D01*
X153466000Y-105410000D02*
X153396000Y-105410000D01*
X148201518Y-120846001D02*
X147901519Y-121146000D01*
X146058000Y-113746046D02*
X147365954Y-113746046D01*
X148608000Y-119583500D02*
X148608000Y-120439519D01*
X147365954Y-113746046D02*
X150368000Y-110744000D01*
X152743346Y-110744000D02*
X153416000Y-110071346D01*
X148336000Y-112776000D02*
X150368000Y-110744000D01*
X153396000Y-102870000D02*
X153396000Y-105410000D01*
%TO.N,/BUSY*%
X150975568Y-112367568D02*
X153241185Y-112367568D01*
X161046000Y-102870000D02*
X161046000Y-103882000D01*
X149108000Y-115708500D02*
X149108000Y-114235136D01*
X161046000Y-103882000D02*
X161046000Y-105410000D01*
X158797624Y-107658376D02*
X157950376Y-107658376D01*
X153241185Y-112367568D02*
X157950376Y-107658376D01*
X161046000Y-105410000D02*
X158797624Y-107658376D01*
X149108000Y-114235136D02*
X150975568Y-112367568D01*
%TO.N,Net-(L1-Pad2)*%
X143410500Y-118493500D02*
X143158000Y-118493500D01*
X144008000Y-117896000D02*
X143410500Y-118493500D01*
X147920500Y-117896000D02*
X144008000Y-117896000D01*
%TO.N,Net-(L3-Pad1)*%
X151795500Y-118396000D02*
X153123000Y-118396000D01*
D34*
X154073000Y-119346000D02*
X153738832Y-119011832D01*
X153738832Y-119011832D02*
X153738832Y-119001832D01*
X153738832Y-119001832D02*
X153283000Y-118546000D01*
D33*
X153123000Y-118396000D02*
X153133000Y-118396000D01*
X153133000Y-118396000D02*
X153283000Y-118546000D01*
%TD*%
%TA.AperFunction,Conductor*%
%TO.N,GND*%
G36*
X149902031Y-123331827D02*
G01*
X149947094Y-123360788D01*
X151691595Y-125105289D01*
X151725621Y-125167601D01*
X151728500Y-125194384D01*
X151728500Y-125669548D01*
X151728502Y-125669572D01*
X151734798Y-125728151D01*
X151734799Y-125728156D01*
X151734800Y-125728157D01*
X151765501Y-125810469D01*
X151770566Y-125881283D01*
X151736541Y-125943595D01*
X151674228Y-125977620D01*
X151647445Y-125980500D01*
X151107071Y-125980500D01*
X151058851Y-125970908D01*
X151057301Y-125970266D01*
X150983068Y-125955500D01*
X150082936Y-125955500D01*
X150082924Y-125955502D01*
X150013078Y-125969394D01*
X149942364Y-125963065D01*
X149886298Y-125919509D01*
X149862679Y-125852556D01*
X149862499Y-125845848D01*
X149862499Y-125134934D01*
X149862498Y-125134930D01*
X149862498Y-125134926D01*
X149847734Y-125060699D01*
X149807472Y-125000444D01*
X149791484Y-124976516D01*
X149791483Y-124976515D01*
X149707302Y-124920266D01*
X149633068Y-124905500D01*
X148732936Y-124905500D01*
X148732926Y-124905501D01*
X148658699Y-124920265D01*
X148574515Y-124976516D01*
X148518266Y-125060697D01*
X148503500Y-125134930D01*
X148503500Y-125254500D01*
X148483498Y-125322621D01*
X148429842Y-125369114D01*
X148377500Y-125380500D01*
X148113499Y-125380500D01*
X148045378Y-125360498D01*
X147998885Y-125306842D01*
X147987499Y-125254500D01*
X147987499Y-125194383D01*
X148007501Y-125126262D01*
X148024399Y-125105293D01*
X149768906Y-123360786D01*
X149831216Y-123326762D01*
X149902031Y-123331827D01*
G37*
%TD.AperFunction*%
%TA.AperFunction,Conductor*%
G36*
X150911248Y-116345668D02*
G01*
X150962189Y-116369422D01*
X151008356Y-116375500D01*
X151008370Y-116375500D01*
X151010846Y-116375663D01*
X151011547Y-116375920D01*
X151012444Y-116376038D01*
X151012417Y-116376238D01*
X151077513Y-116400077D01*
X151120397Y-116456658D01*
X151128335Y-116493135D01*
X151128499Y-116495638D01*
X151134577Y-116541809D01*
X151134578Y-116541811D01*
X151168759Y-116615114D01*
X151181824Y-116643131D01*
X151260868Y-116722175D01*
X151260869Y-116722175D01*
X151260871Y-116722177D01*
X151362189Y-116769422D01*
X151366557Y-116769997D01*
X151374766Y-116771078D01*
X151439693Y-116799800D01*
X151478785Y-116859065D01*
X151479630Y-116930056D01*
X151441960Y-116990235D01*
X151377735Y-117020495D01*
X151374766Y-117020922D01*
X151362190Y-117022577D01*
X151260868Y-117069824D01*
X151181824Y-117148868D01*
X151134577Y-117250190D01*
X151128500Y-117296351D01*
X151128500Y-117495648D01*
X151134577Y-117541810D01*
X151134577Y-117541811D01*
X151158331Y-117592751D01*
X151168992Y-117662942D01*
X151158331Y-117699249D01*
X151134577Y-117750188D01*
X151134577Y-117750189D01*
X151128500Y-117796351D01*
X151128500Y-117995648D01*
X151134577Y-118041810D01*
X151134577Y-118041811D01*
X151158331Y-118092751D01*
X151168992Y-118162942D01*
X151158331Y-118199249D01*
X151134577Y-118250188D01*
X151134577Y-118250189D01*
X151128500Y-118296351D01*
X151128500Y-118495648D01*
X151134577Y-118541809D01*
X151158331Y-118592749D01*
X151168992Y-118662941D01*
X151158331Y-118699248D01*
X151134577Y-118750188D01*
X151134577Y-118750189D01*
X151128499Y-118796361D01*
X151128335Y-118798865D01*
X151128077Y-118799568D01*
X151127962Y-118800444D01*
X151127765Y-118800418D01*
X151103911Y-118865528D01*
X151047323Y-118908404D01*
X151010865Y-118916335D01*
X151008361Y-118916499D01*
X150962190Y-118922577D01*
X150860868Y-118969824D01*
X150781824Y-119048868D01*
X150734577Y-119150190D01*
X150732922Y-119162766D01*
X150704200Y-119227693D01*
X150644935Y-119266785D01*
X150573944Y-119267630D01*
X150513765Y-119229960D01*
X150483505Y-119165735D01*
X150483078Y-119162766D01*
X150481422Y-119150190D01*
X150481422Y-119150189D01*
X150434177Y-119048871D01*
X150434175Y-119048869D01*
X150434175Y-119048868D01*
X150355131Y-118969824D01*
X150253809Y-118922577D01*
X150207648Y-118916500D01*
X150207644Y-118916500D01*
X150008356Y-118916500D01*
X150008351Y-118916500D01*
X149962189Y-118922577D01*
X149962188Y-118922577D01*
X149911249Y-118946331D01*
X149841058Y-118956992D01*
X149804751Y-118946331D01*
X149753811Y-118922577D01*
X149707648Y-118916500D01*
X149707644Y-118916500D01*
X149508356Y-118916500D01*
X149508351Y-118916500D01*
X149462190Y-118922577D01*
X149360868Y-118969824D01*
X149281824Y-119048868D01*
X149234577Y-119150190D01*
X149232922Y-119162766D01*
X149204200Y-119227693D01*
X149144935Y-119266785D01*
X149073944Y-119267630D01*
X149013765Y-119229960D01*
X148983505Y-119165735D01*
X148983078Y-119162766D01*
X148981422Y-119150190D01*
X148981422Y-119150189D01*
X148934177Y-119048871D01*
X148934175Y-119048869D01*
X148934175Y-119048868D01*
X148855131Y-118969824D01*
X148753809Y-118922577D01*
X148707638Y-118916499D01*
X148705135Y-118916335D01*
X148704431Y-118916077D01*
X148703556Y-118915962D01*
X148703581Y-118915765D01*
X148638472Y-118891912D01*
X148595595Y-118835324D01*
X148587663Y-118798846D01*
X148587500Y-118796370D01*
X148587500Y-118796356D01*
X148581422Y-118750189D01*
X148534177Y-118648871D01*
X148534175Y-118648869D01*
X148534175Y-118648868D01*
X148455131Y-118569824D01*
X148353809Y-118522577D01*
X148341234Y-118520922D01*
X148276307Y-118492201D01*
X148237214Y-118432936D01*
X148236369Y-118361944D01*
X148274038Y-118301765D01*
X148338263Y-118271505D01*
X148341234Y-118271078D01*
X148346765Y-118270349D01*
X148353811Y-118269422D01*
X148455129Y-118222177D01*
X148534177Y-118143129D01*
X148581422Y-118041811D01*
X148587500Y-117995644D01*
X148587500Y-117796356D01*
X148581422Y-117750189D01*
X148557667Y-117699247D01*
X148547007Y-117629058D01*
X148557668Y-117592751D01*
X148581422Y-117541811D01*
X148587500Y-117495644D01*
X148587500Y-117296356D01*
X148581422Y-117250189D01*
X148574803Y-117235995D01*
X148563000Y-117182749D01*
X148563000Y-117109251D01*
X148574805Y-117056001D01*
X148581422Y-117041811D01*
X148587500Y-116995644D01*
X148587500Y-116796356D01*
X148581422Y-116750189D01*
X148557667Y-116699247D01*
X148547007Y-116629058D01*
X148557666Y-116592754D01*
X148581422Y-116541811D01*
X148587500Y-116495644D01*
X148587500Y-116495628D01*
X148587663Y-116493154D01*
X148587920Y-116492452D01*
X148588038Y-116491556D01*
X148588238Y-116491582D01*
X148612076Y-116426487D01*
X148668657Y-116383602D01*
X148705154Y-116375663D01*
X148707629Y-116375500D01*
X148707644Y-116375500D01*
X148753811Y-116369422D01*
X148804750Y-116345668D01*
X148874941Y-116335007D01*
X148911248Y-116345668D01*
X148962189Y-116369422D01*
X149008356Y-116375500D01*
X149008363Y-116375500D01*
X149207637Y-116375500D01*
X149207644Y-116375500D01*
X149253811Y-116369422D01*
X149304751Y-116345668D01*
X149374939Y-116335007D01*
X149411246Y-116345667D01*
X149462189Y-116369422D01*
X149508356Y-116375500D01*
X149508363Y-116375500D01*
X149707637Y-116375500D01*
X149707644Y-116375500D01*
X149753811Y-116369422D01*
X149804750Y-116345668D01*
X149874941Y-116335007D01*
X149911248Y-116345668D01*
X149962189Y-116369422D01*
X150008356Y-116375500D01*
X150008363Y-116375500D01*
X150207637Y-116375500D01*
X150207644Y-116375500D01*
X150253811Y-116369422D01*
X150304751Y-116345668D01*
X150374939Y-116335007D01*
X150411246Y-116345667D01*
X150462189Y-116369422D01*
X150508356Y-116375500D01*
X150508363Y-116375500D01*
X150707637Y-116375500D01*
X150707644Y-116375500D01*
X150753811Y-116369422D01*
X150804750Y-116345668D01*
X150874941Y-116335007D01*
X150911248Y-116345668D01*
G37*
%TD.AperFunction*%
%TA.AperFunction,Conductor*%
G36*
X140043553Y-118707772D02*
G01*
X140013736Y-118838407D01*
X140023749Y-118972028D01*
X140072703Y-119096760D01*
X140096021Y-119126000D01*
X138288618Y-119126000D01*
X138340447Y-119036228D01*
X138370264Y-118905593D01*
X138360251Y-118771972D01*
X138311297Y-118647240D01*
X138287979Y-118618000D01*
X140095382Y-118618000D01*
X140043553Y-118707772D01*
G37*
%TD.AperFunction*%
%TA.AperFunction,Conductor*%
G36*
X140043553Y-113627772D02*
G01*
X140013736Y-113758407D01*
X140023749Y-113892028D01*
X140072703Y-114016760D01*
X140096021Y-114046000D01*
X138288618Y-114046000D01*
X138340447Y-113956228D01*
X138370264Y-113825593D01*
X138360251Y-113691972D01*
X138311297Y-113567240D01*
X138287979Y-113538000D01*
X140095382Y-113538000D01*
X140043553Y-113627772D01*
G37*
%TD.AperFunction*%
%TA.AperFunction,Conductor*%
G36*
X145092960Y-103275004D02*
G01*
X145221002Y-103314500D01*
X145321312Y-103314500D01*
X145420499Y-103299550D01*
X145541224Y-103241412D01*
X145542000Y-103240691D01*
X145542000Y-105045194D01*
X145483040Y-105004996D01*
X145354998Y-104965500D01*
X145254688Y-104965500D01*
X145155501Y-104980450D01*
X145034776Y-105038588D01*
X145034000Y-105039308D01*
X145034000Y-103234805D01*
X145092960Y-103275004D01*
G37*
%TD.AperFunction*%
%TA.AperFunction,Conductor*%
G36*
X150172960Y-103275004D02*
G01*
X150301002Y-103314500D01*
X150401312Y-103314500D01*
X150500499Y-103299550D01*
X150621224Y-103241412D01*
X150622000Y-103240691D01*
X150622000Y-105045194D01*
X150563040Y-105004996D01*
X150434998Y-104965500D01*
X150334688Y-104965500D01*
X150235501Y-104980450D01*
X150114776Y-105038588D01*
X150114000Y-105039308D01*
X150114000Y-103234805D01*
X150172960Y-103275004D01*
G37*
%TD.AperFunction*%
%TA.AperFunction,Conductor*%
G36*
X184607621Y-99834502D02*
G01*
X184654114Y-99888158D01*
X184665500Y-99940500D01*
X184665500Y-128659500D01*
X184645498Y-128727621D01*
X184591842Y-128774114D01*
X184539500Y-128785500D01*
X135500500Y-128785500D01*
X135432379Y-128765498D01*
X135385886Y-128711842D01*
X135374500Y-128659500D01*
X135374500Y-115787640D01*
X135635611Y-115787640D01*
X135639339Y-115839771D01*
X135639500Y-115844267D01*
X135639500Y-115860080D01*
X135641749Y-115875732D01*
X135642229Y-115880200D01*
X135645960Y-115932344D01*
X135647621Y-115936798D01*
X135654281Y-115962890D01*
X135654958Y-115967596D01*
X135676671Y-116015141D01*
X135678391Y-116019296D01*
X135696657Y-116068268D01*
X135696658Y-116068269D01*
X135699504Y-116072071D01*
X135713243Y-116095224D01*
X135715220Y-116099553D01*
X135715222Y-116099556D01*
X135715223Y-116099558D01*
X135749457Y-116139066D01*
X135752262Y-116142547D01*
X135761750Y-116155221D01*
X135761753Y-116155224D01*
X135772927Y-116166398D01*
X135775992Y-116169690D01*
X135799868Y-116197244D01*
X135810225Y-116209196D01*
X135814228Y-116211768D01*
X135835197Y-116228668D01*
X136247332Y-116640803D01*
X136264232Y-116661773D01*
X136266804Y-116665775D01*
X136266809Y-116665779D01*
X136306302Y-116700000D01*
X136309582Y-116703053D01*
X136320779Y-116714250D01*
X136320780Y-116714251D01*
X136333439Y-116723727D01*
X136336943Y-116726550D01*
X136376442Y-116760777D01*
X136380761Y-116762749D01*
X136403926Y-116776493D01*
X136407732Y-116779342D01*
X136407735Y-116779343D01*
X136407738Y-116779345D01*
X136456701Y-116797606D01*
X136460858Y-116799328D01*
X136508404Y-116821042D01*
X136513099Y-116821716D01*
X136539208Y-116828380D01*
X136543657Y-116830040D01*
X136554619Y-116830823D01*
X136595795Y-116833769D01*
X136600264Y-116834249D01*
X136615917Y-116836500D01*
X136631732Y-116836500D01*
X136636228Y-116836661D01*
X136654928Y-116837997D01*
X136688360Y-116840389D01*
X136693003Y-116839378D01*
X136719784Y-116836500D01*
X136779501Y-116836500D01*
X136847622Y-116856502D01*
X136894115Y-116910158D01*
X136905501Y-116962500D01*
X136905501Y-117119072D01*
X136920265Y-117193300D01*
X136976516Y-117277484D01*
X137060697Y-117333733D01*
X137060699Y-117333734D01*
X137134933Y-117348500D01*
X138709066Y-117348499D01*
X138709069Y-117348498D01*
X138709073Y-117348498D01*
X138758326Y-117338701D01*
X138783301Y-117333734D01*
X138867484Y-117277484D01*
X138923734Y-117193301D01*
X138938500Y-117119067D01*
X138938500Y-116962499D01*
X138958502Y-116894379D01*
X139012158Y-116847886D01*
X139064500Y-116836500D01*
X139319501Y-116836500D01*
X139387622Y-116856502D01*
X139434115Y-116910158D01*
X139445501Y-116962500D01*
X139445501Y-117119072D01*
X139460265Y-117193300D01*
X139516516Y-117277484D01*
X139600697Y-117333733D01*
X139600699Y-117333734D01*
X139674933Y-117348500D01*
X140738288Y-117348499D01*
X140797764Y-117365962D01*
X140798823Y-117364024D01*
X140801365Y-117365412D01*
X140803641Y-117367688D01*
X140806409Y-117368501D01*
X140813781Y-117373619D01*
X140813932Y-117373732D01*
X140812114Y-117376160D01*
X140851568Y-117415613D01*
X140866660Y-117484987D01*
X140841850Y-117551508D01*
X140785015Y-117594055D01*
X140740981Y-117602000D01*
X140716000Y-117602000D01*
X140716000Y-118507194D01*
X140657040Y-118466996D01*
X140528998Y-118427500D01*
X140428688Y-118427500D01*
X140329501Y-118442450D01*
X140208776Y-118500588D01*
X140208000Y-118501308D01*
X140208000Y-117602000D01*
X139651402Y-117602000D01*
X139590906Y-117608505D01*
X139454035Y-117659555D01*
X139454034Y-117659555D01*
X139337097Y-117747094D01*
X139292868Y-117806177D01*
X139236031Y-117848723D01*
X139165216Y-117853787D01*
X139102904Y-117819762D01*
X139091132Y-117806177D01*
X139046902Y-117747094D01*
X138929965Y-117659555D01*
X138793093Y-117608505D01*
X138732597Y-117602000D01*
X138176000Y-117602000D01*
X138176000Y-118507194D01*
X138117040Y-118466996D01*
X137988998Y-118427500D01*
X137888688Y-118427500D01*
X137789501Y-118442450D01*
X137668776Y-118500588D01*
X137668000Y-118501308D01*
X137668000Y-117602000D01*
X137111402Y-117602000D01*
X137050906Y-117608505D01*
X136914035Y-117659555D01*
X136914034Y-117659555D01*
X136797095Y-117747095D01*
X136709555Y-117864034D01*
X136709555Y-117864035D01*
X136658505Y-118000906D01*
X136652000Y-118061402D01*
X136652000Y-118618000D01*
X137555382Y-118618000D01*
X137503553Y-118707772D01*
X137473736Y-118838407D01*
X137483749Y-118972028D01*
X137532703Y-119096760D01*
X137556021Y-119126000D01*
X136652000Y-119126000D01*
X136652000Y-119682597D01*
X136658505Y-119743093D01*
X136709555Y-119879964D01*
X136709555Y-119879965D01*
X136797095Y-119996904D01*
X136914034Y-120084444D01*
X137050906Y-120135494D01*
X137111402Y-120141999D01*
X137111415Y-120142000D01*
X137668000Y-120142000D01*
X137668000Y-119236805D01*
X137726960Y-119277004D01*
X137855002Y-119316500D01*
X137955312Y-119316500D01*
X138054499Y-119301550D01*
X138175224Y-119243412D01*
X138176000Y-119242691D01*
X138176000Y-120142000D01*
X138732585Y-120142000D01*
X138732597Y-120141999D01*
X138793093Y-120135494D01*
X138929964Y-120084444D01*
X138929965Y-120084444D01*
X139046904Y-119996904D01*
X139091132Y-119937823D01*
X139147968Y-119895276D01*
X139218783Y-119890212D01*
X139281096Y-119924237D01*
X139292868Y-119937823D01*
X139337095Y-119996904D01*
X139454034Y-120084444D01*
X139590906Y-120135494D01*
X139651402Y-120141999D01*
X139651415Y-120142000D01*
X140208000Y-120142000D01*
X140208000Y-119236805D01*
X140266960Y-119277004D01*
X140395002Y-119316500D01*
X140495312Y-119316500D01*
X140594499Y-119301550D01*
X140715224Y-119243412D01*
X140716000Y-119242691D01*
X140716000Y-120142000D01*
X141272585Y-120142000D01*
X141272597Y-120141999D01*
X141333093Y-120135494D01*
X141469964Y-120084444D01*
X141469965Y-120084444D01*
X141586904Y-119996904D01*
X141674444Y-119879965D01*
X141674444Y-119879964D01*
X141725494Y-119743093D01*
X141731999Y-119682597D01*
X141732000Y-119682585D01*
X141732000Y-119126000D01*
X140828618Y-119126000D01*
X140880447Y-119036228D01*
X140910264Y-118905593D01*
X140900251Y-118771972D01*
X140851297Y-118647240D01*
X140827979Y-118618000D01*
X141732000Y-118618000D01*
X141732000Y-118061414D01*
X141731999Y-118061402D01*
X141725494Y-118000906D01*
X141674444Y-117864035D01*
X141674444Y-117864034D01*
X141586904Y-117747095D01*
X141462748Y-117654153D01*
X141464426Y-117651911D01*
X141424401Y-117611886D01*
X141409309Y-117542512D01*
X141434120Y-117475991D01*
X141490955Y-117433444D01*
X141534988Y-117425500D01*
X142586712Y-117425500D01*
X142654833Y-117445502D01*
X142701326Y-117499158D01*
X142708221Y-117518161D01*
X142712549Y-117533935D01*
X142716089Y-117540152D01*
X142732415Y-117609246D01*
X142708795Y-117676198D01*
X142652727Y-117719751D01*
X142606597Y-117728500D01*
X142434436Y-117728500D01*
X142434426Y-117728501D01*
X142360199Y-117743265D01*
X142276015Y-117799516D01*
X142219766Y-117883697D01*
X142205000Y-117957930D01*
X142205000Y-118897063D01*
X142205001Y-118897073D01*
X142219765Y-118971300D01*
X142276016Y-119055484D01*
X142360197Y-119111733D01*
X142360199Y-119111734D01*
X142434433Y-119126500D01*
X143881566Y-119126499D01*
X143881569Y-119126498D01*
X143881573Y-119126498D01*
X143930826Y-119116701D01*
X143955801Y-119111734D01*
X144039984Y-119055484D01*
X144096234Y-118971301D01*
X144111000Y-118897067D01*
X144110999Y-118401499D01*
X144131001Y-118333379D01*
X144184656Y-118286886D01*
X144236999Y-118275500D01*
X147452313Y-118275500D01*
X147520434Y-118295502D01*
X147566927Y-118349158D01*
X147577031Y-118419432D01*
X147547537Y-118484012D01*
X147495451Y-118517485D01*
X147495926Y-118518504D01*
X147488422Y-118522002D01*
X147487811Y-118522396D01*
X147487572Y-118522466D01*
X147487191Y-118522576D01*
X147385868Y-118569824D01*
X147306824Y-118648868D01*
X147259577Y-118750190D01*
X147253500Y-118796351D01*
X147253500Y-118974115D01*
X147233498Y-119042236D01*
X147216595Y-119063210D01*
X146075211Y-120204595D01*
X146012899Y-120238620D01*
X145986116Y-120241500D01*
X145873777Y-120241500D01*
X145805656Y-120221498D01*
X145759163Y-120167842D01*
X145755722Y-120159533D01*
X145737093Y-120109589D01*
X145731758Y-120095285D01*
X145708781Y-120064591D01*
X145646974Y-119982025D01*
X145533718Y-119897244D01*
X145533714Y-119897241D01*
X145401160Y-119847800D01*
X145401152Y-119847798D01*
X145342560Y-119841500D01*
X144773451Y-119841500D01*
X144773427Y-119841502D01*
X144714848Y-119847798D01*
X144668828Y-119864962D01*
X144582285Y-119897242D01*
X144582284Y-119897242D01*
X144582283Y-119897243D01*
X144582282Y-119897244D01*
X144546224Y-119924237D01*
X144541372Y-119927869D01*
X144474852Y-119952679D01*
X144465864Y-119953000D01*
X144232320Y-119953000D01*
X144164199Y-119932998D01*
X144117706Y-119879342D01*
X144108741Y-119851580D01*
X144096234Y-119788699D01*
X144096233Y-119788697D01*
X144039984Y-119704516D01*
X144039983Y-119704515D01*
X143955802Y-119648266D01*
X143881567Y-119633500D01*
X142434436Y-119633500D01*
X142434426Y-119633501D01*
X142360199Y-119648265D01*
X142276015Y-119704516D01*
X142219766Y-119788697D01*
X142205000Y-119862930D01*
X142205000Y-120802063D01*
X142205001Y-120802073D01*
X142219765Y-120876300D01*
X142276016Y-120960484D01*
X142360197Y-121016733D01*
X142360199Y-121016734D01*
X142434433Y-121031500D01*
X143881566Y-121031499D01*
X143881569Y-121031498D01*
X143881573Y-121031498D01*
X143930826Y-121021701D01*
X143955801Y-121016734D01*
X144039984Y-120960484D01*
X144072247Y-120912200D01*
X144097737Y-120874053D01*
X144152214Y-120828526D01*
X144222657Y-120819679D01*
X144286701Y-120850320D01*
X144324012Y-120910722D01*
X144328501Y-120944056D01*
X144328501Y-120955548D01*
X144328502Y-120955572D01*
X144334798Y-121014151D01*
X144334799Y-121014156D01*
X144334800Y-121014157D01*
X144384242Y-121146715D01*
X144384243Y-121146716D01*
X144384244Y-121146719D01*
X144469025Y-121259974D01*
X144582281Y-121344755D01*
X144582285Y-121344758D01*
X144714839Y-121394199D01*
X144714847Y-121394201D01*
X144744142Y-121397350D01*
X144773443Y-121400500D01*
X145342556Y-121400499D01*
X145368408Y-121397720D01*
X145401151Y-121394201D01*
X145401152Y-121394200D01*
X145401157Y-121394200D01*
X145533715Y-121344758D01*
X145646974Y-121259974D01*
X145731758Y-121146715D01*
X145749082Y-121100268D01*
X145755722Y-121082467D01*
X145798269Y-121025631D01*
X145864789Y-121000821D01*
X145873777Y-121000500D01*
X146143073Y-121000500D01*
X146168931Y-121003181D01*
X146179600Y-121005419D01*
X146215183Y-121000983D01*
X146222974Y-121000500D01*
X146226936Y-121000500D01*
X146226943Y-121000500D01*
X146248950Y-120996826D01*
X146251490Y-120996457D01*
X146305283Y-120989752D01*
X146305284Y-120989751D01*
X146305288Y-120989751D01*
X146312886Y-120987488D01*
X146320423Y-120984901D01*
X146320423Y-120984900D01*
X146320427Y-120984900D01*
X146368068Y-120959116D01*
X146370352Y-120957940D01*
X146419068Y-120934126D01*
X146419070Y-120934123D01*
X146425518Y-120929520D01*
X146431812Y-120924620D01*
X146431816Y-120924619D01*
X146468532Y-120884733D01*
X146470291Y-120882901D01*
X148013407Y-119339786D01*
X148075717Y-119305762D01*
X148146533Y-119310827D01*
X148203368Y-119353374D01*
X148228179Y-119419894D01*
X148228500Y-119428883D01*
X148228500Y-120230133D01*
X148208498Y-120298254D01*
X148191595Y-120319228D01*
X147960217Y-120550607D01*
X147957759Y-120553064D01*
X147895440Y-120587076D01*
X147885129Y-120588872D01*
X147756766Y-120605771D01*
X147707839Y-120626038D01*
X147621877Y-120661645D01*
X147621876Y-120661646D01*
X147621875Y-120661646D01*
X147506045Y-120750526D01*
X147417165Y-120866356D01*
X147417164Y-120866358D01*
X147398174Y-120912204D01*
X147361290Y-121001247D01*
X147342234Y-121145999D01*
X147342234Y-121146000D01*
X147361290Y-121290752D01*
X147417163Y-121425641D01*
X147417168Y-121425649D01*
X147506044Y-121541474D01*
X147607818Y-121619568D01*
X147621876Y-121630355D01*
X147756765Y-121686228D01*
X147901519Y-121705285D01*
X148046273Y-121686228D01*
X148181162Y-121630355D01*
X148296993Y-121541474D01*
X148385874Y-121425643D01*
X148441747Y-121290754D01*
X148458646Y-121162387D01*
X148487368Y-121097462D01*
X148494460Y-121089752D01*
X148839278Y-120744933D01*
X148859456Y-120728548D01*
X148868582Y-120722587D01*
X148890607Y-120694288D01*
X148895775Y-120688436D01*
X148898580Y-120685633D01*
X148911565Y-120667444D01*
X148913059Y-120665439D01*
X148946375Y-120622638D01*
X148946376Y-120622636D01*
X148950156Y-120615650D01*
X148953649Y-120608503D01*
X148953653Y-120608499D01*
X148969120Y-120556540D01*
X148969884Y-120554156D01*
X148983328Y-120514995D01*
X149024369Y-120457062D01*
X149090214Y-120430513D01*
X149159961Y-120443778D01*
X149211464Y-120492645D01*
X149228500Y-120555913D01*
X149228500Y-122775615D01*
X149208498Y-122843736D01*
X149191595Y-122864710D01*
X147537709Y-124518595D01*
X147475397Y-124552621D01*
X147448614Y-124555500D01*
X146973451Y-124555500D01*
X146973427Y-124555502D01*
X146914848Y-124561798D01*
X146782280Y-124611244D01*
X146669025Y-124696025D01*
X146584244Y-124809281D01*
X146584241Y-124809285D01*
X146534800Y-124941839D01*
X146534798Y-124941847D01*
X146528500Y-125000431D01*
X146528500Y-125669548D01*
X146528502Y-125669572D01*
X146534798Y-125728151D01*
X146534799Y-125728156D01*
X146534800Y-125728157D01*
X146584242Y-125860715D01*
X146584243Y-125860716D01*
X146584244Y-125860719D01*
X146669025Y-125973974D01*
X146782281Y-126058755D01*
X146782285Y-126058758D01*
X146914839Y-126108199D01*
X146914847Y-126108201D01*
X146944142Y-126111350D01*
X146973443Y-126114500D01*
X147525377Y-126114499D01*
X147561297Y-126119727D01*
X147565975Y-126121119D01*
X147568361Y-126121883D01*
X147619673Y-126139500D01*
X147619679Y-126139500D01*
X147627511Y-126140807D01*
X147635409Y-126141791D01*
X147635410Y-126141792D01*
X147635410Y-126141791D01*
X147635411Y-126141792D01*
X147644207Y-126141428D01*
X147689535Y-126139553D01*
X147692129Y-126139500D01*
X148608929Y-126139500D01*
X148657149Y-126149092D01*
X148658696Y-126149732D01*
X148658699Y-126149734D01*
X148732933Y-126164500D01*
X149633066Y-126164499D01*
X149702920Y-126150605D01*
X149773633Y-126156933D01*
X149829700Y-126200488D01*
X149853319Y-126267441D01*
X149853500Y-126274184D01*
X149853500Y-126985063D01*
X149853501Y-126985073D01*
X149868265Y-127059300D01*
X149924516Y-127143484D01*
X150008697Y-127199733D01*
X150008699Y-127199734D01*
X150082933Y-127214500D01*
X150983066Y-127214499D01*
X150983069Y-127214498D01*
X150983073Y-127214498D01*
X151032326Y-127204701D01*
X151057301Y-127199734D01*
X151141484Y-127143484D01*
X151197734Y-127059301D01*
X151212500Y-126985067D01*
X151212500Y-126865500D01*
X151232502Y-126797379D01*
X151286158Y-126750886D01*
X151338500Y-126739500D01*
X152005573Y-126739500D01*
X152031431Y-126742181D01*
X152042100Y-126744419D01*
X152077683Y-126739983D01*
X152085474Y-126739500D01*
X152089436Y-126739500D01*
X152089443Y-126739500D01*
X152111450Y-126735826D01*
X152113990Y-126735457D01*
X152167783Y-126728752D01*
X152167784Y-126728751D01*
X152167788Y-126728751D01*
X152175386Y-126726488D01*
X152182923Y-126723901D01*
X152182923Y-126723900D01*
X152182927Y-126723900D01*
X152230568Y-126698116D01*
X152232852Y-126696940D01*
X152281568Y-126673126D01*
X152281570Y-126673123D01*
X152288018Y-126668520D01*
X152294312Y-126663620D01*
X152294316Y-126663619D01*
X152331032Y-126623733D01*
X152332767Y-126621925D01*
X152689276Y-126265416D01*
X152709453Y-126249031D01*
X152718582Y-126243068D01*
X152740607Y-126214769D01*
X152745775Y-126208917D01*
X152748580Y-126206114D01*
X152761565Y-126187925D01*
X152763059Y-126185920D01*
X152796375Y-126143119D01*
X152796375Y-126143118D01*
X152802790Y-126134877D01*
X152803799Y-126135663D01*
X152846355Y-126092783D01*
X152863121Y-126085088D01*
X152933715Y-126058758D01*
X153046974Y-125973974D01*
X153131758Y-125860715D01*
X153181200Y-125728157D01*
X153187499Y-125669572D01*
X153187499Y-125669568D01*
X153187499Y-125669566D01*
X153187500Y-125669557D01*
X153187499Y-125000444D01*
X153181200Y-124941847D01*
X153181200Y-124941846D01*
X153181200Y-124941843D01*
X153131758Y-124809285D01*
X153131755Y-124809281D01*
X153131755Y-124809280D01*
X153046974Y-124696025D01*
X152933718Y-124611244D01*
X152933714Y-124611241D01*
X152801160Y-124561800D01*
X152801152Y-124561798D01*
X152742568Y-124555500D01*
X152742557Y-124555500D01*
X152267384Y-124555500D01*
X152199263Y-124535498D01*
X152178289Y-124518595D01*
X150524405Y-122864711D01*
X150490379Y-122802399D01*
X150487500Y-122775616D01*
X150487500Y-120515628D01*
X150507502Y-120447507D01*
X150561158Y-120401014D01*
X150631432Y-120390910D01*
X150696012Y-120420404D01*
X150734396Y-120480130D01*
X150738532Y-120500042D01*
X150739247Y-120505781D01*
X150741517Y-120513406D01*
X150744099Y-120520927D01*
X150769875Y-120568556D01*
X150771065Y-120570869D01*
X150787108Y-120603683D01*
X150794874Y-120619568D01*
X150794875Y-120619569D01*
X150799493Y-120626038D01*
X150804376Y-120632312D01*
X150844242Y-120669011D01*
X150846096Y-120670790D01*
X151058182Y-120882876D01*
X151265045Y-121089739D01*
X151299071Y-121152051D01*
X151300872Y-121162387D01*
X151317771Y-121290752D01*
X151373644Y-121425641D01*
X151373649Y-121425649D01*
X151462525Y-121541474D01*
X151564299Y-121619568D01*
X151578357Y-121630355D01*
X151713246Y-121686228D01*
X151858000Y-121705285D01*
X152002754Y-121686228D01*
X152137643Y-121630355D01*
X152253474Y-121541474D01*
X152342355Y-121425643D01*
X152398228Y-121290754D01*
X152417285Y-121146000D01*
X152415383Y-121131556D01*
X152398228Y-121001247D01*
X152397919Y-121000500D01*
X152342355Y-120866358D01*
X152253474Y-120750526D01*
X152253472Y-120750524D01*
X152253471Y-120750523D01*
X152137649Y-120661649D01*
X152137641Y-120661644D01*
X152002752Y-120605771D01*
X151874387Y-120588872D01*
X151809460Y-120560149D01*
X151801739Y-120553045D01*
X151524405Y-120275711D01*
X151490379Y-120213399D01*
X151487500Y-120186616D01*
X151487500Y-119611732D01*
X151507502Y-119543611D01*
X151561158Y-119497118D01*
X151631432Y-119487014D01*
X151696012Y-119516508D01*
X151702591Y-119522633D01*
X152660087Y-120480130D01*
X152960861Y-120780904D01*
X152973004Y-120791812D01*
X152973016Y-120791822D01*
X152973027Y-120791832D01*
X152973036Y-120791839D01*
X153000347Y-120813849D01*
X153000370Y-120813867D01*
X153005923Y-120818238D01*
X153106000Y-120869123D01*
X153174121Y-120889125D01*
X153174130Y-120889126D01*
X153174133Y-120889127D01*
X153260183Y-120901499D01*
X153260188Y-120901500D01*
X153260190Y-120901500D01*
X153709915Y-120901500D01*
X153709935Y-120901500D01*
X153719314Y-120901212D01*
X153719359Y-120901209D01*
X153719365Y-120901209D01*
X153739420Y-120899976D01*
X153739422Y-120899975D01*
X153739428Y-120899975D01*
X153841993Y-120875429D01*
X153907152Y-120847235D01*
X153907154Y-120847233D01*
X153910068Y-120845973D01*
X153910559Y-120847110D01*
X153960331Y-120835500D01*
X155422182Y-120835500D01*
X155490303Y-120855502D01*
X155536796Y-120909158D01*
X155546900Y-120979432D01*
X155517406Y-121044012D01*
X155489340Y-121066629D01*
X155489499Y-121066841D01*
X155483578Y-121071272D01*
X155482566Y-121072089D01*
X155482279Y-121072245D01*
X155369025Y-121157025D01*
X155284244Y-121270281D01*
X155284241Y-121270285D01*
X155234800Y-121402839D01*
X155234798Y-121402847D01*
X155228500Y-121461431D01*
X155228500Y-122030548D01*
X155228502Y-122030572D01*
X155234798Y-122089151D01*
X155234799Y-122089156D01*
X155234800Y-122089157D01*
X155284242Y-122221715D01*
X155284243Y-122221716D01*
X155284244Y-122221719D01*
X155369025Y-122334973D01*
X155369026Y-122334974D01*
X155453009Y-122397842D01*
X155495555Y-122454677D01*
X155503500Y-122498710D01*
X155503500Y-122693288D01*
X155483498Y-122761409D01*
X155453010Y-122794156D01*
X155369024Y-122857027D01*
X155284244Y-122970281D01*
X155284241Y-122970285D01*
X155234800Y-123102839D01*
X155234798Y-123102847D01*
X155228500Y-123161431D01*
X155228500Y-123730548D01*
X155228502Y-123730572D01*
X155234798Y-123789151D01*
X155234799Y-123789156D01*
X155234800Y-123789157D01*
X155284242Y-123921715D01*
X155284243Y-123921716D01*
X155284244Y-123921719D01*
X155369025Y-124034974D01*
X155482281Y-124119755D01*
X155482285Y-124119758D01*
X155614839Y-124169199D01*
X155614847Y-124169201D01*
X155644142Y-124172350D01*
X155673443Y-124175500D01*
X156342556Y-124175499D01*
X156368408Y-124172720D01*
X156401151Y-124169201D01*
X156401152Y-124169200D01*
X156401157Y-124169200D01*
X156533715Y-124119758D01*
X156646974Y-124034974D01*
X156731758Y-123921715D01*
X156781200Y-123789157D01*
X156787499Y-123730572D01*
X156787499Y-123730568D01*
X156787499Y-123730566D01*
X156787500Y-123730557D01*
X156787499Y-123161444D01*
X156781200Y-123102847D01*
X156781200Y-123102846D01*
X156781200Y-123102843D01*
X156731758Y-122970285D01*
X156731755Y-122970281D01*
X156731755Y-122970280D01*
X156646975Y-122857027D01*
X156629220Y-122843736D01*
X156627428Y-122842394D01*
X156562990Y-122794156D01*
X156520444Y-122737320D01*
X156512500Y-122693288D01*
X156512500Y-122498710D01*
X156532502Y-122430589D01*
X156562989Y-122397843D01*
X156646974Y-122334974D01*
X156731758Y-122221715D01*
X156781200Y-122089157D01*
X156783852Y-122064497D01*
X156787499Y-122030568D01*
X156787499Y-122030566D01*
X156787500Y-122030557D01*
X156787499Y-121461444D01*
X156781200Y-121402843D01*
X156771363Y-121376469D01*
X156766296Y-121359213D01*
X156765378Y-121354992D01*
X156762500Y-121328215D01*
X156762500Y-120742643D01*
X156776232Y-120685442D01*
X156817590Y-120604273D01*
X156832500Y-120510137D01*
X156832499Y-120151864D01*
X156828046Y-120123747D01*
X156837146Y-120053337D01*
X156882869Y-119999024D01*
X156950698Y-119978052D01*
X157019097Y-119997080D01*
X157066350Y-120050067D01*
X157070543Y-120059988D01*
X157084242Y-120096715D01*
X157084243Y-120096716D01*
X157084244Y-120096719D01*
X157169025Y-120209974D01*
X157282281Y-120294755D01*
X157282285Y-120294758D01*
X157414839Y-120344199D01*
X157414847Y-120344201D01*
X157444142Y-120347350D01*
X157473443Y-120350500D01*
X158042556Y-120350499D01*
X158068408Y-120347720D01*
X158101151Y-120344201D01*
X158101152Y-120344200D01*
X158101157Y-120344200D01*
X158233715Y-120294758D01*
X158346974Y-120209974D01*
X158356057Y-120197841D01*
X158409843Y-120125991D01*
X158466678Y-120083444D01*
X158510711Y-120075500D01*
X158636433Y-120075500D01*
X158704554Y-120095502D01*
X158737301Y-120125991D01*
X158742059Y-120132347D01*
X158744026Y-120134974D01*
X158828009Y-120197842D01*
X158870555Y-120254677D01*
X158878500Y-120298710D01*
X158878500Y-120788215D01*
X158875621Y-120814994D01*
X158874611Y-120819635D01*
X158874611Y-120819640D01*
X158878339Y-120871771D01*
X158878500Y-120876266D01*
X158878500Y-120892083D01*
X158880038Y-120902786D01*
X158880749Y-120907732D01*
X158881229Y-120912200D01*
X158884960Y-120964344D01*
X158886621Y-120968798D01*
X158893281Y-120994890D01*
X158893529Y-120996616D01*
X158893958Y-120999596D01*
X158908528Y-121031500D01*
X158915671Y-121047141D01*
X158917391Y-121051296D01*
X158935657Y-121100268D01*
X158935658Y-121100269D01*
X158938504Y-121104071D01*
X158952243Y-121127224D01*
X158954220Y-121131553D01*
X158954222Y-121131556D01*
X158954223Y-121131558D01*
X158988457Y-121171066D01*
X158991262Y-121174547D01*
X159000750Y-121187221D01*
X159000753Y-121187224D01*
X159011927Y-121198398D01*
X159014992Y-121201690D01*
X159049223Y-121241194D01*
X159049225Y-121241196D01*
X159053228Y-121243768D01*
X159074197Y-121260668D01*
X159187200Y-121373671D01*
X159221226Y-121435983D01*
X159222595Y-121445268D01*
X159222727Y-121445248D01*
X159238409Y-121544272D01*
X159296221Y-121657736D01*
X159386263Y-121747778D01*
X159386262Y-121747778D01*
X159499723Y-121805588D01*
X159499727Y-121805590D01*
X159593863Y-121820500D01*
X159952136Y-121820499D01*
X160046273Y-121805590D01*
X160159735Y-121747779D01*
X160159736Y-121747778D01*
X160168905Y-121738610D01*
X160231217Y-121704584D01*
X160302032Y-121709649D01*
X160347095Y-121738610D01*
X160356263Y-121747778D01*
X160356262Y-121747778D01*
X160469723Y-121805588D01*
X160469727Y-121805590D01*
X160563863Y-121820500D01*
X160922136Y-121820499D01*
X161016273Y-121805590D01*
X161129735Y-121747779D01*
X161219779Y-121657735D01*
X161277590Y-121544273D01*
X161292500Y-121450137D01*
X161292499Y-121450133D01*
X161293274Y-121445247D01*
X161295090Y-121445534D01*
X161317545Y-121386567D01*
X161328793Y-121373676D01*
X161441804Y-121260665D01*
X161462780Y-121243763D01*
X161466775Y-121241196D01*
X161501009Y-121201686D01*
X161504062Y-121198408D01*
X161504072Y-121198398D01*
X161515250Y-121187221D01*
X161524742Y-121174540D01*
X161527524Y-121171087D01*
X161561777Y-121131558D01*
X161563750Y-121127236D01*
X161577497Y-121104066D01*
X161580342Y-121100267D01*
X161598611Y-121051281D01*
X161600311Y-121047176D01*
X161622042Y-120999596D01*
X161622717Y-120994896D01*
X161629384Y-120968780D01*
X161631040Y-120964341D01*
X161631499Y-120957931D01*
X161633201Y-120934123D01*
X161634769Y-120912204D01*
X161635250Y-120907732D01*
X161637500Y-120892083D01*
X161637500Y-120876266D01*
X161637661Y-120871771D01*
X161641389Y-120819640D01*
X161641388Y-120819635D01*
X161640379Y-120814994D01*
X161637500Y-120788215D01*
X161637500Y-120298710D01*
X161657502Y-120230589D01*
X161687989Y-120197843D01*
X161771974Y-120134974D01*
X161797412Y-120100991D01*
X161854247Y-120058445D01*
X161898281Y-120050500D01*
X162109699Y-120050500D01*
X162177820Y-120070502D01*
X162210567Y-120100991D01*
X162220066Y-120113680D01*
X162225826Y-120121374D01*
X162309809Y-120184242D01*
X162352355Y-120241077D01*
X162360300Y-120285110D01*
X162360300Y-120444660D01*
X162340298Y-120512781D01*
X162289922Y-120556431D01*
X162290192Y-120556924D01*
X162287926Y-120558161D01*
X162286642Y-120559274D01*
X162283517Y-120560568D01*
X162282284Y-120561241D01*
X162169025Y-120646025D01*
X162084244Y-120759281D01*
X162084241Y-120759285D01*
X162034800Y-120891839D01*
X162034798Y-120891847D01*
X162028500Y-120950431D01*
X162028500Y-121619548D01*
X162028502Y-121619572D01*
X162034798Y-121678151D01*
X162034799Y-121678156D01*
X162034800Y-121678157D01*
X162084242Y-121810715D01*
X162084243Y-121810716D01*
X162084244Y-121810719D01*
X162169025Y-121923974D01*
X162282281Y-122008755D01*
X162282285Y-122008758D01*
X162414839Y-122058199D01*
X162414847Y-122058201D01*
X162444142Y-122061350D01*
X162473443Y-122064500D01*
X163042556Y-122064499D01*
X163068408Y-122061720D01*
X163101151Y-122058201D01*
X163101152Y-122058200D01*
X163101157Y-122058200D01*
X163233715Y-122008758D01*
X163346974Y-121923974D01*
X163431758Y-121810715D01*
X163481200Y-121678157D01*
X163483396Y-121657736D01*
X163487499Y-121619568D01*
X163487499Y-121619566D01*
X163487500Y-121619557D01*
X163487499Y-120950444D01*
X163483388Y-120912200D01*
X163481201Y-120891848D01*
X163481200Y-120891846D01*
X163481200Y-120891843D01*
X163431758Y-120759285D01*
X163396656Y-120712394D01*
X163394431Y-120709421D01*
X163369621Y-120642900D01*
X163369300Y-120633913D01*
X163369300Y-120285110D01*
X163389302Y-120216989D01*
X163419789Y-120184243D01*
X163503774Y-120121374D01*
X163512598Y-120109585D01*
X163569429Y-120067041D01*
X163615633Y-120059114D01*
X163871609Y-120063527D01*
X163939375Y-120084700D01*
X163970306Y-120114000D01*
X163975826Y-120121374D01*
X164089081Y-120206155D01*
X164089085Y-120206158D01*
X164221639Y-120255599D01*
X164221647Y-120255601D01*
X164250942Y-120258750D01*
X164280243Y-120261900D01*
X164588058Y-120261899D01*
X164656178Y-120281901D01*
X164670565Y-120292670D01*
X164671842Y-120293777D01*
X164676161Y-120295749D01*
X164699326Y-120309493D01*
X164703132Y-120312342D01*
X164746861Y-120328652D01*
X164752105Y-120330608D01*
X164756249Y-120332324D01*
X164803804Y-120354042D01*
X164808501Y-120354717D01*
X164834609Y-120361380D01*
X164839058Y-120363040D01*
X164891215Y-120366770D01*
X164895638Y-120367245D01*
X164911317Y-120369500D01*
X164927132Y-120369500D01*
X164931628Y-120369661D01*
X164950328Y-120370997D01*
X164983760Y-120373389D01*
X164988403Y-120372378D01*
X165015184Y-120369500D01*
X165830022Y-120369500D01*
X165887223Y-120383232D01*
X165919327Y-120399590D01*
X166013463Y-120414500D01*
X166421736Y-120414499D01*
X166515873Y-120399590D01*
X166629335Y-120341779D01*
X166719379Y-120251735D01*
X166753910Y-120183962D01*
X166802657Y-120132347D01*
X166868348Y-120115184D01*
X168547526Y-120144130D01*
X168655999Y-120146000D01*
X168655999Y-120145999D01*
X168656000Y-120146000D01*
X168656000Y-119775660D01*
X168676002Y-119707539D01*
X168706492Y-119674791D01*
X168736974Y-119651974D01*
X168821758Y-119538715D01*
X168871200Y-119406157D01*
X168877500Y-119347557D01*
X168877499Y-118678444D01*
X168871200Y-118619843D01*
X168821758Y-118487285D01*
X168821755Y-118487281D01*
X168821755Y-118487280D01*
X168736974Y-118374025D01*
X168623718Y-118289244D01*
X168623714Y-118289241D01*
X168491160Y-118239800D01*
X168491152Y-118239798D01*
X168432560Y-118233500D01*
X167863451Y-118233500D01*
X167863427Y-118233502D01*
X167804848Y-118239798D01*
X167796711Y-118242833D01*
X167709129Y-118275500D01*
X167672280Y-118289244D01*
X167570591Y-118365368D01*
X167504070Y-118390179D01*
X167495082Y-118390500D01*
X166605178Y-118390500D01*
X166547976Y-118376767D01*
X166525604Y-118365368D01*
X166515874Y-118360410D01*
X166492339Y-118356682D01*
X166421737Y-118345500D01*
X166421734Y-118345500D01*
X166384425Y-118345500D01*
X166316304Y-118325498D01*
X166269811Y-118271842D01*
X166268018Y-118267723D01*
X166216608Y-118143621D01*
X166210500Y-118124823D01*
X166171460Y-117962229D01*
X166168367Y-117942701D01*
X166163722Y-117883697D01*
X166154693Y-117769014D01*
X166154500Y-117764086D01*
X166154500Y-117351252D01*
X166174502Y-117283131D01*
X166175670Y-117281348D01*
X166189734Y-117260301D01*
X166204500Y-117186067D01*
X166204499Y-116485934D01*
X166204498Y-116485927D01*
X166204498Y-116485926D01*
X166189734Y-116411699D01*
X166178764Y-116395281D01*
X166133484Y-116327516D01*
X166133483Y-116327515D01*
X166049302Y-116271266D01*
X165975068Y-116256500D01*
X165524936Y-116256500D01*
X165524926Y-116256501D01*
X165450699Y-116271265D01*
X165366515Y-116327516D01*
X165310266Y-116411697D01*
X165295500Y-116485930D01*
X165295500Y-117186063D01*
X165295501Y-117186073D01*
X165310266Y-117260301D01*
X165310265Y-117260301D01*
X165324263Y-117281248D01*
X165345480Y-117349000D01*
X165345500Y-117351253D01*
X165345500Y-117703374D01*
X165345498Y-117703404D01*
X165345498Y-117713925D01*
X165345465Y-117714037D01*
X165345468Y-117878521D01*
X165370637Y-118101850D01*
X165370639Y-118101858D01*
X165420656Y-118320966D01*
X165463170Y-118442450D01*
X165494891Y-118533094D01*
X165494897Y-118533106D01*
X165510415Y-118565327D01*
X165521953Y-118635379D01*
X165493786Y-118700549D01*
X165434856Y-118740145D01*
X165396895Y-118746000D01*
X154242244Y-118746000D01*
X154174123Y-118725998D01*
X154147020Y-118702512D01*
X154133382Y-118686774D01*
X154130559Y-118683271D01*
X154121083Y-118670612D01*
X154121082Y-118670611D01*
X154109885Y-118659414D01*
X154106832Y-118656134D01*
X154100536Y-118648868D01*
X154072607Y-118616636D01*
X154068605Y-118614064D01*
X154047635Y-118597164D01*
X153990230Y-118539759D01*
X153956204Y-118477447D01*
X153961269Y-118406632D01*
X154003816Y-118349796D01*
X154046713Y-118328958D01*
X154076494Y-118320980D01*
X154076499Y-118320977D01*
X154076502Y-118320977D01*
X154153125Y-118289241D01*
X154265177Y-118242831D01*
X154281340Y-118233500D01*
X154403554Y-118162942D01*
X154442045Y-118140720D01*
X154604072Y-118016397D01*
X154645698Y-117974769D01*
X154645709Y-117974760D01*
X154650760Y-117969708D01*
X154650766Y-117969705D01*
X155090279Y-117530190D01*
X155090284Y-117530187D01*
X155100651Y-117519819D01*
X155100653Y-117519819D01*
X155130021Y-117490450D01*
X155145868Y-117474601D01*
X155149475Y-117471267D01*
X155277515Y-117361905D01*
X155293502Y-117350289D01*
X155430715Y-117266202D01*
X155448321Y-117257231D01*
X155596986Y-117195649D01*
X155615780Y-117189541D01*
X155673756Y-117175621D01*
X155722874Y-117173691D01*
X155765863Y-117180500D01*
X156174136Y-117180499D01*
X156268273Y-117165590D01*
X156300375Y-117149233D01*
X156357578Y-117135500D01*
X156630628Y-117135500D01*
X156635573Y-117135694D01*
X156739387Y-117143865D01*
X156805728Y-117169151D01*
X156847867Y-117226289D01*
X156855500Y-117269475D01*
X156855500Y-117330547D01*
X156855502Y-117330572D01*
X156861798Y-117389151D01*
X156861799Y-117389156D01*
X156861800Y-117389157D01*
X156911242Y-117521715D01*
X156911243Y-117521716D01*
X156911244Y-117521719D01*
X156996025Y-117634974D01*
X157109281Y-117719755D01*
X157109285Y-117719758D01*
X157241839Y-117769199D01*
X157241847Y-117769201D01*
X157271142Y-117772350D01*
X157300443Y-117775500D01*
X157969556Y-117775499D01*
X157995408Y-117772720D01*
X158028151Y-117769201D01*
X158028152Y-117769200D01*
X158028157Y-117769200D01*
X158160715Y-117719758D01*
X158273974Y-117634974D01*
X158358758Y-117521715D01*
X158391945Y-117432735D01*
X158434491Y-117375903D01*
X158501012Y-117351092D01*
X158570386Y-117366184D01*
X158620588Y-117416386D01*
X158628050Y-117432726D01*
X158661242Y-117521715D01*
X158661243Y-117521716D01*
X158661244Y-117521719D01*
X158746025Y-117634974D01*
X158859281Y-117719755D01*
X158859285Y-117719758D01*
X158991839Y-117769199D01*
X158991847Y-117769201D01*
X159021142Y-117772350D01*
X159050443Y-117775500D01*
X159719556Y-117775499D01*
X159745408Y-117772720D01*
X159778151Y-117769201D01*
X159778152Y-117769200D01*
X159778157Y-117769200D01*
X159910715Y-117719758D01*
X160023974Y-117634974D01*
X160108758Y-117521715D01*
X160121905Y-117486464D01*
X160164451Y-117429632D01*
X160230972Y-117404821D01*
X160239960Y-117404500D01*
X160743715Y-117404500D01*
X160811836Y-117424502D01*
X160858329Y-117478158D01*
X160861770Y-117486467D01*
X160884241Y-117546713D01*
X160884244Y-117546718D01*
X160969025Y-117659974D01*
X161082281Y-117744755D01*
X161082285Y-117744758D01*
X161214839Y-117794199D01*
X161214847Y-117794201D01*
X161244142Y-117797350D01*
X161273443Y-117800500D01*
X161842556Y-117800499D01*
X161868408Y-117797720D01*
X161901151Y-117794201D01*
X161901152Y-117794200D01*
X161901157Y-117794200D01*
X162033715Y-117744758D01*
X162146974Y-117659974D01*
X162231758Y-117546715D01*
X162259307Y-117472853D01*
X162278101Y-117422467D01*
X162320648Y-117365631D01*
X162387168Y-117340821D01*
X162396156Y-117340500D01*
X164022331Y-117340500D01*
X164090452Y-117360502D01*
X164092314Y-117361722D01*
X164150699Y-117400734D01*
X164224933Y-117415500D01*
X164675066Y-117415499D01*
X164675069Y-117415498D01*
X164675073Y-117415498D01*
X164724326Y-117405701D01*
X164749301Y-117400734D01*
X164833484Y-117344484D01*
X164889734Y-117260301D01*
X164904500Y-117186067D01*
X164904499Y-117095132D01*
X164912821Y-117056888D01*
X164911090Y-117056380D01*
X164954500Y-116908536D01*
X164954500Y-116763463D01*
X164928705Y-116675612D01*
X164913629Y-116624268D01*
X164913628Y-116624267D01*
X164911090Y-116615622D01*
X164912817Y-116615114D01*
X164904499Y-116576867D01*
X164904499Y-116485936D01*
X164904498Y-116485927D01*
X164889734Y-116411699D01*
X164878764Y-116395281D01*
X164833484Y-116327516D01*
X164833483Y-116327515D01*
X164749302Y-116271266D01*
X164675068Y-116256500D01*
X164224936Y-116256500D01*
X164224926Y-116256501D01*
X164150700Y-116271265D01*
X164150698Y-116271266D01*
X164150699Y-116271266D01*
X164092332Y-116310265D01*
X164024582Y-116331480D01*
X164022332Y-116331500D01*
X162121415Y-116331500D01*
X162053294Y-116311498D01*
X162045907Y-116306369D01*
X162033715Y-116297242D01*
X162033713Y-116297241D01*
X162033714Y-116297241D01*
X161901160Y-116247800D01*
X161901152Y-116247798D01*
X161842560Y-116241500D01*
X161273451Y-116241500D01*
X161273427Y-116241502D01*
X161214848Y-116247798D01*
X161191515Y-116256501D01*
X161084645Y-116296362D01*
X161082280Y-116297244D01*
X160984599Y-116370368D01*
X160918079Y-116395179D01*
X160909090Y-116395500D01*
X159983721Y-116395500D01*
X159918711Y-116376411D01*
X159918629Y-116376563D01*
X159917933Y-116376183D01*
X159915600Y-116375498D01*
X159911633Y-116372743D01*
X159910714Y-116372241D01*
X159778160Y-116322800D01*
X159778152Y-116322798D01*
X159719560Y-116316500D01*
X159050451Y-116316500D01*
X159050427Y-116316502D01*
X158991848Y-116322798D01*
X158959115Y-116335007D01*
X158864310Y-116370368D01*
X158859280Y-116372244D01*
X158746025Y-116457025D01*
X158661244Y-116570281D01*
X158661242Y-116570284D01*
X158628054Y-116659262D01*
X158585507Y-116716097D01*
X158518986Y-116740907D01*
X158449612Y-116725815D01*
X158399411Y-116675612D01*
X158391949Y-116659274D01*
X158358758Y-116570285D01*
X158358756Y-116570283D01*
X158358756Y-116570281D01*
X158273974Y-116457025D01*
X158160718Y-116372244D01*
X158160714Y-116372241D01*
X158028160Y-116322800D01*
X158028152Y-116322798D01*
X157969568Y-116316500D01*
X157969557Y-116316500D01*
X157499055Y-116316500D01*
X157450834Y-116306908D01*
X157423273Y-116295491D01*
X157367993Y-116250941D01*
X157345574Y-116183577D01*
X157363134Y-116114786D01*
X157415097Y-116066409D01*
X157423263Y-116062680D01*
X157436289Y-116057284D01*
X157441594Y-116055088D01*
X157489806Y-116045499D01*
X157969549Y-116045499D01*
X157969556Y-116045499D01*
X157995408Y-116042720D01*
X158028151Y-116039201D01*
X158028152Y-116039200D01*
X158028157Y-116039200D01*
X158160715Y-115989758D01*
X158273974Y-115904974D01*
X158358758Y-115791715D01*
X158408200Y-115659157D01*
X158408440Y-115656932D01*
X158414499Y-115600568D01*
X158414499Y-115600566D01*
X158414500Y-115600557D01*
X158414499Y-115031444D01*
X158409522Y-114985139D01*
X158408201Y-114972848D01*
X158408200Y-114972846D01*
X158408200Y-114972843D01*
X158394085Y-114935000D01*
X163143715Y-114935000D01*
X163162771Y-115079752D01*
X163218644Y-115214641D01*
X163218649Y-115214649D01*
X163307525Y-115330474D01*
X163423350Y-115419350D01*
X163423357Y-115419355D01*
X163558246Y-115475228D01*
X163621550Y-115483562D01*
X163702999Y-115494285D01*
X163702999Y-115494284D01*
X163703000Y-115494285D01*
X163847754Y-115475228D01*
X163948982Y-115433297D01*
X164019568Y-115425708D01*
X164067201Y-115444942D01*
X164150697Y-115500733D01*
X164150699Y-115500734D01*
X164224933Y-115515500D01*
X164675066Y-115515499D01*
X164749301Y-115500734D01*
X164749302Y-115500732D01*
X164750418Y-115500511D01*
X164799581Y-115500511D01*
X164800697Y-115500733D01*
X164800699Y-115500734D01*
X164874933Y-115515500D01*
X165325066Y-115515499D01*
X165399301Y-115500734D01*
X165399302Y-115500732D01*
X165400418Y-115500511D01*
X165449581Y-115500511D01*
X165450697Y-115500733D01*
X165450699Y-115500734D01*
X165524933Y-115515500D01*
X165975066Y-115515499D01*
X165975069Y-115515498D01*
X165975073Y-115515498D01*
X166024326Y-115505701D01*
X166049301Y-115500734D01*
X166133484Y-115444484D01*
X166165548Y-115396496D01*
X166220024Y-115350970D01*
X166270312Y-115340500D01*
X166278260Y-115340500D01*
X166346381Y-115360502D01*
X166367355Y-115377405D01*
X166417405Y-115427455D01*
X166451431Y-115489767D01*
X166453232Y-115500103D01*
X166464771Y-115587752D01*
X166520644Y-115722641D01*
X166520649Y-115722649D01*
X166609525Y-115838474D01*
X166712141Y-115917214D01*
X166725357Y-115927355D01*
X166860246Y-115983228D01*
X166909824Y-115989755D01*
X167004999Y-116002285D01*
X167004999Y-116002284D01*
X167005000Y-116002285D01*
X167149754Y-115983228D01*
X167284643Y-115927355D01*
X167400474Y-115838474D01*
X167489355Y-115722643D01*
X167545228Y-115587754D01*
X167564285Y-115443000D01*
X167562238Y-115427455D01*
X167550791Y-115340500D01*
X167545228Y-115298246D01*
X167489355Y-115163358D01*
X167400474Y-115047526D01*
X167400472Y-115047524D01*
X167400471Y-115047523D01*
X167284649Y-114958649D01*
X167284641Y-114958644D01*
X167149752Y-114902771D01*
X167062103Y-114891232D01*
X166997176Y-114862509D01*
X166989466Y-114855416D01*
X166761515Y-114627465D01*
X166761511Y-114627462D01*
X166738723Y-114604674D01*
X166738720Y-114604672D01*
X166738718Y-114604671D01*
X166718838Y-114594541D01*
X166701984Y-114584213D01*
X166683926Y-114571093D01*
X166683924Y-114571092D01*
X166662697Y-114564195D01*
X166644432Y-114556630D01*
X166624553Y-114546501D01*
X166602508Y-114543009D01*
X166583290Y-114538395D01*
X166562068Y-114531500D01*
X166562066Y-114531500D01*
X166529834Y-114531500D01*
X166270313Y-114531500D01*
X166202192Y-114511498D01*
X166165549Y-114475503D01*
X166133484Y-114427515D01*
X166049302Y-114371266D01*
X165975069Y-114356500D01*
X165975067Y-114356500D01*
X165680500Y-114356500D01*
X165612379Y-114336498D01*
X165565886Y-114282842D01*
X165554500Y-114230500D01*
X165554500Y-113866141D01*
X165574502Y-113798020D01*
X165628158Y-113751527D01*
X165636443Y-113748095D01*
X165755315Y-113703758D01*
X165868574Y-113618974D01*
X165953358Y-113505715D01*
X165986545Y-113416735D01*
X166029091Y-113359903D01*
X166095612Y-113335092D01*
X166164986Y-113350184D01*
X166215188Y-113400386D01*
X166222650Y-113416726D01*
X166255842Y-113505715D01*
X166255843Y-113505716D01*
X166255844Y-113505719D01*
X166340625Y-113618974D01*
X166453881Y-113703755D01*
X166453885Y-113703758D01*
X166586439Y-113753199D01*
X166586447Y-113753201D01*
X166615742Y-113756350D01*
X166645043Y-113759500D01*
X167314156Y-113759499D01*
X167340008Y-113756720D01*
X167372751Y-113753201D01*
X167372752Y-113753200D01*
X167372757Y-113753200D01*
X167505315Y-113703758D01*
X167618574Y-113618974D01*
X167644012Y-113584991D01*
X167700847Y-113542445D01*
X167744881Y-113534500D01*
X168178175Y-113534500D01*
X168246296Y-113554502D01*
X168279043Y-113584991D01*
X168322311Y-113642791D01*
X168360626Y-113693974D01*
X168473881Y-113778755D01*
X168473885Y-113778758D01*
X168606439Y-113828199D01*
X168606447Y-113828201D01*
X168635742Y-113831350D01*
X168665043Y-113834500D01*
X169234156Y-113834499D01*
X169260008Y-113831720D01*
X169292751Y-113828201D01*
X169292752Y-113828200D01*
X169292757Y-113828200D01*
X169425315Y-113778758D01*
X169538574Y-113693974D01*
X169563968Y-113660051D01*
X169601443Y-113609991D01*
X169658278Y-113567444D01*
X169702311Y-113559500D01*
X170102022Y-113559500D01*
X170159223Y-113573232D01*
X170191327Y-113589590D01*
X170285463Y-113604500D01*
X170643736Y-113604499D01*
X170737873Y-113589590D01*
X170851335Y-113531779D01*
X170860503Y-113522610D01*
X170922812Y-113488585D01*
X170993628Y-113493648D01*
X171038692Y-113522607D01*
X171044149Y-113528063D01*
X171047865Y-113531779D01*
X171161327Y-113589590D01*
X171255463Y-113604500D01*
X171613736Y-113604499D01*
X171707873Y-113589590D01*
X171789042Y-113548232D01*
X171846244Y-113534500D01*
X172060403Y-113534500D01*
X172128524Y-113554502D01*
X172135912Y-113559632D01*
X172244281Y-113640755D01*
X172244285Y-113640758D01*
X172376839Y-113690199D01*
X172376847Y-113690201D01*
X172406142Y-113693350D01*
X172435443Y-113696500D01*
X173004556Y-113696499D01*
X173030408Y-113693720D01*
X173063151Y-113690201D01*
X173063152Y-113690200D01*
X173063157Y-113690200D01*
X173195715Y-113640758D01*
X173236815Y-113609991D01*
X173316188Y-113550574D01*
X173318445Y-113553590D01*
X173365012Y-113528063D01*
X173426877Y-113530062D01*
X173478538Y-113544945D01*
X173485200Y-113547277D01*
X173708395Y-113639723D01*
X173714765Y-113642791D01*
X173745996Y-113660051D01*
X173914541Y-113753200D01*
X173926196Y-113759641D01*
X173932183Y-113763403D01*
X174129211Y-113903197D01*
X174134739Y-113907605D01*
X174315506Y-114069142D01*
X174318056Y-114071553D01*
X174416925Y-114170420D01*
X174625183Y-114336498D01*
X174636856Y-114345806D01*
X174875042Y-114495464D01*
X175128486Y-114617513D01*
X175394003Y-114710418D01*
X175394007Y-114710418D01*
X175394013Y-114710421D01*
X175668241Y-114773008D01*
X175668244Y-114773008D01*
X175668251Y-114773010D01*
X175947783Y-114804502D01*
X176088433Y-114804500D01*
X176088435Y-114804500D01*
X176279026Y-114804500D01*
X176347147Y-114824502D01*
X176393640Y-114878158D01*
X176403744Y-114948432D01*
X176374250Y-115013012D01*
X176314524Y-115051396D01*
X176314120Y-115051499D01*
X176310016Y-115052704D01*
X176060985Y-115145587D01*
X175827724Y-115272957D01*
X175712913Y-115358902D01*
X175712912Y-115358903D01*
X176439722Y-116085713D01*
X176317369Y-116159331D01*
X176183142Y-116286477D01*
X176079387Y-116439505D01*
X176078164Y-116442572D01*
X175353703Y-115718112D01*
X175353702Y-115718113D01*
X175267757Y-115832924D01*
X175140387Y-116066185D01*
X175047507Y-116315206D01*
X174991013Y-116574907D01*
X174972054Y-116840000D01*
X174991013Y-117105092D01*
X175047507Y-117364793D01*
X175140387Y-117613814D01*
X175267758Y-117847076D01*
X175353703Y-117961885D01*
X175353703Y-117961886D01*
X176081606Y-117233982D01*
X176127116Y-117319822D01*
X176246809Y-117460735D01*
X176393995Y-117572623D01*
X176440069Y-117593939D01*
X175712912Y-118321095D01*
X175712913Y-118321096D01*
X175827719Y-118407039D01*
X176060985Y-118534412D01*
X176310006Y-118627292D01*
X176569707Y-118683786D01*
X176834799Y-118702745D01*
X177099892Y-118683786D01*
X177359593Y-118627292D01*
X177608614Y-118534412D01*
X177841876Y-118407042D01*
X177956685Y-118321095D01*
X177956686Y-118321095D01*
X177229877Y-117594286D01*
X177352231Y-117520669D01*
X177486458Y-117393523D01*
X177590213Y-117240495D01*
X177591435Y-117237426D01*
X178315895Y-117961886D01*
X178315895Y-117961885D01*
X178401842Y-117847076D01*
X178529212Y-117613814D01*
X178622092Y-117364793D01*
X178678586Y-117105092D01*
X178697545Y-116839999D01*
X178678586Y-116574907D01*
X178622092Y-116315206D01*
X178529212Y-116066185D01*
X178401839Y-115832919D01*
X178281448Y-115672096D01*
X178256637Y-115605576D01*
X178271728Y-115536202D01*
X178321930Y-115486000D01*
X178391304Y-115470908D01*
X178457825Y-115495719D01*
X178464143Y-115500774D01*
X178487743Y-115520930D01*
X178689659Y-115644664D01*
X178908446Y-115735289D01*
X179138717Y-115790572D01*
X179374800Y-115809152D01*
X179610883Y-115790572D01*
X179841154Y-115735289D01*
X180059941Y-115644664D01*
X180261857Y-115520930D01*
X180285454Y-115500776D01*
X180350239Y-115471745D01*
X180420439Y-115482348D01*
X180473763Y-115529222D01*
X180493280Y-115597483D01*
X180472794Y-115665460D01*
X180468151Y-115672096D01*
X180347760Y-115832919D01*
X180220387Y-116066185D01*
X180127507Y-116315206D01*
X180071013Y-116574907D01*
X180052054Y-116840000D01*
X180071013Y-117105092D01*
X180127507Y-117364793D01*
X180220387Y-117613814D01*
X180347758Y-117847076D01*
X180433703Y-117961885D01*
X180433703Y-117961886D01*
X181161606Y-117233982D01*
X181207116Y-117319822D01*
X181326809Y-117460735D01*
X181473995Y-117572623D01*
X181520069Y-117593939D01*
X180792912Y-118321095D01*
X180792913Y-118321096D01*
X180907719Y-118407039D01*
X181140985Y-118534412D01*
X181390006Y-118627292D01*
X181649707Y-118683786D01*
X181914799Y-118702745D01*
X182179892Y-118683786D01*
X182439593Y-118627292D01*
X182688614Y-118534412D01*
X182921876Y-118407042D01*
X183036685Y-118321095D01*
X183036686Y-118321095D01*
X182309877Y-117594286D01*
X182432231Y-117520669D01*
X182566458Y-117393523D01*
X182670213Y-117240495D01*
X182671435Y-117237426D01*
X183395895Y-117961886D01*
X183395895Y-117961885D01*
X183481842Y-117847076D01*
X183609212Y-117613814D01*
X183702092Y-117364793D01*
X183758586Y-117105092D01*
X183777545Y-116839999D01*
X183758586Y-116574907D01*
X183702092Y-116315206D01*
X183609212Y-116066185D01*
X183481839Y-115832919D01*
X183395896Y-115718113D01*
X183395895Y-115718112D01*
X182667992Y-116446015D01*
X182622484Y-116360178D01*
X182502791Y-116219265D01*
X182355605Y-116107377D01*
X182309529Y-116086059D01*
X183036686Y-115358903D01*
X182921876Y-115272958D01*
X182688614Y-115145587D01*
X182439593Y-115052707D01*
X182179892Y-114996213D01*
X181914800Y-114977254D01*
X181649707Y-114996213D01*
X181390006Y-115052707D01*
X181140985Y-115145587D01*
X180907719Y-115272960D01*
X180746896Y-115393351D01*
X180680376Y-115418162D01*
X180611002Y-115403071D01*
X180560799Y-115352868D01*
X180545708Y-115283494D01*
X180570519Y-115216974D01*
X180575552Y-115210682D01*
X180595730Y-115187057D01*
X180719464Y-114985141D01*
X180810089Y-114766354D01*
X180865372Y-114536083D01*
X180883952Y-114300000D01*
X180865372Y-114063917D01*
X180810089Y-113833646D01*
X180719464Y-113614859D01*
X180595730Y-113412943D01*
X180575576Y-113389346D01*
X180546545Y-113324558D01*
X180557149Y-113254358D01*
X180604024Y-113201035D01*
X180672285Y-113181519D01*
X180740262Y-113202006D01*
X180746896Y-113206648D01*
X180907719Y-113327039D01*
X181140985Y-113454412D01*
X181390006Y-113547292D01*
X181649707Y-113603786D01*
X181914799Y-113622745D01*
X182179892Y-113603786D01*
X182439593Y-113547292D01*
X182688614Y-113454412D01*
X182921876Y-113327042D01*
X183036685Y-113241095D01*
X183036686Y-113241095D01*
X182309877Y-112514286D01*
X182432231Y-112440669D01*
X182566458Y-112313523D01*
X182670213Y-112160495D01*
X182671435Y-112157426D01*
X183395895Y-112881886D01*
X183395895Y-112881885D01*
X183481842Y-112767076D01*
X183609212Y-112533814D01*
X183702092Y-112284793D01*
X183758586Y-112025092D01*
X183777545Y-111759999D01*
X183758586Y-111494907D01*
X183702092Y-111235206D01*
X183609212Y-110986185D01*
X183481839Y-110752919D01*
X183395896Y-110638113D01*
X183395895Y-110638112D01*
X182667992Y-111366015D01*
X182622484Y-111280178D01*
X182502791Y-111139265D01*
X182355605Y-111027377D01*
X182309529Y-111006060D01*
X183036686Y-110278903D01*
X182921876Y-110192958D01*
X182688614Y-110065587D01*
X182439593Y-109972707D01*
X182179892Y-109916213D01*
X181914800Y-109897254D01*
X181649707Y-109916213D01*
X181390006Y-109972707D01*
X181140985Y-110065587D01*
X180907724Y-110192957D01*
X180792913Y-110278902D01*
X180792912Y-110278903D01*
X181519722Y-111005713D01*
X181397369Y-111079331D01*
X181263142Y-111206477D01*
X181159387Y-111359505D01*
X181158164Y-111362573D01*
X180433703Y-110638112D01*
X180433702Y-110638113D01*
X180347757Y-110752924D01*
X180220387Y-110986185D01*
X180127507Y-111235206D01*
X180071013Y-111494907D01*
X180052054Y-111760000D01*
X180071013Y-112025092D01*
X180127507Y-112284793D01*
X180220387Y-112533814D01*
X180347760Y-112767080D01*
X180468151Y-112927903D01*
X180492962Y-112994423D01*
X180477871Y-113063797D01*
X180427669Y-113113999D01*
X180358295Y-113129091D01*
X180291774Y-113104280D01*
X180285471Y-113099238D01*
X180261857Y-113079070D01*
X180059941Y-112955336D01*
X180009723Y-112934535D01*
X179841154Y-112864711D01*
X179839021Y-112864199D01*
X179610883Y-112809428D01*
X179374800Y-112790848D01*
X179138717Y-112809428D01*
X178908445Y-112864711D01*
X178689660Y-112955335D01*
X178487741Y-113079071D01*
X178487740Y-113079072D01*
X178464145Y-113099224D01*
X178399355Y-113128255D01*
X178329155Y-113117648D01*
X178275834Y-113070773D01*
X178256319Y-113002511D01*
X178276808Y-112934535D01*
X178281448Y-112927902D01*
X178401842Y-112767076D01*
X178529212Y-112533814D01*
X178622092Y-112284793D01*
X178678586Y-112025092D01*
X178697545Y-111759999D01*
X178678586Y-111494907D01*
X178622092Y-111235206D01*
X178529212Y-110986185D01*
X178401839Y-110752919D01*
X178315896Y-110638113D01*
X178315895Y-110638113D01*
X177587992Y-111366016D01*
X177542484Y-111280178D01*
X177422791Y-111139265D01*
X177275605Y-111027377D01*
X177229529Y-111006060D01*
X177956686Y-110278903D01*
X177841876Y-110192958D01*
X177608614Y-110065587D01*
X177359593Y-109972707D01*
X177099892Y-109916213D01*
X176834800Y-109897254D01*
X176569707Y-109916213D01*
X176310006Y-109972707D01*
X176060985Y-110065587D01*
X175827724Y-110192957D01*
X175712913Y-110278902D01*
X175712912Y-110278903D01*
X176439722Y-111005713D01*
X176317369Y-111079331D01*
X176183142Y-111206477D01*
X176079387Y-111359505D01*
X176078164Y-111362573D01*
X175353703Y-110638112D01*
X175353702Y-110638113D01*
X175267757Y-110752924D01*
X175140387Y-110986185D01*
X175047507Y-111235206D01*
X174991013Y-111494907D01*
X174972054Y-111760000D01*
X174991013Y-112025092D01*
X175047507Y-112284793D01*
X175140387Y-112533814D01*
X175267758Y-112767076D01*
X175353703Y-112881885D01*
X175353703Y-112881886D01*
X176081606Y-112153982D01*
X176127116Y-112239822D01*
X176246809Y-112380735D01*
X176393995Y-112492623D01*
X176440069Y-112513939D01*
X175712913Y-113241095D01*
X175712913Y-113241096D01*
X175827719Y-113327039D01*
X176060985Y-113454412D01*
X176310016Y-113547295D01*
X176314325Y-113548561D01*
X176313702Y-113550681D01*
X176368146Y-113580429D01*
X176402154Y-113642750D01*
X176397070Y-113713565D01*
X176354508Y-113770389D01*
X176287981Y-113795181D01*
X176279026Y-113795500D01*
X176158654Y-113795500D01*
X176158638Y-113795499D01*
X176090477Y-113795499D01*
X176086356Y-113795364D01*
X175987800Y-113788906D01*
X175897331Y-113782977D01*
X175889167Y-113781902D01*
X175736448Y-113751527D01*
X175705412Y-113745354D01*
X175697443Y-113743219D01*
X175520020Y-113682995D01*
X175512410Y-113679843D01*
X175344370Y-113596976D01*
X175337232Y-113592855D01*
X175181444Y-113488763D01*
X175174900Y-113483742D01*
X175033090Y-113359381D01*
X175030101Y-113356582D01*
X174918887Y-113245373D01*
X174918878Y-113245366D01*
X174918872Y-113245360D01*
X174673853Y-113044284D01*
X174673825Y-113044264D01*
X174410261Y-112868162D01*
X174410258Y-112868160D01*
X174130680Y-112718729D01*
X173837815Y-112597425D01*
X173837810Y-112597423D01*
X173534463Y-112505409D01*
X173534459Y-112505408D01*
X173534456Y-112505407D01*
X173534454Y-112505406D01*
X173534448Y-112505405D01*
X173497376Y-112498031D01*
X173434467Y-112465123D01*
X173403903Y-112418486D01*
X173393758Y-112391285D01*
X173393756Y-112391283D01*
X173393756Y-112391281D01*
X173308974Y-112278025D01*
X173195718Y-112193244D01*
X173195714Y-112193241D01*
X173063160Y-112143800D01*
X173063152Y-112143798D01*
X173004560Y-112137500D01*
X172435451Y-112137500D01*
X172435427Y-112137502D01*
X172376848Y-112143798D01*
X172244280Y-112193244D01*
X172131025Y-112278025D01*
X172046244Y-112391281D01*
X172046241Y-112391286D01*
X172026754Y-112443533D01*
X171984207Y-112500369D01*
X171917687Y-112525179D01*
X171908699Y-112525500D01*
X171846244Y-112525500D01*
X171789042Y-112511767D01*
X171707876Y-112470411D01*
X171707874Y-112470410D01*
X171707873Y-112470410D01*
X171613737Y-112455500D01*
X171613733Y-112455500D01*
X171255465Y-112455500D01*
X171161327Y-112470409D01*
X171047864Y-112528221D01*
X171038693Y-112537392D01*
X170976379Y-112571415D01*
X170905564Y-112566348D01*
X170860507Y-112537392D01*
X170851335Y-112528221D01*
X170737876Y-112470411D01*
X170737874Y-112470410D01*
X170737873Y-112470410D01*
X170643737Y-112455500D01*
X170643733Y-112455500D01*
X170285465Y-112455500D01*
X170191327Y-112470409D01*
X170069029Y-112532723D01*
X170068055Y-112530812D01*
X170013455Y-112550294D01*
X170006261Y-112550500D01*
X169702311Y-112550500D01*
X169634190Y-112530498D01*
X169601443Y-112500009D01*
X169538574Y-112416025D01*
X169425318Y-112331244D01*
X169425314Y-112331241D01*
X169292760Y-112281800D01*
X169292752Y-112281798D01*
X169234160Y-112275500D01*
X168665051Y-112275500D01*
X168665027Y-112275502D01*
X168606448Y-112281798D01*
X168473880Y-112331244D01*
X168360628Y-112416024D01*
X168360627Y-112416025D01*
X168360626Y-112416026D01*
X168316470Y-112475010D01*
X168259637Y-112517555D01*
X168215604Y-112525500D01*
X167744881Y-112525500D01*
X167676760Y-112505498D01*
X167644012Y-112475008D01*
X167640569Y-112470409D01*
X167618574Y-112441026D01*
X167597924Y-112425568D01*
X167505318Y-112356244D01*
X167505314Y-112356241D01*
X167372760Y-112306800D01*
X167372752Y-112306798D01*
X167314160Y-112300500D01*
X166645051Y-112300500D01*
X166645027Y-112300502D01*
X166586448Y-112306798D01*
X166453880Y-112356244D01*
X166340625Y-112441025D01*
X166255844Y-112554281D01*
X166255842Y-112554284D01*
X166222654Y-112643262D01*
X166180107Y-112700097D01*
X166113586Y-112724907D01*
X166044212Y-112709815D01*
X165994011Y-112659612D01*
X165986549Y-112643274D01*
X165953358Y-112554285D01*
X165953356Y-112554283D01*
X165953356Y-112554281D01*
X165868574Y-112441025D01*
X165755318Y-112356244D01*
X165755314Y-112356241D01*
X165622760Y-112306800D01*
X165622752Y-112306798D01*
X165564160Y-112300500D01*
X164895051Y-112300500D01*
X164895027Y-112300502D01*
X164836448Y-112306798D01*
X164703880Y-112356244D01*
X164590625Y-112441025D01*
X164505844Y-112554281D01*
X164505841Y-112554285D01*
X164456400Y-112686839D01*
X164456398Y-112686847D01*
X164450100Y-112745431D01*
X164450100Y-113314548D01*
X164450102Y-113314572D01*
X164456398Y-113373151D01*
X164456399Y-113373156D01*
X164456400Y-113373157D01*
X164505842Y-113505715D01*
X164505843Y-113505716D01*
X164505844Y-113505719D01*
X164590623Y-113618970D01*
X164590624Y-113618972D01*
X164590625Y-113618972D01*
X164590626Y-113618974D01*
X164595006Y-113622253D01*
X164637554Y-113679085D01*
X164645500Y-113723122D01*
X164645500Y-114230500D01*
X164625498Y-114298621D01*
X164571842Y-114345114D01*
X164519500Y-114356500D01*
X164224936Y-114356500D01*
X164224926Y-114356501D01*
X164150698Y-114371266D01*
X164069048Y-114425823D01*
X164001295Y-114447038D01*
X163950829Y-114437467D01*
X163847754Y-114394772D01*
X163847752Y-114394771D01*
X163703000Y-114375715D01*
X163558247Y-114394771D01*
X163490802Y-114422708D01*
X163423358Y-114450645D01*
X163423357Y-114450646D01*
X163423356Y-114450646D01*
X163307526Y-114539526D01*
X163218646Y-114655356D01*
X163218645Y-114655358D01*
X163195838Y-114710418D01*
X163162771Y-114790247D01*
X163143715Y-114934999D01*
X163143715Y-114935000D01*
X158394085Y-114935000D01*
X158358758Y-114840285D01*
X158358755Y-114840281D01*
X158358755Y-114840280D01*
X158273974Y-114727025D01*
X158160718Y-114642244D01*
X158160714Y-114642241D01*
X158028160Y-114592800D01*
X158028152Y-114592798D01*
X157969560Y-114586500D01*
X157300451Y-114586500D01*
X157300427Y-114586502D01*
X157241848Y-114592798D01*
X157215576Y-114602597D01*
X157148912Y-114627462D01*
X157109280Y-114642244D01*
X156996025Y-114727025D01*
X156911244Y-114840281D01*
X156911241Y-114840285D01*
X156861800Y-114972839D01*
X156861798Y-114972847D01*
X156855500Y-115031431D01*
X156855320Y-115034809D01*
X156854251Y-115034751D01*
X156835498Y-115098621D01*
X156781842Y-115145114D01*
X156729500Y-115156500D01*
X156357578Y-115156500D01*
X156300376Y-115142767D01*
X156276263Y-115130481D01*
X156268274Y-115126410D01*
X156249445Y-115123427D01*
X156174137Y-115111500D01*
X156174133Y-115111500D01*
X155765865Y-115111500D01*
X155671727Y-115126409D01*
X155555977Y-115185386D01*
X155526813Y-115195960D01*
X155304842Y-115246624D01*
X155050533Y-115335611D01*
X154807771Y-115452521D01*
X154807769Y-115452522D01*
X154579635Y-115595868D01*
X154368977Y-115763863D01*
X154294833Y-115838007D01*
X154294832Y-115838006D01*
X154177045Y-115955793D01*
X154177036Y-115955805D01*
X153287745Y-116845096D01*
X153222658Y-116932041D01*
X153222657Y-116932045D01*
X153221728Y-116934533D01*
X153220138Y-116936658D01*
X153218341Y-116939950D01*
X153217867Y-116939691D01*
X153179183Y-116991368D01*
X153112663Y-117016179D01*
X153103674Y-117016500D01*
X152263687Y-117016500D01*
X152195566Y-116996498D01*
X152149073Y-116942842D01*
X152138969Y-116872568D01*
X152168463Y-116807988D01*
X152220548Y-116774514D01*
X152220074Y-116773496D01*
X152227577Y-116769997D01*
X152228189Y-116769604D01*
X152228428Y-116769534D01*
X152228808Y-116769423D01*
X152228809Y-116769422D01*
X152228811Y-116769422D01*
X152330129Y-116722177D01*
X152409177Y-116643129D01*
X152456422Y-116541811D01*
X152462500Y-116495644D01*
X152462500Y-116296356D01*
X152456422Y-116250189D01*
X152409177Y-116148871D01*
X152409175Y-116148869D01*
X152409175Y-116148868D01*
X152330132Y-116069825D01*
X152330129Y-116069823D01*
X152247749Y-116031408D01*
X152194465Y-115984491D01*
X152175000Y-115917214D01*
X152175000Y-115417883D01*
X152195002Y-115349762D01*
X152211901Y-115328792D01*
X152256622Y-115284071D01*
X152318934Y-115250047D01*
X152345716Y-115247168D01*
X154409313Y-115247168D01*
X154435171Y-115249849D01*
X154445840Y-115252087D01*
X154481423Y-115247651D01*
X154489214Y-115247168D01*
X154493176Y-115247168D01*
X154493183Y-115247168D01*
X154515190Y-115243494D01*
X154517730Y-115243125D01*
X154571523Y-115236420D01*
X154571524Y-115236419D01*
X154571528Y-115236419D01*
X154579126Y-115234156D01*
X154586663Y-115231569D01*
X154586663Y-115231568D01*
X154586667Y-115231568D01*
X154634308Y-115205784D01*
X154636592Y-115204608D01*
X154685308Y-115180794D01*
X154685310Y-115180791D01*
X154691758Y-115176188D01*
X154698052Y-115171288D01*
X154698056Y-115171287D01*
X154734772Y-115131401D01*
X154736531Y-115129569D01*
X159229656Y-110636445D01*
X159291969Y-110602419D01*
X159318752Y-110599540D01*
X159719213Y-110599540D01*
X159745071Y-110602221D01*
X159755740Y-110604459D01*
X159791323Y-110600023D01*
X159799114Y-110599540D01*
X159803076Y-110599540D01*
X159803083Y-110599540D01*
X159825090Y-110595866D01*
X159827630Y-110595497D01*
X159881423Y-110588792D01*
X159881424Y-110588791D01*
X159881428Y-110588791D01*
X159889026Y-110586528D01*
X159896563Y-110583941D01*
X159896563Y-110583940D01*
X159896567Y-110583940D01*
X159944208Y-110558156D01*
X159946492Y-110556980D01*
X159995208Y-110533166D01*
X159995210Y-110533163D01*
X160001658Y-110528560D01*
X160007952Y-110523660D01*
X160007956Y-110523659D01*
X160044672Y-110483773D01*
X160046407Y-110481965D01*
X160838147Y-109690225D01*
X160900457Y-109656201D01*
X160971272Y-109661266D01*
X161028108Y-109703813D01*
X161043646Y-109731100D01*
X161053907Y-109755871D01*
X161059644Y-109769721D01*
X161059649Y-109769729D01*
X161148525Y-109885554D01*
X161262105Y-109972707D01*
X161264357Y-109974435D01*
X161399246Y-110030308D01*
X161544000Y-110049365D01*
X161547552Y-110048897D01*
X161550551Y-110049365D01*
X161552260Y-110049365D01*
X161552260Y-110049631D01*
X161617699Y-110059835D01*
X161670799Y-110106961D01*
X161690000Y-110173819D01*
X161690000Y-110537533D01*
X161696057Y-110593876D01*
X161696059Y-110593884D01*
X161743616Y-110721385D01*
X161743619Y-110721390D01*
X161825169Y-110830330D01*
X161911787Y-110895170D01*
X161934113Y-110911883D01*
X161969222Y-110924978D01*
X162061615Y-110959440D01*
X162061623Y-110959442D01*
X162117966Y-110965499D01*
X162117971Y-110965499D01*
X162117978Y-110965500D01*
X162117984Y-110965500D01*
X162365095Y-110965500D01*
X162433216Y-110985502D01*
X162479709Y-111039158D01*
X162489813Y-111109432D01*
X162477357Y-111148712D01*
X162472541Y-111158162D01*
X162462251Y-111174962D01*
X162461126Y-111176512D01*
X162404924Y-111219893D01*
X162359154Y-111228500D01*
X162144592Y-111228500D01*
X162144568Y-111228501D01*
X162114929Y-111228501D01*
X162093711Y-111235395D01*
X162074491Y-111240010D01*
X162052444Y-111243502D01*
X162052441Y-111243503D01*
X162032550Y-111253637D01*
X162014294Y-111261199D01*
X161993074Y-111268094D01*
X161993066Y-111268098D01*
X161975010Y-111281216D01*
X161958164Y-111291540D01*
X161938275Y-111301674D01*
X161865351Y-111374597D01*
X161803038Y-111408621D01*
X161776257Y-111411500D01*
X161336451Y-111411500D01*
X161336427Y-111411502D01*
X161277848Y-111417798D01*
X161145280Y-111467244D01*
X161032025Y-111552025D01*
X160947244Y-111665281D01*
X160947241Y-111665285D01*
X160897800Y-111797839D01*
X160897798Y-111797847D01*
X160891500Y-111856431D01*
X160891500Y-112425548D01*
X160891502Y-112425572D01*
X160897798Y-112484151D01*
X160897799Y-112484156D01*
X160897800Y-112484157D01*
X160947242Y-112616715D01*
X160947243Y-112616716D01*
X160947244Y-112616719D01*
X161032025Y-112729974D01*
X161145281Y-112814755D01*
X161145285Y-112814758D01*
X161277839Y-112864199D01*
X161277847Y-112864201D01*
X161307142Y-112867350D01*
X161336443Y-112870500D01*
X162005556Y-112870499D01*
X162031408Y-112867720D01*
X162064151Y-112864201D01*
X162064152Y-112864200D01*
X162064157Y-112864200D01*
X162196715Y-112814758D01*
X162309974Y-112729974D01*
X162394758Y-112616715D01*
X162438153Y-112500369D01*
X162444199Y-112484160D01*
X162444201Y-112484152D01*
X162450499Y-112425568D01*
X162450499Y-112425566D01*
X162450500Y-112425557D01*
X162450499Y-112271191D01*
X162470501Y-112203072D01*
X162524156Y-112156579D01*
X162594430Y-112146474D01*
X162624713Y-112154782D01*
X162669246Y-112173228D01*
X162814000Y-112192285D01*
X162958754Y-112173228D01*
X163093643Y-112117355D01*
X163209474Y-112028474D01*
X163298355Y-111912643D01*
X163354228Y-111777754D01*
X163373285Y-111633000D01*
X163354228Y-111488246D01*
X163354227Y-111488245D01*
X163353331Y-111481433D01*
X163364270Y-111411284D01*
X163389158Y-111375891D01*
X163567015Y-111198035D01*
X163762645Y-111002404D01*
X163824958Y-110968379D01*
X163851741Y-110965500D01*
X164221016Y-110965500D01*
X164221022Y-110965500D01*
X164221029Y-110965499D01*
X164221033Y-110965499D01*
X164277376Y-110959442D01*
X164277379Y-110959441D01*
X164277381Y-110959441D01*
X164404887Y-110911883D01*
X164513830Y-110830330D01*
X164595383Y-110721387D01*
X164638996Y-110604458D01*
X164642940Y-110593884D01*
X164642940Y-110593883D01*
X164642941Y-110593881D01*
X164644535Y-110579053D01*
X164671700Y-110513462D01*
X164730016Y-110472968D01*
X164800967Y-110470430D01*
X164862027Y-110506655D01*
X164869775Y-110515813D01*
X164902273Y-110558164D01*
X164937796Y-110604459D01*
X164958527Y-110631475D01*
X165066300Y-110714173D01*
X165074357Y-110720355D01*
X165209246Y-110776228D01*
X165354000Y-110795285D01*
X165498754Y-110776228D01*
X165561854Y-110750090D01*
X165610072Y-110740500D01*
X165758853Y-110740500D01*
X165826974Y-110760502D01*
X165859721Y-110790991D01*
X165889169Y-110830330D01*
X165975787Y-110895170D01*
X165998113Y-110911883D01*
X166033222Y-110924978D01*
X166125615Y-110959440D01*
X166125623Y-110959442D01*
X166181966Y-110965499D01*
X166181971Y-110965499D01*
X166181978Y-110965500D01*
X166181984Y-110965500D01*
X166710016Y-110965500D01*
X166710022Y-110965500D01*
X166710029Y-110965499D01*
X166710033Y-110965499D01*
X166766376Y-110959442D01*
X166766379Y-110959441D01*
X166766381Y-110959441D01*
X166893887Y-110911883D01*
X167002830Y-110830330D01*
X167084383Y-110721387D01*
X167115443Y-110638113D01*
X167115445Y-110638108D01*
X167157991Y-110581272D01*
X167224512Y-110556462D01*
X167293886Y-110571554D01*
X167344088Y-110621756D01*
X167351555Y-110638108D01*
X167382616Y-110721386D01*
X167382619Y-110721390D01*
X167464169Y-110830330D01*
X167550787Y-110895170D01*
X167573113Y-110911883D01*
X167608222Y-110924978D01*
X167700615Y-110959440D01*
X167700623Y-110959442D01*
X167756966Y-110965499D01*
X167756971Y-110965499D01*
X167756978Y-110965500D01*
X167756984Y-110965500D01*
X168285016Y-110965500D01*
X168285022Y-110965500D01*
X168285029Y-110965499D01*
X168285033Y-110965499D01*
X168341376Y-110959442D01*
X168341379Y-110959441D01*
X168341381Y-110959441D01*
X168468887Y-110911883D01*
X168577830Y-110830330D01*
X168610938Y-110786103D01*
X168664784Y-110714173D01*
X168667590Y-110716273D01*
X168705823Y-110678002D01*
X168775189Y-110662874D01*
X168841722Y-110687651D01*
X168842862Y-110688514D01*
X168884357Y-110720355D01*
X169019246Y-110776228D01*
X169164000Y-110795285D01*
X169308754Y-110776228D01*
X169443643Y-110720355D01*
X169559474Y-110631474D01*
X169648355Y-110515643D01*
X169704228Y-110380754D01*
X169723285Y-110236000D01*
X169720723Y-110216543D01*
X169707483Y-110115970D01*
X169704228Y-110091246D01*
X169648355Y-109956358D01*
X169559474Y-109840526D01*
X169559472Y-109840524D01*
X169559471Y-109840523D01*
X169443649Y-109751649D01*
X169443641Y-109751644D01*
X169308752Y-109695771D01*
X169164000Y-109676715D01*
X169019247Y-109695771D01*
X168964610Y-109718403D01*
X168884358Y-109751645D01*
X168884356Y-109751646D01*
X168884357Y-109751646D01*
X168884351Y-109751649D01*
X168842968Y-109783404D01*
X168776748Y-109809004D01*
X168707199Y-109794739D01*
X168667396Y-109755871D01*
X168664784Y-109757827D01*
X168577830Y-109641669D01*
X168468890Y-109560119D01*
X168468885Y-109560116D01*
X168341384Y-109512559D01*
X168341376Y-109512557D01*
X168285033Y-109506500D01*
X168285022Y-109506500D01*
X167756978Y-109506500D01*
X167756966Y-109506500D01*
X167700623Y-109512557D01*
X167700615Y-109512559D01*
X167573114Y-109560116D01*
X167573109Y-109560119D01*
X167464169Y-109641669D01*
X167382619Y-109750609D01*
X167382616Y-109750614D01*
X167351555Y-109833891D01*
X167309008Y-109890727D01*
X167242488Y-109915537D01*
X167173114Y-109900445D01*
X167122912Y-109850242D01*
X167115445Y-109833891D01*
X167091510Y-109769721D01*
X167084383Y-109750613D01*
X167061736Y-109720360D01*
X167002830Y-109641669D01*
X166893890Y-109560119D01*
X166893885Y-109560116D01*
X166766384Y-109512559D01*
X166766376Y-109512557D01*
X166710033Y-109506500D01*
X166710022Y-109506500D01*
X166181978Y-109506500D01*
X166181966Y-109506500D01*
X166125623Y-109512557D01*
X166125615Y-109512559D01*
X165998114Y-109560116D01*
X165998109Y-109560119D01*
X165889169Y-109641669D01*
X165859721Y-109681009D01*
X165802886Y-109723556D01*
X165758853Y-109731500D01*
X165610072Y-109731500D01*
X165561854Y-109721909D01*
X165558114Y-109720360D01*
X165498754Y-109695772D01*
X165498752Y-109695771D01*
X165354000Y-109676715D01*
X165209247Y-109695771D01*
X165154610Y-109718403D01*
X165074358Y-109751645D01*
X165074357Y-109751646D01*
X165074356Y-109751646D01*
X164958523Y-109840528D01*
X164869776Y-109956186D01*
X164812438Y-109998053D01*
X164741567Y-110002275D01*
X164679664Y-109967511D01*
X164646383Y-109904798D01*
X164644536Y-109892950D01*
X164642942Y-109878123D01*
X164642940Y-109878115D01*
X164607634Y-109783458D01*
X164595383Y-109750613D01*
X164572736Y-109720360D01*
X164513830Y-109641669D01*
X164404890Y-109560119D01*
X164404885Y-109560116D01*
X164277384Y-109512559D01*
X164277376Y-109512557D01*
X164221033Y-109506500D01*
X164221022Y-109506500D01*
X163692978Y-109506500D01*
X163692966Y-109506500D01*
X163636623Y-109512557D01*
X163636615Y-109512559D01*
X163509114Y-109560116D01*
X163509109Y-109560119D01*
X163400169Y-109641669D01*
X163318619Y-109750609D01*
X163318616Y-109750614D01*
X163287555Y-109833891D01*
X163245008Y-109890727D01*
X163178488Y-109915537D01*
X163109114Y-109900445D01*
X163058912Y-109850242D01*
X163051445Y-109833891D01*
X163027510Y-109769721D01*
X163020383Y-109750613D01*
X162997736Y-109720360D01*
X162938830Y-109641669D01*
X162829890Y-109560119D01*
X162829885Y-109560116D01*
X162702384Y-109512559D01*
X162702376Y-109512557D01*
X162646033Y-109506500D01*
X162646022Y-109506500D01*
X162276740Y-109506500D01*
X162208619Y-109486498D01*
X162187645Y-109469595D01*
X162127725Y-109409675D01*
X162093699Y-109347363D01*
X162098764Y-109276548D01*
X162141311Y-109219712D01*
X162207831Y-109194901D01*
X162216820Y-109194580D01*
X163724720Y-109194580D01*
X163765631Y-109201407D01*
X163777613Y-109205520D01*
X163785406Y-109206820D01*
X163793347Y-109207810D01*
X163793349Y-109207811D01*
X163793350Y-109207810D01*
X163793351Y-109207811D01*
X163808486Y-109207185D01*
X163847450Y-109205573D01*
X163850044Y-109205520D01*
X171283553Y-109205520D01*
X171309411Y-109208201D01*
X171320080Y-109210439D01*
X171355663Y-109206003D01*
X171363454Y-109205520D01*
X171367416Y-109205520D01*
X171367423Y-109205520D01*
X171389430Y-109201846D01*
X171391970Y-109201477D01*
X171445763Y-109194772D01*
X171445764Y-109194771D01*
X171445768Y-109194771D01*
X171453366Y-109192508D01*
X171460903Y-109189921D01*
X171460903Y-109189920D01*
X171460907Y-109189920D01*
X171508548Y-109164136D01*
X171510832Y-109162960D01*
X171559548Y-109139146D01*
X171559550Y-109139143D01*
X171565998Y-109134540D01*
X171572292Y-109129640D01*
X171572296Y-109129639D01*
X171609012Y-109089753D01*
X171610771Y-109087921D01*
X174235289Y-106463403D01*
X174297601Y-106429378D01*
X174324384Y-106426499D01*
X175539064Y-106426499D01*
X175539066Y-106426499D01*
X175539069Y-106426498D01*
X175539072Y-106426498D01*
X175594376Y-106415498D01*
X175613301Y-106411734D01*
X175697484Y-106355484D01*
X175753734Y-106271301D01*
X175768500Y-106197067D01*
X175768499Y-104622934D01*
X175768498Y-104622930D01*
X175768498Y-104622926D01*
X175753734Y-104548699D01*
X175697483Y-104464515D01*
X175613302Y-104408266D01*
X175539069Y-104393500D01*
X175539067Y-104393500D01*
X175257500Y-104393500D01*
X175189379Y-104373498D01*
X175142886Y-104319842D01*
X175131500Y-104267500D01*
X175131500Y-104012499D01*
X175151502Y-103944378D01*
X175205158Y-103897885D01*
X175257500Y-103886499D01*
X175539064Y-103886499D01*
X175539066Y-103886499D01*
X175539069Y-103886498D01*
X175539072Y-103886498D01*
X175581978Y-103877964D01*
X175613301Y-103871734D01*
X175697484Y-103815484D01*
X175753734Y-103731301D01*
X175768500Y-103657067D01*
X175768499Y-102082934D01*
X175768498Y-102082930D01*
X175768498Y-102082926D01*
X175753734Y-102008699D01*
X175697483Y-101924515D01*
X175613302Y-101868266D01*
X175539067Y-101853500D01*
X173964936Y-101853500D01*
X173964926Y-101853501D01*
X173890699Y-101868265D01*
X173806515Y-101924516D01*
X173750266Y-102008697D01*
X173735500Y-102082930D01*
X173735500Y-103657063D01*
X173735501Y-103657073D01*
X173750265Y-103731300D01*
X173806516Y-103815484D01*
X173890697Y-103871733D01*
X173890699Y-103871734D01*
X173964933Y-103886500D01*
X174246501Y-103886499D01*
X174314620Y-103906501D01*
X174361113Y-103960156D01*
X174372500Y-104012499D01*
X174372500Y-104267500D01*
X174352498Y-104335621D01*
X174298842Y-104382114D01*
X174246500Y-104393500D01*
X173964936Y-104393500D01*
X173964926Y-104393501D01*
X173890699Y-104408265D01*
X173806515Y-104464516D01*
X173750266Y-104548697D01*
X173735500Y-104622930D01*
X173735500Y-105837615D01*
X173715498Y-105905736D01*
X173698599Y-105926705D01*
X173522690Y-106102615D01*
X173433594Y-106191711D01*
X173371282Y-106225736D01*
X173300466Y-106220671D01*
X173243631Y-106178124D01*
X173218820Y-106111603D01*
X173218499Y-106102641D01*
X173218499Y-104622934D01*
X173218498Y-104622930D01*
X173218498Y-104622926D01*
X173203734Y-104548699D01*
X173147483Y-104464515D01*
X173063302Y-104408266D01*
X172989069Y-104393500D01*
X172989067Y-104393500D01*
X172707500Y-104393500D01*
X172639379Y-104373498D01*
X172592886Y-104319842D01*
X172581500Y-104267500D01*
X172581500Y-104012499D01*
X172601502Y-103944378D01*
X172655158Y-103897885D01*
X172707500Y-103886499D01*
X172989064Y-103886499D01*
X172989066Y-103886499D01*
X172989069Y-103886498D01*
X172989072Y-103886498D01*
X173031978Y-103877964D01*
X173063301Y-103871734D01*
X173147484Y-103815484D01*
X173203734Y-103731301D01*
X173218500Y-103657067D01*
X173218499Y-102082934D01*
X173218498Y-102082930D01*
X173218498Y-102082926D01*
X173203734Y-102008699D01*
X173147483Y-101924515D01*
X173063302Y-101868266D01*
X172989067Y-101853500D01*
X171414936Y-101853500D01*
X171414926Y-101853501D01*
X171340699Y-101868265D01*
X171256515Y-101924516D01*
X171200266Y-102008697D01*
X171185500Y-102082930D01*
X171185500Y-103657063D01*
X171185501Y-103657073D01*
X171200265Y-103731300D01*
X171256516Y-103815484D01*
X171340697Y-103871733D01*
X171340699Y-103871734D01*
X171414933Y-103886500D01*
X171696501Y-103886499D01*
X171764620Y-103906501D01*
X171811113Y-103960156D01*
X171822500Y-104012499D01*
X171822500Y-104267500D01*
X171802498Y-104335621D01*
X171748842Y-104382114D01*
X171696500Y-104393500D01*
X171414936Y-104393500D01*
X171414926Y-104393501D01*
X171340699Y-104408265D01*
X171256515Y-104464516D01*
X171200266Y-104548697D01*
X171185500Y-104622930D01*
X171185500Y-105837615D01*
X171165498Y-105905736D01*
X171148599Y-105926705D01*
X170972690Y-106102615D01*
X170883594Y-106191711D01*
X170821282Y-106225736D01*
X170750466Y-106220671D01*
X170693631Y-106178124D01*
X170668820Y-106111603D01*
X170668499Y-106102641D01*
X170668499Y-104622934D01*
X170668498Y-104622930D01*
X170668498Y-104622926D01*
X170653734Y-104548699D01*
X170597483Y-104464515D01*
X170513302Y-104408266D01*
X170439069Y-104393500D01*
X170439067Y-104393500D01*
X170157500Y-104393500D01*
X170089379Y-104373498D01*
X170042886Y-104319842D01*
X170031500Y-104267500D01*
X170031500Y-104012499D01*
X170051502Y-103944378D01*
X170105158Y-103897885D01*
X170157500Y-103886499D01*
X170439064Y-103886499D01*
X170439066Y-103886499D01*
X170439069Y-103886498D01*
X170439072Y-103886498D01*
X170481978Y-103877964D01*
X170513301Y-103871734D01*
X170597484Y-103815484D01*
X170653734Y-103731301D01*
X170668500Y-103657067D01*
X170668499Y-102082934D01*
X170668498Y-102082930D01*
X170668498Y-102082926D01*
X170653734Y-102008699D01*
X170597483Y-101924515D01*
X170513302Y-101868266D01*
X170439067Y-101853500D01*
X168864936Y-101853500D01*
X168864926Y-101853501D01*
X168790699Y-101868265D01*
X168706515Y-101924516D01*
X168650266Y-102008697D01*
X168635500Y-102082930D01*
X168635500Y-103657063D01*
X168635501Y-103657073D01*
X168650265Y-103731300D01*
X168706516Y-103815484D01*
X168790697Y-103871733D01*
X168790699Y-103871734D01*
X168864933Y-103886500D01*
X169146501Y-103886499D01*
X169214620Y-103906501D01*
X169261113Y-103960156D01*
X169272500Y-104012499D01*
X169272500Y-104267500D01*
X169252498Y-104335621D01*
X169198842Y-104382114D01*
X169146500Y-104393500D01*
X168864936Y-104393500D01*
X168864926Y-104393501D01*
X168790699Y-104408265D01*
X168706515Y-104464516D01*
X168650266Y-104548697D01*
X168635500Y-104622930D01*
X168635500Y-105857615D01*
X168615498Y-105925736D01*
X168598599Y-105946705D01*
X168442690Y-106102615D01*
X168333594Y-106211711D01*
X168271282Y-106245736D01*
X168200466Y-106240671D01*
X168143631Y-106198124D01*
X168118820Y-106131603D01*
X168118499Y-106122641D01*
X168118499Y-104622934D01*
X168118498Y-104622930D01*
X168118498Y-104622926D01*
X168103734Y-104548699D01*
X168047483Y-104464515D01*
X167963302Y-104408266D01*
X167889069Y-104393500D01*
X167889067Y-104393500D01*
X167607500Y-104393500D01*
X167539379Y-104373498D01*
X167492886Y-104319842D01*
X167481500Y-104267500D01*
X167481500Y-104012499D01*
X167501502Y-103944378D01*
X167555158Y-103897885D01*
X167607500Y-103886499D01*
X167889064Y-103886499D01*
X167889066Y-103886499D01*
X167889069Y-103886498D01*
X167889072Y-103886498D01*
X167931978Y-103877964D01*
X167963301Y-103871734D01*
X168047484Y-103815484D01*
X168103734Y-103731301D01*
X168118500Y-103657067D01*
X168118499Y-102082934D01*
X168118498Y-102082930D01*
X168118498Y-102082926D01*
X168103734Y-102008699D01*
X168047483Y-101924515D01*
X167963302Y-101868266D01*
X167889067Y-101853500D01*
X166314936Y-101853500D01*
X166314926Y-101853501D01*
X166240699Y-101868265D01*
X166156515Y-101924516D01*
X166100266Y-102008697D01*
X166085500Y-102082930D01*
X166085500Y-103657063D01*
X166085501Y-103657073D01*
X166100265Y-103731300D01*
X166156516Y-103815484D01*
X166240697Y-103871733D01*
X166240699Y-103871734D01*
X166314933Y-103886500D01*
X166596501Y-103886499D01*
X166664620Y-103906501D01*
X166711113Y-103960156D01*
X166722500Y-104012499D01*
X166722500Y-104267500D01*
X166702498Y-104335621D01*
X166648842Y-104382114D01*
X166596500Y-104393500D01*
X166314936Y-104393500D01*
X166314926Y-104393501D01*
X166240699Y-104408265D01*
X166156515Y-104464516D01*
X166100266Y-104548697D01*
X166085500Y-104622930D01*
X166085500Y-105867615D01*
X166065498Y-105935736D01*
X166048599Y-105956705D01*
X165106689Y-106898616D01*
X165044379Y-106932640D01*
X165017596Y-106935520D01*
X163927076Y-106935520D01*
X163858955Y-106915518D01*
X163812462Y-106861862D01*
X163802358Y-106791588D01*
X163831852Y-106727008D01*
X163849242Y-106711824D01*
X163856580Y-106705069D01*
X163856579Y-106705069D01*
X163856582Y-106705068D01*
X163878611Y-106676762D01*
X163883770Y-106670923D01*
X163886581Y-106668113D01*
X163899558Y-106649936D01*
X163901068Y-106647911D01*
X163934375Y-106605119D01*
X163934376Y-106605113D01*
X163938158Y-106598127D01*
X163941653Y-106590979D01*
X163943706Y-106584083D01*
X163957123Y-106539010D01*
X163957877Y-106536656D01*
X163966486Y-106511579D01*
X164007526Y-106453648D01*
X164073372Y-106427099D01*
X164085657Y-106426499D01*
X164383064Y-106426499D01*
X164383066Y-106426499D01*
X164383069Y-106426498D01*
X164383072Y-106426498D01*
X164438376Y-106415498D01*
X164457301Y-106411734D01*
X164541484Y-106355484D01*
X164597734Y-106271301D01*
X164612500Y-106197067D01*
X164612499Y-104622934D01*
X164612498Y-104622930D01*
X164612498Y-104622926D01*
X164597734Y-104548699D01*
X164541483Y-104464515D01*
X164457302Y-104408266D01*
X164383069Y-104393500D01*
X164383067Y-104393500D01*
X164101500Y-104393500D01*
X164033379Y-104373498D01*
X163986886Y-104319842D01*
X163975500Y-104267500D01*
X163975500Y-104012499D01*
X163995502Y-103944378D01*
X164049158Y-103897885D01*
X164101500Y-103886499D01*
X164383064Y-103886499D01*
X164383066Y-103886499D01*
X164383069Y-103886498D01*
X164383072Y-103886498D01*
X164425978Y-103877964D01*
X164457301Y-103871734D01*
X164541484Y-103815484D01*
X164597734Y-103731301D01*
X164612500Y-103657067D01*
X164612499Y-102082934D01*
X164612498Y-102082930D01*
X164612498Y-102082926D01*
X164597734Y-102008699D01*
X164541483Y-101924515D01*
X164457302Y-101868266D01*
X164383067Y-101853500D01*
X162808936Y-101853500D01*
X162808926Y-101853501D01*
X162734699Y-101868265D01*
X162650515Y-101924516D01*
X162594266Y-102008697D01*
X162579500Y-102082930D01*
X162579500Y-103657063D01*
X162579501Y-103657073D01*
X162594265Y-103731300D01*
X162650516Y-103815484D01*
X162734697Y-103871733D01*
X162734699Y-103871734D01*
X162808933Y-103886500D01*
X163090501Y-103886499D01*
X163158620Y-103906501D01*
X163205113Y-103960156D01*
X163216500Y-104012499D01*
X163216500Y-104267500D01*
X163196498Y-104335621D01*
X163142842Y-104382114D01*
X163090500Y-104393500D01*
X162808936Y-104393500D01*
X162808926Y-104393501D01*
X162734699Y-104408265D01*
X162650515Y-104464516D01*
X162594266Y-104548697D01*
X162579500Y-104622930D01*
X162579500Y-106197063D01*
X162579501Y-106197073D01*
X162596687Y-106283473D01*
X162592591Y-106284287D01*
X162597700Y-106331899D01*
X162565907Y-106395379D01*
X162504841Y-106431593D01*
X162473707Y-106435500D01*
X162168293Y-106435500D01*
X162100172Y-106415498D01*
X162053679Y-106361842D01*
X162043575Y-106291568D01*
X162045771Y-106283563D01*
X162045313Y-106283472D01*
X162052819Y-106245736D01*
X162062500Y-106197067D01*
X162062499Y-104622934D01*
X162062498Y-104622930D01*
X162062498Y-104622926D01*
X162047734Y-104548699D01*
X161991483Y-104464515D01*
X161907302Y-104408266D01*
X161833069Y-104393500D01*
X161833067Y-104393500D01*
X161551500Y-104393500D01*
X161483379Y-104373498D01*
X161436886Y-104319842D01*
X161425500Y-104267500D01*
X161425500Y-104012499D01*
X161445502Y-103944378D01*
X161499158Y-103897885D01*
X161551500Y-103886499D01*
X161833064Y-103886499D01*
X161833066Y-103886499D01*
X161833069Y-103886498D01*
X161833072Y-103886498D01*
X161875978Y-103877964D01*
X161907301Y-103871734D01*
X161991484Y-103815484D01*
X162047734Y-103731301D01*
X162062500Y-103657067D01*
X162062499Y-102082934D01*
X162062498Y-102082930D01*
X162062498Y-102082926D01*
X162047734Y-102008699D01*
X161991483Y-101924515D01*
X161907302Y-101868266D01*
X161833067Y-101853500D01*
X160258936Y-101853500D01*
X160258926Y-101853501D01*
X160184699Y-101868265D01*
X160100515Y-101924516D01*
X160044266Y-102008697D01*
X160029500Y-102082930D01*
X160029500Y-103657063D01*
X160029501Y-103657073D01*
X160044265Y-103731300D01*
X160100516Y-103815484D01*
X160184697Y-103871733D01*
X160184699Y-103871734D01*
X160258933Y-103886500D01*
X160540501Y-103886499D01*
X160608620Y-103906501D01*
X160655113Y-103960156D01*
X160666500Y-104012499D01*
X160666500Y-104267500D01*
X160646498Y-104335621D01*
X160592842Y-104382114D01*
X160540500Y-104393500D01*
X160258936Y-104393500D01*
X160258926Y-104393501D01*
X160184699Y-104408265D01*
X160100515Y-104464516D01*
X160044266Y-104548697D01*
X160029500Y-104622930D01*
X160029500Y-105837615D01*
X160009498Y-105905736D01*
X159992599Y-105926705D01*
X159816690Y-106102615D01*
X159727594Y-106191711D01*
X159665282Y-106225736D01*
X159594466Y-106220671D01*
X159537631Y-106178124D01*
X159512820Y-106111603D01*
X159512499Y-106102641D01*
X159512499Y-104622934D01*
X159512498Y-104622930D01*
X159512498Y-104622926D01*
X159497734Y-104548699D01*
X159441483Y-104464515D01*
X159357302Y-104408266D01*
X159283069Y-104393500D01*
X159283067Y-104393500D01*
X159001500Y-104393500D01*
X158933379Y-104373498D01*
X158886886Y-104319842D01*
X158875500Y-104267500D01*
X158875500Y-104012499D01*
X158895502Y-103944378D01*
X158949158Y-103897885D01*
X159001500Y-103886499D01*
X159283064Y-103886499D01*
X159283066Y-103886499D01*
X159283069Y-103886498D01*
X159283072Y-103886498D01*
X159325978Y-103877964D01*
X159357301Y-103871734D01*
X159441484Y-103815484D01*
X159497734Y-103731301D01*
X159512500Y-103657067D01*
X159512499Y-102082934D01*
X159512498Y-102082930D01*
X159512498Y-102082926D01*
X159497734Y-102008699D01*
X159441483Y-101924515D01*
X159357302Y-101868266D01*
X159283067Y-101853500D01*
X157708936Y-101853500D01*
X157708926Y-101853501D01*
X157634699Y-101868265D01*
X157550515Y-101924516D01*
X157494266Y-102008697D01*
X157479500Y-102082930D01*
X157479500Y-103657063D01*
X157479501Y-103657073D01*
X157494265Y-103731300D01*
X157550516Y-103815484D01*
X157634697Y-103871733D01*
X157634699Y-103871734D01*
X157708933Y-103886500D01*
X157990501Y-103886499D01*
X158058620Y-103906501D01*
X158105113Y-103960156D01*
X158116500Y-104012499D01*
X158116500Y-104267500D01*
X158096498Y-104335621D01*
X158042842Y-104382114D01*
X157990500Y-104393500D01*
X157708936Y-104393500D01*
X157708926Y-104393501D01*
X157634699Y-104408265D01*
X157550515Y-104464516D01*
X157494266Y-104548697D01*
X157479500Y-104622930D01*
X157479500Y-106197063D01*
X157479501Y-106197073D01*
X157494265Y-106271300D01*
X157550516Y-106355484D01*
X157634697Y-106411733D01*
X157634699Y-106411734D01*
X157669147Y-106418586D01*
X157732056Y-106451493D01*
X157767189Y-106513188D01*
X157763389Y-106584083D01*
X157733661Y-106631260D01*
X156540595Y-107824327D01*
X156478283Y-107858352D01*
X156407468Y-107853288D01*
X156350632Y-107810741D01*
X156325821Y-107744221D01*
X156325500Y-107735232D01*
X156325500Y-106552499D01*
X156345502Y-106484378D01*
X156399158Y-106437885D01*
X156451500Y-106426499D01*
X156733064Y-106426499D01*
X156733066Y-106426499D01*
X156733069Y-106426498D01*
X156733072Y-106426498D01*
X156788376Y-106415498D01*
X156807301Y-106411734D01*
X156891484Y-106355484D01*
X156947734Y-106271301D01*
X156962500Y-106197067D01*
X156962499Y-104622934D01*
X156962498Y-104622930D01*
X156962498Y-104622926D01*
X156947734Y-104548699D01*
X156891483Y-104464515D01*
X156807302Y-104408266D01*
X156733069Y-104393500D01*
X156733067Y-104393500D01*
X156451500Y-104393500D01*
X156383379Y-104373498D01*
X156336886Y-104319842D01*
X156325500Y-104267500D01*
X156325500Y-104012499D01*
X156345502Y-103944378D01*
X156399158Y-103897885D01*
X156451500Y-103886499D01*
X156733064Y-103886499D01*
X156733066Y-103886499D01*
X156733069Y-103886498D01*
X156733072Y-103886498D01*
X156775978Y-103877964D01*
X156807301Y-103871734D01*
X156891484Y-103815484D01*
X156947734Y-103731301D01*
X156962500Y-103657067D01*
X156962499Y-102082934D01*
X156962498Y-102082930D01*
X156962498Y-102082926D01*
X156947734Y-102008699D01*
X156891483Y-101924515D01*
X156807302Y-101868266D01*
X156733067Y-101853500D01*
X155158936Y-101853500D01*
X155158926Y-101853501D01*
X155084699Y-101868265D01*
X155000515Y-101924516D01*
X154944266Y-102008697D01*
X154929500Y-102082930D01*
X154929500Y-103657063D01*
X154929501Y-103657073D01*
X154944265Y-103731300D01*
X155000516Y-103815484D01*
X155084697Y-103871733D01*
X155084699Y-103871734D01*
X155158933Y-103886500D01*
X155440501Y-103886499D01*
X155508620Y-103906501D01*
X155555113Y-103960156D01*
X155566500Y-104012499D01*
X155566500Y-104267500D01*
X155546498Y-104335621D01*
X155492842Y-104382114D01*
X155440500Y-104393500D01*
X155158936Y-104393500D01*
X155158926Y-104393501D01*
X155084699Y-104408265D01*
X155000515Y-104464516D01*
X154944266Y-104548697D01*
X154929500Y-104622930D01*
X154929500Y-106197063D01*
X154929501Y-106197073D01*
X154944265Y-106271300D01*
X155000516Y-106355484D01*
X155084697Y-106411733D01*
X155084699Y-106411734D01*
X155158933Y-106426500D01*
X155440501Y-106426499D01*
X155508620Y-106446501D01*
X155555113Y-106500156D01*
X155566500Y-106552499D01*
X155566500Y-108039097D01*
X155546498Y-108107218D01*
X155529595Y-108128192D01*
X154010595Y-109647192D01*
X153948283Y-109681218D01*
X153877468Y-109676153D01*
X153820632Y-109633606D01*
X153795821Y-109567086D01*
X153795500Y-109558097D01*
X153795500Y-106552499D01*
X153815502Y-106484378D01*
X153869158Y-106437885D01*
X153921500Y-106426499D01*
X154183064Y-106426499D01*
X154183066Y-106426499D01*
X154183069Y-106426498D01*
X154183072Y-106426498D01*
X154238376Y-106415498D01*
X154257301Y-106411734D01*
X154341484Y-106355484D01*
X154397734Y-106271301D01*
X154412500Y-106197067D01*
X154412499Y-104622934D01*
X154412498Y-104622930D01*
X154412498Y-104622926D01*
X154397734Y-104548699D01*
X154341483Y-104464515D01*
X154257302Y-104408266D01*
X154183069Y-104393500D01*
X154183067Y-104393500D01*
X153901500Y-104393500D01*
X153833379Y-104373498D01*
X153786886Y-104319842D01*
X153775500Y-104267500D01*
X153775500Y-104012499D01*
X153795502Y-103944378D01*
X153849158Y-103897885D01*
X153901500Y-103886499D01*
X154183064Y-103886499D01*
X154183066Y-103886499D01*
X154183069Y-103886498D01*
X154183072Y-103886498D01*
X154225978Y-103877964D01*
X154257301Y-103871734D01*
X154341484Y-103815484D01*
X154397734Y-103731301D01*
X154412500Y-103657067D01*
X154412499Y-102082934D01*
X154412498Y-102082930D01*
X154412498Y-102082926D01*
X154397734Y-102008699D01*
X154341483Y-101924515D01*
X154257302Y-101868266D01*
X154183067Y-101853500D01*
X152608936Y-101853500D01*
X152608926Y-101853501D01*
X152534699Y-101868265D01*
X152450515Y-101924516D01*
X152394266Y-102008697D01*
X152379500Y-102082930D01*
X152379500Y-103657063D01*
X152379501Y-103657073D01*
X152394265Y-103731300D01*
X152450516Y-103815484D01*
X152534697Y-103871733D01*
X152534699Y-103871734D01*
X152608933Y-103886500D01*
X152890501Y-103886499D01*
X152958620Y-103906501D01*
X153005113Y-103960156D01*
X153016500Y-104012499D01*
X153016500Y-104267500D01*
X152996498Y-104335621D01*
X152942842Y-104382114D01*
X152890500Y-104393500D01*
X152608936Y-104393500D01*
X152608926Y-104393501D01*
X152534699Y-104408265D01*
X152450515Y-104464516D01*
X152394266Y-104548697D01*
X152379500Y-104622930D01*
X152379500Y-106197063D01*
X152379501Y-106197073D01*
X152394265Y-106271300D01*
X152450516Y-106355484D01*
X152534697Y-106411733D01*
X152534699Y-106411734D01*
X152608933Y-106426500D01*
X152910501Y-106426499D01*
X152978620Y-106446501D01*
X153025113Y-106500156D01*
X153036500Y-106552499D01*
X153036500Y-109861962D01*
X153016498Y-109930083D01*
X152999595Y-109951057D01*
X152623057Y-110327595D01*
X152560745Y-110361621D01*
X152533962Y-110364500D01*
X150420427Y-110364500D01*
X150394568Y-110361818D01*
X150383898Y-110359580D01*
X150360593Y-110362486D01*
X150348316Y-110364016D01*
X150340526Y-110364500D01*
X150336556Y-110364500D01*
X150314566Y-110368169D01*
X150311991Y-110368544D01*
X150263485Y-110374591D01*
X150258217Y-110375247D01*
X150250620Y-110377508D01*
X150243068Y-110380101D01*
X150195424Y-110405884D01*
X150193111Y-110407074D01*
X150144432Y-110430874D01*
X150137978Y-110435481D01*
X150131684Y-110440380D01*
X150094987Y-110480242D01*
X150093185Y-110482119D01*
X147245665Y-113329641D01*
X147183353Y-113363666D01*
X147156570Y-113366546D01*
X146517063Y-113366546D01*
X146448942Y-113346544D01*
X146440359Y-113340508D01*
X146337649Y-113261695D01*
X146337641Y-113261690D01*
X146202752Y-113205817D01*
X146058000Y-113186761D01*
X145913247Y-113205817D01*
X145847942Y-113232868D01*
X145778358Y-113261691D01*
X145778357Y-113261692D01*
X145778356Y-113261692D01*
X145662526Y-113350572D01*
X145573646Y-113466402D01*
X145573645Y-113466404D01*
X145564384Y-113488763D01*
X145517771Y-113601293D01*
X145498715Y-113746045D01*
X145498715Y-113746046D01*
X145517771Y-113890798D01*
X145573644Y-114025687D01*
X145573649Y-114025695D01*
X145662525Y-114141520D01*
X145766822Y-114221550D01*
X145778357Y-114230401D01*
X145913246Y-114286274D01*
X146058000Y-114305331D01*
X146202754Y-114286274D01*
X146337643Y-114230401D01*
X146424944Y-114163412D01*
X146440359Y-114151584D01*
X146506579Y-114125983D01*
X146517063Y-114125546D01*
X147313527Y-114125546D01*
X147339385Y-114128227D01*
X147350054Y-114130465D01*
X147385637Y-114126029D01*
X147393428Y-114125546D01*
X147397390Y-114125546D01*
X147397397Y-114125546D01*
X147397403Y-114125544D01*
X147402591Y-114125115D01*
X147402756Y-114127107D01*
X147464693Y-114134563D01*
X147519403Y-114179810D01*
X147540967Y-114247453D01*
X147541000Y-114250350D01*
X147541000Y-115917214D01*
X147520998Y-115985335D01*
X147468251Y-116031408D01*
X147385870Y-116069823D01*
X147385867Y-116069825D01*
X147306824Y-116148868D01*
X147259577Y-116250190D01*
X147253500Y-116296351D01*
X147253500Y-116374500D01*
X147233498Y-116442621D01*
X147179842Y-116489114D01*
X147127500Y-116500500D01*
X145858484Y-116500500D01*
X145790363Y-116480498D01*
X145743870Y-116426842D01*
X145740436Y-116418553D01*
X145731758Y-116395285D01*
X145731756Y-116395283D01*
X145731756Y-116395281D01*
X145646974Y-116282025D01*
X145533718Y-116197244D01*
X145533714Y-116197241D01*
X145401160Y-116147800D01*
X145401152Y-116147798D01*
X145342560Y-116141500D01*
X144773451Y-116141500D01*
X144773427Y-116141502D01*
X144714848Y-116147798D01*
X144582280Y-116197244D01*
X144469025Y-116282025D01*
X144384244Y-116395281D01*
X144384242Y-116395284D01*
X144376055Y-116417235D01*
X144333508Y-116474070D01*
X144266987Y-116498880D01*
X144197613Y-116483788D01*
X144147412Y-116433585D01*
X144139945Y-116417235D01*
X144131838Y-116395500D01*
X144131758Y-116395285D01*
X144116947Y-116375500D01*
X144046974Y-116282025D01*
X143933718Y-116197244D01*
X143933714Y-116197241D01*
X143801160Y-116147800D01*
X143801152Y-116147798D01*
X143742560Y-116141500D01*
X143173451Y-116141500D01*
X143173427Y-116141502D01*
X143114848Y-116147798D01*
X142982280Y-116197244D01*
X142869025Y-116282025D01*
X142806157Y-116366009D01*
X142749322Y-116408556D01*
X142705289Y-116416500D01*
X141604500Y-116416500D01*
X141536379Y-116396498D01*
X141489886Y-116342842D01*
X141478500Y-116290500D01*
X141478499Y-115544936D01*
X141478498Y-115544926D01*
X141463734Y-115470699D01*
X141451587Y-115452520D01*
X141407484Y-115386516D01*
X141393849Y-115377405D01*
X141323302Y-115330266D01*
X141249067Y-115315500D01*
X139674936Y-115315500D01*
X139674926Y-115315501D01*
X139600699Y-115330265D01*
X139516515Y-115386516D01*
X139460266Y-115470697D01*
X139445500Y-115544930D01*
X139445500Y-115701500D01*
X139425498Y-115769621D01*
X139371842Y-115816114D01*
X139319500Y-115827500D01*
X139064499Y-115827500D01*
X138996378Y-115807498D01*
X138949885Y-115753842D01*
X138938499Y-115701500D01*
X138938499Y-115544936D01*
X138938498Y-115544927D01*
X138923734Y-115470699D01*
X138911587Y-115452520D01*
X138867484Y-115386516D01*
X138853849Y-115377405D01*
X138783302Y-115330266D01*
X138709067Y-115315500D01*
X137134936Y-115315500D01*
X137134926Y-115315501D01*
X137060699Y-115330265D01*
X136976515Y-115386516D01*
X136920266Y-115470697D01*
X136905500Y-115544930D01*
X136905500Y-115567837D01*
X136885498Y-115635958D01*
X136831842Y-115682451D01*
X136761568Y-115692555D01*
X136696988Y-115663061D01*
X136690405Y-115656932D01*
X136685405Y-115651932D01*
X136651379Y-115589620D01*
X136648500Y-115562837D01*
X136648500Y-115057382D01*
X136668502Y-114989261D01*
X136722158Y-114942768D01*
X136792432Y-114932664D01*
X136850010Y-114956515D01*
X136914033Y-115004443D01*
X136914035Y-115004444D01*
X137050906Y-115055494D01*
X137111402Y-115061999D01*
X137111415Y-115062000D01*
X137668000Y-115062000D01*
X137668000Y-114156805D01*
X137726960Y-114197004D01*
X137855002Y-114236500D01*
X137955312Y-114236500D01*
X138054499Y-114221550D01*
X138175224Y-114163412D01*
X138176000Y-114162691D01*
X138176000Y-115062000D01*
X138732585Y-115062000D01*
X138732597Y-115061999D01*
X138793093Y-115055494D01*
X138929964Y-115004444D01*
X138929965Y-115004444D01*
X139046904Y-114916904D01*
X139091132Y-114857823D01*
X139147968Y-114815276D01*
X139218783Y-114810212D01*
X139281096Y-114844237D01*
X139292868Y-114857823D01*
X139337095Y-114916904D01*
X139454034Y-115004444D01*
X139590906Y-115055494D01*
X139651402Y-115061999D01*
X139651415Y-115062000D01*
X140208000Y-115062000D01*
X140208000Y-114156805D01*
X140266960Y-114197004D01*
X140395002Y-114236500D01*
X140495312Y-114236500D01*
X140594499Y-114221550D01*
X140715224Y-114163412D01*
X140716000Y-114162691D01*
X140716000Y-115062000D01*
X141272585Y-115062000D01*
X141272597Y-115061999D01*
X141333093Y-115055494D01*
X141469964Y-115004444D01*
X141469965Y-115004444D01*
X141586904Y-114916904D01*
X141674444Y-114799965D01*
X141674444Y-114799964D01*
X141725494Y-114663093D01*
X141731999Y-114602597D01*
X141732000Y-114602585D01*
X141732000Y-114046000D01*
X140828618Y-114046000D01*
X140880447Y-113956228D01*
X140910264Y-113825593D01*
X140900251Y-113691972D01*
X140851297Y-113567240D01*
X140827979Y-113538000D01*
X141732000Y-113538000D01*
X141732000Y-112981414D01*
X141731999Y-112981402D01*
X141725494Y-112920906D01*
X141674444Y-112784035D01*
X141674444Y-112784034D01*
X141586904Y-112667095D01*
X141469965Y-112579555D01*
X141333093Y-112528505D01*
X141272597Y-112522000D01*
X140716000Y-112522000D01*
X140716000Y-113427194D01*
X140657040Y-113386996D01*
X140528998Y-113347500D01*
X140428688Y-113347500D01*
X140329501Y-113362450D01*
X140208776Y-113420588D01*
X140208000Y-113421308D01*
X140208000Y-112522000D01*
X139651402Y-112522000D01*
X139590906Y-112528505D01*
X139454035Y-112579555D01*
X139454034Y-112579555D01*
X139337097Y-112667094D01*
X139292868Y-112726177D01*
X139236031Y-112768723D01*
X139165216Y-112773787D01*
X139102904Y-112739762D01*
X139091132Y-112726177D01*
X139046902Y-112667094D01*
X138929965Y-112579555D01*
X138793093Y-112528505D01*
X138732597Y-112522000D01*
X138176000Y-112522000D01*
X138176000Y-113427194D01*
X138117040Y-113386996D01*
X137988998Y-113347500D01*
X137888688Y-113347500D01*
X137789501Y-113362450D01*
X137668776Y-113420588D01*
X137668000Y-113421308D01*
X137668000Y-112522000D01*
X137111402Y-112522000D01*
X137050906Y-112528505D01*
X136914035Y-112579555D01*
X136914034Y-112579555D01*
X136850009Y-112627485D01*
X136783489Y-112652296D01*
X136714115Y-112637205D01*
X136663913Y-112587003D01*
X136648500Y-112526617D01*
X136648500Y-111568999D01*
X136668502Y-111500878D01*
X136722158Y-111454385D01*
X136774500Y-111442999D01*
X137375564Y-111442999D01*
X137375566Y-111442999D01*
X137375569Y-111442998D01*
X137375572Y-111442998D01*
X137423330Y-111433499D01*
X137449801Y-111428234D01*
X137533984Y-111371984D01*
X137590234Y-111287801D01*
X137605000Y-111213567D01*
X137604999Y-111100659D01*
X137625000Y-111032540D01*
X137641899Y-111011570D01*
X137838407Y-110815062D01*
X137900717Y-110781038D01*
X137971532Y-110786103D01*
X138028368Y-110828650D01*
X138053179Y-110895170D01*
X138053500Y-110904159D01*
X138053500Y-111352063D01*
X138053501Y-111352073D01*
X138068265Y-111426300D01*
X138124516Y-111510484D01*
X138208697Y-111566733D01*
X138208699Y-111566734D01*
X138282933Y-111581500D01*
X139393066Y-111581499D01*
X139393069Y-111581498D01*
X139393073Y-111581498D01*
X139455913Y-111568999D01*
X139467301Y-111566734D01*
X139551484Y-111510484D01*
X139607734Y-111426301D01*
X139622500Y-111352067D01*
X139622499Y-111210117D01*
X139642501Y-111141999D01*
X139696156Y-111095506D01*
X139766430Y-111085401D01*
X139831011Y-111114894D01*
X139833837Y-111117418D01*
X139869226Y-111149996D01*
X139871105Y-111151799D01*
X139952583Y-111233278D01*
X139968968Y-111253455D01*
X139974930Y-111262581D01*
X139982014Y-111268094D01*
X140003229Y-111284606D01*
X140009078Y-111289773D01*
X140011886Y-111292581D01*
X140011889Y-111292583D01*
X140011892Y-111292586D01*
X140030034Y-111305538D01*
X140032122Y-111307095D01*
X140048423Y-111319782D01*
X140074881Y-111340375D01*
X140074886Y-111340376D01*
X140081899Y-111344172D01*
X140089016Y-111347651D01*
X140089018Y-111347651D01*
X140089020Y-111347653D01*
X140140930Y-111363107D01*
X140143387Y-111363893D01*
X140194673Y-111381500D01*
X140194674Y-111381500D01*
X140204549Y-111384890D01*
X140203707Y-111387340D01*
X140253952Y-111411666D01*
X140274083Y-111435008D01*
X140324515Y-111510484D01*
X140408697Y-111566733D01*
X140408699Y-111566734D01*
X140482933Y-111581500D01*
X141593066Y-111581499D01*
X141593069Y-111581498D01*
X141593073Y-111581498D01*
X141655913Y-111568999D01*
X141667301Y-111566734D01*
X141751484Y-111510484D01*
X141807734Y-111426301D01*
X141822500Y-111352067D01*
X141822499Y-110651934D01*
X141822498Y-110651931D01*
X141822498Y-110651926D01*
X141807734Y-110577699D01*
X141784762Y-110543320D01*
X141751484Y-110493516D01*
X141735526Y-110482853D01*
X141667302Y-110437266D01*
X141593069Y-110422500D01*
X141593067Y-110422500D01*
X140638499Y-110422500D01*
X140570378Y-110402498D01*
X140523885Y-110348842D01*
X140512499Y-110296500D01*
X140512499Y-109807499D01*
X140532501Y-109739378D01*
X140586157Y-109692885D01*
X140638499Y-109681499D01*
X141593064Y-109681499D01*
X141593066Y-109681499D01*
X141593069Y-109681498D01*
X141593072Y-109681498D01*
X141619944Y-109676153D01*
X141667301Y-109666734D01*
X141725667Y-109627734D01*
X141793418Y-109606520D01*
X141795668Y-109606500D01*
X142007828Y-109606500D01*
X142075949Y-109626502D01*
X142112591Y-109662495D01*
X142156016Y-109727484D01*
X142156017Y-109727485D01*
X142240197Y-109783733D01*
X142240199Y-109783734D01*
X142314433Y-109798500D01*
X142971338Y-109798499D01*
X143039459Y-109818501D01*
X143060433Y-109835404D01*
X143134832Y-109909803D01*
X143151732Y-109930773D01*
X143151854Y-109930963D01*
X143154304Y-109934775D01*
X143193795Y-109968994D01*
X143193802Y-109969000D01*
X143197082Y-109972053D01*
X143208279Y-109983250D01*
X143220950Y-109992735D01*
X143224426Y-109995536D01*
X143263942Y-110029777D01*
X143268261Y-110031749D01*
X143291425Y-110045492D01*
X143295233Y-110048343D01*
X143320396Y-110057728D01*
X143344203Y-110066608D01*
X143348360Y-110068330D01*
X143390097Y-110087390D01*
X143395904Y-110090042D01*
X143400601Y-110090717D01*
X143426709Y-110097380D01*
X143431158Y-110099040D01*
X143483315Y-110102770D01*
X143487738Y-110103245D01*
X143503417Y-110105500D01*
X143519232Y-110105500D01*
X143523728Y-110105661D01*
X143541911Y-110106961D01*
X143575860Y-110109389D01*
X143580503Y-110108378D01*
X143607284Y-110105500D01*
X144256157Y-110105500D01*
X144324278Y-110125502D01*
X144360921Y-110161497D01*
X144406015Y-110228984D01*
X144490197Y-110285233D01*
X144490199Y-110285234D01*
X144564433Y-110300000D01*
X144632500Y-110299999D01*
X144700619Y-110320000D01*
X144747113Y-110373655D01*
X144758500Y-110425999D01*
X144758500Y-110499288D01*
X144738498Y-110567409D01*
X144708010Y-110600156D01*
X144624024Y-110663027D01*
X144539244Y-110776281D01*
X144539241Y-110776285D01*
X144489800Y-110908839D01*
X144489798Y-110908847D01*
X144483500Y-110967431D01*
X144483500Y-111536548D01*
X144483502Y-111536572D01*
X144489798Y-111595151D01*
X144489799Y-111595156D01*
X144489800Y-111595157D01*
X144539242Y-111727715D01*
X144539243Y-111727716D01*
X144539244Y-111727719D01*
X144624025Y-111840974D01*
X144737281Y-111925755D01*
X144737285Y-111925758D01*
X144869839Y-111975199D01*
X144869847Y-111975201D01*
X144899142Y-111978350D01*
X144928443Y-111981500D01*
X145597556Y-111981499D01*
X145623408Y-111978720D01*
X145656151Y-111975201D01*
X145656152Y-111975200D01*
X145656157Y-111975200D01*
X145788715Y-111925758D01*
X145901974Y-111840974D01*
X145986758Y-111727715D01*
X146036200Y-111595157D01*
X146037669Y-111581500D01*
X146042499Y-111536568D01*
X146042499Y-111536566D01*
X146042500Y-111536557D01*
X146042499Y-110967444D01*
X146040597Y-110949745D01*
X146036201Y-110908848D01*
X146036200Y-110908846D01*
X146036200Y-110908843D01*
X145986758Y-110776285D01*
X145986755Y-110776281D01*
X145986755Y-110776280D01*
X145901975Y-110663027D01*
X145817990Y-110600156D01*
X145775444Y-110543320D01*
X145767500Y-110499288D01*
X145767500Y-110425999D01*
X145787502Y-110357878D01*
X145841158Y-110311385D01*
X145893500Y-110299999D01*
X146011564Y-110299999D01*
X146011566Y-110299999D01*
X146011569Y-110299998D01*
X146011572Y-110299998D01*
X146048163Y-110292719D01*
X146085801Y-110285234D01*
X146169984Y-110228984D01*
X146189219Y-110200197D01*
X146215079Y-110161497D01*
X146269556Y-110115970D01*
X146319843Y-110105500D01*
X146927216Y-110105500D01*
X146953996Y-110108378D01*
X146958640Y-110109389D01*
X146993103Y-110106924D01*
X147010772Y-110105661D01*
X147015268Y-110105500D01*
X147031082Y-110105500D01*
X147031083Y-110105500D01*
X147046741Y-110103248D01*
X147051204Y-110102769D01*
X147076361Y-110100969D01*
X147103342Y-110099040D01*
X147107786Y-110097382D01*
X147133898Y-110090717D01*
X147138596Y-110090042D01*
X147186149Y-110068324D01*
X147190284Y-110066612D01*
X147239267Y-110048343D01*
X147243061Y-110045502D01*
X147266236Y-110031750D01*
X147270558Y-110029777D01*
X147310069Y-109995538D01*
X147313543Y-109992739D01*
X147326221Y-109983250D01*
X147337409Y-109972060D01*
X147340697Y-109969000D01*
X147380196Y-109934775D01*
X147382764Y-109930778D01*
X147399661Y-109909808D01*
X147456068Y-109853401D01*
X147518379Y-109819378D01*
X147545161Y-109816499D01*
X148559064Y-109816499D01*
X148559066Y-109816499D01*
X148559069Y-109816498D01*
X148559072Y-109816498D01*
X148604316Y-109807499D01*
X148633301Y-109801734D01*
X148717484Y-109745484D01*
X148773734Y-109661301D01*
X148788500Y-109587067D01*
X148788499Y-107836934D01*
X148788498Y-107836930D01*
X148788498Y-107836926D01*
X148773734Y-107762699D01*
X148717483Y-107678515D01*
X148633302Y-107622266D01*
X148559069Y-107607500D01*
X148559067Y-107607500D01*
X148458500Y-107607500D01*
X148390379Y-107587498D01*
X148343886Y-107533842D01*
X148332500Y-107481500D01*
X148332500Y-106552499D01*
X148352502Y-106484378D01*
X148406158Y-106437885D01*
X148458500Y-106426499D01*
X148615064Y-106426499D01*
X148615066Y-106426499D01*
X148615069Y-106426498D01*
X148615072Y-106426498D01*
X148670376Y-106415498D01*
X148689301Y-106411734D01*
X148773484Y-106355484D01*
X148829734Y-106271301D01*
X148839820Y-106220597D01*
X149098000Y-106220597D01*
X149104505Y-106281093D01*
X149155555Y-106417964D01*
X149155555Y-106417965D01*
X149243095Y-106534904D01*
X149360034Y-106622444D01*
X149496906Y-106673494D01*
X149557402Y-106679999D01*
X149557415Y-106680000D01*
X150114000Y-106680000D01*
X150114000Y-105774805D01*
X150172960Y-105815004D01*
X150301002Y-105854500D01*
X150401312Y-105854500D01*
X150500499Y-105839550D01*
X150621224Y-105781412D01*
X150622000Y-105780691D01*
X150622000Y-106680000D01*
X151178585Y-106680000D01*
X151178597Y-106679999D01*
X151239093Y-106673494D01*
X151375964Y-106622444D01*
X151375965Y-106622444D01*
X151492904Y-106534904D01*
X151580444Y-106417965D01*
X151580444Y-106417964D01*
X151631494Y-106281093D01*
X151637999Y-106220597D01*
X151638000Y-106220585D01*
X151638000Y-105664000D01*
X150734618Y-105664000D01*
X150786447Y-105574228D01*
X150816264Y-105443593D01*
X150806251Y-105309972D01*
X150757297Y-105185240D01*
X150733979Y-105156000D01*
X151638000Y-105156000D01*
X151638000Y-104599414D01*
X151637999Y-104599402D01*
X151631494Y-104538906D01*
X151580444Y-104402035D01*
X151580444Y-104402034D01*
X151492904Y-104285095D01*
X151433823Y-104240868D01*
X151391276Y-104184032D01*
X151386212Y-104113217D01*
X151420237Y-104050904D01*
X151433823Y-104039132D01*
X151492904Y-103994904D01*
X151580444Y-103877965D01*
X151580444Y-103877964D01*
X151631494Y-103741093D01*
X151637999Y-103680597D01*
X151638000Y-103680585D01*
X151638000Y-103124000D01*
X150734618Y-103124000D01*
X150786447Y-103034228D01*
X150816264Y-102903593D01*
X150806251Y-102769972D01*
X150757297Y-102645240D01*
X150733979Y-102616000D01*
X151638000Y-102616000D01*
X151638000Y-102059414D01*
X151637999Y-102059402D01*
X151631494Y-101998906D01*
X151580444Y-101862035D01*
X151580444Y-101862034D01*
X151492904Y-101745095D01*
X151375965Y-101657555D01*
X151239093Y-101606505D01*
X151178597Y-101600000D01*
X150622000Y-101600000D01*
X150622000Y-102505194D01*
X150563040Y-102464996D01*
X150434998Y-102425500D01*
X150334688Y-102425500D01*
X150235501Y-102440450D01*
X150114776Y-102498588D01*
X150114000Y-102499308D01*
X150114000Y-101600000D01*
X149557402Y-101600000D01*
X149496906Y-101606505D01*
X149360035Y-101657555D01*
X149360034Y-101657555D01*
X149243095Y-101745095D01*
X149155555Y-101862034D01*
X149155555Y-101862035D01*
X149104505Y-101998906D01*
X149098000Y-102059402D01*
X149098000Y-102616000D01*
X150001382Y-102616000D01*
X149949553Y-102705772D01*
X149919736Y-102836407D01*
X149929749Y-102970028D01*
X149978703Y-103094760D01*
X150002021Y-103124000D01*
X149098000Y-103124000D01*
X149098000Y-103680597D01*
X149104505Y-103741093D01*
X149155555Y-103877964D01*
X149155555Y-103877965D01*
X149243094Y-103994902D01*
X149302177Y-104039132D01*
X149344723Y-104095969D01*
X149349787Y-104166784D01*
X149315762Y-104229096D01*
X149302177Y-104240868D01*
X149243094Y-104285097D01*
X149155555Y-104402034D01*
X149155555Y-104402035D01*
X149104505Y-104538906D01*
X149098000Y-104599402D01*
X149098000Y-105156000D01*
X150001382Y-105156000D01*
X149949553Y-105245772D01*
X149919736Y-105376407D01*
X149929749Y-105510028D01*
X149978703Y-105634760D01*
X150002021Y-105664000D01*
X149098000Y-105664000D01*
X149098000Y-106220597D01*
X148839820Y-106220597D01*
X148844500Y-106197067D01*
X148844499Y-104622934D01*
X148844498Y-104622930D01*
X148844498Y-104622926D01*
X148829734Y-104548699D01*
X148773483Y-104464515D01*
X148689302Y-104408266D01*
X148615069Y-104393500D01*
X148615067Y-104393500D01*
X148458500Y-104393500D01*
X148390379Y-104373498D01*
X148343886Y-104319842D01*
X148332500Y-104267500D01*
X148332500Y-104012499D01*
X148352502Y-103944378D01*
X148406158Y-103897885D01*
X148458500Y-103886499D01*
X148615064Y-103886499D01*
X148615066Y-103886499D01*
X148615069Y-103886498D01*
X148615072Y-103886498D01*
X148657978Y-103877964D01*
X148689301Y-103871734D01*
X148773484Y-103815484D01*
X148829734Y-103731301D01*
X148844500Y-103657067D01*
X148844499Y-102082934D01*
X148844498Y-102082930D01*
X148844498Y-102082926D01*
X148829734Y-102008699D01*
X148773483Y-101924515D01*
X148689302Y-101868266D01*
X148615067Y-101853500D01*
X147040936Y-101853500D01*
X147040926Y-101853501D01*
X146966699Y-101868265D01*
X146882515Y-101924516D01*
X146826266Y-102008697D01*
X146811500Y-102082930D01*
X146811500Y-103657063D01*
X146811501Y-103657073D01*
X146826265Y-103731300D01*
X146882516Y-103815484D01*
X146966697Y-103871733D01*
X146966699Y-103871734D01*
X147040933Y-103886500D01*
X147197500Y-103886499D01*
X147265620Y-103906501D01*
X147312113Y-103960156D01*
X147323500Y-104012499D01*
X147323500Y-104267500D01*
X147303498Y-104335621D01*
X147249842Y-104382114D01*
X147197501Y-104393500D01*
X147040936Y-104393500D01*
X147040926Y-104393501D01*
X146966699Y-104408265D01*
X146882515Y-104464516D01*
X146826266Y-104548697D01*
X146811500Y-104622930D01*
X146811500Y-106197063D01*
X146811501Y-106197073D01*
X146826265Y-106271300D01*
X146882516Y-106355484D01*
X146966697Y-106411733D01*
X146966699Y-106411734D01*
X147040933Y-106426500D01*
X147197500Y-106426499D01*
X147265620Y-106446501D01*
X147312113Y-106500156D01*
X147323500Y-106552499D01*
X147323500Y-107482017D01*
X147303498Y-107550138D01*
X147249842Y-107596631D01*
X147214953Y-107606035D01*
X147215005Y-107606293D01*
X147211158Y-107607057D01*
X147209853Y-107607410D01*
X147208933Y-107607500D01*
X147134699Y-107622265D01*
X147050515Y-107678516D01*
X146994266Y-107762697D01*
X146979500Y-107836930D01*
X146979500Y-108850837D01*
X146959498Y-108918958D01*
X146942596Y-108939932D01*
X146822934Y-109059595D01*
X146760622Y-109093620D01*
X146733838Y-109096500D01*
X146319843Y-109096500D01*
X146251722Y-109076498D01*
X146215079Y-109040503D01*
X146169984Y-108973015D01*
X146085802Y-108916766D01*
X146011567Y-108902000D01*
X144564436Y-108902000D01*
X144564426Y-108902001D01*
X144490199Y-108916765D01*
X144406015Y-108973016D01*
X144360921Y-109040503D01*
X144306444Y-109086030D01*
X144256157Y-109096500D01*
X144116999Y-109096500D01*
X144048878Y-109076498D01*
X144002385Y-109022842D01*
X143990999Y-108970500D01*
X143990999Y-108629936D01*
X143990998Y-108629927D01*
X143976234Y-108555699D01*
X143963917Y-108537265D01*
X143919984Y-108471516D01*
X143919983Y-108471515D01*
X143835802Y-108415266D01*
X143761567Y-108400500D01*
X142314436Y-108400500D01*
X142314426Y-108400501D01*
X142240199Y-108415265D01*
X142156016Y-108471515D01*
X142133934Y-108504563D01*
X142109251Y-108541503D01*
X142054776Y-108587030D01*
X142004488Y-108597500D01*
X141795669Y-108597500D01*
X141727548Y-108577498D01*
X141725666Y-108576265D01*
X141667300Y-108537265D01*
X141593067Y-108522500D01*
X140482936Y-108522500D01*
X140482926Y-108522501D01*
X140408699Y-108537265D01*
X140324515Y-108593516D01*
X140270692Y-108674067D01*
X140216215Y-108719594D01*
X140181518Y-108729096D01*
X140148217Y-108733248D01*
X140140610Y-108735512D01*
X140133068Y-108738101D01*
X140085424Y-108763884D01*
X140083111Y-108765074D01*
X140034432Y-108788874D01*
X140027978Y-108793481D01*
X140021684Y-108798380D01*
X139984987Y-108838242D01*
X139983185Y-108840120D01*
X139901723Y-108921581D01*
X139881550Y-108937965D01*
X139872418Y-108943931D01*
X139872415Y-108943934D01*
X139850393Y-108972228D01*
X139845230Y-108978074D01*
X139842936Y-108980370D01*
X139838740Y-108984567D01*
X139837286Y-108983114D01*
X139785317Y-109017322D01*
X139714325Y-109018098D01*
X139654183Y-108980370D01*
X139623985Y-108916116D01*
X139622499Y-108896821D01*
X139622499Y-108751936D01*
X139622498Y-108751926D01*
X139607734Y-108677699D01*
X139551483Y-108593515D01*
X139467302Y-108537266D01*
X139393067Y-108522500D01*
X138282936Y-108522500D01*
X138282926Y-108522501D01*
X138208699Y-108537265D01*
X138124515Y-108593516D01*
X138068266Y-108677697D01*
X138053500Y-108751930D01*
X138053500Y-109120837D01*
X138033498Y-109188958D01*
X138016595Y-109209932D01*
X137764333Y-109462194D01*
X137723458Y-109489507D01*
X137660360Y-109515643D01*
X137660359Y-109515644D01*
X137544526Y-109604526D01*
X137455644Y-109720359D01*
X137455643Y-109720360D01*
X137429507Y-109783458D01*
X137402194Y-109824333D01*
X137218432Y-110008095D01*
X137156120Y-110042121D01*
X137129337Y-110045000D01*
X135928436Y-110045000D01*
X135928426Y-110045001D01*
X135854199Y-110059765D01*
X135770015Y-110116016D01*
X135713766Y-110200197D01*
X135699000Y-110274430D01*
X135699000Y-110978717D01*
X135691054Y-111022753D01*
X135678387Y-111056713D01*
X135676666Y-111060867D01*
X135654958Y-111108400D01*
X135654957Y-111108404D01*
X135654281Y-111113110D01*
X135647624Y-111139195D01*
X135645960Y-111143657D01*
X135642230Y-111195789D01*
X135641750Y-111200250D01*
X135639501Y-111215908D01*
X135639500Y-111215923D01*
X135639500Y-111231732D01*
X135639339Y-111236228D01*
X135637060Y-111268094D01*
X135635611Y-111288360D01*
X135636620Y-111293001D01*
X135639500Y-111319782D01*
X135639500Y-115756215D01*
X135636621Y-115782994D01*
X135635611Y-115787635D01*
X135635611Y-115787640D01*
X135374500Y-115787640D01*
X135374500Y-106220597D01*
X144018000Y-106220597D01*
X144024505Y-106281093D01*
X144075555Y-106417964D01*
X144075555Y-106417965D01*
X144163095Y-106534904D01*
X144280034Y-106622444D01*
X144416906Y-106673494D01*
X144477402Y-106679999D01*
X144477415Y-106680000D01*
X145034000Y-106680000D01*
X145034000Y-105774805D01*
X145092960Y-105815004D01*
X145221002Y-105854500D01*
X145321312Y-105854500D01*
X145420499Y-105839550D01*
X145541224Y-105781412D01*
X145542000Y-105780691D01*
X145542000Y-106680000D01*
X146098585Y-106680000D01*
X146098597Y-106679999D01*
X146159093Y-106673494D01*
X146295964Y-106622444D01*
X146295965Y-106622444D01*
X146412904Y-106534904D01*
X146500444Y-106417965D01*
X146500444Y-106417964D01*
X146551494Y-106281093D01*
X146557999Y-106220597D01*
X146558000Y-106220585D01*
X146558000Y-105664000D01*
X145654618Y-105664000D01*
X145706447Y-105574228D01*
X145736264Y-105443593D01*
X145726251Y-105309972D01*
X145677297Y-105185240D01*
X145653979Y-105156000D01*
X146558000Y-105156000D01*
X146558000Y-104599414D01*
X146557999Y-104599402D01*
X146551494Y-104538906D01*
X146500444Y-104402035D01*
X146500444Y-104402034D01*
X146412904Y-104285095D01*
X146353823Y-104240868D01*
X146311276Y-104184032D01*
X146306212Y-104113217D01*
X146340237Y-104050904D01*
X146353823Y-104039132D01*
X146412904Y-103994904D01*
X146500444Y-103877965D01*
X146500444Y-103877964D01*
X146551494Y-103741093D01*
X146557999Y-103680597D01*
X146558000Y-103680585D01*
X146558000Y-103124000D01*
X145654618Y-103124000D01*
X145706447Y-103034228D01*
X145736264Y-102903593D01*
X145726251Y-102769972D01*
X145677297Y-102645240D01*
X145653979Y-102616000D01*
X146558000Y-102616000D01*
X146558000Y-102059414D01*
X146557999Y-102059402D01*
X146551494Y-101998906D01*
X146500444Y-101862035D01*
X146500444Y-101862034D01*
X146412904Y-101745095D01*
X146295965Y-101657555D01*
X146159093Y-101606505D01*
X146098597Y-101600000D01*
X145542000Y-101600000D01*
X145542000Y-102505194D01*
X145483040Y-102464996D01*
X145354998Y-102425500D01*
X145254688Y-102425500D01*
X145155501Y-102440450D01*
X145034776Y-102498588D01*
X145034000Y-102499308D01*
X145034000Y-101600000D01*
X144477402Y-101600000D01*
X144416906Y-101606505D01*
X144280035Y-101657555D01*
X144280034Y-101657555D01*
X144163095Y-101745095D01*
X144075555Y-101862034D01*
X144075555Y-101862035D01*
X144024505Y-101998906D01*
X144018000Y-102059402D01*
X144018000Y-102616000D01*
X144921382Y-102616000D01*
X144869553Y-102705772D01*
X144839736Y-102836407D01*
X144849749Y-102970028D01*
X144898703Y-103094760D01*
X144922021Y-103124000D01*
X144018000Y-103124000D01*
X144018000Y-103680597D01*
X144024505Y-103741093D01*
X144075555Y-103877964D01*
X144075555Y-103877965D01*
X144163094Y-103994902D01*
X144222177Y-104039132D01*
X144264723Y-104095969D01*
X144269787Y-104166784D01*
X144235762Y-104229096D01*
X144222177Y-104240868D01*
X144163094Y-104285097D01*
X144075555Y-104402034D01*
X144075555Y-104402035D01*
X144024505Y-104538906D01*
X144018000Y-104599402D01*
X144018000Y-105156000D01*
X144921382Y-105156000D01*
X144869553Y-105245772D01*
X144839736Y-105376407D01*
X144849749Y-105510028D01*
X144898703Y-105634760D01*
X144922021Y-105664000D01*
X144018000Y-105664000D01*
X144018000Y-106220597D01*
X135374500Y-106220597D01*
X135374500Y-99940500D01*
X135394502Y-99872379D01*
X135448158Y-99825886D01*
X135500500Y-99814500D01*
X184539500Y-99814500D01*
X184607621Y-99834502D01*
G37*
%TD.AperFunction*%
%TD*%
%TA.AperFunction,Conductor*%
%TO.N,+3V3*%
G36*
X147474673Y-116779338D02*
G01*
X147475193Y-116777557D01*
X147484298Y-116780210D01*
X147484298Y-116780211D01*
X147532066Y-116786500D01*
X147880008Y-116786500D01*
X147899404Y-116788026D01*
X147920500Y-116791368D01*
X147941595Y-116788026D01*
X147960992Y-116786500D01*
X148168500Y-116786500D01*
X148235539Y-116806185D01*
X148281294Y-116858989D01*
X148292500Y-116910500D01*
X148292500Y-117381500D01*
X148272815Y-117448539D01*
X148220011Y-117494294D01*
X148168500Y-117505500D01*
X143946148Y-117505500D01*
X143925837Y-117512100D01*
X143906926Y-117516640D01*
X143892221Y-117518969D01*
X143889050Y-117519472D01*
X143869647Y-117521000D01*
X143082000Y-117521000D01*
X143014961Y-117501315D01*
X142969206Y-117448511D01*
X142958000Y-117397000D01*
X142958000Y-116895000D01*
X142977685Y-116827961D01*
X143030489Y-116782206D01*
X143082000Y-116771000D01*
X147437055Y-116771000D01*
X147474673Y-116779338D01*
G37*
%TD.AperFunction*%
%TD*%
%TA.AperFunction,Conductor*%
%TO.N,Net-(C7-Pad1)*%
G36*
X151751861Y-118821500D02*
G01*
X151762012Y-118821500D01*
X152181310Y-118821500D01*
X152249431Y-118841502D01*
X152270405Y-118858405D01*
X153777355Y-120365356D01*
X153777401Y-120365400D01*
X153789646Y-120376447D01*
X153826827Y-120436929D01*
X153825405Y-120507911D01*
X153785834Y-120566857D01*
X153720675Y-120595051D01*
X153705244Y-120596000D01*
X153260190Y-120596000D01*
X153192069Y-120575998D01*
X153171095Y-120559095D01*
X151648595Y-119036594D01*
X151614569Y-118974282D01*
X151619634Y-118903466D01*
X151662181Y-118846631D01*
X151728701Y-118821820D01*
X151737690Y-118821499D01*
X151751849Y-118821499D01*
X151751861Y-118821500D01*
G37*
%TD.AperFunction*%
%TD*%
M02*
